<?xml version="1.0" standalone="no"?>
<!DOCTYPE svg PUBLIC "-//W3C//DTD SVG 1.1//EN" "http://www.w3.org/Graphics/SVG/1.1/DTD/svg11.dtd" >
<svg xmlns="http://www.w3.org/2000/svg" xmlns:xlink="http://www.w3.org/1999/xlink" version="1.1">
<metadata>
Created by FontForge 20141024 at Tue Jun 30 09:55:20 2015
 By Jimmy Warting
Copyright \(c\) 2014 by Fontfabric LLC. All rights reserved.
</metadata>
<defs>
<font id="GloberBlackItalic" horiz-adv-x="546" >
  <font-face 
    font-family="Glober Black Italic"
    font-weight="900"
    font-style="italic"
    font-stretch="normal"
    units-per-em="1000"
    panose-1="0 0 0 0 0 0 0 0 0 0"
    ascent="750"
    descent="-250"
    x-height="536"
    cap-height="720"
    bbox="-258 -425 1092 1126.74"
    underline-thickness="50"
    underline-position="-50"
    stemh="168"
    stemv="218"
    unicode-range="U+0020-FB02"
  />
<missing-glyph horiz-adv-x="618" 
d="M422 0h-538l153 720h538zM416 487c23 108 -47 146 -138 146c-83 0 -137 -29 -137 -29c-9 -29 -3 -55 16 -72c0 0 35 19 88 19c44 0 79 -12 67 -68c-23 -108 -128 -67 -163 -233c0 0 13 -10 38 -10c27 0 40 10 40 10c24 113 157 82 189 237zM224 179c0 0 -17 7 -50 7
c-35 0 -51 -7 -51 -7l-20 -92s14 -6 49 -6c33 0 52 6 52 6z" />
    <glyph glyph-name="fi" unicode="fi" horiz-adv-x="621" 
d="M137 586c22 107 99 164 269 164c169 0 265 -44 265 -44c-16 -55 -53 -102 -86 -132c0 0 -81 23 -175 23c-51 0 -67 -10 -73 -38l-5 -23h200c66 0 101 -8 101 -8l-110 -520s-39 -8 -105 -8s-101 8 -101 8l79 375h-97l-79 -375s-38 -8 -105 -8c-64 0 -101 8 -101 8l79 375
h-64s-1 30 9 77s24 76 24 76h64z" />
    <glyph glyph-name="fl" unicode="fl" horiz-adv-x="621" 
d="M137 586c22 107 99 164 269 164c135 0 265 -44 265 -44l-148 -698s-39 -8 -105 -8s-101 8 -101 8l125 588c-11 0 -21 1 -32 1c-51 0 -67 -10 -73 -38l-5 -23h55c1 -20 -2 -48 -8 -76s-14 -56 -25 -77h-55l-79 -375s-38 -8 -105 -8c-64 0 -101 8 -101 8l79 375h-64
c0 21 4 48 9 75c6 29 14 57 24 78h64z" />
    <glyph glyph-name=".notdef" horiz-adv-x="618" 
d="M422 0h-538l153 720h538zM416 487c23 108 -47 146 -138 146c-83 0 -137 -29 -137 -29c-9 -29 -3 -55 16 -72c0 0 35 19 88 19c44 0 79 -12 67 -68c-23 -108 -128 -67 -163 -233c0 0 13 -10 38 -10c27 0 40 10 40 10c24 113 157 82 189 237zM224 179c0 0 -17 7 -50 7
c-35 0 -51 -7 -51 -7l-20 -92s14 -6 49 -6c33 0 52 6 52 6z" />
    <glyph glyph-name="A" unicode="A" horiz-adv-x="692" 
d="M290 711c0 0 50 9 145 9c99 0 141 -9 141 -9l59 -702s-40 -9 -112 -9c-67 0 -103 9 -103 9l-9 120h-211l-59 -120s-42 -9 -107 -9s-102 9 -102 9zM395 540h-4s-15 -60 -48 -128l-71 -140h129l-10 140c-5 68 4 128 4 128z" />
    <glyph glyph-name="AE" unicode="&#xc6;" horiz-adv-x="961" 
d="M506 720h506c7 -42 -10 -111 -33 -153h-232l-27 -127h182c8 -42 -9 -111 -32 -153h-182l-29 -134h242c6 -42 -7 -111 -32 -153h-460l30 139h-186l-104 -129c-24 -6 -79 -10 -117 -10s-90 3 -110 10zM376 292h95l34 160z" />
    <glyph glyph-name="AEacute" unicode="&#x1fc;" horiz-adv-x="960" 
d="M946 906l-193 -157c-43 7 -85 24 -102 55l136 167c68 7 141 -21 159 -65zM149 10c-24 -6 -79 -10 -117 -10s-90 3 -110 10l584 710h506c5 -43 -10 -111 -33 -153h-232l-27 -127h182c7 -42 -10 -111 -32 -153h-182l-29 -134h242c6 -42 -7 -111 -32 -153h-460l30 139h-186z
M505 452l-129 -160h95z" />
    <glyph glyph-name="Aacute" unicode="&#xc1;" horiz-adv-x="692" 
d="M369 804l136 167c68 7 141 -21 159 -65l-193 -157c-43 7 -85 24 -102 55zM290 711c0 0 50 9 145 9c99 0 141 -9 141 -9l59 -702s-40 -9 -112 -9c-67 0 -103 9 -103 9l-9 120h-211l-59 -120s-42 -9 -107 -9s-102 9 -102 9zM395 540h-4s-15 -60 -48 -128l-71 -140h129
l-10 140c-5 68 4 128 4 128z" />
    <glyph glyph-name="Abreve" unicode="&#x102;" horiz-adv-x="692" 
d="M471 910c69 0 114 26 114 26c36 -17 62 -50 67 -84c0 0 -71 -83 -211 -83s-176 83 -176 83c22 34 59 67 104 84c0 0 33 -26 102 -26zM290 711c0 0 50 9 145 9c99 0 141 -9 141 -9l59 -702s-40 -9 -112 -9c-67 0 -103 9 -103 9l-9 120h-211l-59 -120s-42 -9 -107 -9
s-102 9 -102 9zM395 540h-4s-15 -60 -48 -128l-71 -140h129l-10 140c-5 68 4 128 4 128z" />
    <glyph glyph-name="Acircumflex" unicode="&#xc2;" horiz-adv-x="692" 
d="M515 999l148 -158c-27 -39 -65 -74 -107 -92l-105 74l-136 -73c-35 18 -59 52 -67 91l212 158h55zM290 711c0 0 50 9 145 9c99 0 141 -9 141 -9l59 -702s-40 -9 -112 -9c-67 0 -103 9 -103 9l-9 120h-211l-59 -120s-42 -9 -107 -9s-102 9 -102 9zM395 540h-4
s-15 -60 -48 -128l-71 -140h129l-10 140c-5 68 4 128 4 128z" />
    <glyph glyph-name="Adieresis" unicode="&#xc4;" horiz-adv-x="692" 
d="M270 904c0 0 33 7 90 7c56 0 86 -7 86 -7l-31 -148s-34 -7 -90 -7s-86 7 -86 7zM495 904c0 0 33 7 90 7c56 0 86 -7 86 -7l-31 -148s-34 -7 -90 -7s-86 7 -86 7zM290 711c0 0 50 9 145 9c99 0 141 -9 141 -9l59 -702s-40 -9 -112 -9c-67 0 -103 9 -103 9l-9 120h-211
l-59 -120s-42 -9 -107 -9s-102 9 -102 9zM395 540h-4s-15 -60 -48 -128l-71 -140h129l-10 140c-5 68 4 128 4 128z" />
    <glyph glyph-name="Agrave" unicode="&#xc0;" horiz-adv-x="692" 
d="M493 971l66 -167c-31 -31 -79 -48 -126 -55l-125 157c36 44 121 72 185 65zM290 711c0 0 50 9 145 9c99 0 141 -9 141 -9l59 -702s-40 -9 -112 -9c-67 0 -103 9 -103 9l-9 120h-211l-59 -120s-42 -9 -107 -9s-102 9 -102 9zM395 540h-4s-15 -60 -48 -128l-71 -140h129
l-10 140c-5 68 4 128 4 128z" />
    <glyph glyph-name="Amacron" unicode="&#x100;" horiz-adv-x="692" 
d="M304 884h323c2 -32 -11 -90 -26 -123h-323c-1 35 11 92 26 123zM290 711c0 0 50 9 145 9c99 0 141 -9 141 -9l59 -702s-40 -9 -112 -9c-67 0 -103 9 -103 9l-9 120h-211l-59 -120s-42 -9 -107 -9s-102 9 -102 9zM395 540h-4s-15 -60 -48 -128l-71 -140h129l-10 140
c-5 68 4 128 4 128z" />
    <glyph glyph-name="Aogonek" unicode="&#x104;" horiz-adv-x="692" 
d="M558 -116c17 0 30 5 30 5c17 -13 21 -40 15 -64c0 0 -45 -29 -116 -29c-64 0 -109 34 -95 103c10 44 41 80 92 102c-42 2 -64 8 -64 8l-9 120h-211l-59 -120s-42 -9 -107 -9s-102 9 -102 9l358 702s50 9 145 9c99 0 141 -9 141 -9l59 -702s-11 -2 -30 -5
c-39 -11 -69 -47 -77 -83c-5 -26 10 -37 30 -37zM401 272l-10 140c-5 68 4 128 4 128h-4s-15 -60 -48 -128l-71 -140h129z" />
    <glyph glyph-name="Aring" unicode="&#xc5;" horiz-adv-x="696" 
d="M571 685l69 -676s-43 -9 -115 -9c-67 0 -103 9 -103 9l-9 120h-211l-59 -120s-42 -9 -107 -9s-105 9 -105 9l360 678c-19 24 -23 55 -16 90c23 106 119 161 209 161c88 0 165 -54 142 -161c-8 -36 -28 -71 -55 -92zM493 777c5 21 -5 41 -35 41c-29 0 -48 -21 -52 -41
c-4 -21 5 -42 34 -42c30 0 49 22 53 42zM403 272l-12 129c-6 68 3 128 3 128h-4s-13 -60 -49 -128l-67 -129h129z" />
    <glyph glyph-name="Aringacute" unicode="&#x1fa;" horiz-adv-x="698" 
d="M694 1078l-174 -117c-41 5 -80 18 -98 41l121 124c62 5 132 -16 151 -48zM571 690l71 -681s-44 -9 -116 -9c-67 0 -103 9 -103 9l-9 120h-211l-59 -120s-42 -9 -107 -9s-106 9 -106 9l358 674c-19 25 -25 57 -17 94c23 106 119 161 209 161c88 0 165 -54 142 -161
c-7 -34 -24 -64 -52 -87zM490 777c5 21 -5 41 -35 41c-29 0 -48 -21 -52 -41c-4 -21 5 -42 34 -42c30 0 49 22 53 42zM404 272l-13 130c-6 68 5 128 5 128h-4s-13 -60 -49 -128l-68 -130h129z" />
    <glyph glyph-name="Atilde" unicode="&#xc3;" horiz-adv-x="692" 
d="M244 818c27 52 85 100 149 100c71 0 83 -43 145 -43c37 0 61 28 61 28c35 -15 57 -42 68 -71c-34 -44 -81 -83 -143 -83c-71 0 -84 38 -146 38c-37 0 -66 -32 -66 -32c-35 11 -58 33 -68 63zM290 711c0 0 50 9 145 9c99 0 141 -9 141 -9l59 -702s-40 -9 -112 -9
c-67 0 -103 9 -103 9l-9 120h-211l-59 -120s-42 -9 -107 -9s-102 9 -102 9zM395 540h-4s-15 -60 -48 -128l-71 -140h129l-10 140c-5 68 4 128 4 128z" />
    <glyph glyph-name="B" unicode="B" horiz-adv-x="636" 
d="M136 720h316c150 0 217 -64 189 -197c-16 -74 -60 -123 -117 -152c57 -28 88 -81 70 -166c-32 -149 -132 -205 -291 -205h-320zM294 441h62c34 0 60 21 70 66c10 46 -8 65 -42 65h-62zM231 148h64c43 0 73 17 84 70c12 54 -11 69 -54 69h-64z" />
    <glyph glyph-name="C" unicode="C" horiz-adv-x="575" 
d="M38 379c52 244 195 356 411 356c135 0 194 -45 194 -45c-12 -54 -41 -104 -91 -139c0 0 -45 19 -104 19c-96 0 -149 -51 -183 -211s-2 -209 94 -209c61 0 120 22 120 22c34 -32 46 -87 33 -142c0 0 -73 -45 -222 -45c-216 0 -303 150 -252 394z" />
    <glyph glyph-name="CR" horiz-adv-x="322" 
 />
    <glyph glyph-name="Cacute" unicode="&#x106;" horiz-adv-x="575" 
d="M615 906l-193 -157c-43 7 -85 24 -102 55l136 167c68 7 141 -21 159 -65zM38 379c52 244 195 356 411 356c135 0 194 -45 194 -45c-12 -54 -41 -104 -91 -139c0 0 -45 19 -104 19c-96 0 -149 -51 -183 -211s-2 -209 94 -209c61 0 120 22 120 22c34 -32 46 -87 33 -142
c0 0 -73 -45 -222 -45c-216 0 -303 150 -252 394z" />
    <glyph glyph-name="Ccaron" unicode="&#x10c;" horiz-adv-x="575" 
d="M430 761l-159 146c26 39 64 74 106 92l106 -74l135 73c35 -18 59 -52 68 -91l-201 -146h-55zM38 379c52 244 195 356 411 356c135 0 194 -45 194 -45c-12 -54 -41 -104 -91 -139c0 0 -45 19 -104 19c-96 0 -149 -51 -183 -211s-2 -209 94 -209c61 0 120 22 120 22
c34 -32 46 -87 33 -142c0 0 -73 -45 -222 -45c-216 0 -303 150 -252 394z" />
    <glyph glyph-name="Ccedilla" unicode="&#xc7;" horiz-adv-x="575" 
d="M513 113c10 -42 0 -78 0 -78s-57 -35 -175 -43l-12 -28c81 0 102 -42 89 -103c-15 -72 -79 -106 -162 -106c-79 0 -123 24 -123 24c3 21 21 58 40 71c16 -6 44 -12 70 -14c34 -2 66 4 71 29c4 19 -4 26 -27 26h-77l-11 16l35 87c-173 23 -238 172 -192 389
c52 241 193 347 409 347c135 0 194 -45 194 -45s-6 -35 -33 -77c-30 -46 -58 -61 -58 -61s-45 19 -104 19c-96 0 -147 -45 -182 -207c-34 -162 -1 -204 95 -204c61 0 120 22 120 22s22 -17 33 -64z" />
    <glyph glyph-name="Ccircumflex" unicode="&#x108;" horiz-adv-x="575" 
d="M526 995l158 -154c-27 -39 -65 -74 -107 -92l-105 74l-136 -73c-35 18 -59 52 -67 91l202 154h55zM38 379c52 244 195 356 411 356c135 0 194 -45 194 -45c-12 -54 -41 -104 -91 -139c0 0 -45 19 -104 19c-96 0 -149 -51 -183 -211s-2 -209 94 -209c61 0 120 22 120 22
c34 -32 46 -87 33 -142c0 0 -73 -45 -222 -45c-216 0 -303 150 -252 394z" />
    <glyph glyph-name="Cdotaccent" unicode="&#x10a;" horiz-adv-x="575" 
d="M582 951l-37 -174s-36 -8 -95 -8s-91 8 -91 8l37 174s35 7 95 7c59 0 91 -7 91 -7zM38 379c52 244 195 356 411 356c135 0 194 -45 194 -45c-12 -54 -41 -104 -91 -139c0 0 -45 19 -104 19c-96 0 -149 -51 -183 -211s-2 -209 94 -209c61 0 120 22 120 22
c34 -32 46 -87 33 -142c0 0 -73 -45 -222 -45c-216 0 -303 150 -252 394z" />
    <glyph glyph-name="D" unicode="D" horiz-adv-x="668" 
d="M136 720h270c222 0 302 -115 246 -374c-55 -259 -177 -346 -399 -346h-270zM235 161h52c77 0 112 38 146 199c35 162 16 199 -61 199h-52z" />
    <glyph glyph-name="Dcaron" unicode="&#x10e;" horiz-adv-x="668" 
d="M394 759l-160 148c26 39 64 74 106 92l106 -74l135 73c35 -18 59 -52 68 -91l-200 -148h-55zM136 720h270c222 0 302 -115 246 -374c-55 -259 -177 -346 -399 -346h-270zM235 161h52c77 0 112 38 146 199c35 162 16 199 -61 199h-52z" />
    <glyph glyph-name="Dcroat" unicode="&#x110;" horiz-adv-x="686" 
d="M151 720h270c222 0 305 -112 249 -371c-55 -259 -180 -349 -402 -349h-270l61 288h-55c-1 36 13 104 29 136h55zM335 559l-29 -135h70c3 -33 -13 -103 -29 -136h-70l-27 -127h52c77 0 112 38 146 199c35 162 16 199 -61 199h-52z" />
    <glyph glyph-name="Delta" unicode="&#x2206;" horiz-adv-x="721" 
d="M355 712c25 5 60 8 95 8c36 0 71 -3 95 -8l117 -600c-23 -46 -55 -84 -94 -112h-544c-33 30 -49 68 -46 111zM396 475h-4c-21 -45 -48 -100 -77 -146l-110 -176h238l-33 177c-8 45 -12 101 -14 145z" />
    <glyph glyph-name="E" unicode="E" horiz-adv-x="568" 
d="M136 720h483c2 -15 1 -44 -6 -76c-7 -34 -18 -65 -28 -82h-265l-25 -121h215c1 -18 1 -39 -6 -76c-9 -38 -17 -59 -27 -78h-215l-27 -129h275c2 -18 0 -47 -7 -78c-7 -32 -16 -61 -27 -80h-493z" />
    <glyph glyph-name="Eacute" unicode="&#xc9;" horiz-adv-x="568" 
d="M573 906l-193 -157c-43 7 -85 24 -102 55l136 167c68 7 141 -21 159 -65zM136 720h483c2 -15 1 -44 -6 -76c-7 -34 -18 -65 -28 -82h-265l-25 -121h215c1 -18 1 -39 -6 -76c-9 -38 -17 -59 -27 -78h-215l-27 -129h275c2 -18 0 -47 -7 -78c-7 -32 -16 -61 -27 -80h-493z
" />
    <glyph glyph-name="Ebreve" unicode="&#x114;" horiz-adv-x="568" 
d="M594 852c0 0 -71 -83 -211 -83s-176 83 -176 83c22 34 59 67 104 84c0 0 33 -26 102 -26s114 26 114 26c36 -17 62 -50 67 -84zM136 720h483c2 -15 1 -44 -6 -76c-7 -34 -18 -65 -28 -82h-265l-25 -121h215c1 -18 1 -39 -6 -76c-9 -38 -17 -59 -27 -78h-215l-27 -129h275
c2 -18 0 -47 -7 -78c-7 -32 -16 -61 -27 -80h-493z" />
    <glyph glyph-name="Ecaron" unicode="&#x11a;" horiz-adv-x="568" 
d="M356 749l-147 158c26 39 64 74 106 92l106 -74l135 73c35 -18 59 -52 68 -91l-213 -158h-55zM136 720h483c2 -15 1 -44 -6 -76c-7 -34 -18 -65 -28 -82h-265l-25 -121h215c1 -18 1 -39 -6 -76c-9 -38 -17 -59 -27 -78h-215l-27 -129h275c2 -18 0 -47 -7 -78
c-7 -32 -16 -61 -27 -80h-493z" />
    <glyph glyph-name="Ecircumflex" unicode="&#xca;" horiz-adv-x="568" 
d="M466 999l148 -158c-27 -39 -65 -74 -107 -92l-105 74l-136 -73c-35 18 -59 52 -67 91l212 158h55zM136 720h483c2 -15 1 -44 -6 -76c-7 -34 -18 -65 -28 -82h-265l-25 -121h215c1 -18 1 -39 -6 -76c-9 -38 -17 -59 -27 -78h-215l-27 -129h275c2 -18 0 -47 -7 -78
c-7 -32 -16 -61 -27 -80h-493z" />
    <glyph glyph-name="Edieresis" unicode="&#xcb;" horiz-adv-x="568" 
d="M388 904l-31 -148s-34 -7 -90 -7s-86 7 -86 7l31 148s33 7 90 7c56 0 86 -7 86 -7zM613 904l-31 -148s-34 -7 -90 -7s-86 7 -86 7l31 148s33 7 90 7c56 0 86 -7 86 -7zM136 720h483c2 -15 1 -44 -6 -76c-7 -34 -18 -65 -28 -82h-265l-25 -121h215c1 -18 1 -39 -6 -76
c-9 -38 -17 -59 -27 -78h-215l-27 -129h275c2 -18 0 -47 -7 -78c-7 -32 -16 -61 -27 -80h-493z" />
    <glyph glyph-name="Edotaccent" unicode="&#x116;" horiz-adv-x="568" 
d="M510 951l-37 -174s-36 -8 -95 -8s-91 8 -91 8l37 174s35 7 95 7c59 0 91 -7 91 -7zM136 720h483c2 -15 1 -44 -6 -76c-7 -34 -18 -65 -28 -82h-265l-25 -121h215c1 -18 1 -39 -6 -76c-9 -38 -17 -59 -27 -78h-215l-27 -129h275c2 -18 0 -47 -7 -78
c-7 -32 -16 -61 -27 -80h-493z" />
    <glyph glyph-name="Egrave" unicode="&#xc8;" horiz-adv-x="568" 
d="M354 749l-125 157c36 44 121 72 185 65l66 -167c-31 -31 -79 -48 -126 -55zM136 720h483c2 -15 1 -44 -6 -76c-7 -34 -18 -65 -28 -82h-265l-25 -121h215c1 -18 1 -39 -6 -76c-9 -38 -17 -59 -27 -78h-215l-27 -129h275c2 -18 0 -47 -7 -78c-7 -32 -16 -61 -27 -80h-493z
" />
    <glyph glyph-name="Emacron" unicode="&#x112;" horiz-adv-x="568" 
d="M540 761h-323c-1 35 11 92 26 123h323c2 -32 -11 -90 -26 -123zM136 720h483c2 -15 1 -44 -6 -76c-7 -34 -18 -65 -28 -82h-265l-25 -121h215c1 -18 1 -39 -6 -76c-9 -38 -17 -59 -27 -78h-215l-27 -129h275c2 -18 0 -47 -7 -78c-7 -32 -16 -61 -27 -80h-493z" />
    <glyph glyph-name="Eng" unicode="&#x14a;" horiz-adv-x="706" 
d="M562 711c0 0 43 9 95 9c57 0 87 -9 87 -9l-159 -749c-26 -122 -76 -183 -197 -215c-37 22 -50 64 -42 112c31 14 43 38 57 103l8 39c-68 1 -105 8 -105 8l-35 296c-13 113 -6 207 -6 207h-6s-4 -90 -29 -207l-63 -296s-35 -9 -96 -9c-60 0 -86 9 -86 9l149 702
s49 9 149 9s140 -9 140 -9l30 -292c11 -108 4 -231 4 -231h5s14 118 38 233z" />
    <glyph glyph-name="Eogonek" unicode="&#x118;" horiz-adv-x="568" 
d="M136 720h483c2 -15 1 -44 -6 -76c-7 -34 -18 -65 -28 -82h-265l-25 -121h215c1 -18 1 -39 -6 -76c-9 -38 -17 -59 -27 -78h-215l-27 -129h275c2 -18 0 -47 -7 -78c-7 -32 -16 -61 -27 -80c-48 -16 -103 -43 -113 -88c-5 -26 10 -37 30 -37c17 0 30 5 30 5
c17 -13 21 -40 15 -64c0 0 -45 -29 -116 -29c-64 0 -109 34 -94 103c10 50 48 89 111 110h-356z" />
    <glyph glyph-name="Eth" unicode="&#xd0;" horiz-adv-x="688" 
d="M150 720h270c222 0 308 -114 252 -373c-55 -259 -183 -347 -405 -347h-270l61 288h-54c-1 36 13 104 29 136h54zM334 559l-29 -135h70c3 -33 -13 -103 -29 -136h-70l-27 -127h52c77 0 112 38 146 199c35 162 16 199 -61 199h-52z" />
    <glyph glyph-name="Euro" unicode="&#x20ac;" horiz-adv-x="613" 
d="M144 474c65 135 176 206 329 206c119 0 178 -43 178 -43c-10 -49 -48 -103 -88 -127c0 0 -44 19 -99 19c-48 0 -84 -14 -111 -55h193c-1 -33 -19 -87 -39 -117h-199c-3 -8 -4 -15 -6 -23c-2 -7 -3 -13 -3 -20h172c-1 -33 -19 -87 -39 -117h-138c10 -41 39 -54 88 -54
c53 0 117 19 117 19c31 -29 42 -85 33 -129c0 0 -81 -43 -205 -43c-154 0 -235 71 -242 207h-81c1 33 18 87 39 117h51l4 21c2 7 3 15 5 22h-65c1 33 18 87 39 117h67z" />
    <glyph glyph-name="F" unicode="F" horiz-adv-x="551" 
d="M259 271l-56 -262s-49 -9 -112 -9c-62 0 -106 9 -106 9l151 711h473c2 -16 1 -44 -7 -78c-7 -34 -17 -63 -27 -80h-255l-28 -133h225c3 -14 1 -44 -6 -78c-8 -35 -18 -64 -27 -80h-225z" />
    <glyph glyph-name="G" unicode="G" horiz-adv-x="646" 
d="M39 383c52 241 199 347 427 347c139 0 215 -49 215 -49c-14 -57 -45 -105 -89 -144c0 0 -63 30 -137 30c-96 0 -165 -51 -199 -208c-33 -157 -6 -204 102 -204h22l26 125h-82s-5 27 6 78c11 53 28 80 28 80h281l-85 -399s-89 -49 -245 -49c-228 0 -321 152 -270 393z" />
    <glyph glyph-name="Gbreve" unicode="&#x11e;" horiz-adv-x="646" 
d="M681 845c0 0 -70 -76 -210 -76s-176 83 -176 83c22 34 49 67 94 84c0 0 33 -29 102 -29s114 29 114 29c36 -17 71 -57 76 -91zM39 383c52 241 199 347 427 347c139 0 215 -49 215 -49c-14 -57 -45 -105 -89 -144c0 0 -63 30 -137 30c-96 0 -165 -51 -199 -208
c-33 -157 -6 -204 102 -204h22l26 125h-82s-5 27 6 78c11 53 28 80 28 80h281l-85 -399s-89 -49 -245 -49c-228 0 -321 152 -270 393z" />
    <glyph glyph-name="Gcircumflex" unicode="&#x11c;" horiz-adv-x="646" 
d="M539 983l156 -142c-27 -39 -65 -74 -107 -92l-105 74l-136 -73c-35 18 -59 52 -67 91l204 142h55zM39 383c52 241 199 347 427 347c139 0 215 -49 215 -49c-14 -57 -45 -105 -89 -144c0 0 -63 30 -137 30c-96 0 -165 -51 -199 -208c-33 -157 -6 -204 102 -204h22l26 125
h-82s-5 27 6 78c11 53 28 80 28 80h281l-85 -399s-89 -49 -245 -49c-228 0 -321 152 -270 393z" />
    <glyph glyph-name="Gcommaaccent" unicode="&#x122;" horiz-adv-x="646" 
d="M234 -395l-70 47s46 43 64 109c-37 2 -71 7 -71 7l39 183s42 8 110 8c65 0 109 -8 109 -8l-31 -145c-27 -125 -150 -201 -150 -201zM39 383c52 241 199 347 427 347c139 0 215 -49 215 -49c-14 -57 -45 -105 -89 -144c0 0 -63 30 -137 30c-96 0 -165 -51 -199 -208
c-33 -157 -6 -204 102 -204h22l26 125h-82s-5 27 6 78c11 53 28 80 28 80h281l-85 -399s-89 -49 -245 -49c-228 0 -321 152 -270 393z" />
    <glyph glyph-name="Gdotaccent" unicode="&#x120;" horiz-adv-x="646" 
d="M603 951l-37 -174s-36 -8 -95 -8s-91 8 -91 8l37 174s35 7 95 7c59 0 91 -7 91 -7zM39 383c52 241 199 347 427 347c139 0 215 -49 215 -49c-14 -57 -45 -105 -89 -144c0 0 -63 30 -137 30c-96 0 -165 -51 -199 -208c-33 -157 -6 -204 102 -204h22l26 125h-82s-5 27 6 78
c11 53 28 80 28 80h281l-85 -399s-89 -49 -245 -49c-228 0 -321 152 -270 393z" />
    <glyph glyph-name="H" unicode="H" horiz-adv-x="686" 
d="M451 453l55 258s49 9 111 9s107 -9 107 -9l-149 -702s-48 -9 -110 -9c-67 0 -108 9 -108 9l59 276h-154l-59 -276s-50 -9 -111 -9c-66 0 -107 9 -107 9l149 702s48 9 110 9c63 0 108 -9 108 -9l-55 -258h154z" />
    <glyph glyph-name="Hbar" unicode="&#x126;" horiz-adv-x="716" 
d="M733 641h45c3 -33 -10 -92 -26 -125h-45l-108 -507s-48 -9 -110 -9c-67 0 -108 9 -108 9l59 276h-154l-59 -276s-50 -9 -111 -9c-66 0 -107 9 -107 9l108 507h-65c-2 36 10 93 26 125h65l15 70s48 9 110 9c63 0 108 -9 108 -9l-15 -70h154l15 70s49 9 111 9
s107 -9 107 -9zM335 516l-14 -63h154l14 63h-154z" />
    <glyph glyph-name="Hcircumflex" unicode="&#x124;" horiz-adv-x="686" 
d="M523 999l148 -158c-27 -39 -65 -74 -107 -92l-105 74l-136 -73c-35 18 -59 52 -67 91l212 158h55zM451 453l55 258s49 9 111 9s107 -9 107 -9l-149 -702s-48 -9 -110 -9c-67 0 -108 9 -108 9l59 276h-154l-59 -276s-50 -9 -111 -9c-66 0 -107 9 -107 9l149 702
s48 9 110 9c63 0 108 -9 108 -9l-55 -258h154z" />
    <glyph glyph-name="I" unicode="I" horiz-adv-x="314" 
d="M-15 9l149 702s48 9 110 9c63 0 108 -9 108 -9l-149 -702s-50 -9 -111 -9c-66 0 -107 9 -107 9z" />
    <glyph glyph-name="IJ" unicode="&#x132;" horiz-adv-x="805" 
d="M-15 9l149 702s48 9 110 9c63 0 108 -9 108 -9l-149 -702s-50 -9 -111 -9c-66 0 -107 9 -107 9zM532 252l97 459s45 9 111 9c63 0 107 -9 107 -9l-108 -510c-29 -135 -130 -211 -289 -211c-132 0 -188 40 -188 40c10 48 45 116 86 151c0 0 43 -18 89 -18
c55 0 80 20 95 89z" />
    <glyph glyph-name="Iacute" unicode="&#xcd;" horiz-adv-x="314" 
d="M448 906l-193 -157c-43 7 -85 24 -102 55l136 167c68 7 141 -21 159 -65zM-15 9l149 702s48 9 110 9c63 0 108 -9 108 -9l-149 -702s-50 -9 -111 -9c-66 0 -107 9 -107 9z" />
    <glyph glyph-name="Ibreve" unicode="&#x12c;" horiz-adv-x="314" 
d="M463 852c0 0 -71 -83 -211 -83s-176 83 -176 83c22 34 59 67 104 84c0 0 33 -26 102 -26s114 26 114 26c36 -17 62 -50 67 -84zM-15 9l149 702s48 9 110 9c63 0 108 -9 108 -9l-149 -702s-50 -9 -111 -9c-66 0 -107 9 -107 9z" />
    <glyph glyph-name="Icircumflex" unicode="&#xce;" horiz-adv-x="314" 
d="M334 999l148 -158c-27 -39 -65 -74 -107 -92l-105 74l-136 -73c-35 18 -59 52 -67 91l212 158h55zM-15 9l149 702s48 9 110 9c63 0 108 -9 108 -9l-149 -702s-50 -9 -111 -9c-66 0 -107 9 -107 9z" />
    <glyph glyph-name="Idieresis" unicode="&#xcf;" horiz-adv-x="314" 
d="M253 904l-31 -148s-34 -7 -90 -7s-86 7 -86 7l31 148s33 7 90 7c56 0 86 -7 86 -7zM478 904l-31 -148s-34 -7 -90 -7s-86 7 -86 7l31 148s33 7 90 7c56 0 86 -7 86 -7zM-15 9l149 702s48 9 110 9c63 0 108 -9 108 -9l-149 -702s-50 -9 -111 -9c-66 0 -107 9 -107 9z" />
    <glyph glyph-name="Idotaccent" unicode="&#x130;" horiz-adv-x="314" 
d="M184 918c0 0 38 8 105 8c66 0 101 -8 101 -8l-37 -174s-39 -8 -105 -8s-101 8 -101 8zM134 711c0 0 48 9 110 9c63 0 108 -9 108 -9l-149 -702s-50 -9 -111 -9c-66 0 -107 9 -107 9z" />
    <glyph glyph-name="Igrave" unicode="&#xcc;" horiz-adv-x="314" 
d="M249 749l-125 157c36 44 121 72 185 65l66 -167c-31 -31 -79 -48 -126 -55zM-15 9l149 702s48 9 110 9c63 0 108 -9 108 -9l-149 -702s-50 -9 -111 -9c-66 0 -107 9 -107 9z" />
    <glyph glyph-name="Imacron" unicode="&#x12a;" horiz-adv-x="314" 
d="M414 749h-323c0 35 12 92 26 123h323c3 -32 -11 -90 -26 -123zM-15 9l149 702s48 9 110 9c63 0 108 -9 108 -9l-149 -702s-50 -9 -111 -9c-66 0 -107 9 -107 9z" />
    <glyph glyph-name="Iogonek" unicode="&#x12e;" horiz-adv-x="314" 
d="M120 -116c17 0 30 5 30 5c17 -13 21 -40 15 -64c0 0 -45 -29 -116 -29c-64 0 -109 34 -95 103c10 44 41 80 92 102c-38 3 -61 8 -61 8l149 702s48 9 110 9c63 0 108 -9 108 -9l-149 -702c-49 -16 -103 -43 -113 -88c-5 -26 10 -37 30 -37z" />
    <glyph glyph-name="Itilde" unicode="&#x128;" horiz-adv-x="314" 
d="M346 882c41 0 63 25 63 25c34 -21 46 -68 40 -109c0 0 -49 -49 -118 -49c-70 0 -83 31 -143 31c-36 0 -64 -26 -64 -26c-33 21 -47 64 -39 109c0 0 56 50 118 50c69 0 83 -31 143 -31zM-15 9l149 702s48 9 110 9c63 0 108 -9 108 -9l-149 -702s-50 -9 -111 -9
c-66 0 -107 9 -107 9z" />
    <glyph glyph-name="J" unicode="J" horiz-adv-x="492" 
d="M219 252l97 459s45 9 111 9c63 0 107 -9 107 -9l-108 -510c-29 -135 -130 -211 -289 -211c-132 0 -188 40 -188 40c10 48 45 116 86 151c0 0 43 -18 89 -18c55 0 80 20 95 89z" />
    <glyph glyph-name="Jcircumflex" unicode="&#x134;" horiz-adv-x="492" 
d="M516 999l148 -158c-27 -39 -65 -74 -107 -92l-105 74l-136 -73c-35 18 -59 52 -67 91l212 158h55zM219 252l97 459s45 9 111 9c63 0 107 -9 107 -9l-108 -510c-29 -135 -130 -211 -289 -211c-132 0 -188 40 -188 40c10 48 45 116 86 151c0 0 43 -18 89 -18
c55 0 80 20 95 89z" />
    <glyph glyph-name="K" unicode="K" horiz-adv-x="656" 
d="M323 450l176 261c29 5 63 9 117 9c56 0 85 -4 115 -9l-235 -338l115 -364s-57 -9 -127 -9c-76 0 -105 9 -105 9l-81 289h-34l-61 -289s-38 -9 -111 -9c-69 0 -107 9 -107 9l149 702s44 9 112 9s106 -9 106 -9l-55 -261h26z" />
    <glyph glyph-name="Kcommaaccent" unicode="&#x136;" horiz-adv-x="656" 
d="M202 -418l-64 51s45 46 64 116c-36 2 -68 8 -68 8l42 195s40 8 104 8c61 0 102 -8 102 -8l-33 -155c-28 -133 -147 -215 -147 -215zM323 450l176 261c29 5 63 9 117 9c56 0 85 -4 115 -9l-235 -338l115 -364s-57 -9 -127 -9c-76 0 -105 9 -105 9l-81 289h-34l-61 -289
s-38 -9 -111 -9c-69 0 -107 9 -107 9l149 702s44 9 112 9s106 -9 106 -9l-55 -261h26z" />
    <glyph glyph-name="L" unicode="L" 
d="M-17 0l151 711s48 9 110 9c63 0 108 -9 108 -9l-116 -545h267c2 -25 -1 -54 -7 -83c-6 -28 -17 -57 -28 -83h-485z" />
    <glyph glyph-name="Lacute" unicode="&#x139;" horiz-adv-x="545" 
d="M428 906l-193 -157c-43 7 -85 24 -102 55l136 167c68 7 141 -21 159 -65zM-17 0l151 711s48 9 110 9c63 0 108 -9 108 -9l-116 -545h267c2 -25 -1 -54 -7 -83c-6 -28 -17 -57 -28 -83h-485z" />
    <glyph glyph-name="Lcaron" unicode="&#x13d;" horiz-adv-x="547" 
d="M432 559c-32 -1 -70 16 -83 39c57 47 80 82 98 151c57 4 116 -7 142 -29c-32 -76 -94 -141 -157 -161zM-17 0l151 711s48 9 110 9c63 0 108 -9 108 -9l-116 -545h267c2 -25 -1 -54 -7 -83c-6 -28 -17 -57 -28 -83h-485z" />
    <glyph glyph-name="Lcommaaccent" unicode="&#x13b;" 
d="M-17 0l151 711s48 9 110 9c63 0 108 -9 108 -9l-116 -545h267c2 -25 -1 -54 -7 -83c-6 -28 -17 -57 -28 -83h-485zM134 -418l-64 51s45 46 64 116c-36 2 -68 8 -68 8l42 195s40 8 104 8c61 0 102 -8 102 -8l-33 -155c-28 -133 -147 -215 -147 -215z" />
    <glyph glyph-name="Ldot" unicode="&#x13f;" horiz-adv-x="559" 
d="M-17 0l151 711s48 9 110 9c63 0 108 -9 108 -9l-116 -545h267c2 -25 -1 -54 -7 -83c-6 -28 -17 -57 -28 -83h-485zM538 422l-37 -174s-35 -8 -95 -8s-91 8 -91 8l37 174s33 8 94 8c60 0 92 -8 92 -8z" />
    <glyph glyph-name="Lslash" unicode="&#x141;" horiz-adv-x="583" 
d="M171 711c0 0 48 9 110 9c63 0 108 -9 108 -9l-42 -196l90 46c20 -31 34 -63 38 -101l-156 -80l-46 -214h267c2 -25 -1 -54 -7 -83c-6 -28 -17 -57 -28 -83h-485l54 255l-55 -28c-21 29 -32 63 -38 100l122 62z" />
    <glyph glyph-name="M" unicode="M" horiz-adv-x="832" 
d="M598 711c0 0 44 9 129 9c31 0 109 -2 143 -9l-149 -702s-39 -9 -103 -9c-65 0 -100 9 -100 9l41 192c28 131 86 291 87 291h-7c-4 -6 -46 -122 -87 -197l-90 -166s-32 -10 -96 -10c-65 0 -92 10 -92 10c-5 53 -10 106 -16 159c-10 86 -2 203 -1 204h-7
c-1 -2 -8 -157 -36 -291l-41 -192s-37 -9 -94 -9c-60 0 -94 9 -94 9l149 702c51 9 111 9 138 9c88 0 128 -9 128 -9l19 -185c7 -77 3 -141 -2 -187h4c8 35 26 79 50 131c35 76 84 162 127 241z" />
    <glyph glyph-name="N" unicode="N" horiz-adv-x="706" 
d="M306 9l-35 296c-13 113 -6 207 -6 207h-6s-4 -90 -29 -207l-63 -296s-35 -9 -96 -9c-60 0 -86 9 -86 9l149 702s49 9 149 9s140 -9 140 -9l30 -292c11 -108 4 -231 4 -231h5s14 118 38 233l62 290s43 9 95 9c57 0 87 -9 87 -9l-149 -702s-46 -9 -146 -9
c-92 0 -143 9 -143 9z" />
    <glyph glyph-name="Nacute" unicode="&#x143;" horiz-adv-x="706" 
d="M634 906l-193 -157c-43 7 -85 24 -102 55l136 167c68 7 141 -21 159 -65zM306 9l-35 296c-13 113 -6 207 -6 207h-6s-4 -90 -29 -207l-63 -296s-35 -9 -96 -9c-60 0 -86 9 -86 9l149 702s49 9 149 9s140 -9 140 -9l30 -292c11 -108 4 -231 4 -231h5s14 118 38 233l62 290
s43 9 95 9c57 0 87 -9 87 -9l-149 -702s-46 -9 -146 -9c-92 0 -143 9 -143 9z" />
    <glyph glyph-name="Ncaron" unicode="&#x147;" horiz-adv-x="706" 
d="M437 749l-147 158c26 39 64 74 106 92l106 -74l135 73c35 -18 59 -52 68 -91l-213 -158h-55zM306 9l-35 296c-13 113 -6 207 -6 207h-6s-4 -90 -29 -207l-63 -296s-35 -9 -96 -9c-60 0 -86 9 -86 9l149 702s49 9 149 9s140 -9 140 -9l30 -292c11 -108 4 -231 4 -231h5
s14 118 38 233l62 290s43 9 95 9c57 0 87 -9 87 -9l-149 -702s-46 -9 -146 -9c-92 0 -143 9 -143 9z" />
    <glyph glyph-name="Ncommaaccent" unicode="&#x145;" horiz-adv-x="706" 
d="M306 9l-35 296c-13 113 -6 207 -6 207h-6s-4 -90 -29 -207l-63 -296s-35 -9 -96 -9c-60 0 -86 9 -86 9l149 702s49 9 149 9s140 -9 140 -9l30 -292c11 -108 4 -231 4 -231h5s14 118 38 233l62 290s43 9 95 9c57 0 87 -9 87 -9l-149 -702s-46 -9 -146 -9
c-92 0 -143 9 -143 9zM200 -418l-64 51s45 46 64 116c-36 2 -68 8 -68 8l42 195s40 8 104 8c61 0 102 -8 102 -8l-33 -155c-28 -133 -147 -215 -147 -215z" />
    <glyph glyph-name="Ntilde" unicode="&#xd1;" horiz-adv-x="706" 
d="M561 886c42 0 65 26 65 26c35 -22 47 -70 40 -112c0 0 -50 -51 -121 -51s-85 32 -147 32c-37 0 -65 -26 -65 -26c-34 21 -49 65 -40 112c0 0 57 51 121 51c71 0 85 -32 147 -32zM306 9l-35 296c-13 113 -6 207 -6 207h-6s-4 -90 -29 -207l-63 -296s-35 -9 -96 -9
c-60 0 -86 9 -86 9l149 702s49 9 149 9s140 -9 140 -9l30 -292c11 -108 4 -231 4 -231h5s14 118 38 233l62 290s43 9 95 9c57 0 87 -9 87 -9l-149 -702s-46 -9 -146 -9c-92 0 -143 9 -143 9z" />
    <glyph glyph-name="O" unicode="O" horiz-adv-x="697" 
d="M40 383c56 259 194 352 395 352s301 -137 245 -399c-55 -262 -195 -351 -395 -351c-201 0 -300 136 -245 398zM454 360c38 175 16 214 -48 214c-62 0 -101 -39 -139 -214c-37 -174 -14 -214 48 -214c64 0 102 40 139 214z" />
    <glyph glyph-name="OE" unicode="&#x152;" horiz-adv-x="884" 
d="M39 382c56 259 191 348 393 348c31 0 63 -3 94 -10h409c3 -16 0 -46 -6 -76c-7 -30 -17 -61 -27 -77h-245l-27 -127h195c3 -16 1 -46 -6 -76c-6 -30 -17 -61 -26 -77h-195l-29 -134h255c3 -17 0 -47 -6 -77s-17 -60 -26 -76h-420c-32 -6 -66 -10 -97 -10
c-202 0 -290 136 -236 392zM466 549c-18 15 -39 25 -67 25c-75 0 -117 -33 -156 -214c-38 -182 -10 -214 65 -214c28 0 53 9 77 24z" />
    <glyph glyph-name="Oacute" unicode="&#xd3;" horiz-adv-x="697" 
d="M370 813l136 167c68 7 141 -21 158 -65l-192 -157c-44 7 -85 24 -102 55zM40 383c56 259 194 352 395 352s301 -137 245 -399c-55 -262 -195 -351 -395 -351c-201 0 -300 136 -245 398zM454 360c38 175 16 214 -48 214c-62 0 -101 -39 -139 -214
c-37 -174 -14 -214 48 -214c64 0 102 40 139 214z" />
    <glyph glyph-name="Obreve" unicode="&#x14e;" horiz-adv-x="697" 
d="M469 910c69 0 114 26 114 26c36 -17 62 -50 67 -84c0 0 -61 -81 -201 -81s-186 81 -186 81c22 34 59 67 104 84c0 0 33 -26 102 -26zM40 383c56 259 194 352 395 352s301 -137 245 -399c-55 -262 -195 -351 -395 -351c-201 0 -300 136 -245 398zM454 360
c38 175 16 214 -48 214c-62 0 -101 -39 -139 -214c-37 -174 -14 -214 48 -214c64 0 102 40 139 214z" />
    <glyph glyph-name="Ocircumflex" unicode="&#xd4;" horiz-adv-x="697" 
d="M517 986l152 -145c-27 -39 -65 -74 -107 -92l-105 74l-136 -73c-35 18 -59 52 -67 91l208 145h55zM40 383c56 259 194 352 395 352s301 -137 245 -399c-55 -262 -195 -351 -395 -351c-201 0 -300 136 -245 398zM454 360c38 175 16 214 -48 214c-62 0 -101 -39 -139 -214
c-37 -174 -14 -214 48 -214c64 0 102 40 139 214z" />
    <glyph glyph-name="Odieresis" unicode="&#xd6;" horiz-adv-x="697" 
d="M278 928c0 0 33 7 90 7c56 0 86 -7 86 -7l-31 -148s-34 -7 -90 -7s-86 7 -86 7zM503 928c0 0 33 7 90 7c56 0 86 -7 86 -7l-31 -148s-34 -7 -90 -7s-86 7 -86 7zM40 383c56 259 194 352 395 352s301 -137 245 -399c-55 -262 -195 -351 -395 -351
c-201 0 -300 136 -245 398zM454 360c38 175 16 214 -48 214c-62 0 -101 -39 -139 -214c-37 -174 -14 -214 48 -214c64 0 102 40 139 214z" />
    <glyph glyph-name="Ograve" unicode="&#xd2;" horiz-adv-x="697" 
d="M497 981l66 -167c-31 -31 -79 -48 -126 -55l-125 157c36 44 121 72 185 65zM40 383c56 259 194 352 395 352s301 -137 245 -399c-55 -262 -195 -351 -395 -351c-201 0 -300 136 -245 398zM454 360c38 175 16 214 -48 214c-62 0 -101 -39 -139 -214
c-37 -174 -14 -214 48 -214c64 0 102 40 139 214z" />
    <glyph glyph-name="Ohungarumlaut" unicode="&#x150;" horiz-adv-x="697" 
d="M237 801l120 169c64 12 136 -10 155 -51l-173 -163c-42 3 -83 18 -102 45zM461 806l125 165c65 9 136 -16 154 -57l-178 -156c-41 4 -83 20 -101 48zM40 383c56 259 194 352 395 352s301 -137 245 -399c-55 -262 -195 -351 -395 -351c-201 0 -300 136 -245 398zM454 360
c38 175 16 214 -48 214c-62 0 -101 -39 -139 -214c-37 -174 -14 -214 48 -214c64 0 102 40 139 214z" />
    <glyph glyph-name="Omacron" unicode="&#x14c;" horiz-adv-x="697" 
d="M312 902h323c2 -32 -11 -90 -26 -123h-323c-1 35 11 92 26 123zM40 383c56 259 194 352 395 352s301 -137 245 -399c-55 -262 -195 -351 -395 -351c-201 0 -300 136 -245 398zM454 360c38 175 16 214 -48 214c-62 0 -101 -39 -139 -214c-37 -174 -14 -214 48 -214
c64 0 102 40 139 214z" />
    <glyph glyph-name="Omega" unicode="&#x2126;" horiz-adv-x="748" 
d="M67 380c52 246 196 350 398 350s302 -104 250 -350c-20 -92 -64 -164 -118 -220h84c2 -24 -1 -52 -7 -80s-15 -57 -27 -80h-306c-6 39 11 122 34 160c63 62 106 128 126 220c30 142 6 194 -69 194s-121 -52 -151 -194c-20 -92 -5 -158 32 -220c5 -37 -13 -120 -34 -160
h-306c-3 22 -1 51 5 79c6 29 15 58 29 81h83c-29 56 -43 128 -23 220z" />
    <glyph glyph-name="Oslash" unicode="&#xd8;" horiz-adv-x="697" 
d="M729 715l-72 -87c41 -67 50 -165 23 -292c-55 -262 -195 -351 -395 -351c-52 0 -97 9 -135 27l-60 -74c-47 3 -99 30 -119 68l83 101c-32 66 -39 158 -14 276c56 259 194 352 395 352c45 0 85 -7 120 -21l56 68c54 -3 98 -32 118 -67zM452 561c-11 9 -27 13 -46 13
c-62 0 -101 -39 -139 -214l-6 -28zM264 166c11 -15 29 -20 51 -20c64 0 102 40 139 214c4 17 7 33 9 47z" />
    <glyph glyph-name="Oslashacute" unicode="&#x1fe;" horiz-adv-x="697" 
d="M684 914l-192 -157c-44 7 -85 24 -102 55l136 167c68 7 141 -21 158 -65zM729 715l-72 -87c41 -67 50 -165 23 -292c-55 -262 -195 -351 -395 -351c-52 0 -97 9 -135 27l-60 -74c-47 3 -99 30 -119 68l83 101c-32 66 -39 158 -14 276c56 259 194 352 395 352
c45 0 85 -7 120 -21l56 68c54 -3 98 -32 118 -67zM452 561c-11 9 -27 13 -46 13c-62 0 -101 -39 -139 -214l-6 -28zM264 166c11 -15 29 -20 51 -20c64 0 102 40 139 214c4 17 7 33 9 47z" />
    <glyph glyph-name="Otilde" unicode="&#xd5;" horiz-adv-x="697" 
d="M538 908c42 2 64 28 64 28c37 -20 51 -67 45 -109c0 0 -39 -53 -110 -55c-72 -3 -97 29 -159 27c-38 -2 -64 -28 -64 -28c-36 19 -52 62 -45 109c0 0 45 53 110 55c71 3 97 -29 159 -27zM40 383c56 259 194 352 395 352s301 -137 245 -399c-55 -262 -195 -351 -395 -351
c-201 0 -300 136 -245 398zM454 360c38 175 16 214 -48 214c-62 0 -101 -39 -139 -214c-37 -174 -14 -214 48 -214c64 0 102 40 139 214z" />
    <glyph glyph-name="P" unicode="P" horiz-adv-x="610" 
d="M253 243l-50 -234s-44 -9 -111 -9s-107 9 -107 9l151 711h293c165 0 233 -101 199 -260c-33 -159 -135 -217 -300 -217h-75zM287 403h42c41 0 72 24 83 79c12 56 -9 78 -50 78h-42z" />
    <glyph glyph-name="Q" unicode="Q" horiz-adv-x="697" 
d="M435 735c201 0 301 -137 245 -399c-27 -130 -75 -217 -141 -272c34 -16 70 -28 110 -36c-22 -85 -83 -140 -124 -158c-68 25 -115 75 -142 123c-31 -5 -64 -8 -98 -8c-201 0 -300 136 -245 398c56 259 194 352 395 352zM406 574c-62 0 -101 -39 -139 -214
c-37 -174 -14 -214 48 -214c64 0 102 40 139 214c38 175 16 214 -48 214z" />
    <glyph glyph-name="R" unicode="R" horiz-adv-x="642" 
d="M434 720c185 0 233 -109 204 -244c-18 -87 -59 -144 -136 -180l82 -287s-48 -9 -120 -9c-76 0 -107 9 -107 9l-62 253h-38l-54 -253s-48 -9 -110 -9c-67 0 -108 9 -108 9l151 711h298zM320 562l-30 -142h47c45 0 71 25 80 71c10 46 -5 71 -50 71h-47z" />
    <glyph glyph-name="Racute" unicode="&#x154;" horiz-adv-x="642" 
d="M291 804l136 167c68 7 141 -21 159 -65l-193 -157c-43 7 -85 24 -102 55zM434 720c185 0 233 -109 204 -244c-18 -87 -59 -144 -136 -180l82 -287s-48 -9 -120 -9c-76 0 -107 9 -107 9l-62 253h-38l-54 -253s-48 -9 -110 -9c-67 0 -108 9 -108 9l151 711h298zM320 562
l-30 -142h47c45 0 71 25 80 71c10 46 -5 71 -50 71h-47z" />
    <glyph glyph-name="Rcaron" unicode="&#x158;" horiz-adv-x="642" 
d="M423 925l135 73c35 -18 59 -52 68 -91l-213 -158h-55l-147 158c26 39 64 74 106 92zM434 720c185 0 233 -109 204 -244c-18 -87 -59 -144 -136 -180l82 -287s-48 -9 -120 -9c-76 0 -107 9 -107 9l-62 253h-38l-54 -253s-48 -9 -110 -9c-67 0 -108 9 -108 9l151 711h298z
M320 562l-30 -142h47c45 0 71 25 80 71c10 46 -5 71 -50 71h-47z" />
    <glyph glyph-name="Rcommaaccent" unicode="&#x156;" horiz-adv-x="642" 
d="M176 -34c0 0 40 8 104 8c61 0 102 -8 102 -8l-33 -155c-28 -133 -147 -215 -147 -215l-64 51s45 46 64 116c-36 2 -68 8 -68 8zM434 720c185 0 233 -109 204 -244c-18 -87 -59 -144 -136 -180l82 -287s-48 -9 -120 -9c-76 0 -107 9 -107 9l-62 253h-38l-54 -253
s-48 -9 -110 -9c-67 0 -108 9 -108 9l151 711h298zM320 562l-30 -142h47c45 0 71 25 80 71c10 46 -5 71 -50 71h-47z" />
    <glyph glyph-name="S" unicode="S" horiz-adv-x="585" 
d="M72 526c30 139 127 210 328 210c140 0 211 -41 211 -41c-10 -57 -35 -114 -76 -153c0 0 -64 17 -134 17c-66 0 -101 -15 -107 -41c-8 -38 67 -55 141 -83c103 -39 144 -114 115 -239c-36 -157 -148 -211 -338 -211c-164 0 -245 58 -245 58c11 57 40 118 78 158
c0 0 68 -30 183 -30c55 0 88 14 94 39c6 31 -37 47 -91 64c-88 27 -193 91 -159 252z" />
    <glyph glyph-name="Sacute" unicode="&#x15a;" horiz-adv-x="585" 
d="M584 917l-189 -153c-43 7 -85 24 -102 55l133 163c67 7 140 -21 158 -65zM72 526c30 139 127 210 328 210c140 0 211 -41 211 -41c-10 -57 -35 -114 -76 -153c0 0 -64 17 -134 17c-66 0 -101 -15 -107 -41c-8 -38 67 -55 141 -83c103 -39 144 -114 115 -239
c-36 -157 -148 -211 -338 -211c-164 0 -245 58 -245 58c11 57 40 118 78 158c0 0 68 -30 183 -30c55 0 88 14 94 39c6 31 -37 47 -91 64c-88 27 -193 91 -159 252z" />
    <glyph glyph-name="Scaron" unicode="&#x160;" horiz-adv-x="585" 
d="M375 761l-151 138c26 39 64 74 106 92l107 -69l134 68c35 -18 59 -52 68 -91l-209 -138h-55zM72 526c30 139 127 210 328 210c140 0 211 -41 211 -41c-10 -57 -35 -114 -76 -153c0 0 -64 17 -134 17c-66 0 -101 -15 -107 -41c-8 -38 67 -55 141 -83
c103 -39 144 -114 115 -239c-36 -157 -148 -211 -338 -211c-164 0 -245 58 -245 58c11 57 40 118 78 158c0 0 68 -30 183 -30c55 0 88 14 94 39c6 31 -37 47 -91 64c-88 27 -193 91 -159 252z" />
    <glyph glyph-name="Scedilla" unicode="&#x15e;" horiz-adv-x="585" 
d="M294 518c-8 -38 67 -55 141 -83c103 -39 144 -114 115 -239c-30 -133 -113 -191 -252 -207l-16 -37c81 0 102 -42 89 -103c-15 -72 -80 -106 -163 -106c-79 0 -123 24 -123 24c4 21 22 58 41 71c15 -6 43 -12 70 -14c33 -2 65 4 71 29c4 19 -5 26 -28 26h-77l-10 16
l45 90c-154 4 -230 58 -230 58c11 57 40 118 78 158c0 0 68 -30 183 -30c55 0 88 14 94 39c6 31 -37 47 -91 64c-88 27 -193 91 -159 252c30 139 127 210 328 210c140 0 211 -41 211 -41c-10 -57 -35 -114 -76 -153c0 0 -64 17 -134 17c-66 0 -101 -15 -107 -41z" />
    <glyph glyph-name="Scircumflex" unicode="&#x15c;" horiz-adv-x="585" 
d="M461 1001l157 -152c-26 -39 -64 -72 -106 -90l-104 80l-136 -79c-36 18 -60 50 -69 89l203 152h55zM72 526c30 139 127 210 328 210c140 0 211 -41 211 -41c-10 -57 -35 -114 -76 -153c0 0 -64 17 -134 17c-66 0 -101 -15 -107 -41c-8 -38 67 -55 141 -83
c103 -39 144 -114 115 -239c-36 -157 -148 -211 -338 -211c-164 0 -245 58 -245 58c11 57 40 118 78 158c0 0 68 -30 183 -30c55 0 88 14 94 39c6 31 -37 47 -91 64c-88 27 -193 91 -159 252z" />
    <glyph glyph-name="Scommaaccent" unicode="&#x218;" horiz-adv-x="585" 
d="M180 -425l-64 51s45 46 64 116c-36 2 -68 8 -68 8l42 195s40 8 104 8c61 0 102 -8 102 -8l-33 -155c-28 -133 -147 -215 -147 -215zM72 526c30 139 127 210 328 210c140 0 211 -41 211 -41c-10 -57 -35 -114 -76 -153c0 0 -64 17 -134 17c-66 0 -101 -15 -107 -41
c-8 -38 67 -55 141 -83c103 -39 144 -114 115 -239c-36 -157 -148 -211 -338 -211c-164 0 -245 58 -245 58c11 57 40 118 78 158c0 0 68 -30 183 -30c55 0 88 14 94 39c6 31 -37 47 -91 64c-88 27 -193 91 -159 252z" />
    <glyph glyph-name="T" unicode="T" horiz-adv-x="592" 
d="M106 720h557s2 -36 -9 -89c-11 -51 -29 -89 -29 -89h-167l-113 -533s-50 -9 -111 -9c-66 0 -107 9 -107 9l113 533h-172s-2 36 9 87c12 56 29 91 29 91z" />
    <glyph glyph-name="Tbar" unicode="&#x166;" horiz-adv-x="601" 
d="M433 406h108c3 -33 -10 -92 -26 -125h-108l-58 -272s-50 -9 -111 -9c-66 0 -107 9 -107 9l58 272h-114c-2 36 10 93 26 125h114l29 136h-172s-2 36 9 87c12 56 29 91 29 91h557s2 -36 -9 -89c-11 -51 -29 -89 -29 -89h-167z" />
    <glyph glyph-name="Tcaron" unicode="&#x164;" horiz-adv-x="591" 
d="M368 759l-149 148c26 39 64 74 106 92l106 -74l135 73c35 -18 59 -52 68 -91l-211 -148h-55zM106 720h557s2 -36 -9 -89c-11 -51 -29 -89 -29 -89h-167l-113 -533s-50 -9 -111 -9c-66 0 -107 9 -107 9l113 533h-172s-2 36 9 87c12 56 29 91 29 91z" />
    <glyph glyph-name="Thorn" unicode="&#xde;" horiz-adv-x="608" 
d="M134 711c0 0 43 9 105 9c63 0 103 -9 103 -9l-20 -96h100c155 0 216 -110 184 -261s-133 -227 -288 -227h-100l-25 -118s-45 -9 -106 -9c-66 0 -102 9 -102 9zM289 459l-38 -176h42c60 0 91 16 106 88s-8 88 -68 88h-42z" />
    <glyph glyph-name="U" unicode="U" horiz-adv-x="675" 
d="M718 711l-98 -463c-36 -168 -160 -263 -338 -263c-194 0 -285 118 -249 286l93 440s43 9 110 9c68 0 108 -9 108 -9l-97 -458c-13 -59 8 -85 62 -85s84 26 97 85l97 458s41 9 108 9s107 -9 107 -9z" />
    <glyph glyph-name="Uacute" unicode="&#xda;" horiz-adv-x="676" 
d="M641 906l-193 -157c-43 7 -85 24 -102 55l136 167c68 7 141 -21 159 -65zM719 711l-98 -463c-36 -168 -164 -263 -342 -263s-286 95 -250 263l98 463s43 9 110 9c68 0 108 -9 108 -9l-97 -458c-13 -59 8 -85 62 -85s84 26 97 85l97 458s41 9 108 9s107 -9 107 -9z" />
    <glyph glyph-name="Ubreve" unicode="&#x16c;" horiz-adv-x="676" 
d="M652 852c0 0 -71 -83 -211 -83s-176 83 -176 83c22 34 59 67 104 84c0 0 33 -26 102 -26s114 26 114 26c36 -17 62 -50 67 -84zM719 711l-98 -463c-36 -168 -164 -263 -342 -263s-286 95 -250 263l98 463s43 9 110 9c68 0 108 -9 108 -9l-97 -458c-13 -59 8 -85 62 -85
s84 26 97 85l97 458s41 9 108 9s107 -9 107 -9z" />
    <glyph glyph-name="Ucircumflex" unicode="&#xdb;" horiz-adv-x="676" 
d="M507 987l159 -146c-27 -39 -65 -74 -107 -92l-105 74l-136 -73c-35 18 -59 52 -67 91l201 146h55zM719 711l-98 -463c-36 -168 -164 -263 -342 -263s-286 95 -250 263l98 463s43 9 110 9c68 0 108 -9 108 -9l-97 -458c-13 -59 8 -85 62 -85s84 26 97 85l97 458
s41 9 108 9s107 -9 107 -9z" />
    <glyph glyph-name="Udieresis" unicode="&#xdc;" horiz-adv-x="676" 
d="M440 914l-31 -148s-34 -7 -90 -7s-86 7 -86 7l31 148s33 7 90 7c56 0 86 -7 86 -7zM665 914l-31 -148s-34 -7 -90 -7s-86 7 -86 7l31 148s33 7 90 7c56 0 86 -7 86 -7zM719 711l-98 -463c-36 -168 -164 -263 -342 -263s-286 95 -250 263l98 463s43 9 110 9
c68 0 108 -9 108 -9l-97 -458c-13 -59 8 -85 62 -85s84 26 97 85l97 458s41 9 108 9s107 -9 107 -9z" />
    <glyph glyph-name="Ugrave" unicode="&#xd9;" horiz-adv-x="676" 
d="M422 749l-125 157c36 44 121 72 185 65l66 -167c-31 -31 -79 -48 -126 -55zM719 711l-98 -463c-36 -168 -164 -263 -342 -263s-286 95 -250 263l98 463s43 9 110 9c68 0 108 -9 108 -9l-97 -458c-13 -59 8 -85 62 -85s84 26 97 85l97 458s41 9 108 9s107 -9 107 -9z" />
    <glyph glyph-name="Uhungarumlaut" unicode="&#x170;" horiz-adv-x="676" 
d="M530 901l-185 -152c-43 6 -82 23 -99 53l132 162c65 7 136 -20 152 -63zM748 901l-185 -152c-42 6 -82 23 -99 53l132 162c65 7 136 -20 152 -63zM719 711l-98 -463c-36 -168 -164 -263 -342 -263s-286 95 -250 263l98 463s43 9 110 9c68 0 108 -9 108 -9l-97 -458
c-13 -59 8 -85 62 -85s84 26 97 85l97 458s41 9 108 9s107 -9 107 -9z" />
    <glyph glyph-name="Umacron" unicode="&#x16a;" horiz-adv-x="676" 
d="M602 768h-323c0 35 12 92 26 123h323c3 -32 -11 -90 -26 -123zM719 711l-98 -463c-36 -168 -164 -263 -342 -263s-286 95 -250 263l98 463s43 9 110 9c68 0 108 -9 108 -9l-97 -458c-13 -59 8 -85 62 -85s84 26 97 85l97 458s41 9 108 9s107 -9 107 -9z" />
    <glyph glyph-name="Uogonek" unicode="&#x172;" horiz-adv-x="675" 
d="M505 711c0 0 41 9 108 9s107 -9 107 -9l-98 -463c-28 -130 -103 -216 -224 -248c-48 -16 -102 -43 -112 -88c-5 -26 10 -37 30 -37c17 0 30 5 30 5c17 -13 21 -40 15 -64c0 0 -45 -29 -116 -29c-64 0 -109 34 -94 103c8 41 37 75 81 98c-145 16 -230 126 -197 285l93 438
s43 9 110 9c68 0 108 -9 108 -9l-97 -458c-13 -59 8 -85 62 -85s84 26 97 85z" />
    <glyph glyph-name="Uring" unicode="&#x16e;" horiz-adv-x="676" 
d="M432 732c-100 0 -162 59 -140 163c23 106 119 161 209 161c88 0 165 -54 142 -161c-22 -105 -115 -163 -211 -163zM510 895c5 21 -5 41 -35 41c-29 0 -48 -21 -52 -41c-4 -21 5 -42 34 -42c30 0 49 22 53 42zM719 711l-98 -463c-36 -168 -163 -263 -341 -263
s-287 95 -251 263l98 463s43 9 110 9c68 0 108 -9 108 -9l-97 -458c-13 -59 8 -85 62 -85s84 26 97 85l97 458s41 9 108 9s107 -9 107 -9z" />
    <glyph glyph-name="Utilde" unicode="&#x168;" horiz-adv-x="676" 
d="M531 891c42 0 65 25 65 25c35 -21 47 -67 41 -108c0 0 -40 -49 -111 -49s-95 31 -157 31c-37 0 -65 -25 -65 -25c-34 20 -49 62 -41 108c0 0 47 49 111 49c71 0 95 -31 157 -31zM719 711l-98 -463c-36 -168 -163 -263 -341 -263s-287 95 -251 263l98 463s43 9 110 9
c68 0 108 -9 108 -9l-97 -458c-13 -59 8 -85 62 -85s84 26 97 85l97 458s41 9 108 9s107 -9 107 -9z" />
    <glyph glyph-name="V" unicode="V" horiz-adv-x="691" 
d="M296 710l20 -341c7 -119 -2 -189 -2 -189h4s24 70 83 190l165 340s33 10 110 10c70 0 105 -10 105 -10l-349 -701s-57 -9 -151 -9c-95 0 -148 9 -148 9l-51 699s52 12 119 12c63 0 95 -10 95 -10z" />
    <glyph glyph-name="W" unicode="W" horiz-adv-x="1012" 
d="M515 9l19 331c7 110 25 198 25 198h-5s-18 -90 -59 -198l-125 -331c-31 -5 -85 -9 -146 -9s-115 4 -143 9l8 702s47 9 114 9c63 0 96 -9 96 -9l-11 -348c-3 -96 -17 -183 -17 -183h4s20 86 57 182l131 349s46 9 136 9c87 0 134 -9 134 -9l-20 -348
c-6 -102 -23 -183 -23 -183h4s23 81 63 182l138 349s35 9 99 9c59 0 98 -9 98 -9l-289 -702s-49 -9 -143 -9c-101 0 -145 9 -145 9z" />
    <glyph glyph-name="Wacute" unicode="&#x1e82;" horiz-adv-x="1012" 
d="M817 906l-193 -157c-43 7 -85 24 -102 55l136 167c68 7 141 -21 159 -65zM515 9l19 331c7 110 25 198 25 198h-5s-18 -90 -59 -198l-125 -331c-31 -5 -85 -9 -146 -9s-115 4 -143 9l8 702s47 9 114 9c63 0 96 -9 96 -9l-11 -348c-3 -96 -17 -183 -17 -183h4s20 86 57 182
l131 349s46 9 136 9c87 0 134 -9 134 -9l-20 -348c-6 -102 -23 -183 -23 -183h4s23 81 63 182l138 349s35 9 99 9c59 0 98 -9 98 -9l-289 -702s-49 -9 -143 -9c-101 0 -145 9 -145 9z" />
    <glyph glyph-name="Wcircumflex" unicode="&#x174;" horiz-adv-x="1012" 
d="M688 999l148 -158c-27 -39 -65 -74 -107 -92l-105 74l-136 -73c-35 18 -59 52 -67 91l212 158h55zM515 9l19 331c7 110 25 198 25 198h-5s-18 -90 -59 -198l-125 -331c-31 -5 -85 -9 -146 -9s-115 4 -143 9l8 702s47 9 114 9c63 0 96 -9 96 -9l-11 -348
c-3 -96 -17 -183 -17 -183h4s20 86 57 182l131 349s46 9 136 9c87 0 134 -9 134 -9l-20 -348c-6 -102 -23 -183 -23 -183h4s23 81 63 182l138 349s35 9 99 9c59 0 98 -9 98 -9l-289 -702s-49 -9 -143 -9c-101 0 -145 9 -145 9z" />
    <glyph glyph-name="Wdieresis" unicode="&#x1e84;" horiz-adv-x="1012" 
d="M610 914l-31 -148s-34 -7 -90 -7s-86 7 -86 7l31 148s33 7 90 7c56 0 86 -7 86 -7zM847 914l-31 -148s-34 -7 -90 -7s-86 7 -86 7l31 148s33 7 90 7c56 0 86 -7 86 -7zM515 9l19 331c7 110 25 198 25 198h-5s-18 -90 -59 -198l-125 -331c-31 -5 -85 -9 -146 -9
s-115 4 -143 9l8 702s47 9 114 9c63 0 96 -9 96 -9l-11 -348c-3 -96 -17 -183 -17 -183h4s20 86 57 182l131 349s46 9 136 9c87 0 134 -9 134 -9l-20 -348c-6 -102 -23 -183 -23 -183h4s23 81 63 182l138 349s35 9 99 9c59 0 98 -9 98 -9l-289 -702s-49 -9 -143 -9
c-101 0 -145 9 -145 9z" />
    <glyph glyph-name="Wgrave" unicode="&#x1e80;" horiz-adv-x="1012" 
d="M588 749l-125 157c36 44 121 72 185 65l66 -167c-31 -31 -79 -48 -126 -55zM515 9l19 331c7 110 25 198 25 198h-5s-18 -90 -59 -198l-125 -331c-31 -5 -85 -9 -146 -9s-115 4 -143 9l8 702s47 9 114 9c63 0 96 -9 96 -9l-11 -348c-3 -96 -17 -183 -17 -183h4
s20 86 57 182l131 349s46 9 136 9c87 0 134 -9 134 -9l-20 -348c-6 -102 -23 -183 -23 -183h4s23 81 63 182l138 349s35 9 99 9c59 0 98 -9 98 -9l-289 -702s-49 -9 -143 -9c-101 0 -145 9 -145 9z" />
    <glyph glyph-name="X" unicode="X" horiz-adv-x="652" 
d="M502 711c36 6 80 9 119 9c38 0 78 -4 114 -9l-251 -347l121 -355s-41 -9 -119 -9c-74 0 -112 9 -112 9l-74 199l-143 -199c-32 -5 -76 -9 -113 -9c-45 0 -83 3 -119 9l272 377l-106 325s38 9 126 9c73 0 112 -9 112 -9l59 -160z" />
    <glyph glyph-name="Y" unicode="Y" horiz-adv-x="666" 
d="M535 711c0 0 49 9 115 9c71 0 112 -9 112 -9l-332 -455l-52 -247s-40 -9 -111 -9c-76 0 -107 9 -107 9l53 250l-133 452s46 9 127 9c69 0 112 -9 112 -9l60 -220z" />
    <glyph glyph-name="Yacute" unicode="&#xdd;" horiz-adv-x="666" 
d="M333 804l136 167c68 7 141 -21 159 -65l-193 -157c-43 7 -85 24 -102 55zM535 711c0 0 49 9 115 9c71 0 112 -9 112 -9l-332 -455l-52 -247s-40 -9 -111 -9c-76 0 -107 9 -107 9l53 250l-133 452s46 9 127 9c69 0 112 -9 112 -9l60 -220z" />
    <glyph glyph-name="Ycircumflex" unicode="&#x176;" horiz-adv-x="666" 
d="M510 989l152 -148c-27 -39 -65 -74 -107 -92l-105 74l-136 -73c-35 18 -59 52 -67 91l208 148h55zM535 711c0 0 49 9 115 9c71 0 112 -9 112 -9l-332 -455l-52 -247s-40 -9 -111 -9c-76 0 -107 9 -107 9l53 250l-133 452s46 9 127 9c69 0 112 -9 112 -9l60 -220z" />
    <glyph glyph-name="Ydieresis" unicode="&#x178;" horiz-adv-x="666" 
d="M274 906c0 0 32 7 89 7c56 0 87 -7 87 -7l-32 -148s-33 -7 -89 -7s-87 7 -87 7zM499 906c0 0 32 7 89 7c56 0 87 -7 87 -7l-32 -148s-33 -7 -89 -7s-87 7 -87 7zM535 711c0 0 49 9 115 9c71 0 112 -9 112 -9l-332 -455l-52 -247s-40 -9 -111 -9c-76 0 -107 9 -107 9
l53 250l-133 452s46 9 127 9c69 0 112 -9 112 -9l60 -220z" />
    <glyph glyph-name="Ygrave" unicode="&#x1ef2;" horiz-adv-x="666" 
d="M479 971l66 -167c-31 -31 -79 -48 -126 -55l-125 157c36 44 121 72 185 65zM535 711c0 0 49 9 115 9c71 0 112 -9 112 -9l-332 -455l-52 -247s-40 -9 -111 -9c-76 0 -107 9 -107 9l53 250l-133 452s46 9 127 9c69 0 112 -9 112 -9l60 -220z" />
    <glyph glyph-name="Z" unicode="Z" horiz-adv-x="632" 
d="M140 720h539c3 -24 1 -51 -5 -80c-6 -30 -17 -60 -30 -87l-391 -385h322c0 -26 -3 -55 -9 -84c-7 -30 -16 -60 -27 -84h-580c-3 24 1 55 7 86c7 30 17 60 29 82l384 385h-274c-2 26 0 55 7 85c6 28 15 56 28 82z" />
    <glyph glyph-name="Zacute" unicode="&#x179;" horiz-adv-x="632" 
d="M310 804l136 167c68 7 141 -21 159 -65l-193 -157c-43 7 -85 24 -102 55zM140 720h539c3 -24 1 -51 -5 -80c-6 -30 -17 -60 -30 -87l-391 -385h322c0 -26 -3 -55 -9 -84c-7 -30 -16 -60 -27 -84h-580c-3 24 1 55 7 86c7 30 17 60 29 82l384 385h-274c-2 26 0 55 7 85
c6 28 15 56 28 82z" />
    <glyph glyph-name="Zcaron" unicode="&#x17d;" horiz-adv-x="632" 
d="M450 925l135 73c35 -18 59 -52 68 -91l-211 -148h-55l-149 148c26 39 64 74 106 92zM140 720h539c3 -24 1 -51 -5 -80c-6 -30 -17 -60 -30 -87l-391 -385h322c0 -26 -3 -55 -9 -84c-7 -30 -16 -60 -27 -84h-580c-3 24 1 55 7 86c7 30 17 60 29 82l384 385h-274
c-2 26 0 55 7 85c6 28 15 56 28 82z" />
    <glyph glyph-name="Zdotaccent" unicode="&#x17b;" horiz-adv-x="632" 
d="M359 951c0 0 35 7 95 7c59 0 91 -7 91 -7l-37 -174s-36 -8 -95 -8s-91 8 -91 8zM140 720h539c3 -24 1 -51 -5 -80c-6 -30 -17 -60 -30 -87l-391 -385h322c0 -26 -3 -55 -9 -84c-7 -30 -16 -60 -27 -84h-580c-3 24 1 55 7 86c7 30 17 60 29 82l384 385h-274
c-2 26 0 55 7 85c6 28 15 56 28 82z" />
    <glyph glyph-name="_0020" horiz-adv-x="0" 
 />
    <glyph glyph-name="_375" horiz-adv-x="646" 
d="M229 712c25 5 60 8 95 8c36 0 71 -3 95 -8l117 -600c-23 -46 -55 -84 -94 -112h-544c-33 30 -49 68 -46 111zM270 475h-4c-21 -45 -48 -100 -77 -146l-110 -176h238l-33 177c-8 45 -12 101 -14 145z" />
    <glyph glyph-name="_376" horiz-adv-x="700" 
d="M533 0h-306c-6 39 11 122 34 160c63 62 106 128 126 220c30 142 6 194 -69 194s-121 -52 -151 -194c-20 -92 -5 -158 32 -220c5 -37 -13 -120 -34 -160h-306c-3 22 -1 51 5 79c6 29 15 58 29 81h83c-29 56 -43 128 -23 220c52 246 196 350 398 350s302 -104 250 -350
c-20 -92 -64 -164 -118 -220h84c2 -24 -1 -52 -7 -80s-15 -57 -27 -80z" />
    <glyph glyph-name="a" unicode="a" horiz-adv-x="563" 
d="M378 529c0 0 36 9 98 9s100 -8 100 -8l-111 -522s-40 -8 -100 -8c-61 0 -89 8 -89 8l1 38c-34 -33 -77 -56 -132 -56c-112 0 -172 89 -129 293s123 263 245 263c40 0 87 -15 107 -53zM333 346c1 25 -5 46 -30 46c-38 0 -52 -28 -73 -129c-19 -91 -17 -119 21 -119
c25 0 39 19 47 40z" />
    <glyph glyph-name="aacute" unicode="&#xe1;" horiz-adv-x="563" 
d="M258 616l136 167c68 7 141 -21 159 -65l-193 -157c-43 7 -85 24 -102 55zM378 529c0 0 36 9 98 9s100 -8 100 -8l-111 -522s-40 -8 -100 -8c-61 0 -89 8 -89 8l1 38c-34 -33 -77 -56 -132 -56c-112 0 -172 89 -129 293s123 263 245 263c40 0 87 -15 107 -53zM333 346
c1 25 -5 46 -30 46c-38 0 -52 -28 -73 -129c-19 -91 -17 -119 21 -119c25 0 39 19 47 40z" />
    <glyph glyph-name="abreve" unicode="&#x103;" horiz-adv-x="563" 
d="M378 725c67 0 111 28 111 28c35 -18 59 -53 64 -88c0 0 -61 -87 -197 -87s-179 87 -179 87c21 35 59 70 102 88c0 0 32 -28 99 -28zM378 529c0 0 36 9 98 9s100 -8 100 -8l-111 -522s-40 -8 -100 -8c-61 0 -89 8 -89 8l1 38c-34 -33 -77 -56 -132 -56
c-112 0 -172 89 -129 293s123 263 245 263c40 0 87 -15 107 -53zM333 346c1 25 -5 46 -30 46c-38 0 -52 -28 -73 -129c-19 -91 -17 -119 21 -119c25 0 39 19 47 40z" />
    <glyph glyph-name="acircumflex" unicode="&#xe2;" horiz-adv-x="563" 
d="M427 805l151 -143c-26 -38 -64 -72 -104 -89l-103 72l-133 -71c-34 17 -57 50 -66 88l201 143h54zM378 529c0 0 36 9 98 9s100 -8 100 -8l-111 -522s-40 -8 -100 -8c-61 0 -89 8 -89 8l1 38c-34 -33 -77 -56 -132 -56c-112 0 -172 89 -129 293s123 263 245 263
c40 0 87 -15 107 -53zM333 346c1 25 -5 46 -30 46c-38 0 -52 -28 -73 -129c-19 -91 -17 -119 21 -119c25 0 39 19 47 40z" />
    <glyph glyph-name="acute" unicode="&#xb4;" horiz-adv-x="224" 
d="M266 772l-192 -157c-44 7 -85 24 -103 55l137 167c67 7 140 -21 158 -65z" />
    <glyph glyph-name="adieresis" unicode="&#xe4;" horiz-adv-x="563" 
d="M192 737c0 0 32 7 89 7c56 0 87 -7 87 -7l-32 -148s-33 -7 -89 -7s-87 7 -87 7zM417 737c0 0 32 7 89 7c56 0 87 -7 87 -7l-32 -148s-33 -7 -89 -7s-87 7 -87 7zM378 529c0 0 36 9 98 9s100 -8 100 -8l-111 -522s-40 -8 -100 -8c-61 0 -89 8 -89 8l1 38
c-34 -33 -77 -56 -132 -56c-112 0 -172 89 -129 293s123 263 245 263c40 0 87 -15 107 -53zM333 346c1 25 -5 46 -30 46c-38 0 -52 -28 -73 -129c-19 -91 -17 -119 21 -119c25 0 39 19 47 40z" />
    <glyph glyph-name="ae" unicode="&#xe6;" horiz-adv-x="775" 
d="M647 540c110 0 146 -75 118 -206c-15 -68 -37 -123 -37 -123h-253c1 -40 19 -63 67 -63c50 0 94 26 94 26c26 -25 44 -78 36 -131c0 0 -60 -53 -152 -53c-50 0 -81 17 -103 49l-10 -33s-21 -6 -73 -6c-61 0 -74 8 -74 8l1 38c-32 -33 -67 -56 -122 -56
c-112 0 -168 80 -125 284s121 272 243 272c40 0 77 -15 95 -53l10 36s22 9 84 9s73 -8 73 -8l-4 -33c50 35 94 43 132 43zM495 321h74s4 14 7 28c8 37 2 59 -18 59c-25 0 -45 -25 -63 -87zM292 186l35 160c5 25 -5 46 -30 46c-33 0 -53 -28 -74 -129
c-19 -91 -11 -119 22 -119c25 0 43 21 47 42z" />
    <glyph glyph-name="aeacute" unicode="&#x1fd;" horiz-adv-x="771" 
d="M632 729l-192 -157c-44 7 -85 24 -103 55l137 167c67 7 140 -21 158 -65zM644 540c110 0 146 -75 118 -206c-15 -68 -37 -123 -37 -123h-253c1 -40 19 -63 67 -63c50 0 94 26 94 26c26 -25 44 -78 36 -131c0 0 -60 -53 -152 -53c-50 0 -81 17 -103 49l-10 -33
s-21 -6 -73 -6c-61 0 -74 8 -74 8l1 38c-32 -33 -67 -56 -122 -56c-112 0 -163 84 -120 288s116 268 238 268c40 0 77 -15 95 -53l10 36s22 9 84 9s73 -8 73 -8l-4 -33c50 35 94 43 132 43zM492 321h74s4 14 7 28c8 37 2 59 -18 59c-25 0 -45 -25 -63 -87zM289 186l35 160
c5 25 -5 46 -30 46c-33 0 -53 -28 -74 -129c-19 -91 -11 -119 22 -119c25 0 43 21 47 42z" />
    <glyph glyph-name="agrave" unicode="&#xe0;" horiz-adv-x="563" 
d="M409 788l64 -170c-30 -31 -79 -48 -125 -55l-120 157c36 44 117 75 181 68zM378 529c0 0 36 9 98 9s100 -8 100 -8l-111 -522s-40 -8 -100 -8c-61 0 -89 8 -89 8l1 38c-34 -33 -77 -56 -132 -56c-112 0 -172 89 -129 293s123 263 245 263c40 0 87 -15 107 -53zM333 346
c1 25 -5 46 -30 46c-38 0 -52 -28 -73 -129c-19 -91 -17 -119 21 -119c25 0 39 19 47 40z" />
    <glyph glyph-name="amacron" unicode="&#x101;" horiz-adv-x="563" 
d="M236 712h315c2 -30 -11 -85 -25 -117h-315c1 34 12 88 25 117zM378 529c0 0 36 9 98 9s100 -8 100 -8l-111 -522s-40 -8 -100 -8c-61 0 -89 8 -89 8l1 38c-34 -33 -77 -56 -132 -56c-112 0 -172 89 -129 293s123 263 245 263c40 0 87 -15 107 -53zM333 346
c1 25 -5 46 -30 46c-38 0 -52 -28 -73 -129c-19 -91 -17 -119 21 -119c25 0 39 19 47 40z" />
    <glyph glyph-name="ampersand" unicode="&#x26;" horiz-adv-x="663" 
d="M405 690c116 0 177 -48 158 -140c-19 -91 -103 -152 -192 -201c18 -31 41 -61 70 -90c19 24 39 51 52 73c52 -7 100 -37 117 -76c-14 -21 -37 -50 -63 -78c30 -18 63 -34 98 -49c-29 -67 -90 -117 -142 -130c-40 15 -76 33 -108 53c-52 -31 -125 -62 -221 -62
c-129 0 -216 52 -190 173c23 108 117 178 183 214c-10 48 -9 95 0 137c23 105 100 176 238 176zM375 579c-18 0 -32 -12 -38 -43c-5 -22 -6 -46 -4 -70c35 26 54 51 61 83c3 16 -3 30 -19 30zM225 126c23 0 45 5 66 13c-34 35 -61 74 -81 114c-17 -19 -32 -40 -37 -65
c-9 -43 18 -62 52 -62z" />
    <glyph glyph-name="aogonek" unicode="&#x105;" horiz-adv-x="565" 
d="M388 -124c17 0 39 12 39 12c16 -13 21 -40 15 -64c0 0 -48 -39 -119 -39c-64 0 -122 34 -107 103c9 43 37 82 85 107l-14 51c-35 -36 -88 -56 -143 -56c-112 0 -171 85 -128 289s124 267 246 267c40 0 87 -15 107 -53l10 36s36 9 98 9s102 -8 102 -8l-111 -522h-3
c-48 -17 -104 -53 -113 -98c-6 -26 14 -34 36 -34zM299 184l35 162c1 25 -5 46 -30 46c-38 0 -52 -28 -73 -129c-19 -91 -17 -119 21 -119c25 0 39 19 47 40z" />
    <glyph glyph-name="approxequal" unicode="&#x2248;" horiz-adv-x="527" 
d="M188 333c-45 0 -72 -32 -72 -32c-39 17 -68 50 -71 100c0 0 53 76 153 76c93 0 109 -51 174 -51c43 0 70 32 70 32c41 -16 70 -53 71 -100c0 0 -53 -76 -152 -76c-93 0 -113 51 -173 51zM147 143c-45 0 -71 -32 -71 -32c-40 17 -69 50 -71 100c0 0 53 76 153 76
c93 0 108 -51 173 -51c43 0 71 32 71 32c41 -16 70 -53 71 -100c0 0 -53 -76 -152 -76c-93 0 -114 51 -174 51z" />
    <glyph glyph-name="aring" unicode="&#xe5;" horiz-adv-x="563" 
d="M224 711c16 92 105 139 191 139c84 0 160 -46 144 -139c-15 -91 -102 -141 -193 -141c-95 0 -157 51 -142 141zM432 711c4 18 -5 35 -34 35c-28 0 -45 -18 -49 -35c-4 -18 5 -36 33 -36c29 0 46 19 50 36zM378 529c0 0 36 9 98 9s100 -8 100 -8l-111 -522s-40 -8 -100 -8
c-61 0 -89 8 -89 8l1 38c-34 -33 -77 -56 -132 -56c-112 0 -172 89 -129 293s123 263 245 263c40 0 87 -15 107 -53zM333 346c1 25 -5 46 -30 46c-38 0 -52 -28 -73 -129c-19 -91 -17 -119 21 -119c25 0 39 19 47 40z" />
    <glyph glyph-name="aringacute" unicode="&#x1fb;" horiz-adv-x="563" 
d="M299 922l121 124c62 5 132 -16 151 -48l-174 -117c-41 5 -80 18 -98 41zM219 716c16 96 100 146 182 146c80 0 153 -49 137 -146c-15 -95 -97 -148 -184 -148c-91 0 -150 54 -135 148zM421 716c5 21 -5 41 -35 41c-29 0 -48 -21 -52 -41c-4 -21 5 -42 34 -42
c30 0 49 22 53 42zM378 529c0 0 36 9 98 9s100 -8 100 -8l-111 -522s-40 -8 -100 -8c-61 0 -89 8 -89 8l1 38c-34 -33 -77 -56 -132 -56c-112 0 -172 89 -129 293s123 263 245 263c40 0 87 -15 107 -53zM333 346c1 25 -5 46 -30 46c-38 0 -52 -28 -73 -129
c-19 -91 -17 -119 21 -119c25 0 39 19 47 40z" />
    <glyph glyph-name="arrowdown" unicode="&#x2193;" horiz-adv-x="537" 
d="M273 641c20 5 45 7 69 7s47 -2 65 -7l-79 -372l126 105c30 -8 59 -40 66 -72l-305 -251l-199 251c20 29 64 63 96 72l82 -105z" />
    <glyph glyph-name="arrowleft" unicode="&#x2190;" horiz-adv-x="643" 
d="M25 350l305 252c29 -14 53 -50 55 -81l-127 -104h372c1 -19 -3 -43 -8 -67s-12 -48 -21 -67h-372l83 -104c-16 -31 -57 -67 -89 -81z" />
    <glyph glyph-name="arrowright" unicode="&#x2192;" horiz-adv-x="644" 
d="M637 350l-304 -252c-26 14 -53 50 -55 81l126 104h-371c-1 19 2 43 7 67s13 48 22 67h371l-82 104c14 31 54 67 89 81z" />
    <glyph glyph-name="arrowup" unicode="&#x2191;" horiz-adv-x="539" 
d="M343 648l198 -251c-20 -32 -63 -64 -96 -72l-82 104l-79 -371c-20 -5 -44 -7 -68 -7s-48 2 -66 7l79 371l-126 -104c-29 9 -58 43 -66 72z" />
    <glyph glyph-name="asciicircum" unicode="^" horiz-adv-x="585" 
d="M460 713l132 -284s-37 -7 -90 -7c-54 0 -89 7 -89 7l-64 137l-122 -137s-37 -7 -91 -7c-53 0 -88 7 -88 7l254 284s34 7 80 7s78 -7 78 -7z" />
    <glyph glyph-name="asciitilde" unicode="~" horiz-adv-x="523" 
d="M164 229c-45 0 -72 -32 -72 -32c-40 17 -69 50 -71 100c0 0 53 76 153 76c93 0 108 -51 173 -51c43 0 71 32 71 32c41 -16 70 -53 71 -100c0 0 -53 -76 -152 -76c-93 0 -113 51 -173 51z" />
    <glyph glyph-name="asterisk" unicode="*" horiz-adv-x="328" 
d="M191 656l14 65c32 10 67 9 94 -1l-14 -64l70 18c14 -21 15 -53 8 -87l-67 -19l28 -60c-23 -21 -56 -43 -89 -52l-27 57l-51 -57c-31 9 -55 31 -67 52l51 58l-57 21c7 34 23 66 46 87z" />
    <glyph glyph-name="at" unicode="@" horiz-adv-x="913" 
d="M891 303c-30 -143 -142 -218 -255 -218c-72 0 -122 19 -143 54c-30 -35 -73 -54 -139 -54c-93 0 -145 49 -114 193c31 146 103 194 196 194c46 0 77 -10 98 -27l4 22s24 10 81 10s75 -10 75 -10l-46 -217c-7 -34 0 -52 23 -52c32 0 53 21 70 104c36 169 -36 265 -208 265
c-181 0 -305 -97 -346 -288c-45 -213 76 -278 225 -278c80 0 168 14 251 57c25 -12 40 -55 37 -88c-111 -65 -221 -94 -328 -94c-226 0 -406 129 -348 403c55 258 274 409 536 409s381 -151 331 -385zM405 278c-14 -64 -12 -86 29 -86c26 0 48 12 59 64l12 53
c7 46 -10 56 -34 56c-41 0 -52 -20 -66 -87z" />
    <glyph glyph-name="atilde" unicode="&#xe3;" horiz-adv-x="563" 
d="M189 700c0 0 47 51 111 51c71 0 95 -32 157 -32c42 0 64 26 64 26c36 -22 47 -70 41 -112c0 0 -40 -51 -111 -51s-96 32 -158 32c-37 0 -64 -26 -64 -26c-35 21 -49 65 -40 112zM378 529c0 0 36 9 98 9s100 -8 100 -8l-111 -522s-40 -8 -100 -8c-61 0 -89 8 -89 8l1 38
c-34 -33 -77 -56 -132 -56c-112 0 -172 89 -129 293s123 263 245 263c40 0 87 -15 107 -53zM333 346c1 25 -5 46 -30 46c-38 0 -52 -28 -73 -129c-19 -91 -17 -119 21 -119c25 0 39 19 47 40z" />
    <glyph glyph-name="b" unicode="b" horiz-adv-x="568" 
d="M334 742l-53 -246c34 30 77 50 126 50c112 0 174 -81 130 -290c-45 -209 -136 -266 -248 -266c-49 0 -84 18 -105 47l-6 -29s-43 -8 -105 -8s-101 8 -101 8l156 734s42 8 104 8s102 -8 102 -8zM318 267c21 98 16 125 -19 125c-20 0 -42 -19 -52 -60l-29 -132
c-8 -39 8 -56 29 -56c35 0 50 26 71 123z" />
    <glyph glyph-name="backslash" unicode="\" horiz-adv-x="575" 
d="M320 741l168 -779s-49 -9 -110 -9c-59 0 -104 9 -104 9l-168 779s49 9 110 9c59 0 104 -9 104 -9z" />
    <glyph glyph-name="bar" unicode="|" horiz-adv-x="334" 
d="M160 782c0 0 46 8 110 8c61 0 106 -8 106 -8l-206 -971s-49 -8 -110 -8c-64 0 -106 8 -106 8z" />
    <glyph glyph-name="braceleft" unicode="{" horiz-adv-x="424" 
d="M358 810h150c2 -19 -2 -47 -8 -74c-5 -27 -14 -55 -23 -74h-35c-40 0 -68 -25 -76 -62l-29 -139c-12 -55 -39 -100 -89 -126c39 -26 47 -72 35 -127l-29 -139c-8 -37 8 -62 48 -62h35c1 -20 -2 -49 -8 -77c-6 -27 -14 -53 -23 -71h-150c-99 0 -140 63 -120 153l39 187
c8 37 -9 62 -49 62h-30c-2 19 2 47 8 75c6 26 15 53 24 72h30c40 0 67 25 75 62l40 187c19 90 86 153 185 153z" />
    <glyph glyph-name="braceright" unicode="}" horiz-adv-x="424" 
d="M130 810h150c99 0 140 -63 121 -153l-40 -187c-8 -37 9 -62 49 -62h30c1 -19 -2 -46 -8 -72c-6 -28 -14 -56 -24 -75h-30c-40 0 -67 -25 -75 -62l-39 -187c-20 -90 -87 -153 -186 -153h-150c-1 18 1 44 7 71c6 28 15 57 24 77h35c40 0 68 25 76 62l29 139
c12 55 39 101 89 127c-39 26 -47 71 -35 126l29 139c8 37 -8 62 -48 62h-35c-1 19 2 47 7 74c6 27 14 55 24 74z" />
    <glyph glyph-name="bracketleft" unicode="[" horiz-adv-x="356" 
d="M167 810h273s2 -26 -8 -72s-22 -71 -22 -71h-77l-148 -694h77s2 -26 -8 -72s-22 -71 -22 -71h-273z" />
    <glyph glyph-name="bracketright" unicode="]" horiz-adv-x="356" 
d="M195 -170h-273s-2 25 8 71s22 72 22 72h77l148 694h-77s-2 25 8 71s22 72 22 72h273z" />
    <glyph glyph-name="breve" unicode="&#x2d8;" horiz-adv-x="324" 
d="M336 663c0 0 -71 -87 -207 -87s-169 87 -169 87c21 35 59 70 102 88c0 0 32 -28 99 -28s111 28 111 28c35 -18 59 -53 64 -88z" />
    <glyph glyph-name="brokenbar" unicode="&#xa6;" horiz-adv-x="328" 
d="M66 351l93 441s46 8 110 8c61 0 106 -8 106 -8l-93 -441s-49 -8 -110 -8c-64 0 -106 8 -106 8zM-51 -199l96 451s45 8 109 8c61 0 107 -8 107 -8l-96 -451s-49 -8 -110 -8c-64 0 -106 8 -106 8z" />
    <glyph glyph-name="bullet" unicode="&#x2022;" horiz-adv-x="376" 
d="M327 282c-18 -85 -92 -141 -173 -141c-82 0 -133 56 -115 141c18 86 93 143 175 143c81 0 131 -57 113 -143z" />
    <glyph glyph-name="c" unicode="c" horiz-adv-x="449" 
d="M329 387c-56 0 -84 -30 -103 -120c-19 -87 -2 -115 57 -115c42 0 72 17 72 17c26 -32 37 -83 33 -136c0 0 -74 -43 -188 -43c-162 0 -227 100 -185 298c42 196 138 258 302 258c105 0 162 -38 162 -38c-16 -51 -50 -103 -91 -136c0 0 -21 15 -59 15z" />
    <glyph glyph-name="cacute" unicode="&#x107;" horiz-adv-x="449" 
d="M499 729l-192 -157c-44 7 -85 24 -103 55l137 167c67 7 140 -21 158 -65zM329 387c-56 0 -84 -30 -103 -120c-19 -87 -2 -115 57 -115c42 0 72 17 72 17c26 -32 37 -83 33 -136c0 0 -74 -43 -188 -43c-162 0 -227 100 -185 298c42 196 138 258 302 258
c105 0 162 -38 162 -38c-16 -51 -50 -103 -91 -136c0 0 -21 15 -59 15z" />
    <glyph glyph-name="caron" unicode="&#x2c7;" horiz-adv-x="404" 
d="M128 516l-148 158c27 39 65 74 107 92l105 -74l136 73c35 -18 59 -52 67 -91l-212 -158h-55z" />
    <glyph glyph-name="ccaron" unicode="&#x10d;" horiz-adv-x="449" 
d="M293 573l-147 137c24 36 59 68 98 85l95 -69l125 68c32 -17 55 -48 62 -84l-183 -137h-50zM329 387c-56 0 -84 -30 -103 -120c-19 -87 -2 -115 57 -115c42 0 72 17 72 17c26 -32 37 -83 33 -136c0 0 -74 -43 -188 -43c-162 0 -227 100 -185 298c42 196 138 258 302 258
c105 0 162 -38 162 -38c-16 -51 -50 -103 -91 -136c0 0 -21 15 -59 15z" />
    <glyph glyph-name="ccedilla" unicode="&#xe7;" horiz-adv-x="447" 
d="M218 -10l-14 -32c81 0 102 -41 89 -102c-15 -72 -79 -106 -162 -106c-79 0 -123 24 -123 24c3 21 21 58 40 71c16 -6 43 -12 70 -14c34 -2 66 4 71 29c4 19 -4 26 -27 26h-77l-11 16l39 97c-101 26 -134 126 -98 284c42 184 137 263 301 263c105 0 162 -38 162 -38
c-16 -51 -49 -98 -90 -131c0 0 -21 15 -59 15c-56 0 -85 -35 -104 -125c-19 -87 -3 -120 56 -120c42 0 72 17 72 17c26 -32 38 -78 34 -131c0 0 -66 -38 -169 -43z" />
    <glyph glyph-name="ccircumflex" unicode="&#x109;" horiz-adv-x="449" 
d="M378 792l144 -139c-25 -37 -60 -69 -99 -85l-98 68l-126 -67c-33 16 -55 47 -63 84l190 139h52zM329 387c-56 0 -84 -30 -103 -120c-19 -87 -2 -115 57 -115c42 0 72 17 72 17c26 -32 37 -83 33 -136c0 0 -74 -43 -188 -43c-162 0 -227 100 -185 298
c42 196 138 258 302 258c105 0 162 -38 162 -38c-16 -51 -50 -103 -91 -136c0 0 -21 15 -59 15z" />
    <glyph glyph-name="cdotaccent" unicode="&#x10b;" horiz-adv-x="449" 
d="M449 766l-36 -167s-35 -8 -94 -8s-92 8 -92 8l36 167s34 7 94 7c59 0 92 -7 92 -7zM329 387c-56 0 -84 -30 -103 -120c-19 -87 -2 -115 57 -115c42 0 72 17 72 17c26 -32 37 -83 33 -136c0 0 -74 -43 -188 -43c-162 0 -227 100 -185 298c42 196 138 258 302 258
c105 0 162 -38 162 -38c-16 -51 -50 -103 -91 -136c0 0 -21 15 -59 15z" />
    <glyph glyph-name="cedilla" unicode="&#xb8;" horiz-adv-x="296" 
d="M-58 53l102 -18l-21 -51c81 0 102 -42 89 -103c-16 -72 -80 -106 -163 -106c-79 0 -123 24 -123 24c4 21 22 58 40 71c16 -6 44 -12 70 -14c34 -2 66 4 72 29c4 19 -5 26 -28 26h-77l-11 16z" />
    <glyph glyph-name="cent" unicode="&#xa2;" horiz-adv-x="481" 
d="M265 627c0 0 44 10 93 10c53 0 90 -10 90 -10l-28 -92c46 -11 71 -27 71 -27c-16 -51 -49 -98 -90 -131c0 0 -21 15 -59 15c-56 0 -85 -35 -104 -125c-19 -87 -3 -120 56 -120c42 0 72 17 72 17c26 -32 38 -78 34 -131c0 0 -36 -21 -94 -33l-13 -101s-41 -10 -94 -10
c-49 0 -89 10 -89 10l30 97c-110 21 -155 101 -120 267c35 164 113 252 235 276z" />
    <glyph glyph-name="circumflex" unicode="&#x2c6;" horiz-adv-x="396" 
d="M237 786l147 -158c-26 -39 -64 -74 -106 -92l-105 74l-136 -73c-35 18 -59 52 -68 91l213 158h55z" />
    <glyph glyph-name="colon" unicode=":" horiz-adv-x="282" 
d="M289 518l-41 -194s-39 -8 -105 -8s-101 8 -101 8l41 194s38 8 105 8c66 0 101 -8 101 -8zM222 202l-41 -194s-39 -8 -105 -8s-101 8 -101 8l41 194s38 8 105 8c66 0 101 -8 101 -8z" />
    <glyph glyph-name="comma" unicode="," horiz-adv-x="277" 
d="M40 -167l-64 51s45 46 64 116c-36 2 -67 8 -67 8l41 195s41 8 105 8c61 0 101 -8 101 -8l-33 -155c-28 -133 -147 -215 -147 -215z" />
    <glyph glyph-name="commaaccentcomb" unicode="&#xf6c3;" horiz-adv-x="0" 
d="M-54 -167l-64 51s45 46 64 116c-36 2 -67 8 -67 8l41 195s41 8 105 8c61 0 101 -8 101 -8l-33 -155c-28 -133 -147 -215 -147 -215z" />
    <glyph glyph-name="commaaccentcomb.alt" horiz-adv-x="0" 
d="M121 720l64 -51s-45 -46 -65 -117c37 -2 69 -7 69 -7l-42 -195s-40 -8 -104 -8c-61 0 -102 8 -102 8l33 155c29 133 147 215 147 215z" />
    <glyph glyph-name="copyright" unicode="&#xa9;" horiz-adv-x="790" 
d="M324 -30c-205 0 -335 165 -292 370c44 205 244 370 449 370s335 -165 291 -370c-43 -205 -243 -370 -448 -370zM453 581c-134 0 -260 -107 -289 -241c-28 -134 53 -241 187 -241s261 107 289 241c29 134 -53 241 -187 241zM364 143c-117 0 -163 72 -136 200
c28 131 104 199 221 199c76 0 118 -37 118 -37c-11 -39 -38 -73 -73 -91c0 0 -15 14 -45 14c-39 0 -64 -23 -77 -86c-14 -63 2 -81 41 -81c34 0 55 11 55 11c28 -15 41 -52 35 -91c0 0 -60 -38 -139 -38z" />
    <glyph glyph-name="currency" unicode="&#xa4;" horiz-adv-x="607" 
d="M410 -9l-54 69c-36 -16 -74 -25 -111 -25c-38 0 -72 9 -99 25l-84 -69s-33 2 -61 39c-27 35 -22 67 -22 67l83 69c-9 31 -11 67 -2 105c7 37 24 73 47 105l-54 69s10 33 52 68c44 38 76 38 76 38l54 -69c35 16 73 25 111 25c37 0 71 -9 99 -25l84 69s32 0 60 -38
c28 -35 24 -68 24 -68l-84 -69c9 -32 10 -68 3 -105c-9 -38 -25 -74 -48 -105l55 -69s-10 -34 -52 -69c-44 -39 -77 -37 -77 -37zM314 356c-47 0 -93 -37 -103 -85c-11 -48 19 -85 66 -85c48 0 93 37 104 85c10 48 -19 85 -67 85z" />
    <glyph glyph-name="d" unicode="d" horiz-adv-x="571" 
d="M422 741c0 0 43 9 105 9s102 -8 102 -8l-156 -734s-42 -8 -102 -8c-61 0 -89 8 -89 8l1 38c-34 -33 -79 -56 -134 -56c-112 0 -176 89 -133 293s124 263 246 263c46 0 87 -20 108 -50zM339 346c1 25 -5 46 -30 46c-38 0 -52 -28 -73 -129c-19 -91 -17 -119 21 -119
c25 0 39 19 47 40z" />
    <glyph glyph-name="dagger" unicode="&#x2020;" horiz-adv-x="585" 
d="M203 -151l-80 50l111 489l-193 -7s2 35 10 72c9 41 20 71 20 71l191 -7l33 189s43 5 90 5c48 0 87 -5 87 -5l-47 -189l181 7s-1 -34 -9 -71c-8 -38 -21 -72 -21 -72l-179 7l-97 -489z" />
    <glyph glyph-name="daggerdbl" unicode="&#x2021;" horiz-adv-x="616" 
d="M367 191l193 7s-2 -34 -10 -72c-9 -39 -20 -71 -20 -71l-191 7l-33 -189s-43 -5 -90 -5c-48 0 -87 5 -87 5l47 189l-192 -7s1 34 9 71c8 38 21 72 21 72l190 -7l13 98l28 99l-193 -7s3 36 10 73c9 38 20 70 20 70l191 -7l33 189s43 5 90 5c48 0 87 -5 87 -5l-47 -189
l192 7s-1 -34 -9 -71c-8 -38 -21 -72 -21 -72l-190 7l-14 -99z" />
    <glyph glyph-name="dcaron" unicode="&#x10f;" horiz-adv-x="591" 
d="M615 579c49 56 67 93 72 163c57 14 117 13 147 -3c-17 -79 -68 -152 -128 -183c-33 -6 -74 3 -91 23zM422 741c0 0 43 9 105 9s102 -8 102 -8l-156 -734s-42 -8 -102 -8c-61 0 -89 8 -89 8l1 38c-34 -33 -79 -56 -134 -56c-112 0 -176 89 -133 293s124 263 246 263
c45 0 87 -20 108 -50zM339 346c1 25 -5 46 -30 46c-38 0 -52 -28 -73 -129c-19 -91 -17 -119 21 -119c25 0 39 19 47 40z" />
    <glyph glyph-name="dcroat" unicode="&#x111;" horiz-adv-x="571" 
d="M619 697h47s4 -21 -4 -56c-7 -35 -21 -61 -21 -61h-46l-122 -572s-42 -8 -102 -8c-61 0 -89 8 -89 8l1 38c-34 -33 -79 -56 -134 -56c-112 0 -176 89 -133 293s124 263 246 263c46 0 87 -20 108 -50l18 84h-85s-1 26 6 61c8 35 19 56 19 56h85l9 44s43 9 105 9
s102 -8 102 -8zM304 184l35 162c1 25 -5 46 -30 46c-38 0 -52 -28 -73 -129c-19 -91 -17 -119 21 -119c25 0 39 19 47 40z" />
    <glyph glyph-name="degree" unicode="&#xb0;" horiz-adv-x="368" 
d="M72 580c18 83 95 167 206 167c112 0 150 -82 133 -163c-17 -82 -91 -164 -203 -164c-116 0 -153 79 -136 160zM277 583c4 18 -4 36 -27 36c-25 0 -41 -18 -45 -37c-4 -17 4 -35 29 -35c23 0 39 18 43 36z" />
    <glyph glyph-name="dieresis" unicode="&#xa8;" horiz-adv-x="455" 
d="M206 751l-32 -148s-33 -7 -89 -7s-87 7 -87 7l32 148s32 7 89 7c56 0 87 -7 87 -7zM431 751l-32 -148s-33 -7 -89 -7s-87 7 -87 7l32 148s32 7 89 7c56 0 87 -7 87 -7z" />
    <glyph glyph-name="divide" unicode="&#xf7;" horiz-adv-x="497" 
d="M399 573l-37 -174s-36 -8 -95 -8s-91 8 -91 8l37 174s34 7 94 7c59 0 92 -7 92 -7zM450 219h-440s-2 26 8 71c9 45 22 71 22 71h440s2 -26 -7 -71c-10 -45 -23 -71 -23 -71zM316 182l-37 -174s-36 -8 -95 -8s-91 8 -91 8l37 174s34 7 94 7c59 0 92 -7 92 -7z" />
    <glyph glyph-name="dollar" unicode="$" horiz-adv-x="590" 
d="M313 781c0 0 32 8 83 8c55 0 80 -8 80 -8l-33 -111c93 -8 154 -33 154 -33s-4 -32 -26 -74c-22 -39 -49 -67 -49 -67s-77 15 -137 15c-57 0 -105 -9 -110 -33c-14 -65 327 -22 275 -264c-25 -119 -114 -191 -249 -211l-17 -124s-30 -8 -82 -8c-51 0 -81 8 -81 8l35 122
c-111 11 -185 50 -185 50s8 37 29 77c22 40 48 69 48 69s85 -27 189 -27c49 0 98 8 103 31c14 66 -324 22 -273 260c22 103 103 180 230 204z" />
    <glyph glyph-name="dotaccent" unicode="&#x2d9;" horiz-adv-x="217" 
d="M210 756l-37 -174s-36 -8 -95 -8s-91 8 -91 8l37 174s34 7 94 7c59 0 92 -7 92 -7z" />
    <glyph glyph-name="dotlessi" unicode="&#x131;" horiz-adv-x="276" 
d="M288 528l-110 -520s-39 -8 -105 -8s-101 8 -101 8l110 520s38 8 105 8c66 0 101 -8 101 -8z" />
    <glyph glyph-name="dotlessj" unicode="&#x237;" horiz-adv-x="276" 
d="M-34 -17l116 545s41 8 105 8c61 0 101 -8 101 -8l-131 -616c-22 -104 -88 -162 -218 -162c-85 0 -125 29 -125 29s0 21 5 44c14 63 44 100 44 100s18 -5 36 -5c34 0 57 14 67 65z" />
    <glyph glyph-name="e" unicode="e" horiz-adv-x="511" 
d="M466 211h-251c-4 -50 20 -59 66 -59c52 0 95 24 95 24c23 -28 48 -88 44 -133c0 0 -58 -53 -202 -53c-168 0 -244 107 -204 296c40 187 146 260 300 260c135 0 218 -81 188 -217c-15 -70 -36 -118 -36 -118zM320 350c8 35 -1 58 -22 58c-23 0 -46 -20 -65 -87h80
c3 9 5 19 7 29z" />
    <glyph glyph-name="eacute" unicode="&#xe9;" horiz-adv-x="510" 
d="M505 729l-192 -157c-44 7 -85 24 -103 55l137 167c67 7 140 -21 158 -65zM466 211h-251c-4 -50 20 -59 66 -59c52 0 95 24 95 24c23 -28 48 -88 44 -133c0 0 -58 -53 -202 -53c-168 0 -244 107 -204 296c40 187 146 260 300 260c135 0 218 -81 188 -217
c-15 -70 -36 -118 -36 -118zM320 350c8 35 -1 58 -22 58c-23 0 -46 -20 -65 -87h80c3 9 5 19 7 29z" />
    <glyph glyph-name="ebreve" unicode="&#x115;" horiz-adv-x="511" 
d="M522 668c0 0 -70 -87 -206 -87s-170 87 -170 87c22 35 59 70 102 88c0 0 32 -28 99 -28s111 28 111 28c35 -18 60 -53 64 -88zM466 211h-251c-4 -50 20 -59 66 -59c52 0 95 24 95 24c23 -28 48 -88 44 -133c0 0 -58 -53 -202 -53c-168 0 -244 107 -204 296
c40 187 146 260 300 260c135 0 218 -81 188 -217c-15 -70 -36 -118 -36 -118zM320 350c8 35 -1 58 -22 58c-23 0 -46 -20 -65 -87h80c3 9 5 19 7 29z" />
    <glyph glyph-name="ecaron" unicode="&#x11b;" horiz-adv-x="510" 
d="M301 571l-147 148c26 37 62 70 101 87l102 -70l128 69c34 -17 56 -49 65 -86l-197 -148h-52zM466 211h-251c-4 -50 20 -59 66 -59c52 0 95 24 95 24c23 -28 48 -88 44 -133c0 0 -58 -53 -202 -53c-168 0 -244 107 -204 296c40 187 146 260 300 260
c135 0 218 -81 188 -217c-15 -70 -36 -118 -36 -118zM320 350c8 35 -1 58 -22 58c-23 0 -46 -20 -65 -87h80c3 9 5 19 7 29z" />
    <glyph glyph-name="ecircumflex" unicode="&#xea;" horiz-adv-x="511" 
d="M391 798l149 -147c-26 -38 -64 -72 -104 -89l-103 72l-133 -71c-35 17 -57 50 -66 88l203 147h54zM466 211h-251c-4 -50 20 -59 66 -59c52 0 95 24 95 24c23 -28 48 -88 44 -133c0 0 -58 -53 -202 -53c-168 0 -244 107 -204 296c40 187 146 260 300 260
c135 0 218 -81 188 -217c-15 -70 -36 -118 -36 -118zM320 350c8 35 -1 58 -22 58c-23 0 -46 -20 -65 -87h80c3 9 5 19 7 29z" />
    <glyph glyph-name="edieresis" unicode="&#xeb;" horiz-adv-x="510" 
d="M332 737l-32 -148s-33 -7 -89 -7s-87 7 -87 7l32 148s32 7 89 7c56 0 87 -7 87 -7zM557 737l-32 -148s-33 -7 -89 -7s-87 7 -87 7l32 148s32 7 89 7c56 0 87 -7 87 -7zM466 211h-251c-4 -50 20 -59 66 -59c52 0 95 24 95 24c23 -28 48 -88 44 -133c0 0 -58 -53 -202 -53
c-168 0 -244 107 -204 296c40 187 146 260 300 260c135 0 218 -81 188 -217c-15 -70 -36 -118 -36 -118zM320 350c8 35 -1 58 -22 58c-23 0 -46 -20 -65 -87h80c3 9 5 19 7 29z" />
    <glyph glyph-name="edotaccent" unicode="&#x117;" horiz-adv-x="510" 
d="M461 765l-37 -174s-36 -8 -95 -8s-91 8 -91 8l37 174s34 7 94 7c59 0 92 -7 92 -7zM466 211h-251c-4 -50 20 -59 66 -59c52 0 95 24 95 24c23 -28 48 -88 44 -133c0 0 -58 -53 -202 -53c-168 0 -244 107 -204 296c40 187 146 260 300 260c135 0 218 -81 188 -217
c-15 -70 -36 -118 -36 -118zM320 350c8 35 -1 58 -22 58c-23 0 -46 -20 -65 -87h80c3 9 5 19 7 29z" />
    <glyph glyph-name="egrave" unicode="&#xe8;" horiz-adv-x="511" 
d="M318 572l-126 157c36 44 121 72 186 65l65 -167c-30 -31 -79 -48 -125 -55zM466 211h-251c-4 -50 20 -59 66 -59c52 0 95 24 95 24c23 -28 48 -88 44 -133c0 0 -58 -53 -202 -53c-168 0 -244 107 -204 296c40 187 146 260 300 260c135 0 218 -81 188 -217
c-15 -70 -36 -118 -36 -118zM320 350c8 35 -1 58 -22 58c-23 0 -46 -20 -65 -87h80c3 9 5 19 7 29z" />
    <glyph glyph-name="eight" unicode="8" horiz-adv-x="586" 
d="M220 -20c-163 0 -251 67 -225 188c18 85 83 139 147 173c-43 39 -72 91 -55 171c23 111 131 188 289 188c151 0 228 -67 204 -177c-15 -71 -62 -119 -112 -152c51 -40 89 -97 69 -193c-26 -120 -142 -198 -317 -198zM347 560c-30 0 -51 -19 -56 -44c-7 -30 15 -50 49 -70
c21 15 41 36 48 65c6 32 -9 49 -41 49zM255 127c44 0 68 24 74 53c7 33 -22 57 -62 81c-29 -18 -62 -45 -70 -80c-6 -31 9 -54 58 -54z" />
    <glyph glyph-name="eight.denom" horiz-adv-x="333" 
d="M14 253c13 62 65 95 162 95c92 0 131 -31 119 -89c-7 -34 -32 -64 -65 -77c35 -16 52 -44 44 -85c-14 -64 -70 -102 -174 -102c-99 0 -143 32 -129 97c7 37 36 67 77 81c-31 14 -42 43 -34 80zM177 249c2 10 -1 19 -18 19c-14 0 -21 -8 -22 -16c-3 -12 5 -22 23 -29
c9 7 15 18 17 26zM151 98c3 15 -5 24 -35 35c0 0 -19 -14 -22 -31c-3 -12 2 -24 26 -24c18 0 29 10 31 20z" />
    <glyph glyph-name="eight.num" horiz-adv-x="333" 
d="M87 599c13 62 65 95 162 95c92 0 132 -31 120 -89c-8 -34 -32 -64 -66 -77c36 -16 53 -44 44 -85c-13 -64 -70 -102 -174 -102c-99 0 -143 32 -129 97c8 37 36 67 77 81c-31 14 -42 43 -34 80zM250 595c3 10 -1 19 -18 19c-14 0 -20 -8 -22 -16c-2 -12 5 -22 24 -29
c8 7 15 18 16 26zM224 444c4 15 -5 24 -34 35c0 0 -19 -14 -23 -31c-2 -12 2 -24 26 -24c18 0 29 10 31 20z" />
    <glyph glyph-name="eightinferior" unicode="&#x2088;" horiz-adv-x="333" 
d="M-7 157c14 62 66 95 163 95c92 0 131 -31 119 -89c-8 -34 -32 -64 -66 -77c36 -16 53 -44 44 -85c-13 -64 -70 -102 -174 -102c-99 0 -143 32 -129 97c8 37 36 67 77 81c-31 14 -42 43 -34 80zM156 153c3 10 0 19 -17 19c-14 0 -21 -8 -23 -16c-2 -12 5 -22 24 -29
c8 7 15 18 16 26zM130 2c4 15 -5 24 -34 35c0 0 -19 -14 -23 -31c-2 -12 2 -24 26 -24c18 0 29 10 31 20z" />
    <glyph glyph-name="ellipsis" unicode="&#x2026;" horiz-adv-x="748" 
d="M220 202l-41 -194s-39 -8 -105 -8s-101 8 -101 8l41 194s38 8 105 8c66 0 101 -8 101 -8zM456 202l-41 -194s-39 -8 -105 -8s-101 8 -101 8l41 194s38 8 105 8c66 0 101 -8 101 -8zM692 202l-41 -194s-39 -8 -105 -8s-101 8 -101 8l41 194s38 8 105 8c66 0 101 -8 101 -8
z" />
    <glyph glyph-name="emacron" unicode="&#x113;" horiz-adv-x="511" 
d="M465 591h-296c0 33 11 86 24 115h296c2 -30 -11 -84 -24 -115zM466 211h-251c-4 -50 20 -59 66 -59c52 0 95 24 95 24c23 -28 48 -88 44 -133c0 0 -58 -53 -202 -53c-168 0 -244 107 -204 296c40 187 146 260 300 260c135 0 218 -81 188 -217c-15 -70 -36 -118 -36 -118z
M320 350c8 35 -1 58 -22 58c-23 0 -46 -20 -65 -87h80c3 9 5 19 7 29z" />
    <glyph glyph-name="emdash" unicode="&#x2014;" horiz-adv-x="780" 
d="M717 219h-690s-2 26 8 71c9 45 22 71 22 71h690s2 -26 -7 -71c-10 -45 -23 -71 -23 -71z" />
    <glyph glyph-name="endash" unicode="&#x2013;" horiz-adv-x="530" 
d="M467 219h-440s-2 26 8 71c9 45 22 71 22 71h440s2 -26 -7 -71c-10 -45 -23 -71 -23 -71z" />
    <glyph glyph-name="eng" unicode="&#x14b;" 
d="M280 489c50 37 90 57 139 57c101 0 133 -67 109 -177l-86 -407c-26 -122 -100 -183 -221 -215c-38 25 -44 68 -36 116c31 14 37 34 51 99l83 392c6 25 -2 38 -26 38c-10 0 -23 -4 -36 -12l-79 -372s-39 -8 -105 -8s-101 8 -101 8l110 520s38 8 105 8c66 0 93 -8 93 -8
v-39z" />
    <glyph glyph-name="eogonek" unicode="&#x119;" horiz-adv-x="511" 
d="M15 286c42 183 139 260 299 260c134 0 220 -73 190 -217c-15 -70 -36 -118 -36 -118h-253c1 -45 24 -59 66 -59c52 0 95 24 95 24c25 -23 45 -83 36 -133c0 0 -28 -21 -81 -36c-58 -21 -96 -49 -105 -91c-5 -26 12 -31 32 -31c17 0 30 7 30 7c16 -13 20 -46 14 -70
c0 0 -46 -27 -117 -27c-64 0 -109 30 -95 99c9 40 35 74 77 98c-138 13 -193 115 -152 294zM316 350c8 35 3 58 -18 58c-23 0 -45 -20 -64 -87h75c3 9 5 19 7 29z" />
    <glyph glyph-name="equal" unicode="=" horiz-adv-x="509" 
d="M463 321h-410c-1 42 13 106 31 143h410c3 -38 -13 -104 -31 -143zM419 115h-410c-1 42 13 106 31 143h410c3 -38 -12 -104 -31 -143z" />
    <glyph glyph-name="estimated" unicode="&#x212e;" horiz-adv-x="756" 
d="M525 95h67c-78 -68 -174 -105 -276 -105c-194 0 -319 158 -277 352c41 194 232 352 426 352s319 -158 278 -352l-5 -24h-544l-47 -218c47 -41 109 -67 178 -67c68 0 138 24 200 62zM634 583c-45 41 -108 68 -178 68c-69 0 -142 -27 -206 -67l-47 -222h384z" />
    <glyph glyph-name="eth" unicode="&#xf0;" horiz-adv-x="563" 
d="M551 653l-64 -30c62 -74 84 -180 55 -316c-52 -246 -165 -317 -314 -317c-141 0 -265 70 -224 262c38 181 154 241 278 241c25 0 73 -7 100 -27c-6 25 -25 57 -48 85l-97 -45c-27 23 -47 52 -55 92l54 25c-20 8 -43 13 -66 16c3 44 20 86 49 111c68 -8 127 -26 176 -53
l113 53c28 -23 45 -59 43 -97zM239 136c34 0 54 17 76 116c21 102 7 116 -27 116s-53 -17 -74 -116c-22 -99 -9 -116 25 -116z" />
    <glyph glyph-name="exclam" unicode="!" horiz-adv-x="321" 
d="M55 238l79 474s40 8 114 8c71 0 110 -8 110 -8l-121 -474s-34 -9 -92 -9c-57 0 -90 9 -90 9zM242 202l-41 -194s-39 -8 -105 -8s-101 8 -101 8l41 194s38 8 105 8c66 0 101 -8 101 -8z" />
    <glyph glyph-name="exclamdown" unicode="&#xa1;" horiz-adv-x="309" 
d="M95 510c0 0 39 8 105 8s101 -8 101 -8l-41 -194s-38 -8 -105 -8c-66 0 -101 8 -101 8zM59 280c0 0 34 7 92 7c57 0 90 -7 90 -7l-79 -474s-40 -8 -114 -8c-71 0 -110 8 -110 8z" />
    <glyph glyph-name="f" unicode="f" horiz-adv-x="375" 
d="M136 586c22 107 89 164 239 164c99 0 149 -34 149 -34c-16 -55 -53 -102 -86 -132c0 0 -15 13 -59 13c-21 0 -37 -10 -43 -38l-7 -33h82c1 -21 0 -43 -6 -69c-5 -25 -15 -54 -25 -74h-82l-79 -375s-38 -8 -105 -8c-64 0 -101 8 -101 8l79 375h-64c0 21 3 49 8 74
s13 48 23 69h64z" />
    <glyph glyph-name="five" unicode="5" horiz-adv-x="535" 
d="M310 530l-20 -90c32 0 61 -4 86 -10c101 -25 146 -96 121 -213c-31 -147 -153 -227 -340 -227c-123 0 -202 36 -202 36c11 54 30 96 71 139c0 0 80 -17 155 -17c74 0 97 28 106 69c8 39 -2 72 -76 72c-51 0 -102 -2 -154 -5l87 406h415c3 -46 -11 -113 -34 -160h-215z
" />
    <glyph glyph-name="five.denom" horiz-adv-x="315" 
d="M147 250l-4 -18c97 0 131 -43 116 -115c-17 -80 -74 -122 -186 -122c-75 0 -123 22 -123 22c5 31 23 67 47 88c0 0 40 -10 82 -10c30 0 39 8 42 23c3 16 -3 24 -32 24h-86l43 201h242c3 -24 -8 -71 -20 -93h-121z" />
    <glyph glyph-name="five.num" horiz-adv-x="315" 
d="M221 596l-4 -18c97 0 131 -43 115 -115c-17 -80 -74 -122 -186 -122c-75 0 -123 22 -123 22c6 31 23 67 48 88c0 0 40 -10 82 -10c30 0 38 8 42 23c3 16 -3 24 -32 24h-86l42 201h242c3 -24 -8 -71 -19 -93h-121z" />
    <glyph glyph-name="fiveeighths" unicode="&#x215d;" horiz-adv-x="789" 
d="M590 695c0 0 26 7 78 7s76 -7 76 -7l-535 -698s-30 -7 -78 -7c-46 0 -75 7 -75 7zM130 689h242c3 -24 -8 -71 -19 -93h-121l-4 -18c97 0 131 -43 115 -115c-17 -80 -74 -122 -186 -122c-75 0 -123 22 -123 22c6 31 23 67 48 88c0 0 40 -10 82 -10c30 0 38 8 42 23
c3 16 -3 24 -32 24h-86zM464 253c13 62 65 95 162 95c92 0 131 -31 119 -89c-7 -34 -32 -64 -65 -77c35 -16 52 -44 44 -85c-14 -64 -70 -102 -174 -102c-99 0 -143 32 -129 97c7 37 36 67 77 81c-31 14 -42 43 -34 80zM627 249c2 10 -1 19 -18 19c-14 0 -21 -8 -22 -16
c-3 -12 5 -22 23 -29c9 7 15 18 17 26zM601 98c3 15 -5 24 -35 35c0 0 -19 -14 -22 -31c-3 -12 2 -24 26 -24c18 0 29 10 31 20z" />
    <glyph glyph-name="fiveinferior" unicode="&#x2085;" horiz-adv-x="315" 
d="M127 154l-4 -18c97 0 131 -43 115 -115c-17 -80 -74 -122 -186 -122c-75 0 -123 22 -123 22c6 31 23 67 48 88c0 0 40 -10 82 -10c30 0 38 8 42 23c3 16 -3 24 -32 24h-86l42 201h242c3 -24 -8 -71 -19 -93h-121z" />
    <glyph glyph-name="florin" unicode="&#x192;" horiz-adv-x="603" 
d="M413 342l-102 -326c-28 -92 -101 -156 -234 -156c-100 0 -156 33 -156 33c11 43 39 91 68 122c0 0 29 -11 64 -11c38 0 58 17 71 57l88 281h-68s-2 25 7 68s22 68 22 68h81l18 57c28 92 98 156 231 156c102 0 159 -33 159 -33c-12 -45 -37 -89 -70 -120c0 0 -29 9 -68 9
c-33 0 -52 -17 -65 -57l-3 -12h78s2 -25 -7 -68s-22 -68 -22 -68h-92z" />
    <glyph glyph-name="four" unicode="4" horiz-adv-x="603" 
d="M14 295l361 386s43 9 108 9s102 -9 102 -9l-82 -386h72s3 -28 -8 -80s-26 -80 -26 -80h-72l-27 -126s-38 -9 -99 -9c-63 0 -96 9 -96 9l27 126h-294s-4 28 7 80s27 80 27 80zM337 434l-129 -139h100z" />
    <glyph glyph-name="four.denom" horiz-adv-x="341" 
d="M252 148h37c1 -14 0 -27 -4 -43c-3 -16 -8 -29 -14 -43h-37l-12 -57c-25 -4 -51 -5 -62 -5s-38 1 -60 5l12 57h-154c0 14 1 28 4 43c3 14 7 25 12 37l198 195c18 4 40 6 62 6c21 0 42 -2 59 -6zM142 204l-54 -56h42z" />
    <glyph glyph-name="four.num" horiz-adv-x="340" 
d="M325 494h37c1 -14 -1 -27 -4 -43c-4 -16 -8 -29 -14 -43h-37l-12 -57c-25 -4 -51 -5 -62 -5s-38 1 -60 5l12 57h-154c0 14 1 28 4 43c3 14 6 25 12 37l197 195c19 4 40 6 62 6c21 0 43 -2 59 -6zM215 550l-54 -56h42z" />
    <glyph glyph-name="fourinferior" unicode="&#x2084;" horiz-adv-x="341" 
d="M232 52h37c1 -14 -1 -27 -4 -43c-4 -16 -8 -29 -14 -43h-37l-12 -57c-25 -4 -51 -5 -62 -5s-38 1 -60 5l12 57h-154c0 14 1 28 4 43c3 14 6 25 12 37l197 195c19 4 40 6 62 6c21 0 43 -2 59 -6zM122 108l-54 -56h42z" />
    <glyph glyph-name="fraction" unicode="&#x2044;" horiz-adv-x="160" 
d="M-258 -3l534 698s26 7 78 7s76 -7 76 -7l-535 -698s-30 -7 -78 -7c-46 0 -75 7 -75 7z" />
    <glyph glyph-name="g" unicode="g" horiz-adv-x="570" 
d="M269 26l3 13c-34 -32 -76 -49 -122 -49c-112 0 -176 94 -133 298s131 258 243 258c50 0 91 -22 109 -57l15 39s36 8 98 8s100 -8 100 -8l-107 -502c-46 -216 -166 -276 -326 -276c-112 0 -194 41 -194 41c12 51 30 94 70 134c0 0 54 -25 108 -25c52 0 111 6 136 126z
M231 263c-22 -101 -9 -119 24 -119c26 0 46 29 51 56l29 135c6 35 -1 57 -28 57c-33 0 -53 -18 -76 -129z" />
    <glyph glyph-name="g.alt" horiz-adv-x="559" 
d="M100 191c-64 31 -87 89 -70 166c24 116 122 189 278 189c58 0 103 -10 135 -28l153 28c12 -35 -5 -106 -30 -143l-56 11c1 -18 0 -37 -4 -57c-25 -116 -120 -189 -278 -189h-17c-7 -8 -13 -18 -12 -30c5 -58 320 23 274 -192c-25 -122 -149 -202 -342 -202
c-168 0 -246 46 -225 142c14 67 69 104 110 123c-10 17 -13 39 -7 68c12 53 51 90 91 114zM284 431c-25 0 -40 -19 -52 -74s-5 -74 20 -74s40 19 52 74s4 74 -20 74zM158 -126c73 0 107 19 113 45c7 36 -85 26 -163 40c-6 -10 -12 -21 -15 -33c-7 -34 10 -52 65 -52z" />
    <glyph glyph-name="gbreve" unicode="&#x11f;" horiz-adv-x="570" 
d="M559 666c0 0 -60 -87 -196 -87s-180 87 -180 87c22 35 59 70 102 88c0 0 32 -28 99 -28s111 28 111 28c35 -18 60 -53 64 -88zM269 26l3 13c-34 -32 -76 -49 -122 -49c-112 0 -176 94 -133 298s131 258 243 258c50 0 91 -22 109 -57l15 39s36 8 98 8s100 -8 100 -8
l-107 -502c-46 -216 -166 -276 -326 -276c-112 0 -194 41 -194 41c12 51 30 94 70 134c0 0 54 -25 108 -25c52 0 111 6 136 126zM231 263c-22 -101 -9 -119 24 -119c26 0 46 29 51 56l29 135c6 35 -1 57 -28 57c-33 0 -53 -18 -76 -129z" />
    <glyph glyph-name="gbreve.alt" horiz-adv-x="559" 
d="M523 669c0 0 -70 -87 -206 -87s-170 87 -170 87c22 35 59 70 102 88c0 0 32 -28 99 -28s111 28 111 28c35 -18 60 -53 64 -88zM100 191c-64 31 -87 89 -70 166c24 116 122 189 278 189c58 0 103 -10 135 -28l153 28c12 -35 -5 -106 -30 -143l-56 11c1 -18 0 -37 -4 -57
c-25 -116 -120 -189 -278 -189h-17c-7 -8 -13 -18 -12 -30c5 -58 320 23 274 -192c-25 -122 -149 -202 -342 -202c-168 0 -246 46 -225 142c14 67 69 104 110 123c-10 17 -13 39 -7 68c12 53 51 90 91 114zM284 431c-25 0 -40 -19 -52 -74s-5 -74 20 -74s40 19 52 74
s4 74 -20 74zM158 -126c73 0 107 19 113 45c7 36 -85 26 -163 40c-6 -10 -12 -21 -15 -33c-7 -34 10 -52 65 -52z" />
    <glyph glyph-name="gcircumflex" unicode="&#x11d;" horiz-adv-x="570" 
d="M423 799l154 -139c-26 -38 -63 -72 -104 -89l-102 72l-133 -71c-35 17 -58 50 -67 88l198 139h54zM269 26l3 13c-34 -32 -76 -49 -122 -49c-112 0 -176 94 -133 298s131 258 243 258c50 0 91 -22 109 -57l15 39s36 8 98 8s100 -8 100 -8l-107 -502
c-46 -216 -166 -276 -326 -276c-112 0 -194 41 -194 41c12 51 30 94 70 134c0 0 54 -25 108 -25c52 0 111 6 136 126zM231 263c-22 -101 -9 -119 24 -119c26 0 46 29 51 56l29 135c6 35 -1 57 -28 57c-33 0 -53 -18 -76 -129z" />
    <glyph glyph-name="gcircumflex.alt" horiz-adv-x="559" 
d="M410 813l144 -155c-26 -38 -63 -72 -104 -89l-103 72l-133 -71c-34 17 -57 50 -66 88l208 155h54zM100 191c-64 31 -87 89 -70 166c24 116 122 189 278 189c58 0 103 -10 135 -28l153 28c12 -35 -5 -106 -30 -143l-56 11c1 -18 0 -37 -4 -57
c-25 -116 -120 -189 -278 -189h-17c-7 -8 -13 -18 -12 -30c5 -58 320 23 274 -192c-25 -122 -149 -202 -342 -202c-168 0 -246 46 -225 142c14 67 69 104 110 123c-10 17 -13 39 -7 68c12 53 51 90 91 114zM284 431c-25 0 -40 -19 -52 -74s-5 -74 20 -74s40 19 52 74
s4 74 -20 74zM158 -126c73 0 107 19 113 45c7 36 -85 26 -163 40c-6 -10 -12 -21 -15 -33c-7 -34 10 -52 65 -52z" />
    <glyph glyph-name="gcommaaccent" unicode="&#x123;" horiz-adv-x="569" 
d="M423 917l67 -45s-44 -41 -62 -103c36 -2 69 -7 69 -7l-37 -173s-41 -7 -106 -7c-63 0 -105 7 -105 7l29 138c25 117 145 190 145 190zM268 26l3 13c-34 -32 -76 -49 -122 -49c-112 0 -176 94 -133 298s131 258 243 258c50 0 91 -22 109 -57l15 39s36 8 98 8
s100 -8 100 -8l-107 -502c-46 -216 -166 -276 -326 -276c-112 0 -194 41 -194 41c12 51 30 94 70 134c0 0 54 -25 108 -25c52 0 111 6 136 126zM230 263c-22 -101 -9 -119 24 -119c26 0 46 29 51 56l29 135c6 35 -1 57 -28 57c-33 0 -53 -18 -76 -129z" />
    <glyph glyph-name="gcommaaccent.alt" horiz-adv-x="559" 
d="M387 917l67 -45s-44 -41 -62 -103c36 -2 69 -7 69 -7l-37 -173s-41 -7 -106 -7c-63 0 -105 7 -105 7l29 138c25 117 145 190 145 190zM100 191c-64 31 -87 89 -70 166c24 116 122 189 278 189c58 0 103 -10 135 -28l153 28c12 -35 -5 -106 -30 -143l-56 11
c1 -18 0 -37 -4 -57c-25 -116 -120 -189 -278 -189h-17c-7 -8 -13 -18 -12 -30c5 -58 320 23 274 -192c-25 -122 -149 -202 -342 -202c-168 0 -246 46 -225 142c14 67 69 104 110 123c-10 17 -13 39 -7 68c12 53 51 90 91 114zM284 431c-25 0 -41 -19 -53 -74s-4 -74 21 -74
s40 19 52 74s4 74 -20 74zM158 -126c73 0 107 19 113 45c7 36 -85 26 -163 40c-6 -10 -12 -21 -15 -33c-7 -34 10 -52 65 -52z" />
    <glyph glyph-name="gdotaccent" unicode="&#x121;" horiz-adv-x="570" 
d="M482 765l-37 -174s-36 -8 -95 -8s-91 8 -91 8l37 174s34 7 94 7c59 0 92 -7 92 -7zM269 26l3 13c-34 -32 -76 -49 -122 -49c-112 0 -176 94 -133 298s131 258 243 258c50 0 91 -22 109 -57l15 39s36 8 98 8s100 -8 100 -8l-107 -502c-46 -216 -166 -276 -326 -276
c-112 0 -194 41 -194 41c12 51 30 94 70 134c0 0 54 -25 108 -25c52 0 111 6 136 126zM231 263c-22 -101 -9 -119 24 -119c26 0 46 29 51 56l29 135c6 35 -1 57 -28 57c-33 0 -53 -18 -76 -129z" />
    <glyph glyph-name="gdotaccent.alt" horiz-adv-x="559" 
d="M447 765l-37 -174s-36 -8 -95 -8s-91 8 -91 8l37 174s34 7 94 7c59 0 92 -7 92 -7zM100 191c-64 31 -87 89 -70 166c24 116 122 189 278 189c58 0 103 -10 135 -28l153 28c12 -35 -5 -106 -30 -143l-56 11c1 -18 0 -37 -4 -57c-25 -116 -120 -189 -278 -189h-17
c-7 -8 -13 -18 -12 -30c5 -58 320 23 274 -192c-25 -122 -149 -202 -342 -202c-168 0 -246 46 -225 142c14 67 69 104 110 123c-10 17 -13 39 -7 68c12 53 51 90 91 114zM284 431c-25 0 -40 -19 -52 -74s-5 -74 20 -74s40 19 52 74s4 74 -20 74zM158 -126
c73 0 107 19 113 45c7 36 -85 26 -163 40c-6 -10 -12 -21 -15 -33c-7 -34 10 -52 65 -52z" />
    <glyph glyph-name="germandbls" unicode="&#xdf;" horiz-adv-x="602" 
d="M-28 8l114 538c28 133 135 204 303 204c150 0 218 -75 197 -201c-5 -27 -13 -56 -27 -88c-58 -5 -90 -25 -97 -56c-16 -77 134 -116 102 -264c-22 -107 -112 -151 -233 -151c-89 0 -142 20 -142 20c9 55 28 98 68 136c22 -6 43 -10 61 -10c27 0 46 9 50 27
c10 47 -122 97 -93 235c20 93 102 123 102 123c7 13 12 25 13 36c5 28 -9 44 -38 44c-40 0 -62 -19 -74 -75l-110 -518s-44 -8 -105 -8c-64 0 -91 8 -91 8z" />
    <glyph glyph-name="grave" unicode="`" horiz-adv-x="238" 
d="M119 615l-126 157c36 44 121 72 186 65l65 -167c-30 -31 -79 -48 -125 -55z" />
    <glyph glyph-name="greater" unicode="&#x3e;" horiz-adv-x="415" 
d="M366 213l-370 -143s-2 25 8 72c10 48 22 71 22 71l199 76l-166 77s-2 25 8 72c10 48 22 71 22 71l310 -143s1 -27 -9 -75c-10 -47 -24 -78 -24 -78z" />
    <glyph glyph-name="greaterequal" unicode="&#x2265;" horiz-adv-x="420" 
d="M385 304l-366 -118s-1 25 9 72c10 48 22 71 22 71l168 51l-146 52s-2 25 8 72c10 48 22 71 22 71l315 -118s1 -27 -9 -75c-10 -47 -23 -78 -23 -78zM327 42h-340s-4 21 6 66c9 45 22 66 22 66h340s2 -21 -7 -66c-10 -45 -21 -66 -21 -66z" />
    <glyph glyph-name="guillemotleft" unicode="&#xab;" horiz-adv-x="577" 
d="M45 342l258 182c23 -31 31 -80 24 -128l-148 -127l94 -126c-16 -53 -38 -91 -78 -128l-182 179s-6 26 4 73c10 48 28 75 28 75zM299 338l248 174c19 -28 27 -72 20 -119l-138 -124l86 -123c-16 -51 -36 -85 -71 -119l-175 172s-5 26 4 68c9 44 26 71 26 71z" />
    <glyph glyph-name="guillemotright" unicode="&#xbb;" horiz-adv-x="577" 
d="M366 524l182 -182s6 -27 -4 -75c-10 -47 -28 -73 -28 -73l-258 -179c-24 37 -30 75 -24 128l148 126l-94 127c13 48 43 97 78 128zM118 512l174 -174s5 -27 -4 -71c-9 -42 -26 -68 -26 -68l-247 -172c-21 34 -27 68 -21 119l138 123l-86 124c13 47 41 91 72 119z" />
    <glyph glyph-name="guilsinglleft" unicode="&#x2039;" horiz-adv-x="350" 
d="M40 342l279 182c23 -31 31 -80 24 -128l-148 -127l94 -126c-16 -53 -38 -91 -78 -128l-203 179s-3 25 6 72c11 48 26 76 26 76z" />
    <glyph glyph-name="guilsinglright" unicode="&#x203a;" horiz-adv-x="349" 
d="M125 524l203 -182s3 -28 -8 -76c-9 -47 -24 -72 -24 -72l-279 -179c-24 37 -30 75 -24 128l148 126l-94 127c13 48 43 97 78 128z" />
    <glyph glyph-name="h" unicode="h" 
d="M527 365l-75 -357s-36 -8 -105 -8c-68 0 -101 8 -101 8l73 346c6 25 -2 38 -26 38c-10 0 -21 -3 -36 -11l-79 -373s-39 -8 -105 -8s-101 8 -101 8l156 734s37 8 104 8c66 0 102 -8 102 -8l-52 -243c42 31 80 47 129 47c124 0 134 -94 116 -181z" />
    <glyph glyph-name="hbar" unicode="&#x127;" 
d="M282 499c42 31 84 47 133 47c101 0 134 -78 112 -185l-75 -353s-36 -8 -105 -8c-68 0 -101 8 -101 8l73 346c6 25 -2 38 -26 38c-10 0 -23 -4 -36 -11l-79 -373s-39 -8 -105 -8s-101 8 -101 8l123 578h-57c-3 33 7 79 23 112h57l10 44s37 8 104 8c66 0 102 -8 102 -8
l-10 -44h107c2 -36 -8 -80 -23 -112h-107z" />
    <glyph glyph-name="hcircumflex" unicode="&#x125;" 
d="M312 1008l142 -153c-25 -37 -62 -71 -103 -88l-101 71l-130 -70c-33 17 -56 50 -65 87l204 153h53zM527 365l-75 -357s-36 -8 -105 -8c-68 0 -101 8 -101 8l73 346c6 25 -2 38 -26 38c-10 0 -21 -3 -36 -11l-79 -373s-39 -8 -105 -8s-101 8 -101 8l156 734s37 8 104 8
c66 0 102 -8 102 -8l-52 -243c42 31 80 47 129 47c124 0 134 -94 116 -181z" />
    <glyph glyph-name="hungarumlaut" unicode="&#x2dd;" horiz-adv-x="386" 
d="M233 757l-193 -157c-43 7 -84 24 -102 55l137 167c67 7 140 -21 158 -65zM459 757l-193 -157c-43 7 -84 24 -102 55l137 167c67 7 140 -21 158 -65z" />
    <glyph glyph-name="hyphen" unicode="-" horiz-adv-x="330" 
d="M267 219h-240s-2 26 8 71c9 45 22 71 22 71h240s2 -26 -7 -71c-10 -45 -23 -71 -23 -71z" />
    <glyph glyph-name="i" unicode="i" horiz-adv-x="276" 
d="M339 767l-37 -174s-39 -8 -105 -8s-101 8 -101 8l37 174s38 8 105 8c66 0 101 -8 101 -8zM288 528l-110 -520s-39 -8 -105 -8s-101 8 -101 8l110 520s38 8 105 8c66 0 101 -8 101 -8z" />
    <glyph glyph-name="iacute" unicode="&#xed;" horiz-adv-x="276" 
d="M382 739l-192 -157c-44 7 -85 24 -103 55l137 167c67 7 140 -21 158 -65zM288 528l-110 -520s-39 -8 -105 -8s-101 8 -101 8l110 520s38 8 105 8c66 0 101 -8 101 -8z" />
    <glyph glyph-name="ibreve" unicode="&#x12d;" horiz-adv-x="276" 
d="M402 669c0 0 -70 -87 -206 -87s-170 87 -170 87c22 35 59 70 102 88c0 0 32 -28 99 -28s111 28 111 28c35 -18 60 -53 64 -88zM288 528l-110 -520s-39 -8 -105 -8s-101 8 -101 8l110 520s38 8 105 8c66 0 101 -8 101 -8z" />
    <glyph glyph-name="icircumflex" unicode="&#xee;" horiz-adv-x="276" 
d="M275 826l144 -155c-26 -38 -64 -72 -104 -89l-103 72l-133 -71c-35 17 -57 50 -66 88l208 155h54zM288 528l-110 -520s-39 -8 -105 -8s-101 8 -101 8l110 520s38 8 105 8c66 0 101 -8 101 -8z" />
    <glyph glyph-name="idieresis" unicode="&#xef;" horiz-adv-x="276" 
d="M208 737l-32 -148s-33 -7 -89 -7s-87 7 -87 7l32 148s32 7 89 7c56 0 87 -7 87 -7zM433 737l-32 -148s-33 -7 -89 -7s-87 7 -87 7l32 148s32 7 89 7c56 0 87 -7 87 -7zM288 528l-110 -520s-39 -8 -105 -8s-101 8 -101 8l110 520s38 8 105 8c66 0 101 -8 101 -8z" />
    <glyph glyph-name="igrave" unicode="&#xec;" horiz-adv-x="276" 
d="M189 583l-126 157c37 44 122 72 186 65l66 -167c-31 -31 -80 -48 -126 -55zM288 528l-110 -520s-39 -8 -105 -8s-101 8 -101 8l110 520s38 8 105 8c66 0 101 -8 101 -8z" />
    <glyph glyph-name="ij" unicode="&#x133;" horiz-adv-x="576" 
d="M134 772c0 0 38 8 105 8c66 0 101 -8 101 -8l-37 -174s-39 -8 -105 -8s-101 8 -101 8zM432 764c0 0 38 8 105 8c66 0 101 -8 101 -8l-37 -174s-38 -8 -104 -8s-102 8 -102 8zM82 528c0 0 38 8 105 8c66 0 101 -8 101 -8l-110 -520s-39 -8 -105 -8s-101 8 -101 8zM382 528
c0 0 41 8 105 8c61 0 101 -8 101 -8l-131 -616c-22 -104 -88 -162 -218 -162c-85 0 -125 29 -125 29s0 21 5 44c14 63 44 100 44 100s18 -5 36 -5c34 0 57 14 67 65z" />
    <glyph glyph-name="imacron" unicode="&#x12b;" horiz-adv-x="276" 
d="M305 582h-213c2 34 13 88 25 117h213c-2 -30 -14 -85 -25 -117zM288 528l-110 -520s-39 -8 -105 -8s-101 8 -101 8l110 520s38 8 105 8c66 0 101 -8 101 -8z" />
    <glyph glyph-name="infinity" unicode="&#x221e;" horiz-adv-x="816" 
d="M540 122c-117 0 -152 92 -152 92s-73 -92 -190 -92c-141 0 -192 97 -170 203c23 106 115 203 256 203c117 0 151 -93 151 -93s74 93 191 93c141 0 193 -97 170 -203c-22 -106 -115 -203 -256 -203zM234 277c44 0 78 48 78 48s-14 48 -58 48c-36 0 -56 -26 -61 -48
s5 -48 41 -48zM590 373c-44 0 -78 -48 -78 -48s14 -48 58 -48c36 0 56 26 61 48s-5 48 -41 48z" />
    <glyph glyph-name="integral" unicode="&#x222b;" horiz-adv-x="549" 
d="M119 29l107 501c24 116 117 190 243 190c112 0 171 -65 171 -65c-13 -32 -60 -88 -85 -106c-16 14 -47 29 -78 29c-34 0 -68 -19 -81 -78l-106 -501c-25 -116 -108 -191 -234 -191c-107 0 -164 65 -164 65c11 30 56 86 84 105c19 -14 46 -28 72 -28c30 0 58 19 71 79z
" />
    <glyph glyph-name="iogonek" unicode="&#x12f;" horiz-adv-x="276" 
d="M135 772c0 0 38 8 105 8c66 0 101 -8 101 -8l-37 -174s-39 -8 -105 -8s-101 8 -101 8zM83 528c0 0 38 8 105 8c66 0 101 -8 101 -8l-110 -520c-65 -8 -117 -49 -125 -87c-6 -29 12 -41 34 -41c19 0 42 6 42 6c18 -15 22 -44 16 -71c0 0 -56 -38 -134 -38
c-79 0 -133 33 -116 115c9 42 31 80 75 107z" />
    <glyph glyph-name="itilde" unicode="&#x129;" horiz-adv-x="276" 
d="M276 708c34 0 54 25 54 25c27 -21 36 -67 28 -107c0 0 -41 -48 -98 -48c-58 0 -69 30 -119 30c-30 0 -53 -25 -53 -25c-27 20 -37 62 -28 107c0 0 47 49 99 49c57 0 67 -31 117 -31zM288 528l-110 -520s-39 -8 -105 -8s-101 8 -101 8l110 520s38 8 105 8
c66 0 101 -8 101 -8z" />
    <glyph glyph-name="j" unicode="j" horiz-adv-x="276" 
d="M338 763l-37 -174s-39 -8 -105 -8s-101 8 -101 8l37 174s38 8 105 8c66 0 101 -8 101 -8zM-34 -17l116 545s41 8 105 8c61 0 101 -8 101 -8l-131 -616c-22 -104 -88 -162 -218 -162c-85 0 -125 29 -125 29s0 21 5 44c14 63 44 100 44 100s18 -5 36 -5c34 0 57 14 67 65z
" />
    <glyph glyph-name="jcircumflex" unicode="&#x135;" horiz-adv-x="276" 
d="M269 803l145 -154c-26 -39 -64 -73 -105 -90l-103 72l-133 -72c-34 18 -57 51 -66 90l208 154h54zM-34 -17l116 545s41 8 105 8c61 0 101 -8 101 -8l-131 -616c-22 -104 -88 -162 -218 -162c-85 0 -125 29 -125 29s0 21 5 44c14 63 44 100 44 100s18 -5 36 -5
c34 0 57 14 67 65z" />
    <glyph glyph-name="k" unicode="k" horiz-adv-x="545" 
d="M267 351l106 177s31 8 101 8s110 -8 110 -8l-159 -248l67 -271s-40 -10 -114 -10c-65 0 -98 10 -98 10l-41 199h-19l-42 -199s-34 -9 -104 -9c-68 0 -102 9 -102 9l156 735s38 6 105 6c63 0 101 -6 101 -6l-83 -393h16z" />
    <glyph glyph-name="kcommaaccent" unicode="&#x137;" horiz-adv-x="545" 
d="M144 -410l-64 51s44 46 63 116c-35 2 -67 8 -67 8l41 195s41 8 105 8c61 0 101 -8 101 -8l-32 -155c-29 -133 -147 -215 -147 -215zM267 351l106 177s31 8 101 8s110 -8 110 -8l-159 -248l67 -271s-40 -10 -114 -10c-65 0 -98 10 -98 10l-41 199h-19l-42 -199
s-34 -9 -104 -9c-68 0 -102 9 -102 9l156 735s38 6 105 6c63 0 101 -6 101 -6l-83 -393h16z" />
    <glyph glyph-name="kgreenlandic" unicode="&#x138;" horiz-adv-x="548" 
d="M583 518l-196 -199l122 -305s-34 -14 -118 -14c-75 0 -95 10 -95 10l-61 154l-31 -31l-26 -124c-25 -6 -64 -9 -103 -9c-41 0 -81 3 -103 9l108 511c25 4 68 6 109 6c39 0 76 -2 97 -6l-27 -127l113 127c27 4 65 6 104 6c40 0 80 -2 107 -8z" />
    <glyph glyph-name="l" unicode="l" horiz-adv-x="276" 
d="M334 742l-156 -734s-39 -8 -105 -8s-101 8 -101 8l156 734s37 8 104 8c66 0 102 -8 102 -8z" />
    <glyph glyph-name="lacute" unicode="&#x13a;" horiz-adv-x="276" 
d="M422 929l-192 -157c-43 7 -85 24 -102 55l136 167c68 7 141 -21 158 -65zM334 742l-156 -734s-39 -8 -105 -8s-101 8 -101 8l156 734s37 8 104 8c66 0 102 -8 102 -8z" />
    <glyph glyph-name="lcaron" unicode="&#x13e;" horiz-adv-x="296" 
d="M411 558c-33 -4 -73 8 -89 29c53 52 73 88 83 157c58 10 118 5 147 -13c-23 -77 -79 -147 -141 -173zM334 742l-156 -734s-39 -8 -105 -8s-101 8 -101 8l156 734s37 8 104 8c66 0 102 -8 102 -8z" />
    <glyph glyph-name="lcommaaccent" unicode="&#x13c;" horiz-adv-x="276" 
d="M334 742l-156 -734s-39 -8 -105 -8s-101 8 -101 8l156 734s37 8 104 8c66 0 102 -8 102 -8zM-14 -418l-64 51s45 46 64 116c-36 2 -68 8 -68 8l42 195s40 8 104 8c61 0 102 -8 102 -8l-33 -155c-28 -133 -147 -215 -147 -215z" />
    <glyph glyph-name="ldot" unicode="&#x140;" horiz-adv-x="498" 
d="M334 742l-156 -734s-39 -8 -105 -8s-101 8 -101 8l156 734s37 8 104 8c66 0 102 -8 102 -8zM505 422l-37 -174s-35 -8 -95 -8s-91 8 -91 8l37 174s33 8 94 8c60 0 92 -8 92 -8z" />
    <glyph glyph-name="less" unicode="&#x3c;" horiz-adv-x="415" 
d="M319 70l-310 143s0 31 10 78c10 48 23 75 23 75l370 143s2 -23 -8 -71c-10 -47 -22 -72 -22 -72l-200 -77l167 -76s2 -23 -8 -71c-10 -47 -22 -72 -22 -72z" />
    <glyph glyph-name="lessequal" unicode="&#x2264;" horiz-adv-x="421" 
d="M351 186l-314 118s-1 31 9 78c10 48 23 75 23 75l365 118s2 -23 -8 -71c-10 -47 -22 -72 -22 -72l-169 -52l147 -51s2 -23 -8 -71c-10 -47 -23 -72 -23 -72zM323 42h-340s-3 21 7 66c9 45 21 66 21 66h340s3 -21 -6 -66c-10 -45 -22 -66 -22 -66z" />
    <glyph glyph-name="logicalnot" unicode="&#xac;" horiz-adv-x="598" 
d="M587 459l-66 -310s-28 -11 -81 -11s-76 11 -76 11l32 154h-363s-4 31 6 78c10 49 28 78 28 78h520z" />
    <glyph glyph-name="longs" unicode="&#x17f;" horiz-adv-x="337" 
d="M336 559l-117 -551s-38 -8 -105 -8c-64 0 -101 8 -101 8l79 375h-64c0 43 12 102 31 143h64l13 60c22 107 89 164 239 164c99 0 149 -34 149 -34c-16 -55 -53 -102 -86 -132c0 0 -15 13 -59 13c-21 0 -37 -10 -43 -38z" />
    <glyph glyph-name="lozenge" unicode="&#x25ca;" horiz-adv-x="604" 
d="M169 7l-142 345l289 344h135l146 -344l-293 -345h-135zM405 351l-61 153l-123 -153l58 -153z" />
    <glyph glyph-name="lslash" unicode="&#x142;" horiz-adv-x="399" 
d="M187 742c0 0 37 8 104 8c66 0 102 -8 102 -8l-46 -214l62 32s11 -10 25 -47c12 -37 13 -54 13 -54l-129 -66l-81 -385s-39 -8 -105 -8s-101 8 -101 8l56 267l-56 -28s-10 11 -25 47c-12 36 -12 53 -12 53l122 62z" />
    <glyph glyph-name="m" unicode="m" horiz-adv-x="817" 
d="M530 484c48 41 103 62 162 62c98 0 130 -66 106 -179l-76 -359s-44 -8 -105 -8c-64 0 -101 8 -101 8l73 344c5 23 0 40 -25 40c-12 0 -24 -5 -35 -13l-79 -371s-44 -8 -105 -8c-64 0 -101 8 -101 8l73 344c5 23 0 40 -25 40c-12 0 -24 -4 -35 -11l-79 -373
s-44 -8 -105 -8c-64 0 -101 8 -101 8l110 520s38 8 105 8c65 0 92 -8 92 -8v-41c29 22 83 59 141 59c59 0 93 -20 110 -62z" />
    <glyph glyph-name="macron" unicode="&#xaf;" horiz-adv-x="407" 
d="M347 615h-343c-1 35 11 91 26 122h343c2 -32 -11 -89 -26 -122z" />
    <glyph glyph-name="minus" unicode="&#x2212;" horiz-adv-x="437" 
d="M378 259h-340s-1 26 8 71c10 45 22 71 22 71h340s3 -26 -7 -71c-9 -45 -23 -71 -23 -71z" />
    <glyph glyph-name="mu" unicode="&#xb5;" horiz-adv-x="592" 
d="M377 528c0 0 44 8 105 8c64 0 101 -8 101 -8l-110 -520s-41 -8 -105 -8c-61 0 -101 8 -101 8l6 31c-22 -31 -56 -49 -99 -49c-8 0 -16 1 -24 2c-4 -127 29 -195 29 -195c-64 -48 -151 -53 -227 -40c0 0 0 62 36 229l115 542s44 8 105 8c64 0 101 -8 101 -8l-73 -343
c-6 -30 4 -41 25 -41c9 0 22 3 37 13z" />
    <glyph glyph-name="multiply" unicode="&#xd7;" horiz-adv-x="464" 
d="M207 188l-130 -107s-21 13 -46 45c-24 32 -34 55 -34 55l130 107l-84 108s19 24 57 56c39 31 66 45 66 45l84 -108l131 108s21 -13 46 -45s32 -56 32 -56l-131 -108l85 -107s-17 -24 -55 -56c-39 -32 -66 -44 -66 -44z" />
    <glyph glyph-name="n" unicode="n" 
d="M528 369l-76 -361s-36 -8 -105 -8c-68 0 -101 8 -101 8l73 346c6 25 -2 38 -26 38c-10 0 -23 -4 -36 -12l-79 -372s-39 -8 -105 -8s-101 8 -101 8l110 520s38 8 105 8c66 0 93 -8 93 -8v-39c50 37 90 57 139 57c101 0 133 -67 109 -177z" />
    <glyph glyph-name="nacute" unicode="&#x144;" 
d="M508 729l-192 -157c-44 7 -85 24 -103 55l137 167c67 7 140 -21 158 -65zM528 369l-76 -361s-36 -8 -105 -8c-68 0 -101 8 -101 8l73 346c6 25 -2 38 -26 38c-10 0 -23 -4 -36 -12l-79 -372s-39 -8 -105 -8s-101 8 -101 8l110 520s38 8 105 8c66 0 93 -8 93 -8v-39
c50 37 90 57 139 57c101 0 133 -67 109 -177z" />
    <glyph glyph-name="napostrophe" unicode="&#x149;" 
d="M174 559c-32 -1 -70 16 -83 39c57 47 80 82 98 151c57 4 116 -7 142 -29c-32 -76 -94 -141 -157 -161zM528 369l-76 -361s-36 -8 -105 -8c-68 0 -101 8 -101 8l73 346c6 25 -2 38 -26 38c-10 0 -23 -4 -36 -12l-79 -372s-39 -8 -105 -8s-101 8 -101 8l110 520s38 8 105 8
c66 0 93 -8 93 -8v-39c50 37 90 57 139 57c101 0 133 -67 109 -177z" />
    <glyph glyph-name="ncaron" unicode="&#x148;" 
d="M360 720l125 68c32 -17 55 -48 62 -84l-185 -136h-50l-145 136c24 36 60 68 98 85zM528 369l-76 -361s-36 -8 -105 -8c-68 0 -101 8 -101 8l73 346c6 25 -2 38 -26 38c-10 0 -23 -4 -36 -12l-79 -372s-39 -8 -105 -8s-101 8 -101 8l110 520s38 8 105 8c66 0 93 -8 93 -8
v-39c50 37 90 57 139 57c101 0 133 -67 109 -177z" />
    <glyph glyph-name="ncommaaccent" unicode="&#x146;" 
d="M132 -408l-64 51s45 46 64 116c-36 2 -68 8 -68 8l42 195s41 8 105 8c61 0 101 -8 101 -8l-33 -155c-28 -133 -147 -215 -147 -215zM528 369l-76 -361s-36 -8 -105 -8c-68 0 -101 8 -101 8l73 346c6 25 -2 38 -26 38c-10 0 -23 -4 -36 -12l-79 -372s-39 -8 -105 -8
s-101 8 -101 8l110 520s38 8 105 8c66 0 93 -8 93 -8v-39c50 37 90 57 139 57c101 0 133 -67 109 -177z" />
    <glyph glyph-name="nine" unicode="9" horiz-adv-x="558" 
d="M41 0c-3 46 11 115 33 157c93 7 155 38 200 91c-17 -3 -33 -5 -52 -5c-125 0 -205 73 -170 235c31 150 145 222 307 222c161 0 242 -83 202 -270c-55 -260 -249 -415 -520 -430zM262 478c-15 -67 0 -87 36 -87c17 0 33 4 47 9c2 11 6 22 8 34c21 100 4 120 -25 120
s-56 -25 -66 -76z" />
    <glyph glyph-name="nine.denom" horiz-adv-x="322" 
d="M-4 231c16 75 75 117 172 117c98 0 138 -47 118 -142c-30 -139 -141 -199 -280 -209c-6 22 3 63 19 87c34 3 67 15 91 43c-8 -2 -16 -3 -27 -3c-62 0 -110 27 -93 107zM155 201c11 47 7 64 -5 64c-10 0 -19 -10 -24 -34c-5 -23 0 -33 11 -33c5 0 13 1 18 3z" />
    <glyph glyph-name="nine.num" horiz-adv-x="322" 
d="M70 577c16 75 74 117 171 117c98 0 138 -47 118 -142c-29 -139 -140 -199 -279 -209c-6 22 2 63 18 87c35 3 68 15 91 43c-8 -2 -15 -3 -26 -3c-62 0 -110 27 -93 107zM228 547c11 48 8 64 -4 64c-10 0 -19 -10 -24 -34c-5 -23 0 -33 11 -33c5 0 13 1 17 3z" />
    <glyph glyph-name="nineinferior" unicode="&#x2089;" horiz-adv-x="322" 
d="M-24 135c16 75 75 117 172 117c98 0 138 -47 117 -142c-29 -139 -140 -199 -279 -209c-6 22 2 63 18 87c35 4 68 15 92 43c-9 -2 -16 -3 -27 -3c-62 0 -110 27 -93 107zM134 105c12 49 8 64 -4 64c-10 0 -19 -10 -24 -34c-5 -23 0 -33 11 -33c5 0 13 1 17 3z" />
    <glyph glyph-name="notequal" unicode="&#x2260;" horiz-adv-x="497" 
d="M184 115l-49 -69c-20 -5 -50 -7 -78 -7c-25 0 -49 3 -64 7l49 69h-41c0 20 3 45 8 69c6 27 14 54 23 74h113l45 63h-145c0 21 3 48 9 74c5 26 13 51 22 69h217l43 60c20 5 48 7 75 7c26 0 52 -3 68 -7l-43 -60h50c1 -18 -1 -42 -7 -67c-5 -27 -14 -55 -24 -76h-123
l-45 -63h155c1 -19 -2 -44 -7 -70c-6 -27 -14 -53 -24 -73h-227z" />
    <glyph glyph-name="ntilde" unicode="&#xf1;" 
d="M145 696c0 0 47 51 111 51c71 0 95 -32 157 -32c42 0 64 26 64 26c36 -22 48 -70 41 -112c0 0 -40 -51 -111 -51s-95 32 -157 32c-37 0 -65 -26 -65 -26c-34 21 -49 65 -40 112zM528 369l-76 -361s-36 -8 -105 -8c-68 0 -101 8 -101 8l73 346c6 25 -2 38 -26 38
c-10 0 -23 -4 -36 -12l-79 -372s-39 -8 -105 -8s-101 8 -101 8l110 520s38 8 105 8c66 0 93 -8 93 -8v-39c50 37 90 57 139 57c101 0 133 -67 109 -177z" />
    <glyph glyph-name="_300" horiz-adv-x="0" 
 />
    <glyph glyph-name="numbersign" unicode="#" horiz-adv-x="710" 
d="M540 614c24 6 48 9 83 9c33 0 56 -3 75 -9l-45 -93h71c2 -23 1 -41 -5 -70c-7 -32 -16 -55 -27 -80h-114l-64 -129h67s5 -24 -5 -74c-11 -48 -26 -76 -26 -76h-109l-41 -83c-22 -6 -45 -9 -78 -9c-34 0 -59 3 -80 9l41 83h-62l-41 -83c-23 -6 -46 -9 -81 -9
c-33 0 -57 3 -77 9l41 83h-76s-4 27 6 75c11 50 25 75 25 75h118l64 129h-71c-1 25 0 45 7 75c6 31 13 51 25 75h114l45 93c23 6 45 9 78 9c35 0 60 -3 80 -9l-45 -93h62zM358 371l-64 -129h62l64 129h-62z" />
    <glyph glyph-name="o" unicode="o" horiz-adv-x="558" 
d="M13 284c43 199 150 262 308 262c159 0 250 -92 207 -293c-43 -199 -151 -263 -309 -263s-249 93 -206 294zM317 268c21 97 14 123 -20 123s-52 -26 -73 -123s-13 -124 21 -124s51 27 72 124z" />
    <glyph glyph-name="oacute" unicode="&#xf3;" horiz-adv-x="558" 
d="M219 627l137 167c67 7 140 -21 158 -65l-192 -157c-44 7 -85 24 -103 55zM13 284c43 199 150 262 308 262c159 0 250 -92 207 -293c-43 -199 -151 -263 -309 -263s-249 93 -206 294zM317 268c21 97 14 123 -20 123s-52 -26 -73 -123s-13 -124 21 -124s51 27 72 124z" />
    <glyph glyph-name="obreve" unicode="&#x14f;" horiz-adv-x="559" 
d="M369 729c67 0 111 28 111 28c35 -18 60 -53 64 -88c0 0 -62 -86 -198 -86s-178 86 -178 86c22 35 59 70 102 88c0 0 32 -28 99 -28zM14 284c43 199 150 262 308 262c159 0 250 -92 207 -293c-43 -199 -151 -263 -309 -263s-249 93 -206 294zM318 268
c21 97 14 123 -20 123s-52 -26 -73 -123s-13 -124 21 -124s51 27 72 124z" />
    <glyph glyph-name="ocircumflex" unicode="&#xf4;" horiz-adv-x="559" 
d="M396 792l152 -144c-26 -38 -63 -72 -104 -89l-102 72l-134 -71c-34 17 -57 50 -66 88l200 144h54zM14 284c43 199 150 262 308 262c159 0 250 -92 207 -293c-43 -199 -151 -263 -309 -263s-249 93 -206 294zM318 268c21 97 14 123 -20 123s-52 -26 -73 -123
s-13 -124 21 -124s51 27 72 124z" />
    <glyph glyph-name="odieresis" unicode="&#xf6;" horiz-adv-x="558" 
d="M162 735c0 0 32 7 89 7c56 0 87 -7 87 -7l-32 -148s-33 -7 -89 -7s-87 7 -87 7zM387 735c0 0 32 7 89 7c56 0 87 -7 87 -7l-32 -148s-33 -7 -89 -7s-87 7 -87 7zM13 284c43 199 150 262 308 262c159 0 250 -92 207 -293c-43 -199 -151 -263 -309 -263s-249 93 -206 294z
M317 268c21 97 14 123 -20 123s-52 -26 -73 -123s-13 -124 21 -124s51 27 72 124z" />
    <glyph glyph-name="oe" unicode="&#x153;" horiz-adv-x="804" 
d="M759 211h-250c2 -43 24 -61 66 -61c52 0 95 24 95 24c25 -23 45 -81 36 -131c-35 -26 -87 -53 -183 -53c-60 0 -114 23 -148 76c-47 -52 -109 -76 -163 -76c-158 0 -242 92 -199 293s157 263 297 263c48 0 117 -20 147 -64c45 38 113 64 168 64c130 0 200 -73 170 -217
c-15 -70 -36 -118 -36 -118zM610 350c8 35 3 58 -18 58c-23 0 -45 -20 -64 -87h75c3 9 5 19 7 29zM297 391c-34 0 -56 -26 -77 -123s-9 -124 25 -124s51 27 72 124s14 123 -20 123z" />
    <glyph glyph-name="ogonek" unicode="&#x2db;" horiz-adv-x="283" 
d="M6 -145c16 -13 21 -40 15 -64c0 0 -46 -29 -117 -29c-64 0 -108 34 -94 103c16 74 93 124 219 127l30 -17c-49 -16 -103 -43 -113 -88c-6 -26 10 -37 30 -37c17 0 30 5 30 5z" />
    <glyph glyph-name="ograve" unicode="&#xf2;" horiz-adv-x="558" 
d="M371 794l65 -167c-30 -31 -79 -48 -125 -55l-126 157c36 44 121 72 186 65zM13 284c43 199 150 262 308 262c159 0 250 -92 207 -293c-43 -199 -151 -263 -309 -263s-249 93 -206 294zM317 268c21 97 14 123 -20 123s-52 -26 -73 -123s-13 -124 21 -124s51 27 72 124z
" />
    <glyph glyph-name="ohungarumlaut" unicode="&#x151;" horiz-adv-x="559" 
d="M151 613l108 144c61 8 130 -12 149 -48l-160 -137c-41 4 -79 17 -97 41zM356 618l123 139c62 6 129 -17 147 -54l-174 -130c-40 6 -79 20 -96 45zM14 284c43 199 150 262 308 262c159 0 250 -92 207 -293c-43 -199 -151 -263 -309 -263s-249 93 -206 294zM318 268
c21 97 14 123 -20 123s-52 -26 -73 -123s-13 -124 21 -124s51 27 72 124z" />
    <glyph glyph-name="omacron" unicode="&#x14d;" horiz-adv-x="558" 
d="M232 713h276c0 -32 -12 -88 -26 -121h-276c1 35 13 90 26 121zM13 284c43 199 150 262 308 262c159 0 250 -92 207 -293c-43 -199 -151 -263 -309 -263s-249 93 -206 294zM317 268c21 97 14 123 -20 123s-52 -26 -73 -123s-13 -124 21 -124s51 27 72 124z" />
    <glyph glyph-name="one" unicode="1" horiz-adv-x="442" 
d="M52 554c85 25 141 66 192 127c0 0 47 9 110 9c62 0 105 -9 105 -9l-143 -672s-44 -9 -108 -9c-63 0 -105 9 -105 9l83 393l9 39c-37 -24 -78 -39 -117 -47c-34 31 -46 93 -26 160z" />
    <glyph glyph-name="one.denom" horiz-adv-x="274" 
d="M-6 279c49 12 87 31 118 59c13 3 43 5 71 5c24 0 47 -2 61 -5l-71 -333c-19 -3 -42 -5 -65 -5c-25 0 -51 1 -71 5l33 155c3 16 7 35 14 51c-22 -13 -53 -24 -80 -27c-13 21 -19 62 -10 95z" />
    <glyph glyph-name="one.num" horiz-adv-x="289" 
d="M68 625c48 12 86 31 117 59c14 3 43 5 71 5c24 0 48 -2 61 -5l-70 -333c-19 -3 -42 -5 -65 -5c-25 0 -51 1 -71 5l33 155c3 16 7 35 13 51c-21 -13 -53 -24 -79 -27c-14 21 -19 62 -10 95z" />
    <glyph glyph-name="oneeighth" unicode="&#x215b;" horiz-adv-x="770" 
d="M567 695c0 0 26 7 78 7s76 -7 76 -7l-535 -698s-30 -7 -78 -7c-46 0 -75 7 -75 7zM204 683c14 3 43 5 71 5c24 0 48 -2 61 -5l-71 -333c-18 -3 -42 -5 -65 -5c-25 0 -50 1 -71 5l33 155c4 16 8 35 14 51c-22 -13 -53 -24 -80 -27c-13 21 -18 62 -9 95c48 12 86 31 117 59
zM441 253c13 62 65 95 162 95c92 0 131 -31 119 -89c-7 -34 -32 -64 -65 -77c35 -16 52 -44 44 -85c-14 -64 -70 -102 -174 -102c-99 0 -143 32 -129 97c7 37 36 67 77 81c-31 14 -42 43 -34 80zM604 249c2 10 -1 19 -18 19c-14 0 -21 -8 -22 -16c-3 -12 5 -22 23 -29
c9 7 15 18 17 26zM578 98c3 15 -5 24 -35 35c0 0 -19 -14 -22 -31c-3 -12 2 -24 26 -24c18 0 29 10 31 20z" />
    <glyph glyph-name="onehalf" unicode="&#xbd;" horiz-adv-x="757" 
d="M567 695c0 0 26 7 78 7s76 -7 76 -7l-535 -698s-30 -7 -78 -7c-46 0 -75 7 -75 7zM204 683c14 3 43 5 71 5c24 0 48 -2 61 -5l-71 -333c-18 -3 -42 -5 -65 -5c-25 0 -50 1 -71 5l33 155c4 16 8 35 14 51c-22 -13 -53 -24 -80 -27c-13 21 -18 62 -9 95c48 12 86 31 117 59
zM479 331c0 0 57 17 124 17c88 0 130 -30 114 -102c-24 -115 -124 -103 -176 -143h129c1 -16 0 -34 -4 -53c-4 -17 -10 -35 -18 -50h-253s-2 25 6 61c27 129 175 118 186 168c3 14 -10 20 -33 20c-18 0 -44 -3 -73 -10c-12 21 -14 59 -2 92z" />
    <glyph glyph-name="oneinferior" unicode="&#x2081;" horiz-adv-x="274" 
d="M-26 183c48 12 86 31 117 59c14 3 43 5 71 5c24 0 48 -2 61 -5l-70 -333c-19 -3 -42 -5 -65 -5c-25 0 -51 1 -71 5l33 155c3 16 7 35 13 51c-21 -13 -53 -24 -79 -27c-14 21 -19 62 -10 95z" />
    <glyph glyph-name="onequarter" unicode="&#xbc;" horiz-adv-x="722" 
d="M33 -3l534 698s26 7 78 7s76 -7 76 -7l-535 -698s-30 -7 -78 -7c-46 0 -75 7 -75 7zM87 624c48 12 86 31 117 59c14 3 43 5 71 5c24 0 48 -2 61 -5l-71 -333c-18 -3 -42 -5 -65 -5c-25 0 -50 1 -71 5l33 155c4 16 8 35 14 51c-22 -13 -53 -24 -80 -27
c-13 21 -18 62 -9 95zM621 148h37c1 -14 0 -27 -4 -43c-3 -16 -8 -29 -14 -43h-37l-12 -57c-25 -4 -51 -5 -62 -5s-38 1 -60 5l12 57h-154c0 14 1 28 4 43c3 14 7 25 12 37l198 195c18 4 40 6 62 6c21 0 42 -2 59 -6zM511 204l-54 -56h42z" />
    <glyph glyph-name="onesuperior" unicode="&#xb9;" horiz-adv-x="274" 
d="M68 624c48 12 86 31 117 59c14 3 43 5 71 5c24 0 48 -2 61 -5l-71 -333c-18 -3 -42 -5 -65 -5c-25 0 -50 1 -71 5l33 155c4 16 8 35 14 51c-22 -13 -53 -24 -80 -27c-13 21 -18 62 -9 95z" />
    <glyph glyph-name="ordfeminine" unicode="&#xaa;" horiz-adv-x="353" 
d="M108 603c0 0 70 27 147 27c100 0 127 -40 111 -115l-44 -207s-24 -8 -63 -8c-35 0 -57 8 -57 8l-3 22c-22 -22 -45 -35 -83 -35c-59 0 -90 36 -75 107c16 72 77 101 144 101c24 0 42 -2 42 -2l3 10c2 13 -2 20 -22 20c-45 0 -83 -15 -83 -15c-14 22 -22 56 -17 87z
M212 426c0 0 -4 1 -13 1c-11 0 -18 -7 -22 -25c-3 -18 0 -25 9 -25c8 0 16 6 22 31zM16 244h290c2 -27 -8 -72 -21 -98h-290c-1 27 8 70 21 98z" />
    <glyph glyph-name="ordmasculine" unicode="&#xba;" horiz-adv-x="363" 
d="M55 464c24 113 86 166 195 166c108 0 150 -51 126 -166c-25 -115 -89 -169 -197 -169c-109 0 -149 54 -124 169zM235 464c12 60 9 67 -6 67c-16 0 -23 -7 -35 -67c-13 -61 -10 -68 6 -68c15 0 22 7 35 68zM22 244h290c1 -13 -1 -31 -4 -48c-4 -18 -10 -37 -17 -50h-290
c-1 13 2 31 5 49c4 18 9 35 16 49z" />
    <glyph glyph-name="oslash" unicode="&#xf8;" horiz-adv-x="559" 
d="M557 540l-55 -66c37 -48 48 -121 27 -221c-43 -199 -151 -263 -309 -263c-39 0 -73 6 -103 17l-61 -75c-37 3 -67 21 -81 48l67 81c-37 49 -50 122 -28 223c43 199 150 262 308 262c40 0 76 -6 106 -18l49 59c39 -3 66 -21 80 -47zM324 380c-6 8 -14 11 -26 11
c-34 0 -52 -26 -73 -123l-2 -7zM219 157c6 -9 15 -13 27 -13c34 0 51 27 72 124l2 9z" />
    <glyph glyph-name="oslashacute" unicode="&#x1ff;" horiz-adv-x="559" 
d="M517 729l-192 -157c-44 7 -85 24 -103 55l137 167c67 7 140 -21 158 -65zM557 540l-55 -66c37 -48 48 -121 27 -221c-43 -199 -151 -263 -309 -263c-39 0 -73 6 -103 17l-61 -75c-37 3 -67 21 -81 48l67 81c-37 49 -50 122 -28 223c43 199 150 262 308 262
c40 0 76 -6 106 -18l49 59c39 -3 66 -21 80 -47zM324 380c-6 8 -14 11 -26 11c-34 0 -52 -26 -73 -123l-2 -7zM219 157c6 -9 15 -13 27 -13c34 0 51 27 72 124l2 9z" />
    <glyph glyph-name="otilde" unicode="&#xf5;" horiz-adv-x="558" 
d="M168 700c0 0 47 51 111 51c71 0 95 -32 157 -32c42 0 64 26 64 26c36 -22 47 -70 41 -112c0 0 -40 -51 -111 -51s-96 32 -158 32c-37 0 -64 -26 -64 -26c-35 21 -49 65 -40 112zM13 284c43 199 150 262 308 262c159 0 250 -92 207 -293c-43 -199 -151 -263 -309 -263
s-249 93 -206 294zM317 268c21 97 14 123 -20 123s-52 -26 -73 -123s-13 -124 21 -124s51 27 72 124z" />
    <glyph glyph-name="p" unicode="p" horiz-adv-x="567" 
d="M280 487c33 29 79 59 132 59c101 0 167 -67 121 -301c-41 -207 -132 -255 -241 -255c-52 0 -87 19 -108 50l-54 -256s-43 -8 -105 -8s-101 8 -101 8l158 744s43 8 105 8s93 -8 93 -8v-41zM318 269c21 99 15 123 -19 123c-20 0 -41 -16 -51 -51l-27 -131
c-6 -28 -5 -66 26 -66c28 0 47 13 71 125z" />
    <glyph glyph-name="paragraph" unicode="&#xb6;" horiz-adv-x="760" 
d="M162 -221l83 390c-171 3 -228 134 -199 264c31 134 148 266 322 266h168l-196 -920s-38 -6 -90 -6c-54 0 -88 6 -88 6zM770 693l-194 -914s-38 -6 -90 -6c-54 0 -88 6 -88 6l194 914s37 6 91 6c52 0 87 -6 87 -6z" />
    <glyph glyph-name="parenleft" unicode="(" horiz-adv-x="298" 
d="M331 792c38 -22 45 -51 45 -51s-122 -153 -179 -421s0 -421 0 -421s-14 -31 -67 -53c-48 -20 -81 -17 -81 -17s-83 220 -25 491s233 491 233 491s37 3 74 -19z" />
    <glyph glyph-name="parenright" unicode=")" horiz-adv-x="298" 
d="M106 320c57 268 -1 421 -1 421s21 29 67 51c47 22 82 19 82 19s83 -220 25 -491s-233 -491 -233 -491s-35 -3 -75 17c-43 22 -45 53 -45 53s123 153 180 421z" />
    <glyph glyph-name="partialdiff" unicode="&#x2202;" horiz-adv-x="560" 
d="M164 596c2 48 22 117 50 154c274 -20 386 -155 328 -429c-55 -258 -169 -331 -330 -331s-245 70 -204 262c40 192 153 262 285 262c11 0 25 -3 33 -6c-25 47 -74 78 -162 88zM336 354c-10 8 -23 14 -43 14c-41 0 -57 -27 -75 -116c-20 -91 -15 -116 26 -116s55 25 75 116
c8 38 14 72 17 102z" />
    <glyph glyph-name="percent" unicode="%" horiz-adv-x="782" 
d="M747 695l-534 -698s-26 -7 -78 -7c-51 0 -76 7 -76 7l534 698s26 7 78 7c51 0 76 -7 76 -7zM190 342c-99 0 -150 49 -123 176c27 125 99 177 198 177c98 0 150 -50 123 -177s-100 -176 -198 -176zM243 592c-16 0 -22 -5 -37 -74c-14 -68 -10 -73 6 -73c15 0 21 5 35 73
c15 68 11 74 -4 74zM533 -10c-99 0 -150 49 -123 176c27 125 99 177 198 177c98 0 150 -50 123 -177s-100 -176 -198 -176zM586 240c-16 0 -22 -5 -37 -74c-14 -68 -10 -73 6 -73c15 0 21 5 35 73c15 68 11 74 -4 74z" />
    <glyph glyph-name="period" unicode="." horiz-adv-x="275" 
d="M220 202l-41 -194s-39 -8 -105 -8s-101 8 -101 8l41 194s38 8 105 8c66 0 101 -8 101 -8z" />
    <glyph glyph-name="periodcentered" unicode="&#xb7;" horiz-adv-x="263" 
d="M238 372l-37 -174s-35 -8 -95 -8s-91 8 -91 8l37 174s34 8 95 8c60 0 91 -8 91 -8z" />
    <glyph glyph-name="perthousand" unicode="&#x2030;" horiz-adv-x="1131" 
d="M747 695l-534 -698s-26 -7 -78 -7c-51 0 -76 7 -76 7l534 698s26 7 78 7c51 0 76 -7 76 -7zM190 342c-99 0 -150 49 -123 176c27 125 99 177 198 177c98 0 150 -50 123 -177s-100 -176 -198 -176zM243 592c-16 0 -22 -5 -37 -74c-14 -68 -10 -73 6 -73c15 0 21 5 35 73
c15 68 11 74 -4 74zM533 -10c-99 0 -150 49 -123 176c27 125 99 177 198 177c98 0 150 -50 123 -177s-100 -176 -198 -176zM883 -10c-99 0 -150 49 -123 176c27 125 99 177 198 177c98 0 150 -50 123 -177s-100 -176 -198 -176zM586 240c-16 0 -22 -5 -37 -74
c-14 -68 -10 -73 6 -73c15 0 21 5 35 73c15 68 11 74 -4 74zM936 240c-16 0 -22 -5 -37 -74c-14 -68 -10 -73 6 -73c15 0 21 5 35 73c15 68 11 74 -4 74z" />
    <glyph glyph-name="pi" unicode="&#x3c0;" horiz-adv-x="643" 
d="M262 526h412c2 -20 0 -48 -6 -76s-17 -57 -27 -77h-69l-28 -135c-31 -142 -19 -211 -19 -211c-38 -23 -104 -27 -139 -27c-17 0 -64 2 -77 7c0 0 -9 52 28 229l29 137h-66l-77 -364s-39 -9 -105 -9c-68 0 -101 9 -101 9l76 356c-46 -6 -69 -12 -69 -12c-3 19 0 47 6 75
c6 29 15 58 27 78c0 0 71 20 205 20z" />
    <glyph glyph-name="plus" unicode="+" horiz-adv-x="450" 
d="M136 219h-124s-2 26 8 71c9 45 22 71 22 71h124l26 124s28 7 73 7s69 -7 69 -7l-26 -124h124s2 -26 -7 -71c-10 -45 -23 -71 -23 -71h-124l-27 -124s-28 -8 -73 -8s-69 8 -69 8z" />
    <glyph glyph-name="plusminus" unicode="&#xb1;" horiz-adv-x="476" 
d="M175 331h-124s-1 26 8 71c10 45 22 71 22 71h124l18 84s28 7 73 7s69 -7 69 -7l-18 -84h124s3 -26 -7 -71c-9 -45 -23 -71 -23 -71h-124l-18 -84s-27 -8 -72 -8s-70 8 -70 8zM386 73h-390s-1 26 9 71c9 45 22 71 22 71h390s2 -26 -7 -71c-10 -45 -24 -71 -24 -71z" />
    <glyph glyph-name="product" unicode="&#x220f;" horiz-adv-x="722" 
d="M742 693l-189 -890s-42 -10 -99 -10c-56 0 -95 10 -95 10l156 733h-209l-156 -733s-42 -10 -100 -10c-55 0 -94 10 -94 10l189 890h597z" />
    <glyph glyph-name="q" unicode="q" horiz-adv-x="565" 
d="M213 -216l54 255c-32 -30 -73 -49 -125 -49c-112 0 -168 93 -125 297s127 259 243 259c52 0 83 -21 103 -55l17 37s35 8 97 8s100 -8 100 -8l-158 -744s-42 -8 -104 -8s-102 8 -102 8zM228 268c-21 -97 -11 -124 22 -124c27 0 47 33 54 66l26 126c8 38 -4 56 -28 56
c-33 0 -53 -25 -74 -124z" />
    <glyph glyph-name="question" unicode="?" horiz-adv-x="477" 
d="M501 518c-37 -174 -207 -155 -229 -257c0 0 -32 -12 -90 -12s-87 12 -87 12c42 196 177 166 192 238c6 27 -9 38 -54 38c-54 0 -109 -23 -109 -23c-35 30 -43 84 -29 140c0 0 87 36 201 36c133 0 234 -34 205 -172zM275 202l-41 -194s-39 -8 -105 -8s-101 8 -101 8
l41 194s38 8 105 8c66 0 101 -8 101 -8z" />
    <glyph glyph-name="questiondown" unicode="&#xbf;" horiz-adv-x="474" 
d="M183 318l41 194s38 8 104 8s102 -8 102 -8l-41 -194s-38 -8 -105 -8c-66 0 -101 8 -101 8zM-44 2c37 174 207 155 229 257c0 0 33 10 91 10s86 -10 86 -10c-42 -196 -176 -166 -192 -238c-5 -27 9 -38 54 -38c54 0 109 23 109 23c36 -30 43 -84 29 -140
c0 0 -86 -36 -200 -36c-133 0 -235 34 -206 172z" />
    <glyph glyph-name="quotedbl" unicode="&#x22;" horiz-adv-x="420" 
d="M81 467l26 245s36 8 94 8c55 0 90 -8 90 -8l-78 -245s-25 -8 -67 -8s-65 8 -65 8zM272 467l26 245s36 8 94 8c55 0 90 -8 90 -8l-78 -245s-25 -8 -67 -8s-65 8 -65 8z" />
    <glyph glyph-name="quotedblbase" unicode="&#x201e;" horiz-adv-x="512" 
d="M40 -167l-64 51s45 46 64 116c-36 2 -67 8 -67 8l41 195s41 8 105 8c61 0 101 -8 101 -8l-33 -155c-28 -133 -147 -215 -147 -215zM276 -167l-64 51s45 46 64 116c-36 2 -67 8 -67 8l41 195s41 8 105 8c61 0 101 -8 101 -8l-33 -155c-28 -133 -147 -215 -147 -215z" />
    <glyph glyph-name="quotedblleft" unicode="&#x201c;" horiz-adv-x="502" 
d="M220 720l64 -51s-45 -46 -65 -117c37 -2 69 -7 69 -7l-42 -195s-40 -8 -104 -8c-61 0 -102 8 -102 8l33 155c29 133 147 215 147 215zM456 720l64 -51s-45 -46 -65 -117c37 -2 69 -7 69 -7l-42 -195s-40 -8 -104 -8c-61 0 -102 8 -102 8l33 155c29 133 147 215 147 215z
" />
    <glyph glyph-name="quotedblright" unicode="&#x201d;" horiz-adv-x="494" 
d="M138 342l-65 51s45 45 64 116c-35 2 -67 8 -67 8l41 195s41 8 105 8c61 0 101 -8 101 -8l-33 -155c-28 -133 -146 -215 -146 -215zM374 342l-65 51s45 45 64 116c-35 2 -67 8 -67 8l41 195s41 8 105 8c61 0 101 -8 101 -8l-33 -155c-28 -133 -146 -215 -146 -215z" />
    <glyph glyph-name="quoteleft" unicode="&#x2018;" horiz-adv-x="266" 
d="M220 720l64 -51s-45 -46 -65 -117c37 -2 69 -7 69 -7l-42 -195s-40 -8 -104 -8c-61 0 -102 8 -102 8l33 155c29 133 147 215 147 215z" />
    <glyph glyph-name="quoteright" unicode="&#x2019;" horiz-adv-x="258" 
d="M138 342l-65 51s45 45 64 116c-35 2 -67 8 -67 8l41 195s41 8 105 8c61 0 101 -8 101 -8l-33 -155c-28 -133 -146 -215 -146 -215z" />
    <glyph glyph-name="quotesinglbase" unicode="&#x201a;" horiz-adv-x="276" 
d="M40 -167l-64 51s45 46 64 116c-36 2 -67 8 -67 8l41 195s41 8 105 8c61 0 101 -8 101 -8l-33 -155c-28 -133 -147 -215 -147 -215z" />
    <glyph glyph-name="quotesingle" unicode="'" horiz-adv-x="229" 
d="M81 467l26 245s36 8 94 8c55 0 90 -8 90 -8l-78 -245s-25 -8 -67 -8s-65 8 -65 8z" />
    <glyph glyph-name="r" unicode="r" horiz-adv-x="431" 
d="M272 479c39 52 91 66 127 66c30 0 57 -9 84 -29c-7 -44 -41 -117 -94 -163c-12 10 -38 14 -56 14c-22 0 -60 -11 -87 -34l-68 -325s-44 -8 -105 -8c-64 0 -101 8 -101 8l110 520s41 8 105 8c67 0 88 -8 88 -8z" />
    <glyph glyph-name="racute" unicode="&#x155;" horiz-adv-x="431" 
d="M177 627l137 167c67 7 140 -21 158 -65l-192 -157c-44 7 -85 24 -103 55zM272 479c39 52 91 66 127 66c30 0 57 -9 84 -29c-7 -44 -41 -117 -94 -163c-12 10 -38 14 -56 14c-22 0 -60 -11 -87 -34l-68 -325s-44 -8 -105 -8c-64 0 -101 8 -101 8l110 520s41 8 105 8
c67 0 88 -8 88 -8z" />
    <glyph glyph-name="radical" unicode="&#x221a;" horiz-adv-x="655" 
d="M180 -15l-69 296l-80 -32c-21 24 -35 74 -27 122l251 100l57 -251l282 510c56 4 120 -12 150 -39l-388 -706h-176z" />
    <glyph glyph-name="rcaron" unicode="&#x159;" horiz-adv-x="431" 
d="M308 725l125 68c32 -17 54 -48 62 -84l-180 -136h-50l-150 136c23 36 59 68 98 85zM272 479c39 52 91 66 127 66c30 0 57 -9 84 -29c-7 -44 -41 -117 -94 -163c-12 10 -38 14 -56 14c-22 0 -60 -11 -87 -34l-68 -325s-44 -8 -105 -8c-64 0 -101 8 -101 8l110 520
s41 8 105 8c67 0 88 -8 88 -8z" />
    <glyph glyph-name="rcommaaccent" unicode="&#x157;" horiz-adv-x="431" 
d="M-42 -48c0 0 40 8 104 8c61 0 102 -8 102 -8l-33 -155c-28 -133 -147 -215 -147 -215l-64 51s45 46 64 116c-36 2 -68 8 -68 8zM272 479c39 52 91 66 127 66c30 0 57 -9 84 -29c-7 -44 -41 -117 -94 -163c-12 10 -38 14 -56 14c-22 0 -60 -11 -87 -34l-68 -325
s-44 -8 -105 -8c-64 0 -101 8 -101 8l110 520s41 8 105 8c67 0 88 -8 88 -8z" />
    <glyph glyph-name="registered" unicode="&#xae;" horiz-adv-x="510" 
d="M241 240c-128 0 -209 103 -182 231s152 231 280 231s209 -103 182 -231s-152 -231 -280 -231zM324 631c-88 0 -176 -71 -195 -160s39 -161 127 -161c89 0 175 72 194 161s-37 160 -126 160zM339 589c48 0 74 -29 65 -71c-6 -30 -28 -55 -58 -65l30 -84s-13 -8 -39 -8
c-20 0 -32 5 -32 5l-30 81h-6l-17 -81s-14 -5 -37 -5c-24 0 -36 5 -36 5l47 223h113zM280 501h25c14 0 21 4 24 17s-2 17 -16 17h-25z" />
    <glyph glyph-name="ring" unicode="&#x2da;" horiz-adv-x="344" 
d="M113 452c-100 0 -161 59 -139 163c22 106 119 161 209 161c88 0 164 -54 142 -161c-23 -105 -116 -163 -212 -163zM192 615c4 21 -6 41 -36 41c-29 0 -47 -21 -51 -41c-5 -21 5 -42 34 -42c30 0 48 22 53 42z" />
    <glyph glyph-name="s" unicode="s" horiz-adv-x="463" 
d="M40 383c24 113 103 163 252 163c118 0 183 -33 183 -33c-6 -47 -27 -96 -67 -129c0 0 -57 16 -125 16c-42 0 -55 -9 -58 -22c-4 -21 52 -29 106 -50c56 -22 106 -71 85 -169c-23 -111 -99 -169 -260 -169c-129 0 -196 44 -196 44c12 55 34 93 69 126c0 0 58 -21 128 -21
c50 0 66 8 69 22c5 22 -48 30 -101 50c-55 22 -106 73 -85 172z" />
    <glyph glyph-name="sacute" unicode="&#x15b;" horiz-adv-x="463" 
d="M476 729l-192 -157c-44 7 -85 24 -103 55l137 167c67 7 140 -21 158 -65zM40 383c24 113 103 163 252 163c118 0 183 -33 183 -33c-6 -47 -27 -96 -67 -129c0 0 -57 16 -125 16c-42 0 -55 -9 -58 -22c-4 -21 52 -29 106 -50c56 -22 106 -71 85 -169
c-23 -111 -99 -169 -260 -169c-129 0 -196 44 -196 44c12 55 34 93 69 126c0 0 58 -21 128 -21c50 0 66 8 69 22c5 22 -48 30 -101 50c-55 22 -106 73 -85 172z" />
    <glyph glyph-name="scaron" unicode="&#x161;" horiz-adv-x="463" 
d="M275 575l-147 137c23 35 58 67 97 83l94 -67l123 66c32 -16 53 -47 61 -82l-179 -137h-49zM40 383c24 113 103 163 252 163c118 0 183 -33 183 -33c-6 -47 -27 -96 -67 -129c0 0 -57 16 -125 16c-42 0 -55 -9 -58 -22c-4 -21 52 -29 106 -50c56 -22 106 -71 85 -169
c-23 -111 -99 -169 -260 -169c-129 0 -196 44 -196 44c12 55 34 93 69 126c0 0 58 -21 128 -21c50 0 66 8 69 22c5 22 -48 30 -101 50c-55 22 -106 73 -85 172z" />
    <glyph glyph-name="scedilla" unicode="&#x15f;" horiz-adv-x="463" 
d="M225 378c-4 -21 52 -29 106 -50c56 -22 106 -71 85 -169c-20 -95 -79 -152 -197 -166l-15 -36c79 0 99 -41 87 -99c-15 -69 -77 -102 -158 -102c-78 0 -121 23 -121 23c4 20 21 56 39 68c16 -6 43 -11 69 -13c32 -2 65 4 70 28c3 18 -5 25 -27 25h-76l-10 15l35 90
c-100 8 -152 42 -152 42c12 55 34 93 69 126c0 0 58 -21 128 -21c50 0 66 8 69 22c5 22 -48 30 -101 50c-55 22 -106 73 -85 172c24 113 103 163 252 163c118 0 183 -33 183 -33c-6 -47 -27 -96 -67 -129c0 0 -57 16 -125 16c-42 0 -55 -9 -58 -22z" />
    <glyph glyph-name="scircumflex" unicode="&#x15d;" horiz-adv-x="463" 
d="M371 792l150 -141c-26 -38 -63 -72 -103 -89l-103 72l-133 -71c-35 17 -58 50 -67 88l202 141h54zM40 383c24 113 103 163 252 163c118 0 183 -33 183 -33c-6 -47 -27 -96 -67 -129c0 0 -57 16 -125 16c-42 0 -55 -9 -58 -22c-4 -21 52 -29 106 -50
c56 -22 106 -71 85 -169c-23 -111 -99 -169 -260 -169c-129 0 -196 44 -196 44c12 55 34 93 69 126c0 0 58 -21 128 -21c50 0 66 8 69 22c5 22 -48 30 -101 50c-55 22 -106 73 -85 172z" />
    <glyph glyph-name="scommaaccent" unicode="&#x219;" horiz-adv-x="463" 
d="M97 -408l-63 50s44 45 63 113c-35 2 -67 8 -67 8l42 191s39 8 102 8c59 0 100 -8 100 -8l-33 -152c-27 -130 -144 -210 -144 -210zM40 383c24 113 103 163 252 163c118 0 183 -33 183 -33c-6 -47 -27 -96 -67 -129c0 0 -57 16 -125 16c-42 0 -55 -9 -58 -22
c-4 -21 52 -29 106 -50c56 -22 106 -71 85 -169c-23 -111 -99 -169 -260 -169c-129 0 -196 44 -196 44c12 55 34 93 69 126c0 0 58 -21 128 -21c50 0 66 8 69 22c5 22 -48 30 -101 50c-55 22 -106 73 -85 172z" />
    <glyph glyph-name="section" unicode="&#xa7;" horiz-adv-x="495" 
d="M238 148c8 36 -243 -5 -207 161c12 58 51 93 93 115c-29 21 -47 56 -33 120c20 98 113 146 240 146c77 0 134 -15 176 -33c-10 -45 -38 -93 -72 -123c-16 5 -46 12 -75 16c-40 5 -79 4 -84 -19c-9 -41 236 8 199 -163c-12 -55 -50 -89 -91 -108c38 -21 62 -56 48 -125
c-22 -104 -137 -145 -267 -145c-104 0 -190 36 -190 36c10 47 38 101 74 130c31 -11 74 -21 111 -24c40 -3 75 -1 78 16zM236 385c-12 -12 -19 -24 -22 -37c-6 -30 24 -43 59 -52c11 11 18 23 21 36c6 31 -24 43 -58 53z" />
    <glyph glyph-name="semicolon" unicode=";" horiz-adv-x="283" 
d="M289 518l-41 -194s-39 -8 -105 -8s-101 8 -101 8l41 194s38 8 105 8c66 0 101 -8 101 -8zM42 -167l-64 51s45 46 64 116c-36 2 -67 8 -67 8l41 195s41 8 105 8c61 0 101 -8 101 -8l-33 -155c-28 -133 -147 -215 -147 -215z" />
    <glyph glyph-name="seven" unicode="7" horiz-adv-x="512" 
d="M100 690h479c-1 -31 -6 -62 -13 -93c-51 -238 -294 -291 -358 -591c-19 -4 -60 -6 -101 -6s-83 2 -100 6c63 295 254 375 337 522h-279s-2 34 9 82c10 47 26 80 26 80z" />
    <glyph glyph-name="seven.denom" horiz-adv-x="294" 
d="M126 239h-126c0 15 2 34 6 52c4 19 9 37 16 52h271s1 -20 -4 -40c-28 -131 -163 -174 -183 -299c-18 -3 -43 -4 -68 -4s-49 1 -64 4c29 136 119 176 152 235z" />
    <glyph glyph-name="seven.num" horiz-adv-x="294" 
d="M95 689h271c1 -13 0 -26 -3 -40c-29 -131 -163 -174 -184 -299c-35 -5 -101 -6 -132 0c29 136 120 176 152 235h-126c0 30 9 74 22 104z" />
    <glyph glyph-name="seveneighths" unicode="&#x215e;" horiz-adv-x="723" 
d="M524 695c0 0 26 7 78 7s76 -7 76 -7l-535 -698s-30 -7 -78 -7c-46 0 -75 7 -75 7zM112 689h271s1 -20 -3 -40c-29 -131 -163 -174 -184 -299c-35 -5 -101 -6 -132 0c29 136 120 176 152 235h-126c0 30 9 74 22 104zM398 253c13 62 65 95 162 95c92 0 131 -31 119 -89
c-7 -34 -32 -64 -65 -77c35 -16 52 -44 44 -85c-14 -64 -70 -102 -174 -102c-99 0 -143 32 -129 97c7 37 36 67 77 81c-31 14 -42 43 -34 80zM561 249c2 10 -1 19 -18 19c-14 0 -21 -8 -22 -16c-3 -12 5 -22 23 -29c9 7 15 18 17 26zM535 98c3 15 -5 24 -35 35
c0 0 -19 -14 -22 -31c-3 -12 2 -24 26 -24c18 0 29 10 31 20z" />
    <glyph glyph-name="seveninferior" unicode="&#x2087;" horiz-adv-x="296" 
d="M107 143h-126c0 30 9 74 22 104h271s1 -20 -3 -40c-29 -131 -173 -174 -194 -299c-35 -5 -101 -6 -132 0c29 136 130 176 162 235z" />
    <glyph glyph-name="six" unicode="6" horiz-adv-x="558" 
d="M535 690c3 -46 -12 -115 -34 -157c-93 -8 -157 -39 -201 -92c17 3 34 5 54 5c125 0 204 -75 169 -237c-31 -150 -144 -219 -306 -219c-161 0 -242 85 -202 272c55 260 248 413 520 428zM313 209c15 67 0 89 -36 89c-17 0 -34 -5 -47 -10c-3 -10 -5 -20 -7 -30
c-21 -100 -4 -122 25 -122s55 22 65 73z" />
    <glyph glyph-name="six.denom" horiz-adv-x="323" 
d="M-21 137c30 139 140 199 280 209c7 -23 -4 -68 -19 -87c-35 -4 -67 -16 -92 -43c8 2 17 3 28 3c62 0 110 -27 93 -107c-16 -75 -75 -117 -172 -117c-98 0 -138 47 -118 142zM139 112c5 23 0 33 -11 33c-5 0 -14 -2 -18 -3c-13 -47 -7 -64 5 -64c10 0 19 10 24 34z" />
    <glyph glyph-name="six.num" horiz-adv-x="322" 
d="M53 483c29 139 140 199 279 209c6 -22 -2 -63 -18 -87c-35 -4 -68 -16 -93 -43c9 2 17 3 28 3c62 0 110 -27 93 -107c-16 -75 -75 -117 -172 -117c-98 0 -138 47 -117 142zM212 458c5 23 0 33 -11 33c-5 0 -13 -2 -17 -3c-11 -47 -8 -64 4 -64c10 0 19 10 24 34z" />
    <glyph glyph-name="sixinferior" unicode="&#x2086;" horiz-adv-x="322" 
d="M-41 41c29 139 140 199 279 209c6 -22 -2 -63 -18 -87c-35 -4 -68 -16 -93 -43c9 2 17 3 28 3c62 0 110 -27 93 -107c-16 -75 -75 -117 -172 -117c-98 0 -138 47 -117 142zM118 16c5 23 0 33 -11 33c-5 0 -13 -2 -17 -3c-13 -49 -8 -64 4 -64c10 0 19 10 24 34z" />
    <glyph glyph-name="slash" unicode="/" horiz-adv-x="577" 
d="M-57 -38l498 779s49 9 108 9c61 0 106 -9 106 -9l-498 -779s-49 -9 -108 -9c-61 0 -106 9 -106 9z" />
    <glyph glyph-name="space" unicode=" " horiz-adv-x="169" 
 />
    <glyph glyph-name="sterling" unicode="&#xa3;" horiz-adv-x="554" 
d="M447 268h-149c-11 -36 -32 -72 -73 -105h265s2 -29 -8 -79c-11 -49 -27 -84 -27 -84h-475l35 163c52 42 78 75 91 105h-79s0 31 8 70c9 44 21 68 21 68h50c-2 27 -3 57 5 95c29 136 163 190 289 190c99 0 147 -16 192 -37c-14 -55 -46 -103 -86 -135
c-30 11 -64 19 -94 19c-47 -1 -87 -22 -101 -84c-3 -15 -4 -31 -4 -48h169s2 -23 -7 -66c-8 -41 -22 -72 -22 -72z" />
    <glyph glyph-name="summation" unicode="&#x2211;" horiz-adv-x="647" 
d="M-75 -146l313 407l-129 377l11 56h567s2 -35 -7 -77c-8 -40 -25 -76 -25 -76h-306l98 -282l-238 -310h326s1 -36 -8 -79c-8 -40 -25 -77 -25 -77h-590z" />
    <glyph glyph-name="t" unicode="t" horiz-adv-x="392" 
d="M288 383l-41 -193c-8 -40 11 -51 45 -51c27 0 51 6 51 6s11 -24 -1 -81c-9 -38 -20 -60 -20 -60c-39 -9 -79 -14 -122 -14c-148 0 -191 48 -159 199l41 194h-58s0 29 8 71c10 46 23 72 23 72h58l20 94c56 24 145 33 211 25l-25 -119h88s1 -26 -8 -71
c-9 -43 -23 -72 -23 -72h-88z" />
    <glyph glyph-name="tbar" unicode="&#x167;" horiz-adv-x="396" 
d="M295 139c27 0 51 6 51 6s11 -24 -1 -81c-9 -38 -20 -60 -20 -60c-39 -9 -79 -14 -122 -14c-148 0 -191 48 -159 199l7 32h-56c-1 36 8 80 24 112h56l10 50h-57s0 29 8 71c10 46 23 72 23 72h57l20 94c56 24 145 33 211 25l-25 -119h88s1 -26 -8 -71
c-9 -43 -23 -72 -23 -72h-88l-10 -50h68c3 -33 -8 -79 -24 -112h-68l-7 -31c-8 -40 11 -51 45 -51z" />
    <glyph glyph-name="tcaron" unicode="&#x165;" horiz-adv-x="392" 
d="M437 559c-32 -1 -70 16 -83 39c57 47 80 82 98 151c57 4 116 -7 142 -29c-32 -76 -94 -141 -157 -161zM288 383l-41 -193c-8 -40 11 -51 45 -51c27 0 51 6 51 6s11 -24 -1 -81c-9 -38 -20 -60 -20 -60c-39 -9 -79 -14 -122 -14c-148 0 -191 48 -159 199l41 194h-57
s0 29 8 71c10 46 23 72 23 72h57l20 94c56 24 145 33 211 25l-25 -119h88s1 -26 -8 -71c-9 -43 -23 -72 -23 -72h-88z" />
    <glyph glyph-name="thorn" unicode="&#xfe;" horiz-adv-x="569" 
d="M130 752c0 0 43 8 105 8s101 -8 101 -8l-54 -253c33 29 77 47 130 47c101 0 172 -77 126 -291c-44 -207 -137 -265 -246 -265c-52 0 -87 19 -108 50l-54 -256s-43 -8 -105 -8s-101 8 -101 8zM318 269c21 99 15 123 -19 123c-20 0 -41 -16 -51 -51l-27 -131
c-6 -28 -5 -66 26 -66c28 0 47 13 71 125z" />
    <glyph glyph-name="three" unicode="3" horiz-adv-x="539" 
d="M490 189c-27 -127 -127 -199 -334 -199c-129 0 -201 38 -201 38c12 46 47 109 82 139c0 0 73 -19 143 -19c78 0 97 28 106 69s-1 67 -65 67h-103c-4 42 11 110 32 150h103c48 0 65 21 72 55c8 38 -10 56 -63 56c-76 0 -129 -18 -129 -18c-30 24 -46 85 -35 134
c0 0 105 39 219 39c162 0 247 -63 221 -186c-14 -66 -56 -122 -129 -151c71 -29 99 -89 81 -174z" />
    <glyph glyph-name="three.denom" horiz-adv-x="310" 
d="M251 100c-13 -62 -52 -105 -175 -105c-84 0 -127 23 -127 23c5 26 25 60 45 77c0 0 32 -10 67 -10c40 0 53 8 57 26c4 19 -3 24 -35 24h-48c-4 22 5 65 18 87h48c23 0 31 3 34 18c3 13 -3 19 -35 19c-35 0 -65 -8 -65 -8c-14 17 -20 45 -14 77c0 0 57 20 125 20
c108 0 141 -34 128 -93c-9 -41 -32 -63 -67 -74c30 -11 54 -35 44 -81z" />
    <glyph glyph-name="three.num" horiz-adv-x="311" 
d="M325 446c-13 -62 -53 -105 -176 -105c-84 0 -127 23 -127 23c6 26 25 60 46 77c0 0 32 -10 67 -10c40 0 52 8 56 26c4 19 -3 24 -35 24h-48c-3 22 6 65 19 87h48c23 0 30 3 34 18c2 13 -3 19 -35 19c-35 0 -65 -8 -65 -8c-15 17 -21 45 -15 77c0 0 57 20 125 20
c108 0 141 -34 129 -93c-9 -41 -33 -63 -67 -74c30 -11 54 -35 44 -81z" />
    <glyph glyph-name="threeeighths" unicode="&#x215c;" horiz-adv-x="790" 
d="M591 695c0 0 26 7 78 7s76 -7 76 -7l-535 -698s-30 -7 -78 -7c-46 0 -75 7 -75 7zM108 674c0 0 57 20 125 20c108 0 141 -34 129 -93c-9 -41 -33 -63 -67 -74c30 -11 54 -35 44 -81c-13 -62 -53 -105 -176 -105c-84 0 -127 23 -127 23c6 26 25 60 46 77
c0 0 32 -10 67 -10c40 0 52 8 56 26c4 19 -3 24 -35 24h-48c-3 22 6 65 19 87h48c23 0 30 3 34 18c2 13 -3 19 -35 19c-35 0 -65 -8 -65 -8c-15 17 -21 45 -15 77zM465 253c13 62 65 95 162 95c92 0 131 -31 119 -89c-7 -34 -32 -64 -65 -77c35 -16 52 -44 44 -85
c-14 -64 -70 -102 -174 -102c-99 0 -143 32 -129 97c7 37 36 67 77 81c-31 14 -42 43 -34 80zM628 249c2 10 -1 19 -18 19c-14 0 -21 -8 -22 -16c-3 -12 5 -22 23 -29c9 7 15 18 17 26zM602 98c3 15 -5 24 -35 35c0 0 -19 -14 -22 -31c-3 -12 2 -24 26 -24c18 0 29 10 31 20
z" />
    <glyph glyph-name="threeinferior" unicode="&#x2083;" horiz-adv-x="311" 
d="M231 4c-13 -62 -53 -105 -176 -105c-84 0 -127 23 -127 23c6 26 25 60 46 77c0 0 32 -10 67 -10c40 0 52 8 56 26c4 19 -3 24 -35 24h-48c-3 22 6 65 19 87h48c23 0 30 3 34 18c2 13 -3 19 -35 19c-35 0 -65 -8 -65 -8c-14 17 -21 45 -15 77c0 0 58 20 126 20
c108 0 140 -34 128 -93c-9 -41 -33 -63 -67 -74c30 -11 54 -35 44 -81z" />
    <glyph glyph-name="threequarters" unicode="&#xbe;" horiz-adv-x="742" 
d="M591 695c0 0 26 7 78 7s76 -7 76 -7l-535 -698s-30 -7 -78 -7c-46 0 -75 7 -75 7zM108 674c0 0 57 20 125 20c108 0 141 -34 129 -93c-9 -41 -33 -63 -67 -74c30 -11 54 -35 44 -81c-13 -62 -53 -105 -176 -105c-84 0 -127 23 -127 23c6 26 25 60 46 77
c0 0 32 -10 67 -10c40 0 52 8 56 26c4 19 -3 24 -35 24h-48c-3 22 6 65 19 87h48c23 0 30 3 34 18c2 13 -3 19 -35 19c-35 0 -65 -8 -65 -8c-15 17 -21 45 -15 77zM565 337c18 4 40 6 62 6c21 0 42 -2 59 -6l-41 -189h37c1 -14 0 -27 -4 -43c-3 -16 -8 -29 -14 -43h-37
l-12 -57c-25 -4 -51 -5 -62 -5s-38 1 -60 5l12 57h-154c0 14 1 28 4 43c3 14 7 25 12 37zM481 148h42l12 56z" />
    <glyph glyph-name="threesuperior" unicode="&#xb3;" horiz-adv-x="311" 
d="M325 446c-13 -62 -53 -105 -176 -105c-84 0 -127 23 -127 23c6 26 25 60 46 77c0 0 32 -10 67 -10c40 0 52 8 56 26c4 19 -3 24 -35 24h-48c-3 22 6 65 19 87h48c23 0 30 3 34 18c2 13 -3 19 -35 19c-35 0 -65 -8 -65 -8c-15 17 -21 45 -15 77c0 0 57 20 125 20
c108 0 141 -34 129 -93c-9 -41 -33 -63 -67 -74c30 -11 54 -35 44 -81z" />
    <glyph glyph-name="tilde" unicode="&#x2dc;" horiz-adv-x="327" 
d="M238 740c42 0 65 26 65 26c35 -22 47 -70 40 -112c0 0 -50 -51 -121 -51s-85 32 -147 32c-37 0 -65 -26 -65 -26c-34 21 -49 65 -40 112c0 0 57 51 121 51c71 0 85 -32 147 -32z" />
    <glyph glyph-name="trademark" unicode="&#x2122;" horiz-adv-x="616" 
d="M114 720h231c1 -8 -1 -24 -4 -36c-2 -11 -7 -26 -11 -35h-71l-45 -213s-20 -4 -45 -4c-26 0 -42 4 -42 4l45 213h-73c-1 8 1 23 3 34c3 12 7 28 12 37zM362 716c18 2 45 4 55 4c35 0 53 -4 53 -4l5 -74c3 -39 3 -59 2 -69c10 22 20 45 31 67l37 76s20 4 54 4
c29 0 57 -4 57 -4l-59 -280s-16 -4 -41 -4c-26 0 -40 4 -40 4l22 103c8 42 12 54 16 70c-6 -13 -18 -35 -22 -44l-32 -65s-14 -4 -42 -4s-40 4 -40 4l-2 91l-3 18c-4 -23 -5 -28 -13 -70l-22 -103s-15 -4 -38 -4c-24 0 -37 4 -37 4z" />
    <glyph glyph-name="two" unicode="2" horiz-adv-x="555" 
d="M133 505c-32 27 -41 88 -28 142c0 0 103 53 251 53c170 0 242 -76 213 -209c-22 -104 -85 -170 -214 -235c-54 -27 -112 -34 -129 -71c-2 -4 -3 -12 -2 -17h257c5 -24 3 -54 -3 -85c-7 -30 -18 -61 -33 -83h-475s-5 39 5 87c31 143 145 214 249 275c94 55 120 87 128 124
c7 34 -15 50 -66 50c-75 0 -153 -31 -153 -31z" />
    <glyph glyph-name="two.denom" horiz-adv-x="305" 
d="M-41 61c27 129 175 118 186 168c3 14 -10 20 -33 20c-19 0 -44 -3 -73 -10c-12 21 -14 59 -2 92c0 0 57 17 124 17c88 0 130 -30 114 -102c-24 -115 -124 -103 -176 -143h129c1 -16 0 -34 -4 -53c-4 -17 -10 -35 -18 -50h-253s-2 25 6 61z" />
    <glyph glyph-name="two.num" horiz-adv-x="305" 
d="M33 407c28 129 176 118 186 168c3 14 -10 20 -32 20c-19 0 -44 -3 -74 -10c-11 21 -13 59 -1 92c0 0 56 17 123 17c88 0 130 -30 115 -102c-25 -115 -124 -103 -177 -143h129c2 -16 0 -34 -4 -53c-3 -17 -9 -35 -17 -50h-253s-2 25 5 61z" />
    <glyph glyph-name="twoinferior" unicode="&#x2082;" horiz-adv-x="305" 
d="M-61 -35c27 129 175 118 185 168c3 14 -10 20 -33 20c-19 0 -43 -3 -73 -10c-11 21 -13 59 -1 92c0 0 57 17 124 17c88 0 129 -30 114 -102c-25 -115 -124 -103 -177 -143h129c2 -16 0 -34 -4 -53c-3 -17 -9 -35 -17 -50h-253s-2 25 6 61z" />
    <glyph glyph-name="twosuperior" unicode="&#xb2;" horiz-adv-x="305" 
d="M33 407c28 129 176 118 186 168c3 14 -10 20 -34 20c-18 0 -43 -3 -72 -10c-11 21 -13 59 -1 92c0 0 56 17 123 17c88 0 130 -30 115 -102c-25 -115 -124 -103 -177 -143h129c2 -16 0 -34 -4 -53c-3 -17 -9 -35 -17 -50h-253s-2 25 5 61z" />
    <glyph glyph-name="u" unicode="u" 
d="M3 175l75 353s36 8 105 8c68 0 101 -8 101 -8l-73 -346c-6 -25 2 -38 26 -38c10 0 22 4 36 12l79 372s39 8 105 8s101 -8 101 -8l-110 -520s-38 -8 -105 -8c-66 0 -84 8 -84 8v41c-42 -41 -89 -59 -138 -59c-109 0 -140 78 -118 185z" />
    <glyph glyph-name="uacute" unicode="&#xfa;" 
d="M518 729l-192 -157c-44 7 -85 24 -103 55l137 167c67 7 140 -21 158 -65zM3 175l75 353s36 8 105 8c68 0 101 -8 101 -8l-73 -346c-6 -25 2 -38 26 -38c10 0 22 4 36 12l79 372s39 8 105 8s101 -8 101 -8l-110 -520s-38 -8 -105 -8c-66 0 -84 8 -84 8v41
c-42 -41 -89 -59 -138 -59c-109 0 -140 78 -118 185z" />
    <glyph glyph-name="ubreve" unicode="&#x16d;" 
d="M360 729c67 0 111 28 111 28c35 -18 60 -53 64 -88c0 0 -60 -87 -196 -87s-180 87 -180 87c22 35 59 70 102 88c0 0 32 -28 99 -28zM3 175l75 353s36 8 105 8c68 0 101 -8 101 -8l-73 -346c-6 -25 2 -38 26 -38c10 0 22 4 36 12l79 372s39 8 105 8s101 -8 101 -8
l-110 -520s-38 -8 -105 -8c-66 0 -84 8 -84 8v41c-42 -41 -89 -59 -138 -59c-109 0 -140 78 -118 185z" />
    <glyph glyph-name="ucircumflex" unicode="&#xfb;" 
d="M396 805l151 -144c-26 -38 -64 -72 -104 -89l-103 72l-133 -71c-35 17 -57 50 -66 88l201 144h54zM3 175l75 353s36 8 105 8c68 0 101 -8 101 -8l-73 -346c-6 -25 2 -38 26 -38c10 0 22 4 36 12l79 372s39 8 105 8s101 -8 101 -8l-110 -520s-38 -8 -105 -8
c-66 0 -84 8 -84 8v41c-42 -41 -89 -59 -138 -59c-109 0 -140 78 -118 185z" />
    <glyph glyph-name="udieresis" unicode="&#xfc;" horiz-adv-x="547" 
d="M167 737c0 0 32 7 89 7c56 0 87 -7 87 -7l-32 -148s-33 -7 -89 -7s-87 7 -87 7zM392 737c0 0 32 7 89 7c56 0 87 -7 87 -7l-32 -148s-33 -7 -89 -7s-87 7 -87 7zM2 165l77 363s36 8 105 8c68 0 101 -8 101 -8l-73 -346c-6 -25 2 -38 26 -38c10 0 22 4 36 12l79 372
s39 8 105 8s101 -8 101 -8l-110 -520s-38 -8 -105 -8c-66 0 -84 8 -84 8v41c-42 -41 -89 -59 -138 -59c-109 0 -143 68 -120 175z" />
    <glyph glyph-name="ugrave" unicode="&#xf9;" 
d="M361 794l65 -167c-30 -31 -79 -48 -125 -55l-126 157c36 44 121 72 186 65zM3 175l75 353s36 8 105 8c68 0 101 -8 101 -8l-73 -346c-6 -25 2 -38 26 -38c10 0 22 4 36 12l79 372s39 8 105 8s101 -8 101 -8l-110 -520s-38 -8 -105 -8c-66 0 -84 8 -84 8v41
c-42 -41 -89 -59 -138 -59c-109 0 -140 78 -118 185z" />
    <glyph glyph-name="uhungarumlaut" unicode="&#x171;" 
d="M411 721l-170 -150c-42 4 -80 19 -97 46l120 158c62 9 130 -15 147 -54zM621 716l-176 -144c-41 6 -79 22 -95 50l126 153c62 7 129 -19 145 -59zM3 175l75 353s36 8 105 8c68 0 101 -8 101 -8l-73 -346c-6 -25 2 -38 26 -38c10 0 22 4 36 12l79 372s39 8 105 8
s101 -8 101 -8l-110 -520s-38 -8 -105 -8c-66 0 -84 8 -84 8v41c-42 -41 -89 -59 -138 -59c-109 0 -140 78 -118 185z" />
    <glyph glyph-name="umacron" unicode="&#x16b;" 
d="M225 706h265c1 -30 -12 -83 -24 -114h-265c1 33 12 85 24 114zM3 175l75 353s36 8 105 8c68 0 101 -8 101 -8l-73 -346c-6 -25 2 -38 26 -38c10 0 22 4 36 12l79 372s39 8 105 8s101 -8 101 -8l-110 -520s-38 -8 -105 -8c-66 0 -84 8 -84 8v41c-42 -41 -89 -59 -138 -59
c-109 0 -140 78 -118 185z" />
    <glyph glyph-name="underscore" unicode="_" horiz-adv-x="525" 
d="M398 -142h-460s-4 16 6 61c9 45 20 61 20 61h460s4 -16 -5 -61c-10 -45 -21 -61 -21 -61z" />
    <glyph glyph-name="uni00AD" unicode="&#xad;" horiz-adv-x="254" 
 />
    <glyph glyph-name="Tcommaaccent" unicode="&#x162;" horiz-adv-x="592" 
d="M106 720h557s2 -36 -9 -89c-11 -51 -29 -89 -29 -89h-167l-113 -533s-50 -9 -111 -9c-66 0 -107 9 -107 9l113 533h-172s-2 36 9 87c12 56 29 91 29 91zM149 -425l-64 51s45 46 64 116c-36 2 -68 8 -68 8l42 195s40 8 104 8c61 0 102 -8 102 -8l-33 -155
c-28 -133 -147 -215 -147 -215z" />
    <glyph glyph-name="Tcommaaccent" unicode="&#x21a;" horiz-adv-x="592" 
d="M106 720h557s2 -36 -9 -89c-11 -51 -29 -89 -29 -89h-167l-113 -533s-50 -9 -111 -9c-66 0 -107 9 -107 9l113 533h-172s-2 36 9 87c12 56 29 91 29 91zM149 -425l-64 51s45 46 64 116c-36 2 -68 8 -68 8l42 195s40 8 104 8c61 0 102 -8 102 -8l-33 -155
c-28 -133 -147 -215 -147 -215z" />
    <glyph glyph-name="tcommaaccent" unicode="&#x163;" horiz-adv-x="392" 
d="M288 383l-41 -193c-8 -40 11 -51 45 -51c27 0 51 6 51 6s11 -24 -1 -81c-9 -38 -20 -60 -20 -60c-39 -9 -79 -14 -122 -14c-148 0 -191 48 -159 199l41 194h-58s0 29 8 71c10 46 23 72 23 72h58l20 94c56 24 145 33 211 25l-25 -119h88s1 -26 -8 -71
c-9 -43 -23 -72 -23 -72h-88zM86 -408l-63 50s44 45 63 113c-35 2 -67 8 -67 8l42 191s39 8 102 8c59 0 100 -8 100 -8l-33 -152c-27 -130 -144 -210 -144 -210z" />
    <glyph glyph-name="tcommaaccent" unicode="&#x21b;" horiz-adv-x="392" 
d="M288 383l-41 -193c-8 -40 11 -51 45 -51c27 0 51 6 51 6s11 -24 -1 -81c-9 -38 -20 -60 -20 -60c-39 -9 -79 -14 -122 -14c-148 0 -191 48 -159 199l41 194h-58s0 29 8 71c10 46 23 72 23 72h58l20 94c56 24 145 33 211 25l-25 -119h88s1 -26 -8 -71
c-9 -43 -23 -72 -23 -72h-88zM86 -408l-63 50s44 45 63 113c-35 2 -67 8 -67 8l42 191s39 8 102 8c59 0 100 -8 100 -8l-33 -152c-27 -130 -144 -210 -144 -210z" />
    <glyph glyph-name="uni0401" unicode="&#x401;" horiz-adv-x="568" 
d="M224 915c0 0 33 7 90 7c56 0 86 -7 86 -7l-31 -148s-33 -7 -89 -7s-87 7 -87 7zM449 915c0 0 33 7 90 7c56 0 86 -7 86 -7l-31 -148s-33 -7 -89 -7s-87 7 -87 7zM136 720h483c2 -15 1 -44 -6 -76c-7 -34 -18 -65 -28 -82h-265l-25 -121h215c1 -18 1 -39 -6 -76
c-9 -38 -17 -59 -27 -78h-215l-27 -129h275c2 -18 0 -47 -7 -78c-7 -32 -16 -61 -27 -80h-493z" />
    <glyph glyph-name="uni0410" unicode="&#x410;" horiz-adv-x="692" 
d="M290 711c0 0 50 9 145 9c99 0 141 -9 141 -9l59 -702s-40 -9 -112 -9c-67 0 -103 9 -103 9l-9 120h-211l-59 -120s-42 -9 -107 -9s-102 9 -102 9zM395 540h-4s-15 -60 -48 -128l-71 -140h129l-10 140c-5 68 4 128 4 128z" />
    <glyph glyph-name="uni0411" unicode="&#x411;" horiz-adv-x="634" 
d="M136 720h501s11 -23 -2 -83c-11 -54 -33 -82 -33 -82h-283l-20 -94h103c172 0 233 -104 203 -244s-129 -217 -301 -217h-321zM266 307l-33 -154h63c44 0 76 23 88 78s-11 76 -55 76h-63z" />
    <glyph glyph-name="uni0412" unicode="&#x412;" horiz-adv-x="636" 
d="M136 720h316c150 0 217 -64 189 -197c-16 -74 -60 -123 -117 -152c57 -28 88 -81 70 -166c-32 -149 -132 -205 -291 -205h-320zM294 441h62c34 0 60 21 70 66c10 46 -8 65 -42 65h-62zM231 148h64c43 0 73 17 84 70c12 54 -11 69 -54 69h-64z" />
    <glyph glyph-name="uni0413" unicode="&#x413;" horiz-adv-x="499" 
d="M136 720h435s4 -28 -8 -86c-10 -48 -27 -79 -27 -79h-217l-116 -546s-47 -9 -110 -9c-62 0 -108 9 -108 9z" />
    <glyph glyph-name="uni0414" unicode="&#x414;" horiz-adv-x="740" 
d="M616 158h78l-63 -296c-29 -6 -58 -10 -100 -10c-43 0 -78 3 -104 10l29 138h-311l-29 -138c-30 -6 -62 -9 -104 -9s-75 3 -100 9l63 296h56c45 25 87 88 122 209l102 353h480zM414 570l-58 -209c-29 -100 -58 -160 -91 -203h135l90 412h-76z" />
    <glyph glyph-name="uni0415" unicode="&#x415;" horiz-adv-x="568" 
d="M136 720h483c2 -15 1 -44 -6 -76c-7 -34 -18 -65 -28 -82h-265l-25 -120h215c1 -18 2 -39 -6 -76c-8 -38 -17 -59 -27 -78h-215l-27 -130h275c2 -18 0 -47 -7 -78c-7 -32 -16 -61 -27 -80h-493z" />
    <glyph glyph-name="uni0416" unicode="&#x416;" horiz-adv-x="976" 
d="M822 711c29 5 58 9 112 9c56 0 85 -4 115 -9l-219 -336l99 -366s-57 -9 -127 -9c-76 0 -109 9 -109 9l-70 289h-26l-61 -289s-38 -9 -111 -9c-69 0 -107 9 -107 9l61 289h-23l-189 -289s-43 -9 -119 -9c-70 0 -123 9 -123 9l259 393l-81 309c32 5 63 9 119 9
c54 0 81 -4 108 -9l62 -261h20l55 261s44 9 112 9s106 -9 106 -9l-55 -261h20z" />
    <glyph glyph-name="uni0417" unicode="&#x417;" horiz-adv-x="573" 
d="M102 692c0 0 105 43 243 43c192 0 262 -69 234 -200c-16 -76 -55 -137 -135 -165l-1 -3c71 -31 102 -90 84 -176c-27 -127 -131 -206 -348 -206c-143 0 -230 45 -230 45c12 53 39 111 83 148c30 -10 96 -24 153 -24c86 0 116 22 126 67c9 44 -15 66 -94 66h-92
c-6 32 14 125 33 155h92c73 0 94 26 102 63c9 40 -10 65 -75 65c-76 0 -144 -22 -144 -22c-36 29 -44 90 -31 144z" />
    <glyph glyph-name="uni0418" unicode="&#x418;" horiz-adv-x="706" 
d="M491 711c0 0 46 9 128 9s125 -9 125 -9l-149 -702s-49 -9 -111 -9c-67 0 -107 9 -107 9l46 216c28 135 81 266 81 266h-6s-44 -105 -107 -217l-147 -265c-1 0 -46 -9 -132 -9c-91 0 -127 9 -127 9l149 702s48 9 110 9c63 0 108 -9 109 -9l-45 -214
c-34 -157 -80 -260 -80 -260h6c23 49 49 109 106 209z" />
    <glyph glyph-name="uni0419" unicode="&#x419;" horiz-adv-x="706" 
d="M486 926c80 0 140 44 140 44c34 -22 58 -70 57 -120c0 0 -85 -83 -231 -83s-195 83 -195 83c19 51 62 98 107 120c0 0 42 -44 122 -44zM491 711c0 0 46 9 128 9s125 -9 125 -9l-149 -702s-49 -9 -111 -9c-67 0 -107 9 -107 9l46 216c28 135 81 266 81 266h-6
s-44 -105 -107 -217l-147 -265c-1 0 -46 -9 -132 -9c-91 0 -127 9 -127 9l149 702s48 9 110 9c63 0 108 -9 109 -9l-45 -214c-34 -157 -80 -260 -80 -260h6c23 49 49 109 106 209z" />
    <glyph glyph-name="uni041A" unicode="&#x41a;" horiz-adv-x="656" 
d="M323 450l176 261c29 5 63 9 117 9c56 0 85 -4 115 -9l-235 -338l115 -364s-57 -9 -127 -9c-76 0 -105 9 -105 9l-81 289h-34l-61 -289s-38 -9 -111 -9c-69 0 -107 9 -107 9l149 702s44 9 112 9s106 -9 106 -9l-55 -261h26z" />
    <glyph glyph-name="uni041B" unicode="&#x41b;" horiz-adv-x="704" 
d="M46 -10c-47 0 -77 7 -96 15c-3 20 -3 44 4 74c6 31 17 57 29 80c12 -2 26 -3 45 1c38 8 95 41 153 240l93 320h470l-151 -711s-46 -9 -108 -9c-67 0 -110 9 -109 9l115 543h-78l-42 -154c-89 -318 -205 -408 -325 -408z" />
    <glyph glyph-name="uni041C" unicode="&#x41c;" horiz-adv-x="832" 
d="M598 711c0 0 44 9 129 9c24 0 109 -3 143 -9l-149 -702s-39 -9 -103 -9c-65 0 -100 9 -100 9l41 192c28 131 86 291 87 291h-7c-4 -6 -46 -122 -87 -197l-90 -166s-32 -10 -96 -10c-65 0 -92 10 -92 10c-5 53 -10 106 -16 159c-10 86 -2 203 -1 204h-7
c-1 -2 -8 -157 -36 -291l-41 -192s-37 -9 -94 -9c-60 0 -94 9 -94 9l149 702c43 5 108 9 138 9c88 0 128 -9 128 -9l19 -185c7 -77 3 -141 -2 -187h4c8 35 26 79 50 131c35 76 84 162 127 241z" />
    <glyph glyph-name="uni041D" unicode="&#x41d;" horiz-adv-x="686" 
d="M451 453l55 258s49 9 111 9s107 -9 107 -9l-149 -702s-48 -9 -110 -9c-67 0 -108 9 -108 9l59 276h-154l-59 -276s-50 -9 -111 -9c-66 0 -107 9 -107 9l149 702s48 9 110 9c63 0 108 -9 108 -9l-55 -258h154z" />
    <glyph glyph-name="uni041E" unicode="&#x41e;" horiz-adv-x="697" 
d="M40 383c56 259 194 352 395 352s301 -137 245 -399c-55 -262 -195 -351 -395 -351c-201 0 -300 136 -245 398zM454 360c38 175 16 214 -48 214c-62 0 -101 -39 -139 -214c-37 -174 -14 -214 48 -214c64 0 102 40 139 214z" />
    <glyph glyph-name="uni041F" unicode="&#x41f;" horiz-adv-x="674" 
d="M714 720l-151 -711s-38 -9 -110 -9c-77 0 -108 9 -108 9l116 546h-142l-116 -546s-40 -9 -111 -9c-76 0 -107 9 -107 9l151 711h578z" />
    <glyph glyph-name="uni0420" unicode="&#x420;" horiz-adv-x="610" 
d="M253 243l-50 -234s-44 -9 -111 -9s-107 9 -107 9l151 711h293c165 0 233 -101 199 -260c-33 -159 -135 -217 -300 -217h-75zM287 403h42c41 0 72 24 83 79c12 56 -9 78 -50 78h-42z" />
    <glyph glyph-name="uni0421" unicode="&#x421;" horiz-adv-x="575" 
d="M38 379c52 244 195 356 411 356c135 0 194 -45 194 -45c-12 -54 -41 -104 -91 -139c0 0 -45 19 -104 19c-96 0 -149 -51 -183 -211s-2 -209 94 -209c61 0 120 22 120 22c34 -32 46 -87 33 -142c0 0 -73 -45 -222 -45c-216 0 -303 150 -252 394z" />
    <glyph glyph-name="uni0422" unicode="&#x422;" horiz-adv-x="592" 
d="M106 720h557s2 -36 -9 -89c-11 -51 -29 -89 -29 -89h-167l-113 -533s-50 -9 -111 -9c-66 0 -107 9 -107 9l113 533h-172s-2 36 9 87c12 56 29 91 29 91z" />
    <glyph glyph-name="uni0423" unicode="&#x423;" horiz-adv-x="647" 
d="M523 711c0 0 47 9 108 9c56 0 103 -9 103 -9l-286 -518c-74 -134 -173 -193 -302 -193c-61 0 -111 15 -111 15s-5 35 4 78c9 44 26 79 26 79s35 -7 75 -7c37 0 67 15 98 50h-39l-127 496s50 9 117 9c72 0 110 -9 110 -9l41 -192c14 -66 14 -119 14 -119h4s20 47 59 119z
" />
    <glyph glyph-name="uni0424" unicode="&#x424;" horiz-adv-x="817" 
d="M375 670l12 56s41 9 110 9c70 0 108 -9 108 -9l-12 -56c177 0 270 -97 225 -311c-46 -214 -173 -277 -350 -277l-15 -73s-45 -9 -111 -9c-70 0 -107 9 -107 9l15 73c-177 0 -268 95 -222 309c45 214 170 279 347 279zM293 234l60 284c-54 0 -94 -27 -118 -142
c-25 -116 4 -142 58 -142zM551 518l-60 -284c53 0 94 28 118 142c25 116 -4 142 -58 142z" />
    <glyph glyph-name="uni0425" unicode="&#x425;" horiz-adv-x="652" 
d="M502 711c36 6 80 9 119 9c38 0 78 -4 114 -9l-251 -347l121 -355s-41 -9 -119 -9c-74 0 -112 9 -112 9l-74 199l-143 -199c-32 -5 -76 -9 -113 -9c-45 0 -83 3 -119 9l272 377l-106 325s38 9 126 9c73 0 112 -9 112 -9l59 -160z" />
    <glyph glyph-name="uni0426" unicode="&#x426;" horiz-adv-x="718" 
d="M-17 0l151 711s45 9 111 9c61 0 107 -9 107 -9l-116 -546h142l116 546s45 9 112 9c62 0 106 -9 106 -9l-116 -546h77l-64 -303c-29 -7 -65 -11 -101 -11c-38 0 -76 4 -103 11l29 138h-451z" />
    <glyph glyph-name="uni0427" unicode="&#x427;" horiz-adv-x="659" 
d="M417 420l62 291s49 9 111 9s107 -9 107 -9l-149 -702s-48 -9 -110 -9c-67 0 -108 9 -108 9l53 250c-31 -10 -79 -21 -143 -21c-146 0 -208 73 -174 231l51 242s48 9 110 9c63 0 108 -9 108 -9l-50 -236c-12 -55 5 -73 52 -73c29 0 58 9 80 18z" />
    <glyph glyph-name="uni0428" unicode="&#x428;" horiz-adv-x="974" 
d="M-17 0l151 711s45 9 111 9c61 0 107 -9 107 -9l-116 -546h112l116 546s45 9 112 9c62 0 106 -9 106 -9l-116 -546h112l116 546s45 9 112 9c62 0 106 -9 106 -9l-151 -711h-878z" />
    <glyph glyph-name="uni0429" unicode="&#x429;" horiz-adv-x="1018" 
d="M-17 0l151 711s45 9 111 9c61 0 107 -9 107 -9l-116 -546h112l116 546s45 9 112 9c62 0 106 -9 106 -9l-116 -546h112l116 546s45 9 112 9c62 0 106 -9 106 -9l-116 -546h77l-64 -303c-29 -7 -66 -10 -104 -10c-37 0 -74 3 -100 10l29 138h-751z" />
    <glyph glyph-name="uni042A" unicode="&#x42a;" horiz-adv-x="712" 
d="M390 465h90c165 0 235 -92 202 -248s-136 -217 -301 -217h-308l115 542h-120s-2 36 9 87c12 56 29 91 29 91h338zM356 305l-31 -145h57c41 0 71 19 82 72c11 52 -10 73 -51 73h-57z" />
    <glyph glyph-name="uni042B" unicode="&#x42b;" horiz-adv-x="924" 
d="M134 711c0 0 44 9 111 9s107 -9 107 -9l-52 -246h90c165 0 241 -90 208 -246s-142 -219 -307 -219h-308zM744 711c0 0 51 9 113 9c63 0 105 -9 105 -9l-149 -702s-48 -9 -109 -9c-66 0 -109 9 -109 9zM266 305l-31 -145h57c41 0 71 19 82 72c11 52 -10 73 -51 73h-57z
" />
    <glyph glyph-name="uni042C" unicode="&#x42c;" horiz-adv-x="629" 
d="M300 465h90c165 0 239 -93 206 -249s-140 -216 -305 -216h-308l151 711s44 9 111 9s107 -9 107 -9zM235 160h57c41 0 71 19 82 72c11 52 -10 73 -51 73h-57z" />
    <glyph glyph-name="uni042D" unicode="&#x42d;" horiz-adv-x="601" 
d="M101 690c0 0 96 45 232 45c233 0 304 -147 252 -391c-51 -244 -178 -359 -411 -359c-141 0 -227 45 -227 45c12 55 43 115 85 147c0 0 69 -23 141 -23c76 0 133 26 171 133h-228s-5 29 6 80s27 77 27 77h226c4 97 -41 125 -114 125c-64 0 -130 -20 -130 -20
c-31 29 -42 85 -30 141z" />
    <glyph glyph-name="uni042E" unicode="&#x42e;" horiz-adv-x="984" 
d="M-15 9l149 702s51 9 113 9c63 0 105 -9 105 -9l-58 -271h52c69 203 201 295 380 295c201 0 298 -131 242 -393c-55 -262 -200 -357 -401 -357c-179 0 -273 90 -255 295h-52l-57 -271s-48 -9 -109 -9c-66 0 -109 9 -109 9zM692 574c-62 0 -102 -39 -140 -214
c-37 -174 -13 -214 49 -214c64 0 102 40 139 214c38 175 16 214 -48 214z" />
    <glyph glyph-name="uni042F" unicode="&#x42f;" horiz-adv-x="639" 
d="M679 720l-151 -711s-46 -9 -108 -9c-67 0 -110 9 -110 9l51 241h-32l-163 -241s-39 -9 -115 -9c-80 0 -115 9 -115 9l200 279c-60 36 -86 116 -64 215c29 128 117 217 302 217h305zM427 562h-53c-46 0 -72 -25 -83 -77s5 -77 51 -77h53z" />
    <glyph glyph-name="uni0430" unicode="&#x430;" horiz-adv-x="563" 
d="M378 529c0 0 36 9 98 9s100 -8 100 -8l-111 -522s-40 -8 -100 -8c-61 0 -89 8 -89 8l1 38c-34 -33 -77 -56 -132 -56c-112 0 -172 89 -129 293s123 263 245 263c40 0 87 -15 107 -53zM333 346c1 25 -5 46 -30 46c-38 0 -52 -28 -73 -129c-19 -91 -17 -119 21 -119
c25 0 39 19 47 40z" />
    <glyph glyph-name="uni0431" unicode="&#x431;" horiz-adv-x="582" 
d="M33 351c57 268 155 344 395 377c46 6 60 11 72 29c50 -2 103 -25 121 -61c-26 -93 -74 -129 -171 -136c-171 -13 -207 -25 -245 -115h3c49 47 105 69 170 69c139 0 214 -70 174 -262c-41 -192 -150 -262 -314 -262s-267 73 -205 361zM311 368c-38 0 -52 -27 -70 -116
c-19 -86 -17 -116 21 -116s51 30 70 116c18 86 17 116 -21 116z" />
    <glyph glyph-name="uni0432" unicode="&#x432;" horiz-adv-x="523" 
d="M364 536c119 0 157 -66 139 -151c-10 -46 -39 -89 -91 -112c54 -23 72 -69 60 -127c-20 -94 -91 -146 -220 -146h-282l114 536h280zM240 332h32c19 0 35 13 42 43c6 29 -5 42 -24 42h-32zM194 119h32c27 0 47 11 53 42c8 37 -7 45 -34 45h-32z" />
    <glyph glyph-name="uni0433" unicode="&#x433;" horiz-adv-x="430" 
d="M84 536h379s5 -28 -5 -76c-10 -47 -28 -77 -28 -77h-173l-79 -375s-44 -8 -105 -8c-64 0 -101 8 -101 8z" />
    <glyph glyph-name="uni0434" unicode="&#x434;" horiz-adv-x="623" 
d="M-28 142h41c33 20 62 63 88 156l68 238h427l-84 -394h63l-56 -262c-14 -5 -53 -8 -93 -8c-42 0 -86 3 -103 8l26 120h-211l-26 -120c-16 -5 -57 -8 -99 -8s-84 2 -97 8zM309 391l-32 -112c-16 -58 -36 -102 -58 -137h90l53 249h-53z" />
    <glyph glyph-name="uni0435" unicode="&#x435;" horiz-adv-x="511" 
d="M466 211h-251c-4 -50 20 -59 66 -59c52 0 95 24 95 24c23 -28 48 -88 44 -133c0 0 -58 -53 -202 -53c-168 0 -244 107 -204 296c40 187 146 260 300 260c135 0 218 -81 188 -217c-15 -70 -36 -118 -36 -118zM320 350c8 35 -1 58 -22 58c-23 0 -46 -20 -65 -87h80
c3 9 5 19 7 29z" />
    <glyph glyph-name="uni0436" unicode="&#x436;" horiz-adv-x="828" 
d="M653 530c0 0 28 6 98 6s110 -8 110 -8l-141 -238l52 -278s-43 -12 -117 -12c-65 0 -104 8 -104 8l-31 200h-23l-42 -200s-34 -8 -104 -8c-68 0 -102 8 -102 8l42 200h-25l-114 -200s-45 -8 -110 -8c-74 0 -112 8 -112 8l172 282l-40 238s44 8 114 8s96 -6 96 -6l24 -179
h26l38 179s38 6 105 6c63 0 101 -6 101 -6l-38 -179h25z" />
    <glyph glyph-name="uni0437" unicode="&#x437;" horiz-adv-x="476" 
d="M60 510c0 0 83 36 205 36c162 0 217 -55 197 -150c-12 -55 -38 -96 -88 -117v-3c47 -20 65 -57 51 -120c-23 -107 -97 -166 -276 -166c-124 0 -200 42 -200 42c8 40 40 100 74 129c0 0 53 -21 123 -21c49 0 70 10 75 33c4 22 -11 29 -53 29h-86s-4 29 5 73
c10 44 24 62 24 62h86c35 0 53 11 57 32c5 22 -8 32 -55 32c-65 0 -121 -19 -121 -19c-21 28 -28 78 -18 128z" />
    <glyph glyph-name="uni0438" unicode="&#x438;" horiz-adv-x="575" 
d="M379 528c0 0 48 8 106 8c69 0 102 -8 102 -8l-110 -520s-35 -8 -101 -8c-77 0 -105 8 -105 8l29 139c20 95 74 202 75 203h-6c-1 -1 -46 -94 -105 -196l-86 -146s-39 -8 -106 -8c-68 0 -101 7 -100 8l110 520s40 8 102 8c66 0 104 -8 104 -8l-30 -141
c-20 -95 -75 -201 -75 -201h6s53 104 103 191z" />
    <glyph glyph-name="uni0439" unicode="&#x439;" horiz-adv-x="575" 
d="M387 729c67 0 111 28 111 28c35 -18 60 -53 64 -88c0 0 -70 -87 -206 -87s-170 87 -170 87c22 35 59 70 102 88c0 0 32 -28 99 -28zM379 528c0 0 48 8 106 8c69 0 102 -8 102 -8l-110 -520s-35 -8 -101 -8c-77 0 -105 8 -105 8l29 139c20 95 74 202 75 203h-8
c-1 0 -20 -49 -60 -119l-129 -223s-39 -8 -106 -8c-68 0 -101 7 -100 8l110 520s40 8 102 8c66 0 104 -8 104 -8l-30 -141c-20 -95 -75 -201 -75 -201h8s41 86 101 191z" />
    <glyph glyph-name="uni043A" unicode="&#x43a;" horiz-adv-x="545" 
d="M267 351l106 177s31 8 101 8s110 -8 110 -8l-159 -248l67 -271s-40 -10 -114 -10c-65 0 -98 10 -98 10l-41 199h-19l-42 -199s-34 -9 -104 -9c-68 0 -102 9 -102 9l111 521s38 6 105 6c63 0 101 -6 101 -6l-38 -179h16z" />
    <glyph glyph-name="uni043B" unicode="&#x43b;" horiz-adv-x="582" 
d="M295 290c-65 -252 -154 -296 -273 -296c-44 0 -76 15 -76 15s-4 18 4 58c8 37 31 70 31 70s17 -3 37 1c29 6 62 41 95 156l70 242h413l-112 -528s-40 -8 -103 -8c-69 0 -102 8 -102 8l83 383h-41z" />
    <glyph glyph-name="uni043C" unicode="&#x43c;" horiz-adv-x="670" 
d="M469 528c0 0 45 8 109 8c60 0 104 -8 104 -8l-110 -520s-37 -8 -98 -8c-59 0 -91 8 -91 8l20 96c24 111 82 227 82 227h-9s-26 -62 -72 -141l-62 -107s-23 -7 -60 -7c-38 0 -60 7 -60 7l-16 95c-11 74 -15 153 -15 153h-9s11 -120 -12 -227l-20 -96s-33 -8 -88 -8
c-58 0 -90 8 -90 8l110 520s43 8 106 8c58 0 98 -8 98 -8l29 -139c11 -51 11 -89 11 -108h3c7 18 22 55 56 108z" />
    <glyph glyph-name="uni043D" unicode="&#x43d;" horiz-adv-x="558" 
d="M217 195l-39 -187s-37 -8 -105 -8c-71 0 -101 8 -101 8l110 520s39 8 105 8c61 0 101 -8 101 -8l-38 -182h76l38 182s43 8 105 8c59 0 101 -8 101 -8l-110 -520s-32 -8 -105 -8c-71 0 -101 8 -101 8l39 187h-76z" />
    <glyph glyph-name="uni043E" unicode="&#x43e;" horiz-adv-x="558" 
d="M13 284c43 199 150 262 308 262c159 0 250 -92 207 -293c-43 -199 -151 -263 -309 -263s-249 93 -206 294zM317 268c21 97 14 123 -20 123s-52 -26 -73 -123s-13 -124 21 -124s51 27 72 124z" />
    <glyph glyph-name="uni043F" unicode="&#x43f;" horiz-adv-x="556" 
d="M257 382l-79 -374s-52 -8 -106 -8c-58 0 -100 8 -100 8l112 528h486l-112 -528s-43 -8 -106 -8c-59 0 -100 8 -100 8l79 374h-74z" />
    <glyph glyph-name="uni0440" unicode="&#x440;" horiz-adv-x="567" 
d="M280 487c33 29 79 59 132 59c101 0 167 -67 121 -301c-41 -207 -132 -255 -241 -255c-52 0 -87 19 -108 50l-54 -256s-43 -8 -105 -8s-101 8 -101 8l158 744s43 8 105 8s93 -8 93 -8v-41zM318 269c21 99 15 123 -19 123c-20 0 -41 -16 -51 -51l-27 -131
c-6 -28 -5 -66 26 -66c28 0 47 13 71 125z" />
    <glyph glyph-name="uni0441" unicode="&#x441;" horiz-adv-x="449" 
d="M329 387c-56 0 -84 -30 -103 -120c-19 -87 -2 -115 57 -115c42 0 72 17 72 17c26 -32 37 -83 33 -136c0 0 -74 -43 -188 -43c-162 0 -227 100 -185 298c42 196 138 258 302 258c105 0 162 -38 162 -38c-16 -51 -50 -103 -91 -136c0 0 -21 15 -59 15z" />
    <glyph glyph-name="uni0442" unicode="&#x442;" horiz-adv-x="504" 
d="M66 536h472s4 -28 -7 -78c-10 -47 -26 -77 -26 -77h-133l-79 -373s-41 -8 -105 -8c-67 0 -101 8 -101 8l79 373h-133s-5 30 5 77c11 50 28 78 28 78z" />
    <glyph glyph-name="uni0443" unicode="&#x443;" horiz-adv-x="547" 
d="M353 528c0 0 39 8 105 8s101 -8 101 -8l-111 -520c-45 -183 -164 -258 -331 -258c-112 0 -194 41 -194 41c12 51 36 92 76 132c0 0 48 -23 102 -23c52 0 118 -2 144 118l3 14c-42 -37 -87 -42 -136 -42c-101 0 -133 66 -111 173l78 365s36 8 105 8c68 0 101 -8 101 -8
l-73 -346c-6 -25 2 -38 26 -38c10 0 22 4 36 12z" />
    <glyph glyph-name="uni0444" unicode="&#x444;" horiz-adv-x="813" 
d="M396 742c0 0 40 8 104 8c61 0 102 -8 102 -8l-46 -214s40 18 92 18c139 0 174 -105 135 -288s-115 -268 -253 -268c-50 0 -84 21 -84 21l-53 -253s-44 -8 -105 -8c-64 0 -101 8 -101 8l53 253s-40 -21 -92 -21c-138 0 -168 118 -130 296c39 183 110 260 248 260
c54 0 84 -18 84 -18zM332 395c-1 -1 -10 5 -35 5c-29 0 -52 -14 -77 -132c-26 -120 -8 -131 21 -131c21 0 38 9 38 9zM576 268c25 120 8 132 -21 132c-25 0 -36 -6 -37 -5l-53 -249s13 -9 34 -9c29 0 51 11 77 131z" />
    <glyph glyph-name="uni0445" unicode="&#x445;" horiz-adv-x="557" 
d="M138 283l-86 245s53 8 116 8c66 0 101 -8 101 -8l38 -106l83 106s46 8 107 8c62 0 108 -8 108 -8l-204 -258l108 -262s-53 -8 -116 -8c-66 0 -101 8 -101 8l-55 132l-103 -132s-53 -8 -110 -8c-61 0 -103 8 -103 8z" />
    <glyph glyph-name="uni0446" unicode="&#x446;" horiz-adv-x="596" 
d="M360 528c0 0 41 8 104 8c59 0 102 -8 102 -8l-79 -374h63l-59 -274c-15 -5 -53 -8 -93 -8c-44 0 -89 2 -103 8l26 120h-351l112 528s40 8 104 8c69 0 102 -8 102 -8l-79 -374h72z" />
    <glyph glyph-name="uni0447" unicode="&#x447;" horiz-adv-x="543" 
d="M555 528l-110 -520s-43 -8 -106 -8c-60 0 -100 8 -100 8l35 165s-41 -11 -98 -11c-115 0 -173 50 -144 185l38 181s45 8 104 8s102 -8 102 -8l-39 -183c-5 -25 10 -34 30 -34c22 0 37 5 37 5l45 212s44 8 104 8c63 0 102 -8 102 -8z" />
    <glyph glyph-name="uni0448" unicode="&#x448;" horiz-adv-x="800" 
d="M-30 0l112 528s40 8 104 8c62 0 102 -8 102 -8l-79 -374h56l79 374s40 8 104 8c62 0 102 -8 102 -8l-79 -374h56l79 374s40 8 104 8c62 0 102 -8 102 -8l-112 -528h-730z" />
    <glyph glyph-name="uni0449" unicode="&#x449;" horiz-adv-x="842" 
d="M796 154l-59 -274c-30 -5 -64 -8 -98 -8s-69 2 -98 8l26 120h-597l112 528s40 8 104 8c62 0 102 -8 102 -8l-79 -374h56l79 374s40 8 104 8c62 0 102 -8 102 -8l-79 -374h56l79 374s40 8 104 8c62 0 102 -8 102 -8l-79 -374h63z" />
    <glyph glyph-name="uni044A" unicode="&#x44a;" horiz-adv-x="602" 
d="M337 344h67c128 0 183 -66 159 -183c-25 -117 -104 -161 -232 -161h-273l81 381h-108c-4 21 -1 50 5 79c6 28 16 57 28 76h314zM292 130h23c27 0 43 12 50 42c6 29 -6 42 -33 42h-23z" />
    <glyph glyph-name="uni044B" unicode="&#x44b;" horiz-adv-x="780" 
d="M82 528c26 5 62 8 104 8c43 0 78 -3 102 -8l-39 -184h67c128 0 183 -67 159 -184c-25 -117 -104 -160 -232 -160h-273zM586 528c27 5 62 8 105 8c42 0 76 -3 101 -8l-110 -520c-30 -7 -63 -8 -106 -8c-42 0 -74 1 -100 8zM221 214l-17 -84h23c27 0 43 12 50 42
c6 29 -6 42 -33 42h-23z" />
    <glyph glyph-name="uni044C" unicode="&#x44c;" horiz-adv-x="515" 
d="M249 344h67c128 0 183 -63 159 -180c-25 -117 -104 -164 -232 -164h-273l112 528c19 4 62 8 104 8c43 0 85 -4 102 -8zM204 130h23c27 0 43 12 50 42c6 29 -6 42 -33 42h-23z" />
    <glyph glyph-name="uni044D" unicode="&#x44d;" horiz-adv-x="474" 
d="M217 202h-154s-6 26 4 70c9 42 25 69 25 69h152c-5 39 -32 54 -76 54c-49 0 -88 -14 -88 -14c-24 33 -30 79 -20 129c0 0 83 36 193 36c166 0 231 -104 189 -300c-42 -198 -143 -256 -308 -256c-120 0 -185 42 -185 42c14 53 37 95 73 130c0 0 41 -18 96 -18
c47 0 78 16 99 58z" />
    <glyph glyph-name="uni044E" unicode="&#x44e;" horiz-adv-x="814" 
d="M289 342c55 146 157 204 294 204c159 0 244 -92 201 -293s-161 -263 -319 -263c-135 0 -212 56 -207 197h-42l-38 -179c-19 -4 -53 -8 -106 -8c-52 0 -83 4 -100 8l110 520c19 4 52 8 105 8c52 0 84 -4 101 -8l-39 -186h40zM570 268c21 97 14 123 -20 123
s-52 -26 -73 -123s-13 -124 21 -124s51 27 72 124z" />
    <glyph glyph-name="uni044F" unicode="&#x44f;" horiz-adv-x="527" 
d="M244 171l-100 -163c-24 -4 -56 -8 -103 -8c-48 0 -77 2 -105 8l134 200c-35 33 -47 77 -32 148c23 109 101 180 232 180h271l-112 -528c-25 -5 -62 -8 -104 -8c-43 0 -76 3 -99 8l34 163h-16zM285 402c-23 0 -41 -15 -49 -51c-8 -34 5 -51 28 -51h24l21 102h-24z" />
    <glyph glyph-name="uni0451" unicode="&#x451;" horiz-adv-x="511" 
d="M149 733c0 0 32 7 89 7c56 0 87 -7 87 -7l-32 -148s-33 -7 -89 -7s-87 7 -87 7zM374 733c0 0 32 7 89 7c56 0 87 -7 87 -7l-32 -148s-33 -7 -89 -7s-87 7 -87 7zM466 211h-251c-4 -50 20 -59 66 -59c52 0 95 24 95 24c23 -28 48 -88 44 -133c0 0 -58 -53 -202 -53
c-168 0 -244 107 -204 296c40 187 146 260 300 260c135 0 218 -81 188 -217c-15 -70 -36 -118 -36 -118zM320 350c8 35 -1 58 -22 58c-23 0 -46 -20 -65 -87h80c3 9 5 19 7 29z" />
    <glyph glyph-name="uni2113" unicode="&#x2113;" horiz-adv-x="514" 
d="M164 541c25 119 92 209 242 209c112 0 175 -42 153 -149c-29 -136 -132 -243 -278 -335l-19 -91c-6 -31 3 -39 23 -39c39 0 93 49 93 49c32 -19 55 -55 57 -94c0 0 -96 -101 -227 -101c-87 0 -149 34 -128 155l3 14l-48 -21c-26 25 -39 68 -30 119c39 17 76 35 110 53z
M390 589c8 37 6 45 -8 45c-16 0 -33 -10 -51 -95l-16 -72c41 42 67 83 75 122z" />
    <glyph glyph-name="uni2117" unicode="&#x2117;" horiz-adv-x="790" 
d="M32 340c44 205 244 370 449 370s335 -165 291 -370c-43 -205 -243 -370 -448 -370s-335 165 -292 370zM640 340c29 134 -53 241 -187 241s-260 -107 -289 -241c-28 -134 53 -241 187 -241s261 107 289 241zM329 523h155c79 0 119 -50 101 -136
c-18 -88 -80 -136 -159 -136h-40l-22 -104c-32 -12 -86 -12 -115 0zM423 425l-15 -74h20c23 0 34 11 39 37c6 25 -1 37 -24 37h-20z" />
    <glyph glyph-name="uni2153" unicode="&#x2153;" horiz-adv-x="773" 
d="M567 695c0 0 26 7 78 7s76 -7 76 -7l-535 -698s-30 -7 -78 -7c-46 0 -75 7 -75 7zM204 683c14 3 43 5 71 5c24 0 48 -2 61 -5l-71 -333c-18 -3 -42 -5 -65 -5c-25 0 -50 1 -71 5l33 155c4 16 8 35 14 51c-22 -13 -53 -24 -80 -27c-13 21 -18 62 -9 95c48 12 86 31 117 59
zM474 328c0 0 57 20 125 20c108 0 141 -34 128 -93c-9 -41 -32 -63 -67 -74c30 -11 54 -35 44 -81c-13 -62 -52 -105 -175 -105c-84 0 -127 23 -127 23c5 26 25 60 45 77c0 0 32 -10 67 -10c40 0 53 8 57 26c4 19 -3 24 -35 24h-48c-4 22 5 65 18 87h48c23 0 31 3 34 18
c3 13 -3 19 -35 19c-35 0 -65 -8 -65 -8c-14 17 -20 45 -14 77z" />
    <glyph glyph-name="uni2154" unicode="&#x2154;" horiz-adv-x="803" 
d="M67 -3l534 698s26 7 78 7s76 -7 76 -7l-535 -698s-30 -7 -78 -7c-46 0 -75 7 -75 7zM45 407c28 129 176 118 186 168c3 14 -10 20 -32 20c-18 1 -44 -3 -74 -10c-11 21 -13 59 -1 92c0 0 56 17 123 17c88 0 130 -30 115 -102c-25 -115 -124 -103 -177 -143h129
c2 -16 0 -34 -4 -53c-3 -17 -9 -35 -17 -50h-253s-2 25 5 61zM738 100c-13 -62 -52 -105 -175 -105c-84 0 -127 23 -127 23c5 26 25 60 45 77c0 0 32 -10 67 -10c40 0 53 8 57 26c4 19 -3 24 -35 24h-48c-4 22 5 65 18 87h48c23 0 31 3 34 18c3 13 -3 19 -35 19
c-35 0 -65 -8 -65 -8c-14 17 -20 45 -14 77c0 0 57 20 125 20c108 0 141 -34 128 -93c-9 -41 -32 -63 -67 -74c30 -11 54 -35 44 -81z" />
    <glyph glyph-name="uni2196" unicode="&#x2196;" horiz-adv-x="523" 
d="M96 560h347c4 -15 4 -34 0 -54c-5 -19 -13 -38 -23 -52h-147l209 -263c-25 -42 -73 -79 -116 -95l-207 263l-30 -146c-15 -5 -34 -8 -53 -8c-20 0 -41 2 -55 8z" />
    <glyph glyph-name="uni2197" unicode="&#x2197;" horiz-adv-x="524" 
d="M535 560l-73 -347c-16 -6 -37 -8 -57 -8c-19 0 -38 3 -51 8l31 146l-318 -263c-35 16 -67 53 -74 95l319 263h-147c-4 14 -4 33 1 52c4 20 12 39 22 54h347z" />
    <glyph glyph-name="uni2198" unicode="&#x2198;" horiz-adv-x="543" 
d="M376 313l32 147c15 5 34 8 53 8c20 0 41 -2 55 -8l-75 -347h-347c-4 15 -4 34 0 54c4 19 13 38 23 52h147l-209 263c25 42 73 79 116 95z" />
    <glyph glyph-name="uni2199" unicode="&#x2199;" horiz-adv-x="541" 
d="M167 313l320 264c35 -16 67 -53 74 -95l-319 -263h147c4 -14 3 -33 -1 -52c-4 -20 -12 -39 -22 -54h-347l73 347c16 6 37 8 57 8c19 0 38 -3 51 -8z" />
    <glyph glyph-name="uni2215" unicode="&#x2215;" horiz-adv-x="505" 
d="M-84 -3l534 698s26 7 78 7s76 -7 76 -7l-535 -698s-30 -7 -78 -7c-46 0 -75 7 -75 7z" />
    <glyph glyph-name="uni2219" unicode="&#x2219;" horiz-adv-x="264" 
d="M115 227c-56 0 -103 36 -88 109c16 72 79 109 135 109c54 0 102 -37 86 -109c-15 -73 -79 -109 -133 -109z" />
    <glyph glyph-name="uogonek" unicode="&#x173;" 
d="M352 528c0 0 39 8 105 8s101 -8 101 -8l-110 -520c-49 -16 -83 -43 -93 -88c-6 -26 10 -37 30 -37c17 0 30 5 30 5c16 -13 21 -40 15 -64c0 0 -46 -29 -117 -29c-64 0 -113 34 -99 103c8 36 26 69 60 92l-6 47c-50 -37 -98 -47 -147 -47c-101 0 -141 72 -120 174l77 364
s36 8 105 8c68 0 101 -8 101 -8l-73 -346c-6 -25 2 -38 26 -38c10 0 22 3 36 12z" />
    <glyph glyph-name="uring" unicode="&#x16f;" 
d="M182 721c18 103 110 156 197 156c86 0 162 -52 144 -156c-17 -102 -105 -158 -198 -158c-97 0 -160 57 -143 158zM395 721c5 21 -5 41 -35 41c-29 0 -47 -21 -52 -41c-4 -21 5 -42 34 -42c30 0 49 22 53 42zM3 175l75 353s36 8 105 8c68 0 101 -8 101 -8l-73 -346
c-6 -25 2 -38 26 -38c10 0 22 4 36 12l79 372s39 8 105 8s101 -8 101 -8l-110 -520s-38 -8 -105 -8c-66 0 -84 8 -84 8v41c-42 -41 -89 -59 -138 -59c-109 0 -140 78 -118 185z" />
    <glyph glyph-name="utilde" unicode="&#x169;" 
d="M162 700c0 0 47 51 111 51c71 0 95 -32 157 -32c42 0 64 26 64 26c36 -22 47 -70 41 -112c0 0 -40 -51 -111 -51s-96 32 -158 32c-37 0 -64 -26 -64 -26c-35 21 -49 65 -40 112zM3 175l75 353s36 8 105 8c68 0 101 -8 101 -8l-73 -346c-6 -25 2 -38 26 -38
c10 0 22 4 36 12l79 372s39 8 105 8s101 -8 101 -8l-110 -520s-38 -8 -105 -8c-66 0 -84 8 -84 8v41c-42 -41 -89 -59 -138 -59c-109 0 -140 78 -118 185z" />
    <glyph glyph-name="v" unicode="v" horiz-adv-x="545" 
d="M244 528l8 -130c6 -118 -13 -218 -13 -218h4s26 100 85 219l63 129s41 8 105 8c59 0 98 -8 98 -8l-256 -520s-48 -8 -130 -8c-85 0 -126 8 -126 8l-40 520s48 8 109 8c56 0 93 -8 93 -8z" />
    <glyph glyph-name="w" unicode="w" horiz-adv-x="807" 
d="M386 8l2 122c1 75 15 167 30 241h-4c-17 -74 -41 -166 -70 -241l-48 -122c-40 -6 -80 -8 -121 -8c-42 0 -86 2 -126 8l-3 520s40 8 100 8c63 0 89 -8 89 -8l1 -129c0 -77 -7 -155 -16 -219h3c18 65 42 143 75 219l55 129s46 8 104 8c61 0 100 -8 100 -8l2 -129
c1 -76 -9 -154 -19 -219h4c17 64 41 142 75 219l54 129s33 8 90 8c58 0 88 -8 88 -8l-218 -520c-35 -6 -80 -8 -126 -8c-45 0 -89 2 -121 8z" />
    <glyph glyph-name="wacute" unicode="&#x1e83;" horiz-adv-x="807" 
d="M637 739l-192 -157c-44 7 -85 24 -103 55l137 167c67 7 140 -21 158 -65zM386 8l2 122c1 75 15 167 30 241h-4c-17 -74 -41 -166 -70 -241l-48 -122c-40 -6 -80 -8 -121 -8c-42 0 -86 2 -126 8l-3 520s40 8 100 8c63 0 89 -8 89 -8l1 -129c0 -77 -7 -155 -16 -219h3
c18 65 42 143 75 219l55 129s46 8 104 8c61 0 100 -8 100 -8l2 -129c1 -76 -9 -154 -19 -219h4c17 64 41 142 75 219l54 129s33 8 90 8c58 0 88 -8 88 -8l-218 -520c-35 -6 -80 -8 -126 -8c-45 0 -89 2 -121 8z" />
    <glyph glyph-name="wcircumflex" unicode="&#x175;" horiz-adv-x="807" 
d="M548 826l144 -155c-26 -38 -64 -72 -104 -89l-103 72l-133 -71c-35 17 -57 50 -66 88l208 155h54zM386 8l2 122c1 75 15 167 30 241h-4c-17 -74 -41 -166 -70 -241l-48 -122c-40 -6 -80 -8 -121 -8c-42 0 -86 2 -126 8l-3 520s40 8 100 8c63 0 89 -8 89 -8l1 -129
c0 -77 -7 -155 -16 -219h3c18 65 42 143 75 219l55 129s46 8 104 8c61 0 100 -8 100 -8l2 -129c1 -76 -9 -154 -19 -219h4c17 64 41 142 75 219l54 129s33 8 90 8c58 0 88 -8 88 -8l-218 -520c-35 -6 -80 -8 -126 -8c-45 0 -89 2 -121 8z" />
    <glyph glyph-name="wdieresis" unicode="&#x1e85;" horiz-adv-x="807" 
d="M478 737l-32 -148s-33 -7 -89 -7s-87 7 -87 7l32 148s32 7 89 7c56 0 87 -7 87 -7zM703 737l-32 -148s-33 -7 -89 -7s-87 7 -87 7l32 148s32 7 89 7c56 0 87 -7 87 -7zM386 8l2 122c1 75 15 167 30 241h-4c-17 -74 -41 -166 -70 -241l-48 -122c-40 -6 -80 -8 -121 -8
c-42 0 -86 2 -126 8l-3 520s40 8 100 8c63 0 89 -8 89 -8l1 -129c0 -77 -7 -155 -16 -219h3c18 65 42 143 75 219l55 129s46 8 104 8c61 0 100 -8 100 -8l2 -129c1 -76 -9 -154 -19 -219h4c17 64 41 142 75 219l54 129s33 8 90 8c58 0 88 -8 88 -8l-218 -520
c-35 -6 -80 -8 -126 -8c-45 0 -89 2 -121 8z" />
    <glyph glyph-name="wgrave" unicode="&#x1e81;" horiz-adv-x="807" 
d="M443 583l-126 157c37 44 122 72 186 65l66 -167c-31 -31 -80 -48 -126 -55zM386 8l2 122c1 75 15 167 30 241h-4c-17 -74 -41 -166 -70 -241l-48 -122c-40 -6 -80 -8 -121 -8c-42 0 -86 2 -126 8l-3 520s40 8 100 8c63 0 89 -8 89 -8l1 -129c0 -77 -7 -155 -16 -219h3
c18 65 42 143 75 219l55 129s46 8 104 8c61 0 100 -8 100 -8l2 -129c1 -76 -9 -154 -19 -219h4c17 64 41 142 75 219l54 129s33 8 90 8c58 0 88 -8 88 -8l-218 -520c-35 -6 -80 -8 -126 -8c-45 0 -89 2 -121 8z" />
    <glyph glyph-name="x" unicode="x" horiz-adv-x="557" 
d="M138 283l-86 245s53 8 116 8c66 0 101 -8 101 -8l38 -106l83 106s46 8 107 8c62 0 108 -8 108 -8l-204 -258l108 -262s-53 -8 -116 -8c-66 0 -101 8 -101 8l-55 132l-103 -132s-53 -8 -110 -8c-61 0 -103 8 -103 8z" />
    <glyph glyph-name="y" unicode="y" horiz-adv-x="547" 
d="M353 528c0 0 39 8 105 8s101 -8 101 -8l-111 -520c-45 -183 -164 -258 -331 -258c-112 0 -194 41 -194 41c12 51 36 92 76 132c0 0 48 -23 102 -23c52 0 118 -2 144 118l3 14c-42 -37 -87 -42 -136 -42c-101 0 -133 66 -111 173l78 365s36 8 105 8c68 0 101 -8 101 -8
l-73 -346c-6 -25 2 -38 26 -38c10 0 22 4 36 12z" />
    <glyph glyph-name="yacute" unicode="&#xfd;" horiz-adv-x="547" 
d="M517 734l-192 -157c-44 7 -85 24 -103 55l137 167c67 7 140 -21 158 -65zM353 528c0 0 39 8 105 8s101 -8 101 -8l-111 -520c-45 -183 -164 -258 -331 -258c-112 0 -194 41 -194 41c12 51 36 92 76 132c0 0 48 -23 102 -23c52 0 118 -2 144 118l3 14
c-42 -37 -87 -42 -136 -42c-101 0 -133 66 -111 173l78 365s36 8 105 8c68 0 101 -8 101 -8l-73 -346c-6 -25 2 -38 26 -38c10 0 22 4 36 12z" />
    <glyph glyph-name="ycircumflex" unicode="&#x177;" horiz-adv-x="547" 
d="M393 795l156 -138c-26 -38 -64 -72 -104 -89l-103 72l-133 -71c-34 17 -57 50 -66 88l196 138h54zM353 528c0 0 39 8 105 8s101 -8 101 -8l-111 -520c-45 -183 -164 -258 -331 -258c-112 0 -194 41 -194 41c12 51 36 92 76 132c0 0 48 -23 102 -23c52 0 118 -2 144 118
l3 14c-42 -37 -87 -42 -136 -42c-101 0 -133 66 -111 173l78 365s36 8 105 8c68 0 101 -8 101 -8l-73 -346c-6 -25 2 -38 26 -38c10 0 22 4 36 12z" />
    <glyph glyph-name="ydieresis" unicode="&#xff;" horiz-adv-x="547" 
d="M339 737l-32 -148s-33 -7 -89 -7s-87 7 -87 7l32 148s32 7 89 7c56 0 87 -7 87 -7zM564 737l-32 -148s-33 -7 -89 -7s-87 7 -87 7l32 148s32 7 89 7c56 0 87 -7 87 -7zM353 528c0 0 39 8 105 8s101 -8 101 -8l-111 -520c-45 -183 -164 -258 -331 -258
c-112 0 -194 41 -194 41c12 51 36 92 76 132c0 0 48 -23 102 -23c52 0 118 -2 144 118l3 14c-42 -37 -87 -42 -136 -42c-101 0 -133 66 -111 173l78 365s36 8 105 8c68 0 101 -8 101 -8l-73 -346c-6 -25 2 -38 26 -38c10 0 22 4 36 12z" />
    <glyph glyph-name="yen" unicode="&#xa5;" horiz-adv-x="652" 
d="M505 676c0 0 45 8 106 8c56 0 100 -8 100 -8l-228 -288h69c1 -17 -2 -38 -6 -58c-4 -21 -11 -41 -18 -59h-127l-11 -48h127c1 -16 -1 -35 -5 -54c-5 -22 -11 -44 -20 -63h-127l-20 -97s-53 -9 -91 -9c-37 0 -86 9 -86 9l20 97h-130c1 20 3 41 8 62c4 20 10 38 17 55h130
l11 48h-130c-1 18 2 38 6 58c4 21 11 41 18 59h73l-95 285s46 11 112 11c63 0 105 -10 105 -10l56 -169z" />
    <glyph glyph-name="ygrave" unicode="&#x1ef3;" horiz-adv-x="547" 
d="M317 570l-126 157c37 44 121 72 186 65l66 -167c-31 -31 -80 -48 -126 -55zM353 528c0 0 39 8 105 8s101 -8 101 -8l-111 -520c-45 -183 -164 -258 -331 -258c-112 0 -194 41 -194 41c12 51 36 92 76 132c0 0 48 -23 102 -23c52 0 118 -2 144 118l3 14
c-42 -37 -87 -42 -136 -42c-101 0 -133 66 -111 173l78 365s36 8 105 8c68 0 101 -8 101 -8l-73 -346c-6 -25 2 -38 26 -38c10 0 22 4 36 12z" />
    <glyph glyph-name="z" unicode="z" horiz-adv-x="491" 
d="M223 153h204s5 -25 -6 -76c-10 -49 -26 -77 -26 -77h-432c-1 25 3 52 9 79c5 25 13 50 23 74l251 230h-194s-2 30 8 76c9 45 25 77 25 77h423c0 -22 -2 -47 -7 -72c-6 -28 -14 -55 -26 -81z" />
    <glyph glyph-name="zacute" unicode="&#x17a;" horiz-adv-x="491" 
d="M502 739l-192 -157c-44 7 -85 24 -103 55l137 167c67 7 140 -21 158 -65zM223 153h204s5 -25 -6 -76c-10 -49 -26 -77 -26 -77h-432c-1 25 3 52 9 79c5 25 13 50 23 74l251 230h-194s-2 30 8 76c9 45 25 77 25 77h423c0 -22 -2 -47 -7 -72c-6 -28 -14 -55 -26 -81z" />
    <glyph glyph-name="zcaron" unicode="&#x17e;" horiz-adv-x="491" 
d="M290 582l-133 143c24 36 58 67 96 84l95 -67l123 66c31 -17 53 -47 60 -83l-191 -143h-50zM223 153h204s5 -25 -6 -76c-10 -49 -26 -77 -26 -77h-432c-1 25 3 52 9 79c5 25 13 50 23 74l251 230h-194s-2 30 8 76c9 45 25 77 25 77h423c0 -22 -2 -47 -7 -72
c-6 -28 -14 -55 -26 -81z" />
    <glyph glyph-name="zdotaccent" unicode="&#x17c;" horiz-adv-x="491" 
d="M445 765l-37 -174s-36 -8 -95 -8s-91 8 -91 8l37 174s34 7 94 7c59 0 92 -7 92 -7zM223 153h204s5 -25 -6 -76c-10 -49 -26 -77 -26 -77h-432c-1 25 3 52 9 79c5 25 13 50 23 74l251 230h-194s-2 30 8 76c9 45 25 77 25 77h423c0 -22 -2 -47 -7 -72
c-6 -28 -14 -55 -26 -81z" />
    <glyph glyph-name="zero" unicode="0" horiz-adv-x="633" 
d="M248 -20c-192 0 -268 106 -214 360c54 251 175 360 367 360s267 -106 213 -360s-174 -360 -366 -360zM367 539c-46 0 -71 -32 -107 -199c-35 -167 -24 -199 22 -199s71 33 106 199c36 167 25 199 -21 199z" />
    <glyph glyph-name="zero.denom" horiz-adv-x="353" 
d="M110 -5c-99 0 -149 52 -122 177c26 123 98 176 197 176c98 0 150 -51 124 -176c-27 -125 -101 -177 -199 -177zM164 249c-16 0 -23 -11 -37 -77c-15 -68 -12 -76 4 -76c15 0 22 8 37 76c14 66 11 77 -4 77z" />
    <glyph glyph-name="zero.num" horiz-adv-x="353" 
d="M183 341c-99 0 -149 52 -122 177c26 123 98 176 197 176c98 0 151 -51 124 -176s-101 -177 -199 -177zM237 595c-16 0 -23 -11 -37 -77c-14 -68 -11 -76 5 -76c15 0 22 8 36 76c14 66 11 77 -4 77z" />
    <glyph glyph-name="zeroinferior" unicode="&#x2080;" horiz-adv-x="353" 
d="M88 -101c-99 0 -148 52 -122 177c26 123 99 176 198 176c98 0 150 -51 123 -176c-26 -125 -101 -177 -199 -177zM142 153c-16 0 -23 -11 -37 -77c-14 -68 -11 -76 5 -76c15 0 22 8 36 76c14 66 11 77 -4 77z" />
    </font>
</defs>
</svg>
