<?xml version="1.0" standalone="no"?>
<!DOCTYPE svg PUBLIC "-//W3C//DTD SVG 1.1//EN" "http://www.w3.org/Graphics/SVG/1.1/DTD/svg11.dtd" >
<svg xmlns="http://www.w3.org/2000/svg" xmlns:xlink="http://www.w3.org/1999/xlink" version="1.1">
<metadata></metadata>
<defs>
<font id="glober_regularregular" horiz-adv-x="1136" >
<font-face units-per-em="2048" ascent="1536" descent="-512" />
<missing-glyph horiz-adv-x="485" />
<glyph unicode="fi" horiz-adv-x="1161" d="M213 1200q0 80 20.5 142.5t65.5 105.5t116.5 65.5t174.5 22.5q84 0 153.5 -10t122.5 -21q61 -14 113 -30q0 -68 -39 -109q-43 14 -96 25q-47 10 -108.5 17t-133.5 7q-137 0 -189.5 -50t-52.5 -155v-133h551q29 0 50.5 -3t29.5 -5v-1059q-8 -4 -18 -6t-23.5 -3t-31.5 -1 q-20 0 -34 1t-24 3t-16 6v951h-484v-951q-8 -4 -18 -6t-23.5 -3t-31.5 -1q-20 0 -32.5 1t-23.5 3q-10 2 -18 6v951h-131l-4 16q-4 20 -4 43t4 43q2 8 4 14h131v123v0z" />
<glyph unicode="fl" horiz-adv-x="1165" d="M213 1200q0 76 20.5 138.5t63.5 106.5t112.5 67.5t168.5 23.5q84 0 157.5 -11.5t130.5 -23.5q68 -16 125 -35v-1456q-8 -4 -18 -6t-23.5 -3t-31.5 -1q-20 0 -34 1t-24 3t-16 6v1372q-43 10 -108.5 21.5t-145.5 11.5q-129 0 -179.5 -52t-50.5 -153v-133h230q4 -10 6 -23.5 t2 -33.5t-2 -34.5t-6 -24.5h-230v-951q-8 -4 -18 -6t-23.5 -3t-31.5 -1q-20 0 -32.5 1t-23.5 3q-10 2 -18 6v951h-131q-2 10 -5 24t-3 35q0 20 2 33.5t6 23.5h131v123v0z" />
<glyph horiz-adv-x="0" />
<glyph horiz-adv-x="0" />
<glyph unicode=" "  horiz-adv-x="485" />
<glyph unicode="&#x09;" horiz-adv-x="485" />
<glyph unicode="&#xa0;" horiz-adv-x="485" />
<glyph unicode="!" horiz-adv-x="528" d="M184 1464q6 2 17 4q10 2 24.5 4.5t38.5 2.5q23 0 38 -2.5t26 -4.5q10 -2 16 -4l-25 -1104q-6 -4 -14 -6q-16 -6 -41 -6q-29 0 -41 6q-8 2 -14 6zM344 10q-8 -4 -18 -6t-25.5 -3t-36.5 -1q-23 0 -37 1t-24 3t-19 6v150q8 2 19 4q10 2 24.5 4t36.5 2q20 0 35.5 -2t26.5 -4 q10 -2 18 -4v-150z" />
<glyph unicode="&#x22;" horiz-adv-x="679" d="M133 1464q8 2 19 4q10 2 22 4.5t33 2.5q18 0 31.5 -2.5t23.5 -4.5t19 -4l-27 -403q-4 -2 -12 -4q-6 -2 -14.5 -3t-20.5 -1t-20.5 1t-14.5 3q-8 2 -12 4zM399 1464q6 2 17 4q10 2 23.5 4.5t33.5 2.5q18 0 31.5 -2.5t23.5 -4.5t19 -4l-27 -403q-4 -2 -12 -4q-16 -4 -35 -4 q-20 0 -37 4q-8 2 -10 4z" />
<glyph unicode="#" horiz-adv-x="1345" d="M1012 1264q31 12 65 12q37 0 66 -12l-80 -279h184q10 -27 10 -57q0 -33 -10 -64h-217l-133 -471h178q2 -4 6 -19.5t4 -39.5q0 -25 -4 -41.5t-6 -20.5h-213l-71 -260q-10 -4 -28 -8t-40 -4q-23 0 -38 4t-28 8l74 260h-315l-74 -260q-10 -4 -27.5 -8t-40.5 -4t-38 4t-25 8 l72 260h-191q-2 4 -6 19.5t-4 40.5q0 29 4 43t6 18h225l134 471h-187q-10 23 -10 62t10 59h219l80 279q31 12 66 12q37 0 65 -12l-78 -279h316zM451 393h315l131 471h-315z" />
<glyph unicode="$" horiz-adv-x="1150" d="M504 1606q8 2 18 4t21.5 4t27.5 2t28.5 -2t23.5 -4q10 -2 18 -4l-16 -238q78 -4 140 -10t107 -17q53 -10 93 -22v-21.5t-9 -40.5q-8 -23 -19 -35t-15 -16q-39 12 -88 21q-41 8 -97.5 14t-122.5 6q-346 0 -346 -231q0 -88 57.5 -135t143.5 -76t186.5 -53.5t186.5 -65.5 t143 -112.5t57 -196.5q0 -164 -106.5 -259t-310.5 -112l16 -260q-8 -4 -16 -6q-20 -4 -52 -4q-16 0 -28.5 1t-22.5 3t-18 6l14 258q-92 2 -163.5 13.5t-125.5 25.5q-61 16 -108 35q0 4 -1 19.5t5 39.5q8 25 17.5 38t13.5 15q53 -16 116 -28q53 -10 122 -18.5t141 -8.5 q168 0 260 55.5t92 178.5q0 72 -33 116.5t-87 74.5t-124 48.5t-141.5 38t-141 43t-124 62.5t-87 99t-32.5 150q0 158 102.5 252.5t298.5 110.5l-14 242v0z" />
<glyph unicode="%" horiz-adv-x="1542" d="M444 -10q-8 -4 -16 -6q-20 -4 -49 -4q-27 0 -47 4q-8 2 -17 6l795 1437q6 2 14 5q8 2 20.5 4t29.5 2q16 0 27 -2t20 -4q8 -2 16 -5zM369 707q-129 0 -201 80.5t-72 273.5q0 190 72 272t201 82q127 0 199.5 -81t72.5 -273q0 -193 -72.5 -273.5t-199.5 -80.5zM369 1319 q-37 0 -65 -12.5t-48 -42t-30.5 -78.5t-10.5 -125t10.5 -125t30.5 -79t48 -41t65 -11q35 0 62.5 11t48 41t30.5 79t10 125t-10 125t-30.5 78.5t-48 42t-62.5 12.5zM1176 -20q-129 0 -201 80.5t-72 273.5q0 188 73 271t200 83t199.5 -81t72.5 -273q0 -193 -72.5 -273.5 t-199.5 -80.5zM1176 592q-35 0 -64 -12.5t-49.5 -42t-30.5 -78.5t-10 -125t10 -125t30.5 -79t49.5 -41t64 -11t63.5 11t48 41t29.5 79t10 125t-10 125t-30.5 78.5t-48 42t-62.5 12.5z" />
<glyph unicode="&#x26;" horiz-adv-x="1306" d="M657 1413q141 0 218 -71.5t77 -178.5q0 -80 -29.5 -142.5t-82 -115.5t-122 -99t-151.5 -91q57 -104 144.5 -204.5t201.5 -188.5q49 63 80 131.5t49 130.5q35 4 69 -10.5t50 -38.5q-18 -59 -56 -131t-101 -150q115 -78 247 -133q4 -37 -15 -72t-48 -51q-154 63 -283 152 q-16 -16 -50 -45t-87 -57t-124 -48t-159 -20q-74 0 -144.5 20t-124.5 62t-87 109t-33 159q0 86 33 154.5t81 120.5t100 87t91 56q-74 166 -73 319q0 156 80.5 251t248.5 95zM647 1307q-86 0 -136 -57.5t-50 -174.5q0 -127 59 -264q63 35 116.5 71t92.5 76.5t60.5 87 t21.5 103.5q0 72 -42 115t-122 43zM508 102q57 0 107.5 13.5t89 32t67.5 38t45 31.5q-121 96 -213 207t-155 227q-29 -16 -65 -43.5t-67.5 -65.5t-53 -86t-21.5 -108q0 -115 71.5 -180.5t194.5 -65.5z" />
<glyph unicode="'" horiz-adv-x="413" d="M133 1464q6 2 17 4q10 2 23 4.5t34 2.5q18 0 31.5 -2.5t23.5 -4.5t19 -4l-27 -403q-4 -2 -12 -4q-6 -2 -14.5 -3t-20.5 -1t-20.5 1t-14.5 3q-8 2 -12 4z" />
<glyph unicode="(" horiz-adv-x="593" d="M475 1645q14 -8 23.5 -16.5t15.5 -14.5q8 -8 10 -15q-74 -115 -129 -258q-49 -123 -89 -296t-40 -390t40 -391t89 -297q55 -143 129 -256q-2 -8 -10 -16q-6 -6 -15.5 -14.5t-21.5 -14.5q-14 -8 -24.5 -10t-20.5 -4t-18 -2q-82 129 -148 287q-55 135 -101 318t-46 400 t46 401.5t101 319.5q66 158 148 285q10 0 18 -2q20 -4 43 -14z" />
<glyph unicode=")" horiz-adv-x="593" d="M330 655q0 217 -41 390.5t-88 295.5q-57 143 -129 258q2 6 10 15l14 14t23 17q12 6 23.5 9t21.5 5t18 2q80 -127 146 -285q55 -135 101 -319.5t46 -401.5t-46 -400t-101 -318q-66 -158 -146 -287q-8 0 -18 2t-21.5 4t-23.5 10q-14 6 -22.5 14.5l-14.5 14.5q-8 8 -10 16 q72 113 129 256q47 123 88 297t41 391z" />
<glyph unicode="*" horiz-adv-x="704" d="M309 1444q41 16 86 0v-172l166 55q14 -16 19.5 -36.5t5.5 -45.5l-166 -53l106 -145q-14 -14 -31.5 -27.5t-39.5 -22.5l-105 142l-100 -142q-23 6 -41.5 19.5t-30.5 27.5l103 146l-164 55q0 53 26 82l166 -55v172z" />
<glyph unicode="+" horiz-adv-x="958" d="M125 537q-4 6 -6 14q-4 20 -4 43t4 43q2 8 6 14h297v299q6 2 14 4q20 4 43 4t43 -4q8 -2 15 -4v-299h299q2 -6 4 -14q4 -20 4 -43t-4 -43q-2 -8 -4 -14h-299v-297q-6 -4 -15 -7q-20 -4 -43 -4t-43 4q-8 2 -14 7v297h-297z" />
<glyph unicode="," horiz-adv-x="460" d="M129 -190q18 20 33 49q12 25 23.5 59.5t15.5 81.5q-14 0 -24.5 2t-16.5 4q-8 2 -13 4v150q8 2 21 4q10 2 25.5 4t35.5 2t37 -2t27 -4q12 -2 20 -4v-103q0 -72 -20.5 -126t-42.5 -89q-29 -41 -64 -71z" />
<glyph unicode="-" horiz-adv-x="729" d="M164 537q-4 6 -6 14q-4 20 -4 43t4 43q2 8 6 14h401q2 -6 4 -14t4 -18.5t2 -24.5t-2 -24.5t-4 -18.5t-4 -14h-401z" />
<glyph unicode="." horiz-adv-x="462" d="M315 10q-8 -4 -20 -6q-10 -2 -26.5 -3t-37.5 -1q-23 0 -38 1t-25 3q-12 2 -21 6v150q8 2 21 4q10 2 25.5 4t37.5 2q20 0 37 -2t27 -4q12 -2 20 -4v-150z" />
<glyph unicode="/" horiz-adv-x="931" d="M735 1524l19 6q10 2 23.5 4t31.5 2t32.5 -2t24.5 -4l19 -6l-688 -1608q-10 -4 -21 -6q-18 -6 -55 -6t-55 6q-10 2 -19 6z" />
<glyph unicode="0" horiz-adv-x="1267" d="M631 -20q-121 0 -213 39.5t-154.5 126.5t-95.5 223.5t-33 326.5q0 377 128 547t368 170q119 0 213 -40t157.5 -127t97.5 -223t34 -327q0 -190 -34 -326.5t-97.5 -223.5t-157.5 -126.5t-213 -39.5zM631 1286q-84 0 -147.5 -30.5t-105.5 -100.5t-63.5 -182.5t-21.5 -276.5 t21.5 -275.5t63.5 -182t105.5 -101.5t147.5 -31q86 0 149.5 31t106.5 101.5t63.5 182t20.5 275.5t-20.5 276.5t-63.5 182.5t-106.5 100.5t-149.5 30.5z" />
<glyph unicode="1" horiz-adv-x="825" d="M72 1085q256 68 403 295q6 2 17 6q10 2 23 4.5t32 2.5q18 0 31.5 -2t23.5 -5l19 -6v-1368q-8 -4 -19 -6q-18 -6 -57 -6t-58 6q-10 2 -18 6v897q0 86 3 156t7 119q-72 -86 -170 -141.5t-203 -81.5q-23 23 -32.5 56t-1.5 68z" />
<glyph unicode="2" horiz-adv-x="1085" d="M205 1231q-51 39 -43 108q47 20 104 37q49 14 118 25.5t155 11.5q88 0 164.5 -19.5t135 -62.5t92.5 -112.5t34 -167.5q0 -92 -27 -159t-78 -120t-122.5 -101t-164.5 -104q-49 -31 -106 -63.5t-104.5 -74.5t-79 -98.5t-31.5 -133.5q0 -25 2 -41.5t2 -20.5h676 q4 -10 8 -26.5t4 -40.5q0 -23 -4 -40.5t-8 -27.5h-811q-4 18 -6 41q-6 37 -6 96q0 119 34.5 202t92 142.5t127 104.5t141.5 90q70 45 127 84t96 81t60.5 90t21.5 116q0 47 -14.5 90t-48 76.5t-91 54t-141.5 20.5q-61 0 -117.5 -9t-99.5 -19q-51 -13 -92 -29z" />
<glyph unicode="3" horiz-adv-x="1062" d="M934 362q0 -80 -25.5 -149.5t-83 -121.5t-149.5 -81.5t-227 -29.5q-82 0 -145.5 10t-108.5 24q-53 14 -93 35q-2 29 9.5 60.5t29.5 50.5q27 -10 106 -29.5t191 -19.5q184 0 264 71.5t80 200.5q0 86 -27.5 140.5t-73.5 87t-105.5 45t-124.5 12.5h-127q-27 61 0 123h127 q57 0 109 11t92 39.5t64.5 78t24.5 122.5q0 119 -72.5 182.5t-222.5 63.5q-59 0 -110 -7t-88 -17q-43 -10 -78 -25q-55 37 -49 107q39 18 92 32q45 12 107.5 23.5t140.5 11.5q211 0 320.5 -94t109.5 -256q0 -117 -44 -203t-159 -129q133 -41 189.5 -136.5t56.5 -232.5z" />
<glyph unicode="4" horiz-adv-x="1179" d="M743 1380l19 6q10 2 24.5 4.5t34.5 2.5q18 0 30.5 -2t22.5 -5l19 -6v-897h197q2 -8 6 -16q2 -8 4 -18.5t2 -26.5t-2 -26.5t-4 -18.5q-4 -8 -6 -15h-197v-350q-8 -4 -19 -6q-18 -6 -53 -6t-53 6q-10 2 -18 6v350h-668q-4 6 -6 15q-6 14 -6 45q0 29 6 45q2 8 6 16zM238 483 h512v697z" />
<glyph unicode="5" horiz-adv-x="1064" d="M332 797q8 2 46 6t95 4q242 0 357.5 -103.5t115.5 -312.5q0 -199 -124 -305t-390 -106q-86 0 -147.5 9t-102.5 21q-47 12 -78 31q-4 29 7.5 60.5t31.5 50.5q35 -14 78 -23q37 -8 86 -14t109 -6q186 0 280.5 66.5t94.5 215.5q0 68 -17.5 122t-60.5 91t-114 56.5t-177 19.5 q-78 0 -144.5 -7t-91.5 -9v729h701q23 -70 0 -133h-555v-463z" />
<glyph unicode="6" horiz-adv-x="1128" d="M881 1393q27 -57 0 -121q-231 -25 -379 -138.5t-195 -355.5q49 23 125 48.5t174 25.5q88 0 164 -24.5t133.5 -77t90 -135.5t32.5 -199q0 -109 -32.5 -191t-91 -136t-141.5 -81.5t-183 -27.5q-98 0 -181.5 31.5t-141.5 98t-91 170t-33 246.5q0 215 53.5 373t150.5 264.5 t235.5 163t310.5 66.5zM870 416q0 168 -79.5 241.5t-204.5 73.5q-51 0 -97.5 -10t-84 -23.5t-67.5 -29t-48 -25.5q-6 -59 -6 -125q0 -111 21.5 -190.5t61.5 -131t93 -75t119 -23.5q129 0 210.5 78t81.5 240z" />
<glyph unicode="7" horiz-adv-x="1011" d="M924 1393q6 -23 8 -42.5t2 -41.5q-2 -125 -42 -222.5t-97.5 -185.5t-123 -174t-121.5 -188.5t-94 -231.5t-38 -299q-10 -2 -28.5 -5t-41.5 -3q-25 0 -44 3t-32 5q0 176 34 308.5t87 236.5t115.5 189t119 165t99.5 164t55 186h-698q-4 8 -6 19q-6 18 -6 49q0 33 6 51 q2 8 6 17h840z" />
<glyph unicode="8" horiz-adv-x="1191" d="M588 -20q-221 0 -341 97t-120 259q0 82 29.5 147.5t71.5 115.5t90.5 85t84.5 55q-49 27 -91 58.5t-72.5 71.5t-49 90.5t-18.5 115.5q0 156 111.5 247t308.5 91q193 0 304.5 -88t111.5 -242q0 -72 -21.5 -129t-55.5 -102t-73 -77t-72 -52q57 -29 107.5 -61.5t89.5 -77.5 t61.5 -102.5t22.5 -133.5q0 -172 -123 -270t-356 -98zM592 1296q-129 0 -202 -57t-73 -154q0 -68 32 -114.5t83 -81.5t116.5 -62.5t133.5 -56.5q27 18 58.5 45t60 63.5t48 85t19.5 107.5q0 109 -73.5 167t-202.5 58zM596 100q154 0 236.5 68t82.5 174q0 76 -36.5 127t-95 90 t-131 68.5t-146.5 60.5q-20 -12 -59 -39.5t-78 -70.5t-68 -101.5t-29 -132.5q0 -106 80 -175t244 -69z" />
<glyph unicode="9" horiz-adv-x="1128" d="M246 0q-25 63 0 121q115 12 210 45t166.5 92t121 147.5t73.5 208.5q-47 -23 -123 -48t-174 -25q-88 0 -163.5 24.5t-132 76.5t-89.5 135t-33 200q0 109 33 190.5t91.5 136t140.5 82t182 27.5t182 -31.5t141.5 -98t92 -170t32.5 -247.5q0 -215 -53 -373.5t-150.5 -264 t-236.5 -162t-311 -66.5zM256 977q0 -168 80 -241.5t205 -73.5q49 0 95 9t85 23.5t68.5 29.5t48.5 26q6 57 6 124q0 111 -21.5 191t-61.5 131t-94.5 74.5t-117.5 23.5q-129 0 -211 -77.5t-82 -239.5z" />
<glyph unicode=":" horiz-adv-x="475" d="M322 819q-8 -4 -21 -6q-10 -2 -26.5 -3t-36.5 -1q-23 0 -38.5 1t-25.5 3q-12 2 -20 6v150q8 2 20 4q10 2 25.5 4t38.5 2q20 0 36.5 -2t26.5 -4q12 -2 21 -4v-150zM322 10q-8 -4 -21 -6q-10 -2 -26.5 -3t-36.5 -1q-23 0 -38.5 1t-25.5 3q-12 2 -20 6v150q8 2 20 4 q10 2 25.5 4t38.5 2q20 0 36.5 -2t26.5 -4q12 -2 21 -4v-150z" />
<glyph unicode=";" horiz-adv-x="497" d="M336 819q-8 -4 -21 -6q-10 -2 -26.5 -3t-36.5 -1q-23 0 -38 1t-26 3q-12 2 -20 6v150q8 2 20 4q10 2 25.5 4t38.5 2q20 0 36.5 -2t26.5 -4q12 -2 21 -4v-150zM152 -190q18 20 32 49q12 25 23.5 59.5t15.5 81.5q-14 0 -24.5 2t-16.5 4q-8 2 -14 4v150q8 2 20 4 q10 2 25.5 4t38.5 2q20 0 36.5 -2t26.5 -4q12 -2 21 -4v-103q0 -72 -20.5 -126t-43.5 -89q-29 -41 -63 -71z" />
<glyph unicode="&#x3c;" horiz-adv-x="940" d="M119 526q-4 8 -6 19q-2 10 -3 21.5t-1 27.5t1 26.5t3 20.5q2 8 6 18l655 297q2 -6 4 -14t4 -17.5t2 -25.5t-2 -27.5t-4 -19.5t-4 -14l-534 -246l534 -242l4 -16t4 -18.5t2 -26.5t-2 -26.5t-4 -18.5t-4 -15z" />
<glyph unicode="=" horiz-adv-x="1048" d="M170 715q-16 61 0 114h709q16 -55 0 -114h-709zM170 356q-16 63 0 117h709q16 -59 0 -117h-709z" />
<glyph unicode="&#x3e;" horiz-adv-x="937" d="M166 229q-4 6 -6 15q-2 8 -3 18t-1 27q0 16 1 26.5t3 18.5t6 16l534 242l-534 246q-4 6 -6 14q-4 20 -4 47q0 16 1 25.5t3 17.5t6 14l655 -297q2 -10 4 -18q2 -10 4 -20.5t2 -26.5t-2 -27.5t-4 -21.5t-4 -19z" />
<glyph unicode="?" horiz-adv-x="886" d="M793 1073q0 -100 -28 -166.5t-70 -115t-91 -86t-91 -82.5t-69.5 -105.5t-27.5 -152.5q-6 -4 -15 -9q-8 -4 -17 -6t-26 -2q-23 0 -43 8q-8 4 -16 9q0 113 25.5 185.5t62.5 122.5t82 87t82 77t62.5 92t25.5 136q0 104 -63.5 162.5t-196.5 58.5q-59 0 -106.5 -7t-79.5 -17 q-37 -10 -68 -25q-53 39 -47 109q37 18 86 32q41 12 100.5 23.5t134.5 11.5q186 0 290 -90t104 -250zM442 10q-8 -4 -20 -6q-10 -2 -26.5 -3t-37.5 -1q-23 0 -38 1t-25 3q-12 2 -21 6v150q8 2 21 4q10 2 25.5 4t37.5 2q20 0 37 -2t27 -4q12 -2 20 -4v-150z" />
<glyph unicode="@" horiz-adv-x="1871" d="M1741 621q0 -211 -92.5 -329t-262.5 -118q-88 0 -147 33t-84 104q-35 -61 -97.5 -99t-166.5 -38q-68 0 -127 20.5t-103.5 66.5t-69 122t-24.5 186q0 113 24.5 189t69 122t103.5 66.5t127 20.5q92 0 150.5 -30t93.5 -77v98q8 2 16 7q8 2 19.5 4t27.5 2t27.5 -2t19.5 -4 q8 -4 17 -7v-507q0 -92 32.5 -133.5t96.5 -41.5q45 0 87 19.5t72.5 61.5t49 107.5t18.5 156.5q0 152 -45 275.5t-131 211.5t-210 136t-282 48q-154 0 -281.5 -50t-219 -143t-141.5 -226.5t-50 -301.5q0 -184 56.5 -317t149.5 -219t216 -126t258 -40q158 0 300 46t255 118 q47 -20 51 -78q-141 -100 -300 -146.5t-326 -46.5q-158 0 -301.5 49.5t-252 149.5t-174 253t-65.5 357q0 190 62.5 343t172 258.5t261 163t329.5 57.5q188 0 335 -56.5t248 -158t154.5 -243.5t53.5 -314zM707 569q0 -88 17 -145t48 -91t72 -47.5t88 -13.5t84 16.5t62.5 44 t40 62.5t16.5 74v199q0 39 -14.5 75.5t-40 64.5t-63.5 44t-85 16t-88 -12t-72 -45t-48 -91.5t-17 -150.5z" />
<glyph unicode="A" horiz-adv-x="1327" d="M580 1462q10 2 22 6q10 2 25.5 4.5t36.5 2.5q20 0 35.5 -2.5t25.5 -4.5q12 -4 23 -6l542 -1450q-8 -4 -20 -6q-23 -6 -64 -6q-37 0 -55 6q-10 2 -18 6l-148 391h-653l-150 -391q-8 -4 -18 -6q-18 -6 -55 -6t-56 6q-10 2 -16 6zM655 1298l-10 -41q-4 -18 -12 -44.5 t-19 -55.5l-237 -627h563l-238 627q-10 31 -18 56.5t-12 43.5l-10 41h-7z" />
<glyph unicode="B" horiz-adv-x="1284" d="M717 1475q104 0 180 -32t124 -85t70.5 -125t22.5 -154q0 -80 -20.5 -136t-48 -94t-58.5 -60.5t-49 -34.5q20 -10 58 -31t75 -60.5t63.5 -102t26.5 -154.5t-26.5 -167t-81 -128.5t-136 -82t-192.5 -28.5h-528v1475h520zM684 805q76 0 128 20.5t85 56.5t47 86t14 111 q0 123 -61 198t-215 75h-334v-547h336zM698 123q168 0 237 73.5t69 206.5q0 147 -74 215t-232 68h-350v-563h350z" />
<glyph unicode="C" horiz-adv-x="1146" d="M133 737q0 377 143.5 567.5t430.5 190.5q84 0 148.5 -11t107.5 -24q51 -14 88 -33q2 -37 -11.5 -64.5t-35.5 -49.5q-37 14 -80 24q-37 10 -88.5 18.5t-112.5 8.5q-96 0 -175 -29.5t-136.5 -101.5t-88 -192.5t-30.5 -305.5q0 -184 30.5 -304t88 -190.5t136.5 -98 t175 -27.5q68 0 123 7t96 17q47 10 84 27q23 -23 34 -53.5t13 -63.5q-41 -20 -94 -35q-47 -14 -114.5 -24t-157.5 -10q-574 -1 -574 757z" />
<glyph unicode="D" horiz-adv-x="1353" d="M625 1475q143 0 254.5 -37t187.5 -123t115 -227.5t39 -350.5q0 -207 -39 -348t-115 -227t-187.5 -124t-254.5 -38h-428v1475h428zM612 129q104 0 187.5 25.5t140.5 94t88 186.5t31 302t-31 303t-88 186.5t-140 93.5t-188 26h-264v-1217h264z" />
<glyph unicode="E" d="M1010 1475q12 -29 12 -62q0 -39 -12 -65h-662v-539h559q12 -29 13 -59q0 -35 -13 -66h-559v-557h682q12 -29 12 -61q0 -35 -12 -66h-833v1475h813z" />
<glyph unicode="F" horiz-adv-x="1089" d="M348 12q-8 -4 -18 -6q-18 -6 -58 -6q-39 0 -57 6q-10 2 -18 6v1463h804q4 -10 8.5 -25.5t4.5 -38.5t-4 -38t-9 -25h-653v-560h572q4 -10 8 -25t4 -36q0 -23 -4 -39t-8 -26h-572v-650z" />
<glyph unicode="G" horiz-adv-x="1277" d="M131 737q0 377 153.5 567.5t446.5 190.5q90 0 160 -11t119 -24q57 -14 100 -33q-2 -33 -13.5 -62.5t-33.5 -49.5q-41 14 -92 24q-43 10 -99.5 17.5t-121.5 7.5q-98 0 -182.5 -29.5t-146 -101.5t-96 -192.5t-34.5 -305.5q0 -184 34.5 -304t96 -190.5t145.5 -99t183 -28.5 q84 0 147.5 10t89.5 16v531h-336q-4 8 -6 16q-6 14 -6 47q0 31 6 47q2 8 6 17h482v-750q-45 -20 -107 -35q-53 -12 -127 -22t-168 -10q-291 0 -445.5 188t-154.5 569z" />
<glyph unicode="H" horiz-adv-x="1388" d="M1040 1462l19 6q10 2 24.5 4.5t32.5 2.5t31.5 -2.5t23.5 -4.5q10 -4 21 -6v-1450q-8 -4 -18 -6q-18 -6 -58 -6q-41 0 -59 6q-10 2 -17 6v676h-692v-676q-10 -4 -20 -6q-18 -6 -56 -6q-41 0 -59 6q-10 2 -16 6v1450l18 6q10 2 24.5 4.5t32.5 2.5t31.5 -2.5t24.5 -4.5 q10 -4 20 -6v-639h692v639z" />
<glyph unicode="I" horiz-adv-x="544" d="M197 1462l18 6q10 2 23.5 4.5t33.5 2.5q18 0 32.5 -2.5t25.5 -4.5l18 -6v-1450q-10 -4 -20 -6q-18 -6 -56 -6q-39 0 -57 6q-10 2 -18 6v1450z" />
<glyph unicode="J" horiz-adv-x="884" d="M547 1462q6 2 16 6q10 2 23.5 4.5t36.5 2.5q18 0 32.5 -2.5t24.5 -4.5l18 -6v-1102q0 -197 -93 -288.5t-267 -91.5q-59 0 -112.5 9t-92.5 21q-47 12 -84 31q-4 72 41 117q31 -14 68 -23q31 -8 69.5 -14t83.5 -6q51 0 94.5 12t75 40t49 75t17.5 114v1106z" />
<glyph unicode="K" horiz-adv-x="1255" d="M999 1462q12 4 32 8.5t46 4.5q27 0 48.5 -4.5t33.5 -8.5l-475 -680l535 -770q-10 -4 -23 -6q-23 -6 -66 -6q-41 0 -65 6q-14 2 -25 6l-481 690h-211v-690q-8 -4 -18 -6q-18 -6 -58 -6q-39 0 -57 6q-10 2 -18 6v1450q10 2 20 6q10 2 23.5 4.5t33.5 2.5q18 0 31.5 -2.5 t24.5 -4.5l18 -6v-633h209z" />
<glyph unicode="L" horiz-adv-x="1048" d="M197 1462l18 6q10 2 24.5 4.5t32.5 2.5t32.5 -2.5t25.5 -4.5l18 -6v-1329h641q4 -10 7 -27.5t3 -37.5q0 -23 -3 -39.5t-7 -28.5h-792v1462z" />
<glyph unicode="M" horiz-adv-x="1714" d="M1321 1462q16 4 42 8.5t56 4.5q23 0 41.5 -2.5t32.5 -4.5q14 -4 27 -6v-1450q-10 -4 -21 -6q-18 -6 -55 -6q-39 0 -58 6q-10 2 -18 6v869v128t2 115.5t3 96.5t5 69h-6q-12 -41 -51 -124t-88 -177l-342 -606q-6 -2 -14 -4q-16 -4 -37 -4q-18 0 -35 4q-8 2 -12 4 q-82 152 -164 300t-164 302q-25 45 -48.5 91t-42 87t-31.5 74t-19 53h-7q10 -45 13.5 -154.5t3.5 -244.5v-879q-6 -4 -17 -6q-18 -6 -53 -6q-33 0 -51 6q-10 2 -18 6v1450l24 6q12 2 28.5 4.5t39.5 2.5q18 0 34.5 -2.5t28.5 -4.5q14 -4 29 -6l356 -651q39 -74 67.5 -135.5 t39.5 -95.5h8q4 18 21.5 57t48.5 94q102 184 201.5 365.5t199.5 365.5z" />
<glyph unicode="N" horiz-adv-x="1425" d="M444 1055q-29 47 -49 87l-35 70q-16 37 -26 68h-6q2 -33 4 -80q2 -41 4 -98.5t2 -132.5v-957q-8 -4 -19 -6q-18 -6 -53 -6t-53 6q-10 2 -16 6v1450q8 2 22 6q10 2 27.5 4.5t40.5 2.5t40 -2.5t27 -4.5q12 -4 23 -6l600 -1030q27 -45 47 -87t37 -77q18 -39 33 -73h6 q-4 39 -6 88q-6 82 -7 217v962l19 6l22.5 4.5t32.5 2.5q18 0 30.5 -2.5t20.5 -4.5q8 -4 17 -6v-1450q-8 -4 -21 -6q-23 -6 -65 -6q-49 0 -70 6q-14 2 -22 6z" />
<glyph unicode="O" horiz-adv-x="1388" d="M131 737q0 199 39 342.5t111.5 235.5t177 136t235.5 44t235.5 -44t177.5 -136t111.5 -235.5t38.5 -342.5t-38.5 -342t-111.5 -235t-177.5 -136t-235.5 -44t-235.5 44t-177 136t-111.5 235t-39 342zM1098 737q0 178 -29 299t-81 195t-127 105.5t-167 31.5t-166.5 -31.5 t-127 -105.5t-81 -195t-28.5 -299t28.5 -299t81 -194.5t127 -105.5t166.5 -32t167 32t127 105.5t81 194.5t29 299z" />
<glyph unicode="P" horiz-adv-x="1232" d="M348 12q-8 -4 -18 -6q-18 -6 -56 -6q-41 0 -59 6q-10 2 -18 6v1463h518q98 0 177 -32t133 -89.5t84 -138t30 -179.5q0 -98 -30 -178t-84 -138t-133 -90t-177 -32h-367v-586zM700 729q135 0 207 82t72 223q0 147 -71.5 229.5t-207.5 82.5h-352v-617h352z" />
<glyph unicode="Q" horiz-adv-x="1388" d="M131 737q0 199 39 342.5t111.5 235.5t177 136t235.5 44t235.5 -44t177.5 -136t111.5 -235.5t38.5 -342.5q0 -236 -53 -392.5t-153 -244.5q59 -53 129.5 -88t138.5 -49q-4 -41 -27.5 -77t-58.5 -52q-82 25 -158 79t-127 122q-55 -29 -118.5 -42t-135.5 -13 q-131 0 -235.5 44t-177 136t-111.5 235t-39 342zM1098 737q0 178 -29 299t-81 195t-127 105.5t-167 31.5t-166.5 -31.5t-127 -105.5t-81 -195t-28.5 -299t28.5 -299t81 -194.5t127 -105.5t166.5 -32t167 32t127 105.5t81 194.5t29 299z" />
<glyph unicode="R" horiz-adv-x="1271" d="M705 1475q98 0 177 -30t133 -85t83.5 -133t29.5 -172q0 -156 -76.5 -262.5t-217.5 -141.5l354 -639q-10 -4 -23 -6q-23 -6 -65 -6q-45 0 -66 6q-12 2 -22 6l-344 623h-320v-623q-8 -4 -18 -6q-18 -6 -56 -6q-41 0 -59 6q-10 2 -18 6v1463h508zM348 764h342 q131 0 205 75.5t74 215.5q0 137 -74 214t-205 77h-342v-582z" />
<glyph unicode="S" horiz-adv-x="1155" d="M123 1087q0 184 123 296t362 112q88 0 160 -9t123 -20q59 -12 104 -26q0 -33 -10 -65t-31 -54q-43 12 -96 20q-45 8 -104.5 15.5t-124.5 7.5q-180 0 -267.5 -70.5t-87.5 -197.5q0 -70 31 -115t82 -76t119.5 -52.5t144.5 -43.5q74 -23 145.5 -52.5t128 -75.5t91.5 -114.5 t35 -173.5q0 -199 -129 -306t-371 -107q-98 0 -177 12t-134 28q-66 18 -117 41q0 31 10 64t29 57q53 -18 117 -32q53 -12 121.5 -21.5t140.5 -9.5q174 0 264 68.5t90 203.5q0 68 -24.5 113t-66.5 75.5t-96.5 51t-115.5 39.5q-82 25 -165 51.5t-150.5 71.5t-110.5 114 t-43 180z" />
<glyph unicode="T" horiz-adv-x="1103" d="M1032 1475q2 -10 6 -19q2 -10 4 -20.5t2 -26.5t-2 -27.5t-4 -21.5l-6 -19h-399v-1329q-10 -4 -21 -6q-18 -6 -55 -6q-39 0 -57 6q-10 2 -19 6v1329h-409q-4 8 -6 19q-6 18 -7 49q0 29 7 47q2 10 6 19h960z" />
<glyph unicode="U" horiz-adv-x="1368" d="M1184 481q0 -121 -36 -214t-101.5 -157.5t-157.5 -97t-205 -32.5t-205 33.5t-156.5 98t-100.5 157.5t-36 212v981l19 6q10 2 24.5 4.5t32.5 2.5t32.5 -2.5t24.5 -4.5l19 -6v-1003q0 -166 92 -258t258 -92t256 92t90 258v1003l19 6q10 2 23.5 4.5t31.5 2.5t31.5 -2.5 t23.5 -4.5q10 -4 21 -6v-981z" />
<glyph unicode="V" horiz-adv-x="1284" d="M590 371q14 -41 23.5 -75t15.5 -60q8 -31 12 -56h6q4 25 12 56q6 27 15.5 60.5t25.5 74.5l387 1091q6 2 17 6l22.5 4.5t32.5 2.5q18 0 32.5 -2.5t25.5 -4.5q10 -4 20 -6l-512 -1452q-10 -4 -23 -6q-10 -2 -25 -3t-34 -1q-20 0 -35.5 1t-25.5 3q-12 2 -23 6l-510 1450 q6 2 19 6q10 4 25.5 6.5t37.5 2.5q18 0 30.5 -2.5l22.5 -4.5l19 -6z" />
<glyph unicode="W" horiz-adv-x="1959" d="M1034 1049q-16 59 -25.5 106t-13.5 78q-6 37 -6 63h-6q-2 -27 -8 -63q-4 -31 -13.5 -78t-23.5 -106l-287 -1037q-14 -4 -38.5 -8t-51.5 -4q-29 0 -50.5 4t-33.5 8l-420 1450l19 6q10 2 23.5 4.5t33.5 2.5t34.5 -2.5t25.5 -4.5l18 -6l305 -1046q12 -47 22.5 -90t16.5 -76 q8 -37 14 -72h6q2 35 11 72q10 66 35 164l292 1048l19 6q10 2 23.5 4.5t33.5 2.5t34.5 -2.5t25.5 -4.5l18 -6l291 -1046q12 -49 20 -92t13 -76q6 -37 10 -70h6q2 31 10 68q6 33 15.5 74.5t25.5 93.5l297 1048l19 6q10 2 22 4.5t29 2.5q16 0 29.5 -2.5t23.5 -4.5l18 -6 l-409 -1450q-10 -4 -23 -6q-23 -6 -59 -6q-41 0 -62 6q-14 2 -24 6z" />
<glyph unicode="X" horiz-adv-x="1251" d="M1008 1462q12 4 32.5 8.5t49.5 4.5t50 -4.5t34 -8.5l-451 -694l477 -754q-10 -4 -22 -8q-23 -6 -66 -6q-45 0 -65 6q-12 2 -23 6l-406 639l-403 -641q-10 -4 -30.5 -7t-49.5 -3t-51.5 3t-36.5 7l475 752l-442 700q10 2 22 6q10 2 27.5 4.5t40.5 2.5q20 0 36.5 -2.5 t26.5 -4.5q12 -4 23 -6l373 -585l379 585v0z" />
<glyph unicode="Y" horiz-adv-x="1286" d="M1100 1468q10 2 24.5 4.5t36.5 2.5q20 0 36.5 -2.5t27.5 -4.5q12 -4 22 -6l-530 -841v-609q-8 -4 -19 -6q-18 -6 -55 -6q-41 0 -59 6q-10 2 -19 6v604l-516 846q8 2 23 6q10 2 28.5 4.5t40.5 2.5q23 0 38.5 -2.5t25.5 -4.5q12 -4 22 -6l422 -686l432 686z" />
<glyph unicode="Z" horiz-adv-x="1198" d="M1071 1475q4 -10 8 -26.5t4 -39.5t-4 -41t-8 -29l-811 -1204h838q4 -10 7 -26.5t3 -38.5q0 -43 -10 -70h-1008q-4 12 -7 29.5t-3 40.5t3 39t7 26l807 1204h-750q-4 12 -7 31t-3 41q0 23 3 38t7 26h924z" />
<glyph unicode="[" horiz-adv-x="663" d="M578 1659q2 -8 4 -17q2 -8 3 -18t1 -27q0 -16 -1 -26t-3 -19q-2 -8 -4 -14h-238v-1765h238q2 -6 4 -15q4 -20 4 -45q0 -16 -1 -27.5t-3 -19.5t-4 -14h-379v2007h379z" />
<glyph unicode="\" horiz-adv-x="935" d="M889 -84q-8 -4 -19 -6q-18 -6 -59 -6q-39 0 -57 6q-10 2 -19 6l-688 1608q10 2 21 6q10 2 23 4t34 2q18 0 32.5 -2t24.5 -4q10 -4 21 -6z" />
<glyph unicode="]" horiz-adv-x="663" d="M88 -348q-4 6 -6 14t-3 19.5t-1 27.5q0 25 4 45q2 8 6 15h236v1765h-236q-4 6 -6 14t-3 18.5t-1 26.5t1 26.5t3 18.5t6 17h377v-2007h-377z" />
<glyph unicode="^" horiz-adv-x="1060" d="M952 936q-6 -4 -14 -6q-20 -4 -47 -4q-16 0 -28.5 1t-22.5 3t-19 6l-293 434l-290 -434q-8 -4 -19 -6q-10 -2 -21.5 -3t-27.5 -1t-27.5 1t-19.5 3t-14 6l356 528l16 4t20.5 4.5t28.5 2.5t28.5 -2.5t21.5 -4.5l16 -4z" />
<glyph unicode="_" horiz-adv-x="1124" d="M135 -145q-4 4 -6 12q-2 6 -3 15t-1 26q0 23 4 39q2 8 6 12h854q2 -4 4 -12q4 -16 4 -39q0 -16 -1 -25.5t-3 -15.5q-2 -8 -4 -12h-854z" />
<glyph unicode="`" horiz-adv-x="487" d="M78 1595q16 27 55 45.5t76 14.5l213 -295q-27 -43 -88 -49z" />
<glyph unicode="a" horiz-adv-x="1054" d="M176 1028q47 18 103 35q47 12 110.5 23.5t136.5 11.5q111 0 182.5 -27t113.5 -79t58.5 -129t16.5 -179v-674q-6 -4 -14 -6t-18.5 -3t-26.5 -1q-23 0 -43 4q-8 2 -17 6l-22 154q-43 -90 -132 -137t-212 -47q-143 0 -230.5 82.5t-87.5 244.5q0 319 387 320q86 0 158 -6.5 t111 -10.5v111q0 131 -57.5 190.5t-184.5 59.5q-59 0 -109.5 -8.5t-91.5 -18.5q-47 -10 -86 -24q-4 2 -14 12t-21 33q-10 23 -10 41v22zM750 504q-35 4 -105 10t-143 6q-129 0 -191.5 -49t-62.5 -164q0 -111 56 -160t155 -49q68 0 122 24.5t91 67.5t57.5 102.5t20.5 129.5 v82z" />
<glyph unicode="b" d="M311 938q45 76 121 118t195 42q90 0 162.5 -29t124 -94.5t79 -173t27.5 -262.5q0 -158 -27.5 -264.5t-79 -172t-124 -94t-162.5 -28.5q-119 0 -195 41.5t-121 117.5v-129q-8 -4 -18 -6t-23.5 -3t-31.5 -1q-20 0 -32.5 1t-23.5 3q-10 2 -18 6v1516q8 2 18 4t22.5 4t33.5 2 q18 0 31.5 -2t23.5 -4t18 -4v-588zM866 539q0 121 -17.5 203.5t-52 134t-89 74t-129.5 22.5q-66 0 -115 -25.5t-83 -67.5t-51.5 -95.5t-17.5 -110.5v-264q0 -57 17.5 -111.5t51.5 -97.5t83 -70t115 -27q76 0 130 23t88.5 74t52 134t17.5 204z" />
<glyph unicode="c" horiz-adv-x="913" d="M582 973q-166 0 -240 -107.5t-74 -326.5q0 -221 78 -324.5t244 -103.5q45 0 81 5t62 13q31 8 55 21q23 -16 34.5 -46t13.5 -63q-29 -18 -70 -31q-35 -12 -88 -21t-123 -9q-217 0 -328.5 142t-111.5 417q0 274 111.5 416.5t328.5 142.5q66 0 115 -7.5t82 -17.5 q37 -10 61 -24q0 -33 -11 -62t-34 -49q-23 8 -51 16q-25 6 -58.5 12.5t-76.5 6.5z" />
<glyph unicode="d" d="M825 1526q8 2 19 4q10 2 22.5 4t32.5 2q18 0 31.5 -2t23.5 -4t19 -4v-1516q-8 -4 -17 -6q-20 -4 -45 -4q-16 0 -26.5 1t-20.5 3t-18 6l-15 137q-45 -78 -121.5 -122.5t-199.5 -44.5q-90 0 -163 28.5t-124 94t-78.5 172t-27.5 264.5q0 156 27.5 263t78.5 172.5t124 94.5 t163 29q117 0 192.5 -42t122.5 -118v588zM825 672q0 55 -17 109.5t-51 97.5t-84 68.5t-114 25.5q-74 0 -129 -22.5t-90 -74t-52.5 -134.5t-17.5 -203q0 -121 17.5 -204t52.5 -134t90 -74t129 -23q66 0 115 27t83 70t51 97t17 112v262z" />
<glyph unicode="e" horiz-adv-x="1048" d="M268 492q6 -104 27.5 -177t61.5 -118t97.5 -65.5t131.5 -20.5q59 0 104 10t78 22q37 14 68 35q23 -16 37 -46t16 -62q-35 -25 -84 -45q-41 -16 -103.5 -30.5t-144.5 -14.5q-223 0 -332.5 142t-109.5 423q0 145 31.5 249.5t90 172t139.5 99.5t179 32q186 0 285.5 -104.5 t99.5 -291.5q0 -47 -4 -85.5t-8 -67.5q-6 -33 -10 -57h-650zM795 719q0 51 -12.5 98t-41 83t-74.5 56.5t-112 20.5q-123 0 -199.5 -87t-87.5 -288h520q2 10 4.5 40t2.5 77z" />
<glyph unicode="f" horiz-adv-x="708" d="M213 1200q0 74 15.5 136.5t52 106.5t99 68.5t157.5 24.5q47 0 83.5 -6t65.5 -12q33 -8 59 -17q0 -68 -38 -108q-20 4 -43 10q-23 4 -51.5 8t-63.5 4q-57 0 -93 -13t-57.5 -39t-30 -64.5t-8.5 -88.5v-133h289q4 -10 7 -24.5t3 -34.5q0 -18 -3 -32.5t-7 -24.5h-289v-951 q-8 -4 -18 -6t-23.5 -3t-31.5 -1q-20 0 -32.5 1t-23.5 3q-10 2 -18 6v951h-139q-4 10 -6 24t-2 35q0 20 2 33.5t6 23.5h139v123v0z" />
<glyph unicode="g" horiz-adv-x="1075" d="M1008 1096q10 -27 10 -62t-10 -63l-185 -4q72 -88 72 -230q0 -168 -98.5 -263t-288.5 -95q-29 0 -57.5 2t-51.5 8q-20 -27 -38.5 -65.5t-16.5 -85.5q4 -53 54.5 -75t124 -32t158.5 -20.5t156.5 -38t120 -84t48.5 -158.5q0 -72 -34 -134.5t-98.5 -108.5t-160 -72.5 t-219.5 -26.5q-111 0 -191 22.5t-130 61.5t-74.5 92t-24.5 115q0 61 20.5 110.5t50 86t60.5 61t49 37.5q-23 23 -35 50.5t-12 68.5q0 66 31.5 125t64.5 100q-90 41 -136 123t-46 196q0 168 100.5 264.5t286.5 96.5q66 0 121 -13.5t100 -35.5zM750 739q0 127 -66 188.5 t-176 61.5q-109 0 -175.5 -61.5t-66.5 -188.5q0 -129 66.5 -190.5t175.5 -61.5q111 0 176.5 61.5t65.5 190.5zM862 -186q0 51 -25.5 83.5t-67.5 51t-95 27t-111.5 15.5t-115 14t-103.5 24q-57 -41 -90 -99.5t-33 -122.5q0 -92 67.5 -150t209.5 -58q172 0 268 59.5t96 155.5z " />
<glyph unicode="h" horiz-adv-x="1124" d="M967 10q-8 -4 -19 -6q-10 -2 -24.5 -3t-30.5 -1q-20 0 -32.5 1t-22.5 3t-19 6v752q0 213 -221 213q-86 0 -163 -49t-124 -138v-778q-8 -4 -18 -6t-23.5 -3t-31.5 -1q-20 0 -32.5 1t-23.5 3q-10 2 -18 6v1516q8 2 18 4t22.5 4t33.5 2q18 0 31.5 -2t23.5 -4t18 -4v-588 q59 76 145.5 118t194.5 42q152 0 234 -84t82 -223v-781z" />
<glyph unicode="i" horiz-adv-x="487" d="M328 1311q-8 -4 -21 -6q-10 -2 -26.5 -3.5t-36.5 -1.5q-23 0 -38.5 1.5t-25.5 3.5q-12 2 -20 6v149q8 2 20 4q10 2 25.5 4t38.5 2q20 0 36.5 -2t26.5 -4q12 -2 21 -4v-149zM317 10q-8 -4 -18 -6t-23.5 -3t-31.5 -1q-20 0 -33.5 1t-24.5 3q-10 2 -16 6v1057q6 2 16 4 t23.5 4t34.5 2q18 0 31.5 -2t23.5 -4t18 -4v-1057z" />
<glyph unicode="j" horiz-adv-x="487" d="M326 1315q-8 -4 -21 -6q-23 -6 -61 -6q-43 0 -64 6q-12 2 -20 6v149q8 2 20 4q10 2 25.5 4.5t38.5 2.5q20 0 35.5 -2.5t25.5 -4.5q12 -2 21 -4v-149zM170 1067q6 2 16 4t23.5 4t34.5 2q18 0 31.5 -2t23.5 -4t18 -4v-1247q0 -168 -74.5 -250t-211.5 -82q-33 0 -56.5 2 t-40.5 6q-18 4 -30 10q-2 4 -4 11q-2 6 -2 24t2 32.5t6 25.5q4 10 8 18q10 -2 23 -4q10 -2 25 -3t34 -1q86 0 130 47t44 156v1255z" />
<glyph unicode="k" horiz-adv-x="1019" d="M786 1067q8 2 21 4q10 2 24.5 4t34.5 2q16 0 29.5 -2t24.5 -4q10 -2 18 -4l-332 -494l381 -561q-10 -4 -22 -6q-23 -6 -62 -6q-41 0 -61 6q-12 2 -23 6l-336 492h-172v-494q-8 -4 -18 -6t-23.5 -3t-29.5 -1q-18 0 -32.5 1t-25.5 3q-10 2 -18 6v1518l20 4t23.5 3t32.5 1 q16 0 28.5 -1t22.5 -3l20 -4v-907h174z" />
<glyph unicode="l" horiz-adv-x="495" d="M322 10q-8 -4 -19 -6q-10 -2 -23.5 -3t-31.5 -1q-20 0 -33.5 1t-24.5 3q-10 2 -16 6v1516q6 2 16 4t23.5 4t34.5 2q18 0 31.5 -2t23.5 -4t19 -4v-1516z" />
<glyph unicode="m" horiz-adv-x="1708" d="M903 920q61 86 148.5 132t201.5 46q143 0 220 -84t77 -223v-781q-8 -4 -18 -6t-23.5 -3t-31.5 -1q-20 0 -32.5 1t-23.5 3q-10 2 -18 6v752q0 213 -203 213q-80 0 -152.5 -47t-117.5 -142v-776q-8 -4 -19 -6q-10 -2 -23.5 -3t-31.5 -1q-20 0 -32.5 1t-22.5 3t-19 6v752 q0 213 -202 213q-78 0 -152 -49t-117 -138v-778q-8 -4 -18 -6t-23.5 -3t-31.5 -1q-20 0 -32.5 1t-23.5 3q-10 2 -18 6v1057q8 2 18 4t22.5 4t33.5 2q18 0 31.5 -2t23.5 -4t18 -4v-127q55 74 137 116t185 42q94 0 164.5 -42t105.5 -136z" />
<glyph unicode="n" horiz-adv-x="1124" d="M967 10q-8 -4 -19 -6q-10 -2 -24.5 -3t-30.5 -1q-20 0 -32.5 1t-22.5 3t-19 6v752q0 213 -221 213q-86 0 -163 -49t-124 -138v-778q-8 -4 -18 -6t-23.5 -3t-31.5 -1q-20 0 -32.5 1t-23.5 3q-10 2 -18 6v1057q8 2 18 4t22.5 4t33.5 2q18 0 31.5 -2t23.5 -4t18 -4v-129 q59 76 145.5 118t194.5 42q152 0 234 -84t82 -223v-781z" />
<glyph unicode="o" horiz-adv-x="1110" d="M117 539q0 152 29.5 258t86 172.5t138.5 97.5t184 31t184 -31t138.5 -97.5t86 -173t29.5 -257.5q0 -152 -29.5 -258.5t-86 -173t-138.5 -97t-184 -30.5t-184 30.5t-138.5 97t-86 173t-29.5 258.5zM842 539q0 129 -20.5 214t-57.5 135t-90 71.5t-119 21.5t-119 -21.5 t-90 -71.5t-57.5 -135t-20.5 -214t20.5 -214t57.5 -135.5t90 -72t119 -21.5t119 21.5t90 72t57.5 135.5t20.5 214z" />
<glyph unicode="p" horiz-adv-x="1138" d="M311 938q45 76 121 118t195 42q90 0 162.5 -29t124 -94.5t79 -173t27.5 -262.5q0 -158 -27.5 -264.5t-79 -172t-124 -94t-162.5 -28.5q-119 0 -195 41.5t-121 117.5v-618q-8 -4 -18 -6t-23.5 -3t-31.5 -1q-20 0 -32.5 1t-23.5 3q-10 2 -18 6v1546q8 2 18 4t22.5 4t33.5 2 q18 0 31.5 -2t23.5 -4t18 -4v-129zM866 539q0 121 -17.5 203.5t-52 134t-89 74t-129.5 22.5q-66 0 -115 -25.5t-83 -67.5t-51.5 -95.5t-17.5 -110.5v-264q0 -57 17.5 -111.5t51.5 -97.5t83 -70t115 -27q76 0 130 23t88.5 74t52 134t17.5 204z" />
<glyph unicode="q" horiz-adv-x="1138" d="M827 139q-47 -76 -122.5 -117.5t-192.5 -41.5q-90 0 -163 28.5t-124 94t-78.5 172t-27.5 264.5q0 156 27.5 263t78.5 172.5t124 94.5t163 29q117 0 192.5 -42t122.5 -118v129q6 2 17 4q10 2 22.5 4t32.5 2q18 0 32.5 -2t24.5 -4t19 -4v-1546q-8 -4 -19 -6q-10 -2 -23 -3 t-32 -1q-20 0 -32.5 1t-22.5 3t-19 6v618zM272 539q0 -121 17.5 -204t52.5 -134t90 -74t129 -23q63 0 111.5 25t82 67t52 94t20.5 107v277q-2 57 -19 110.5t-51 95.5t-83 67.5t-113 25.5q-74 0 -129 -22.5t-90 -74t-52.5 -134t-17.5 -203.5z" />
<glyph unicode="r" horiz-adv-x="800" d="M311 899q33 59 68 97t70.5 60.5t71.5 31t67 8.5q66 0 109.5 -17.5t66.5 -31.5q-8 -78 -68 -125q-35 23 -66.5 32t-72.5 9q-72 0 -135.5 -56.5t-110.5 -148.5v-748q-8 -4 -18 -6t-23.5 -3t-31.5 -1q-20 0 -32.5 1t-23.5 3q-10 2 -18 6v1057q8 2 18 4t22.5 4t33.5 2 q18 0 31.5 -2t23.5 -4t18 -4v-168v0z" />
<glyph unicode="s" horiz-adv-x="909" d="M113 786q0 139 91 225.5t279 86.5q68 0 120 -8.5t87 -18.5q41 -10 70 -24q2 -29 -8.5 -60t-32.5 -49q-29 8 -64 16q-29 6 -69.5 12.5t-85.5 6.5q-244 0 -244 -180q0 -43 21.5 -73t57.5 -50.5t82 -36t95 -29.5q55 -16 108.5 -37.5t96.5 -55.5t69.5 -85t26.5 -131 q0 -147 -93 -231t-282 -84q-78 0 -139 10t-102 24q-51 14 -86 35q-2 33 8 62.5t33 48.5q39 -16 84 -27q39 -10 89 -17t105 -7q104 0 170 43t66 139q0 51 -21.5 83t-57.5 53.5t-82 35.5t-95 29q-53 14 -106.5 35.5t-95.5 54t-68.5 81.5t-26.5 123z" />
<glyph unicode="t" horiz-adv-x="753" d="M375 373q0 -147 48 -209t169 -62q18 0 36.5 1t33.5 3q16 2 30 7q2 -8 6 -17q2 -8 4.5 -19t2.5 -26q0 -14 -1.5 -23.5t-3.5 -17.5t-4 -14q-16 -4 -54 -10t-89 -6q-90 0 -152.5 25.5t-101.5 74.5t-55.5 120.5t-16.5 166.5v594h-159q-4 6 -7 14q-4 20 -4 43q0 16 1 26.5 t3 18.5t7 14h159v195q29 20 68 28.5t80 4.5v-228h293q2 -6 4 -14t4 -18.5t2 -24.5t-2 -24.5t-4 -18.5l-4 -16h-293v-588z" />
<glyph unicode="u" horiz-adv-x="1122" d="M156 1067q8 2 18 4t23.5 4t31.5 2t31.5 -2t24.5 -4q10 -2 18 -4v-752q0 -213 223 -213q82 0 160 48.5t125 138.5v778q8 2 18 4t23.5 4t32.5 2q18 0 31.5 -2t23.5 -4t18 -4v-1057q-8 -4 -18 -6t-23.5 -3t-31.5 -1t-31.5 1t-24.5 3q-10 2 -18 6v129q-59 -76 -146 -117.5 t-194 -41.5q-152 0 -233.5 83.5t-81.5 223.5v780z" />
<glyph unicode="v" horiz-adv-x="1044" d="M463 367q16 -43 26.5 -81t18.5 -67q8 -35 16 -63h6q8 27 17 61q8 29 19.5 67t27.5 81l256 702q6 2 16 4q8 2 21.5 4t30.5 2q16 0 29.5 -2t23.5 -4t18 -4l-381 -1057q-12 -4 -24 -6q-10 -2 -25.5 -3t-34.5 -1q-20 0 -35.5 1t-25.5 3q-12 2 -23 6l-389 1057q10 2 21 4 q10 2 23.5 4t33.5 2t34.5 -2t24.5 -4t19 -4z" />
<glyph unicode="w" horiz-adv-x="1626" d="M881 639q-35 119 -47.5 181.5t-14.5 90.5h-6q-4 -29 -16.5 -92t-51.5 -180l-198 -629q-14 -4 -33.5 -7t-44.5 -3q-27 0 -46.5 3t-35.5 7l-328 1057q8 2 19 4q10 2 23.5 4t31.5 2t31.5 -2t21.5 -4t15 -4l225 -717q23 -72 30 -119t11 -67h6l13.5 67.5t31.5 118.5l225 717 q10 2 23 4q10 2 24.5 4t30.5 2q18 0 31.5 -2t24.5 -4q10 -2 18 -4l221 -713q23 -74 30 -122t11 -68h6q4 20 14.5 66t32.5 122l224 715q8 2 18 4t21.5 4t27.5 2t29.5 -2t21.5 -4t15 -4l-328 -1057q-16 -4 -35.5 -7t-44.5 -3t-44 3t-36 7z" />
<glyph unicode="x" horiz-adv-x="1011" d="M63 1067q8 2 21 4q10 2 25.5 4t35.5 2t37 -2t27 -4q12 -2 20 -4l285 -410l281 410q8 2 18 4t22.5 4t32.5 2q18 0 34 -2t26 -4q12 -2 20 -4l-356 -514l373 -543q-8 -4 -21 -6q-10 -2 -25.5 -3t-35.5 -1q-23 0 -38.5 1t-25.5 3q-12 2 -20 6l-301 434l-297 -434 q-8 -4 -19 -6q-10 -2 -24.5 -3t-34.5 -1q-18 0 -32.5 1t-24.5 3t-19 6l371 539z" />
<glyph unicode="y" horiz-adv-x="1071" d="M584 -199q-25 -74 -51.5 -132t-62.5 -98t-85 -61.5t-119 -21.5q-23 0 -42 2t-34 6q-16 4 -28 8q-2 4 -7 19.5t-5 38.5t5 40t9 21q10 -4 24 -6q12 -2 28.5 -3t35.5 -1q33 0 59.5 9t49 32.5t44 65.5t44.5 110l61 172q-23 0 -49 10l-410 1055q10 2 21 4q10 2 23.5 4t33.5 2 q18 0 32.5 -2t24.5 -4t21 -4l276 -702q18 -47 31.5 -88t24.5 -70q10 -35 18 -62h6q8 27 17 62q16 63 49 158l241 702q8 2 19 4q10 2 22.5 4t32.5 2q16 0 30.5 -2t24.5 -4t19 -4z" />
<glyph unicode="z" horiz-adv-x="944" d="M834 125q2 -8 6 -16q2 -8 4 -19.5t2 -28.5q0 -16 -2 -26t-4 -19q-4 -8 -6 -16h-740q-10 25 -10 66q0 39 10 59l580 827h-539q-4 8 -6 17q-4 20 -4 47q0 16 1 26.5t3 18.5t6 16h696q4 -10 7.5 -23.5t3.5 -35.5q0 -23 -3 -39t-8 -27l-579 -827h582z" />
<glyph unicode="{" horiz-adv-x="704" d="M618 1659q4 -10 6.5 -24.5t2.5 -35.5q0 -18 -3 -33.5t-6 -25.5h-90q-86 0 -122.5 -41t-36.5 -117v-501q0 -70 -15.5 -117t-58.5 -78q43 -31 58.5 -79t15.5 -115v-504q0 -76 36.5 -117t122.5 -41h90q4 -10 6.5 -24.5t2.5 -34.5q0 -23 -2 -36.5t-7 -23.5h-118 q-135 0 -203 75t-68 198v544q0 41 -19.5 69t-66.5 28h-63q-4 10 -7 24.5t-3 34.5q0 23 3 37t7 24h63q47 0 66.5 29t19.5 70v542q0 123 68 198t203 75h118z" />
<glyph unicode="|" horiz-adv-x="540" d="M197 1608q6 2 16 4t23.5 4t33.5 2q18 0 31.5 -2t24.5 -4q10 -2 18 -4v-2001q-8 -4 -18 -6t-23.5 -3t-32.5 -1q-20 0 -33.5 1t-23.5 3t-16 6v2001v0z" />
<glyph unicode="}" horiz-adv-x="706" d="M205 1659q137 0 204.5 -75t67.5 -198v-542q0 -41 19.5 -70t66.5 -29h62q4 -10 7 -24t3 -35q0 -41 -10 -61h-62q-47 0 -66.5 -28t-19.5 -69v-544q0 -123 -67.5 -198t-204.5 -75h-117q-4 10 -7 24.5t-3 33.5q0 20 3 35.5t7 25.5h88q86 0 123 41t37 117v504q0 68 15.5 115.5 t56.5 76.5q-41 31 -56.5 79t-15.5 118v501q0 76 -37 117t-123 41h-88q-4 10 -7 24.5t-3 34.5q0 23 3 36.5t7 23.5h117z" />
<glyph unicode="~" horiz-adv-x="1091" d="M381 592q-37 0 -65.5 -11.5t-47.5 -25.5q-23 -16 -39 -37q-31 8 -49 28.5t-22 49.5q20 33 53 57q29 23 72 41.5t104 18.5q51 0 89 -16.5t74 -36t72.5 -36t86.5 -16.5q37 0 64.5 11.5t47.5 25.5q23 16 39 37q61 -16 74 -76q-20 -35 -53 -59q-29 -23 -72 -41.5t-107 -18.5 q-51 0 -89 16.5t-73.5 36t-72.5 36t-86 16.5z" />
<glyph unicode="&#xa1;" horiz-adv-x="507" d="M170 1051q8 2 20 4q10 2 25.5 4t38.5 2t38 -2t25 -4q12 -2 21 -4v-150q-8 -4 -21 -6q-10 -2 -25.5 -3t-37.5 -1q-23 0 -38 1t-26 3q-12 2 -20 6v150zM199 700q6 2 14 5q6 2 16.5 4t24.5 2q12 0 22.5 -2t18.5 -4t14 -5l25 -1103q-6 -4 -17 -7q-10 -2 -25.5 -3t-37.5 -1 q-23 0 -38 1t-26 3q-10 2 -16 7z" />
<glyph unicode="&#xa2;" horiz-adv-x="952" d="M496 1284q4 2 22.5 7t42.5 5q27 0 43.5 -5t20.5 -7l-13 -188q53 -4 93 -11.5t67 -15.5q31 -8 51 -20q0 -66 -45 -107q-23 8 -51 16q-25 6 -58.5 12.5t-76.5 6.5q-166 0 -239.5 -109.5t-73.5 -328.5q0 -221 77.5 -328t243.5 -107q45 0 81 6.5t62 14.5q31 8 56 20 q43 -37 47 -104q-25 -14 -60 -27q-29 -10 -72.5 -19t-101.5 -13l13 -189q-4 -4 -21.5 -9t-44.5 -5q-25 0 -42 5t-21 9l10 191q-186 16 -283.5 157.5t-97.5 397.5t97 396t284 159l-10 190v0z" />
<glyph unicode="&#xa3;" horiz-adv-x="1071" d="M451 633q14 -59 21 -119.5t-5 -123t-47 -127t-103 -128.5h627q4 -4 8 -21.5t4 -45.5q0 -29 -4 -46.5t-8 -21.5h-797v135q76 70 115 133.5t51.5 125t5 120.5t-23.5 119h-168q-2 4 -6 19.5t-4 37.5q0 23 3 38t7 20h135q-25 70 -44 142.5t-19 153.5q0 98 30.5 169t87 115 t134 65.5t172.5 21.5q119 0 207 -23.5t120 -37.5q6 -72 -47 -111q-10 4 -34.5 11.5t-59.5 15.5t-78 13t-88 5q-135 0 -212 -59.5t-77 -190.5q0 -72 21.5 -144.5t44.5 -145.5h389q2 -4 6 -18.5t4 -37.5t-3 -39t-7 -20h-358z" />
<glyph unicode="&#xa4;" horiz-adv-x="1206" d="M848 231q-51 -39 -112.5 -60t-131.5 -21t-132 21.5t-114 59.5l-149 -151q-8 0 -16 4q-18 8 -35 27q-10 10 -15.5 19t-9.5 15q-4 8 -4 15l154 151q-39 49 -61.5 111.5t-22.5 132.5q0 68 22.5 130.5t61.5 113.5l-154 151q0 8 4 17q4 12 25 34q10 10 19 14.5t18 8.5 q8 4 14 4l151 -149q51 39 113 60.5t131 21.5q68 0 130.5 -23t111.5 -61l151 151q6 0 15 -4q6 -4 15 -8t20 -15q20 -23 24 -34q4 -8 4 -17l-149 -151q39 -51 61.5 -112.5t22.5 -131.5t-22.5 -132.5t-61.5 -113.5l151 -149q0 -8 -4 -17l-8 -16t-14 -18q-18 -18 -35 -25 q-8 -4 -17 -4zM604 850q-61 0 -115.5 -22.5t-94.5 -62.5t-62.5 -94.5t-22.5 -115.5t22.5 -115.5t62.5 -94.5t94.5 -62.5t115.5 -22.5t115.5 22.5t94.5 62.5t62.5 94.5t22.5 115.5t-22.5 115.5t-62.5 94.5t-94.5 62.5t-115.5 22.5z" />
<glyph unicode="&#xa5;" horiz-adv-x="1251" d="M1034 1391q10 2 21 4q10 2 23.5 4t33.5 2q16 0 30.5 -2t24.5 -4t21 -4l-453 -727h293q8 -20 8 -50q0 -16 -2 -28.5t-6 -22.5h-342v-155h342q8 -16 8 -50q0 -16 -2 -28.5t-6 -22.5h-342v-295q-8 -4 -16 -6q-18 -6 -54 -6q-35 0 -53 6q-10 2 -16 6v295h-344q-4 10 -6 23.5 t-2 29.5q0 27 8 48h344v155h-344q-4 10 -6 22.5t-2 28.5q0 29 8 50h295l-428 725q8 2 20 6q10 2 24.5 4t37.5 2q20 0 34.5 -2t24.5 -4q10 -4 20 -6l392 -668l411 670v0z" />
<glyph unicode="&#xa6;" horiz-adv-x="516" d="M182 1149q8 2 19 4q10 2 23.5 4t33.5 2q18 0 31.5 -2t23.5 -4t21 -4v-1063q-10 -4 -21 -6q-10 -2 -23.5 -3t-31.5 -1q-20 0 -33.5 1t-23.5 3t-19 6v1063v0z" />
<glyph unicode="&#xa7;" horiz-adv-x="987" d="M719 258q0 55 -43 87t-108.5 53.5t-140.5 40t-140.5 49t-108.5 79.5t-43 131q0 45 14.5 82t36 67t46 51.5t44.5 37.5q-53 31 -86.5 80t-33.5 129q0 135 95 201.5t259 66.5q104 0 178 -17.5t103 -27.5q4 -25 -3.5 -54.5t-29.5 -45.5q-6 2 -27.5 7t-52.5 11t-68 10t-73 4 q-129 0 -187.5 -38.5t-58.5 -114.5q0 -57 41 -89t103.5 -53.5t135 -41t135 -50t103.5 -79t41 -129.5q0 -43 -13.5 -79t-34 -65t-43 -49t-40.5 -35q61 -35 102 -85t41 -136q0 -78 -31.5 -131t-85 -85t-126 -46t-154.5 -14q-72 0 -130.5 7t-101.5 17q-51 10 -92 27 q-4 29 3.5 57.5t29.5 46.5q8 -2 35 -8t63.5 -13.5t81.5 -12.5t88 -5q133 0 205 36t72 126zM381 885q-16 -12 -36.5 -27.5t-38 -37t-29 -47t-11.5 -56.5q0 -49 32 -80t81 -50.5t110.5 -33.5t120.5 -33q14 12 33 27.5t35 36t27.5 46t11.5 56.5q0 49 -31 79t-80 49.5t-108.5 35 t-116.5 35.5z" />
<glyph unicode="&#xa8;" horiz-adv-x="931" d="M371 1262q-8 -4 -19 -7q-10 -2 -23.5 -3t-31.5 -1q-20 0 -33.5 1t-23.5 3t-19 7v133q8 2 19 4q10 2 23 4t34 2q18 0 31.5 -2t23.5 -4t19 -4v-133zM694 1262q-8 -4 -18 -7q-10 -2 -23.5 -3t-31.5 -1q-20 0 -34 1t-24 3t-18 7v133q8 2 18 4t23.5 4t34.5 2q18 0 31.5 -2 t23.5 -4t18 -4v-133z" />
<glyph unicode="&#xa9;" horiz-adv-x="1646" d="M823 -2q-145 0 -272 54t-222.5 149.5t-149.5 222.5t-54 272t54 272.5t149.5 222.5t222.5 149.5t272 54.5t272.5 -54.5t222.5 -149.5t149.5 -222t54.5 -273q0 -145 -54.5 -272t-149.5 -222.5t-222.5 -149.5t-272.5 -54zM823 1290q-123 0 -231.5 -47t-189 -127t-128 -188.5 t-47.5 -231.5t47.5 -231.5t128 -189t189 -128t231.5 -47.5t231.5 47.5t189.5 128t127 189t46 231.5t-46 231.5t-127 188.5t-189.5 127t-231.5 47zM827 301q-176 0 -264 105.5t-88 304.5q0 408 352 407q51 0 89 -7t67 -15q31 -10 55 -23q0 -53 -37 -84q-25 8 -49 17 q-23 6 -51.5 12t-58.5 6q-123 0 -186.5 -70.5t-63.5 -242.5q0 -166 64.5 -238t185.5 -72q35 0 64.5 4.5t51.5 10.5q27 6 52 14q23 -14 31 -36.5t8 -45.5q-25 -14 -58 -24q-29 -10 -70 -16.5t-94 -6.5z" />
<glyph unicode="&#xaa;" horiz-adv-x="739" d="M164 1245q29 12 63 23q29 8 68 15t84 7q123 0 176 -55t53 -166v-442q-4 -2 -10 -4q-16 -4 -33 -5q-18 0 -30 5q-8 2 -11 4l-12 75q-61 -96 -203 -96q-88 0 -141 52.5t-53 150.5q0 197 237 197q55 0 97.5 -3.5t56.5 -5.5v66q0 137 -139 137q-35 0 -67 -5t-54 -11 q-29 -8 -51 -15q-31 31 -31 76zM506 922q-14 0 -54 3t-87 3q-147 0 -148 -119q0 -63 32 -91t89 -28q78 0 122 50.5t46 129.5v52zM602 500q12 -43 0 -88h-477q-12 47 0 88h477z" />
<glyph unicode="&#xab;" horiz-adv-x="1038" d="M530 1042q23 -16 35.5 -40.5t16.5 -51.5l-353 -397l353 -399q-4 -27 -16.5 -51.5t-35.5 -41.5l-417 426q-4 8 -7 17q-6 14 -6 45q0 29 6 47q2 8 7 18zM866 1006q20 -14 31.5 -38t15.5 -50l-319 -365l319 -367q-4 -27 -15 -50t-32 -38l-387 394q-4 6 -6 14q-4 20 -4 43 q0 25 4 45q2 8 6 16z" />
<glyph unicode="&#xac;" horiz-adv-x="1232" d="M1067 371q-10 -4 -18 -9q-18 -6 -48 -6q-33 0 -47 6q-8 4 -16 9v401h-807l-8 16q-6 14 -6 46q0 29 6 47q4 8 8 18h936v-528z" />
<glyph unicode="&#xad;" horiz-adv-x="536" />
<glyph unicode="&#xae;" horiz-adv-x="1093" d="M547 532q-90 0 -168 34t-137.5 93.5t-93 137t-33.5 168.5q0 88 33.5 166.5t93 138t137.5 93.5t168 34q88 0 167 -34t138 -93.5t93 -138t34 -166.5q0 -90 -34 -168t-93 -137.5t-138 -93.5t-167 -34zM547 1329q-76 0 -142.5 -28.5t-115.5 -77.5t-78 -116t-29 -142 q0 -76 29 -142.5t78 -116t115.5 -78t142.5 -28.5t142.5 28.5t115.5 78t77.5 116t28.5 142.5t-28.5 142.5t-77.5 115.5t-115.5 77.5t-142.5 28.5zM580 1206q74 0 112.5 -36.5t38.5 -102.5q0 -47 -21.5 -79t-68.5 -48l119 -190q-6 -4 -12 -7q-6 -2 -12.5 -3t-16.5 -1 q-20 0 -27 2q-6 2 -10 4l-117 189h-100v-189q-4 -2 -10 -4q-4 -2 -11.5 -2h-13.5q-18 0 -24 2t-9 4v461h183zM575 991q47 0 67 20.5t20 55.5q0 41 -19.5 61.5t-67.5 20.5h-110v-158h110z" />
<glyph unicode="&#xaf;" horiz-adv-x="833" d="M96 1290q-23 51 0 101h615q10 -23 9 -50.5t-9 -50.5h-615z" />
<glyph unicode="&#xb0;" horiz-adv-x="733" d="M113 1264q0 47 16 92t49 81t81 58.5t112 22.5q61 0 108 -21.5t79 -56.5t47.5 -80t15.5 -90q0 -47 -15.5 -91t-47.5 -79t-79 -56.5t-108 -21.5q-66 0 -114 20.5t-81 54t-48 77t-15 90.5zM532 1268q0 33 -10 62.5t-29.5 53t-50 38t-73.5 14.5t-74 -14.5t-52.5 -39 t-31.5 -55.5t-10 -61q0 -61 40 -112.5t128 -51.5q84 0 123.5 51.5t39.5 114.5z" />
<glyph unicode="&#xb1;" horiz-adv-x="1048" d="M170 766q-4 6 -6 14q-4 20 -4 43t4 43q2 8 6 15h297v237q6 2 14 4q20 4 43 4t43 -4q8 -2 15 -4v-237h299q2 -6 4 -15q4 -20 4 -43t-4 -43q-2 -8 -4 -14h-299v-236q-6 -4 -15 -6q-20 -4 -43 -4t-43 4q-8 2 -14 6v236h-297zM170 279q-4 6 -6 14q-4 20 -4 43t4 43q2 8 6 14 h711q2 -6 4 -14q4 -20 4 -43t-4 -43q-2 -8 -4 -14h-711z" />
<glyph unicode="&#xb2;" horiz-adv-x="612" d="M66 793q0 70 27.5 115.5t67.5 77.5t88 55.5t88 48t67.5 54.5t27.5 77q0 49 -37 81.5t-121 32.5q-47 0 -89 -8t-50 -12q-31 37 -24 78q23 6 51 14q25 4 58.5 9t74.5 5q119 0 179.5 -52t60.5 -142q0 -61 -26 -102.5t-64.5 -70t-85 -51t-87.5 -49t-69.5 -63.5t-34.5 -92h350 q10 -25 10 -45t-10 -45h-444l-4 24q-2 10 -3 26t-1 34z" />
<glyph unicode="&#xb3;" horiz-adv-x="614" d="M535 901q0 -88 -60.5 -145.5t-218.5 -57.5q-43 0 -77 5.5t-58 11.5q-29 8 -51 18q0 18 6 39t22 33q20 -6 45 -10q45 -10 109 -11q106 0 142 36t36 89q0 66 -39 95.5t-108 29.5h-93q-16 41 0 84h93q66 0 95.5 29t29.5 78q0 111 -142 110q-33 0 -60.5 -3t-47.5 -7 q-25 -4 -45 -8q-29 29 -25 74q23 6 51 14q25 6 58.5 11t74.5 5q117 0 178.5 -48t61.5 -136q0 -57 -21.5 -95t-70.5 -63q53 -23 84 -62.5t31 -115.5z" />
<glyph unicode="&#xb4;" horiz-adv-x="458" d="M141 1311q-63 6 -88 49l213 295q39 4 77 -13.5t54 -46.5z" />
<glyph unicode="&#xb5;" horiz-adv-x="1185" d="M844 1067q8 2 18 4t22.5 4t33.5 2q18 0 31.5 -2t23.5 -4t18 -4v-1057q-8 -4 -18 -6t-23.5 -3t-31.5 -1q-20 0 -33 1t-23 3t-18 6v121q-55 -72 -133 -111.5t-174 -39.5q-88 0 -139.5 25.5t-82.5 60.5q6 -152 17.5 -254.5t23.5 -167.5q14 -76 31 -121q-29 -27 -76 -33 t-84 6q-12 41 -20 109q-8 57 -13.5 147t-5.5 219v1096q8 2 19 4q10 2 23.5 4t31.5 2q20 0 33.5 -2t23.5 -4t17 -4v-754q0 -45 11 -84t37 -66.5t69 -44t106 -16.5q47 0 90 15.5t80 42t66.5 59.5t48.5 70v778v0z" />
<glyph unicode="&#xb6;" horiz-adv-x="1060" d="M352 831q-74 2 -128 28t-90 68t-53.5 95t-17.5 108q2 57 21.5 111.5t56.5 96.5t92.5 68t128.5 26h111v-1889q-6 -2 -14 -4q-20 -4 -45 -4q-16 0 -27.5 1t-19.5 3t-15 4v1288zM856 -457l-16 -4t-18.5 -3t-26.5 -1t-26.5 1t-18.5 3t-15 4v1880q6 2 15 4q8 2 18 3.5t27 1.5 q16 0 26 -1t19 -4l16 -4v-1880z" />
<glyph unicode="&#xb7;" horiz-adv-x="458" d="M305 516q-10 -4 -20 -6q-18 -6 -56 -6q-39 0 -57 6q-10 2 -18 6v133q8 2 18 4t23.5 4t33.5 2q18 0 31.5 -2t24.5 -4l20 -4v-133z" />
<glyph unicode="&#xb8;" horiz-adv-x="606" d="M322 74l-23 -127q119 0 170 -51.5t51 -137.5q0 -102 -61.5 -152t-177.5 -50q-43 0 -77 6t-59 16q-29 10 -49 25q0 47 35 71q10 -4 50 -18t93 -14q66 0 104 27.5t38 90.5q0 106 -127 107h-72l-20 24l36 201z" />
<glyph unicode="&#xb9;" horiz-adv-x="495" d="M53 1270q72 18 128.5 54t94.5 79q18 8 52 8q12 0 24.5 -2t22.5 -6v-688q-18 -6 -47 -6q-14 0 -26.5 1t-27.5 5v483v44.5t2 37.5q-41 -33 -90 -57.5t-108 -36.5q-14 14 -21.5 37.5t-3.5 46.5z" />
<glyph unicode="&#xba;" horiz-adv-x="772" d="M117 948q0 182 66.5 262t201.5 80q133 0 202.5 -78.5t69.5 -263.5q0 -184 -69.5 -264t-202.5 -80t-200.5 80t-67.5 264zM549 948q0 143 -39 199.5t-125 56.5t-124 -56t-38 -200q0 -145 38 -200.5t124 -55.5t125 55.5t39 200.5zM627 500q4 -8 6 -17.5t2 -25.5 q0 -25 -8 -45h-484q-6 14 -6 45q0 27 6 43h484z" />
<glyph unicode="&#xbb;" horiz-adv-x="1036" d="M926 614q2 -10 4 -18q2 -10 4 -20.5t2 -26.5t-2 -26.5t-4 -18.5t-4 -17l-420 -426q-20 16 -33.5 41t-17.5 52l352 399l-352 397q4 27 17 51.5t34 40.5zM557 610l4 -16t4 -19.5t2 -25.5t-2 -24.5t-4 -18.5t-4 -14l-387 -394q-20 14 -31.5 38t-15.5 50l319 367l-319 365 q4 27 15.5 50t31.5 38z" />
<glyph unicode="&#xbc;" horiz-adv-x="1345" d="M1016 1427q4 2 12 5q6 2 16.5 4t26.5 2q14 0 25.5 -2t17.5 -4q8 -2 12 -5l-792 -1439q-6 -2 -15 -4q-20 -4 -43 -4q-20 0 -40 4q-8 2 -15 4zM74 1270q72 18 128 54t95 79q18 8 51 8q12 0 24.5 -2t22.5 -6v-688q-23 -6 -47 -6q-14 0 -27.5 1t-27.5 5v483v44.5t2 37.5 q-39 -33 -88 -57.5t-109 -36.5q-16 14 -22 37.5t-2 46.5zM1253 262q2 -8 4.5 -18.5t2.5 -22.5q0 -14 -2.5 -23.5t-4.5 -15.5h-84v-176q-10 -2 -19 -4t-24 -2q-16 0 -26 2t-21 4v176h-358q-2 4 -4 12.5t-2 18.5q0 23 6 35l350 446q10 4 21.5 6t27.5 2q29 0 49 -8v-432h84z M834 262h245v311z" />
<glyph unicode="&#xbd;" horiz-adv-x="1458" d="M1016 1427q4 2 12 5q6 2 16.5 4t26.5 2q14 0 25.5 -2t17.5 -4q8 -2 12 -5l-792 -1439q-6 -2 -15 -4q-20 -4 -43 -4q-20 0 -40 4q-8 2 -15 4zM297 1403q18 8 51 8q12 0 24.5 -2t22.5 -6v-688q-23 -6 -47 -6q-14 0 -27.5 1t-27.5 5v483v44.5t2 37.5q-39 -33 -88 -57.5 t-109 -36.5q-16 14 -22 37.5t-2 46.5q72 18 128 54t95 79zM934 684q23 6 51 14q25 4 58.5 9.5t74.5 5.5q119 0 180.5 -52.5t61.5 -142.5q0 -61 -25.5 -102t-64.5 -70t-85 -51.5t-87 -49t-71 -63.5t-36 -92h350q10 -18 11 -45q0 -27 -11 -45h-444q-2 12 -4 25q-2 10 -3 25.5 t-1 33.5q0 70 27.5 116t67.5 77.5t88 55t88 48.5t67.5 54.5t27.5 76.5q0 49 -35.5 82t-117.5 33q-49 0 -92 -8.5t-52 -12.5q-28 35 -24 78z" />
<glyph unicode="&#xbe;" horiz-adv-x="1449" d="M1120 1427q4 2 13 5q6 2 16 4t27 2q14 0 25 -2t18 -4q8 -2 12 -5l-793 -1439q-6 -2 -14 -4q-20 -4 -43 -4q-20 0 -41 4q-8 2 -14 4zM121 1391q23 6 51 14q25 6 58.5 11t74.5 5q115 0 176.5 -48t61.5 -136q0 -57 -20.5 -95t-71.5 -63q53 -23 83.5 -62.5t30.5 -115.5 q0 -88 -60.5 -145.5t-215.5 -57.5q-43 0 -77 5.5t-58 11.5q-29 8 -52 18q-2 18 5.5 39t21.5 33q20 -6 45 -10q47 -10 111 -11q106 0 142 36t36 89q0 66 -40 95.5t-108 29.5h-92q-18 41 0 84h92q63 0 94 29t31 78q0 57 -36.5 83.5t-104.5 26.5q-33 0 -60.5 -3t-50.5 -7 q-25 -4 -45 -8q-26 27 -22 74zM1176 694q10 4 21 6t28 2q29 0 49 -8v-432h84q2 -8 4 -18.5t2 -22.5q0 -14 -2 -23.5t-4 -15.5h-84v-176q-10 -2 -19.5 -4t-23.5 -2q-16 0 -26.5 2t-20.5 4v176h-359q-2 6 -4 14.5t-2 18.5q0 20 6 33zM1184 262v311l-246 -311h246z" />
<glyph unicode="&#xbf;" horiz-adv-x="868" d="M440 1055q8 2 21 4q10 2 25.5 4t35.5 2q23 0 38 -2t26 -4q12 -2 20 -4v-150q-8 -4 -20 -6q-10 -2 -25.5 -3t-38.5 -1q-20 0 -35.5 1t-25.5 3q-12 2 -21 6v150zM88 -8q0 100 27.5 166.5t69.5 115t91.5 86t91.5 82.5t69.5 105.5t27.5 152.5q6 2 14 7q8 2 17.5 4t25.5 2 q14 0 25.5 -2t19.5 -4q8 -4 17 -7q0 -113 -26 -185.5t-63.5 -122.5t-81.5 -87t-82 -77t-63.5 -93t-25.5 -135q0 -104 63.5 -162.5t196.5 -58.5q59 0 106 7t80 17q37 10 68 25q53 -39 47 -109q-37 -20 -86 -34q-41 -12 -101.5 -22.5t-134.5 -10.5q-186 0 -289.5 90 t-103.5 250z" />
<glyph unicode="&#xc0;" horiz-adv-x="1327" d="M780 1593q-27 -43 -88 -49l-256 285q16 27 55 45t76 14zM580 1462q10 2 22 6q10 2 25.5 4.5t36.5 2.5q20 0 35.5 -2.5t25.5 -4.5q12 -4 23 -6l542 -1450q-8 -4 -20 -6q-23 -6 -64 -6q-37 0 -55 6q-10 2 -18 6l-148 391h-653l-150 -391q-8 -4 -18 -6q-18 -6 -55 -6t-56 6 q-10 2 -16 6zM655 1298l-10 -41q-4 -18 -12 -44.5t-19 -55.5l-237 -627h563l-238 627q-10 31 -18 56.5t-12 43.5l-10 41h-7z" />
<glyph unicode="&#xc1;" horiz-adv-x="1325" d="M772 1890q39 4 77 -13t54 -46l-256 -285q-63 6 -88 49zM578 1462q10 2 22 6q10 2 25.5 4.5t36.5 2.5q20 0 35.5 -2.5t25.5 -4.5q12 -4 22 -6l543 -1450q-8 -4 -20 -6q-23 -6 -64 -6q-37 0 -55 6q-10 2 -19 6l-147 391h-653l-150 -391q-8 -4 -18 -6q-18 -6 -56 -6 q-39 0 -53 6q-10 2 -16 6zM653 1298l-10 -41q-4 -18 -12 -44.5t-19 -55.5l-237 -627h563l-238 627q-10 31 -18 56.5t-12 43.5l-11 41h-6z" />
<glyph unicode="&#xc2;" horiz-adv-x="1325" d="M954 1634q-10 -25 -27.5 -44t-41.5 -27l-230 161l-225 -161q-51 18 -70 71l271 221h53zM578 1462q10 2 22 6q10 2 25.5 4.5t36.5 2.5q20 0 35.5 -2.5t25.5 -4.5q12 -4 22 -6l543 -1450q-8 -4 -20 -6q-23 -6 -64 -6q-37 0 -55 6q-10 2 -19 6l-147 391h-653l-150 -391 q-8 -4 -18 -6q-18 -6 -56 -6q-39 0 -53 6q-10 2 -16 6zM653 1298l-10 -41q-4 -18 -12 -44.5t-19 -55.5l-237 -627h563l-238 627q-10 31 -18 56.5t-12 43.5l-11 41h-6z" />
<glyph unicode="&#xc3;" horiz-adv-x="1325" d="M385 1626q14 31 37 53q18 20 49 37t74 19q41 2 70.5 -9.5t55 -25.5t50 -25.5t55.5 -9.5q23 0 37 8t25 19q10 12 20 28q23 -4 45.5 -16t34.5 -35q-18 -29 -41 -51q-20 -20 -51 -36.5t-74 -16.5q-41 -2 -70.5 9t-54 24.5t-48.5 24.5t-54 11q-23 -2 -39.5 -10t-26.5 -18 q-12 -12 -18 -29q-27 4 -47.5 15t-28.5 34zM578 1462q10 2 22 6q10 2 25.5 4.5t36.5 2.5q20 0 35.5 -2.5t25.5 -4.5q12 -4 22 -6l543 -1450q-8 -4 -20 -6q-23 -6 -64 -6q-37 0 -55 6q-10 2 -19 6l-147 391h-653l-150 -391q-8 -4 -18 -6q-18 -6 -56 -6q-39 0 -53 6 q-10 2 -16 6zM653 1298l-10 -41q-4 -18 -12 -44.5t-19 -55.5l-237 -627h563l-238 627q-10 31 -18 56.5t-12 43.5l-11 41h-6z" />
<glyph unicode="&#xc4;" horiz-adv-x="1327" d="M422 1704q8 2 18 4t23.5 3t34.5 1q18 0 31.5 -1t23.5 -3l20 -4v-135l-20 -4t-23.5 -3t-31.5 -1q-20 0 -33.5 1t-24.5 3q-10 2 -18 4v135zM745 1704q8 2 19 4q10 2 23.5 3t33.5 1q18 0 31.5 -1t24.5 -3l20 -4v-135l-20 -4t-23.5 -3t-32.5 -1q-20 0 -33.5 1t-23.5 3t-19 4 v135zM580 1462q10 2 22 6q10 2 25.5 4.5t36.5 2.5q20 0 35.5 -2.5t25.5 -4.5q12 -4 23 -6l542 -1450q-8 -4 -20 -6q-23 -6 -64 -6q-37 0 -55 6q-10 2 -18 6l-148 391h-653l-150 -391q-8 -4 -18 -6q-18 -6 -55 -6t-56 6q-10 2 -16 6zM655 1298l-10 -41q-4 -18 -12 -44.5 t-19 -55.5l-237 -627h563l-238 627q-10 31 -18 56.5t-12 43.5l-10 41h-7z" />
<glyph unicode="&#xc5;" horiz-adv-x="1327" d="M1288 12q-10 -4 -20 -6q-23 -6 -62 -6q-37 0 -55 6q-10 2 -18 6l-148 391h-653l-150 -391q-8 -4 -18 -6q-18 -6 -55 -6t-56 6q-10 2 -16 6l526 1407q-63 18 -102 70.5t-39 130.5q0 53 20.5 94t53 68.5t75.5 42t91 14.5q45 0 88 -13.5t76.5 -41t54 -68.5t20.5 -96 q0 -78 -39 -127t-98 -70zM805 1620q0 53 -37 93t-109 40t-106.5 -41t-34.5 -92q0 -53 35 -95t106 -42q72 0 109 43t37 94zM702 1157q-10 31 -18 56.5t-12 43.5l-10 41h-7l-10 -41q-4 -18 -12 -44.5t-19 -55.5l-237 -627h563z" />
<glyph unicode="&#xc6;" horiz-adv-x="1757" d="M1630 1475q14 -29 12 -65t-12 -62h-569v-539h467q23 -66 0 -127h-467v-555h590q12 -31 12 -65.5t-12 -61.5h-733v389h-512l-226 -377q-35 -12 -82 -12q-23 0 -44 3t-36 9l887 1463h725zM918 516v727l-437 -727h437z" />
<glyph unicode="&#xc7;" horiz-adv-x="1144" d="M1059 115q10 -31 10 -45v-21q-39 -20 -92 -35q-47 -12 -113.5 -23t-154.5 -11l-15 -74q119 0 170 -51.5t51 -137.5q0 -102 -61 -152t-178 -50q-43 0 -77 6t-58 16q-29 10 -49 25q0 47 34 71q10 -4 50 -18t94 -14q66 0 103.5 27.5t37.5 90.5q0 106 -127 107h-72l-20 24 l24 136q-487 53 -487 751q0 377 142.5 567.5t428.5 190.5q86 0 149.5 -11t108.5 -24q51 -14 89 -33q2 -10 2 -18q0 -16 -11 -43q-12 -27 -26 -41l-13 -12q-37 14 -79 24q-37 10 -88.5 18.5t-112.5 8.5q-96 0 -175 -29.5t-136.5 -101.5t-88 -192.5t-30.5 -305.5 q0 -184 30.5 -304t88 -190.5t136.5 -99t175 -28.5q68 0 123 7t96 17q47 10 84 27l12 -12q4 -6 11.5 -15.5t13.5 -21.5z" />
<glyph unicode="&#xc8;" d="M365 1829q16 27 55 45t76 14l213 -295q-27 -43 -88 -49zM1010 1475q12 -29 12 -62q0 -39 -12 -65h-662v-539h559q12 -29 13 -59q0 -35 -13 -66h-559v-557h682q12 -29 12 -61q0 -35 -12 -66h-833v1475h813z" />
<glyph unicode="&#xc9;" d="M532 1548q-63 6 -88 49l213 295q39 4 77 -13t54 -46zM1010 1475q12 -29 12 -62q0 -39 -12 -65h-662v-539h559q12 -29 13 -59q0 -35 -13 -66h-559v-557h682q12 -29 12 -61q0 -35 -12 -66h-833v1475h813z" />
<glyph unicode="&#xca;" d="M895 1634q-10 -25 -27.5 -44t-42.5 -27l-227 161l-225 -161q-49 18 -72 71l270 221h54zM1010 1475q12 -29 12 -62q0 -39 -12 -65h-662v-539h559q12 -29 13 -59q0 -35 -13 -66h-559v-557h682q12 -29 12 -61q0 -35 -12 -66h-833v1475h813z" />
<glyph unicode="&#xcb;" d="M520 1569q-8 -2 -18 -4t-23.5 -3t-32.5 -1q-20 0 -33.5 1t-23.5 3t-18 4v135q8 2 18 4t23.5 3t33.5 1q18 0 32 -1t24 -3t18 -4v-135zM844 1569q-8 -2 -19 -4q-10 -2 -23.5 -3t-31.5 -1q-20 0 -33.5 1t-23.5 3t-19 4v135q8 2 19 4q10 2 23.5 3t33.5 1q18 0 31.5 -1 t23.5 -3t19 -4v-135zM1010 1475q12 -29 12 -62q0 -39 -12 -65h-662v-539h559q12 -29 13 -59q0 -35 -13 -66h-559v-557h682q12 -29 12 -61q0 -35 -12 -66h-833v1475h813z" />
<glyph unicode="&#xcc;" horiz-adv-x="544" d="M57 1829q16 27 55.5 45t75.5 14l213 -295q-27 -43 -88 -49zM197 1462l18 6q10 2 23.5 4.5t33.5 2.5q18 0 32.5 -2.5t25.5 -4.5l18 -6v-1450q-10 -4 -20 -6q-18 -6 -56 -6q-39 0 -57 6q-10 2 -18 6v1450z" />
<glyph unicode="&#xcd;" horiz-adv-x="544" d="M205 1548q-63 6 -88 49l213 295q39 4 76.5 -13t54.5 -46zM197 1462l18 6q10 2 23.5 4.5t33.5 2.5q18 0 32.5 -2.5t25.5 -4.5l18 -6v-1450q-10 -4 -20 -6q-18 -6 -56 -6q-39 0 -57 6q-10 2 -18 6v1450z" />
<glyph unicode="&#xce;" horiz-adv-x="544" d="M569 1634q-10 -25 -27.5 -44t-41.5 -27l-230 161l-225 -161q-47 18 -70 71l271 221h53zM197 1462l18 6q10 2 23.5 4.5t33.5 2.5q18 0 32.5 -2.5t25.5 -4.5l18 -6v-1450q-10 -4 -20 -6q-18 -6 -56 -6q-39 0 -57 6q-10 2 -18 6v1450z" />
<glyph unicode="&#xcf;" horiz-adv-x="544" d="M186 1569q-8 -2 -18 -4t-23.5 -3t-31.5 -1q-20 0 -33.5 1t-24.5 3q-10 2 -18 4v135q8 2 18 4t23.5 3t34.5 1q18 0 31.5 -1t23.5 -3t18 -4v-135zM510 1569q-8 -2 -18 -4t-23.5 -3t-32.5 -1q-20 0 -33.5 1t-23.5 3t-19 4v135q8 2 19 4q10 2 23.5 3t33.5 1q18 0 31.5 -1 t24.5 -3q10 -2 18 -4v-135zM197 1462l18 6q10 2 23.5 4.5t33.5 2.5q18 0 32.5 -2.5t25.5 -4.5l18 -6v-1450q-10 -4 -20 -6q-18 -6 -56 -6q-39 0 -57 6q-10 2 -18 6v1450z" />
<glyph unicode="&#xd0;" horiz-adv-x="1372" d="M643 1475q143 0 255 -37t187.5 -123t114.5 -227.5t39 -350.5q0 -207 -39 -348t-114.5 -227t-187.5 -124t-255 -38h-428v676h-168q-16 57 0 108h168v691h428zM367 784h319q6 -23 6 -53.5t-6 -54.5h-319v-547h264q104 0 187 25.5t140.5 94t88 186.5t30.5 302t-30.5 303 t-88 186.5t-140.5 93.5t-187 26h-264v-562z" />
<glyph unicode="&#xd1;" horiz-adv-x="1425" d="M852 1665q23 0 40 8t30 19q12 10 22 26q23 -6 40 -26.5t22 -42.5q-2 -4 -14.5 -18.5t-34 -30t-51 -27.5t-66.5 -12q-41 0 -70 11t-52.5 23.5t-47 23.5t-54.5 11q-23 0 -39 -9t-28 -19q-14 -12 -25 -27q-53 23 -61 70q16 25 39 45q20 16 51 31.5t74 15.5q41 0 69.5 -11.5 t53 -24.5t48 -24.5t54.5 -11.5zM444 1055q-29 47 -49 87l-35 70q-16 37 -26 68h-6q2 -33 4 -80q2 -41 4 -98.5t2 -132.5v-957q-8 -4 -19 -6q-18 -6 -53 -6q-39 0 -53 6q-10 2 -16 6v1450q10 2 22 6q10 2 27.5 4.5t40.5 2.5t39 -2.5t26 -4.5q12 -4 23 -6l602 -1030 q27 -45 47 -87t37 -77q18 -39 33 -73h6q-4 39 -6 88q-6 82 -7 217v962q6 2 17 6q10 2 23.5 4.5t31.5 2.5t31.5 -2.5t21.5 -4.5q8 -4 17 -6v-1450q-8 -4 -21 -6q-23 -6 -67 -6q-47 0 -68 6q-12 2 -22 6z" />
<glyph unicode="&#xd2;" horiz-adv-x="1388" d="M844 1604q-25 -43 -88 -50l-246 275q16 27 55 45t76 14zM131 737q0 199 39 342.5t111.5 235.5t177 136t235.5 44t235.5 -44t177.5 -136t111.5 -235.5t38.5 -342.5t-38.5 -342t-111.5 -235t-177.5 -136t-235.5 -44t-235.5 44t-177 136t-111.5 235t-39 342zM1098 737 q0 178 -29 299t-81 195t-127 105.5t-167 31.5t-166.5 -31.5t-127 -105.5t-81 -195t-28.5 -299t28.5 -299t81 -194.5t127 -105.5t166.5 -32t167 32t127 105.5t81 194.5t29 299z" />
<glyph unicode="&#xd3;" horiz-adv-x="1388" d="M864 1915q39 4 77 -13.5t54 -46.5l-247 -274q-63 10 -89 49zM131 737q0 199 39 342.5t111.5 235.5t177 136t235.5 44t235.5 -44t177.5 -136t111.5 -235.5t38.5 -342.5t-38.5 -342t-111.5 -235t-177.5 -136t-235.5 -44t-235.5 44t-177 136t-111.5 235t-39 342zM1098 737 q0 178 -29 299t-81 195t-127 105.5t-167 31.5t-166.5 -31.5t-127 -105.5t-81 -195t-28.5 -299t28.5 -299t81 -194.5t127 -105.5t166.5 -32t167 32t127 105.5t81 194.5t29 299z" />
<glyph unicode="&#xd4;" horiz-adv-x="1388" d="M995 1634q-10 -25 -28.5 -44t-40.5 -27l-230 161l-225 -161q-51 18 -70 71l271 221h53zM131 737q0 199 39 342.5t111.5 235.5t177 136t235.5 44t235.5 -44t177.5 -136t111.5 -235.5t38.5 -342.5t-38.5 -342t-111.5 -235t-177.5 -136t-235.5 -44t-235.5 44t-177 136 t-111.5 235t-39 342zM1098 737q0 178 -29 299t-81 195t-127 105.5t-167 31.5t-166.5 -31.5t-127 -105.5t-81 -195t-28.5 -299t28.5 -299t81 -194.5t127 -105.5t166.5 -32t167 32t127 105.5t81 194.5t29 299z" />
<glyph unicode="&#xd5;" horiz-adv-x="1388" d="M817 1694q23 0 40 10t28 20q12 12 22 29q47 -16 62 -67q-14 -25 -37 -48q-18 -18 -49 -33.5t-74 -17.5q-37 -2 -65.5 8.5t-54 22.5t-51.5 22.5t-56 10.5q-23 -2 -41.5 -11.5t-28.5 -19.5q-14 -12 -23 -29q-45 23 -59 68q14 25 37 47q18 16 48 31.5t75 17.5q41 2 70.5 -8 t54 -22.5t48 -21.5t54.5 -9zM694 -20q-131 0 -235.5 44t-177 136t-111.5 235.5t-39 341.5q0 199 39 342.5t111.5 235.5t177 136t235.5 44t235.5 -44t177.5 -136t111.5 -235.5t38.5 -342.5t-38.5 -342t-111.5 -235t-177.5 -136t-235.5 -44zM694 1368q-92 0 -166.5 -31.5 t-127 -105.5t-81 -195t-28.5 -299t28.5 -299t81 -194.5t127 -105.5t166.5 -32t167 32t127 105.5t81 194.5t29 299t-29 299t-81 195t-127 105.5t-167 31.5z" />
<glyph unicode="&#xd6;" horiz-adv-x="1388" d="M457 1724q8 2 18 5q10 2 23.5 3t33.5 1q18 0 32 -1t24 -3t20 -5v-135l-20 -4t-23.5 -3t-32.5 -1q-20 0 -33.5 1t-23.5 3t-18 4v135zM780 1724q8 2 19 5q10 2 23.5 3t33.5 1q18 0 31.5 -1t23.5 -3t21 -5v-135q-10 -2 -21 -4q-10 -2 -23.5 -3t-31.5 -1q-20 0 -33.5 1 t-23.5 3t-19 4v135zM131 737q0 199 39 342.5t111.5 235.5t177 136t235.5 44t235.5 -44t177.5 -136t111.5 -235.5t38.5 -342.5t-38.5 -342t-111.5 -235t-177.5 -136t-235.5 -44t-235.5 44t-177 136t-111.5 235t-39 342zM1098 737q0 178 -29 299t-81 195t-127 105.5t-167 31.5 t-166.5 -31.5t-127 -105.5t-81 -195t-28.5 -299t28.5 -299t81 -194.5t127 -105.5t166.5 -32t167 32t127 105.5t81 194.5t29 299z" />
<glyph unicode="&#xd7;" horiz-adv-x="946" d="M236 268q-8 2 -17 8q-16 10 -33 29q-18 16 -28 33q-6 8 -8 16l237 238l-237 237q2 6 8 15q4 6 11 15t17 20q16 18 33 28q8 6 17 8l237 -237l238 237q6 -2 14 -8q6 -4 15.5 -11t19.5 -17t17 -19.5t11 -15.5q6 -8 9 -15l-238 -237l238 -238q-2 -8 -9 -16q-10 -16 -28 -33 q-10 -10 -19.5 -17t-15.5 -12q-8 -6 -14 -8l-238 238z" />
<glyph unicode="&#xd8;" horiz-adv-x="1386" d="M1083 1567q33 -4 62 -18.5t49 -35.5l-107 -180q82 -92 125 -238.5t43 -357.5q0 -199 -38.5 -342t-111.5 -235t-177.5 -136t-235.5 -44q-201 0 -327 100l-101 -174q-68 6 -110 53l120 207q-72 92 -108.5 233.5t-36.5 337.5q0 199 39 342.5t111.5 235.5t177 136t235.5 44 q178 0 303 -82zM926 1296q-47 37 -106.5 54.5t-127.5 17.5q-92 0 -166.5 -31.5t-127 -105.5t-81 -195t-28.5 -299q0 -272 78 -418zM436 203q51 -51 114.5 -74t141.5 -23q92 0 167 32t127 105.5t81 194.5t29 299q0 156 -24.5 266.5t-72.5 180.5z" />
<glyph unicode="&#xd9;" horiz-adv-x="1368" d="M451 1829q16 27 55 45t76 14l200 -282q-25 -39 -88 -50zM1184 481q0 -121 -36 -214t-101.5 -157.5t-157.5 -97t-205 -32.5t-205 33.5t-156.5 98t-100.5 157.5t-36 212v981l19 6q10 2 24.5 4.5t32.5 2.5t32.5 -2.5t24.5 -4.5l19 -6v-1003q0 -166 92 -258t258 -92t256 92 t90 258v1003l19 6q10 2 23.5 4.5t31.5 2.5t31.5 -2.5t23.5 -4.5q10 -4 21 -6v-981z" />
<glyph unicode="&#xda;" horiz-adv-x="1368" d="M639 1548q-63 6 -88 49l213 295q39 4 77 -13t54 -46zM1184 481q0 -121 -36 -214t-101.5 -157.5t-157.5 -97t-205 -32.5t-205 33.5t-156.5 98t-100.5 157.5t-36 212v981l19 6q10 2 24.5 4.5t32.5 2.5t32.5 -2.5t24.5 -4.5l19 -6v-1003q0 -166 92 -258t258 -92t256 92 t90 258v1003l19 6q10 2 23.5 4.5t31.5 2.5t31.5 -2.5t23.5 -4.5q10 -4 21 -6v-981z" />
<glyph unicode="&#xdb;" horiz-adv-x="1368" d="M993 1634q-10 -25 -27.5 -44t-41.5 -27l-230 161l-225 -161q-51 18 -70 71l271 221h53zM1184 481q0 -121 -36 -214t-101.5 -157.5t-157.5 -97t-205 -32.5t-205 33.5t-156.5 98t-100.5 157.5t-36 212v981l19 6q10 2 24.5 4.5t32.5 2.5t32.5 -2.5t24.5 -4.5l19 -6v-1003 q0 -166 92 -258t258 -92t256 92t90 258v1003l19 6q10 2 23.5 4.5t31.5 2.5t31.5 -2.5t23.5 -4.5q10 -4 21 -6v-981z" />
<glyph unicode="&#xdc;" horiz-adv-x="1368" d="M598 1593q-8 -4 -18 -6t-23.5 -3t-32.5 -1q-20 0 -33.5 1t-23.5 3t-18 6v133q8 2 18 5q10 2 23.5 4t33.5 2q18 0 31.5 -2t24.5 -4q10 -2 18 -5v-133zM922 1593q-8 -4 -19 -6q-10 -2 -23.5 -3t-31.5 -1q-20 0 -33.5 1t-23.5 3t-19 6v133q8 2 19 5q10 2 23 4t34 2 q18 0 31.5 -2t23.5 -4t19 -5v-133zM1184 481q0 -121 -36 -214t-101.5 -157.5t-157.5 -97t-205 -32.5t-205 33.5t-156.5 98t-100.5 157.5t-36 212v981l19 6q10 2 24.5 4.5t32.5 2.5t32.5 -2.5t24.5 -4.5l19 -6v-1003q0 -166 92 -258t258 -92t256 92t90 258v1003l19 6 q10 2 23.5 4.5t31.5 2.5t31.5 -2.5t23.5 -4.5q10 -4 21 -6v-981z" />
<glyph unicode="&#xdd;" horiz-adv-x="1286" d="M739 1892q39 4 77 -13t54 -46l-256 -285q-63 6 -88 49zM1100 1468q10 2 24.5 4.5t36.5 2.5q20 0 36.5 -2.5t27.5 -4.5q12 -4 22 -6l-530 -841v-609q-8 -4 -19 -6q-18 -6 -55 -6q-41 0 -59 6q-10 2 -19 6v604l-516 846q8 2 23 6q10 2 28.5 4.5t40.5 2.5q23 0 38.5 -2.5 t25.5 -4.5q12 -4 22 -6l422 -686l432 686z" />
<glyph unicode="&#xde;" horiz-adv-x="1236" d="M215 1468q10 2 23.5 4.5t33.5 2.5t33.5 -2.5t24.5 -4.5l18 -6v-276h367q98 0 177 -31t133 -86t84 -134t30 -175t-30 -174t-84 -133.5t-133 -86t-177 -30.5h-367v-324q-8 -4 -18 -6q-18 -6 -58 -6q-41 0 -59 6q-10 2 -16 6v1450zM348 465h352q135 0 207 78t72 215 q0 141 -71.5 220t-207.5 79h-352v-592z" />
<glyph unicode="&#xdf;" horiz-adv-x="1169" d="M164 1139q0 205 108.5 301t313.5 96q100 0 172.5 -29.5t121 -79t70 -114t21.5 -131.5q0 -70 -16.5 -121t-26.5 -72q-61 -4 -111 -26q-41 -18 -75.5 -57.5t-34.5 -104.5q0 -53 27.5 -90t70.5 -68t91 -60.5t91 -69.5t70.5 -96.5t27.5 -137.5q0 -143 -89 -221t-246 -78 q-53 0 -93.5 5t-68.5 13q-33 8 -58 18q-6 66 35 105q29 -10 74 -16.5t86 -6.5q111 0 164 48.5t53 125.5q0 61 -28.5 104.5t-70.5 76t-91.5 62.5t-91.5 65.5t-70.5 85t-28.5 120.5q0 86 37 139.5t82 82.5q53 35 121 47q4 10 12 45t8 80q0 47 -14 90t-43 74.5t-73 51 t-107 19.5q-145 0 -209 -70.5t-64 -205.5v-1129q-8 -4 -18 -6t-23.5 -3t-31.5 -1q-20 0 -32.5 1t-23.5 3q-10 2 -18 6v1129z" />
<glyph unicode="&#xe0;" horiz-adv-x="1054" d="M606 1292q-27 -43 -88 -49l-256 285q16 27 55 45t76 14zM176 1028q47 18 103 35q47 12 110.5 23.5t136.5 11.5q111 0 182.5 -27t113.5 -79t58.5 -129t16.5 -179v-674q-6 -4 -14 -6t-18.5 -3t-26.5 -1q-23 0 -43 4q-8 2 -17 6l-22 154q-43 -90 -132 -137t-212 -47 q-143 0 -230.5 83.5t-87.5 243.5q0 158 96.5 239t290.5 81q86 0 158 -6.5t111 -10.5v117q0 127 -57.5 185.5t-184.5 58.5q-59 0 -109.5 -8.5t-91.5 -18.5q-47 -10 -86 -24q-4 2 -14 12t-21 33q-10 23 -10 41v22zM750 504q-35 4 -105 10t-143 6q-254 0 -254 -213 q0 -111 56 -160t155 -49q68 0 122 24.5t91 67.5t57.5 102.5t20.5 129.5v82z" />
<glyph unicode="&#xe1;" horiz-adv-x="1054" d="M598 1587q39 4 77 -13.5t56 -45.5l-256 -285q-63 6 -88 49zM176 1028q47 18 103 35q47 12 110.5 23.5t136.5 11.5q111 0 182.5 -27t113.5 -79t58.5 -129t16.5 -179v-674q-6 -4 -14 -6t-18.5 -3t-26.5 -1q-23 0 -43 4q-8 2 -17 6l-22 154q-43 -90 -132 -137t-212 -47 q-143 0 -230.5 83.5t-87.5 243.5q0 158 96.5 239t290.5 81q86 0 158 -6.5t111 -10.5v115q0 129 -57.5 187.5t-184.5 58.5q-59 0 -109.5 -8.5t-91.5 -18.5q-47 -10 -86 -24q-4 2 -14 12t-21 33q-10 23 -10 41v22zM750 504q-35 4 -105 10t-143 6q-254 0 -254 -213 q0 -111 56 -160t155 -49q68 0 122 24.5t91 67.5t57.5 102.5t20.5 129.5v82z" />
<glyph unicode="&#xe2;" horiz-adv-x="1054" d="M819 1303q-10 -23 -27.5 -42.5t-41.5 -25.5l-222 156l-223 -158q-45 16 -67 70l264 217h51zM176 1028q47 18 103 35q47 12 110.5 23.5t136.5 11.5q111 0 182.5 -27t113.5 -79t58.5 -129t16.5 -179v-674q-6 -4 -14 -6t-18.5 -3t-26.5 -1q-23 0 -43 4q-8 2 -17 6l-22 154 q-43 -90 -132 -137t-212 -47q-143 0 -230.5 83.5t-87.5 243.5q0 158 96.5 239t290.5 81q86 0 158 -6.5t111 -10.5v119q0 127 -58.5 184.5t-183.5 57.5q-59 0 -109.5 -8.5t-91.5 -18.5q-47 -10 -86 -24q-4 2 -14 12t-21 33q-10 23 -10 41v22zM750 504q-35 4 -105 10t-143 6 q-254 0 -254 -213q0 -111 56 -160t155 -49q68 0 122 24.5t91 67.5t57.5 102.5t20.5 129.5v82z" />
<glyph unicode="&#xe3;" horiz-adv-x="1052" d="M260 1364q2 2 13.5 17.5t33 32t51 29.5t68.5 13q41 0 69.5 -11t52 -23.5t47 -24t54.5 -11.5q45 0 66.5 22t25.5 32q49 -20 60 -70q0 -4 -11.5 -18.5t-32 -29.5t-50 -28.5t-68.5 -13.5q-41 0 -69.5 11.5t-53 24.5t-48.5 24.5t-54 11.5q-23 0 -40.5 -9.5t-29.5 -19.5 q-14 -12 -25 -29q-47 27 -59 70zM176 1028q47 18 103 35q47 12 110.5 23.5t136.5 11.5q111 0 182.5 -27t113.5 -79t58.5 -129t16.5 -179v-674q-6 -4 -14 -6t-18.5 -3t-26.5 -1q-23 0 -43 4q-8 2 -17 6l-22 154q-43 -90 -132 -137t-212 -47q-143 0 -230.5 83.5t-87.5 243.5 q0 158 96.5 239t290.5 81q86 0 158 -6.5t111 -10.5v121q0 129 -58.5 184.5t-183.5 55.5q-59 0 -109.5 -8.5t-91.5 -18.5q-47 -10 -86 -24q-4 2 -14 12t-21 33q-10 23 -10 41v22zM750 504q-35 4 -105 10t-143 6q-254 0 -254 -213q0 -111 56 -160t155 -49q68 0 122 24.5 t91 67.5t57.5 102.5t20.5 129.5v82z" />
<glyph unicode="&#xe4;" horiz-adv-x="1054" d="M291 1442q8 2 18 4t23.5 4t34.5 2q18 0 31.5 -2t23.5 -4t18 -4v-133q-8 -4 -18 -6t-23.5 -3.5t-31.5 -1.5q-20 0 -34 1t-24 4q-10 2 -18 6v133zM614 1442q8 2 19 4q10 2 23.5 4t33.5 2q18 0 31.5 -2t23.5 -4t19 -4v-133q-8 -4 -19 -6q-10 -2 -23 -3.5t-32 -1.5 q-20 0 -33.5 1t-23.5 4q-10 2 -19 6v133zM176 1028q47 18 103 35q47 12 110.5 23.5t136.5 11.5q111 0 182.5 -27t113.5 -79t58.5 -129t16.5 -179v-674q-6 -4 -14 -6t-18.5 -3t-26.5 -1q-23 0 -43 4q-8 2 -17 6l-22 154q-43 -90 -132 -137t-212 -47q-143 0 -230.5 83.5 t-87.5 243.5q0 158 96.5 239t290.5 81q86 0 158 -6.5t111 -10.5v117q0 127 -57.5 185.5t-184.5 58.5q-59 0 -109.5 -8.5t-91.5 -18.5q-47 -10 -86 -24q-4 2 -14 12t-21 33q-10 23 -10 41v22zM750 504q-35 4 -105 10t-143 6q-254 0 -254 -213q0 -111 56 -160t155 -49 q68 0 122 24.5t91 67.5t57.5 102.5t20.5 129.5v82z" />
<glyph unicode="&#xe5;" horiz-adv-x="1054" d="M295 1425q0 51 19.5 90t52 66t74.5 40t87 13q43 0 85 -13t76 -39t54.5 -65.5t20.5 -91.5q0 -53 -19.5 -93t-51 -66.5t-75 -41t-92.5 -14.5q-98 0 -164.5 55.5t-66.5 159.5zM664 1425q0 47 -34 85t-104 38q-66 0 -98.5 -37.5t-32.5 -85.5q0 -49 33 -88t98 -39q70 0 104 40 t34 87zM176 1028q47 18 103 35q47 12 110.5 23.5t136.5 11.5q111 0 182.5 -27t113.5 -79t58.5 -129t16.5 -179v-674q-6 -4 -14 -6t-18.5 -3t-26.5 -1q-23 0 -43 4q-8 2 -17 6l-22 154q-43 -90 -132 -137t-212 -47q-143 0 -230.5 83.5t-87.5 243.5q0 158 96.5 239t290.5 81 q86 0 158 -6.5t111 -10.5v115q0 129 -57.5 187.5t-184.5 58.5q-59 0 -109.5 -8.5t-91.5 -18.5q-47 -10 -86 -24q-4 2 -14 12t-21 33q-10 23 -10 41v22zM750 504q-35 4 -105 10t-143 6q-254 0 -254 -213q0 -111 56 -160t155 -49q68 0 122 24.5t91 67.5t57.5 102.5t20.5 129.5 v82z" />
<glyph unicode="&#xe6;" horiz-adv-x="1587" d="M809 909q47 94 127 141.5t182 47.5q180 0 273.5 -105.5t93.5 -292.5q0 -43 -4 -77.5t-8 -61.5q-6 -31 -11 -53h-604q10 -211 82 -307.5t205 -96.5q55 0 98 10.5t74 22.5q35 14 61 33q23 -16 35 -43t17 -57q-31 -25 -76 -45q-39 -16 -95.5 -30.5t-134.5 -14.5 q-72 0 -129 19t-100 53t-72.5 78t-44.5 93q-14 -47 -42.5 -91t-75 -78t-109 -54t-141.5 -20q-150 0 -233 83.5t-83 243.5q0 158 90 234.5t283 76.5h246v113q0 129 -53.5 184.5t-172.5 55.5q-53 0 -102 -8.5t-86 -18.5q-43 -10 -80 -24q-20 18 -31.5 47.5t-11.5 60.5 q43 18 96 35q45 12 104.5 23.5t129.5 11.5q129 0 200.5 -49.5t102.5 -139.5zM1335 719q0 51 -11 98t-35.5 83t-66.5 56.5t-104 20.5q-53 0 -98 -18.5t-80 -61.5t-56.5 -111.5t-25.5 -167.5h469q2 10 4 25q2 12 3 31.5t1 44.5zM487 508q-129 0 -185 -47t-56 -156 q0 -104 50 -155.5t140 -51.5q129 0 203 85t74 233v92h-226z" />
<glyph unicode="&#xe7;" horiz-adv-x="911" d="M530 -119q119 0 170.5 -49t51.5 -133q0 -102 -61.5 -148.5t-178.5 -46.5q-43 0 -77 6.5t-58 16.5q-29 10 -49 24q0 47 34 72q10 -4 50.5 -18.5t93.5 -14.5q66 0 103.5 24t37.5 87q0 104 -127 104h-71l-21 23l27 160q-166 31 -253 170t-87 381q0 274 111.5 416.5 t328.5 142.5q66 0 115 -7.5t82 -17.5q37 -10 61 -24q0 -66 -45 -107q-23 8 -51 16q-25 6 -58.5 12.5t-76.5 6.5q-166 0 -240 -109.5t-74 -328.5q0 -221 78 -328t244 -107q45 0 81 6.5t62 14.5q31 8 55 20q43 -37 48 -104q-29 -18 -70 -31q-35 -10 -90 -20t-129 -10z" />
<glyph unicode="&#xe8;" horiz-adv-x="1048" d="M326 1528q16 27 55 45t76 14l213 -295q-27 -43 -88 -49zM268 492q6 -104 27.5 -177t61.5 -118t97.5 -65.5t131.5 -20.5q59 0 104 10t78 22q37 14 68 35q23 -16 37 -46t16 -62q-35 -25 -84 -45q-41 -16 -103.5 -30.5t-144.5 -14.5q-223 0 -332.5 142t-109.5 423 q0 145 31.5 249.5t90 172t139.5 99.5t179 32q186 0 287.5 -105.5t101.5 -292.5q0 -47 -4 -84.5t-8 -66.5q-6 -33 -10 -57h-654zM795 719q0 51 -12.5 98t-41 83t-74.5 56.5t-112 20.5q-123 0 -199.5 -87t-87.5 -288h518q2 8 5.5 39t3.5 78z" />
<glyph unicode="&#xe9;" horiz-adv-x="1048" d="M475 1243q-63 6 -88 49l213 295q39 4 77 -13.5t54 -45.5zM268 492q6 -104 27.5 -177t61.5 -118t97.5 -65.5t131.5 -20.5q59 0 104 10t78 22q37 14 68 35q23 -16 37 -46t16 -62q-35 -25 -84 -45q-41 -16 -103.5 -30.5t-144.5 -14.5q-223 0 -332.5 142t-109.5 423 q0 145 31.5 249.5t90 172t139.5 99.5t179 32q186 0 287.5 -105.5t101.5 -292.5q0 -47 -4 -84.5t-8 -66.5q-6 -33 -10 -57h-654zM795 719q0 51 -12.5 98t-41 83t-74.5 56.5t-112 20.5q-123 0 -199.5 -87t-87.5 -288h518q2 8 5.5 39t3.5 78z" />
<glyph unicode="&#xea;" horiz-adv-x="1048" d="M842 1303q-10 -23 -27.5 -42.5t-42.5 -25.5l-221 156l-221 -158q-47 16 -70 70l264 217h51zM268 492q6 -104 27.5 -177t61.5 -118t97.5 -65.5t131.5 -20.5q59 0 104 10t78 22q37 14 68 35q23 -16 37 -46t16 -62q-35 -25 -84 -45q-41 -16 -103.5 -30.5t-144.5 -14.5 q-223 0 -332.5 142t-109.5 423q0 145 31.5 249.5t90 172t139.5 99.5t179 32q186 0 287.5 -105.5t101.5 -292.5q0 -47 -4 -84.5t-8 -66.5q-6 -33 -10 -57h-654zM795 719q0 51 -12.5 98t-41 83t-74.5 56.5t-112 20.5q-123 0 -199.5 -87t-87.5 -288h518q2 8 5.5 39t3.5 78z" />
<glyph unicode="&#xeb;" horiz-adv-x="1048" d="M465 1290q-10 -4 -21 -6q-10 -2 -23 -3t-32 -1q-20 0 -32.5 1t-22.5 3t-19 6v133q8 2 19 4l22.5 4.5t32.5 2.5q18 0 31.5 -2t23.5 -5q10 -2 21 -4v-133zM788 1290q-10 -4 -20 -6t-23.5 -3t-31.5 -1q-20 0 -32.5 1t-23.5 3q-10 2 -18 6v133q8 2 18 4l22.5 4.5t33.5 2.5 q18 0 31.5 -2t23.5 -5l20 -4v-133zM268 492q6 -104 27.5 -177t61.5 -118t97.5 -65.5t131.5 -20.5q59 0 104 10t78 22q37 14 68 35q23 -16 37 -46t16 -62q-35 -25 -84 -45q-41 -16 -103.5 -30.5t-144.5 -14.5q-223 0 -332.5 142t-109.5 423q0 145 31.5 249.5t90 172 t139.5 99.5t179 32q186 0 287.5 -105.5t101.5 -292.5q0 -47 -4 -84.5t-8 -66.5q-6 -33 -10 -57h-654zM795 719q0 51 -12.5 98t-41 83t-74.5 56.5t-112 20.5q-123 0 -199.5 -87t-87.5 -288h518q2 8 5.5 39t3.5 78z" />
<glyph unicode="&#xec;" horiz-adv-x="487" d="M16 1532q16 27 55.5 45t75.5 14l213 -295q-27 -43 -88 -49zM317 10q-8 -4 -18 -6t-23.5 -3t-31.5 -1q-20 0 -33.5 1t-24.5 3q-10 2 -16 6v1057q6 2 16 4t23.5 4t34.5 2q18 0 31.5 -2t23.5 -4t18 -4v-1057z" />
<glyph unicode="&#xed;" horiz-adv-x="487" d="M197 1243q-63 6 -88 49l213 295q39 4 76.5 -13.5t54.5 -45.5zM317 10q-8 -4 -18 -6t-23.5 -3t-31.5 -1q-20 0 -33.5 1t-24.5 3q-10 2 -16 6v1057q6 2 16 4t23.5 4t34.5 2q18 0 31.5 -2t23.5 -4t18 -4v-1057z" />
<glyph unicode="&#xee;" horiz-adv-x="487" d="M537 1303q-10 -23 -27.5 -42.5t-40.5 -25.5l-223 156l-221 -158q-47 18 -70 70l266 217h51zM317 10q-8 -4 -18 -6t-23.5 -3t-31.5 -1q-20 0 -33.5 1t-24.5 3q-10 2 -16 6v1057q6 2 16 4t23.5 4t34.5 2q18 0 31.5 -2t23.5 -4t18 -4v-1057z" />
<glyph unicode="&#xef;" horiz-adv-x="487" d="M152 1298q-8 -2 -19 -4q-10 -2 -24.5 -3t-32.5 -1t-31.5 1t-24.5 3q-10 2 -18 4v136q8 2 18 4t23.5 3t32.5 1q18 0 32.5 -1t24.5 -3t19 -4v-136zM475 1298q-8 -2 -18 -4t-23.5 -3t-32.5 -1q-20 0 -33.5 1t-23.5 3t-18 4v136q8 2 18 4t23.5 3t33.5 1q18 0 31.5 -1t24.5 -3 q10 -2 18 -4v-136zM317 10q-8 -4 -18 -6t-23.5 -3t-31.5 -1q-20 0 -33.5 1t-24.5 3q-10 2 -16 6v1057q6 2 16 4t23.5 4t34.5 2q18 0 31.5 -2t23.5 -4t18 -4v-1057z" />
<glyph unicode="&#xf0;" horiz-adv-x="1138" d="M727 1348q135 -117 212 -297.5t77 -421.5q0 -186 -31 -311t-90 -200t-144 -106.5t-192 -31.5q-102 0 -183 29.5t-139.5 94t-89 166t-30.5 246.5t30.5 246.5t86 166t133 94.5t174.5 30q109 0 184.5 -40t120.5 -106q-25 111 -80 206t-143 167l-254 -160q-23 16 -37.5 40 t-18.5 46l215 135q-53 33 -114.5 56.5t-130.5 38.5q-6 63 30 100q92 -16 172 -47t152 -76l160 100q43 -31 55 -88zM559 96q63 0 117.5 19.5t92.5 67.5t59.5 129t21.5 204q0 125 -21.5 206t-61.5 128t-95.5 65.5t-122.5 18.5q-66 0 -117 -19.5t-87 -67.5t-55.5 -128 t-19.5 -203t20.5 -204t59.5 -129t91 -67.5t118 -19.5z" />
<glyph unicode="&#xf1;" horiz-adv-x="1124" d="M287 1370q16 25 39 47q20 18 52 33.5t75 15.5q41 0 70.5 -11t54 -23.5t47 -23.5t53.5 -11q23 0 40 9t30 21q12 12 22 31q23 -10 42 -29.5t24 -42.5q-18 -27 -41 -49q-23 -18 -53.5 -32.5t-73.5 -14.5q-41 0 -71 11.5t-54.5 23.5t-47 23.5t-53.5 11.5q-23 0 -41 -10.5 t-28 -20.5q-14 -14 -23 -31q-53 25 -63 72zM311 938q59 76 145.5 118t194.5 42q152 0 234 -84t82 -223v-781q-8 -4 -19 -6q-10 -2 -24.5 -3t-30.5 -1q-20 0 -32.5 1t-22.5 3t-19 6v752q0 213 -221 213q-86 0 -163 -49t-124 -138v-778q-8 -4 -18 -6t-23.5 -3t-31.5 -1 q-20 0 -32.5 1t-23.5 3q-10 2 -18 6v1057q8 2 18 4t22.5 4t33.5 2q18 0 31.5 -2t23.5 -4t18 -4v-129z" />
<glyph unicode="&#xf2;" horiz-adv-x="1110" d="M639 1292q-27 -43 -90 -49l-256 285q16 27 55 45t78 14zM117 539q0 152 29.5 258t86 172.5t138.5 97.5t184 31t184 -31t138.5 -97.5t86 -173t29.5 -257.5q0 -152 -29.5 -258.5t-86 -173t-138.5 -97t-184 -30.5t-184 30.5t-138.5 97t-86 173t-29.5 258.5zM842 539 q0 129 -20.5 214t-57.5 135t-90 71.5t-119 21.5t-119 -21.5t-90 -71.5t-57.5 -135t-20.5 -214t20.5 -214t57.5 -135.5t90 -72t119 -21.5t119 21.5t90 72t57.5 135.5t20.5 214z" />
<glyph unicode="&#xf3;" horiz-adv-x="1110" d="M596 1587q39 4 77 -13.5t54 -45.5l-256 -285q-63 6 -88 49zM117 539q0 152 29.5 258t86 172.5t138.5 97.5t184 31t184 -31t138.5 -97.5t86 -173t29.5 -257.5q0 -152 -29.5 -258.5t-86 -173t-138.5 -97t-184 -30.5t-184 30.5t-138.5 97t-86 173t-29.5 258.5zM842 539 q0 129 -20.5 214t-57.5 135t-90 71.5t-119 21.5t-119 -21.5t-90 -71.5t-57.5 -135t-20.5 -214t20.5 -214t57.5 -135.5t90 -72t119 -21.5t119 21.5t90 72t57.5 135.5t20.5 214z" />
<glyph unicode="&#xf4;" horiz-adv-x="1110" d="M840 1303q-10 -23 -27.5 -42.5t-40.5 -25.5l-223 156l-221 -158q-47 16 -70 70l264 217h51zM117 539q0 152 29.5 258t86 172.5t138.5 97.5t184 31t184 -31t138.5 -97.5t86 -173t29.5 -257.5q0 -152 -29.5 -258.5t-86 -173t-138.5 -97t-184 -30.5t-184 30.5t-138.5 97 t-86 173t-29.5 258.5zM842 539q0 129 -20.5 214t-57.5 135t-90 71.5t-119 21.5t-119 -21.5t-90 -71.5t-57.5 -135t-20.5 -214t20.5 -214t57.5 -135.5t90 -72t119 -21.5t119 21.5t90 72t57.5 135.5t20.5 214z" />
<glyph unicode="&#xf5;" horiz-adv-x="1110" d="M276 1358q16 25 39 47q20 18 52 33.5t75 15.5q41 0 71 -11t54.5 -23.5t47 -24t53.5 -11.5q23 0 40 9.5t29 19.5q12 12 23 31q53 -16 63 -70q-18 -27 -41 -49q-20 -18 -51 -32.5t-74 -14.5q-41 0 -70.5 11t-54 24.5t-47 25t-53.5 11.5q-23 0 -40 -10.5t-30 -20.5 q-14 -14 -24 -31q-52 23 -62 70zM117 539q0 152 29.5 258t86 172.5t138.5 97.5t184 31t184 -31t138.5 -97.5t86 -173t29.5 -257.5q0 -152 -29.5 -258.5t-86 -173t-138.5 -97t-184 -30.5t-184 30.5t-138.5 97t-86 173t-29.5 258.5zM842 539q0 129 -20.5 214t-57.5 135 t-90 71.5t-119 21.5t-119 -21.5t-90 -71.5t-57.5 -135t-20.5 -214t20.5 -214t57.5 -135.5t90 -72t119 -21.5t119 21.5t90 72t57.5 135.5t20.5 214z" />
<glyph unicode="&#xf6;" horiz-adv-x="1110" d="M313 1442q8 2 19 4q10 2 23.5 3t33.5 1q18 0 31.5 -1t23.5 -3t19 -4v-135q-8 -2 -19 -4q-10 -2 -23 -3.5t-32 -1.5q-20 0 -33.5 1t-23.5 4q-10 2 -19 4v135zM637 1442q8 2 18 4t23.5 3t34.5 1q18 0 31.5 -1t23.5 -3t18 -4v-135q-8 -2 -18 -4t-23.5 -3.5t-31.5 -1.5 q-20 0 -33.5 1t-24.5 4q-10 2 -18 4v135zM117 539q0 152 29.5 258t86 172.5t138.5 97.5t184 31t184 -31t138.5 -97.5t86 -173t29.5 -257.5q0 -152 -29.5 -258.5t-86 -173t-138.5 -97t-184 -30.5t-184 30.5t-138.5 97t-86 173t-29.5 258.5zM842 539q0 129 -20.5 214 t-57.5 135t-90 71.5t-119 21.5t-119 -21.5t-90 -71.5t-57.5 -135t-20.5 -214t20.5 -214t57.5 -135.5t90 -72t119 -21.5t119 21.5t90 72t57.5 135.5t20.5 214z" />
<glyph unicode="&#xf7;" horiz-adv-x="1116" d="M643 850q-8 -4 -20 -6q-10 -2 -26.5 -3t-37.5 -1q-23 0 -38 1t-25 3q-12 2 -21 6v149q8 2 21 5q10 2 25.5 4t37.5 2q20 0 36.5 -2t27.5 -4q12 -2 20 -5v-149zM152 537q-4 6 -7 14q-4 20 -4 43t4 43q2 8 7 14h815q2 -6 4 -14q4 -20 4 -43t-4 -43q-2 -8 -4 -14h-815z M643 188q-8 -4 -20 -6q-10 -2 -26.5 -3t-37.5 -1q-23 0 -38 1t-25 3q-12 2 -21 6v150q8 2 21 4q10 2 25.5 4t37.5 2q20 0 36.5 -2t27.5 -4q12 -2 20 -4v-150z" />
<glyph unicode="&#xf8;" horiz-adv-x="1110" d="M868 1169q29 -4 53.5 -17t41.5 -30l-89 -147q59 -68 90 -175.5t31 -260.5q0 -152 -30.5 -258.5t-87 -173t-138.5 -97t-184 -30.5q-133 0 -227 51l-72 -123q-29 2 -52.5 14t-39.5 33l80 139q-61 66 -94 175.5t-33 269.5q0 152 29.5 258t87 172.5t138.5 97.5t183 31 q143 0 238 -60zM727 928q-68 53 -172 53q-66 0 -119 -21.5t-90 -71.5t-57.5 -135t-20.5 -214q0 -106 16.5 -179t47.5 -120zM395 141q63 -45 160 -45q66 0 119 21.5t90 72t57.5 135.5t20.5 214q0 100 -14.5 170.5t-39.5 117.5z" />
<glyph unicode="&#xf9;" horiz-adv-x="1122" d="M672 1292q-27 -43 -88 -49l-256 285q16 27 55 45t76 14zM811 1067q8 2 18 4t23.5 4t32.5 2q18 0 31.5 -2t23.5 -4t18 -4v-1057q-8 -4 -18 -6t-23.5 -3t-31.5 -1t-31.5 1t-24.5 3q-10 2 -18 6v129q-59 -76 -146 -117.5t-194 -41.5q-152 0 -233.5 83.5t-81.5 223.5v780 q8 2 18 4t23.5 4t31.5 2t31.5 -2t24.5 -4q10 -2 18 -4v-752q0 -213 223 -213q82 0 160 48.5t125 138.5v778z" />
<glyph unicode="&#xfa;" horiz-adv-x="1122" d="M494 1243q-63 6 -88 49l212 295q39 4 77 -13.5t55 -45.5zM156 1067q8 2 18 4t23.5 4t31.5 2t31.5 -2t24.5 -4q10 -2 18 -4v-752q0 -213 223 -213q82 0 160 48.5t125 138.5v778q8 2 18 4t23.5 4t32.5 2q18 0 31.5 -2t23.5 -4t18 -4v-1057q-8 -4 -18 -6t-23.5 -3t-31.5 -1 t-31.5 1t-24.5 3q-10 2 -18 6v129q-59 -76 -146 -117.5t-194 -41.5q-152 0 -233.5 83.5t-81.5 223.5v780z" />
<glyph unicode="&#xfb;" horiz-adv-x="1122" d="M850 1303q-10 -23 -26.5 -42.5t-41.5 -25.5l-223 156l-221 -158q-49 18 -68 70l265 217h51zM156 1067q8 2 18 4t23.5 4t31.5 2t31.5 -2t24.5 -4q10 -2 18 -4v-752q0 -213 223 -213q82 0 160 48.5t125 138.5v778q8 2 18 4t23.5 4t32.5 2q18 0 31.5 -2t23.5 -4t18 -4v-1057 q-8 -4 -18 -6t-23.5 -3t-31.5 -1t-31.5 1t-24.5 3q-10 2 -18 6v129q-59 -76 -146 -117.5t-194 -41.5q-152 0 -233.5 83.5t-81.5 223.5v780z" />
<glyph unicode="&#xfc;" horiz-adv-x="1122" d="M317 1444q8 2 19 4q10 2 23.5 4t33.5 2q18 0 31.5 -2t24.5 -4l20 -4v-133q-10 -4 -20 -6t-23.5 -3.5t-32.5 -1.5q-20 0 -33.5 1.5t-23.5 3.5t-19 6v133zM641 1444q8 2 18 4t23.5 4t34.5 2q18 0 31.5 -2t23.5 -4t21 -4v-133q-10 -4 -21 -6q-10 -2 -23.5 -3.5t-31.5 -1.5 q-20 0 -33.5 1.5t-24.5 3.5q-10 2 -18 6v133zM811 1067q8 2 18 4t23.5 4t32.5 2q18 0 31.5 -2t23.5 -4t18 -4v-1057q-8 -4 -18 -6t-23.5 -3t-31.5 -1t-31.5 1t-24.5 3q-10 2 -18 6v129q-59 -76 -146 -117.5t-194 -41.5q-152 0 -233.5 83.5t-81.5 223.5v780q8 2 18 4t23.5 4 t31.5 2t31.5 -2t24.5 -4q10 -2 18 -4v-752q0 -213 223 -213q82 0 160 48.5t125 138.5v778z" />
<glyph unicode="&#xfd;" horiz-adv-x="1073" d="M481 1243q-63 6 -88 49l213 295q39 4 77 -13.5t54 -45.5zM584 -199q-25 -74 -51.5 -132t-62.5 -98t-85 -61.5t-119 -21.5q-23 0 -42 2t-34 6q-16 4 -28 8q-2 4 -7 19.5t-5 38.5t5 40t9 21q10 -4 24 -6q12 -2 28.5 -3t35.5 -1q33 0 59.5 9t49 32.5t44 65.5t44.5 110 l61 172q-23 0 -49 10l-410 1055q10 2 21 4q10 2 23.5 4t33.5 2q18 0 32.5 -2t24.5 -4t21 -4l276 -702q18 -47 31.5 -88t24.5 -70q10 -35 18 -62h6q8 27 17 62q16 63 49 158l241 702q8 2 19 4q10 2 22.5 4t32.5 2q16 0 30.5 -2t24.5 -4t19 -4z" />
<glyph unicode="&#xfe;" horiz-adv-x="1138" d="M164 1526q8 2 18 4t22.5 4t33.5 2q18 0 31.5 -2t23.5 -4t18 -4v-588q45 76 121 118t195 42q90 0 162.5 -29t124 -94.5t79 -173t27.5 -262.5q0 -158 -27.5 -264.5t-79 -172t-124 -94t-162.5 -28.5q-119 0 -195 41.5t-121 117.5v-618q-8 -4 -18 -6t-23.5 -3t-31.5 -1 q-20 0 -32.5 1t-23.5 3q-10 2 -18 6v2005zM866 539q0 121 -17.5 203.5t-52 134t-89 74t-129.5 22.5q-66 0 -115 -25.5t-83 -67.5t-51.5 -95.5t-17.5 -110.5v-264q0 -57 17.5 -111.5t51.5 -97.5t83 -70t115 -27q76 0 130 23t88.5 74t52 134t17.5 204z" />
<glyph unicode="&#xff;" horiz-adv-x="1073" d="M453 1313q-10 -4 -21 -6q-10 -2 -23.5 -3t-31.5 -1q-20 0 -33.5 1t-24.5 3q-10 2 -18 6v133q8 2 18 4t23.5 4t34.5 2q18 0 31.5 -2t23.5 -4t21 -4v-133zM776 1313q-10 -4 -20 -6t-23.5 -3t-32.5 -1q-20 0 -33.5 1t-23.5 3t-18 6v133q8 2 18 4t23.5 4t33.5 2q18 0 31.5 -2 t24.5 -4l20 -4v-133zM584 -199q-25 -74 -51.5 -132t-62.5 -98t-85 -61.5t-119 -21.5q-23 0 -42 2t-34 6q-16 4 -28 8q-2 4 -7 19.5t-5 38.5t5 40t9 21q10 -4 24 -6q12 -2 28.5 -3t35.5 -1q33 0 59.5 9t49 32.5t44 65.5t44.5 110l61 172q-23 0 -49 10l-410 1055q10 2 21 4 q10 2 23.5 4t33.5 2q18 0 32.5 -2t24.5 -4t21 -4l276 -702q18 -47 31.5 -88t24.5 -70q10 -35 18 -62h6q8 27 17 62q16 63 49 158l241 702q8 2 19 4q10 2 22.5 4t32.5 2q16 0 30.5 -2t24.5 -4t19 -4z" />
<glyph unicode="&#x100;" horiz-adv-x="1325" d="M942 1714q10 -23 10 -50.5t-10 -49.5h-580q-20 49 0 100h580zM578 1462q10 2 22 6q10 2 25.5 4.5t36.5 2.5q20 0 35.5 -2.5t25.5 -4.5q12 -4 22 -6l543 -1450q-8 -4 -20 -6q-23 -6 -64 -6q-37 0 -55 6q-10 2 -19 6l-147 391h-653l-150 -391q-8 -4 -18 -6q-18 -6 -56 -6 q-39 0 -53 6q-10 2 -16 6zM653 1298l-10 -41q-4 -18 -12 -44.5t-19 -55.5l-237 -627h563l-238 627q-10 31 -18 56.5t-12 43.5l-11 41h-6z" />
<glyph unicode="&#x101;" horiz-adv-x="1052" d="M807 1421q10 -23 9 -48t-9 -48h-551q-16 53 0 96h551zM176 1028q47 18 103 35q47 12 110.5 23.5t136.5 11.5q111 0 182.5 -27t113.5 -79t58.5 -129t16.5 -179v-674q-6 -4 -14 -6t-18.5 -3t-26.5 -1q-23 0 -43 4q-8 2 -17 6l-22 154q-43 -90 -132 -137t-212 -47 q-143 0 -230.5 83.5t-87.5 243.5q0 158 96.5 239t290.5 81q86 0 158 -6.5t111 -10.5v115q0 129 -57.5 187.5t-184.5 58.5q-59 0 -109.5 -8.5t-91.5 -18.5q-47 -10 -86 -24q-4 2 -14 12t-21 33q-10 23 -10 41v22zM750 504q-35 4 -105 10t-143 6q-254 0 -254 -213 q0 -111 56 -160t155 -49q68 0 122 24.5t91 67.5t57.5 102.5t20.5 129.5v82z" />
<glyph unicode="&#x102;" horiz-adv-x="1327" d="M655 1712q53 0 96.5 11.5t71.5 25.5q35 16 62 37q53 -14 69 -72q-33 -33 -75 -57q-37 -23 -93.5 -40.5t-130.5 -17.5q-76 0 -132 17.5t-93 40.5q-43 25 -74 57q16 53 68 72q27 -20 63 -37q31 -14 73 -25.5t95 -11.5zM580 1462q10 2 22 6q10 2 25.5 4.5t36.5 2.5 q20 0 35.5 -2.5t25.5 -4.5q12 -4 23 -6l542 -1450q-8 -4 -20 -6q-23 -6 -64 -6q-37 0 -55 6q-10 2 -18 6l-148 391h-653l-150 -391q-8 -4 -18 -6q-18 -6 -55 -6t-56 6q-10 2 -16 6zM655 1298l-10 -41q-4 -18 -12 -44.5t-19 -55.5l-237 -627h563l-238 627q-10 31 -18 56.5 t-12 43.5l-10 41h-7z" />
<glyph unicode="&#x103;" horiz-adv-x="1054" d="M524 1391q51 0 93 11t71 25q35 16 60 39q51 -18 67 -73q-29 -35 -72 -62q-37 -23 -92 -42t-127 -19t-126 19.5t-91 41.5q-43 27 -74 62q8 25 24.5 44t43.5 29q25 -23 59 -39q29 -14 70 -25t94 -11zM176 1028q47 18 103 35q47 12 110.5 23.5t136.5 11.5q111 0 182.5 -27 t113.5 -79t58.5 -129t16.5 -179v-674q-6 -4 -14 -6t-18.5 -3t-26.5 -1q-23 0 -43 4q-8 2 -17 6l-22 154q-43 -90 -132 -137t-212 -47q-143 0 -230.5 83.5t-87.5 243.5q0 158 96.5 239t290.5 81q86 0 158 -6.5t111 -10.5v121q0 123 -58.5 181.5t-183.5 58.5 q-59 0 -109.5 -8.5t-91.5 -18.5q-47 -10 -86 -24q-4 2 -14 12t-21 33q-10 23 -10 41v22zM750 504q-35 4 -105 10t-143 6q-254 0 -254 -213q0 -111 56 -160t155 -49q68 0 122 24.5t91 67.5t57.5 102.5t20.5 129.5v82z" />
<glyph unicode="&#x104;" horiz-adv-x="1327" d="M1180 -285q16 0 29.5 2t23.5 7l20 8q27 -20 27 -66q-16 -10 -37 -18q-16 -6 -39.5 -11.5t-52.5 -5.5q-86 0 -137 46.5t-51 127.5q0 78 44 132.5t121 82.5l-143 383h-653l-150 -391q-8 -4 -18 -6q-18 -6 -55 -6t-56 6q-10 2 -16 6l543 1450q10 2 22 6q10 2 25.5 4.5 t36.5 2.5q20 0 35.5 -2.5t25.5 -4.5q12 -4 23 -6l542 -1450l-18 -6q-37 -8 -74 -22.5t-65.5 -38t-46 -54t-17.5 -71.5q0 -53 32 -79t79 -26zM702 1157q-10 31 -18 56.5t-12 43.5l-10 41h-7l-10 -41q-4 -18 -12 -44.5t-19 -55.5l-237 -627h563z" />
<glyph unicode="&#x105;" horiz-adv-x="1054" d="M176 1028q47 18 103 35q47 12 110.5 23.5t136.5 11.5q111 0 182.5 -27t113.5 -79t58.5 -129t16.5 -179v-676q-92 -25 -150.5 -78t-58.5 -125q0 -41 26.5 -64.5t82.5 -23.5q33 0 55 7q12 4 22 8q14 -10 20.5 -30.5t6.5 -41.5q-16 -10 -37 -18q-16 -6 -40.5 -11.5 t-53.5 -5.5q-92 0 -143.5 43t-51.5 119q0 72 52.5 135.5t150.5 104.5l-22 137q-43 -90 -132 -137t-212 -47q-143 0 -230.5 83.5t-87.5 243.5q0 158 96.5 239t290.5 81q86 0 158 -6.5t111 -10.5v113q0 133 -56.5 190.5t-185.5 57.5q-59 0 -109.5 -8.5t-91.5 -18.5 q-47 -10 -86 -24q-4 2 -14 12t-21 33q-10 23 -10 41v22zM750 504q-35 4 -105 10t-143 6q-254 0 -254 -213q0 -111 56 -160t155 -49q68 0 122 27t91 71t57.5 104t20.5 128v76z" />
<glyph unicode="&#x106;" horiz-adv-x="1146" d="M657 1548q-63 6 -88 49l213 295q39 4 77 -13t54 -46zM705 -20q-571 0 -572 757q0 377 142.5 567.5t429.5 190.5q86 0 149.5 -11t108.5 -24q51 -14 88 -33q2 -37 -11.5 -64.5t-35.5 -49.5q-37 14 -80 24q-37 10 -88.5 18.5t-112.5 8.5q-96 0 -175 -29.5t-136.5 -101.5 t-88 -192.5t-30.5 -305.5q0 -184 30.5 -304t88 -190.5t136.5 -98t175 -27.5q68 0 123 7t96 17q47 10 84 27q23 -23 34 -53.5t13 -63.5q-41 -20 -94 -35q-47 -14 -114.5 -24t-159.5 -10z" />
<glyph unicode="&#x107;" horiz-adv-x="913" d="M463 1243q-63 6 -88 49l213 295q39 4 76.5 -13.5t54.5 -45.5zM582 973q-166 0 -240 -107.5t-74 -326.5q0 -221 78 -324.5t244 -103.5q45 0 81 5t62 13q31 8 55 21q23 -16 34.5 -46t13.5 -63q-29 -18 -70 -31q-35 -12 -88 -21t-123 -9q-217 0 -328.5 142t-111.5 417 q0 274 111.5 416.5t328.5 142.5q66 0 115 -7.5t82 -17.5q37 -10 61 -24q0 -33 -11 -62t-34 -49q-23 8 -51 16q-25 6 -58.5 12.5t-76.5 6.5z" />
<glyph unicode="&#x108;" horiz-adv-x="1146" d="M1016 1610q-10 -25 -27.5 -44.5t-42.5 -25.5l-229 160l-225 -162q-49 18 -70 72l270 221h53zM705 -20q-571 0 -572 757q0 377 142.5 567.5t429.5 190.5q86 0 149.5 -11t108.5 -24q51 -14 88 -33q2 -35 -11.5 -63.5t-35.5 -50.5q-37 14 -80 24q-37 10 -88.5 18.5 t-112.5 8.5q-96 0 -175 -29.5t-136.5 -101.5t-88 -192.5t-30.5 -305.5q0 -184 30.5 -304t88 -190.5t136.5 -98t175 -27.5q68 0 123 7t96 17q47 10 84 27q23 -23 34 -52.5t13 -64.5q-41 -20 -94 -35q-47 -14 -114.5 -24t-159.5 -10z" />
<glyph unicode="&#x109;" horiz-adv-x="913" d="M823 1307q-10 -25 -27.5 -43.5t-41.5 -26.5l-222 158l-221 -158q-47 16 -69 70l264 217h51zM582 973q-166 0 -240 -107.5t-74 -326.5q0 -221 78 -324.5t244 -103.5q45 0 81 5t62 13q31 8 55 21q23 -16 34.5 -46t13.5 -63q-29 -18 -70 -31q-35 -12 -88 -21t-123 -9 q-217 0 -328.5 142t-111.5 417q0 274 111.5 416.5t328.5 142.5q66 0 115 -7.5t82 -17.5q37 -10 61 -24q0 -33 -11 -62t-34 -49q-23 8 -51 16q-25 6 -58.5 12.5t-76.5 6.5z" />
<glyph unicode="&#x10a;" horiz-adv-x="1146" d="M788 1608q-10 -4 -20 -6t-24.5 -3.5t-32.5 -1.5q-23 0 -36 1t-24 4q-10 2 -18 6v139q8 2 18 4t23.5 3t36.5 1q18 0 32.5 -1t24.5 -3l20 -4v-139zM705 -20q-571 0 -572 757q0 377 142.5 567.5t429.5 190.5q86 0 149.5 -11t108.5 -24q51 -14 88 -33q2 -68 -47 -114 q-37 14 -80 24q-37 10 -88.5 18.5t-112.5 8.5q-96 0 -175 -29.5t-136.5 -101.5t-88 -192.5t-30.5 -305.5q0 -184 30.5 -304t88 -190.5t136.5 -98t175 -27.5q68 0 123 7t96 17q47 10 84 27q23 -23 34 -53.5t13 -63.5q-41 -20 -94 -35q-47 -14 -114.5 -24t-159.5 -10z" />
<glyph unicode="&#x10b;" horiz-adv-x="913" d="M612 1313q-10 -4 -20 -6t-24.5 -3t-32.5 -1q-20 0 -35 1t-25 3t-18 6v139q8 2 18 4t24.5 3t35.5 1q18 0 32.5 -1t24.5 -3l20 -4v-139zM582 973q-166 0 -240 -107.5t-74 -326.5q0 -221 78 -324.5t244 -103.5q45 0 81 5t62 13q31 8 55 21q23 -16 34.5 -46t13.5 -63 q-29 -18 -70 -31q-35 -12 -88 -21t-123 -9q-217 0 -328.5 142t-111.5 417q0 274 111.5 416.5t328.5 142.5q66 0 115 -7.5t82 -17.5q37 -10 61 -24q0 -33 -11 -62t-34 -49q-23 8 -51 16q-25 6 -58.5 12.5t-76.5 6.5z" />
<glyph unicode="&#x10c;" horiz-adv-x="1146" d="M408 1784q10 25 27.5 43t41.5 28l230 -161l225 159q25 -8 42 -26.5t27 -42.5l-268 -221h-53zM705 -20q-571 0 -572 757q0 377 142.5 567.5t429.5 190.5q86 0 149.5 -11t108.5 -24q51 -14 88 -33q2 -39 -11.5 -65.5t-35.5 -48.5q-37 14 -80 24q-37 10 -88.5 18.5 t-112.5 8.5q-96 0 -175 -29.5t-136.5 -101.5t-88 -192.5t-30.5 -305.5q0 -184 30.5 -304t88 -190.5t136.5 -98t175 -27.5q68 0 123 7t96 17q47 10 84 27q23 -23 34 -53.5t13 -63.5q-41 -20 -94 -35q-47 -14 -114.5 -24t-159.5 -10z" />
<glyph unicode="&#x10d;" horiz-adv-x="913" d="M279 1438q20 49 65 67l209 -149l207 147q23 -8 38 -25.5t25 -39.5l-248 -205h-47zM582 973q-166 0 -240 -107.5t-74 -326.5q0 -221 78 -324.5t244 -103.5q45 0 81 5t62 13q31 8 55 21q23 -16 34.5 -46t13.5 -63q-29 -18 -70 -31q-35 -12 -88 -21t-123 -9 q-217 0 -328.5 142t-111.5 417q0 274 111.5 416.5t328.5 142.5q66 0 115 -7.5t82 -17.5q37 -10 61 -24q0 -33 -11 -62t-34 -49q-23 8 -51 16q-25 6 -58.5 12.5t-76.5 6.5z" />
<glyph unicode="&#x10e;" horiz-adv-x="1353" d="M297 1784q20 53 70 71l229 -161l225 159q23 -8 41.5 -26.5t28.5 -42.5l-270 -221h-54zM625 1475q143 0 254.5 -37t187.5 -123t115 -227.5t39 -350.5q0 -207 -39 -348t-115 -227t-187.5 -124t-254.5 -38h-428v1475h428zM612 129q104 0 187.5 25.5t140.5 94t88 186.5 t31 302t-31 303t-88 186.5t-140 93.5t-188 26h-264v-1217h264z" />
<glyph unicode="&#x10f;" horiz-adv-x="1163" d="M1073 1231q61 66 84 136.5t17 164.5q82 20 131 -14q-4 -96 -46 -187.5t-116 -138.5q-50 6 -70 39zM825 1526q8 2 19 4q10 2 22.5 4t32.5 2q18 0 31.5 -2t23.5 -4t19 -4v-1516q-8 -4 -17 -6q-20 -4 -45 -4q-16 0 -26.5 1t-20.5 3t-18 6l-15 137q-45 -78 -121.5 -122.5 t-199.5 -44.5q-90 0 -163 28.5t-124 94t-78.5 172t-27.5 264.5q0 156 27.5 263t78.5 172.5t124 94.5t163 29q117 0 192.5 -42t122.5 -118v588zM825 672q0 55 -17 109.5t-51 97.5t-84 68.5t-114 25.5q-74 0 -129 -22.5t-90 -74t-52.5 -134.5t-17.5 -203q0 -121 17.5 -204 t52.5 -134t90 -74t129 -23q66 0 115 27t83 70t51 97t17 112v262z" />
<glyph unicode="&#x110;" horiz-adv-x="1372" d="M643 1475q143 0 255 -37t187.5 -123t114.5 -227.5t39 -350.5q0 -207 -39 -348t-114.5 -227t-187.5 -124t-255 -38h-428v676h-168q-8 25 -8 55.5t8 52.5h168v691h428zM367 784h319q6 -23 6 -53.5t-6 -54.5h-319v-547h264q104 0 187 25.5t140.5 94t88 186.5t30.5 302 t-30.5 303t-88 186.5t-140.5 93.5t-187 26h-264v-562z" />
<glyph unicode="&#x111;" d="M1116 1368q0 -4 2 -12q4 -16 4 -37q0 -20 -4 -37q-2 -8 -2 -12h-143v-1260q-8 -4 -17 -6q-20 -4 -45 -4q-16 0 -26.5 1t-20.5 3t-18 6l-15 137q-45 -78 -121.5 -122.5t-199.5 -44.5q-90 0 -163 28.5t-124 94t-78.5 172t-27.5 264.5q0 156 27.5 263t78.5 172.5t124 94.5 t163 29q117 0 192.5 -42t122.5 -118v332h-276q-2 4 -4 12q-4 16 -4 37q0 20 4 37q2 8 4 12h276v158q8 2 19 4q10 2 22.5 4t32.5 2q18 0 31.5 -2t23.5 -4t19 -4v-158h143zM825 672q0 55 -17 109.5t-51 97.5t-84 68.5t-114 25.5q-74 0 -129 -22.5t-90 -74t-52.5 -134.5 t-17.5 -203q0 -121 17.5 -204t52.5 -134t90 -74t129 -23q66 0 115 27t83 70t51 97t17 112v262z" />
<glyph unicode="&#x112;" d="M309 1614q-16 49 0 100h582q8 -23 7 -50.5t-7 -49.5h-582zM1010 1475q12 -29 12 -62q0 -39 -12 -65h-662v-539h559q12 -29 13 -59q0 -35 -13 -66h-559v-557h682q12 -29 12 -61q0 -35 -12 -66h-833v1475h813z" />
<glyph unicode="&#x113;" horiz-adv-x="1048" d="M305 1309q-16 49 0 100h510q8 -23 9 -51.5t-9 -48.5h-510zM268 492q6 -104 27.5 -177t61.5 -118t97.5 -65.5t131.5 -20.5q59 0 104 10t78 22q37 14 68 35q23 -16 37 -46t16 -62q-35 -25 -84 -45q-41 -16 -103.5 -30.5t-144.5 -14.5q-223 0 -332.5 142t-109.5 423 q0 145 31.5 249.5t90 172t139.5 99.5t179 32q186 0 287.5 -105.5t101.5 -292.5q0 -47 -4 -84.5t-8 -66.5q-6 -33 -10 -57h-654zM795 719q0 51 -12.5 98t-41 83t-74.5 56.5t-112 20.5q-123 0 -199.5 -87t-87.5 -288h518q2 8 5.5 39t3.5 78z" />
<glyph unicode="&#x114;" d="M895 1726q-33 -33 -76 -57q-37 -23 -92 -40t-129 -17q-76 0 -132 17.5t-93 39.5q-45 25 -76 57q16 53 70 72q25 -20 61 -37q29 -14 73 -25.5t97 -11.5t96 11.5t72 25.5q35 16 61 37q56 -17 68 -72zM1010 1475q12 -29 12 -62q0 -39 -12 -65h-662v-539h559q12 -29 13 -59 q0 -35 -13 -66h-559v-557h682q12 -29 12 -61q0 -35 -12 -66h-833v1475h813z" />
<glyph unicode="&#x115;" horiz-adv-x="1048" d="M842 1393q-29 -35 -72 -62q-37 -23 -92 -42t-127 -19t-126 19.5t-91 41.5q-43 27 -74 62q8 25 24.5 44t43.5 29q25 -23 59 -39q29 -14 70 -25t94 -11q51 0 93 11t71 25q35 16 59 39q52 -18 68 -73zM268 492q6 -104 27.5 -177t61.5 -118t97.5 -65.5t131.5 -20.5 q59 0 104 10t78 22q37 14 68 35q23 -16 37 -46t16 -62q-35 -25 -84 -45q-41 -16 -103.5 -30.5t-144.5 -14.5q-223 0 -332.5 142t-109.5 423q0 145 31.5 249.5t90 172t139.5 99.5t179 32q186 0 287.5 -105.5t101.5 -292.5q0 -47 -4 -84.5t-8 -66.5q-6 -33 -10 -57h-654z M795 719q0 51 -12.5 98t-41 83t-74.5 56.5t-112 20.5q-123 0 -199.5 -87t-87.5 -288h518q2 8 5.5 39t3.5 78z" />
<glyph unicode="&#x116;" d="M686 1608q-10 -4 -20 -6t-24.5 -3.5t-33.5 -1.5q-23 0 -37 1t-24 4q-10 2 -19 6v139q8 2 19 4q10 2 24.5 3t36.5 1q18 0 32.5 -1t25.5 -3l20 -4v-139zM1010 1475q12 -29 12 -62q0 -39 -12 -65h-662v-539h559q12 -29 13 -59q0 -35 -13 -66h-559v-557h682q12 -29 12 -61 q0 -35 -12 -66h-833v1475h813z" />
<glyph unicode="&#x117;" horiz-adv-x="1048" d="M631 1303q-10 -4 -21 -7q-10 -2 -24.5 -3t-32.5 -1q-20 0 -34.5 1t-24.5 3t-19 7v139q8 2 19 4q10 2 24 4t35 2q18 0 32.5 -2t24.5 -4t21 -4v-139zM268 492q6 -104 27.5 -177t61.5 -118t97.5 -65.5t131.5 -20.5q59 0 104 10t78 22q37 14 68 35q23 -16 37 -46t16 -62 q-35 -25 -84 -45q-41 -16 -103.5 -30.5t-144.5 -14.5q-223 0 -332.5 142t-109.5 423q0 145 31.5 249.5t90 172t139.5 99.5t179 32q186 0 287.5 -105.5t101.5 -292.5q0 -47 -4 -84.5t-8 -66.5q-6 -33 -10 -57h-654zM795 719q0 51 -12.5 98t-41 83t-74.5 56.5t-112 20.5 q-123 0 -199.5 -87t-87.5 -288h518q2 8 5.5 39t3.5 78z" />
<glyph unicode="&#x118;" d="M1010 1475q12 -29 12 -62q0 -39 -12 -65h-662v-539h559q12 -29 13 -59q0 -35 -13 -66h-559v-557h682q12 -29 12 -61q0 -35 -12 -66q-106 -14 -171.5 -58t-65.5 -130q0 -53 31.5 -79t78.5 -26q16 0 29.5 2t23.5 6t21 9q27 -20 27 -66q-16 -10 -37 -18q-16 -8 -41 -13.5 t-54 -5.5q-86 0 -136 47t-50 127q0 143 137 205h-626v1475h813z" />
<glyph unicode="&#x119;" horiz-adv-x="1048" d="M115 545q0 145 31.5 249.5t90 172t139.5 99.5t179 32q186 0 287.5 -105.5t101.5 -292.5q0 -47 -4 -84.5t-8 -66.5q-6 -33 -10 -57h-654q6 -104 27.5 -177t61.5 -118t97.5 -65.5t131.5 -20.5q59 0 104 10t78 22q37 14 68 35q23 -16 37 -46t16 -62q-18 -14 -43 -27 q-23 -10 -53.5 -22.5t-71.5 -22.5q-80 -23 -131 -77t-51 -126q0 -53 31.5 -66.5t78.5 -13.5q16 0 29.5 2t23.5 7q10 4 21 8q14 -10 20.5 -28.5t6.5 -41.5q-16 -10 -37 -18q-16 -6 -41 -11.5t-54 -5.5q-86 0 -137 36t-51 116q0 59 27.5 112.5t77.5 88.5q-211 8 -315.5 150.5 t-104.5 414.5zM795 719q0 51 -12.5 98t-41 83t-74.5 56.5t-112 20.5q-123 0 -199.5 -87t-87.5 -288h518q2 8 5.5 39t3.5 78z" />
<glyph unicode="&#x11a;" d="M279 1784q10 25 27.5 43t41.5 28l230 -161l225 159q25 -8 42 -26.5t27 -42.5l-268 -221h-53zM1010 1475q12 -29 12 -62q0 -39 -12 -65h-662v-539h559q12 -29 13 -59q0 -35 -13 -66h-559v-557h682q12 -29 12 -61q0 -35 -12 -66h-833v1475h813z" />
<glyph unicode="&#x11b;" horiz-adv-x="1048" d="M266 1444q10 23 26.5 41t41.5 26l217 -155l215 153q23 -6 39 -24.5t26 -40.5l-256 -211h-51zM268 492q6 -104 27.5 -177t61.5 -118t97.5 -65.5t131.5 -20.5q59 0 104 10t78 22q37 14 68 35q23 -16 37 -46t16 -62q-35 -25 -84 -45q-41 -16 -103.5 -30.5t-144.5 -14.5 q-223 0 -332.5 142t-109.5 423q0 145 31.5 249.5t90 172t139.5 99.5t179 32q186 0 287.5 -105.5t101.5 -292.5q0 -47 -4 -84.5t-8 -66.5q-6 -33 -10 -57h-654zM795 719q0 51 -12.5 98t-41 83t-74.5 56.5t-112 20.5q-123 0 -199.5 -87t-87.5 -288h518q2 8 5.5 39t3.5 78z" />
<glyph unicode="&#x11c;" horiz-adv-x="1277" d="M1061 1634q-10 -25 -28.5 -44t-41.5 -27l-229 161l-225 -161q-51 18 -70 71l270 221h54zM731 -20q-291 0 -445.5 188t-154.5 569q0 377 153.5 567.5t446.5 190.5q90 0 160 -11t119 -24q57 -14 100 -33q-2 -33 -13.5 -62.5t-33.5 -49.5q-41 14 -92 24q-43 10 -99.5 17.5 t-121.5 7.5q-98 0 -182.5 -29.5t-146 -101.5t-96 -192.5t-34.5 -305.5q0 -184 34.5 -304t96 -190.5t145.5 -99t183 -28.5q84 0 147.5 10t89.5 16v531h-336q-4 8 -6 16q-6 14 -6 47q0 31 6 47q2 8 6 17h482v-750q-45 -20 -107 -35q-53 -12 -127 -22t-168 -10z" />
<glyph unicode="&#x11d;" horiz-adv-x="1075" d="M795 1303q-10 -23 -27.5 -42.5t-40.5 -25.5l-223 156l-221 -158q-49 18 -68 70l264 217h51zM303 418q-90 41 -136 123t-46 196q0 168 100.5 264.5t286.5 96.5q66 0 121 -13.5t100 -35.5l279 47q10 -27 10 -62t-10 -63l-185 -4q72 -88 72 -230q0 -168 -98.5 -263 t-288.5 -95q-29 0 -57.5 2t-51.5 8q-20 -27 -38.5 -65.5t-16.5 -85.5q4 -53 54.5 -75t124 -32t158.5 -20.5t156.5 -38t120 -84t48.5 -158.5q0 -72 -34 -134.5t-98.5 -108.5t-160 -72.5t-219.5 -26.5q-111 0 -191 22.5t-130 61.5t-74.5 92t-24.5 115q0 61 20.5 110.5t50 86 t60.5 61t49 37.5q-23 23 -35 50.5t-12 68.5q0 66 31.5 125t64.5 100zM508 989q-109 0 -175.5 -61.5t-66.5 -188.5q0 -129 66.5 -190.5t175.5 -61.5q111 0 176.5 61.5t65.5 190.5q0 127 -65.5 188.5t-176.5 61.5zM498 -401q172 0 268 59t96 156q0 51 -25.5 83.5t-67.5 51 t-95 27t-111.5 15.5t-115 14t-103.5 24q-57 -41 -90 -99.5t-33 -122.5q0 -92 68 -150t209 -58z" />
<glyph unicode="&#x11e;" horiz-adv-x="1277" d="M1038 1714q-33 -33 -75 -57q-37 -23 -92.5 -40.5t-129.5 -17.5q-76 0 -132 17.5t-93 40.5q-45 25 -76 57q16 53 70 72q27 -20 63 -37q31 -14 73 -25.5t95 -11.5t96.5 11.5t71.5 25.5q35 16 62 37q55 -17 67 -72zM731 -20q-291 0 -445.5 188t-154.5 569q0 377 153.5 567.5 t446.5 190.5q90 0 160 -11t119 -24q57 -14 100 -33q-2 -33 -13.5 -62.5t-33.5 -49.5q-41 14 -92 24q-43 10 -99.5 17.5t-121.5 7.5q-98 0 -182.5 -29.5t-146 -101.5t-96 -192.5t-34.5 -305.5q0 -184 34.5 -304t96 -190.5t145.5 -99t183 -28.5q84 0 147.5 10t89.5 16v531 h-336q-4 8 -6 16q-6 14 -6 47q0 31 6 47q2 8 6 17h482v-750q-45 -20 -107 -35q-53 -12 -127 -22t-168 -10z" />
<glyph unicode="&#x11f;" horiz-adv-x="1075" d="M805 1393q-29 -35 -72 -62q-37 -23 -92 -42t-127 -19t-126 19.5t-91 41.5q-43 27 -74 62q8 25 24.5 44t43.5 29q25 -23 59 -39q29 -14 70 -25t94 -11q51 0 93 11t71 25q35 16 59 39q52 -18 68 -73zM303 418q-90 41 -136 123t-46 196q0 168 100.5 264.5t286.5 96.5 q66 0 121 -13.5t100 -35.5l279 47q10 -27 10 -62t-10 -61l-185 -6q72 -88 72 -230q0 -168 -98.5 -263t-288.5 -95q-29 0 -57.5 2t-51.5 8q-20 -27 -38.5 -65.5t-16.5 -85.5q4 -53 54.5 -75t124 -32t158.5 -20.5t156.5 -38t120 -84t48.5 -158.5q0 -72 -34 -134.5 t-98.5 -108.5t-160 -72.5t-219.5 -26.5q-111 0 -191 22.5t-130 61.5t-74.5 92t-24.5 115q0 61 20.5 110.5t50 86t60.5 61t49 37.5q-23 23 -35 50.5t-12 68.5q0 66 31.5 125t64.5 100zM508 989q-109 0 -175.5 -61.5t-66.5 -188.5q0 -129 66.5 -190.5t175.5 -61.5 q111 0 176.5 61.5t65.5 190.5q0 127 -65.5 188.5t-176.5 61.5zM498 -401q172 0 268 59t96 156q0 51 -25.5 83.5t-67.5 51t-95 27t-111.5 15.5t-115 14t-103.5 24q-57 -41 -90 -99.5t-33 -122.5q0 -92 68 -150t209 -58z" />
<glyph unicode="&#x120;" horiz-adv-x="1277" d="M813 1608q-10 -4 -20 -6t-24.5 -3.5t-33.5 -1.5q-20 0 -34.5 1t-24.5 4q-10 2 -19 6v139q8 2 19 4q10 2 24.5 3t34.5 1q18 0 32.5 -1t25.5 -3l20 -4v-139zM731 -20q-291 0 -445.5 188t-154.5 569q0 377 153.5 567.5t446.5 190.5q90 0 160 -11t119 -24q57 -14 100 -33 q-2 -33 -13.5 -62.5t-33.5 -49.5q-41 14 -92 24q-43 10 -99.5 17.5t-121.5 7.5q-98 0 -182.5 -29.5t-146 -101.5t-96 -192.5t-34.5 -305.5q0 -184 34.5 -304t96 -190.5t145.5 -99t183 -28.5q84 0 147.5 10t89.5 16v531h-336q-4 8 -6 16q-6 14 -6 47q0 31 6 47q2 8 6 17h482 v-750q-45 -20 -107 -35q-53 -12 -127 -22t-168 -10z" />
<glyph unicode="&#x121;" horiz-adv-x="1075" d="M594 1300q-10 -4 -21 -6q-10 -2 -24 -3t-33 -1q-20 0 -34.5 1t-24.5 3t-19 6v140q8 2 19 4q10 2 24.5 4t34.5 2q18 0 32.5 -2t24.5 -4t21 -4v-140zM303 418q-90 41 -136 123t-46 196q0 168 100.5 264.5t286.5 96.5q66 0 121 -13.5t100 -35.5l279 47q10 -27 10 -62 t-10 -63l-185 -4q72 -88 72 -230q0 -168 -98.5 -263t-288.5 -95q-29 0 -57.5 2t-51.5 8q-20 -27 -38.5 -65.5t-16.5 -85.5q4 -53 54.5 -75t124 -32t158.5 -20.5t156.5 -38t120 -84t48.5 -158.5q0 -72 -34 -134.5t-98.5 -108.5t-160 -72.5t-219.5 -26.5q-111 0 -191 22.5 t-130 61.5t-74.5 92t-24.5 115q0 61 20.5 110.5t50 86t60.5 61t49 37.5q-23 23 -35 50.5t-12 68.5q0 66 31.5 125t64.5 100zM508 989q-109 0 -175.5 -61.5t-66.5 -188.5q0 -129 66.5 -190.5t175.5 -61.5q111 0 176.5 61.5t65.5 190.5q0 127 -65.5 188.5t-176.5 61.5z M498 -401q172 0 268 59t96 156q0 51 -25.5 83.5t-67.5 51t-95 27t-111.5 15.5t-115 14t-103.5 24q-57 -41 -90 -99.5t-33 -122.5q0 -92 68 -150t209 -58z" />
<glyph unicode="&#x122;" horiz-adv-x="1277" d="M731 -20q-291 0 -445.5 188t-154.5 569q0 377 153.5 567.5t446.5 190.5q90 0 160 -11t119 -24q57 -14 100 -33q-4 -70 -47 -112q-41 14 -92 24q-43 10 -99.5 17.5t-121.5 7.5q-98 0 -182.5 -29.5t-146 -101.5t-96 -192.5t-34.5 -305.5q0 -184 34.5 -304t96 -190.5 t145.5 -99t183 -28.5q84 0 147.5 10t89.5 16v531h-336q-4 8 -6 16q-6 14 -6 47q0 31 6 47q2 8 6 17h482v-750q-45 -20 -107 -35q-53 -12 -127 -22t-168 -10zM631 -422q18 18 35 45q14 23 26.5 55.5t16.5 77.5q-16 0 -26.5 2t-18.5 4t-15 5v139q10 2 23 4q10 2 27.5 4t39.5 2 q23 0 39.5 -2t26.5 -4q12 -2 22 -4v-96q0 -66 -21.5 -116t-45.5 -85q-31 -39 -68 -68z" />
<glyph unicode="&#x123;" horiz-adv-x="1075" d="M612 1554q-18 -18 -32 -43q-12 -23 -24.5 -53.5t-16.5 -71.5q27 -4 43 -6q8 -2 14 -4v-133q-8 -2 -21 -4q-10 -2 -26.5 -3t-36.5 -1q-23 0 -38 1t-25 3q-12 2 -23 4v92q0 61 19.5 108.5t43.5 80.5q27 37 64 65zM303 418q-90 41 -136 123t-46 196q0 168 100.5 264.5 t286.5 96.5q66 0 121 -13.5t100 -35.5l279 47q10 -27 10 -62t-10 -63l-185 -4q72 -88 72 -230q0 -168 -98.5 -263t-288.5 -95q-29 0 -57.5 2t-51.5 8q-20 -27 -38.5 -65.5t-16.5 -85.5q4 -53 54.5 -75t124 -32t158.5 -20.5t156.5 -38t120 -84t48.5 -158.5q0 -72 -34 -134.5 t-98.5 -108.5t-160 -72.5t-219.5 -26.5q-111 0 -191 22.5t-130 61.5t-74.5 92t-24.5 115q0 61 20.5 110.5t50 86t60.5 61t49 37.5q-23 23 -35 50.5t-12 68.5q0 66 31.5 125t64.5 100zM508 989q-109 0 -175.5 -61.5t-66.5 -188.5q0 -129 66.5 -190.5t175.5 -61.5 q111 0 176.5 61.5t65.5 190.5q0 127 -65.5 188.5t-176.5 61.5zM498 -401q172 0 268 59t96 156q0 51 -25.5 83.5t-67.5 51t-95 27t-111.5 15.5t-115 14t-103.5 24q-57 -41 -90 -99.5t-33 -122.5q0 -92 68 -150t209 -58z" />
<glyph unicode="&#x124;" horiz-adv-x="1388" d="M1006 1634q-10 -25 -29 -44t-41 -27l-229 161l-226 -161q-51 18 -69 71l270 221h53zM1040 1462l19 6q10 2 24.5 4.5t32.5 2.5t31.5 -2.5t23.5 -4.5q10 -4 21 -6v-1450q-8 -4 -18 -6q-18 -6 -58 -6q-41 0 -59 6q-10 2 -17 6v676h-692v-676q-10 -4 -20 -6q-18 -6 -56 -6 q-41 0 -59 6q-10 2 -16 6v1450l18 6q10 2 24.5 4.5t32.5 2.5t31.5 -2.5t24.5 -4.5q10 -4 20 -6v-639h692v639z" />
<glyph unicode="&#x125;" horiz-adv-x="1124" d="M532 1634q-10 -23 -26.5 -41t-40.5 -26l-219 155l-215 -155q-49 18 -68 67l260 215h51zM967 10q-8 -4 -19 -6q-10 -2 -24.5 -3t-30.5 -1q-20 0 -32.5 1t-22.5 3t-19 6v752q0 213 -221 213q-86 0 -163 -49t-124 -138v-778q-8 -4 -18 -6t-23.5 -3t-31.5 -1q-20 0 -32.5 1 t-23.5 3q-10 2 -18 6v1516q8 2 18 4t22.5 4t33.5 2q18 0 31.5 -2t23.5 -4t18 -4v-588q59 76 145.5 118t194.5 42q152 0 234 -84t82 -223v-781z" />
<glyph unicode="&#x126;" horiz-adv-x="1417" d="M1362 1225q8 -23 7 -51.5t-7 -49.5h-154v-1112q-8 -4 -18 -6q-18 -6 -57 -6q-41 0 -60 6q-10 2 -16 6v676h-692v-676q-10 -4 -21 -6q-18 -6 -55 -6q-41 0 -60 6q-10 2 -16 6v1112h-133q-16 53 0 101h133v237l18 6q10 2 24.5 4.5t33.5 2.5q18 0 31.5 -2.5t23.5 -4.5 q10 -4 21 -6v-237h692v237l18 6q10 2 24.5 4.5t33.5 2.5q18 0 31.5 -2.5t23.5 -4.5q10 -4 20 -6v-237h154zM365 823h692v301h-692v-301z" />
<glyph unicode="&#x127;" horiz-adv-x="1124" d="M311 938q59 76 145.5 118t194.5 42q152 0 234 -84t82 -223v-781q-8 -4 -19 -6q-10 -2 -24.5 -3t-30.5 -1q-20 0 -32.5 1t-22.5 3t-19 6v752q0 213 -221 213q-86 0 -163 -49t-124 -138v-778q-8 -4 -18 -6t-23.5 -3t-31.5 -1q-20 0 -32.5 1t-23.5 3q-10 2 -18 6v1258h-141 q-8 23 -9.5 50.5t9.5 49.5h141v158q8 2 18 4t22.5 4t33.5 2q18 0 31.5 -2t23.5 -4t18 -4v-158h365q20 -47 0 -100h-365v-330v0z" />
<glyph unicode="&#x128;" horiz-adv-x="544" d="M399 1663q23 0 38.5 8t27.5 19q12 10 24 26q20 -8 36 -24.5t20 -38.5q0 -4 -11.5 -18.5t-31 -31t-49 -29.5t-66.5 -13q-41 0 -68.5 10t-51 23.5t-47 23.5t-52.5 10q-23 0 -40 -8t-28 -18q-12 -10 -22 -25q-47 23 -55 63q14 25 36 46q18 16 48 30.5t73 14.5 q39 0 67.5 -10.5t52.5 -24t46 -23.5t53 -10zM197 1462l18 6q10 2 23.5 4.5t33.5 2.5q18 0 32.5 -2.5t25.5 -4.5l18 -6v-1450q-10 -4 -20 -6q-18 -6 -56 -6q-39 0 -57 6q-10 2 -18 6v1450z" />
<glyph unicode="&#x129;" horiz-adv-x="487" d="M340 1380q18 0 31.5 9.5t23.5 19.5q10 12 21 29q18 -8 32.5 -26.5t18.5 -41.5q-2 -6 -11.5 -20.5t-26.5 -30.5t-42 -28.5t-57 -12.5q-33 0 -56.5 10t-43 23.5t-39 24t-44.5 10.5q-18 0 -31.5 -9.5t-23.5 -19.5q-10 -12 -18 -27q-20 10 -34.5 27.5t-16.5 40.5q2 6 11 20.5 t25.5 29.5t41 26.5t57.5 11.5t56.5 -10.5t42.5 -22.5t38.5 -22.5t44.5 -10.5zM317 10q-8 -4 -18 -6t-23.5 -3t-31.5 -1q-20 0 -33.5 1t-24.5 3q-10 2 -16 6v1057q6 2 16 4t23.5 4t34.5 2q18 0 31.5 -2t23.5 -4t18 -4v-1057z" />
<glyph unicode="&#x12a;" horiz-adv-x="544" d="M-14 1563q-23 49 0 100h579q10 -23 10 -50.5t-10 -49.5h-579zM197 1462l18 6q10 2 23.5 4.5t33.5 2.5q18 0 32.5 -2.5t25.5 -4.5l18 -6v-1450q-10 -4 -20 -6q-18 -6 -56 -6q-39 0 -57 6q-10 2 -18 6v1450z" />
<glyph unicode="&#x12b;" horiz-adv-x="487" d="M55 1327q-6 23 -7 48.5t7 47.5h381q6 -23 7 -48t-7 -48h-381zM317 10q-8 -4 -18 -6t-23.5 -3t-31.5 -1q-20 0 -33.5 1t-24.5 3q-10 2 -16 6v1057q6 2 16 4t23.5 4t34.5 2q18 0 31.5 -2t23.5 -4t18 -4v-1057z" />
<glyph unicode="&#x12c;" horiz-adv-x="544" d="M567 1714q-33 -33 -75 -57q-37 -23 -93.5 -40.5t-130.5 -17.5q-76 0 -131 17.5t-92 40.5q-43 25 -76 57q16 53 68 72q27 -20 63 -37q31 -14 73 -25.5t95 -11.5t96.5 11.5t71.5 25.5q35 16 62 37q53 -15 69 -72zM197 1462l18 6q10 2 23.5 4.5t33.5 2.5q18 0 32.5 -2.5 t25.5 -4.5l18 -6v-1450q-10 -4 -20 -6q-18 -6 -56 -6q-39 0 -57 6q-10 2 -18 6v1450z" />
<glyph unicode="&#x12d;" horiz-adv-x="487" d="M532 1397q-29 -35 -71 -62q-37 -23 -92.5 -42t-126.5 -19q-72 0 -126.5 19.5t-90.5 41.5q-43 27 -74 62q8 25 24.5 44t42.5 27q25 -20 60 -36q29 -14 69.5 -25.5t94.5 -11.5q51 0 93 11t71 26q35 16 59 36q51 -14 67 -71zM317 10q-8 -4 -18 -6t-23.5 -3t-31.5 -1 q-20 0 -33.5 1t-24.5 3q-10 2 -16 6v1057q6 2 16 4t23.5 4t34.5 2q18 0 31.5 -2t23.5 -4t18 -4v-1057z" />
<glyph unicode="&#x12e;" horiz-adv-x="544" d="M348 10q-43 -10 -82 -25.5t-68.5 -38t-47 -53t-17.5 -71.5q0 -53 32 -79t79 -26q16 0 29.5 2t23.5 7l20 8q27 -20 27 -66q-16 -10 -37 -18q-16 -8 -40.5 -13.5t-53.5 -5.5q-84 0 -135 47.5t-51 126.5q0 78 46 133.5t124 84.5v1439l18 6q10 2 23.5 4.5t33.5 2.5 q18 0 32.5 -2.5t25.5 -4.5l18 -6v-1450v-2z" />
<glyph unicode="&#x12f;" horiz-adv-x="487" d="M160 1401q8 2 20 4q10 2 25.5 4t38.5 2q20 0 36.5 -2t26.5 -4q12 -2 21 -4v-150q-8 -4 -21 -6q-10 -2 -26.5 -3t-36.5 -1q-23 0 -38.5 1t-25.5 3q-12 2 -20 6v150zM170 1067q6 2 16 4t23.5 4t34.5 2q18 0 31.5 -2t23.5 -4t18 -4v-1057q-86 -29 -129 -86t-43 -123 q0 -53 32 -70.5t79 -17.5q16 0 29.5 2t23.5 6t21 9q14 -10 20 -32t4 -42q-16 -10 -37 -18q-16 -6 -39.5 -11.5t-52.5 -5.5q-86 0 -142 41t-56 123q0 66 36.5 128t106.5 99v1055z" />
<glyph unicode="&#x130;" horiz-adv-x="544" d="M190 1737q8 2 21 4q10 2 24.5 4t36.5 2q20 0 37 -2t27 -4q12 -2 20 -4v-150q-8 -4 -20 -6q-10 -2 -26.5 -3t-37.5 -1q-23 0 -37 1t-24 3q-12 2 -21 6v150zM215 1468q10 2 23.5 4.5t33.5 2.5q18 0 32.5 -2.5t25.5 -4.5l18 -6v-1450q-10 -4 -20 -6q-18 -6 -56 -6 q-39 0 -57 6q-10 2 -18 6v1450z" />
<glyph unicode="&#x131;" horiz-adv-x="487" d="M317 10q-8 -4 -18 -6t-23.5 -3t-31.5 -1q-20 0 -33.5 1t-24.5 3q-10 2 -16 6v1057q6 2 16 4t23.5 4t34.5 2q18 0 31.5 -2t23.5 -4t18 -4v-1057z" />
<glyph unicode="&#x132;" horiz-adv-x="1341" d="M197 1462l18 6q10 2 23.5 4.5t33.5 2.5q18 0 32.5 -2.5t25.5 -4.5l18 -6v-1450q-10 -4 -20 -6q-18 -6 -56 -6q-39 0 -57 6q-10 2 -18 6v1450zM1004 1462q6 2 16 6q10 2 23.5 4.5t35.5 2.5q18 0 31.5 -2.5t24.5 -4.5q10 -4 20 -6v-1106q0 -197 -94 -286.5t-268 -89.5 q-59 0 -110.5 9t-92.5 21q-47 12 -86 31q-4 74 43 117q31 -14 67 -23q31 -8 70 -14t84 -6q51 0 94 12t75 40t49.5 75t17.5 114v1106z" />
<glyph unicode="&#x133;" horiz-adv-x="944" d="M328 1311q-8 -4 -21 -6q-10 -2 -26.5 -3.5t-36.5 -1.5q-23 0 -38.5 1.5t-25.5 3.5q-12 2 -20 6v149q8 2 20 4q10 2 25.5 4t38.5 2q20 0 36.5 -2t26.5 -4q12 -2 21 -4v-149zM317 10q-8 -4 -18 -6t-23.5 -3t-31.5 -1q-20 0 -33.5 1t-24.5 3q-10 2 -16 6v1057q6 2 16 4 t23.5 4t34.5 2q18 0 31.5 -2t23.5 -4t18 -4v-1057zM782 1315q-8 -4 -20 -6q-23 -6 -62 -6q-43 0 -63 6q-12 2 -21 6v149q8 2 21 4q10 2 25.5 4.5t37.5 2.5q20 0 36 -2.5t26 -4.5q12 -2 20 -4v-149zM627 1067q6 2 16 4t23.5 4t33.5 2q18 0 31.5 -2t24.5 -4q10 -2 18 -4v-1247 q0 -168 -74.5 -250t-212.5 -82q-33 0 -56 2t-40 6q-18 4 -31 10q-2 4 -4 11q-2 6 -2 24t2 32.5t6 25.5q4 10 9 18q10 -2 22 -4q10 -2 25.5 -3t34.5 -1q86 0 130 47t44 156v1255z" />
<glyph unicode="&#x134;" horiz-adv-x="884" d="M920 1634q-10 -25 -29 -44t-41 -27l-229 161l-226 -161q-51 18 -69 71l270 221h53zM547 1462q6 2 16 6q10 2 23.5 4.5t36.5 2.5q18 0 32.5 -2.5t24.5 -4.5l18 -6v-1102q0 -197 -93 -288.5t-267 -91.5q-59 0 -112.5 9t-92.5 21q-47 12 -84 31q-4 72 41 117q31 -14 68 -23 q31 -8 69.5 -14t83.5 -6q51 0 94.5 12t75 40t49 75t17.5 114v1106z" />
<glyph unicode="&#x135;" horiz-adv-x="487" d="M535 1266q-10 -25 -28 -44.5t-42 -25.5l-223 158l-222 -160q-49 18 -67 72l264 215h53zM170 1067q6 2 16 4t23.5 4t34.5 2q18 0 31.5 -2t23.5 -4t18 -4v-1247q0 -168 -74.5 -250t-211.5 -82q-33 0 -56.5 2t-40.5 6q-18 4 -30 10q-2 4 -4 11q-2 6 -2 24t2 32.5t6 25.5 q4 10 8 18q10 -2 23 -4q10 -2 25 -3t34 -1q86 0 130 47t44 156v1255z" />
<glyph unicode="&#x136;" horiz-adv-x="1255" d="M999 1462q12 4 32 8.5t46 4.5q27 0 48.5 -4.5t33.5 -8.5l-475 -680l535 -770q-10 -4 -23 -6q-23 -6 -66 -6q-41 0 -65 6q-14 2 -25 6l-481 690h-211v-690q-8 -4 -18 -6q-18 -6 -58 -6q-39 0 -57 6q-10 2 -18 6v1450q10 2 20 6q10 2 23.5 4.5t33.5 2.5q18 0 31.5 -2.5 t24.5 -4.5l18 -6v-633h209zM555 -442q18 20 33 49q12 25 23.5 59.5t15.5 81.5q-14 0 -24.5 2t-16.5 4q-8 2 -13 4v150q8 2 21 4q10 2 25.5 4t35.5 2t37 -2t27 -4q12 -2 20 -4v-103q0 -72 -20.5 -125t-42.5 -90q-29 -43 -64 -73z" />
<glyph unicode="&#x137;" horiz-adv-x="1019" d="M786 1067q8 2 21 4q10 2 24.5 4t34.5 2q16 0 29.5 -2t24.5 -4q10 -2 18 -4l-332 -494l381 -561q-10 -4 -22 -6q-23 -6 -62 -6q-41 0 -61 6q-12 2 -23 6l-336 492h-172v-494q-8 -4 -18 -6t-23.5 -3t-29.5 -1q-18 0 -32.5 1t-25.5 3q-10 2 -18 6v1518l20 4t23.5 3t32.5 1 q16 0 28.5 -1t22.5 -3l20 -4v-907h174zM457 -442q18 18 32 47q12 23 23.5 58.5t15.5 82.5q-16 0 -26 2t-17 4q-8 2 -12 4v150q8 2 21 4q10 2 25.5 4t35.5 2t36.5 -2t26.5 -4q12 -2 21 -4v-103q0 -72 -20.5 -126t-43.5 -89q-27 -41 -61 -71z" />
<glyph unicode="&#x138;" horiz-adv-x="1038" d="M1006 16q-10 -4 -23 -8q-10 -4 -25.5 -6t-37.5 -2q-45 0 -66 6q-12 2 -23 6l-354 496l-166 -193v-303q-31 -12 -71 -12q-45 0 -76 12v1057q16 4 34.5 6t41.5 2t41 -2t30 -6v-565l488 565q33 8 80 8q23 0 43 -2t39 -8l-381 -440z" />
<glyph unicode="&#x139;" horiz-adv-x="1050" d="M246 1548q-63 6 -88 49l213 295q39 4 76.5 -13t54.5 -46zM197 1462l18 6q10 2 24.5 4.5t32.5 2.5t32.5 -2.5t25.5 -4.5l18 -6v-1329h641q4 -10 7 -27.5t3 -37.5q0 -23 -3 -39.5t-7 -28.5h-792v1462z" />
<glyph unicode="&#x13a;" horiz-adv-x="495" d="M199 1591q-63 6 -88 49l213 295q39 4 76.5 -13t54.5 -46zM322 10q-8 -4 -19 -6q-10 -2 -23.5 -3t-31.5 -1q-20 0 -33.5 1t-24.5 3q-10 2 -16 6v1516q6 2 16 4t23.5 4t34.5 2q18 0 31.5 -2t23.5 -4t19 -4v-1516z" />
<glyph unicode="&#x13b;" horiz-adv-x="1050" d="M197 1462l18 6q10 2 24.5 4.5t32.5 2.5t32.5 -2.5t25.5 -4.5l18 -6v-1329h641q4 -10 7 -27.5t3 -37.5q0 -23 -3 -39.5t-7 -28.5h-792v1462zM506 -442q18 20 33 49q12 25 23 59.5t16 81.5q-14 0 -24.5 2t-16.5 4q-8 2 -15 4v150q8 2 21 4q10 2 25.5 4t37.5 2q20 0 35.5 -2 t26.5 -4q12 -2 20 -4v-103q0 -72 -20.5 -125t-42.5 -90q-27 -43 -62 -73z" />
<glyph unicode="&#x13c;" horiz-adv-x="495" d="M322 10q-8 -4 -19 -6q-10 -2 -23.5 -3t-31.5 -1q-20 0 -33.5 1t-24.5 3q-10 2 -16 6v1516q6 2 16 4t23.5 4t34.5 2q18 0 31.5 -2t23.5 -4t19 -4v-1516zM150 -442q18 20 32 49q12 25 23.5 59.5t15.5 81.5q-16 0 -26.5 2t-16.5 4q-8 2 -12 4v150q8 2 20 4q10 2 25.5 4 t36.5 2q20 0 36.5 -2t26.5 -4q12 -2 21 -4v-103q0 -72 -20.5 -125t-43.5 -90q-27 -43 -61 -73z" />
<glyph unicode="&#x13d;" horiz-adv-x="1048" d="M594 1198q-45 8 -66 45q68 59 97.5 127t33.5 164q41 4 74 -3t55 -26q-12 -96 -64 -182t-130 -125zM197 1462l18 6q10 2 24.5 4.5t32.5 2.5t32.5 -2.5t25.5 -4.5l18 -6v-1329h641q4 -10 7 -27.5t3 -37.5q0 -23 -3 -39.5t-7 -28.5h-792v1462z" />
<glyph unicode="&#x13e;" horiz-adv-x="512" d="M492 1192q-49 6 -70 39q61 66 84.5 136.5t15.5 164.5q82 18 131 -14q-4 -96 -44.5 -187.5t-116.5 -138.5zM322 10q-8 -4 -19 -6q-10 -2 -23.5 -3t-31.5 -1q-20 0 -33.5 1t-24.5 3q-10 2 -16 6v1516q6 2 16 4t23.5 4t34.5 2q18 0 31.5 -2t23.5 -4t19 -4v-1516z" />
<glyph unicode="&#x13f;" horiz-adv-x="1067" d="M197 1462l18 6q10 2 24.5 4.5t32.5 2.5t32.5 -2.5t25.5 -4.5l18 -6v-1329h641q4 -10 7 -27.5t3 -37.5q0 -23 -3 -39.5t-7 -28.5h-792v1462zM868 618q-10 -4 -20 -6q-18 -6 -55 -6q-39 0 -58 6q-10 2 -18 6v134q8 2 18 4t23.5 4t34.5 2q18 0 31.5 -2t23.5 -4l20 -4v-134z " />
<glyph unicode="&#x140;" horiz-adv-x="690" d="M322 10q-8 -4 -19 -6q-10 -2 -23.5 -3t-31.5 -1q-20 0 -33.5 1t-24.5 3q-10 2 -16 6v1516q6 2 16 4t23.5 4t34.5 2q18 0 31.5 -2t23.5 -4t19 -4v-1516zM688 618q-10 -4 -20 -6q-18 -6 -56 -6q-39 0 -57 6q-10 2 -18 6v134q8 2 18 4t23.5 4t33.5 2q18 0 31.5 -2t24.5 -4 l20 -4v-134z" />
<glyph unicode="&#x141;" horiz-adv-x="1097" d="M264 1468q10 2 24.5 4.5t33.5 2.5q18 0 32.5 -2.5t24.5 -4.5l18 -6v-596l308 178q41 -33 51 -88l-359 -206v-617h641q4 -10 7.5 -27.5t3.5 -37.5q0 -23 -3.5 -39.5t-7.5 -28.5h-792v662l-168 -97q-20 16 -33.5 39t-17.5 47l219 127v684z" />
<glyph unicode="&#x142;" horiz-adv-x="688" d="M268 1526q6 2 17 4q10 2 23.5 4t33.5 2q18 0 31.5 -2t23.5 -4t19 -4v-600l166 94q4 -2 13 -10.5t19 -26.5q10 -20 13.5 -33.5t3.5 -17.5l-215 -125v-797q-8 -4 -19 -6q-10 -2 -23.5 -3t-31.5 -1q-20 0 -33.5 1t-23.5 3t-17 6v711l-155 -88q-14 4 -33 37 q-12 20 -15.5 32.5t-3.5 16.5l207 121v686v0z" />
<glyph unicode="&#x143;" horiz-adv-x="1425" d="M727 1548q-63 6 -88 49l213 295q39 4 77 -13t54 -46zM444 1055q-29 47 -49 87l-35 70q-16 37 -26 68h-6q2 -33 4 -80q2 -41 4 -98.5t2 -132.5v-957q-8 -4 -19 -6q-18 -6 -53 -6q-39 0 -53 6q-10 2 -16 6v1450q10 2 22 6q10 2 27.5 4.5t40.5 2.5t39 -2.5t26 -4.5 q12 -4 23 -6l602 -1030q27 -45 47 -87t37 -77q18 -39 33 -73h6q-4 39 -6 88q-6 82 -7 217v962q6 2 17 6q10 2 23.5 4.5t31.5 2.5t31.5 -2.5t21.5 -4.5q8 -4 17 -6v-1450q-8 -4 -21 -6q-23 -6 -67 -6q-47 0 -68 6q-12 2 -22 6z" />
<glyph unicode="&#x144;" horiz-adv-x="1124" d="M481 1243q-63 6 -88 49l213 295q39 4 77 -13.5t54 -45.5zM967 10q-8 -4 -19 -6q-10 -2 -24.5 -3t-30.5 -1q-20 0 -32.5 1t-22.5 3t-19 6v752q0 213 -221 213q-86 0 -163 -49t-124 -138v-778q-8 -4 -18 -6t-23.5 -3t-31.5 -1q-20 0 -32.5 1t-23.5 3q-10 2 -18 6v1057 q8 2 18 4t22.5 4t33.5 2q18 0 31.5 -2t23.5 -4t18 -4v-129q59 76 145.5 118t194.5 42q152 0 234 -84t82 -223v-781z" />
<glyph unicode="&#x145;" horiz-adv-x="1425" d="M444 1055q-29 47 -49 87l-35 70q-16 37 -26 68h-6q2 -33 4 -80q2 -41 4 -98.5t2 -132.5v-957q-8 -4 -19 -6q-18 -6 -53 -6q-39 0 -53 6q-10 2 -16 6v1450q10 2 22 6q10 2 27.5 4.5t40.5 2.5t39 -2.5t26 -4.5q12 -4 23 -6l602 -1030q27 -45 47 -87t37 -77q18 -39 33 -73h6 q-4 39 -6 88q-6 82 -7 217v962q6 2 17 6q10 2 23.5 4.5t31.5 2.5t31.5 -2.5t21.5 -4.5q8 -4 17 -6v-1450q-8 -4 -21 -6q-23 -6 -67 -6q-47 0 -68 6q-12 2 -22 6zM627 -442q18 20 32 49q12 25 23.5 59.5t15.5 81.5q-14 0 -24 2t-17 4q-8 2 -12 4v150q8 2 21 4q10 2 25.5 4 t35.5 2t36.5 -2t27.5 -4q12 -2 20 -4v-103q0 -72 -20.5 -125t-42.5 -90q-29 -43 -64 -73z" />
<glyph unicode="&#x146;" horiz-adv-x="1124" d="M967 10q-8 -4 -19 -6q-10 -2 -24.5 -3t-30.5 -1q-20 0 -32.5 1t-22.5 3t-19 6v752q0 213 -221 213q-86 0 -163 -49t-124 -138v-778q-8 -4 -18 -6t-23.5 -3t-31.5 -1q-20 0 -32.5 1t-23.5 3q-10 2 -18 6v1057q8 2 18 4t22.5 4t33.5 2q18 0 31.5 -2t23.5 -4t18 -4v-129 q59 76 145.5 118t194.5 42q152 0 234 -84t82 -223v-781zM475 -446q18 18 33 47q12 23 23.5 58.5t15.5 82.5q-14 0 -24.5 2t-16.5 4q-8 2 -14 4v152q8 2 20 4q10 2 25.5 4t37.5 2q20 0 36 -2t26 -4q12 -2 20 -4v-105q0 -72 -20.5 -126t-42.5 -89q-27 -43 -62 -71z" />
<glyph unicode="&#x147;" horiz-adv-x="1425" d="M430 1784q20 53 70 71l229 -161l225 159q23 -8 41.5 -26.5t28.5 -42.5l-270 -221h-54zM444 1055q-29 47 -49 87l-35 70q-16 37 -26 68h-6q2 -33 4 -80q2 -41 4 -98.5t2 -132.5v-957q-8 -4 -19 -6q-18 -6 -53 -6q-39 0 -53 6q-10 2 -16 6v1450q10 2 22 6q10 2 27.5 4.5 t40.5 2.5t39 -2.5t26 -4.5q12 -4 23 -6l602 -1030q27 -45 47 -87t37 -77q18 -39 33 -73h6q-4 39 -6 88q-6 82 -7 217v962q6 2 17 6q10 2 23.5 4.5t31.5 2.5t31.5 -2.5t21.5 -4.5q8 -4 17 -6v-1450q-8 -4 -21 -6q-23 -6 -67 -6q-47 0 -68 6q-12 2 -22 6z" />
<glyph unicode="&#x148;" horiz-adv-x="1124" d="M782 1511q23 -6 39.5 -23.5t26.5 -41.5l-248 -203h-47l-250 203q20 53 64 67l208 -149zM164 1067q8 2 18 4t22.5 4t33.5 2q18 0 31.5 -2t23.5 -4t18 -4v-129q59 76 145.5 118t194.5 42q152 0 234 -84t82 -223v-781q-8 -4 -19 -6q-10 -2 -24.5 -3t-30.5 -1q-20 0 -32.5 1 t-22.5 3t-19 6v752q0 213 -221 213q-86 0 -163 -49t-124 -138v-778q-8 -4 -18 -6t-23.5 -3t-31.5 -1q-20 0 -32.5 1t-23.5 3q-10 2 -18 6v1057z" />
<glyph unicode="&#x149;" horiz-adv-x="1124" d="M219 1198q-45 8 -65 45q68 59 97.5 127t33.5 164q41 4 73.5 -3t55.5 -26q-12 -96 -64.5 -182t-130.5 -125zM967 10q-8 -4 -19 -6q-10 -2 -24.5 -3t-30.5 -1q-20 0 -32.5 1t-22.5 3t-19 6v752q0 213 -221 213q-86 0 -163 -49t-124 -138v-778q-8 -4 -18 -6t-23.5 -3 t-31.5 -1q-20 0 -32.5 1t-23.5 3q-10 2 -18 6v1057q8 2 18 4t22.5 4t33.5 2q18 0 31.5 -2t23.5 -4t18 -4v-129q59 76 145.5 118t194.5 42q152 0 234 -84t82 -223v-781z" />
<glyph unicode="&#x14a;" horiz-adv-x="1425" d="M1087 1462q6 2 17 6q10 2 23.5 4.5t31.5 2.5t31.5 -2.5t21.5 -4.5q8 -4 17 -6v-1560q0 -147 -51.5 -235.5t-188.5 -133.5q-27 16 -39 46t-8 65q76 29 107.5 84t31.5 172v104q-16 4 -22 6t-8 2l-607 1043q-29 47 -49 87l-35 70q-16 37 -26 68h-6q2 -33 4 -80 q2 -41 4 -98.5t2 -132.5v-957q-8 -4 -19 -6q-18 -6 -53 -6q-39 0 -53 6q-10 2 -16 6v1450q10 2 22 6q10 2 27.5 4.5t40.5 2.5t39 -2.5t26 -4.5q12 -4 23 -6l602 -1030q27 -45 47 -87t37 -77q18 -39 33 -73h6q-4 39 -6 88q-6 82 -7 217v962v0z" />
<glyph unicode="&#x14b;" horiz-adv-x="1124" d="M311 938q59 76 145.5 118t194.5 42q152 0 234 -84t82 -223v-889q0 -147 -51.5 -235.5t-188.5 -133.5q-53 37 -49 109q78 29 109.5 86t31.5 172v862q0 213 -221 213q-86 0 -163 -49t-124 -138v-778q-8 -4 -18 -6t-23.5 -3t-31.5 -1q-20 0 -32.5 1t-23.5 3q-10 2 -18 6 v1057q8 2 18 4t22.5 4t33.5 2q18 0 31.5 -2t23.5 -4t18 -4v-129v0z" />
<glyph unicode="&#x14c;" horiz-adv-x="1388" d="M983 1720q8 -23 7 -50.5t-7 -49.5h-563q-16 49 0 100h563zM131 737q0 199 39 342.5t111.5 235.5t177 136t235.5 44t235.5 -44t177.5 -136t111.5 -235.5t38.5 -342.5t-38.5 -342t-111.5 -235t-177.5 -136t-235.5 -44t-235.5 44t-177 136t-111.5 235t-39 342zM1098 737 q0 178 -29 299t-81 195t-127 105.5t-167 31.5t-166.5 -31.5t-127 -105.5t-81 -195t-28.5 -299t28.5 -299t81 -194.5t127 -105.5t166.5 -32t167 32t127 105.5t81 194.5t29 299z" />
<glyph unicode="&#x14d;" horiz-adv-x="1110" d="M801 1421q8 -23 8 -50.5t-8 -49.5h-496q-14 53 0 100h496zM117 539q0 152 29.5 258t86 172.5t138.5 97.5t184 31t184 -31t138.5 -97.5t86 -173t29.5 -257.5q0 -152 -29.5 -258.5t-86 -173t-138.5 -97t-184 -30.5t-184 30.5t-138.5 97t-86 173t-29.5 258.5zM842 539 q0 129 -20.5 214t-57.5 135t-90 71.5t-119 21.5t-119 -21.5t-90 -71.5t-57.5 -135t-20.5 -214t20.5 -214t57.5 -135.5t90 -72t119 -21.5t119 21.5t90 72t57.5 135.5t20.5 214z" />
<glyph unicode="&#x14e;" horiz-adv-x="1388" d="M698 1712q53 0 96.5 11.5t71.5 25.5q35 16 62 37q53 -14 69 -72q-33 -33 -75 -57q-37 -23 -93.5 -40.5t-130.5 -17.5q-76 0 -132 17.5t-93 40.5q-43 25 -74 57q16 53 68 72q27 -20 63 -37q31 -14 73 -25.5t95 -11.5zM131 737q0 199 39 342.5t111.5 235.5t177 136 t235.5 44t235.5 -44t177.5 -136t111.5 -235.5t38.5 -342.5t-38.5 -342t-111.5 -235t-177.5 -136t-235.5 -44t-235.5 44t-177 136t-111.5 235t-39 342zM1098 737q0 178 -29 299t-81 195t-127 105.5t-167 31.5t-166.5 -31.5t-127 -105.5t-81 -195t-28.5 -299t28.5 -299 t81 -194.5t127 -105.5t166.5 -32t167 32t127 105.5t81 194.5t29 299z" />
<glyph unicode="&#x14f;" horiz-adv-x="1110" d="M553 1401q51 0 93 11t71 26q35 16 59 39q27 -8 43.5 -27.5t24.5 -46.5q-29 -35 -72 -62q-37 -23 -92 -41t-127 -18t-126 18.5t-91 40.5q-43 27 -74 62q8 25 24.5 44t43.5 30q25 -23 59 -39q29 -14 70 -25.5t94 -11.5zM117 539q0 152 29.5 258t86 172.5t138.5 97.5t184 31 t184 -31t138.5 -97.5t86 -173t29.5 -257.5q0 -152 -29.5 -258.5t-86 -173t-138.5 -97t-184 -30.5t-184 30.5t-138.5 97t-86 173t-29.5 258.5zM842 539q0 129 -20.5 214t-57.5 135t-90 71.5t-119 21.5t-119 -21.5t-90 -71.5t-57.5 -135t-20.5 -214t20.5 -214t57.5 -135.5 t90 -72t119 -21.5t119 21.5t90 72t57.5 135.5t20.5 214z" />
<glyph unicode="&#x150;" horiz-adv-x="1388" d="M635 1878q41 4 78 -12.5t57 -44.5l-231 -262q-63 10 -86 47zM946 1878q41 4 78 -12.5t55 -44.5l-231 -262q-59 10 -86 47zM131 737q0 199 39 342.5t111.5 235.5t177 136t235.5 44t235.5 -44t177.5 -136t111.5 -235.5t38.5 -342.5t-38.5 -342t-111.5 -235t-177.5 -136 t-235.5 -44t-235.5 44t-177 136t-111.5 235t-39 342zM1098 737q0 178 -29 299t-81 195t-127 105.5t-167 31.5t-166.5 -31.5t-127 -105.5t-81 -195t-28.5 -299t28.5 -299t81 -194.5t127 -105.5t166.5 -32t167 32t127 105.5t81 194.5t29 299z" />
<glyph unicode="&#x151;" horiz-adv-x="1110" d="M535 1528q37 4 72.5 -11.5t54.5 -37.5l-236 -240q-59 10 -82 43zM831 1528q37 4 74 -11.5t56 -37.5l-236 -240q-59 10 -82 43zM117 539q0 152 29.5 258t86 172.5t138.5 97.5t184 31t184 -31t138.5 -97.5t86 -173t29.5 -257.5q0 -152 -29.5 -258.5t-86 -173t-138.5 -97 t-184 -30.5t-184 30.5t-138.5 97t-86 173t-29.5 258.5zM842 539q0 129 -20.5 214t-57.5 135t-90 71.5t-119 21.5t-119 -21.5t-90 -71.5t-57.5 -135t-20.5 -214t20.5 -214t57.5 -135.5t90 -72t119 -21.5t119 21.5t90 72t57.5 135.5t20.5 214z" />
<glyph unicode="&#x152;" horiz-adv-x="1746" d="M131 737q0 199 40 342.5t115.5 235.5t182 136t242.5 44q51 0 96 -6t80 -14h733q12 -29 12 -64q0 -37 -12 -63h-576v-539h474q12 -29 12 -61q0 -33 -12 -64h-474v-557h596q12 -31 13 -64q0 -33 -13 -63h-755q-35 -8 -78 -14t-96 -6q-135 0 -242 44t-182.5 136t-115.5 235 t-40 342zM893 1335q-78 33 -182 33q-96 0 -173 -31.5t-132.5 -105.5t-85 -195t-29.5 -299t29.5 -299t85 -194.5t132 -105.5t173.5 -32q49 0 97 8.5t85 24.5v1196z" />
<glyph unicode="&#x153;" horiz-adv-x="1685" d="M948 492q10 -211 78 -299.5t207 -88.5q53 0 98 10.5t78 22.5q37 14 66 33q23 -16 35 -43t16 -57q-33 -25 -80 -45q-41 -16 -100.5 -30.5t-139.5 -14.5q-117 0 -199.5 55t-127.5 166q-47 -115 -127 -168t-203 -53q-100 0 -180 30.5t-136.5 97t-86 173t-29.5 258.5 t29.5 258t86 172.5t136.5 97.5t180 31q123 0 204 -52.5t128 -171.5q47 117 130 170.5t193 53.5q182 0 279.5 -105.5t97.5 -292.5q0 -47 -4 -84.5t-8 -66.5q-6 -33 -10 -57h-611zM549 981q-63 0 -114.5 -21.5t-88.5 -71.5t-56.5 -135t-19.5 -214t19.5 -214t56.5 -135.5 t88 -72t115 -21.5q66 0 115 21.5t80.5 73t48 136.5t16.5 214t-16.5 213t-48 135t-80.5 71.5t-115 20.5zM1432 719q0 51 -11.5 98t-38 83t-70.5 56.5t-108 20.5q-115 0 -180.5 -87t-75.5 -288h475q0 8 4.5 39t4.5 78z" />
<glyph unicode="&#x154;" horiz-adv-x="1271" d="M657 1892q39 4 77 -13t54 -46l-256 -285q-63 6 -88 49zM705 1475q98 0 177 -30t133 -85t83.5 -133t29.5 -172q0 -156 -76.5 -262.5t-217.5 -141.5l354 -639q-10 -4 -23 -6q-23 -6 -65 -6q-45 0 -66 6q-12 2 -22 6l-344 623h-320v-623q-8 -4 -18 -6q-18 -6 -56 -6 q-41 0 -59 6q-10 2 -18 6v1463h508zM348 764h342q131 0 205 75.5t74 215.5q0 137 -74 214t-205 77h-342v-582z" />
<glyph unicode="&#x155;" horiz-adv-x="800" d="M504 1587q39 4 76.5 -13.5t54.5 -45.5l-256 -285q-63 6 -88 49zM311 899q33 59 69 98t71.5 60.5t70.5 30t66 8.5q66 0 109.5 -17.5t66.5 -31.5q-8 -78 -68 -125q-35 23 -66.5 32t-72.5 9q-72 0 -135.5 -55.5t-110.5 -149.5v-748q-8 -4 -18 -6t-23.5 -3t-31.5 -1 q-20 0 -32.5 1t-23.5 3q-10 2 -18 6v1057q8 2 18 4t22.5 4t33.5 2q18 0 31.5 -2t23.5 -4t18 -4v-168z" />
<glyph unicode="&#x156;" horiz-adv-x="1271" d="M705 1475q98 0 177 -30t133 -85t83.5 -133t29.5 -172q0 -156 -76.5 -262.5t-217.5 -141.5l354 -639q-10 -4 -23 -6q-23 -6 -65 -6q-45 0 -66 6q-12 2 -22 6l-344 623h-320v-623q-8 -4 -18 -6q-18 -6 -56 -6q-41 0 -59 6q-10 2 -18 6v1463h508zM348 764h342 q131 0 205 75.5t74 215.5q0 137 -74 214t-205 77h-342v-582zM573 -92q8 2 21 4q10 2 25.5 4t35.5 2t37 -2t27 -4q12 -2 20 -4v-103q0 -72 -20.5 -125t-42.5 -90q-29 -43 -64 -73l-57 41q18 20 33 49q12 25 23.5 59.5t15.5 81.5q-14 0 -24.5 2t-16.5 4q-8 2 -13 4v150z" />
<glyph unicode="&#x157;" horiz-adv-x="800" d="M311 899q70 115 141.5 156t135.5 41q66 0 109.5 -17.5t66.5 -31.5q-8 -78 -68 -125q-35 23 -66.5 32t-72.5 9q-72 0 -133.5 -58.5t-112.5 -146.5v-748q-8 -4 -18 -6t-23.5 -3t-31.5 -1q-20 0 -32.5 1t-23.5 3q-10 2 -18 6v1057q8 2 18 4t22.5 4t33.5 2q18 0 31.5 -2 t23.5 -4t18 -4v-168zM156 -92q8 2 20 4q10 2 25.5 4t38.5 2q20 0 35.5 -2t25.5 -4q12 -2 21 -4v-103q0 -72 -20.5 -125t-43.5 -90q-27 -43 -61 -73l-58 41q18 20 33 49q12 25 23.5 59.5t15.5 81.5q-14 0 -24.5 2t-16.5 4q-8 2 -14 4v150z" />
<glyph unicode="&#x158;" horiz-adv-x="1271" d="M821 1853q23 -8 41.5 -26.5t28.5 -42.5l-270 -221h-54l-270 221q20 53 70 71l229 -161zM705 1475q98 0 177 -30t133 -85t83.5 -133t29.5 -172q0 -156 -76.5 -262.5t-217.5 -141.5l354 -639q-10 -4 -23 -6q-23 -6 -65 -6q-45 0 -66 6q-12 2 -22 6l-344 623h-320v-623 q-8 -4 -18 -6q-18 -6 -56 -6q-41 0 -59 6q-10 2 -18 6v1463h508zM348 764h342q131 0 205 75.5t74 215.5q0 137 -74 214t-205 77h-342v-582z" />
<glyph unicode="&#x159;" horiz-adv-x="800" d="M623 1503q23 -8 38 -25.5t25 -39.5l-248 -205h-47l-250 205q20 49 66 67l209 -149zM311 899q70 115 141.5 156t135.5 41q66 0 109.5 -17.5t66.5 -31.5q-8 -78 -68 -125q-35 23 -66.5 32t-72.5 9q-72 0 -133.5 -58.5t-112.5 -146.5v-748q-8 -4 -18 -6t-23.5 -3t-31.5 -1 q-20 0 -32.5 1t-23.5 3q-10 2 -18 6v1057q8 2 18 4t22.5 4t33.5 2q18 0 31.5 -2t23.5 -4t18 -4v-168z" />
<glyph unicode="&#x15a;" horiz-adv-x="1157" d="M573 1573q-63 10 -86 53l209 277q39 2 76 -17.5t53 -48.5zM629 1364q-180 0 -267.5 -70.5t-87.5 -197.5q0 -72 32 -117t85 -76t123 -52.5t148 -45.5q74 -23 143 -51.5t124.5 -74.5t88.5 -115.5t33 -170.5q0 -199 -129 -306t-371 -107q-98 0 -177 12t-134 28 q-66 18 -117 41q-2 35 8 68t31 53q53 -18 117 -32q53 -12 121.5 -21.5t140.5 -9.5q174 0 264 68.5t90 203.5q0 70 -26.5 116t-71.5 77.5t-104.5 53t-123.5 40.5q-80 25 -159.5 51.5t-143 70.5t-103.5 112.5t-40 174.5q0 184 123 296t362 112q88 0 160 -9t123 -20 q59 -12 104 -26q0 -33 -9 -65t-32 -54q-43 12 -96 20q-45 8 -104 15.5t-125 7.5z" />
<glyph unicode="&#x15b;" horiz-adv-x="909" d="M397 1243q-63 6 -88 49l213 295q39 4 77 -13.5t54 -45.5zM113 786q0 139 91 225.5t279 86.5q68 0 120 -8.5t87 -18.5q41 -10 70 -24q2 -29 -8.5 -60t-32.5 -49q-29 8 -64 16q-29 6 -69.5 12.5t-85.5 6.5q-244 0 -244 -180q0 -43 20.5 -72t54.5 -49.5t79 -35.5t92 -28 q55 -16 110.5 -36.5t100.5 -55.5t72.5 -87t27.5 -134q0 -147 -93 -231t-282 -84q-78 0 -139 10t-102 24q-51 14 -86 35q-2 33 8 62.5t33 48.5q39 -16 84 -27q39 -10 89 -17t105 -7q104 0 170 43t66 139q0 51 -21.5 84t-58.5 54.5t-84 35.5t-96 29q-53 14 -105.5 34.5 t-94.5 53t-67.5 81.5t-25.5 123z" />
<glyph unicode="&#x15c;" horiz-adv-x="1155" d="M897 1647q-10 -25 -27.5 -44.5t-40.5 -27.5l-229 162l-225 -162q-49 18 -72 72l272 221h54zM629 1364q-180 0 -267.5 -70.5t-87.5 -197.5q0 -72 32 -118t86 -77t125 -52.5t149 -45.5q74 -23 142.5 -51.5t122.5 -74.5t87 -114.5t33 -169.5q0 -199 -129 -306t-371 -107 q-98 0 -177 12t-134 28q-66 18 -117 41q-2 35 8 68t31 53q53 -18 117 -32q53 -12 121.5 -21.5t140.5 -9.5q174 0 264 68.5t90 203.5q0 72 -28.5 120t-78 80t-113 53.5t-130.5 41.5q-78 23 -154 49.5t-135 70.5t-96 111.5t-37 169.5q0 184 123 296t362 112q88 0 160 -9 t123 -20q59 -12 104 -26q0 -33 -9 -65t-32 -54q-43 12 -96 20q-45 8 -104 15.5t-125 7.5z" />
<glyph unicode="&#x15d;" horiz-adv-x="909" d="M760 1290q-10 -25 -27.5 -43t-40.5 -26l-223 157l-221 -157q-49 18 -68 69l264 215h52zM113 786q0 139 91 225.5t279 86.5q68 0 120 -8.5t87 -18.5q41 -10 70 -24q2 -29 -8.5 -60t-32.5 -49q-29 8 -64 16q-29 6 -69.5 12.5t-85.5 6.5q-244 0 -244 -180q0 -43 22.5 -73 t58.5 -50.5t82 -36t95 -29.5q53 -16 106.5 -37.5t96.5 -55.5t69.5 -86t26.5 -130q0 -147 -93 -231t-282 -84q-78 0 -139 10t-102 24q-51 14 -86 35q-2 33 8 62.5t33 48.5q39 -16 84 -27q39 -10 89 -17t105 -7q104 0 170 43t66 139q0 51 -21.5 83t-57.5 53.5t-82 35.5t-95 29 q-53 14 -106.5 34.5t-95.5 54t-68.5 82.5t-26.5 123z" />
<glyph unicode="&#x15e;" horiz-adv-x="1157" d="M664 803q74 -23 143.5 -51.5t123.5 -74.5t87 -114.5t33 -169.5q0 -186 -115 -292.5t-332 -120.5l-18 -99q119 0 170 -51t51 -137q0 -102 -61.5 -152.5t-178.5 -50.5q-43 0 -76.5 6t-58.5 17q-29 10 -49 24q0 47 35 72q10 -4 50 -18.5t93 -14.5q66 0 103.5 27.5t37.5 91.5 q0 106 -127 106h-71l-21 25l29 154q-90 4 -161.5 15t-123.5 28q-59 16 -104 38q-2 35 8 68t31 53q53 -18 117 -32q53 -12 121.5 -21.5t140.5 -9.5q174 0 264 68.5t90 203.5q0 70 -27.5 117t-73.5 80t-107.5 53.5t-127.5 38.5q-80 25 -157.5 51.5t-139 70.5t-100.5 112.5 t-39 172.5q0 184 123 296t362 112q88 0 160 -9t123 -20q59 -12 104 -26q0 -33 -9 -65t-32 -54q-43 12 -96 20q-45 8 -104.5 15.5t-124.5 7.5q-180 0 -267.5 -70.5t-87.5 -197.5q0 -72 32 -117t85 -76t124 -53t149 -47z" />
<glyph unicode="&#x15f;" horiz-adv-x="909" d="M113 786q0 139 91 225.5t279 86.5q68 0 120 -8.5t87 -18.5q41 -10 70 -24q2 -29 -8.5 -60t-32.5 -49q-29 8 -64 16q-29 6 -69.5 12.5t-85.5 6.5q-244 0 -244 -180q0 -43 20.5 -72t55.5 -50.5t79 -35.5t91 -29q55 -16 110.5 -36.5t100.5 -54.5t72.5 -87t27.5 -133 q0 -139 -81 -221t-247 -94l-18 -97q117 0 166 -50t49 -130q0 -98 -60.5 -147.5t-172.5 -49.5q-41 0 -75 6.5t-57 16.5q-27 10 -49 25q0 43 35 67q10 -4 48 -18.5t91 -14.5q63 0 101.5 28t38.5 89q0 47 -31 74.5t-94 27.5h-70l-20 23l28 150q-68 4 -121 15t-90 23 q-43 14 -73 31q-2 33 8 62.5t33 48.5q39 -16 84 -27q39 -10 89 -17t105 -7q104 0 170 43t66 139q0 51 -21.5 83t-57.5 53.5t-82 35.5t-95 29q-53 14 -106.5 35.5t-95.5 54t-68.5 81.5t-26.5 123z" />
<glyph unicode="&#x160;" horiz-adv-x="1157" d="M315 1800q10 27 27.5 45.5t44.5 26.5l227 -162l226 160q25 -6 42 -25.5t27 -44.5l-268 -215h-53zM629 1364q-180 0 -267.5 -70.5t-87.5 -197.5q0 -70 31 -115t82 -76t119.5 -52.5t144.5 -43.5q74 -23 145.5 -52.5t128 -75.5t91.5 -114.5t35 -173.5q0 -199 -129 -306 t-371 -107q-98 0 -177 12t-134 28q-66 18 -117 41q0 33 10 66t29 55q53 -18 117 -32q53 -12 121.5 -21.5t140.5 -9.5q174 0 264 68.5t90 203.5q0 70 -27.5 117t-75 80t-108.5 54.5t-127 39.5q-80 23 -157.5 49.5t-139 70.5t-99.5 112.5t-38 172.5q0 184 123 296t362 112 q88 0 160 -9t123 -20q59 -12 104 -26q0 -33 -9 -65t-32 -54q-43 12 -96 20q-45 8 -104 15.5t-125 7.5z" />
<glyph unicode="&#x161;" horiz-adv-x="909" d="M205 1442q20 49 65 63l205 -145l205 145q23 -8 37 -24.5t24 -38.5l-241 -201h-49zM113 786q0 139 91 225.5t279 86.5q68 0 120 -8.5t87 -18.5q41 -10 70 -24q2 -29 -8.5 -60t-32.5 -49q-29 8 -64 16q-29 6 -69.5 12.5t-85.5 6.5q-244 0 -244 -180q0 -43 20.5 -72 t53 -49.5t76 -35.5t90.5 -28q55 -16 112.5 -36.5t102.5 -54.5t73.5 -87t28.5 -135q0 -147 -93 -231t-282 -84q-78 0 -139 10t-102 24q-51 14 -86 35q-2 33 8 62.5t33 48.5q39 -16 84 -27q39 -10 89 -17t105 -7q104 0 170 43t66 139q0 51 -21.5 83t-57.5 53.5t-81 35.5 t-94 29q-53 14 -106.5 34.5t-96.5 54t-69.5 82.5t-26.5 123z" />
<glyph unicode="&#x162;" horiz-adv-x="1103" d="M1032 1475q2 -10 6 -19q2 -10 4 -20.5t2 -26.5t-2 -27.5t-4 -21.5l-6 -19h-399v-1329q-10 -4 -21 -6q-18 -6 -55 -6q-39 0 -57 6q-10 2 -19 6v1329h-409q-4 8 -6 19q-6 18 -7 49q0 29 7 47q2 10 6 19h960zM467 -465q18 18 33 47q12 23 23.5 58.5t15.5 83.5q-14 0 -24.5 2 t-16.5 4q-8 2 -15 4v149q8 2 21 4q10 2 25.5 4.5t37.5 2.5q20 0 35.5 -2.5t26.5 -4.5q12 -2 20 -4v-102q0 -72 -20.5 -126t-42.5 -89q-27 -43 -62 -72z" />
<glyph unicode="&#x163;" horiz-adv-x="753" d="M375 373q0 -147 48 -209t169 -62q18 0 36.5 1t33.5 3q16 2 30 7q2 -8 6 -17q2 -8 4.5 -19t2.5 -26q0 -14 -1.5 -23.5t-3.5 -17.5t-4 -14q-16 -4 -54 -10t-89 -6q-90 0 -152.5 25.5t-101.5 74.5t-55.5 120.5t-16.5 166.5v594h-159q-4 6 -7 14q-4 20 -4 43q0 16 1 26.5 t3 18.5t7 14h159v195q29 20 68 28.5t80 4.5v-228h293q2 -6 4 -14t4 -18.5t2 -24.5t-2 -24.5t-4 -18.5l-4 -16h-293v-588zM393 -496q18 20 33 50q12 25 23.5 59.5t15.5 81.5q-14 0 -24.5 2t-16.5 4q-8 2 -14 4v150q8 2 20 4q10 2 25.5 4t38.5 2q20 0 35.5 -2t25.5 -4 q12 -2 20 -4v-103q0 -72 -20 -126t-43 -89q-27 -41 -61 -72z" />
<glyph unicode="&#x164;" horiz-adv-x="1103" d="M262 1784q20 53 70 71l229 -161l225 159q23 -8 41.5 -26.5t28.5 -42.5l-270 -221h-54zM1032 1475q2 -10 6 -19q2 -10 4 -20.5t2 -26.5t-2 -27.5t-4 -21.5l-6 -19h-399v-1329q-10 -4 -21 -6q-18 -6 -55 -6q-39 0 -57 6q-10 2 -19 6v1329h-409q-4 8 -6 19q-6 18 -7 49 q0 29 7 47q2 10 6 19h960z" />
<glyph unicode="&#x165;" horiz-adv-x="753" d="M614 1198q-45 8 -65 45q68 59 97.5 127t33.5 164q41 4 73.5 -3t55.5 -26q-12 -96 -64.5 -182t-130.5 -125zM375 373q0 -147 48 -209t169 -62q18 0 36.5 1t33.5 3q16 2 30 7q2 -8 6 -17q2 -8 4.5 -19t2.5 -26q0 -14 -1.5 -23.5t-3.5 -17.5t-4 -14q-16 -4 -54 -10t-89 -6 q-90 0 -152.5 25.5t-101.5 74.5t-55.5 120.5t-16.5 166.5v594h-159q-4 6 -7 14q-4 20 -4 43q0 16 1 26.5t3 18.5t7 14h159v195q29 20 68 28.5t80 4.5v-228h293q2 -6 4 -14t4 -18.5t2 -24.5t-2 -24.5t-4 -18.5l-4 -16h-293v-588z" />
<glyph unicode="&#x166;" horiz-adv-x="1134" d="M915 754q8 -23 7.5 -49.5t-7.5 -51.5h-268v-641q-10 -4 -20 -6q-18 -6 -56 -6q-39 0 -57 6q-10 2 -18 6v641h-275q-12 53 0 101h275v587h-410q-4 8 -6 19q-6 18 -6 49q0 29 6 47q2 10 6 19h961q2 -10 6 -19q2 -10 4 -20.5t2 -26.5t-2 -27.5t-4 -21.5l-6 -19h-400v-587 h268z" />
<glyph unicode="&#x167;" horiz-adv-x="759" d="M596 102q18 0 36.5 1t33.5 3q16 2 30 7q2 -8 6 -17q2 -8 4.5 -19t2.5 -26q0 -14 -1 -23.5t-3 -17.5t-5 -14q-16 -4 -54 -10t-89 -6q-90 0 -152.5 25.5t-101.5 74.5t-55.5 120.5t-16.5 166.5v165h-137q-12 51 0 99h137v330h-159q-4 6 -6 14q-4 20 -5 43q0 16 1 26.5 t4 18.5q2 8 6 14h159v195q29 20 68 28.5t80 4.5v-228h293q2 -6 4 -14t4 -18.5t2 -24.5t-2 -24.5t-4 -18.5l-4 -16h-293v-330h276q8 -23 7.5 -49.5t-7.5 -49.5h-276v-159q0 -147 48 -209t169 -62z" />
<glyph unicode="&#x168;" horiz-adv-x="1368" d="M821 1671q23 0 40.5 8.5t27.5 18.5q12 12 22 28q23 -10 39.5 -27.5t22.5 -39.5q-16 -25 -39 -45q-20 -16 -51 -29.5t-74 -13.5q-39 0 -67.5 11t-53 23.5t-48.5 23.5t-54 11q-23 0 -41.5 -9t-28.5 -19q-14 -12 -22 -29q-49 20 -62 66q16 25 39 45q20 16 51 31.5t76 15.5 q41 0 69.5 -11.5t53 -23.5t47 -23.5t53.5 -11.5zM1184 481q0 -121 -36 -214t-101.5 -157.5t-157.5 -97t-205 -32.5t-205 33.5t-156.5 98t-100.5 157.5t-36 212v981l19 6q10 2 24.5 4.5t32.5 2.5t32.5 -2.5t24.5 -4.5l19 -6v-1003q0 -166 92 -258t258 -92t256 92t90 258v1003 l19 6q10 2 23.5 4.5t31.5 2.5t31.5 -2.5t23.5 -4.5q10 -4 21 -6v-981z" />
<glyph unicode="&#x169;" horiz-adv-x="1122" d="M289 1368q18 25 41 47q20 18 51 33.5t76 15.5q41 0 69.5 -11t53 -23.5t48 -23.5t54.5 -11q23 0 40 9t30 19q12 12 22 31q49 -16 64 -70q-18 -27 -41 -47q-20 -18 -52 -32.5t-75 -14.5q-41 0 -70 11.5t-53.5 23.5t-48 23.5t-54.5 11.5q-23 0 -40 -10.5t-29 -20.5 q-14 -14 -25 -31q-53 25 -61 70zM811 1067q8 2 18 4t23.5 4t32.5 2q18 0 31.5 -2t23.5 -4t18 -4v-1057q-8 -4 -18 -6t-23.5 -3t-31.5 -1t-31.5 1t-24.5 3q-10 2 -18 6v129q-59 -76 -146 -117.5t-194 -41.5q-152 0 -233.5 83.5t-81.5 223.5v780q8 2 18 4t23.5 4t31.5 2 t31.5 -2t24.5 -4q10 -2 18 -4v-752q0 -213 223 -213q82 0 160 48.5t125 138.5v778z" />
<glyph unicode="&#x16a;" horiz-adv-x="1368" d="M399 1618q-18 51 0 100h580q8 -23 8 -50.5t-8 -49.5h-580zM1184 481q0 -121 -36 -214t-101.5 -157.5t-157.5 -97t-205 -32.5t-205 33.5t-156.5 98t-100.5 157.5t-36 212v981l19 6q10 2 24.5 4.5t32.5 2.5t32.5 -2.5t24.5 -4.5l19 -6v-1003q0 -166 92 -258t258 -92t256 92 t90 258v1003l19 6q10 2 23.5 4.5t31.5 2.5t31.5 -2.5t23.5 -4.5q10 -4 21 -6v-981z" />
<glyph unicode="&#x16b;" horiz-adv-x="1122" d="M799 1432q10 -20 9 -46t-9 -49h-473q-16 51 0 95h473zM811 1067q8 2 18 4t23.5 4t32.5 2q18 0 31.5 -2t23.5 -4t18 -4v-1057q-8 -4 -18 -6t-23.5 -3t-31.5 -1t-31.5 1t-24.5 3q-10 2 -18 6v129q-59 -76 -146 -117.5t-194 -41.5q-152 0 -233.5 83.5t-81.5 223.5v780 q8 2 18 4t23.5 4t31.5 2t31.5 -2t24.5 -4q10 -2 18 -4v-752q0 -213 223 -213q82 0 160 48.5t125 138.5v778z" />
<glyph unicode="&#x16c;" horiz-adv-x="1368" d="M983 1714q-33 -33 -76 -57q-37 -23 -92 -40.5t-129 -17.5q-76 0 -132 17.5t-93 40.5q-45 25 -76 57q16 53 70 72q27 -20 63 -37q31 -14 73 -25.5t95 -11.5t96 11.5t72 25.5q35 16 61 37q56 -17 68 -72zM1184 481q0 -121 -36 -214t-101.5 -157.5t-157.5 -97t-205 -32.5 t-205 33.5t-156.5 98t-100.5 157.5t-36 212v981l19 6q10 2 24.5 4.5t32.5 2.5t32.5 -2.5t24.5 -4.5l19 -6v-1003q0 -166 92 -258t258 -92t256 92t90 258v1003l19 6q10 2 23.5 4.5t31.5 2.5t31.5 -2.5t23.5 -4.5q10 -4 21 -6v-981z" />
<glyph unicode="&#x16d;" horiz-adv-x="1122" d="M557 1397q51 0 93 11t71 26q35 16 59 36q55 -16 68 -71q-29 -35 -72 -62q-37 -23 -92 -42t-127 -19t-126 19.5t-91 41.5q-43 27 -74 62q8 25 25.5 44t42.5 27q25 -20 59 -36q29 -14 70 -25.5t94 -11.5zM811 1067q8 2 18 4t23.5 4t32.5 2q18 0 31.5 -2t23.5 -4t18 -4 v-1057q-8 -4 -18 -6t-23.5 -3t-31.5 -1t-31.5 1t-24.5 3q-10 2 -18 6v129q-59 -76 -146 -117.5t-194 -41.5q-152 0 -233.5 83.5t-81.5 223.5v780q8 2 18 4t23.5 4t31.5 2t31.5 -2t24.5 -4q10 -2 18 -4v-752q0 -213 223 -213q82 0 160 48.5t125 138.5v778z" />
<glyph unicode="&#x16e;" horiz-adv-x="1368" d="M688 1567q-102 0 -169.5 58t-67.5 167q0 55 20.5 96t53 69t75.5 41t90 13q45 0 88 -13t77 -41t55.5 -69t21.5 -96t-19.5 -97t-52.5 -71t-78 -43t-94 -14zM834 1792q0 53 -36 94t-110 41q-72 0 -106.5 -42t-34.5 -93q0 -53 34.5 -95t106.5 -42q74 0 110 43t36 94z M1184 481q0 -121 -36 -214t-101.5 -157.5t-157.5 -97t-205 -32.5t-205 33.5t-156.5 98t-100.5 157.5t-36 212v981l19 6q10 2 24.5 4.5t32.5 2.5t32.5 -2.5t24.5 -4.5l19 -6v-1003q0 -166 92 -258t258 -92t256 92t90 258v1003l19 6q10 2 23.5 4.5t31.5 2.5t31.5 -2.5 t23.5 -4.5q10 -4 21 -6v-981z" />
<glyph unicode="&#x16f;" horiz-adv-x="1122" d="M319 1436q0 55 20.5 96t53.5 68.5t76 41t90 13.5q45 0 88 -13.5t77 -41t55.5 -68.5t21.5 -96t-19.5 -97.5t-52.5 -71t-78 -43t-94 -14.5q-102 0 -170 58.5t-68 167.5zM702 1436q0 53 -35.5 94t-109.5 41q-72 0 -106.5 -42t-34.5 -93q0 -53 34.5 -95.5t106.5 -42.5 q74 0 109.5 43.5t35.5 94.5zM811 1067q8 2 18 4t23.5 4t32.5 2q18 0 31.5 -2t23.5 -4t18 -4v-1057q-8 -4 -18 -6t-23.5 -3t-31.5 -1t-31.5 1t-24.5 3q-10 2 -18 6v129q-59 -76 -146 -117.5t-194 -41.5q-152 0 -233.5 83.5t-81.5 223.5v780q8 2 18 4t23.5 4t31.5 2t31.5 -2 t24.5 -4q10 -2 18 -4v-752q0 -213 223 -213q82 0 160 48.5t125 138.5v778z" />
<glyph unicode="&#x170;" horiz-adv-x="1368" d="M535 1556q-61 6 -86 48l190 278q41 4 79 -12.5t56 -44.5zM848 1556q-61 6 -86 48l190 278q41 4 79 -12.5t56 -44.5zM1184 481q0 -121 -36 -214t-101.5 -157.5t-157.5 -97t-205 -32.5t-205 33.5t-156.5 98t-100.5 157.5t-36 212v981l19 6q10 2 24.5 4.5t32.5 2.5 t32.5 -2.5t24.5 -4.5l19 -6v-1003q0 -166 92 -258t258 -92t256 92t90 258v1003l19 6q10 2 23.5 4.5t31.5 2.5t31.5 -2.5t23.5 -4.5q10 -4 21 -6v-981z" />
<glyph unicode="&#x171;" horiz-adv-x="1122" d="M403 1241q-55 6 -81 45l190 270q39 4 75 -11t54 -42zM705 1241q-57 6 -84 45l190 270q37 4 73 -11t56 -42zM156 1067q8 2 18 4t23.5 4t31.5 2t31.5 -2t24.5 -4q10 -2 18 -4v-752q0 -213 223 -213q82 0 160 48.5t125 138.5v778q8 2 18 4t23.5 4t32.5 2q18 0 31.5 -2 t23.5 -4t18 -4v-1057q-8 -4 -18 -6t-23.5 -3t-31.5 -1t-31.5 1t-24.5 3q-10 2 -18 6v129q-59 -76 -146 -117.5t-194 -41.5q-152 0 -233.5 83.5t-81.5 223.5v780z" />
<glyph unicode="&#x172;" horiz-adv-x="1366" d="M1051 1468q10 2 23 4.5t32 2.5q18 0 31.5 -2.5t23.5 -4.5q10 -4 21 -6v-981q0 -203 -96.5 -325.5t-260.5 -159.5q-82 -23 -141 -67t-59 -119q0 -53 31.5 -79t78.5 -26q16 0 29.5 2t23.5 6t21 8q27 -20 27 -65q-16 -10 -37 -18q-16 -8 -41 -13.5t-53 -5.5q-84 0 -135.5 47 t-51.5 127q0 61 28.5 108.5t80.5 80.5q-203 16 -323 145t-120 354v981l19 6q10 2 24.5 4.5t32.5 2.5t32.5 -2.5t24.5 -4.5l19 -6v-1003q0 -166 92 -258t258 -92t256 92t90 258v1003z" />
<glyph unicode="&#x173;" horiz-adv-x="1124" d="M813 1067q8 2 18 4t23.5 4t32.5 2q18 0 31.5 -2t23.5 -4t19 -4v-1057q-78 -23 -131.5 -80t-53.5 -133q0 -47 31 -63.5t78 -16.5q35 0 53 7l20 8q14 -10 20.5 -30.5t6.5 -41.5q-16 -10 -37 -18q-16 -6 -40.5 -11.5t-53.5 -5.5q-84 0 -135 42t-51 114q0 74 41 135t106 96 l-2 127q-59 -76 -146 -117.5t-194 -41.5q-152 0 -233.5 83.5t-81.5 223.5v780q8 2 18 4t23.5 4t31.5 2t31.5 -2t24.5 -4q10 -2 18 -4v-752q0 -213 223 -213q82 0 160 48.5t125 138.5v778v0z" />
<glyph unicode="&#x174;" horiz-adv-x="1959" d="M1290 1634q-10 -25 -28.5 -44t-40.5 -27l-230 161l-225 -161q-51 18 -70 71l271 221h53zM1034 1049q-16 59 -25.5 106t-13.5 78q-6 37 -6 63h-6q-2 -27 -8 -63q-4 -31 -13.5 -78t-23.5 -106l-287 -1037q-14 -4 -38.5 -8t-51.5 -4q-29 0 -50.5 4t-33.5 8l-420 1450l19 6 q10 2 23.5 4.5t33.5 2.5t34.5 -2.5t25.5 -4.5l18 -6l305 -1046q12 -47 22.5 -90t16.5 -76q8 -37 14 -72h6q2 35 11 72q10 66 35 164l292 1048l19 6q10 2 23.5 4.5t33.5 2.5t34.5 -2.5t25.5 -4.5l18 -6l291 -1046q12 -49 20 -92t13 -76q6 -37 10 -70h6q2 31 10 68 q6 33 15.5 74.5t25.5 93.5l297 1048l19 6q10 2 22 4.5t29 2.5q16 0 29.5 -2.5t23.5 -4.5l18 -6l-409 -1450q-10 -4 -23 -6q-23 -6 -59 -6q-41 0 -62 6q-14 2 -24 6z" />
<glyph unicode="&#x175;" horiz-adv-x="1626" d="M1112 1303q-10 -23 -26.5 -42.5t-41.5 -25.5l-223 156l-221 -158q-45 16 -68 70l265 217h51zM881 639q-35 119 -47.5 181.5t-14.5 90.5h-6q-4 -29 -16.5 -92t-51.5 -180l-198 -629q-14 -4 -33.5 -7t-44.5 -3q-27 0 -46.5 3t-35.5 7l-328 1057q8 2 19 4q10 2 23.5 4 t31.5 2t31.5 -2t21.5 -4t15 -4l225 -717q23 -72 30 -119t11 -67h6l13.5 67.5t31.5 118.5l225 717q10 2 23 4q10 2 24.5 4t30.5 2q18 0 31.5 -2t24.5 -4q10 -2 18 -4l221 -713q23 -74 30 -122t11 -68h6q4 20 14.5 66t32.5 122l224 715q8 2 18 4t21.5 4t27.5 2t29.5 -2 t21.5 -4t15 -4l-328 -1057q-16 -4 -35.5 -7t-44.5 -3t-44 3t-36 7z" />
<glyph unicode="&#x176;" horiz-adv-x="1286" d="M956 1634q-10 -25 -27.5 -44t-41.5 -27l-228 161l-225 -161q-49 18 -72 71l271 221h53zM1100 1468q10 2 24.5 4.5t36.5 2.5q20 0 36.5 -2.5t27.5 -4.5q12 -4 22 -6l-530 -841v-609q-8 -4 -19 -6q-18 -6 -55 -6q-41 0 -59 6q-10 2 -19 6v604l-516 846q8 2 23 6 q10 2 28.5 4.5t40.5 2.5q23 0 38.5 -2.5t25.5 -4.5q12 -4 22 -6l422 -686l432 686z" />
<glyph unicode="&#x177;" horiz-adv-x="1073" d="M825 1303q-10 -23 -26.5 -42.5t-40.5 -25.5l-223 156l-222 -158q-49 18 -67 70l264 217h51zM584 -199q-25 -74 -51.5 -132t-62.5 -98t-85 -61.5t-119 -21.5q-23 0 -42 2t-34 6q-16 4 -28 8q-2 4 -7 19.5t-5 38.5t5 40t9 21q10 -4 24 -6q12 -2 28.5 -3t35.5 -1 q33 0 59.5 9t49 32.5t44 65.5t44.5 110l61 172q-23 0 -49 10l-410 1055q10 2 21 4q10 2 23.5 4t33.5 2q18 0 32.5 -2t24.5 -4t21 -4l276 -702q18 -47 31.5 -88t24.5 -70q10 -35 18 -62h6q8 27 17 62q16 63 49 158l241 702q8 2 19 4q10 2 22.5 4t32.5 2q16 0 30.5 -2t24.5 -4 t19 -4z" />
<glyph unicode="&#x178;" horiz-adv-x="1286" d="M412 1729q8 2 18 4t23.5 4t33.5 2q18 0 31.5 -2t24.5 -4l20 -4v-134q-10 -4 -20 -6t-23.5 -3t-32.5 -1q-20 0 -33.5 1t-23.5 3t-18 6v134zM735 1729q8 2 19 4q10 2 23.5 4t33.5 2q18 0 31.5 -2t23.5 -4t21 -4v-134q-10 -4 -21 -6q-10 -2 -23.5 -3t-31.5 -1q-20 0 -33.5 1 t-23.5 3t-19 6v134zM1100 1468q10 2 24.5 4.5t36.5 2.5q20 0 36.5 -2.5t27.5 -4.5q12 -4 22 -6l-530 -841v-609q-8 -4 -19 -6q-18 -6 -55 -6q-41 0 -59 6q-10 2 -19 6v604l-516 846q8 2 23 6q10 2 28.5 4.5t40.5 2.5q23 0 38.5 -2.5t25.5 -4.5q12 -4 22 -6l422 -686l432 686 z" />
<glyph unicode="&#x179;" horiz-adv-x="1198" d="M692 1892q39 4 77 -13t54 -46l-243 -272q-63 10 -91 49zM1071 1475q4 -10 8 -26.5t4 -39.5t-4 -41t-8 -29l-811 -1204h838q4 -10 7 -26.5t3 -38.5q0 -43 -10 -70h-1008q-4 12 -7 29.5t-3 40.5t3 39t7 26l807 1204h-750q-4 12 -7 31t-3 41q0 23 3 38t7 26h924z" />
<glyph unicode="&#x17a;" horiz-adv-x="944" d="M459 1243q-63 6 -88 49l211 295q39 4 76.5 -13.5t56.5 -45.5zM834 125q2 -8 6 -16q2 -8 4 -19.5t2 -28.5q0 -16 -2 -26t-4 -19q-4 -8 -6 -16h-740q-10 25 -10 66q0 39 10 59l580 827h-539q-4 8 -6 17q-4 20 -4 47q0 16 1 26.5t3 18.5t6 16h696q4 -10 7.5 -23.5t3.5 -35.5 q0 -23 -3 -39t-8 -27l-579 -827h582z" />
<glyph unicode="&#x17b;" horiz-adv-x="1198" d="M524 1747q8 2 19 4q10 2 24.5 3t34.5 1q18 0 32.5 -1t24.5 -3t21 -4v-139q-10 -4 -21 -6q-10 -2 -24 -3.5t-33 -1.5q-20 0 -34.5 1t-24.5 4q-10 2 -19 6v139zM1071 1475q4 -10 8 -26.5t4 -39.5t-4 -41t-8 -29l-811 -1204h838q4 -10 7 -26.5t3 -38.5q0 -43 -10 -70h-1008 q-4 12 -7 29.5t-3 40.5t3 39t7 26l807 1204h-750q-4 12 -7 31t-3 41q0 23 3 38t7 26h924z" />
<glyph unicode="&#x17c;" horiz-adv-x="944" d="M571 1315q-10 -4 -20 -6t-24.5 -3t-32.5 -1q-20 0 -35 1t-25 3t-18 6v139q8 2 18 4t24.5 3t35.5 1q18 0 32.5 -1t24.5 -3l20 -4v-139zM834 125q2 -8 6 -16q2 -8 4 -19.5t2 -28.5q0 -16 -2 -26t-4 -19q-4 -8 -6 -16h-740q-10 25 -10 66q0 39 10 59l580 827h-539 q-4 8 -6 17q-4 20 -4 47q0 16 1 26.5t3 18.5t6 16h696q4 -10 7.5 -23.5t3.5 -35.5q0 -23 -3 -39t-8 -27l-579 -827h582z" />
<glyph unicode="&#x17d;" horiz-adv-x="1198" d="M836 1853q23 -8 41 -26.5t28 -42.5l-270 -221h-53l-271 221q20 53 70 71l229 -161zM1071 1475q4 -10 8 -26.5t4 -39.5t-4 -41t-8 -29l-811 -1204h838q4 -10 7 -26.5t3 -38.5q0 -43 -10 -70h-1008q-4 12 -7 29.5t-3 40.5t3 39t7 26l807 1204h-750q-4 12 -7 31t-3 41 q0 23 3 38t7 26h924z" />
<glyph unicode="&#x17e;" horiz-adv-x="944" d="M221 1434q23 47 64 65l207 -147l204 145q20 -6 36 -23.5t26 -39.5l-244 -201h-47zM834 125q2 -8 6 -16q2 -8 4 -19.5t2 -28.5q0 -16 -2 -26t-4 -19q-4 -8 -6 -16h-740q-4 10 -7 26.5t-3 39.5t3 36t7 23l580 827h-539q-4 8 -6 17q-4 20 -4 47q0 16 1 26.5t3 18.5t6 16h696 q4 -10 7.5 -23.5t3.5 -35.5q0 -23 -3 -39t-8 -27l-579 -827h582z" />
<glyph unicode="&#x17f;" horiz-adv-x="569" d="M365 10q-8 -4 -19 -6q-10 -2 -23.5 -3t-31.5 -1q-20 0 -32.5 1t-22.5 3t-19 6v951h-145q-12 61 0 116h145v123q0 74 15.5 136.5t52.5 106.5t99 68.5t157 24.5q47 0 84 -6t65 -12q33 -8 60 -17q0 -68 -39 -108q-20 4 -43 10q-23 4 -51.5 8t-63.5 4q-57 0 -93 -13 t-57.5 -39t-29.5 -64.5t-8 -88.5v-1200z" />
<glyph unicode="&#x192;" horiz-adv-x="913" d="M426 27q-16 -158 -87 -237t-222 -79q-41 0 -76 6.5t-61 14.5q-31 8 -56 22q0 61 39 99q20 -6 43 -13q45 -10 103 -10q76 0 119.5 41t54.5 149l79 814h-182q-4 6 -6 14q-4 20 -4 43q0 12 1 21.5t3 17.5t6 14h193l16 156q16 160 84 237.5t219 77.5q45 0 80 -6t62 -12 q29 -8 53 -19q0 -57 -37 -100q-23 4 -45 10q-20 4 -47 8t-58 4q-78 0 -118.5 -43t-51.5 -153l-14 -160h191q2 -6 4 -14t4 -18.5t2 -22.5q0 -14 -2 -23.5t-4 -17.5t-4 -14h-203z" />
<glyph unicode="&#x1fa;" horiz-adv-x="1327" d="M674 1898q-27 4 -48.5 12.5t-33.5 24.5l199 222q37 4 71.5 -10.5t50.5 -35.5zM1290 12q-8 -4 -20 -6q-23 -6 -64 -6q-37 0 -55 6q-10 2 -18 6l-148 391h-653l-150 -391q-8 -4 -18 -6q-18 -6 -55 -6t-56 6q-10 2 -16 6l526 1407q-63 18 -103 69.5t-40 131.5q0 53 20.5 94 t54 68.5t76.5 42t88 14.5t88.5 -13.5t77 -41t55 -68.5t21.5 -96q0 -78 -40 -127t-99 -70zM805 1620q0 53 -37 93t-111 40q-72 0 -106.5 -41t-34.5 -92q0 -53 35 -95t106 -42q74 0 111 43t37 94zM702 1157q-10 31 -18 56.5t-12 43.5l-10 41h-7l-10 -41q-4 -18 -12 -44.5 t-19 -55.5l-237 -627h563z" />
<glyph unicode="&#x1fb;" horiz-adv-x="1054" d="M602 1907q37 4 72 -10.5t51 -34.5l-240 -213q-27 4 -48 12t-34 25zM297 1391q0 51 19.5 90t52 64.5t74.5 38.5t87 13q43 0 85 -13t76 -38.5t54.5 -64.5t20.5 -90t-19.5 -91t-51 -67t-74.5 -41t-93 -14q-98 0 -164.5 54.5t-66.5 158.5zM666 1391q0 47 -34 83.5t-104 36.5 q-66 0 -98.5 -37.5t-32.5 -82.5q0 -47 33 -86t98 -39q70 0 104 39t34 86zM176 1028q47 18 103 35q47 12 110.5 23.5t136.5 11.5q111 0 182.5 -27t113.5 -79t58.5 -129t16.5 -179v-674q-6 -4 -14 -6t-18.5 -3t-26.5 -1q-23 0 -43 4q-8 2 -17 6l-22 154q-43 -90 -132 -137 t-212 -47q-143 0 -230.5 83.5t-87.5 243.5q0 158 96.5 239t290.5 81q86 0 158 -6.5t111 -10.5v115q0 133 -57.5 189.5t-184.5 56.5q-59 0 -109.5 -8.5t-91.5 -18.5q-47 -10 -86 -24q-4 2 -14 12t-21 33q-10 23 -10 41v22zM750 504q-35 4 -105 10t-143 6q-254 0 -254 -213 q0 -111 56 -160t155 -49q68 0 122 24.5t91 67.5t57.5 102.5t20.5 129.5v82z" />
<glyph unicode="&#x1fc;" horiz-adv-x="1757" d="M1206 1548q-63 6 -88 49l211 295q39 4 77 -13t56 -46zM180 12q-16 -6 -36.5 -9t-43.5 -3t-45 3t-37 9l887 1463h725q12 -29 12 -65t-12 -62h-567v-539h465q25 -68 0 -127h-465v-555h588q25 -63 0 -127h-731v389h-514zM483 516h437v727z" />
<glyph unicode="&#x1fd;" horiz-adv-x="1587" d="M737 1243q-63 6 -90 49l213 295q39 4 77 -13.5t56 -45.5zM809 909q47 94 127 141.5t182 47.5q180 0 273.5 -105.5t93.5 -292.5q0 -43 -4 -77.5t-8 -61.5q-6 -31 -11 -53h-604q10 -211 82 -307.5t205 -96.5q55 0 98 10.5t74 22.5q35 14 61 33q23 -16 35 -43t17 -57 q-31 -25 -76 -45q-39 -16 -95.5 -30.5t-134.5 -14.5q-72 0 -129 19t-100 53t-72.5 78t-44.5 93q-14 -47 -42.5 -91t-75 -78t-109 -54t-141.5 -20q-150 0 -233 83.5t-83 243.5q0 158 90 234.5t283 76.5h246v113q0 129 -53.5 184.5t-172.5 55.5q-53 0 -102 -8.5t-86 -18.5 q-43 -10 -80 -24q-20 18 -31.5 47.5t-11.5 60.5q43 18 96 35q45 12 104.5 23.5t129.5 11.5q129 0 200.5 -49.5t102.5 -139.5zM1335 719q0 51 -11 98t-35.5 83t-66.5 56.5t-104 20.5q-53 0 -98 -18.5t-80 -61.5t-56.5 -111.5t-25.5 -167.5h469q2 10 4 25q2 12 3 31.5t1 44.5z M487 508q-129 0 -185 -47t-56 -156q0 -104 50 -155.5t140 -51.5q129 0 203 85t74 233v92h-226z" />
<glyph unicode="&#x1fe;" horiz-adv-x="1388" d="M705 1571q-63 6 -89 49l211 295q39 4 77 -13.5t57 -46.5zM1075 1350q88 -92 135 -242t47 -371q0 -199 -38.5 -342t-111.5 -235t-177.5 -136t-235.5 -44q-197 0 -327 100l-93 -166q-8 -4 -18 -6t-21.5 -3t-27.5 -1t-26.5 1t-20.5 3t-19 6l140 248q-72 92 -111 234.5 t-39 340.5q0 199 39 342.5t111.5 235.5t177 136t235.5 44q84 0 156 -17.5t131 -56.5l76 138q6 2 16 6q8 2 21.5 4t29.5 2q18 0 30.5 -2t21.5 -4q8 -4 16 -6zM694 1368q-92 0 -166.5 -31.5t-127 -105.5t-81 -195t-28.5 -299q0 -274 78 -418l546 984q-90 65 -221 65zM436 203 q51 -51 115.5 -74t142.5 -23q92 0 167 32t127 105.5t81 194.5t29 299q0 166 -27 282t-76 187z" />
<glyph unicode="&#x1ff;" horiz-adv-x="1110" d="M477 1243q-63 6 -88 49l213 295q39 4 77 -13.5t54 -45.5zM868 1169q29 -4 53.5 -17t41.5 -30l-89 -147q59 -68 90 -175.5t31 -260.5q0 -152 -30.5 -258.5t-87 -173t-138.5 -97t-184 -30.5q-133 0 -227 51l-72 -123q-29 2 -52.5 14t-39.5 33l80 139q-61 66 -94 175.5 t-33 269.5q0 152 29.5 258t87 172.5t138.5 97.5t183 31q143 0 238 -60zM727 928q-68 53 -172 53q-66 0 -119 -21.5t-90 -71.5t-57.5 -135t-20.5 -214q0 -106 16.5 -179t47.5 -120zM395 141q63 -45 160 -45q66 0 119 21.5t90 72t57.5 135.5t20.5 214q0 100 -14.5 170.5 t-39.5 117.5z" />
<glyph unicode="&#x218;" horiz-adv-x="1157" d="M629 1364q-180 0 -267.5 -70.5t-87.5 -197.5q0 -70 30 -115t81 -76t119.5 -52.5t144.5 -43.5q76 -23 147.5 -51.5t128 -74.5t91.5 -115.5t35 -174.5q0 -199 -129 -306t-371 -107q-98 0 -177 12t-134 28q-66 18 -117 41q-2 35 8 68t31 53q53 -18 117 -32 q53 -12 121.5 -21.5t140.5 -9.5q174 0 264 68.5t90 203.5q0 72 -28.5 119t-77 80t-111 54.5t-129.5 39.5q-78 23 -155 50.5t-137 71.5t-97 110.5t-37 170.5q0 184 123 296t362 112q88 0 160 -9t123 -20q59 -12 104 -26q0 -33 -9 -65t-32 -54q-43 12 -96 20q-45 8 -104 15.5 t-125 7.5zM481 -465q18 18 33 47q12 23 23.5 58.5t15.5 83.5q-14 0 -24.5 2t-16.5 4q-8 2 -14 4v149q8 2 20 4q10 2 25.5 4.5t38.5 2.5q20 0 35.5 -2.5t25.5 -4.5q12 -2 21 -4v-102q0 -72 -20.5 -126t-43.5 -89q-27 -43 -61 -72z" />
<glyph unicode="&#x219;" horiz-adv-x="909" d="M113 786q0 139 91 225.5t279 86.5q68 0 120 -8.5t87 -18.5q41 -10 70 -24q2 -29 -8.5 -60t-32.5 -49q-29 8 -64 16q-29 6 -69.5 12.5t-85.5 6.5q-244 0 -244 -180q0 -43 20.5 -73t55.5 -50.5t80 -34.5t92 -29q55 -16 110.5 -36.5t99.5 -54.5t71.5 -87t27.5 -133 q0 -147 -93 -231t-282 -84q-78 0 -139 10t-102 24q-51 14 -86 35q-2 33 8 62.5t33 48.5q39 -16 84 -27q39 -10 89 -17t105 -7q104 0 170 43t66 139q0 51 -21.5 84t-58.5 54.5t-83 35.5t-95 29q-53 14 -105.5 34.5t-94.5 53t-68.5 81.5t-26.5 123zM356 -496q18 20 33 50 q12 25 23.5 59.5t15.5 81.5q-14 0 -24.5 2t-16.5 4q-8 2 -14 4v150q8 2 20 4q10 2 25.5 4t38.5 2q20 0 35.5 -2t25.5 -4q12 -2 21 -4v-103q0 -72 -20.5 -126t-43.5 -89q-27 -41 -61 -72z" />
<glyph unicode="&#x237;" horiz-adv-x="487" d="M170 1067q6 2 16 4t23.5 4t34.5 2q18 0 31.5 -2t23.5 -4t18 -4v-1247q0 -168 -74.5 -250t-211.5 -82q-33 0 -56.5 2t-40.5 6q-18 4 -30 10q-2 4 -4 11q-2 6 -2 24t2 32.5t6 25.5q4 10 8 18q10 -2 23 -4q10 -2 25 -3t34 -1q86 0 130 47t44 156v1255z" />
<glyph unicode="&#x2c6;" horiz-adv-x="811" d="M702 1221q-10 -25 -28.5 -44.5t-40.5 -25.5l-230 160l-225 -162q-49 18 -69 72l270 221h53z" />
<glyph unicode="&#x2c7;" horiz-adv-x="827" d="M109 1348q20 55 69 71l230 -162l225 160q23 -6 41 -25.5t28 -43.5l-270 -222h-53z" />
<glyph unicode="&#x2d8;" horiz-adv-x="663" d="M618 1380q-29 -35 -71 -61q-37 -23 -92.5 -42.5t-126.5 -19.5q-72 0 -126.5 19.5t-90.5 42.5q-43 27 -74 61q8 25 24.5 44.5t42.5 29.5q25 -23 60 -39q29 -14 69.5 -25.5t94.5 -11.5q51 0 93 11.5t71 25.5q35 16 59 39q51 -19 67 -74z" />
<glyph unicode="&#x2d9;" horiz-adv-x="360" d="M256 1245q-10 -4 -20 -6t-24.5 -3t-33.5 -1q-20 0 -34.5 1t-24.5 3t-19 6v139q8 2 19 5q10 2 24.5 4t34.5 2q18 0 32.5 -2t25.5 -4q10 -2 20 -5v-139z" />
<glyph unicode="&#x2da;" horiz-adv-x="704" d="M348 1034q-102 0 -169.5 58.5t-67.5 167.5q0 55 20.5 96t53 68.5t75.5 41t90 13.5q45 0 88 -13.5t77 -41t55.5 -68.5t21.5 -96t-19.5 -97.5t-52.5 -71t-78 -43t-94 -14.5zM494 1260q0 53 -36 94t-110 41q-72 0 -106.5 -42t-34.5 -93q0 -53 34.5 -95.5t106.5 -42.5 q74 0 110 43.5t36 94.5z" />
<glyph unicode="&#x2db;" horiz-adv-x="579" d="M340 -342q27 -20 27 -66q-16 -10 -37 -18q-16 -8 -41 -13t-53 -5q-86 0 -136.5 47t-50.5 127q0 109 85 173t226 74l11 -43q-43 -10 -82 -25t-69 -38t-47 -53.5t-17 -71.5q0 -53 31.5 -78.5t78.5 -25.5q16 0 29.5 2t23.5 6q11 4 21 8z" />
<glyph unicode="&#x2dc;" horiz-adv-x="669" d="M469 1370q23 0 39 9.5t29 19.5q14 12 24 31q51 -20 62 -70q-18 -27 -41 -49q-20 -18 -51 -32.5t-74 -14.5q-41 0 -71 11t-54.5 24.5t-47 24.5t-53.5 11q-23 0 -40 -10t-29 -20q-14 -14 -25 -31q-53 25 -61 69q18 25 41 48q20 18 51 33.5t76 15.5q41 0 69.5 -11.5 t53 -23.5t48 -23.5t54.5 -11.5z" />
<glyph unicode="&#x2dd;" horiz-adv-x="790" d="M133 1311q-63 6 -90 49l205 295q41 4 81 -13.5t60 -46.5zM457 1311q-63 6 -88 49l204 295q41 4 80 -13.5t60 -46.5z" />
<glyph unicode="&#x3c0;" horiz-adv-x="1245" d="M1165 1077q10 -31 11 -61q0 -33 -11 -64h-147v-467q0 -125 10 -211t23 -139q14 -63 32 -100q-16 -16 -43.5 -25.5t-58.5 -9.5q-10 0 -25.5 2t-25.5 6q-18 37 -31 103q-12 55 -21.5 145t-9.5 227v469h-501v-940q-8 -4 -19 -6q-18 -6 -55 -6t-55 6q-10 2 -19 6v934 q-35 -4 -60.5 -7t-43.5 -7q-23 -4 -37 -8q-10 31 -10 63q0 16 2 32.5t8 29.5q31 6 78 14q41 4 103.5 9t148.5 5h757z" />
<glyph unicode="&#x401;" d="M383 1772q8 2 18 4t23.5 4t34.5 2q18 0 31.5 -2t23.5 -4t21 -4v-134q-10 -4 -21 -6q-10 -2 -23.5 -3t-31.5 -1q-20 0 -33.5 1t-24.5 3q-10 2 -18 6v134zM707 1772q8 2 18 4t23.5 4t33.5 2q18 0 31.5 -2t24.5 -4l20 -4v-134q-10 -4 -20 -6t-23.5 -3t-32.5 -1 q-20 0 -33.5 1t-23.5 3t-18 6v134zM1010 1475q4 -14 8 -28.5t4 -33.5q0 -39 -12 -65h-662v-539h559q4 -14 8.5 -28.5t4.5 -30.5q0 -35 -13 -66h-559v-557h682q4 -14 8 -29.5t4 -31.5q0 -35 -12 -66h-833v1475h813z" />
<glyph unicode="&#x410;" horiz-adv-x="1327" d="M580 1462q10 2 22 6q10 2 25.5 4.5t36.5 2.5q20 0 35.5 -2.5t25.5 -4.5q12 -4 23 -6l542 -1450q-8 -4 -20 -6q-23 -6 -64 -6q-37 0 -55 6q-10 2 -18 6l-148 391h-653l-150 -391q-8 -4 -18 -6q-18 -6 -55 -6t-56 6q-10 2 -16 6zM655 1298l-10 -41q-4 -18 -12 -44.5 t-19 -55.5l-237 -627h563l-238 627q-10 31 -18 56.5t-12 43.5l-10 41h-7z" />
<glyph unicode="&#x411;" horiz-adv-x="1259" d="M1010 1475l6 -19q2 -10 4 -21.5t2 -27.5t-2 -26.5t-4 -20.5l-6 -19h-662v-495h389q96 0 175 -30t134.5 -85t85 -133t29.5 -172q0 -96 -29.5 -175t-85 -134.5t-134 -86t-175.5 -30.5h-540v1475h813zM348 121h363q145 0 219 83t74 220q0 139 -74 220t-219 81h-363v-604z " />
<glyph unicode="&#x412;" horiz-adv-x="1284" d="M717 1475q104 0 180 -32t124 -85t70.5 -125t22.5 -154q0 -80 -20.5 -136t-48 -94t-58.5 -60.5t-49 -34.5q20 -10 58 -31t75 -60.5t63.5 -102t26.5 -154.5t-26.5 -167t-81 -128.5t-136 -82t-192.5 -28.5h-528v1475h520zM684 805q76 0 128 20.5t85 56.5t47 86t14 111 q0 123 -61 198t-215 75h-334v-547h336zM698 123q168 0 237 73.5t69 206.5q0 147 -74 215t-232 68h-350v-563h350z" />
<glyph unicode="&#x413;" horiz-adv-x="1024" d="M963 1475q2 -10 6 -19q2 -10 4 -20.5t2 -26.5q0 -14 -2 -25.5t-4 -21.5q-4 -10 -6 -21h-615v-1329q-10 -4 -20 -6q-18 -6 -56 -6q-39 0 -57 6q-10 2 -18 6v1463h766z" />
<glyph unicode="&#x414;" horiz-adv-x="1402" d="M1313 127v-410q-10 -4 -27.5 -8t-40.5 -4t-41 4t-30 8v283h-994v-283q-12 -4 -29.5 -8t-39.5 -4q-23 0 -40.5 4t-29.5 8v410h121q70 78 108.5 230.5t57.5 394.5l55 723h770v-1348h160zM473 739q-16 -207 -50 -363.5t-89 -248.5h667v1229h-483z" />
<glyph unicode="&#x415;" d="M1010 1475q12 -29 12 -62q0 -39 -12 -65h-662v-537h559q12 -29 13 -61q0 -33 -13 -64h-559v-559h682q12 -29 12 -61q0 -35 -12 -66h-833v1475h813z" />
<glyph unicode="&#x416;" horiz-adv-x="1918" d="M1661 1462q10 4 30.5 8.5t47.5 4.5t47 -4.5t33 -8.5l-439 -678l502 -772q-10 -4 -22 -6q-23 -6 -68 -6q-47 0 -68 6q-14 2 -22 6l-449 690h-217v-690q-8 -4 -18 -6q-18 -6 -57 -6t-58 6q-10 2 -18 6v690h-226l-446 -690q-10 -4 -23 -6q-23 -6 -63 -6q-45 0 -66 6 q-12 2 -22 6l498 770l-437 680q12 4 33 8.5t47 4.5q29 0 48.5 -4.5t29.5 -8.5l410 -635h217v635l18 6q10 2 24.5 4.5t33.5 2.5q18 0 32.5 -2.5t24.5 -4.5l18 -6v-635h215l410 635v0z" />
<glyph unicode="&#x417;" horiz-adv-x="1124" d="M104 1425q47 18 105 35q49 12 118.5 23.5t155.5 11.5q236 0 353.5 -103.5t117.5 -283.5q0 -84 -22.5 -144.5t-54 -102.5t-68.5 -65.5t-66 -35.5v-4q33 -10 76 -35t83 -68t67.5 -109.5t27.5 -160.5q0 -86 -28.5 -159.5t-92 -128t-166 -85t-247.5 -30.5q-92 0 -163 10 t-118 22q-55 14 -98 33q-2 33 9 64.5t34 50.5q49 -16 130 -30.5t185 -14.5q209 0 304.5 75.5t95.5 204.5q0 92 -32 148.5t-85 89.5t-121.5 44t-142.5 11h-125q-12 31 -12 65.5t12 63.5h125q66 0 127 11.5t108 42t76 85t29 140.5q0 131 -87 199.5t-247 68.5q-68 0 -126 -8 t-99 -19q-49 -10 -88 -24q-29 18 -40.5 47.5t-9.5 64.5z" />
<glyph unicode="&#x418;" horiz-adv-x="1409" d="M1036 1462q8 2 21 6q10 2 27.5 4.5t39.5 2.5q23 0 40.5 -2.5t27.5 -4.5q12 -4 20 -6v-1450q-8 -4 -18 -6q-18 -6 -57 -6q-41 0 -60 6q-10 2 -16 6v850q0 213 6 312q2 55 6 92h-6q-10 -29 -31 -74q-16 -39 -44.5 -97.5t-73.5 -142.5l-541 -940q-2 0 -24.5 -6t-67.5 -6 q-47 0 -68 6q-12 2 -20 6v1450l18 6q10 2 23.5 4.5t33.5 2.5q18 0 32.5 -2.5t25.5 -4.5l18 -6v-858q0 -92 -2 -167t-4 -128q-4 -63 -6 -112h6q6 20 20.5 55t36 80t48 96t55.5 104l534 930v0z" />
<glyph unicode="&#x419;" horiz-adv-x="1409" d="M721 1794q53 0 98 11.5t78 25.5q37 16 70 39q27 -8 45 -29.5t26 -48.5q-35 -37 -82 -63q-41 -23 -99 -42.5t-136 -19.5t-136.5 19.5t-99.5 42.5q-47 27 -82 63q10 27 29 48.5t43 29.5q33 -23 70 -39q33 -14 78 -25.5t98 -11.5zM1036 1462q8 2 21 6q10 2 27.5 4.5 t39.5 2.5q23 0 40.5 -2.5t27.5 -4.5q12 -4 20 -6v-1450q-8 -4 -18 -6q-18 -6 -57 -6q-41 0 -60 6q-10 2 -16 6v850q0 213 6 312q2 55 6 92h-6q-10 -29 -31 -74q-16 -39 -44.5 -97.5t-73.5 -142.5l-541 -940q-2 0 -24.5 -6t-67.5 -6q-47 0 -68 6q-12 2 -20 6v1450l18 6 q10 2 23.5 4.5t33.5 2.5q18 0 32.5 -2.5t25.5 -4.5l18 -6v-858q0 -92 -2 -167t-4 -128q-4 -63 -6 -112h6q6 20 20.5 55t36 80t48 96t55.5 104z" />
<glyph unicode="&#x41a;" horiz-adv-x="1255" d="M999 1462q12 4 32 8.5t46 4.5q27 0 48.5 -4.5t33.5 -8.5l-475 -680l535 -770q-10 -4 -23 -6q-23 -6 -66 -6q-41 0 -65 6q-14 2 -25 6l-481 690h-211v-690q-8 -4 -18 -6q-18 -6 -58 -6q-39 0 -57 6q-10 2 -18 6v1450q10 2 20 6q10 2 23.5 4.5t33.5 2.5q18 0 31.5 -2.5 t24.5 -4.5l18 -6v-633h209z" />
<glyph unicode="&#x41b;" horiz-adv-x="1359" d="M133 -12q-47 0 -82 14q-4 10 -8 24.5t-4 30.5q0 18 4 33.5t8 26.5q10 0 24.5 -1t33.5 1q29 2 63.5 20.5t69 88t65.5 207.5t49 380l52 662h755v-1463q-10 -4 -20 -6q-18 -6 -56 -6q-41 0 -59 6t-16 6v1340h-469l-41 -543q-14 -186 -38 -320.5t-54.5 -225.5t-65.5 -145.5 t-70.5 -83t-71.5 -37.5t-69 -9z" />
<glyph unicode="&#x41c;" horiz-adv-x="1714" d="M1321 1462q16 4 42 8.5t56 4.5q23 0 41.5 -2.5t32.5 -4.5q14 -4 27 -6v-1450q-10 -4 -21 -6q-18 -6 -55 -6q-39 0 -58 6q-10 2 -18 6v869v128t2 115.5t3 96.5t5 69h-6q-12 -41 -51 -124t-88 -177l-342 -606q-6 -2 -14 -4q-16 -4 -37 -4q-18 0 -35 4q-8 2 -12 4 q-82 152 -164 300t-164 302q-25 45 -48.5 91t-42 87t-31.5 74t-19 53h-7q10 -45 13.5 -154.5t3.5 -244.5v-879q-6 -4 -17 -6q-18 -6 -53 -6q-33 0 -51 6q-10 2 -18 6v1450l24 6q12 2 28.5 4.5t39.5 2.5q18 0 34.5 -2.5t28.5 -4.5q14 -4 29 -6l356 -651q39 -74 67.5 -135.5 t39.5 -95.5h8q4 18 21.5 57t48.5 94q102 184 201.5 365.5t199.5 365.5z" />
<glyph unicode="&#x41d;" horiz-adv-x="1388" d="M1040 1462l19 6q10 2 24.5 4.5t32.5 2.5t31.5 -2.5t23.5 -4.5q10 -4 21 -6v-1450q-8 -4 -18 -6q-18 -6 -58 -6q-41 0 -59 6q-10 2 -17 6v676h-692v-676q-10 -4 -20 -6q-18 -6 -56 -6q-41 0 -59 6q-10 2 -16 6v1450l18 6q10 2 24.5 4.5t32.5 2.5t31.5 -2.5t24.5 -4.5 q10 -4 20 -6v-639h692v639z" />
<glyph unicode="&#x41e;" horiz-adv-x="1388" d="M131 737q0 199 39 342.5t111.5 235.5t177 136t235.5 44t235.5 -44t177.5 -136t111.5 -235.5t38.5 -342.5t-38.5 -342t-111.5 -235t-177.5 -136t-235.5 -44t-235.5 44t-177 136t-111.5 235t-39 342zM1098 737q0 178 -29 299t-81 195t-127 105.5t-167 31.5t-166.5 -31.5 t-127 -105.5t-81 -195t-28.5 -299t28.5 -299t81 -194.5t127 -105.5t166.5 -32t167 32t127 105.5t81 194.5t29 299z" />
<glyph unicode="&#x41f;" horiz-adv-x="1363" d="M1167 12q-8 -4 -18 -6q-18 -6 -55 -6q-41 0 -60 6q-10 2 -18 6v1329h-668v-1329q-10 -4 -20 -6q-18 -6 -56 -6q-39 0 -57 6q-10 2 -18 6v1463h970v-1463z" />
<glyph unicode="&#x420;" horiz-adv-x="1232" d="M348 12q-8 -4 -18 -6q-18 -6 -56 -6q-41 0 -59 6q-10 2 -18 6v1463h518q98 0 177 -32t133 -89.5t84 -138t30 -179.5q0 -98 -30 -178t-84 -138t-133 -90t-177 -32h-367v-586zM700 729q135 0 207 82t72 223q0 147 -71.5 229.5t-207.5 82.5h-352v-617h352z" />
<glyph unicode="&#x421;" horiz-adv-x="1146" d="M133 737q0 377 143.5 567.5t430.5 190.5q84 0 148.5 -11t107.5 -24q51 -14 88 -33q2 -39 -11.5 -65.5t-35.5 -48.5q-37 14 -80 24q-37 10 -88.5 18.5t-112.5 8.5q-96 0 -175 -29.5t-136.5 -101.5t-88 -192.5t-30.5 -305.5q0 -184 30.5 -304t88 -190.5t136.5 -98 t175 -27.5q68 0 123 7t96 17q47 10 84 27q23 -23 34 -52.5t13 -64.5q-41 -20 -94 -35q-47 -14 -114.5 -24t-157.5 -10q-574 -1 -574 757z" />
<glyph unicode="&#x422;" horiz-adv-x="1103" d="M1032 1475q2 -10 6 -19q2 -10 4 -20.5t2 -26.5t-2 -27.5t-4 -21.5l-6 -19h-399v-1329q-10 -4 -21 -6q-18 -6 -55 -6q-39 0 -57 6q-10 2 -19 6v1329h-409q-4 8 -6 19q-6 18 -7 49q0 29 7 47q2 10 6 19h960z" />
<glyph unicode="&#x423;" horiz-adv-x="1247" d="M1067 1468q10 2 23.5 4.5t33.5 2.5q16 0 30.5 -2.5t25.5 -4.5q10 -4 20 -6l-414 -1067q-49 -129 -100 -207.5t-103.5 -119.5t-106.5 -54.5t-109 -13.5q-27 0 -47.5 2t-36.5 6q-18 4 -33 8q-2 4 -6 21.5t-4 42.5q0 23 3 39t5 20q12 -2 28 -4q12 -2 29 -2h33q37 0 71.5 6 t68.5 28.5t67 65.5t65 117h-35l-532 1112q8 2 20 6q10 2 25.5 4.5t38.5 2.5t38 -2.5t25 -4.5q12 -4 21 -6l399 -833q25 -53 38.5 -93t17.5 -51h6q4 10 17 51.5t36 98.5l324 827z" />
<glyph unicode="&#x424;" horiz-adv-x="1632" d="M739 1487l19 6q10 2 23.5 4t31.5 2t32.5 -2t24.5 -4q10 -4 21 -6v-152q135 0 253 -26.5t204 -91t135 -174t49 -273.5t-49 -273.5t-135 -175t-204 -92t-253 -26.5v-191q-10 -4 -21 -6q-18 -6 -55 -6q-41 0 -59 6q-10 2 -17 6v191q-135 0 -251.5 26.5t-202.5 92t-135.5 175 t-49.5 273.5t49.5 273.5t135.5 174t202.5 91t251.5 26.5v152zM739 1214q-104 0 -193 -19t-153.5 -69.5t-101.5 -136.5t-37 -219q0 -135 37 -221t101.5 -136.5t153.5 -69.5t193 -19v890zM891 324q104 0 193.5 19t154 69.5t101 137.5t36.5 220q0 135 -36.5 221t-101 135.5 t-154 68.5t-193.5 19v-890z" />
<glyph unicode="&#x425;" horiz-adv-x="1251" d="M1008 1462q12 4 32.5 8.5t49.5 4.5t50 -4.5t34 -8.5l-451 -694l477 -754q-10 -4 -22 -8q-23 -6 -66 -6q-45 0 -65 6q-12 2 -23 6l-406 639l-403 -641q-10 -4 -30.5 -7t-49.5 -3t-51.5 3t-36.5 7l475 752l-442 700q10 2 22 6q10 2 27.5 4.5t40.5 2.5q20 0 36.5 -2.5 t26.5 -4.5q12 -4 23 -6l373 -585l379 585v0z" />
<glyph unicode="&#x426;" horiz-adv-x="1431" d="M197 1462l18 6q10 2 23.5 4.5t33.5 2.5q18 0 31.5 -2.5t24.5 -4.5q10 -4 20 -6v-1329h680v1329l19 6q10 2 23 4.5t34 2.5q18 0 31.5 -2.5t23.5 -4.5q10 -4 21 -6v-1329h157v-416q-31 -12 -69 -12q-37 0 -70 12v283h-1001v1462z" />
<glyph unicode="&#x427;" horiz-adv-x="1300" d="M952 1462l19 6q10 2 24.5 4.5t32.5 2.5t31.5 -2.5t23.5 -4.5q10 -4 21 -6v-1450q-10 -4 -21 -6q-18 -6 -55 -6q-39 0 -57 6q-10 2 -19 6v652q-10 -4 -41.5 -15.5t-80 -24t-113 -21.5t-137.5 -9q-104 0 -188.5 22.5t-145 77t-93 145.5t-32.5 226v397l18 6q10 2 24.5 4.5 t33.5 2.5q18 0 31.5 -2.5t23.5 -4.5q10 -4 20 -6v-397q0 -96 20.5 -161.5t61.5 -104.5t103.5 -55.5t146.5 -16.5q70 0 130.5 9t105.5 21.5t73.5 25t38.5 16.5v663z" />
<glyph unicode="&#x428;" horiz-adv-x="1953" d="M197 1462l18 6q10 2 23.5 4.5t33.5 2.5q18 0 32.5 -2.5t25.5 -4.5l18 -6v-1329h553v1329q6 2 17 6q10 2 23 4.5t36 2.5q20 0 33.5 -2.5t23.5 -4.5l19 -6v-1329h553v1329q6 2 16 6q10 2 23.5 4.5t35.5 2.5q18 0 33 -2.5t25 -4.5l18 -6v-1462h-1560v1462z" />
<glyph unicode="&#x429;" horiz-adv-x="2009" d="M197 1462l18 6q10 2 23.5 4.5t33.5 2.5q18 0 31.5 -2.5t24.5 -4.5q10 -4 20 -6v-1329h553v1329l19 6q10 2 23 4.5t34 2.5q18 0 32.5 -2.5t24.5 -4.5l19 -6v-1329h553v1329l18 6q10 2 23.5 4.5t33.5 2.5q18 0 31.5 -2.5t24.5 -4.5q10 -4 20 -6v-1329h158v-416 q-16 -8 -32.5 -10t-37.5 -2q-37 0 -69 12v283h-1579v1462z" />
<glyph unicode="&#x42a;" horiz-adv-x="1441" d="M920 850q98 0 177 -31t134 -86t86 -133t31 -172q0 -96 -31 -175t-86 -135.5t-134 -87t-177 -30.5h-539v1341h-315q-4 6 -7 17q-6 14 -6 49q0 31 6 49q2 10 7 19h466v-625h388zM532 129h367q141 0 215 80t74 217t-74 216t-215 79h-367v-592z" />
<glyph unicode="&#x42b;" horiz-adv-x="1771" d="M215 1468q10 2 23.5 4.5t35.5 2.5q18 0 31.5 -2.5t24.5 -4.5l18 -6v-612h387q98 0 177 -31t134.5 -86t86 -133t30.5 -172q0 -96 -30.5 -175t-86 -135.5t-134 -87t-177.5 -30.5h-538v1462zM1442 1468q10 2 23.5 4.5t33.5 2.5q18 0 32.5 -2.5t24.5 -4.5l19 -6v-1450 q-8 -4 -19 -6q-18 -6 -57 -6t-57 6q-10 2 -19 6v1450zM348 129h367q141 0 215 80t74 217t-74 216t-215 79h-367v-592z" />
<glyph unicode="&#x42c;" horiz-adv-x="1257" d="M735 850q98 0 177 -31t134.5 -86t86 -133t30.5 -172q0 -96 -30.5 -175t-86 -135.5t-134 -87t-177.5 -30.5h-538v1462l18 6q10 2 23.5 4.5t35.5 2.5q18 0 31.5 -2.5t24.5 -4.5l18 -6v-612h387zM715 129q141 0 215 80t74 217t-74 216t-215 79h-367v-592h367z" />
<glyph unicode="&#x42d;" horiz-adv-x="1191" d="M102 1427q41 18 95 33q47 12 114.5 23.5t157.5 11.5q295 0 443.5 -190.5t148.5 -567.5q0 -381 -149.5 -569t-442.5 -188q-94 0 -167 10t-122 24q-57 14 -100 35q2 35 13 64.5t34 50.5q39 -16 90 -27q43 -10 102.5 -17t131.5 -7q96 0 177 26.5t140 92t94 176t39 278.5 h-559q-4 8 -6 16q-6 14 -6 48q0 31 6 47q2 8 6 16h557q-6 160 -42 265.5t-95.5 169t-138 90t-172.5 26.5q-66 0 -120.5 -7t-94.5 -18q-47 -10 -86 -24q-25 23 -36.5 52t-11.5 60z" />
<glyph unicode="&#x42e;" horiz-adv-x="1943" d="M197 1462l18 6q10 2 23.5 4.5t31.5 2.5t32.5 -2.5t25.5 -4.5q10 -4 20 -6v-661h338q12 360 159.5 527t401.5 167q131 0 236.5 -44t177.5 -136t110.5 -235.5t38.5 -342.5t-38.5 -342t-110.5 -235t-177.5 -136t-236.5 -44q-127 0 -228 39.5t-173 124.5t-113 216.5 t-47 313.5h-338v-662q-10 -4 -20 -6q-18 -6 -56 -6q-39 0 -57 6q-10 2 -18 6v1450zM1247 1368q-92 0 -166.5 -31.5t-127 -105.5t-81 -195t-28.5 -299t28.5 -299t81 -194.5t127 -105.5t166.5 -32q94 0 169 32t127 105.5t80 194.5t28 299t-28 299t-80 195t-127 105.5 t-169 31.5z" />
<glyph unicode="&#x42f;" horiz-adv-x="1275" d="M1079 12q-6 -4 -16 -6q-18 -6 -59 -6q-39 0 -58 6q-10 2 -18 6v604h-330l-330 -604q-10 -4 -22 -6q-23 -6 -66 -6t-63 6q-12 2 -23 6l342 621q-141 35 -219 144.5t-78 269.5q0 96 30 174.5t84 135t133 87.5t177 31h516v-1463zM575 1346q-131 0 -204.5 -79t-73.5 -220 q0 -143 73.5 -221t204.5 -78h353v598h-353z" />
<glyph unicode="&#x430;" horiz-adv-x="1054" d="M176 1028q47 18 103 35q47 12 110.5 23.5t136.5 11.5q111 0 182.5 -27t113.5 -79t58.5 -129t16.5 -179v-674q-6 -4 -14 -6t-18.5 -3t-26.5 -1q-23 0 -43 4q-8 2 -17 6l-22 154q-43 -90 -132 -137t-212 -47q-143 0 -230.5 83.5t-87.5 243.5q0 158 96.5 239t290.5 81 q86 0 158 -6.5t111 -10.5v115q0 129 -56.5 187.5t-185.5 58.5q-59 0 -109.5 -8.5t-91.5 -18.5q-47 -10 -86 -24q-4 2 -14 12t-21 33q-10 23 -10 41v22zM750 504q-35 4 -105 10t-143 6q-254 0 -254 -213q0 -111 56 -160t155 -49q68 0 122 24.5t91 67.5t57.5 102.5t20.5 129.5 v82z" />
<glyph unicode="&#x431;" horiz-adv-x="1167" d="M143 719q0 229 37 364.5t116 213t199.5 114.5t286.5 68q29 6 47.5 10t31.5 12t23.5 19.5t22.5 29.5q33 -4 59.5 -17t41.5 -36q-18 -70 -60.5 -102.5t-130.5 -46.5q-145 -29 -247.5 -55.5t-168 -77t-100.5 -137.5t-45 -234h8q39 92 126 150.5t233 58.5q98 0 177 -31 t134 -95.5t86 -166t31 -244.5t-31 -244.5t-88.5 -166t-139 -95t-186.5 -30.5q-100 0 -185 28.5t-146.5 110.5t-96.5 225.5t-35 374.5zM606 936q-61 0 -114.5 -18.5t-92.5 -65.5t-61.5 -128t-22.5 -208q0 -125 21.5 -206t60.5 -129t92.5 -66.5t116.5 -18.5t116.5 18.5 t92.5 66.5t60.5 129t21.5 206t-21.5 206t-60.5 128t-92.5 66.5t-116.5 19.5z" />
<glyph unicode="&#x432;" horiz-adv-x="1054" d="M606 1077q137 0 217 -72.5t80 -207.5q0 -88 -34.5 -148.5t-98.5 -93.5q86 -31 130 -98.5t44 -161.5q0 -141 -85 -218t-241 -77h-454v1077h442zM571 600q92 0 139.5 49t47.5 135q0 180 -187 181h-260v-365h260zM590 113q201 0 201 184q0 90 -48.5 141t-152.5 51h-279v-376 h279z" />
<glyph unicode="&#x433;" horiz-adv-x="825" d="M764 1077q2 -8 6 -16q2 -8 4 -20.5t2 -26.5t-2 -25.5t-4 -19.5q-4 -8 -6 -17h-453v-942q-8 -4 -18 -6t-23.5 -3t-31.5 -1q-20 0 -32.5 1t-23.5 3q-10 2 -18 6v1067h600z" />
<glyph unicode="&#x434;" horiz-adv-x="1175" d="M137 115q20 20 40 55t35 90t27.5 135t20.5 195l39 487h664v-962h129v-367q-10 -4 -25.5 -7t-38.5 -3q-25 0 -43 3t-31 7v252h-766v-252q-10 -4 -27.5 -7t-39.5 -3q-25 0 -42.5 3t-25.5 7v367h84zM395 582q-6 -92 -16 -164t-22.5 -127t-27 -98t-30.5 -78h516v843h-391z " />
<glyph unicode="&#x435;" horiz-adv-x="1048" d="M268 492q6 -104 27.5 -177t61.5 -118t97.5 -65.5t131.5 -20.5q59 0 104 10t80 22q37 14 70 35q23 -16 35 -46t14 -62q-35 -25 -84 -45q-41 -16 -103.5 -30.5t-144.5 -14.5q-223 0 -332.5 142t-109.5 423q0 145 31.5 249.5t90 172t139.5 99.5t179 32q186 0 287.5 -105.5 t101.5 -292.5q0 -47 -4 -84.5t-8 -66.5q-6 -33 -10 -57h-654zM795 719q0 51 -12.5 98t-41 83t-74.5 56.5t-112 20.5q-123 0 -199.5 -87t-87.5 -288h518q2 8 5.5 39t3.5 78z" />
<glyph unicode="&#x436;" horiz-adv-x="1568" d="M1327 1067q8 2 21 4q10 2 24 4t35 2q16 0 30.5 -2t24.5 -4t19 -4l-303 -494l352 -561q-8 -4 -21 -6q-23 -6 -63 -6q-41 0 -62 6q-12 2 -22 6l-311 492h-191v-494q-8 -4 -18 -6t-24.5 -3t-31.5 -1q-18 0 -31.5 1t-23.5 3t-18 6v494h-193l-311 -492q-10 -4 -23 -6 q-23 -6 -61 -6q-43 0 -64 6q-12 2 -20 6l354 561l-305 494q8 2 21 4q10 2 24.5 4t32.5 2t32.5 -2t24.5 -4t21 -4l274 -446h193v446q8 2 18 4t23.5 4t31.5 2q16 0 29.5 -2t24.5 -4l20 -4v-446h193l274 446v0z" />
<glyph unicode="&#x437;" horiz-adv-x="935" d="M104 1049q31 14 76 24q39 10 98.5 17.5t139.5 7.5q201 0 288 -80t87 -217q0 -92 -36 -155.5t-114 -94.5v-4q90 -29 134 -95.5t44 -158.5q0 -68 -20.5 -125t-70.5 -99t-133 -65.5t-208 -23.5q-76 0 -133 9t-98 19q-47 12 -82 31q0 63 43 104q31 -12 69 -20 q35 -8 84.5 -14.5t110.5 -6.5q152 0 219.5 49.5t67.5 149.5q0 98 -69 143t-198 45h-129q-4 8 -6 17q-4 20 -4 43q0 12 1 21.5t3 17.5t6 16h129q109 0 173.5 41t64.5 146q0 98 -61.5 143t-190.5 45q-55 0 -100 -6t-78 -12q-37 -8 -68 -17q-20 16 -29.5 44t-9.5 61z" />
<glyph unicode="&#x438;" horiz-adv-x="1181" d="M862 1067q10 2 21 4q10 2 23.5 4t33.5 2q18 0 32.5 -2t24.5 -4t21 -4v-1057q-8 -4 -19 -6q-10 -2 -24 -3t-31 -1q-16 0 -30.5 1t-24.5 3q-12 2 -21 6v584q0 129 3 206t6 79h-7q2 0 -9 -22.5t-30.5 -57.5t-45 -78t-52.5 -86l-414 -625q-8 -4 -20 -6q-10 -2 -25.5 -3 t-33.5 -1t-32.5 1t-25.5 3q-10 2 -18 6v1057q8 2 18 4t23.5 4t32.5 2q18 0 31.5 -2t23.5 -4t18 -4v-592q0 -53 -1 -102t-2 -87t-3 -62l-2 -25h4q10 23 25 49q12 23 28.5 51.5t38.5 62.5l463 705v0z" />
<glyph unicode="&#x439;" horiz-adv-x="1181" d="M592 1391q51 0 93 11t71 25q35 16 59 39q51 -18 68 -73q-29 -35 -72 -62q-37 -23 -92 -42t-127 -19t-126 19.5t-91 41.5q-43 27 -74 62q8 25 24.5 44t43.5 29q25 -23 59 -39q29 -14 70 -25t94 -11zM862 1067q10 2 21 4q10 2 23.5 4t33.5 2q18 0 32.5 -2t24.5 -4t21 -4 v-1057q-8 -4 -19 -6q-10 -2 -24 -3t-31 -1q-16 0 -30.5 1t-24.5 3q-12 2 -21 6v584q0 129 3 204.5t6 80.5h-7q-12 -27 -26 -54q-12 -25 -28.5 -54.5t-39.5 -63.5l-457 -697q-8 -4 -20 -6q-10 -2 -25.5 -3t-33.5 -1t-32.5 1t-25.5 3q-10 2 -18 6v1057q8 2 18 4t23.5 4t32.5 2 q18 0 31.5 -2t23.5 -4t18 -4v-592q0 -53 -1 -103t-2 -88t-3 -62l-2 -23h4q10 23 25 49q12 23 28.5 51.5t38.5 62.5z" />
<glyph unicode="&#x43a;" horiz-adv-x="1021" d="M784 1067q8 2 21 4q10 2 25.5 4t33.5 2q16 0 29.5 -2t24.5 -4l20 -4l-332 -494l379 -561q-10 -4 -22 -6q-23 -6 -64 -6t-61 6q-12 2 -21 6l-336 492h-170v-494q-8 -4 -18 -6t-23.5 -3t-29.5 -1q-18 0 -32.5 1t-25.5 3q-10 2 -18 6v1057q8 2 18 4t24.5 4t33.5 2 q16 0 29.5 -2t23.5 -4t18 -4v-446h172z" />
<glyph unicode="&#x43b;" horiz-adv-x="1130" d="M418 594q-18 -201 -46 -319.5t-66 -183t-83 -84t-96 -19.5q-33 0 -53 6q-12 2 -23 6q-4 4 -6 12q-4 16 -4 39q0 18 4 39q2 8 6 16q8 -2 19 -2q16 -4 43 0q31 2 56.5 29t47 85t38.5 152.5t28 231.5l36 475h648v-1067q-10 -4 -21 -6q-10 -2 -22.5 -3t-28.5 -1 q-18 0 -32.5 1t-24.5 3t-19 6v948h-373l-28 -364v0z" />
<glyph unicode="&#x43c;" horiz-adv-x="1370" d="M1042 1067q10 2 23 4q10 2 25.5 4t35.5 2q16 0 32 -2t26 -4q12 -2 22 -4v-1057q-6 -4 -16 -6t-23.5 -3t-29.5 -1q-18 0 -31.5 1t-24.5 3q-10 2 -18 6v625q0 104 5 165.5t7 78.5h-6q-6 -14 -23.5 -54.5t-54.5 -105.5l-276 -471q-4 -2 -10 -4q-12 -4 -29 -4q-16 0 -29 4 q-6 2 -10 4l-262 461q-39 70 -57.5 111.5t-24.5 58.5h-6q4 -16 9 -79t5 -167v-623q-8 -4 -18 -6t-22.5 -3t-29.5 -1q-16 0 -27 1t-22 3q-10 2 -18 6v1057q10 2 22 4q10 2 25.5 4t34.5 2q18 0 33.5 -2t25.5 -4q12 -2 21 -4l286 -512q23 -41 38.5 -73.5t25.5 -57.5h6 q10 25 25.5 57.5t37.5 73.5l297 512v0z" />
<glyph unicode="&#x43d;" horiz-adv-x="1146" d="M311 10q-8 -4 -18 -6t-23.5 -3t-31.5 -1t-31.5 1t-24.5 3q-10 2 -18 6v1057q8 2 18 4t23.5 4t32.5 2q18 0 31.5 -2t23.5 -4t18 -4v-451h525v451q8 2 18 4t23.5 4t31.5 2t31.5 -2t24.5 -4q10 -2 18 -4v-1057q-8 -4 -18 -6t-24.5 -3t-33.5 -1q-18 0 -30.5 1t-22.5 3t-18 6 v484h-525v-484z" />
<glyph unicode="&#x43e;" horiz-adv-x="1110" d="M117 539q0 152 29.5 258t86 172.5t138.5 97.5t184 31t184 -31t138.5 -97.5t86 -173t29.5 -257.5q0 -152 -29.5 -258.5t-86 -173t-138.5 -97t-184 -30.5t-184 30.5t-138.5 97t-86 173t-29.5 258.5zM842 539q0 129 -20.5 214t-57.5 135t-90 71.5t-119 21.5t-119 -21.5 t-90 -71.5t-57.5 -135t-20.5 -214t20.5 -214t57.5 -135.5t90 -72t119 -21.5t119 21.5t90 72t57.5 135.5t20.5 214z" />
<glyph unicode="&#x43f;" horiz-adv-x="1124" d="M311 10q-8 -4 -18 -6t-24.5 -3t-30.5 -1q-18 0 -31.5 1t-24.5 3q-10 2 -18 6v1067h797v-1067q-8 -4 -19 -6q-10 -2 -23.5 -3t-31.5 -1q-16 0 -29.5 1t-23.5 3t-21 6v942h-502v-942z" />
<glyph unicode="&#x440;" d="M311 938q45 76 121 118t195 42q90 0 162.5 -29t124 -94.5t79 -173t27.5 -262.5q0 -158 -27.5 -264.5t-79 -172t-124 -94t-162.5 -28.5q-119 0 -195 41.5t-121 117.5v-618q-8 -4 -18 -6t-23.5 -3t-31.5 -1q-20 0 -32.5 1t-23.5 3q-10 2 -18 6v1546q8 2 18 4t22.5 4t33.5 2 q18 0 31.5 -2t23.5 -4t18 -4v-129zM866 539q0 121 -17.5 203.5t-52 134t-89 74t-129.5 22.5q-66 0 -115 -25.5t-83 -67.5t-51.5 -95.5t-17.5 -110.5v-264q0 -57 17.5 -111.5t51.5 -97.5t83 -70t115 -27q76 0 130 23t88.5 74t52 134t17.5 204z" />
<glyph unicode="&#x441;" horiz-adv-x="913" d="M582 973q-166 0 -240 -107.5t-74 -326.5q0 -221 78 -324.5t244 -103.5q45 0 81 5t62 13q31 8 55 21q23 -16 34.5 -46t13.5 -63q-29 -18 -70 -31q-35 -12 -88 -21t-123 -9q-217 0 -328.5 142t-111.5 417q0 274 111.5 416.5t328.5 142.5q66 0 115 -7.5t82 -17.5 q37 -10 61 -24q0 -33 -11 -62t-34 -49q-23 8 -51 16q-25 6 -58.5 12.5t-76.5 6.5z" />
<glyph unicode="&#x442;" horiz-adv-x="911" d="M850 1077q2 -8 6 -16q2 -8 4 -19.5t2 -27.5t-2 -27.5t-4 -19.5q-4 -8 -6 -17h-320v-940q-8 -4 -18 -6t-23.5 -3t-31.5 -1q-20 0 -33.5 1t-24.5 3q-10 2 -16 6v940h-320q-4 8 -8 17q-6 14 -6 47q0 31 6 47l8 16h787z" />
<glyph unicode="&#x443;" horiz-adv-x="1071" d="M584 -199q-25 -74 -51.5 -132t-62.5 -98t-85 -61.5t-119 -21.5q-23 0 -42 2t-34 6q-16 4 -28 8q-2 4 -7 19.5t-5 38.5t5 40t9 21q10 -4 24 -6q12 -2 28.5 -3t35.5 -1q33 0 59.5 9t49 32.5t44 65.5t44.5 110l61 172q-23 0 -49 10l-410 1055q10 2 21 4q10 2 23.5 4t33.5 2 q18 0 32.5 -2t24.5 -4t21 -4l276 -702q18 -47 31.5 -88t24.5 -70q10 -35 18 -62h6q8 27 17 62q16 63 49 158l241 702q8 2 19 4q10 2 22.5 4t32.5 2q16 0 30.5 -2t24.5 -4t19 -4z" />
<glyph unicode="&#x444;" horiz-adv-x="1591" d="M723 1526q6 2 16 4t23.5 4t34.5 2q18 0 31.5 -2t23.5 -4t18 -4v-471q29 14 64 22q29 8 69.5 14.5t92.5 6.5q205 -2 291 -144.5t86 -414.5q0 -274 -86.5 -416.5t-290.5 -142.5q-53 0 -95.5 7t-70.5 17q-35 10 -60 25v-531q-8 -4 -18 -6t-23.5 -3t-31.5 -1q-20 0 -33.5 1 t-24.5 3q-10 2 -16 6v531q-27 -14 -61 -25q-29 -10 -71 -17t-95 -7q-205 0 -291 142t-86 417q0 274 86 416.5t291 142.5q49 0 91 -7.5t72 -15.5q37 -8 64 -20v471zM727 934l-15 6q-14 6 -39.5 15.5t-64.5 16.5t-88 7q-137 0 -194.5 -105.5t-57.5 -334.5t57.5 -334 t194.5 -105q47 0 84 8.5t66 18.5q33 10 57 27v780zM1325 539q0 229 -57.5 334.5t-194.5 105.5q-49 0 -88 -7t-65.5 -16.5t-41.5 -15.5l-14 -6v-780q25 -16 58 -27q29 -10 66.5 -18.5t84.5 -8.5q137 0 194.5 105t57.5 334z" />
<glyph unicode="&#x445;" horiz-adv-x="1011" d="M63 1067q8 2 21 4q10 2 25.5 4t35.5 2t37 -2t27 -4q12 -2 20 -4l285 -410l281 410q8 2 18 4t22.5 4t32.5 2q18 0 34 -2t26 -4q12 -2 20 -4l-356 -514l373 -543q-8 -4 -21 -6q-10 -2 -25.5 -3t-35.5 -1q-23 0 -38.5 1t-25.5 3q-12 2 -20 6l-301 434l-297 -434 q-8 -4 -19 -6q-10 -2 -24.5 -3t-34.5 -1q-18 0 -32.5 1t-24.5 3t-19 6l371 539z" />
<glyph unicode="&#x446;" horiz-adv-x="1175" d="M815 1067q8 2 19 4q10 2 23 4t32 2q16 0 30.5 -2t24.5 -4t19 -4v-942h129v-377q-10 -4 -26.5 -7t-39.5 -3q-25 0 -42 3t-28 7v252h-792v1067q8 2 18 4t22.5 4t31.5 2q20 0 33.5 -2t23.5 -4t18 -4v-942h504v942v0z" />
<glyph unicode="&#x447;" horiz-adv-x="1069" d="M905 10q-8 -4 -18 -6t-24.5 -3t-33.5 -1q-18 0 -31.5 1t-23.5 3t-16 6v451q-23 -12 -90.5 -35t-184.5 -23q-193 0 -285 84t-92 252v328q8 2 19 4q10 2 23.5 4t31.5 2q16 0 30.5 -2t25.5 -4q10 -2 18 -4v-330q0 -111 57.5 -162t188.5 -51q102 0 168.5 24.5t89.5 39.5v479 q6 2 16 4t23.5 4t31.5 2t33 -2t25 -4t18 -4v-1057z" />
<glyph unicode="&#x448;" horiz-adv-x="1589" d="M164 1067q6 2 16 4t23.5 4t34.5 2q18 0 31.5 -2t23.5 -4t18 -4v-942h410v942q6 2 16 4t22.5 4t33.5 2q18 0 32.5 -2t24.5 -4t18 -4v-942h410v942q6 2 16 4t23.5 4t34.5 2q18 0 31.5 -2t23.5 -4t18 -4v-1067h-1261v1067z" />
<glyph unicode="&#x449;" horiz-adv-x="1638" d="M1554 -252q-10 -4 -26.5 -7t-40.5 -3q-25 0 -41 3t-27 7v252h-1255v1067q6 2 16 4t23.5 4t34.5 2q18 0 31.5 -2t23.5 -4t18 -4v-942h410v942q6 2 16 4t22.5 4t33.5 2q18 0 32.5 -2t24.5 -4t18 -4v-942h410v942q6 2 16 4t23.5 4t34.5 2q18 0 31.5 -2t23.5 -4t18 -4v-942 h129v-377z" />
<glyph unicode="&#x44a;" horiz-adv-x="1173" d="M766 629q152 0 235.5 -87t83.5 -229q0 -141 -83.5 -227t-235.5 -86h-461v950h-239q-14 25 -15 66q0 39 15 61h387v-448h313zM739 113q98 0 146.5 52t48.5 148q0 94 -48 148.5t-147 54.5h-286v-403h286z" />
<glyph unicode="&#x44b;" horiz-adv-x="1468" d="M164 1067q12 4 31.5 7t42.5 3q25 0 44 -3t29 -7v-438h314q152 0 235.5 -87t83.5 -229q0 -141 -84 -227t-235 -86h-461v1067zM1157 1067q12 4 30.5 7t43.5 3q27 0 45 -3t29 -7v-1057q-10 -4 -29 -7t-45 -3q-25 0 -43.5 3t-30.5 7v1057zM311 113h287q98 0 146.5 52 t48.5 148q0 94 -48.5 148.5t-146.5 54.5h-287v-403z" />
<glyph unicode="&#x44c;" horiz-adv-x="1032" d="M625 629q152 0 235.5 -87t83.5 -229q0 -141 -84 -227t-235 -86h-461v1067q12 4 31.5 7t42.5 3q25 0 44 -3t29 -7v-438h314zM598 113q98 0 146.5 52t48.5 148q0 94 -48.5 148.5t-146.5 54.5h-287v-403h287z" />
<glyph unicode="&#x44d;" horiz-adv-x="931" d="M248 485q-2 4 -6 18.5t-4 41.5q0 23 4 38t6 19h414q-18 377 -318 377q-45 0 -82 -5t-63 -11q-33 -8 -58 -17q-41 37 -41 103q29 14 68 24q35 10 86 17.5t119 7.5q217 0 330.5 -142.5t113.5 -416.5t-114.5 -416.5t-331.5 -142.5q-72 0 -126.5 9t-90.5 21q-43 12 -76 31 q4 68 45 102q27 -12 61 -20q29 -8 67 -13.5t85 -5.5q313 0 328 381h-416z" />
<glyph unicode="&#x44e;" horiz-adv-x="1595" d="M594 594q6 135 38 231.5t89 156.5t136 88t177 28q104 0 187.5 -31t139.5 -97.5t87 -173t31 -257.5q0 -152 -31 -258.5t-88 -173t-139 -97t-187 -30.5q-96 0 -175 26.5t-135 85t-90 150.5t-40 225h-283v-457q-10 -4 -28.5 -7t-44.5 -3q-25 0 -43.5 3t-30.5 7v1057 q12 4 30.5 7t43.5 3q27 0 45 -3t28 -7v-473h283zM1325 539q0 129 -20.5 214t-58.5 135t-91 71.5t-121 21.5q-66 0 -120 -21.5t-92 -71.5t-58.5 -135t-20.5 -214t20.5 -214t58.5 -135.5t92.5 -72t119.5 -21.5q68 0 121 21.5t91 72t58.5 135.5t20.5 214z" />
<glyph unicode="&#x44f;" horiz-adv-x="1067" d="M252 10q-12 -4 -33.5 -7t-54.5 -3q-29 0 -48.5 3t-31.5 7l250 445q-98 33 -150.5 110.5t-52.5 188.5q0 145 88 234t252 89h432v-1067q-12 -4 -30.5 -7t-43.5 -3q-27 0 -45 3t-28 7v422h-273zM498 965q-111 0 -163 -56.5t-52 -154.5q0 -92 52 -150.5t163 -58.5h258v420 h-258z" />
<glyph unicode="&#x451;" horiz-adv-x="1046" d="M313 1436q8 2 19 4q10 2 23.5 4t33.5 2q18 0 31.5 -2t23.5 -4t21 -4v-136q-10 -2 -21 -4q-10 -2 -23 -3t-32 -1q-20 0 -33.5 1t-23.5 3t-19 4v136zM637 1436q8 2 18 4t23.5 4t34.5 2q18 0 31.5 -2t23.5 -4l20 -4v-136l-20 -4t-23.5 -3t-31.5 -1q-20 0 -33.5 1t-24.5 3 q-10 2 -18 4v136zM115 545q0 145 31.5 249.5t90 172t139.5 99.5t179 32q186 0 287.5 -105.5t101.5 -292.5q0 -47 -4 -84.5t-8 -66.5q-6 -33 -10 -57h-654q10 -211 89 -299.5t229 -88.5q59 0 104 10.5t80 22.5q37 14 70 35q20 -16 32.5 -44t16.5 -58q-35 -25 -84 -45 q-41 -16 -102.5 -30.5t-145.5 -14.5q-223 0 -332.5 142t-109.5 423zM795 719q0 51 -12.5 98t-41 83t-74.5 56.5t-112 20.5q-123 0 -199.5 -87t-87.5 -288h518q2 8 5.5 39t3.5 78z" />
<glyph unicode="&#x1e80;" horiz-adv-x="1959" d="M745 1829q16 27 55.5 45t76.5 14l202 -284q-25 -43 -88 -50zM1034 1049q-16 59 -25.5 106t-13.5 78q-6 37 -6 63h-6q-2 -27 -8 -63q-4 -31 -13.5 -78t-23.5 -106l-287 -1037q-14 -4 -38.5 -8t-51.5 -4q-29 0 -50.5 4t-33.5 8l-420 1450l19 6q10 2 23.5 4.5t33.5 2.5 t34.5 -2.5t25.5 -4.5l18 -6l305 -1046q12 -47 22.5 -90t16.5 -76q8 -37 14 -72h6q2 35 11 72q10 66 35 164l292 1048l19 6q10 2 23.5 4.5t33.5 2.5t34.5 -2.5t25.5 -4.5l18 -6l291 -1046q12 -49 20 -92t13 -76q6 -37 10 -70h6q2 31 10 68q6 33 15.5 74.5t25.5 93.5l297 1048 l19 6q10 2 22 4.5t29 2.5q16 0 29.5 -2.5t23.5 -4.5l18 -6l-409 -1450q-10 -4 -23 -6q-23 -6 -59 -6q-41 0 -62 6q-14 2 -24 6z" />
<glyph unicode="&#x1e81;" horiz-adv-x="1626" d="M551 1528q16 27 55 45t76 14l213 -295q-27 -43 -88 -49zM881 639q-35 119 -47.5 181.5t-14.5 90.5h-6q-4 -29 -16.5 -92t-51.5 -180l-198 -629q-14 -4 -33.5 -7t-44.5 -3q-27 0 -46.5 3t-35.5 7l-328 1057q8 2 19 4q10 2 23.5 4t31.5 2t31.5 -2t21.5 -4t15 -4l225 -717 q23 -72 30 -119t11 -67h6l13.5 67.5t31.5 118.5l225 717q10 2 23 4q10 2 24.5 4t30.5 2q18 0 31.5 -2t24.5 -4q10 -2 18 -4l221 -713q23 -74 30 -122t11 -68h6q4 20 14.5 66t32.5 122l224 715q8 2 18 4t21.5 4t27.5 2t29.5 -2t21.5 -4t15 -4l-328 -1057q-16 -4 -35.5 -7 t-44.5 -3t-44 3t-36 7z" />
<glyph unicode="&#x1e82;" horiz-adv-x="1959" d="M922 1556q-63 10 -88 50l204 286q39 4 77 -13t54 -46zM1034 1049q-16 59 -25.5 106t-13.5 78q-6 37 -6 63h-6q-2 -27 -8 -63q-4 -31 -13.5 -78t-23.5 -106l-287 -1037q-14 -4 -38.5 -8t-51.5 -4q-29 0 -50.5 4t-33.5 8l-420 1450l19 6q10 2 23.5 4.5t33.5 2.5t34.5 -2.5 t25.5 -4.5l18 -6l305 -1046q12 -47 22.5 -90t16.5 -76q8 -37 14 -72h6q2 35 11 72q10 66 35 164l292 1048l19 6q10 2 23.5 4.5t33.5 2.5t34.5 -2.5t25.5 -4.5l18 -6l291 -1046q12 -49 20 -92t13 -76q6 -37 10 -70h6q2 31 10 68q6 33 15.5 74.5t25.5 93.5l297 1048l19 6 q10 2 22 4.5t29 2.5q16 0 29.5 -2.5t23.5 -4.5l18 -6l-409 -1450q-10 -4 -23 -6q-23 -6 -59 -6q-41 0 -62 6q-14 2 -24 6z" />
<glyph unicode="&#x1e83;" horiz-adv-x="1626" d="M731 1243q-63 6 -88 49l213 295q39 4 77 -13.5t54 -45.5zM881 639q-35 119 -47.5 181.5t-14.5 90.5h-6q-4 -29 -16.5 -92t-51.5 -180l-198 -629q-14 -4 -33.5 -7t-44.5 -3q-27 0 -46.5 3t-35.5 7l-328 1057q8 2 19 4q10 2 23.5 4t31.5 2t31.5 -2t21.5 -4t15 -4l225 -717 q23 -72 30 -119t11 -67h6l13.5 67.5t31.5 118.5l225 717q10 2 23 4q10 2 24.5 4t30.5 2q18 0 31.5 -2t24.5 -4q10 -2 18 -4l221 -713q23 -74 30 -122t11 -68h6q4 20 14.5 66t32.5 122l224 715q8 2 18 4t21.5 4t27.5 2t29.5 -2t21.5 -4t15 -4l-328 -1057q-16 -4 -35.5 -7 t-44.5 -3t-44 3t-36 7z" />
<glyph unicode="&#x1e84;" horiz-adv-x="1959" d="M901 1610q-8 -2 -18 -4t-23.5 -3t-32.5 -1q-20 0 -33.5 1t-23.5 3t-18 4v135q8 2 18 4t23.5 3t33.5 1q18 0 31.5 -1t24.5 -3q10 -2 18 -4v-135zM1225 1610q-8 -2 -19 -4q-10 -2 -23.5 -3t-31.5 -1q-20 0 -33.5 1t-23.5 3t-19 4v135q8 2 19 4q10 2 23 3t34 1q18 0 31.5 -1 t23.5 -3t19 -4v-135zM1034 1049q-16 59 -25.5 106t-13.5 78q-6 37 -6 63h-6q-2 -27 -8 -63q-4 -31 -13.5 -78t-23.5 -106l-287 -1037q-14 -4 -38.5 -8t-51.5 -4q-29 0 -50.5 4t-33.5 8l-420 1450l19 6q10 2 23.5 4.5t33.5 2.5t34.5 -2.5t25.5 -4.5l18 -6l305 -1046 q12 -47 22.5 -90t16.5 -76q8 -37 14 -72h6q2 35 11 72q10 66 35 164l292 1048l19 6q10 2 23.5 4.5t33.5 2.5t34.5 -2.5t25.5 -4.5l18 -6l291 -1046q12 -49 20 -92t13 -76q6 -37 10 -70h6q2 31 10 68q6 33 15.5 74.5t25.5 93.5l297 1048l19 6q10 2 22 4.5t29 2.5 q16 0 29.5 -2.5t23.5 -4.5l18 -6l-409 -1450q-10 -4 -23 -6q-23 -6 -59 -6q-41 0 -62 6q-14 2 -24 6z" />
<glyph unicode="&#x1e85;" horiz-adv-x="1626" d="M735 1300l-20 -4t-23.5 -3t-32.5 -1q-20 0 -33.5 1t-23.5 3t-18 4v136q8 2 18 4t23.5 4t33.5 2q18 0 32 -2t24 -4l20 -4v-136zM1059 1300q-10 -2 -21 -4q-10 -2 -23.5 -3t-31.5 -1q-20 0 -33.5 1t-23.5 3t-19 4v136q8 2 19 4q10 2 23.5 4t33.5 2q18 0 31.5 -2t23.5 -4 t21 -4v-136zM881 639q-35 119 -47.5 181.5t-14.5 90.5h-6q-4 -29 -16.5 -92t-51.5 -180l-198 -629q-14 -4 -33.5 -7t-44.5 -3q-27 0 -46.5 3t-35.5 7l-328 1057q8 2 19 4q10 2 23.5 4t31.5 2t31.5 -2t21.5 -4t15 -4l225 -717q23 -72 30 -119t11 -67h6l13.5 67.5t31.5 118.5 l225 717q10 2 23 4q10 2 24.5 4t30.5 2q18 0 31.5 -2t24.5 -4q10 -2 18 -4l221 -713q23 -74 30 -122t11 -68h6q4 20 14.5 66t32.5 122l224 715q8 2 18 4t21.5 4t27.5 2t29.5 -2t21.5 -4t15 -4l-328 -1057q-16 -4 -35.5 -7t-44.5 -3t-44 3t-36 7z" />
<glyph unicode="&#x1ef2;" horiz-adv-x="1286" d="M750 1593q-27 -43 -88 -49l-256 285q16 27 55 45t76 14zM1100 1468q10 2 24.5 4.5t36.5 2.5q20 0 36.5 -2.5t27.5 -4.5q12 -4 22 -6l-530 -841v-609q-8 -4 -19 -6q-18 -6 -55 -6q-41 0 -59 6q-10 2 -19 6v604l-516 846q8 2 23 6q10 2 28.5 4.5t40.5 2.5q23 0 38.5 -2.5 t25.5 -4.5q12 -4 22 -6l422 -686l432 686z" />
<glyph unicode="&#x1ef3;" horiz-adv-x="1071" d="M260 1528q16 27 55 45t76 14l213 -295q-27 -43 -88 -49zM584 -199q-25 -74 -51.5 -132t-62.5 -98t-85 -61.5t-119 -21.5q-23 0 -42 2t-34 6q-16 4 -28 8q-2 4 -7 19.5t-5 38.5t5 40t9 21q10 -4 24 -6q12 -2 28.5 -3t35.5 -1q33 0 59.5 9t49 32.5t44 65.5t44.5 110l61 172 q-23 0 -49 10l-410 1055q10 2 21 4q10 2 23.5 4t33.5 2q18 0 32.5 -2t24.5 -4t21 -4l276 -702q18 -47 31.5 -88t24.5 -70q10 -35 18 -62h6q8 27 17 62q16 63 49 158l241 702q8 2 19 4q10 2 22.5 4t32.5 2q16 0 30.5 -2t24.5 -4t19 -4z" />
<glyph unicode="&#x2013;" horiz-adv-x="1196" d="M190 537q-4 6 -6 14q-4 20 -4 43t4 43q2 8 6 14h814q2 -6 4 -14q4 -20 4 -43t-4 -43q-2 -8 -4 -14h-814z" />
<glyph unicode="&#x2014;" horiz-adv-x="1708" d="M190 537q-4 6 -6 14q-4 20 -4 43t4 43q2 8 6 14h1326q2 -6 4 -14q4 -20 4 -43t-4 -43q-2 -8 -4 -14h-1326z" />
<glyph unicode="&#x2018;" horiz-adv-x="446" d="M317 1434q-18 -20 -32 -50q-12 -25 -24.5 -59.5t-16.5 -81.5q14 -2 24.5 -2t18.5 -2t14 -4v-150q-8 -4 -20 -6q-23 -6 -64 -6t-61 6q-12 2 -21 6v103q0 72 19.5 124t42.5 89q27 41 63 74z" />
<glyph unicode="&#x2019;" horiz-adv-x="428" d="M127 1114q18 20 33 49q12 25 23.5 59.5t15.5 82.5q-16 0 -26.5 2t-16.5 4q-8 2 -13 4v149q8 2 21 4q10 2 24.5 4.5t36.5 2.5q20 0 37 -2.5t27 -4.5q12 -2 20 -4v-102q0 -72 -20.5 -125t-42.5 -90q-27 -43 -62 -74z" />
<glyph unicode="&#x201a;" horiz-adv-x="460" d="M129 -190q18 20 33 49q12 25 23.5 59.5t15.5 81.5q-14 0 -24.5 2t-16.5 4q-8 2 -13 4v150q6 2 19 4q10 2 25.5 4t37.5 2q20 0 37 -2t27 -4q12 -2 20 -4v-103q0 -72 -20.5 -126t-42.5 -89q-29 -41 -64 -71z" />
<glyph unicode="&#x201c;" horiz-adv-x="669" d="M567 1434q-18 -20 -32 -50q-12 -25 -24.5 -59.5t-16.5 -81.5q33 -4 43 -6q8 -2 12 -4v-150q-10 -4 -21 -6q-10 -2 -24.5 -3t-36.5 -1q-23 0 -38 1t-26 3q-12 2 -20 6v103q0 72 19.5 125t43.5 90q27 43 64 74zM309 1434q-18 -20 -33 -50q-12 -25 -23 -59.5t-15 -81.5 q23 -2 41 -6q8 -2 14 -4v-150q-8 -4 -21 -6q-10 -2 -25.5 -3t-37.5 -1q-20 0 -35.5 1t-26.5 3q-12 2 -20 6v103q0 72 19.5 125t41.5 90q27 43 64 74z" />
<glyph unicode="&#x201d;" horiz-adv-x="688" d="M129 1114q18 20 33 49q12 25 24.5 59.5t16.5 82.5q-16 0 -26.5 2t-16.5 4q-8 2 -13 4v149q6 2 19 4q10 2 25.5 4.5t37.5 2.5q20 0 37 -2.5t27 -4.5q12 -2 20 -4v-102q0 -72 -20.5 -125t-42.5 -90q-29 -43 -64 -74zM387 1114q18 20 33 49q12 25 23.5 59.5t15.5 82.5 q-14 0 -24.5 2t-16.5 4q-8 2 -15 4v149q8 2 21 4q10 2 25.5 4.5t37.5 2.5q20 0 36 -2.5t26 -4.5q12 -2 20 -4v-102q0 -72 -20.5 -125t-42.5 -90q-27 -43 -62 -74z" />
<glyph unicode="&#x201e;" horiz-adv-x="720" d="M131 -190q18 20 33 49q12 25 23.5 59.5t15.5 81.5q-14 0 -24.5 2t-16.5 4q-8 2 -15 4v150q8 2 21 4q10 2 25.5 4t37.5 2q20 0 36 -2t26 -4q12 -2 20 -4v-103q0 -72 -20.5 -126t-42.5 -89q-27 -41 -62 -71zM391 -190q18 20 33 49q12 25 23.5 59.5t15.5 81.5q-14 0 -24.5 2 t-16.5 4q-8 2 -14 4v150q8 2 20 4q10 2 25.5 4t38.5 2q20 0 35.5 -2t25.5 -4q12 -2 20 -4v-103q0 -72 -20.5 -126t-42.5 -89q-27 -41 -61 -71z" />
<glyph unicode="&#x2020;" horiz-adv-x="1167" d="M524 -219l15 1100l-469 -15q-2 8 -4 17q-4 20 -5 45q0 25 5 45q2 8 4 14l469 -12l-15 452q8 2 19 5q10 2 20 3t27 1q27 0 47 -4q8 -2 16 -5l-14 -452l461 12l4 -16q4 -20 4 -43q0 -25 -4 -45q-2 -8 -4 -17l-461 15l14 -1100l-63 -41z" />
<glyph unicode="&#x2021;" horiz-adv-x="1284" d="M1161 319l4 -16q4 -20 4 -45q0 -16 -1 -26.5t-3 -18.5t-4 -14l-469 14l15 -455q-10 -2 -19 -4q-10 -2 -20.5 -3t-26.5 -1q-27 0 -47 4l-16 4l14 455l-467 -14l-4 16q-4 20 -4 43q0 25 4 45l4 16l467 -14l-14 287l14 289l-469 -15q-2 8 -4 17q-2 8 -3 18t-1 27 q0 16 1 26.5t3 18.5t4 14l469 -12l-14 452q6 2 16 5q20 4 49 4q27 0 47 -4q8 -2 17 -5l-15 -452l467 12l4 -16q4 -20 4 -43q0 -16 -1 -26.5t-3 -18.5t-4 -17l-467 15l15 -289l-15 -287z" />
<glyph unicode="&#x2022;" horiz-adv-x="651" d="M453 578q0 -57 -36 -91t-91 -34q-53 0 -90 33.5t-37 91.5q0 59 36.5 93t90.5 34q55 0 91 -34t36 -93z" />
<glyph unicode="&#x2026;" horiz-adv-x="1204" d="M315 10q-8 -4 -20 -6q-10 -2 -26.5 -3t-37.5 -1q-23 0 -38 1t-25 3q-12 2 -21 6v150q8 2 21 4q10 2 25.5 4t37.5 2q20 0 37 -2t27 -4q12 -2 20 -4v-150zM686 10q-8 -4 -20 -6q-10 -2 -25.5 -3t-36.5 -1q-23 0 -38 1t-25 3q-12 2 -21 6v150q8 2 21 4q10 2 25.5 4t37.5 2 q20 0 35.5 -2t26.5 -4q12 -2 20 -4v-150zM1057 10q-8 -4 -21 -6q-10 -2 -26.5 -3t-36.5 -1q-23 0 -38 1t-26 3q-12 2 -18 6v150q6 2 18 4q10 2 25.5 4t38.5 2q20 0 36.5 -2t26.5 -4q12 -2 21 -4v-150z" />
<glyph unicode="&#x2030;" horiz-adv-x="2203" d="M444 -10q-8 -4 -16 -6q-20 -4 -49 -4q-27 0 -47 4q-8 2 -17 6l795 1437q6 2 14 5q8 2 20.5 4t29.5 2q16 0 27 -2t20 -4q8 -2 16 -5zM369 707q-129 0 -201 80.5t-72 273.5q0 190 72 272t201 82q127 0 199.5 -81t72.5 -273q0 -193 -72.5 -273.5t-199.5 -80.5zM369 1319 q-37 0 -65 -12.5t-48 -42t-30.5 -78.5t-10.5 -125t10.5 -125t30.5 -79t48 -41t65 -11q35 0 62.5 11t48 41t30.5 79t10 125t-10 125t-30.5 78.5t-48 42t-62.5 12.5zM1176 -20q-129 0 -201 80.5t-72 273.5q0 188 73 271t200 83t199.5 -81t72.5 -273q0 -193 -72.5 -273.5 t-199.5 -80.5zM1839 -20q-129 0 -199.5 80.5t-70.5 273.5q0 188 71.5 271t198.5 83t201 -81t74 -273q0 -193 -74 -273.5t-201 -80.5zM1176 592q-35 0 -64 -12.5t-49.5 -42t-30.5 -78.5t-10 -125t10 -125t30.5 -79t49.5 -41t64 -11t63.5 11t48 41t29.5 79t10 125t-10 125 t-30.5 78.5t-48 42t-62.5 12.5zM1839 592q-35 0 -63.5 -12.5t-48 -42t-29.5 -78.5t-10 -125t10 -125t29.5 -79t48 -41t63.5 -11t63.5 11t48 41t30 79t10.5 125t-10.5 125t-31 78.5t-48 42t-62.5 12.5z" />
<glyph unicode="&#x2039;" horiz-adv-x="696" d="M530 1042q23 -16 35.5 -40.5t16.5 -51.5l-353 -397l353 -399q-4 -27 -16.5 -51.5t-35.5 -41.5l-417 426q-4 8 -7 17q-6 14 -6 45q0 29 6 47q2 8 7 18z" />
<glyph unicode="&#x203a;" horiz-adv-x="696" d="M584 614q2 -10 6 -18q2 -10 4 -20.5t2 -26.5t-2 -26.5t-4 -18.5q-4 -8 -6 -17l-418 -426q-23 16 -35 41t-16 52l352 399l-352 397q4 27 16 51.5t35 40.5z" />
<glyph unicode="&#x2044;" horiz-adv-x="268" d="M467 1427q6 2 14 5q8 2 19.5 4t27.5 2t26.5 -2t18.5 -4t17 -5l-795 -1437q-8 -4 -16 -6q-20 -4 -45 -4q-23 0 -43 4q-8 2 -17 6z" />
<glyph unicode="&#x2080;" horiz-adv-x="702" d="M350 -207q-135 0 -201.5 86t-66.5 277q0 186 66.5 273t201.5 87q133 0 202 -85t69 -275t-69 -276.5t-202 -86.5zM350 430q-86 0 -125 -61.5t-39 -212.5q0 -154 39 -214.5t125 -60.5t125 60.5t39 214.5q0 152 -39 213t-125 61z" />
<glyph unicode="&#x2081;" horiz-adv-x="497" d="M53 365q72 18 128.5 55t94.5 80q20 6 52 6q29 0 47 -6v-690q-18 -6 -47 -7q-14 0 -26.5 1t-29.5 6v483v45t2 39q-39 -33 -88 -57.5t-108 -36.5q-31 31 -25 82z" />
<glyph unicode="&#x2082;" horiz-adv-x="612" d="M66 -113q0 70 27.5 116t67.5 78t88 55.5t88 48t67.5 54t27.5 76.5q0 49 -37 82t-119 33q-47 0 -90 -8t-51 -12q-31 37 -24 77q23 6 51 15q25 4 58.5 9t74.5 5q119 0 179.5 -52t60.5 -142q0 -61 -26 -102.5t-64.5 -70t-85 -51t-87.5 -49t-69.5 -63.5t-34.5 -92h350 q10 -25 10 -46q0 -20 -10 -45h-444q-2 12 -4 25q-2 10 -3 25.5t-1 33.5z" />
<glyph unicode="&#x2083;" horiz-adv-x="612" d="M532 -4q0 -88 -60 -145.5t-218 -57.5q-43 0 -77 5t-58 12q-29 8 -51 18q0 18 6 38.5t22 33.5q20 -6 45 -11q45 -10 109 -10q106 0 142 36t36 89q0 66 -39 95.5t-108 29.5h-93q-16 41 0 84h93q66 0 95.5 28.5t29.5 77.5q0 111 -142 111q-33 0 -60.5 -3t-47.5 -7 q-25 -4 -45 -8q-29 29 -25 73q23 6 51 15q25 6 58.5 11t74.5 5q117 0 178.5 -48t61.5 -136q0 -57 -21.5 -95t-70.5 -63q53 -23 83.5 -62.5t30.5 -115.5z" />
<glyph unicode="&#x2084;" horiz-adv-x="663" d="M592 66q8 -20 8 -41q0 -23 -8 -39h-82v-176q-10 -2 -20.5 -4.5t-24.5 -2.5t-25.5 2t-19.5 5v176h-361q-2 6 -4 14t-2 18t2 18.5t4 14.5l353 447q20 8 49 8t49 -8v-432h82zM174 66h246v311z" />
<glyph unicode="&#x2085;" horiz-adv-x="604" d="M215 236q154 0 235.5 -49.5t81.5 -174.5q0 -219 -278 -219q-43 0 -78 5t-59 12q-29 8 -49 18q-2 20 4 39.5t22 34.5q20 -6 43 -13q45 -10 107 -10q98 0 141 33t43 98q0 82 -54.5 109.5t-170.5 27.5h-86v359h377q10 -23 9 -46.5t-9 -43.5h-279v-180z" />
<glyph unicode="&#x2086;" horiz-adv-x="632" d="M80 90q0 180 101.5 292t305.5 130q20 -37 0 -82q-117 -14 -193.5 -71.5t-96.5 -163.5q20 10 56 22t89 12q100 0 162.5 -55t62.5 -160q0 -113 -69.5 -167t-169.5 -54q-117 0 -182.5 73.5t-65.5 223.5zM463 14q0 59 -35 95t-98 36q-59 0 -94 -15t-52 -26q0 -229 144 -229 q61 0 98 36.5t37 102.5z" />
<glyph unicode="&#x2087;" horiz-adv-x="565" d="M63 414q-20 45 0 92h441q0 -10 2 -19q4 -20 4 -41q0 -70 -20.5 -118.5t-51 -91.5t-66.5 -83t-67 -87.5t-50 -108.5t-17 -147q-49 -12 -103 0q0 88 17.5 152.5t44 112.5t57.5 86t60.5 74.5t53 78.5t35.5 100h-340z" />
<glyph unicode="&#x2088;" horiz-adv-x="659" d="M100 340q0 78 58.5 127t171.5 49q104 0 164.5 -45t60.5 -129q0 -63 -31.5 -106t-72.5 -70q53 -29 91 -69t38 -109q0 -92 -65.5 -143.5t-184.5 -51.5q-113 0 -181.5 47t-68.5 144q0 72 39 117.5t86 74.5q-45 27 -75 65t-30 99zM459 336q0 102 -131 102q-59 0 -93 -25.5 t-34 -68.5q0 -31 14 -51.5t39 -36.5t56.5 -29.5t64.5 -25.5q37 25 60.5 57.5t23.5 77.5zM479 -18q0 35 -19.5 58t-48 40.5t-63.5 32t-67 28.5q-10 -6 -26.5 -18t-34 -30.5t-30 -44t-12.5 -58.5q0 -59 41 -87t115 -28q61 0 103 27t42 80z" />
<glyph unicode="&#x2089;" horiz-adv-x="630" d="M66 295q0 113 69.5 167t167.5 54q119 0 183.5 -73.5t64.5 -223.5q0 -180 -99.5 -291.5t-304.5 -130.5q-10 16 -12 40t8 42q117 14 194 71.5t99 164.5q-23 -10 -58.5 -21.5t-88.5 -11.5q-100 0 -161.5 54.5t-61.5 158.5zM449 205q-2 113 -37 171t-109 58q-61 0 -97 -37 t-36 -102q0 -59 34 -95t99 -36q59 0 94.5 15.5t51.5 25.5z" />
<glyph unicode="&#x20ac;" horiz-adv-x="1204" d="M279 901q72 492 497 492q78 0 133.5 -10.5t94.5 -22.5q43 -14 75 -31q-2 -33 -11 -58.5t-34 -45.5q-31 12 -67 22q-33 8 -76 15.5t-96 7.5q-72 0 -131.5 -18.5t-106.5 -61.5t-80 -113.5t-47 -175.5h528q4 -23 0 -50.5t-18 -49.5h-524q-2 -29 -2 -57.5v-59.5v-56.5 t2 -52.5h458q4 -23 0 -50t-18 -50h-428q14 -109 47 -179.5t80 -113.5t107.5 -60.5t132.5 -17.5q59 0 106 6.5t82 16.5q39 8 72 23q23 -18 33 -47t12 -58q-35 -18 -82 -33q-41 -12 -101.5 -22t-140.5 -10q-430 0 -497 495h-173q-4 23 1.5 50.5t17.5 49.5h143q-2 27 -3 54.5 t-1 56.5v57.5t4 57.5h-162q-4 23 1.5 51.5t17.5 48.5h154v0z" />
<glyph unicode="&#x2113;" horiz-adv-x="944" d="M244 1085q0 106 14 189.5t51 142t99.5 89t158.5 30.5q152 0 223.5 -84t71.5 -221q0 -96 -33.5 -190.5t-96 -184.5t-149.5 -174t-192 -158v-229q0 -109 40 -149t114 -40q49 0 92 16.5t78 39.5q37 25 71 57q29 -6 48.5 -25.5t23.5 -48.5q-39 -47 -92 -84 q-45 -31 -109.5 -56t-150.5 -25q-68 0 -118 19t-82 64.5t-47 117t-15 173.5v80q-27 -16 -69 -37.5t-71 -36.5q-45 37 -43 103q49 23 95.5 49.5t87.5 54.5v518zM721 1229q0 92 -34 145t-116 53q-43 0 -76.5 -13t-56 -45t-35 -87t-12.5 -137v-465q145 127 237.5 267.5 t92.5 281.5z" />
<glyph unicode="&#x2117;" horiz-adv-x="1646" d="M125 696q0 145 54 272.5t149.5 222.5t222.5 149.5t272 54.5t272.5 -54.5t222.5 -149.5t149.5 -222t54.5 -273q0 -145 -54.5 -272t-149.5 -222.5t-222 -149.5t-273 -54q-145 0 -272 54t-222.5 149.5t-149.5 222.5t-54 272zM1417 696q0 123 -46 231.5t-127 188.5 t-189.5 127t-231.5 47t-231.5 -47t-189 -127t-128 -188.5t-47.5 -231.5t47.5 -231.5t128 -189t189 -128t231.5 -47.5t231.5 47.5t189.5 128t127 189t46 231.5zM899 1071q123 0 194.5 -72.5t71.5 -189.5q0 -121 -71.5 -192.5t-194.5 -71.5h-184v-250q-25 -12 -55.5 -12 t-53.5 12v776h293zM715 641h174q76 0 120 42t44 126q0 82 -44 125t-120 43h-174v-336z" />
<glyph unicode="&#x2122;" horiz-adv-x="1284" d="M504 1475q6 -12 6 -29q0 -16 -6 -31h-172v-524q-2 -2 -8 -4t-27 -2q-23 0 -27 2q-6 2 -6 4v524h-176q-2 6 -4 13.5t-2 15.5q0 14 6 31h416zM606 1468q4 0 10 2q12 4 31 5q16 0 22.5 -2.5t16.5 -4.5l102 -200q23 -43 40.5 -83t29.5 -71q10 29 28.5 67t41.5 79l104 208 q4 0 12 2q16 4 31 5q14 0 31 -5q8 -2 12 -2v-577q-2 -2 -8 -4t-25 -2q-20 0 -26 2t-8 4v254v125t2 108q-16 -33 -30.5 -65.5t-31.5 -61.5l-104 -202l-8 -5q-6 -2 -23 -2q-18 0 -22 2q-6 2 -9 5l-100 200q-16 37 -31.5 67t-29.5 62q4 -47 4 -105.5v-127.5v-254q-2 -2 -9 -4 q-6 -2 -22 -2q-18 0 -23 2q-6 2 -8 4v577z" />
<glyph unicode="&#x2126;" horiz-adv-x="1474" d="M158 778q0 188 42 324.5t117.5 223.5t182 128t237.5 41t238.5 -41t183.5 -128t117 -223t41 -325q0 -133 -36 -241.5t-82 -190.5t-92 -135t-67 -78h303q6 -16 10.5 -32.5t4.5 -32.5q0 -33 -15 -68h-481q-14 31 -15 67.5t15 69.5q39 33 89 88.5t96.5 135t78 184t31.5 233.5 q0 160 -29.5 271.5t-85 182.5t-133.5 103.5t-172 32.5q-96 0 -173 -32.5t-132 -103.5t-85 -182.5t-30 -271.5q0 -129 32 -233.5t78 -184t96 -135t89 -88.5q29 -66 0 -137h-481q-14 35 -14 66q0 39 14 67h301q-20 25 -66.5 78t-92.5 135t-80.5 190.5t-34.5 241.5z" />
<glyph unicode="&#x212e;" horiz-adv-x="1654" d="M1364 195q-98 -104 -230.5 -159.5t-289.5 -55.5q-150 0 -281 56t-229 154.5t-154.5 229.5t-56.5 280q0 150 56.5 281t154.5 229.5t229 154.5t281 56t280.5 -56t229 -154.5t155 -229.5t56.5 -281v-49h-1114v-446q86 -63 186 -100t207 -37q104 0 201.5 33.5t181.5 93.5h137 zM1237 1194q-84 66 -184.5 102.5t-208.5 36.5q-106 0 -206.5 -35.5t-186.5 -101.5v-455h786v453z" />
<glyph unicode="&#x2153;" horiz-adv-x="1464" d="M1022 1427q4 2 12 5q6 2 16.5 4t26.5 2q14 0 25.5 -2t17.5 -4q8 -2 13 -5l-793 -1439q-6 -2 -14 -4q-20 -4 -43 -4q-20 0 -41 4q-8 2 -15 4zM295 1403q18 8 51 8q12 0 24.5 -2t22.5 -6v-688q-23 -6 -47 -6q-14 0 -27.5 1t-27.5 5v483v44.5t2 37.5q-39 -33 -88 -57.5 t-109 -36.5q-16 14 -22 37.5t-2 46.5q72 18 128 54t95 79zM922 682q23 6 51 14q25 6 59.5 11.5t75.5 5.5q115 0 176.5 -48.5t61.5 -136.5q0 -57 -21.5 -95t-71.5 -62q53 -23 84 -63t31 -115q0 -88 -60.5 -145.5t-215.5 -57.5q-43 0 -78 5t-60 11q-29 8 -49 19q-2 18 4 38.5 t23 32.5q20 -6 45 -10q47 -10 110 -10q53 0 88 9t54.5 26.5t28 40t8.5 49.5q0 66 -40 95.5t-108 29.5h-94q-16 41 0 84h94q63 0 94 28.5t31 77.5q0 57 -37 84t-104 27q-33 0 -60.5 -3t-50.5 -8q-25 -4 -45 -8q-12 12 -19 31.5t-5 42.5z" />
<glyph unicode="&#x2154;" horiz-adv-x="1593" d="M1151 1427q4 2 12 5q6 2 16.5 4t26.5 2q14 0 25.5 -2t17.5 -4q8 -2 13 -5l-793 -1439q-6 -2 -14 -4q-20 -4 -43 -4q-20 0 -41 4q-8 2 -15 4zM96 793q0 70 28 115.5t67.5 77.5t88 55.5t88.5 48t67.5 54.5t27.5 77t-36 79.5t-116 34.5q-51 0 -93 -8t-52 -12q-29 35 -25 78 q25 6 54 14q25 4 58.5 9t74.5 5q117 0 178 -52t61 -142q0 -61 -25.5 -102.5t-64.5 -70t-85 -51t-87 -49t-70.5 -63.5t-35.5 -92h352q8 -18 8 -45t-8 -45h-447l-4 24q-2 10 -3 26t-1 34zM1497 193q0 -88 -60.5 -145.5t-215.5 -57.5q-43 0 -78 5t-60 11q-29 8 -49 19 q-2 18 4 38.5t23 32.5q20 -6 45 -10q47 -10 111 -10q53 0 87.5 9t54 26.5t28 40t8.5 49.5q0 66 -40 95.5t-108 29.5h-94q-16 41 0 84h94q63 0 94 28.5t31 77.5q0 57 -37 84t-104 27q-33 0 -60.5 -3t-50.5 -8q-25 -4 -45 -8q-12 12 -19 31.5t-5 42.5q23 6 51 14 q25 6 59.5 11.5t75.5 5.5q115 0 176.5 -48.5t61.5 -136.5q0 -57 -21.5 -95t-71.5 -62q53 -23 84 -62.5t31 -115.5z" />
<glyph unicode="&#x215b;" horiz-adv-x="1462" d="M1022 1427q4 2 12 5q6 2 16.5 4t26.5 2q14 0 25.5 -2t17.5 -4q8 -2 13 -5l-793 -1439q-6 -2 -14 -4q-20 -4 -43 -4q-20 0 -41 4q-8 2 -15 4zM295 1403q18 8 51 8q12 0 24.5 -2t22.5 -6v-688q-23 -6 -47 -6q-14 0 -27.5 1t-27.5 5v483v44.5t2 37.5q-39 -33 -88 -57.5 t-109 -36.5q-16 14 -22 37.5t-2 46.5q72 18 128 54t95 79zM889 537q0 78 58.5 127t170.5 49q104 0 164.5 -45t60.5 -129q0 -63 -31.5 -106.5t-72.5 -70.5q53 -29 91 -68.5t38 -109.5q0 -92 -65.5 -143t-184.5 -51q-113 0 -181.5 47t-68.5 143q0 72 39 118t86 75 q-45 27 -74.5 65t-29.5 99zM1247 532q0 102 -131 103q-59 0 -93 -25.5t-34 -68.5q0 -31 14.5 -51.5t39 -37t56 -29.5t64.5 -26q37 25 60.5 57.5t23.5 77.5zM1268 178q0 35 -19.5 58.5t-48.5 41t-63.5 32t-67.5 28.5q-10 -6 -26.5 -18.5t-34 -31t-29.5 -44t-12 -58.5 q0 -59 41 -86.5t114 -27.5q61 0 103.5 26.5t42.5 79.5z" />
<glyph unicode="&#x215c;" horiz-adv-x="1556" d="M1116 1427q4 2 12 5q6 2 16.5 4t26.5 2q14 0 25.5 -2t17.5 -4q8 -2 13 -5l-793 -1439q-6 -2 -14 -4q-20 -4 -43 -4q-20 0 -41 4q-8 2 -14 4zM121 1391q23 6 51 14q25 6 59.5 11t75.5 5q115 0 176.5 -48t61.5 -136q0 -57 -21.5 -95t-70.5 -63q53 -23 83.5 -62.5 t30.5 -115.5q0 -88 -60.5 -145.5t-215.5 -57.5q-43 0 -78 5.5t-59 11.5q-29 8 -50 18q-2 18 4.5 39t22.5 33q20 -6 45 -10q47 -10 111 -11q53 0 88 9.5t54.5 27t27.5 40t8 48.5q0 66 -40 95.5t-108 29.5h-94q-16 41 0 84h94q63 0 94 29t31 78q0 57 -36.5 83.5t-104.5 26.5 q-33 0 -60.5 -3t-50.5 -7q-25 -4 -45 -8q-28 29 -24 74zM983 537q0 78 58.5 127t170.5 49q104 0 165 -45t61 -129q0 -63 -32 -106.5t-73 -70.5q53 -29 91 -68.5t38 -109.5q0 -92 -65.5 -143t-184.5 -51q-113 0 -181 47t-68 143q0 72 38.5 118t85.5 75q-45 27 -74.5 65 t-29.5 99zM1341 532q0 102 -131 103q-59 0 -93 -25.5t-34 -68.5q0 -31 14.5 -51.5t39 -37t56.5 -29.5l64 -26q37 25 60.5 57.5t23.5 77.5zM1362 178q0 35 -19.5 58.5t-48 41t-63.5 32t-68 28.5q-10 -6 -26.5 -18.5t-34 -31t-29.5 -44t-12 -58.5q0 -59 41 -86.5t115 -27.5 q61 0 103 26.5t42 79.5z" />
<glyph unicode="&#x215d;" horiz-adv-x="1548" d="M1108 1427q4 2 12 5q6 2 16.5 4t26.5 2q14 0 25.5 -2t17.5 -4q8 -2 13 -5l-793 -1439q-6 -2 -14 -4q-20 -4 -43 -4q-20 0 -41 4q-8 2 -15 4zM526 1411q16 -47 0 -90h-280v-180q154 0 236.5 -49.5t82.5 -173.5q0 -219 -278 -220q-43 0 -78 5.5t-59 11.5q-29 8 -50 18 q-4 45 25 74q23 -6 45 -12q45 -10 104 -11q98 0 141.5 33t43.5 98q0 82 -53.5 110t-169.5 28h-89v358h379zM975 537q0 78 58.5 127t170.5 49q104 0 165 -45t61 -129q0 -63 -32 -106.5t-73 -70.5q53 -29 91 -68.5t38 -109.5q0 -92 -65.5 -143t-184.5 -51q-113 0 -181.5 47 t-68.5 143q0 72 39 118t86 75q-45 27 -74.5 65t-29.5 99zM1333 532q0 102 -131 103q-59 0 -93 -25.5t-34 -68.5q0 -31 14.5 -51.5t39 -37t56.5 -29.5l64 -26q37 25 60.5 57.5t23.5 77.5zM1354 178q0 35 -19.5 58.5t-48.5 41t-63.5 32t-67.5 28.5q-10 -6 -26.5 -18.5t-34 -31 t-29.5 -44t-12 -58.5q0 -59 41 -86.5t114 -27.5q61 0 103.5 26.5t42.5 79.5z" />
<glyph unicode="&#x215e;" horiz-adv-x="1378" d="M938 1427q4 2 12 5q6 2 16.5 4t26.5 2q14 0 25.5 -2t17.5 -4q8 -2 13 -5l-793 -1439q-6 -2 -14 -4q-20 -4 -43 -4q-20 0 -41 4q-8 2 -15 4zM549 1411q0 -8 2 -16q4 -20 4 -41q0 -70 -20.5 -120t-50 -93t-63.5 -82t-63.5 -87t-49 -109.5t-19.5 -147.5q-51 -12 -101 0 q0 88 17.5 151.5t42 111.5t54.5 86t58.5 76t51 80t34.5 99h-340q-16 45 0 92h443zM805 537q0 78 58.5 127t170.5 49q104 0 165 -45t61 -129q0 -63 -32 -106.5t-73 -70.5q53 -29 91 -68.5t38 -109.5q0 -92 -65.5 -143t-184.5 -51q-113 0 -181.5 47t-68.5 143q0 72 39 118 t86 75q-45 27 -74.5 65t-29.5 99zM1163 532q0 102 -131 103q-59 0 -93 -25.5t-34 -68.5q0 -31 14.5 -51.5t39 -37t56.5 -29.5l64 -26q37 25 60.5 57.5t23.5 77.5zM1184 178q0 35 -19.5 58.5t-48.5 41t-63.5 32t-67.5 28.5q-10 -6 -26.5 -18.5t-34 -31t-29.5 -44t-12 -58.5 q0 -59 41 -86.5t114 -27.5q61 0 103.5 26.5t42.5 79.5z" />
<glyph unicode="&#x2190;" horiz-adv-x="1273" d="M524 1157q23 -8 40.5 -25.5t27.5 -41.5l-320 -320h895q8 -20 9 -53q0 -33 -9 -53h-895l320 -320q-20 -53 -68 -68l-440 441z" />
</font>
</defs>
</svg>
