<?xml version="1.0" standalone="no"?>
<!DOCTYPE svg PUBLIC "-//W3C//DTD SVG 1.1//EN" "http://www.w3.org/Graphics/SVG/1.1/DTD/svg11.dtd" >
<svg xmlns="http://www.w3.org/2000/svg" xmlns:xlink="http://www.w3.org/1999/xlink" version="1.1">
<metadata>
Created by FontForge 20141024 at Tue Jun 30 10:05:57 2015
 By Jimmy Warting
Copyright \(c\) 2014 by Fontfabric LLC. All rights reserved.
</metadata>
<defs>
<font id="GloberThin" horiz-adv-x="556" >
  <font-face 
    font-family="Glober Thin"
    font-weight="250"
    font-stretch="normal"
    units-per-em="1000"
    panose-1="0 0 0 0 0 0 0 0 0 0"
    ascent="750"
    descent="-250"
    x-height="524"
    cap-height="720"
    bbox="-145 -267 1000 1006"
    underline-thickness="50"
    underline-position="-50"
    stemh="14"
    stemv="14"
    unicode-range="U+0020-FB02"
  />
<missing-glyph horiz-adv-x="618" 
d="M575 0h-538v720h538v-720zM449 513c0 57 -32 120 -137 120c-71 0 -120 -24 -120 -24c0 -3 1 -8 5 -10c0 0 44 20 115 20c96 0 124 -54 124 -107c0 -153 -155 -128 -155 -318c0 0 2 -2 6 -2s6 2 6 2c0 179 156 158 156 319zM301 105c0 0 -4 1 -13 1s-13 -1 -13 -1v-23
s4 -1 13 -1s13 1 13 1v23z" />
    <glyph glyph-name="fi" unicode="fi" horiz-adv-x="544" 
d="M109 590c0 104 39 160 174 160c80 0 156 -26 156 -26c1 -5 -2 -11 -5 -13c0 0 -71 25 -149 25c-131 0 -162 -49 -162 -145v-65h321v-524s-1 -2 -8 -2c-5 0 -6 2 -6 2v510h-307v-510s-1 -2 -7 -2s-7 2 -7 2v510h-64c-3 4 -3 9 0 14h64v64z" />
    <glyph glyph-name="fl" unicode="fl" horiz-adv-x="546" 
d="M109 586c0 96 33 164 159 164c95 0 176 -34 176 -34v-714c-5 -3 -9 -3 -14 0v704c-30 11 -87 30 -157 30c-121 0 -150 -55 -150 -145v-65h144c2 -5 2 -9 0 -14h-144v-510s-1 -2 -7 -2s-7 2 -7 2v510h-64c-2 5 -2 9 0 14h64v60z" />
    <glyph glyph-name=".notdef" horiz-adv-x="618" 
d="M575 0h-538v720h538v-720zM449 513c0 57 -32 120 -137 120c-71 0 -120 -24 -120 -24c0 -3 1 -8 5 -10c0 0 44 20 115 20c96 0 124 -54 124 -107c0 -153 -155 -128 -155 -318c0 0 2 -2 6 -2s6 2 6 2c0 179 156 158 156 319zM301 105c0 0 -4 1 -13 1s-13 -1 -13 -1v-23
s4 -1 13 -1s13 1 13 1v23z" />
    <glyph glyph-name="A" unicode="A" horiz-adv-x="637" 
d="M320 723l292 -722s-3 -2 -8 -2c-4 0 -9 2 -9 2l-91 227h-371l-91 -227s-3 -2 -9 -2c-5 0 -8 2 -8 2l291 722c1 1 3 1 4 0zM139 243h359l-180 446z" />
    <glyph glyph-name="AE" unicode="&#xc6;" horiz-adv-x="840" 
d="M473 15h312c2 -4 2 -10 0 -15h-327v212h-295l-127 -211c-3 -2 -7 -2 -9 -2c-3 0 -8 1 -9 2l433 719h324c2 -4 2 -10 0 -15h-302v-334h252c2 -5 2 -10 0 -15h-252v-341zM172 227h286v476z" />
    <glyph glyph-name="AEacute" unicode="&#x1fc;" horiz-adv-x="840" 
d="M473 15h312c2 -4 2 -10 0 -15h-327v212h-295l-127 -211c-3 -2 -7 -2 -9 -2c-3 0 -8 1 -9 2l433 719h324c2 -4 2 -10 0 -15h-302v-334h252c2 -5 2 -10 0 -15h-252v-341zM172 227h286v476zM505 770l126 146c6 -1 8 -5 11 -10l-127 -144c-5 1 -8 4 -10 8z" />
    <glyph glyph-name="Aacute" unicode="&#xc1;" horiz-adv-x="637" 
d="M320 723l292 -722s-3 -2 -8 -2c-4 0 -9 2 -9 2l-91 227h-371l-91 -227s-3 -2 -9 -2c-5 0 -8 2 -8 2l291 722c1 1 3 1 4 0zM139 243h359l-180 446zM283 769l124 152c6 -1 8 -5 11 -10l-125 -150c-5 1 -8 4 -10 8z" />
    <glyph glyph-name="Abreve" unicode="&#x102;" horiz-adv-x="637" 
d="M320 723l292 -722s-3 -2 -8 -2c-4 0 -9 2 -9 2l-91 227h-371l-91 -227s-3 -2 -9 -2c-5 0 -8 2 -8 2l291 722c1 1 3 1 4 0zM139 243h359l-180 446zM318 803c67 0 103 35 115 48c5 -3 7 -5 9 -10c0 0 -42 -52 -124 -52s-124 52 -124 52c2 5 4 8 9 9c10 -10 48 -47 115 -47z
" />
    <glyph glyph-name="Acircumflex" unicode="&#xc2;" horiz-adv-x="637" 
d="M320 723l292 -722s-3 -2 -8 -2c-4 0 -9 2 -9 2l-91 227h-371l-91 -227s-3 -2 -9 -2c-5 0 -8 2 -8 2l291 722c1 1 3 1 4 0zM139 243h359l-180 446zM196 768c-5 2 -7 6 -8 10l127 101h13l125 -101c0 -5 -3 -9 -8 -10l-123 98z" />
    <glyph glyph-name="Adieresis" unicode="&#xc4;" horiz-adv-x="637" 
d="M320 723l292 -722s-3 -2 -8 -2c-4 0 -9 2 -9 2l-91 227h-371l-91 -227s-3 -2 -9 -2c-5 0 -8 2 -8 2l291 722c1 1 3 1 4 0zM139 243h359l-180 446zM265 801v-20s-5 -4 -14 -4c-8 0 -14 4 -14 4v20s6 4 14 4c9 0 14 -4 14 -4zM399 801v-20s-5 -4 -14 -4c-8 0 -14 4 -14 4
v20s6 4 14 4c9 0 14 -4 14 -4z" />
    <glyph glyph-name="Agrave" unicode="&#xc0;" horiz-adv-x="637" 
d="M320 723l292 -722s-3 -2 -8 -2c-4 0 -9 2 -9 2l-91 227h-371l-91 -227s-3 -2 -9 -2c-5 0 -8 2 -8 2l291 722c1 1 3 1 4 0zM139 243h359l-180 446zM225 909c3 5 5 8 11 10l124 -152c-2 -4 -5 -7 -10 -8z" />
    <glyph glyph-name="Amacron" unicode="&#x100;" horiz-adv-x="637" 
d="M320 723l292 -722s-3 -2 -8 -2c-4 0 -9 2 -9 2l-91 227h-371l-91 -227s-3 -2 -9 -2c-5 0 -8 2 -8 2l291 722c1 1 3 1 4 0zM139 243h359l-180 446zM441 803h-255c-2 5 -2 10 0 15h255c2 -5 2 -9 0 -15z" />
    <glyph glyph-name="Aogonek" unicode="&#x104;" horiz-adv-x="637" 
d="M139 243h359l-180 446zM581 -180c28 0 48 12 48 12c4 -4 5 -6 6 -11c0 0 -20 -16 -56 -16c-51 0 -80 24 -80 65c0 56 35 102 94 137l-89 221h-371l-91 -227s-3 -2 -9 -2c-5 0 -8 2 -8 2l291 722c1 1 3 1 4 0l292 -722c-56 -28 -97 -77 -97 -128c0 -38 25 -53 66 -53z" />
    <glyph glyph-name="Aring" unicode="&#xc5;" horiz-adv-x="637" 
d="M331 695l281 -694s-3 -2 -8 -2c-4 0 -9 2 -9 2l-91 227h-371l-91 -227s-3 -2 -9 -2c-5 0 -8 2 -8 2l279 694c-49 5 -84 37 -84 93c0 61 49 92 99 92s100 -30 100 -92c0 -56 -39 -88 -88 -93zM318 867c-57 0 -84 -39 -84 -79c0 -41 27 -82 84 -82c58 0 87 42 87 82
c0 41 -29 79 -87 79zM139 243h359l-180 446z" />
    <glyph glyph-name="Aringacute" unicode="&#x1fa;" horiz-adv-x="637" 
d="M331 694l281 -693s-3 -2 -8 -2c-4 0 -9 2 -9 2l-91 227h-371l-91 -227s-3 -2 -9 -2c-5 0 -8 2 -8 2l279 693c-49 5 -84 36 -84 92c0 61 49 92 99 92s100 -30 100 -92c0 -56 -39 -87 -88 -92zM318 865c-57 0 -84 -39 -84 -79c0 -41 27 -81 84 -81c58 0 87 41 87 81
c0 41 -29 79 -87 79zM139 243h359l-180 445zM278 918l135 88c6 -3 6 -8 8 -13l-136 -86c-5 3 -7 6 -7 11z" />
    <glyph glyph-name="Atilde" unicode="&#xc3;" horiz-adv-x="637" 
d="M320 723l292 -722s-3 -2 -8 -2c-4 0 -9 2 -9 2l-91 227h-371l-91 -227s-3 -2 -9 -2c-5 0 -8 2 -8 2l291 722c1 1 3 1 4 0zM139 243h359l-180 446zM373 801c31 0 42 23 46 33c5 -1 9 -3 12 -7c0 0 -12 -41 -60 -41c-45 0 -67 40 -105 40c-37 0 -46 -34 -46 -34
c-6 1 -9 2 -12 6c0 0 10 43 61 43c38 0 59 -40 104 -40z" />
    <glyph glyph-name="B" unicode="B" horiz-adv-x="625" 
d="M528 537c0 -128 -82 -166 -130 -173c51 -3 153 -36 153 -179c0 -111 -54 -185 -213 -185h-226v720h222c156 0 194 -92 194 -183zM127 370h207c132 0 179 70 179 167c0 99 -43 168 -183 168h-203v-335zM127 15h215c146 0 194 66 194 170c0 113 -61 171 -195 171h-214v-341
z" />
    <glyph glyph-name="C" unicode="C" 
d="M79 359c0 247 81 371 254 371c109 0 165 -31 165 -31c0 -6 -2 -10 -6 -13c0 0 -59 29 -156 29c-145 0 -242 -83 -242 -356s95 -354 242 -354c105 0 166 30 166 30c5 -2 7 -6 7 -12c0 0 -58 -33 -176 -33c-172 0 -254 116 -254 369z" />
    <glyph glyph-name="CR" horiz-adv-x="322" 
 />
    <glyph glyph-name="Cacute" unicode="&#x106;" 
d="M79 359c0 247 81 371 254 371c109 0 165 -31 165 -31c0 -6 -2 -10 -6 -13c0 0 -59 29 -156 29c-145 0 -242 -83 -242 -356s95 -354 242 -354c105 0 166 30 166 30c5 -2 7 -6 7 -12c0 0 -58 -33 -176 -33c-172 0 -254 116 -254 369zM267 779l134 143c6 -2 8 -6 11 -11
l-135 -141c-5 2 -8 5 -10 9z" />
    <glyph glyph-name="Ccaron" unicode="&#x10c;" 
d="M330 775l-127 101c1 4 3 8 8 10l126 -98l123 98c5 -1 8 -5 8 -10l-125 -101h-13zM79 359c0 247 81 371 254 371c109 0 165 -31 165 -31c0 -6 -2 -10 -6 -13c0 0 -59 29 -156 29c-145 0 -242 -83 -242 -356s95 -354 242 -354c105 0 166 30 166 30c5 -2 7 -6 7 -12
c0 0 -58 -33 -176 -33c-172 0 -254 116 -254 369z" />
    <glyph glyph-name="Ccedilla" unicode="&#xc7;" 
d="M322 -10l-8 -60c78 2 113 -28 113 -77c0 -59 -34 -96 -107 -96c-36 0 -63 10 -88 27c1 5 4 8 8 11c22 -14 46 -24 81 -24c54 0 92 24 92 82c0 47 -36 64 -89 64h-20l-5 6l9 68c-155 11 -229 127 -229 368c0 247 81 371 254 371c109 0 165 -31 165 -31c0 -6 -2 -10 -6 -13
c0 0 -59 29 -156 29c-145 0 -242 -83 -242 -356s95 -354 242 -354c105 0 166 30 166 30c5 -2 7 -6 7 -12c0 0 -58 -33 -176 -33h-11z" />
    <glyph glyph-name="Ccircumflex" unicode="&#x108;" 
d="M79 359c0 247 81 371 254 371c109 0 165 -31 165 -31c0 -6 -2 -10 -6 -13c0 0 -59 29 -156 29c-145 0 -242 -83 -242 -356s95 -354 242 -354c105 0 166 30 166 30c5 -2 7 -6 7 -12c0 0 -58 -33 -176 -33c-172 0 -254 116 -254 369zM209 762c-5 2 -7 6 -8 10l127 101h13
l125 -101c0 -5 -3 -9 -8 -10l-123 98z" />
    <glyph glyph-name="Cdotaccent" unicode="&#x10a;" 
d="M350 831v-20s-5 -4 -14 -4c-8 0 -14 4 -14 4v20s6 4 14 4c9 0 14 -4 14 -4zM79 359c0 247 81 371 254 371c109 0 165 -31 165 -31c0 -6 -2 -10 -6 -13c0 0 -59 29 -156 29c-145 0 -242 -83 -242 -356s95 -354 242 -354c105 0 166 30 166 30c5 -2 7 -6 7 -12
c0 0 -58 -33 -176 -33c-172 0 -254 116 -254 369z" />
    <glyph glyph-name="D" unicode="D" horiz-adv-x="657" 
d="M112 720h180c189 0 285 -77 285 -360s-102 -360 -285 -360h-180v720zM127 15h162c181 0 273 74 273 345c0 272 -87 345 -273 345h-162v-690z" />
    <glyph glyph-name="Dcaron" unicode="&#x10e;" horiz-adv-x="657" 
d="M112 720h180c189 0 285 -77 285 -360s-102 -360 -285 -360h-180v720zM127 15h162c181 0 273 74 273 345c0 272 -87 345 -273 345h-162v-690zM283 775l-127 101c1 4 3 8 8 10l126 -98l123 98c5 -1 8 -5 8 -10l-125 -101h-13z" />
    <glyph glyph-name="Dcroat" unicode="&#x110;" horiz-adv-x="663" 
d="M118 720h180c189 0 285 -77 285 -360s-102 -360 -285 -360h-180v352h-89c-2 5 -2 10 0 15h89v353zM133 15h162c181 0 273 74 273 345c0 272 -87 345 -273 345h-162v-338h183c2 -5 2 -10 0 -15h-183v-337z" />
    <glyph glyph-name="Delta" unicode="&#x2206;" horiz-adv-x="643" 
d="M333 718l276 -701c-2 -7 -6 -13 -11 -17h-551c-6 4 -11 11 -13 17l281 701c8 5 18 0 18 0zM595 15l-271 691l-276 -691h547z" />
    <glyph glyph-name="E" unicode="E" 
d="M112 720h379c2 -5 2 -10 0 -15h-364v-332h314c2 -5 2 -10 0 -15h-314v-343h374c2 -5 2 -10 0 -15h-389v720z" />
    <glyph glyph-name="Eacute" unicode="&#xc9;" 
d="M247 777l129 148c6 -1 8 -5 10 -10l-130 -146c-5 1 -8 4 -9 8zM112 720h379c2 -5 2 -10 0 -15h-364v-332h314c2 -5 2 -10 0 -15h-314v-343h374c2 -5 2 -10 0 -15h-389v720z" />
    <glyph glyph-name="Ebreve" unicode="&#x114;" 
d="M112 720h379c2 -5 2 -10 0 -15h-364v-332h314c2 -5 2 -10 0 -15h-314v-343h374c2 -5 2 -10 0 -15h-389v720zM301 819c67 0 103 35 115 48c5 -3 7 -5 9 -10c0 0 -42 -52 -124 -52s-124 52 -124 52c2 5 4 8 9 9c10 -10 48 -47 115 -47z" />
    <glyph glyph-name="Ecaron" unicode="&#x11a;" 
d="M112 720h379c2 -5 2 -10 0 -15h-364v-332h314c2 -5 2 -10 0 -15h-314v-343h374c2 -5 2 -10 0 -15h-389v720zM287 773l-127 101c1 4 3 8 8 10l126 -98l123 98c5 -1 8 -5 8 -10l-125 -101h-13z" />
    <glyph glyph-name="Ecircumflex" unicode="&#xca;" 
d="M174 777c-5 2 -7 6 -8 10l127 101h13l125 -101c0 -5 -3 -9 -8 -10l-123 98zM112 720h379c2 -5 2 -10 0 -15h-364v-332h314c2 -5 2 -10 0 -15h-314v-343h374c2 -5 2 -10 0 -15h-389v720z" />
    <glyph glyph-name="Edieresis" unicode="&#xcb;" 
d="M259 827v-20s-5 -4 -14 -4c-8 0 -14 4 -14 4v20s6 4 14 4c9 0 14 -4 14 -4zM393 827v-20s-5 -4 -14 -4c-8 0 -14 4 -14 4v20s6 4 14 4c9 0 14 -4 14 -4zM112 720h379c2 -5 2 -10 0 -15h-364v-332h314c2 -5 2 -10 0 -15h-314v-343h374c2 -5 2 -10 0 -15h-389v720z" />
    <glyph glyph-name="Edotaccent" unicode="&#x116;" 
d="M320 823v-20s-5 -4 -14 -4c-8 0 -14 4 -14 4v20s6 4 14 4c9 0 14 -4 14 -4zM112 720h379c2 -5 2 -10 0 -15h-364v-332h314c2 -5 2 -10 0 -15h-314v-343h374c2 -5 2 -10 0 -15h-389v720z" />
    <glyph glyph-name="Egrave" unicode="&#xc8;" 
d="M112 720h379c2 -5 2 -10 0 -15h-364v-332h314c2 -5 2 -10 0 -15h-314v-343h374c2 -5 2 -10 0 -15h-389v720zM211 917c3 5 5 8 11 10l124 -152c-2 -4 -5 -7 -10 -8z" />
    <glyph glyph-name="Emacron" unicode="&#x112;" 
d="M424 812h-255c-2 5 -2 10 0 15h255c2 -5 2 -9 0 -15zM112 720h379c2 -5 2 -10 0 -15h-364v-332h314c2 -5 2 -10 0 -15h-314v-343h374c2 -5 2 -10 0 -15h-389v720z" />
    <glyph glyph-name="Eng" unicode="&#x14a;" horiz-adv-x="688" 
d="M561 718c0 0 2 2 8 2c4 0 7 -2 7 -2v-778c0 -83 -9 -139 -98 -168c-5 2 -6 7 -4 13c65 22 87 59 87 153v64l-436 693l2 -116v-577s-4 -2 -8 -2s-7 2 -7 2v716s3 2 8 2s7 -2 7 -2l389 -616l48 -78s-3 41 -3 107v587z" />
    <glyph glyph-name="Eogonek" unicode="&#x118;" 
d="M463 -164c27 0 46 12 46 12c4 -4 5 -6 6 -11c0 0 -19 -15 -54 -15c-48 0 -76 23 -76 62c0 53 36 92 83 116h-356v720h379c2 -5 2 -10 0 -15h-364v-332h314c2 -5 2 -10 0 -15h-314v-343h374c2 -5 2 -10 0 -15h-5c-52 -21 -96 -61 -96 -113c0 -37 24 -51 63 -51z" />
    <glyph glyph-name="Eth" unicode="&#xd0;" horiz-adv-x="663" 
d="M118 720h180c189 0 285 -77 285 -360s-102 -360 -285 -360h-180v352h-89c-2 5 -2 10 0 15h89v353zM133 15h162c181 0 273 74 273 345c0 272 -87 345 -273 345h-162v-338h183c2 -5 2 -10 0 -15h-183v-337z" />
    <glyph glyph-name="Euro" unicode="&#x20ac;" horiz-adv-x="583" 
d="M371 5c92 0 144 27 144 27c3 -3 5 -7 6 -11c0 0 -48 -31 -153 -31c-170 0 -214 128 -225 258h-80l3 15h76c-2 24 -2 48 -2 71c0 25 1 51 3 76h-80l3 15h78c12 133 61 255 224 255c101 0 143 -29 143 -29c0 -5 -2 -10 -6 -12c0 0 -49 26 -134 26
c-156 0 -200 -112 -212 -240h290c1 -6 0 -9 -3 -15h-288c-1 -25 -2 -51 -2 -76c0 -24 0 -48 2 -71h250c1 -5 0 -9 -3 -15h-246c10 -129 54 -243 212 -243z" />
    <glyph glyph-name="F" unicode="F" horiz-adv-x="533" 
d="M127 350v-348s-1 -2 -7 -2s-8 2 -8 2v718h381c2 -5 2 -10 0 -15h-366v-340h316c2 -5 2 -10 0 -15h-316z" />
    <glyph glyph-name="G" unicode="G" horiz-adv-x="615" 
d="M78 360c0 247 95 370 264 370c111 0 179 -31 179 -31c0 -6 -2 -10 -6 -13c0 0 -76 29 -170 29c-141 0 -252 -82 -252 -355s109 -355 252 -355c73 0 137 15 173 27v320h-209v15h223v-346s-74 -31 -190 -31c-170 0 -264 117 -264 370z" />
    <glyph glyph-name="Gbreve" unicode="&#x11e;" horiz-adv-x="615" 
d="M78 360c0 247 95 370 264 370c111 0 179 -31 179 -31c0 -6 -2 -10 -6 -13c0 0 -76 29 -170 29c-141 0 -252 -82 -252 -355s109 -355 252 -355c73 0 137 15 173 27v320h-209v15h223v-346s-74 -31 -190 -31c-170 0 -264 117 -264 370zM347 811c67 0 103 35 115 48
c5 -3 7 -5 9 -10c0 0 -42 -52 -124 -52s-124 52 -124 52c2 5 4 8 9 9c10 -10 48 -47 115 -47z" />
    <glyph glyph-name="Gcircumflex" unicode="&#x11c;" horiz-adv-x="615" 
d="M78 360c0 247 95 370 264 370c111 0 179 -31 179 -31c0 -6 -2 -10 -6 -13c0 0 -76 29 -170 29c-141 0 -252 -82 -252 -355s109 -355 252 -355c73 0 137 15 173 27v320h-209v15h223v-346s-74 -31 -190 -31c-170 0 -264 117 -264 370zM224 776c-5 2 -7 6 -8 10l127 101h13
l125 -101c0 -5 -3 -9 -8 -10l-123 98z" />
    <glyph glyph-name="Gcommaaccent" unicode="&#x122;" horiz-adv-x="615" 
d="M78 360c0 247 95 370 264 370c111 0 179 -31 179 -31c0 -6 -2 -10 -6 -13c0 0 -76 29 -170 29c-141 0 -252 -82 -252 -355s109 -355 252 -355c73 0 137 15 173 27v320h-209v15h223v-346s-74 -31 -190 -31c-170 0 -264 117 -264 370zM328 -158l-8 6s24 36 24 68
c-4 0 -10 2 -10 2v20s3 2 12 2c8 0 12 -2 12 -2v-17c0 -44 -30 -79 -30 -79z" />
    <glyph glyph-name="Gdotaccent" unicode="&#x120;" horiz-adv-x="615" 
d="M78 360c0 247 95 370 264 370c111 0 179 -31 179 -31c0 -6 -2 -10 -6 -13c0 0 -76 29 -170 29c-141 0 -252 -82 -252 -355s109 -355 252 -355c73 0 137 15 173 27v320h-209v15h223v-346s-74 -31 -190 -31c-170 0 -264 117 -264 370zM360 820v-20s-5 -4 -14 -4
c-8 0 -14 4 -14 4v20s6 4 14 4c9 0 14 -4 14 -4z" />
    <glyph glyph-name="H" unicode="H" horiz-adv-x="672" 
d="M545 377v341s3 2 7 2c5 0 8 -2 8 -2v-716s-2 -2 -8 -2s-7 2 -7 2v360h-418v-360s-2 -2 -7 -2c-7 0 -8 2 -8 2v716s3 2 8 2c4 0 7 -2 7 -2v-341h418z" />
    <glyph glyph-name="Hbar" unicode="&#x126;" horiz-adv-x="673" 
d="M561 583h72c2 -5 2 -13 0 -15h-72v-566s-2 -2 -8 -2s-7 2 -7 2v360h-418v-360s-2 -2 -7 -2c-7 0 -8 2 -8 2v566h-75c-3 5 -3 10 0 15h75v135s3 2 8 2c4 0 7 -2 7 -2v-135h418v135s3 2 7 2c5 0 8 -2 8 -2v-135zM128 377h418v191h-418v-191z" />
    <glyph glyph-name="Hcircumflex" unicode="&#x124;" horiz-adv-x="672" 
d="M545 377v341s3 2 7 2c5 0 8 -2 8 -2v-716s-2 -2 -8 -2s-7 2 -7 2v359h-418v-359s-2 -2 -7 -2c-7 0 -8 2 -8 2v716s3 2 8 2c4 0 7 -2 7 -2v-341h418zM212 776c-5 2 -7 6 -8 10l127 101h13l125 -101c0 -5 -3 -9 -8 -10l-123 98z" />
    <glyph glyph-name="I" unicode="I" horiz-adv-x="239" 
d="M112 2v716s2 2 8 2s7 -2 7 -2v-716c-1 -1 -2 -2 -8 -2c-5 0 -7 2 -7 2z" />
    <glyph glyph-name="IJ" unicode="&#x132;" horiz-adv-x="584" 
d="M112 2v716s2 2 8 2s7 -2 7 -2l1 -716c-1 0 -2 -2 -8 -2c-5 0 -8 2 -8 2zM461 145v573s1 2 8 2c4 0 7 -2 7 -2v-573c0 -107 -33 -155 -137 -155c-73 0 -134 30 -134 30c-1 7 2 12 6 14c0 0 54 -29 131 -29c81 0 119 32 119 140z" />
    <glyph glyph-name="Iacute" unicode="&#xcd;" horiz-adv-x="239" 
d="M112 2v716s2 2 8 2s7 -2 7 -2v-716c-1 0 -1 -2 -7 -2c-5 0 -8 2 -8 2zM63 769l124 152c6 -1 8 -5 11 -10l-125 -150c-5 1 -8 4 -10 8z" />
    <glyph glyph-name="Ibreve" unicode="&#x12c;" horiz-adv-x="239" 
d="M119 808c67 0 103 35 115 48c5 -3 7 -5 9 -10c0 0 -42 -52 -124 -52s-124 52 -124 52c2 5 4 8 9 9c10 -10 48 -47 115 -47zM112 2v716s2 2 8 2s7 -2 7 -2l1 -716c-1 -1 -2 -2 -8 -2c-5 0 -8 2 -8 2z" />
    <glyph glyph-name="Icircumflex" unicode="&#xce;" horiz-adv-x="239" 
d="M112 2v716s2 2 8 2s7 -2 7 -2v-716c-2 -2 -1 -2 -7 -2c-5 0 -8 2 -8 2zM-7 775c-5 2 -7 6 -8 10l127 101h13l125 -101c0 -5 -3 -9 -8 -10l-123 98z" />
    <glyph glyph-name="Idieresis" unicode="&#xcf;" horiz-adv-x="239" 
d="M112 2v716s2 2 8 2s7 -2 7 -2v-716c-1 -1 -3 -2 -7 -2c-5 0 -8 2 -8 2zM67 816v-20s-5 -4 -14 -4c-8 0 -14 4 -14 4v20s6 4 14 4c9 0 14 -4 14 -4zM201 816v-20s-5 -4 -14 -4c-8 0 -14 4 -14 4v20s6 4 14 4c9 0 14 -4 14 -4z" />
    <glyph glyph-name="Idotaccent" unicode="&#x130;" horiz-adv-x="239" 
d="M112 718c0 0 2 2 8 2s7 -2 7 -2v-716c-2 -1 -3 -2 -7 -2c-5 0 -8 2 -8 2v716zM134 822v-20s-5 -4 -14 -4c-8 0 -14 4 -14 4v20s6 4 14 4c9 0 14 -4 14 -4z" />
    <glyph glyph-name="Igrave" unicode="&#xcc;" horiz-adv-x="239" 
d="M112 2v716s2 2 8 2s7 -2 7 -2v-716c-1 0 -1 -2 -7 -2c-5 0 -8 2 -8 2zM32 910c3 5 5 8 11 10l124 -152c-2 -4 -5 -7 -10 -8z" />
    <glyph glyph-name="Imacron" unicode="&#x12a;" horiz-adv-x="239" 
d="M112 2v716s2 2 8 2s7 -2 7 -2v-716c-2 -2 -4 -2 -8 -2c-5 0 -7 2 -7 2zM245 784h-252c-2 5 -2 10 0 15h252c2 -5 2 -9 0 -15z" />
    <glyph glyph-name="Iogonek" unicode="&#x12e;" horiz-adv-x="239" 
d="M110 -160c27 0 46 12 46 12c4 -4 5 -6 6 -11c0 0 -19 -15 -54 -15c-48 0 -76 23 -76 62c0 52 34 93 80 118v712s2 2 8 2s7 -2 7 -2l1 -716l-1 -1v0c-43 -23 -80 -65 -80 -110c0 -37 24 -51 63 -51z" />
    <glyph glyph-name="Itilde" unicode="&#x128;" horiz-adv-x="239" 
d="M112 2v716s2 2 8 2c5 0 7 -2 7 -2v-716c-1 -1 -3 -2 -8 -2s-7 2 -7 2zM173 791c31 0 42 23 46 33c5 -1 9 -3 12 -7c0 0 -12 -41 -60 -41c-45 0 -67 40 -105 40c-37 0 -46 -34 -46 -34c-6 1 -9 2 -12 6c0 0 10 43 61 43c38 0 59 -40 104 -40z" />
    <glyph glyph-name="J" unicode="J" horiz-adv-x="413" 
d="M290 144v574s3 2 7 2c5 0 8 -2 8 -2v-574c0 -107 -34 -154 -139 -154c-72 0 -133 30 -133 30c-1 7 2 12 7 14c0 0 54 -29 129 -29c83 0 121 33 121 139z" />
    <glyph glyph-name="Jcircumflex" unicode="&#x134;" horiz-adv-x="413" 
d="M290 145v573s3 2 7 2c5 0 8 -2 8 -2v-574c0 -107 -34 -154 -139 -154c-72 0 -133 30 -133 30c-1 7 2 12 7 14c0 0 54 -29 129 -29c83 0 121 34 121 140zM162 776c-5 2 -7 6 -8 10l127 101h13l125 -101c0 -5 -3 -9 -8 -10l-123 98z" />
    <glyph glyph-name="K" unicode="K" horiz-adv-x="606" 
d="M291 381l237 337c10 6 18 0 18 0l-242 -343l270 -373c-1 0 -4 -2 -9 -2c-7 0 -10 2 -10 2l-263 364h-165v-364s-3 -2 -7 -2c-5 0 -8 2 -8 2v716s3 2 7 2c5 0 8 -2 8 -2v-337h164z" />
    <glyph glyph-name="Kcommaaccent" unicode="&#x136;" horiz-adv-x="606" 
d="M291 381l237 337c10 6 18 0 18 0l-242 -344l270 -372c-1 0 -4 -2 -9 -2c-7 0 -10 2 -10 2l-263 364h-165v-364s-3 -2 -7 -2c-5 0 -8 2 -8 2v716s3 2 7 2c5 0 8 -2 8 -2v-337h164zM300 -143l-8 6s24 30 24 62c-4 0 -10 2 -10 2v20s3 2 12 2c8 0 12 -2 12 -2v-17
c0 -44 -30 -73 -30 -73z" />
    <glyph glyph-name="L" unicode="L" horiz-adv-x="498" 
d="M112 0v718s3 2 8 2c6 0 7 -2 7 -2v-703h340c5 -9 0 -15 0 -15h-355z" />
    <glyph glyph-name="Lacute" unicode="&#x139;" horiz-adv-x="498" 
d="M112 0v718s3 2 8 2c6 0 7 -2 7 -2v-703h340c5 -9 0 -15 0 -15h-355zM91 771l124 152c6 -1 8 -5 11 -10l-125 -150c-5 1 -8 4 -10 8z" />
    <glyph glyph-name="Lcaron" unicode="&#x13d;" horiz-adv-x="498" 
d="M302 576c-6 -1 -10 1 -10 5c39 33 53 83 49 140c8 2 14 2 18 0c3 -49 -14 -113 -57 -145zM112 0v718s3 2 8 2c6 0 7 -2 7 -2v-703h340c5 -9 0 -15 0 -15h-355z" />
    <glyph glyph-name="Lcommaaccent" unicode="&#x13b;" horiz-adv-x="498" 
d="M112 0v718s3 2 8 2c6 0 7 -2 7 -2v-703h340c5 -9 0 -15 0 -15h-355zM278 -138l-8 6s24 30 24 62c-4 0 -10 2 -10 2v20s3 2 12 2c8 0 12 -2 12 -2v-17c0 -44 -30 -73 -30 -73z" />
    <glyph glyph-name="Ldot" unicode="&#x13f;" horiz-adv-x="498" 
d="M112 0v718s3 2 8 2c6 0 7 -2 7 -2v-703h340c5 -9 0 -15 0 -15h-355zM318 344v-20s-5 -4 -14 -4c-8 0 -14 4 -14 4v20s6 4 14 4c9 0 14 -4 14 -4z" />
    <glyph glyph-name="Lslash" unicode="&#x141;" horiz-adv-x="500" 
d="M129 15h340c5 -9 0 -15 0 -15h-355v353l-71 -42c-5 3 -7 6 -7 13l78 46v348s3 2 8 2c6 0 7 -2 7 -2v-340l109 64c5 -3 6 -6 7 -12l-116 -68v-347z" />
    <glyph glyph-name="M" unicode="M" horiz-adv-x="860" 
d="M430 228l296 490c7 3 15 3 22 0v-716s-2 -2 -8 -2s-7 2 -7 2v647l1 56l-293 -488c-7 -3 -15 -3 -22 0l-293 488l1 -56v-647s-1 -2 -7 -2s-8 2 -8 2v716c7 3 15 3 22 0z" />
    <glyph glyph-name="N" unicode="N" horiz-adv-x="688" 
d="M561 2l-436 693l2 -116v-577s-4 -2 -8 -2s-7 2 -7 2v716s3 2 8 2s7 -2 7 -2l389 -616l48 -78s-3 41 -3 107v587s2 2 8 2c4 0 7 -2 7 -2v-716s-3 -2 -7 -2c-6 0 -8 2 -8 2z" />
    <glyph glyph-name="Nacute" unicode="&#x143;" horiz-adv-x="688" 
d="M315 769l124 152c6 -1 8 -5 11 -10l-125 -150c-5 1 -8 4 -10 8zM561 2l-436 693l2 -116v-577s-4 -2 -8 -2s-7 2 -7 2v716s3 2 8 2s7 -2 7 -2l389 -616l48 -78s-3 41 -3 107v587s2 2 8 2c4 0 7 -2 7 -2v-716s-3 -2 -7 -2c-6 0 -8 2 -8 2z" />
    <glyph glyph-name="Ncaron" unicode="&#x147;" horiz-adv-x="688" 
d="M561 2l-436 693l2 -116v-577s-4 -2 -8 -2s-7 2 -7 2v716s3 2 8 2s7 -2 7 -2l389 -616l48 -78s-3 41 -3 107v587s2 2 8 2c4 0 7 -2 7 -2v-716s-3 -2 -7 -2c-6 0 -8 2 -8 2zM344 772l-127 101c1 4 3 8 8 10l126 -98l123 98c5 -1 8 -5 8 -10l-125 -101h-13z" />
    <glyph glyph-name="Ncommaaccent" unicode="&#x145;" horiz-adv-x="688" 
d="M327 -149l-8 6s24 30 24 62c-4 0 -10 2 -10 2v20s3 2 12 2c8 0 12 -2 12 -2v-17c0 -44 -30 -73 -30 -73zM561 2l-436 693l2 -116v-577s-4 -2 -8 -2s-7 2 -7 2v716s3 2 8 2s7 -2 7 -2l389 -616l48 -78s-3 41 -3 107v587s2 2 8 2c4 0 7 -2 7 -2v-716s-3 -2 -7 -2
c-6 0 -8 2 -8 2z" />
    <glyph glyph-name="Ntilde" unicode="&#xd1;" horiz-adv-x="688" 
d="M561 2l-436 693l2 -116v-577s-4 -2 -8 -2s-7 2 -7 2v716s3 2 8 2s7 -2 7 -2l389 -616l48 -78s-3 41 -3 107v587s2 2 8 2c4 0 7 -2 7 -2v-716s-3 -2 -7 -2c-6 0 -8 2 -8 2zM401 802c31 0 42 23 46 33c5 -1 9 -3 12 -7c0 0 -12 -41 -60 -41c-45 0 -67 40 -105 40
c-37 0 -46 -34 -46 -34c-6 1 -9 2 -12 6c0 0 10 43 61 43c38 0 59 -40 104 -40z" />
    <glyph glyph-name="O" unicode="O" horiz-adv-x="678" 
d="M79 360c0 260 97 370 260 370s260 -111 260 -370s-98 -370 -260 -370s-260 111 -260 370zM584 360c0 252 -96 355 -245 355c-150 0 -245 -103 -245 -355s95 -355 245 -355c149 0 245 103 245 355z" />
    <glyph glyph-name="OE" unicode="&#x152;" horiz-adv-x="812" 
d="M78 360c0 259 109 370 277 370c36 0 67 -7 84 -10h306c2 -4 2 -11 0 -15h-301v-332h261c2 -4 2 -11 0 -15h-261v-343h311c2 -7 2 -10 0 -15h-317c-17 -5 -45 -10 -83 -10c-168 0 -277 110 -277 370zM429 707c-15 4 -39 8 -74 8c-155 0 -262 -103 -262 -355
s107 -355 262 -355c33 0 60 5 74 9v693z" />
    <glyph glyph-name="Oacute" unicode="&#xd3;" horiz-adv-x="678" 
d="M79 360c0 260 97 370 260 370s260 -111 260 -370s-98 -370 -260 -370s-260 111 -260 370zM584 360c0 252 -96 355 -245 355c-150 0 -245 -103 -245 -355s95 -355 245 -355c149 0 245 103 245 355zM294 773l129 148c6 -1 8 -5 10 -10l-130 -146c-5 1 -8 4 -9 8z" />
    <glyph glyph-name="Obreve" unicode="&#x14e;" horiz-adv-x="678" 
d="M79 360c0 260 97 370 260 370s260 -111 260 -370s-98 -370 -260 -370s-260 111 -260 370zM584 360c0 252 -96 355 -245 355c-150 0 -245 -103 -245 -355s95 -355 245 -355c149 0 245 103 245 355zM340 806c67 0 103 35 115 48c5 -3 7 -5 9 -10c0 0 -42 -52 -124 -52
s-124 52 -124 52c2 5 4 8 9 9c10 -10 48 -47 115 -47z" />
    <glyph glyph-name="Ocircumflex" unicode="&#xd4;" horiz-adv-x="678" 
d="M79 360c0 260 97 370 260 370s260 -111 260 -370s-98 -370 -260 -370s-260 111 -260 370zM584 360c0 252 -96 355 -245 355c-150 0 -245 -103 -245 -355s95 -355 245 -355c149 0 245 103 245 355zM216 777c-5 2 -7 6 -8 10l127 101h13l125 -101c0 -5 -3 -9 -8 -10
l-123 98z" />
    <glyph glyph-name="Odieresis" unicode="&#xd6;" horiz-adv-x="678" 
d="M79 360c0 260 97 370 260 370s260 -111 260 -370s-98 -370 -260 -370s-260 111 -260 370zM584 360c0 252 -96 355 -245 355c-150 0 -245 -103 -245 -355s95 -355 245 -355c149 0 245 103 245 355zM284 833v-20s-5 -4 -14 -4c-8 0 -14 4 -14 4v20s6 4 14 4
c9 0 14 -4 14 -4zM418 833v-20s-5 -4 -14 -4c-8 0 -14 4 -14 4v20s6 4 14 4c9 0 14 -4 14 -4z" />
    <glyph glyph-name="Ograve" unicode="&#xd2;" horiz-adv-x="678" 
d="M79 360c0 260 97 370 260 370s260 -111 260 -370s-98 -370 -260 -370s-260 111 -260 370zM584 360c0 252 -96 355 -245 355c-150 0 -245 -103 -245 -355s95 -355 245 -355c149 0 245 103 245 355zM259 912c2 5 4 8 10 10l129 -148c-1 -4 -4 -7 -9 -8z" />
    <glyph glyph-name="Ohungarumlaut" unicode="&#x150;" horiz-adv-x="678" 
d="M257 787l88 122c11 -1 15 -3 20 -11l-95 -118c-8 0 -13 1 -13 7zM383 787l89 122c11 -1 14 -3 21 -11l-97 -118c-7 0 -11 1 -13 7zM79 360c0 260 97 370 260 370s260 -111 260 -370s-98 -370 -260 -370s-260 111 -260 370zM584 360c0 252 -96 355 -245 355
c-150 0 -245 -103 -245 -355s95 -355 245 -355c149 0 245 103 245 355z" />
    <glyph glyph-name="Omacron" unicode="&#x14c;" horiz-adv-x="678" 
d="M213 827h249c2 -5 2 -9 0 -15h-249c-2 5 -2 10 0 15zM79 360c0 260 97 370 260 370s260 -111 260 -370s-98 -370 -260 -370s-260 111 -260 370zM584 360c0 252 -96 355 -245 355c-150 0 -245 -103 -245 -355s95 -355 245 -355c149 0 245 103 245 355z" />
    <glyph glyph-name="Omega" unicode="&#x2126;" horiz-adv-x="707" 
d="M434 16h203c3 -2 3 -4 3 -8c0 -3 -2 -7 -3 -8h-223c-4 4 -4 15 0 20c59 36 194 164 194 360c0 220 -87 335 -255 335s-255 -115 -255 -335c0 -188 134 -318 194 -360c5 -3 5 -16 0 -20h-223c-1 1 -3 5 -3 8c0 4 1 6 3 8h206c-11 5 -193 136 -193 364
c0 230 93 350 271 350s271 -120 271 -350c0 -223 -158 -344 -190 -364z" />
    <glyph glyph-name="Oslash" unicode="&#xd8;" horiz-adv-x="678" 
d="M565 750l-50 -90c54 -59 84 -157 84 -300c0 -259 -98 -370 -260 -370c-66 0 -121 18 -164 58l-49 -89c-5 0 -9 3 -12 7l51 92c-55 59 -86 157 -86 302c0 260 97 370 260 370c68 0 124 -19 166 -60l48 86c5 -1 9 -3 12 -6zM339 715c-150 0 -245 -103 -245 -355
c0 -138 29 -232 79 -288l324 583c-41 41 -95 60 -158 60zM183 62c41 -39 94 -57 156 -57c149 0 245 103 245 355c0 136 -28 229 -77 285z" />
    <glyph glyph-name="Oslashacute" unicode="&#x1fe;" horiz-adv-x="678" 
d="M565 750l-50 -90c54 -59 84 -157 84 -300c0 -259 -98 -370 -260 -370c-66 0 -121 18 -164 58l-49 -89c-5 0 -9 3 -12 7l51 92c-55 59 -86 157 -86 302c0 260 97 370 260 370c68 0 124 -19 166 -60l48 86c5 -1 9 -3 12 -6zM339 715c-150 0 -245 -103 -245 -355
c0 -138 29 -232 79 -288l324 583c-41 41 -95 60 -158 60zM183 62c41 -39 94 -57 156 -57c149 0 245 103 245 355c0 136 -28 229 -77 285zM298 771l124 152c6 -1 8 -5 11 -10l-125 -150c-5 1 -8 4 -10 8z" />
    <glyph glyph-name="Otilde" unicode="&#xd5;" horiz-adv-x="676" 
d="M78 360c0 260 97 370 260 370s260 -111 260 -370s-98 -370 -260 -370s-260 111 -260 370zM583 360c0 252 -96 355 -245 355c-150 0 -245 -103 -245 -355s95 -355 245 -355c149 0 245 103 245 355zM393 802c31 0 42 23 46 33c5 -1 9 -3 12 -7c0 0 -12 -41 -60 -41
c-45 0 -67 40 -105 40c-37 0 -46 -34 -46 -34c-6 1 -9 2 -12 6c0 0 10 43 61 43c38 0 59 -40 104 -40z" />
    <glyph glyph-name="P" unicode="P" horiz-adv-x="596" 
d="M127 317v-315s-2 -2 -8 -2c-5 0 -7 2 -7 2v718h241c116 0 184 -75 184 -202c0 -126 -68 -201 -184 -201h-226zM127 332h227c106 0 168 69 168 185c0 118 -62 188 -168 188h-227v-373z" />
    <glyph glyph-name="Q" unicode="Q" horiz-adv-x="676" 
d="M598 360c0 -161 -38 -265 -106 -321c37 -42 89 -66 124 -75c0 -6 -1 -10 -5 -14c-39 7 -96 40 -129 79c-40 -26 -88 -39 -144 -39c-171 0 -260 127 -260 370s89 370 260 370s260 -127 260 -370zM338 715c-161 0 -245 -122 -245 -355s84 -355 245 -355
c149 0 245 103 245 355c0 233 -84 355 -245 355z" />
    <glyph glyph-name="R" unicode="R" horiz-adv-x="612" 
d="M112 720h235c117 0 185 -77 185 -193c0 -103 -55 -175 -152 -191l172 -334s-5 -2 -9 -2c-6 0 -8 2 -8 2l-170 332h-238v-332s-2 -2 -8 -2c-5 0 -7 2 -7 2v718zM127 705v-356h222c101 0 168 67 168 178s-67 178 -168 178h-222z" />
    <glyph glyph-name="Racute" unicode="&#x154;" horiz-adv-x="612" 
d="M112 720h235c117 0 185 -77 185 -193c0 -103 -55 -175 -152 -191l172 -334s-5 -2 -9 -2c-6 0 -8 2 -8 2l-170 332h-238v-332s-2 -2 -8 -2c-5 0 -7 2 -7 2v718zM127 705v-356h222c101 0 168 67 168 178s-67 178 -168 178h-222zM235 768l124 152c6 -1 8 -5 11 -10
l-125 -150c-5 1 -8 4 -10 8z" />
    <glyph glyph-name="Rcaron" unicode="&#x158;" horiz-adv-x="612" 
d="M112 720h235c117 0 185 -77 185 -193c0 -103 -55 -175 -152 -191l172 -334s-5 -2 -9 -2c-6 0 -8 2 -8 2l-170 332h-238v-332s-2 -2 -8 -2c-5 0 -7 2 -7 2v718zM127 705v-356h222c101 0 168 67 168 178s-67 178 -168 178h-222zM279 774l-127 101c1 4 3 8 8 10l126 -98
l123 98c5 -1 8 -5 8 -10l-125 -101h-13z" />
    <glyph glyph-name="Rcommaaccent" unicode="&#x156;" horiz-adv-x="612" 
d="M112 720h235c117 0 185 -77 185 -193c0 -103 -55 -175 -152 -191l172 -334s-5 -2 -9 -2c-6 0 -8 2 -8 2l-170 332h-238v-332s-2 -2 -8 -2c-5 0 -7 2 -7 2v718zM127 705v-356h222c101 0 168 67 168 178s-67 178 -168 178h-222zM306 -138l-8 6s24 30 24 62
c-4 0 -10 2 -10 2v20s3 2 12 2c8 0 12 -2 12 -2v-17c0 -44 -30 -73 -30 -73z" />
    <glyph glyph-name="S" unicode="S" 
d="M72 545c0 114 80 185 220 185c106 0 175 -23 175 -23c0 -6 -1 -10 -5 -14c0 0 -79 23 -169 23c-139 0 -206 -70 -206 -171c0 -120 83 -147 195 -175c101 -25 211 -57 211 -192c0 -117 -87 -188 -228 -188c-117 0 -193 36 -193 36c0 4 3 11 6 14c0 0 80 -35 182 -35
c134 0 218 61 218 173c0 124 -95 151 -197 177c-108 27 -209 57 -209 190z" />
    <glyph glyph-name="Sacute" unicode="&#x15a;" 
d="M72 545c0 114 80 185 220 185c106 0 175 -23 175 -23c0 -6 -1 -10 -5 -14c0 0 -79 23 -169 23c-139 0 -206 -70 -206 -171c0 -120 83 -147 195 -175c101 -25 211 -57 211 -192c0 -117 -87 -188 -228 -188c-117 0 -193 36 -193 36c0 4 3 11 6 14c0 0 80 -35 182 -35
c134 0 218 61 218 173c0 124 -95 151 -197 177c-108 27 -209 57 -209 190zM243 781l124 150c6 -1 8 -5 11 -10l-125 -148c-5 1 -8 4 -10 8z" />
    <glyph glyph-name="Scaron" unicode="&#x160;" 
d="M72 545c0 114 80 185 220 185c106 0 175 -23 175 -23c0 -6 -1 -10 -5 -14c0 0 -79 23 -169 23c-139 0 -206 -70 -206 -171c0 -120 83 -147 195 -175c101 -25 211 -57 211 -192c0 -117 -87 -188 -228 -188c-117 0 -193 36 -193 36c0 4 3 11 6 14c0 0 80 -35 182 -35
c134 0 218 61 218 173c0 124 -95 151 -197 177c-108 27 -209 57 -209 190zM288 786l-127 101c1 4 3 8 8 10l126 -98l123 98c5 -1 8 -5 8 -10l-125 -101h-13z" />
    <glyph glyph-name="Scedilla" unicode="&#x15e;" 
d="M282 370c101 -25 211 -57 211 -192c0 -114 -83 -185 -218 -188l-7 -50c78 2 112 -33 112 -78c0 -59 -33 -94 -106 -94c-36 0 -63 10 -88 27c1 5 4 8 8 11c22 -14 46 -24 81 -24c54 0 91 22 91 80c0 43 -34 66 -87 66h-20l-5 6l9 56c-116 0 -191 36 -191 36c0 4 3 11 6 14
c0 0 80 -35 182 -35c134 0 218 61 218 173c0 124 -95 151 -197 177c-108 27 -209 57 -209 190c0 114 80 185 220 185c106 0 175 -23 175 -23c0 -6 -1 -10 -5 -14c0 0 -79 23 -169 23c-139 0 -206 -70 -206 -171c0 -120 83 -147 195 -175z" />
    <glyph glyph-name="Scircumflex" unicode="&#x15c;" 
d="M72 545c0 114 80 185 220 185c106 0 175 -23 175 -23c0 -6 -1 -10 -5 -14c0 0 -79 23 -169 23c-139 0 -206 -70 -206 -171c0 -120 83 -147 195 -175c101 -25 211 -57 211 -192c0 -117 -87 -188 -228 -188c-117 0 -193 36 -193 36c0 4 3 11 6 14c0 0 80 -35 182 -35
c134 0 218 61 218 173c0 124 -95 151 -197 177c-108 27 -209 57 -209 190zM167 779c-5 2 -7 6 -8 10l127 101h13l125 -101c0 -5 -3 -9 -8 -10l-123 98z" />
    <glyph glyph-name="Scommaaccent" unicode="&#x218;" 
d="M72 545c0 114 80 185 220 185c106 0 175 -23 175 -23c0 -6 -1 -10 -5 -14c0 0 -79 23 -169 23c-139 0 -206 -70 -206 -171c0 -120 83 -147 195 -175c101 -25 211 -57 211 -192c0 -117 -87 -188 -228 -188c-117 0 -193 36 -193 36c0 4 3 11 6 14c0 0 80 -35 182 -35
c134 0 218 61 218 173c0 124 -95 151 -197 177c-108 27 -209 57 -209 190zM264 -171l-8 6s24 30 24 62c-4 0 -10 2 -10 2v20s3 2 12 2c8 0 12 -2 12 -2v-17c0 -44 -30 -73 -30 -73z" />
    <glyph glyph-name="T" unicode="T" horiz-adv-x="525" 
d="M37 720h451s2 0 2 -7c0 -6 -2 -8 -2 -8h-215v-703s-2 -2 -8 -2c-4 0 -7 2 -7 2v703h-221s-2 3 -2 8c0 6 2 7 2 7z" />
    <glyph glyph-name="Tbar" unicode="&#x166;" horiz-adv-x="534" 
d="M277 352h129c2 -5 2 -10 0 -15h-129v-335s-2 -2 -8 -2c-5 0 -8 2 -8 2v335h-128c-2 5 -2 10 0 15h128v353h-220s-2 3 -2 8c0 6 2 7 2 7h451s2 0 2 -7c0 -6 -2 -8 -2 -8h-215v-353z" />
    <glyph glyph-name="Tcaron" unicode="&#x164;" horiz-adv-x="525" 
d="M37 720h451s2 0 2 -7c0 -6 -2 -8 -2 -8h-215v-703s-2 -2 -8 -2c-5 0 -7 2 -7 2v703h-221s-2 3 -2 8c0 6 2 7 2 7zM260 774l-127 101c1 4 3 8 8 10l126 -98l123 98c5 -1 8 -5 8 -10l-125 -101h-13z" />
    <glyph glyph-name="Thorn" unicode="&#xde;" horiz-adv-x="598" 
d="M112 718c0 0 1 2 8 2s7 -2 7 -2v-151h225c116 0 185 -73 185 -196c0 -121 -69 -193 -185 -193h-225v-176s0 -2 -7 -2s-8 2 -8 2v716zM127 552v-359h227c106 0 168 66 168 177c0 114 -62 182 -168 182h-227z" />
    <glyph glyph-name="U" unicode="U" horiz-adv-x="662" 
d="M556 718v-502c0 -142 -84 -226 -226 -226c-141 0 -224 84 -224 226v502s2 2 7 2c6 0 8 -2 8 -2v-503c0 -132 78 -210 210 -210s210 78 210 210v503s4 2 7 2c5 0 8 -2 8 -2z" />
    <glyph glyph-name="Uacute" unicode="&#xda;" horiz-adv-x="662" 
d="M556 718v-502c0 -142 -84 -226 -226 -226c-141 0 -224 84 -224 226v502s3 2 8 2c6 0 7 -2 7 -2v-503c0 -132 78 -210 210 -210s210 78 210 210v503s3 2 6 2c5 0 9 -2 9 -2zM281 768l124 152c6 -1 8 -5 11 -10l-125 -150c-5 1 -8 4 -10 8z" />
    <glyph glyph-name="Ubreve" unicode="&#x16c;" horiz-adv-x="662" 
d="M556 718v-502c0 -142 -84 -226 -226 -226c-141 0 -224 84 -224 226v502s3 2 8 2c6 0 7 -2 7 -2v-503c0 -132 78 -210 210 -210s210 78 210 210v503s3 2 6 2c5 0 9 -2 9 -2zM324 806c67 0 103 35 115 48c5 -3 7 -5 9 -10c0 0 -42 -52 -124 -52s-124 52 -124 52
c2 5 4 8 9 9c10 -10 48 -47 115 -47z" />
    <glyph glyph-name="Ucircumflex" unicode="&#xdb;" horiz-adv-x="662" 
d="M556 718v-502c0 -142 -84 -226 -226 -226c-141 0 -224 84 -224 226v502s3 2 8 2c6 0 7 -2 7 -2v-503c0 -132 78 -210 210 -210s210 78 210 210v503s3 2 6 2c5 0 9 -2 9 -2zM204 776c-5 2 -7 6 -8 10l127 101h13l125 -101c0 -5 -3 -9 -8 -10l-123 98z" />
    <glyph glyph-name="Udieresis" unicode="&#xdc;" horiz-adv-x="662" 
d="M556 718v-502c0 -142 -84 -226 -226 -226c-141 0 -224 84 -224 226v502s3 2 8 2c6 0 7 -2 7 -2v-503c0 -132 78 -210 210 -210s210 78 210 210v503s3 2 6 2c5 0 9 -2 9 -2zM277 839v-20s-5 -4 -14 -4c-8 0 -14 4 -14 4v20s6 4 14 4c9 0 14 -4 14 -4zM411 839v-20
s-5 -4 -14 -4c-8 0 -14 4 -14 4v20s6 4 14 4c9 0 14 -4 14 -4z" />
    <glyph glyph-name="Ugrave" unicode="&#xd9;" horiz-adv-x="662" 
d="M556 718v-502c0 -142 -84 -226 -226 -226c-141 0 -224 84 -224 226v502s3 2 8 2c6 0 7 -2 7 -2v-503c0 -132 78 -210 210 -210s210 78 210 210v503s3 2 6 2c5 0 9 -2 9 -2zM242 920c3 5 5 8 11 10l124 -152c-2 -4 -5 -7 -10 -8z" />
    <glyph glyph-name="Uhungarumlaut" unicode="&#x170;" horiz-adv-x="662" 
d="M352 895l-94 -113c-7 0 -10 3 -11 8l85 114c10 -1 14 -3 20 -9zM468 895l-94 -113c-7 0 -10 3 -11 8l85 114c10 -1 14 -3 20 -9zM556 718v-502c0 -142 -84 -226 -226 -226c-141 0 -224 84 -224 226v502s3 2 8 2c6 0 7 -2 7 -2v-503c0 -132 78 -210 210 -210
s210 78 210 210v503s3 2 6 2c5 0 9 -2 9 -2z" />
    <glyph glyph-name="Umacron" unicode="&#x16a;" horiz-adv-x="662" 
d="M556 718v-502c0 -142 -84 -226 -226 -226c-141 0 -224 84 -224 226v502s3 2 8 2c6 0 7 -2 7 -2v-503c0 -132 78 -210 210 -210s210 78 210 210v503s3 2 6 2c5 0 9 -2 9 -2zM453 821h-245c-2 5 -2 10 0 15h245c2 -5 2 -9 0 -15z" />
    <glyph glyph-name="Uogonek" unicode="&#x172;" horiz-adv-x="662" 
d="M541 718c0 0 3 2 6 2c5 0 9 -2 9 -2v-502c0 -111 -51 -187 -142 -214c-48 -22 -88 -65 -88 -114c0 -37 24 -51 63 -51c27 0 46 12 46 12c4 -4 5 -6 6 -11c0 0 -19 -15 -54 -15c-48 0 -76 23 -76 62c0 45 28 84 67 109c-14 -2 -32 -4 -48 -4c-141 0 -224 84 -224 226v502
s3 2 8 2c6 0 7 -2 7 -2v-503c0 -132 78 -210 210 -210s210 78 210 210v503z" />
    <glyph glyph-name="Uring" unicode="&#x16e;" horiz-adv-x="662" 
d="M556 718v-502c0 -142 -84 -226 -226 -226c-141 0 -224 84 -224 226v502s3 2 8 2c6 0 7 -2 7 -2v-503c0 -132 78 -210 210 -210s210 78 210 210v503s3 2 6 2c5 0 9 -2 9 -2zM328 775c-59 0 -103 35 -103 99s51 97 104 97c52 0 105 -32 105 -97c0 -64 -48 -99 -106 -99z
M419 874c0 43 -30 83 -91 83c-60 0 -88 -41 -88 -83c0 -43 28 -86 88 -86c61 0 91 44 91 86z" />
    <glyph glyph-name="Utilde" unicode="&#x168;" horiz-adv-x="662" 
d="M556 718v-502c0 -142 -84 -226 -226 -226c-141 0 -224 84 -224 226v502s3 2 8 2c6 0 7 -2 7 -2v-503c0 -132 78 -210 210 -210s210 78 210 210v503s3 2 6 2c5 0 9 -2 9 -2zM388 814c31 0 42 23 46 33c5 -1 9 -3 12 -7c0 0 -12 -41 -60 -41c-45 0 -67 40 -105 40
c-37 0 -46 -34 -46 -34c-6 1 -9 2 -12 6c0 0 10 43 61 43c38 0 59 -40 104 -40z" />
    <glyph glyph-name="V" unicode="V" horiz-adv-x="597" 
d="M46 718l252 -683h1l251 683s2 2 9 2s7 -2 7 -2l-266 -722c-1 -1 -2 -1 -3 0l-267 723s2 1 8 1c4 0 8 -2 8 -2z" />
    <glyph glyph-name="W" unicode="W" horiz-adv-x="938" 
d="M684 -4l-192 618c-16 50 -18 71 -18 71h-1s-3 -21 -19 -71l-193 -618c-1 -1 -2 -1 -3 0l-224 722s2 2 8 2c5 0 8 -2 8 -2l188 -609c16 -52 22 -77 22 -77h1s5 25 21 77l188 609s1 2 3 2s3 -2 3 -2l188 -609c16 -51 21 -79 21 -79h1s5 29 19 79l176 609s0 2 9 2
c6 0 7 -2 7 -2l-210 -722c-1 -1 -2 -1 -3 0z" />
    <glyph glyph-name="Wacute" unicode="&#x1e82;" horiz-adv-x="938" 
d="M684 -4l-192 618c-16 50 -18 71 -18 71h-1s-3 -21 -19 -71l-193 -618c-1 -1 -2 -1 -3 0l-224 722s2 2 8 2c5 0 8 -2 8 -2l188 -609c16 -52 22 -77 22 -77h1s5 25 21 77l188 609s1 2 3 2s3 -2 3 -2l188 -609c16 -51 21 -79 21 -79h1s5 29 19 79l176 609s0 2 9 2
c6 0 7 -2 7 -2l-210 -722c-1 -1 -2 -1 -3 0zM420 774l124 152c6 -1 8 -5 11 -10l-125 -150c-5 1 -8 4 -10 8z" />
    <glyph glyph-name="Wcircumflex" unicode="&#x174;" horiz-adv-x="938" 
d="M347 778c-5 2 -7 6 -8 10l127 101h13l125 -101c0 -5 -3 -9 -8 -10l-123 98zM684 -4l-192 618c-16 50 -18 71 -18 71h-1s-3 -21 -19 -71l-193 -618c-1 -1 -2 -1 -3 0l-224 722s2 2 8 2c5 0 8 -2 8 -2l188 -609c16 -52 22 -77 22 -77h1s5 25 21 77l188 609s1 2 3 2
s3 -2 3 -2l188 -609c16 -51 21 -79 21 -79h1s5 29 19 79l176 609s0 2 9 2c6 0 7 -2 7 -2l-210 -722c-1 -1 -2 -1 -3 0z" />
    <glyph glyph-name="Wdieresis" unicode="&#x1e84;" horiz-adv-x="938" 
d="M684 -4l-192 618c-16 50 -18 71 -18 71h-1s-3 -21 -19 -71l-193 -618c-1 -1 -2 -1 -3 0l-224 722s2 2 8 2c5 0 8 -2 8 -2l188 -609c16 -52 22 -77 22 -77h1s5 25 21 77l188 609s1 2 3 2s3 -2 3 -2l188 -609c16 -51 21 -79 21 -79h1s5 29 19 79l176 609s0 2 9 2
c6 0 7 -2 7 -2l-210 -722c-1 -1 -2 -1 -3 0zM420 829v-20s-5 -4 -14 -4c-8 0 -14 4 -14 4v20s6 4 14 4c9 0 14 -4 14 -4zM554 829v-20s-5 -4 -14 -4c-8 0 -14 4 -14 4v20s6 4 14 4c9 0 14 -4 14 -4z" />
    <glyph glyph-name="Wgrave" unicode="&#x1e80;" horiz-adv-x="938" 
d="M684 -4l-192 618c-16 50 -18 71 -18 71h-1s-3 -21 -19 -71l-193 -618c-1 -1 -2 -1 -3 0l-224 722s2 2 8 2c5 0 8 -2 8 -2l188 -609c16 -52 22 -77 22 -77h1s5 25 21 77l188 609s1 2 3 2s3 -2 3 -2l188 -609c16 -51 21 -79 21 -79h1s5 29 19 79l176 609s0 2 9 2
c6 0 7 -2 7 -2l-210 -722c-1 -1 -2 -1 -3 0zM374 919c3 5 5 8 11 10l124 -152c-2 -4 -5 -7 -10 -8z" />
    <glyph glyph-name="X" unicode="X" horiz-adv-x="569" 
d="M290 366l238 -365s-3 -1 -9 -1c-5 0 -9 2 -9 2l-229 350l-219 -350c-3 -2 -7 -2 -11 -2c-2 0 -5 1 -7 2l229 364l-229 352s2 2 9 2c6 0 9 -2 9 -2l220 -339l222 339c7 3 14 3 19 0z" />
    <glyph glyph-name="Y" unicode="Y" horiz-adv-x="609" 
d="M565 718c0 0 2 2 9 2c9 0 9 -2 9 -2l-272 -412v-304s-3 -2 -8 -2c-4 0 -7 2 -7 2v303l-264 413s3 2 10 2c6 0 8 -2 8 -2l254 -398z" />
    <glyph glyph-name="Yacute" unicode="&#xdd;" horiz-adv-x="609" 
d="M565 718c0 0 2 2 9 2c9 0 9 -2 9 -2l-272 -412v-304s-3 -2 -8 -2c-4 0 -7 2 -7 2v303l-264 413s3 2 10 2c6 0 8 -2 8 -2l253 -396zM263 771l124 152c6 -1 8 -5 11 -10l-125 -150c-5 1 -8 4 -10 8z" />
    <glyph glyph-name="Ycircumflex" unicode="&#x176;" horiz-adv-x="609" 
d="M183 780c-5 2 -7 6 -8 10l127 101h13l125 -101c0 -5 -3 -9 -8 -10l-123 98zM565 718c0 0 2 2 9 2c9 0 9 -2 9 -2l-272 -412v-304s-3 -2 -8 -2c-4 0 -7 2 -7 2v303l-264 413s3 2 10 2c6 0 8 -2 8 -2l253 -396z" />
    <glyph glyph-name="Ydieresis" unicode="&#x178;" horiz-adv-x="609" 
d="M565 718c0 0 2 2 9 2c9 0 9 -2 9 -2l-272 -412v-304s-3 -2 -8 -2c-4 0 -7 2 -7 2v303l-264 413s3 2 10 2c6 0 8 -2 8 -2l253 -396zM250 837v-20s-5 -4 -14 -4c-8 0 -14 4 -14 4v20s6 4 14 4c9 0 14 -4 14 -4zM384 837v-20s-5 -4 -14 -4c-8 0 -14 4 -14 4v20s6 4 14 4
c9 0 14 -4 14 -4z" />
    <glyph glyph-name="Ygrave" unicode="&#x1ef2;" horiz-adv-x="609" 
d="M565 718c0 0 2 2 9 2c9 0 9 -2 9 -2l-272 -412v-304s-3 -2 -8 -2c-4 0 -7 2 -7 2v303l-264 413s3 2 10 2c6 0 8 -2 8 -2l253 -396zM209 911c3 5 5 8 11 10l124 -152c-2 -4 -5 -7 -10 -8z" />
    <glyph glyph-name="Z" unicode="Z" horiz-adv-x="568" 
d="M72 720h433c2 -5 2 -11 0 -16l-443 -689h456c-1 3 2 1 2 -8s-3 -11 -2 -7h-473c-2 5 -2 11 0 16l443 689h-416c1 -4 -2 -2 -2 6c0 10 3 12 2 9z" />
    <glyph glyph-name="Zacute" unicode="&#x179;" horiz-adv-x="568" 
d="M72 720h433c2 -5 2 -11 0 -16l-443 -689h456c-1 3 2 1 2 -8s-3 -11 -2 -7h-473c-2 5 -2 11 0 16l443 689h-416c1 -4 -2 -2 -2 6c0 10 3 12 2 9zM250 785l124 152c6 -1 8 -5 11 -10l-125 -150c-5 1 -8 4 -10 8z" />
    <glyph glyph-name="Zcaron" unicode="&#x17d;" horiz-adv-x="568" 
d="M72 720h433c2 -5 2 -11 0 -16l-443 -689h456c-1 3 2 1 2 -8s-3 -11 -2 -7h-473c-2 5 -2 11 0 16l443 689h-416c1 -4 -2 -2 -2 6c0 10 3 12 2 9zM288 774l-127 101c1 4 3 8 8 10l126 -98l123 98c5 -1 8 -5 8 -10l-125 -101h-13z" />
    <glyph glyph-name="Zdotaccent" unicode="&#x17b;" horiz-adv-x="568" 
d="M280 831c0 0 5 1 15 1c11 0 15 -1 15 -1v-28s-4 -1 -15 -1c-10 0 -15 1 -15 1v28zM72 720h433c2 -5 2 -11 0 -16l-443 -689h456c-1 3 2 1 2 -8s-3 -11 -2 -7h-473c-2 5 -2 11 0 16l443 689h-416c1 -4 -2 -2 -2 6c0 10 3 12 2 9z" />
    <glyph glyph-name="_0020" horiz-adv-x="0" 
 />
    <glyph glyph-name="_375" horiz-adv-x="646" 
d="M335 718l276 -701c-2 -7 -6 -13 -11 -17h-551c-6 4 -11 11 -13 17l281 701c8 5 18 0 18 0zM597 15l-271 691l-276 -691h547z" />
    <glyph glyph-name="_376" horiz-adv-x="700" 
d="M430 16h203c3 -2 3 -4 3 -8c0 -3 -2 -7 -3 -8h-223c-4 4 -4 15 0 20c59 36 194 164 194 360c0 220 -87 335 -255 335s-255 -115 -255 -335c0 -188 134 -318 194 -360c5 -3 5 -16 0 -20h-223c-1 1 -3 5 -3 8c0 4 1 6 3 8h206c-11 5 -193 136 -193 364
c0 230 93 350 271 350s271 -120 271 -350c0 -223 -158 -344 -190 -364z" />
    <glyph glyph-name="a" unicode="a" horiz-adv-x="511" 
d="M98 509c0 0 78 27 160 27c110 0 161 -48 161 -169v-366c-4 -2 -9 -2 -13 0v134c-20 -88 -104 -145 -193 -145c-102 0 -155 54 -155 147c0 89 62 151 182 151c60 0 126 -6 165 -11v90c0 106 -37 155 -149 155c-83 0 -152 -27 -152 -27c-4 2 -6 9 -6 14zM405 265
c-38 6 -102 11 -161 11c-110 0 -172 -52 -172 -139c0 -83 47 -133 136 -133c109 0 197 74 197 205v56z" />
    <glyph glyph-name="aacute" unicode="&#xe1;" horiz-adv-x="511" 
d="M201 621l124 152c6 -1 8 -5 11 -10l-125 -150c-5 1 -8 4 -10 8zM98 509c0 0 78 27 160 27c110 0 161 -48 161 -169v-366c-4 -2 -10 -2 -14 0l1 133c-23 -86 -104 -144 -193 -144c-102 0 -155 50 -155 147c0 96 54 151 182 151c60 0 126 -6 165 -11v90
c0 106 -37 155 -149 155c-83 0 -152 -27 -152 -27c-4 2 -6 9 -6 14zM405 265c-38 6 -102 10 -161 10c-118 0 -172 -44 -172 -138c0 -87 47 -133 136 -133c109 0 197 74 197 205v56z" />
    <glyph glyph-name="abreve" unicode="&#x103;" horiz-adv-x="511" 
d="M252 654c67 0 103 35 115 48c5 -3 7 -5 9 -10c0 0 -42 -52 -124 -52s-124 52 -124 52c2 5 4 8 9 9c10 -10 48 -47 115 -47zM98 509c0 0 78 27 160 27c110 0 161 -48 161 -169v-366c-4 -2 -10 -2 -14 0l1 133c-23 -86 -104 -144 -193 -144c-102 0 -155 50 -155 147
c0 96 54 151 182 151c60 0 126 -6 165 -11v90c0 106 -37 155 -149 155c-83 0 -152 -27 -152 -27c-4 2 -6 9 -6 14zM405 265c-38 6 -102 10 -161 10c-118 0 -172 -44 -172 -138c0 -87 47 -133 136 -133c109 0 197 74 197 205v56z" />
    <glyph glyph-name="acircumflex" unicode="&#xe2;" horiz-adv-x="511" 
d="M125 609c-5 2 -7 6 -8 10l127 101h13l125 -101c0 -5 -3 -9 -8 -10l-123 98zM98 509c0 0 78 27 160 27c110 0 161 -48 161 -169v-366c-4 -2 -10 -2 -14 0l1 133c-23 -86 -104 -144 -193 -144c-102 0 -155 50 -155 147c0 96 54 151 182 151c60 0 126 -6 165 -11v90
c0 106 -37 155 -149 155c-83 0 -152 -27 -152 -27c-4 2 -6 9 -6 14zM405 265c-38 6 -102 10 -161 10c-118 0 -172 -44 -172 -138c0 -87 47 -133 136 -133c109 0 197 74 197 205v56z" />
    <glyph glyph-name="acute" unicode="&#xb4;" horiz-adv-x="224" 
d="M38 653l124 152c6 -1 8 -5 11 -10l-125 -150c-5 1 -8 4 -10 8z" />
    <glyph glyph-name="adieresis" unicode="&#xe4;" horiz-adv-x="511" 
d="M98 509c0 0 78 27 160 27c110 0 161 -48 161 -169v-366c-4 -2 -10 -2 -14 0l1 133c-23 -86 -104 -144 -193 -144c-102 0 -155 50 -155 147c0 96 54 151 182 151c60 0 126 -6 165 -11v90c0 106 -37 155 -149 155c-83 0 -152 -27 -152 -27c-4 2 -6 9 -6 14zM405 265
c-38 6 -102 10 -161 10c-118 0 -172 -44 -172 -138c0 -87 47 -133 136 -133c109 0 197 74 197 205v56zM196 701v-18s-4 -3 -12 -3c-7 0 -12 3 -12 3v18s5 3 12 3c8 0 12 -3 12 -3zM330 701v-18s-4 -3 -12 -3c-7 0 -12 3 -12 3v18s5 3 12 3c8 0 12 -3 12 -3z" />
    <glyph glyph-name="ae" unicode="&#xe6;" horiz-adv-x="784" 
d="M402 408c29 86 88 128 162 128c110 0 157 -82 157 -179c0 -52 -11 -88 -11 -88h-311c5 -174 58 -264 164 -264c81 0 121 43 121 43c6 -2 9 -5 11 -11c0 0 -44 -47 -133 -47c-74 0 -136 43 -163 146c-1 6 -3 26 -4 32c-1 -6 -3 -26 -4 -31c-29 -101 -100 -147 -193 -147
c-82 0 -140 55 -140 147c0 90 49 147 170 147h156v80c0 117 -49 157 -139 157c-78 0 -141 -26 -141 -26c-6 3 -8 9 -6 14c0 0 67 27 149 27c89 0 138 -39 150 -128v-22c1 5 4 17 5 22zM706 360c0 84 -39 161 -142 161c-89 0 -162 -68 -165 -237h300s7 31 7 76zM384 269h-152
c-111 0 -159 -43 -159 -132c0 -88 50 -132 125 -132c104 0 186 68 186 205v59z" />
    <glyph glyph-name="aeacute" unicode="&#x1fd;" horiz-adv-x="784" 
d="M402 408c29 86 88 128 162 128c110 0 157 -82 157 -179c0 -52 -11 -88 -11 -88h-311c5 -174 58 -264 164 -264c81 0 121 43 121 43c6 -2 9 -5 11 -11c0 0 -44 -47 -133 -47c-74 0 -136 43 -163 146c-1 6 -3 26 -4 32c-1 -6 -3 -26 -4 -31c-29 -101 -100 -147 -193 -147
c-82 0 -140 55 -140 147c0 90 49 147 170 147h156v80c0 117 -49 157 -139 157c-78 0 -141 -26 -141 -26c-6 3 -8 9 -6 14c0 0 67 27 149 27c89 0 138 -39 150 -128v-22c1 5 4 17 5 22zM706 360c0 84 -39 161 -142 161c-89 0 -162 -68 -165 -237h300s7 31 7 76zM384 269h-152
c-111 0 -159 -43 -159 -132c0 -88 50 -132 125 -132c104 0 186 68 186 205v59zM347 619l124 152c6 -1 8 -5 11 -10l-125 -150c-5 1 -8 4 -10 8z" />
    <glyph glyph-name="agrave" unicode="&#xe0;" horiz-adv-x="511" 
d="M98 509c0 0 78 27 160 27c110 0 161 -48 161 -169v-366c-4 -2 -10 -2 -14 0l1 133c-23 -86 -104 -144 -193 -144c-102 0 -155 50 -155 147c0 96 54 151 182 151c60 0 126 -6 165 -11v90c0 106 -37 155 -149 155c-83 0 -152 -27 -152 -27c-4 2 -6 9 -6 14zM405 265
c-38 6 -102 10 -161 10c-118 0 -172 -44 -172 -138c0 -87 47 -133 136 -133c109 0 197 74 197 205v56zM147 763c3 5 5 8 11 10l124 -152c-2 -4 -5 -7 -10 -8z" />
    <glyph glyph-name="amacron" unicode="&#x101;" horiz-adv-x="511" 
d="M98 509c0 0 78 27 160 27c110 0 161 -48 161 -169v-366c-4 -2 -10 -2 -14 0l1 133c-23 -86 -104 -144 -193 -144c-102 0 -155 50 -155 147c0 96 54 151 182 151c60 0 126 -6 165 -11v90c0 106 -37 155 -149 155c-83 0 -152 -27 -152 -27c-4 2 -6 9 -6 14zM405 265
c-38 6 -102 10 -161 10c-118 0 -172 -44 -172 -138c0 -87 47 -133 136 -133c109 0 197 74 197 205v56zM384 675h-255c-2 5 -2 10 0 15h255c2 -5 2 -9 0 -15z" />
    <glyph glyph-name="ampersand" unicode="&#x26;" horiz-adv-x="630" 
d="M459 88c41 -27 84 -54 136 -74c1 -7 -1 -11 -6 -15c-48 19 -99 48 -141 77c-51 -50 -120 -86 -208 -86c-94 0 -182 50 -182 168c0 103 70 156 150 198c-22 53 -34 104 -34 155c0 113 56 179 152 179c85 0 128 -60 128 -118c0 -127 -121 -169 -226 -223
c47 -102 121 -183 218 -252c46 49 77 112 88 175c7 -1 11 -4 15 -10c-13 -58 -43 -122 -90 -174zM322 674c-83 0 -132 -60 -132 -161c0 -50 11 -101 31 -150c103 53 217 94 217 207c0 63 -44 104 -116 104zM215 342c-76 -40 -141 -89 -141 -185s70 -152 167 -152
c78 0 144 32 194 80c-96 71 -172 155 -220 257z" />
    <glyph glyph-name="aogonek" unicode="&#x105;" horiz-adv-x="511" 
d="M405 265c-38 6 -102 10 -161 10c-118 0 -172 -44 -172 -138c0 -87 47 -133 136 -133c109 0 197 74 197 205v56zM386 -167c27 0 46 12 46 12c4 -4 5 -6 6 -11c0 0 -19 -15 -54 -15c-48 0 -76 23 -76 62c0 58 43 103 97 126l1 127c-23 -86 -104 -144 -193 -144
c-102 0 -155 50 -155 147c0 96 54 151 182 151c60 0 126 -6 165 -11v90c0 106 -37 155 -149 155c-83 0 -152 -27 -152 -27c-4 2 -6 9 -6 14c0 0 78 27 160 27c110 0 161 -48 161 -169v-366c-53 -22 -96 -66 -96 -117c0 -37 24 -51 63 -51z" />
    <glyph glyph-name="approxequal" unicode="&#x2248;" horiz-adv-x="534" 
d="M186 231c-52 0 -84 -42 -84 -42c-6 0 -10 3 -11 9c0 0 35 48 96 48c66 0 94 -61 157 -61c57 0 86 40 86 40c6 0 10 -2 12 -7c0 0 -34 -48 -99 -48c-66 0 -94 61 -157 61zM186 376c-52 0 -84 -42 -84 -42c-6 0 -10 3 -11 9c0 0 35 48 96 48c66 0 94 -61 157 -61
c57 0 86 40 86 40c6 0 10 -2 12 -7c0 0 -34 -48 -99 -48c-66 0 -94 61 -157 61z" />
    <glyph glyph-name="aring" unicode="&#xe5;" horiz-adv-x="511" 
d="M98 509c0 0 78 27 160 27c110 0 161 -48 161 -169v-366c-4 -2 -10 -2 -14 0l1 133c-23 -86 -104 -144 -193 -144c-102 0 -155 50 -155 147c0 96 54 151 182 151c60 0 126 -6 165 -11v90c0 106 -37 155 -149 155c-83 0 -152 -27 -152 -27c-4 2 -6 9 -6 14zM405 265
c-38 6 -102 10 -161 10c-118 0 -172 -44 -172 -138c0 -87 47 -133 136 -133c109 0 197 74 197 205v56zM254 604c-59 0 -103 35 -103 99s51 97 104 97c52 0 105 -32 105 -97c0 -64 -48 -99 -106 -99zM345 703c0 43 -30 83 -91 83c-60 0 -88 -41 -88 -83c0 -43 28 -86 88 -86
c61 0 91 44 91 86z" />
    <glyph glyph-name="aringacute" unicode="&#x1fb;" horiz-adv-x="511" 
d="M98 509c0 0 78 27 160 27c110 0 161 -48 161 -169v-366c-4 -2 -10 -2 -14 0l1 133c-23 -86 -104 -144 -193 -144c-102 0 -155 50 -155 147c0 96 54 151 182 151c60 0 126 -6 165 -11v90c0 106 -37 155 -149 155c-83 0 -152 -27 -152 -27c-4 2 -6 9 -6 14zM405 265
c-38 6 -102 10 -161 10c-118 0 -172 -44 -172 -138c0 -87 47 -133 136 -133c109 0 197 74 197 205v56zM255 578c-56 0 -98 32 -98 93s48 90 99 90c50 0 100 -28 100 -90c0 -61 -46 -93 -101 -93zM342 671c0 41 -29 77 -87 77c-57 0 -84 -37 -84 -77c0 -41 27 -80 84 -80
c58 0 87 40 87 80zM204 793l118 98c5 -1 7 -6 9 -11l-119 -96c-4 1 -7 5 -8 9z" />
    <glyph glyph-name="arrowdown" unicode="&#x2193;" horiz-adv-x="490" 
d="M251 127l179 178c6 -2 9 -5 10 -10l-196 -196l-196 196c2 5 4 8 11 10l177 -177v471c-3 -1 1 1 8 1s10 -2 7 -1v-472z" />
    <glyph glyph-name="arrowleft" unicode="&#x2190;" horiz-adv-x="620" 
d="M253 546c5 -1 8 -4 10 -10l-178 -179h472c-1 3 1 0 1 -7s-2 -11 -1 -8h-471l177 -177c-2 -7 -5 -9 -10 -11l-196 196z" />
    <glyph glyph-name="arrowright" unicode="&#x2192;" horiz-adv-x="620" 
d="M535 357l-178 179c2 6 5 9 10 10l196 -196l-196 -196c-5 2 -8 4 -10 11l177 177h-471c1 -3 -1 1 -1 8s2 10 1 7h472z" />
    <glyph glyph-name="arrowup" unicode="&#x2191;" horiz-adv-x="492" 
d="M442 404c-1 -5 -4 -8 -10 -10l-179 178v-472c3 1 0 -1 -7 -1s-11 2 -8 1v471l-177 -177c-7 2 -9 5 -11 10l196 196z" />
    <glyph glyph-name="asciicircum" unicode="^" horiz-adv-x="518" 
d="M270 718l177 -264c-7 -3 -12 -3 -19 0l-169 252l-169 -252c-6 -3 -13 -3 -19 0l178 264s1 2 10 2c10 0 11 -2 11 -2z" />
    <glyph glyph-name="asciitilde" unicode="~" horiz-adv-x="534" 
d="M187 335c-52 0 -84 -42 -84 -42c-6 0 -10 3 -11 9c0 0 35 48 96 48c66 0 94 -61 157 -61c57 0 86 40 86 40c6 0 10 -2 12 -7c0 0 -34 -48 -99 -48c-66 0 -94 61 -157 61z" />
    <glyph glyph-name="asterisk" unicode="*" horiz-adv-x="372" 
d="M178 607v91c5 2 9 2 15 0v-91l92 28c4 -4 5 -6 5 -13l-94 -29l60 -82c-3 -3 -5 -6 -11 -8l-60 81l-59 -82c-5 2 -9 4 -12 8l60 83l-92 29c0 7 1 9 4 13z" />
    <glyph glyph-name="at" unicode="@" horiz-adv-x="917" 
d="M839 303c0 -143 -52 -218 -153 -218c-41 0 -90 26 -98 100c-16 -56 -61 -100 -129 -100c-106 0 -161 66 -161 193s55 194 161 194c65 0 108 -42 125 -86v83c8 4 15 0 15 0v-249c0 -87 38 -120 89 -120c89 0 136 70 136 203c0 218 -137 362 -368 362
c-207 0 -367 -149 -367 -386c0 -238 132 -379 356 -379c121 0 215 35 287 91c5 -2 8 -5 9 -11c-85 -65 -181 -95 -296 -95c-233 0 -371 146 -371 394c0 243 161 401 382 401c249 0 383 -159 383 -377zM313 278c0 -117 49 -178 144 -178c80 0 125 66 127 128v96
c1 65 -44 133 -127 133c-95 0 -144 -61 -144 -179z" />
    <glyph glyph-name="atilde" unicode="&#xe3;" horiz-adv-x="511" 
d="M98 509c0 0 78 27 160 27c110 0 161 -48 161 -169v-366c-4 -2 -10 -2 -14 0l1 133c-23 -86 -104 -144 -193 -144c-102 0 -155 50 -155 147c0 96 54 151 182 151c60 0 126 -6 165 -11v90c0 106 -37 155 -149 155c-83 0 -152 -27 -152 -27c-4 2 -6 9 -6 14zM405 265
c-38 6 -102 10 -161 10c-118 0 -172 -44 -172 -138c0 -87 47 -133 136 -133c109 0 197 74 197 205v56zM311 663c31 0 42 23 46 33c5 -1 9 -3 12 -7c0 0 -12 -41 -60 -41c-45 0 -67 40 -105 40c-37 0 -46 -34 -46 -34c-6 1 -9 2 -12 6c0 0 10 43 61 43c38 0 59 -40 104 -40z
" />
    <glyph glyph-name="b" unicode="b" horiz-adv-x="555" 
d="M111 748v-340c34 82 105 128 181 128c126 0 192 -94 192 -273s-68 -273 -199 -273c-83 0 -147 57 -174 133v-121s-1 -2 -7 -2s-8 2 -8 2v746s2 2 8 2c5 0 7 -2 7 -2zM469 263c0 170 -61 258 -178 258c-103 0 -177 -94 -180 -179v-142c0 -87 65 -195 173 -195
c122 0 185 88 185 258z" />
    <glyph glyph-name="backslash" unicode="\" horiz-adv-x="406" 
d="M42 747l337 -791c-5 -2 -11 -2 -16 0l-337 791c5 2 11 2 16 0z" />
    <glyph glyph-name="bar" unicode="|" horiz-adv-x="235" 
d="M110 788c5 2 10 2 15 0v-983s-1 -2 -7 -2s-8 2 -8 2v983z" />
    <glyph glyph-name="braceleft" unicode="{" horiz-adv-x="330" 
d="M255 810h32c2 -5 2 -10 0 -15h-31c-83 0 -119 -47 -119 -120v-258c0 -42 -5 -71 -31 -83c26 -13 31 -40 31 -82v-258c0 -74 36 -120 119 -120h31c2 -5 2 -10 0 -15h-32c-89 0 -133 53 -133 133v264c0 46 -12 71 -42 71h-37c-2 5 -2 10 0 15h37c30 0 42 24 42 69v266
c0 80 44 133 133 133z" />
    <glyph glyph-name="braceright" unicode="}" horiz-adv-x="330" 
d="M43 795c-2 5 -2 10 0 15h32c89 0 133 -53 133 -133v-266c0 -45 12 -69 42 -69h37c2 -5 2 -10 0 -15h-37c-30 0 -42 -25 -42 -71v-264c0 -80 -44 -133 -133 -133h-32c-2 5 -2 10 0 15h31c83 0 119 46 119 120v258c0 42 5 69 31 82c-26 12 -31 41 -31 83v258
c0 73 -36 120 -119 120h-31z" />
    <glyph glyph-name="bracketleft" unicode="[" horiz-adv-x="302" 
d="M110 810h150c2 -5 2 -10 0 -15h-135v-950h135c2 -5 2 -10 0 -15h-150v980z" />
    <glyph glyph-name="bracketright" unicode="]" horiz-adv-x="302" 
d="M42 795c-2 5 -2 10 0 15h150v-980h-150c-2 5 -2 10 0 15h135v950h-135z" />
    <glyph glyph-name="breve" unicode="&#x2d8;" horiz-adv-x="324" 
d="M160 650c67 0 103 35 115 48c5 -3 7 -5 9 -10c0 0 -42 -52 -124 -52s-124 52 -124 52c2 5 4 8 9 9c10 -10 48 -47 115 -47z" />
    <glyph glyph-name="brokenbar" unicode="&#xa6;" horiz-adv-x="200" 
d="M92 385v443s2 2 8 2s8 -2 8 -2v-443s-2 -2 -8 -2s-8 2 -8 2zM92 -265v445s2 2 8 2s8 -2 8 -2v-445s-2 -2 -8 -2s-8 2 -8 2z" />
    <glyph glyph-name="bullet" unicode="&#x2022;" horiz-adv-x="270" 
d="M158 282c0 -13 -9 -21 -23 -21c-13 0 -23 8 -23 21c0 14 10 22 23 22c14 0 23 -8 23 -22z" />
    <glyph glyph-name="c" unicode="c" horiz-adv-x="446" 
d="M277 521c-126 0 -192 -88 -192 -258s66 -258 192 -258c67 0 111 27 111 27c5 -2 8 -8 9 -13c0 0 -46 -29 -121 -29c-135 0 -206 94 -206 273s70 273 203 273c71 0 111 -22 111 -22c0 -6 -3 -11 -7 -13c0 0 -38 20 -100 20z" />
    <glyph glyph-name="cacute" unicode="&#x107;" horiz-adv-x="446" 
d="M277 521c-126 0 -192 -88 -192 -258s66 -258 192 -258c67 0 111 27 111 27c5 -2 8 -8 9 -13c0 0 -46 -29 -121 -29c-135 0 -206 94 -206 273s70 273 203 273c71 0 111 -22 111 -22c0 -6 -3 -11 -7 -13c0 0 -38 20 -100 20zM211 604l118 145c6 -1 8 -5 11 -10l-119 -143
c-5 1 -8 4 -10 8z" />
    <glyph glyph-name="caron" unicode="&#x2c7;" horiz-adv-x="404" 
d="M192 550l-127 101c1 4 3 8 8 10l126 -98l123 98c5 -1 8 -5 8 -10l-125 -101h-13z" />
    <glyph glyph-name="ccaron" unicode="&#x10d;" horiz-adv-x="446" 
d="M277 521c-126 0 -192 -88 -192 -258s66 -258 192 -258c67 0 111 27 111 27c5 -2 8 -8 9 -13c0 0 -46 -29 -121 -29c-135 0 -206 94 -206 273s70 273 203 273c71 0 111 -22 111 -22c0 -6 -3 -11 -7 -13c0 0 -38 20 -100 20zM261 603l-127 101c1 4 3 8 8 10l126 -98l123 98
c5 -1 8 -5 8 -10l-125 -101h-13z" />
    <glyph glyph-name="ccedilla" unicode="&#xe7;" horiz-adv-x="446" 
d="M261 -10l-11 -55c60 2 98 -28 98 -75c0 -56 -31 -89 -101 -89c-34 0 -60 9 -84 26c1 4 4 7 8 10c21 -13 44 -23 77 -23c52 0 87 21 87 76c0 45 -39 62 -75 62h-20l-4 6l12 63c-117 13 -178 106 -178 272c0 179 70 273 203 273c71 0 111 -22 111 -22c0 -6 -3 -11 -7 -13
c0 0 -38 20 -100 20c-126 0 -192 -88 -192 -258s66 -258 192 -258c67 0 111 27 111 27c5 -2 8 -8 9 -13c0 0 -46 -29 -121 -29h-15z" />
    <glyph glyph-name="ccircumflex" unicode="&#x109;" horiz-adv-x="446" 
d="M277 521c-126 0 -192 -88 -192 -258s66 -258 192 -258c67 0 111 27 111 27c5 -2 8 -8 9 -13c0 0 -46 -29 -121 -29c-135 0 -206 94 -206 273s70 273 203 273c71 0 111 -22 111 -22c0 -6 -3 -11 -7 -13c0 0 -38 20 -100 20zM143 605c-5 2 -7 6 -8 10l127 101h13l125 -101
c0 -5 -3 -9 -8 -10l-123 98z" />
    <glyph glyph-name="cdotaccent" unicode="&#x10b;" horiz-adv-x="446" 
d="M277 521c-126 0 -192 -88 -192 -258s66 -258 192 -258c67 0 111 27 111 27c5 -2 8 -8 9 -13c0 0 -46 -29 -121 -29c-135 0 -206 94 -206 273s70 273 203 273c71 0 111 -22 111 -22c0 -6 -3 -11 -7 -13c0 0 -38 20 -100 20zM275 703v-20s-5 -4 -14 -4c-8 0 -14 4 -14 4v20
s6 4 14 4c9 0 14 -4 14 -4z" />
    <glyph glyph-name="cedilla" unicode="&#xb8;" horiz-adv-x="296" 
d="M138 36l-12 -72c84 2 122 -28 122 -77c0 -59 -33 -96 -106 -96c-36 0 -63 10 -88 27c1 5 4 8 8 11c22 -14 46 -24 81 -24c54 0 91 24 91 82c0 47 -39 64 -98 64h-20l-5 6l13 79h14z" />
    <glyph glyph-name="cent" unicode="&#xa2;" horiz-adv-x="465" 
d="M393 33c5 -2 8 -9 9 -14c0 0 -47 -28 -122 -29l2 -91c-7 -4 -9 -3 -10 -3s-3 -1 -9 3l2 91c-119 2 -190 103 -190 273c0 172 66 266 190 273l-2 91c7 2 9 2 10 2s3 0 9 -2l-2 -91c71 -2 109 -22 109 -22c0 -6 -2 -11 -7 -14c0 0 -38 20 -100 20
c-126 0 -192 -88 -192 -257c0 -161 62 -256 187 -256c67 0 116 26 116 26z" />
    <glyph glyph-name="circumflex" unicode="&#x2c6;" horiz-adv-x="396" 
d="M72 562c-5 2 -7 6 -8 10l127 101h13l125 -101c0 -5 -3 -9 -8 -10l-123 98z" />
    <glyph glyph-name="colon" unicode=":" horiz-adv-x="204" 
d="M116 21v-20s-5 -4 -14 -4c-8 0 -14 4 -14 4v20s6 4 14 4c9 0 14 -4 14 -4zM116 418v-20s-5 -4 -14 -4c-8 0 -14 4 -14 4v20s6 4 14 4c9 0 14 -4 14 -4z" />
    <glyph glyph-name="comma" unicode="," horiz-adv-x="178" 
d="M71 -70l-8 6s24 30 24 62c-4 0 -10 2 -10 2v20s3 2 12 2c8 0 12 -2 12 -2v-17c0 -44 -30 -73 -30 -73z" />
    <glyph glyph-name="commaaccentcomb" unicode="&#xf6c3;" horiz-adv-x="0" 
d="M70 -70l-8 6s24 30 24 62c-4 0 -10 2 -10 2v20s3 2 12 2c8 0 12 -2 12 -2v-17c0 -44 -30 -73 -30 -73z" />
    <glyph glyph-name="commaaccentcomb.alt" horiz-adv-x="0" 
d="M94 699l8 -6s-24 -30 -24 -62c4 0 10 -2 10 -2v-20s-3 -2 -12 -2c-8 0 -12 2 -12 2v17c0 44 30 73 30 73z" />
    <glyph glyph-name="copyright" unicode="&#xa9;" horiz-adv-x="811" 
d="M406 8c-183 0 -332 149 -332 332s149 331 332 331s331 -148 331 -331s-148 -332 -331 -332zM406 656c-175 0 -318 -141 -318 -316s143 -318 318 -318s316 143 316 318s-141 316 -316 316zM406 147c-111 0 -164 72 -164 200c0 131 53 199 164 199c66 0 99 -22 99 -22
c0 -4 -3 -10 -7 -12c0 0 -40 20 -87 20c-108 0 -154 -57 -154 -185c0 -121 48 -185 152 -185c51 0 94 20 94 20c3 -2 6 -6 7 -12c0 0 -35 -23 -104 -23z" />
    <glyph glyph-name="currency" unicode="&#xa4;" horiz-adv-x="586" 
d="M494 57l-75 75c-33 -29 -77 -47 -125 -47c-49 0 -93 18 -126 47l-74 -75s-4 -1 -9 6c-6 4 -5 8 -5 8l75 74c-30 33 -47 77 -47 126c0 48 17 93 48 126l-76 74s0 5 5 9c6 4 9 4 9 4l76 -73c33 28 76 46 124 46c47 0 91 -17 124 -47l73 74s2 0 9 -4c4 -4 5 -9 5 -9l-73 -74
c31 -34 48 -78 48 -126c0 -49 -17 -93 -48 -126l75 -74s0 -3 -4 -8c-5 -6 -9 -6 -9 -6zM294 441c-95 0 -170 -74 -170 -170s75 -170 170 -170c96 0 170 74 170 170s-74 170 -170 170z" />
    <glyph glyph-name="d" unicode="d" horiz-adv-x="555" 
d="M263 536c81 0 147 -43 181 -129v341s2 2 7 2c6 0 8 -2 8 -2v-746s-2 -2 -8 -2s-7 2 -7 2v121c-27 -76 -83 -133 -174 -133c-131 0 -199 94 -199 273s66 273 192 273zM444 341c-3 85 -72 180 -180 180c-117 0 -178 -88 -178 -258s63 -258 185 -258c116 0 173 108 173 195
v141z" />
    <glyph glyph-name="dagger" unicode="&#x2020;" horiz-adv-x="597" 
d="M297 -123l-11 10l4 560l-247 -3s-4 3 -4 9c0 5 4 8 4 8l247 -2l-4 239s3 3 11 3c7 0 10 -3 10 -3l-4 -239l252 2s2 -2 2 -8s-2 -9 -2 -9l-252 3l4 -560z" />
    <glyph glyph-name="daggerdbl" unicode="&#x2021;" horiz-adv-x="644" 
d="M329 132l247 3s3 -1 3 -9c0 -6 -3 -8 -3 -8l-247 3l4 -240s0 -3 -11 -3c-9 0 -10 3 -10 3l4 240l-246 -3s-2 1 -2 8c0 8 2 9 2 9l246 -3l-4 157l4 158l-247 -3s-3 1 -3 9c0 7 3 9 3 9l247 -3l-4 239s0 3 11 3c9 0 10 -3 10 -3l-4 -239l246 3s2 -1 2 -9s-2 -9 -2 -9
l-246 3l4 -158z" />
    <glyph glyph-name="dcaron" unicode="&#x10f;" horiz-adv-x="565" 
d="M519 611c40 34 54 84 50 140c7 2 14 2 17 0c3 -48 -14 -113 -56 -145c-6 -1 -10 1 -11 5zM263 536c88 0 152 -42 181 -130v342s2 2 7 2c6 0 8 -2 8 -2v-746s-2 -2 -8 -2s-7 2 -7 2v121c-27 -76 -83 -133 -174 -133c-131 0 -199 94 -199 273s66 273 192 273zM444 340
c-3 85 -62 181 -180 181c-117 0 -178 -88 -178 -258s63 -258 185 -258c116 0 173 108 173 195v140z" />
    <glyph glyph-name="dcroat" unicode="&#x111;" horiz-adv-x="555" 
d="M459 653h75c2 -5 2 -10 0 -15h-75v-636s-2 -2 -8 -2s-7 2 -7 2v121c-27 -76 -83 -133 -174 -133c-131 0 -199 94 -199 273s66 273 192 273c81 0 147 -43 181 -129v231h-152c-2 5 -2 10 0 15h152v95s2 2 7 2c6 0 8 -2 8 -2v-95zM444 200v141c-3 85 -72 180 -180 180
c-117 0 -178 -88 -178 -258s63 -258 185 -258c116 0 173 108 173 195z" />
    <glyph glyph-name="degree" unicode="&#xb0;" horiz-adv-x="367" 
d="M68 617c0 57 40 117 117 117c76 0 113 -58 113 -114c0 -57 -37 -115 -113 -115c-80 0 -117 56 -117 112zM283 619c0 51 -32 100 -99 100s-101 -51 -101 -101s32 -98 101 -98c67 0 99 48 99 99z" />
    <glyph glyph-name="dieresis" unicode="&#xa8;" horiz-adv-x="455" 
d="M171 639v-20s-5 -4 -14 -4c-8 0 -14 4 -14 4v20s6 4 14 4c9 0 14 -4 14 -4zM305 639v-20s-5 -4 -14 -4c-8 0 -14 4 -14 4v20s6 4 14 4c9 0 14 -4 14 -4z" />
    <glyph glyph-name="divide" unicode="&#xf7;" horiz-adv-x="559" 
d="M466 283h-373c-2 5 -2 10 0 15h373c2 -5 2 -10 0 -15zM294 459v-20s-5 -4 -14 -4c-8 0 -14 4 -14 4v20s6 4 14 4c9 0 14 -4 14 -4zM294 141v-20s-5 -4 -14 -4c-8 0 -14 4 -14 4v20s6 4 14 4c9 0 14 -4 14 -4z" />
    <glyph glyph-name="dollar" unicode="$" horiz-adv-x="555" 
d="M84 501c0 -224 406 -88 406 -329c0 -99 -79 -164 -207 -170l2 -123s-3 -2 -9 -2c-8 0 -10 2 -10 2l2 123c-122 -1 -200 32 -200 32c1 6 2 10 6 14c0 0 86 -30 183 -30c135 0 218 54 218 155c0 224 -406 89 -406 328c0 98 71 159 198 166l-2 118s4 2 10 2c7 0 11 -2 11 -2
l-4 -117c113 1 173 -19 173 -19c0 -6 -1 -11 -5 -15c0 0 -68 19 -159 19c-141 0 -207 -62 -207 -152z" />
    <glyph glyph-name="dotaccent" unicode="&#x2d9;" horiz-adv-x="176" 
d="M101 630v-20s-5 -4 -14 -4c-8 0 -14 4 -14 4v20s6 4 14 4c9 0 14 -4 14 -4z" />
    <glyph glyph-name="dotlessi" unicode="&#x131;" horiz-adv-x="214" 
d="M114 524v-522s-1 -2 -7 -2s-7 2 -7 2v522s1 2 7 2s7 -2 7 -2z" />
    <glyph glyph-name="dotlessj" unicode="&#x237;" horiz-adv-x="214" 
d="M100 -92v616c4 3 10 3 14 0v-615c0 -115 -46 -160 -122 -160c-24 0 -47 5 -67 16c0 5 2 9 5 12c18 -10 42 -14 62 -14c73 0 108 43 108 145z" />
    <glyph glyph-name="e" unicode="e" horiz-adv-x="508" 
d="M434 259h-348c5 -176 58 -254 183 -254c87 0 140 44 140 44c5 -1 9 -6 9 -11c0 0 -51 -48 -152 -48c-133 0 -195 95 -195 276c0 189 84 270 200 270c118 0 174 -82 174 -179c0 -61 -11 -98 -11 -98zM430 360c0 84 -48 161 -159 161s-182 -78 -185 -247h337
c0 -2 7 31 7 86z" />
    <glyph glyph-name="eacute" unicode="&#xe9;" horiz-adv-x="508" 
d="M434 259h-348c5 -176 58 -254 183 -254c87 0 140 44 140 44c5 -1 9 -6 9 -11c0 0 -51 -48 -152 -48c-133 0 -195 95 -195 276c0 189 84 270 200 270c118 0 174 -82 174 -179c0 -61 -11 -98 -11 -98zM430 360c0 84 -48 161 -159 161s-182 -78 -185 -247h337
c0 -2 7 31 7 86zM207 617l124 152c6 -1 8 -5 11 -10l-125 -150c-5 1 -8 4 -10 8z" />
    <glyph glyph-name="ebreve" unicode="&#x115;" horiz-adv-x="508" 
d="M434 259h-348c5 -176 58 -254 183 -254c87 0 140 44 140 44c5 -1 9 -6 9 -11c0 0 -51 -48 -152 -48c-133 0 -195 95 -195 276c0 189 84 270 200 270c118 0 174 -82 174 -179c0 -61 -11 -98 -11 -98zM430 360c0 84 -48 161 -159 161s-182 -78 -185 -247h337
c0 -2 7 31 7 86zM270 656c67 0 103 35 115 48c5 -3 7 -5 9 -10c0 0 -42 -52 -124 -52s-124 52 -124 52c2 5 4 8 9 9c10 -10 48 -47 115 -47z" />
    <glyph glyph-name="ecaron" unicode="&#x11b;" horiz-adv-x="509" 
d="M434 259h-348c5 -176 58 -254 183 -254c87 0 140 44 140 44c5 -1 9 -6 9 -11c0 0 -51 -48 -152 -48c-133 0 -195 95 -195 276c0 189 84 270 200 270c118 0 174 -82 174 -179c0 -61 -11 -98 -11 -98zM430 360c0 84 -48 161 -159 161s-182 -78 -185 -247h337
c0 -2 7 31 7 86zM263 602l-127 101c1 4 3 8 8 10l126 -98l123 98c5 -1 8 -5 8 -10l-125 -101h-13z" />
    <glyph glyph-name="ecircumflex" unicode="&#xea;" horiz-adv-x="508" 
d="M434 259h-348c5 -176 58 -254 183 -254c87 0 140 44 140 44c5 -1 9 -6 9 -11c0 0 -51 -48 -152 -48c-133 0 -195 95 -195 276c0 189 84 270 200 270c118 0 174 -82 174 -179c0 -61 -11 -98 -11 -98zM430 360c0 84 -48 161 -159 161s-182 -78 -185 -247h337
c0 -2 7 31 7 86zM147 601c-5 2 -7 6 -8 10l127 101h13l125 -101c0 -5 -3 -9 -8 -10l-123 98z" />
    <glyph glyph-name="edieresis" unicode="&#xeb;" horiz-adv-x="508" 
d="M434 259h-348c5 -176 58 -254 183 -254c87 0 140 44 140 44c5 -1 9 -6 9 -11c0 0 -51 -48 -152 -48c-133 0 -195 95 -195 276c0 189 84 270 200 270c118 0 174 -82 174 -179c0 -61 -11 -98 -11 -98zM430 360c0 84 -48 161 -159 161s-182 -78 -185 -247h337
c0 -2 7 31 7 86zM220 682v-20s-5 -4 -14 -4c-8 0 -14 4 -14 4v20s6 4 14 4c9 0 14 -4 14 -4zM354 682v-20s-5 -4 -14 -4c-8 0 -14 4 -14 4v20s6 4 14 4c9 0 14 -4 14 -4z" />
    <glyph glyph-name="edotaccent" unicode="&#x117;" horiz-adv-x="508" 
d="M290 695v-30s-5 -2 -17 -2c-11 0 -17 2 -17 2v30s6 2 17 2c12 0 17 -2 17 -2zM434 259h-348c5 -176 58 -254 183 -254c87 0 140 44 140 44c5 -1 9 -6 9 -11c0 0 -51 -48 -152 -48c-133 0 -195 95 -195 276c0 189 84 270 200 270c118 0 174 -82 174 -179
c0 -61 -11 -98 -11 -98zM430 360c0 84 -48 161 -159 161s-182 -78 -185 -247h337c0 -2 7 31 7 86z" />
    <glyph glyph-name="egrave" unicode="&#xe8;" horiz-adv-x="508" 
d="M434 259h-348c5 -176 58 -254 183 -254c87 0 140 44 140 44c5 -1 9 -6 9 -11c0 0 -51 -48 -152 -48c-133 0 -195 95 -195 276c0 189 84 270 200 270c118 0 174 -82 174 -179c0 -61 -11 -98 -11 -98zM430 360c0 84 -48 161 -159 161s-182 -78 -185 -247h337
c0 -2 7 31 7 86zM188 759c3 5 5 8 11 10l124 -152c-2 -4 -5 -7 -10 -8z" />
    <glyph glyph-name="eight" unicode="8" horiz-adv-x="581" 
d="M480 535c0 -110 -86 -171 -127 -194c83 -34 155 -81 155 -184c0 -105 -81 -167 -217 -167s-217 61 -217 164c0 126 110 200 150 224c-70 33 -127 77 -127 160c0 96 71 152 191 152c121 0 192 -58 192 -155zM288 675c-111 0 -176 -51 -176 -136c0 -117 119 -149 224 -191
c48 24 129 85 129 187c0 88 -66 140 -177 140zM89 155c0 -94 75 -150 202 -150s202 56 202 152c0 132 -131 162 -253 214c-32 -15 -151 -94 -151 -216z" />
    <glyph glyph-name="eight.denom" horiz-adv-x="320" 
d="M261 267c0 -47 -30 -78 -63 -96c41 -19 75 -43 75 -88c0 -55 -42 -88 -112 -88c-72 0 -114 33 -114 89c0 55 38 89 74 107c-35 18 -61 41 -61 80c0 48 37 77 100 77s101 -30 101 -81zM160 336c-55 0 -88 -24 -88 -65c0 -57 59 -74 114 -95c42 24 63 52 63 91
c0 43 -33 69 -89 69zM59 84c0 -48 38 -77 103 -77c62 0 99 27 99 74c0 63 -65 77 -129 105c-33 -18 -73 -47 -73 -102z" />
    <glyph glyph-name="eight.num" horiz-adv-x="320" 
d="M261 613c0 -47 -30 -78 -63 -96c41 -19 75 -43 75 -88c0 -55 -42 -88 -112 -88c-72 0 -114 33 -114 89c0 55 38 89 74 107c-35 18 -61 41 -61 80c0 48 37 77 100 77s101 -30 101 -81zM160 682c-55 0 -88 -24 -88 -65c0 -57 59 -74 114 -95c42 24 63 52 63 91
c0 43 -33 69 -89 69zM59 430c0 -48 38 -77 103 -77c62 0 99 27 99 74c0 63 -65 77 -129 105c-33 -18 -73 -47 -73 -102z" />
    <glyph glyph-name="eightinferior" unicode="&#x2088;" horiz-adv-x="320" 
d="M261 170c0 -47 -30 -78 -63 -96c41 -19 75 -43 75 -88c0 -55 -42 -88 -112 -88c-72 0 -114 33 -114 89c0 55 38 89 74 107c-35 18 -61 41 -61 80c0 48 37 77 100 77s101 -30 101 -81zM160 239c-55 0 -88 -24 -88 -65c0 -57 59 -74 114 -95c42 24 63 52 63 91
c0 43 -33 69 -89 69zM59 -13c0 -48 38 -77 103 -77c62 0 99 27 99 74c0 63 -65 77 -129 105c-33 -18 -73 -47 -73 -102z" />
    <glyph glyph-name="ellipsis" unicode="&#x2026;" horiz-adv-x="438" 
d="M104 21v-20s-5 -4 -14 -4c-8 0 -14 4 -14 4v20s6 4 14 4c9 0 14 -4 14 -4zM234 21v-20s-5 -4 -14 -4c-8 0 -14 4 -14 4v20s6 4 14 4c9 0 14 -4 14 -4zM362 21v-20s-5 -4 -14 -4c-8 0 -14 4 -14 4v20s6 4 14 4c9 0 14 -4 14 -4z" />
    <glyph glyph-name="emacron" unicode="&#x113;" horiz-adv-x="508" 
d="M434 259h-348c5 -176 58 -254 183 -254c87 0 140 44 140 44c5 -1 9 -6 9 -11c0 0 -51 -48 -152 -48c-133 0 -195 95 -195 276c0 189 84 270 200 270c118 0 174 -82 174 -179c0 -61 -11 -98 -11 -98zM430 360c0 84 -48 161 -159 161s-182 -78 -185 -247h337
c0 -2 7 31 7 86zM393 663h-235c-2 5 -2 10 0 15h235c2 -5 2 -9 0 -15z" />
    <glyph glyph-name="emdash" unicode="&#x2014;" horiz-adv-x="804" 
d="M713 281h-622c-2 5 -2 10 0 15h622c2 -5 2 -10 0 -15z" />
    <glyph glyph-name="endash" unicode="&#x2013;" horiz-adv-x="554" 
d="M463 281h-372c-2 5 -2 10 0 15h372c2 -5 2 -10 0 -15z" />
    <glyph glyph-name="eng" unicode="&#x14b;" horiz-adv-x="550" 
d="M110 403c43 90 112 133 197 133c93 0 151 -56 151 -147v-449c0 -83 -10 -139 -99 -168c-4 3 -5 9 -4 14c71 22 89 63 89 152v450c0 86 -53 134 -139 134c-75 0 -149 -37 -195 -150v-370c-4 -3 -10 -3 -14 0v522c4 3 10 3 14 0v-121z" />
    <glyph glyph-name="eogonek" unicode="&#x119;" horiz-adv-x="508" 
d="M271 536c118 0 174 -82 174 -179c0 -61 -11 -98 -11 -98h-348c5 -176 58 -254 183 -254c87 0 140 44 140 44c5 -1 9 -6 9 -11c0 0 -27 -26 -82 -40c-50 -21 -92 -57 -92 -108c0 -37 24 -51 63 -51c27 0 46 12 46 12c4 -4 5 -6 6 -11c0 0 -19 -15 -54 -15
c-48 0 -76 23 -76 62c0 47 28 81 67 105c-9 -1 -19 -2 -30 -2c-133 0 -195 95 -195 276c0 189 84 270 200 270zM86 274h337c0 -2 7 31 7 86c0 84 -48 161 -159 161s-182 -78 -185 -247z" />
    <glyph glyph-name="equal" unicode="=" horiz-adv-x="504" 
d="M92 362c-2 5 -2 10 0 15h320c2 -5 2 -10 0 -15h-320zM412 200h-320c-2 5 -2 10 0 15h320c2 -5 2 -10 0 -15z" />
    <glyph glyph-name="estimated" unicode="&#x212e;" horiz-adv-x="834" 
d="M612 95h67c-64 -68 -152 -105 -254 -105c-194 0 -352 158 -352 352s158 352 352 352s352 -158 352 -352v-24h-544v-218c55 -41 123 -67 192 -67c68 0 133 24 187 62zM617 583c-54 45 -122 68 -192 68c-69 0 -137 -23 -192 -67v-222h384v221z" />
    <glyph glyph-name="eth" unicode="&#xf0;" horiz-adv-x="550" 
d="M420 711l-78 -54c100 -94 134 -243 134 -408c0 -184 -75 -259 -205 -259c-131 0 -200 90 -200 262s69 262 195 262c99 0 165 -42 191 -146c-20 127 -64 219 -129 280l-97 -67c-5 3 -8 6 -9 13l94 64c-47 39 -103 63 -168 75c-2 6 -1 13 3 17c74 -15 133 -43 179 -82
l81 55c5 -2 8 -6 9 -12zM86 252c0 -162 63 -247 185 -247c128 0 189 77 189 246c0 187 -85 248 -195 248c-117 0 -179 -86 -179 -247z" />
    <glyph glyph-name="exclam" unicode="!" horiz-adv-x="226" 
d="M106 142v576c5 2 10 2 15 0l-2 -576c-4 -2 -9 -2 -13 0zM127 21v-20s-5 -4 -14 -4c-8 0 -14 4 -14 4v20s6 4 14 4c9 0 14 -4 14 -4z" />
    <glyph glyph-name="exclamdown" unicode="&#xa1;" horiz-adv-x="214" 
d="M115 -198c-5 -2 -10 -2 -15 0v577c4 2 9 2 13 0zM107 524c9 0 14 -4 14 -4v-20s-5 -4 -14 -4c-8 0 -14 4 -14 4v20s6 4 14 4z" />
    <glyph glyph-name="f" unicode="f" horiz-adv-x="342" 
d="M118 590c0 114 40 160 140 160c44 0 83 -10 83 -10c1 -5 0 -10 -3 -13c0 0 -34 8 -76 8c-97 0 -129 -41 -129 -144v-65h174c3 -6 0 -15 0 -15h-174v-509c-8 -5 -15 0 -15 0v509h-79c-4 8 0 15 0 15h79v64z" />
    <glyph glyph-name="five" unicode="5" horiz-adv-x="514" 
d="M115 364c20 4 51 10 104 10c162 0 227 -73 227 -196c0 -120 -70 -188 -238 -188c-99 0 -145 23 -145 23c-1 5 1 10 4 13c0 0 62 -22 137 -22c155 0 227 56 227 174c0 95 -38 181 -212 181c-56 0 -112 -11 -119 -13v334h317c2 -6 2 -9 0 -15h-302v-301z" />
    <glyph glyph-name="five.denom" horiz-adv-x="298" 
d="M76 331v-133c127 0 179 -29 179 -103c0 -66 -44 -100 -127 -100c-46 0 -82 11 -82 11c-1 3 -2 8 3 11c0 0 37 -10 80 -10c75 0 114 30 114 87c0 66 -46 92 -161 92h-18v157h172c2 -2 2 -9 0 -12h-160z" />
    <glyph glyph-name="five.num" horiz-adv-x="297" 
d="M75 677v-133c127 0 179 -29 179 -103c0 -66 -44 -100 -127 -100c-46 0 -82 11 -82 11c-1 3 -2 8 3 11c0 0 37 -10 80 -10c75 0 114 30 114 87c0 66 -46 92 -161 92h-18v157h172c2 -2 2 -9 0 -12h-160z" />
    <glyph glyph-name="fiveeighths" unicode="&#x215d;" horiz-adv-x="738" 
d="M554 700c0 0 2 2 6 2c5 0 5 -2 5 -2l-388 -709s-1 -1 -6 -1c-6 0 -7 1 -7 1zM85 689h166c2 -2 2 -10 0 -13h-153v-132c105 0 172 -18 172 -103c0 -70 -51 -100 -127 -100c-46 0 -82 11 -82 11c-1 3 -2 8 3 11c0 0 37 -10 80 -10c85 0 114 33 114 87c0 70 -49 90 -155 90
h-18v159zM465 271c0 45 32 77 101 77c63 0 101 -28 101 -81c0 -48 -30 -78 -64 -96c41 -18 76 -40 76 -88c0 -54 -42 -88 -112 -88c-66 0 -114 29 -114 89c0 56 39 89 74 108c-35 17 -62 39 -62 79zM654 267c0 44 -32 68 -89 68c-55 0 -87 -24 -87 -62c0 -57 56 -74 111 -97
c37 24 65 52 65 91zM667 81c0 61 -67 78 -127 105c-26 -15 -75 -47 -75 -102c0 -54 39 -77 103 -77c55 0 99 24 99 74z" />
    <glyph glyph-name="fiveinferior" unicode="&#x2085;" horiz-adv-x="298" 
d="M76 235v-133c127 0 179 -29 179 -103c0 -66 -44 -100 -127 -100c-46 0 -82 11 -82 11c-1 3 -2 8 3 11c0 0 37 -10 80 -10c75 0 114 30 114 87c0 66 -46 92 -161 92h-18v157h172c2 -2 2 -9 0 -12h-160z" />
    <glyph glyph-name="florin" unicode="&#x192;" horiz-adv-x="418" 
d="M325 691c44 0 75 -13 75 -13c1 -5 0 -9 -5 -13c0 0 -36 11 -70 11c-63 0 -100 -31 -110 -137l-10 -97h110c2 -5 2 -10 0 -15h-111l-42 -417c-12 -112 -58 -151 -128 -151c-36 0 -73 17 -73 17c-2 4 0 11 5 13c0 0 35 -15 67 -15c61 0 103 31 114 136l42 417h-105
c-2 5 -2 10 0 15h106l10 97c11 114 53 152 125 152z" />
    <glyph glyph-name="four" unicode="4" horiz-adv-x="570" 
d="M45 205l348 473s2 2 9 2c5 0 6 -2 6 -2v-473h113s2 -1 2 -8c0 -6 -2 -7 -2 -7h-113v-188s-2 -2 -8 -2c-7 0 -7 2 -7 2v188h-348s-2 1 -2 7c0 7 2 8 2 8zM393 652l-329 -447h329v447z" />
    <glyph glyph-name="four.denom" horiz-adv-x="309" 
d="M231 116h37c2 -5 2 -7 0 -12h-37v-103c-4 -2 -8 -2 -12 0v103h-183c-2 3 0 7 0 7l184 231c6 2 11 0 11 0v-226zM219 321l-165 -205h165v205z" />
    <glyph glyph-name="four.num" horiz-adv-x="309" 
d="M231 461h37c2 -5 2 -7 0 -12h-37v-103c-4 -2 -8 -2 -12 0v103h-183c-2 3 0 7 0 7l184 231c6 2 11 0 11 0v-226zM219 666l-165 -205h165v205z" />
    <glyph glyph-name="fourinferior" unicode="&#x2084;" horiz-adv-x="309" 
d="M231 21h37c2 -5 2 -7 0 -12h-37v-103c-4 -2 -8 -2 -12 0v103h-183c-2 3 0 7 0 7l184 231c6 2 11 0 11 0v-226zM219 226l-165 -205h165v205z" />
    <glyph glyph-name="fraction" unicode="&#x2044;" horiz-adv-x="120" 
d="M-145 -7l388 707c8 3 9 3 17 0l-388 -707c-7 -3 -10 -3 -17 0z" />
    <glyph glyph-name="g" unicode="g" horiz-adv-x="513" 
d="M351 511l125 23c3 -5 4 -7 2 -15l-110 -20c34 -29 53 -73 53 -130c0 -104 -64 -166 -173 -166c-27 0 -50 4 -71 11c-26 -24 -52 -55 -52 -99c0 -133 350 -9 350 -208c0 -81 -72 -157 -234 -157c-132 0 -189 68 -189 148c0 87 56 133 89 158c-20 13 -31 32 -31 57
c0 38 19 74 53 106c-56 25 -88 77 -88 150c0 105 64 167 173 167c41 0 76 -9 103 -25zM248 218c99 0 158 56 158 151c0 96 -59 152 -158 152s-158 -56 -158 -152c0 -95 59 -151 158 -151zM240 -235c134 0 220 58 220 141c0 144 -210 100 -305 142c-57 -38 -88 -92 -88 -149
c0 -82 64 -134 173 -134z" />
    <glyph glyph-name="g.alt" horiz-adv-x="555" 
d="M444 524c0 0 1 2 7 2s8 -2 8 -2v-498c0 -213 -48 -276 -210 -276c-72 0 -133 21 -133 21c-1 5 1 10 5 13c0 0 64 -20 128 -20c155 0 196 60 196 262v100c-30 -87 -106 -136 -182 -136c-126 0 -192 90 -192 273c0 186 68 273 199 273c83 0 147 -56 174 -139v127zM444 184
v142c0 87 -65 195 -173 195c-122 0 -185 -81 -185 -258c0 -174 61 -258 178 -258c103 0 177 94 180 179z" />
    <glyph glyph-name="gbreve" unicode="&#x11f;" horiz-adv-x="513" 
d="M351 511l125 23c3 -5 4 -7 2 -15l-110 -20c34 -29 53 -73 53 -130c0 -104 -64 -166 -173 -166c-27 0 -50 4 -71 11c-26 -24 -52 -55 -52 -99c0 -133 350 -9 350 -208c0 -81 -72 -157 -234 -157c-132 0 -189 68 -189 148c0 87 56 133 89 158c-20 13 -31 32 -31 57
c0 38 19 74 53 106c-56 25 -88 77 -88 150c0 105 64 167 173 167c41 0 76 -9 103 -25zM248 218c99 0 158 56 158 151c0 96 -59 152 -158 152s-158 -56 -158 -152c0 -95 59 -151 158 -151zM240 -235c134 0 220 58 220 141c0 144 -210 100 -305 142c-57 -38 -88 -92 -88 -149
c0 -82 64 -134 173 -134zM250 655c67 0 103 35 115 48c5 -3 7 -5 9 -10c0 0 -42 -52 -124 -52s-124 52 -124 52c2 5 4 8 9 9c10 -10 48 -47 115 -47z" />
    <glyph glyph-name="gbreve.alt" horiz-adv-x="555" 
d="M444 524c0 0 1 2 7 2s8 -2 8 -2v-498c0 -213 -48 -276 -210 -276c-72 0 -133 21 -133 21c-1 5 1 10 5 13c0 0 64 -20 128 -20c155 0 196 60 196 262v100c-30 -87 -106 -136 -182 -136c-126 0 -192 90 -192 273c0 186 68 273 199 273c83 0 147 -57 174 -133v121zM444 184
v142c0 87 -65 195 -173 195c-122 0 -185 -81 -185 -258c0 -174 61 -258 178 -258c103 0 177 94 180 179zM274 656c67 0 103 35 115 48c5 -3 7 -5 9 -10c0 0 -42 -52 -124 -52s-124 52 -124 52c2 5 4 8 9 9c10 -10 48 -47 115 -47z" />
    <glyph glyph-name="gcircumflex" unicode="&#x11d;" horiz-adv-x="513" 
d="M351 511l125 23c3 -5 4 -7 2 -15l-110 -20c34 -29 53 -73 53 -130c0 -104 -64 -166 -173 -166c-27 0 -50 4 -71 11c-26 -24 -52 -55 -52 -99c0 -133 350 -9 350 -208c0 -81 -72 -157 -234 -157c-132 0 -189 68 -189 148c0 87 56 133 89 158c-20 13 -31 32 -31 57
c0 38 19 74 53 106c-56 25 -88 77 -88 150c0 105 64 167 173 167c41 0 76 -9 103 -25zM248 218c99 0 158 56 158 151c0 96 -59 152 -158 152s-158 -56 -158 -152c0 -95 59 -151 158 -151zM240 -235c134 0 220 58 220 141c0 144 -210 100 -305 142c-57 -38 -88 -92 -88 -149
c0 -82 64 -134 173 -134zM124 602c-5 2 -7 6 -8 10l127 101h13l125 -101c0 -5 -3 -9 -8 -10l-123 98z" />
    <glyph glyph-name="gcircumflex.alt" horiz-adv-x="555" 
d="M444 524c0 0 1 2 7 2s8 -2 8 -2v-498c0 -213 -48 -276 -210 -276c-72 0 -133 21 -133 21c-1 5 1 10 5 13c0 0 64 -20 128 -20c155 0 196 60 196 262v100c-30 -87 -106 -136 -182 -136c-126 0 -192 90 -192 273c0 186 68 273 199 273c83 0 147 -57 174 -133v121zM444 184
v142c0 87 -65 195 -173 195c-122 0 -185 -81 -185 -258c0 -174 61 -258 178 -258c103 0 177 94 180 179zM160 615c-5 2 -7 6 -8 10l120 95h13l117 -95c0 -5 -3 -9 -8 -10l-115 92z" />
    <glyph glyph-name="gcommaaccent" unicode="&#x123;" horiz-adv-x="513" 
d="M272 710l10 -6s-27 -18 -28 -59c7 0 11 -2 11 -2v-21s-4 -1 -14 -1c-7 0 -12 1 -12 1v19c0 44 33 69 33 69zM351 511l125 23c3 -5 4 -7 2 -15l-110 -20c34 -29 53 -73 53 -130c0 -104 -64 -166 -173 -166c-27 0 -50 4 -71 11c-26 -24 -52 -55 -52 -99
c0 -133 350 -9 350 -208c0 -81 -72 -157 -234 -157c-132 0 -189 68 -189 148c0 87 56 133 89 158c-20 13 -31 32 -31 57c0 38 19 74 53 106c-56 25 -88 77 -88 150c0 105 64 167 173 167c41 0 76 -9 103 -25zM248 218c99 0 158 56 158 151c0 96 -59 152 -158 152
s-158 -56 -158 -152c0 -95 59 -151 158 -151zM240 -235c134 0 220 58 220 141c0 144 -210 100 -305 142c-57 -38 -88 -92 -88 -149c0 -82 64 -134 173 -134z" />
    <glyph glyph-name="gcommaaccent.alt" horiz-adv-x="555" 
d="M444 524c0 0 1 2 7 2s8 -2 8 -2v-498c0 -213 -48 -276 -210 -276c-72 0 -133 21 -133 21c-1 5 1 10 5 13c0 0 64 -20 128 -20c155 0 196 60 196 262v100c-30 -87 -106 -136 -182 -136c-126 0 -192 90 -192 273c0 186 68 273 199 273c83 0 147 -57 174 -133v121zM444 184
v142c0 87 -65 195 -173 195c-122 0 -185 -81 -185 -258c0 -174 61 -258 178 -258c103 0 177 94 180 179zM292 719l8 -6s-24 -30 -24 -62c4 0 10 -2 10 -2v-20s-3 -2 -12 -2c-8 0 -12 2 -12 2v17c0 44 30 73 30 73z" />
    <glyph glyph-name="gdotaccent" unicode="&#x121;" horiz-adv-x="513" 
d="M266 692v-28s-4 -1 -15 -1c-10 0 -15 1 -15 1v28s5 1 15 1c11 0 15 -1 15 -1zM351 511l125 23c3 -5 4 -7 2 -15l-110 -20c34 -29 53 -73 53 -130c0 -104 -64 -166 -173 -166c-27 0 -50 4 -71 11c-26 -24 -52 -55 -52 -99c0 -133 350 -9 350 -208
c0 -81 -72 -157 -234 -157c-132 0 -189 68 -189 148c0 87 56 133 89 158c-20 13 -31 32 -31 57c0 38 19 74 53 106c-56 25 -88 77 -88 150c0 105 64 167 173 167c41 0 76 -9 103 -25zM248 218c99 0 158 56 158 151c0 96 -59 152 -158 152s-158 -56 -158 -152
c0 -95 59 -151 158 -151zM240 -235c134 0 220 58 220 141c0 144 -210 100 -305 142c-57 -38 -88 -92 -88 -149c0 -82 64 -134 173 -134z" />
    <glyph glyph-name="gdotaccent.alt" horiz-adv-x="555" 
d="M285 702v-24s-4 -2 -14 -2c-9 0 -15 2 -15 2v24s6 2 15 2c10 0 14 -2 14 -2zM444 524c0 0 1 2 7 2s8 -2 8 -2v-498c0 -213 -48 -276 -210 -276c-72 0 -133 21 -133 21c-1 5 1 10 5 13c0 0 64 -20 128 -20c155 0 196 60 196 262v100c-30 -87 -106 -136 -182 -136
c-126 0 -192 90 -192 273c0 186 68 273 199 273c83 0 147 -57 174 -133v121zM444 184v142c0 87 -65 195 -173 195c-122 0 -185 -81 -185 -258c0 -174 61 -258 178 -258c103 0 177 94 180 179z" />
    <glyph glyph-name="germandbls" unicode="&#xdf;" horiz-adv-x="569" 
d="M441 485c0 0 -139 14 -139 -101c0 -125 214 -94 214 -261c0 -75 -49 -133 -153 -133c-69 0 -96 16 -96 16c0 5 2 10 6 12c31 -12 58 -14 88 -14c106 0 141 59 141 117c0 162 -214 126 -214 264c0 124 143 114 144 114c9 26 14 57 14 83c1 78 -44 154 -160 154
c-129 0 -176 -71 -176 -180v-554s-1 -2 -7 -2s-7 2 -7 2v554c0 130 65 194 191 194c125 0 173 -87 173 -169c0 -30 -7 -64 -19 -96z" />
    <glyph glyph-name="grave" unicode="`" horiz-adv-x="238" 
d="M56 796c3 5 5 8 11 10l124 -152c-2 -4 -5 -7 -10 -8z" />
    <glyph glyph-name="greater" unicode="&#x3e;" horiz-adv-x="480" 
d="M413 279l-320 -154s-2 2 -2 8c0 5 2 9 2 9l308 148l-308 148s-2 3 -2 9s2 8 2 8l320 -154s2 -6 2 -11c0 -6 -2 -11 -2 -11z" />
    <glyph glyph-name="greaterequal" unicode="&#x2265;" horiz-adv-x="471" 
d="M377 137h-282c-3 5 -3 10 0 15h282c2 -5 2 -10 0 -15zM377 358l-282 -127s-2 2 -2 8c0 5 2 9 2 9l270 121l-263 116s-2 3 -2 9s2 8 2 8l275 -122s2 -6 2 -11c0 -6 -2 -11 -2 -11z" />
    <glyph glyph-name="guillemotleft" unicode="&#xab;" horiz-adv-x="474" 
d="M57 276l208 233c5 -1 7 -4 9 -9l-203 -230l204 -230c-1 -6 -5 -9 -10 -10l-208 234s-2 2 -2 6s2 6 2 6zM208 276l182 203c5 -1 7 -4 9 -9l-177 -200l181 -204c-1 -6 -5 -9 -10 -10l-185 208s-2 2 -2 6s2 6 2 6z" />
    <glyph glyph-name="guillemotright" unicode="&#xbb;" horiz-adv-x="474" 
d="M200 500c2 5 4 8 9 9l208 -233s2 -2 2 -6s-2 -6 -2 -6l-208 -234c-5 1 -9 4 -10 10l204 230zM75 470c2 5 4 8 9 9l182 -203s2 -2 2 -6s-2 -6 -2 -6l-185 -208c-5 1 -9 4 -10 10l181 204z" />
    <glyph glyph-name="guilsinglleft" unicode="&#x2039;" horiz-adv-x="340" 
d="M57 276l208 233c5 -1 7 -4 9 -9l-203 -230l204 -230c-1 -6 -5 -9 -10 -10l-208 234s-2 2 -2 6s2 6 2 6z" />
    <glyph glyph-name="guilsinglright" unicode="&#x203a;" horiz-adv-x="340" 
d="M66 500c2 5 4 8 9 9l208 -233s2 -2 2 -6s-2 -6 -2 -6l-208 -234c-5 1 -9 4 -10 10l204 230z" />
    <glyph glyph-name="h" unicode="h" horiz-adv-x="550" 
d="M458 389v-387c-4 -3 -10 -3 -14 0v386c0 86 -53 134 -139 134c-77 0 -151 -36 -195 -150v-370c-4 -3 -10 -3 -14 0v746c4 3 10 3 14 0v-345c41 91 110 133 197 133c93 0 151 -56 151 -147z" />
    <glyph glyph-name="hbar" unicode="&#x127;" horiz-adv-x="550" 
d="M110 401c40 93 110 135 197 135c93 0 151 -56 151 -147v-387c-4 -3 -10 -3 -14 0v386c0 86 -53 134 -139 134c-77 0 -151 -36 -195 -150v-370c-4 -3 -10 -3 -14 0v637h-72c-2 5 -2 9 0 14h72v95c2 1 2 2 7 2s7 -2 7 -2v-95h160c3 -4 3 -10 0 -14h-160v-238z" />
    <glyph glyph-name="hcircumflex" unicode="&#x125;" horiz-adv-x="550" 
d="M458 389v-387c-4 -3 -10 -3 -14 0v386c0 86 -53 134 -139 134c-77 0 -151 -36 -195 -150v-370c-4 -3 -10 -3 -14 0v746c4 3 10 3 14 0v-347c40 93 110 135 197 135c93 0 151 -56 151 -147zM-15 767c-5 2 -7 6 -8 10l127 101h13l125 -101c0 -5 -3 -9 -8 -10l-123 98z" />
    <glyph glyph-name="hungarumlaut" unicode="&#x2dd;" horiz-adv-x="386" 
d="M38 653l124 152c6 -1 8 -5 11 -10l-125 -150c-5 1 -8 4 -10 8zM185 653l124 152c6 -1 8 -5 11 -10l-125 -150c-5 1 -8 4 -10 8z" />
    <glyph glyph-name="hyphen" unicode="-" horiz-adv-x="350" 
d="M261 281h-172c-2 5 -2 10 0 15h172c2 -5 2 -10 0 -15z" />
    <glyph glyph-name="i" unicode="i" horiz-adv-x="214" 
d="M114 524v-522s-1 -2 -7 -2s-7 2 -7 2v522s1 2 7 2s7 -2 7 -2zM121 694v-20s-5 -4 -14 -4c-8 0 -14 4 -14 4v20s6 4 14 4c9 0 14 -4 14 -4z" />
    <glyph glyph-name="iacute" unicode="&#xed;" horiz-adv-x="214" 
d="M114 524v-522s-1 -2 -7 -2s-7 2 -7 2v522s1 2 7 2s7 -2 7 -2zM54 621l124 152c6 -1 8 -5 11 -10l-125 -150c-5 1 -8 4 -10 8z" />
    <glyph glyph-name="ibreve" unicode="&#x12d;" horiz-adv-x="214" 
d="M114 524v-522s-1 -2 -7 -2s-7 2 -7 2v522s1 2 7 2s7 -2 7 -2zM105 660c67 0 103 35 115 48c5 -3 7 -5 9 -10c0 0 -42 -52 -124 -52s-124 52 -124 52c2 5 4 8 9 9c10 -10 48 -47 115 -47z" />
    <glyph glyph-name="icircumflex" unicode="&#xee;" horiz-adv-x="214" 
d="M114 524v-522s-1 -2 -7 -2s-7 2 -7 2v522s1 2 7 2s7 -2 7 -2zM-17 601c-5 2 -7 6 -8 10l127 101h13l125 -101c0 -5 -3 -9 -8 -10l-123 98z" />
    <glyph glyph-name="idieresis" unicode="&#xef;" horiz-adv-x="214" 
d="M114 524v-522s-1 -2 -7 -2s-7 2 -7 2v522s1 2 7 2s7 -2 7 -2zM52 692v-20s-5 -4 -14 -4c-8 0 -14 4 -14 4v20s6 4 14 4c9 0 14 -4 14 -4zM186 692v-20s-5 -4 -14 -4c-8 0 -14 4 -14 4v20s6 4 14 4c9 0 14 -4 14 -4z" />
    <glyph glyph-name="igrave" unicode="&#xec;" horiz-adv-x="214" 
d="M114 524v-522s-1 -2 -7 -2s-7 2 -7 2v522s1 2 7 2s7 -2 7 -2zM17 762c3 5 5 8 11 10l124 -152c-2 -4 -5 -7 -10 -8z" />
    <glyph glyph-name="ij" unicode="&#x133;" horiz-adv-x="437" 
d="M324 -92v616s1 2 6 2c7 0 7 -2 7 -2v-612c0 -115 -51 -162 -127 -162c-42 0 -53 9 -53 9v4c0 4 2 6 2 6s16 -4 47 -4c80 0 118 41 118 143zM114 524v-522s-1 -2 -7 -2s-7 2 -7 2v522s1 2 7 2s7 -2 7 -2zM345 694v-20s-5 -4 -14 -4c-8 0 -14 4 -14 4v20s6 4 14 4
c9 0 14 -4 14 -4zM121 694v-20s-5 -4 -14 -4c-8 0 -14 4 -14 4v20s6 4 14 4c9 0 14 -4 14 -4z" />
    <glyph glyph-name="imacron" unicode="&#x12b;" horiz-adv-x="214" 
d="M114 524v-522s-1 -2 -7 -2s-7 2 -7 2v522s1 2 7 2s7 -2 7 -2zM198 676h-185c-2 5 -2 10 0 15h185c2 -5 2 -9 0 -15z" />
    <glyph glyph-name="infinity" unicode="&#x221e;" horiz-adv-x="834" 
d="M595 164c-139 0 -178 138 -178 138s-39 -138 -178 -138c-115 0 -164 81 -164 161s49 161 164 161c139 0 178 -139 178 -139s51 139 178 139c115 0 164 -81 164 -161s-49 -161 -164 -161zM238 179c137 0 171 146 171 146s-35 146 -171 146c-110 0 -147 -77 -147 -146
s37 -146 147 -146zM596 471c-130 0 -171 -146 -171 -146s41 -146 171 -146c110 0 147 77 147 146s-37 146 -147 146z" />
    <glyph glyph-name="integral" unicode="&#x222b;" horiz-adv-x="506" 
d="M246 -61v651c0 85 39 131 113 131c49 0 81 -8 121 -30c0 -6 -2 -9 -8 -12c-32 15 -64 26 -106 27c-64 1 -105 -31 -105 -114v-653c0 -110 -64 -130 -120 -130c-33 0 -70 6 -115 33c0 7 3 11 8 12c19 -10 58 -28 108 -29c52 -1 104 18 104 114z" />
    <glyph glyph-name="iogonek" unicode="&#x12f;" horiz-adv-x="214" 
d="M123 694v-20s-5 -4 -14 -4c-8 0 -14 4 -14 4v20s6 4 14 4c9 0 14 -4 14 -4zM97 -159c27 0 46 12 46 12c4 -4 5 -6 6 -11c0 0 -19 -15 -54 -15c-48 0 -76 23 -76 62c0 52 35 94 81 119v516s1 2 7 2s7 -2 7 -2v-522c-45 -23 -80 -63 -80 -110c0 -37 24 -51 63 -51z" />
    <glyph glyph-name="itilde" unicode="&#x129;" horiz-adv-x="214" 
d="M114 524v-522s-1 -2 -7 -2s-7 2 -7 2v522s1 2 7 2s7 -2 7 -2zM147 661c31 0 39 23 43 33c5 -1 9 -3 12 -7c0 0 -9 -41 -57 -41c-43 0 -55 40 -88 40c-37 0 -43 -34 -43 -34c-6 1 -9 2 -12 6c0 0 5 43 56 43c37 0 49 -40 89 -40z" />
    <glyph glyph-name="j" unicode="j" horiz-adv-x="214" 
d="M100 -92v616c4 3 10 3 14 0v-615c0 -115 -46 -159 -122 -159c-24 0 -47 5 -67 16c0 5 2 9 5 12c18 -10 42 -14 62 -14c73 0 108 42 108 144zM120 697v-20s-5 -4 -14 -4c-8 0 -14 4 -14 4v20s6 4 14 4c9 0 14 -4 14 -4z" />
    <glyph glyph-name="jcircumflex" unicode="&#x135;" horiz-adv-x="214" 
d="M100 -92v616c4 3 10 3 14 0v-615c0 -115 -46 -160 -122 -160c-24 0 -47 5 -67 16c0 5 2 9 5 12c18 -10 42 -14 62 -14c73 0 108 43 108 145zM-20 583c-5 2 -7 6 -8 10l127 101h13l125 -101c0 -5 -3 -9 -8 -10l-123 98z" />
    <glyph glyph-name="k" unicode="k" horiz-adv-x="492" 
d="M250 282l174 243c6 2 11 2 17 0l-179 -249l203 -273s-1 -3 -8 -3c-8 0 -9 3 -9 3l-197 265h-141v-267c-4 -2 -10 -2 -14 0v748c4 2 10 2 14 0v-467h140z" />
    <glyph glyph-name="kcommaaccent" unicode="&#x137;" horiz-adv-x="492" 
d="M250 282l174 243c6 2 11 2 17 0l-179 -249l203 -273s-1 -3 -8 -3c-8 0 -9 3 -9 3l-197 265h-141v-267c-4 -2 -10 -2 -14 0v748c4 2 10 2 14 0v-467h140zM242 -145l-8 6s24 30 24 62c-4 0 -10 2 -10 2v20s3 2 12 2c8 0 12 -2 12 -2v-17c0 -44 -30 -73 -30 -73z" />
    <glyph glyph-name="kgreenlandic" unicode="&#x138;" horiz-adv-x="501" 
d="M241 296l229 -295c-6 -2 -12 -2 -18 0l-220 284l-122 -133v-150c-1 -1 -4 -2 -7 -2c-2 0 -6 1 -7 2v523c5 2 9 2 14 0v-353l319 352c2 1 5 2 10 2s9 -1 10 -2z" />
    <glyph glyph-name="l" unicode="l" horiz-adv-x="218" 
d="M116 748v-746s-1 -2 -7 -2s-7 2 -7 2v746s1 2 7 2s7 -2 7 -2z" />
    <glyph glyph-name="lacute" unicode="&#x13a;" horiz-adv-x="218" 
d="M116 748v-746s-1 -2 -7 -2s-7 2 -7 2v746s1 2 7 2s7 -2 7 -2zM46 793l134 143c6 -2 8 -6 11 -11l-135 -141c-5 2 -8 5 -10 9z" />
    <glyph glyph-name="lcaron" unicode="&#x13e;" horiz-adv-x="222" 
d="M184 597c-4 1 -7 4 -8 8c42 33 56 87 52 145c5 3 10 3 15 0c4 -50 -10 -119 -59 -153zM116 748v-746s-1 -2 -7 -2s-7 2 -7 2v746s1 2 7 2s7 -2 7 -2z" />
    <glyph glyph-name="lcommaaccent" unicode="&#x13c;" horiz-adv-x="218" 
d="M116 748v-746s-1 -2 -7 -2s-7 2 -7 2v746s1 2 7 2s7 -2 7 -2zM91 -137l-8 6s24 30 24 62c-4 0 -10 2 -10 2v20s3 2 12 2c8 0 12 -2 12 -2v-17c0 -44 -30 -73 -30 -73z" />
    <glyph glyph-name="ldot" unicode="&#x140;" horiz-adv-x="238" 
d="M116 748v-746s-1 -2 -7 -2s-7 2 -7 2v746s1 2 7 2s7 -2 7 -2zM244 344v-20s-5 -4 -14 -4c-8 0 -14 4 -14 4v20s6 4 14 4c9 0 14 -4 14 -4z" />
    <glyph glyph-name="less" unicode="&#x3c;" horiz-adv-x="480" 
d="M389 133c0 -6 -2 -8 -2 -8l-320 154s-2 5 -2 11c0 5 2 11 2 11l320 154s2 -2 2 -8s-2 -9 -2 -9l-308 -148l308 -148s2 -4 2 -9z" />
    <glyph glyph-name="lessequal" unicode="&#x2264;" horiz-adv-x="469" 
d="M375 152c3 -5 3 -10 0 -15h-282c-2 5 -2 10 0 15h282zM377 239c0 -6 -2 -8 -2 -8l-282 127s-2 5 -2 11c0 5 2 11 2 11l275 122s2 -2 2 -8s-2 -9 -2 -9l-263 -116l270 -121s2 -4 2 -9z" />
    <glyph glyph-name="logicalnot" unicode="&#xac;" horiz-adv-x="604" 
d="M509 439v-226s-2 -2 -7 -2c-7 0 -8 2 -8 2v211h-417s-2 2 -2 8c0 5 2 7 2 7h432z" />
    <glyph glyph-name="longs" unicode="&#x17f;" horiz-adv-x="250" 
d="M118 590c0 114 40 160 140 160c44 0 83 -10 83 -10c1 -5 0 -10 -3 -13c0 0 -34 8 -76 8c-97 0 -129 -41 -129 -144v-589c-8 -5 -15 0 -15 0v509h-79c-4 8 0 15 0 15h79v64z" />
    <glyph glyph-name="lozenge" unicode="&#x25ca;" horiz-adv-x="541" 
d="M268 7l-208 345l208 344h7l211 -344l-211 -345h-7zM469 352l-197 322l-194 -322l194 -323z" />
    <glyph glyph-name="lslash" unicode="&#x142;" horiz-adv-x="285" 
d="M243 459l-99 -57v-400s-1 -2 -7 -2s-7 2 -7 2v392l-84 -49c-4 2 -7 6 -7 12l91 53v338s1 2 7 2s7 -2 7 -2v-330l92 53c4 -2 7 -7 7 -12z" />
    <glyph glyph-name="m" unicode="m" horiz-adv-x="847" 
d="M432 401c37 86 99 135 185 135c85 0 138 -55 138 -147v-387c-4 -3 -10 -3 -14 0v386c0 84 -46 134 -125 134c-75 0 -140 -36 -184 -153v-367c-4 -3 -10 -3 -14 0v386c0 84 -46 134 -125 134c-75 0 -139 -36 -183 -150v-370c-4 -3 -10 -3 -14 0v522c4 3 10 3 14 0v-120
c42 91 99 132 184 132c81 0 133 -50 138 -135z" />
    <glyph glyph-name="macron" unicode="&#xaf;" horiz-adv-x="407" 
d="M324 639h-255c-2 5 -2 10 0 15h255c2 -5 2 -9 0 -15z" />
    <glyph glyph-name="minus" unicode="&#x2212;" horiz-adv-x="458" 
d="M365 319h-272c-2 5 -2 10 0 15h272c2 -5 2 -10 0 -15z" />
    <glyph glyph-name="mu" unicode="&#xb5;" horiz-adv-x="574" 
d="M452 524c0 0 0 2 6 2c7 0 8 -2 8 -2v-522s-1 -2 -8 -2c-6 0 -6 2 -6 2v103c-45 -72 -110 -115 -194 -115c-58 0 -108 14 -138 69v-73c0 -194 22 -231 22 -231c-3 -4 -4 -6 -13 -5c0 0 -25 42 -25 236v538s0 2 8 2c5 0 6 -2 6 -2v-384c0 -75 32 -136 140 -136
c94 0 160 56 194 128v392z" />
    <glyph glyph-name="multiply" unicode="&#xd7;" horiz-adv-x="437" 
d="M346 405l-117 -117l117 -117c-2 -5 -7 -8 -11 -10l-116 117l-117 -117c-4 2 -9 5 -11 10l117 117l-117 117c2 4 6 8 11 10l117 -116l116 116c5 -2 9 -6 11 -10z" />
    <glyph glyph-name="n" unicode="n" horiz-adv-x="550" 
d="M458 389v-387c-4 -3 -10 -3 -14 0v386c0 86 -53 134 -139 134c-75 0 -149 -37 -195 -150v-370c-4 -3 -10 -3 -14 0v522c4 3 10 3 14 0v-121c43 90 112 133 197 133c93 0 151 -56 151 -147z" />
    <glyph glyph-name="nacute" unicode="&#x144;" horiz-adv-x="550" 
d="M458 389v-387c-4 -3 -10 -3 -14 0v386c0 86 -53 134 -139 134c-75 0 -149 -37 -195 -150v-370c-4 -3 -10 -3 -14 0v522c4 3 10 3 14 0v-121c43 90 112 133 197 133c93 0 151 -56 151 -147zM212 617l124 152c6 -1 8 -5 11 -10l-125 -150c-5 1 -8 4 -10 8z" />
    <glyph glyph-name="napostrophe" unicode="&#x149;" horiz-adv-x="550" 
d="M91 595c-4 1 -7 5 -7 9c45 31 69 72 71 132c6 1 10 0 14 -2c-2 -52 -26 -106 -78 -139zM458 389v-387c-4 -3 -10 -3 -14 0v386c0 86 -53 134 -139 134c-75 0 -149 -37 -195 -150v-370c-4 -3 -10 -3 -14 0v522c4 3 10 3 14 0v-121c43 90 112 133 197 133
c93 0 151 -56 151 -147z" />
    <glyph glyph-name="ncaron" unicode="&#x148;" horiz-adv-x="550" 
d="M458 389v-387c-4 -3 -10 -3 -14 0v386c0 86 -53 134 -139 134c-75 0 -149 -37 -195 -150v-370c-4 -3 -10 -3 -14 0v522c4 3 10 3 14 0v-121c43 90 112 133 197 133c93 0 151 -56 151 -147zM276 611l-120 95c1 4 3 8 8 10l119 -92l114 91c5 -1 8 -5 8 -10l-116 -94h-13z
" />
    <glyph glyph-name="ncommaaccent" unicode="&#x146;" horiz-adv-x="550" 
d="M458 389v-387c-4 -3 -10 -3 -14 0v386c0 86 -53 134 -139 134c-75 0 -149 -37 -195 -150v-370c-4 -3 -10 -3 -14 0v522c4 3 10 3 14 0v-121c43 90 112 133 197 133c93 0 151 -56 151 -147zM261 -148l-8 6s24 30 24 62c-4 0 -10 2 -10 2v20s3 2 12 2c8 0 12 -2 12 -2v-17
c0 -44 -30 -73 -30 -73z" />
    <glyph glyph-name="nine" unicode="9" horiz-adv-x="552" 
d="M123 0c-2 5 -2 10 0 14c178 17 303 117 332 321c-60 -49 -121 -71 -194 -71c-124 0 -198 79 -198 213c0 136 88 213 206 213c117 0 206 -80 206 -267c0 -280 -156 -409 -352 -423zM78 477c0 -124 67 -198 181 -198c75 0 138 24 198 74c3 23 2 49 2 74
c0 170 -81 248 -190 248s-191 -68 -191 -198z" />
    <glyph glyph-name="nine.denom" horiz-adv-x="306" 
d="M259 192c0 -93 -54 -183 -181 -197c-2 2 -3 7 -1 11c109 16 164 80 172 177c-19 -17 -52 -37 -106 -37c-65 0 -103 36 -103 96c0 65 39 104 106 104c74 0 113 -54 113 -154zM52 242c0 -53 31 -85 91 -85c64 0 96 29 105 40c-2 91 -37 137 -102 137c-59 0 -94 -33 -94 -92
z" />
    <glyph glyph-name="nine.num" horiz-adv-x="306" 
d="M259 539c0 -93 -54 -183 -181 -197c-2 2 -3 7 -1 11c109 16 164 80 172 177c-19 -17 -52 -37 -106 -37c-65 0 -103 36 -103 96c0 65 39 104 106 104c74 0 113 -54 113 -154zM52 589c0 -53 31 -85 91 -85c64 0 96 29 105 40c-2 91 -37 137 -102 137c-59 0 -94 -33 -94 -92
z" />
    <glyph glyph-name="nineinferior" unicode="&#x2089;" horiz-adv-x="306" 
d="M259 98c0 -93 -54 -183 -181 -197c-2 2 -3 7 -1 11c109 16 164 80 172 177c-19 -17 -52 -37 -106 -37c-65 0 -103 36 -103 96c0 65 39 104 106 104c74 0 113 -54 113 -154zM52 148c0 -53 31 -85 91 -85c64 0 96 29 105 40c-2 91 -37 137 -102 137c-59 0 -94 -33 -94 -92z
" />
    <glyph glyph-name="notequal" unicode="&#x2260;" horiz-adv-x="542" 
d="M230 215h201c2 -5 2 -10 0 -15h-210l-55 -100c-5 -2 -11 -2 -16 0l55 100h-94c-2 5 -2 10 0 15h103l81 147h-184c-2 5 -2 10 0 15h192l53 96c5 2 10 2 16 0l-53 -96h112c2 -5 2 -10 0 -15h-120z" />
    <glyph glyph-name="ntilde" unicode="&#xf1;" horiz-adv-x="550" 
d="M458 389v-387c-4 -3 -10 -3 -14 0v386c0 86 -53 134 -139 134c-75 0 -149 -37 -195 -150v-370c-4 -3 -10 -3 -14 0v522c4 3 10 3 14 0v-121c43 90 112 133 197 133c93 0 151 -56 151 -147zM340 676c31 0 42 23 46 33c5 -1 9 -3 12 -7c0 0 -12 -41 -60 -41
c-45 0 -67 40 -105 40c-37 0 -46 -34 -46 -34c-6 1 -9 2 -12 6c0 0 10 43 61 43c38 0 59 -40 104 -40z" />
    <glyph glyph-name="_300" horiz-adv-x="0" 
 />
    <glyph glyph-name="numbersign" unicode="#" horiz-adv-x="647" 
d="M592 445h-117l-78 -275h111c2 -5 2 -10 0 -15h-115l-43 -152c-6 -2 -9 -2 -15 0l43 152h-193l-43 -152c-6 -2 -9 -2 -15 0l43 152h-117c-2 5 -2 10 0 15h121l78 275h-115c-1 2 -2 3 -2 7s1 6 2 8h119l46 161c6 2 9 2 15 0l-46 -161h193l46 161c6 2 9 2 15 0l-46 -161h113
c1 -2 2 -4 2 -8c0 -3 -1 -4 -2 -7zM382 170l78 275h-193l-78 -275h193z" />
    <glyph glyph-name="o" unicode="o" horiz-adv-x="538" 
d="M71 263c0 198 73 273 198 273s198 -75 198 -273s-73 -273 -198 -273s-198 75 -198 273zM453 263c0 195 -71 259 -184 259s-184 -64 -184 -259s71 -259 184 -259s184 64 184 259z" />
    <glyph glyph-name="oacute" unicode="&#xf3;" horiz-adv-x="538" 
d="M71 263c0 198 73 273 198 273s198 -75 198 -273s-73 -273 -198 -273s-198 75 -198 273zM453 263c0 195 -71 259 -184 259s-184 -64 -184 -259s71 -259 184 -259s184 64 184 259zM198 618l124 152c6 -1 8 -5 11 -10l-125 -150c-5 1 -8 4 -10 8z" />
    <glyph glyph-name="obreve" unicode="&#x14f;" horiz-adv-x="538" 
d="M71 263c0 198 73 273 198 273s198 -75 198 -273s-73 -273 -198 -273s-198 75 -198 273zM453 263c0 195 -71 259 -184 259s-184 -64 -184 -259s71 -259 184 -259s184 64 184 259zM267 666c67 0 103 35 115 48c5 -3 7 -5 9 -10c0 0 -42 -52 -124 -52s-124 52 -124 52
c2 5 4 8 9 9c10 -10 48 -47 115 -47z" />
    <glyph glyph-name="ocircumflex" unicode="&#xf4;" horiz-adv-x="538" 
d="M71 263c0 198 73 273 198 273s198 -75 198 -273s-73 -273 -198 -273s-198 75 -198 273zM453 263c0 195 -71 259 -184 259s-184 -64 -184 -259s71 -259 184 -259s184 64 184 259zM144 601c-5 2 -7 6 -8 10l127 101h13l125 -101c0 -5 -3 -9 -8 -10l-123 98z" />
    <glyph glyph-name="odieresis" unicode="&#xf6;" horiz-adv-x="538" 
d="M71 263c0 198 73 273 198 273s198 -75 198 -273s-73 -273 -198 -273s-198 75 -198 273zM453 263c0 195 -71 259 -184 259s-184 -64 -184 -259s71 -259 184 -259s184 64 184 259zM217 698v-20s-5 -4 -14 -4c-8 0 -14 4 -14 4v20s6 4 14 4c9 0 14 -4 14 -4zM351 698v-20
s-5 -4 -14 -4c-8 0 -14 4 -14 4v20s6 4 14 4c9 0 14 -4 14 -4z" />
    <glyph glyph-name="oe" unicode="&#x153;" horiz-adv-x="837" 
d="M611 536c112 0 162 -82 162 -179c0 -61 -11 -98 -11 -98h-316c2 -166 55 -254 168 -254c74 0 122 44 122 44c7 -2 11 -6 11 -12c0 0 -43 -47 -137 -47c-89 0 -153 53 -172 171c-24 -124 -83 -171 -179 -171c-122 0 -188 75 -188 273s68 273 190 273
c99 0 158 -50 177 -174c22 122 88 174 173 174zM85 263c0 -195 65 -258 174 -258s169 71 169 260c0 195 -58 257 -167 257s-176 -64 -176 -259zM446 274h304c0 -2 8 29 8 84c0 84 -42 164 -147 164c-98 0 -162 -79 -165 -248z" />
    <glyph glyph-name="ogonek" unicode="&#x2db;" horiz-adv-x="283" 
d="M180 -178c4 -4 5 -6 6 -11c0 0 -19 -15 -54 -15c-48 0 -76 23 -76 62c0 63 51 110 111 132v-12c-52 -21 -96 -65 -96 -117c0 -37 24 -51 63 -51c27 0 46 12 46 12z" />
    <glyph glyph-name="ograve" unicode="&#xf2;" horiz-adv-x="538" 
d="M71 263c0 198 73 273 198 273s198 -75 198 -273s-73 -273 -198 -273s-198 75 -198 273zM453 263c0 195 -71 259 -184 259s-184 -64 -184 -259s71 -259 184 -259s184 64 184 259zM177 761c3 5 5 8 11 10l124 -152c-2 -4 -5 -7 -10 -8z" />
    <glyph glyph-name="ohungarumlaut" unicode="&#x151;" horiz-adv-x="538" 
d="M190 625l92 111c11 -1 13 -4 19 -10l-99 -108c-7 1 -10 3 -12 7zM306 625l92 111c10 -1 14 -4 19 -10l-99 -108c-7 1 -10 3 -12 7zM71 263c0 198 73 273 198 273s198 -75 198 -273s-73 -273 -198 -273s-198 75 -198 273zM453 263c0 195 -71 259 -184 259
s-184 -64 -184 -259s71 -259 184 -259s184 64 184 259z" />
    <glyph glyph-name="omacron" unicode="&#x14d;" horiz-adv-x="538" 
d="M71 263c0 198 73 273 198 273s198 -75 198 -273s-73 -273 -198 -273s-198 75 -198 273zM453 263c0 195 -71 259 -184 259s-184 -64 -184 -259s71 -259 184 -259s184 64 184 259zM385 659h-225c-2 5 -2 10 0 15h225c2 -5 2 -9 0 -15z" />
    <glyph glyph-name="one" unicode="1" horiz-adv-x="382" 
d="M45 512c83 22 162 82 210 166c0 0 1 2 7 2c5 0 6 -2 6 -2v-676c-5 -3 -10 -3 -15 0v647c-47 -76 -124 -129 -203 -151c-4 3 -6 9 -5 14z" />
    <glyph glyph-name="one.denom" horiz-adv-x="241" 
d="M37 265c47 10 92 37 122 77c4 1 9 1 13 0v-341c-3 -1 -3 -1 -6 -1s-3 0 -6 1v324c-29 -35 -69 -58 -120 -71c-3 1 -5 8 -3 11z" />
    <glyph glyph-name="one.num" horiz-adv-x="257" 
d="M37 613c47 10 92 37 122 77c4 1 9 1 13 0v-341c-3 -1 -3 -1 -6 -1s-3 0 -6 1v324c-29 -35 -69 -58 -120 -71c-3 1 -5 8 -3 11z" />
    <glyph glyph-name="oneeighth" unicode="&#x215b;" horiz-adv-x="699" 
d="M510 700c0 0 2 2 8 2c5 0 5 -2 5 -2l-388 -709s-1 -1 -6 -1c-6 0 -7 1 -7 1zM45 613c47 10 92 37 122 77c4 1 9 1 13 0v-341c-3 -1 -3 -1 -6 -1s-3 0 -6 1v324c-29 -35 -69 -58 -120 -71c-3 1 -5 8 -3 11zM627 267c0 -47 -30 -78 -63 -96c41 -19 75 -43 75 -88
c0 -55 -42 -88 -112 -88c-72 0 -114 33 -114 89c0 55 38 89 74 107c-35 18 -61 41 -61 80c0 48 37 77 100 77s101 -30 101 -81zM526 336c-55 0 -88 -24 -88 -65c0 -57 59 -74 114 -95c42 24 63 52 63 91c0 43 -33 69 -89 69zM425 84c0 -48 38 -77 103 -77c62 0 99 27 99 74
c0 63 -65 77 -129 105c-33 -18 -73 -47 -73 -102z" />
    <glyph glyph-name="onehalf" unicode="&#xbd;" horiz-adv-x="694" 
d="M503 700c0 0 2 2 8 2c5 0 5 -2 5 -2l-388 -709s-1 -1 -6 -1c-6 0 -7 1 -7 1zM46 613c47 10 92 37 122 77c4 1 9 1 13 0v-341c-3 -1 -3 -1 -6 -1s-3 0 -6 1v324c-29 -35 -69 -58 -120 -71c-3 1 -5 8 -3 11zM419 41c0 136 201 103 201 218c0 36 -18 77 -98 77
c-40 -1 -67 -8 -77 -11c-2 3 -3 8 -2 12c-2 0 31 11 80 11c86 0 109 -44 109 -90c0 -124 -201 -91 -201 -217c0 -9 0 -19 2 -29h199c1 -1 2 -4 2 -6s-1 -5 -2 -6h-208s-5 18 -5 41z" />
    <glyph glyph-name="oneinferior" unicode="&#x2081;" horiz-adv-x="241" 
d="M37 169c47 10 92 37 122 77c4 1 9 1 13 0v-341c-3 -1 -3 -1 -6 -1s-3 0 -6 1v324c-29 -35 -69 -58 -120 -71c-3 1 -5 8 -3 11z" />
    <glyph glyph-name="onequarter" unicode="&#xbc;" horiz-adv-x="625" 
d="M502 700c0 0 2 2 8 2c5 0 5 -2 5 -2l-388 -709s-1 -1 -6 -1c-6 0 -7 1 -7 1zM46 613c47 10 92 37 122 77c4 1 9 1 13 0v-341c-3 -1 -3 -1 -6 -1s-3 0 -6 1v324c-29 -35 -69 -58 -120 -71c-3 1 -5 8 -3 11zM529 116h37c2 -5 2 -7 0 -12h-37v-103c-4 -2 -8 -2 -12 0v103
h-183c-2 3 0 7 0 7l184 231c6 2 11 0 11 0v-226zM517 321l-165 -205h165v205z" />
    <glyph glyph-name="onesuperior" unicode="&#xb9;" horiz-adv-x="241" 
d="M37 613c47 10 92 37 122 77c4 1 9 1 13 0v-341c-3 -1 -3 -1 -6 -1s-3 0 -6 1v324c-29 -35 -69 -58 -120 -71c-3 1 -5 8 -3 11z" />
    <glyph glyph-name="ordfeminine" unicode="&#xaa;" horiz-adv-x="363" 
d="M93 614c0 0 47 16 96 16c68 0 98 -36 98 -99v-227h-4h-5v74c-17 -57 -64 -82 -115 -82c-62 0 -95 32 -95 90s38 92 110 92c43 0 81 -5 99 -7v53c0 70 -31 94 -89 94c-50 0 -91 -16 -91 -16c-4 2 -5 9 -4 12zM277 460c-18 3 -59 7 -96 7c-67 0 -101 -29 -101 -81
c0 -51 28 -79 83 -79c64 0 111 39 114 115v38zM70 244h216c1 -4 1 -7 0 -11h-216c-1 4 -1 7 0 11z" />
    <glyph glyph-name="ordmasculine" unicode="&#xba;" horiz-adv-x="383" 
d="M69 463c0 113 36 167 122 167c84 0 123 -52 123 -167s-39 -168 -123 -168c-86 0 -122 53 -122 168zM303 463c0 105 -32 155 -112 155c-81 0 -111 -50 -111 -155c0 -107 30 -157 111 -157c80 0 112 50 112 157zM80 244h222c2 -4 2 -7 0 -11h-222c-2 4 -2 7 0 11z" />
    <glyph glyph-name="oslash" unicode="&#xf8;" horiz-adv-x="538" 
d="M442 556l-38 -70c41 -42 63 -114 63 -223c0 -198 -73 -273 -198 -273c-47 0 -86 10 -117 34l-34 -63c-5 0 -9 2 -12 6l36 65c-46 42 -71 115 -71 231c0 198 73 273 198 273c51 0 93 -12 125 -40l36 66c5 0 9 -2 12 -6zM269 522c-113 0 -184 -64 -184 -259
c0 -111 23 -179 64 -218l238 438c-30 28 -71 39 -118 39zM159 36c29 -23 67 -32 110 -32c113 0 184 64 184 259c0 104 -20 171 -56 210z" />
    <glyph glyph-name="oslashacute" unicode="&#x1ff;" horiz-adv-x="538" 
d="M442 556l-38 -70c41 -42 63 -114 63 -223c0 -198 -73 -273 -198 -273c-47 0 -86 10 -117 34l-34 -63c-5 0 -9 2 -12 6l36 65c-46 42 -71 115 -71 231c0 198 73 273 198 273c51 0 93 -12 125 -40l36 66c5 0 9 -2 12 -6zM269 522c-113 0 -184 -64 -184 -259
c0 -111 23 -179 64 -218l238 438c-30 28 -71 39 -118 39zM159 36c29 -23 67 -32 110 -32c113 0 184 64 184 259c0 104 -20 171 -56 210zM208 618l124 152c6 -1 8 -5 11 -10l-125 -150c-5 1 -8 4 -10 8z" />
    <glyph glyph-name="otilde" unicode="&#xf5;" horiz-adv-x="538" 
d="M71 263c0 198 73 273 198 273s198 -75 198 -273s-73 -273 -198 -273s-198 75 -198 273zM453 263c0 195 -71 259 -184 259s-184 -64 -184 -259s71 -259 184 -259s184 64 184 259zM326 664c31 0 42 23 46 33c5 -1 9 -3 12 -7c0 0 -12 -41 -60 -41c-45 0 -67 40 -105 40
c-37 0 -46 -34 -46 -34c-6 1 -9 2 -12 6c0 0 10 43 61 43c38 0 59 -40 104 -40z" />
    <glyph glyph-name="p" unicode="p" horiz-adv-x="555" 
d="M292 -10c-76 0 -147 46 -181 128v-366s-2 -2 -7 -2c-6 0 -8 2 -8 2v772s2 2 8 2s7 -2 7 -2v-121c27 76 91 133 174 133c131 0 199 -87 199 -273c0 -183 -66 -273 -192 -273zM111 184c3 -85 77 -179 180 -179c117 0 178 84 178 258c0 177 -63 258 -185 258
c-108 0 -173 -108 -173 -195v-142z" />
    <glyph glyph-name="paragraph" unicode="&#xb6;" horiz-adv-x="398" 
d="M125 -225v796c-42 2 -62 32 -62 65c1 31 22 63 64 63h13v-924s-2 -2 -8 -2s-7 2 -7 2zM284 697v-922s-3 -2 -8 -2c-6 0 -7 2 -7 2v922s4 2 8 2s7 -2 7 -2z" />
    <glyph glyph-name="parenleft" unicode="(" horiz-adv-x="278" 
d="M228 811c5 -1 9 -3 12 -8c0 0 -153 -170 -153 -483s153 -483 153 -483c-2 -5 -6 -7 -10 -8c-2 -1 -159 176 -159 491s157 491 157 491z" />
    <glyph glyph-name="parenright" unicode=")" horiz-adv-x="278" 
d="M191 320c0 313 -153 483 -153 483c3 5 7 7 12 8c0 0 157 -176 157 -491s-157 -492 -159 -491c-4 1 -8 3 -10 8c0 0 153 170 153 483z" />
    <glyph glyph-name="partialdiff" unicode="&#x2202;" horiz-adv-x="552" 
d="M149 738c0 5 1 10 4 14c191 -31 326 -210 326 -448c0 -215 -65 -314 -208 -314c-131 0 -200 90 -200 262s65 262 191 262c91 0 160 -54 195 -117l-1 4c-34 180 -136 305 -307 337zM86 252c0 -162 63 -247 185 -247c137 0 193 94 193 299l-1 54c-38 95 -123 141 -202 141
c-115 0 -175 -85 -175 -247z" />
    <glyph glyph-name="percent" unicode="%" horiz-adv-x="737" 
d="M578 700l-389 -708c-6 -2 -11 -2 -17 0l389 708c6 2 11 2 17 0zM184 345c-77 0 -124 48 -124 173c0 123 47 173 124 173c76 0 125 -48 125 -173s-49 -173 -125 -173zM184 677c-66 0 -110 -39 -110 -159c0 -121 44 -159 110 -159s110 38 110 159c0 119 -45 159 -110 159z
M553 -10c-77 0 -124 48 -124 173c0 123 47 173 124 173c76 0 125 -48 125 -173s-49 -173 -125 -173zM553 322c-66 0 -110 -39 -110 -159c0 -121 44 -159 110 -159s110 38 110 159c0 119 -45 159 -110 159z" />
    <glyph glyph-name="period" unicode="." horiz-adv-x="162" 
d="M95 21v-20s-5 -4 -14 -4c-8 0 -14 4 -14 4v20s6 4 14 4c9 0 14 -4 14 -4z" />
    <glyph glyph-name="periodcentered" unicode="&#xb7;" horiz-adv-x="204" 
d="M116 294v-20s-5 -4 -14 -4c-8 0 -14 4 -14 4v20s6 4 14 4c9 0 14 -4 14 -4z" />
    <glyph glyph-name="perthousand" unicode="&#x2030;" horiz-adv-x="1058" 
d="M578 700l-389 -708c-6 -2 -11 -2 -17 0l389 708c6 2 11 2 17 0zM184 345c-77 0 -124 48 -124 173c0 123 47 173 124 173c76 0 125 -48 125 -173s-49 -173 -125 -173zM184 677c-66 0 -110 -39 -110 -159c0 -121 44 -159 110 -159s110 38 110 159c0 119 -45 159 -110 159z
M553 -10c-77 0 -124 48 -124 173c0 123 47 173 124 173c76 0 125 -48 125 -173s-49 -173 -125 -173zM553 322c-66 0 -110 -39 -110 -159c0 -121 44 -159 110 -159s110 38 110 159c0 119 -45 159 -110 159zM875 -10c-77 0 -124 48 -124 173c0 123 47 173 124 173
c76 0 125 -48 125 -173s-49 -173 -125 -173zM875 322c-66 0 -110 -39 -110 -159c0 -121 44 -159 110 -159s110 38 110 159c0 119 -45 159 -110 159z" />
    <glyph glyph-name="pi" unicode="&#x3c0;" horiz-adv-x="594" 
d="M161 526h388c1 -2 2 -5 2 -8c0 -2 -1 -6 -2 -7l-75 1v-276c0 -183 39 -229 39 -229c-1 -4 -6 -7 -13 -7h-1s-39 59 -39 236v276h-331v-510s0 -2 -6 -2s-7 2 -7 2v511c-43 -1 -72 -9 -72 -9c-3 3 -3 10 0 14c0 0 27 8 117 8z" />
    <glyph glyph-name="plus" unicode="+" horiz-adv-x="466" 
d="M226 283h-154s-2 1 -2 7c0 7 2 8 2 8h154v153s1 2 7 2c7 0 8 -2 8 -2v-153h153s2 -1 2 -8c0 -6 -2 -7 -2 -7h-153v-154s-1 -2 -8 -2c-6 0 -7 2 -7 2v154z" />
    <glyph glyph-name="plusminus" unicode="&#xb1;" horiz-adv-x="511" 
d="M247 395h-148s-2 1 -2 7c0 7 2 8 2 8h148v123s1 2 8 2c6 0 7 -2 7 -2v-123h151s2 -1 2 -8c0 -6 -2 -7 -2 -7h-151v-124s-1 -2 -7 -2c-7 0 -8 2 -8 2v124zM416 157h-322s-2 1 -2 7c0 7 2 8 2 8h322s2 -1 2 -8c0 -6 -2 -7 -2 -7z" />
    <glyph glyph-name="product" unicode="&#x220f;" horiz-adv-x="705" 
d="M591 693v-898c-5 -2 -10 -2 -15 0v883h-447v-883c-5 -2 -10 -2 -15 0v898h477z" />
    <glyph glyph-name="q" unicode="q" horiz-adv-x="555" 
d="M444 -248v366c-34 -82 -105 -128 -181 -128c-126 0 -192 90 -192 273c0 186 68 273 199 273c83 0 147 -57 174 -133v121s1 2 7 2s8 -2 8 -2v-772s-2 -2 -8 -2c-5 0 -7 2 -7 2zM86 263c0 -174 61 -258 178 -258c103 0 177 94 180 179v142c0 87 -65 195 -173 195
c-122 0 -185 -81 -185 -258z" />
    <glyph glyph-name="question" unicode="?" horiz-adv-x="428" 
d="M368 540c0 -201 -195 -171 -195 -399c0 0 -3 -2 -8 -2s-7 2 -7 2c0 237 195 207 195 398c0 67 -37 136 -156 136c-89 0 -145 -27 -145 -27c-4 2 -6 11 -5 14c0 0 60 28 149 28c131 0 172 -79 172 -150zM180 21v-20s-5 -4 -14 -4c-8 0 -14 4 -14 4v20s6 4 14 4
c9 0 14 -4 14 -4z" />
    <glyph glyph-name="questiondown" unicode="&#xbf;" horiz-adv-x="418" 
d="M57 -22c0 201 195 171 195 399c0 0 3 2 8 2s7 -2 7 -2c0 -237 -195 -207 -195 -398c0 -67 37 -136 156 -136c89 0 145 27 145 27c4 -2 6 -11 5 -14c0 0 -60 -28 -149 -28c-131 0 -172 79 -172 150zM245 497v20s5 4 14 4c8 0 14 -4 14 -4v-20s-6 -4 -14 -4
c-9 0 -14 4 -14 4z" />
    <glyph glyph-name="quotedbl" unicode="&#x22;" horiz-adv-x="278" 
d="M87 530l-2 188s4 2 8 2c6 0 8 -2 8 -2l-2 -188c-2 0 -3 -1 -6 -1s-6 1 -6 1zM179 530l-2 188s2 2 8 2s8 -2 8 -2l-2 -188s-1 -1 -6 -1c-3 0 -6 1 -6 1z" />
    <glyph glyph-name="quotedblbase" unicode="&#x201e;" horiz-adv-x="229" 
d="M132 -70l-8 6s24 30 24 62c-4 0 -10 2 -10 2v20s3 2 12 2c8 0 12 -2 12 -2v-17c0 -44 -30 -73 -30 -73zM61 -70l-8 6s24 30 24 62c-4 0 -10 2 -10 2v20s3 2 12 2c8 0 12 -2 12 -2v-17c0 -44 -30 -73 -30 -73z" />
    <glyph glyph-name="quotedblleft" unicode="&#x201c;" horiz-adv-x="258" 
d="M109 720l8 -6s-24 -30 -24 -62c4 0 10 -2 10 -2v-20s-3 -2 -12 -2c-8 0 -12 2 -12 2v17c0 44 30 73 30 73zM180 720l8 -6s-24 -30 -24 -62c4 0 10 -2 10 -2v-20s-3 -2 -12 -2c-8 0 -12 2 -12 2v17c0 44 30 73 30 73z" />
    <glyph glyph-name="quotedblright" unicode="&#x201d;" horiz-adv-x="252" 
d="M153 627l-8 6s24 30 24 62c-4 0 -10 2 -10 2v20s3 2 12 2c8 0 12 -2 12 -2v-17c0 -44 -30 -73 -30 -73zM82 627l-8 6s24 30 24 62c-4 0 -10 2 -10 2v20s3 2 12 2c8 0 12 -2 12 -2v-17c0 -44 -30 -73 -30 -73z" />
    <glyph glyph-name="quoteleft" unicode="&#x2018;" horiz-adv-x="186" 
d="M108 719l8 -6s-24 -30 -24 -62c4 0 10 -2 10 -2v-20s-3 -2 -12 -2c-8 0 -12 2 -12 2v17c0 44 30 73 30 73z" />
    <glyph glyph-name="quoteright" unicode="&#x2019;" horiz-adv-x="182" 
d="M83 629l-8 6s24 30 24 62c-4 0 -10 2 -10 2v20s3 2 12 2c8 0 12 -2 12 -2v-17c0 -44 -30 -73 -30 -73z" />
    <glyph glyph-name="quotesinglbase" unicode="&#x201a;" horiz-adv-x="158" 
d="M61 -70l-8 6s24 30 24 62c-4 0 -10 2 -10 2v20s3 2 12 2c8 0 12 -2 12 -2v-17c0 -44 -30 -73 -30 -73z" />
    <glyph glyph-name="quotesingle" unicode="'" horiz-adv-x="186" 
d="M87 530l-2 188s2 2 8 2s8 -2 8 -2l-2 -188c-4 -2 -8 -2 -12 0z" />
    <glyph glyph-name="r" unicode="r" horiz-adv-x="385" 
d="M110 401c44 111 106 135 162 135c43 0 70 -13 81 -20c-1 -5 -5 -11 -9 -13c-20 12 -43 19 -77 19c-73 0 -122 -58 -157 -153v-368c-4 -2 -10 -2 -14 0v524c4 2 10 2 14 0v-124z" />
    <glyph glyph-name="racute" unicode="&#x155;" horiz-adv-x="385" 
d="M110 401c44 111 106 134 162 134c43 0 71 -14 82 -21c-1 -6 -4 -10 -10 -12c-20 12 -43 19 -77 19c-73 0 -122 -57 -157 -152v-368c-4 -2 -10 -2 -14 0v524c4 2 10 2 14 0v-124zM160 619l124 152c6 -1 8 -5 11 -10l-125 -150c-5 1 -8 4 -10 8z" />
    <glyph glyph-name="radical" unicode="&#x221a;" horiz-adv-x="614" 
d="M323 -15l-161 402l-115 -49c-5 3 -7 5 -7 13l131 55l158 -399l238 723c5 1 11 0 14 -4l-245 -741h-13z" />
    <glyph glyph-name="rcaron" unicode="&#x159;" horiz-adv-x="385" 
d="M110 401c44 111 106 134 162 134c43 0 71 -14 82 -21c-1 -6 -4 -10 -10 -12c-20 12 -43 19 -77 19c-73 0 -122 -57 -157 -152v-368c-4 -2 -10 -2 -14 0v524c4 2 10 2 14 0v-124zM219 601l-118 94c1 4 3 8 8 10l117 -91l116 92c5 -1 8 -5 8 -10l-118 -95h-13z" />
    <glyph glyph-name="rcommaaccent" unicode="&#x157;" horiz-adv-x="385" 
d="M87 -138l-8 6s24 30 24 62c-4 0 -10 2 -10 2v20s3 2 12 2c8 0 12 -2 12 -2v-17c0 -44 -30 -73 -30 -73zM110 401c44 111 106 134 162 134c43 0 71 -14 82 -21c-1 -6 -4 -10 -10 -12c-20 12 -43 19 -77 19c-73 0 -122 -57 -157 -152v-368c-4 -2 -10 -2 -14 0v524
c4 2 10 2 14 0v-124z" />
    <glyph glyph-name="registered" unicode="&#xae;" horiz-adv-x="548" 
d="M72 471c0 121 81 202 202 202s202 -81 202 -202s-81 -202 -202 -202s-202 81 -202 202zM84 471c0 -114 76 -190 190 -190s190 76 190 190s-76 190 -190 190s-190 -76 -190 -190zM292 589c48 0 68 -22 68 -64c0 -31 -14 -52 -44 -58l58 -104s-1 -2 -6 -2s-7 1 -7 1
l-57 103h-8h-77v-103s-1 -1 -7 -1c-4 0 -5 1 -5 1v227h85zM219 476h75c40 0 54 18 54 49c0 35 -14 52 -54 52h-75v-101z" />
    <glyph glyph-name="ring" unicode="&#x2da;" horiz-adv-x="344" 
d="M170 516c-59 0 -103 35 -103 99s51 97 104 97c52 0 105 -32 105 -97c0 -64 -48 -99 -106 -99zM261 615c0 43 -30 83 -91 83c-60 0 -88 -41 -88 -83c0 -43 28 -86 88 -86c61 0 91 44 91 86z" />
    <glyph glyph-name="s" unicode="s" horiz-adv-x="443" 
d="M67 396c0 90 56 140 169 140c68 0 122 -21 122 -21c1 -4 -2 -12 -6 -14c0 0 -52 21 -115 21c-100 0 -156 -39 -156 -126c0 -90 100 -109 141 -121c76 -22 162 -46 162 -146c0 -86 -57 -139 -170 -139c-91 0 -147 30 -147 30c-1 3 2 11 6 13c20 -10 67 -29 139 -29
c91 0 158 36 158 125c0 93 -78 111 -152 132c-73 20 -151 47 -151 135z" />
    <glyph glyph-name="sacute" unicode="&#x15b;" horiz-adv-x="443" 
d="M67 396c0 90 56 140 169 140c68 0 122 -21 122 -21c1 -4 -2 -12 -6 -14c0 0 -52 21 -115 21c-100 0 -156 -39 -156 -126c0 -90 100 -109 141 -121c76 -22 162 -46 162 -146c0 -86 -57 -139 -170 -139c-91 0 -147 30 -147 30c-1 3 2 11 6 13c20 -10 67 -29 139 -29
c91 0 158 36 158 125c0 93 -78 111 -152 132c-73 20 -151 47 -151 135zM168 616l124 152c6 -1 8 -5 11 -10l-125 -150c-5 1 -8 4 -10 8z" />
    <glyph glyph-name="scaron" unicode="&#x161;" horiz-adv-x="443" 
d="M67 396c0 90 56 140 169 140c68 0 122 -21 122 -21c1 -4 -2 -12 -6 -14c0 0 -52 21 -115 21c-100 0 -156 -39 -156 -126c0 -90 100 -109 141 -121c76 -22 162 -46 162 -146c0 -86 -57 -139 -170 -139c-91 0 -147 30 -147 30c-1 3 2 11 6 13c20 -10 67 -29 139 -29
c91 0 158 36 158 125c0 93 -78 111 -152 132c-73 20 -151 47 -151 135zM226 608l-117 93c1 4 3 8 8 10l116 -90l113 90c5 -1 8 -5 8 -10l-115 -93h-13z" />
    <glyph glyph-name="scedilla" unicode="&#x15f;" horiz-adv-x="443" 
d="M222 275c76 -22 162 -46 162 -146c0 -82 -52 -134 -155 -139l-12 -55c75 2 110 -30 110 -79c0 -59 -35 -94 -108 -94c-36 0 -63 10 -88 27c1 5 4 8 8 11c22 -14 46 -24 81 -24c54 0 93 22 93 80c0 47 -36 66 -86 66h-20l-5 6l15 62h-3c-91 0 -147 30 -147 30
c-1 3 2 11 6 13c20 -10 67 -29 139 -29c91 0 158 36 158 125c0 93 -78 111 -152 132c-73 20 -151 47 -151 135c0 90 56 140 169 140c68 0 122 -21 122 -21c1 -4 -2 -12 -6 -14c0 0 -52 21 -115 21c-100 0 -156 -39 -156 -126c0 -90 100 -109 141 -121z" />
    <glyph glyph-name="scircumflex" unicode="&#x15d;" horiz-adv-x="443" 
d="M67 396c0 90 56 140 169 140c68 0 122 -21 122 -21c1 -4 -2 -12 -6 -14c0 0 -52 21 -115 21c-100 0 -156 -39 -156 -126c0 -90 100 -109 141 -121c76 -22 162 -46 162 -146c0 -86 -57 -139 -170 -139c-91 0 -147 30 -147 30c-1 3 2 11 6 13c20 -10 67 -29 139 -29
c91 0 158 36 158 125c0 93 -78 111 -152 132c-73 20 -151 47 -151 135zM113 611c-5 2 -7 6 -8 10l118 94h13l116 -94c0 -5 -3 -9 -8 -10l-114 91z" />
    <glyph glyph-name="scommaaccent" unicode="&#x219;" horiz-adv-x="443" 
d="M67 396c0 90 56 140 169 140c68 0 122 -21 122 -21c1 -4 -2 -12 -6 -14c0 0 -52 21 -115 21c-100 0 -156 -39 -156 -126c0 -90 100 -109 141 -121c76 -22 162 -46 162 -146c0 -86 -57 -139 -170 -139c-91 0 -147 30 -147 30c-1 3 2 11 6 13c20 -10 67 -29 139 -29
c91 0 158 36 158 125c0 93 -78 111 -152 132c-73 20 -151 47 -151 135zM202 -187l-8 6s24 30 24 62c-4 0 -10 2 -10 2v20s3 2 12 2c8 0 12 -2 12 -2v-17c0 -44 -30 -73 -30 -73z" />
    <glyph glyph-name="section" unicode="&#xa7;" horiz-adv-x="482" 
d="M402 340c0 -75 -60 -118 -90 -131c49 -22 96 -56 96 -104c0 -84 -57 -115 -181 -115c-87 0 -148 24 -148 24c0 7 3 12 6 16c22 -9 73 -24 137 -24c117 0 170 26 170 99c0 55 -71 91 -154 116c-72 22 -160 50 -160 129c0 70 64 108 95 123c-48 20 -85 52 -85 105
c0 77 49 112 155 112c71 0 124 -20 133 -23c1 -7 -2 -12 -6 -14c4 -2 -60 21 -120 21c-105 0 -146 -30 -146 -95c0 -141 298 -92 298 -239zM193 466c-41 -16 -100 -55 -100 -115c0 -68 74 -92 150 -116c15 -5 33 -11 52 -18c37 15 92 54 92 121c0 81 -102 96 -194 128z" />
    <glyph glyph-name="semicolon" unicode=";" horiz-adv-x="218" 
d="M126 418v-20s-5 -4 -14 -4c-8 0 -14 4 -14 4v20s6 4 14 4c9 0 14 -4 14 -4zM94 -70l-8 6s24 30 24 62c-4 0 -10 2 -10 2v20s3 2 12 2c8 0 12 -2 12 -2v-17c0 -44 -30 -73 -30 -73z" />
    <glyph glyph-name="seven" unicode="7" horiz-adv-x="493" 
d="M42 680h401c1 -4 2 -6 2 -10c2 -262 -261 -306 -261 -668c-7 -6 -15 0 -15 0c0 362 261 417 261 663h-388s-2 2 -2 7c0 6 2 8 2 8z" />
    <glyph glyph-name="seven.denom" horiz-adv-x="270" 
d="M224 331h-188c-2 4 -2 8 0 12h199s1 -4 1 -16c0 -139 -129 -138 -129 -325c-4 -2 -8 -2 -12 0c-1 189 136 200 129 329z" />
    <glyph glyph-name="seven.num" horiz-adv-x="270" 
d="M224 676h-188c-2 4 -2 8 0 12h199s1 -4 1 -16c0 -139 -129 -138 -129 -325c-4 -2 -8 -2 -12 0c-1 189 136 200 129 329z" />
    <glyph glyph-name="seveneighths" unicode="&#x215e;" horiz-adv-x="649" 
d="M465 700c0 0 2 2 6 2c5 0 5 -2 5 -2l-388 -709s-1 -1 -6 -1c-6 0 -7 1 -7 1zM59 689h199s1 -4 1 -16c0 -149 -129 -145 -129 -325c-4 -3 -9 -3 -13 0c-1 188 140 197 130 328h-188c-3 2 -3 11 0 13zM376 271c0 45 32 77 101 77c63 0 101 -28 101 -81
c0 -48 -30 -78 -64 -96c41 -18 76 -40 76 -88c0 -54 -42 -88 -112 -88c-66 0 -114 29 -114 89c0 56 39 89 74 108c-35 17 -62 39 -62 79zM565 267c0 44 -32 68 -89 68c-55 0 -87 -24 -87 -62c0 -57 56 -74 111 -97c37 24 65 52 65 91zM578 81c0 61 -67 78 -127 105
c-26 -15 -75 -47 -75 -102c0 -54 39 -77 103 -77c55 0 99 24 99 74z" />
    <glyph glyph-name="seveninferior" unicode="&#x2087;" horiz-adv-x="270" 
d="M224 235h-188c-2 4 -2 8 0 12h199s1 -4 1 -16c0 -139 -129 -138 -129 -325c-4 -2 -8 -2 -12 0c-1 189 136 200 129 329z" />
    <glyph glyph-name="six" unicode="6" horiz-adv-x="552" 
d="M419 680c2 -5 2 -10 0 -14c-178 -17 -293 -117 -322 -321c60 49 121 71 194 71c130 0 198 -73 198 -213c0 -136 -88 -213 -206 -213c-117 0 -206 80 -206 267c0 280 146 409 342 423zM474 203c0 130 -62 198 -181 198c-75 0 -138 -24 -198 -74c-3 -23 -2 -49 -2 -74
c0 -170 81 -248 190 -248s191 68 191 198z" />
    <glyph glyph-name="six.denom" horiz-adv-x="306" 
d="M47 149c0 93 54 183 181 197c2 -2 3 -7 1 -11c-109 -16 -164 -80 -172 -177c19 17 52 37 106 37c64 0 103 -37 103 -96c0 -65 -39 -104 -106 -104c-74 0 -113 54 -113 154zM254 99c0 52 -35 84 -91 84c-64 0 -96 -28 -105 -39c2 -91 37 -137 102 -137c59 0 94 33 94 92z
" />
    <glyph glyph-name="six.num" horiz-adv-x="306" 
d="M47 497c0 93 54 183 181 197c2 -2 3 -7 1 -11c-109 -16 -164 -80 -172 -177c19 17 52 37 106 37c64 0 103 -37 103 -96c0 -65 -39 -104 -106 -104c-74 0 -113 54 -113 154zM254 447c0 52 -35 84 -91 84c-64 0 -96 -28 -105 -39c2 -91 37 -137 102 -137c59 0 94 33 94 92z
" />
    <glyph glyph-name="sixinferior" unicode="&#x2086;" horiz-adv-x="306" 
d="M47 53c0 93 54 183 181 197c2 -2 3 -7 1 -11c-109 -16 -164 -80 -172 -177c19 17 52 37 106 37c64 0 103 -37 103 -96c0 -65 -39 -104 -106 -104c-74 0 -113 54 -113 154zM254 3c0 52 -35 84 -91 84c-64 0 -96 -28 -105 -39c2 -91 37 -137 102 -137c59 0 94 33 94 92z
" />
    <glyph glyph-name="slash" unicode="/" horiz-adv-x="406" 
d="M43 -44c-5 -2 -11 -2 -16 0l337 791c5 2 11 2 16 0z" />
    <glyph glyph-name="space" unicode=" " horiz-adv-x="263" 
 />
    <glyph glyph-name="sterling" unicode="&#xa3;" horiz-adv-x="504" 
d="M97 15h341c2 -5 2 -10 0 -15h-361v16c126 108 107 214 73 316h-83c-2 5 -2 10 0 15h77c-24 65 -42 115 -42 172c0 119 77 172 195 172c74 0 133 -20 141 -23c0 -5 -2 -12 -7 -14c-5 2 -57 22 -137 22c-117 0 -177 -53 -177 -160c0 -56 20 -108 43 -169h210
c2 -5 2 -10 0 -15h-204c32 -99 51 -215 -69 -317z" />
    <glyph glyph-name="summation" unicode="&#x2211;" horiz-adv-x="560" 
d="M42 -194l227 455l-210 425v8h447c2 -5 2 -10 0 -15h-426l206 -418l-225 -453h451s2 0 2 -6c0 -7 -2 -9 -2 -9h-470v13z" />
    <glyph glyph-name="t" unicode="t" horiz-adv-x="340" 
d="M314 10c2 -3 3 -8 2 -12c-16 -5 -35 -8 -66 -8c-106 0 -132 65 -132 177v345h-81s-2 3 -2 7c0 7 2 7 2 7h81v105c3 5 9 6 14 6v-111h170s2 -2 2 -7s-2 -7 -2 -7h-170v-345c0 -106 23 -163 118 -163c38 0 64 6 64 6z" />
    <glyph glyph-name="tbar" unicode="&#x167;" horiz-adv-x="344" 
d="M253 4c38 0 64 6 64 6c2 -3 3 -8 2 -12c-16 -5 -35 -8 -66 -8c-106 0 -132 65 -132 177v112h-67c-1 5 -1 9 0 14h67v219h-81s-2 3 -2 7c0 7 2 7 2 7h81v105c3 5 9 6 14 6v-111h170s2 -2 2 -7s-2 -7 -2 -7h-170v-219h135c1 -5 1 -9 0 -14h-135v-112
c0 -106 23 -163 118 -163z" />
    <glyph glyph-name="tcaron" unicode="&#x165;" horiz-adv-x="340" 
d="M333 729c2 -46 -16 -107 -58 -136c-6 -1 -9 2 -10 5c39 31 54 78 52 132c7 2 13 2 16 -1zM314 10c2 -3 3 -8 2 -12c-16 -5 -35 -8 -66 -8c-106 0 -132 65 -132 177v345h-81s-2 3 -2 7c0 7 2 7 2 7h81v105c3 5 9 6 14 6v-111h170s2 -2 2 -7s-2 -7 -2 -7h-170v-345
c0 -106 23 -163 118 -163c38 0 64 6 64 6z" />
    <glyph glyph-name="thorn" unicode="&#xfe;" horiz-adv-x="555" 
d="M292 -10c-76 0 -147 46 -181 128v-367s-2 -2 -7 -2c-6 0 -8 2 -8 2v995s2 2 8 2s7 -2 7 -2v-343c27 76 91 133 174 133c131 0 199 -87 199 -273c0 -183 -66 -273 -192 -273zM111 184c3 -85 77 -179 180 -179c117 0 178 84 178 258c0 177 -63 258 -185 258
c-108 0 -173 -108 -173 -195v-142z" />
    <glyph glyph-name="three" unicode="3" horiz-adv-x="509" 
d="M432 170c0 -117 -74 -180 -216 -180c-94 0 -158 31 -158 31c0 4 2 10 6 13c35 -14 80 -29 151 -29c133 0 202 56 202 163c0 154 -121 182 -208 182h-37c-1 5 -1 9 0 15h37c77 0 190 16 190 163c0 87 -53 147 -174 147c-85 0 -150 -26 -150 -26c-3 1 -6 7 -6 12
c0 0 67 29 157 29c131 0 188 -73 188 -159c0 -85 -33 -154 -140 -174c111 -18 158 -93 158 -187z" />
    <glyph glyph-name="three.denom" horiz-adv-x="304" 
d="M257 89c0 -59 -46 -94 -128 -94c-46 0 -82 11 -82 11c-1 4 0 9 3 11c0 0 35 -10 79 -10c76 0 116 31 116 82c0 61 -44 85 -97 85h-42c-2 3 -2 9 0 12h42c54 0 85 28 85 75c0 49 -32 75 -92 75c-50 0 -83 -9 -83 -9c-2 3 -3 8 -2 11c0 0 35 10 84 10c69 0 105 -30 105 -87
c0 -39 -21 -72 -61 -81c40 -7 73 -37 73 -91z" />
    <glyph glyph-name="three.num" horiz-adv-x="304" 
d="M257 435c0 -59 -46 -94 -128 -94c-46 0 -82 11 -82 11c-1 4 0 9 3 11c0 0 35 -10 79 -10c76 0 116 31 116 82c0 61 -44 85 -97 85h-42c-2 3 -2 9 0 12h42c54 0 85 28 85 75c0 49 -32 75 -92 75c-50 0 -83 -9 -83 -9c-2 3 -3 8 -2 11c0 0 35 10 84 10
c69 0 105 -30 105 -87c0 -39 -21 -72 -61 -81c40 -7 73 -37 73 -91z" />
    <glyph glyph-name="threeeighths" unicode="&#x215c;" horiz-adv-x="743" 
d="M558 700c0 0 2 2 8 2c5 0 5 -2 5 -2l-388 -709s-1 -1 -6 -1c-6 0 -7 1 -7 1zM672 267c0 -47 -30 -78 -63 -96c41 -19 75 -43 75 -88c0 -55 -42 -88 -112 -88c-72 0 -114 33 -114 89c0 55 38 89 74 107c-35 18 -61 41 -61 80c0 48 37 77 100 77s101 -30 101 -81zM571 336
c-55 0 -88 -24 -88 -65c0 -57 59 -74 114 -95c42 24 63 52 63 91c0 43 -33 69 -89 69zM470 84c0 -48 38 -77 103 -77c62 0 99 27 99 74c0 63 -65 77 -129 105c-33 -18 -73 -47 -73 -102zM273 435c0 -59 -46 -94 -128 -94c-46 0 -82 11 -82 11c-1 4 0 9 3 11
c0 0 35 -10 79 -10c76 0 116 31 116 82c0 61 -44 85 -97 85h-42c-2 3 -2 9 0 12h42c54 0 85 28 85 75c0 49 -32 75 -92 75c-50 0 -83 -9 -83 -9c-2 3 -3 8 -2 11c0 0 35 10 84 10c69 0 105 -30 105 -87c0 -39 -21 -72 -61 -81c40 -7 73 -37 73 -91z" />
    <glyph glyph-name="threeinferior" unicode="&#x2083;" horiz-adv-x="304" 
d="M257 -8c0 -59 -46 -94 -128 -94c-46 0 -82 11 -82 11c-1 4 0 9 3 11c0 0 35 -10 79 -10c76 0 116 31 116 82c0 61 -44 85 -97 85h-42c-2 3 -2 9 0 12h42c54 0 85 28 85 75c0 49 -32 75 -92 75c-50 0 -83 -9 -83 -9c-2 3 -3 8 -2 11c0 0 35 10 84 10c69 0 105 -30 105 -87
c0 -39 -21 -72 -61 -81c40 -7 73 -37 73 -91z" />
    <glyph glyph-name="threequarters" unicode="&#xbe;" horiz-adv-x="686" 
d="M576 700l-388 -709s-1 -1 -6 -1c-6 0 -7 1 -7 1l388 709s4 2 8 2c5 0 5 -2 5 -2zM273 435c0 -59 -46 -94 -128 -94c-46 0 -82 11 -82 11c-1 4 0 9 3 11c0 0 35 -10 79 -10c76 0 116 31 116 82c0 61 -44 85 -97 85h-42c-2 3 -2 9 0 12h42c54 0 85 28 85 75
c0 49 -32 75 -92 75c-50 0 -83 -9 -83 -9c-2 3 -3 8 -2 11c0 0 35 10 84 10c69 0 105 -30 105 -87c0 -39 -21 -72 -61 -81c40 -7 73 -37 73 -91zM592 116h37c2 -5 2 -7 0 -12h-37v-103c-4 -2 -8 -2 -12 0v103h-183c-2 3 0 7 0 7l184 231c6 2 11 0 11 0v-226zM580 321
l-165 -205h165v205z" />
    <glyph glyph-name="threesuperior" unicode="&#xb3;" horiz-adv-x="304" 
d="M257 435c0 -59 -46 -94 -128 -94c-46 0 -82 11 -82 11c-1 4 0 9 3 11c0 0 35 -10 79 -10c76 0 116 31 116 82c0 61 -44 85 -97 85h-42c-2 3 -2 9 0 12h42c54 0 85 28 85 75c0 49 -32 75 -92 75c-50 0 -83 -9 -83 -9c-2 3 -3 8 -2 11c0 0 35 10 84 10
c69 0 105 -30 105 -87c0 -39 -21 -72 -61 -81c40 -7 73 -37 73 -91z" />
    <glyph glyph-name="tilde" unicode="&#x2dc;" horiz-adv-x="327" 
d="M231 632c31 0 42 23 46 33c5 -1 9 -3 12 -7c0 0 -12 -41 -60 -41c-45 0 -67 40 -105 40c-37 0 -46 -34 -46 -34c-6 1 -9 2 -12 6c0 0 10 43 61 43c38 0 59 -40 104 -40z" />
    <glyph glyph-name="trademark" unicode="&#x2122;" horiz-adv-x="641" 
d="M50 720h203c2 -2 2 -5 2 -8c0 -1 0 -4 -2 -7h-93v-270s-2 -3 -8 -3c-5 0 -7 3 -7 3v270h-95c-1 2 -2 6 -2 7c0 2 0 6 2 8zM310 717c6 2 13 2 19 0l96 -195l102 195c5 2 13 2 18 0v-282s-3 -2 -7 -2c-5 0 -8 2 -8 2v136v124l-96 -183s-2 -3 -9 -3s-9 3 -9 3l-92 183v-123
v-137s-3 -2 -7 -2s-7 2 -7 2v282z" />
    <glyph glyph-name="two" unicode="2" horiz-adv-x="525" 
d="M95 641c-4 3 -5 7 -5 13c0 0 67 36 179 36c102 0 188 -43 188 -165c0 -109 -72 -153 -191 -225c-75 -46 -186 -71 -186 -233c0 -29 3 -53 3 -52h362c3 -5 3 -10 0 -15h-375s-6 32 -6 67c0 160 101 189 193 245c97 59 185 100 185 213c0 58 -20 150 -174 150
c-79 0 -134 -17 -173 -34z" />
    <glyph glyph-name="two.denom" horiz-adv-x="303" 
d="M41 41c0 136 201 103 201 218c0 36 -18 77 -98 77c-40 -1 -67 -8 -77 -11c-2 3 -3 8 -2 12c-2 0 31 11 80 11c86 0 109 -44 109 -90c0 -124 -201 -91 -201 -217c0 -9 0 -19 2 -29h199c1 -1 2 -4 2 -6s-1 -5 -2 -6h-208s-5 18 -5 41z" />
    <glyph glyph-name="two.num" horiz-adv-x="303" 
d="M41 387c0 136 201 103 201 218c0 36 -18 77 -98 77c-40 -1 -67 -8 -77 -11c-2 3 -3 8 -2 12c-2 0 31 11 80 11c86 0 109 -44 109 -90c0 -124 -201 -91 -201 -217c0 -9 0 -19 2 -29h199c1 -1 2 -4 2 -6s-1 -5 -2 -6h-208s-5 18 -5 41z" />
    <glyph glyph-name="twoinferior" unicode="&#x2082;" horiz-adv-x="303" 
d="M41 -55c0 136 201 103 201 218c0 36 -18 77 -98 77c-40 -1 -67 -8 -77 -11c-2 3 -3 8 -2 12c-2 0 31 11 80 11c86 0 109 -44 109 -90c0 -124 -201 -91 -201 -217c0 -9 0 -19 2 -29h199c1 -1 2 -4 2 -6s-1 -5 -2 -6h-208s-5 18 -5 41z" />
    <glyph glyph-name="twosuperior" unicode="&#xb2;" horiz-adv-x="303" 
d="M41 387c0 136 201 103 201 218c0 36 -18 77 -98 77c-40 -1 -67 -8 -77 -11c-2 3 -3 8 -2 12c-2 0 31 11 80 11c86 0 109 -44 109 -90c0 -124 -201 -91 -201 -217c0 -9 0 -19 2 -29h199c1 -1 2 -4 2 -6s-1 -5 -2 -6h-208s-5 18 -5 41z" />
    <glyph glyph-name="u" unicode="u" horiz-adv-x="550" 
d="M92 143v381c4 3 10 3 14 0v-380c0 -86 53 -140 139 -140c75 0 149 37 195 150v370c4 3 10 3 14 0v-522c-4 -3 -10 -3 -14 0v121c-43 -90 -112 -133 -197 -133c-93 0 -151 62 -151 153z" />
    <glyph glyph-name="uacute" unicode="&#xfa;" horiz-adv-x="550" 
d="M219 626l117 143c6 -1 8 -5 11 -10l-118 -141c-5 1 -8 4 -10 8zM92 143v381c4 3 10 3 14 0v-380c0 -86 53 -140 139 -140c75 0 149 37 195 150v370c4 3 10 3 14 0v-522c-4 -3 -10 -3 -14 0v121c-43 -90 -112 -133 -197 -133c-93 0 -151 62 -151 153z" />
    <glyph glyph-name="ubreve" unicode="&#x16d;" horiz-adv-x="550" 
d="M92 143v381c4 3 10 3 14 0v-380c0 -86 53 -140 139 -140c75 0 149 37 195 150v370c4 3 10 3 14 0v-522c-4 -3 -10 -3 -14 0v121c-43 -90 -112 -133 -197 -133c-93 0 -151 62 -151 153zM273 662c67 0 103 35 115 48c5 -3 7 -5 9 -10c0 0 -42 -52 -124 -52s-124 52 -124 52
c2 5 4 8 9 9c10 -10 48 -47 115 -47z" />
    <glyph glyph-name="ucircumflex" unicode="&#xfb;" horiz-adv-x="550" 
d="M92 143v381c4 3 10 3 14 0v-380c0 -86 53 -140 139 -140c75 0 149 37 195 150v370c4 3 10 3 14 0v-522c-4 -3 -10 -3 -14 0v121c-43 -90 -112 -133 -197 -133c-93 0 -151 62 -151 153zM159 610c-5 2 -7 6 -8 10l115 92h13l118 -95c0 -5 -3 -9 -8 -10l-116 92z" />
    <glyph glyph-name="udieresis" unicode="&#xfc;" horiz-adv-x="550" 
d="M92 143v381c4 3 10 3 14 0v-380c0 -86 53 -140 139 -140c75 0 149 37 195 150v370c4 3 10 3 14 0v-522c-4 -3 -10 -3 -14 0v121c-43 -90 -112 -133 -197 -133c-93 0 -151 62 -151 153zM214 701v-20s-5 -4 -14 -4c-8 0 -14 4 -14 4v20s6 4 14 4c9 0 14 -4 14 -4zM348 701
v-20s-5 -4 -14 -4c-8 0 -14 4 -14 4v20s6 4 14 4c9 0 14 -4 14 -4z" />
    <glyph glyph-name="ugrave" unicode="&#xf9;" horiz-adv-x="550" 
d="M92 143v381c4 3 10 3 14 0v-380c0 -86 53 -140 139 -140c75 0 149 37 195 150v370c4 3 10 3 14 0v-522c-4 -3 -10 -3 -14 0v121c-43 -90 -112 -133 -197 -133c-93 0 -151 62 -151 153zM182 761c3 5 5 8 11 10l124 -152c-2 -4 -5 -7 -10 -8z" />
    <glyph glyph-name="uhungarumlaut" unicode="&#x171;" horiz-adv-x="550" 
d="M294 737l-95 -114c-7 1 -10 4 -12 8l89 114c9 -1 11 -3 18 -8zM405 737l-95 -114c-6 1 -11 4 -12 8l88 114c10 -1 13 -3 19 -8zM92 143v381c4 3 10 3 14 0v-380c0 -86 53 -140 139 -140c75 0 149 37 195 150v370c4 3 10 3 14 0v-522c-4 -3 -10 -3 -14 0v121
c-43 -90 -112 -133 -197 -133c-93 0 -151 62 -151 153z" />
    <glyph glyph-name="umacron" unicode="&#x16b;" horiz-adv-x="550" 
d="M92 143v381c4 3 10 3 14 0v-380c0 -86 53 -140 139 -140c75 0 149 37 195 150v370c4 3 10 3 14 0v-522c-4 -3 -10 -3 -14 0v121c-43 -90 -112 -133 -197 -133c-93 0 -151 62 -151 153zM382 669h-214c-2 5 -2 10 0 15h214c2 -5 2 -9 0 -15z" />
    <glyph glyph-name="underscore" unicode="_" horiz-adv-x="499" 
d="M445 -35h-392c-2 5 -2 10 0 15h392c2 -5 2 -10 0 -15z" />
    <glyph glyph-name="uni00AD" unicode="&#xad;" horiz-adv-x="288" 
 />
    <glyph glyph-name="Tcommaaccent" unicode="&#x162;" horiz-adv-x="525" 
d="M251 -171l-8 6s24 30 24 62c-4 0 -10 2 -10 2v20s3 2 12 2c8 0 12 -2 12 -2v-17c0 -44 -30 -73 -30 -73zM37 720h451s2 0 2 -7c0 -6 -2 -8 -2 -8h-215v-703s-2 -2 -8 -2c-4 0 -7 2 -7 2v703h-221s-2 3 -2 8c0 6 2 7 2 7z" />
    <glyph glyph-name="Tcommaaccent" unicode="&#x21a;" horiz-adv-x="525" 
d="M251 -171l-8 6s24 30 24 62c-4 0 -10 2 -10 2v20s3 2 12 2c8 0 12 -2 12 -2v-17c0 -44 -30 -73 -30 -73zM37 720h451s2 0 2 -7c0 -6 -2 -8 -2 -8h-215v-703s-2 -2 -8 -2c-4 0 -7 2 -7 2v703h-221s-2 3 -2 8c0 6 2 7 2 7z" />
    <glyph glyph-name="tcommaaccent" unicode="&#x163;" horiz-adv-x="340" 
d="M198 -171l-8 6s24 30 24 62c-4 0 -10 2 -10 2v20s3 2 12 2c8 0 12 -2 12 -2v-17c0 -44 -30 -73 -30 -73zM314 10c2 -3 3 -8 2 -12c-16 -5 -35 -8 -66 -8c-106 0 -132 65 -132 177v345h-81s-2 3 -2 7c0 7 2 7 2 7h81v105c3 5 9 6 14 6v-111h170s2 -2 2 -7s-2 -7 -2 -7
h-170v-345c0 -106 23 -163 118 -163c38 0 64 6 64 6z" />
    <glyph glyph-name="tcommaaccent" unicode="&#x21b;" horiz-adv-x="340" 
d="M198 -171l-8 6s24 30 24 62c-4 0 -10 2 -10 2v20s3 2 12 2c8 0 12 -2 12 -2v-17c0 -44 -30 -73 -30 -73zM314 10c2 -3 3 -8 2 -12c-16 -5 -35 -8 -66 -8c-106 0 -132 65 -132 177v345h-81s-2 3 -2 7c0 7 2 7 2 7h81v105c3 5 9 6 14 6v-111h170s2 -2 2 -7s-2 -7 -2 -7
h-170v-345c0 -106 23 -163 118 -163c38 0 64 6 64 6z" />
    <glyph glyph-name="uni0401" unicode="&#x401;" 
d="M112 720h379c2 -5 2 -10 0 -15h-364v-332h314c2 -5 2 -10 0 -15h-314v-343h374c2 -5 2 -10 0 -15h-389v720zM251 841v-20s-5 -4 -14 -4c-8 0 -14 4 -14 4v20s6 4 14 4c9 0 14 -4 14 -4zM385 841v-20s-5 -4 -14 -4c-8 0 -14 4 -14 4v20s6 4 14 4c9 0 14 -4 14 -4z" />
    <glyph glyph-name="uni0410" unicode="&#x410;" horiz-adv-x="637" 
d="M320 723l292 -722s-3 -2 -8 -2c-4 0 -9 2 -9 2l-91 227h-371l-91 -227s-3 -2 -9 -2c-5 0 -8 2 -8 2l291 722c1 1 3 1 4 0zM139 243h359l-180 446z" />
    <glyph glyph-name="uni0411" unicode="&#x411;" horiz-adv-x="605" 
d="M112 720h360s2 -3 2 -8s-2 -7 -2 -7h-345v-314h224c120 0 195 -76 195 -194c0 -119 -73 -197 -193 -197h-241v720zM127 376v-361h226c113 0 178 75 178 182s-67 179 -180 179h-224z" />
    <glyph glyph-name="uni0412" unicode="&#x412;" horiz-adv-x="625" 
d="M528 537c0 -128 -82 -166 -130 -173c51 -3 153 -36 153 -179c0 -111 -54 -185 -213 -185h-226v720h222c156 0 194 -92 194 -183zM127 370h207c132 0 179 70 179 167c0 99 -43 168 -183 168h-203v-335zM127 15h215c146 0 194 66 194 170c0 113 -61 171 -195 171h-214v-341
z" />
    <glyph glyph-name="uni0413" unicode="&#x413;" horiz-adv-x="489" 
d="M112 720h346s2 -3 2 -8s-2 -7 -2 -7h-331v-703s-3 -2 -7 -2c-5 0 -8 2 -8 2v718z" />
    <glyph glyph-name="uni0414" unicode="&#x414;" horiz-adv-x="662" 
d="M533 15h78v-153c-5 -2 -10 -2 -15 0v138h-559v-138c-5 -2 -10 -2 -15 0v153h65c64 94 70 203 81 352l27 353h338v-705zM209 705l-26 -343c-11 -144 -25 -267 -79 -347h414v690h-309z" />
    <glyph glyph-name="uni0415" unicode="&#x415;" 
d="M112 720h379c2 -5 2 -10 0 -15h-364v-332h314c2 -5 2 -10 0 -15h-314v-343h374c2 -5 2 -10 0 -15h-389v720z" />
    <glyph glyph-name="uni0416" unicode="&#x416;" horiz-adv-x="939" 
d="M645 374l262 -372c-1 0 -4 -2 -9 -2c-7 0 -10 2 -10 2l-255 364h-156v-364s-3 -2 -7 -2c-5 0 -8 2 -8 2v364h-156l-255 -364s-3 -2 -10 -2c-5 0 -8 2 -9 2l262 372l-234 344s8 6 18 0l229 -337h155v337s3 2 8 2c4 0 7 -2 7 -2v-337h155l229 337c10 6 18 0 18 0z" />
    <glyph glyph-name="uni0417" unicode="&#x417;" horiz-adv-x="542" 
d="M446 550c0 -130 -89 -170 -145 -182c63 -10 166 -48 166 -190c0 -97 -58 -188 -240 -188c-103 0 -177 28 -177 28c0 6 2 11 6 15c32 -10 85 -28 171 -28c174 0 225 84 225 173c0 162 -136 182 -232 182h-45c-3 6 -3 11 0 16h45c85 0 210 21 210 174
c0 92 -56 165 -193 165c-94 0 -168 -31 -168 -31c-5 3 -8 9 -7 15c0 0 74 31 175 31c142 0 209 -78 209 -180z" />
    <glyph glyph-name="uni0418" unicode="&#x418;" horiz-adv-x="682" 
d="M553 718c0 0 3 2 9 2c5 0 8 -2 8 -2v-716s-2 -2 -8 -2c-5 0 -7 2 -7 2v691l-427 -691s-2 -2 -8 -2c-5 0 -8 2 -8 2v716s3 2 8 2c6 0 7 -2 7 -2v-689z" />
    <glyph glyph-name="uni0419" unicode="&#x419;" horiz-adv-x="682" 
d="M352 833c65 0 119 41 119 41c7 -2 9 -5 9 -11c0 0 -50 -45 -128 -45c-76 0 -130 45 -130 45c2 6 4 8 10 10c0 0 55 -40 120 -40zM553 718c0 0 3 2 9 2c5 0 8 -2 8 -2v-716s-2 -2 -8 -2c-5 0 -7 2 -7 2v691l-427 -691s-2 -2 -8 -2c-5 0 -8 2 -8 2v716s3 2 8 2
c6 0 7 -2 7 -2v-689z" />
    <glyph glyph-name="uni041A" unicode="&#x41a;" horiz-adv-x="606" 
d="M291 381l237 337c10 6 18 0 18 0l-242 -344l270 -372c-1 0 -4 -2 -9 -2c-7 0 -10 2 -10 2l-263 364h-165v-364s-3 -2 -7 -2c-5 0 -8 2 -8 2v716s3 2 7 2c5 0 8 -2 8 -2v-337h164z" />
    <glyph glyph-name="uni041B" unicode="&#x41b;" horiz-adv-x="645" 
d="M54 -4c-5 0 -24 1 -31 4c-2 5 -2 9 0 14c7 -2 22 -4 31 -3c53 4 92 18 120 382l25 327h334v-718s-3 -2 -8 -2c-4 0 -8 2 -7 2v703h-305l-24 -314c-29 -373 -69 -391 -135 -395z" />
    <glyph glyph-name="uni041C" unicode="&#x41c;" horiz-adv-x="860" 
d="M430 228l296 490c7 3 15 3 22 0v-716s-2 -2 -8 -2s-7 2 -7 2v647l1 56l-293 -488c-7 -3 -15 -3 -22 0l-293 488l1 -56v-647s-1 -2 -7 -2s-8 2 -8 2v716c7 3 15 3 22 0z" />
    <glyph glyph-name="uni041D" unicode="&#x41d;" horiz-adv-x="672" 
d="M545 377v341s3 2 7 2c5 0 8 -2 8 -2v-716s-2 -2 -8 -2s-7 2 -7 2v360h-418v-360s-2 -2 -7 -2c-7 0 -8 2 -8 2v716s3 2 8 2c4 0 7 -2 7 -2v-341h418z" />
    <glyph glyph-name="uni041E" unicode="&#x41e;" horiz-adv-x="678" 
d="M79 360c0 260 97 370 260 370s260 -111 260 -370s-98 -370 -260 -370s-260 111 -260 370zM584 360c0 252 -96 355 -245 355c-150 0 -245 -103 -245 -355s95 -355 245 -355c149 0 245 103 245 355z" />
    <glyph glyph-name="uni041F" unicode="&#x41f;" horiz-adv-x="660" 
d="M548 720v-718s-3 -2 -7 -2c-5 0 -8 2 -8 2v703h-406v-703s-2 -2 -7 -2c-4 0 -8 2 -8 2v718h436z" />
    <glyph glyph-name="uni0420" unicode="&#x420;" horiz-adv-x="596" 
d="M127 317v-315s-2 -2 -8 -2c-5 0 -7 2 -7 2v718h241c116 0 184 -75 184 -202c0 -126 -68 -201 -184 -201h-226zM127 332h227c106 0 168 69 168 185c0 118 -62 188 -168 188h-227v-373z" />
    <glyph glyph-name="uni0421" unicode="&#x421;" 
d="M79 359c0 247 81 371 254 371c109 0 165 -31 165 -31c0 -6 -2 -10 -6 -13c0 0 -59 29 -156 29c-145 0 -242 -83 -242 -356s95 -354 242 -354c105 0 166 30 166 30c5 -2 7 -6 7 -12c0 0 -58 -33 -176 -33c-172 0 -254 116 -254 369z" />
    <glyph glyph-name="uni0422" unicode="&#x422;" horiz-adv-x="525" 
d="M37 720h451s2 0 2 -7c0 -6 -2 -8 -2 -8h-215v-703s-2 -2 -8 -2c-4 0 -7 2 -7 2v703h-221s-2 3 -2 8c0 6 2 7 2 7z" />
    <glyph glyph-name="uni0423" unicode="&#x423;" horiz-adv-x="607" 
d="M559 718c0 0 0 2 8 2s9 -2 9 -2l-208 -525c-67 -169 -104 -193 -182 -193c-29 0 -49 5 -49 5c-1 4 -1 10 2 15c0 0 25 -5 47 -5c53 0 93 10 137 108h-5l-288 595s1 2 8 2c5 0 9 -2 9 -2l264 -549l15 -33h2c6 14 11 24 16 36z" />
    <glyph glyph-name="uni0424" unicode="&#x424;" horiz-adv-x="786" 
d="M384 643v83s3 2 8 2s7 -2 7 -2v-83c177 0 325 -53 325 -267s-148 -268 -325 -268v-106s-3 -2 -7 -2c-5 0 -8 2 -8 2v106c-177 0 -322 54 -322 268s145 267 322 267zM384 123v505c-180 0 -307 -53 -307 -252c0 -200 127 -253 307 -253zM399 628v-505c180 0 310 54 310 253
c0 200 -130 252 -310 252z" />
    <glyph glyph-name="uni0425" unicode="&#x425;" horiz-adv-x="569" 
d="M290 366l238 -365s-3 -1 -9 -1c-5 0 -9 2 -9 2l-229 350l-219 -350c-3 -2 -7 -2 -11 -2c-2 0 -5 1 -7 2l229 364l-229 352s2 2 9 2c6 0 9 -2 9 -2l220 -339l222 339c7 3 14 3 19 0z" />
    <glyph glyph-name="uni0426" unicode="&#x426;" horiz-adv-x="689" 
d="M112 0v718s4 2 8 2c5 0 7 -2 7 -2v-703h418v703s3 2 7 2c5 0 8 -2 8 -2v-703h77v-153c-1 -1 -3 -2 -7 -2c-3 0 -7 1 -8 2v138h-510z" />
    <glyph glyph-name="uni0427" unicode="&#x427;" horiz-adv-x="627" 
d="M500 377v341s3 2 7 2c5 0 8 -2 8 -2v-716s-3 -2 -8 -2c-4 0 -7 2 -7 2v356c6 3 -91 -41 -219 -41c-126 0 -212 48 -212 227v174s4 2 8 2c5 0 7 -2 7 -2v-173c0 -161 61 -213 204 -213c128 0 217 47 212 45z" />
    <glyph glyph-name="uni0428" unicode="&#x428;" horiz-adv-x="957" 
d="M112 0v718s2 2 8 2s7 -2 7 -2v-703h344v703s0 2 7 2c9 0 8 -2 8 -2v-703h344v703s2 2 7 2c6 0 8 -2 8 -2v-718h-733z" />
    <glyph glyph-name="uni0429" unicode="&#x429;" horiz-adv-x="974" 
d="M112 0v718s2 2 8 2c5 0 7 -2 7 -2v-703h344v703s3 2 7 2c5 0 8 -2 8 -2v-703h344v703s3 2 7 2c5 0 8 -2 8 -2v-703h77v-153c-3 -1 -3 -2 -7 -2s-6 1 -8 2v138h-795z" />
    <glyph glyph-name="uni042A" unicode="&#x42a;" horiz-adv-x="678" 
d="M200 390h225c119 0 194 -75 194 -193c0 -119 -75 -197 -194 -197h-240v705h-154s-2 2 -2 7c0 7 2 8 2 8h169v-330zM200 375v-360h225c114 0 178 74 178 181c0 108 -64 179 -178 179h-225z" />
    <glyph glyph-name="uni042B" unicode="&#x42b;" horiz-adv-x="848" 
d="M112 718c0 0 4 2 7 2c5 0 8 -2 8 -2v-328h225c119 0 194 -75 194 -193c0 -119 -75 -197 -194 -197h-240v718zM721 718c0 0 2 2 8 2s7 -2 7 -2v-716s-1 -2 -7 -2c-5 0 -8 2 -8 2v716zM127 375v-360h225c114 0 178 74 178 181c0 108 -64 179 -178 179h-225z" />
    <glyph glyph-name="uni042C" unicode="&#x42c;" horiz-adv-x="605" 
d="M127 390h225c119 0 194 -75 194 -193c0 -119 -75 -197 -194 -197h-240v718s4 2 7 2c5 0 8 -2 8 -2v-328zM127 15h225c114 0 178 74 178 181c0 108 -64 179 -178 179h-225v-360z" />
    <glyph glyph-name="uni042D" unicode="&#x42d;" horiz-adv-x="578" 
d="M61 699c0 0 63 31 175 31c178 0 264 -123 264 -370c0 -253 -87 -370 -264 -370c-123 0 -186 33 -186 33c1 5 2 8 6 13c0 0 69 -31 179 -31c151 0 250 80 249 353h-304s-2 3 -2 8s2 8 2 8h304c-4 260 -103 341 -250 341c-102 0 -166 -29 -166 -29c-4 3 -6 7 -7 13z" />
    <glyph glyph-name="uni042E" unicode="&#x42e;" horiz-adv-x="943" 
d="M343 368c2 253 97 362 261 362c165 0 260 -111 260 -370s-95 -370 -260 -370c-163 0 -260 109 -261 363h-216v-351s-3 -2 -8 -2c-4 0 -7 2 -7 2v716s3 2 8 2c4 0 7 -2 7 -2v-350h216zM360 360c0 -252 92 -355 244 -355s244 103 244 355s-92 355 -244 355
s-244 -103 -244 -355z" />
    <glyph glyph-name="uni042F" unicode="&#x42f;" horiz-adv-x="615" 
d="M268 720h235v-718s-2 -2 -7 -2c-6 0 -8 2 -8 2v327h-237l-171 -327s-5 -2 -11 -2c-4 0 -7 2 -7 2l172 327c-99 15 -156 89 -156 195c0 118 69 196 190 196zM488 344v361h-226c-103 0 -169 -68 -169 -181c0 -112 68 -180 169 -180h226z" />
    <glyph glyph-name="uni0430" unicode="&#x430;" horiz-adv-x="511" 
d="M98 509c0 0 78 27 160 27c110 0 161 -48 161 -169v-366c-4 -2 -10 -2 -14 0l1 133c-23 -86 -104 -144 -193 -144c-102 0 -155 54 -155 147c0 89 62 151 182 151c60 0 126 -6 165 -11v90c0 106 -37 155 -149 155c-83 0 -152 -27 -152 -27c-4 2 -6 9 -6 14zM405 265
c-38 6 -102 11 -161 11c-110 0 -172 -52 -172 -139c0 -83 47 -133 136 -133c109 0 197 74 197 205v56z" />
    <glyph glyph-name="uni0431" unicode="&#x431;" horiz-adv-x="570" 
d="M86 377c0 269 92 293 306 333c37 7 58 23 63 47c6 1 12 0 15 -4c-9 -26 -19 -46 -77 -57c-192 -40 -284 -50 -292 -297l-1 -59c25 135 106 174 202 174c129 0 197 -90 197 -262s-64 -262 -203 -262c-131 0 -207 89 -207 261c0 30 -3 89 -3 126zM300 499
c-104 0 -195 -53 -195 -247c0 -162 65 -247 191 -247c130 0 188 85 188 247s-61 247 -184 247z" />
    <glyph glyph-name="uni0432" unicode="&#x432;" horiz-adv-x="513" 
d="M425 394c0 -68 -36 -109 -94 -124c76 -11 114 -65 114 -135c0 -92 -55 -135 -153 -135h-196v526h184c89 0 145 -43 145 -132zM110 512v-237h172c81 0 129 43 129 118c0 81 -48 119 -129 119h-172zM110 14h187c85 0 134 39 134 121c0 74 -44 126 -134 126h-187v-247z" />
    <glyph glyph-name="uni0433" unicode="&#x433;" horiz-adv-x="393" 
d="M96 526h264s1 -2 1 -7c0 -3 -1 -7 -1 -7h-250v-510c-7 -5 -14 0 -14 0v524z" />
    <glyph glyph-name="uni0434" unicode="&#x434;" horiz-adv-x="555" 
d="M29 14h51c25 45 40 98 54 274l19 238h292v-512h63v-140c-5 -2 -9 -2 -14 0v126h-451v-126c-5 -2 -9 -2 -14 0v140zM166 512l-18 -228c-13 -161 -30 -227 -52 -270h335v498h-265z" />
    <glyph glyph-name="uni0435" unicode="&#x435;" horiz-adv-x="508" 
d="M434 259h-348c5 -176 58 -254 183 -254c87 0 140 44 140 44c5 -1 9 -6 9 -11c0 0 -51 -48 -152 -48c-133 0 -195 95 -195 276c0 189 84 270 200 270c118 0 174 -82 174 -179c0 -61 -11 -98 -11 -98zM430 360c0 84 -48 161 -159 161s-182 -78 -185 -247h337
c0 -2 7 31 7 86z" />
    <glyph glyph-name="uni0436" unicode="&#x436;" horiz-adv-x="756" 
d="M533 276l192 -273s-1 -3 -8 -3c-8 0 -9 3 -9 3l-187 265h-136v-266s0 -2 -7 -2s-7 2 -7 2v266h-136l-187 -265s-1 -3 -9 -3c-7 0 -8 3 -8 3l192 273l-168 249c6 2 11 2 17 0l164 -243h135v242s0 2 7 2s7 -2 7 -2v-242h135l164 243c6 2 11 2 17 0z" />
    <glyph glyph-name="uni0437" unicode="&#x437;" horiz-adv-x="451" 
d="M368 395c0 -62 -32 -111 -107 -127c85 -15 121 -71 121 -130c0 -81 -37 -148 -196 -148c-91 0 -138 25 -138 25c0 7 2 10 6 13c0 0 52 -24 132 -24c135 0 182 50 182 134c0 81 -68 123 -175 123h-48s-2 3 -2 7s2 7 2 7h48c89 0 161 27 161 120c0 73 -38 127 -151 127
c-77 0 -133 -21 -133 -21c-5 2 -7 8 -4 13c0 0 51 22 136 22c120 0 166 -59 166 -141z" />
    <glyph glyph-name="uni0438" unicode="&#x438;" horiz-adv-x="578" 
d="M110 16l352 508s0 2 10 2c12 0 10 -2 10 -2v-522s-1 -2 -7 -2c-5 0 -7 2 -7 2v506l-351 -506s-1 -3 -10 -3s-11 3 -11 3v522s0 2 8 2c6 0 6 -2 6 -2v-508z" />
    <glyph glyph-name="uni0439" unicode="&#x439;" horiz-adv-x="578" 
d="M413 688c0 0 -40 -50 -118 -50s-118 50 -118 50c1 5 3 8 9 9c7 -10 47 -45 109 -45c64 0 94 28 109 45c6 0 9 -3 9 -9zM110 16l352 508s0 2 10 2c12 0 10 -2 10 -2v-522s-1 -2 -7 -2c-5 0 -7 2 -7 2v506l-351 -506s-1 -3 -10 -3s-11 3 -11 3v522s0 2 8 2c6 0 6 -2 6 -2
v-508z" />
    <glyph glyph-name="uni043A" unicode="&#x43a;" horiz-adv-x="495" 
d="M250 282l174 243c6 2 11 2 17 0l-179 -249l203 -273s-1 -3 -8 -3c-8 0 -9 3 -9 3l-197 265h-141v-267c-4 -2 -10 -2 -14 0v525c4 2 10 2 14 0v-244h140z" />
    <glyph glyph-name="uni043B" unicode="&#x43b;" horiz-adv-x="549" 
d="M161 290c-21 -278 -65 -296 -113 -296c-11 0 -21 3 -21 3c-3 6 1 13 1 13c7 -2 14 -3 21 -3c63 0 82 83 98 287l18 232h288v-524c-6 -6 -14 0 -14 0v510h-261z" />
    <glyph glyph-name="uni043C" unicode="&#x43c;" horiz-adv-x="675" 
d="M563 524c0 0 2 2 8 2c7 0 8 -2 8 -2v-522s-1 -2 -8 -2c-5 0 -6 2 -6 2v499l-228 -364s-2 -1 -7 -1s-7 1 -7 1l-213 362v-497s0 -2 -6 -2c-8 0 -8 2 -8 2v522s0 2 6 2c8 0 9 -2 9 -2l219 -373z" />
    <glyph glyph-name="uni043D" unicode="&#x43d;" horiz-adv-x="560" 
d="M110 265v-263s0 -2 -7 -2s-7 2 -7 2v522s1 2 7 2c8 0 7 -2 7 -2v-245h340v245s0 2 7 2c8 0 7 -2 7 -2v-522s0 -2 -6 -2c-8 0 -8 2 -8 2v263h-340z" />
    <glyph glyph-name="uni043E" unicode="&#x43e;" horiz-adv-x="538" 
d="M71 263c0 198 73 273 198 273s198 -75 198 -273s-73 -273 -198 -273s-198 75 -198 273zM453 263c0 195 -71 259 -184 259s-184 -64 -184 -259s71 -259 184 -259s184 64 184 259z" />
    <glyph glyph-name="uni043F" unicode="&#x43f;" horiz-adv-x="549" 
d="M110 512v-510s1 -2 -7 -2c-7 0 -7 2 -7 2v524h357v-524s1 -2 -5 -2c-10 0 -9 2 -9 2v510h-329z" />
    <glyph glyph-name="uni0440" unicode="&#x440;" horiz-adv-x="555" 
d="M292 -10c-76 0 -147 46 -181 128v-367s-2 -2 -7 -2c-6 0 -8 2 -8 2v773s2 2 8 2s7 -2 7 -2v-121c27 76 91 133 174 133c131 0 199 -87 199 -273c0 -183 -66 -273 -192 -273zM111 184c3 -85 77 -179 180 -179c117 0 178 84 178 258c0 177 -63 258 -185 258
c-108 0 -173 -108 -173 -195v-142z" />
    <glyph glyph-name="uni0441" unicode="&#x441;" horiz-adv-x="446" 
d="M277 521c-126 0 -192 -88 -192 -258s66 -258 192 -258c67 0 111 27 111 27c5 -2 8 -8 9 -13c0 0 -46 -29 -121 -29c-135 0 -206 94 -206 273s70 273 203 273c71 0 111 -22 111 -22c0 -6 -3 -11 -7 -13c0 0 -38 20 -100 20z" />
    <glyph glyph-name="uni0442" unicode="&#x442;" horiz-adv-x="422" 
d="M35 526h352s3 -1 3 -7s-3 -7 -3 -7h-169v-510s-1 -2 -7 -2s-7 2 -7 2v510h-169s-3 1 -3 7s3 7 3 7z" />
    <glyph glyph-name="uni0443" unicode="&#x443;" horiz-adv-x="517" 
d="M479 524l-250 -664c-24 -65 -50 -110 -102 -110c-25 0 -43 5 -43 5c-3 5 -2 7 -2 7c0 1 -1 4 3 8c0 0 14 -6 41 -6c42 0 64 32 91 105l49 132h-3l-227 523s2 2 8 2s9 -2 9 -2l219 -510l191 510s1 2 9 2c6 0 7 -2 7 -2z" />
    <glyph glyph-name="uni0444" unicode="&#x444;" horiz-adv-x="775" 
d="M394 507c51 25 95 29 135 29c119 0 174 -86 174 -273s-55 -273 -174 -273c-56 0 -101 12 -134 30v-268s-1 -2 -7 -2s-7 2 -7 2v268c-33 -18 -79 -30 -135 -30c-119 0 -174 86 -174 273s55 273 174 273c40 0 84 -4 134 -29v241s2 2 8 2c5 0 6 -2 6 -2v-241zM86 263
c0 -178 50 -259 160 -259c50 0 93 9 135 31l-1 457c-41 22 -84 30 -134 30c-110 0 -160 -81 -160 -259zM395 35c41 -22 84 -31 134 -31c110 0 160 81 160 259s-50 259 -160 259c-50 0 -94 -8 -135 -30z" />
    <glyph glyph-name="uni0445" unicode="&#x445;" horiz-adv-x="475" 
d="M246 268l190 -266s-7 -5 -18 0l-180 253l-181 -253c-11 -5 -18 0 -18 0l190 266l-188 256c9 5 18 0 18 0l179 -243l178 243s9 5 18 0z" />
    <glyph glyph-name="uni0446" unicode="&#x446;" horiz-adv-x="566" 
d="M442 524c0 0 0 2 8 2c6 0 6 -2 6 -2v-510h63v-140c-5 -2 -9 -2 -14 0v126h-409v524s0 2 7 2c6 0 7 -2 7 -2v-510h332v510z" />
    <glyph glyph-name="uni0447" unicode="&#x447;" horiz-adv-x="518" 
d="M422 524v-522s-1 -2 -6 -2c-8 0 -8 2 -8 2v258c-30 -20 -88 -48 -176 -48c-127 0 -168 64 -168 155v157s0 2 7 2s7 -2 7 -2v-158c0 -92 43 -140 158 -140c80 0 141 28 172 50v248s0 2 8 2c5 0 6 -2 6 -2z" />
    <glyph glyph-name="uni0448" unicode="&#x448;" horiz-adv-x="814" 
d="M96 0v524s1 2 7 2c7 0 7 -2 7 -2v-510h289v510s1 2 7 2s6 -2 6 -2v-510h292v510s1 2 8 2c6 0 6 -2 6 -2v-524h-622z" />
    <glyph glyph-name="uni0449" unicode="&#x449;" horiz-adv-x="828" 
d="M781 14v-140c-5 -2 -9 -2 -14 0v126h-671v524s1 2 7 2c7 0 7 -2 7 -2v-510h289v510s1 2 7 2s6 -2 6 -2v-510h292v510s1 2 8 2c6 0 6 -2 6 -2v-510h63z" />
    <glyph glyph-name="uni044A" unicode="&#x44a;" horiz-adv-x="561" 
d="M167 14h195c87 0 127 49 127 129s-40 131 -127 131h-195v-260zM167 288h195c94 0 141 -59 141 -145s-47 -143 -141 -143h-209v512h-119c-4 7 0 14 0 14h124c8 0 9 -5 9 -5v-233z" />
    <glyph glyph-name="uni044B" unicode="&#x44b;" horiz-adv-x="702" 
d="M592 524c7 6 14 0 14 0v-522c-7 -5 -14 0 -14 0v522zM110 288h195c94 0 141 -59 141 -145s-47 -143 -141 -143h-209v524c7 5 14 0 14 0v-236zM110 14h195c87 0 127 49 127 129s-40 131 -127 131h-195v-260z" />
    <glyph glyph-name="uni044C" unicode="&#x44c;" horiz-adv-x="503" 
d="M110 288h195c94 0 141 -59 141 -145s-47 -143 -141 -143h-209v524c7 5 14 0 14 0v-236zM110 14h195c87 0 127 49 127 129s-40 131 -127 131h-195v-260z" />
    <glyph glyph-name="uni044D" unicode="&#x44d;" horiz-adv-x="450" 
d="M62 514c0 0 42 22 113 22c127 0 205 -88 205 -273c0 -189 -78 -273 -205 -273c-76 0 -125 29 -125 29c1 5 3 9 8 12c17 -10 60 -27 115 -27c135 0 191 94 193 255h-232c-2 5 -2 6 -2 7c0 0 0 2 2 7h232c-1 157 -64 249 -192 249c-50 0 -83 -10 -106 -20c-5 3 -6 6 -6 12z
" />
    <glyph glyph-name="uni044E" unicode="&#x44e;" horiz-adv-x="768" 
d="M292 266c1 196 75 270 203 270c127 0 202 -75 202 -273s-74 -273 -202 -273c-126 0 -200 72 -203 263h-182v-251c-7 -4 -14 0 -14 0v522c8 5 14 0 14 0v-258h182zM306 263c0 -195 74 -258 189 -258s188 63 188 258s-73 258 -188 258s-189 -63 -189 -258z" />
    <glyph glyph-name="uni044F" unicode="&#x44f;" horiz-adv-x="517" 
d="M233 526h188v-524c-7 -5 -14 0 -14 0v230h-174c-12 0 -23 1 -34 2l-126 -232c-9 -6 -17 0 -17 0l129 234c-72 14 -109 62 -109 141c0 98 54 149 157 149zM407 246v266h-174c-94 0 -143 -46 -143 -135c0 -86 49 -131 143 -131h174z" />
    <glyph glyph-name="uni0451" unicode="&#x451;" horiz-adv-x="508" 
d="M434 259h-348c5 -176 58 -254 183 -254c87 0 140 44 140 44c5 -1 9 -6 9 -11c0 0 -51 -48 -152 -48c-133 0 -195 95 -195 276c0 189 84 270 200 270c118 0 174 -82 174 -179c0 -61 -11 -98 -11 -98zM430 360c0 84 -48 161 -159 161s-182 -78 -185 -247h337
c0 -2 7 31 7 86zM213 693v-22s-6 -4 -16 -4c-9 0 -15 4 -15 4v22s6 4 15 4c10 0 16 -4 16 -4zM360 693v-22s-5 -4 -15 -4c-9 0 -16 4 -16 4v22s7 4 16 4c10 0 15 -4 15 -4z" />
    <glyph glyph-name="uni2113" unicode="&#x2113;" horiz-adv-x="448" 
d="M249 5c73 0 139 58 139 58c3 2 9 -4 9 -8c0 0 -57 -65 -151 -65c-74 0 -115 49 -115 142v110c-22 -12 -66 -34 -82 -42c-7 6 -6 9 -5 13c29 14 61 28 87 44v289c0 140 44 204 139 204c80 0 121 -51 121 -149c0 -130 -99 -259 -245 -351v-118c0 -83 35 -127 103 -127z
M376 600c0 89 -36 135 -104 135c-86 0 -126 -58 -126 -186v-283c117 79 230 199 230 334z" />
    <glyph glyph-name="uni2117" unicode="&#x2117;" horiz-adv-x="811" 
d="M74 340c0 183 149 331 332 331s331 -148 331 -331s-148 -332 -331 -332s-332 149 -332 332zM722 340c0 175 -141 316 -316 316s-318 -141 -318 -316s143 -318 318 -318s316 143 316 318zM309 523h128c80 0 127 -48 127 -128c0 -81 -47 -129 -127 -129h-113v-126
c-5 -3 -11 -3 -15 0v383zM324 509v-229h111c72 0 114 43 114 115c0 71 -42 114 -114 114h-111z" />
    <glyph glyph-name="uni2153" unicode="&#x2153;" horiz-adv-x="696" 
d="M510 700c0 0 2 2 8 2c5 0 5 -2 5 -2l-388 -709s-1 -1 -6 -1c-6 0 -7 1 -7 1zM45 613c47 10 92 37 122 77c4 1 9 1 13 0v-341c-3 -1 -3 -1 -6 -1s-3 0 -6 1v324c-29 -35 -69 -58 -120 -71c-3 1 -5 8 -3 11zM636 89c0 -59 -46 -94 -128 -94c-46 0 -82 11 -82 11
c-1 4 0 9 3 11c0 0 35 -10 79 -10c76 0 116 31 116 82c0 61 -44 85 -97 85h-42c-2 3 -2 9 0 12h42c54 0 85 28 85 75c0 49 -32 75 -92 75c-50 0 -83 -9 -83 -9c-2 3 -3 8 -2 11c0 0 35 10 84 10c69 0 105 -30 105 -87c0 -39 -21 -72 -61 -81c40 -7 73 -37 73 -91z" />
    <glyph glyph-name="uni2154" unicode="&#x2154;" horiz-adv-x="761" 
d="M185 -9l388 709s4 2 8 2c5 0 5 -2 5 -2l-388 -709s-1 -1 -6 -1c-6 0 -7 1 -7 1zM59 387c0 136 201 103 201 218c0 36 -18 77 -98 77c-40 -1 -67 -8 -77 -11c-2 3 -3 8 -2 12c-2 0 31 11 80 11c86 0 109 -44 109 -90c0 -124 -201 -91 -201 -217c0 -9 0 -19 2 -29h199
c1 -1 2 -4 2 -6s-1 -5 -2 -6h-208s-5 18 -5 41zM702 89c0 -59 -46 -94 -128 -94c-46 0 -82 11 -82 11c-1 4 0 9 3 11c0 0 35 -10 79 -10c76 0 116 31 116 82c0 61 -44 85 -97 85h-42c-2 3 -2 9 0 12h42c54 0 85 28 85 75c0 49 -32 75 -92 75c-50 0 -83 -9 -83 -9
c-2 3 -3 8 -2 11c0 0 35 10 84 10c69 0 105 -30 105 -87c0 -39 -21 -72 -61 -81c40 -7 73 -37 73 -91z" />
    <glyph glyph-name="uni2196" unicode="&#x2196;" horiz-adv-x="516" 
d="M365 525c3 -4 3 -9 0 -14h-253l341 -328c1 3 0 -1 -5 -6c-4 -5 -9 -7 -6 -5l-339 328l1 -251c-7 -4 -10 -3 -15 -1l-1 277h277z" />
    <glyph glyph-name="uni2197" unicode="&#x2197;" horiz-adv-x="518" 
d="M407 511h-253c-3 5 -3 10 0 14h277l-1 -277c-5 -2 -8 -3 -15 1l1 251l-339 -328c3 -2 -2 0 -6 5c-5 5 -6 9 -5 6z" />
    <glyph glyph-name="uni2198" unicode="&#x2198;" horiz-adv-x="512" 
d="M144 150c-3 4 -3 9 0 14h253l-341 328c-1 -3 0 1 5 6c4 5 9 7 6 5l339 -328l-1 251c7 4 10 3 15 1l1 -277h-277z" />
    <glyph glyph-name="uni2199" unicode="&#x2199;" horiz-adv-x="512" 
d="M116 164h253c3 -5 3 -10 0 -14h-277l1 277c5 2 8 3 15 -1l-1 -251l339 328c-3 2 2 0 6 -5c5 -5 6 -9 5 -6z" />
    <glyph glyph-name="uni2215" unicode="&#x2215;" horiz-adv-x="455" 
d="M23 -7l388 707s1 2 9 2c7 0 8 -2 8 -2l-389 -707s-2 -2 -8 -2c-7 0 -8 2 -8 2z" />
    <glyph glyph-name="uni2219" unicode="&#x2219;" horiz-adv-x="206" 
d="M103 321c-7 0 -15 5 -15 15s8 15 15 15s15 -5 15 -15s-8 -15 -15 -15z" />
    <glyph glyph-name="uogonek" unicode="&#x173;" horiz-adv-x="550" 
d="M420 -162c27 0 46 12 46 12c4 -4 5 -6 6 -11c0 0 -19 -15 -54 -15c-48 0 -76 23 -76 62c0 58 44 103 98 126v111c-43 -90 -112 -133 -197 -133c-93 0 -151 62 -151 153v381c4 3 10 3 14 0v-380c0 -86 53 -140 139 -140c75 0 149 37 195 150v370c4 3 10 3 14 0v-518
c-52 -21 -97 -65 -97 -117c0 -37 24 -51 63 -51z" />
    <glyph glyph-name="uring" unicode="&#x16f;" horiz-adv-x="550" 
d="M92 143v381c4 3 10 3 14 0v-380c0 -86 53 -140 139 -140c75 0 149 37 195 150v370c4 3 10 3 14 0v-522c-4 -3 -10 -3 -14 0v121c-43 -90 -112 -133 -197 -133c-93 0 -151 62 -151 153zM272 604c-56 0 -98 33 -98 94s49 92 99 92s100 -30 100 -92c0 -61 -46 -94 -101 -94z
M359 698c0 41 -29 79 -87 79c-57 0 -84 -39 -84 -79c0 -41 27 -82 84 -82c58 0 87 42 87 82z" />
    <glyph glyph-name="utilde" unicode="&#x169;" horiz-adv-x="550" 
d="M92 143v381c4 3 10 3 14 0v-380c0 -86 53 -140 139 -140c75 0 149 37 195 150v370c4 3 10 3 14 0v-522c-4 -3 -10 -3 -14 0v121c-43 -90 -112 -133 -197 -133c-93 0 -151 62 -151 153zM331 674c31 0 42 23 46 33c5 -1 9 -3 12 -7c0 0 -12 -41 -60 -41
c-45 0 -67 40 -105 40c-37 0 -46 -34 -46 -34c-6 1 -9 2 -12 6c0 0 10 43 61 43c38 0 59 -40 104 -40z" />
    <glyph glyph-name="v" unicode="v" horiz-adv-x="495" 
d="M442 524c0 0 3 2 8 2s7 -2 7 -2l-208 -528h-1l-211 528s2 2 8 2c4 0 7 -2 7 -2l162 -404l35 -92l33 89z" />
    <glyph glyph-name="w" unicode="w" horiz-adv-x="788" 
d="M733 524c0 0 3 2 7 2c6 0 8 -2 8 -2l-179 -527h-1l-137 387l-36 111l-37 -111l-137 -387h-1l-179 527s2 2 8 2c4 0 7 -2 7 -2l143 -421l22 -72l23 72l148 421h5l148 -421l23 -72l22 72z" />
    <glyph glyph-name="wacute" unicode="&#x1e83;" horiz-adv-x="788" 
d="M333 622l124 152c6 -1 8 -5 11 -10l-125 -150c-5 1 -8 4 -10 8zM733 524c0 0 3 2 7 2c6 0 8 -2 8 -2l-179 -527h-1l-137 387l-36 111l-37 -111l-137 -387h-1l-179 527s2 2 8 2c4 0 7 -2 7 -2l143 -421l22 -72l23 72l148 421h5l148 -421l23 -72l22 72z" />
    <glyph glyph-name="wcircumflex" unicode="&#x175;" horiz-adv-x="789" 
d="M733 524c0 0 3 2 7 2c6 0 8 -2 8 -2l-179 -527h-1l-137 387l-36 111l-37 -111l-137 -387h-1l-179 527s2 2 8 2c4 0 7 -2 7 -2l143 -421l22 -72l23 72l148 421h5l148 -421l23 -72l22 72zM268 602c-5 2 -7 6 -8 10l127 101h13l125 -101c0 -5 -3 -9 -8 -10l-123 98z" />
    <glyph glyph-name="wdieresis" unicode="&#x1e85;" horiz-adv-x="788" 
d="M733 524c0 0 3 2 7 2c6 0 8 -2 8 -2l-179 -527h-1l-137 387l-36 111l-37 -111l-137 -387h-1l-179 527s2 2 8 2c4 0 7 -2 7 -2l143 -421l22 -72l23 72l148 421h5l148 -421l23 -72l22 72zM341 694v-20s-5 -4 -14 -4c-8 0 -14 4 -14 4v20s6 4 14 4c9 0 14 -4 14 -4zM475 694
v-20s-5 -4 -14 -4c-8 0 -14 4 -14 4v20s6 4 14 4c9 0 14 -4 14 -4z" />
    <glyph glyph-name="wgrave" unicode="&#x1e81;" horiz-adv-x="788" 
d="M733 524c0 0 3 2 7 2c6 0 8 -2 8 -2l-179 -527h-1l-137 387l-36 111l-37 -111l-137 -387h-1l-179 527s2 2 8 2c4 0 7 -2 7 -2l143 -421l22 -72l23 72l148 421h5l148 -421l23 -72l22 72zM291 764c3 5 5 8 11 10l124 -152c-2 -4 -5 -7 -10 -8z" />
    <glyph glyph-name="x" unicode="x" horiz-adv-x="475" 
d="M246 268l190 -266s-7 -5 -18 0l-180 253l-181 -253c-11 -5 -18 0 -18 0l190 266l-188 256c9 5 18 0 18 0l179 -243l178 243s9 5 18 0z" />
    <glyph glyph-name="y" unicode="y" horiz-adv-x="517" 
d="M479 524l-251 -665c-29 -78 -51 -109 -101 -109c-25 0 -43 5 -43 5c-2 5 -2 9 1 14c0 0 14 -5 41 -5c46 0 62 31 90 105l49 130h-1l-228 525s2 2 8 2c5 0 8 -2 8 -2l220 -507h1l190 507s2 2 8 2c5 0 8 -2 8 -2z" />
    <glyph glyph-name="yacute" unicode="&#xfd;" horiz-adv-x="517" 
d="M479 524l-251 -665c-29 -78 -51 -109 -101 -109c-25 0 -43 5 -43 5c-2 5 -2 9 1 14c0 0 14 -5 41 -5c46 0 62 31 90 105l49 130h-1l-228 525s2 2 8 2c5 0 8 -2 8 -2l220 -507h1l190 507s2 2 8 2c5 0 8 -2 8 -2zM202 620l124 152c6 -1 8 -5 11 -10l-125 -150
c-5 1 -8 4 -10 8z" />
    <glyph glyph-name="ycircumflex" unicode="&#x177;" horiz-adv-x="517" 
d="M479 524l-251 -665c-29 -78 -51 -109 -101 -109c-25 0 -43 5 -43 5c-2 5 -2 9 1 14c0 0 14 -5 41 -5c46 0 62 31 90 105l49 130h-1l-228 525s2 2 8 2c5 0 8 -2 8 -2l220 -507h1l190 507s2 2 8 2c5 0 8 -2 8 -2zM130 601c-5 2 -7 6 -8 10l127 101h13l125 -101
c0 -5 -3 -9 -8 -10l-123 98z" />
    <glyph glyph-name="ydieresis" unicode="&#xff;" horiz-adv-x="517" 
d="M479 524l-251 -665c-29 -78 -51 -109 -101 -109c-25 0 -43 5 -43 5c-2 5 -2 9 1 14c0 0 14 -5 41 -5c46 0 62 31 90 105l49 130h-1l-228 525s2 2 8 2c5 0 8 -2 8 -2l220 -507h1l190 507s2 2 8 2c5 0 8 -2 8 -2zM198 703v-20s-5 -4 -14 -4c-8 0 -14 4 -14 4v20s6 4 14 4
c9 0 14 -4 14 -4zM342 703v-20s-5 -4 -14 -4c-8 0 -14 4 -14 4v20s6 4 14 4c9 0 14 -4 14 -4z" />
    <glyph glyph-name="yen" unicode="&#xa5;" horiz-adv-x="601" 
d="M478 269h-177v-87h177c2 -5 2 -10 0 -15h-177v-165c-5 -2 -9 -2 -14 0v165h-175c-2 5 -2 10 0 15h175v87h-175c-2 5 -2 10 0 15h174l-241 399s1 1 6 1c9 0 10 -2 10 -2l233 -385l249 385s1 2 7 2c8 0 9 -2 9 -2l-257 -398h176c2 -5 2 -10 0 -15z" />
    <glyph glyph-name="ygrave" unicode="&#x1ef3;" horiz-adv-x="517" 
d="M479 524l-251 -665c-29 -78 -51 -109 -101 -109c-25 0 -43 5 -43 5c-2 5 -2 9 1 14c0 0 14 -5 41 -5c46 0 62 31 90 105l49 130h-1l-228 525s2 2 8 2c5 0 8 -2 8 -2l220 -507h1l190 507s2 2 8 2c5 0 8 -2 8 -2zM152 759c3 5 5 8 11 10l124 -152c-2 -4 -5 -7 -10 -8z" />
    <glyph glyph-name="z" unicode="z" horiz-adv-x="441" 
d="M61 14h327c2 -5 2 -9 0 -14h-343c-2 5 -2 10 0 15l322 497h-297c-2 5 -2 9 0 14h313c2 -5 2 -10 0 -15z" />
    <glyph glyph-name="zacute" unicode="&#x17a;" horiz-adv-x="441" 
d="M61 14h327c2 -5 2 -9 0 -14h-343c-2 5 -2 10 0 15l322 497h-297c-2 5 -2 9 0 14h313c2 -5 2 -10 0 -15zM190 620l124 152c6 -1 8 -5 11 -10l-125 -150c-5 1 -8 4 -10 8z" />
    <glyph glyph-name="zcaron" unicode="&#x17e;" horiz-adv-x="441" 
d="M61 14h327c2 -5 2 -9 0 -14h-343c-2 5 -2 10 0 15l322 497h-297c-2 5 -2 9 0 14h313c2 -5 2 -10 0 -15zM223 600l-116 92c1 4 3 8 8 10l115 -89l111 88c5 -1 8 -5 8 -10l-113 -91h-13z" />
    <glyph glyph-name="zdotaccent" unicode="&#x17c;" horiz-adv-x="441" 
d="M61 14h327c2 -5 2 -9 0 -14h-343c-2 5 -2 10 0 15l322 497h-297c-2 5 -2 9 0 14h313c2 -5 2 -10 0 -15zM247 701v-20s-5 -4 -14 -4c-8 0 -14 4 -14 4v20s6 4 14 4c9 0 14 -4 14 -4z" />
    <glyph glyph-name="zero" unicode="0" horiz-adv-x="622" 
d="M310 -10c-150 0 -230 101 -230 350c0 246 80 350 230 350s232 -101 232 -350s-82 -350 -232 -350zM310 675c-147 0 -215 -109 -215 -335c0 -225 68 -335 215 -335c149 0 217 110 217 335c0 226 -68 335 -217 335z" />
    <glyph glyph-name="zero.denom" horiz-adv-x="343" 
d="M171 -5c-84 0 -122 56 -122 177s38 176 122 176s123 -55 123 -176s-39 -177 -123 -177zM171 336c-75 0 -110 -52 -110 -164c0 -113 35 -165 110 -165c76 0 111 52 111 165c0 112 -35 164 -111 164z" />
    <glyph glyph-name="zero.num" horiz-adv-x="343" 
d="M171 341c-84 0 -122 56 -122 177s38 176 122 176s123 -55 123 -176s-39 -177 -123 -177zM171 682c-75 0 -110 -52 -110 -164c0 -113 35 -165 110 -165c76 0 111 52 111 165c0 112 -35 164 -111 164z" />
    <glyph glyph-name="zeroinferior" unicode="&#x2080;" horiz-adv-x="343" 
d="M171 -101c-84 0 -122 56 -122 177s38 176 122 176s123 -55 123 -176s-39 -177 -123 -177zM171 240c-75 0 -110 -52 -110 -164c0 -113 35 -165 110 -165c76 0 111 52 111 165c0 112 -35 164 -111 164z" />
    </font>
</defs>
</svg>
