<?xml version="1.0" standalone="no"?>
<!DOCTYPE svg PUBLIC "-//W3C//DTD SVG 1.1//EN" "http://www.w3.org/Graphics/SVG/1.1/DTD/svg11.dtd" >
<svg xmlns="http://www.w3.org/2000/svg" xmlns:xlink="http://www.w3.org/1999/xlink" version="1.1">
<metadata>
Created by FontForge 20141024 at Tue Jun 30 10:05:57 2015
 By Jimmy Warting
Copyright \(c\) 2014 by Fontfabric LLC. All rights reserved.
</metadata>
<defs>
<font id="GloberSemiBoldItalic" horiz-adv-x="511" >
  <font-face 
    font-family="Glober SemiBold Italic"
    font-weight="600"
    font-style="italic"
    font-stretch="normal"
    units-per-em="1000"
    panose-1="0 0 0 0 0 0 0 0 0 0"
    ascent="750"
    descent="-250"
    x-height="526"
    cap-height="720"
    bbox="-231 -285 1026.54 1053.43"
    underline-thickness="50"
    underline-position="-50"
    stemh="85"
    stemv="100"
    unicode-range="U+0020-FB02"
  />
<missing-glyph horiz-adv-x="618" 
d="M422 0h-538l153 720h538zM414 493c20 96 -38 140 -132 140c-81 0 -134 -28 -134 -28c-7 -23 -3 -44 12 -57c0 0 38 19 95 19c56 0 88 -22 76 -77c-25 -119 -140 -82 -177 -253c0 0 11 -8 30 -8c22 0 32 8 32 8c28 128 165 100 198 256zM211 161c0 0 -14 6 -41 6
c-29 0 -42 -6 -42 -6l-16 -75s11 -5 40 -5c27 0 43 5 43 5z" />
    <glyph glyph-name="fi" unicode="fi" horiz-adv-x="581" 
d="M164 586c21 102 91 164 223 164c122 0 199 -32 199 -32c-7 -28 -20 -51 -41 -70c0 0 -67 22 -168 22c-69 0 -102 -24 -113 -79l-14 -65h250c30 0 47 -6 50 -6l-109 -513s-18 -7 -51 -7c-35 0 -49 7 -49 7l95 444h-202l-95 -444s-18 -7 -50 -7c-35 0 -49 7 -49 7l95 444
h-64s-2 15 3 38s13 37 13 37h64z" />
    <glyph glyph-name="fl" unicode="fl" horiz-adv-x="583" 
d="M165 586c21 101 91 164 220 164c114 0 208 -34 208 -34l-151 -709s-18 -7 -51 -7c-35 0 -49 7 -49 7l139 653c-26 5 -62 10 -105 10c-67 0 -100 -26 -111 -79l-14 -65h97c0 -11 0 -23 -3 -37c-3 -15 -8 -27 -13 -38h-97l-95 -444s-18 -7 -50 -7c-35 0 -49 7 -49 7l95 444
h-64c0 11 0 24 3 38s8 27 13 37h64z" />
    <glyph glyph-name=".notdef" horiz-adv-x="618" 
d="M422 0h-538l153 720h538zM414 493c20 96 -38 140 -132 140c-81 0 -134 -28 -134 -28c-7 -23 -3 -44 12 -57c0 0 38 19 95 19c56 0 88 -22 76 -77c-25 -119 -140 -82 -177 -253c0 0 11 -8 30 -8c22 0 32 8 32 8c28 128 165 100 198 256zM211 161c0 0 -14 6 -41 6
c-29 0 -42 -6 -42 -6l-16 -75s11 -5 40 -5c27 0 43 5 43 5z" />
    <glyph glyph-name="A" unicode="A" horiz-adv-x="654" 
d="M354 713c0 0 26 7 61 7c38 0 59 -7 59 -7l100 -706s-19 -7 -56 -7c-34 0 -44 7 -44 7l-24 176h-296l-99 -176s-25 -7 -57 -7c-31 0 -46 7 -46 7zM396 614h-3l-193 -348h238l-35 258c-7 52 -7 90 -7 90z" />
    <glyph glyph-name="AE" unicode="&#xc6;" horiz-adv-x="864" 
d="M527 720h366c7 -27 -3 -60 -18 -83h-274l-49 -232h224c4 -27 -2 -58 -18 -83h-224l-50 -239h284c5 -28 -2 -60 -18 -83h-370l38 179h-229l-138 -171c-15 -5 -36 -8 -57 -8c-20 0 -41 2 -51 8zM256 262h180l64 301z" />
    <glyph glyph-name="AEacute" unicode="&#x1fc;" horiz-adv-x="865" 
d="M792 886l-138 -123c-24 4 -42 14 -50 31l108 129c33 4 70 -14 80 -37zM52 8c-16 -5 -37 -8 -57 -8c-21 0 -41 2 -52 8l584 712h367c4 -25 -4 -60 -18 -83h-272l-49 -232h222c3 -28 -2 -58 -18 -83h-222l-50 -239h282c4 -28 -2 -56 -18 -83h-371l38 179h-229zM501 563
l-244 -301h180z" />
    <glyph glyph-name="Aacute" unicode="&#xc1;" horiz-adv-x="654" 
d="M374 783l125 141c33 4 69 -14 79 -37l-153 -135c-23 4 -42 14 -51 31zM354 713c0 0 26 7 61 7c38 0 59 -7 59 -7l100 -706s-19 -7 -56 -7c-34 0 -44 7 -44 7l-24 176h-296l-99 -176s-25 -7 -57 -7c-31 0 -46 7 -46 7zM396 614h-3l-193 -348h238l-35 258
c-7 52 -7 90 -7 90z" />
    <glyph glyph-name="Abreve" unicode="&#x102;" horiz-adv-x="654" 
d="M438 849c69 0 117 32 117 32c20 -7 33 -30 34 -50c0 0 -54 -55 -157 -55s-152 59 -152 59c12 20 33 39 55 46c0 0 34 -32 103 -32zM354 713c0 0 26 7 61 7c38 0 59 -7 59 -7l100 -706s-19 -7 -56 -7c-34 0 -44 7 -44 7l-24 176h-296l-99 -176s-25 -7 -57 -7
c-31 0 -46 7 -46 7zM396 614h-3l-193 -348h238l-35 258c-7 52 -7 90 -7 90z" />
    <glyph glyph-name="Acircumflex" unicode="&#xc2;" horiz-adv-x="654" 
d="M465 915l114 -114c-13 -20 -33 -38 -55 -44l-90 73l-114 -73c-20 7 -36 24 -42 44l161 114h26zM354 713c0 0 26 7 61 7c38 0 59 -7 59 -7l100 -706s-19 -7 -56 -7c-34 0 -44 7 -44 7l-24 176h-296l-99 -176s-25 -7 -57 -7c-31 0 -46 7 -46 7zM396 614h-3l-193 -348h238
l-35 258c-7 52 -7 90 -7 90z" />
    <glyph glyph-name="Adieresis" unicode="&#xc4;" horiz-adv-x="654" 
d="M307 856c0 0 15 6 46 6c30 0 45 -6 45 -6l-17 -81s-17 -6 -47 -6c-31 0 -44 6 -44 6zM477 856c0 0 15 6 46 6c30 0 45 -6 45 -6l-17 -81s-17 -6 -47 -6c-31 0 -44 6 -44 6zM354 713c0 0 26 7 61 7c38 0 59 -7 59 -7l100 -706s-19 -7 -56 -7c-34 0 -44 7 -44 7l-24 176
h-296l-99 -176s-25 -7 -57 -7c-31 0 -46 7 -46 7zM396 614h-3l-193 -348h238l-35 258c-7 52 -7 90 -7 90z" />
    <glyph glyph-name="Agrave" unicode="&#xc0;" horiz-adv-x="654" 
d="M426 923l65 -141c-15 -17 -39 -27 -63 -31l-97 135c19 23 64 41 95 37zM354 713c0 0 26 7 61 7c38 0 59 -7 59 -7l100 -706s-19 -7 -56 -7c-34 0 -44 7 -44 7l-24 176h-296l-99 -176s-25 -7 -57 -7c-31 0 -46 7 -46 7zM396 614h-3l-193 -348h238l-35 258
c-7 52 -7 90 -7 90z" />
    <glyph glyph-name="Amacron" unicode="&#x100;" horiz-adv-x="654" 
d="M286 853h285c2 -19 -4 -42 -13 -61h-285c-2 20 3 42 13 61zM354 713c0 0 26 7 61 7c38 0 59 -7 59 -7l100 -706s-19 -7 -56 -7c-34 0 -44 7 -44 7l-24 176h-296l-99 -176s-25 -7 -57 -7c-31 0 -46 7 -46 7zM396 614h-3l-193 -348h238l-35 258c-7 52 -7 90 -7 90z" />
    <glyph glyph-name="Aogonek" unicode="&#x104;" horiz-adv-x="654" 
d="M525 -134c18 0 34 6 34 6c9 -8 11 -27 6 -43c0 0 -33 -14 -71 -14c-56 0 -101 29 -94 88c4 34 27 67 74 104l-24 176h-296l-101 -176s-23 -7 -55 -7c-31 0 -46 7 -46 7l402 706s26 7 61 7c38 0 59 -7 59 -7l100 -706c-39 -17 -91 -45 -101 -94c-8 -36 22 -47 52 -47z
M438 266l-36 259c-7 52 -7 90 -7 90h-3s-17 -40 -45 -90l-147 -259h238z" />
    <glyph glyph-name="Aring" unicode="&#xc5;" horiz-adv-x="654" 
d="M476 693l98 -686s-19 -7 -56 -7c-34 0 -44 7 -44 7l-24 176h-296l-101 -176s-23 -7 -55 -7c-31 0 -46 7 -46 7l389 683c-29 17 -44 49 -34 94c15 72 82 110 143 110c59 0 113 -37 98 -110c-10 -43 -38 -74 -72 -91zM490 784c6 30 -9 59 -52 59c-42 0 -68 -30 -74 -59
c-7 -31 7 -60 49 -60c43 0 70 30 77 60zM438 266l-36 256c-7 52 -7 90 -7 90h-3s-16 -40 -45 -90l-147 -256h238z" />
    <glyph glyph-name="Aringacute" unicode="&#x1fa;" horiz-adv-x="654" 
d="M610 1025l-138 -105c-22 3 -39 16 -47 29l110 104c31 3 66 -10 75 -28zM476 693l98 -686s-19 -7 -56 -7c-29 0 -44 7 -44 7l-24 176h-296l-101 -176s-23 -7 -55 -7c-31 0 -46 7 -46 7l389 683c-30 16 -44 49 -34 94c15 72 81 110 143 110c59 0 112 -37 97 -110
c-10 -43 -37 -74 -71 -91zM490 784c6 30 -10 59 -52 59s-68 -30 -74 -59c-7 -31 7 -60 49 -60s70 30 77 60zM438 266l-37 257c-7 52 -7 90 -7 90h-3s-16 -40 -45 -90l-146 -257h238z" />
    <glyph glyph-name="Atilde" unicode="&#xc3;" horiz-adv-x="654" 
d="M283 808c0 0 25 54 87 58c58 3 77 -36 119 -34c27 1 45 26 45 26c18 -4 36 -16 41 -34c0 0 -29 -52 -91 -55c-57 -3 -75 35 -116 33c-31 -2 -47 -26 -47 -26c-21 3 -36 15 -38 32zM354 713c0 0 26 7 61 7c38 0 59 -7 59 -7l100 -706s-19 -7 -56 -7c-34 0 -44 7 -44 7
l-24 176h-296l-99 -176s-25 -7 -57 -7c-31 0 -46 7 -46 7zM396 614h-3l-193 -348h238l-35 258c-7 52 -7 90 -7 90z" />
    <glyph glyph-name="B" unicode="B" horiz-adv-x="627" 
d="M179 720h268c129 0 173 -94 149 -208c-18 -83 -68 -122 -108 -145c38 -22 82 -75 61 -174c-26 -121 -115 -193 -251 -193h-272zM214 403h144c81 0 124 50 139 119c15 71 -7 119 -90 119h-143zM145 79h151c90 0 137 46 153 124c18 84 -14 124 -102 124h-150z" />
    <glyph glyph-name="C" unicode="C" horiz-adv-x="559" 
d="M73 374c52 242 173 356 365 356c111 0 164 -34 164 -34c-5 -33 -24 -56 -46 -76c0 0 -53 23 -124 23c-116 0 -210 -61 -258 -284c-47 -223 22 -280 138 -280c79 0 144 23 144 23c16 -19 19 -48 14 -78c0 0 -72 -34 -189 -34c-191 0 -259 140 -208 384z" />
    <glyph glyph-name="CR" horiz-adv-x="322" 
 />
    <glyph glyph-name="Cacute" unicode="&#x106;" horiz-adv-x="559" 
d="M580 888l-154 -135c-23 4 -42 14 -50 31l125 141c32 4 69 -14 79 -37zM73 374c52 242 173 356 365 356c111 0 164 -34 164 -34c-5 -33 -24 -56 -46 -76c0 0 -53 23 -124 23c-116 0 -210 -61 -258 -284c-47 -223 22 -280 138 -280c79 0 144 23 144 23
c16 -19 19 -48 14 -78c0 0 -72 -34 -189 -34c-191 0 -259 140 -208 384z" />
    <glyph glyph-name="Ccaron" unicode="&#x10c;" horiz-adv-x="559" 
d="M439 760l-124 110c14 20 34 38 55 45l91 -71l119 70c19 -7 31 -24 37 -44l-152 -110h-26zM73 374c52 242 173 356 365 356c111 0 164 -34 164 -34c-5 -33 -24 -56 -46 -76c0 0 -53 23 -124 23c-116 0 -210 -61 -258 -284c-47 -223 22 -280 138 -280c79 0 144 23 144 23
c16 -19 19 -48 14 -78c0 0 -72 -34 -189 -34c-191 0 -259 140 -208 384z" />
    <glyph glyph-name="Ccedilla" unicode="&#xc7;" horiz-adv-x="559" 
d="M470 67c5 -23 -1 -43 -1 -43s-70 -33 -183 -34l-14 -36c76 0 96 -40 84 -95c-14 -66 -67 -100 -142 -100c-59 0 -86 24 -86 24c3 18 14 34 30 42c9 -5 33 -14 62 -14c36 0 66 14 74 51c5 27 -8 46 -47 46h-36l-10 14l29 72c-154 21 -201 167 -155 388
c52 242 171 348 363 348c110 0 164 -34 164 -34s-1 -17 -16 -40c-14 -25 -31 -35 -31 -35s-52 23 -124 23c-115 0 -209 -62 -257 -285c-47 -223 22 -281 137 -281c80 0 143 23 143 23s12 -11 16 -34z" />
    <glyph glyph-name="Ccircumflex" unicode="&#x108;" horiz-adv-x="560" 
d="M481 918l120 -113c-14 -20 -34 -38 -56 -45l-90 71l-119 -70c-20 7 -31 23 -37 44l156 113h26zM282 -10c-192 0 -259 144 -208 388c52 242 173 352 365 352c110 0 164 -34 164 -34c-5 -32 -24 -56 -47 -76c0 0 -52 23 -124 23c-115 0 -209 -61 -257 -284
c-47 -223 22 -280 137 -280c80 0 144 23 144 23c16 -19 20 -48 14 -78c0 0 -72 -34 -188 -34z" />
    <glyph glyph-name="Cdotaccent" unicode="&#x10a;" horiz-adv-x="560" 
d="M517 866l-18 -86s-19 -6 -50 -6c-33 0 -46 6 -46 6l18 86s16 6 49 6c31 0 47 -6 47 -6zM282 -10c-192 0 -259 143 -208 387c52 242 173 353 365 353c110 0 164 -34 164 -34c-5 -32 -24 -56 -47 -76c0 0 -52 23 -124 23c-115 0 -209 -61 -257 -284
c-47 -223 22 -280 137 -280c80 0 144 23 144 23c16 -19 20 -48 14 -78c0 0 -72 -34 -188 -34z" />
    <glyph glyph-name="D" unicode="D" horiz-adv-x="663" 
d="M179 720h222c185 0 269 -108 212 -373c-56 -265 -180 -347 -365 -347h-222zM146 85h113c117 0 203 50 250 275c49 226 -16 275 -133 275h-113z" />
    <glyph glyph-name="Dcaron" unicode="&#x10e;" horiz-adv-x="663" 
d="M389 759l-126 111c14 20 33 38 55 45l90 -71l119 70c20 -7 31 -24 37 -44l-149 -111h-26zM179 720h222c185 0 269 -108 212 -373c-56 -265 -180 -347 -365 -347h-222zM146 85h113c117 0 203 50 250 275c49 226 -16 275 -133 275h-113z" />
    <glyph glyph-name="Dcroat" unicode="&#x110;" horiz-adv-x="679" 
d="M192 720h222c185 0 272 -108 215 -373c-56 -265 -183 -347 -368 -347h-222l68 322h-79c-1 21 5 51 15 69h79zM276 635l-52 -244h132c3 -19 -5 -50 -15 -69h-132l-50 -237h113c117 0 203 50 250 275c49 226 -16 275 -133 275h-113z" />
    <glyph glyph-name="Delta" unicode="&#x2206;" horiz-adv-x="646" 
d="M362 713c14 4 33 7 52 7c20 0 38 -3 52 -7l101 -662c-11 -21 -24 -39 -42 -51h-531c-15 13 -21 31 -21 50zM384 588h-3c-13 -26 -37 -74 -61 -115l-228 -390h364l-61 391c-7 40 -11 87 -11 114z" />
    <glyph glyph-name="E" unicode="E" horiz-adv-x="556" 
d="M179 720h406c1 -12 3 -25 0 -39c-4 -16 -10 -31 -18 -44h-304l-49 -232h254c1 -12 3 -26 0 -40s-10 -29 -17 -42h-254l-51 -240h314c1 -13 2 -26 -1 -40c-3 -15 -9 -29 -17 -43h-416z" />
    <glyph glyph-name="Eacute" unicode="&#xc9;" horiz-adv-x="556" 
d="M522 888l-154 -135c-23 4 -42 14 -50 31l125 141c32 4 69 -14 79 -37zM179 720h406c1 -12 3 -25 0 -39c-4 -16 -10 -31 -18 -44h-304l-49 -232h254c1 -12 3 -26 0 -40s-10 -29 -17 -42h-254l-51 -240h314c1 -13 2 -26 -1 -40c-3 -15 -9 -29 -17 -43h-416z" />
    <glyph glyph-name="Ebreve" unicode="&#x114;" horiz-adv-x="556" 
d="M557 838c0 0 -64 -60 -167 -60c-104 0 -142 60 -142 60c10 20 31 39 54 46c0 0 35 -32 104 -32s117 32 117 32c19 -7 31 -26 34 -46zM179 720h406c1 -12 3 -25 0 -39c-4 -16 -10 -31 -18 -44h-304l-49 -232h254c1 -12 3 -26 0 -40s-10 -29 -17 -42h-254l-51 -240h314
c1 -13 2 -26 -1 -40c-3 -15 -9 -29 -17 -43h-416z" />
    <glyph glyph-name="Ecaron" unicode="&#x11a;" horiz-adv-x="556" 
d="M363 757l-115 113c14 20 34 38 56 45l90 -71l119 70c19 -7 31 -24 37 -44l-161 -113h-26zM179 720h406c1 -12 3 -25 0 -39c-4 -16 -10 -31 -18 -44h-304l-49 -232h254c1 -12 3 -26 0 -40s-10 -29 -17 -42h-254l-51 -240h314c1 -13 2 -26 -1 -40c-3 -15 -9 -29 -17 -43
h-416z" />
    <glyph glyph-name="Ecircumflex" unicode="&#xca;" horiz-adv-x="556" 
d="M435 915l114 -114c-14 -20 -33 -38 -55 -44l-90 71l-119 -71c-20 7 -32 24 -38 44l162 114h26zM179 720h406c1 -12 3 -25 0 -39c-4 -16 -10 -31 -18 -44h-304l-49 -232h254c1 -12 3 -26 0 -40s-10 -29 -17 -42h-254l-51 -240h314c1 -13 2 -26 -1 -40
c-3 -15 -9 -29 -17 -43h-416z" />
    <glyph glyph-name="Edieresis" unicode="&#xcb;" horiz-adv-x="556" 
d="M367 843l-17 -81s-17 -6 -46 -6c-32 0 -45 6 -45 6l17 81s15 6 47 6c29 0 44 -6 44 -6zM537 843l-17 -81s-17 -6 -47 -6c-31 0 -44 6 -44 6l17 81s15 6 46 6c30 0 45 -6 45 -6zM179 720h406c1 -12 3 -25 0 -39c-4 -16 -10 -31 -18 -44h-304l-49 -232h254
c1 -12 3 -26 0 -40s-10 -29 -17 -42h-254l-51 -240h314c1 -13 2 -26 -1 -40c-3 -15 -9 -29 -17 -43h-416z" />
    <glyph glyph-name="Edotaccent" unicode="&#x116;" horiz-adv-x="556" 
d="M461 866l-18 -86s-18 -6 -49 -6c-34 0 -46 6 -46 6l18 86s15 6 49 6c31 0 46 -6 46 -6zM179 720h406c1 -12 3 -25 0 -39c-4 -16 -10 -31 -18 -44h-304l-49 -232h254c1 -12 3 -26 0 -40s-10 -29 -17 -42h-254l-51 -240h314c1 -13 2 -26 -1 -40c-3 -15 -9 -29 -17 -43h-416
z" />
    <glyph glyph-name="Egrave" unicode="&#xc8;" horiz-adv-x="556" 
d="M394 751l-97 135c19 23 64 41 95 37l65 -141c-15 -17 -39 -27 -63 -31zM179 720h406c1 -12 3 -25 0 -39c-4 -16 -10 -31 -18 -44h-304l-49 -232h254c1 -12 3 -26 0 -40s-10 -29 -17 -42h-254l-51 -240h314c1 -13 2 -26 -1 -40c-3 -15 -9 -29 -17 -43h-416z" />
    <glyph glyph-name="Emacron" unicode="&#x112;" horiz-adv-x="556" 
d="M539 782h-294c-2 20 3 42 13 61h294c3 -19 -3 -42 -13 -61zM179 720h406c1 -12 3 -25 0 -39c-4 -16 -10 -31 -18 -44h-304l-49 -232h254c1 -12 3 -26 0 -40s-10 -29 -17 -42h-254l-51 -240h314c1 -13 2 -26 -1 -40c-3 -15 -9 -29 -17 -43h-416z" />
    <glyph glyph-name="Eng" unicode="&#x14a;" horiz-adv-x="703" 
d="M606 713c0 0 16 7 49 7s45 -7 45 -7l-161 -756c-22 -101 -69 -156 -165 -185c-20 16 -25 43 -17 73c45 16 69 45 83 111l10 47c-14 2 -22 4 -22 4l-149 455c-21 65 -36 129 -36 129h-4s-8 -67 -29 -168l-89 -416s-16 -7 -49 -7c-32 0 -45 7 -45 7l151 706s22 7 62 7
s59 -7 59 -7l149 -451c22 -65 37 -133 37 -133h3s9 74 29 167z" />
    <glyph glyph-name="Eogonek" unicode="&#x118;" horiz-adv-x="556" 
d="M179 720h406c1 -12 3 -25 0 -39c-4 -16 -10 -31 -18 -44h-304l-49 -232h254c1 -12 3 -26 0 -40s-10 -29 -17 -42h-254l-51 -240h314c1 -13 2 -26 -1 -40c-3 -15 -9 -29 -17 -43c-69 -14 -118 -39 -129 -89c-8 -36 13 -52 42 -52c18 0 33 6 33 6c10 -8 11 -23 7 -39
c0 0 -33 -18 -71 -18c-56 0 -92 34 -79 93c9 44 39 78 88 99h-307z" />
    <glyph glyph-name="Eth" unicode="&#xd0;" horiz-adv-x="679" 
d="M192 720h222c185 0 272 -108 215 -373c-56 -265 -183 -347 -368 -347h-222l68 322h-79c-1 21 5 51 15 69h79zM276 635l-52 -244h132c3 -19 -5 -50 -15 -69h-132l-50 -237h113c117 0 203 50 250 275c49 226 -16 275 -133 275h-113z" />
    <glyph glyph-name="Euro" unicode="&#x20ac;" horiz-adv-x="590" 
d="M162 447c58 153 159 233 302 233c99 0 144 -32 144 -32c-8 -30 -20 -52 -44 -69c0 0 -45 20 -107 20c-80 0 -147 -36 -194 -152h244c1 -19 -10 -46 -24 -63h-242c-5 -16 -8 -32 -12 -50c-4 -17 -7 -33 -9 -46h212c1 -20 -10 -47 -24 -64h-193c-5 -118 49 -152 130 -152
c70 0 126 21 126 21c17 -16 18 -44 13 -71c0 0 -62 -32 -166 -32c-143 0 -211 79 -203 234h-85c0 19 11 47 25 64h66c2 14 5 30 8 47c4 17 7 32 13 49h-78c0 19 10 46 25 63h73z" />
    <glyph glyph-name="F" unicode="F" horiz-adv-x="535" 
d="M194 310l-65 -303s-18 -7 -53 -7c-33 0 -49 7 -49 7l152 713h398c3 -11 3 -25 -1 -41c-3 -16 -9 -30 -17 -42h-296l-52 -244h262c3 -10 3 -24 0 -40s-10 -31 -17 -43h-262z" />
    <glyph glyph-name="G" unicode="G" horiz-adv-x="630" 
d="M74 380c52 242 182 350 381 350c119 0 180 -34 180 -34c-6 -28 -23 -57 -46 -75c0 0 -62 23 -141 23c-122 0 -225 -62 -273 -285c-47 -223 31 -281 153 -281c46 0 83 6 92 8l49 231h-145s-4 15 1 41c6 27 17 42 17 42h241l-80 -376s-81 -34 -205 -34
c-199 0 -275 146 -224 390z" />
    <glyph glyph-name="Gbreve" unicode="&#x11e;" horiz-adv-x="630" 
d="M628 841c0 0 -53 -58 -156 -58s-152 58 -152 58c11 20 32 39 54 46c0 0 34 -32 103 -32s117 32 117 32c21 -7 33 -26 34 -46zM74 380c52 242 182 350 381 350c119 0 180 -34 180 -34c-6 -28 -23 -57 -46 -75c0 0 -62 23 -141 23c-122 0 -225 -62 -273 -285
c-47 -223 31 -281 153 -281c46 0 83 6 92 8l49 231h-145s-4 15 1 41c6 27 17 42 17 42h241l-80 -376s-81 -34 -205 -34c-199 0 -275 146 -224 390z" />
    <glyph glyph-name="Gcircumflex" unicode="&#x11c;" horiz-adv-x="630" 
d="M489 919l123 -114c-14 -20 -33 -38 -55 -44l-90 71l-119 -71c-20 7 -31 24 -37 44l152 114h26zM74 380c52 242 182 350 381 350c119 0 180 -34 180 -34c-6 -28 -23 -57 -46 -75c0 0 -62 23 -141 23c-122 0 -225 -62 -273 -285c-47 -223 31 -281 153 -281c46 0 83 6 92 8
l49 231h-145s-4 15 1 41c6 27 17 42 17 42h241l-80 -376s-81 -34 -205 -34c-199 0 -275 146 -224 390z" />
    <glyph glyph-name="Gcommaaccent" unicode="&#x122;" horiz-adv-x="630" 
d="M222 -259l-33 24s41 32 58 93c-24 1 -34 6 -34 6l19 88s21 7 57 7s54 -7 54 -7l-13 -58c-21 -101 -108 -153 -108 -153zM74 380c52 242 182 350 381 350c119 0 180 -34 180 -34c-6 -28 -23 -57 -46 -75c0 0 -62 23 -141 23c-122 0 -225 -62 -273 -285
c-47 -223 31 -281 153 -281c46 0 83 6 92 8l49 231h-145s-4 15 1 41c6 27 17 42 17 42h241l-80 -376s-81 -34 -205 -34c-199 0 -275 146 -224 390z" />
    <glyph glyph-name="Gdotaccent" unicode="&#x120;" horiz-adv-x="630" 
d="M531 866l-18 -86s-18 -6 -49 -6c-33 0 -46 6 -46 6l18 86s16 6 49 6c31 0 46 -6 46 -6zM74 380c52 242 182 350 381 350c119 0 180 -34 180 -34c-6 -28 -23 -57 -46 -75c0 0 -62 23 -141 23c-122 0 -225 -62 -273 -285c-47 -223 31 -281 153 -281c46 0 83 6 92 8l49 231
h-145s-4 15 1 41c6 27 17 42 17 42h241l-80 -376s-81 -34 -205 -34c-199 0 -275 146 -224 390z" />
    <glyph glyph-name="H" unicode="H" horiz-adv-x="684" 
d="M515 413l64 300s19 7 52 7s50 -7 50 -7l-151 -706s-18 -7 -51 -7c-38 0 -51 7 -51 7l68 318h-300l-68 -318s-19 -7 -52 -7c-36 0 -50 7 -50 7l151 706s18 7 51 7c34 0 51 -7 51 -7l-64 -300h300z" />
    <glyph glyph-name="Hbar" unicode="&#x126;" horiz-adv-x="706" 
d="M667 605h75c2 -19 -5 -44 -14 -63h-75l-114 -535s-18 -7 -51 -7c-38 0 -51 7 -51 7l68 318h-300l-68 -318s-19 -7 -52 -7c-36 0 -50 7 -50 7l114 535h-65c-1 22 4 44 14 63h65l23 108s18 7 51 7c34 0 51 -7 51 -7l-23 -108h300l23 108s19 7 52 7s50 -7 50 -7zM251 542
l-27 -129h300l27 129h-300z" />
    <glyph glyph-name="Hcircumflex" unicode="&#x124;" horiz-adv-x="684" 
d="M490 915l114 -114c-14 -20 -33 -38 -55 -44l-90 71l-119 -71c-20 7 -31 24 -37 44l161 114h26zM515 413l64 300s19 7 52 7s50 -7 50 -7l-151 -706s-18 -7 -51 -7c-38 0 -51 7 -51 7l68 318h-300l-68 -318s-19 -7 -52 -7c-36 0 -50 7 -50 7l151 706s18 7 51 7
c34 0 51 -7 51 -7l-64 -300h300z" />
    <glyph glyph-name="I" unicode="I" horiz-adv-x="282" 
d="M26 7l151 706s18 7 51 7c35 0 51 -7 51 -7l-151 -706s-19 -7 -52 -7c-36 0 -50 7 -50 7z" />
    <glyph glyph-name="IJ" unicode="&#x132;" horiz-adv-x="693" 
d="M27 7l151 706s18 7 51 7c35 0 51 -7 51 -7l-151 -706s-19 -7 -52 -7c-36 0 -50 7 -50 7zM481 188l112 525s15 7 52 7c34 0 49 -7 49 -7l-112 -525c-29 -136 -119 -198 -235 -198c-79 0 -140 30 -140 30c6 31 20 57 45 77c0 0 42 -18 93 -18c64 0 118 27 136 109z" />
    <glyph glyph-name="Iacute" unicode="&#xcd;" horiz-adv-x="282" 
d="M366 888l-154 -135c-23 4 -42 14 -50 31l125 141c32 4 69 -14 79 -37zM26 7l151 706s18 7 51 7c35 0 51 -7 51 -7l-151 -706s-19 -7 -52 -7c-36 0 -50 7 -50 7z" />
    <glyph glyph-name="Ibreve" unicode="&#x12c;" horiz-adv-x="282" 
d="M405 835c0 0 -63 -60 -166 -60s-143 60 -143 60c12 20 33 39 55 46c0 0 34 -32 103 -32s117 32 117 32c20 -7 33 -26 34 -46zM26 7l151 706s18 7 51 7c35 0 51 -7 51 -7l-151 -706s-19 -7 -52 -7c-36 0 -50 7 -50 7z" />
    <glyph glyph-name="Icircumflex" unicode="&#xce;" horiz-adv-x="282" 
d="M283 915l114 -114c-14 -20 -34 -38 -55 -44l-90 71l-119 -71c-20 7 -32 24 -38 44l162 114h26zM26 7l151 706s18 7 51 7c35 0 51 -7 51 -7l-151 -706s-19 -7 -52 -7c-36 0 -50 7 -50 7z" />
    <glyph glyph-name="Idieresis" unicode="&#xcf;" horiz-adv-x="282" 
d="M216 843l-17 -81s-17 -6 -46 -6c-31 0 -45 6 -45 6l17 81s16 6 47 6c29 0 44 -6 44 -6zM386 843l-17 -81s-17 -6 -47 -6c-31 0 -44 6 -44 6l17 81s15 6 46 6c30 0 45 -6 45 -6zM26 7l151 706s18 7 51 7c35 0 51 -7 51 -7l-151 -706s-19 -7 -52 -7c-36 0 -50 7 -50 7z" />
    <glyph glyph-name="Idotaccent" unicode="&#x130;" horiz-adv-x="282" 
d="M208 859c0 0 17 6 53 6c34 0 51 -6 51 -6l-21 -95s-19 -6 -53 -6c-36 0 -51 6 -51 6zM177 713c0 0 18 7 51 7c35 0 51 -7 51 -7l-151 -706s-19 -7 -52 -7c-36 0 -50 7 -50 7z" />
    <glyph glyph-name="Igrave" unicode="&#xcc;" horiz-adv-x="282" 
d="M248 751l-97 135c19 23 64 41 95 37l65 -141c-15 -17 -39 -27 -63 -31zM26 7l151 706s18 7 51 7c35 0 51 -7 51 -7l-151 -706s-19 -7 -52 -7c-36 0 -50 7 -50 7z" />
    <glyph glyph-name="Imacron" unicode="&#x12a;" horiz-adv-x="282" 
d="M386 757h-295c-2 20 3 42 13 61h295c2 -19 -4 -42 -13 -61zM26 7l151 706s18 7 51 7c35 0 51 -7 51 -7l-151 -706s-19 -7 -52 -7c-36 0 -50 7 -50 7z" />
    <glyph glyph-name="Iogonek" unicode="&#x12e;" horiz-adv-x="282" 
d="M128 7l-8 -2c-59 -17 -105 -40 -115 -87c-8 -36 12 -52 42 -52c18 0 34 6 34 6c9 -8 11 -23 6 -39c0 0 -32 -18 -71 -18c-55 0 -92 34 -80 93c10 44 41 79 91 100l150 705s18 7 51 7c35 0 51 -7 51 -7z" />
    <glyph glyph-name="Itilde" unicode="&#x128;" horiz-adv-x="282" 
d="M310 832c30 0 52 25 52 25c16 -7 26 -25 26 -43c-2 -2 -32 -48 -88 -48s-73 32 -113 32c-30 0 -51 -25 -51 -25c-18 11 -26 24 -26 44c0 0 29 47 87 47c56 0 73 -32 113 -32zM26 7l151 706s18 7 51 7c35 0 51 -7 51 -7l-151 -706s-19 -7 -52 -7c-36 0 -50 7 -50 7z" />
    <glyph glyph-name="J" unicode="J" horiz-adv-x="446" 
d="M233 188l112 525s15 7 52 7c34 0 50 -7 50 -7l-111 -522c-29 -136 -121 -201 -236 -201c-80 0 -140 30 -140 30c6 31 20 57 44 77c0 0 42 -18 93 -18c64 0 118 27 136 109z" />
    <glyph glyph-name="Jcircumflex" unicode="&#x134;" horiz-adv-x="446" 
d="M450 915l114 -114c-14 -20 -33 -38 -55 -44l-90 71l-119 -71c-20 7 -31 24 -37 44l161 114h26zM233 188l112 525s15 7 52 7c34 0 50 -7 50 -7l-111 -522c-29 -136 -121 -201 -236 -201c-80 0 -140 30 -140 30c6 31 20 57 44 77c0 0 42 -18 93 -18c64 0 118 27 136 109z
" />
    <glyph glyph-name="K" unicode="K" horiz-adv-x="616" 
d="M288 415l266 298c13 3 34 7 54 7c21 0 41 -4 56 -7l-298 -343l177 -363s-17 -7 -56 -7c-37 0 -58 7 -58 7l-153 326h-78l-70 -326s-16 -7 -52 -7c-32 0 -50 7 -50 7l151 706s19 7 53 7c33 0 49 -7 49 -7l-64 -298h73z" />
    <glyph glyph-name="Kcommaaccent" unicode="&#x136;" horiz-adv-x="616" 
d="M182 -272l-31 25s40 35 59 99c-23 2 -32 7 -32 7l20 94s19 7 53 7s51 -7 51 -7l-13 -62c-23 -108 -107 -163 -107 -163zM288 415l266 298c13 3 34 7 54 7c21 0 41 -4 56 -7l-298 -343l177 -363s-17 -7 -56 -7c-37 0 -58 7 -58 7l-153 326h-78l-70 -326s-16 -7 -52 -7
c-32 0 -50 7 -50 7l151 706s19 7 53 7c33 0 49 -7 49 -7l-64 -298h73z" />
    <glyph glyph-name="L" unicode="L" horiz-adv-x="517" 
d="M25 0l152 713s18 7 51 7c35 0 51 -7 51 -7l-133 -625h299c2 -12 2 -28 -2 -44c-3 -16 -9 -31 -17 -44h-401z" />
    <glyph glyph-name="Lacute" unicode="&#x139;" horiz-adv-x="517" 
d="M381 888l-154 -135c-23 4 -42 14 -50 31l125 141c32 4 69 -14 79 -37zM25 0l152 713s18 7 51 7c35 0 51 -7 51 -7l-133 -625h299c2 -12 2 -28 -2 -44c-3 -16 -9 -31 -17 -44h-401z" />
    <glyph glyph-name="Lcaron" unicode="&#x13d;" horiz-adv-x="518" 
d="M360 582c-18 4 -31 14 -35 28c51 41 75 77 90 139c35 3 63 -3 79 -20c-25 -65 -78 -126 -134 -147zM26 0l152 713s18 7 51 7c35 0 51 -7 51 -7l-133 -625h299c2 -12 2 -28 -2 -44c-3 -16 -9 -31 -17 -44h-401z" />
    <glyph glyph-name="Lcommaaccent" unicode="&#x13b;" horiz-adv-x="517" 
d="M25 0l152 713s18 7 51 7c35 0 51 -7 51 -7l-133 -625h299c2 -12 2 -28 -2 -44c-3 -16 -9 -31 -17 -44h-401zM155 -272l-31 25s40 35 58 99c-22 2 -32 7 -32 7l20 94s19 7 53 7s51 -7 51 -7l-13 -62c-23 -108 -106 -163 -106 -163z" />
    <glyph glyph-name="Ldot" unicode="&#x13f;" horiz-adv-x="522" 
d="M25 0l152 713s18 7 51 7c35 0 51 -7 51 -7l-133 -625h299c2 -12 2 -28 -2 -44c-3 -16 -9 -31 -17 -44h-401zM421 375l-18 -81s-17 -7 -47 -7c-32 0 -45 7 -45 7l18 81s15 7 47 7c30 0 45 -7 45 -7z" />
    <glyph glyph-name="Lslash" unicode="&#x141;" horiz-adv-x="536" 
d="M197 713c0 0 18 7 51 7c35 0 51 -7 51 -7l-58 -271l119 62c12 -15 20 -33 21 -55l-156 -80l-59 -281h299c2 -12 2 -28 -2 -44c-3 -16 -9 -31 -17 -44h-401l66 310l-66 -33c-13 14 -19 33 -21 54l102 52z" />
    <glyph glyph-name="M" unicode="M" horiz-adv-x="838" 
d="M700 713c19 4 49 7 70 7c40 0 65 -7 65 -7l-151 -706s-18 -7 -51 -7c-32 0 -50 7 -50 7l68 320c21 98 42 207 63 267h-5c-21 -45 -80 -127 -132 -201l-163 -220s-14 -5 -32 -5c-19 0 -27 5 -27 5l-69 216c-22 74 -45 160 -48 205h-4c0 -50 -23 -154 -43 -252l-72 -335
s-17 -7 -49 -7c-28 0 -44 7 -44 7l151 706s25 7 62 7c31 0 56 -7 56 -7l114 -405h4z" />
    <glyph glyph-name="N" unicode="N" horiz-adv-x="702" 
d="M428 7l-150 455c-21 65 -36 129 -36 129h-4s-8 -67 -29 -168l-89 -416s-16 -7 -49 -7c-32 0 -45 7 -45 7l151 706s22 7 62 7s59 -7 59 -7l148 -451c21 -65 38 -133 38 -133h3s9 74 29 167l89 417s16 7 49 7s45 -7 45 -7l-151 -706s-20 -7 -60 -7s-60 7 -60 7z" />
    <glyph glyph-name="Nacute" unicode="&#x143;" horiz-adv-x="702" 
d="M616 888l-154 -135c-23 4 -42 14 -50 31l125 141c32 4 69 -14 79 -37zM428 7l-150 455c-21 65 -36 129 -36 129h-4s-8 -67 -29 -168l-89 -416s-16 -7 -49 -7c-32 0 -45 7 -45 7l151 706s22 7 62 7s59 -7 59 -7l148 -451c21 -65 38 -133 38 -133h3s9 74 29 167l89 417
s16 7 49 7s45 -7 45 -7l-151 -706s-20 -7 -60 -7s-60 7 -60 7z" />
    <glyph glyph-name="Ncaron" unicode="&#x147;" horiz-adv-x="702" 
d="M439 757l-124 113c14 20 33 38 55 45l90 -71l116 73c20 -7 34 -27 40 -47l-151 -113h-26zM428 7l-150 455c-21 65 -36 129 -36 129h-4s-8 -67 -29 -168l-89 -416s-16 -7 -49 -7c-32 0 -45 7 -45 7l151 706s22 7 62 7s59 -7 59 -7l148 -451c21 -65 38 -133 38 -133h3
s9 74 29 167l89 417s16 7 49 7s45 -7 45 -7l-151 -706s-20 -7 -60 -7s-60 7 -60 7z" />
    <glyph glyph-name="Ncommaaccent" unicode="&#x145;" horiz-adv-x="702" 
d="M218 -272l-31 25s40 35 59 99c-23 2 -32 7 -32 7l20 94s19 7 53 7s51 -7 51 -7l-13 -62c-23 -108 -107 -163 -107 -163zM428 7l-150 455c-21 65 -36 129 -36 129h-4s-8 -67 -29 -168l-89 -416s-16 -7 -49 -7c-32 0 -45 7 -45 7l151 706s22 7 62 7s59 -7 59 -7l148 -451
c21 -65 38 -133 38 -133h3s9 74 29 167l89 417s16 7 49 7s45 -7 45 -7l-151 -706s-20 -7 -60 -7s-60 7 -60 7z" />
    <glyph glyph-name="Ntilde" unicode="&#xd1;" horiz-adv-x="702" 
d="M524 843c30 0 52 26 52 26c18 -7 28 -27 28 -46c-3 -3 -34 -47 -91 -47s-73 33 -114 33c-31 0 -54 -26 -54 -26c-19 11 -28 25 -27 45c0 0 30 49 91 49c57 0 74 -34 115 -34zM428 7l-150 455c-21 65 -36 129 -36 129h-4s-8 -67 -29 -168l-89 -416s-16 -7 -49 -7
c-32 0 -45 7 -45 7l151 706s22 7 62 7s59 -7 59 -7l148 -451c21 -65 38 -133 38 -133h3s9 74 29 167l89 417s16 7 49 7s45 -7 45 -7l-151 -706s-20 -7 -60 -7s-60 7 -60 7z" />
    <glyph glyph-name="O" unicode="O" horiz-adv-x="676" 
d="M75 382c55 257 181 348 354 348s252 -127 196 -386c-55 -259 -178 -354 -353 -354s-252 133 -197 392zM525 360c47 221 -9 285 -114 285c-106 0 -189 -64 -236 -285c-46 -221 13 -285 115 -285c107 0 189 64 235 285z" />
    <glyph glyph-name="OE" unicode="&#x152;" horiz-adv-x="870" 
d="M73 373c56 259 184 357 363 357c32 0 61 -4 85 -10h378c2 -13 2 -26 -1 -41s-9 -29 -17 -42h-278l-49 -232h228c2 -12 3 -26 0 -40c-4 -15 -10 -29 -17 -42h-228l-51 -240h288c2 -14 2 -27 -1 -42c-3 -14 -9 -28 -17 -41h-389c-26 -6 -55 -10 -88 -10
c-179 0 -260 126 -206 383zM510 628c-26 11 -60 17 -92 17c-109 0 -196 -64 -243 -285c-46 -221 13 -285 122 -285c32 0 69 5 100 18z" />
    <glyph glyph-name="Oacute" unicode="&#xd3;" horiz-adv-x="676" 
d="M421 806l123 138c32 3 69 -14 79 -37l-152 -133c-23 4 -42 14 -50 32zM75 382c55 257 181 348 354 348s252 -127 196 -386c-55 -259 -178 -354 -353 -354s-252 133 -197 392zM525 360c47 221 -9 285 -114 285c-106 0 -189 -64 -236 -285c-46 -221 13 -285 115 -285
c107 0 189 64 235 285z" />
    <glyph glyph-name="Obreve" unicode="&#x14e;" horiz-adv-x="676" 
d="M453 869c69 0 117 32 117 32c20 -7 33 -26 34 -46c0 0 -53 -60 -156 -60s-153 60 -153 60c12 20 33 39 55 46c0 0 34 -32 103 -32zM75 382c55 257 181 348 354 348s252 -127 196 -386c-55 -259 -178 -354 -353 -354s-252 133 -197 392zM525 360c47 221 -9 285 -114 285
c-106 0 -189 -64 -236 -285c-46 -221 13 -285 115 -285c107 0 189 64 235 285z" />
    <glyph glyph-name="Ocircumflex" unicode="&#xd4;" horiz-adv-x="676" 
d="M468 920l124 -114c-14 -20 -33 -38 -55 -44l-90 71l-119 -71c-20 7 -31 24 -37 44l151 114h26zM75 382c55 257 181 348 354 348s252 -127 196 -386c-55 -259 -178 -354 -353 -354s-252 133 -197 392zM525 360c47 221 -9 285 -114 285c-106 0 -189 -64 -236 -285
c-46 -221 13 -285 115 -285c107 0 189 64 235 285z" />
    <glyph glyph-name="Odieresis" unicode="&#xd6;" horiz-adv-x="676" 
d="M324 873c0 0 16 6 48 6c29 0 43 -6 43 -6l-17 -81s-17 -6 -46 -6c-32 0 -45 6 -45 6zM494 873c0 0 16 6 47 6c30 0 44 -6 44 -6l-17 -81s-17 -6 -47 -6c-31 0 -44 6 -44 6zM75 382c55 257 181 348 354 348s252 -127 196 -386c-55 -259 -178 -354 -353 -354
s-252 133 -197 392zM525 360c47 221 -9 285 -114 285c-106 0 -189 -64 -236 -285c-46 -221 13 -285 115 -285c107 0 189 64 235 285z" />
    <glyph glyph-name="Ograve" unicode="&#xd2;" horiz-adv-x="676" 
d="M458 930l63 -138c-16 -17 -38 -27 -64 -31l-94 132c19 23 64 41 95 37zM75 382c55 257 181 348 354 348s252 -127 196 -386c-55 -259 -178 -354 -353 -354s-252 133 -197 392zM525 360c47 221 -9 285 -114 285c-106 0 -189 -64 -236 -285c-46 -221 13 -285 115 -285
c107 0 189 64 235 285z" />
    <glyph glyph-name="Ohungarumlaut" unicode="&#x150;" horiz-adv-x="676" 
d="M312 786l113 131c33 4 68 -13 78 -35l-143 -126c-22 4 -41 13 -48 30zM469 786l114 131c33 4 67 -13 77 -35l-142 -126c-23 4 -42 13 -49 30zM75 382c55 257 181 348 354 348s252 -127 196 -386c-55 -259 -178 -354 -353 -354s-252 133 -197 392zM525 360
c47 221 -9 285 -114 285c-106 0 -189 -64 -236 -285c-46 -221 13 -285 115 -285c107 0 189 64 235 285z" />
    <glyph glyph-name="Omacron" unicode="&#x14c;" horiz-adv-x="676" 
d="M312 846h280c2 -19 -4 -42 -13 -61h-280c-2 21 4 42 13 61zM75 382c55 257 181 348 354 348s252 -127 196 -386c-55 -259 -178 -354 -353 -354s-252 133 -197 392zM525 360c47 221 -9 285 -114 285c-106 0 -189 -64 -236 -285c-46 -221 13 -285 115 -285
c107 0 189 64 235 285z" />
    <glyph glyph-name="Omega" unicode="&#x2126;" horiz-adv-x="727" 
d="M90 380c52 246 187 350 363 350s267 -104 215 -350c-31 -145 -125 -244 -175 -292h126c1 -15 2 -29 -2 -44c-3 -15 -9 -30 -17 -44h-241c-6 28 1 61 19 89c59 42 149 131 183 291c43 205 -17 265 -126 265s-195 -60 -238 -265c-34 -160 18 -249 59 -291
c5 -29 -1 -57 -19 -89h-241c-2 13 -3 28 0 43c4 16 10 31 19 45h126c-31 48 -82 147 -51 292z" />
    <glyph glyph-name="Oslash" unicode="&#xd8;" horiz-adv-x="674" 
d="M691 734l-80 -98c35 -64 41 -161 13 -292c-55 -259 -178 -354 -353 -354c-60 0 -108 16 -144 46l-66 -83c-29 1 -51 12 -64 33l87 107c-32 66 -37 162 -10 289c55 257 181 348 354 348c56 0 102 -13 137 -40l63 77c27 -2 51 -16 63 -33zM410 645
c-106 0 -189 -64 -236 -285c-15 -74 -19 -130 -13 -172l343 426c-23 22 -55 31 -94 31zM289 75c107 0 189 64 235 285c17 81 21 141 13 184l-347 -431c23 -27 58 -38 99 -38z" />
    <glyph glyph-name="Oslashacute" unicode="&#x1fe;" horiz-adv-x="675" 
d="M603 907l-154 -135c-23 4 -42 14 -50 31l125 141c33 3 69 -14 79 -37zM691 734l-80 -98c35 -64 41 -161 13 -292c-55 -259 -178 -354 -353 -354c-60 0 -108 16 -144 46l-66 -83c-29 1 -51 12 -64 33l87 107c-32 66 -37 162 -10 289c55 257 181 348 354 348
c56 0 102 -13 137 -40l63 77c27 -2 51 -16 63 -33zM410 645c-106 0 -189 -64 -236 -285c-15 -74 -19 -130 -13 -172l343 426c-23 22 -55 31 -94 31zM289 75c107 0 189 64 235 285c17 81 21 141 13 184l-347 -431c23 -27 58 -38 99 -38z" />
    <glyph glyph-name="Otilde" unicode="&#xd5;" horiz-adv-x="676" 
d="M513 849c32 1 52 28 52 28c18 -7 29 -26 29 -44c0 0 -29 -50 -89 -51c-49 -2 -76 30 -117 29c-31 -1 -52 -28 -52 -28c-20 10 -28 24 -28 44c0 0 28 49 88 51c58 2 76 -30 117 -29zM75 382c55 257 181 348 354 348s252 -127 196 -386c-55 -259 -178 -354 -353 -354
s-252 133 -197 392zM525 360c47 221 -9 285 -114 285c-106 0 -189 -64 -236 -285c-46 -221 13 -285 115 -285c107 0 189 64 235 285z" />
    <glyph glyph-name="P" unicode="P" horiz-adv-x="604" 
d="M188 281l-59 -274s-18 -7 -51 -7c-37 0 -51 7 -51 7l152 713h261c132 0 190 -101 162 -232c-27 -130 -123 -207 -255 -207h-159zM206 366h146c79 0 132 50 150 134c18 85 -14 135 -93 135h-146z" />
    <glyph glyph-name="Q" unicode="Q" horiz-adv-x="676" 
d="M429 730c173 0 252 -127 196 -386c-31 -145 -83 -239 -154 -293c31 -31 74 -51 119 -61c-12 -35 -41 -71 -74 -86c-55 20 -97 60 -121 105c-38 -13 -79 -19 -123 -19c-175 0 -252 133 -197 392c55 257 181 348 354 348zM411 645c-106 0 -189 -64 -236 -285
c-46 -221 13 -285 115 -285c107 0 189 64 235 285c47 221 -9 285 -114 285z" />
    <glyph glyph-name="R" unicode="R" horiz-adv-x="630" 
d="M179 720h256c131 0 191 -97 164 -223c-21 -99 -84 -163 -177 -188l109 -302s-22 -7 -61 -7c-37 0 -45 7 -45 7l-103 292h-130l-63 -292s-18 -7 -51 -7c-37 0 -51 7 -51 7zM351 384c78 0 131 46 148 125c17 80 -17 126 -95 126h-141l-53 -251h141z" />
    <glyph glyph-name="Racute" unicode="&#x154;" horiz-adv-x="630" 
d="M318 784l125 141c32 4 69 -14 79 -37l-154 -135c-23 4 -42 14 -50 31zM179 720h256c131 0 191 -97 164 -223c-21 -99 -84 -163 -177 -188l109 -302s-22 -7 -61 -7c-37 0 -45 7 -45 7l-103 292h-130l-63 -292s-18 -7 -51 -7c-37 0 -51 7 -51 7zM351 384
c78 0 131 46 148 125c17 80 -17 126 -95 126h-141l-53 -251h141z" />
    <glyph glyph-name="Rcaron" unicode="&#x158;" horiz-adv-x="630" 
d="M408 844l119 70c20 -7 31 -24 37 -44l-151 -111h-26l-124 111c14 20 33 38 55 45zM179 720h256c131 0 191 -97 164 -223c-21 -99 -84 -163 -177 -188l109 -302s-22 -7 -61 -7c-37 0 -45 7 -45 7l-103 292h-130l-63 -292s-18 -7 -51 -7c-37 0 -51 7 -51 7zM351 384
c78 0 131 46 148 125c17 80 -17 126 -95 126h-141l-53 -251h141z" />
    <glyph glyph-name="Rcommaaccent" unicode="&#x156;" horiz-adv-x="630" 
d="M230 -39c0 0 18 7 52 7c33 0 50 -7 50 -7l-13 -61c-23 -106 -105 -160 -105 -160l-31 25s40 34 58 97c-22 2 -31 7 -31 7zM179 720h256c131 0 191 -97 164 -223c-21 -99 -84 -163 -177 -188l109 -302s-22 -7 -61 -7c-37 0 -45 7 -45 7l-103 292h-130l-63 -292
s-18 -7 -51 -7c-37 0 -51 7 -51 7zM351 384c78 0 131 46 148 125c17 80 -17 126 -95 126h-141l-53 -251h141z" />
    <glyph glyph-name="S" unicode="S" horiz-adv-x="566" 
d="M108 547c26 123 118 183 281 183c120 0 190 -28 190 -28c-6 -29 -22 -60 -45 -80c0 0 -63 22 -149 22c-106 0 -166 -37 -181 -110c-17 -77 60 -105 147 -135c86 -32 170 -85 142 -216c-28 -134 -125 -193 -289 -193c-132 0 -207 42 -207 42c5 27 21 58 41 81
c0 0 87 -31 180 -31c103 0 161 39 177 114c15 71 -37 104 -101 126c-97 35 -219 74 -186 225z" />
    <glyph glyph-name="Sacute" unicode="&#x15a;" horiz-adv-x="566" 
d="M539 890l-155 -125c-23 5 -41 17 -47 35l126 133c33 1 68 -19 76 -43zM108 547c26 123 118 183 281 183c120 0 190 -28 190 -28c-6 -29 -22 -60 -45 -80c0 0 -63 22 -149 22c-106 0 -166 -37 -181 -110c-17 -77 60 -105 147 -135c86 -32 170 -85 142 -216
c-28 -134 -125 -193 -289 -193c-132 0 -207 42 -207 42c5 27 21 58 41 81c0 0 87 -31 180 -31c103 0 161 39 177 114c15 71 -37 104 -101 126c-97 35 -219 74 -186 225z" />
    <glyph glyph-name="Scaron" unicode="&#x160;" horiz-adv-x="566" 
d="M398 772l-125 105c14 20 33 37 56 44l90 -71l119 70c19 -6 31 -23 36 -43l-150 -105h-26zM108 547c26 123 118 183 281 183c120 0 190 -28 190 -28c-6 -29 -22 -60 -45 -80c0 0 -63 22 -149 22c-106 0 -166 -37 -181 -110c-17 -77 60 -105 147 -135
c86 -32 170 -85 142 -216c-28 -134 -125 -193 -289 -193c-132 0 -207 42 -207 42c5 27 21 58 41 81c0 0 87 -31 180 -31c103 0 161 39 177 114c15 71 -37 104 -101 126c-97 35 -219 74 -186 225z" />
    <glyph glyph-name="Scedilla" unicode="&#x15e;" horiz-adv-x="566" 
d="M108 547c26 123 118 183 281 183c120 0 190 -28 190 -28c-6 -29 -22 -60 -45 -80c0 0 -63 22 -149 22c-106 0 -166 -37 -181 -110c-17 -77 60 -105 147 -135c86 -32 170 -85 142 -216c-26 -125 -112 -185 -256 -192l-19 -49c76 0 95 -40 83 -95
c-14 -66 -67 -100 -142 -100c-59 0 -86 24 -86 24c3 18 15 34 30 42c9 -5 33 -14 62 -14c36 0 66 14 74 51c6 27 -7 46 -46 46h-36l-10 14l32 81c-117 4 -182 41 -182 41c5 27 21 58 41 81c0 0 87 -31 180 -31c103 0 161 39 177 114c15 71 -37 104 -101 126
c-97 35 -219 74 -186 225z" />
    <glyph glyph-name="Scircumflex" unicode="&#x15c;" horiz-adv-x="566" 
d="M430 929l124 -110c-14 -20 -33 -38 -55 -44l-91 70l-118 -70c-20 7 -31 24 -37 44l151 110h26zM108 547c26 123 118 183 281 183c120 0 190 -28 190 -28c-6 -29 -22 -60 -45 -80c0 0 -63 22 -149 22c-106 0 -166 -37 -181 -110c-17 -77 60 -105 147 -135
c86 -32 170 -85 142 -216c-28 -134 -125 -193 -289 -193c-132 0 -207 42 -207 42c5 27 21 58 41 81c0 0 87 -31 180 -31c103 0 161 39 177 114c15 71 -37 104 -101 126c-97 35 -219 74 -186 225z" />
    <glyph glyph-name="Scommaaccent" unicode="&#x218;" horiz-adv-x="566" 
d="M139 -278l-31 25s40 35 57 100c-21 1 -31 6 -31 6l20 95s19 6 53 6s51 -6 51 -6l-13 -63c-23 -108 -106 -163 -106 -163zM108 547c26 123 118 183 281 183c120 0 190 -28 190 -28c-6 -29 -22 -60 -45 -80c0 0 -63 22 -149 22c-106 0 -166 -37 -181 -110
c-17 -77 60 -105 147 -135c86 -32 170 -85 142 -216c-28 -134 -125 -193 -289 -193c-132 0 -207 42 -207 42c5 27 21 58 41 81c0 0 87 -31 180 -31c103 0 161 39 177 114c15 71 -37 104 -101 126c-97 35 -219 74 -186 225z" />
    <glyph glyph-name="T" unicode="T" horiz-adv-x="543" 
d="M121 720h479s4 -18 -1 -43c-6 -26 -18 -45 -18 -45h-186l-133 -625s-19 -7 -52 -7c-36 0 -50 7 -50 7l133 625h-191s-4 17 2 44c5 25 17 44 17 44z" />
    <glyph glyph-name="Tbar" unicode="&#x166;" horiz-adv-x="561" 
d="M348 375h132c1 -20 -4 -43 -14 -63h-132l-65 -305s-19 -7 -52 -7c-36 0 -50 7 -50 7l65 305h-136c-1 22 4 44 14 63h136l54 257h-191s-4 17 2 44c5 25 17 44 17 44h479s4 -18 -1 -43c-6 -26 -18 -45 -18 -45h-186z" />
    <glyph glyph-name="Tcaron" unicode="&#x164;" horiz-adv-x="543" 
d="M353 768l-124 111c14 20 33 38 55 45l90 -71l119 70c20 -7 31 -24 37 -44l-151 -111h-26zM121 720h479s4 -18 -1 -43c-6 -26 -18 -45 -18 -45h-186l-133 -625s-19 -7 -52 -7c-36 0 -50 7 -50 7l133 625h-191s-4 17 2 44c5 25 17 44 17 44z" />
    <glyph glyph-name="Thorn" unicode="&#xde;" horiz-adv-x="603" 
d="M177 713c0 0 18 7 51 7c35 0 51 -7 51 -7l-28 -128h159c132 0 188 -103 161 -231s-119 -196 -251 -196h-159l-33 -151s-19 -7 -52 -7c-36 0 -50 7 -50 7zM233 500l-54 -257h146c79 0 132 47 149 128s-16 129 -95 129h-146z" />
    <glyph glyph-name="U" unicode="U" horiz-adv-x="675" 
d="M676 713l-102 -485c-34 -163 -142 -238 -295 -238c-152 0 -241 93 -207 254l100 469s18 7 51 7c34 0 50 -7 50 -7l-104 -485c-20 -96 24 -152 120 -152c97 0 163 56 183 152l104 485s17 7 50 7s50 -7 50 -7z" />
    <glyph glyph-name="Uacute" unicode="&#xda;" horiz-adv-x="675" 
d="M574 888l-154 -135c-23 4 -42 14 -50 31l125 141c32 4 69 -14 79 -37zM676 713l-102 -485c-34 -163 -142 -238 -295 -238c-152 0 -241 93 -207 254l100 469s18 7 51 7c34 0 50 -7 50 -7l-104 -485c-20 -96 24 -152 120 -152c97 0 163 56 183 152l104 485s17 7 50 7
s50 -7 50 -7z" />
    <glyph glyph-name="Ubreve" unicode="&#x16c;" horiz-adv-x="675" 
d="M606 835c0 0 -55 -58 -158 -58s-151 58 -151 58c12 20 33 39 55 46c0 0 34 -32 103 -32s117 32 117 32c21 -7 33 -26 34 -46zM676 713l-102 -485c-34 -163 -142 -238 -295 -238c-152 0 -241 93 -207 254l100 469s18 7 51 7c34 0 50 -7 50 -7l-104 -485
c-20 -96 24 -152 120 -152c97 0 163 56 183 152l104 485s17 7 50 7s50 -7 50 -7z" />
    <glyph glyph-name="Ucircumflex" unicode="&#xdb;" horiz-adv-x="675" 
d="M480 912l121 -111c-14 -20 -34 -38 -55 -44l-90 71l-119 -71c-20 7 -32 24 -38 44l155 111h26zM676 713l-102 -485c-34 -163 -142 -238 -295 -238c-152 0 -241 93 -207 254l100 469s18 7 51 7c34 0 50 -7 50 -7l-104 -485c-20 -96 24 -152 120 -152c97 0 163 56 183 152
l104 485s17 7 50 7s50 -7 50 -7z" />
    <glyph glyph-name="Udieresis" unicode="&#xdc;" horiz-adv-x="675" 
d="M414 859l-17 -82s-17 -6 -46 -6c-31 0 -45 6 -45 6l17 82s17 6 48 6c29 0 43 -6 43 -6zM584 859l-17 -82s-17 -6 -47 -6c-31 0 -44 6 -44 6l17 82s16 6 47 6c30 0 44 -6 44 -6zM676 713l-102 -485c-34 -163 -142 -238 -295 -238c-152 0 -241 93 -207 254l100 469
s18 7 51 7c34 0 50 -7 50 -7l-104 -485c-20 -96 24 -152 120 -152c97 0 163 56 183 152l104 485s17 7 50 7s50 -7 50 -7z" />
    <glyph glyph-name="Ugrave" unicode="&#xd9;" horiz-adv-x="675" 
d="M433 754l-94 132c19 23 64 41 95 37l63 -137c-16 -18 -39 -28 -64 -32zM676 713l-102 -485c-34 -163 -142 -238 -295 -238c-152 0 -241 93 -207 254l100 469s18 7 51 7c34 0 50 -7 50 -7l-104 -485c-20 -96 24 -152 120 -152c97 0 163 56 183 152l104 485s17 7 50 7
s50 -7 50 -7z" />
    <glyph glyph-name="Uhungarumlaut" unicode="&#x170;" horiz-adv-x="675" 
d="M510 884l-147 -129c-23 3 -41 13 -48 31l117 134c32 4 68 -14 78 -36zM669 884l-147 -129c-22 3 -41 13 -48 31l117 134c33 4 68 -14 78 -36zM676 713l-102 -485c-34 -163 -142 -238 -295 -238c-152 0 -241 93 -207 254l100 469s18 7 51 7c34 0 50 -7 50 -7l-104 -485
c-20 -96 24 -152 120 -152c97 0 163 56 183 152l104 485s17 7 50 7s50 -7 50 -7z" />
    <glyph glyph-name="Umacron" unicode="&#x16a;" horiz-adv-x="675" 
d="M589 789h-295c-2 20 3 43 13 61h295c2 -18 -4 -42 -13 -61zM676 713l-102 -485c-34 -163 -142 -238 -295 -238c-152 0 -241 93 -207 254l100 469s18 7 51 7c34 0 50 -7 50 -7l-104 -485c-20 -96 24 -152 120 -152c97 0 163 56 183 152l104 485s17 7 50 7s50 -7 50 -7z
" />
    <glyph glyph-name="Uogonek" unicode="&#x172;" horiz-adv-x="675" 
d="M576 713c0 0 17 7 50 7s50 -7 50 -7l-102 -485c-21 -102 -72 -170 -144 -206c-31 -16 -67 -34 -80 -88c-7 -37 15 -47 45 -47c19 0 34 6 34 6c10 -9 12 -24 8 -40c0 0 -35 -19 -74 -19c-59 0 -96 29 -83 90c6 27 20 50 42 68c-14 -1 -28 -2 -43 -2
c-152 0 -241 93 -207 254l100 469s18 7 51 7c34 0 50 -7 50 -7l-104 -485c-20 -96 24 -152 120 -152c97 0 163 56 183 152z" />
    <glyph glyph-name="Uring" unicode="&#x16e;" horiz-adv-x="675" 
d="M437 763c-67 0 -110 40 -95 112s82 110 143 110c60 0 113 -37 98 -110c-15 -72 -80 -112 -146 -112zM525 875c6 30 -9 59 -52 59c-42 0 -68 -30 -74 -59c-6 -30 7 -60 49 -60c43 0 71 31 77 60zM676 713l-102 -485c-34 -163 -142 -238 -295 -238c-152 0 -241 93 -207 254
l100 469s18 7 51 7c34 0 50 -7 50 -7l-104 -485c-20 -96 24 -152 120 -152c97 0 163 56 183 152l104 485s17 7 50 7s50 -7 50 -7z" />
    <glyph glyph-name="Utilde" unicode="&#x168;" horiz-adv-x="675" 
d="M513 843c31 0 52 26 52 26c18 -8 28 -26 28 -44c0 0 -30 -46 -90 -46c-57 0 -74 32 -115 32c-31 0 -53 -27 -53 -27c-18 11 -27 25 -27 44c0 0 30 47 90 47c58 0 74 -32 115 -32zM676 713l-102 -485c-34 -163 -142 -238 -295 -238c-152 0 -241 93 -207 254l100 469
s18 7 51 7c34 0 50 -7 50 -7l-104 -485c-20 -96 24 -152 120 -152c97 0 163 56 183 152l104 485s17 7 50 7s50 -7 50 -7z" />
    <glyph glyph-name="V" unicode="V" horiz-adv-x="639" 
d="M206 712l63 -480c8 -66 7 -119 7 -119h3s20 52 57 119l268 480s20 8 53 8c32 0 50 -8 50 -8l-392 -705s-25 -7 -60 -7s-58 7 -58 7l-91 704s21 9 58 9c34 0 42 -8 42 -8z" />
    <glyph glyph-name="W" unicode="W" horiz-adv-x="964" 
d="M561 7l-17 458c-1 93 8 147 8 147h-4s-14 -54 -55 -147l-213 -458c-14 -3 -42 -7 -66 -7c-23 0 -44 4 -57 7l-45 706s18 7 52 7c35 0 45 -7 45 -7l31 -470c4 -65 0 -132 0 -132h4s22 66 52 132l220 470s22 7 59 7c38 0 48 -7 48 -7l19 -470c2 -69 -5 -132 -5 -132h3
s21 60 56 132l231 470s24 7 52 7c30 0 47 -7 47 -7l-346 -706s-24 -7 -59 -7c-34 0 -60 7 -60 7z" />
    <glyph glyph-name="Wacute" unicode="&#x1e82;" horiz-adv-x="964" 
d="M711 888l-151 -132c-24 3 -43 13 -51 31l123 138c32 4 69 -14 79 -37zM561 7l-17 458c-1 93 8 147 8 147h-4s-14 -54 -55 -147l-213 -458c-14 -3 -42 -7 -66 -7c-23 0 -44 4 -57 7l-45 706s18 7 52 7c35 0 45 -7 45 -7l31 -470c4 -65 0 -132 0 -132h4s22 66 52 132
l220 470s22 7 59 7c38 0 48 -7 48 -7l19 -470c2 -69 -5 -132 -5 -132h3s21 60 56 132l231 470s24 7 52 7c30 0 47 -7 47 -7l-346 -706s-24 -7 -59 -7c-34 0 -60 7 -60 7z" />
    <glyph glyph-name="Wcircumflex" unicode="&#x174;" horiz-adv-x="964" 
d="M623 915l119 -114c-14 -20 -33 -38 -55 -44l-90 71l-119 -71c-20 7 -31 24 -37 44l156 114h26zM561 7l-17 458c-1 93 8 147 8 147h-4s-14 -54 -55 -147l-213 -458c-14 -3 -42 -7 -66 -7c-23 0 -44 4 -57 7l-45 706s18 7 52 7c35 0 45 -7 45 -7l31 -470
c4 -65 0 -132 0 -132h4s22 66 52 132l220 470s22 7 59 7c38 0 48 -7 48 -7l19 -470c2 -69 -5 -132 -5 -132h3s21 60 56 132l231 470s24 7 52 7c30 0 47 -7 47 -7l-346 -706s-24 -7 -59 -7c-34 0 -60 7 -60 7z" />
    <glyph glyph-name="Wdieresis" unicode="&#x1e84;" horiz-adv-x="964" 
d="M565 872l-17 -81s-17 -6 -46 -6c-31 0 -45 6 -45 6l17 81s17 6 48 6c29 0 43 -6 43 -6zM735 872l-17 -81s-17 -6 -47 -6c-31 0 -44 6 -44 6l17 81s16 6 47 6c30 0 44 -6 44 -6zM561 7l-17 458c-1 93 8 147 8 147h-4s-14 -54 -55 -147l-213 -458c-14 -3 -42 -7 -66 -7
c-23 0 -44 4 -57 7l-45 706s18 7 52 7c35 0 45 -7 45 -7l31 -470c4 -65 0 -132 0 -132h4s22 66 52 132l220 470s22 7 59 7c38 0 48 -7 48 -7l19 -470c2 -69 -5 -132 -5 -132h3s21 60 56 132l231 470s24 7 52 7c30 0 47 -7 47 -7l-346 -706s-24 -7 -59 -7c-34 0 -60 7 -60 7z
" />
    <glyph glyph-name="Wgrave" unicode="&#x1e80;" horiz-adv-x="964" 
d="M573 754l-94 132c19 23 64 41 95 37l63 -138c-16 -17 -38 -27 -64 -31zM561 7l-17 458c-1 93 8 147 8 147h-4s-14 -54 -55 -147l-213 -458c-14 -3 -42 -7 -66 -7c-23 0 -44 4 -57 7l-45 706s18 7 52 7c35 0 45 -7 45 -7l31 -470c4 -65 0 -132 0 -132h4s22 66 52 132
l220 470s22 7 59 7c38 0 48 -7 48 -7l19 -470c2 -69 -5 -132 -5 -132h3s21 60 56 132l231 470s24 7 52 7c30 0 47 -7 47 -7l-346 -706s-24 -7 -59 -7c-34 0 -60 7 -60 7z" />
    <glyph glyph-name="X" unicode="X" horiz-adv-x="623" 
d="M678 713l-295 -340l163 -364s-23 -9 -61 -9c-36 0 -45 8 -45 8l-127 284l-247 -285c-13 -4 -37 -7 -57 -7c-23 0 -45 2 -59 7l324 372l-149 334s21 7 60 7c34 0 46 -7 46 -7l113 -253l221 253c15 4 38 7 60 7c23 0 40 -3 53 -7z" />
    <glyph glyph-name="Y" unicode="Y" horiz-adv-x="632" 
d="M590 713c0 0 25 7 60 7c34 0 56 -7 56 -7l-341 -412l-63 -294s-18 -7 -51 -7c-36 0 -51 7 -51 7l63 292l-158 414s23 7 63 7c31 0 51 -7 51 -7l117 -309z" />
    <glyph glyph-name="Yacute" unicode="&#xdd;" horiz-adv-x="632" 
d="M357 784l125 141c32 4 69 -14 79 -37l-154 -135c-23 4 -42 14 -50 31zM590 713c0 0 25 7 60 7c34 0 56 -7 56 -7l-341 -412l-63 -294s-18 -7 -51 -7c-36 0 -51 7 -51 7l63 292l-158 414s23 7 63 7c31 0 51 -7 51 -7l117 -309z" />
    <glyph glyph-name="Ycircumflex" unicode="&#x176;" horiz-adv-x="632" 
d="M468 915l114 -114c-14 -20 -33 -38 -55 -44l-90 71l-119 -71c-20 7 -32 24 -37 44l161 114h26zM590 713c0 0 25 7 60 7c34 0 56 -7 56 -7l-341 -412l-63 -294s-18 -7 -51 -7c-36 0 -51 7 -51 7l63 292l-158 414s23 7 63 7c31 0 51 -7 51 -7l117 -309z" />
    <glyph glyph-name="Ydieresis" unicode="&#x178;" horiz-adv-x="632" 
d="M307 860c0 0 16 6 47 6c29 0 44 -6 44 -6l-18 -82s-17 -6 -46 -6c-31 0 -45 6 -45 6zM477 860c0 0 15 6 47 6c29 0 44 -6 44 -6l-18 -82s-17 -6 -46 -6c-32 0 -45 6 -45 6zM590 713c0 0 25 7 60 7c34 0 56 -7 56 -7l-341 -412l-63 -294s-18 -7 -51 -7c-36 0 -51 7 -51 7
l63 292l-158 414s23 7 63 7c31 0 51 -7 51 -7l117 -309z" />
    <glyph glyph-name="Ygrave" unicode="&#x1ef2;" horiz-adv-x="632" 
d="M400 923l65 -141c-15 -17 -36 -25 -63 -25l-97 129c19 23 64 41 95 37zM590 713c0 0 25 7 60 7c34 0 56 -7 56 -7l-341 -412l-63 -294s-18 -7 -51 -7c-36 0 -51 7 -51 7l63 292l-158 414s23 7 63 7c31 0 51 -7 51 -7l117 -309z" />
    <glyph glyph-name="Z" unicode="Z" horiz-adv-x="592" 
d="M159 720h461c2 -9 2 -25 -2 -43c-4 -17 -10 -34 -17 -46l-491 -541h389c1 -11 1 -26 -3 -43c-4 -18 -10 -33 -16 -47h-501c-2 14 -2 29 2 46c3 17 10 32 17 44l486 541h-344c0 13 0 30 4 47s10 31 15 42z" />
    <glyph glyph-name="Zacute" unicode="&#x179;" horiz-adv-x="592" 
d="M337 788l123 137c32 4 69 -14 79 -37l-151 -132c-23 4 -42 14 -51 32zM159 720h461c2 -9 2 -25 -2 -43c-4 -17 -10 -34 -17 -46l-491 -541h389c1 -11 1 -26 -3 -43c-4 -18 -10 -33 -16 -47h-501c-2 14 -2 29 2 46c3 17 10 32 17 44l486 541h-344c0 13 0 30 4 47
s10 31 15 42z" />
    <glyph glyph-name="Zcaron" unicode="&#x17d;" horiz-adv-x="592" 
d="M415 844l119 70c20 -7 31 -24 37 -44l-153 -111h-26l-122 111c14 20 33 38 55 45zM159 720h461c2 -9 2 -25 -2 -43c-4 -17 -10 -34 -17 -46l-491 -541h389c1 -11 1 -26 -3 -43c-4 -18 -10 -33 -16 -47h-501c-2 14 -2 29 2 46c3 17 10 32 17 44l486 541h-344
c0 13 0 30 4 47s10 31 15 42z" />
    <glyph glyph-name="Zdotaccent" unicode="&#x17b;" horiz-adv-x="592" 
d="M369 866c0 0 16 6 49 6c31 0 47 -6 47 -6l-18 -86s-19 -6 -50 -6c-33 0 -46 6 -46 6zM159 720h461c2 -9 2 -25 -2 -43c-4 -17 -10 -34 -17 -46l-491 -541h389c1 -11 1 -26 -3 -43c-4 -18 -10 -33 -16 -47h-501c-2 14 -2 29 2 46c3 17 10 32 17 44l486 541h-344
c0 13 0 30 4 47s10 31 15 42z" />
    <glyph glyph-name="_0020" horiz-adv-x="0" 
 />
    <glyph glyph-name="_375" horiz-adv-x="646" 
d="M273 713c14 4 33 7 52 7c20 0 38 -3 52 -7l101 -662c-11 -21 -24 -39 -42 -51h-531c-15 13 -21 31 -21 50zM295 588h-3c-13 -26 -37 -74 -61 -115l-228 -390h364l-61 391c-7 40 -11 87 -11 114z" />
    <glyph glyph-name="_376" horiz-adv-x="700" 
d="M498 0h-241c-6 28 1 61 19 89c59 42 149 131 183 291c43 205 -17 265 -126 265s-195 -60 -238 -265c-34 -160 18 -249 59 -291c5 -29 -1 -57 -19 -89h-241c-2 13 -3 28 0 43c4 16 10 31 19 45h126c-31 48 -82 147 -51 292c52 246 187 350 363 350s267 -104 215 -350
c-31 -145 -125 -244 -175 -292h126c1 -15 2 -29 -2 -44c-3 -15 -9 -30 -17 -44z" />
    <glyph glyph-name="a" unicode="a" horiz-adv-x="554" 
d="M434 519c0 0 13 7 47 7c33 0 44 -7 44 -7l-109 -512s-18 -7 -43 -7s-44 7 -44 7l5 54c-38 -44 -90 -71 -165 -71c-114 0 -167 93 -124 289c45 204 135 257 240 257c70 0 111 -21 131 -69zM385 329c13 67 -18 125 -87 125c-71 0 -122 -42 -156 -191
c-32 -141 -9 -191 71 -191c70 0 130 59 144 128z" />
    <glyph glyph-name="aacute" unicode="&#xe1;" horiz-adv-x="554" 
d="M434 519c0 0 13 7 47 7c33 0 44 -7 44 -7l-109 -512s-18 -7 -43 -7s-44 7 -44 7l5 54c-38 -44 -90 -71 -165 -71c-114 0 -167 93 -124 289c45 204 135 257 240 257c70 0 111 -21 131 -69zM385 329c13 67 -18 125 -87 125c-71 0 -122 -42 -156 -191
c-32 -141 -9 -191 71 -191c70 0 130 59 144 128zM443 715l-145 -125c-23 4 -42 14 -50 31l122 141c33 4 63 -24 73 -47z" />
    <glyph glyph-name="abreve" unicode="&#x103;" horiz-adv-x="554" 
d="M497 670c0 0 -56 -57 -156 -57s-144 62 -144 62c10 21 31 40 53 47c0 0 33 -32 100 -32s114 32 114 32c20 -6 31 -31 33 -52zM434 519c0 0 13 7 47 7c33 0 44 -7 44 -7l-109 -512s-18 -7 -43 -7s-44 7 -44 7l5 54c-38 -44 -90 -71 -165 -71c-114 0 -167 93 -124 289
c45 204 135 257 240 257c70 0 111 -21 131 -69zM385 329c13 67 -18 125 -87 125c-71 0 -122 -42 -156 -191c-32 -141 -9 -191 71 -191c70 0 130 59 144 128z" />
    <glyph glyph-name="acircumflex" unicode="&#xe2;" horiz-adv-x="554" 
d="M434 519c0 0 13 7 47 7c33 0 44 -7 44 -7l-109 -512s-18 -7 -43 -7s-44 7 -44 7l5 54c-38 -44 -90 -71 -165 -71c-114 0 -167 93 -124 289c45 204 135 257 240 257c70 0 111 -21 131 -69zM385 329c13 67 -18 125 -87 125c-71 0 -122 -42 -156 -191
c-32 -141 -9 -191 71 -191c70 0 130 59 144 128zM360 758l124 -113c-14 -20 -30 -38 -53 -45l-93 71l-119 -70c-19 7 -35 28 -40 49l155 108h26z" />
    <glyph glyph-name="acute" unicode="&#xb4;" horiz-adv-x="224" 
d="M205 762l-145 -125c-23 4 -42 14 -50 31l122 141c33 4 63 -24 73 -47z" />
    <glyph glyph-name="adieresis" unicode="&#xe4;" horiz-adv-x="554" 
d="M322 706l-17 -81s-17 -6 -46 -6c-31 0 -45 6 -45 6l17 81s17 6 48 6c29 0 43 -6 43 -6zM492 706l-17 -81s-17 -6 -47 -6c-31 0 -44 6 -44 6l17 81s16 6 47 6c30 0 44 -6 44 -6zM434 519c0 0 13 7 47 7c33 0 44 -7 44 -7l-109 -512s-18 -7 -43 -7s-44 7 -44 7l5 54
c-38 -44 -90 -71 -165 -71c-114 0 -167 93 -124 289c45 204 135 257 240 257c70 0 111 -21 131 -69zM385 329c13 67 -18 125 -87 125c-71 0 -122 -42 -156 -191c-32 -141 -9 -191 71 -191c70 0 130 59 144 128z" />
    <glyph glyph-name="ae" unicode="&#xe6;" horiz-adv-x="788" 
d="M718 239h-277l-3 -12c-12 -110 19 -156 92 -156c68 0 119 27 119 27c14 -14 18 -40 16 -66c0 0 -59 -42 -151 -42c-64 0 -102 29 -112 66l-14 -49s-15 -7 -40 -7s-38 7 -38 7l4 51c-38 -44 -88 -68 -154 -68c-101 0 -157 91 -115 289s130 257 231 257
c66 0 101 -18 122 -66l17 49s10 7 44 7c27 0 39 -7 39 -7l-8 -46c36 40 80 63 128 63c111 0 159 -68 131 -201c-12 -56 -31 -96 -31 -96zM664 348c13 62 -1 109 -71 109c-57 0 -106 -37 -137 -148h197s6 15 11 39zM342 200l28 129c13 67 -8 125 -77 125
c-67 0 -123 -48 -153 -191c-31 -143 3 -191 70 -191c70 0 118 59 132 128z" />
    <glyph glyph-name="aeacute" unicode="&#x1fd;" horiz-adv-x="788" 
d="M597 720l-154 -135c-23 4 -42 14 -50 31l125 141c34 4 70 -14 79 -37zM718 239h-277l-3 -12c-12 -110 19 -156 92 -156c68 0 119 27 119 27c14 -14 18 -40 16 -66c0 0 -59 -42 -151 -42c-64 0 -102 29 -112 66l-14 -49s-15 -7 -40 -7s-38 7 -38 7l4 51
c-38 -44 -88 -68 -154 -68c-101 0 -157 91 -115 289s130 257 231 257c66 0 101 -18 122 -66l17 49s10 7 44 7c27 0 39 -7 39 -7l-8 -46c36 40 80 63 128 63c111 0 159 -68 131 -201c-12 -56 -31 -96 -31 -96zM664 348c13 62 -1 109 -71 109c-57 0 -106 -37 -137 -148h197
s6 15 11 39zM342 200l28 129c13 67 -8 125 -77 125c-67 0 -123 -48 -153 -191c-31 -143 3 -191 70 -191c70 0 118 59 132 128z" />
    <glyph glyph-name="agrave" unicode="&#xe0;" horiz-adv-x="554" 
d="M434 519c0 0 13 7 47 7c33 0 44 -7 44 -7l-109 -512s-18 -7 -43 -7s-44 7 -44 7l5 54c-38 -44 -90 -71 -165 -71c-114 0 -167 93 -124 289c45 204 135 257 240 257c70 0 111 -21 131 -69zM385 329c13 67 -18 125 -87 125c-71 0 -122 -42 -156 -191
c-32 -141 -9 -191 71 -191c70 0 130 59 144 128zM317 600l-96 135c19 23 57 42 88 38l70 -142c-16 -17 -37 -27 -62 -31z" />
    <glyph glyph-name="amacron" unicode="&#x101;" horiz-adv-x="554" 
d="M449 638h-261c-3 20 2 43 13 61h261c4 -18 -2 -42 -13 -61zM434 519c0 0 13 7 47 7c33 0 44 -7 44 -7l-109 -512s-18 -7 -43 -7s-44 7 -44 7l5 54c-38 -44 -90 -71 -165 -71c-114 0 -167 93 -124 289c45 204 135 257 240 257c70 0 111 -21 131 -69zM385 329
c13 67 -18 125 -87 125c-71 0 -122 -42 -156 -191c-32 -141 -9 -191 71 -191c70 0 130 59 144 128z" />
    <glyph glyph-name="ampersand" unicode="&#x26;" horiz-adv-x="638" 
d="M400 690c94 0 140 -49 124 -124c-21 -101 -113 -159 -215 -214c22 -58 60 -116 111 -167c31 33 54 71 74 106c32 4 59 -9 70 -30c-20 -34 -51 -76 -95 -120c31 -23 65 -44 102 -62c-5 -31 -32 -65 -61 -80c-44 19 -84 45 -120 73c-32 -27 -113 -82 -221 -82
c-98 0 -183 51 -158 172c24 112 136 179 192 206c-13 55 -14 109 -3 157c20 98 87 165 200 165zM380 623c-44 0 -79 -30 -92 -92c-8 -38 -7 -78 3 -119c72 38 126 78 141 147c8 39 -9 64 -52 64zM202 71c63 0 115 29 141 45c-56 58 -97 124 -122 192
c-37 -22 -98 -67 -112 -133c-13 -62 22 -104 93 -104z" />
    <glyph glyph-name="aogonek" unicode="&#x105;" horiz-adv-x="555" 
d="M358 -128c19 0 36 7 36 7c9 -9 10 -29 7 -45c0 0 -34 -18 -72 -18c-66 0 -100 29 -89 81c8 37 41 82 94 109l1 55c-38 -44 -87 -71 -162 -71c-114 0 -169 88 -126 292s125 254 239 254c70 0 111 -21 131 -69l18 52s13 7 47 7c33 0 44 -7 44 -7l-109 -512
c-62 -23 -95 -60 -103 -96c-5 -25 6 -39 44 -39zM358 200l28 129c13 67 -20 125 -86 125c-80 0 -125 -42 -157 -191s-5 -191 75 -191c70 0 126 59 140 128z" />
    <glyph glyph-name="approxequal" unicode="&#x2248;" horiz-adv-x="532" 
d="M197 360c-48 0 -77 -37 -77 -37c-24 8 -36 27 -35 49c0 0 47 64 132 64c66 0 83 -51 146 -51c48 0 79 37 79 37c23 -8 35 -26 34 -49c0 0 -46 -64 -132 -64c-66 0 -84 51 -147 51zM160 186c-48 0 -77 -37 -77 -37c-24 8 -36 27 -35 49c0 0 47 64 132 64
c66 0 83 -51 146 -51c48 0 79 37 79 37c23 -8 35 -26 34 -49c0 0 -46 -64 -132 -64c-66 0 -84 51 -147 51z" />
    <glyph glyph-name="aring" unicode="&#xe5;" horiz-adv-x="554" 
d="M226 693c15 69 81 105 141 105c59 0 111 -35 96 -105c-14 -69 -77 -107 -142 -107c-66 0 -109 39 -95 107zM402 693c6 28 -7 53 -47 53c-38 0 -63 -26 -69 -53c-5 -27 8 -53 46 -53c40 0 65 27 70 53zM434 519c0 0 13 7 47 7c33 0 44 -7 44 -7l-109 -512s-18 -7 -43 -7
s-44 7 -44 7l5 54c-38 -44 -90 -71 -165 -71c-114 0 -167 93 -124 289c45 204 135 257 240 257c70 0 111 -21 131 -69zM385 329c13 67 -18 125 -87 125c-71 0 -122 -42 -156 -191c-32 -141 -9 -191 71 -191c70 0 130 59 144 128z" />
    <glyph glyph-name="aringacute" unicode="&#x1fb;" horiz-adv-x="554" 
d="M306 827l110 104c31 3 66 -10 75 -28l-139 -101c-21 3 -38 12 -46 25zM222 676c15 71 80 107 140 107c59 0 112 -35 97 -107c-15 -70 -79 -109 -144 -109c-66 0 -108 39 -93 109zM398 676c5 27 -8 54 -48 54c-38 0 -63 -27 -68 -54c-6 -27 7 -54 45 -54c40 0 65 27 71 54
zM434 519c0 0 13 7 47 7c33 0 44 -7 44 -7l-109 -512s-18 -7 -43 -7s-44 7 -44 7l5 54c-38 -44 -90 -71 -165 -71c-114 0 -167 93 -124 289c45 204 135 257 240 257c70 0 111 -21 131 -69zM385 329c13 67 -18 125 -87 125c-71 0 -122 -42 -156 -191
c-32 -141 -9 -191 71 -191c70 0 130 59 144 128z" />
    <glyph glyph-name="arrowdown" unicode="&#x2193;" horiz-adv-x="498" 
d="M280 618c11 3 24 6 37 6s23 -2 32 -6l-90 -424l179 148c19 -8 32 -24 33 -43l-271 -223l-176 223c10 19 29 35 51 43l115 -148z" />
    <glyph glyph-name="arrowleft" unicode="&#x2190;" horiz-adv-x="624" 
d="M44 350l271 224c18 -6 30 -22 34 -43l-179 -147h424c1 -10 1 -21 -2 -34c-2 -13 -8 -24 -13 -34h-424l117 -148c-13 -20 -32 -36 -52 -42z" />
    <glyph glyph-name="arrowright" unicode="&#x2192;" horiz-adv-x="623" 
d="M598 350l-270 -224c-18 6 -31 22 -34 42l179 148h-424c-1 10 -1 21 1 34c3 13 7 24 14 34h424l-117 147c12 21 32 37 52 43z" />
    <glyph glyph-name="arrowup" unicode="&#x2191;" horiz-adv-x="498" 
d="M318 624l175 -223c-9 -19 -28 -35 -51 -43l-115 148l-91 -424c-10 -4 -22 -6 -35 -6s-24 3 -34 6l91 424l-179 -148c-18 8 -31 24 -33 43z" />
    <glyph glyph-name="asciicircum" unicode="^" horiz-adv-x="517" 
d="M390 714l118 -256s-15 -6 -39 -6c-25 0 -43 6 -43 6l-90 196l-175 -196s-19 -6 -44 -6c-24 0 -37 6 -37 6l228 256s16 6 42 6s40 -6 40 -6z" />
    <glyph glyph-name="asciitilde" unicode="~" horiz-adv-x="522" 
d="M174 271c-48 0 -78 -36 -78 -36c-24 7 -36 26 -35 49c0 0 47 64 132 64c66 0 83 -51 146 -51c48 0 79 37 79 37c23 -8 35 -27 35 -49c0 0 -47 -65 -133 -65c-66 0 -83 51 -146 51z" />
    <glyph glyph-name="asterisk" unicode="*" horiz-adv-x="341" 
d="M210 628l17 80c19 6 39 5 53 -1l-17 -79l83 25c8 -13 9 -31 5 -51l-81 -25l35 -66c-14 -12 -34 -25 -52 -31l-33 65l-61 -65c-17 6 -31 19 -38 31l61 66l-70 25c4 20 14 38 27 51z" />
    <glyph glyph-name="at" unicode="@" horiz-adv-x="913" 
d="M854 303c-29 -140 -113 -218 -224 -218c-65 0 -102 21 -111 61c-30 -38 -75 -61 -141 -61c-91 0 -147 49 -116 193c31 146 107 194 198 194c56 0 89 -16 107 -43l8 39s15 8 44 8c30 0 40 -8 40 -8l-52 -248c-10 -46 2 -68 40 -68c55 0 105 48 127 151
c40 187 -45 312 -240 312c-197 0 -351 -127 -396 -336c-49 -232 85 -327 252 -327c94 0 193 30 280 76c17 -10 23 -27 19 -50c-108 -65 -221 -94 -327 -94c-204 0 -370 126 -313 395c54 251 262 401 498 401c244 0 355 -151 307 -377zM354 278c-22 -104 11 -130 67 -130
c52 0 91 37 104 81l20 98c8 45 -16 82 -68 82c-56 0 -100 -22 -123 -131z" />
    <glyph glyph-name="atilde" unicode="&#xe3;" horiz-adv-x="554" 
d="M434 519c0 0 13 7 47 7c33 0 44 -7 44 -7l-109 -512s-18 -7 -43 -7s-44 7 -44 7l5 54c-38 -44 -90 -71 -165 -71c-114 0 -167 93 -124 289c45 204 135 257 240 257c70 0 111 -21 131 -69zM385 329c13 67 -18 125 -87 125c-71 0 -122 -42 -156 -191
c-32 -141 -9 -191 71 -191c70 0 130 59 144 128zM401 683c31 0 53 27 53 27c18 -8 28 -26 28 -46c0 0 -32 -48 -92 -48c-58 0 -74 33 -115 33c-31 0 -54 -28 -54 -28c-18 11 -27 26 -27 46c0 0 32 49 92 49c58 0 74 -33 115 -33z" />
    <glyph glyph-name="b" unicode="b" horiz-adv-x="557" 
d="M268 743l-58 -272c37 41 87 65 158 65c114 0 169 -78 126 -282s-128 -264 -242 -264c-71 0 -108 32 -127 73l-19 -56s-13 -7 -47 -7c-33 0 -48 7 -48 7l157 736s17 7 50 7c34 0 50 -7 50 -7zM395 263c32 149 0 191 -80 191c-70 0 -121 -58 -135 -126l-28 -128
c-14 -69 12 -128 82 -128c80 0 129 42 161 191z" />
    <glyph glyph-name="backslash" unicode="\" horiz-adv-x="476" 
d="M215 742l168 -781s-19 -8 -53 -8c-33 0 -49 8 -49 8l-168 781s19 8 53 8c32 0 49 -8 49 -8z" />
    <glyph glyph-name="bar" unicode="|" horiz-adv-x="281" 
d="M191 783c0 0 17 7 52 7c33 0 48 -7 48 -7l-206 -973s-19 -7 -52 -7c-35 0 -48 7 -48 7z" />
    <glyph glyph-name="braceleft" unicode="{" horiz-adv-x="350" 
d="M349 810h68c2 -10 1 -23 -2 -38c-3 -14 -9 -28 -14 -38h-49c-42 0 -64 -21 -73 -59l-51 -240c-9 -45 -27 -79 -61 -100c25 -21 28 -55 19 -101l-51 -240c-8 -38 5 -59 47 -59h49c2 -11 1 -24 -2 -39s-8 -27 -14 -37h-68c-89 0 -122 53 -105 133l56 260c5 27 -3 44 -33 44
h-28c-2 11 -1 24 2 39c3 14 9 27 14 38h28c30 0 46 17 52 44l55 260c17 80 72 133 161 133z" />
    <glyph glyph-name="braceright" unicode="}" horiz-adv-x="351" 
d="M147 810h69c89 0 122 -53 105 -133l-55 -260c-6 -27 2 -44 32 -44h27c1 -11 1 -24 -2 -38c-3 -15 -8 -28 -14 -39h-27c-30 0 -46 -17 -51 -44l-56 -260c-17 -80 -72 -133 -161 -133h-69c-2 10 -1 23 2 37c3 15 8 28 14 39h49c43 0 65 21 73 59l51 240c9 46 27 79 60 101
c-23 21 -27 55 -18 100l51 240c9 38 -4 59 -47 59h-49c-1 10 -1 24 2 38c3 15 8 28 14 38z" />
    <glyph glyph-name="bracketleft" unicode="[" horiz-adv-x="330" 
d="M198 810h199s3 -13 -2 -39c-5 -25 -14 -37 -14 -37h-106l-176 -828h106s3 -13 -2 -38c-6 -26 -14 -38 -14 -38h-199z" />
    <glyph glyph-name="bracketright" unicode="]" horiz-adv-x="330" 
d="M139 -170h-199s-4 12 2 38c5 25 14 38 14 38h106l176 828h-106s-3 12 2 37c5 26 14 39 14 39h199z" />
    <glyph glyph-name="breve" unicode="&#x2d8;" horiz-adv-x="324" 
d="M299 663c0 0 -56 -57 -156 -57s-144 62 -144 62c10 21 31 40 53 47c0 0 33 -32 100 -32s114 32 114 32c20 -6 31 -31 33 -52z" />
    <glyph glyph-name="brokenbar" unicode="&#xa6;" horiz-adv-x="278" 
d="M158 631c0 0 16 6 51 6c33 0 49 -6 49 -6l-141 -666s-19 -7 -52 -7c-35 0 -48 7 -48 7z" />
    <glyph glyph-name="bullet" unicode="&#x2022;" horiz-adv-x="338" 
d="M248 282c-11 -50 -54 -82 -101 -82c-48 0 -78 32 -67 82c11 51 55 83 103 83c47 0 76 -32 65 -83z" />
    <glyph glyph-name="c" unicode="c" horiz-adv-x="444" 
d="M316 454c-96 0 -147 -61 -174 -191c-28 -131 2 -188 98 -188c55 0 98 17 98 17c13 -15 18 -44 13 -72c0 0 -50 -30 -150 -30c-146 0 -195 110 -157 288s127 258 273 258c96 0 129 -25 129 -25c-6 -27 -23 -55 -45 -72c0 0 -32 15 -85 15z" />
    <glyph glyph-name="cacute" unicode="&#x107;" horiz-adv-x="444" 
d="M316 454c-96 0 -147 -61 -174 -191c-28 -131 2 -188 98 -188c55 0 98 17 98 17c13 -15 18 -44 13 -72c0 0 -50 -30 -150 -30c-146 0 -195 110 -157 288s127 258 273 258c96 0 129 -25 129 -25c-6 -27 -23 -55 -45 -72c0 0 -32 15 -85 15zM441 706l-145 -125
c-23 4 -42 14 -50 31l122 141c33 4 63 -24 73 -47z" />
    <glyph glyph-name="caron" unicode="&#x2c7;" horiz-adv-x="404" 
d="M158 552l-123 111c14 21 33 38 55 45l90 -71l116 73c20 -6 34 -27 40 -47l-152 -111h-26z" />
    <glyph glyph-name="ccaron" unicode="&#x10d;" horiz-adv-x="444" 
d="M316 454c-96 0 -147 -61 -174 -191c-28 -131 2 -188 98 -188c55 0 98 17 98 17c13 -15 18 -44 13 -72c0 0 -50 -30 -150 -30c-146 0 -195 110 -157 288s127 258 273 258c96 0 129 -25 129 -25c-6 -27 -23 -55 -45 -72c0 0 -32 15 -85 15zM298 594l-120 108
c14 20 32 37 54 44l87 -69l113 71c19 -6 33 -27 39 -46l-148 -108h-25z" />
    <glyph glyph-name="ccedilla" unicode="&#xe7;" horiz-adv-x="443" 
d="M44 278c38 178 127 258 273 258c96 0 129 -25 129 -25c-6 -27 -23 -55 -45 -72c0 0 -32 15 -85 15c-96 0 -147 -61 -174 -191c-28 -131 2 -188 98 -188c55 0 98 17 98 17c13 -15 18 -44 13 -72c0 0 -44 -26 -131 -30l-17 -45c75 0 96 -39 85 -93
c-15 -66 -67 -98 -142 -98c-59 0 -86 24 -86 24c3 18 14 34 30 42c9 -5 33 -14 62 -14c36 0 65 12 73 49c6 27 -7 45 -46 45h-36l-10 14l31 79c-117 17 -155 123 -120 285z" />
    <glyph glyph-name="ccircumflex" unicode="&#x109;" horiz-adv-x="444" 
d="M316 454c-96 0 -147 -61 -174 -191c-28 -131 2 -188 98 -188c55 0 98 17 98 17c13 -15 18 -44 13 -72c0 0 -50 -30 -150 -30c-146 0 -195 110 -157 288s127 258 273 258c96 0 129 -25 129 -25c-6 -27 -23 -55 -45 -72c0 0 -32 15 -85 15zM345 755l124 -113
c-14 -20 -30 -38 -53 -45l-93 71l-119 -70c-19 7 -35 28 -40 49l155 108h26z" />
    <glyph glyph-name="cdotaccent" unicode="&#x10b;" horiz-adv-x="444" 
d="M376 710l-18 -85s-17 -6 -48 -6c-34 0 -47 6 -47 6l18 85s15 6 49 6c31 0 46 -6 46 -6zM316 454c-96 0 -147 -61 -174 -191c-28 -131 2 -188 98 -188c55 0 98 17 98 17c13 -15 18 -44 13 -72c0 0 -50 -30 -150 -30c-146 0 -195 110 -157 288s127 258 273 258
c96 0 129 -25 129 -25c-6 -27 -23 -55 -45 -72c0 0 -32 15 -85 15z" />
    <glyph glyph-name="cedilla" unicode="&#xb8;" horiz-adv-x="296" 
d="M-34 49l53 -13l-25 -62c76 0 98 -50 86 -105c-14 -66 -69 -90 -144 -90c-59 0 -86 24 -86 24c3 18 14 34 30 42c9 -5 33 -14 62 -14c36 0 66 14 74 51c6 27 -7 46 -46 46h-36l-10 14z" />
    <glyph glyph-name="cent" unicode="&#xa2;" horiz-adv-x="464" 
d="M301 627c1 1 21 8 43 8c26 0 39 -7 40 -8l-26 -92c69 -5 95 -24 95 -24c-7 -26 -22 -51 -44 -68c0 0 -32 15 -85 15c-96 0 -148 -65 -175 -195c-28 -131 1 -192 97 -192c55 0 98 17 98 17c13 -15 18 -40 14 -68c0 0 -40 -23 -116 -29l-13 -92c-1 -1 -18 -8 -43 -8
c-23 0 -39 7 -40 8l27 93c-120 14 -162 108 -127 271s116 256 242 271z" />
    <glyph glyph-name="circumflex" unicode="&#x2c6;" horiz-adv-x="396" 
d="M200 719l124 -113c-14 -20 -30 -38 -53 -45l-93 71l-119 -70c-19 7 -35 28 -40 49l155 108h26z" />
    <glyph glyph-name="colon" unicode=":" horiz-adv-x="242" 
d="M213 496l-20 -94s-19 -7 -53 -7c-36 0 -51 7 -51 7l20 94s18 7 54 7c34 0 50 -7 50 -7zM129 101l-20 -94s-19 -7 -53 -7c-36 0 -51 7 -51 7l20 94s18 7 54 7c34 0 50 -7 50 -7z" />
    <glyph glyph-name="comma" unicode="," horiz-adv-x="233" 
d="M7 -125l-30 25s39 35 58 100c-23 1 -32 7 -32 7l20 94s20 7 54 7s50 -7 50 -7l-13 -63c-23 -108 -107 -163 -107 -163z" />
    <glyph glyph-name="commaaccentcomb" unicode="&#xf6c3;" horiz-adv-x="0" 
d="M-108 -125l-30 25s39 35 58 100c-23 1 -32 7 -32 7l20 94s17 7 54 7c34 0 50 -7 50 -7l-13 -63c-23 -108 -107 -163 -107 -163z" />
    <glyph glyph-name="commaaccentcomb.alt" horiz-adv-x="0" 
d="M101 720l31 -25s-40 -35 -59 -101c23 -1 33 -5 33 -5l-20 -95s-17 -6 -53 -6c-34 0 -51 6 -51 6l13 63c23 108 106 163 106 163z" />
    <glyph glyph-name="copyright" unicode="&#xa9;" horiz-adv-x="800" 
d="M335 -6c-191 0 -313 155 -273 346c41 191 229 345 420 345s312 -154 271 -345c-40 -191 -227 -346 -418 -346zM468 619c-155 0 -307 -124 -340 -279s66 -280 221 -280s305 125 338 280s-64 279 -219 279zM370 147c-115 0 -159 72 -132 200c28 131 102 199 217 199
c66 0 100 -22 100 -22c-5 -23 -15 -39 -35 -54c0 0 -33 16 -71 16c-66 0 -114 -35 -136 -140c-22 -102 13 -135 78 -135c42 0 81 12 81 12c17 -12 17 -33 13 -53c0 0 -46 -23 -115 -23z" />
    <glyph glyph-name="currency" unicode="&#xa4;" horiz-adv-x="594" 
d="M430 31l-59 73c-37 -23 -81 -36 -124 -36c-44 0 -81 13 -109 36l-88 -73s-15 1 -29 19c-13 16 -11 31 -11 31l90 74c-16 32 -22 72 -12 116c9 43 31 83 61 116l-58 74s5 16 25 32c22 18 36 18 36 18l58 -74c38 24 81 37 124 37s80 -14 108 -37l89 74s15 0 28 -18
c13 -16 11 -32 11 -32l-89 -74c16 -32 22 -73 13 -116c-10 -44 -32 -84 -62 -117l58 -73s-4 -16 -24 -32c-22 -19 -36 -18 -36 -18zM319 404c-74 0 -145 -58 -161 -133s30 -133 104 -133c75 0 146 58 162 133s-30 133 -105 133z" />
    <glyph glyph-name="d" unicode="d" horiz-adv-x="555" 
d="M474 743c0 0 18 7 52 7c33 0 48 -7 48 -7l-157 -736s-18 -7 -43 -7s-44 7 -44 7l5 54c-38 -44 -82 -71 -157 -71c-114 0 -176 80 -133 284s127 262 241 262c70 0 110 -24 130 -65zM386 329c13 67 -14 125 -83 125c-80 0 -128 -42 -160 -191s-1 -191 79 -191
c70 0 122 59 136 128z" />
    <glyph glyph-name="dagger" unicode="&#x2020;" horiz-adv-x="560" 
d="M193 -127l-37 23l118 525l-221 -7s-1 17 3 39c6 25 13 38 13 38l219 -7l38 213s19 4 42 4s39 -4 39 -4l-52 -213l213 7s2 -16 -3 -38c-5 -23 -13 -39 -13 -39l-211 7l-104 -525z" />
    <glyph glyph-name="daggerdbl" unicode="&#x2021;" horiz-adv-x="626" 
d="M312 158l221 7s1 -16 -4 -39c-6 -26 -12 -38 -12 -38l-219 7l-38 -213s-18 -4 -42 -4s-39 4 -39 4l52 213l-220 -7s-2 15 3 38c5 24 13 39 13 39l218 -7l20 131l35 132l-221 -7s-1 16 4 39c6 26 12 38 12 38l219 -7l38 213s18 4 42 4s39 -4 39 -4l-52 -213l220 7
s2 -15 -3 -38c-5 -24 -13 -39 -13 -39l-218 7l-21 -132z" />
    <glyph glyph-name="dcaron" unicode="&#x10f;" horiz-adv-x="569" 
d="M589 603c49 45 69 82 77 144c35 7 65 4 82 -11c-18 -66 -64 -131 -120 -157c-19 2 -33 10 -39 24zM474 743c0 0 18 7 52 7c33 0 48 -7 48 -7l-157 -736s-18 -7 -43 -7s-44 7 -44 7l5 54c-38 -44 -82 -71 -157 -71c-114 0 -176 80 -133 284s127 262 241 262
c70 0 110 -24 130 -65zM386 329c13 67 -14 125 -83 125c-80 0 -128 -42 -160 -191s-1 -191 79 -191c70 0 122 59 136 128z" />
    <glyph glyph-name="dcroat" unicode="&#x111;" horiz-adv-x="555" 
d="M559 675h68s3 -11 -1 -31s-12 -31 -12 -31h-68l-129 -606s-18 -7 -43 -7s-44 7 -44 7l5 54c-38 -44 -82 -71 -157 -71c-114 0 -176 80 -133 284s127 262 241 262c70 0 110 -24 130 -65l30 142h-111s-2 11 2 31s11 31 11 31h112l14 68s18 7 52 7c33 0 48 -7 48 -7z
M358 200l28 129c13 67 -14 125 -83 125c-80 0 -128 -42 -160 -191s-1 -191 79 -191c70 0 122 59 136 128z" />
    <glyph glyph-name="degree" unicode="&#xb0;" horiz-adv-x="350" 
d="M112 617c13 62 71 127 156 127c84 0 113 -63 100 -124c-13 -62 -69 -124 -153 -124c-88 0 -116 60 -103 121zM310 619c7 36 -7 71 -54 71s-79 -37 -87 -72c-7 -35 8 -69 57 -69c47 0 76 34 84 70z" />
    <glyph glyph-name="dieresis" unicode="&#xa8;" horiz-adv-x="455" 
d="M179 698l-17 -81s-17 -6 -46 -6c-31 0 -45 6 -45 6l17 81s17 6 48 6c29 0 43 -6 43 -6zM349 698l-17 -81s-17 -6 -47 -6c-31 0 -44 6 -44 6l17 81s16 6 47 6c30 0 44 -6 44 -6z" />
    <glyph glyph-name="divide" unicode="&#xf7;" horiz-adv-x="529" 
d="M359 499l-20 -94s-19 -7 -53 -7c-36 0 -51 7 -51 7l20 94s18 7 54 7c34 0 50 -7 50 -7zM459 253h-409s-3 14 2 37c4 23 13 37 13 37h409s3 -14 -1 -37c-5 -23 -14 -37 -14 -37zM290 175l-20 -94s-19 -7 -53 -7c-36 0 -51 7 -51 7l20 94s18 7 54 7c34 0 50 -7 50 -7z" />
    <glyph glyph-name="dollar" unicode="$" horiz-adv-x="560" 
d="M341 782c0 0 18 7 44 7c28 0 41 -7 41 -7l-32 -115c95 -3 157 -25 157 -25c0 -1 -3 -18 -15 -40c-12 -21 -27 -32 -28 -33c0 0 -60 20 -142 20c-99 0 -159 -29 -173 -96c-32 -149 353 -60 301 -303c-23 -109 -104 -175 -242 -186l-18 -126s-15 -7 -43 -7
c-27 0 -42 7 -42 7l34 124c-115 4 -185 38 -185 38c1 1 1 15 13 39c11 23 24 35 25 36c0 0 88 -28 182 -28c96 0 156 26 171 97c35 166 -348 64 -298 299c22 106 103 171 234 183z" />
    <glyph glyph-name="dotaccent" unicode="&#x2d9;" horiz-adv-x="176" 
d="M130 695l-18 -85s-19 -6 -50 -6c-33 0 -46 6 -46 6l18 85s16 6 49 6c31 0 47 -6 47 -6z" />
    <glyph glyph-name="dotlessi" unicode="&#x131;" horiz-adv-x="252" 
d="M221 519l-109 -512s-18 -7 -51 -7c-35 0 -49 7 -49 7l109 512s17 7 52 7c33 0 48 -7 48 -7z" />
    <glyph glyph-name="dotlessj" unicode="&#x237;" horiz-adv-x="253" 
d="M-8 -92l130 611s17 7 52 7c33 0 48 -7 48 -7l-129 -607c-22 -106 -85 -162 -179 -162c-42 0 -65 9 -65 9s-1 10 2 23c7 35 20 51 20 51s16 -4 37 -4c45 0 73 24 84 79z" />
    <glyph glyph-name="e" unicode="e" 
d="M440 232h-305c-17 -119 17 -157 106 -157c71 0 124 29 124 29c15 -16 22 -45 17 -74c0 0 -66 -40 -175 -40c-154 0 -204 108 -163 289c41 182 142 257 275 257c119 0 182 -68 154 -201c-13 -63 -33 -103 -33 -103zM380 348c12 59 -4 109 -78 109
c-65 0 -120 -43 -152 -154h217c3 8 8 24 13 45z" />
    <glyph glyph-name="eacute" unicode="&#xe9;" 
d="M455 729l-154 -135c-23 4 -42 14 -50 31l125 141c33 4 69 -14 79 -37zM440 232h-305c-17 -119 17 -157 106 -157c71 0 124 29 124 29c15 -16 22 -45 17 -74c0 0 -66 -40 -175 -40c-154 0 -204 108 -163 289c41 182 142 257 275 257c119 0 182 -68 154 -201
c-13 -63 -33 -103 -33 -103zM380 348c12 59 -4 109 -78 109c-65 0 -120 -43 -152 -154h217c3 8 8 24 13 45z" />
    <glyph glyph-name="ebreve" unicode="&#x115;" 
d="M496 674c0 0 -54 -61 -154 -61s-146 61 -146 61c11 21 32 40 53 47c0 0 33 -32 100 -32s114 32 114 32c20 -6 32 -26 33 -47zM440 232h-305c-17 -119 17 -157 106 -157c71 0 124 29 124 29c15 -16 22 -45 17 -74c0 0 -66 -40 -175 -40c-154 0 -204 108 -163 289
c41 182 142 257 275 257c119 0 182 -68 154 -201c-13 -63 -33 -103 -33 -103zM380 348c12 59 -4 109 -78 109c-65 0 -120 -43 -152 -154h217c3 8 8 24 13 45z" />
    <glyph glyph-name="ecaron" unicode="&#x11b;" 
d="M325 603l-116 106c14 20 33 37 53 43l86 -68l114 67c17 -6 29 -22 35 -42l-147 -106h-25zM440 232h-305c-17 -119 17 -157 106 -157c71 0 124 29 124 29c15 -16 22 -45 17 -74c0 0 -66 -40 -175 -40c-154 0 -204 108 -163 289c41 182 142 257 275 257
c119 0 182 -68 154 -201c-13 -63 -33 -103 -33 -103zM380 348c12 59 -4 109 -78 109c-65 0 -120 -43 -152 -154h217c3 8 8 24 13 45z" />
    <glyph glyph-name="ecircumflex" unicode="&#xea;" 
d="M369 756l117 -110c-13 -20 -32 -37 -54 -44l-87 69l-117 -68c-19 7 -31 23 -37 43l153 110h25zM440 232h-305c-17 -119 17 -157 106 -157c71 0 124 29 124 29c15 -16 22 -45 17 -74c0 0 -66 -40 -175 -40c-154 0 -204 108 -163 289c41 182 142 257 275 257
c119 0 182 -68 154 -201c-13 -63 -33 -103 -33 -103zM380 348c12 59 -4 109 -78 109c-65 0 -120 -43 -152 -154h217c3 8 8 24 13 45z" />
    <glyph glyph-name="edieresis" unicode="&#xeb;" 
d="M312 701l-17 -82s-18 -6 -48 -6c-31 0 -43 6 -43 6l17 82s15 6 46 6c30 0 45 -6 45 -6zM481 701l-17 -82s-18 -6 -47 -6c-31 0 -44 6 -44 6l17 82s16 6 47 6c29 0 44 -6 44 -6zM440 232h-305c-17 -119 17 -157 106 -157c71 0 124 29 124 29c15 -16 22 -45 17 -74
c0 0 -66 -40 -175 -40c-154 0 -204 108 -163 289c41 182 142 257 275 257c119 0 182 -68 154 -201c-13 -63 -33 -103 -33 -103zM380 348c12 59 -4 109 -78 109c-65 0 -120 -43 -152 -154h217c3 8 8 24 13 45z" />
    <glyph glyph-name="edotaccent" unicode="&#x117;" 
d="M400 708l-18 -86s-18 -6 -49 -6c-33 0 -46 6 -46 6l18 86s16 6 49 6c31 0 46 -6 46 -6zM440 232h-305c-17 -119 17 -157 106 -157c71 0 124 29 124 29c15 -16 22 -45 17 -74c0 0 -66 -40 -175 -40c-154 0 -204 108 -163 289c41 182 142 257 275 257
c119 0 182 -68 154 -201c-13 -63 -33 -103 -33 -103zM380 348c12 59 -4 109 -78 109c-65 0 -120 -43 -152 -154h217c3 8 8 24 13 45z" />
    <glyph glyph-name="egrave" unicode="&#xe8;" 
d="M338 604l-96 135c19 23 64 41 95 37l65 -141c-16 -17 -39 -27 -64 -31zM440 232h-305c-17 -119 17 -157 106 -157c71 0 124 29 124 29c15 -16 22 -45 17 -74c0 0 -66 -40 -175 -40c-154 0 -204 108 -163 289c41 182 142 257 275 257c119 0 182 -68 154 -201
c-13 -63 -33 -103 -33 -103zM380 348c12 59 -4 109 -78 109c-65 0 -120 -43 -152 -154h217c3 8 8 24 13 45z" />
    <glyph glyph-name="eight" unicode="8" horiz-adv-x="583" 
d="M368 691c129 0 197 -76 175 -179c-19 -87 -82 -127 -131 -158c59 -37 101 -94 86 -187c-19 -119 -116 -179 -270 -179c-135 0 -224 78 -198 191c23 99 104 151 163 179c-54 33 -86 89 -68 174c22 104 111 159 243 159zM348 387c37 23 89 65 103 131c13 62 -23 97 -97 97
c-72 0 -122 -35 -133 -90c-16 -73 55 -103 127 -138zM242 69c83 0 140 40 154 103c17 82 -65 114 -143 151c-32 -17 -112 -67 -129 -150c-14 -63 35 -104 118 -104z" />
    <glyph glyph-name="eight.denom" horiz-adv-x="323" 
d="M35 257c11 55 61 91 136 91c70 0 107 -33 95 -87c-8 -38 -34 -64 -62 -82c28 -18 49 -43 40 -86c-14 -63 -68 -98 -148 -98c-76 0 -120 32 -107 94c9 43 41 71 75 89c-24 17 -37 41 -29 79zM203 256c6 27 -9 42 -43 42c-32 0 -54 -15 -59 -38c-6 -30 26 -44 61 -58
c19 12 36 30 41 54zM176 90c8 37 -38 49 -69 65c-7 -3 -44 -25 -52 -61c-7 -32 13 -46 53 -46c34 0 62 14 68 42z" />
    <glyph glyph-name="eight.num" horiz-adv-x="324" 
d="M109 603c12 55 61 91 136 91c70 0 107 -33 96 -87c-8 -38 -35 -64 -62 -82c28 -18 48 -43 39 -86c-13 -63 -68 -98 -148 -98c-76 0 -120 32 -107 94c10 43 42 71 75 89c-23 17 -37 41 -29 79zM278 602c6 27 -9 42 -43 42c-32 0 -54 -15 -59 -38c-7 -30 25 -44 60 -58
c20 12 37 30 42 54zM251 436c7 37 -39 49 -70 65c-6 -3 -44 -25 -52 -61c-6 -32 14 -46 54 -46c34 0 62 14 68 42z" />
    <glyph glyph-name="eightinferior" unicode="&#x2088;" horiz-adv-x="324" 
d="M15 161c12 55 62 91 137 91c70 0 107 -33 95 -87c-8 -38 -35 -64 -62 -82c28 -18 48 -43 39 -86c-13 -63 -68 -98 -148 -98c-76 0 -120 32 -107 94c10 43 42 71 75 89c-23 17 -37 41 -29 79zM184 160c6 27 -9 42 -43 42c-32 0 -54 -15 -59 -38c-7 -30 25 -44 60 -58
c20 12 37 30 42 54zM157 -6c8 37 -39 49 -69 65c-7 -3 -45 -25 -52 -61c-7 -32 13 -46 53 -46c34 0 62 14 68 42z" />
    <glyph glyph-name="ellipsis" unicode="&#x2026;" horiz-adv-x="641" 
d="M127 101l-20 -94s-19 -7 -53 -7c-36 0 -51 7 -51 7l20 94s18 7 54 7c34 0 50 -7 50 -7zM332 101l-20 -94s-19 -7 -53 -7c-36 0 -51 7 -51 7l20 94s18 7 54 7c34 0 50 -7 50 -7zM535 101l-20 -94s-19 -7 -53 -7c-36 0 -51 7 -51 7l20 94s18 7 54 7c34 0 50 -7 50 -7z" />
    <glyph glyph-name="emacron" unicode="&#x113;" 
d="M470 630h-259c-1 20 4 44 13 61h259c2 -17 -2 -43 -13 -61zM440 232h-305c-17 -119 17 -157 106 -157c71 0 124 29 124 29c15 -16 22 -45 17 -74c0 0 -66 -40 -175 -40c-154 0 -204 108 -163 289c41 182 142 257 275 257c119 0 182 -68 154 -201
c-13 -63 -33 -103 -33 -103zM380 348c12 59 -4 109 -78 109c-65 0 -120 -43 -152 -154h217c3 8 8 24 13 45z" />
    <glyph glyph-name="emdash" unicode="&#x2014;" horiz-adv-x="809" 
d="M722 253h-658s-3 14 2 37c4 23 13 37 13 37h658s3 -14 -1 -37c-5 -23 -14 -37 -14 -37z" />
    <glyph glyph-name="endash" unicode="&#x2013;" horiz-adv-x="559" 
d="M472 253h-408s-3 14 2 37c4 23 13 37 13 37h408s3 -14 -1 -37c-5 -23 -14 -37 -14 -37z" />
    <glyph glyph-name="eng" unicode="&#x14b;" horiz-adv-x="551" 
d="M209 473c45 41 92 63 155 63c100 0 151 -68 128 -172l-86 -407c-21 -101 -70 -156 -166 -185c-18 16 -24 43 -17 72c46 16 69 46 83 112l87 411c12 56 -10 88 -74 88c-44 0 -92 -24 -127 -64l-82 -384s-19 -7 -51 -7c-35 0 -49 7 -49 7l109 512s17 7 52 7
c32 0 48 -7 48 -7z" />
    <glyph glyph-name="eogonek" unicode="&#x119;" 
d="M45 283c41 189 140 253 273 253c117 0 183 -68 155 -201c-13 -63 -33 -103 -33 -103h-306c-17 -119 12 -157 106 -157c71 0 124 29 124 29c15 -16 22 -43 17 -72c0 0 -29 -19 -80 -31c-59 -17 -104 -54 -114 -100c-7 -34 16 -37 45 -37c19 0 34 8 34 8c9 -8 11 -26 7 -42
c0 0 -34 -19 -72 -19c-56 0 -95 21 -82 81c8 37 33 74 72 98c-142 7 -183 118 -146 293zM381 348c12 59 -6 109 -80 109c-65 0 -120 -43 -152 -154h219c3 8 8 24 13 45z" />
    <glyph glyph-name="equal" unicode="=" horiz-adv-x="518" 
d="M446 342h-358c-2 26 4 53 16 75h358c3 -22 -4 -51 -16 -75zM407 162h-358c-1 26 5 53 16 75h358c3 -23 -4 -52 -16 -75z" />
    <glyph glyph-name="estimated" unicode="&#x212e;" horiz-adv-x="794" 
d="M549 95h67c-78 -68 -174 -105 -276 -105c-194 0 -319 158 -277 352c41 194 232 352 426 352s319 -158 278 -352l-5 -24h-544l-47 -218c47 -41 109 -67 178 -67c68 0 138 24 200 62zM658 583c-45 42 -108 68 -178 68c-69 0 -142 -26 -206 -67l-47 -222h384z" />
    <glyph glyph-name="eth" unicode="&#xf0;" horiz-adv-x="555" 
d="M501 693l-67 -37c71 -77 99 -195 66 -349c-52 -245 -145 -317 -290 -317c-137 0 -209 84 -168 275c40 191 135 249 262 249c57 0 95 -19 117 -49c-4 57 -23 108 -63 147l-105 -59c-15 15 -24 34 -24 54l76 42c-27 16 -58 29 -95 37c3 25 13 48 34 64
c55 -9 103 -28 144 -55l91 51c13 -12 22 -33 22 -53zM219 67c72 0 129 38 161 185c31 150 -11 185 -84 185s-126 -38 -157 -185c-32 -147 8 -185 80 -185z" />
    <glyph glyph-name="exclam" unicode="!" horiz-adv-x="273" 
d="M75 192l94 521s17 7 55 7c36 0 53 -7 53 -7l-128 -521s-15 -8 -38 -8c-24 0 -36 8 -36 8zM143 101l-20 -94s-18 -7 -52 -7c-36 0 -50 7 -50 7l20 94s17 7 53 7c34 0 49 -7 49 -7z" />
    <glyph glyph-name="exclamdown" unicode="&#xa1;" horiz-adv-x="260" 
d="M122 511c0 0 19 7 53 7c36 0 51 -7 51 -7l-20 -94s-18 -7 -54 -7c-34 0 -50 7 -50 7zM97 326c0 0 15 6 38 6c24 0 36 -6 36 -6l-93 -521s-18 -7 -56 -7c-36 0 -52 7 -52 7z" />
    <glyph glyph-name="f" unicode="f" horiz-adv-x="356" 
d="M165 586c20 97 74 164 201 164c67 0 106 -21 106 -21c-7 -28 -20 -50 -41 -70c0 0 -29 11 -75 11c-57 0 -79 -26 -90 -79l-14 -65h125c0 -11 0 -24 -4 -39c-2 -13 -7 -25 -12 -36h-125l-95 -444s-18 -7 -51 -7c-35 0 -49 7 -49 7l95 444h-66c0 11 0 24 3 38
c3 15 8 27 13 37h66z" />
    <glyph glyph-name="five" unicode="5" horiz-adv-x="525" 
d="M248 592l-41 -192c8 1 28 3 53 3c153 0 216 -77 186 -219c-29 -133 -124 -194 -298 -194c-117 0 -160 33 -160 33c4 27 20 57 41 74c0 0 50 -21 127 -21c105 0 170 34 189 120c19 90 -19 124 -139 124c-44 0 -88 -4 -115 -6l77 366h353c5 -29 -2 -62 -18 -88h-255z" />
    <glyph glyph-name="five.denom" horiz-adv-x="299" 
d="M114 284l-14 -68c96 0 141 -31 124 -111c-16 -75 -68 -110 -164 -110c-60 0 -91 19 -91 19c4 18 13 36 27 48c0 0 30 -11 68 -11c53 0 82 17 90 54c10 44 -15 55 -77 55h-54l39 183h194c2 -19 -3 -41 -13 -59h-129z" />
    <glyph glyph-name="five.num" horiz-adv-x="301" 
d="M189 630l-15 -68c96 0 142 -31 125 -111c-16 -75 -69 -110 -165 -110c-60 0 -91 19 -91 19c4 18 13 36 28 48c0 0 29 -11 67 -11c53 0 83 17 91 54c9 44 -15 55 -77 55h-54l38 183h194c2 -19 -2 -41 -12 -59h-129z" />
    <glyph glyph-name="fiveeighths" unicode="&#x215d;" horiz-adv-x="762" 
d="M616 696c0 0 13 6 39 6c25 0 36 -6 36 -6l-536 -700s-16 -6 -38 -6c-21 0 -36 6 -36 6zM146 689h193c3 -19 -2 -41 -12 -59h-128l-15 -68c96 0 141 -31 124 -111c-16 -75 -69 -110 -164 -110c-61 0 -91 19 -91 19c3 18 13 36 28 48c0 0 29 -11 66 -11c54 0 83 17 91 54
c9 44 -15 55 -76 55h-54zM470 257c11 55 61 91 136 91c70 0 107 -33 95 -87c-8 -38 -34 -64 -62 -82c28 -18 49 -43 40 -86c-14 -63 -68 -98 -148 -98c-76 0 -120 32 -107 94c9 43 41 71 75 89c-24 17 -37 41 -29 79zM638 256c6 27 -9 42 -43 42c-32 0 -54 -15 -59 -38
c-6 -30 26 -44 61 -58c20 12 36 30 41 54zM611 90c8 37 -38 49 -69 65c-7 -3 -44 -25 -52 -61c-7 -32 13 -46 53 -46c34 0 62 14 68 42z" />
    <glyph glyph-name="fiveinferior" unicode="&#x2085;" horiz-adv-x="299" 
d="M94 188l-15 -68c96 0 142 -31 125 -111c-16 -75 -69 -110 -165 -110c-60 0 -90 19 -90 19c3 18 12 36 27 48c0 0 29 -11 67 -11c53 0 83 17 91 54c9 44 -15 55 -77 55h-54l38 183h194c2 -19 -2 -41 -12 -59h-129z" />
    <glyph glyph-name="florin" unicode="&#x192;" horiz-adv-x="464" 
d="M286 398l-119 -383c-30 -97 -83 -155 -194 -155c-62 0 -99 21 -99 21c7 27 19 48 39 66c0 0 28 -11 70 -11c43 0 70 19 88 75l120 387h-81s-3 14 1 36c5 22 14 36 14 36h88l21 66c30 97 82 155 193 155c63 0 99 -21 99 -21c-6 -26 -19 -47 -38 -65c0 0 -29 11 -71 11
c-44 0 -71 -21 -87 -76l-22 -70h86s3 -14 -2 -36c-4 -22 -13 -36 -13 -36h-93z" />
    <glyph glyph-name="four" unicode="4" horiz-adv-x="578" 
d="M26 251l401 422s18 7 52 7c33 0 47 -7 47 -7l-90 -422h89s4 -14 -1 -40c-6 -26 -16 -40 -16 -40h-89l-35 -164s-18 -7 -47 -7c-31 0 -48 7 -48 7l35 164h-315s-5 14 1 40c5 26 16 40 16 40zM403 542l-277 -291h215z" />
    <glyph glyph-name="four.denom" horiz-adv-x="328" 
d="M219 133h38c2 -8 1 -16 -1 -25c-2 -10 -6 -17 -9 -25h-38l-17 -79c-12 -3 -20 -4 -30 -4c-11 0 -20 1 -29 4l17 79h-169c-1 7 -1 15 0 23c2 8 5 15 8 20l209 212c9 3 21 5 33 5c13 0 23 -2 32 -5zM188 262l-127 -129h99z" />
    <glyph glyph-name="four.num" horiz-adv-x="327" 
d="M293 479h38c1 -8 0 -16 -2 -25c-2 -10 -5 -17 -9 -25h-38l-17 -79c-11 -3 -19 -4 -29 -4c-11 0 -20 1 -30 4l17 79h-169c0 7 -1 15 1 23s4 15 7 20l209 212c10 3 21 5 33 5c13 0 24 -2 32 -5zM261 608l-126 -129h99z" />
    <glyph glyph-name="fourinferior" unicode="&#x2084;" horiz-adv-x="328" 
d="M199 37h38c1 -8 0 -16 -1 -25c-3 -10 -6 -17 -10 -25h-38l-17 -79c-11 -3 -19 -4 -29 -4c-11 0 -20 1 -30 4l17 79h-169c0 7 -1 15 1 23s4 15 7 20l209 212c10 3 21 5 33 5c13 0 24 -2 32 -5zM167 166l-126 -129h99z" />
    <glyph glyph-name="fraction" unicode="&#x2044;" horiz-adv-x="136" 
d="M-231 -4l535 700s13 6 40 6c26 0 37 -6 37 -6l-536 -700s-16 -6 -40 -6c-22 0 -36 6 -36 6z" />
    <glyph glyph-name="g" unicode="g" horiz-adv-x="557" 
d="M323 20l7 29c-37 -40 -83 -59 -146 -59c-114 0 -182 82 -139 286s129 260 243 260c66 0 111 -28 130 -68l15 52s14 6 48 6c33 0 47 -7 47 -7l-105 -493c-40 -191 -116 -276 -290 -276c-103 0 -149 36 -149 36c7 26 23 52 43 67c0 0 46 -22 110 -22c94 0 148 28 186 189z
M145 263c-32 -149 -4 -191 76 -191c72 0 124 62 138 123l28 124c14 64 -8 135 -82 135c-80 0 -128 -42 -160 -191z" />
    <glyph glyph-name="g.alt" horiz-adv-x="527" 
d="M120 196c-54 28 -70 94 -54 170c23 109 103 170 231 170c45 0 80 -8 106 -23l145 23c4 -21 -3 -57 -17 -79l-82 4c13 -28 13 -73 4 -115c-24 -112 -104 -170 -233 -170c-16 0 -30 1 -43 3c-14 -15 -28 -36 -31 -58c-16 -105 312 -12 268 -218
c-21 -98 -129 -153 -291 -153c-150 0 -197 68 -180 148c17 76 84 113 115 129c-11 14 -15 39 -10 64c9 44 38 78 72 105zM282 466c-60 0 -108 -35 -124 -110s17 -109 77 -109s108 34 124 109s-17 110 -77 110zM141 -178c103 0 167 36 178 89c17 82 -129 61 -213 89
c-29 -20 -58 -57 -65 -94c-11 -50 18 -84 100 -84z" />
    <glyph glyph-name="gbreve" unicode="&#x11f;" horiz-adv-x="557" 
d="M323 20l7 29c-37 -40 -83 -59 -146 -59c-114 0 -182 82 -139 286s129 260 243 260c66 0 111 -28 130 -68l15 52s14 6 48 6c33 0 47 -7 47 -7l-105 -493c-40 -191 -116 -276 -290 -276c-103 0 -149 36 -149 36c7 26 23 52 43 67c0 0 46 -22 110 -22c94 0 148 28 186 189z
M145 263c-32 -149 -4 -191 76 -191c72 0 124 62 138 123l28 124c14 64 -8 135 -82 135c-80 0 -128 -42 -160 -191zM492 666c0 0 -56 -57 -156 -57s-144 62 -144 62c10 21 31 40 53 47c0 0 33 -32 100 -32s114 32 114 32c20 -6 31 -31 33 -52z" />
    <glyph glyph-name="gbreve.alt" horiz-adv-x="527" 
d="M469 666c0 0 -56 -57 -156 -57s-144 62 -144 62c10 21 31 40 53 47c0 0 33 -32 100 -32s114 32 114 32c20 -6 31 -31 33 -52zM120 196c-54 28 -70 94 -54 170c23 109 103 170 231 170c45 0 80 -8 106 -23l145 23c4 -21 -3 -57 -17 -79l-82 4c13 -28 13 -73 4 -115
c-24 -112 -104 -170 -233 -170c-16 0 -30 1 -43 3c-14 -15 -28 -36 -31 -58c-16 -105 312 -12 268 -218c-21 -98 -129 -153 -291 -153c-150 0 -197 68 -180 148c17 76 84 113 115 129c-11 14 -15 39 -10 64c9 44 38 78 72 105zM282 466c-60 0 -108 -35 -124 -110
s17 -109 77 -109s108 34 124 109s-17 110 -77 110zM141 -178c103 0 167 36 178 89c17 82 -129 61 -213 89c-29 -20 -58 -57 -65 -94c-11 -50 18 -84 100 -84z" />
    <glyph glyph-name="gcircumflex" unicode="&#x11d;" horiz-adv-x="557" 
d="M371 749l124 -113c-14 -20 -30 -38 -53 -45l-93 71l-119 -70c-19 7 -35 28 -40 49l155 108h26zM323 20l7 29c-37 -40 -83 -59 -146 -59c-114 0 -182 82 -139 286s129 260 243 260c66 0 111 -28 130 -68l15 52s14 6 48 6c33 0 47 -7 47 -7l-105 -493
c-40 -191 -116 -276 -290 -276c-103 0 -149 36 -149 36c7 26 23 52 43 67c0 0 46 -22 110 -22c94 0 148 28 186 189zM145 263c-32 -149 -4 -191 76 -191c72 0 124 62 138 123l28 124c14 64 -8 135 -82 135c-80 0 -128 -42 -160 -191z" />
    <glyph glyph-name="gcircumflex.alt" horiz-adv-x="527" 
d="M340 746l124 -113c-14 -20 -30 -38 -53 -45l-93 71l-119 -70c-19 7 -35 28 -40 49l155 108h26zM120 196c-54 28 -70 94 -54 170c23 109 103 170 231 170c45 0 80 -8 106 -23l145 23c4 -21 -3 -57 -17 -79l-82 4c13 -28 13 -73 4 -115c-24 -112 -104 -170 -233 -170
c-16 0 -30 1 -43 3c-14 -15 -28 -36 -31 -58c-16 -105 312 -12 268 -218c-21 -98 -129 -153 -291 -153c-150 0 -197 68 -180 148c17 76 84 113 115 129c-11 14 -15 39 -10 64c9 44 38 78 72 105zM282 466c-60 0 -108 -35 -124 -110s17 -109 77 -109s108 34 124 109
s-17 110 -77 110zM141 -178c103 0 167 36 178 89c17 82 -129 61 -213 89c-29 -20 -58 -57 -65 -94c-11 -50 18 -84 100 -84z" />
    <glyph glyph-name="gcommaaccent" unicode="&#x123;" horiz-adv-x="557" 
d="M390 808l32 -22s-41 -31 -57 -88c24 -2 33 -6 33 -6l-18 -84s-19 -5 -54 -5c-34 0 -52 5 -52 5l12 56c20 95 104 144 104 144zM323 20l7 29c-37 -40 -83 -59 -146 -59c-114 0 -182 82 -139 286s129 260 243 260c66 0 111 -28 130 -68l15 52s14 6 48 6c33 0 47 -7 47 -7
l-105 -493c-40 -191 -116 -276 -290 -276c-103 0 -149 36 -149 36c7 26 23 52 43 67c0 0 46 -22 110 -22c94 0 148 28 186 189zM145 263c-32 -149 -4 -191 76 -191c72 0 124 62 138 123l28 124c14 64 -8 135 -82 135c-80 0 -128 -42 -160 -191z" />
    <glyph glyph-name="gcommaaccent.alt" horiz-adv-x="528" 
d="M375 808l31 -23s-39 -31 -55 -90c21 -1 30 -6 30 -6l-17 -83s-20 -6 -53 -6c-34 0 -50 6 -50 6l11 55c21 97 103 147 103 147zM120 196c-54 28 -70 94 -54 170c23 109 103 170 231 170c45 0 80 -8 106 -23l145 23c4 -21 -3 -57 -17 -79l-82 4c13 -28 13 -73 4 -115
c-24 -112 -104 -170 -233 -170c-16 0 -30 1 -43 3c-14 -15 -28 -36 -31 -58c-16 -105 312 -12 268 -218c-21 -98 -129 -153 -291 -153c-150 0 -197 68 -180 148c17 76 84 113 115 129c-11 14 -15 39 -10 64c9 44 38 78 72 105zM282 466c-60 0 -108 -35 -124 -110
s17 -109 77 -109s108 34 124 109s-17 110 -77 110zM141 -178c103 0 167 36 178 89c17 82 -129 61 -213 89c-29 -20 -58 -57 -65 -94c-11 -50 18 -84 100 -84z" />
    <glyph glyph-name="gdotaccent" unicode="&#x121;" horiz-adv-x="557" 
d="M394 708l-18 -85s-18 -6 -49 -6c-33 0 -47 6 -47 6l18 85s17 6 50 6c31 0 46 -6 46 -6zM323 20l7 29c-37 -40 -83 -59 -146 -59c-114 0 -182 82 -139 286s129 260 243 260c66 0 111 -28 130 -68l15 52s14 6 48 6c33 0 47 -7 47 -7l-105 -493
c-40 -191 -116 -276 -290 -276c-103 0 -149 36 -149 36c7 26 23 52 43 67c0 0 46 -22 110 -22c94 0 148 28 186 189zM145 263c-32 -149 -4 -191 76 -191c72 0 124 62 138 123l28 124c14 64 -8 135 -82 135c-80 0 -128 -42 -160 -191z" />
    <glyph glyph-name="gdotaccent.alt" horiz-adv-x="528" 
d="M385 710l-18 -85s-18 -6 -49 -6c-33 0 -46 6 -46 6l18 85s15 6 48 6c31 0 47 -6 47 -6zM120 196c-54 28 -70 94 -54 170c23 109 103 170 231 170c45 0 80 -8 106 -23l145 23c4 -21 -3 -57 -17 -79l-82 4c13 -28 13 -73 4 -115c-24 -112 -104 -170 -233 -170
c-16 0 -30 1 -43 3c-14 -15 -28 -36 -31 -58c-16 -105 312 -12 268 -218c-21 -98 -129 -153 -291 -153c-150 0 -197 68 -180 148c17 76 84 113 115 129c-11 14 -15 39 -10 64c9 44 38 78 72 105zM282 466c-60 0 -108 -35 -124 -110s17 -109 77 -109s108 34 124 109
s-17 110 -77 110zM141 -178c103 0 167 36 178 89c17 82 -129 61 -213 89c-29 -20 -58 -57 -65 -94c-11 -50 18 -84 100 -84z" />
    <glyph glyph-name="germandbls" unicode="&#xdf;" horiz-adv-x="573" 
d="M11 7l117 549c28 133 110 194 245 194c134 0 188 -83 167 -174c-8 -39 -26 -72 -41 -94c0 0 -98 -10 -114 -88c-22 -101 151 -105 117 -265c-22 -101 -98 -139 -200 -139c-69 0 -107 19 -107 19c3 27 15 50 36 69c16 -6 46 -11 72 -11c54 0 95 24 105 71
c22 102 -147 116 -116 258c22 107 126 122 126 122c7 12 17 33 22 56c10 52 -10 96 -76 96c-78 0 -120 -38 -136 -114l-117 -549s-18 -7 -51 -7c-35 0 -49 7 -49 7z" />
    <glyph glyph-name="grave" unicode="`" horiz-adv-x="238" 
d="M137 637l-96 135c19 23 57 42 88 38l70 -142c-16 -17 -37 -27 -62 -31z" />
    <glyph glyph-name="greater" unicode="&#x3e;" horiz-adv-x="448" 
d="M384 250l-351 -144s-3 14 3 38c5 26 14 38 14 38l260 106l-215 109s-3 14 3 39c5 25 13 37 13 37l290 -144s3 -15 -2 -38c-5 -24 -15 -41 -15 -41z" />
    <glyph glyph-name="greaterequal" unicode="&#x2265;" horiz-adv-x="463" 
d="M395 330l-334 -114s-3 14 2 38c5 26 14 38 14 38l234 76l-201 79s-3 14 2 39c6 25 14 37 14 37l286 -114s3 -15 -2 -38c-5 -24 -15 -41 -15 -41zM345 95h-310s-3 14 2 37s14 37 14 37h310s3 -14 -2 -37s-14 -37 -14 -37z" />
    <glyph glyph-name="guillemotleft" unicode="&#xab;" horiz-adv-x="520" 
d="M54 311l245 198c14 -13 21 -37 21 -59l-195 -181l118 -180c-9 -22 -26 -46 -46 -59l-161 196s-4 15 1 40c6 28 17 45 17 45zM247 309l229 185c14 -12 20 -35 20 -56l-181 -169l109 -168c-9 -21 -24 -44 -43 -56l-152 183s-4 14 1 38c6 27 17 43 17 43z" />
    <glyph glyph-name="guillemotright" unicode="&#xbb;" horiz-adv-x="519" 
d="M307 509l160 -198s4 -17 -2 -45c-5 -25 -16 -40 -16 -40l-244 -196c-15 13 -21 37 -21 59l194 180l-117 181c9 22 25 46 46 59zM123 494l151 -185s3 -16 -3 -43c-5 -24 -15 -38 -15 -38l-228 -183c-14 12 -20 35 -20 56l181 168l-109 169c9 21 24 44 43 56z" />
    <glyph glyph-name="guilsinglleft" unicode="&#x2039;" horiz-adv-x="339" 
d="M54 311l245 198c14 -13 21 -37 21 -59l-195 -181l118 -180c-9 -22 -26 -46 -46 -59l-161 196s-4 15 1 40c6 28 17 45 17 45z" />
    <glyph glyph-name="guilsinglright" unicode="&#x203a;" horiz-adv-x="339" 
d="M126 509l158 -207s3 -17 -3 -45c-5 -25 -15 -40 -15 -40l-242 -187c-14 13 -21 37 -20 59l194 180l-117 181c8 22 25 46 45 59z" />
    <glyph glyph-name="h" unicode="h" horiz-adv-x="551" 
d="M494 369l-78 -362s-18 -7 -51 -7c-34 0 -49 7 -49 7l77 360c12 56 -10 88 -74 88c-44 0 -92 -24 -127 -64l-82 -384s-19 -7 -51 -7c-35 0 -49 7 -49 7l157 736s16 7 51 7c32 0 49 -7 49 -7l-57 -264c45 41 92 57 155 57c100 0 151 -65 129 -167z" />
    <glyph glyph-name="hbar" unicode="&#x127;" horiz-adv-x="551" 
d="M210 479c45 41 92 57 155 57c100 0 151 -65 129 -167l-78 -362s-18 -7 -51 -7c-34 0 -49 7 -49 7l77 360c12 56 -10 88 -74 88c-44 0 -92 -24 -127 -64l-82 -384s-19 -7 -51 -7c-35 0 -49 7 -49 7l129 605h-68c-2 20 2 44 13 63h68l15 68s16 7 51 7c32 0 49 -7 49 -7
l-15 -68h132c2 -19 -2 -41 -13 -63h-132z" />
    <glyph glyph-name="hcircumflex" unicode="&#x125;" horiz-adv-x="551" 
d="M264 918l115 -110c-14 -19 -33 -36 -54 -42l-87 68l-113 -68c-19 6 -31 23 -36 42l150 110h25zM494 369l-78 -362s-18 -7 -51 -7c-34 0 -49 7 -49 7l77 360c12 56 -10 88 -74 88c-44 0 -92 -24 -127 -64l-82 -384s-19 -7 -51 -7c-35 0 -49 7 -49 7l157 736s16 7 51 7
c32 0 49 -7 49 -7l-57 -264c45 41 92 57 155 57c100 0 151 -65 129 -167z" />
    <glyph glyph-name="hungarumlaut" unicode="&#x2dd;" horiz-adv-x="386" 
d="M192 760l-140 -123c-23 4 -42 14 -50 31l109 129c34 4 70 -14 81 -37zM356 760l-140 -123c-23 4 -42 14 -50 31l109 129c35 4 71 -14 81 -37z" />
    <glyph glyph-name="hyphen" unicode="-" horiz-adv-x="359" 
d="M272 253h-208s-3 14 2 37c4 23 13 37 13 37h208s3 -14 -1 -37c-5 -23 -14 -37 -14 -37z" />
    <glyph glyph-name="i" unicode="i" horiz-adv-x="252" 
d="M266 721l-20 -94s-19 -7 -53 -7c-36 0 -51 7 -51 7l20 94s18 7 54 7c34 0 50 -7 50 -7zM221 519l-109 -512s-18 -7 -51 -7c-35 0 -49 7 -49 7l109 512s17 7 52 7c33 0 48 -7 48 -7z" />
    <glyph glyph-name="iacute" unicode="&#xed;" horiz-adv-x="252" 
d="M329 739l-154 -135c-23 4 -42 14 -50 31l125 141c33 4 69 -14 79 -37zM221 519l-109 -512s-18 -7 -51 -7c-35 0 -49 7 -49 7l109 512s17 7 52 7c33 0 48 -7 48 -7z" />
    <glyph glyph-name="ibreve" unicode="&#x12d;" horiz-adv-x="252" 
d="M353 675c0 0 -54 -62 -154 -62s-146 62 -146 62c11 21 32 40 53 47c0 0 34 -32 101 -32s113 32 113 32c20 -6 32 -26 33 -47zM221 519l-109 -512s-18 -7 -51 -7c-35 0 -49 7 -49 7l109 512s17 7 52 7c33 0 48 -7 48 -7z" />
    <glyph glyph-name="icircumflex" unicode="&#xee;" horiz-adv-x="252" 
d="M235 756l112 -110c-14 -20 -33 -37 -55 -44l-87 69l-117 -68c-19 7 -30 23 -36 43l158 110h25zM221 519l-109 -512s-18 -7 -51 -7c-35 0 -49 7 -49 7l109 512s17 7 52 7c33 0 48 -7 48 -7z" />
    <glyph glyph-name="idieresis" unicode="&#xef;" horiz-adv-x="252" 
d="M168 703l-17 -82s-17 -5 -46 -5c-31 0 -45 5 -45 5l17 82s17 6 48 6c29 0 43 -6 43 -6zM338 703l-17 -82s-17 -5 -47 -5c-31 0 -44 5 -44 5l17 82s16 6 47 6c30 0 44 -6 44 -6zM221 519l-109 -512s-18 -7 -51 -7c-35 0 -49 7 -49 7l109 512s17 7 52 7c33 0 48 -7 48 -7z
" />
    <glyph glyph-name="igrave" unicode="&#xec;" horiz-adv-x="252" 
d="M196 606l-97 135c19 23 64 41 95 37l65 -141c-15 -17 -38 -27 -63 -31zM221 519l-109 -512s-18 -7 -51 -7c-35 0 -49 7 -49 7l109 512s17 7 52 7c33 0 48 -7 48 -7z" />
    <glyph glyph-name="ij" unicode="&#x133;" horiz-adv-x="488" 
d="M266 721l-20 -94s-19 -7 -53 -7c-36 0 -51 7 -51 7l20 94s18 7 54 7c34 0 50 -7 50 -7zM221 519l-109 -512s-18 -7 -51 -7c-35 0 -49 7 -49 7l109 512s17 7 52 7c33 0 48 -7 48 -7zM502 722l-20 -94s-19 -7 -53 -7c-36 0 -51 7 -51 7l20 94s18 7 54 7c34 0 50 -7 50 -7z
M227 -92l130 611s17 7 52 7c33 0 48 -7 48 -7l-129 -607c-22 -106 -85 -162 -179 -162c-42 0 -65 9 -65 9s-1 10 2 23c7 35 20 51 20 51s16 -4 37 -4c45 0 73 24 84 79z" />
    <glyph glyph-name="imacron" unicode="&#x12b;" horiz-adv-x="252" 
d="M295 638h-194c0 20 4 41 12 58h194c0 -17 -4 -39 -12 -58zM221 519l-109 -512s-18 -7 -51 -7c-35 0 -49 7 -49 7l109 512s17 7 52 7c33 0 48 -7 48 -7z" />
    <glyph glyph-name="infinity" unicode="&#x221e;" horiz-adv-x="810" 
d="M546 155c-115 0 -150 110 -150 110s-81 -110 -196 -110c-119 0 -160 85 -142 170s95 170 214 170c115 0 150 -111 150 -111s84 111 196 111c119 0 160 -85 142 -170s-95 -170 -214 -170zM215 231c83 0 144 94 144 94s-21 94 -104 94c-71 0 -110 -50 -119 -94
s8 -94 79 -94zM603 419c-83 0 -144 -94 -144 -94s21 -94 104 -94c71 0 110 50 119 94s-8 94 -79 94z" />
    <glyph glyph-name="integral" unicode="&#x222b;" horiz-adv-x="497" 
d="M136 -15l119 559c23 109 90 176 196 176c62 0 107 -36 115 -41c-9 -26 -26 -47 -47 -61c-24 20 -58 33 -93 29c-41 -4 -78 -33 -92 -102l-119 -560c-25 -115 -89 -177 -192 -177c-59 0 -98 36 -108 42c9 25 24 46 47 60c23 -19 54 -34 86 -30c37 4 72 31 88 105z" />
    <glyph glyph-name="iogonek" unicode="&#x12f;" horiz-adv-x="252" 
d="M159 707c0 0 18 7 54 7c34 0 50 -7 50 -7l-20 -94s-19 -7 -53 -7c-36 0 -51 7 -51 7zM121 519c0 0 17 7 52 7c33 0 48 -7 48 -7l-109 -512c-64 -20 -101 -58 -110 -101c-7 -33 16 -41 45 -41c19 0 34 7 34 7c9 -9 9 -30 5 -46c0 0 -33 -18 -71 -18c-56 0 -103 29 -90 89
c9 41 41 82 87 106z" />
    <glyph glyph-name="itilde" unicode="&#x129;" horiz-adv-x="252" 
d="M253 677c25 0 44 27 44 27c13 -8 22 -26 21 -44c-3 -4 -27 -47 -75 -47c-45 0 -60 31 -93 31c-25 0 -43 -25 -43 -25c-15 10 -23 24 -21 44c2 3 26 46 74 46c46 0 60 -32 93 -32zM221 519l-109 -512s-18 -7 -51 -7c-35 0 -49 7 -49 7l109 512s17 7 52 7c33 0 48 -7 48 -7
z" />
    <glyph glyph-name="j" unicode="j" horiz-adv-x="253" 
d="M267 722l-20 -94s-19 -7 -53 -7c-36 0 -51 7 -51 7l20 94s18 7 54 7c34 0 50 -7 50 -7zM-8 -92l130 611s17 7 52 7c33 0 48 -7 48 -7l-129 -607c-22 -106 -85 -162 -179 -162c-42 0 -65 9 -65 9s-1 10 2 23c7 35 20 51 20 51s16 -4 37 -4c45 0 73 24 84 79z" />
    <glyph glyph-name="jcircumflex" unicode="&#x135;" horiz-adv-x="253" 
d="M232 737l111 -110c-14 -20 -33 -37 -54 -44l-88 70l-117 -69c-18 7 -31 23 -36 43l158 110h26zM-8 -92l130 611s17 7 52 7c33 0 48 -7 48 -7l-129 -607c-22 -106 -85 -162 -179 -162c-42 0 -65 9 -65 9s-1 10 2 23c7 35 20 51 20 51s16 -4 37 -4c45 0 73 24 84 79z" />
    <glyph glyph-name="k" unicode="k" horiz-adv-x="502" 
d="M234 312l175 207s26 7 57 7c28 0 47 -6 47 -6l-206 -250l120 -263s-23 -8 -57 -8s-45 8 -45 8l-103 230h-62l-49 -230s-21 -7 -50 -7c-32 0 -50 7 -50 7l157 738s21 5 52 5c27 0 48 -5 48 -5l-92 -433h58z" />
    <glyph glyph-name="kcommaaccent" unicode="&#x137;" horiz-adv-x="502" 
d="M135 -273l-31 25s41 35 59 100c-23 2 -32 7 -32 7l20 94s19 7 53 7s51 -7 51 -7l-13 -63c-23 -108 -107 -163 -107 -163zM234 312l175 207s26 7 57 7c28 0 47 -6 47 -6l-206 -250l120 -263s-23 -8 -57 -8s-45 8 -45 8l-103 230h-62l-49 -230s-21 -7 -50 -7
c-32 0 -50 7 -50 7l157 738s21 5 52 5c27 0 48 -5 48 -5l-92 -433h58z" />
    <glyph glyph-name="kgreenlandic" unicode="&#x138;" horiz-adv-x="513" 
d="M525 519l-220 -209l135 -299s-23 -11 -61 -11c-37 0 -52 8 -52 8l-98 230l-87 -83l-32 -148c-16 -5 -33 -7 -50 -7c-19 0 -37 2 -50 7l110 514c15 3 34 5 52 5s35 -2 48 -5l-48 -225l235 225c16 3 41 6 60 6c18 0 41 -3 58 -8z" />
    <glyph glyph-name="l" unicode="l" horiz-adv-x="255" 
d="M271 743l-157 -736s-18 -7 -51 -7c-35 0 -49 7 -49 7l157 736s16 7 51 7c33 0 49 -7 49 -7z" />
    <glyph glyph-name="lacute" unicode="&#x13a;" horiz-adv-x="255" 
d="M366 909l-154 -135c-23 4 -42 14 -50 31l125 141c33 4 69 -14 79 -37zM271 743l-157 -736s-18 -7 -51 -7c-35 0 -49 7 -49 7l157 736s16 7 51 7c33 0 49 -7 49 -7z" />
    <glyph glyph-name="lcaron" unicode="&#x13e;" horiz-adv-x="266" 
d="M324 579c-19 2 -33 10 -39 24c49 45 69 82 78 144c34 7 64 4 81 -11c-18 -66 -64 -131 -120 -157zM271 743l-157 -736s-18 -7 -51 -7c-35 0 -49 7 -49 7l157 736s16 7 51 7c33 0 49 -7 49 -7z" />
    <glyph glyph-name="lcommaaccent" unicode="&#x13c;" horiz-adv-x="255" 
d="M271 743l-157 -736s-18 -7 -51 -7c-35 0 -49 7 -49 7l157 736s16 7 51 7c33 0 49 -7 49 -7zM-14 -272l-31 25s41 35 59 99c-23 2 -32 7 -32 7l20 94s19 7 53 7s51 -7 51 -7l-13 -62c-23 -108 -107 -163 -107 -163z" />
    <glyph glyph-name="ldot" unicode="&#x140;" horiz-adv-x="363" 
d="M271 743l-157 -736s-18 -7 -51 -7c-35 0 -49 7 -49 7l157 736s16 7 51 7c33 0 49 -7 49 -7zM375 375l-18 -81s-17 -7 -46 -7c-32 0 -45 7 -45 7l18 81s15 7 47 7c29 0 44 -7 44 -7z" />
    <glyph glyph-name="less" unicode="&#x3c;" horiz-adv-x="447" 
d="M330 106l-289 144s-2 17 3 41c5 23 14 38 14 38l350 144s4 -12 -1 -37c-6 -25 -15 -39 -15 -39l-261 -109l216 -106s3 -12 -2 -38c-6 -24 -15 -38 -15 -38z" />
    <glyph glyph-name="lessequal" unicode="&#x2264;" horiz-adv-x="464" 
d="M366 216l-286 114s-2 17 3 41c5 23 14 38 14 38l334 114s4 -12 -2 -37c-5 -25 -14 -39 -14 -39l-235 -79l202 -76s3 -12 -2 -38c-5 -24 -14 -38 -14 -38zM340 95h-310s-3 14 2 37s14 37 14 37h310s3 -14 -2 -37s-14 -37 -14 -37z" />
    <glyph glyph-name="logicalnot" unicode="&#xac;" horiz-adv-x="602" 
d="M554 439l-56 -264s-17 -9 -44 -9s-41 9 -41 9l38 179h-383s-5 18 0 42c6 26 18 43 18 43h468z" />
    <glyph glyph-name="longs" unicode="&#x17f;" horiz-adv-x="299" 
d="M266 591l-125 -584s-18 -7 -51 -7c-35 0 -49 7 -49 7l95 444h-68c0 26 6 52 16 75h68l13 60c20 97 74 164 201 164c67 0 106 -21 106 -21c-7 -28 -20 -50 -41 -70c0 0 -29 11 -75 11c-57 0 -79 -26 -90 -79z" />
    <glyph glyph-name="lozenge" unicode="&#x25ca;" horiz-adv-x="558" 
d="M192 7l-140 345l287 344h43l144 -344l-291 -345h-43zM433 351l-94 237l-192 -237l91 -237z" />
    <glyph glyph-name="lslash" unicode="&#x142;" horiz-adv-x="344" 
d="M214 743c0 0 16 7 51 7c33 0 49 -7 49 -7l-59 -275l79 40c1 0 7 -7 15 -23c6 -19 5 -30 4 -31l-113 -59l-83 -388s-18 -7 -51 -7c-35 0 -49 7 -49 7l71 330l-75 -38c-1 0 -8 7 -15 23c-7 19 -5 29 -5 31l110 56z" />
    <glyph glyph-name="m" unicode="m" horiz-adv-x="830" 
d="M480 463c52 49 101 73 170 73c100 0 144 -71 123 -168l-77 -361s-18 -7 -51 -7c-35 0 -49 7 -49 7l77 360c12 56 -7 88 -68 88c-41 0 -86 -22 -121 -64l-82 -384s-18 -7 -50 -7c-35 0 -49 7 -49 7l77 360c12 56 -7 88 -68 88c-41 0 -86 -24 -121 -63l-82 -385
s-18 -7 -50 -7c-35 0 -49 7 -49 7l109 512s17 7 52 7c32 0 47 -7 47 -7l-9 -45c43 40 89 62 147 62s108 -21 124 -73z" />
    <glyph glyph-name="macron" unicode="&#xaf;" horiz-adv-x="407" 
d="M333 630h-311c-3 20 2 43 13 61h311c4 -18 -2 -42 -13 -61z" />
    <glyph glyph-name="minus" unicode="&#x2212;" horiz-adv-x="470" 
d="M385 292h-308s-3 14 2 38s14 38 14 38h308s3 -14 -2 -38s-14 -38 -14 -38z" />
    <glyph glyph-name="mu" unicode="&#xb5;" horiz-adv-x="585" 
d="M440 519c0 0 19 7 52 7c35 0 48 -7 48 -7l-109 -512s-16 -7 -51 -7c-33 0 -49 7 -49 7l9 38c-39 -36 -87 -55 -138 -55c-48 0 -74 17 -89 35c-25 -171 -13 -253 -13 -253c-31 -22 -83 -27 -112 -17c0 0 -3 64 33 231l113 533s19 7 52 7c35 0 48 -7 48 -7l-76 -361
c-11 -50 5 -87 75 -87c47 0 94 29 126 64z" />
    <glyph glyph-name="multiply" unicode="&#xd7;" horiz-adv-x="469" 
d="M220 235l-142 -117s-14 6 -26 23c-14 16 -16 31 -16 31l141 117l-92 117s9 15 30 31c19 17 36 23 36 23l92 -117l142 117s13 -6 26 -23c13 -16 16 -31 16 -31l-142 -117l93 -117s-10 -15 -30 -31c-20 -17 -36 -23 -36 -23z" />
    <glyph glyph-name="n" unicode="n" horiz-adv-x="551" 
d="M493 364l-77 -357s-18 -7 -51 -7c-34 0 -49 7 -49 7l77 360c12 56 -10 88 -74 88c-44 0 -92 -24 -127 -64l-82 -384s-19 -7 -51 -7c-35 0 -49 7 -49 7l109 512s17 7 52 7c32 0 48 -7 48 -7l-10 -46c45 41 95 63 155 63c100 0 153 -58 129 -172z" />
    <glyph glyph-name="nacute" unicode="&#x144;" horiz-adv-x="551" 
d="M462 739l-154 -135c-23 4 -42 14 -50 31l125 141c33 4 69 -14 79 -37zM493 364l-77 -357s-18 -7 -51 -7c-34 0 -49 7 -49 7l77 360c12 56 -10 88 -74 88c-44 0 -92 -24 -127 -64l-82 -384s-19 -7 -51 -7c-35 0 -49 7 -49 7l109 512s17 7 52 7c32 0 48 -7 48 -7l-10 -46
c45 41 95 63 155 63c100 0 153 -58 129 -172z" />
    <glyph glyph-name="napostrophe" unicode="&#x149;" horiz-adv-x="551" 
d="M174 582c-18 4 -31 14 -35 28c51 41 75 77 90 139c35 3 63 -3 79 -20c-25 -65 -78 -126 -134 -147zM493 364l-77 -357s-18 -7 -51 -7c-34 0 -49 7 -49 7l77 360c12 56 -10 88 -74 88c-44 0 -92 -24 -127 -64l-82 -384s-19 -7 -51 -7c-35 0 -49 7 -49 7l109 512s17 7 52 7
c32 0 48 -7 48 -7l-10 -46c45 41 95 63 155 63c100 0 153 -58 129 -172z" />
    <glyph glyph-name="ncaron" unicode="&#x148;" horiz-adv-x="551" 
d="M344 677l108 64c18 -5 28 -22 34 -40l-139 -103h-23l-113 103c12 19 30 35 50 41zM493 364l-77 -357s-18 -7 -51 -7c-34 0 -49 7 -49 7l77 360c12 56 -10 88 -74 88c-44 0 -92 -24 -127 -64l-82 -384s-19 -7 -51 -7c-35 0 -49 7 -49 7l109 512s17 7 52 7
c32 0 48 -7 48 -7l-10 -46c45 41 95 63 155 63c100 0 153 -58 129 -172z" />
    <glyph glyph-name="ncommaaccent" unicode="&#x146;" horiz-adv-x="551" 
d="M150 -269l-31 24s40 36 57 100c-21 2 -31 7 -31 7l20 94s19 7 53 7s51 -7 51 -7l-14 -63c-23 -108 -105 -162 -105 -162zM493 364l-77 -357s-18 -7 -51 -7c-34 0 -49 7 -49 7l77 360c12 56 -10 88 -74 88c-44 0 -92 -24 -127 -64l-82 -384s-19 -7 -51 -7
c-35 0 -49 7 -49 7l109 512s17 7 52 7c32 0 48 -7 48 -7l-10 -46c45 41 95 63 155 63c100 0 153 -58 129 -172z" />
    <glyph glyph-name="nine" unicode="9" horiz-adv-x="552" 
d="M52 0c-5 28 1 55 16 80c146 15 245 73 305 208c-32 -11 -62 -24 -114 -24c-115 0 -207 71 -175 224c31 145 128 202 264 202c132 0 211 -80 171 -267c-60 -280 -228 -408 -467 -423zM185 477c-20 -98 22 -134 92 -134c51 0 101 18 127 28c5 18 9 36 14 56
c28 133 -14 186 -83 186c-72 0 -130 -43 -150 -136z" />
    <glyph glyph-name="nine.denom" horiz-adv-x="311" 
d="M15 238c15 74 74 110 145 110c77 0 115 -45 95 -141c-27 -128 -114 -199 -252 -210c-6 14 -1 38 12 54c60 4 116 29 147 88c-13 -4 -32 -9 -57 -9c-63 0 -106 34 -90 108zM183 195c13 65 5 100 -34 100c-33 0 -58 -20 -65 -57c-8 -36 8 -55 41 -55c27 0 45 7 58 12z" />
    <glyph glyph-name="nine.num" horiz-adv-x="311" 
d="M88 584c16 74 74 110 145 110c77 0 116 -45 96 -141c-28 -128 -115 -199 -252 -210c-6 14 -1 38 11 54c60 4 117 29 147 88c-13 -4 -32 -9 -57 -9c-63 0 -106 34 -90 108zM257 541c13 65 4 100 -35 100c-33 0 -57 -20 -65 -57c-8 -36 8 -55 41 -55c27 0 46 7 59 12z" />
    <glyph glyph-name="nineinferior" unicode="&#x2089;" horiz-adv-x="311" 
d="M-6 142c16 74 75 110 146 110c77 0 115 -45 95 -141c-28 -128 -115 -199 -252 -210c-6 14 -1 38 11 54c60 5 117 30 147 88c-13 -4 -32 -9 -57 -9c-63 0 -106 34 -90 108zM163 99c13 65 4 100 -35 100c-33 0 -57 -20 -65 -57c-8 -36 8 -55 41 -55c27 0 46 7 59 12z" />
    <glyph glyph-name="notequal" unicode="&#x2260;" horiz-adv-x="493" 
d="M174 162l-67 -88c-10 -4 -24 -6 -38 -6c-12 0 -22 3 -30 6l67 88h-70c0 11 -1 23 2 37c3 15 8 28 14 38h111l81 105h-169c-2 12 -1 25 2 40c3 14 9 26 14 35h211l61 80c10 3 24 6 36 6c13 0 24 -3 33 -6l-62 -80h79c2 -9 1 -22 -2 -35c-3 -16 -8 -29 -14 -40h-120
l-81 -105h178c2 -10 2 -22 -1 -36c-4 -15 -8 -28 -15 -39h-220z" />
    <glyph glyph-name="ntilde" unicode="&#xf1;" horiz-adv-x="551" 
d="M205 667c0 0 30 49 91 49c57 0 74 -33 115 -33c31 0 53 28 53 28c17 -8 28 -27 28 -46c0 0 -31 -49 -92 -49c-57 0 -74 33 -115 33c-31 0 -53 -28 -53 -28c-19 11 -29 26 -27 46zM493 364l-77 -357s-18 -7 -51 -7c-34 0 -49 7 -49 7l77 360c12 56 -10 88 -74 88
c-44 0 -92 -24 -127 -64l-82 -384s-19 -7 -51 -7c-35 0 -49 7 -49 7l109 512s17 7 52 7c32 0 48 -7 48 -7l-10 -46c45 41 95 63 155 63c100 0 153 -58 129 -172z" />
    <glyph glyph-name="_300" horiz-adv-x="0" 
 />
    <glyph glyph-name="numbersign" unicode="#" horiz-adv-x="662" 
d="M555 616c15 5 30 7 45 7s30 -2 42 -7l-63 -125h78c3 -11 2 -24 -1 -37c-3 -14 -8 -30 -16 -43h-100l-103 -209h76c1 -1 3 -16 -2 -40c-4 -22 -14 -38 -15 -40h-98l-56 -114c-13 -5 -29 -8 -45 -8c-17 0 -31 3 -42 8l56 114h-138l-56 -114c-13 -5 -30 -8 -47 -8
c-16 0 -29 3 -39 8l56 114h-83c0 1 -3 16 2 40c6 26 15 39 15 40h105l103 209h-80c-2 13 0 27 3 41s7 28 14 39h102l63 125c14 5 29 7 43 7c16 0 31 -2 43 -7l-62 -125h138zM316 411l-103 -209h138l102 209h-137z" />
    <glyph glyph-name="o" unicode="o" horiz-adv-x="540" 
d="M44 275c42 198 135 261 272 261c138 0 205 -83 163 -281s-133 -265 -270 -265s-207 87 -165 285zM381 263c33 154 -4 195 -77 195s-129 -41 -162 -195s5 -195 78 -195s128 41 161 195z" />
    <glyph glyph-name="oacute" unicode="&#xf3;" horiz-adv-x="540" 
d="M252 635l125 141c33 4 69 -14 79 -37l-154 -135c-23 4 -42 14 -50 31zM44 275c42 198 135 261 272 261c138 0 205 -83 163 -281s-133 -265 -270 -265s-207 87 -165 285zM381 263c33 154 -4 195 -77 195s-129 -41 -162 -195s5 -195 78 -195s128 41 161 195z" />
    <glyph glyph-name="obreve" unicode="&#x14f;" horiz-adv-x="540" 
d="M342 692c67 0 114 32 114 32c19 -7 31 -26 33 -47c0 0 -57 -62 -157 -62s-143 62 -143 62c10 21 31 40 53 47c0 0 33 -32 100 -32zM44 275c42 198 135 261 272 261c138 0 205 -83 163 -281s-133 -265 -270 -265s-207 87 -165 285zM381 263c33 154 -4 195 -77 195
s-129 -41 -162 -195s5 -195 78 -195s128 41 161 195z" />
    <glyph glyph-name="ocircumflex" unicode="&#xf4;" horiz-adv-x="540" 
d="M372 754l114 -108c-14 -20 -33 -37 -54 -44l-88 69l-117 -68c-18 7 -30 23 -36 43l156 108h25zM44 275c42 198 135 261 272 261c138 0 205 -83 163 -281s-133 -265 -270 -265s-207 87 -165 285zM381 263c33 154 -4 195 -77 195s-129 -41 -162 -195s5 -195 78 -195
s128 41 161 195z" />
    <glyph glyph-name="odieresis" unicode="&#xf6;" horiz-adv-x="540" 
d="M220 705c0 0 16 6 47 6c29 0 44 -6 44 -6l-18 -82s-17 -5 -46 -5c-31 0 -45 5 -45 5zM390 705c0 0 15 6 46 6c30 0 45 -6 45 -6l-18 -82s-17 -5 -47 -5c-31 0 -44 5 -44 5zM44 275c42 198 135 261 272 261c138 0 205 -83 163 -281s-133 -265 -270 -265s-207 87 -165 285z
M381 263c33 154 -4 195 -77 195s-129 -41 -162 -195s5 -195 78 -195s128 41 161 195z" />
    <glyph glyph-name="oe" unicode="&#x153;" horiz-adv-x="809" 
d="M737 232h-288c-16 -119 9 -161 93 -161c69 0 123 27 123 27c15 -14 19 -40 16 -66c0 0 -62 -42 -172 -42c-71 0 -116 29 -134 85c-45 -56 -105 -85 -175 -85c-136 0 -200 83 -158 281s138 265 274 265c70 0 117 -26 135 -88c46 61 105 88 170 88c121 0 177 -68 149 -201
c-13 -63 -33 -103 -33 -103zM300 459c-72 0 -127 -42 -160 -196s4 -196 76 -196s117 42 150 197c33 154 6 195 -66 195zM679 348c12 59 -2 109 -75 109c-62 0 -107 -43 -139 -154h201c3 8 8 24 13 45z" />
    <glyph glyph-name="ogonek" unicode="&#x2db;" horiz-adv-x="283" 
d="M-19 -165c9 -9 11 -23 7 -39c0 0 -33 -18 -71 -18c-56 0 -92 28 -79 87c14 68 70 121 175 125l4 -20c-63 -17 -101 -47 -112 -96c-7 -35 14 -45 43 -45c18 0 33 6 33 6z" />
    <glyph glyph-name="ograve" unicode="&#xf2;" horiz-adv-x="540" 
d="M317 776l64 -141c-16 -17 -39 -27 -64 -31l-96 135c20 23 64 41 96 37zM44 275c42 198 135 261 272 261c138 0 205 -83 163 -281s-133 -265 -270 -265s-207 87 -165 285zM381 263c33 154 -4 195 -77 195s-129 -41 -162 -195s5 -195 78 -195s128 41 161 195z" />
    <glyph glyph-name="ohungarumlaut" unicode="&#x151;" horiz-adv-x="540" 
d="M230 629l111 117c30 3 64 -11 74 -30l-139 -112c-21 3 -38 11 -46 25zM381 629l110 117c31 3 65 -11 75 -30l-139 -112c-21 3 -39 11 -46 25zM44 275c42 198 135 261 272 261c138 0 205 -83 163 -281s-133 -265 -270 -265s-207 87 -165 285zM381 263
c33 154 -4 195 -77 195s-129 -41 -162 -195s5 -195 78 -195s128 41 161 195z" />
    <glyph glyph-name="omacron" unicode="&#x14d;" horiz-adv-x="540" 
d="M225 693h250c4 -17 -2 -41 -12 -60h-250c-1 21 4 43 12 60zM44 275c42 198 135 261 272 261c138 0 205 -83 163 -281s-133 -265 -270 -265s-207 87 -165 285zM381 263c33 154 -4 195 -77 195s-129 -41 -162 -195s5 -195 78 -195s128 41 161 195z" />
    <glyph glyph-name="one" unicode="1" horiz-adv-x="413" 
d="M78 539c87 22 156 64 219 134c0 0 16 7 50 7c33 0 48 -7 48 -7l-142 -666s-16 -7 -51 -7c-32 0 -50 7 -50 7l88 410c11 53 22 97 32 130c-57 -47 -125 -76 -188 -91c-16 19 -19 51 -6 83z" />
    <glyph glyph-name="one.denom" horiz-adv-x="245" 
d="M14 278c49 12 85 33 116 61c11 3 22 4 35 4c10 0 20 -2 30 -4l-71 -335c-10 -2 -21 -4 -33 -4s-24 1 -35 4l46 215c3 16 5 28 9 40c-25 -16 -58 -30 -91 -35c-11 12 -12 34 -6 54z" />
    <glyph glyph-name="one.num" horiz-adv-x="261" 
d="M89 624c48 12 85 33 116 61c10 3 21 4 34 4c10 0 21 -2 31 -4l-72 -335c-9 -2 -20 -4 -31 -4c-12 0 -24 1 -37 4l46 215c3 16 6 28 10 40c-26 -16 -59 -30 -92 -35c-10 12 -12 34 -5 54z" />
    <glyph glyph-name="oneeighth" unicode="&#x215b;" horiz-adv-x="720" 
d="M574 696c0 0 13 6 39 6c25 0 36 -6 36 -6l-536 -700s-16 -6 -38 -6c-21 0 -36 6 -36 6zM212 684c11 3 22 4 34 4c11 0 22 -1 31 -4l-71 -335c-10 -2 -22 -4 -33 -4c-12 0 -23 1 -35 4l46 215c3 16 6 29 10 41c-26 -17 -59 -31 -92 -36c-11 12 -12 34 -6 54
c49 12 85 33 116 61zM428 257c11 55 61 91 136 91c70 0 107 -33 95 -87c-8 -38 -34 -64 -62 -82c28 -18 49 -43 40 -86c-14 -63 -68 -98 -148 -98c-76 0 -120 32 -107 94c9 43 41 71 75 89c-24 17 -37 41 -29 79zM596 256c6 27 -9 42 -43 42c-32 0 -54 -15 -59 -38
c-6 -30 26 -44 61 -58c20 12 36 30 41 54zM569 90c8 37 -38 49 -69 65c-7 -3 -44 -25 -52 -61c-7 -32 13 -46 53 -46c34 0 62 14 68 42z" />
    <glyph glyph-name="onehalf" unicode="&#xbd;" horiz-adv-x="717" 
d="M572 696c0 0 13 6 39 6c25 0 36 -6 36 -6l-536 -700s-16 -6 -38 -6c-21 0 -36 6 -36 6zM212 684c11 3 22 4 34 4c11 0 22 -1 31 -4l-71 -335c-10 -2 -22 -4 -33 -4c-12 0 -23 1 -35 4l46 215c3 16 6 29 10 41c-26 -17 -59 -31 -92 -36c-11 12 -12 34 -6 54
c49 12 85 33 116 61zM466 332c0 0 43 16 98 16c72 0 115 -34 101 -99c-24 -112 -163 -103 -211 -190h158c1 -10 1 -20 -1 -30s-6 -20 -12 -29h-222s0 18 5 41c29 136 195 126 212 204c6 30 -14 47 -55 47c-28 0 -58 -6 -68 -10c-10 14 -11 32 -5 50z" />
    <glyph glyph-name="oneinferior" unicode="&#x2081;" horiz-adv-x="244" 
d="M-6 182c48 12 85 33 116 61c10 3 21 4 33 4c11 0 22 -2 32 -4l-72 -335c-10 -2 -20 -4 -32 -4s-23 1 -36 4l46 215c4 16 6 28 10 40c-26 -16 -59 -30 -92 -35c-10 12 -12 34 -5 54z" />
    <glyph glyph-name="onequarter" unicode="&#xbc;" horiz-adv-x="666" 
d="M37 -4l535 700s13 6 39 6c25 0 36 -6 36 -6l-536 -700s-16 -6 -38 -6c-21 0 -36 6 -36 6zM96 623c49 12 85 33 116 61c11 3 22 4 34 4c11 0 22 -1 31 -4l-71 -335c-10 -2 -22 -4 -33 -4c-12 0 -23 1 -35 4l46 215c3 16 6 29 10 41c-26 -17 -59 -31 -92 -36
c-11 12 -12 34 -6 54zM551 133h39c1 -8 1 -16 -1 -25c-2 -10 -6 -17 -9 -25h-39l-17 -79c-11 -3 -20 -4 -30 -4s-20 1 -28 4l17 79h-170c-1 6 -1 14 0 22c2 8 5 16 8 21l209 212c9 3 21 5 34 5c12 0 22 -2 31 -5zM521 262l-128 -129h100z" />
    <glyph glyph-name="onesuperior" unicode="&#xb9;" horiz-adv-x="245" 
d="M87 623c49 12 84 33 115 61c11 3 23 4 35 4c11 0 21 -1 31 -4l-71 -335c-10 -2 -22 -4 -33 -4c-12 0 -23 1 -35 4l46 215c3 16 6 29 10 41c-27 -17 -60 -31 -92 -36c-11 12 -12 34 -6 54z" />
    <glyph glyph-name="ordfeminine" unicode="&#xaa;" horiz-adv-x="362" 
d="M140 606c0 0 53 24 114 24c84 0 109 -37 93 -111l-45 -212s-10 -6 -28 -6c-16 0 -27 6 -27 6l-1 29c-23 -25 -59 -41 -100 -41c-58 0 -90 36 -75 103c14 68 63 99 140 99c34 0 59 -2 63 -3l5 22c7 36 -7 55 -46 55c-41 0 -85 -15 -85 -15c-8 13 -12 31 -8 50zM264 445
c-4 1 -28 2 -56 2c-37 0 -61 -14 -68 -49c-8 -35 7 -48 38 -48c43 0 73 36 82 77zM45 244h241c3 -18 -3 -40 -13 -58h-241c-1 20 3 41 13 58z" />
    <glyph glyph-name="ordmasculine" unicode="&#xba;" horiz-adv-x="375" 
d="M85 468c26 121 83 162 171 162c87 0 127 -48 100 -171c-26 -123 -84 -164 -171 -164c-88 0 -126 50 -100 173zM284 463c19 87 3 111 -40 111c-45 0 -70 -24 -89 -111c-19 -89 -3 -111 42 -111c43 0 68 22 87 111zM51 244h244c0 -8 0 -17 -2 -28s-7 -22 -11 -30h-244
c0 8 1 19 3 30c2 10 6 20 10 28z" />
    <glyph glyph-name="oslash" unicode="&#xf8;" horiz-adv-x="540" 
d="M528 545l-62 -76c28 -46 34 -116 13 -214c-42 -198 -133 -265 -270 -265c-43 0 -80 9 -108 27l-52 -65c-24 1 -43 12 -53 28l63 78c-29 47 -36 118 -15 217c42 198 135 261 272 261c44 0 80 -8 108 -26l52 63c22 -1 42 -15 52 -28zM304 458c-73 0 -129 -41 -162 -195
c-11 -50 -14 -89 -11 -118l236 294c-15 14 -37 19 -63 19zM220 68c73 0 128 41 161 195c11 49 14 87 11 116l-235 -292c16 -14 37 -19 63 -19z" />
    <glyph glyph-name="oslashacute" unicode="&#x1ff;" horiz-adv-x="540" 
d="M457 729l-154 -135c-23 4 -42 14 -50 31l125 141c33 4 69 -14 79 -37zM528 545l-62 -76c28 -46 34 -116 13 -214c-42 -198 -133 -265 -270 -265c-43 0 -80 9 -108 27l-52 -65c-24 1 -43 12 -53 28l63 78c-29 47 -36 118 -15 217c42 198 135 261 272 261
c44 0 80 -8 108 -26l52 63c22 -1 42 -15 52 -28zM304 458c-73 0 -129 -41 -162 -195c-11 -50 -14 -89 -11 -118l236 294c-15 14 -37 19 -63 19zM220 68c73 0 128 41 161 195c11 49 14 87 11 116l-235 -292c16 -14 37 -19 63 -19z" />
    <glyph glyph-name="otilde" unicode="&#xf5;" horiz-adv-x="540" 
d="M197 664c0 0 31 49 92 49c57 0 73 -33 114 -33c31 0 53 28 53 28c18 -8 29 -27 28 -46c0 0 -31 -49 -92 -49c-57 0 -74 33 -115 33c-31 0 -53 -28 -53 -28c-19 11 -28 26 -27 46zM44 275c42 198 135 261 272 261c138 0 205 -83 163 -281s-133 -265 -270 -265
s-207 87 -165 285zM381 263c33 154 -4 195 -77 195s-129 -41 -162 -195s5 -195 78 -195s128 41 161 195z" />
    <glyph glyph-name="p" unicode="p" horiz-adv-x="555" 
d="M209 471c37 41 87 65 158 65c114 0 168 -79 125 -283s-131 -263 -245 -263c-66 0 -107 24 -126 65l-60 -280s-18 -6 -52 -6c-33 0 -48 6 -48 6l158 744s18 7 51 7c34 0 49 -7 49 -7zM394 263c32 149 5 191 -75 191c-70 0 -126 -58 -140 -126l-28 -128
c-14 -69 15 -128 85 -128c80 0 126 42 158 191z" />
    <glyph glyph-name="paragraph" unicode="&#xb6;" horiz-adv-x="586" 
d="M91 -222l117 551c-120 2 -159 94 -139 185c22 93 103 185 225 185h72l-196 -921s-14 -5 -40 -5c-28 0 -39 5 -39 5zM571 694l-194 -916s-15 -5 -41 -5c-27 0 -38 5 -38 5l194 916s14 5 41 5c26 0 38 -5 38 -5z" />
    <glyph glyph-name="parenleft" unicode="(" horiz-adv-x="295" 
d="M334 800c21 -13 26 -29 26 -29s-150 -177 -208 -451s16 -451 16 -451s-11 -17 -37 -29c-25 -11 -45 -11 -45 -11s-91 214 -32 491s240 491 240 491s20 1 40 -11z" />
    <glyph glyph-name="parenright" unicode=")" horiz-adv-x="294" 
d="M148 320c58 274 -17 451 -17 451s12 16 39 29c26 12 44 11 44 11s91 -214 32 -491s-240 -491 -240 -491s-20 0 -41 11c-20 12 -26 29 -26 29s151 177 209 451z" />
    <glyph glyph-name="partialdiff" unicode="&#x2202;" horiz-adv-x="558" 
d="M211 664c-1 32 8 63 30 86c250 -25 317 -164 259 -433c-53 -251 -155 -327 -294 -327c-137 0 -208 71 -167 262c40 191 141 262 268 262c49 0 84 -15 108 -36c-8 101 -66 164 -204 186zM408 388c-16 31 -57 49 -109 49c-72 0 -126 -36 -157 -185c-32 -147 8 -185 81 -185
c82 0 132 53 161 185c11 52 20 94 24 136z" />
    <glyph glyph-name="percent" unicode="%" horiz-adv-x="760" 
d="M699 696l-535 -700s-14 -6 -41 -6c-25 0 -38 6 -38 6l536 700s13 6 40 6c26 0 38 -6 38 -6zM186 345c-87 0 -127 48 -100 173c26 123 87 173 174 173c85 0 127 -48 100 -173s-89 -173 -174 -173zM248 633c-40 0 -68 -23 -88 -115c-20 -94 -1 -114 39 -114
c38 0 66 20 86 114c20 92 1 115 -37 115zM517 -10c-86 0 -126 48 -99 173c26 123 86 173 172 173c85 0 127 -48 101 -173c-27 -125 -89 -173 -174 -173zM578 278c-39 0 -68 -23 -87 -115c-20 -94 -1 -114 38 -114s67 20 87 114c19 92 1 115 -38 115z" />
    <glyph glyph-name="period" unicode="." horiz-adv-x="233" 
d="M127 101l-20 -94s-19 -7 -53 -7c-36 0 -51 7 -51 7l20 94s18 7 54 7c34 0 50 -7 50 -7z" />
    <glyph glyph-name="periodcentered" unicode="&#xb7;" horiz-adv-x="231" 
d="M165 325l-17 -81s-18 -7 -48 -7c-32 0 -44 7 -44 7l17 81s16 7 48 7c30 0 44 -7 44 -7z" />
    <glyph glyph-name="perthousand" unicode="&#x2030;" horiz-adv-x="1085" 
d="M699 696l-535 -700s-14 -6 -41 -6c-25 0 -38 6 -38 6l536 700s13 6 40 6c26 0 38 -6 38 -6zM186 345c-87 0 -127 48 -100 173c26 123 87 173 174 173c85 0 127 -48 100 -173s-89 -173 -174 -173zM248 633c-40 0 -68 -23 -88 -115c-20 -94 -1 -114 39 -114
c38 0 66 20 86 114c20 92 1 115 -37 115zM517 -10c-86 0 -126 48 -99 173c26 123 86 173 172 173c85 0 127 -48 101 -173c-27 -125 -89 -173 -174 -173zM844 -10c-86 0 -126 48 -99 173c26 123 86 173 172 173c85 0 128 -48 102 -173c-27 -125 -90 -173 -175 -173zM578 278
c-39 0 -68 -23 -87 -115c-20 -94 -1 -114 38 -114s67 20 87 114c19 92 1 115 -38 115zM905 278c-39 0 -67 -23 -86 -115c-20 -94 -2 -114 37 -114s67 20 87 114c19 92 1 115 -38 115z" />
    <glyph glyph-name="pi" unicode="&#x3c0;" horiz-adv-x="622" 
d="M268 526h360c2 -12 2 -27 -1 -41s-9 -29 -17 -41h-70l-44 -207c-32 -151 -16 -215 -16 -215c-18 -15 -46 -22 -72 -22c-10 0 -29 1 -36 5c0 0 -13 54 24 231l44 208h-204l-93 -437s-18 -7 -52 -7c-33 0 -48 7 -48 7l92 431c-45 -5 -69 -11 -69 -11c-3 12 -3 26 0 40
c3 15 9 30 17 42c0 0 61 17 185 17z" />
    <glyph glyph-name="plus" unicode="+" horiz-adv-x="464" 
d="M184 253h-142s-3 14 2 37c4 23 13 37 13 37h142l31 142s15 6 38 6s36 -6 36 -6l-31 -142h142s3 -14 -1 -37c-5 -23 -14 -37 -14 -37h-142l-30 -142s-16 -6 -39 -6s-35 6 -35 6z" />
    <glyph glyph-name="plusminus" unicode="&#xb1;" horiz-adv-x="508" 
d="M231 365h-142s-3 14 1 37c5 23 14 37 14 37h142l24 112s15 6 38 6s36 -6 36 -6l-24 -112h142s3 -14 -2 -37c-4 -23 -13 -37 -13 -37h-142l-24 -112s-16 -6 -39 -6s-35 6 -35 6zM396 127h-358s-3 14 2 37s14 37 14 37h358s3 -14 -2 -37s-14 -37 -14 -37z" />
    <glyph glyph-name="product" unicode="&#x220f;" horiz-adv-x="717" 
d="M702 693l-189 -892s-18 -8 -48 -8c-29 0 -43 8 -43 8l171 806h-341l-171 -806s-17 -8 -48 -8c-29 0 -43 8 -43 8l189 892h523z" />
    <glyph glyph-name="q" unicode="q" horiz-adv-x="554" 
d="M267 -225l60 280c-37 -44 -68 -65 -138 -65c-114 0 -188 79 -145 283s131 263 241 263c70 0 110 -24 130 -65l14 48s13 7 47 7c33 0 49 -7 49 -7l-158 -744s-17 -6 -50 -6c-34 0 -50 6 -50 6zM142 263c-32 -149 -4 -191 76 -191c68 0 122 57 138 123l29 133
c14 68 -14 126 -83 126c-80 0 -128 -42 -160 -191z" />
    <glyph glyph-name="question" unicode="?" horiz-adv-x="433" 
d="M438 516c-42 -196 -213 -160 -248 -321c0 0 -13 -10 -40 -10c-24 0 -37 10 -37 10c46 214 189 168 221 316c14 69 -23 96 -94 96c-72 0 -119 -23 -119 -23c-20 16 -25 42 -16 71c0 0 67 35 168 35c117 0 190 -55 165 -174zM184 101l-20 -94s-19 -7 -53 -7
c-36 0 -51 7 -51 7l20 94s18 7 54 7c34 0 50 -7 50 -7z" />
    <glyph glyph-name="questiondown" unicode="&#xbf;" horiz-adv-x="426" 
d="M228 419l20 94s19 7 53 7c36 0 51 -7 51 -7l-20 -94s-17 -7 -53 -7c-34 0 -51 7 -51 7zM-26 4c41 196 213 160 247 321c0 0 14 7 40 7c25 0 38 -7 38 -7c-45 -214 -189 -168 -220 -316c-15 -69 22 -96 92 -96c72 0 120 23 120 23c20 -16 25 -42 16 -71
c0 0 -67 -35 -167 -35c-117 0 -191 55 -166 174z" />
    <glyph glyph-name="quotedbl" unicode="&#x22;" horiz-adv-x="357" 
d="M114 512l26 201s16 7 50 7c33 0 49 -7 49 -7l-60 -201s-12 -5 -34 -5c-21 0 -31 5 -31 5zM261 512l26 201s16 7 51 7c32 0 48 -7 48 -7l-60 -201s-12 -5 -33 -5c-22 0 -32 5 -32 5z" />
    <glyph glyph-name="quotedblbase" unicode="&#x201e;" horiz-adv-x="377" 
d="M7 -125l-30 25s39 35 58 100c-23 1 -32 7 -32 7l20 94s18 7 54 7c34 0 50 -7 50 -7l-13 -63c-23 -108 -107 -163 -107 -163zM151 -125l-30 25s39 35 58 100c-23 1 -32 7 -32 7l20 94s17 7 54 7c33 0 50 -7 50 -7l-13 -63c-23 -108 -107 -163 -107 -163z" />
    <glyph glyph-name="quotedblleft" unicode="&#x201c;" horiz-adv-x="328" 
d="M363 720l31 -25s-39 -34 -58 -99c23 -2 31 -7 31 -7l-20 -94s-16 -7 -53 -7c-33 0 -51 7 -51 7l14 62c23 108 106 163 106 163zM220 720l31 -25s-39 -34 -58 -99c23 -2 31 -7 31 -7l-20 -94s-16 -7 -53 -7c-34 0 -51 7 -51 7l14 62c23 108 106 163 106 163z" />
    <glyph glyph-name="quotedblright" unicode="&#x201d;" horiz-adv-x="362" 
d="M132 488l-31 25s39 34 58 99c-23 2 -31 7 -31 7l20 94s16 7 53 7c33 0 51 -7 51 -7l-14 -62c-23 -108 -106 -163 -106 -163zM275 488l-31 25s39 34 58 99c-23 2 -31 7 -31 7l20 94s16 7 53 7c34 0 51 -7 51 -7l-14 -62c-23 -108 -106 -163 -106 -163z" />
    <glyph glyph-name="quoteleft" unicode="&#x2018;" horiz-adv-x="228" 
d="M218 720l31 -25s-40 -35 -59 -101c23 -1 33 -5 33 -5l-20 -95s-17 -6 -53 -6c-34 0 -51 6 -51 6l13 63c23 108 106 163 106 163z" />
    <glyph glyph-name="quoteright" unicode="&#x2019;" horiz-adv-x="219" 
d="M132 488l-31 25s40 34 58 99c-23 2 -31 7 -31 7l20 94s17 7 53 7c34 0 51 -7 51 -7l-14 -62c-23 -108 -106 -163 -106 -163z" />
    <glyph glyph-name="quotesinglbase" unicode="&#x201a;" horiz-adv-x="233" 
d="M7 -125l-30 25s39 35 58 100c-23 1 -32 7 -32 7l20 94s17 7 54 7c34 0 50 -7 50 -7l-13 -63c-23 -108 -107 -163 -107 -163z" />
    <glyph glyph-name="quotesingle" unicode="'" horiz-adv-x="209" 
d="M114 512l26 201s15 7 50 7c33 0 48 -7 48 -7l-60 -201s-12 -5 -33 -5s-31 5 -31 5z" />
    <glyph glyph-name="r" unicode="r" horiz-adv-x="395" 
d="M205 460c51 66 100 75 140 75c37 0 62 -11 81 -25c-12 -35 -31 -59 -60 -82c-17 14 -36 19 -59 19c-39 0 -83 -30 -119 -76l-78 -364s-18 -7 -51 -7c-35 0 -49 7 -49 7l109 512s17 7 52 7c33 0 44 -7 44 -7z" />
    <glyph glyph-name="racute" unicode="&#x155;" horiz-adv-x="395" 
d="M208 635l125 141c33 4 69 -14 79 -37l-154 -135c-23 4 -42 14 -50 31zM205 460c51 66 100 75 140 75c37 0 62 -11 81 -25c-12 -35 -31 -59 -60 -82c-17 14 -36 19 -59 19c-39 0 -83 -30 -119 -76l-78 -364s-18 -7 -51 -7c-35 0 -49 7 -49 7l109 512s17 7 52 7
c33 0 44 -7 44 -7z" />
    <glyph glyph-name="radical" unicode="&#x221a;" horiz-adv-x="644" 
d="M239 -15l-79 361l-112 -44c-15 12 -23 38 -13 64l191 77l72 -341l346 628c26 4 52 -2 66 -17l-400 -728h-71z" />
    <glyph glyph-name="rcaron" unicode="&#x159;" horiz-adv-x="395" 
d="M283 683l110 64c17 -6 28 -22 33 -41l-140 -99h-23l-113 99c13 19 31 36 51 42zM205 460c51 66 100 75 140 75c37 0 62 -11 81 -25c-12 -35 -31 -59 -60 -82c-17 14 -36 19 -59 19c-39 0 -83 -30 -119 -76l-78 -364s-18 -7 -51 -7c-35 0 -49 7 -49 7l109 512s17 7 52 7
c33 0 44 -7 44 -7z" />
    <glyph glyph-name="rcommaaccent" unicode="&#x157;" horiz-adv-x="395" 
d="M0 -48c0 0 19 7 53 7c33 0 50 -7 50 -7l-13 -62c-23 -108 -106 -163 -106 -163l-31 25s40 35 59 99c-23 2 -32 7 -32 7zM205 460c51 66 100 75 140 75c37 0 62 -11 81 -25c-12 -35 -31 -59 -60 -82c-17 14 -36 19 -59 19c-39 0 -83 -30 -119 -76l-78 -364s-18 -7 -51 -7
c-35 0 -49 7 -49 7l109 512s17 7 52 7c33 0 44 -7 44 -7z" />
    <glyph glyph-name="registered" unicode="&#xae;" horiz-adv-x="549" 
d="M269 256c-119 0 -199 98 -174 217s137 213 256 213s199 -98 174 -217s-137 -213 -256 -213zM346 642c-94 0 -187 -76 -207 -171s41 -171 135 -171c95 0 187 76 207 171s-40 171 -135 171zM350 589c48 0 71 -27 62 -69c-6 -30 -26 -54 -57 -64l39 -88s-13 -7 -28 -7
c-14 0 -22 4 -22 4l-39 86h-32l-18 -86s-11 -4 -22 -4c-13 0 -21 4 -21 4l47 224h91zM281 488h45c24 0 37 11 41 32c5 22 -3 33 -27 33h-45z" />
    <glyph glyph-name="ring" unicode="&#x2da;" horiz-adv-x="344" 
d="M131 503c-67 0 -118 40 -102 112c15 72 76 110 137 110c60 0 119 -37 104 -110c-16 -72 -73 -112 -139 -112zM212 615c6 30 -9 59 -52 59c-42 0 -68 -30 -74 -59c-7 -30 7 -60 49 -60c43 0 71 31 77 60z" />
    <glyph glyph-name="s" unicode="s" horiz-adv-x="443" 
d="M71 392c21 89 88 144 215 144c98 0 135 -27 135 -27c-5 -26 -21 -55 -41 -71c0 0 -45 16 -102 16c-68 0 -107 -25 -117 -72c-10 -49 48 -67 107 -88c60 -21 119 -58 98 -156c-22 -101 -92 -148 -219 -148c-105 0 -160 36 -160 36c7 29 22 57 43 74c0 0 60 -25 130 -25
c61 0 101 23 111 72c12 55 -38 69 -93 86c-64 20 -130 63 -107 159z" />
    <glyph glyph-name="sacute" unicode="&#x15b;" horiz-adv-x="443" 
d="M420 739l-154 -135c-23 4 -42 14 -50 31l125 141c33 4 69 -14 79 -37zM71 392c21 89 88 144 215 144c98 0 135 -27 135 -27c-5 -26 -21 -55 -41 -71c0 0 -45 16 -102 16c-68 0 -107 -25 -117 -72c-10 -49 48 -67 107 -88c60 -21 119 -58 98 -156
c-22 -101 -92 -148 -219 -148c-105 0 -160 36 -160 36c7 29 22 57 43 74c0 0 60 -25 130 -25c61 0 101 23 111 72c12 55 -38 69 -93 86c-64 20 -130 63 -107 159z" />
    <glyph glyph-name="scaron" unicode="&#x161;" horiz-adv-x="443" 
d="M287 604l-110 102c13 18 30 34 51 40l81 -64l108 64c17 -6 28 -22 33 -40l-139 -102h-24zM71 392c21 89 88 144 215 144c98 0 135 -27 135 -27c-5 -26 -21 -55 -41 -71c0 0 -45 16 -102 16c-68 0 -107 -25 -117 -72c-10 -49 48 -67 107 -88c60 -21 119 -58 98 -156
c-22 -101 -92 -148 -219 -148c-105 0 -160 36 -160 36c7 29 22 57 43 74c0 0 60 -25 130 -25c61 0 101 23 111 72c12 55 -38 69 -93 86c-64 20 -130 63 -107 159z" />
    <glyph glyph-name="scedilla" unicode="&#x15f;" horiz-adv-x="443" 
d="M71 392c21 89 88 144 215 144c98 0 135 -27 135 -27c-5 -26 -21 -55 -41 -71c0 0 -45 16 -102 16c-68 0 -107 -25 -117 -72c-10 -49 48 -67 107 -88c60 -21 119 -58 98 -156c-20 -93 -82 -141 -191 -147l-18 -46c74 0 94 -38 83 -91c-14 -64 -65 -96 -139 -96
c-57 0 -85 22 -85 22c4 18 15 33 29 42c9 -5 34 -15 62 -15c34 0 64 14 72 50c5 26 -8 44 -45 44h-36l-9 13l30 77c-87 5 -132 35 -132 35c7 29 22 57 43 74c0 0 60 -25 130 -25c61 0 101 23 111 72c12 55 -38 69 -93 86c-64 20 -130 63 -107 159z" />
    <glyph glyph-name="scircumflex" unicode="&#x15d;" horiz-adv-x="443" 
d="M330 742l117 -107c-14 -20 -33 -37 -55 -43l-88 68l-116 -68c-20 7 -30 23 -36 43l153 107h25zM71 392c21 89 88 144 215 144c98 0 135 -27 135 -27c-5 -26 -21 -55 -41 -71c0 0 -45 16 -102 16c-68 0 -107 -25 -117 -72c-10 -49 48 -67 107 -88c60 -21 119 -58 98 -156
c-22 -101 -92 -148 -219 -148c-105 0 -160 36 -160 36c7 29 22 57 43 74c0 0 60 -25 130 -25c61 0 101 23 111 72c12 55 -38 69 -93 86c-64 20 -130 63 -107 159z" />
    <glyph glyph-name="scommaaccent" unicode="&#x219;" horiz-adv-x="443" 
d="M76 -285l-30 25s39 35 57 100c-22 1 -32 6 -32 6l20 95s20 6 54 6s50 -6 50 -6l-13 -63c-23 -108 -106 -163 -106 -163zM71 392c21 89 88 144 215 144c98 0 135 -27 135 -27c-5 -26 -21 -55 -41 -71c0 0 -45 16 -102 16c-68 0 -107 -25 -117 -72c-10 -49 48 -67 107 -88
c60 -21 119 -58 98 -156c-22 -101 -92 -148 -219 -148c-105 0 -160 36 -160 36c7 29 22 57 43 74c0 0 60 -25 130 -25c61 0 101 23 111 72c12 55 -38 69 -93 86c-64 20 -130 63 -107 159z" />
    <glyph glyph-name="section" unicode="&#xa7;" horiz-adv-x="485" 
d="M299 131c21 100 -264 43 -229 206c10 51 51 89 81 112c-23 21 -37 50 -26 101c20 95 103 140 212 140c57 0 104 -12 134 -22c-1 -20 -13 -49 -34 -64c-15 4 -58 14 -101 14c-67 0 -114 -19 -124 -67c-21 -100 255 -40 220 -205c-11 -49 -48 -84 -76 -106
c30 -22 47 -55 36 -110c-22 -103 -121 -140 -230 -140c-92 0 -157 25 -157 25c0 23 11 51 35 66c16 -4 73 -17 126 -17c70 0 122 16 133 67zM207 416c-19 -15 -43 -37 -50 -66c-12 -57 70 -61 139 -82c19 16 42 36 48 65c12 56 -71 60 -137 83z" />
    <glyph glyph-name="semicolon" unicode=";" horiz-adv-x="248" 
d="M217 496l-20 -94s-19 -7 -53 -7c-36 0 -51 7 -51 7l20 94s18 7 54 7c34 0 50 -7 50 -7zM14 -125l-31 25s40 35 58 100c-23 1 -32 7 -32 7l20 94s18 7 54 7c34 0 50 -7 50 -7l-13 -63c-23 -108 -106 -163 -106 -163z" />
    <glyph glyph-name="seven" unicode="7" horiz-adv-x="494" 
d="M118 680h414c3 -18 0 -37 -5 -56c-57 -235 -310 -298 -378 -619c-14 -3 -31 -5 -49 -5s-36 2 -48 5c71 336 296 406 368 586h-320s-5 17 1 45c6 29 17 44 17 44z" />
    <glyph glyph-name="seven.denom" horiz-adv-x="281" 
d="M180 283h-156c0 9 0 19 2 30c3 11 6 21 11 30h224s0 -16 -3 -34c-29 -128 -161 -145 -195 -306c-12 -2 -22 -3 -34 -3s-23 1 -32 3c37 165 125 179 183 280z" />
    <glyph glyph-name="seven.num" horiz-adv-x="281" 
d="M110 689h224c1 -11 0 -23 -3 -34c-28 -128 -161 -145 -195 -306c-23 -4 -45 -5 -66 0c37 165 125 179 184 280h-156c-2 20 2 40 12 60z" />
    <glyph glyph-name="seveneighths" unicode="&#x215e;" horiz-adv-x="682" 
d="M536 696c0 0 13 6 39 6c25 0 36 -6 36 -6l-536 -700s-16 -6 -38 -6c-21 0 -36 6 -36 6zM129 689h223s1 -16 -3 -34c-27 -128 -160 -145 -194 -306c-23 -4 -46 -5 -66 0c37 165 124 179 184 280h-156c-2 20 2 40 12 60zM390 257c11 55 61 91 136 91c70 0 107 -33 95 -87
c-8 -38 -34 -64 -62 -82c28 -18 49 -43 40 -86c-14 -63 -68 -98 -148 -98c-76 0 -120 32 -107 94c9 43 41 71 75 89c-24 17 -37 41 -29 79zM558 256c6 27 -9 42 -43 42c-32 0 -54 -15 -59 -38c-6 -30 26 -44 61 -58c20 12 36 30 41 54zM531 90c8 37 -38 49 -69 65
c-7 -3 -44 -25 -52 -61c-7 -32 13 -46 53 -46c34 0 62 14 68 42z" />
    <glyph glyph-name="seveninferior" unicode="&#x2087;" horiz-adv-x="281" 
d="M161 187h-156c-2 20 2 40 12 60h224s1 -16 -3 -34c-28 -128 -172 -145 -202 -306c-23 -4 -45 -5 -66 0c38 168 132 179 191 280z" />
    <glyph glyph-name="six" unicode="6" horiz-adv-x="550" 
d="M515 680c6 -23 -1 -55 -17 -80c-146 -16 -245 -74 -305 -208c33 11 77 24 129 24c115 0 192 -67 159 -220c-31 -145 -126 -206 -262 -206c-135 0 -210 82 -170 269c59 280 227 406 466 421zM381 203c21 98 -21 134 -91 134c-52 0 -101 -19 -128 -29
c-5 -17 -9 -36 -13 -55c-29 -133 10 -186 82 -186s130 43 150 136z" />
    <glyph glyph-name="six.denom" horiz-adv-x="309" 
d="M-1 136c27 128 114 199 252 210c6 -14 0 -38 -12 -54c-60 -5 -116 -30 -148 -88c13 4 33 9 58 9c63 0 105 -34 89 -108c-15 -74 -74 -110 -144 -110c-78 0 -116 45 -95 141zM170 105c8 36 -9 55 -42 55c-26 0 -46 -8 -58 -12c-14 -66 -5 -100 35 -100c32 0 57 20 65 57z
" />
    <glyph glyph-name="six.num" horiz-adv-x="310" 
d="M73 483c27 128 114 199 251 210c6 -14 1 -38 -11 -54c-60 -6 -117 -30 -148 -89c13 4 33 10 58 10c63 0 105 -34 89 -108c-16 -75 -74 -110 -144 -110c-78 0 -116 44 -95 141zM244 452c7 35 -9 54 -42 54c-26 0 -46 -8 -58 -12c-14 -65 -5 -100 35 -100c32 0 57 21 65 58
z" />
    <glyph glyph-name="sixinferior" unicode="&#x2086;" horiz-adv-x="310" 
d="M-21 40c28 128 115 199 252 210c6 -14 1 -37 -11 -54c-60 -5 -117 -30 -148 -88c13 4 33 9 58 9c63 0 105 -34 89 -108s-75 -110 -145 -110c-78 0 -115 45 -95 141zM151 9c8 36 -9 55 -42 55c-26 0 -46 -8 -58 -12c-14 -65 -5 -100 35 -100c32 0 57 20 65 57z" />
    <glyph glyph-name="slash" unicode="/" horiz-adv-x="478" 
d="M-51 -40l501 783s19 7 50 7c33 0 49 -7 49 -7l-501 -783s-19 -7 -51 -7s-48 7 -48 7z" />
    <glyph glyph-name="space" unicode=" " horiz-adv-x="229" 
 />
    <glyph glyph-name="sterling" unicode="&#xa3;" horiz-adv-x="531" 
d="M406 301h-165c-1 -68 -19 -138 -111 -211h296c1 -1 4 -18 -1 -45c-6 -26 -17 -44 -18 -45h-402l19 90c102 81 119 146 117 211h-82c-1 1 -3 14 2 37c4 20 12 34 13 35h61c-5 40 -8 83 2 132c28 132 128 186 252 186c73 0 130 -19 162 -34c-4 -29 -20 -55 -45 -72
c-22 9 -68 22 -119 23c-72 0 -131 -29 -147 -106c-9 -43 -5 -86 -1 -129h182c0 -1 3 -14 -1 -34c-4 -21 -14 -37 -14 -38z" />
    <glyph glyph-name="summation" unicode="&#x2211;" horiz-adv-x="592" 
d="M-65 -157l315 418l-127 388l9 45h493s4 -16 -1 -42c-6 -24 -16 -41 -16 -41h-370l115 -351l-286 -382h391s4 -16 -2 -43c-5 -25 -16 -42 -16 -42h-516z" />
    <glyph glyph-name="t" unicode="t" horiz-adv-x="373" 
d="M234 451l-56 -262c-19 -91 -6 -118 65 -118c20 0 53 4 53 4s3 -17 -2 -40c-4 -23 -12 -36 -12 -36c-19 -5 -47 -9 -74 -9c-123 0 -158 67 -131 194l57 267h-77s-3 14 2 37c5 25 14 38 14 38h77l19 91c30 16 68 23 104 20l-23 -111h130s3 -13 -2 -37
c-5 -23 -14 -38 -14 -38h-130z" />
    <glyph glyph-name="tbar" unicode="&#x167;" horiz-adv-x="375" 
d="M245 71c20 0 53 4 53 4s3 -17 -2 -40c-4 -23 -12 -36 -12 -36c-19 -5 -47 -9 -74 -9c-123 0 -158 67 -131 194l15 69h-67c-1 21 4 43 13 62h67l29 136h-77s-3 14 2 37c5 25 14 38 14 38h77l19 91c30 16 68 23 104 20l-23 -111h130s3 -13 -2 -37c-5 -23 -14 -38 -14 -38
h-130l-29 -136h101c2 -20 -4 -43 -13 -62h-101l-14 -64c-19 -91 -6 -118 65 -118z" />
    <glyph glyph-name="tcaron" unicode="&#x165;" horiz-adv-x="373" 
d="M365 582c-18 4 -31 14 -35 28c51 41 75 77 90 139c35 3 63 -3 79 -20c-25 -65 -78 -126 -134 -147zM234 451l-56 -262c-19 -91 -6 -118 65 -118c20 0 53 4 53 4s3 -17 -2 -40c-4 -23 -12 -36 -12 -36c-19 -5 -47 -9 -74 -9c-123 0 -158 67 -131 194l57 267h-77
s-3 14 2 37c5 25 14 38 14 38h77l19 91c30 16 68 23 104 20l-23 -111h130s3 -13 -2 -37c-5 -23 -14 -38 -14 -38h-130z" />
    <glyph glyph-name="thorn" unicode="&#xfe;" horiz-adv-x="558" 
d="M167 743c0 0 17 7 50 7c34 0 50 -7 50 -7l-58 -272c37 41 87 65 158 65c114 0 171 -77 128 -281s-130 -265 -244 -265c-71 0 -111 24 -130 65l-60 -280s-18 -6 -52 -6c-33 0 -48 6 -48 6zM394 263c32 149 0 191 -80 191c-70 0 -121 -58 -135 -126l-28 -128
c-14 -69 12 -128 82 -128c80 0 129 42 161 191z" />
    <glyph glyph-name="three" unicode="3" horiz-adv-x="525" 
d="M442 182c-25 -115 -108 -192 -288 -192c-110 0 -167 35 -167 35c5 27 20 57 41 74c7 -3 63 -23 137 -23c103 0 160 36 177 119c20 90 -31 120 -115 120h-74c-5 26 2 56 17 80h74c74 0 127 32 142 105c16 73 -21 106 -106 106c-76 0 -134 -22 -134 -22
c-20 16 -25 42 -16 71c0 0 73 35 177 35c139 0 205 -72 181 -186c-15 -71 -49 -118 -121 -148c66 -33 93 -87 75 -174z" />
    <glyph glyph-name="three.denom" horiz-adv-x="299" 
d="M219 95c-12 -59 -57 -100 -160 -100c-60 0 -91 19 -91 19c4 17 13 37 28 48c0 0 31 -11 72 -11c55 0 78 20 85 51c7 35 -10 50 -51 50h-47c-2 17 2 37 12 54h47c36 0 53 17 59 42c6 31 -11 44 -49 44c-39 0 -74 -9 -74 -9c-9 10 -12 29 -7 48c0 0 42 17 98 17
c76 0 115 -33 102 -92c-7 -35 -24 -59 -59 -75c30 -14 45 -39 35 -86z" />
    <glyph glyph-name="three.num" horiz-adv-x="299" 
d="M293 441c-13 -59 -58 -100 -161 -100c-60 0 -91 19 -91 19c4 17 13 37 29 48c0 0 30 -11 71 -11c55 0 79 20 85 51c8 35 -9 50 -50 50h-47c-3 17 2 37 11 54h47c36 0 54 17 59 42c7 31 -10 44 -48 44c-39 0 -74 -9 -74 -9c-9 10 -12 29 -7 48c0 0 41 17 97 17
c76 0 115 -33 103 -92c-8 -35 -25 -59 -59 -75c30 -14 45 -39 35 -86z" />
    <glyph glyph-name="threeeighths" unicode="&#x215c;" horiz-adv-x="763" 
d="M617 696c0 0 13 6 39 6c25 0 36 -6 36 -6l-536 -700s-16 -6 -38 -6c-21 0 -36 6 -36 6zM129 677c0 0 40 17 96 17c77 0 116 -33 104 -92c-8 -35 -25 -59 -59 -75c30 -14 45 -39 35 -86c-13 -59 -58 -100 -161 -100c-60 0 -91 19 -91 19c3 17 13 37 29 48
c0 0 30 -11 71 -11c54 0 79 20 85 51c8 35 -10 50 -50 50h-47c-4 17 1 37 11 54h47c35 0 54 17 59 42c7 31 -11 44 -49 44s-73 -9 -73 -9c-9 10 -12 29 -7 48zM471 257c11 55 61 91 136 91c70 0 107 -33 95 -87c-8 -38 -34 -64 -62 -82c28 -18 49 -43 40 -86
c-14 -63 -68 -98 -148 -98c-76 0 -120 32 -107 94c9 43 41 71 75 89c-24 17 -37 41 -29 79zM639 256c6 27 -9 42 -43 42c-32 0 -54 -15 -59 -38c-6 -30 26 -44 61 -58c20 12 36 30 41 54zM612 90c8 37 -38 49 -69 65c-7 -3 -44 -25 -52 -61c-7 -32 13 -46 53 -46
c34 0 62 14 68 42z" />
    <glyph glyph-name="threeinferior" unicode="&#x2083;" horiz-adv-x="299" 
d="M199 -1c-13 -59 -58 -100 -161 -100c-60 0 -90 19 -90 19c3 17 12 37 28 48c0 0 30 -11 71 -11c55 0 79 20 85 51c8 35 -9 50 -50 50h-47c-3 17 2 37 11 54h47c36 0 54 17 59 42c7 31 -10 44 -48 44c-39 0 -74 -9 -74 -9c-9 10 -12 29 -7 48c0 0 42 17 98 17
c76 0 115 -33 102 -92c-7 -35 -25 -59 -59 -75c30 -14 45 -39 35 -86z" />
    <glyph glyph-name="threequarters" unicode="&#xbe;" horiz-adv-x="713" 
d="M619 696c0 0 13 6 39 6c25 0 36 -6 36 -6l-536 -700s-16 -6 -38 -6c-21 0 -36 6 -36 6zM130 677c0 0 40 17 96 17c76 0 115 -33 103 -92c-8 -35 -25 -59 -59 -75c30 -14 46 -39 36 -86c-13 -59 -59 -100 -162 -100c-59 0 -91 19 -91 19c4 17 14 37 30 48
c0 0 29 -11 70 -11c55 0 79 20 85 51c8 35 -9 50 -50 50h-46c-4 17 1 37 11 54h46c36 0 55 17 60 42c7 31 -11 44 -49 44c-39 0 -74 -9 -74 -9c-8 10 -11 29 -6 48zM577 338c9 3 21 5 34 5c12 0 22 -2 31 -5l-44 -205h39c1 -8 1 -16 -1 -25c-2 -10 -6 -17 -9 -25h-39
l-17 -79c-11 -3 -20 -4 -30 -4s-20 1 -28 4l17 79h-170c-1 7 -1 15 0 23c2 8 5 15 8 20zM440 133h100l28 129z" />
    <glyph glyph-name="threesuperior" unicode="&#xb3;" horiz-adv-x="299" 
d="M293 441c-13 -59 -58 -100 -161 -100c-60 0 -91 19 -91 19c4 17 13 37 29 48c0 0 30 -11 71 -11c55 0 79 20 85 51c8 35 -9 50 -50 50h-47c-3 17 2 37 11 54h47c36 0 54 17 59 42c7 31 -10 44 -48 44c-39 0 -74 -9 -74 -9c-9 10 -12 29 -7 48c0 0 41 17 97 17
c76 0 115 -33 103 -92c-8 -35 -25 -59 -59 -75c30 -14 45 -39 35 -86z" />
    <glyph glyph-name="tilde" unicode="&#x2dc;" horiz-adv-x="327" 
d="M219 685c31 0 53 27 53 27c18 -8 28 -26 28 -46c0 0 -32 -48 -92 -48c-58 0 -74 33 -115 33c-31 0 -54 -28 -54 -28c-18 11 -27 26 -27 46c0 0 32 49 92 49c58 0 74 -33 115 -33z" />
    <glyph glyph-name="trademark" unicode="&#x2122;" horiz-adv-x="617" 
d="M122 720h203c2 -5 2 -11 0 -17c-1 -6 -4 -12 -7 -18h-79l-53 -249s-9 -4 -23 -4c-15 0 -20 4 -20 4l53 249h-81c-1 6 -1 11 0 17s3 12 7 18zM369 716c0 0 11 4 27 4c10 0 14 -1 24 -4l25 -85c9 -30 15 -60 18 -77c9 15 28 42 49 72l62 90s16 4 28 4c17 0 26 -4 26 -4
l-59 -280s-8 -4 -21 -4c-14 0 -20 4 -20 4l25 117c10 49 15 79 24 111l-42 -63l-64 -89s-7 -3 -19 -3s-17 3 -17 3l-25 88c-7 26 -11 43 -15 64c-4 -23 -11 -61 -21 -111l-25 -117s-8 -4 -21 -4c-11 0 -18 4 -18 4z" />
    <glyph glyph-name="two" unicode="2" horiz-adv-x="532" 
d="M163 582c-18 17 -23 42 -13 72c0 0 86 36 193 36c121 0 205 -60 177 -192c-27 -125 -106 -160 -241 -232c-66 -37 -156 -72 -173 -154c-2 -10 -3 -18 -3 -22h312c5 -11 4 -27 1 -45c-4 -17 -11 -33 -20 -45h-405s1 40 8 75c33 156 146 204 251 264c103 60 152 90 168 165
c13 61 -18 103 -109 103c-73 0 -146 -25 -146 -25z" />
    <glyph glyph-name="two.denom" horiz-adv-x="301" 
d="M-26 41c29 136 195 126 212 204c6 30 -14 46 -54 47c-29 0 -59 -6 -69 -10c-10 14 -11 32 -6 50c0 0 44 16 99 16c72 0 114 -34 100 -99c-24 -112 -162 -103 -210 -190h158c1 -10 0 -20 -2 -30s-5 -20 -11 -29h-222s0 18 5 41z" />
    <glyph glyph-name="two.num" horiz-adv-x="301" 
d="M48 387c29 136 196 126 213 204c6 29 -13 47 -53 47c-29 0 -60 -6 -71 -10c-10 14 -11 32 -6 50c0 0 44 16 99 16c72 0 114 -34 100 -99c-23 -112 -161 -103 -210 -190h158c2 -10 1 -20 -1 -30s-6 -20 -11 -29h-222s-1 18 4 41z" />
    <glyph glyph-name="twoinferior" unicode="&#x2082;" horiz-adv-x="301" 
d="M-46 -55c29 136 196 126 213 204c6 30 -15 47 -55 47c-28 0 -59 -6 -69 -10c-10 14 -11 32 -6 50c0 0 45 16 100 16c72 0 113 -34 99 -99c-23 -112 -161 -103 -210 -190h158c2 -10 1 -20 -1 -30s-6 -20 -11 -29h-222s-1 18 4 41z" />
    <glyph glyph-name="twosuperior" unicode="&#xb2;" horiz-adv-x="301" 
d="M48 387c29 136 196 126 213 204c6 31 -15 47 -57 47c-27 0 -57 -7 -67 -10c-10 14 -11 32 -6 50c0 0 44 16 99 16c72 0 114 -34 100 -99c-23 -112 -161 -103 -210 -190h158c2 -10 1 -20 -1 -30s-6 -20 -11 -29h-222s-1 18 4 41z" />
    <glyph glyph-name="u" unicode="u" horiz-adv-x="550" 
d="M40 163l75 356s19 7 52 7c34 0 48 -7 48 -7l-76 -360c-12 -56 10 -88 74 -88c44 0 91 23 127 64l81 384s20 7 52 7c35 0 48 -7 48 -7l-109 -512s-12 -7 -47 -7c-32 0 -46 7 -46 7l3 46c-44 -45 -89 -62 -151 -62c-114 0 -150 82 -131 172z" />
    <glyph glyph-name="uacute" unicode="&#xfa;" horiz-adv-x="549" 
d="M468 739l-154 -135c-23 4 -42 14 -50 31l125 141c33 4 69 -14 79 -37zM40 163l75 356s19 7 52 7c34 0 48 -7 48 -7l-76 -360c-12 -56 10 -88 74 -88c44 0 91 23 127 64l81 384s20 7 52 7c35 0 48 -7 48 -7l-109 -512s-12 -7 -47 -7c-32 0 -46 7 -46 7l3 46
c-44 -45 -89 -62 -151 -62c-114 0 -150 82 -131 172z" />
    <glyph glyph-name="ubreve" unicode="&#x16d;" horiz-adv-x="549" 
d="M355 691c67 0 114 32 114 32c18 -7 30 -26 33 -47c0 0 -55 -61 -155 -61c-101 0 -146 61 -146 61c11 21 31 40 54 47c0 0 33 -32 100 -32zM40 163l75 356s19 7 52 7c34 0 48 -7 48 -7l-76 -360c-12 -56 10 -88 74 -88c44 0 91 23 127 64l81 384s20 7 52 7
c35 0 48 -7 48 -7l-109 -512s-12 -7 -47 -7c-32 0 -46 7 -46 7l3 46c-44 -45 -89 -62 -151 -62c-114 0 -150 82 -131 172z" />
    <glyph glyph-name="ucircumflex" unicode="&#xfb;" horiz-adv-x="549" 
d="M378 754l117 -108c-14 -20 -33 -37 -54 -44l-87 69l-117 -68c-19 7 -31 23 -37 43l153 108h25zM40 163l75 356s19 7 52 7c34 0 48 -7 48 -7l-76 -360c-12 -56 10 -88 74 -88c44 0 91 23 127 64l81 384s20 7 52 7c35 0 48 -7 48 -7l-109 -512s-12 -7 -47 -7
c-32 0 -46 7 -46 7l3 46c-44 -45 -89 -62 -151 -62c-114 0 -150 82 -131 172z" />
    <glyph glyph-name="udieresis" unicode="&#xfc;" horiz-adv-x="549" 
d="M229 706c0 0 15 6 46 6c30 0 45 -6 45 -6l-17 -82s-18 -6 -48 -6c-31 0 -43 6 -43 6zM399 706c0 0 15 6 46 6c30 0 45 -6 45 -6l-17 -82s-18 -6 -48 -6c-31 0 -43 6 -43 6zM40 163l75 356s19 7 52 7c34 0 48 -7 48 -7l-76 -360c-12 -56 10 -88 74 -88c44 0 91 23 127 64
l81 384s20 7 52 7c35 0 48 -7 48 -7l-109 -512s-12 -7 -47 -7c-32 0 -46 7 -46 7l3 46c-44 -45 -89 -62 -151 -62c-114 0 -150 82 -131 172z" />
    <glyph glyph-name="ugrave" unicode="&#xf9;" horiz-adv-x="549" 
d="M332 771l63 -138c-15 -17 -38 -26 -62 -30l-94 132c18 23 62 40 93 36zM40 163l75 356s19 7 52 7c34 0 48 -7 48 -7l-76 -360c-12 -56 10 -88 74 -88c44 0 91 23 127 64l81 384s20 7 52 7c35 0 48 -7 48 -7l-109 -512s-12 -7 -47 -7c-32 0 -46 7 -46 7l3 46
c-44 -45 -89 -62 -151 -62c-114 0 -150 82 -131 172z" />
    <glyph glyph-name="uhungarumlaut" unicode="&#x171;" horiz-adv-x="549" 
d="M397 724l-141 -123c-21 3 -38 12 -45 29l113 128c32 4 64 -12 73 -34zM549 724l-141 -123c-21 3 -39 12 -46 29l113 128c32 4 64 -12 74 -34zM40 163l75 356s19 7 52 7c34 0 48 -7 48 -7l-76 -360c-12 -56 10 -88 74 -88c44 0 91 23 127 64l81 384s20 7 52 7
c35 0 48 -7 48 -7l-109 -512s-12 -7 -47 -7c-32 0 -46 7 -46 7l3 46c-44 -45 -89 -62 -151 -62c-114 0 -150 82 -131 172z" />
    <glyph glyph-name="umacron" unicode="&#x16b;" horiz-adv-x="549" 
d="M229 699h241c2 -17 -4 -38 -13 -57h-241c1 20 5 41 13 57zM40 163l75 356s19 7 52 7c34 0 48 -7 48 -7l-76 -360c-12 -56 10 -88 74 -88c44 0 91 23 127 64l81 384s20 7 52 7c35 0 48 -7 48 -7l-109 -512s-12 -7 -47 -7c-32 0 -46 7 -46 7l3 46c-44 -45 -89 -62 -151 -62
c-114 0 -150 82 -131 172z" />
    <glyph glyph-name="underscore" unicode="_" horiz-adv-x="552" 
d="M408 -87h-428s-3 10 2 34c5 23 13 33 13 33h428s4 -10 -1 -33c-5 -24 -14 -34 -14 -34z" />
    <glyph glyph-name="uni00AD" unicode="&#xad;" horiz-adv-x="246" 
 />
    <glyph glyph-name="Tcommaaccent" unicode="&#x162;" horiz-adv-x="543" 
d="M121 720h479s4 -18 -1 -43c-6 -26 -18 -45 -18 -45h-186l-133 -625s-19 -7 -52 -7c-36 0 -50 7 -50 7l133 625h-191s-4 17 2 44c5 25 17 44 17 44zM132 -278l-31 25s40 35 57 100c-21 1 -31 6 -31 6l20 95s19 6 53 6s51 -6 51 -6l-13 -63c-23 -108 -106 -163 -106 -163z
" />
    <glyph glyph-name="Tcommaaccent" unicode="&#x21a;" horiz-adv-x="543" 
d="M121 720h479s4 -18 -1 -43c-6 -26 -18 -45 -18 -45h-186l-133 -625s-19 -7 -52 -7c-36 0 -50 7 -50 7l133 625h-191s-4 17 2 44c5 25 17 44 17 44zM132 -278l-31 25s40 35 57 100c-21 1 -31 6 -31 6l20 95s19 6 53 6s51 -6 51 -6l-13 -63c-23 -108 -106 -163 -106 -163z
" />
    <glyph glyph-name="tcommaaccent" unicode="&#x163;" horiz-adv-x="373" 
d="M234 451l-56 -262c-19 -91 -6 -118 65 -118c20 0 53 4 53 4s3 -17 -2 -40c-4 -23 -12 -36 -12 -36c-19 -5 -47 -9 -74 -9c-123 0 -158 67 -131 194l57 267h-77s-3 14 2 37c5 25 14 38 14 38h77l19 91c30 16 68 23 104 20l-23 -111h130s3 -13 -2 -37
c-5 -23 -14 -38 -14 -38h-130zM83 -285l-30 25s39 35 57 100c-22 1 -32 6 -32 6l20 95s20 6 54 6s50 -6 50 -6l-13 -63c-23 -108 -106 -163 -106 -163z" />
    <glyph glyph-name="tcommaaccent" unicode="&#x21b;" horiz-adv-x="373" 
d="M234 451l-56 -262c-19 -91 -6 -118 65 -118c20 0 53 4 53 4s3 -17 -2 -40c-4 -23 -12 -36 -12 -36c-19 -5 -47 -9 -74 -9c-123 0 -158 67 -131 194l57 267h-77s-3 14 2 37c5 25 14 38 14 38h77l19 91c30 16 68 23 104 20l-23 -111h130s3 -13 -2 -37
c-5 -23 -14 -38 -14 -38h-130zM83 -285l-30 25s39 35 57 100c-22 1 -32 6 -32 6l20 95s20 6 54 6s50 -6 50 -6l-13 -63c-23 -108 -106 -163 -106 -163z" />
    <glyph glyph-name="uni0401" unicode="&#x401;" horiz-adv-x="555" 
d="M283 875c0 0 16 6 47 6c30 0 44 -6 44 -6l-17 -81s-17 -6 -47 -6c-31 0 -44 6 -44 6zM453 875c0 0 16 6 47 6c29 0 44 -6 44 -6l-17 -81s-18 -6 -47 -6c-31 0 -44 6 -44 6zM179 720h405c2 -12 3 -25 0 -39c-4 -16 -9 -31 -18 -44h-304l-49 -232h254c2 -12 3 -26 0 -40
s-9 -29 -17 -42h-254l-51 -240h314c2 -13 2 -26 -1 -40c-3 -15 -8 -29 -17 -43h-415z" />
    <glyph glyph-name="uni0410" unicode="&#x410;" horiz-adv-x="654" 
d="M354 713c0 0 26 7 61 7c38 0 59 -7 59 -7l100 -706s-19 -7 -56 -7c-34 0 -44 7 -44 7l-24 176h-296l-99 -176s-25 -7 -57 -7c-31 0 -46 7 -46 7zM396 614h-3l-193 -348h238l-35 258c-7 52 -7 90 -7 90z" />
    <glyph glyph-name="uni0411" unicode="&#x411;" horiz-adv-x="619" 
d="M179 720h414s5 -16 -1 -44c-6 -26 -18 -44 -18 -44h-312l-44 -208h173c130 0 191 -95 164 -223c-27 -127 -124 -201 -254 -201h-275zM201 345l-56 -266h154c85 0 138 52 155 133c17 82 -14 133 -99 133h-154z" />
    <glyph glyph-name="uni0412" unicode="&#x412;" horiz-adv-x="627" 
d="M179 720h268c129 0 173 -94 149 -208c-18 -83 -68 -122 -108 -145c38 -22 82 -75 61 -174c-26 -121 -115 -193 -251 -193h-272zM214 403h144c81 0 124 50 139 119c15 71 -7 119 -90 119h-143zM145 79h151c90 0 137 46 153 124c18 84 -14 124 -102 124h-150z" />
    <glyph glyph-name="uni0413" unicode="&#x413;" horiz-adv-x="509" 
d="M179 720h388s5 -15 -1 -43c-5 -25 -18 -45 -18 -45h-286l-133 -625s-19 -7 -53 -7c-33 0 -49 7 -49 7z" />
    <glyph glyph-name="uni0414" unicode="&#x414;" horiz-adv-x="700" 
d="M530 83h78l-47 -221c-14 -4 -30 -8 -47 -8c-18 0 -33 3 -45 8l29 138h-452l-29 -138c-14 -4 -30 -7 -48 -7c-17 0 -32 3 -43 7l47 221h55c51 38 95 126 141 284l102 353h394zM345 643l-80 -282c-36 -125 -77 -219 -121 -278h285l119 560h-203z" />
    <glyph glyph-name="uni0415" unicode="&#x415;" horiz-adv-x="556" 
d="M179 720h406c1 -12 3 -25 0 -39c-4 -16 -10 -31 -18 -44h-304l-49 -230h254c2 -13 3 -26 0 -40c-3 -15 -9 -29 -17 -43h-254l-51 -241h314c1 -13 2 -26 -1 -40c-3 -15 -9 -29 -17 -43h-416z" />
    <glyph glyph-name="uni0416" unicode="&#x416;" horiz-adv-x="924" 
d="M859 713c13 3 35 7 56 7c20 0 42 -4 56 -7l-284 -337l164 -369s-21 -7 -61 -7c-37 0 -52 7 -52 7l-142 326h-75l-70 -326s-16 -7 -52 -7c-32 0 -49 7 -49 7l70 326h-75l-278 -326s-22 -7 -59 -7c-40 0 -59 7 -59 7l326 384l-144 322c14 3 34 7 55 7c20 0 41 -4 54 -7
l124 -298h73l64 298s18 7 52 7c33 0 49 -7 49 -7l-64 -298h67z" />
    <glyph glyph-name="uni0417" unicode="&#x417;" horiz-adv-x="552" 
d="M128 695c0 0 81 35 196 35c158 0 224 -84 198 -206c-19 -92 -74 -132 -126 -154l-1 -3c51 -22 98 -76 76 -180c-25 -118 -120 -197 -314 -197c-126 0 -182 33 -182 33c5 30 23 60 45 78c30 -10 82 -22 142 -22c118 0 189 41 207 122c21 99 -43 124 -139 124h-68
c-4 26 3 60 18 84h68c85 0 151 26 171 118c17 82 -36 117 -122 117c-85 0 -153 -23 -153 -23c-19 17 -24 44 -16 74z" />
    <glyph glyph-name="uni0418" unicode="&#x418;" horiz-adv-x="693" 
d="M573 713c0 0 19 7 60 7s57 -7 57 -7l-151 -706s-17 -7 -51 -7c-37 0 -50 7 -50 7l70 328c36 169 60 243 60 243h-3s-29 -52 -135 -199l-282 -372c-1 0 -23 -7 -63 -7c-44 0 -59 7 -59 7l151 706s18 7 51 7c35 0 51 -7 51 -7l-71 -330c-32 -150 -60 -253 -60 -253h3
c22 45 81 130 142 214z" />
    <glyph glyph-name="uni0419" unicode="&#x419;" horiz-adv-x="693" 
d="M464 885c72 0 126 36 126 36c20 -7 33 -29 35 -52c0 0 -63 -66 -171 -66c-107 0 -157 66 -157 66c13 23 35 45 58 52c0 0 38 -36 109 -36zM573 713c0 0 19 7 60 7s57 -7 57 -7l-151 -706s-17 -7 -51 -7c-37 0 -50 7 -50 7l70 328c36 169 60 243 60 243h-3
s-29 -52 -135 -199l-282 -372c-1 0 -23 -7 -63 -7c-44 0 -59 7 -59 7l151 706s18 7 51 7c35 0 51 -7 51 -7l-71 -330c-32 -150 -60 -253 -60 -253h3c22 45 81 130 142 214z" />
    <glyph glyph-name="uni041A" unicode="&#x41a;" horiz-adv-x="616" 
d="M288 415l266 298c13 3 34 7 54 7c21 0 41 -4 56 -7l-298 -343l177 -363s-17 -7 -56 -7c-37 0 -58 7 -58 7l-153 326h-78l-70 -326s-16 -7 -52 -7c-32 0 -50 7 -50 7l151 706s19 7 53 7c33 0 49 -7 49 -7l-64 -298h73z" />
    <glyph glyph-name="uni041B" unicode="&#x41b;" horiz-adv-x="673" 
d="M8 -5c-21 0 -36 3 -48 7c-1 11 -2 24 1 37c3 14 8 26 16 39c7 -1 18 -2 33 0c35 4 102 40 183 320l93 322h385l-152 -713s-18 -7 -51 -7c-37 0 -51 7 -50 7l135 634h-194l-71 -245c-104 -362 -214 -401 -280 -401z" />
    <glyph glyph-name="uni041C" unicode="&#x41c;" horiz-adv-x="838" 
d="M700 713c19 4 49 7 70 7c40 0 65 -7 65 -7l-151 -706s-18 -7 -51 -7c-32 0 -50 7 -50 7l68 320c21 98 42 207 63 267h-5c-21 -45 -80 -127 -132 -201l-163 -220s-14 -5 -32 -5c-19 0 -27 5 -27 5l-69 216c-22 74 -45 160 -48 205h-4c0 -50 -23 -154 -43 -252l-72 -335
s-17 -7 -49 -7c-28 0 -44 7 -44 7l151 706s25 7 62 7c31 0 56 -7 56 -7l114 -405h4z" />
    <glyph glyph-name="uni041D" unicode="&#x41d;" horiz-adv-x="684" 
d="M515 413l64 300s19 7 52 7s50 -7 50 -7l-151 -706s-18 -7 -51 -7c-38 0 -51 7 -51 7l68 318h-300l-68 -318s-19 -7 -52 -7c-36 0 -50 7 -50 7l151 706s18 7 51 7c34 0 51 -7 51 -7l-64 -300h300z" />
    <glyph glyph-name="uni041E" unicode="&#x41e;" horiz-adv-x="676" 
d="M75 382c55 257 181 348 354 348s252 -127 196 -386c-55 -259 -178 -354 -353 -354s-252 133 -197 392zM525 360c47 221 -9 285 -114 285c-106 0 -189 -64 -236 -285c-46 -221 13 -285 115 -285c107 0 189 64 235 285z" />
    <glyph glyph-name="uni041F" unicode="&#x41f;" horiz-adv-x="672" 
d="M670 720l-152 -713s-18 -7 -51 -7c-37 0 -51 7 -51 7l133 625h-288l-133 -625s-19 -7 -51 -7c-37 0 -50 7 -50 7l152 713h491z" />
    <glyph glyph-name="uni0420" unicode="&#x420;" horiz-adv-x="604" 
d="M188 281l-59 -274s-18 -7 -51 -7c-37 0 -51 7 -51 7l152 713h261c132 0 190 -101 162 -232c-27 -130 -123 -207 -255 -207h-159zM206 366h146c79 0 132 50 150 134c18 85 -14 135 -93 135h-146z" />
    <glyph glyph-name="uni0421" unicode="&#x421;" horiz-adv-x="559" 
d="M73 374c52 242 173 356 365 356c111 0 164 -34 164 -34c-5 -33 -24 -56 -46 -76c0 0 -53 23 -124 23c-116 0 -210 -61 -258 -284c-47 -223 22 -280 138 -280c79 0 144 23 144 23c16 -19 19 -48 14 -78c0 0 -72 -34 -189 -34c-191 0 -259 140 -208 384z" />
    <glyph glyph-name="uni0422" unicode="&#x422;" horiz-adv-x="543" 
d="M121 720h479s4 -18 -1 -43c-6 -26 -18 -45 -18 -45h-186l-133 -625s-19 -7 -52 -7c-36 0 -50 7 -50 7l133 625h-191s-4 17 2 44c5 25 17 44 17 44z" />
    <glyph glyph-name="uni0423" unicode="&#x423;" horiz-adv-x="609" 
d="M572 713c0 0 18 7 51 7c30 0 49 -7 49 -7l-306 -520c-100 -170 -181 -193 -250 -193c-37 0 -69 9 -69 9c0 1 -4 17 2 41c4 21 12 39 13 41c0 0 35 -3 56 -3c45 0 78 13 139 105h-13l-144 520s19 7 56 7c41 0 53 -7 53 -7l88 -341c12 -48 14 -84 15 -88h3c2 4 21 43 50 91
z" />
    <glyph glyph-name="uni0424" unicode="&#x424;" horiz-adv-x="808" 
d="M430 656l15 70s19 7 52 7c34 0 50 -7 50 -7l-15 -70c177 0 291 -80 246 -294c-46 -214 -188 -266 -365 -266l-19 -89s-20 -7 -52 -7c-37 0 -50 7 -50 7l19 89c-177 0 -287 80 -241 294c45 214 183 266 360 266zM328 174l86 404c-116 0 -213 -40 -247 -202
c-35 -163 45 -202 161 -202zM516 578l-86 -404c115 0 212 40 247 202c35 163 -46 202 -161 202z" />
    <glyph glyph-name="uni0425" unicode="&#x425;" horiz-adv-x="623" 
d="M678 713l-295 -340l163 -364s-23 -9 -61 -9c-36 0 -45 8 -45 8l-127 284l-247 -285c-13 -4 -37 -7 -57 -7c-23 0 -45 2 -59 7l324 372l-149 334s21 7 60 7c34 0 46 -7 46 -7l113 -253l221 253c15 4 38 7 60 7c23 0 40 -3 53 -7z" />
    <glyph glyph-name="uni0426" unicode="&#x426;" horiz-adv-x="707" 
d="M25 0l152 713s16 7 52 7c32 0 50 -7 50 -7l-133 -625h290l133 625s16 7 53 7c33 0 49 -7 49 -7l-133 -625h77l-48 -226c-14 -5 -31 -8 -46 -8c-17 0 -32 2 -45 8l29 138h-480z" />
    <glyph glyph-name="uni0427" unicode="&#x427;" horiz-adv-x="640" 
d="M467 396l68 317s19 7 52 7s50 -7 50 -7l-151 -706s-18 -7 -51 -7c-37 0 -51 7 -51 7l64 301c-23 -10 -87 -31 -171 -31c-139 0 -217 55 -180 232l44 204s18 7 52 7c33 0 50 -7 50 -7l-44 -204c-23 -111 18 -144 112 -144c75 0 135 22 156 31z" />
    <glyph glyph-name="uni0428" unicode="&#x428;" horiz-adv-x="955" 
d="M25 0l152 713s16 7 52 7c33 0 50 -7 50 -7l-133 -625h235l133 625s15 7 53 7c34 0 49 -7 49 -7l-133 -625h235l133 625s15 7 52 7c34 0 49 -7 49 -7l-152 -713h-775z" />
    <glyph glyph-name="uni0429" unicode="&#x429;" horiz-adv-x="988" 
d="M25 0l152 713s16 7 52 7c33 0 50 -7 50 -7l-133 -625h235l133 625s16 7 53 7c33 0 49 -7 49 -7l-133 -625h235l133 625s16 7 52 7c34 0 49 -7 49 -7l-133 -625h77l-48 -226c-15 -6 -31 -8 -47 -8s-31 2 -44 8l29 138h-761z" />
    <glyph glyph-name="uni042A" unicode="&#x42a;" horiz-adv-x="710" 
d="M311 427h171c132 0 195 -96 167 -224c-27 -128 -126 -203 -258 -203h-273l134 632h-154s-4 17 1 43c6 26 18 45 18 45h256zM293 342l-55 -257h158c80 0 133 48 150 129c17 80 -15 128 -95 128h-158z" />
    <glyph glyph-name="uni042B" unicode="&#x42b;" horiz-adv-x="876" 
d="M177 713c0 0 16 7 53 7c33 0 49 -7 49 -7l-61 -286h171c132 0 197 -99 169 -227c-27 -128 -128 -200 -260 -200h-273zM772 713c0 0 17 7 51 7s50 -7 50 -7l-151 -706s-18 -7 -51 -7c-37 0 -50 7 -50 7zM200 342l-55 -257h158c80 0 133 48 150 129c17 80 -15 128 -95 128
h-158z" />
    <glyph glyph-name="uni042C" unicode="&#x42c;" horiz-adv-x="619" 
d="M218 427h171c132 0 197 -98 169 -226c-27 -128 -128 -201 -260 -201h-273l152 713s16 7 53 7c33 0 49 -7 49 -7zM145 85h158c80 0 133 48 150 129c17 80 -15 128 -95 128h-158z" />
    <glyph glyph-name="uni042D" unicode="&#x42d;" horiz-adv-x="584" 
d="M127 696c0 0 73 34 188 34c197 0 272 -140 220 -382c-51 -244 -180 -358 -377 -358c-122 0 -184 34 -184 34c6 30 24 60 46 77c0 0 61 -23 145 -23c114 0 208 52 257 246h-258s-5 17 1 43c5 26 16 40 16 40h258c27 183 -43 237 -154 237c-76 0 -144 -23 -144 -23
c-17 19 -20 49 -14 75z" />
    <glyph glyph-name="uni042E" unicode="&#x42e;" horiz-adv-x="955" 
d="M27 7l151 706s18 7 51 7c34 0 51 -7 51 -7l-67 -311h141c60 227 185 328 351 328c175 0 257 -119 201 -378c-55 -259 -183 -362 -358 -362c-167 0 -249 99 -211 328h-141l-67 -311s-20 -7 -52 -7c-36 0 -50 7 -50 7zM687 645c-107 0 -190 -64 -237 -285
c-46 -221 9 -285 116 -285s189 64 235 285c47 221 -7 285 -114 285z" />
    <glyph glyph-name="uni042F" unicode="&#x42f;" horiz-adv-x="629" 
d="M627 720l-152 -713s-16 -7 -53 -7c-33 0 -49 7 -49 7l60 281h-125l-217 -281s-22 -7 -59 -7s-56 7 -56 7l230 294c-84 27 -115 110 -93 213c28 130 122 206 253 206h261zM507 635h-146c-78 0 -132 -48 -150 -131s8 -130 86 -130h154z" />
    <glyph glyph-name="uni0430" unicode="&#x430;" horiz-adv-x="554" 
d="M434 519c0 0 13 7 47 7c33 0 44 -7 44 -7l-109 -512s-18 -7 -43 -7s-44 7 -44 7l5 54c-38 -44 -90 -71 -165 -71c-114 0 -167 93 -124 289c45 204 135 257 240 257c70 0 111 -21 131 -69zM385 329c13 67 -18 125 -87 125c-71 0 -122 -42 -156 -191
c-32 -141 -9 -191 71 -191c70 0 130 59 144 128z" />
    <glyph glyph-name="uni0431" unicode="&#x431;" horiz-adv-x="571" 
d="M73 351c63 298 165 327 393 368c38 7 47 14 67 38c28 -3 50 -15 58 -37c-25 -54 -60 -79 -120 -89c-194 -34 -254 -47 -303 -212h2c38 57 92 95 179 95c125 0 200 -73 160 -262c-41 -189 -134 -262 -272 -262c-136 0 -227 67 -164 361zM324 437c-71 0 -128 -33 -160 -185
c-32 -149 10 -185 81 -185s129 36 161 185c31 149 -15 185 -82 185z" />
    <glyph glyph-name="uni0432" unicode="&#x432;" horiz-adv-x="517" 
d="M351 526c89 0 131 -63 113 -149c-11 -53 -41 -93 -83 -115c46 -22 65 -64 52 -124c-19 -91 -88 -138 -190 -138h-234l112 526h230zM172 301h105c49 0 81 31 90 77c10 46 -9 76 -58 76h-105zM123 72h111c55 0 89 28 100 78c10 49 -7 80 -66 80h-111z" />
    <glyph glyph-name="uni0433" unicode="&#x433;" horiz-adv-x="407" 
d="M121 526h306s4 -17 -1 -42c-5 -24 -17 -40 -17 -40h-206l-93 -437s-18 -7 -51 -7c-35 0 -49 7 -49 7z" />
    <glyph glyph-name="uni0434" unicode="&#x434;" horiz-adv-x="586" 
d="M-24 74h38c35 23 67 79 107 214l70 238h338l-96 -452h63l-42 -195c-10 -4 -25 -7 -43 -7c-19 0 -37 3 -49 7l26 121h-337l-26 -121c-11 -4 -28 -7 -46 -7c-19 0 -36 2 -45 7zM257 449l-47 -165c-29 -101 -58 -164 -89 -210h213l79 375h-156z" />
    <glyph glyph-name="uni0435" unicode="&#x435;" 
d="M440 232h-305c-17 -119 17 -157 106 -157c71 0 124 29 124 29c15 -16 22 -45 17 -74c0 0 -66 -40 -175 -40c-154 0 -204 108 -163 289c41 182 142 257 275 257c119 0 182 -68 154 -201c-13 -63 -33 -103 -33 -103zM380 348c12 59 -4 109 -78 109
c-65 0 -120 -43 -152 -154h217c3 8 8 24 13 45z" />
    <glyph glyph-name="uni0436" unicode="&#x436;" horiz-adv-x="759" 
d="M664 519c0 0 25 7 57 7c29 0 47 -7 47 -7l-190 -246l104 -266s-18 -7 -56 -7c-34 0 -50 7 -50 7l-85 230h-75l-49 -230s-19 -7 -50 -7c-32 0 -49 7 -49 7l49 230h-70l-185 -230s-21 -7 -55 -7c-39 0 -53 8 -53 8l222 277l-91 234s22 7 53 7c32 0 48 -7 48 -7l77 -207h70
l44 207s20 7 52 7c29 0 47 -7 47 -7l-44 -207h70z" />
    <glyph glyph-name="uni0437" unicode="&#x437;" horiz-adv-x="457" 
d="M87 511c0 0 52 25 165 25c135 0 176 -63 156 -156c-12 -57 -41 -91 -93 -111v-2c49 -20 73 -61 60 -121c-19 -90 -88 -156 -252 -156c-100 0 -153 30 -153 30c6 25 20 51 43 69c0 0 44 -19 124 -19s125 24 137 81c12 55 -20 78 -92 78h-70s-4 16 1 39c4 21 15 36 15 36
h70c61 0 100 21 112 77c12 58 -25 78 -91 78c-68 0 -120 -16 -120 -16c-14 16 -17 40 -12 68z" />
    <glyph glyph-name="uni0438" unicode="&#x438;" horiz-adv-x="578" 
d="M449 519c0 0 20 7 52 7c31 0 49 -7 49 -7l-109 -512s-20 -7 -49 -7c-31 0 -51 7 -51 7l44 204c23 108 41 178 43 180h-3c5 -2 -60 -84 -114 -151l-200 -233s-20 -7 -52 -7c-31 0 -49 7 -49 7l109 512s20 7 50 7c33 0 50 -7 50 -7l-44 -206c-17 -84 -40 -177 -43 -178h3
s28 45 65 90z" />
    <glyph glyph-name="uni0439" unicode="&#x439;" horiz-adv-x="578" 
d="M371 689c67 0 114 32 114 32c20 -6 32 -26 33 -47c0 0 -57 -61 -157 -61s-143 61 -143 61c11 21 32 40 53 47c0 0 33 -32 100 -32zM449 519c0 0 20 7 52 7c31 0 49 -7 49 -7l-109 -512s-20 -7 -49 -7c-31 0 -51 7 -51 7l44 204c23 108 41 178 43 180h-3s-26 -43 -66 -92
l-248 -292s-20 -7 -52 -7c-31 0 -49 7 -49 7l109 512s20 7 50 7c33 0 50 -7 50 -7l-44 -206c-18 -85 -40 -178 -43 -178h3s28 45 65 90z" />
    <glyph glyph-name="uni043A" unicode="&#x43a;" horiz-adv-x="501" 
d="M232 312l172 207s25 7 55 7c29 0 53 -6 53 -6l-210 -248l123 -265s-20 -7 -59 -7c-34 0 -47 7 -47 7l-101 230h-59l-49 -230s-21 -7 -50 -7c-32 0 -50 7 -50 7l109 512s20 7 53 7c28 0 47 -7 47 -7l-44 -207h57z" />
    <glyph glyph-name="uni043B" unicode="&#x43b;" horiz-adv-x="555" 
d="M221 290c-76 -255 -134 -296 -210 -296c-24 0 -53 7 -53 7s-4 13 0 34c4 19 15 35 15 35s25 -3 44 0c34 5 65 57 113 224l68 232h329l-111 -519s-22 -7 -49 -7c-32 0 -50 7 -50 7l94 442h-144z" />
    <glyph glyph-name="uni043C" unicode="&#x43c;" horiz-adv-x="669" 
d="M524 519c0 0 32 7 65 7c30 0 52 -7 52 -7l-109 -512s-16 -7 -48 -7c-31 0 -48 7 -48 7l51 238c20 93 38 146 40 150h-4c-3 -4 -18 -32 -56 -83l-152 -199s-10 -5 -25 -5s-23 5 -23 5l-65 193c-17 55 -21 84 -22 89h-3c0 -5 -5 -58 -25 -151l-51 -237s-20 -7 -47 -7
c-26 0 -44 7 -44 7l109 512s27 7 58 7c34 0 44 -7 44 -7l89 -288h3z" />
    <glyph glyph-name="uni043D" unicode="&#x43d;" horiz-adv-x="561" 
d="M158 230l-48 -223s-19 -7 -52 -7c-32 0 -48 7 -48 7l109 512s18 7 52 7c31 0 48 -7 48 -7l-44 -208h214l44 208s22 7 52 7c32 0 48 -7 48 -7l-109 -512s-18 -7 -52 -7c-30 0 -48 7 -48 7l48 223h-214z" />
    <glyph glyph-name="uni043E" unicode="&#x43e;" horiz-adv-x="540" 
d="M44 275c42 198 135 261 272 261c138 0 205 -83 163 -281s-133 -265 -270 -265s-207 87 -165 285zM381 263c33 154 -4 195 -77 195s-129 -41 -162 -195s5 -195 78 -195s128 41 161 195z" />
    <glyph glyph-name="uni043F" unicode="&#x43f;" horiz-adv-x="552" 
d="M203 443l-93 -436s-21 -7 -52 -7s-48 7 -48 7l111 519h404l-111 -519s-20 -7 -52 -7c-28 0 -48 7 -48 7l93 436h-204z" />
    <glyph glyph-name="uni0440" unicode="&#x440;" horiz-adv-x="555" 
d="M209 471c37 41 87 65 158 65c114 0 168 -79 125 -283s-131 -263 -245 -263c-66 0 -107 24 -126 65l-60 -280s-18 -6 -52 -6c-33 0 -48 6 -48 6l158 744s18 7 51 7c34 0 49 -7 49 -7zM394 263c32 149 5 191 -75 191c-70 0 -126 -58 -140 -126l-28 -128
c-14 -69 15 -128 85 -128c80 0 126 42 158 191z" />
    <glyph glyph-name="uni0441" unicode="&#x441;" horiz-adv-x="444" 
d="M316 454c-96 0 -147 -61 -174 -191c-28 -131 2 -188 98 -188c55 0 98 17 98 17c13 -15 18 -44 13 -72c0 0 -50 -30 -150 -30c-146 0 -195 110 -157 288s127 258 273 258c96 0 129 -25 129 -25c-6 -27 -23 -55 -45 -72c0 0 -32 15 -85 15z" />
    <glyph glyph-name="uni0442" unicode="&#x442;" horiz-adv-x="451" 
d="M74 526h398s4 -16 -1 -42c-6 -26 -17 -42 -17 -42h-149l-93 -435s-18 -7 -51 -7c-35 0 -49 7 -49 7l93 435h-149s-6 16 0 42c5 26 18 42 18 42z" />
    <glyph glyph-name="uni0443" unicode="&#x443;" horiz-adv-x="550" 
d="M421 519c0 0 20 7 52 7c35 0 48 -7 48 -7l-106 -502c-41 -191 -123 -267 -289 -267c-103 0 -149 36 -149 36c7 26 23 52 43 67c0 0 46 -22 110 -22c94 0 153 14 185 179l7 36c-44 -41 -89 -56 -151 -56c-105 0 -154 65 -132 168l76 361s19 7 52 7c34 0 48 -7 48 -7
l-76 -360c-12 -56 10 -88 74 -88c44 0 91 23 127 64z" />
    <glyph glyph-name="uni0444" unicode="&#x444;" horiz-adv-x="782" 
d="M433 743c0 0 16 7 51 7c33 0 49 -7 49 -7l-48 -226s43 19 103 19c134 -1 169 -105 131 -283s-113 -263 -247 -263c-60 0 -94 22 -94 22l-55 -255s-18 -7 -51 -7c-35 0 -49 7 -49 7l55 255s-44 -22 -104 -22c-134 0 -168 103 -130 281s112 265 246 265c59 0 95 -19 95 -19
zM372 439c-1 -1 -25 20 -82 20c-74 0 -118 -56 -148 -196s-10 -195 64 -195c52 0 93 24 93 24zM619 263c30 140 11 196 -64 196c-57 0 -91 -21 -92 -20l-73 -347s29 -24 81 -24c75 0 118 55 148 195z" />
    <glyph glyph-name="uni0445" unicode="&#x445;" horiz-adv-x="534" 
d="M209 273l-117 246s22 7 57 7c36 0 46 -7 46 -7l85 -173l152 173s26 7 57 7c34 0 50 -7 50 -7l-221 -250l124 -262s-21 -7 -56 -7c-36 0 -46 7 -46 7l-91 189l-168 -189s-27 -7 -58 -7c-33 0 -51 7 -51 7z" />
    <glyph glyph-name="uni0446" unicode="&#x446;" horiz-adv-x="582" 
d="M424 519c0 0 20 7 51 7s48 -7 48 -7l-92 -436h63l-44 -204c-11 -4 -26 -7 -44 -7c-20 0 -38 2 -47 7l26 121h-376l110 519s19 7 51 7c35 0 48 -7 48 -7l-92 -436h206z" />
    <glyph glyph-name="uni0447" unicode="&#x447;" horiz-adv-x="523" 
d="M495 519l-109 -512s-17 -7 -52 -7c-32 0 -48 7 -48 7l44 203c-8 -4 -48 -20 -119 -20c-123 0 -180 51 -155 168l34 161s21 7 52 7s48 -7 48 -7l-34 -162c-13 -61 12 -88 82 -88c61 0 101 17 109 22l48 228s19 7 51 7c35 0 49 -7 49 -7z" />
    <glyph glyph-name="uni0448" unicode="&#x448;" horiz-adv-x="761" 
d="M9 0l110 519s16 7 51 7c34 0 49 -7 49 -7l-92 -436h156l92 436s17 7 51 7s49 -7 49 -7l-92 -436h157l92 436s16 7 51 7c34 0 49 -7 49 -7l-110 -519h-613z" />
    <glyph glyph-name="uni0449" unicode="&#x449;" horiz-adv-x="791" 
d="M703 83l-44 -204c-11 -4 -28 -7 -47 -7s-35 2 -45 7l26 121h-584l110 519s16 7 51 7c34 0 49 -7 49 -7l-92 -436h156l92 436s17 7 51 7s49 -7 49 -7l-92 -436h157l92 436s16 7 51 7c34 0 49 -7 49 -7l-92 -436h63z" />
    <glyph glyph-name="uni044A" unicode="&#x44a;" horiz-adv-x="573" 
d="M246 316h131c101 0 149 -75 129 -169c-21 -95 -95 -147 -196 -147h-231l94 442h-116c-4 12 -5 26 -1 43c3 16 11 31 19 41h216zM194 72h113c52 0 87 32 98 85c12 53 -9 86 -61 86h-113z" />
    <glyph glyph-name="uni044B" unicode="&#x44b;" horiz-adv-x="726" 
d="M119 519c14 5 32 7 51 7c20 0 37 -2 49 -7l-43 -203h131c101 0 148 -71 128 -165c-21 -95 -94 -151 -195 -151h-231zM598 519c14 5 32 7 52 7c19 0 36 -2 48 -7l-109 -512c-14 -5 -32 -7 -52 -7c-19 0 -36 2 -48 7zM161 243l-37 -171h113c52 0 87 32 98 85
c12 53 -9 86 -61 86h-113z" />
    <glyph glyph-name="uni044C" unicode="&#x44c;" horiz-adv-x="503" 
d="M176 316h131c101 0 149 -72 129 -166c-21 -95 -95 -150 -196 -150h-231l110 519c14 5 32 7 51 7c20 0 37 -2 49 -7zM124 72h113c52 0 87 32 98 85c12 53 -9 86 -61 86h-113z" />
    <glyph glyph-name="uni044D" unicode="&#x44d;" horiz-adv-x="458" 
d="M289 228h-190c0 1 -4 14 1 37s14 36 15 38h189c14 103 -18 156 -103 156c-57 0 -102 -15 -102 -15c-13 16 -17 41 -12 67c0 0 52 25 148 25c147 0 200 -104 162 -282s-133 -264 -279 -264c-99 0 -146 30 -146 30c8 30 23 54 43 68c0 0 41 -17 99 -17c87 0 145 51 175 157
z" />
    <glyph glyph-name="uni044E" unicode="&#x44e;" horiz-adv-x="780" 
d="M284 301c47 169 143 235 272 235c138 0 205 -81 163 -279s-141 -267 -279 -267c-127 0 -196 63 -174 227h-111l-45 -210c-14 -5 -32 -7 -52 -7c-19 0 -36 2 -48 7l109 512c14 5 32 7 52 7c19 0 36 -2 48 -7l-46 -218h111zM618 263c33 154 -5 196 -78 196
c-74 0 -131 -42 -164 -196s6 -196 80 -196c73 0 129 42 162 196z" />
    <glyph glyph-name="uni044F" unicode="&#x44f;" horiz-adv-x="524" 
d="M231 202l-150 -195c-13 -4 -32 -7 -59 -7c-22 0 -39 3 -52 7l167 210c-56 23 -75 84 -60 155c21 96 93 154 199 154h221l-111 -519c-14 -5 -31 -7 -50 -7c-20 0 -38 2 -50 7l42 195h-97zM278 454c-57 0 -93 -35 -105 -90c-11 -53 5 -89 62 -89h108l38 179h-103z" />
    <glyph glyph-name="uni0451" unicode="&#x451;" 
d="M307 703l-17 -81s-17 -6 -46 -6c-31 0 -45 6 -45 6l17 81s17 6 48 6c29 0 43 -6 43 -6zM477 703l-17 -81s-17 -6 -47 -6c-31 0 -44 6 -44 6l17 81s16 6 47 6c30 0 44 -6 44 -6zM440 232h-305c-17 -119 17 -157 106 -157c71 0 124 29 124 29c15 -16 22 -45 17 -74
c0 0 -66 -40 -175 -40c-154 0 -204 108 -163 289c41 182 142 257 275 257c119 0 182 -68 154 -201c-13 -63 -33 -103 -33 -103zM380 348c12 59 -4 109 -78 109c-65 0 -120 -43 -152 -154h217c3 8 8 24 13 45z" />
    <glyph glyph-name="uni2113" unicode="&#x2113;" horiz-adv-x="465" 
d="M161 536c25 118 76 214 213 214c105 0 141 -61 123 -149c-26 -121 -138 -243 -296 -342l-23 -109c-12 -58 9 -75 47 -75c60 0 118 53 118 53c25 -7 38 -25 38 -49c0 0 -83 -89 -202 -89c-85 0 -125 42 -97 174l7 33c-19 -10 -47 -23 -67 -32c-16 14 -23 35 -15 66
c35 15 69 33 100 51zM404 601c10 50 0 79 -43 79c-45 0 -76 -26 -98 -131l-40 -186c99 80 165 166 181 238z" />
    <glyph glyph-name="uni2117" unicode="&#x2117;" horiz-adv-x="800" 
d="M62 340c41 191 229 345 420 345s312 -154 271 -345c-40 -191 -227 -346 -418 -346s-313 155 -273 346zM687 340c33 155 -64 279 -219 279s-307 -124 -340 -279s66 -280 221 -280s305 125 338 280zM338 523h149c79 0 119 -52 103 -128c-17 -78 -79 -129 -158 -129h-80
l-25 -121c-22 -9 -50 -9 -69 0zM395 464l-30 -137h73c41 0 70 23 80 68c9 44 -9 69 -50 69h-73z" />
    <glyph glyph-name="uni2153" unicode="&#x2153;" horiz-adv-x="721" 
d="M574 696c0 0 13 6 39 6c25 0 36 -6 36 -6l-536 -700s-16 -6 -38 -6c-21 0 -36 6 -36 6zM212 684c11 3 22 4 34 4c11 0 22 -1 31 -4l-71 -335c-10 -2 -22 -4 -33 -4c-12 0 -23 1 -35 4l46 215c3 16 6 29 10 41c-26 -17 -59 -31 -92 -36c-11 12 -12 34 -6 54
c49 12 85 33 116 61zM461 331c0 0 41 17 97 17c76 0 115 -33 102 -92c-7 -35 -24 -59 -59 -75c30 -14 46 -39 36 -86c-12 -59 -58 -100 -160 -100c-60 0 -92 19 -92 19c4 17 14 37 29 48c0 0 31 -11 71 -11c55 0 78 20 85 51c7 35 -10 50 -51 50h-46c-3 17 1 37 12 54h46
c36 0 54 17 60 42c6 31 -12 44 -50 44s-74 -9 -74 -9c-8 10 -11 29 -6 48z" />
    <glyph glyph-name="uni2154" unicode="&#x2154;" horiz-adv-x="784" 
d="M103 -4l535 700s13 6 39 6c25 0 36 -6 36 -6l-536 -700s-16 -6 -38 -6c-21 0 -36 6 -36 6zM59 387c29 136 197 126 214 204c6 29 -15 46 -54 47c-28 0 -60 -6 -70 -10c-10 14 -12 32 -6 50c0 0 43 16 98 16c72 0 115 -34 101 -99c-23 -112 -161 -103 -211 -190h158
c2 -10 2 -20 0 -30s-7 -20 -12 -29h-222s-1 18 4 41zM701 95c-12 -59 -58 -100 -160 -100c-60 0 -92 19 -92 19c4 17 14 37 29 48c0 0 31 -11 71 -11c55 0 78 20 85 51c7 35 -10 50 -51 50h-46c-3 17 1 37 12 54h46c36 0 54 17 60 42c6 31 -12 44 -50 44s-74 -9 -74 -9
c-8 10 -11 29 -6 48c0 0 41 17 97 17c76 0 115 -33 102 -92c-7 -35 -24 -59 -59 -75c30 -14 46 -39 36 -86z" />
    <glyph glyph-name="uni2196" unicode="&#x2196;" horiz-adv-x="512" 
d="M118 544h316c2 -9 2 -19 -1 -30c-2 -10 -6 -20 -12 -30h-208l236 -299c-12 -23 -36 -41 -59 -49l-236 300l-44 -209c-11 -4 -21 -5 -31 -5c-11 0 -21 1 -29 5z" />
    <glyph glyph-name="uni2197" unicode="&#x2197;" horiz-adv-x="516" 
d="M498 544l-68 -317c-10 -4 -20 -5 -31 -5c-10 0 -20 1 -29 5l45 209l-363 -300c-19 8 -37 26 -39 49l364 299h-208c-2 10 -2 20 0 30c3 11 7 21 13 30h316z" />
    <glyph glyph-name="uni2198" unicode="&#x2198;" 
d="M366 240l44 209c11 4 21 5 31 5c11 0 21 -1 29 -5l-67 -317h-316c-2 9 -2 19 0 30c3 10 7 20 13 30h208l-237 299c12 22 36 41 60 49z" />
    <glyph glyph-name="uni2199" unicode="&#x2199;" horiz-adv-x="515" 
d="M118 240l363 300c20 -8 36 -26 39 -48l-364 -300h208c2 -10 2 -20 -1 -30c-2 -10 -6 -20 -12 -29h-316l67 316c10 4 21 6 32 6c10 0 19 -2 28 -6z" />
    <glyph glyph-name="uni2215" unicode="&#x2215;" horiz-adv-x="481" 
d="M-58 -4l535 700s13 6 40 6c26 0 37 -6 37 -6l-536 -700s-16 -6 -40 -6c-22 0 -36 6 -36 6z" />
    <glyph glyph-name="uni2219" unicode="&#x2219;" horiz-adv-x="244" 
d="M115 279c-29 0 -54 19 -46 57s41 57 70 57s54 -19 46 -57s-41 -57 -70 -57z" />
    <glyph glyph-name="uogonek" unicode="&#x173;" horiz-adv-x="551" 
d="M422 519c0 0 20 7 52 7c35 0 48 -7 48 -7l-109 -513c-61 -18 -103 -55 -113 -102c-7 -33 20 -39 49 -39c19 0 34 7 34 7c9 -9 10 -28 6 -45c0 0 -34 -18 -72 -18c-56 0 -97 29 -85 86c9 43 39 83 83 107l8 51c-44 -41 -92 -63 -154 -63c-106 0 -149 74 -128 174l75 355
s19 7 52 7c34 0 48 -7 48 -7l-76 -360c-12 -56 10 -88 74 -88c44 0 91 23 127 64z" />
    <glyph glyph-name="uring" unicode="&#x16f;" horiz-adv-x="549" 
d="M238 701c15 72 82 110 143 110c60 0 113 -37 98 -110c-15 -72 -80 -112 -146 -112c-67 0 -110 40 -95 112zM421 701c6 30 -8 59 -51 59c-42 0 -69 -30 -75 -59c-6 -30 7 -60 49 -60c43 0 71 31 77 60zM40 163l75 356s19 7 52 7c34 0 48 -7 48 -7l-76 -360
c-12 -56 10 -88 74 -88c44 0 91 23 127 64l81 384s20 7 52 7c35 0 48 -7 48 -7l-109 -512s-12 -7 -47 -7c-32 0 -46 7 -46 7l3 46c-44 -45 -89 -62 -151 -62c-114 0 -150 82 -131 172z" />
    <glyph glyph-name="utilde" unicode="&#x169;" horiz-adv-x="549" 
d="M208 667c0 0 31 49 91 49c58 0 75 -33 115 -33c31 0 54 27 54 27c17 -8 27 -26 27 -46c0 0 -31 -48 -91 -48c-57 0 -74 33 -115 33c-31 0 -54 -28 -54 -28c-19 11 -28 25 -27 46zM40 163l75 356s19 7 52 7c34 0 48 -7 48 -7l-76 -360c-12 -56 10 -88 74 -88
c44 0 91 23 127 64l81 384s20 7 52 7c35 0 48 -7 48 -7l-109 -512s-12 -7 -47 -7c-32 0 -46 7 -46 7l3 46c-44 -45 -89 -62 -151 -62c-114 0 -150 82 -131 172z" />
    <glyph glyph-name="v" unicode="v" horiz-adv-x="516" 
d="M163 519l41 -315c7 -56 6 -107 6 -107h4s22 50 53 107l173 315s23 7 52 7c31 0 48 -7 48 -7l-285 -512s-26 -7 -61 -7c-37 0 -59 7 -59 7l-71 512s21 7 54 7c35 0 45 -7 45 -7z" />
    <glyph glyph-name="w" unicode="w" horiz-adv-x="796" 
d="M442 7l-19 271c-4 68 -1 113 4 144h-4c-9 -31 -25 -77 -59 -144l-137 -271c-17 -5 -36 -7 -58 -7c-21 0 -41 2 -57 7l-42 512s13 7 45 7c25 0 43 -7 43 -7l29 -319c4 -43 2 -77 1 -98h3c8 22 20 54 42 98l158 319s26 7 56 7c33 0 47 -7 47 -7l21 -317
c3 -45 1 -79 -1 -100h3c8 21 23 53 46 99l159 318s21 7 49 7c31 0 46 -7 46 -7l-260 -512c-19 -5 -37 -7 -58 -7s-39 2 -57 7z" />
    <glyph glyph-name="wacute" unicode="&#x1e83;" horiz-adv-x="796" 
d="M585 739l-154 -135c-23 4 -42 14 -50 31l125 141c33 4 69 -14 79 -37zM442 7l-19 271c-4 68 -1 113 4 144h-4c-9 -31 -25 -77 -59 -144l-137 -271c-17 -5 -36 -7 -58 -7c-21 0 -41 2 -57 7l-42 512s13 7 45 7c25 0 43 -7 43 -7l29 -319c4 -43 2 -77 1 -98h3
c8 22 20 54 42 98l158 319s26 7 56 7c33 0 47 -7 47 -7l21 -317c3 -45 1 -79 -1 -100h3c8 21 23 53 46 99l159 318s21 7 49 7c31 0 46 -7 46 -7l-260 -512c-19 -5 -37 -7 -58 -7s-39 2 -57 7z" />
    <glyph glyph-name="wcircumflex" unicode="&#x175;" horiz-adv-x="796" 
d="M498 750l117 -106c-14 -20 -33 -37 -54 -44l-87 69l-117 -68c-19 7 -31 23 -37 43l153 106h25zM442 7l-19 271c-4 68 -1 113 4 144h-4c-9 -31 -25 -77 -59 -144l-137 -271c-17 -5 -36 -7 -58 -7c-21 0 -41 2 -57 7l-42 512s13 7 45 7c25 0 43 -7 43 -7l29 -319
c4 -43 2 -77 1 -98h3c8 22 20 54 42 98l158 319s26 7 56 7c33 0 47 -7 47 -7l21 -317c3 -45 1 -79 -1 -100h3c8 21 23 53 46 99l159 318s21 7 49 7c31 0 46 -7 46 -7l-260 -512c-19 -5 -37 -7 -58 -7s-39 2 -57 7z" />
    <glyph glyph-name="wdieresis" unicode="&#x1e85;" horiz-adv-x="796" 
d="M439 703l-17 -81s-16 -6 -46 -6c-31 0 -45 6 -45 6l17 81s17 6 48 6c30 0 43 -6 43 -6zM609 703l-17 -81s-17 -6 -46 -6c-31 0 -45 6 -45 6l17 81s17 6 48 6c29 0 43 -6 43 -6zM442 7l-19 271c-4 68 -1 113 4 144h-4c-9 -31 -25 -77 -59 -144l-137 -271
c-17 -5 -36 -7 -58 -7c-21 0 -41 2 -57 7l-42 512s13 7 45 7c25 0 43 -7 43 -7l29 -319c4 -43 2 -77 1 -98h3c8 22 20 54 42 98l158 319s26 7 56 7c33 0 47 -7 47 -7l21 -317c3 -45 1 -79 -1 -100h3c8 21 23 53 46 99l159 318s21 7 49 7c31 0 46 -7 46 -7l-260 -512
c-19 -5 -37 -7 -58 -7s-39 2 -57 7z" />
    <glyph glyph-name="wgrave" unicode="&#x1e81;" horiz-adv-x="796" 
d="M451 604l-96 135c19 23 57 41 88 37l65 -141c-16 -17 -32 -27 -57 -31zM442 7l-19 271c-4 68 -1 113 4 144h-4c-9 -31 -25 -77 -59 -144l-137 -271c-17 -5 -36 -7 -58 -7c-21 0 -41 2 -57 7l-42 512s13 7 45 7c25 0 43 -7 43 -7l29 -319c4 -43 2 -77 1 -98h3
c8 22 20 54 42 98l158 319s26 7 56 7c33 0 47 -7 47 -7l21 -317c3 -45 1 -79 -1 -100h3c8 21 23 53 46 99l159 318s21 7 49 7c31 0 46 -7 46 -7l-260 -512c-19 -5 -37 -7 -58 -7s-39 2 -57 7z" />
    <glyph glyph-name="x" unicode="x" horiz-adv-x="502" 
d="M190 273l-117 246s22 7 57 7c36 0 46 -7 46 -7l85 -173l152 173s26 7 57 7c34 0 50 -7 50 -7l-221 -250l124 -262s-21 -7 -56 -7c-36 0 -46 7 -46 7l-91 189l-168 -189s-27 -7 -58 -7c-33 0 -51 7 -51 7z" />
    <glyph glyph-name="y" unicode="y" horiz-adv-x="550" 
d="M421 519c0 0 20 7 52 7c35 0 48 -7 48 -7l-106 -502c-41 -191 -123 -267 -289 -267c-103 0 -149 36 -149 36c7 26 23 52 43 67c0 0 46 -22 110 -22c94 0 153 14 185 179l7 36c-44 -41 -89 -56 -151 -56c-105 0 -154 65 -132 168l76 361s19 7 52 7c34 0 48 -7 48 -7
l-76 -360c-12 -56 10 -88 74 -88c44 0 91 23 127 64z" />
    <glyph glyph-name="yacute" unicode="&#xfd;" horiz-adv-x="550" 
d="M421 519c0 0 20 7 52 7c35 0 48 -7 48 -7l-106 -502c-41 -191 -123 -267 -289 -267c-103 0 -149 36 -149 36c7 26 23 52 43 67c0 0 46 -22 110 -22c94 0 153 14 185 179l7 36c-44 -41 -89 -56 -151 -56c-105 0 -154 65 -132 168l76 361s19 7 52 7c34 0 48 -7 48 -7
l-76 -360c-12 -56 10 -88 74 -88c44 0 91 23 127 64zM459 719l-145 -125c-23 4 -42 14 -50 31l122 141c33 4 63 -24 73 -47z" />
    <glyph glyph-name="ycircumflex" unicode="&#x177;" horiz-adv-x="550" 
d="M421 519c0 0 20 7 52 7c35 0 48 -7 48 -7l-106 -502c-41 -191 -123 -267 -289 -267c-103 0 -149 36 -149 36c7 26 23 52 43 67c0 0 46 -22 110 -22c94 0 153 14 185 179l7 36c-44 -41 -89 -56 -151 -56c-105 0 -154 65 -132 168l76 361s19 7 52 7c34 0 48 -7 48 -7
l-76 -360c-12 -56 10 -88 74 -88c44 0 91 23 127 64zM370 752l124 -113c-14 -20 -30 -38 -53 -45l-93 71l-119 -70c-19 7 -35 28 -40 49l155 108h26z" />
    <glyph glyph-name="ydieresis" unicode="&#xff;" horiz-adv-x="550" 
d="M421 519c0 0 20 7 52 7c35 0 48 -7 48 -7l-106 -502c-41 -191 -123 -267 -289 -267c-103 0 -149 36 -149 36c7 26 23 52 43 67c0 0 46 -22 110 -22c94 0 153 14 185 179l7 36c-44 -41 -89 -56 -151 -56c-105 0 -154 65 -132 168l76 361s19 7 52 7c34 0 48 -7 48 -7
l-76 -360c-12 -56 10 -88 74 -88c44 0 91 23 127 64zM309 707l-17 -81s-17 -6 -46 -6c-31 0 -45 6 -45 6l17 81s17 6 48 6c29 0 43 -6 43 -6zM479 707l-17 -81s-17 -6 -47 -6c-31 0 -44 6 -44 6l17 81s16 6 47 6c30 0 44 -6 44 -6z" />
    <glyph glyph-name="yen" unicode="&#xa5;" horiz-adv-x="616" 
d="M566 677c0 0 20 7 53 7c30 0 48 -7 48 -7l-278 -336h129c2 -8 1 -19 -1 -31c-3 -12 -7 -22 -12 -32h-162l-15 -72h162c1 -8 1 -19 -2 -30c-2 -13 -7 -24 -12 -33h-162l-29 -136s-17 -7 -48 -7c-30 0 -45 7 -45 7l29 136h-164c-1 10 0 22 2 33c3 12 7 22 12 30h164l15 72
h-164c-1 10 0 21 2 32c2 12 7 23 11 31h130l-123 334s21 9 57 9c35 0 53 -8 53 -8l105 -298z" />
    <glyph glyph-name="ygrave" unicode="&#x1ef3;" horiz-adv-x="550" 
d="M340 595l-96 135c19 23 57 42 88 38l70 -142c-16 -17 -37 -27 -62 -31zM421 519c0 0 20 7 52 7c35 0 48 -7 48 -7l-106 -502c-41 -191 -123 -267 -289 -267c-103 0 -149 36 -149 36c7 26 23 52 43 67c0 0 46 -22 110 -22c94 0 153 14 185 179l7 36
c-44 -41 -89 -56 -151 -56c-105 0 -154 65 -132 168l76 361s19 7 52 7c34 0 48 -7 48 -7l-76 -360c-12 -56 10 -88 74 -88c44 0 91 23 127 64z" />
    <glyph glyph-name="z" unicode="z" horiz-adv-x="466" 
d="M102 82h265s3 -14 -2 -41c-6 -25 -15 -41 -15 -41h-371c0 12 0 27 3 43c4 16 9 29 14 39l343 362h-249s-2 17 3 42c6 26 15 40 15 40h354c2 -9 1 -23 -3 -39c-3 -16 -8 -32 -15 -43z" />
    <glyph glyph-name="zacute" unicode="&#x17a;" horiz-adv-x="466" 
d="M450 739l-154 -135c-24 4 -42 14 -50 31l124 141c34 4 70 -14 80 -37zM102 82h265s3 -14 -2 -41c-6 -25 -15 -41 -15 -41h-371c0 12 0 27 3 43c4 16 9 29 14 39l343 362h-249s-2 17 3 42c6 26 15 40 15 40h354c2 -9 1 -23 -3 -39c-3 -16 -8 -32 -15 -43z" />
    <glyph glyph-name="zcaron" unicode="&#x17e;" horiz-adv-x="466" 
d="M290 603l-112 100c13 19 30 34 50 41l81 -64l108 63c17 -5 28 -21 33 -40l-137 -100h-23zM102 82h265s3 -14 -2 -41c-6 -25 -15 -41 -15 -41h-371c0 12 0 27 3 43c4 16 9 29 14 39l343 362h-249s-2 17 3 42c6 26 15 40 15 40h354c2 -9 1 -23 -3 -39
c-3 -16 -8 -32 -15 -43z" />
    <glyph glyph-name="zdotaccent" unicode="&#x17c;" horiz-adv-x="466" 
d="M378 711l-18 -86s-18 -6 -49 -6c-33 0 -47 6 -47 6l18 86s16 6 49 6c31 0 47 -6 47 -6zM102 82h265s3 -14 -2 -41c-6 -25 -15 -41 -15 -41h-371c0 12 0 27 3 43c4 16 9 29 14 39l343 362h-249s-2 17 3 42c6 26 15 40 15 40h354c2 -9 1 -23 -3 -39c-3 -16 -8 -32 -15 -43z
" />
    <glyph glyph-name="zero" unicode="0" horiz-adv-x="619" 
d="M242 -10c-159 0 -225 111 -172 360c53 246 162 340 321 340s226 -111 173 -360s-163 -340 -322 -340zM373 605c-92 0 -155 -57 -199 -265c-44 -207 -6 -265 86 -265c94 0 154 58 198 265c44 208 9 265 -85 265z" />
    <glyph glyph-name="zero.denom" horiz-adv-x="344" 
d="M106 -5c-89 0 -125 53 -98 177c25 122 84 176 173 176c87 0 125 -52 99 -176c-27 -124 -87 -177 -174 -177zM169 292c-45 0 -72 -28 -91 -120c-20 -94 -5 -120 40 -120c43 0 70 26 90 120c19 92 4 120 -39 120z" />
    <glyph glyph-name="zero.num" horiz-adv-x="345" 
d="M180 341c-89 0 -124 53 -98 177c26 122 84 176 173 176c87 0 125 -52 99 -176s-87 -177 -174 -177zM244 638c-45 0 -72 -28 -92 -120c-20 -94 -4 -120 41 -120c43 0 69 26 89 120c20 92 5 120 -38 120z" />
    <glyph glyph-name="zeroinferior" unicode="&#x2080;" horiz-adv-x="346" 
d="M86 -101c-88 0 -124 53 -98 177c26 122 86 176 174 176c87 0 125 -52 99 -176s-88 -177 -175 -177zM150 196c-44 0 -71 -28 -91 -120c-20 -94 -4 -120 40 -120c43 0 70 26 90 120c20 92 4 120 -39 120z" />
    </font>
</defs>
</svg>
