<?xml version="1.0" standalone="no"?>
<!DOCTYPE svg PUBLIC "-//W3C//DTD SVG 1.1//EN" "http://www.w3.org/Graphics/SVG/1.1/DTD/svg11.dtd" >
<svg xmlns="http://www.w3.org/2000/svg" xmlns:xlink="http://www.w3.org/1999/xlink" version="1.1">
<metadata>
Created by FontForge 20141024 at Tue Jun 30 10:03:28 2015
 By System Administrator
Copyright \(c\) 2014 by Fontfabric LLC. All rights reserved.
</metadata>
<defs>
<font id="GloberLight" horiz-adv-x="548" >
  <font-face 
    font-family="Glober Light"
    font-weight="300"
    font-stretch="normal"
    units-per-em="1000"
    panose-1="0 0 0 0 0 0 0 0 0 0"
    ascent="750"
    descent="-250"
    x-height="526"
    cap-height="720"
    bbox="-151 -250.141 1008 1052"
    underline-thickness="50"
    underline-position="-50"
    stemh="29"
    stemv="32"
    unicode-range="U+0020-FB02"
  />
<missing-glyph horiz-adv-x="618" 
d="M37 0v720h538v-720h-538zM287 200c8 0 12 3 12 3c0 168 153 146 153 306c0 65 -40 124 -143 124c-73 0 -121 -25 -121 -25c-1 -7 2 -16 9 -20c0 0 42 20 110 20c87 0 117 -47 117 -101c0 -145 -148 -118 -148 -304c0 0 4 -3 11 -3zM307 83v34s-6 2 -19 2s-19 -2 -19 -2
v-34s6 -2 19 -2s19 2 19 2z" />
    <glyph glyph-name="fi" unicode="fi" horiz-adv-x="551" 
d="M457 526v-523s-4 -3 -16 -3s-16 3 -16 3v493h-285v-493s-4 -3 -16 -3s-16 3 -16 3v493h-64s-3 4 -3 15s3 15 3 15h64v60c0 103 38 164 175 164c89 0 169 -27 169 -27c2 -10 -2 -22 -9 -28c0 0 -72 25 -155 25c-117 0 -148 -42 -148 -129v-65h296h5h16z" />
    <glyph glyph-name="fl" unicode="fl" horiz-adv-x="553" 
d="M274 496h-134v-493s-4 -3 -16 -3s-16 3 -16 3v493h-64s-3 4 -3 15s3 15 3 15h64v60c0 97 38 164 165 164c99 0 184 -34 184 -34v-713s-4 -3 -16 -3s-16 3 -16 3v693c-29 10 -83 24 -147 24c-109 0 -138 -47 -138 -129v-65h134s3 -4 3 -15c0 -10 -3 -15 -3 -15z" />
    <glyph glyph-name=".notdef" horiz-adv-x="618" 
d="M37 0v720h538v-720h-538zM287 200c8 0 12 3 12 3c0 168 153 146 153 306c0 65 -40 124 -143 124c-73 0 -121 -25 -121 -25c-1 -7 2 -16 9 -20c0 0 42 20 110 20c87 0 117 -47 117 -101c0 -145 -148 -118 -148 -304c0 0 4 -3 11 -3zM307 83v34s-6 2 -19 2s-19 -2 -19 -2
v-34s6 -2 19 -2s19 2 19 2z" />
    <glyph glyph-name="A" unicode="A" horiz-adv-x="640" 
d="M581 3l-85 215h-353l-86 -215s-5 -3 -18 -3s-16 3 -16 3l283 714s4 3 14 3c9 0 14 -3 14 -3l283 -714s-5 -3 -18 -3c-11 0 -18 3 -18 3zM306 631l-151 -381h328l-150 381c-10 25 -12 38 -12 38h-2s-4 -14 -13 -38z" />
    <glyph glyph-name="AE" unicode="&#xc6;" horiz-adv-x="848" 
d="M51 3c-5 -2 -11 -3 -17 -3c-7 0 -15 1 -19 3l433 717h335c5 -8 5 -23 0 -32h-294v-307h244c5 -10 5 -23 0 -32h-244v-317h304c5 -9 5 -23 0 -32h-338v205h-282zM192 237h263v435z" />
    <glyph glyph-name="AEacute" unicode="&#x1fc;" horiz-adv-x="848" 
d="M51 3c-5 -2 -11 -3 -17 -3c-7 0 -15 1 -19 3l433 717h335c5 -8 5 -23 0 -32h-294v-307h244c5 -10 5 -23 0 -32h-244v-317h304c5 -9 5 -23 0 -32h-338v205h-282zM192 237h263v435zM701 906l-125 -147c-12 1 -20 6 -24 14l117 150c14 0 25 -6 32 -17z" />
    <glyph glyph-name="Aacute" unicode="&#xc1;" horiz-adv-x="640" 
d="M581 3l-85 215h-353l-86 -215s-5 -3 -18 -3s-16 3 -16 3l283 714s4 3 14 3c9 0 14 -3 14 -3l283 -714s-5 -3 -18 -3c-11 0 -18 3 -18 3zM306 631l-151 -381h328l-150 381c-10 25 -12 38 -12 38h-2s-4 -14 -13 -38zM426 905l-125 -147c-12 1 -20 6 -24 14l117 150
c14 0 25 -6 32 -17z" />
    <glyph glyph-name="Abreve" unicode="&#x102;" horiz-adv-x="640" 
d="M581 3l-85 215h-353l-86 -215s-5 -3 -18 -3s-16 3 -16 3l283 714s4 3 14 3c9 0 14 -3 14 -3l283 -714s-5 -3 -18 -3c-11 0 -18 3 -18 3zM306 631l-151 -381h328l-150 381c-10 25 -12 38 -12 38h-2s-4 -14 -13 -38zM450 840c0 0 -46 -51 -134 -51c-89 0 -134 51 -134 51
c3 10 7 15 18 19c0 0 47 -42 116 -42s115 42 115 42c12 -3 17 -8 19 -19z" />
    <glyph glyph-name="Acircumflex" unicode="&#xc2;" horiz-adv-x="640" 
d="M581 3l-85 215h-353l-86 -215s-5 -3 -18 -3s-16 3 -16 3l283 714s4 3 14 3c9 0 14 -3 14 -3l283 -714s-5 -3 -18 -3c-11 0 -18 3 -18 3zM306 631l-151 -381h328l-150 381c-10 25 -12 38 -12 38h-2s-4 -14 -13 -38zM307 893h26l123 -101c-2 -10 -7 -18 -16 -20l-121 90
l-119 -91c-10 4 -15 10 -17 21z" />
    <glyph glyph-name="Adieresis" unicode="&#xc4;" horiz-adv-x="640" 
d="M581 3l-85 215h-353l-86 -215s-5 -3 -18 -3s-16 3 -16 3l283 714s4 3 14 3c9 0 14 -3 14 -3l283 -714s-5 -3 -18 -3c-11 0 -18 3 -18 3zM306 631l-151 -381h328l-150 381c-10 25 -12 38 -12 38h-2s-4 -14 -13 -38zM273 835v-42s-8 -3 -24 -3s-24 3 -24 3v42s8 3 24 3
s24 -3 24 -3zM414 835v-42s-8 -3 -24 -3s-24 3 -24 3v42s8 3 24 3s24 -3 24 -3z" />
    <glyph glyph-name="Agrave" unicode="&#xc0;" horiz-adv-x="640" 
d="M581 3l-85 215h-353l-86 -215s-5 -3 -18 -3s-16 3 -16 3l283 714s4 3 14 3c9 0 14 -3 14 -3l283 -714s-5 -3 -18 -3c-11 0 -18 3 -18 3zM306 631l-151 -381h328l-150 381c-10 25 -12 38 -12 38h-2s-4 -14 -13 -38zM345 757l-125 147c6 9 19 17 32 17l117 -150
c-4 -8 -12 -13 -24 -14z" />
    <glyph glyph-name="Amacron" unicode="&#x100;" horiz-adv-x="640" 
d="M581 3l-85 215h-353l-86 -215s-5 -3 -18 -3s-16 3 -16 3l283 714s4 3 14 3c9 0 14 -3 14 -3l283 -714s-5 -3 -18 -3c-11 0 -18 3 -18 3zM306 631l-151 -381h328l-150 381c-10 25 -12 38 -12 38h-2s-4 -14 -13 -38zM442 807h-251c-3 5 -4 9 -4 15s1 10 4 15h251
c3 -4 4 -8 4 -14s-1 -11 -4 -16z" />
    <glyph glyph-name="Aogonek" unicode="&#x104;" horiz-adv-x="639" 
d="M305 631l-151 -381h328l-150 381c-10 25 -12 38 -12 38h-2s-4 -14 -13 -38zM557 -145c25 0 42 10 42 10c6 -5 9 -13 9 -22c0 0 -21 -16 -57 -16c-53 0 -81 31 -81 73c0 61 47 100 105 115l-80 203h-353l-86 -215s-5 -3 -18 -3s-16 3 -16 3l283 714s4 3 14 3
c9 0 14 -3 14 -3l283 -714l-12 -3c-48 -10 -101 -39 -101 -96c0 -32 21 -49 54 -49z" />
    <glyph glyph-name="Aring" unicode="&#xc5;" horiz-adv-x="640" 
d="M342 697l275 -694s-5 -3 -18 -3c-11 0 -18 3 -18 3l-85 215h-353l-86 -215s-5 -3 -18 -3s-16 3 -16 3l275 694c-47 8 -90 45 -90 104c0 68 55 104 112 104c56 0 113 -35 113 -104c0 -59 -44 -95 -91 -104zM319 876c-54 0 -79 -37 -79 -75c0 -39 25 -77 79 -77
c55 0 82 39 82 77c0 39 -27 75 -82 75zM155 250h328l-150 381c-10 25 -12 38 -12 38h-2s-4 -14 -13 -38z" />
    <glyph glyph-name="Aringacute" unicode="&#x1fa;" horiz-adv-x="640" 
d="M431 1039l-117 -109c-11 1 -18 4 -22 10l109 112c13 0 24 -5 30 -13zM306 631l-151 -381h328l-150 381c-10 25 -12 38 -12 38h-2s-4 -14 -13 -38zM400 801c0 39 -27 75 -82 75c-54 0 -79 -37 -79 -75c0 -39 25 -77 79 -77c55 0 82 39 82 77zM342 697l275 -694
s-5 -3 -18 -3c-11 0 -18 3 -18 3l-85 215h-353l-86 -215s-5 -3 -18 -3s-16 3 -16 3l275 693c-53 8 -91 44 -91 105c0 68 55 104 112 104c56 0 113 -35 113 -104c0 -59 -39 -95 -90 -104z" />
    <glyph glyph-name="Atilde" unicode="&#xc3;" horiz-adv-x="640" 
d="M581 3l-85 215h-353l-86 -215s-5 -3 -18 -3s-16 3 -16 3l283 714s4 3 14 3c9 0 14 -3 14 -3l283 -714s-5 -3 -18 -3c-11 0 -18 3 -18 3zM306 631l-151 -381h328l-150 381c-10 25 -12 38 -12 38h-2s-4 -14 -13 -38zM376 806c28 0 39 29 39 29c10 1 20 -2 26 -11
c0 0 -19 -47 -70 -47c-48 0 -69 36 -107 36c-28 0 -39 -30 -39 -30c-11 -1 -22 4 -26 11c0 0 19 48 70 48c48 0 69 -36 107 -36z" />
    <glyph glyph-name="B" unicode="B" horiz-adv-x="626" 
d="M343 0h-236v720h232c150 0 194 -90 194 -186c0 -132 -87 -166 -96 -169c3 -1 119 -22 119 -176c0 -113 -59 -189 -213 -189zM341 347h-200v-315h201c134 0 178 59 178 157c0 109 -55 158 -179 158zM141 688v-309h193c121 0 163 62 163 155s-39 154 -166 154h-190z" />
    <glyph glyph-name="C" unicode="C" horiz-adv-x="556" 
d="M336 -10c-176 0 -262 119 -262 370c0 246 85 370 262 370c109 0 166 -32 166 -32s2 -7 -2 -15c-4 -9 -10 -12 -10 -12s-58 28 -149 28c-139 0 -231 -78 -231 -340s91 -337 231 -337c99 0 160 28 160 28s6 -2 10 -11s2 -16 2 -16s-59 -33 -177 -33z" />
    <glyph glyph-name="CR" horiz-adv-x="322" 
 />
    <glyph glyph-name="Cacute" unicode="&#x106;" horiz-adv-x="556" 
d="M336 -10c-176 0 -262 119 -262 370c0 246 85 370 262 370c109 0 166 -32 166 -32s2 -7 -2 -15c-4 -9 -10 -12 -10 -12s-58 28 -149 28c-139 0 -231 -78 -231 -340s91 -337 231 -337c99 0 160 28 160 28s6 -2 10 -11s2 -16 2 -16s-59 -33 -177 -33zM432 906l-125 -147
c-12 1 -20 6 -24 14l117 150c14 0 25 -6 32 -17z" />
    <glyph glyph-name="Ccaron" unicode="&#x10c;" horiz-adv-x="557" 
d="M336 -10c-176 0 -262 119 -262 370c0 246 85 370 262 370c109 0 166 -32 166 -32s2 -7 -2 -15c-4 -9 -10 -12 -10 -12s-58 28 -149 28c-139 0 -231 -78 -231 -340s91 -337 231 -337c99 0 160 28 160 28s6 -2 10 -11s2 -16 2 -16s-59 -33 -177 -33zM347 771h-26l-124 101
c2 11 7 17 17 21l121 -91l119 90c9 -2 14 -10 16 -20z" />
    <glyph glyph-name="Ccedilla" unicode="&#xc7;" horiz-adv-x="555" 
d="M512 23c0 0 -59 -33 -177 -33h-5l-11 -47c78 0 113 -33 113 -88c0 -64 -38 -88 -112 -88c-50 0 -87 23 -87 23c1 10 5 17 11 22c0 0 33 -18 77 -18c50 0 80 14 80 61c0 39 -28 60 -75 60h-31l-7 8l17 68c-156 13 -232 132 -232 369c0 246 85 370 262 370
c109 0 166 -32 166 -32s2 -7 -2 -15c-4 -9 -10 -12 -10 -12s-58 28 -149 28c-139 0 -231 -78 -231 -340s91 -337 231 -337c99 0 160 28 160 28s6 -2 10 -11s2 -16 2 -16z" />
    <glyph glyph-name="Ccircumflex" unicode="&#x108;" horiz-adv-x="556" 
d="M336 -10c-176 0 -262 119 -262 370c0 246 85 370 262 370c109 0 166 -32 166 -32s2 -7 -2 -15c-4 -9 -10 -12 -10 -12s-58 28 -149 28c-139 0 -231 -78 -231 -340s91 -337 231 -337c99 0 160 28 160 28s6 -2 10 -11s2 -16 2 -16s-59 -33 -177 -33zM331 881h26l123 -101
c-2 -10 -7 -18 -16 -20l-121 90l-119 -91c-10 4 -15 10 -17 21z" />
    <glyph glyph-name="Cdotaccent" unicode="&#x10a;" horiz-adv-x="556" 
d="M336 -10c-176 0 -262 119 -262 370c0 246 85 370 262 370c109 0 166 -32 166 -32s2 -7 -2 -15c-4 -9 -10 -12 -10 -12s-58 28 -149 28c-139 0 -231 -78 -231 -340s91 -337 231 -337c99 0 160 28 160 28s6 -2 10 -11s2 -16 2 -16s-59 -33 -177 -33zM364 833v-42
s-8 -3 -24 -3s-24 3 -24 3v42s8 3 24 3s24 -3 24 -3z" />
    <glyph glyph-name="D" unicode="D" horiz-adv-x="658" 
d="M292 688h-151v-656h151c167 0 255 67 255 328c0 262 -88 328 -255 328zM296 0h-189v720h189c192 0 287 -81 287 -360s-95 -360 -287 -360z" />
    <glyph glyph-name="Dcaron" unicode="&#x10e;" horiz-adv-x="658" 
d="M292 688h-151v-656h151c167 0 255 67 255 328c0 262 -88 328 -255 328zM296 0h-189v720h189c192 0 287 -81 287 -360s-95 -360 -287 -360zM301 771h-26l-124 101c2 11 7 17 17 21l121 -91l119 90c9 -2 14 -10 16 -20z" />
    <glyph glyph-name="Dcroat" unicode="&#x110;" horiz-adv-x="664" 
d="M113 720h189c192 0 287 -81 287 -360s-95 -360 -287 -360h-189v342h-87s-3 5 -3 15s3 15 3 15h87v348zM147 32h151c167 0 255 67 255 328c0 262 -88 328 -255 328h-151v-316h154s3 -5 3 -15c0 -9 -3 -15 -3 -15h-154v-310z" />
    <glyph glyph-name="Delta" unicode="&#x2206;" horiz-adv-x="643" 
d="M596 0h-549c-8 6 -13 15 -15 24l274 693s5 3 18 3s18 -3 18 -3l269 -693c-3 -10 -8 -18 -15 -24zM69 32h505c-63 158 -125 317 -187 476l-37 95c-20 49 -26 80 -26 80h-2s-5 -28 -26 -81l-38 -95z" />
    <glyph glyph-name="E" unicode="E" horiz-adv-x="557" 
d="M107 0v720h385c2 -4 3 -9 3 -16s-1 -12 -3 -16h-351v-307h301c2 -4 3 -9 3 -15s-1 -11 -3 -16h-301v-318h361c2 -5 3 -9 3 -15c0 -7 -1 -12 -3 -17h-395z" />
    <glyph glyph-name="Eacute" unicode="&#xc9;" horiz-adv-x="557" 
d="M107 0v720h385c2 -4 3 -9 3 -16s-1 -12 -3 -16h-351v-307h301c2 -4 3 -9 3 -15s-1 -11 -3 -16h-301v-318h361c2 -5 3 -9 3 -15c0 -7 -1 -12 -3 -17h-395zM371 906l-125 -147c-12 1 -20 6 -24 14l117 150c14 0 25 -6 32 -17z" />
    <glyph glyph-name="Ebreve" unicode="&#x114;" horiz-adv-x="557" 
d="M107 0v720h385c2 -4 3 -9 3 -16s-1 -12 -3 -16h-351v-307h301c2 -4 3 -9 3 -15s-1 -11 -3 -16h-301v-318h361c2 -5 3 -9 3 -15c0 -7 -1 -12 -3 -17h-395zM432 851c0 0 -46 -51 -134 -51c-89 0 -134 51 -134 51c3 10 7 15 18 19c0 0 47 -42 116 -42s115 42 115 42
c12 -3 17 -8 19 -19z" />
    <glyph glyph-name="Ecaron" unicode="&#x11a;" horiz-adv-x="557" 
d="M107 0v720h385c2 -4 3 -9 3 -16s-1 -12 -3 -16h-351v-307h301c2 -4 3 -9 3 -15s-1 -11 -3 -16h-301v-318h361c2 -5 3 -9 3 -15c0 -7 -1 -12 -3 -17h-395zM301 771h-26l-124 101c2 11 7 17 17 21l121 -91l119 90c9 -2 14 -10 16 -20z" />
    <glyph glyph-name="Ecircumflex" unicode="&#xca;" horiz-adv-x="557" 
d="M107 0v720h385c2 -4 3 -9 3 -16s-1 -12 -3 -16h-351v-307h301c2 -4 3 -9 3 -15s-1 -11 -3 -16h-301v-318h361c2 -5 3 -9 3 -15c0 -7 -1 -12 -3 -17h-395zM282 893h26l123 -101c-2 -10 -7 -18 -16 -20l-121 90l-119 -91c-10 4 -15 10 -17 21z" />
    <glyph glyph-name="Edieresis" unicode="&#xcb;" horiz-adv-x="557" 
d="M107 0v720h385c2 -4 3 -9 3 -16s-1 -12 -3 -16h-351v-307h301c2 -4 3 -9 3 -15s-1 -11 -3 -16h-301v-318h361c2 -5 3 -9 3 -15c0 -7 -1 -12 -3 -17h-395zM260 823v-42s-8 -3 -24 -3s-24 3 -24 3v42s8 3 24 3s24 -3 24 -3zM401 823v-42s-8 -3 -24 -3s-24 3 -24 3v42
s8 3 24 3s24 -3 24 -3z" />
    <glyph glyph-name="Edotaccent" unicode="&#x116;" horiz-adv-x="557" 
d="M107 0v720h385c2 -4 3 -9 3 -16s-1 -12 -3 -16h-351v-307h301c2 -4 3 -9 3 -15s-1 -11 -3 -16h-301v-318h361c2 -5 3 -9 3 -15c0 -7 -1 -12 -3 -17h-395zM327 833v-42s-8 -3 -24 -3s-24 3 -24 3v42s8 3 24 3s24 -3 24 -3z" />
    <glyph glyph-name="Egrave" unicode="&#xc8;" horiz-adv-x="557" 
d="M107 0v720h385c2 -4 3 -9 3 -16s-1 -12 -3 -16h-351v-307h301c2 -4 3 -9 3 -15s-1 -11 -3 -16h-301v-318h361c2 -5 3 -9 3 -15c0 -7 -1 -12 -3 -17h-395zM312 757l-125 147c6 9 19 17 32 17l117 -150c-4 -8 -12 -13 -24 -14z" />
    <glyph glyph-name="Emacron" unicode="&#x112;" horiz-adv-x="557" 
d="M107 0v720h385c2 -4 3 -9 3 -16s-1 -12 -3 -16h-351v-307h301c2 -4 3 -9 3 -15s-1 -11 -3 -16h-301v-318h361c2 -5 3 -9 3 -15c0 -7 -1 -12 -3 -17h-395zM433 802h-259c-3 5 -4 10 -4 16s1 11 4 16h259c3 -4 4 -9 4 -15s-1 -12 -4 -17z" />
    <glyph glyph-name="Eng" unicode="&#x14a;" horiz-adv-x="690" 
d="M551 717c0 0 5 3 17 3c11 0 16 -3 16 -3v-773c0 -87 -15 -143 -104 -172c-9 5 -12 15 -10 26c60 21 81 58 81 144v59c-4 1 -6 2 -6 2l-361 588c-34 53 -46 84 -46 84h-2s3 -36 3 -130v-542s-5 -3 -17 -3c-11 0 -16 3 -16 3v714s7 3 20 3s19 -3 19 -3l358 -580
c30 -48 50 -90 50 -90h2s-4 48 -4 120v550z" />
    <glyph glyph-name="Eogonek" unicode="&#x118;" horiz-adv-x="557" 
d="M141 32h361c2 -5 3 -9 3 -15c0 -7 -1 -12 -3 -17h-10c-49 -9 -105 -38 -105 -97c0 -32 21 -49 54 -49c25 0 42 10 42 10c6 -5 9 -13 9 -22c0 0 -21 -16 -57 -16c-53 0 -81 31 -81 73c0 50 31 83 75 101h-322v720h385c2 -4 3 -9 3 -16s-1 -12 -3 -16h-351v-307h301
c2 -4 3 -9 3 -15s-1 -11 -3 -16h-301v-318z" />
    <glyph glyph-name="Eth" unicode="&#xd0;" horiz-adv-x="664" 
d="M113 720h189c192 0 287 -81 287 -360s-95 -360 -287 -360h-189v342h-87s-3 5 -3 15s3 15 3 15h87v348zM147 32h151c167 0 255 67 255 328c0 262 -88 328 -255 328h-151v-316h154s3 -5 3 -15c0 -9 -3 -15 -3 -15h-154v-310z" />
    <glyph glyph-name="Euro" unicode="&#x20ac;" horiz-adv-x="587" 
d="M411 243h-234c18 -171 92 -223 201 -223c87 0 139 25 139 25s6 -2 9 -10c4 -9 2 -14 2 -14s-50 -31 -155 -31c-137 0 -211 82 -230 253h-82s-3 4 -1 14c2 11 6 14 6 14h75c-1 20 -2 41 -2 64s0 43 2 67h-80s-3 4 -1 14c2 11 6 14 6 14h78c19 166 93 250 229 250
c101 0 145 -30 145 -30s2 -6 -2 -14s-9 -10 -9 -10s-49 25 -129 25c-107 0 -181 -54 -200 -221h279s2 -3 1 -14c-2 -11 -6 -14 -6 -14h-277c-1 -21 -2 -44 -2 -68c0 -23 0 -44 2 -63h241s3 -2 1 -14c-2 -11 -6 -14 -6 -14z" />
    <glyph glyph-name="F" unicode="F" horiz-adv-x="533" 
d="M445 341h-304v-338s-5 -3 -17 -3s-17 3 -17 3v717h385s3 -5 3 -16s-3 -16 -3 -16h-351v-315h304s3 -6 3 -16s-3 -16 -3 -16z" />
    <glyph glyph-name="G" unicode="G" horiz-adv-x="619" 
d="M347 -10c-174 0 -273 119 -273 370c0 246 98 370 273 370c113 0 181 -32 181 -32s2 -7 -2 -15c-4 -9 -10 -11 -10 -11s-73 27 -164 27c-137 0 -242 -78 -242 -340s104 -337 242 -337c67 0 123 12 153 19v301h-193s-3 6 -3 16c0 12 3 16 3 16h227v-352s-74 -32 -192 -32z
" />
    <glyph glyph-name="Gbreve" unicode="&#x11e;" horiz-adv-x="619" 
d="M347 -10c-174 0 -273 119 -273 370c0 246 98 370 273 370c113 0 181 -32 181 -32s2 -7 -2 -15c-4 -9 -10 -11 -10 -11s-73 27 -164 27c-137 0 -242 -78 -242 -340s104 -337 242 -337c67 0 123 12 153 19v301h-193s-3 6 -3 16c0 12 3 16 3 16h227v-352s-74 -32 -192 -32z
M484 840c0 0 -46 -51 -134 -51c-89 0 -134 51 -134 51c3 10 7 15 18 19c0 0 47 -42 116 -42s115 42 115 42c12 -3 17 -8 19 -19z" />
    <glyph glyph-name="Gcircumflex" unicode="&#x11c;" horiz-adv-x="619" 
d="M347 -10c-174 0 -273 119 -273 370c0 246 98 370 273 370c113 0 181 -32 181 -32s2 -7 -2 -15c-4 -9 -10 -11 -10 -11s-73 27 -164 27c-137 0 -242 -78 -242 -340s104 -337 242 -337c67 0 123 12 153 19v301h-193s-3 6 -3 16c0 12 3 16 3 16h227v-352s-74 -32 -192 -32z
M357 893h26l123 -101c-2 -10 -7 -18 -16 -20l-121 90l-119 -91c-10 4 -15 10 -17 21z" />
    <glyph glyph-name="Gcommaaccent" unicode="&#x122;" horiz-adv-x="619" 
d="M347 -10c-174 0 -273 119 -273 370c0 246 98 370 273 370c113 0 181 -32 181 -32s2 -7 -2 -15c-4 -9 -10 -11 -10 -11s-73 27 -164 27c-137 0 -242 -78 -242 -340s104 -337 242 -337c67 0 123 12 153 19v301h-193s-3 6 -3 16c0 12 3 16 3 16h227v-352s-74 -32 -192 -32z
M330 -186l-17 11s30 26 35 77c-13 0 -19 3 -19 3v39s9 3 26 3s25 -3 25 -3v-30c0 -65 -50 -100 -50 -100z" />
    <glyph glyph-name="Gdotaccent" unicode="&#x120;" horiz-adv-x="619" 
d="M347 -10c-174 0 -273 119 -273 370c0 246 98 370 273 370c113 0 181 -32 181 -32s2 -7 -2 -15c-4 -9 -10 -11 -10 -11s-73 27 -164 27c-137 0 -242 -78 -242 -340s104 -337 242 -337c67 0 123 12 153 19v301h-193s-3 6 -3 16c0 12 3 16 3 16h227v-352s-74 -32 -192 -32z
M374 833v-42s-8 -3 -24 -3s-24 3 -24 3v42s8 3 24 3s24 -3 24 -3z" />
    <glyph glyph-name="H" unicode="H" horiz-adv-x="672" 
d="M532 385v332s6 3 17 3s17 -3 17 -3v-714s-5 -3 -17 -3c-13 0 -17 3 -17 3v350h-392v-350s-6 -3 -17 -3c-13 0 -17 3 -17 3v714s6 3 17 3s17 -3 17 -3v-332h392z" />
    <glyph glyph-name="Hbar" unicode="&#x126;" horiz-adv-x="682" 
d="M648 588c2 -3 3 -9 3 -14s-1 -11 -3 -15h-75v-556s-5 -3 -17 -3c-13 0 -17 3 -17 3v350h-392v-350s-6 -3 -17 -3c-13 0 -17 3 -17 3v556h-65c-2 5 -3 10 -3 15s1 10 3 14h65v129s6 3 17 3s17 -3 17 -3v-129h392v129s6 3 17 3s17 -3 17 -3v-129h75zM539 385v174h-392v-174
h392z" />
    <glyph glyph-name="Hcircumflex" unicode="&#x124;" horiz-adv-x="672" 
d="M532 385v332s6 3 17 3s17 -3 17 -3v-714s-5 -3 -17 -3c-13 0 -17 3 -17 3v350h-392v-350s-6 -3 -17 -3c-13 0 -17 3 -17 3v714s6 3 17 3s17 -3 17 -3v-332h392zM330 893h26l123 -101c-2 -10 -7 -18 -16 -20l-121 90l-119 -91c-10 4 -15 10 -17 21z" />
    <glyph glyph-name="I" unicode="I" horiz-adv-x="246" 
d="M106 3v714s5 3 17 3s17 -3 17 -3v-714s-5 -3 -17 -3s-17 3 -17 3z" />
    <glyph glyph-name="IJ" unicode="&#x132;" horiz-adv-x="615" 
d="M106 3v714s5 3 17 3s17 -3 17 -3v-714s-5 -3 -17 -3s-17 3 -17 3zM479 154v563s4 3 17 3c11 0 17 -3 17 -3v-563c0 -113 -45 -164 -152 -164c-74 0 -134 30 -134 30c-1 12 3 22 11 28c0 0 58 -26 123 -26c72 0 118 32 118 132z" />
    <glyph glyph-name="Iacute" unicode="&#xcd;" horiz-adv-x="246" 
d="M106 3v714s5 3 17 3s17 -3 17 -3v-714s-5 -3 -17 -3s-17 3 -17 3zM203 906l-125 -147c-12 1 -20 6 -24 14l117 150c14 0 25 -6 32 -17z" />
    <glyph glyph-name="Ibreve" unicode="&#x12c;" horiz-adv-x="246" 
d="M106 3v714s5 3 17 3s17 -3 17 -3v-714s-5 -3 -17 -3s-17 3 -17 3zM255 840c0 0 -46 -51 -134 -51c-89 0 -134 51 -134 51c3 10 7 15 18 19c0 0 47 -42 116 -42s115 42 115 42c12 -3 17 -8 19 -19z" />
    <glyph glyph-name="Icircumflex" unicode="&#xce;" horiz-adv-x="246" 
d="M106 3v714s5 3 17 3s17 -3 17 -3v-714s-5 -3 -17 -3s-17 3 -17 3zM110 893h26l123 -101c-2 -10 -7 -18 -16 -20l-121 90l-119 -91c-10 4 -15 10 -17 21z" />
    <glyph glyph-name="Idieresis" unicode="&#xcf;" horiz-adv-x="246" 
d="M106 3v714s5 3 17 3s17 -3 17 -3v-714s-5 -3 -17 -3s-17 3 -17 3zM77 815v-42s-8 -3 -24 -3s-24 3 -24 3v42s8 3 24 3s24 -3 24 -3zM218 815v-42s-8 -3 -24 -3s-24 3 -24 3v42s8 3 24 3s24 -3 24 -3z" />
    <glyph glyph-name="Idotaccent" unicode="&#x130;" horiz-adv-x="246" 
d="M106 3v714s5 3 17 3s17 -3 17 -3v-714s-5 -3 -17 -3s-17 3 -17 3zM147 833v-42s-8 -3 -24 -3s-24 3 -24 3v42s8 3 24 3s24 -3 24 -3z" />
    <glyph glyph-name="Igrave" unicode="&#xcc;" horiz-adv-x="246" 
d="M106 3v714s5 3 17 3s17 -3 17 -3v-714s-5 -3 -17 -3s-17 3 -17 3zM154 757l-125 147c6 9 19 17 32 17l117 -150c-4 -8 -12 -13 -24 -14z" />
    <glyph glyph-name="Imacron" unicode="&#x12a;" horiz-adv-x="246" 
d="M106 3v714s5 3 17 3s17 -3 17 -3v-714s-5 -3 -17 -3s-17 3 -17 3zM258 781h-267c-3 5 -4 10 -4 16s1 11 4 16h267c3 -4 4 -9 4 -15s-1 -12 -4 -17z" />
    <glyph glyph-name="Iogonek" unicode="&#x12e;" horiz-adv-x="247" 
d="M110 -144c25 0 42 10 42 10c6 -5 9 -13 9 -22c0 0 -21 -16 -57 -16c-53 0 -81 31 -81 73c0 43 32 93 84 113v703s5 3 17 3s17 -3 17 -3v-715c-49 -9 -85 -52 -85 -97c0 -32 21 -49 54 -49z" />
    <glyph glyph-name="Itilde" unicode="&#x128;" horiz-adv-x="246" 
d="M106 3v714s5 3 17 3s17 -3 17 -3v-714s-5 -3 -17 -3s-17 3 -17 3zM188 798c27 0 38 29 38 29c10 1 19 -2 25 -11c0 0 -18 -46 -68 -46c-47 0 -67 35 -104 35c-27 0 -38 -29 -38 -29c-11 -1 -22 4 -25 11c0 0 18 46 68 46c46 0 67 -35 104 -35z" />
    <glyph glyph-name="J" unicode="J" horiz-adv-x="418" 
d="M282 154v563s4 3 17 3c11 0 17 -3 17 -3v-563c0 -113 -45 -164 -152 -164c-74 0 -134 30 -134 30c-1 12 3 22 11 28c0 0 58 -26 123 -26c72 0 118 32 118 132z" />
    <glyph glyph-name="Jcircumflex" unicode="&#x134;" horiz-adv-x="418" 
d="M282 154v563s4 3 17 3c11 0 17 -3 17 -3v-563c0 -113 -45 -164 -152 -164c-74 0 -134 30 -134 30c-1 12 3 22 11 28c0 0 58 -26 123 -26c72 0 118 32 118 132zM286 893h26l123 -101c-2 -10 -7 -18 -16 -20l-121 90l-119 -91c-10 4 -15 10 -17 21z" />
    <glyph glyph-name="K" unicode="K" horiz-adv-x="607" 
d="M140 717v-327h144l230 327s6 3 19 3c12 0 19 -3 19 -3l-239 -340l267 -374s-6 -3 -19 -3s-22 3 -22 3l-254 355h-145v-355s-6 -3 -17 -3s-17 3 -17 3v714s6 3 17 3s17 -3 17 -3z" />
    <glyph glyph-name="Kcommaaccent" unicode="&#x136;" horiz-adv-x="607" 
d="M140 717v-327h144l230 327s6 3 19 3c12 0 19 -3 19 -3l-239 -340l267 -374s-6 -3 -19 -3s-22 3 -22 3l-254 355h-145v-355s-6 -3 -17 -3s-17 3 -17 3v714s6 3 17 3s17 -3 17 -3zM292 -182l-16 12s28 28 33 82c-12 0 -18 3 -18 3v42s8 3 24 3s24 -3 24 -3v-32
c0 -70 -47 -107 -47 -107z" />
    <glyph glyph-name="L" unicode="L" horiz-adv-x="502" 
d="M106 0v717s6 3 17 3c12 0 17 -3 17 -3v-685h331s3 -6 3 -16s-3 -16 -3 -16h-365z" />
    <glyph glyph-name="Lacute" unicode="&#x139;" horiz-adv-x="502" 
d="M106 0v717s6 3 17 3c12 0 17 -3 17 -3v-685h331s3 -6 3 -16s-3 -16 -3 -16h-365zM230 906l-125 -147c-12 1 -20 6 -24 14l117 150c14 0 25 -6 32 -17z" />
    <glyph glyph-name="Lcaron" unicode="&#x13d;" horiz-adv-x="503" 
d="M304 569c-10 0 -17 5 -19 11c43 37 60 88 57 150c14 3 26 2 34 -4c0 -56 -25 -125 -72 -157zM107 0v717s6 3 17 3c12 0 17 -3 17 -3v-685h331s3 -6 3 -16s-3 -16 -3 -16h-365z" />
    <glyph glyph-name="Lcommaaccent" unicode="&#x13b;" horiz-adv-x="502" 
d="M106 0v717s6 3 17 3c12 0 17 -3 17 -3v-685h331s3 -6 3 -16s-3 -16 -3 -16h-365zM262 -202l-16 12s28 28 33 82c-12 0 -18 3 -18 3v42s8 3 24 3s24 -3 24 -3v-32c0 -70 -47 -107 -47 -107z" />
    <glyph glyph-name="Ldot" unicode="&#x13f;" horiz-adv-x="503" 
d="M106 0v717s6 3 17 3c12 0 17 -3 17 -3v-685h331s3 -6 3 -16s-3 -16 -3 -16h-365zM348 355v-42s-8 -3 -24 -3s-24 3 -24 3v42s8 3 24 3s24 -3 24 -3z" />
    <glyph glyph-name="Lslash" unicode="&#x141;" horiz-adv-x="516" 
d="M154 32h331s3 -6 3 -16s-3 -16 -3 -16h-365v333l-71 -41c-8 4 -15 14 -15 25l86 50v350s6 3 17 3c12 0 17 -3 17 -3v-331l112 65c8 -4 14 -14 15 -25l-127 -73v-321z" />
    <glyph glyph-name="M" unicode="M" horiz-adv-x="842" 
d="M702 3v576c0 68 5 104 5 104h-2s-11 -27 -37 -69l-238 -407s-6 -3 -16 -3c-9 0 -16 3 -16 3l-228 407c-23 39 -35 69 -35 69h-2s6 -39 6 -114v-566s-4 -3 -16 -3s-17 3 -17 3v714s8 3 22 3s23 -3 23 -3l234 -418c20 -34 28 -53 28 -53h2s9 19 30 53l245 418s6 3 23 3
c16 0 23 -3 23 -3v-714s-5 -3 -17 -3s-17 3 -17 3z" />
    <glyph glyph-name="N" unicode="N" horiz-adv-x="690" 
d="M545 3l-361 588c-34 53 -46 84 -46 84h-2s3 -36 3 -130v-542s-5 -3 -17 -3c-11 0 -16 3 -16 3v714s7 3 20 3s19 -3 19 -3l358 -580c30 -48 50 -90 50 -90h2s-4 48 -4 120v550s5 3 17 3c11 0 16 -3 16 -3v-714s-6 -3 -19 -3c-14 0 -20 3 -20 3z" />
    <glyph glyph-name="Nacute" unicode="&#x143;" horiz-adv-x="690" 
d="M545 3l-361 588c-34 53 -46 84 -46 84h-2s3 -36 3 -130v-542s-5 -3 -17 -3c-11 0 -16 3 -16 3v714s7 3 20 3s19 -3 19 -3l358 -580c30 -48 50 -90 50 -90h2s-4 48 -4 120v550s5 3 17 3c11 0 16 -3 16 -3v-714s-6 -3 -19 -3c-14 0 -20 3 -20 3zM465 906l-125 -147
c-12 1 -20 6 -24 14l117 150c14 0 25 -6 32 -17z" />
    <glyph glyph-name="Ncaron" unicode="&#x147;" horiz-adv-x="690" 
d="M545 3l-361 588c-34 53 -46 84 -46 84h-2s3 -36 3 -130v-542s-5 -3 -17 -3c-11 0 -16 3 -16 3v714s7 3 20 3s19 -3 19 -3l358 -580c30 -48 50 -90 50 -90h2s-4 48 -4 120v550s5 3 17 3c11 0 16 -3 16 -3v-714s-6 -3 -19 -3c-14 0 -20 3 -20 3zM365 771h-26l-124 101
c2 11 7 17 17 21l121 -91l119 90c9 -2 14 -10 16 -20z" />
    <glyph glyph-name="Ncommaaccent" unicode="&#x145;" horiz-adv-x="690" 
d="M545 3l-361 588c-34 53 -46 84 -46 84h-2s3 -36 3 -130v-542s-5 -3 -17 -3c-11 0 -16 3 -16 3v714s7 3 20 3s19 -3 19 -3l358 -580c30 -48 50 -90 50 -90h2s-4 48 -4 120v550s5 3 17 3c11 0 16 -3 16 -3v-714s-6 -3 -19 -3c-14 0 -20 3 -20 3zM327 -192l-16 12
s28 28 33 82c-12 0 -18 3 -18 3v42s8 3 24 3s24 -3 24 -3v-32c0 -70 -47 -107 -47 -107z" />
    <glyph glyph-name="Ntilde" unicode="&#xd1;" horiz-adv-x="690" 
d="M545 3l-361 588c-34 53 -46 84 -46 84h-2s3 -36 3 -130v-542s-5 -3 -17 -3c-11 0 -16 3 -16 3v714s7 3 20 3s19 -3 19 -3l358 -580c30 -48 50 -90 50 -90h2s-4 48 -4 120v550s5 3 17 3c11 0 16 -3 16 -3v-714s-6 -3 -19 -3c-14 0 -20 3 -20 3zM408 799c28 0 39 29 39 29
c10 1 20 -2 26 -11c0 0 -19 -47 -70 -47c-48 0 -69 36 -107 36c-28 0 -39 -30 -39 -30c-11 -1 -22 4 -26 11c0 0 19 48 70 48c48 0 69 -36 107 -36z" />
    <glyph glyph-name="O" unicode="O" horiz-adv-x="678" 
d="M339 -10c-165 0 -265 111 -265 370s100 370 265 370s265 -111 265 -370s-100 -370 -265 -370zM339 700c-140 0 -229 -95 -229 -340s89 -340 229 -340s229 95 229 340s-89 340 -229 340z" />
    <glyph glyph-name="OE" unicode="&#x152;" horiz-adv-x="828" 
d="M773 0h-340c-19 -5 -47 -10 -84 -10c-170 0 -275 111 -275 370s105 370 275 370c35 0 66 -6 85 -10h329c2 -4 3 -9 3 -16s-1 -12 -3 -16h-301v-307h251c2 -4 3 -9 3 -15s-1 -11 -3 -16h-251v-318h311c2 -5 3 -9 3 -15c0 -7 -1 -12 -3 -17zM110 360
c0 -245 94 -340 239 -340c33 0 62 7 79 13v655c-18 6 -45 12 -79 12c-145 0 -239 -95 -239 -340z" />
    <glyph glyph-name="Oacute" unicode="&#xd3;" horiz-adv-x="678" 
d="M339 -10c-165 0 -265 111 -265 370s100 370 265 370s265 -111 265 -370s-100 -370 -265 -370zM339 700c-140 0 -229 -95 -229 -340s89 -340 229 -340s229 95 229 340s-89 340 -229 340zM474 906l-125 -147c-12 1 -20 6 -24 14l117 150c14 0 25 -6 32 -17z" />
    <glyph glyph-name="Obreve" unicode="&#x14e;" horiz-adv-x="678" 
d="M339 -10c-165 0 -265 111 -265 370s100 370 265 370s265 -111 265 -370s-100 -370 -265 -370zM339 700c-140 0 -229 -95 -229 -340s89 -340 229 -340s229 95 229 340s-89 340 -229 340zM475 840c0 0 -46 -51 -134 -51c-89 0 -134 51 -134 51c3 10 7 15 18 19
c0 0 47 -42 116 -42s115 42 115 42c12 -3 17 -8 19 -19z" />
    <glyph glyph-name="Ocircumflex" unicode="&#xd4;" horiz-adv-x="678" 
d="M339 -10c-165 0 -265 111 -265 370s100 370 265 370s265 -111 265 -370s-100 -370 -265 -370zM339 700c-140 0 -229 -95 -229 -340s89 -340 229 -340s229 95 229 340s-89 340 -229 340zM328 893h26l123 -101c-2 -10 -7 -18 -16 -20l-121 90l-119 -91c-10 4 -15 10 -17 21
z" />
    <glyph glyph-name="Odieresis" unicode="&#xd6;" horiz-adv-x="678" 
d="M339 -10c-165 0 -265 111 -265 370s100 370 265 370s265 -111 265 -370s-100 -370 -265 -370zM339 700c-140 0 -229 -95 -229 -340s89 -340 229 -340s229 95 229 340s-89 340 -229 340zM291 835v-42s-8 -3 -24 -3s-24 3 -24 3v42s8 3 24 3s24 -3 24 -3zM432 835v-42
s-8 -3 -24 -3s-24 3 -24 3v42s8 3 24 3s24 -3 24 -3z" />
    <glyph glyph-name="Ograve" unicode="&#xd2;" horiz-adv-x="678" 
d="M339 -10c-165 0 -265 111 -265 370s100 370 265 370s265 -111 265 -370s-100 -370 -265 -370zM339 700c-140 0 -229 -95 -229 -340s89 -340 229 -340s229 95 229 340s-89 340 -229 340zM385 757l-125 147c6 9 19 17 32 17l117 -150c-4 -8 -12 -13 -24 -14z" />
    <glyph glyph-name="Ohungarumlaut" unicode="&#x150;" horiz-adv-x="678" 
d="M339 -10c-165 0 -265 111 -265 370s100 370 265 370s265 -111 265 -370s-100 -370 -265 -370zM339 700c-140 0 -229 -95 -229 -340s89 -340 229 -340s229 95 229 340s-89 340 -229 340zM368 899l-111 -131c-12 1 -20 5 -23 13l98 135c16 0 28 -6 36 -17zM512 899
l-112 -131c-11 1 -19 5 -23 13l99 135c16 0 27 -6 36 -17z" />
    <glyph glyph-name="Omacron" unicode="&#x14c;" horiz-adv-x="678" 
d="M339 -10c-165 0 -265 111 -265 370s100 370 265 370s265 -111 265 -370s-100 -370 -265 -370zM339 700c-140 0 -229 -95 -229 -340s89 -340 229 -340s229 95 229 340s-89 340 -229 340zM471 798h-259c-3 5 -4 10 -4 16s1 11 4 16h259c3 -4 4 -9 4 -15s-1 -12 -4 -17z" />
    <glyph glyph-name="Omega" unicode="&#x2126;" horiz-adv-x="712" 
d="M644 0h-227c-3 5 -4 11 -4 17s1 13 4 18c50 42 178 163 178 345c0 212 -94 320 -239 320s-239 -108 -239 -320c0 -182 128 -303 178 -345c3 -5 4 -11 4 -17s-1 -13 -4 -18h-227c-2 4 -4 10 -4 16s1 11 4 16h179c-8 6 -166 131 -166 348c0 246 113 350 275 350
s275 -104 275 -350c0 -217 -159 -342 -167 -348h180c3 -5 4 -10 4 -16s-2 -12 -4 -16z" />
    <glyph glyph-name="Oslash" unicode="&#xd8;" horiz-adv-x="678" 
d="M572 763l-56 -101c57 -58 88 -157 88 -302c0 -259 -100 -370 -265 -370c-66 0 -122 18 -165 56l-50 -90s-6 -3 -19 -3c-12 0 -18 3 -18 3l63 115c-49 59 -76 154 -76 289c0 259 100 370 265 370c60 0 111 -14 152 -45l43 78s7 4 19 4c15 0 19 -4 19 -4zM339 700
c-140 0 -229 -95 -229 -340c0 -119 21 -202 58 -257l307 553c-37 30 -83 44 -136 44zM191 76c38 -39 88 -56 148 -56c140 0 229 95 229 340c0 130 -25 217 -69 271z" />
    <glyph glyph-name="Oslashacute" unicode="&#x1fe;" horiz-adv-x="678" 
d="M444 906l-118 -139c-12 1 -20 6 -24 14l110 142c14 0 25 -6 32 -17zM572 762l-56 -100c57 -59 88 -157 88 -302c0 -259 -100 -370 -265 -370c-66 0 -122 18 -165 56l-50 -91s-6 -3 -19 -3c-12 0 -18 3 -18 3l64 115c-50 60 -77 155 -77 290c0 259 100 370 265 370
c60 0 111 -15 152 -45l43 77s7 4 19 4c15 0 19 -4 19 -4zM339 700c-140 0 -229 -95 -229 -340c0 -119 21 -203 59 -257l306 552c-37 31 -83 45 -136 45zM191 76c38 -39 88 -56 148 -56c140 0 229 95 229 340c0 129 -25 217 -69 271z" />
    <glyph glyph-name="Otilde" unicode="&#xd5;" horiz-adv-x="678" 
d="M339 -10c-165 0 -265 111 -265 370s100 370 265 370s265 -111 265 -370s-100 -370 -265 -370zM339 700c-140 0 -229 -95 -229 -340s89 -340 229 -340s229 95 229 340s-89 340 -229 340zM407 811c28 0 39 29 39 29c10 1 20 -2 26 -11c0 0 -19 -47 -70 -47
c-48 0 -69 36 -107 36c-28 0 -39 -30 -39 -30c-11 -1 -22 4 -26 11c0 0 19 48 70 48c48 0 69 -36 107 -36z" />
    <glyph glyph-name="P" unicode="P" horiz-adv-x="598" 
d="M349 309h-208v-306s-5 -3 -17 -3s-17 3 -17 3v717h242c123 0 194 -83 194 -206c0 -122 -71 -205 -194 -205zM141 688v-347h209c100 0 157 66 157 172c0 109 -57 175 -157 175h-209z" />
    <glyph glyph-name="Q" unicode="Q" horiz-adv-x="678" 
d="M604 360c0 -158 -37 -262 -104 -318c37 -38 88 -63 126 -72c-2 -14 -9 -24 -21 -30c-44 10 -98 44 -131 84c-38 -23 -83 -34 -135 -34c-165 0 -265 111 -265 370s100 370 265 370s265 -111 265 -370zM339 700c-140 0 -229 -95 -229 -340s89 -340 229 -340s229 95 229 340
s-89 340 -229 340z" />
    <glyph glyph-name="R" unicode="R" horiz-adv-x="615" 
d="M141 688v-685s-5 -3 -17 -3s-17 3 -17 3v717h236c123 0 195 -79 195 -197s-72 -197 -196 -197h-216v32h219c96 0 157 61 157 165s-61 165 -157 165h-204zM387 335l175 -332s-7 -3 -19 -3c-13 0 -21 3 -21 3l-170 323z" />
    <glyph glyph-name="Racute" unicode="&#x154;" horiz-adv-x="615" 
d="M141 688v-685s-5 -3 -17 -3s-17 3 -17 3v717h236c123 0 195 -79 195 -197s-72 -197 -196 -197h-216v32h219c96 0 157 61 157 165s-61 165 -157 165h-204zM387 335l175 -332s-7 -3 -19 -3c-13 0 -21 3 -21 3l-170 323zM371 906l-125 -147c-12 1 -20 6 -24 14l117 150
c14 0 25 -6 32 -17z" />
    <glyph glyph-name="Rcaron" unicode="&#x158;" horiz-adv-x="615" 
d="M141 688v-685s-5 -3 -17 -3s-17 3 -17 3v717h236c123 0 195 -79 195 -197s-72 -197 -196 -197h-216v32h219c96 0 157 61 157 165s-61 165 -157 165h-204zM387 335l175 -332s-7 -3 -19 -3c-13 0 -21 3 -21 3l-170 323zM301 771h-26l-124 101c2 11 7 17 17 21l121 -91
l119 90c9 -2 14 -10 16 -20z" />
    <glyph glyph-name="Rcommaaccent" unicode="&#x156;" horiz-adv-x="615" 
d="M141 688v-685s-5 -3 -17 -3s-17 3 -17 3v717h236c123 0 195 -79 195 -197s-72 -197 -196 -197h-216v32h219c96 0 157 61 157 165s-61 165 -157 165h-204zM387 335l175 -332s-7 -3 -19 -3c-13 0 -21 3 -21 3l-170 323zM293 -182l-16 12s28 28 33 82c-12 0 -18 3 -18 3v42
s8 3 24 3s24 -3 24 -3v-32c0 -70 -47 -107 -47 -107z" />
    <glyph glyph-name="S" unicode="S" horiz-adv-x="560" 
d="M298 699c-132 0 -194 -62 -194 -157c0 -111 82 -133 190 -161c103 -27 206 -59 206 -198c0 -120 -87 -193 -233 -193c-120 0 -198 37 -198 37c-1 10 3 22 10 28c0 0 87 -32 183 -32c127 0 203 55 203 159c0 112 -86 139 -181 164c-107 29 -215 57 -215 194
c0 116 80 190 225 190c109 0 180 -24 180 -24c1 -12 -2 -21 -10 -28c0 0 -77 21 -166 21z" />
    <glyph glyph-name="Sacute" unicode="&#x15a;" horiz-adv-x="560" 
d="M298 699c-132 0 -194 -62 -194 -157c0 -111 82 -133 190 -161c103 -27 206 -59 206 -198c0 -120 -87 -193 -233 -193c-120 0 -198 37 -198 37c-1 10 3 22 10 28c0 0 87 -32 183 -32c127 0 203 55 203 159c0 112 -86 139 -181 164c-107 29 -215 57 -215 194
c0 116 80 190 225 190c109 0 180 -24 180 -24c1 -12 -2 -21 -10 -28c0 0 -77 21 -166 21zM377 906l-125 -147c-12 1 -20 6 -24 14l117 150c14 0 25 -6 32 -17z" />
    <glyph glyph-name="Scaron" unicode="&#x160;" horiz-adv-x="560" 
d="M298 699c-132 0 -194 -62 -194 -157c0 -111 82 -133 190 -161c103 -27 206 -59 206 -198c0 -120 -87 -193 -233 -193c-120 0 -198 37 -198 37c-1 10 3 22 10 28c0 0 87 -32 183 -32c127 0 203 55 203 159c0 112 -86 139 -181 164c-107 29 -215 57 -215 194
c0 116 80 190 225 190c109 0 180 -24 180 -24c1 -12 -2 -21 -10 -28c0 0 -77 21 -166 21zM307 771h-26l-124 101c2 11 7 17 17 21l121 -91l119 90c9 -2 14 -10 16 -20z" />
    <glyph glyph-name="Scedilla" unicode="&#x15e;" horiz-adv-x="559" 
d="M293 381c103 -27 206 -59 206 -198c0 -115 -80 -187 -216 -193l-9 -53c78 0 113 -28 113 -83c0 -64 -38 -97 -112 -97c-50 0 -87 23 -87 23c1 10 5 17 11 22c0 0 33 -18 77 -18c50 0 78 23 78 70c0 39 -26 55 -73 55h-31l-7 8l12 73c-114 2 -187 37 -187 37
c-1 10 3 22 10 28c0 0 87 -32 183 -32c127 0 203 55 203 159c0 112 -86 139 -181 164c-107 29 -215 57 -215 194c0 116 80 190 225 190c109 0 180 -24 180 -24c1 -12 -2 -21 -10 -28c0 0 -77 21 -166 21c-132 0 -194 -62 -194 -157c0 -111 82 -133 190 -161z" />
    <glyph glyph-name="Scircumflex" unicode="&#x15c;" horiz-adv-x="560" 
d="M298 699c-132 0 -194 -62 -194 -157c0 -111 82 -133 190 -161c103 -27 206 -59 206 -198c0 -120 -87 -193 -233 -193c-120 0 -198 37 -198 37c-1 10 3 22 10 28c0 0 87 -32 183 -32c127 0 203 55 203 159c0 112 -86 139 -181 164c-107 29 -215 57 -215 194
c0 116 80 190 225 190c109 0 180 -24 180 -24c1 -12 -2 -21 -10 -28c0 0 -77 21 -166 21zM288 893h26l123 -101c-2 -10 -7 -18 -16 -20l-121 90l-119 -91c-10 4 -15 10 -17 21z" />
    <glyph glyph-name="Scommaaccent" unicode="&#x218;" horiz-adv-x="560" 
d="M298 699c-132 0 -194 -62 -194 -157c0 -111 82 -133 190 -161c103 -27 206 -59 206 -198c0 -120 -87 -193 -233 -193c-120 0 -198 37 -198 37c-1 10 3 22 10 28c0 0 87 -32 183 -32c127 0 203 55 203 159c0 112 -86 139 -181 164c-107 29 -215 57 -215 194
c0 116 80 190 225 190c109 0 180 -24 180 -24c1 -12 -2 -21 -10 -28c0 0 -77 21 -166 21zM255 -205l-16 12s28 28 33 82c-12 0 -18 3 -18 3v42s8 3 24 3s24 -3 24 -3v-32c0 -70 -47 -107 -47 -107z" />
    <glyph glyph-name="T" unicode="T" horiz-adv-x="528" 
d="M36 720h457s3 -4 3 -15c0 -10 -3 -16 -3 -16h-209v-686s-5 -3 -17 -3s-17 3 -17 3v686h-214s-3 6 -3 16s3 15 3 15z" />
    <glyph glyph-name="Tbar" unicode="&#x166;" horiz-adv-x="541" 
d="M499 689h-209v-330h130s3 -5 3 -15c0 -9 -3 -15 -3 -15h-130v-326s-5 -3 -17 -3s-17 3 -17 3v326h-130s-3 5 -3 15s3 15 3 15h130v330h-214s-3 6 -3 16s3 15 3 15h457s3 -4 3 -15c0 -10 -3 -16 -3 -16z" />
    <glyph glyph-name="Tcaron" unicode="&#x164;" horiz-adv-x="528" 
d="M36 720h457s3 -4 3 -15c0 -10 -3 -16 -3 -16h-209v-686s-5 -3 -17 -3s-17 3 -17 3v686h-214s-3 6 -3 16s3 15 3 15zM281 771h-26l-124 101c2 11 7 17 17 21l121 -91l119 90c9 -2 14 -10 16 -20z" />
    <glyph glyph-name="Tcommaaccent" unicode="&#x162;" horiz-adv-x="528" 
d="M36 720h457s3 -4 3 -15c0 -10 -3 -16 -3 -16h-209v-686s-5 -3 -17 -3s-17 3 -17 3v686h-214s-3 6 -3 16s3 15 3 15zM244 -182l-16 12s28 28 33 82c-12 0 -18 3 -18 3v42s8 3 24 3s24 -3 24 -3v-32c0 -70 -47 -107 -47 -107z" />
    <glyph glyph-name="Tcommaaccent" unicode="&#x21a;" horiz-adv-x="528" 
d="M36 720h457s3 -4 3 -15c0 -10 -3 -16 -3 -16h-209v-686s-5 -3 -17 -3s-17 3 -17 3v686h-214s-3 6 -3 16s3 15 3 15zM244 -182l-16 12s28 28 33 82c-12 0 -18 3 -18 3v42s8 3 24 3s24 -3 24 -3v-32c0 -70 -47 -107 -47 -107z" />
    <glyph glyph-name="Thorn" unicode="&#xde;" horiz-adv-x="599" 
d="M348 172h-208v-169s-4 -3 -17 -3s-17 3 -17 3v714s4 3 17 3s17 -3 17 -3v-146h208c123 0 194 -80 194 -200c0 -119 -71 -199 -194 -199zM140 539v-335h209c100 0 157 63 157 166c0 106 -57 169 -157 169h-209z" />
    <glyph glyph-name="U" unicode="U" horiz-adv-x="663" 
d="M562 717v-495c0 -149 -93 -232 -231 -232s-230 84 -230 232v495s6 3 17 3c12 0 17 -3 17 -3v-499c0 -126 74 -198 198 -198c123 0 196 72 196 198v499s6 3 16 3c11 0 17 -3 17 -3z" />
    <glyph glyph-name="Uacute" unicode="&#xda;" horiz-adv-x="663" 
d="M562 717v-495c0 -149 -93 -232 -231 -232s-230 84 -230 232v495s6 3 17 3c12 0 17 -3 17 -3v-499c0 -126 74 -198 198 -198c123 0 196 72 196 198v499s6 3 16 3c11 0 17 -3 17 -3zM420 906l-125 -147c-12 1 -20 6 -24 14l117 150c14 0 25 -6 32 -17z" />
    <glyph glyph-name="Ubreve" unicode="&#x16c;" horiz-adv-x="663" 
d="M562 717v-495c0 -149 -93 -232 -231 -232s-230 84 -230 232v495s6 3 17 3c12 0 17 -3 17 -3v-499c0 -126 74 -198 198 -198c123 0 196 72 196 198v499s6 3 16 3c11 0 17 -3 17 -3zM461 840c0 0 -46 -51 -134 -51c-89 0 -134 51 -134 51c3 10 7 15 18 19
c0 0 47 -42 116 -42s115 42 115 42c12 -3 17 -8 19 -19z" />
    <glyph glyph-name="Ucircumflex" unicode="&#xdb;" horiz-adv-x="663" 
d="M562 717v-495c0 -149 -93 -232 -231 -232s-230 84 -230 232v495s6 3 17 3c12 0 17 -3 17 -3v-499c0 -126 74 -198 198 -198c123 0 196 72 196 198v499s6 3 16 3c11 0 17 -3 17 -3zM320 893h26l123 -101c-2 -10 -7 -18 -16 -20l-121 90l-119 -91c-10 4 -15 10 -17 21z" />
    <glyph glyph-name="Udieresis" unicode="&#xdc;" horiz-adv-x="663" 
d="M562 717v-495c0 -149 -93 -232 -231 -232s-230 84 -230 232v495s6 3 17 3c12 0 17 -3 17 -3v-499c0 -126 74 -198 198 -198c123 0 196 72 196 198v499s6 3 16 3c11 0 17 -3 17 -3zM283 795v-42s-8 -3 -24 -3s-24 3 -24 3v42s8 3 24 3s24 -3 24 -3zM424 795v-42
s-8 -3 -24 -3s-24 3 -24 3v42s8 3 24 3s24 -3 24 -3z" />
    <glyph glyph-name="Ugrave" unicode="&#xd9;" horiz-adv-x="663" 
d="M562 717v-495c0 -149 -93 -232 -231 -232s-230 84 -230 232v495s6 3 17 3c12 0 17 -3 17 -3v-499c0 -126 74 -198 198 -198c123 0 196 72 196 198v499s6 3 16 3c11 0 17 -3 17 -3zM351 757l-125 147c6 9 19 17 32 17l117 -150c-4 -8 -12 -13 -24 -14z" />
    <glyph glyph-name="Uhungarumlaut" unicode="&#x170;" horiz-adv-x="663" 
d="M562 717v-495c0 -149 -93 -232 -231 -232s-230 84 -230 232v495s6 3 17 3c12 0 17 -3 17 -3v-499c0 -126 74 -198 198 -198c123 0 196 72 196 198v499s6 3 16 3c11 0 17 -3 17 -3zM366 901l-121 -143c-12 1 -19 6 -23 14l107 146c16 0 28 -6 37 -17zM511 901l-121 -143
c-12 1 -19 6 -23 14l107 146c16 0 28 -6 37 -17z" />
    <glyph glyph-name="Umacron" unicode="&#x16a;" horiz-adv-x="663" 
d="M562 717v-495c0 -149 -93 -232 -231 -232s-230 84 -230 232v495s6 3 17 3c12 0 17 -3 17 -3v-499c0 -126 74 -198 198 -198c123 0 196 72 196 198v499s6 3 16 3c11 0 17 -3 17 -3zM468 771h-267c-3 5 -4 10 -4 16s1 11 4 16h267c3 -4 4 -9 4 -15s-1 -12 -4 -17z" />
    <glyph glyph-name="Uogonek" unicode="&#x172;" horiz-adv-x="663" 
d="M529 717c0 0 6 3 16 3c11 0 17 -3 17 -3v-495c0 -113 -54 -188 -140 -218c-26 -10 -69 -33 -69 -88c0 -32 21 -49 54 -49c25 0 42 11 42 11c6 -5 9 -15 9 -24c0 0 -21 -15 -57 -15c-53 0 -81 31 -81 73c0 35 15 61 39 79c-9 -1 -18 -1 -28 -1c-138 0 -230 84 -230 232
v495s6 3 17 3c12 0 17 -3 17 -3v-499c0 -126 74 -198 198 -198c123 0 196 72 196 198v499z" />
    <glyph glyph-name="Uring" unicode="&#x16e;" horiz-adv-x="663" 
d="M562 717v-495c0 -149 -93 -232 -231 -232s-230 84 -230 232v495s6 3 17 3c12 0 17 -3 17 -3v-499c0 -126 74 -198 198 -198c123 0 196 72 196 198v499s6 3 16 3c11 0 17 -3 17 -3zM331 769c-63 0 -111 38 -111 106s55 104 112 104c56 0 113 -35 113 -104
c0 -68 -52 -106 -114 -106zM413 875c0 39 -27 75 -82 75c-54 0 -79 -37 -79 -75c0 -39 25 -77 79 -77c55 0 82 39 82 77z" />
    <glyph glyph-name="Utilde" unicode="&#x168;" horiz-adv-x="663" 
d="M562 717v-495c0 -149 -93 -232 -231 -232s-230 84 -230 232v495s6 3 17 3c12 0 17 -3 17 -3v-499c0 -126 74 -198 198 -198c123 0 196 72 196 198v499s6 3 16 3c11 0 17 -3 17 -3zM391 808c28 0 39 27 39 27c10 1 20 -1 26 -10c0 0 -19 -45 -70 -45c-48 0 -69 34 -107 34
c-28 0 -39 -29 -39 -29c-11 -1 -22 4 -26 11c0 0 19 46 70 46c48 0 69 -34 107 -34z" />
    <glyph glyph-name="V" unicode="V" horiz-adv-x="608" 
d="M63 717l223 -610c12 -33 17 -56 17 -56h2s4 23 16 55l223 611s5 3 18 3s17 -3 17 -3l-261 -714s-4 -3 -14 -3c-9 0 -14 3 -14 3l-261 714s4 3 17 3c11 0 17 -3 17 -3z" />
    <glyph glyph-name="W" unicode="W" horiz-adv-x="943" 
d="M671 3l-176 577c-17 59 -19 84 -19 84h-2s-2 -25 -19 -84l-177 -577s-5 -3 -14 -3c-10 0 -14 3 -14 3l-218 714s5 3 17 3s18 -3 18 -3l175 -574c17 -55 22 -92 22 -92h2s3 37 20 92l176 574s3 3 14 3s14 -3 14 -3l175 -574c16 -55 19 -92 19 -92h2s4 37 21 92l166 574
s4 3 17 3c11 0 16 -3 16 -3l-207 -714s-4 -3 -14 -3s-14 3 -14 3z" />
    <glyph glyph-name="Wacute" unicode="&#x1e82;" horiz-adv-x="943" 
d="M671 3l-176 577c-17 59 -19 84 -19 84h-2s-2 -25 -19 -84l-177 -577s-5 -3 -14 -3c-10 0 -14 3 -14 3l-218 714s5 3 17 3s18 -3 18 -3l175 -574c17 -55 22 -92 22 -92h2s3 37 20 92l176 574s3 3 14 3s14 -3 14 -3l175 -574c16 -55 19 -92 19 -92h2s4 37 21 92l166 574
s4 3 17 3c11 0 16 -3 16 -3l-207 -714s-4 -3 -14 -3s-14 3 -14 3zM552 906l-125 -147c-12 1 -20 6 -24 14l117 150c14 0 25 -6 32 -17z" />
    <glyph glyph-name="Wcircumflex" unicode="&#x174;" horiz-adv-x="943" 
d="M671 3l-176 577c-17 59 -19 84 -19 84h-2s-2 -25 -19 -84l-177 -577s-5 -3 -14 -3c-10 0 -14 3 -14 3l-218 714s5 3 17 3s18 -3 18 -3l175 -574c17 -55 22 -92 22 -92h2s3 37 20 92l176 574s3 3 14 3s14 -3 14 -3l175 -574c16 -55 19 -92 19 -92h2s4 37 21 92l166 574
s4 3 17 3c11 0 16 -3 16 -3l-207 -714s-4 -3 -14 -3s-14 3 -14 3zM465 893h26l123 -101c-2 -10 -7 -18 -16 -20l-121 90l-119 -91c-10 4 -15 10 -17 21z" />
    <glyph glyph-name="Wdieresis" unicode="&#x1e84;" horiz-adv-x="943" 
d="M671 3l-176 577c-17 59 -19 84 -19 84h-2s-2 -25 -19 -84l-177 -577s-5 -3 -14 -3c-10 0 -14 3 -14 3l-218 714s5 3 17 3s18 -3 18 -3l175 -574c17 -55 22 -92 22 -92h2s3 37 20 92l176 574s3 3 14 3s14 -3 14 -3l175 -574c16 -55 19 -92 19 -92h2s4 37 21 92l166 574
s4 3 17 3c11 0 16 -3 16 -3l-207 -714s-4 -3 -14 -3s-14 3 -14 3zM429 835v-42s-8 -3 -24 -3s-24 3 -24 3v42s8 3 24 3s24 -3 24 -3zM570 835v-42s-8 -3 -24 -3s-24 3 -24 3v42s8 3 24 3s24 -3 24 -3z" />
    <glyph glyph-name="Wgrave" unicode="&#x1e80;" horiz-adv-x="943" 
d="M671 3l-176 577c-17 59 -19 84 -19 84h-2s-2 -25 -19 -84l-177 -577s-5 -3 -14 -3c-10 0 -14 3 -14 3l-218 714s5 3 17 3s18 -3 18 -3l175 -574c17 -55 22 -92 22 -92h2s3 37 20 92l176 574s3 3 14 3s14 -3 14 -3l175 -574c16 -55 19 -92 19 -92h2s4 37 21 92l166 574
s4 3 17 3c11 0 16 -3 16 -3l-207 -714s-4 -3 -14 -3s-14 3 -14 3zM493 757l-125 147c6 9 19 17 32 17l117 -150c-4 -8 -12 -13 -24 -14z" />
    <glyph glyph-name="X" unicode="X" horiz-adv-x="591" 
d="M547 717l-229 -348l237 -366s-7 -3 -21 -3c-16 0 -22 3 -22 3l-221 341l-213 -341s-8 -3 -22 -3c-13 0 -19 3 -19 3l230 365l-225 349s7 3 22 3c13 0 20 -3 20 -3l209 -325l212 325s7 3 21 3s21 -3 21 -3z" />
    <glyph glyph-name="Y" unicode="Y" horiz-adv-x="614" 
d="M28 717c0 0 7 3 21 3s20 -3 20 -3l237 -375l245 375s5 3 19 3c16 0 21 -3 21 -3l-268 -412v-302s-6 -3 -17 -3s-17 3 -17 3v301z" />
    <glyph glyph-name="Yacute" unicode="&#xdd;" horiz-adv-x="614" 
d="M28 717c0 0 7 3 21 3s20 -3 20 -3l237 -375l245 375s5 3 19 3c16 0 21 -3 21 -3l-268 -412v-302s-6 -3 -17 -3s-17 3 -17 3v301zM406 906l-125 -147c-12 1 -20 6 -24 14l117 150c14 0 25 -6 32 -17z" />
    <glyph glyph-name="Ycircumflex" unicode="&#x176;" horiz-adv-x="614" 
d="M28 717c0 0 7 3 21 3s20 -3 20 -3l237 -375l245 375s5 3 19 3c16 0 21 -3 21 -3l-268 -412v-302s-6 -3 -17 -3s-17 3 -17 3v301zM301 893h26l123 -101c-2 -10 -7 -18 -16 -20l-121 90l-119 -91c-10 4 -15 10 -17 21z" />
    <glyph glyph-name="Ydieresis" unicode="&#x178;" horiz-adv-x="614" 
d="M28 717c0 0 7 3 21 3s20 -3 20 -3l237 -375l245 375s5 3 19 3c16 0 21 -3 21 -3l-268 -412v-302s-6 -3 -17 -3s-17 3 -17 3v301zM259 816v-42s-8 -3 -24 -3s-24 3 -24 3v42s8 3 24 3s24 -3 24 -3zM400 816v-42s-8 -3 -24 -3s-24 3 -24 3v42s8 3 24 3s24 -3 24 -3z" />
    <glyph glyph-name="Ygrave" unicode="&#x1ef2;" horiz-adv-x="614" 
d="M28 717c0 0 7 3 21 3s20 -3 20 -3l237 -375l245 375s5 3 19 3c16 0 21 -3 21 -3l-268 -412v-302s-6 -3 -17 -3s-17 3 -17 3v301zM327 757l-125 147c6 9 19 17 32 17l117 -150c-4 -8 -12 -13 -24 -14z" />
    <glyph glyph-name="Z" unicode="Z" horiz-adv-x="575" 
d="M73 720h439s3 -6 3 -16s-3 -16 -3 -16l-426 -656h439s3 -5 3 -16s-3 -16 -3 -16h-479s-3 5 -3 16c0 10 3 16 3 16l427 656h-400s-3 5 -3 16s3 16 3 16z" />
    <glyph glyph-name="Zacute" unicode="&#x179;" horiz-adv-x="575" 
d="M73 720h439s3 -6 3 -16s-3 -16 -3 -16l-426 -656h439s3 -5 3 -16s-3 -16 -3 -16h-479s-3 5 -3 16c0 10 3 16 3 16l427 656h-400s-3 5 -3 16s3 16 3 16zM385 906l-125 -147c-12 1 -20 6 -24 14l117 150c14 0 25 -6 32 -17z" />
    <glyph glyph-name="Zcaron" unicode="&#x17d;" horiz-adv-x="575" 
d="M73 720h439s3 -6 3 -16s-3 -16 -3 -16l-426 -656h439s3 -5 3 -16s-3 -16 -3 -16h-479s-3 5 -3 16c0 10 3 16 3 16l427 656h-400s-3 5 -3 16s3 16 3 16zM305 771h-26l-124 101c2 11 7 17 17 21l121 -91l119 90c9 -2 14 -10 16 -20z" />
    <glyph glyph-name="Zdotaccent" unicode="&#x17b;" horiz-adv-x="575" 
d="M73 720h439s3 -6 3 -16s-3 -16 -3 -16l-426 -656h439s3 -5 3 -16s-3 -16 -3 -16h-479s-3 5 -3 16c0 10 3 16 3 16l427 656h-400s-3 5 -3 16s3 16 3 16zM313 833v-42s-8 -3 -24 -3s-24 3 -24 3v42s8 3 24 3s24 -3 24 -3z" />
    <glyph glyph-name="_0020" horiz-adv-x="0" 
 />
    <glyph glyph-name="_375" horiz-adv-x="646" 
d="M598 0h-549c-8 6 -13 15 -15 24l274 693s5 3 18 3s18 -3 18 -3l269 -693c-3 -10 -8 -18 -15 -24zM71 32h505c-63 158 -125 317 -187 476l-37 95c-20 49 -26 80 -26 80h-2s-5 -28 -26 -81l-38 -95z" />
    <glyph glyph-name="_376" horiz-adv-x="700" 
d="M637 0h-227c-3 5 -4 11 -4 17s1 13 4 18c50 42 178 163 178 345c0 212 -94 320 -239 320s-239 -108 -239 -320c0 -182 128 -303 178 -345c3 -5 4 -11 4 -17s-1 -13 -4 -18h-227c-2 4 -4 10 -4 16s1 11 4 16h179c-8 6 -166 131 -166 348c0 246 113 350 275 350
s275 -104 275 -350c0 -217 -159 -342 -167 -348h180c3 -5 4 -10 4 -16s-2 -12 -4 -16z" />
    <glyph glyph-name="a" unicode="a" horiz-adv-x="510" 
d="M391 284v78c0 106 -48 145 -139 145c-80 0 -148 -27 -148 -27c-8 6 -12 17 -11 27c0 0 77 29 163 29c142 0 167 -76 167 -213v-320s-4 -3 -13 -3s-13 3 -13 3l-6 90v1c-31 -67 -97 -104 -183 -104c-92 0 -155 56 -155 151c0 94 57 153 184 153c72 0 133 -7 154 -10z
M87 141c0 -82 50 -121 125 -121c102 0 179 70 179 188v47c-21 2 -86 10 -148 10c-107 0 -156 -41 -156 -124z" />
    <glyph glyph-name="aacute" unicode="&#xe1;" horiz-adv-x="510" 
d="M391 284v78c0 106 -48 145 -139 145c-80 0 -148 -27 -148 -27c-8 6 -12 17 -11 27c0 0 77 29 163 29c142 0 167 -76 167 -213v-320s-4 -3 -13 -3s-13 3 -13 3l-6 90v1c-31 -67 -97 -104 -183 -104c-92 0 -155 56 -155 151c0 94 57 153 184 153c72 0 133 -7 154 -10z
M87 141c0 -82 50 -121 125 -121c102 0 179 70 179 188v47c-21 2 -86 10 -148 10c-107 0 -156 -41 -156 -124zM335 757l-125 -147c-12 1 -20 6 -24 14l117 150c14 0 25 -6 32 -17z" />
    <glyph glyph-name="abreve" unicode="&#x103;" horiz-adv-x="510" 
d="M391 284v78c0 106 -48 145 -139 145c-80 0 -148 -27 -148 -27c-8 6 -12 17 -11 27c0 0 77 29 163 29c142 0 167 -76 167 -213v-320s-4 -3 -13 -3s-13 3 -13 3l-6 90v1c-31 -67 -97 -104 -183 -104c-92 0 -155 56 -155 151c0 94 57 153 184 153c72 0 133 -7 154 -10z
M87 141c0 -82 50 -121 125 -121c102 0 179 70 179 188v47c-21 2 -86 10 -148 10c-107 0 -156 -41 -156 -124zM382 688c0 0 -44 -54 -130 -54s-130 54 -130 54c3 10 7 15 18 19c0 0 45 -43 112 -43s112 43 112 43c12 -3 16 -8 18 -19z" />
    <glyph glyph-name="acircumflex" unicode="&#xe2;" horiz-adv-x="510" 
d="M391 284v78c0 106 -48 145 -139 145c-80 0 -148 -27 -148 -27c-8 6 -12 17 -11 27c0 0 77 29 163 29c142 0 167 -76 167 -213v-320s-4 -3 -13 -3s-13 3 -13 3l-6 90v1c-31 -67 -97 -104 -183 -104c-92 0 -155 56 -155 151c0 94 57 153 184 153c72 0 133 -7 154 -10z
M87 141c0 -82 50 -121 125 -121c102 0 179 70 179 188v47c-21 2 -86 10 -148 10c-107 0 -156 -41 -156 -124zM239 721h25l121 -99c-2 -9 -7 -17 -16 -19l-118 88l-117 -89c-10 4 -14 10 -16 20z" />
    <glyph glyph-name="acute" unicode="&#xb4;" horiz-adv-x="224" 
d="M182 790l-125 -147c-12 1 -20 6 -24 14l117 150c14 0 25 -6 32 -17z" />
    <glyph glyph-name="adieresis" unicode="&#xe4;" horiz-adv-x="510" 
d="M391 284v78c0 106 -48 145 -139 145c-80 0 -148 -27 -148 -27c-8 6 -12 17 -11 27c0 0 77 29 163 29c142 0 167 -76 167 -213v-320s-4 -3 -13 -3s-13 3 -13 3l-6 90v1c-31 -67 -97 -104 -183 -104c-92 0 -155 56 -155 151c0 94 57 153 184 153c72 0 133 -7 154 -10z
M87 141c0 -82 50 -121 125 -121c102 0 179 70 179 188v47c-21 2 -86 10 -148 10c-107 0 -156 -41 -156 -124zM205 687v-42s-8 -3 -24 -3s-24 3 -24 3v42s8 3 24 3s24 -3 24 -3zM346 687v-42s-8 -3 -24 -3s-24 3 -24 3v42s8 3 24 3s24 -3 24 -3z" />
    <glyph glyph-name="ae" unicode="&#xe6;" horiz-adv-x="779" 
d="M710 261h-305c6 -162 56 -239 156 -239c78 0 117 39 117 39c10 -5 16 -14 17 -25c0 0 -45 -46 -138 -46c-83 0 -143 47 -168 139c-23 -89 -91 -139 -191 -139c-87 0 -145 56 -145 151c0 94 52 150 174 150h144v71c0 106 -43 145 -129 145c-75 0 -138 -27 -138 -27
c-8 6 -12 17 -11 27c0 0 72 29 153 29c90 0 136 -40 151 -113c28 77 86 113 160 113c112 0 164 -79 164 -184c0 -53 -11 -91 -11 -91zM87 141c0 -82 45 -121 115 -121c97 0 169 70 169 188v53h-138c-102 0 -146 -37 -146 -120zM687 357c0 79 -34 149 -130 149
c-82 0 -148 -59 -152 -215h277s5 19 5 66z" />
    <glyph glyph-name="aeacute" unicode="&#x1fd;" horiz-adv-x="779" 
d="M474 757l-125 -147c-12 1 -20 6 -24 14l117 150c14 0 25 -6 32 -17zM710 261h-305c6 -162 56 -239 156 -239c78 0 117 39 117 39c10 -5 16 -14 17 -25c0 0 -45 -46 -138 -46c-83 0 -143 47 -168 139c-23 -89 -91 -139 -191 -139c-87 0 -145 56 -145 151
c0 94 52 150 174 150h144v71c0 106 -43 145 -129 145c-75 0 -138 -27 -138 -27c-8 6 -12 17 -11 27c0 0 72 29 153 29c90 0 136 -40 151 -113c28 77 86 113 160 113c112 0 164 -79 164 -184c0 -53 -11 -91 -11 -91zM87 141c0 -82 45 -121 115 -121c97 0 169 70 169 188v53
h-138c-102 0 -146 -37 -146 -120zM687 357c0 79 -34 149 -130 149c-82 0 -148 -59 -152 -215h277s5 19 5 66z" />
    <glyph glyph-name="afii10017" unicode="&#x410;" horiz-adv-x="640" 
d="M581 3l-85 215h-353l-86 -215s-5 -3 -18 -3s-16 3 -16 3l283 714s4 3 14 3c9 0 14 -3 14 -3l283 -714s-5 -3 -18 -3c-11 0 -18 3 -18 3zM306 631l-151 -381h328l-150 381c-10 25 -12 38 -12 38h-2s-4 -14 -13 -38z" />
    <glyph glyph-name="afii10018" unicode="&#x411;" horiz-adv-x="608" 
d="M479 688h-338v-290h213c122 0 199 -77 199 -197c0 -121 -77 -201 -199 -201h-247v720h372s3 -6 3 -16s-3 -16 -3 -16zM141 31h210c107 0 166 68 166 169c0 102 -59 167 -166 167h-210v-336z" />
    <glyph glyph-name="afii10019" unicode="&#x412;" horiz-adv-x="626" 
d="M343 0h-236v720h232c150 0 194 -90 194 -186c0 -132 -87 -166 -96 -169c3 -1 119 -22 119 -176c0 -113 -59 -189 -213 -189zM341 347h-200v-315h201c134 0 178 59 178 157c0 109 -55 158 -179 158zM141 688v-309h193c121 0 163 62 163 155s-39 154 -166 154h-190z" />
    <glyph glyph-name="afii10020" unicode="&#x413;" horiz-adv-x="492" 
d="M107 3v717h355s3 -6 3 -16c0 -9 -3 -16 -3 -16h-321v-685s-6 -3 -17 -3s-17 3 -17 3z" />
    <glyph glyph-name="afii10021" unicode="&#x414;" horiz-adv-x="668" 
d="M619 32v-170s-6 -3 -16 -3c-11 0 -17 3 -17 3v138h-533v-138s-6 -3 -17 -3c-10 0 -16 3 -16 3v170h63c48 67 69 183 81 335l27 353h350v-688h78zM221 689l-24 -328c-11 -148 -35 -268 -76 -329h386v657h-286z" />
    <glyph glyph-name="afii10022" unicode="&#x415;" horiz-adv-x="557" 
d="M107 0v720h385c2 -4 3 -9 3 -16s-1 -12 -3 -16h-351v-307h301c2 -4 3 -9 3 -15s-1 -11 -3 -16h-301v-318h361c2 -5 3 -9 3 -15c0 -7 -1 -12 -3 -17h-395z" />
    <glyph glyph-name="afii10023" unicode="&#x401;" horiz-adv-x="557" 
d="M261 830v-42s-8 -3 -24 -3s-24 3 -24 3v42s8 3 24 3s24 -3 24 -3zM402 830v-42s-8 -3 -24 -3s-24 3 -24 3v42s8 3 24 3s24 -3 24 -3zM107 0v720h385c2 -4 3 -9 3 -16s-1 -12 -3 -16h-351v-307h301c2 -4 3 -9 3 -15s-1 -11 -3 -16h-301v-318h361c2 -5 3 -9 3 -15
c0 -7 -1 -12 -3 -17h-395z" />
    <glyph glyph-name="afii10024" unicode="&#x416;" horiz-adv-x="951" 
d="M459 389v328s6 3 17 3s17 -3 17 -3v-328h157l207 328s6 3 19 3c12 0 18 -3 18 -3l-213 -337l243 -377s-7 -3 -20 -3c-14 0 -23 3 -23 3l-229 355h-159v-355s-6 -3 -17 -3s-17 3 -17 3v355h-165l-228 -355s-7 -3 -20 -3s-18 3 -18 3l241 375l-213 339s7 3 19 3
c13 0 19 -3 19 -3l206 -328h159z" />
    <glyph glyph-name="afii10025" unicode="&#x417;" horiz-adv-x="544" 
d="M473 181c0 -102 -62 -191 -247 -191c-108 0 -179 29 -179 29c0 9 4 22 11 27c32 -10 85 -24 165 -24c162 0 214 71 214 159c0 148 -120 171 -216 171h-50c-5 10 -5 23 0 32h50c85 0 195 22 195 162c0 90 -58 152 -184 152c-92 0 -161 -28 -161 -28c-11 6 -14 17 -13 28
c0 0 74 32 178 32c146 0 216 -76 216 -183c0 -156 -123 -177 -123 -177s144 -20 144 -189z" />
    <glyph glyph-name="afii10026" unicode="&#x418;" horiz-adv-x="682" 
d="M499 590l-354 -587s-8 -3 -21 -3c-12 0 -18 3 -18 3v714s6 3 17 3c12 0 17 -3 17 -3v-550c0 -72 -4 -120 -4 -120h2s20 42 49 90l350 580s6 3 20 3c13 0 19 -3 19 -3v-714s-5 -3 -17 -3s-17 3 -17 3v542c0 104 4 130 4 130h-2s-12 -31 -45 -85z" />
    <glyph glyph-name="afii10027" unicode="&#x419;" horiz-adv-x="682" 
d="M483 881c0 0 -54 -51 -141 -51c-86 0 -142 51 -142 51c3 10 9 17 18 20c0 0 57 -40 124 -40s124 40 124 40c10 -3 15 -10 17 -20zM145 3l354 587c33 54 45 85 45 85h2s-4 -26 -4 -130v-542s5 -3 17 -3s17 3 17 3v714s-6 3 -19 3c-14 0 -20 -3 -20 -3l-350 -580
c-29 -48 -49 -90 -49 -90h-2s4 48 4 120v550s-5 3 -17 3c-11 0 -17 -3 -17 -3v-714s6 -3 18 -3c13 0 21 3 21 3z" />
    <glyph glyph-name="afii10028" unicode="&#x41a;" horiz-adv-x="607" 
d="M140 717v-327h144l230 327s6 3 19 3c12 0 19 -3 19 -3l-239 -340l267 -374s-6 -3 -19 -3s-22 3 -22 3l-254 355h-145v-355s-6 -3 -17 -3s-17 3 -17 3v714s6 3 17 3s17 -3 17 -3z" />
    <glyph glyph-name="afii10029" unicode="&#x41b;" horiz-adv-x="652" 
d="M50 -6c-8 0 -20 2 -27 5c0 0 -3 5 -3 14s3 15 3 15c7 -1 14 -2 20 -2c43 0 104 7 132 368l25 326h345v-717s-6 -3 -17 -3s-18 3 -17 3v685h-281l-22 -296c-28 -372 -98 -398 -158 -398z" />
    <glyph glyph-name="afii10030" unicode="&#x41c;" horiz-adv-x="842" 
d="M702 3v576c0 68 5 104 5 104h-2s-11 -27 -37 -69l-238 -407s-6 -3 -16 -3c-9 0 -16 3 -16 3l-228 407c-23 39 -35 69 -35 69h-2s6 -39 6 -114v-566s-4 -3 -16 -3s-17 3 -17 3v714s8 3 22 3s23 -3 23 -3l234 -418c20 -34 28 -53 28 -53h2s9 19 30 53l245 418s6 3 23 3
c16 0 23 -3 23 -3v-714s-5 -3 -17 -3s-17 3 -17 3z" />
    <glyph glyph-name="afii10031" unicode="&#x41d;" horiz-adv-x="672" 
d="M532 385v332s6 3 17 3s17 -3 17 -3v-714s-5 -3 -17 -3c-13 0 -17 3 -17 3v350h-392v-350s-6 -3 -17 -3c-13 0 -17 3 -17 3v714s6 3 17 3s17 -3 17 -3v-332h392z" />
    <glyph glyph-name="afii10032" unicode="&#x41e;" horiz-adv-x="678" 
d="M339 -10c-165 0 -265 111 -265 370s100 370 265 370s265 -111 265 -370s-100 -370 -265 -370zM339 700c-140 0 -229 -95 -229 -340s89 -340 229 -340s229 95 229 340s-89 340 -229 340z" />
    <glyph glyph-name="afii10033" unicode="&#x41f;" horiz-adv-x="662" 
d="M107 720h448v-717s-6 -3 -16 -3c-12 0 -18 3 -18 3v685h-380v-685s-6 -3 -17 -3s-17 3 -17 3v717z" />
    <glyph glyph-name="afii10034" unicode="&#x420;" horiz-adv-x="598" 
d="M349 309h-208v-306s-5 -3 -17 -3s-17 3 -17 3v717h242c123 0 194 -83 194 -206c0 -122 -71 -205 -194 -205zM141 688v-347h209c100 0 157 66 157 172c0 109 -57 175 -157 175h-209z" />
    <glyph glyph-name="afii10035" unicode="&#x421;" horiz-adv-x="556" 
d="M336 -10c-176 0 -262 119 -262 370c0 246 85 370 262 370c109 0 166 -32 166 -32s2 -7 -2 -15c-4 -9 -10 -12 -10 -12s-58 28 -149 28c-139 0 -231 -78 -231 -340s91 -337 231 -337c99 0 160 28 160 28s6 -2 10 -11s2 -16 2 -16s-59 -33 -177 -33z" />
    <glyph glyph-name="afii10036" unicode="&#x422;" horiz-adv-x="528" 
d="M36 720h457s3 -4 3 -15c0 -10 -3 -16 -3 -16h-209v-686s-5 -3 -17 -3s-17 3 -17 3v686h-214s-3 6 -3 16s3 15 3 15z" />
    <glyph glyph-name="afii10037" unicode="&#x423;" horiz-adv-x="607" 
d="M306 138l-279 579s5 3 19 3c12 0 18 -3 18 -3l243 -504c8 -17 15 -33 19 -45h2c5 12 11 28 19 48l197 501s4 3 17 3s18 -3 18 -3l-206 -524c-66 -169 -113 -193 -189 -193c-31 0 -52 6 -52 6c-3 9 -3 21 1 30c0 0 22 -4 40 -4c55 0 96 5 142 106h-9z" />
    <glyph glyph-name="afii10038" unicode="&#x424;" horiz-adv-x="790" 
d="M377 646v80s6 3 17 3s17 -3 17 -3v-80c177 0 321 -56 321 -270s-144 -271 -321 -271v-102s-7 -3 -17 -3c-12 0 -17 3 -17 3v102c-177 0 -319 57 -319 271s142 270 319 270zM377 135v481c-166 0 -283 -49 -283 -240c0 -192 117 -241 283 -241zM411 616v-481
c166 0 285 50 285 241c0 192 -119 240 -285 240z" />
    <glyph glyph-name="afii10039" unicode="&#x425;" horiz-adv-x="591" 
d="M547 717l-229 -348l237 -366s-7 -3 -21 -3c-16 0 -22 3 -22 3l-221 341l-213 -341s-8 -3 -22 -3c-13 0 -19 3 -19 3l230 365l-225 349s7 3 22 3c13 0 20 -3 20 -3l209 -325l212 325s7 3 21 3s21 -3 21 -3z" />
    <glyph glyph-name="afii10040" unicode="&#x426;" horiz-adv-x="691" 
d="M608 -138v138h-502v717s6 3 17 3s17 -3 17 -3v-685h390v685s6 3 17 3s17 -3 17 -3v-685h77v-170c-4 -2 -10 -3 -17 -3s-12 1 -16 3z" />
    <glyph glyph-name="afii10041" unicode="&#x427;" horiz-adv-x="629" 
d="M489 381v336s6 3 17 3s17 -3 17 -3v-714s-6 -3 -17 -3s-17 3 -17 3v344s-89 -39 -207 -39c-129 0 -216 50 -216 228v181s6 3 17 3s17 -3 17 -3v-180c0 -150 58 -197 191 -197c116 0 198 41 198 41z" />
    <glyph glyph-name="afii10042" unicode="&#x428;" horiz-adv-x="954" 
d="M848 0h-742v717s5 3 17 3s17 -3 17 -3v-685h320v685s3 3 17 3s17 -3 17 -3v-685h320v685s5 3 17 3s17 -3 17 -3v-717z" />
    <glyph glyph-name="afii10043" unicode="&#x429;" horiz-adv-x="975" 
d="M892 -138v138h-786v717s5 3 17 3c11 0 17 -3 17 -3v-685h320v685s6 3 17 3s17 -3 17 -3v-685h320v685s6 3 17 3s17 -3 17 -3v-685h77v-170c-5 -2 -9 -3 -16 -3s-12 1 -17 3z" />
    <glyph glyph-name="afii10044" unicode="&#x42a;" horiz-adv-x="687" 
d="M32 688c0 0 -3 6 -3 16c0 11 3 16 3 16h166h5h17v-322h213c122 0 199 -77 199 -197c0 -121 -77 -201 -199 -201h-247v688h-154zM220 367v-336h210c107 0 166 68 166 169c0 102 -59 167 -166 167h-210z" />
    <glyph glyph-name="afii10045" unicode="&#x42b;" horiz-adv-x="852" 
d="M140 398h213c122 0 199 -77 199 -197c0 -121 -77 -201 -199 -201h-247v717s6 3 17 3s17 -3 17 -3v-319zM712 3v714s5 3 17 3s17 -3 17 -3v-714s-5 -3 -17 -3s-17 3 -17 3zM140 367v-336h210c107 0 166 68 166 169c0 102 -59 167 -166 167h-210z" />
    <glyph glyph-name="afii10046" unicode="&#x42c;" horiz-adv-x="607" 
d="M140 398h213c122 0 199 -77 199 -197c0 -121 -77 -201 -199 -201h-247v717s6 3 17 3s17 -3 17 -3v-319zM140 367v-336h210c107 0 166 68 166 169c0 102 -59 167 -166 167h-210z" />
    <glyph glyph-name="afii10047" unicode="&#x42d;" horiz-adv-x="581" 
d="M235 730c182 0 272 -124 272 -370c0 -251 -91 -370 -272 -370c-123 0 -187 33 -187 33s-2 6 2 15s10 11 10 11s66 -27 170 -27c143 0 239 73 241 328h-294s-3 6 -3 16s3 16 3 16h294c-6 243 -102 317 -241 317c-96 0 -159 -27 -159 -27s-6 2 -10 11c-4 8 -2 15 -2 15
s63 32 176 32z" />
    <glyph glyph-name="afii10048" unicode="&#x42e;" horiz-adv-x="945" 
d="M107 3v714s6 3 17 3s17 -3 17 -3v-341h200c4 247 101 354 265 354c167 0 265 -111 265 -370s-98 -370 -265 -370c-164 0 -261 106 -265 354h-200v-341s-6 -3 -17 -3s-17 3 -17 3zM606 700c-142 0 -229 -95 -229 -340s87 -340 229 -340s229 95 229 340s-87 340 -229 340z
" />
    <glyph glyph-name="afii10049" unicode="&#x42f;" horiz-adv-x="618" 
d="M226 323c-96 18 -151 92 -151 197c0 120 72 200 195 200h241v-717s-5 -3 -17 -3s-17 3 -17 3v317h-213l-168 -317s-8 -3 -21 -3c-12 0 -19 3 -19 3zM477 352v336h-209c-97 0 -157 -62 -157 -168s61 -168 157 -168h209z" />
    <glyph glyph-name="afii10065" unicode="&#x430;" horiz-adv-x="510" 
d="M391 284v78c0 106 -48 145 -139 145c-80 0 -148 -27 -148 -27c-8 6 -12 17 -11 27c0 0 77 29 163 29c142 0 167 -76 167 -213v-320s-4 -3 -13 -3s-13 3 -13 3l-6 90v1c-31 -67 -97 -104 -183 -104c-92 0 -155 56 -155 151c0 94 57 153 184 153c72 0 133 -7 154 -10z
M87 141c0 -82 50 -121 125 -121c102 0 179 70 179 188v47c-21 2 -86 10 -148 10c-107 0 -156 -41 -156 -124z" />
    <glyph glyph-name="afii10066" unicode="&#x431;" horiz-adv-x="568" 
d="M80 351c0 298 93 331 308 371c37 7 47 11 62 35c11 0 21 -4 26 -11c-10 -32 -24 -44 -82 -55c-191 -38 -271 -59 -283 -288h4c24 61 82 111 187 111c122 0 200 -80 200 -262s-76 -262 -207 -262c-124 0 -215 52 -215 361zM295 485c-95 0 -173 -48 -173 -233
c0 -181 76 -233 173 -233c98 0 173 52 173 233s-75 233 -173 233z" />
    <glyph glyph-name="afii10067" unicode="&#x432;" horiz-adv-x="513" 
d="M285 526c89 0 145 -45 145 -134c0 -61 -28 -102 -72 -121c61 -18 92 -68 92 -133c0 -92 -56 -138 -155 -138h-204v526h194zM294 252h-171v-222h171c78 0 121 36 121 109c0 69 -38 113 -121 113zM123 496v-214h158c74 0 117 39 117 108c0 73 -43 106 -117 106h-158z" />
    <glyph glyph-name="afii10068" unicode="&#x433;" horiz-adv-x="396" 
d="M91 3v523h273s3 -5 3 -15s-3 -15 -3 -15h-241v-493s-3 -3 -16 -3c-12 0 -16 3 -16 3z" />
    <glyph glyph-name="afii10069" unicode="&#x434;" horiz-adv-x="560" 
d="M26 30h46c24 35 45 91 58 258l19 238h302v-496h63v-155s-5 -3 -15 -3c-11 0 -15 3 -15 3v125h-428v-125s-4 -3 -15 -3s-15 3 -15 3v155zM177 496l-16 -212c-11 -148 -29 -210 -51 -254h309v466h-242z" />
    <glyph glyph-name="afii10070" unicode="&#x435;" horiz-adv-x="508" 
d="M438 252h-339c6 -163 62 -229 178 -229c83 0 129 40 129 40c9 -5 16 -16 17 -27c0 0 -53 -46 -156 -46c-130 0 -202 95 -202 276c0 189 85 270 205 270c119 0 179 -79 179 -184c0 -61 -11 -100 -11 -100zM415 357c0 79 -42 149 -145 149c-101 0 -167 -68 -171 -224h310
s6 28 6 75z" />
    <glyph glyph-name="afii10071" unicode="&#x451;" horiz-adv-x="508" 
d="M223 687v-42s-8 -3 -24 -3s-24 3 -24 3v42s8 3 24 3s24 -3 24 -3zM364 687v-42s-8 -3 -24 -3s-24 3 -24 3v42s8 3 24 3s24 -3 24 -3zM438 252h-339c6 -163 62 -229 178 -229c83 0 129 40 129 40c9 -5 16 -16 17 -27c0 0 -53 -46 -156 -46c-130 0 -202 95 -202 276
c0 189 85 270 205 270c119 0 179 -79 179 -184c0 -61 -11 -100 -11 -100zM415 357c0 79 -42 149 -145 149c-101 0 -167 -68 -171 -224h310s6 28 6 75z" />
    <glyph glyph-name="afii10072" unicode="&#x436;" horiz-adv-x="774" 
d="M372 290v233s4 3 16 3s16 -3 16 -3v-233h129l153 233s6 3 21 3c14 0 17 -3 17 -3l-162 -246l187 -273s-6 -4 -20 -4s-20 4 -20 4l-176 256h-129v-257s-4 -3 -16 -3s-16 3 -16 3v257h-129l-176 -256s-7 -4 -21 -4s-19 4 -19 4l187 273l-162 246s3 3 17 3c15 0 21 -3 21 -3
l153 -233h129z" />
    <glyph glyph-name="afii10073" unicode="&#x437;" horiz-adv-x="452" 
d="M388 139c0 -83 -41 -149 -201 -149c-93 0 -143 26 -143 26c0 11 4 21 11 27c0 0 51 -22 131 -22c123 0 168 44 168 120c0 75 -61 112 -160 112h-53s-3 6 -3 15s3 15 3 15h53c83 0 146 24 146 109c0 74 -38 114 -147 114c-75 0 -123 -20 -123 -20c-8 5 -11 17 -9 27
c0 0 51 23 142 23c123 0 171 -57 171 -140c0 -63 -25 -108 -86 -127c67 -18 100 -70 100 -130z" />
    <glyph glyph-name="afii10074" unicode="&#x438;" horiz-adv-x="577" 
d="M164 109l284 414s4 3 19 3c16 0 19 -3 19 -3v-520s-5 -3 -16 -3s-17 3 -17 3v401c0 48 2 80 2 80h-2s-20 -35 -46 -73l-278 -408s-6 -3 -20 -3c-13 0 -18 3 -18 3v520s4 3 16 3s16 -3 16 -3v-407c0 -47 -3 -74 -3 -74h2s14 26 42 67z" />
    <glyph glyph-name="afii10075" unicode="&#x439;" horiz-adv-x="577" 
d="M419 688c0 0 -44 -54 -130 -54s-130 54 -130 54c3 10 7 15 18 19c0 0 45 -43 112 -43s112 43 112 43c12 -3 16 -8 18 -19zM164 109l284 414s4 3 19 3c16 0 19 -3 19 -3v-520s-5 -3 -16 -3s-17 3 -17 3v401c0 48 2 80 2 80h-2s-20 -35 -46 -73l-278 -408s-6 -3 -20 -3
c-13 0 -18 3 -18 3v520s4 3 16 3s16 -3 16 -3v-407c0 -47 -3 -74 -3 -74h2s14 26 42 67z" />
    <glyph glyph-name="afii10076" unicode="&#x43a;" horiz-adv-x="496" 
d="M123 523v-233h121l164 233s7 3 22 3c14 0 17 -2 17 -2l-174 -247l198 -273s-6 -4 -20 -4s-22 4 -22 4l-185 256h-121v-257s-4 -3 -16 -3s-16 3 -16 3v520s4 3 16 3s16 -3 16 -3z" />
    <glyph glyph-name="afii10077" unicode="&#x43b;" horiz-adv-x="550" 
d="M174 290c-24 -269 -66 -296 -120 -296c-14 0 -27 4 -27 4s-3 4 -3 13s3 14 3 14s10 -2 24 -2c49 0 78 75 93 271l18 232h297v-523s-4 -3 -16 -3s-16 3 -16 3v493h-237z" />
    <glyph glyph-name="afii10078" unicode="&#x43c;" horiz-adv-x="673" 
d="M91 523c0 0 5 3 17 3c13 0 18 -3 18 -3l204 -348l216 348s6 3 18 3s18 -3 18 -3v-520s-4 -3 -16 -3s-16 3 -16 3v401c0 32 1 57 3 74h-2c-7 -16 -18 -40 -37 -70l-173 -276s-4 -2 -11 -2s-11 2 -11 2l-162 272c-18 30 -31 57 -37 74h-3c3 -17 6 -43 6 -74v-401
s-4 -3 -16 -3s-16 3 -16 3v520z" />
    <glyph glyph-name="afii10079" unicode="&#x43d;" horiz-adv-x="560" 
d="M437 3v253h-314v-253s-4 -3 -16 -3s-16 3 -16 3v520s4 3 16 3c13 0 16 -3 16 -3v-237h314v237s4 3 16 3c13 0 16 -3 16 -3v-520s-4 -3 -16 -3s-16 3 -16 3z" />
    <glyph glyph-name="afii10080" unicode="&#x43e;" horiz-adv-x="538" 
d="M269 -10c-128 0 -203 75 -203 273s75 273 203 273s203 -75 203 -273s-75 -273 -203 -273zM269 507c-104 0 -169 -58 -169 -244s65 -244 169 -244s169 58 169 244s-65 244 -169 244z" />
    <glyph glyph-name="afii10081" unicode="&#x43f;" horiz-adv-x="549" 
d="M426 3v493h-303v-493s-4 -3 -16 -3s-16 3 -16 3v523h367v-523s-3 -3 -15 -3c-13 0 -17 3 -17 3z" />
    <glyph glyph-name="afii10082" unicode="&#x440;" horiz-adv-x="554" 
d="M123 87v-334s-4 -3 -16 -3s-16 3 -16 3v770s4 3 16 3s16 -3 16 -3v-84c30 59 81 97 167 97c122 0 197 -69 197 -273s-75 -273 -197 -273c-86 0 -137 38 -167 97zM123 200c0 -83 53 -180 159 -180c123 0 171 72 171 243s-48 243 -171 243c-104 0 -157 -93 -159 -174v-132z
" />
    <glyph glyph-name="afii10083" unicode="&#x441;" horiz-adv-x="445" 
d="M279 505c-123 0 -180 -83 -180 -242c0 -161 59 -240 184 -240c64 0 103 23 103 23c8 -5 13 -16 14 -27c0 0 -48 -29 -128 -29c-131 0 -207 95 -207 273s76 273 207 273c76 0 116 -23 116 -23c0 -11 -3 -21 -12 -28c0 0 -37 20 -97 20z" />
    <glyph glyph-name="afii10084" unicode="&#x442;" horiz-adv-x="428" 
d="M33 526h362s4 -4 4 -15s-4 -15 -4 -15h-165v-493s-4 -3 -16 -3s-16 3 -16 3v493h-165s-4 4 -4 15s4 15 4 15z" />
    <glyph glyph-name="afii10085" unicode="&#x443;" horiz-adv-x="520" 
d="M486 523l-238 -650c-27 -75 -56 -123 -120 -123c-27 0 -46 6 -46 6c-2 4 -3 9 -3 14s1 11 4 15c0 0 16 -5 42 -5c38 0 64 27 92 104l43 117c-4 2 -9 4 -13 7l-215 515s6 3 18 3s18 -3 18 -3l166 -398c22 -52 36 -93 36 -93h3s13 40 32 92l146 399s4 3 17 3s18 -3 18 -3z
" />
    <glyph glyph-name="afii10086" unicode="&#x444;" horiz-adv-x="775" 
d="M404 16v-263s-4 -3 -16 -3s-16 3 -16 3v263s-47 -26 -127 -26c-133 0 -177 95 -177 273s44 273 177 273c72 0 127 -23 127 -23v234s4 3 16 3s16 -3 16 -3v-234s53 24 127 23c133 -2 177 -95 177 -273s-44 -273 -177 -273c-80 0 -127 26 -127 26zM372 50v431
c-1 -1 -46 25 -123 25c-109 0 -147 -81 -147 -243s38 -242 147 -242c72 0 123 29 123 29zM674 263c0 162 -38 243 -147 243c-77 0 -122 -26 -123 -25v-431s51 -29 123 -29c109 0 147 80 147 242z" />
    <glyph glyph-name="afii10087" unicode="&#x445;" horiz-adv-x="483" 
d="M33 3l187 265l-183 255s5 3 19 3c13 0 20 -3 20 -3l168 -233l164 233s3 3 19 3c13 0 19 -3 19 -3l-184 -259l188 -261s-5 -3 -19 -3s-20 3 -20 3l-172 239l-168 -239s-4 -3 -21 -3c-12 0 -17 3 -17 3z" />
    <glyph glyph-name="afii10088" unicode="&#x446;" horiz-adv-x="569" 
d="M461 523v-493h63v-155s-4 -3 -15 -3s-15 3 -15 3v125h-403v523s4 3 16 3s16 -3 16 -3v-493h306v493s4 3 16 3s16 -3 16 -3z" />
    <glyph glyph-name="afii10089" unicode="&#x447;" horiz-adv-x="518" 
d="M427 523v-520s-4 -3 -16 -3s-16 3 -16 3v245c-25 -15 -79 -41 -163 -41c-126 0 -173 61 -173 158v158s4 3 16 3s16 -3 16 -3v-159c0 -85 41 -127 146 -127c76 0 132 29 158 45v241s4 3 16 3s16 -3 16 -3z" />
    <glyph glyph-name="afii10090" unicode="&#x448;" horiz-adv-x="802" 
d="M711 523v-523h-620v523s4 3 16 3s16 -3 16 -3v-493h261v493s4 3 16 3s16 -3 16 -3v-493h263v493s4 3 16 3s16 -3 16 -3z" />
    <glyph glyph-name="afii10091" unicode="&#x449;" horiz-adv-x="819" 
d="M711 523v-493h63v-155s-4 -3 -15 -3s-15 3 -15 3v125h-653v523s4 3 16 3s16 -3 16 -3v-493h261v493s4 3 16 3s16 -3 16 -3v-493h263v493s4 3 16 3s16 -3 16 -3z" />
    <glyph glyph-name="afii10092" unicode="&#x44a;" horiz-adv-x="564" 
d="M185 526v-232h182c95 0 146 -59 146 -147s-51 -147 -146 -147h-214v496h-120s-3 4 -3 15s3 15 3 15h152zM363 264h-178v-234h178c79 0 116 42 116 116s-37 118 -116 118z" />
    <glyph glyph-name="afii10093" unicode="&#x44b;" horiz-adv-x="707" 
d="M123 523v-229h182c95 0 146 -59 146 -147s-51 -147 -146 -147h-214v523s6 3 16 3c11 0 16 -3 16 -3zM301 264h-178v-234h178c79 0 116 42 116 116s-37 118 -116 118zM616 523v-520s-4 -3 -16 -3s-16 3 -16 3v520s4 3 16 3s16 -3 16 -3z" />
    <glyph glyph-name="afii10094" unicode="&#x44c;" horiz-adv-x="502" 
d="M123 523v-229h182c95 0 146 -59 146 -147s-51 -147 -146 -147h-214v523s6 3 16 3c11 0 16 -3 16 -3zM301 264h-178v-234h178c79 0 116 42 116 116s-37 118 -116 118z" />
    <glyph glyph-name="afii10095" unicode="&#x44d;" horiz-adv-x="450" 
d="M351 251h-222c-2 4 -3 9 -3 15c0 5 1 11 3 15h221c-4 147 -63 225 -181 225c-60 0 -101 -18 -101 -18c-8 6 -11 14 -11 25c0 0 43 23 119 23c132 0 209 -95 209 -273s-78 -273 -209 -273c-81 0 -131 29 -131 29c1 10 5 19 13 25c0 0 46 -22 107 -22c122 0 183 76 186 229
z" />
    <glyph glyph-name="afii10096" unicode="&#x44e;" horiz-adv-x="778" 
d="M123 523v-249h175c3 189 79 262 207 262c130 0 207 -75 207 -273s-77 -273 -207 -273c-126 0 -202 70 -207 254h-175v-241s-4 -3 -16 -3s-16 3 -16 3v520s4 3 16 3s16 -3 16 -3zM505 507c-106 0 -173 -58 -173 -244s67 -244 173 -244s173 58 173 244s-67 244 -173 244z
" />
    <glyph glyph-name="afii10097" unicode="&#x44f;" horiz-adv-x="517" 
d="M394 3v221h-163c-15 0 -22 1 -22 1l-120 -222s-8 -3 -22 -3c-12 0 -17 3 -17 3l125 227c-69 18 -104 71 -104 144c0 90 54 152 160 152h195v-523s-4 -3 -16 -3s-16 3 -16 3zM235 496c-90 0 -130 -46 -130 -122c0 -71 40 -120 130 -120h159v242h-159z" />
    <glyph glyph-name="afii61289" unicode="&#x2113;" horiz-adv-x="451" 
d="M50 192c-9 7 -12 15 -11 25c32 15 63 34 90 52v253c0 167 37 228 143 228c87 0 128 -59 128 -149c0 -127 -103 -257 -240 -349v-116c0 -88 31 -116 94 -116c70 0 132 57 132 57c8 0 17 -8 18 -17c0 0 -59 -70 -158 -70c-95 0 -117 60 -117 195v50
c-17 -10 -61 -34 -79 -43zM160 574v-288c113 85 206 193 206 314c0 71 -24 121 -92 121c-72 0 -114 -35 -114 -147z" />
    <glyph glyph-name="agrave" unicode="&#xe0;" horiz-adv-x="510" 
d="M391 284v78c0 106 -48 145 -139 145c-80 0 -148 -27 -148 -27c-8 6 -12 17 -11 27c0 0 77 29 163 29c142 0 167 -76 167 -213v-320s-4 -3 -13 -3s-13 3 -13 3l-6 90v1c-31 -67 -97 -104 -183 -104c-92 0 -155 56 -155 151c0 94 57 153 184 153c72 0 133 -7 154 -10z
M87 141c0 -82 50 -121 125 -121c102 0 179 70 179 188v47c-21 2 -86 10 -148 10c-107 0 -156 -41 -156 -124zM280 601l-125 147c6 9 19 17 32 17l117 -150c-4 -8 -12 -13 -24 -14z" />
    <glyph glyph-name="amacron" unicode="&#x101;" horiz-adv-x="510" 
d="M391 284v78c0 106 -48 145 -139 145c-80 0 -148 -27 -148 -27c-8 6 -12 17 -11 27c0 0 77 29 163 29c142 0 167 -76 167 -213v-320s-4 -3 -13 -3s-13 3 -13 3l-6 90v1c-31 -67 -97 -104 -183 -104c-92 0 -155 56 -155 151c0 94 57 153 184 153c72 0 133 -7 154 -10z
M87 141c0 -82 50 -121 125 -121c102 0 179 70 179 188v47c-21 2 -86 10 -148 10c-107 0 -156 -41 -156 -124zM373 643h-240c-2 5 -3 8 -3 14s1 10 3 14h240c3 -3 4 -8 4 -13c0 -6 -1 -10 -4 -15z" />
    <glyph glyph-name="ampersand" unicode="&#x26;" horiz-adv-x="635" 
d="M325 690c87 0 133 -58 133 -119c0 -105 -85 -160 -212 -226c41 -83 109 -163 199 -228c45 52 69 112 81 159c12 0 26 -6 32 -15c-11 -44 -38 -103 -89 -162c40 -27 85 -50 132 -70c1 -12 -5 -24 -14 -30c-51 20 -98 46 -141 76c-11 -13 -82 -85 -206 -85
c-95 0 -185 50 -185 169c0 113 101 176 150 200c-23 53 -35 105 -35 155c0 108 53 176 155 176zM244 20c93 0 157 53 178 72c-91 68 -162 154 -205 240c-43 -22 -125 -77 -125 -171c0 -89 61 -141 152 -141zM321 660c-72 0 -117 -50 -117 -143c0 -48 10 -96 30 -144
c112 58 189 108 189 192c0 58 -37 95 -102 95z" />
    <glyph glyph-name="aogonek" unicode="&#x105;" horiz-adv-x="510" 
d="M384 -144c25 0 42 10 42 10c6 -5 9 -13 9 -22c0 0 -21 -16 -57 -16c-49 0 -81 28 -81 70c0 61 48 102 99 118l-5 78c-31 -67 -97 -104 -183 -104c-92 0 -155 56 -155 151c0 94 57 153 184 153c72 0 133 -7 154 -10v78c0 106 -48 145 -139 145c-80 0 -148 -27 -148 -27
c-8 6 -12 17 -11 27c0 0 77 29 163 29c142 0 167 -76 167 -213v-321c-43 -9 -93 -41 -93 -100c0 -32 25 -46 54 -46zM391 208v47c-21 2 -86 10 -148 10c-107 0 -156 -41 -156 -124c0 -82 50 -121 125 -121c102 0 179 70 179 188z" />
    <glyph glyph-name="approxequal" unicode="&#x2248;" horiz-adv-x="539" 
d="M188 374c-48 0 -78 -36 -78 -36c-12 2 -20 11 -22 22c0 0 32 47 104 47c66 0 94 -51 157 -51c48 0 78 36 78 36c12 -2 20 -9 24 -20c0 0 -30 -49 -106 -49c-66 0 -94 51 -157 51zM188 215c-48 0 -78 -36 -78 -36c-12 2 -20 11 -22 22c0 0 32 47 104 47
c66 0 94 -51 157 -51c48 0 78 36 78 36c12 -2 20 -9 24 -20c0 0 -30 -49 -106 -49c-66 0 -94 51 -157 51z" />
    <glyph glyph-name="aring" unicode="&#xe5;" horiz-adv-x="510" 
d="M391 284v78c0 106 -48 145 -139 145c-80 0 -148 -27 -148 -27c-8 6 -12 17 -11 27c0 0 77 29 163 29c142 0 167 -76 167 -213v-320s-4 -3 -13 -3s-13 3 -13 3l-6 90v1c-31 -67 -97 -104 -183 -104c-92 0 -155 56 -155 151c0 94 57 153 184 153c72 0 133 -7 154 -10z
M87 141c0 -82 50 -121 125 -121c102 0 179 70 179 188v47c-21 2 -86 10 -148 10c-107 0 -156 -41 -156 -124zM253 595c-63 0 -111 38 -111 106s55 104 112 104c56 0 113 -35 113 -104c0 -68 -52 -106 -114 -106zM335 701c0 39 -27 75 -82 75c-54 0 -79 -37 -79 -75
c0 -39 25 -77 79 -77c55 0 82 39 82 77z" />
    <glyph glyph-name="aringacute" unicode="&#x1fb;" horiz-adv-x="510" 
d="M391 284v78c0 106 -48 145 -139 145c-80 0 -148 -27 -148 -27c-8 6 -12 17 -11 27c0 0 77 29 163 29c142 0 167 -76 167 -213v-320s-4 -3 -13 -3s-13 3 -13 3l-6 90v1c-31 -67 -97 -104 -183 -104c-92 0 -155 56 -155 151c0 94 57 153 184 153c72 0 133 -7 154 -10z
M87 141c0 -82 50 -121 125 -121c102 0 179 70 179 188v47c-21 2 -86 10 -148 10c-107 0 -156 -41 -156 -124zM339 917l-117 -109c-11 1 -18 4 -22 10l109 112c13 0 24 -5 30 -13zM254 566c-63 0 -111 38 -111 106s55 104 112 104c56 0 113 -35 113 -104
c0 -68 -52 -106 -114 -106zM336 672c0 39 -27 75 -82 75c-54 0 -79 -37 -79 -75c0 -39 25 -77 79 -77c55 0 82 39 82 77z" />
    <glyph glyph-name="arrowdown" unicode="&#x2193;" horiz-adv-x="494" 
d="M247 94l-202 202c3 8 10 17 20 20l167 -168v455s5 2 15 2s15 -2 15 -2v-455l168 168c9 -3 17 -12 19 -20z" />
    <glyph glyph-name="arrowleft" unicode="&#x2190;" horiz-adv-x="622" 
d="M52 350l202 202c8 -3 17 -10 20 -20l-168 -167h455s2 -5 2 -15s-2 -15 -2 -15h-455l168 -168c-3 -9 -12 -17 -20 -19z" />
    <glyph glyph-name="arrowright" unicode="&#x2192;" horiz-adv-x="622" 
d="M368 552l202 -202l-202 -202c-8 2 -17 10 -20 19l168 168h-455s-2 5 -2 15s2 15 2 15h455l-168 167c3 10 12 17 20 20z" />
    <glyph glyph-name="arrowup" unicode="&#x2191;" horiz-adv-x="494" 
d="M45 403l202 202l202 -202c-2 -8 -10 -17 -19 -20l-168 168v-455s-5 -2 -15 -2s-15 2 -15 2v455l-167 -168c-10 3 -17 12 -20 20z" />
    <glyph glyph-name="asciicircum" unicode="^" horiz-adv-x="517" 
d="M277 717l176 -262s-4 -3 -19 -3s-20 3 -20 3l-157 235l-157 -235s-3 -3 -18 -3s-19 3 -19 3l176 262s4 3 19 3s19 -3 19 -3z" />
    <glyph glyph-name="asciitilde" unicode="~" horiz-adv-x="538" 
d="M188 315c-48 0 -78 -36 -78 -36c-12 2 -20 11 -22 22c0 0 32 47 104 47c66 0 94 -51 157 -51c48 0 78 36 78 36c12 -2 20 -9 24 -20c0 0 -30 -49 -106 -49c-66 0 -94 51 -157 51z" />
    <glyph glyph-name="asterisk" unicode="*" horiz-adv-x="353" 
d="M232 497l-56 75l-54 -76c-8 3 -16 9 -21 14l55 78l-87 28c0 10 3 18 8 24l87 -28v89s4 2 13 2c8 0 12 -2 12 -2v-89l87 28c6 -6 8 -14 8 -24l-88 -28l56 -77c-5 -5 -12 -11 -20 -14z" />
    <glyph glyph-name="at" unicode="@" horiz-adv-x="916" 
d="M842 303c0 -133 -57 -218 -164 -218c-46 0 -84 22 -98 75c-21 -43 -61 -75 -129 -75c-86 0 -160 49 -160 193c0 146 74 194 160 194c63 0 101 -27 123 -64v61s5 3 14 3s16 -3 16 -3v-249c0 -78 28 -109 76 -109c66 0 132 53 132 192c0 211 -131 351 -354 351
c-205 0 -358 -144 -358 -375c0 -254 162 -367 349 -367c115 0 213 40 282 87c9 -3 15 -10 15 -21c-87 -65 -191 -94 -304 -94c-202 0 -372 130 -372 395c0 245 164 401 388 401c248 0 384 -157 384 -377zM324 278c0 -131 63 -167 132 -167c74 0 116 59 118 117v97
c0 60 -42 121 -118 121c-69 0 -132 -30 -132 -168z" />
    <glyph glyph-name="atilde" unicode="&#xe3;" horiz-adv-x="510" 
d="M391 284v78c0 106 -48 145 -139 145c-80 0 -148 -27 -148 -27c-8 6 -12 17 -11 27c0 0 77 29 163 29c142 0 167 -76 167 -213v-320s-4 -3 -13 -3s-13 3 -13 3l-6 90v1c-31 -67 -97 -104 -183 -104c-92 0 -155 56 -155 151c0 94 57 153 184 153c72 0 133 -7 154 -10z
M87 141c0 -82 50 -121 125 -121c102 0 179 70 179 188v47c-21 2 -86 10 -148 10c-107 0 -156 -41 -156 -124zM313 660c28 0 39 29 39 29c10 1 20 -2 26 -11c0 0 -19 -47 -70 -47c-48 0 -69 36 -107 36c-28 0 -39 -30 -39 -30c-11 -1 -22 4 -26 11c0 0 19 48 70 48
c48 0 69 -36 107 -36z" />
    <glyph glyph-name="b" unicode="b" horiz-adv-x="554" 
d="M123 747v-308c30 59 81 97 167 97c122 0 197 -69 197 -273s-75 -273 -197 -273c-86 0 -137 38 -167 97v-84s-4 -3 -16 -3s-16 3 -16 3v744s4 3 16 3s16 -3 16 -3zM453 263c0 171 -48 243 -171 243c-104 0 -157 -93 -159 -174v-132c0 -83 53 -180 159 -180
c123 0 171 72 171 243z" />
    <glyph glyph-name="backslash" unicode="\" horiz-adv-x="422" 
d="M61 746l337 -789s-5 -4 -18 -4s-19 4 -19 4l-337 789s5 4 18 4c14 0 19 -4 19 -4z" />
    <glyph glyph-name="bar" unicode="|" horiz-adv-x="244" 
d="M138 787v-981s-4 -3 -16 -3s-16 3 -16 3v981s4 3 16 3s16 -3 16 -3z" />
    <glyph glyph-name="braceleft" unicode="{" horiz-adv-x="336" 
d="M77 318h-35s-3 6 -3 16c0 11 3 17 3 17h35c30 0 42 25 42 52v274c0 80 44 133 133 133h40s3 -6 3 -16s-3 -16 -3 -16h-35c-74 0 -104 -38 -104 -103v-254c0 -43 -5 -69 -30 -86c25 -17 30 -44 30 -87v-254c0 -66 30 -103 104 -103h35s3 -4 3 -15c0 -13 -3 -17 -3 -17h-40
c-89 0 -133 53 -133 133v274c0 27 -12 52 -42 52z" />
    <glyph glyph-name="braceright" unicode="}" horiz-adv-x="336" 
d="M259 351h35s3 -6 3 -16c0 -11 -3 -17 -3 -17h-35c-30 0 -42 -25 -42 -52v-274c0 -80 -44 -133 -133 -133h-40s-3 6 -3 16s3 16 3 16h35c74 0 104 38 104 103v254c0 43 5 69 30 86c-25 17 -30 44 -30 87v254c0 66 -30 103 -104 103h-35s-3 4 -3 15c0 13 3 17 3 17h40
c89 0 133 -53 133 -133v-274c0 -27 12 -52 42 -52z" />
    <glyph glyph-name="bracketleft" unicode="[" horiz-adv-x="313" 
d="M106 810h163s3 -5 3 -17s-3 -17 -3 -17h-129v-912h129s3 -5 3 -16c0 -13 -3 -18 -3 -18h-163v980z" />
    <glyph glyph-name="bracketright" unicode="]" horiz-adv-x="313" 
d="M44 810h163v-980h-163s-3 5 -3 18c0 11 3 16 3 16h129v912h-129s-3 5 -3 17s3 17 3 17z" />
    <glyph glyph-name="breve" unicode="&#x2d8;" horiz-adv-x="324" 
d="M290 682c0 0 -44 -54 -130 -54s-130 54 -130 54c3 10 7 15 18 19c0 0 45 -43 112 -43s112 43 112 43c12 -3 16 -8 18 -19z" />
    <glyph glyph-name="brokenbar" unicode="&#xa6;" horiz-adv-x="242" 
d="M104 -194v441s5 3 17 3s17 -3 17 -3v-441s-5 -3 -17 -3s-17 3 -17 3zM104 356v441s5 3 17 3s17 -3 17 -3v-441s-5 -3 -17 -3s-17 3 -17 3z" />
    <glyph glyph-name="bullet" unicode="&#x2022;" horiz-adv-x="278" 
d="M170 282c0 -18 -13 -30 -31 -30c-17 0 -31 12 -31 30c0 19 14 31 31 31c18 0 31 -12 31 -31z" />
    <glyph glyph-name="c" unicode="c" horiz-adv-x="445" 
d="M279 505c-123 0 -180 -83 -180 -242c0 -161 59 -240 184 -240c64 0 103 23 103 23c8 -5 13 -16 14 -27c0 0 -48 -29 -128 -29c-131 0 -207 95 -207 273s76 273 207 273c76 0 116 -23 116 -23c0 -11 -3 -21 -12 -28c0 0 -37 20 -97 20z" />
    <glyph glyph-name="cacute" unicode="&#x107;" horiz-adv-x="445" 
d="M279 505c-123 0 -180 -83 -180 -242c0 -161 59 -240 184 -240c64 0 103 23 103 23c8 -5 13 -16 14 -27c0 0 -48 -29 -128 -29c-131 0 -207 95 -207 273s76 273 207 273c76 0 116 -23 116 -23c0 -11 -3 -21 -12 -28c0 0 -37 20 -97 20zM338 757l-125 -147
c-12 1 -20 6 -24 14l117 150c14 0 25 -6 32 -17z" />
    <glyph glyph-name="caron" unicode="&#x2c7;" horiz-adv-x="404" 
d="M211 550h-26l-124 101c2 11 7 17 17 21l121 -91l119 90c9 -2 14 -10 16 -20z" />
    <glyph glyph-name="ccaron" unicode="&#x10d;" horiz-adv-x="446" 
d="M280 505c-123 0 -180 -83 -180 -242c0 -161 59 -240 184 -240c64 0 103 23 103 23c8 -5 13 -16 14 -27c0 0 -48 -29 -128 -29c-131 0 -207 95 -207 273s76 273 207 273c76 0 116 -23 116 -23c0 -11 -3 -21 -12 -28c0 0 -37 20 -97 20zM281 602h-23l-114 93
c2 11 6 16 15 20l111 -84l109 83c9 -2 13 -9 15 -19z" />
    <glyph glyph-name="ccedilla" unicode="&#xe7;" horiz-adv-x="445" 
d="M255 -9l-14 -51c77 0 110 -29 110 -80c0 -60 -37 -94 -110 -94c-49 0 -85 23 -85 23c1 10 5 17 11 22c0 0 32 -18 75 -18c49 0 77 23 77 67c0 36 -26 54 -72 54h-30l-7 8l22 71c-106 18 -167 111 -167 270c0 178 76 273 207 273c76 0 116 -23 116 -23
c0 -11 -3 -21 -12 -28c0 0 -37 20 -97 20c-123 0 -180 -83 -180 -242c0 -161 59 -240 184 -240c64 0 103 23 103 23c8 -5 13 -16 14 -27c0 0 -48 -29 -128 -29z" />
    <glyph glyph-name="ccircumflex" unicode="&#x109;" horiz-adv-x="445" 
d="M279 505c-123 0 -180 -83 -180 -242c0 -161 59 -240 184 -240c64 0 103 23 103 23c8 -5 13 -16 14 -27c0 0 -48 -29 -128 -29c-131 0 -207 95 -207 273s76 273 207 273c76 0 116 -23 116 -23c0 -11 -3 -21 -12 -28c0 0 -37 20 -97 20zM254 721h25l121 -99
c-2 -9 -7 -17 -16 -19l-118 88l-117 -89c-10 4 -14 10 -16 20z" />
    <glyph glyph-name="cdotaccent" unicode="&#x10b;" horiz-adv-x="445" 
d="M279 505c-123 0 -180 -83 -180 -242c0 -161 59 -240 184 -240c64 0 103 23 103 23c8 -5 13 -16 14 -27c0 0 -48 -29 -128 -29c-131 0 -207 95 -207 273s76 273 207 273c76 0 116 -23 116 -23c0 -11 -3 -21 -12 -28c0 0 -37 20 -97 20zM294 676v-42s-8 -3 -24 -3
s-24 3 -24 3v42s8 3 24 3s24 -3 24 -3z" />
    <glyph glyph-name="cedilla" unicode="&#xb8;" horiz-adv-x="296" 
d="M113 -54l-7 8l15 85l27 -2l-11 -63c78 0 113 -33 113 -88c0 -64 -38 -97 -112 -97c-50 0 -87 23 -87 23c1 10 5 17 11 22c0 0 33 -18 77 -18c50 0 78 23 78 70c0 39 -26 60 -73 60h-31z" />
    <glyph glyph-name="cent" unicode="&#xa2;" horiz-adv-x="466" 
d="M291 627l-5 -109h-25l-5 109c6 2 12 3 18 3s12 -1 17 -3zM256 -101l5 109h25l5 -109c-6 -3 -12 -4 -18 -4s-12 1 -17 4zM285 505c-123 0 -180 -83 -180 -242c0 -161 59 -240 184 -240c64 0 103 23 103 23c8 -5 13 -16 14 -27c0 0 -48 -29 -128 -29
c-131 0 -207 95 -207 273s76 273 207 273c76 0 116 -23 116 -23c0 -11 -3 -21 -12 -28c0 0 -37 20 -97 20z" />
    <glyph glyph-name="circumflex" unicode="&#x2c6;" horiz-adv-x="396" 
d="M185 683h26l123 -101c-2 -10 -7 -18 -16 -20l-121 90l-119 -91c-10 4 -15 10 -17 21z" />
    <glyph glyph-name="colon" unicode=":" horiz-adv-x="216" 
d="M132 45v-42s-8 -3 -24 -3s-24 3 -24 3v42s8 3 24 3s24 -3 24 -3zM132 440v-42s-8 -3 -24 -3s-24 3 -24 3v42s8 3 24 3s24 -3 24 -3z" />
    <glyph glyph-name="comma" unicode="," horiz-adv-x="206" 
d="M80 -94l-16 12s28 28 33 82c-12 0 -18 3 -18 3v42s8 3 24 3s24 -3 24 -3v-32c0 -70 -47 -107 -47 -107z" />
    <glyph glyph-name="commaaccent" unicode="&#xf6c3;" horiz-adv-x="186" 
d="M65 -94l-16 12s28 28 33 82c-12 0 -18 3 -18 3v42s8 3 24 3s24 -3 24 -3v-32c0 -70 -47 -107 -47 -107z" />
    <glyph glyph-name="commaaccent.alt" horiz-adv-x="166" 
d="M101 720l16 -12s-29 -28 -34 -82c12 -1 19 -3 19 -3v-42s-8 -3 -24 -3s-24 3 -24 3v32c0 70 47 107 47 107z" />
    <glyph glyph-name="copyright" unicode="&#xa9;" horiz-adv-x="809" 
d="M405 5c-185 0 -335 150 -335 335s150 334 335 334s334 -149 334 -334s-149 -335 -334 -335zM405 646c-169 0 -307 -137 -307 -306s138 -307 307 -307s306 138 306 307s-137 306 -306 306zM406 147c-112 0 -167 72 -167 200c0 131 55 199 167 199c66 0 100 -22 100 -22
c0 -8 -4 -17 -11 -22c0 0 -39 18 -84 18c-99 0 -142 -50 -142 -173c0 -114 47 -173 142 -173c49 0 89 17 89 17c7 -4 10 -12 11 -21c0 0 -36 -23 -105 -23z" />
    <glyph glyph-name="currency" unicode="&#xa4;" horiz-adv-x="588" 
d="M493 51l-75 75c-33 -28 -76 -45 -123 -45c-48 0 -91 17 -124 45l-74 -75s-6 0 -14 9c-8 7 -8 13 -8 13l75 74c-28 33 -45 76 -45 124c0 47 17 91 46 124l-76 74s1 7 8 14c9 7 14 7 14 7l76 -73c33 27 75 44 122 44c46 0 89 -17 122 -45l73 74s5 0 14 -7c7 -7 8 -14 8 -14
l-73 -74c29 -34 46 -77 46 -124c0 -48 -17 -91 -46 -124l75 -74s0 -6 -7 -13c-8 -9 -14 -9 -14 -9zM295 431c-89 0 -160 -70 -160 -160s71 -160 160 -160c90 0 160 70 160 160s-70 160 -160 160z" />
    <glyph glyph-name="d" unicode="d" horiz-adv-x="554" 
d="M431 439v308s4 3 16 3s16 -3 16 -3v-744s-4 -3 -13 -3s-13 3 -13 3l-5 85c-30 -59 -82 -98 -168 -98c-122 0 -197 69 -197 273s75 273 197 273c85 0 137 -38 167 -97zM431 326c0 83 -53 180 -159 180c-123 0 -171 -72 -171 -243s48 -243 171 -243c106 0 159 97 159 180
v126z" />
    <glyph glyph-name="dagger" unicode="&#x2020;" horiz-adv-x="590" 
d="M306 442l7 -553l-18 -16l-19 16l7 553l-242 -6s-4 6 -4 17s4 16 4 16l242 -5l-7 234s6 3 19 3c12 0 18 -3 18 -3l-7 -234l244 5s3 -5 3 -16s-3 -17 -3 -17z" />
    <glyph glyph-name="daggerdbl" unicode="&#x2021;" horiz-adv-x="640" 
d="M332 136l242 7s3 -4 3 -17c0 -12 -3 -16 -3 -16l-242 7l7 -236s-4 -3 -19 -3c-14 0 -18 3 -18 3l7 236l-241 -7s-3 4 -3 16c0 13 3 17 3 17l241 -7l-7 153l7 153l-242 -6s-3 4 -3 17c0 12 3 16 3 16l242 -5l-7 234s4 3 19 3c14 0 18 -3 18 -3l-7 -234l241 5s3 -4 3 -16
c0 -13 -3 -17 -3 -17l-241 6l7 -153z" />
    <glyph glyph-name="dcaron" unicode="&#x10f;" horiz-adv-x="565" 
d="M539 588c-10 0 -17 5 -19 11c43 37 60 88 57 150c14 3 26 2 34 -4c0 -56 -25 -125 -72 -157zM431 439v308s4 3 16 3s16 -3 16 -3v-744s-4 -3 -13 -3s-13 3 -13 3l-5 85c-30 -59 -82 -98 -168 -98c-122 0 -197 69 -197 273s75 273 197 273c85 0 137 -38 167 -97zM431 326
c0 83 -53 180 -159 180c-123 0 -171 -72 -171 -243s48 -243 171 -243c106 0 159 97 159 180v126z" />
    <glyph glyph-name="dcroat" unicode="&#x111;" horiz-adv-x="554" 
d="M535 630h-260s-3 3 -3 14s3 14 3 14h260s3 -3 3 -14s-3 -14 -3 -14zM431 439v308s4 3 16 3s16 -3 16 -3v-744s-4 -3 -13 -3s-13 3 -13 3l-5 85c-30 -59 -82 -98 -168 -98c-122 0 -197 69 -197 273s75 273 197 273c85 0 137 -38 167 -97zM431 326c0 83 -53 180 -159 180
c-123 0 -171 -72 -171 -243s48 -243 171 -243c106 0 159 97 159 180v126z" />
    <glyph glyph-name="degree" unicode="&#xb0;" horiz-adv-x="366" 
d="M281 619c0 50 -31 98 -97 98s-99 -50 -99 -99s31 -96 99 -96c66 0 97 47 97 97zM65 617c0 58 41 119 120 119c78 0 116 -59 116 -116c0 -58 -38 -117 -116 -117c-82 0 -120 57 -120 114z" />
    <glyph glyph-name="dieresis" unicode="&#xa8;" horiz-adv-x="455" 
d="M177 656v-42s-8 -3 -24 -3s-24 3 -24 3v42s8 3 24 3s24 -3 24 -3zM318 656v-42s-8 -3 -24 -3s-24 3 -24 3v42s8 3 24 3s24 -3 24 -3z" />
    <glyph glyph-name="divide" unicode="&#xf7;" horiz-adv-x="563" 
d="M472 275h-381s-3 4 -3 15s3 15 3 15h381s3 -4 3 -15s-3 -15 -3 -15zM306 150v-42s-8 -3 -24 -3s-24 3 -24 3v42s8 3 24 3s24 -3 24 -3zM306 472v-42s-8 -3 -24 -3s-24 3 -24 3v42s8 3 24 3s24 -3 24 -3z" />
    <glyph glyph-name="dollar" unicode="$" horiz-adv-x="559" 
d="M295 637c-132 0 -194 -53 -194 -138c0 -205 396 -79 396 -323c0 -101 -77 -166 -206 -173l6 -129s-5 -3 -19 -3c-15 0 -20 3 -20 3l5 128c-119 0 -197 33 -197 33c-1 9 3 22 10 27c0 0 87 -27 183 -27c127 0 203 46 203 140c0 212 -396 84 -396 322c0 97 70 162 197 170
l-5 119s6 3 19 3c14 0 20 -3 20 -3l-6 -118c109 0 170 -22 170 -22c1 -10 -2 -21 -10 -27c0 0 -67 18 -156 18z" />
    <glyph glyph-name="dotaccent" unicode="&#x2d9;" horiz-adv-x="176" 
d="M111 648v-42s-8 -3 -24 -3s-24 3 -24 3v42s8 3 24 3s24 -3 24 -3z" />
    <glyph glyph-name="dotlessi" unicode="&#x131;" horiz-adv-x="220" 
d="M126 523v-520s-4 -3 -16 -3s-16 3 -16 3v520s4 3 16 3s16 -3 16 -3z" />
    <glyph glyph-name="dotlessj" unicode="&#x237;" horiz-adv-x="220" 
d="M94 -92v615s4 3 16 3s16 -3 16 -3v-611c0 -113 -51 -162 -131 -162c-42 0 -56 9 -56 9s-1 3 -1 8c0 11 4 16 4 16s16 -4 45 -4c72 0 107 37 107 129z" />
    <glyph glyph-name="e" unicode="e" horiz-adv-x="508" 
d="M438 252h-339c6 -163 62 -229 178 -229c83 0 129 40 129 40c9 -5 16 -16 17 -27c0 0 -53 -46 -156 -46c-130 0 -202 95 -202 276c0 189 85 270 205 270c119 0 179 -79 179 -184c0 -61 -11 -100 -11 -100zM415 357c0 79 -42 149 -145 149c-101 0 -167 -68 -171 -224h310
s6 28 6 75z" />
    <glyph glyph-name="eacute" unicode="&#xe9;" horiz-adv-x="508" 
d="M438 252h-339c6 -163 62 -229 178 -229c83 0 129 40 129 40c9 -5 16 -16 17 -27c0 0 -53 -46 -156 -46c-130 0 -202 95 -202 276c0 189 85 270 205 270c119 0 179 -79 179 -184c0 -61 -11 -100 -11 -100zM415 357c0 79 -42 149 -145 149c-101 0 -167 -68 -171 -224h310
s6 28 6 75zM344 757l-125 -147c-12 1 -20 6 -24 14l117 150c14 0 25 -6 32 -17z" />
    <glyph glyph-name="ebreve" unicode="&#x115;" horiz-adv-x="508" 
d="M438 252h-339c6 -163 62 -229 178 -229c83 0 129 40 129 40c9 -5 16 -16 17 -27c0 0 -53 -46 -156 -46c-130 0 -202 95 -202 276c0 189 85 270 205 270c119 0 179 -79 179 -184c0 -61 -11 -100 -11 -100zM415 357c0 79 -42 149 -145 149c-101 0 -167 -68 -171 -224h310
s6 28 6 75zM398 688c0 0 -44 -54 -130 -54s-130 54 -130 54c3 10 7 15 18 19c0 0 45 -43 112 -43s112 43 112 43c12 -3 16 -8 18 -19z" />
    <glyph glyph-name="ecaron" unicode="&#x11b;" horiz-adv-x="509" 
d="M439 252h-339c6 -163 62 -229 178 -229c83 0 129 40 129 40c9 -5 16 -16 17 -27c0 0 -53 -46 -156 -46c-130 0 -202 95 -202 276c0 189 85 270 205 270c119 0 179 -79 179 -184c0 -61 -11 -100 -11 -100zM416 357c0 79 -42 149 -145 149c-101 0 -167 -68 -171 -224h310
s6 28 6 75zM281 602h-25l-118 96c2 10 7 16 16 20l115 -87l114 86c8 -2 13 -10 15 -19z" />
    <glyph glyph-name="ecircumflex" unicode="&#xea;" horiz-adv-x="508" 
d="M438 252h-339c6 -163 62 -229 178 -229c83 0 129 40 129 40c9 -5 16 -16 17 -27c0 0 -53 -46 -156 -46c-130 0 -202 95 -202 276c0 189 85 270 205 270c119 0 179 -79 179 -184c0 -61 -11 -100 -11 -100zM415 357c0 79 -42 149 -145 149c-101 0 -167 -68 -171 -224h310
s6 28 6 75zM257 721h25l121 -99c-2 -9 -7 -17 -16 -19l-118 88l-117 -89c-10 4 -14 10 -16 20z" />
    <glyph glyph-name="edieresis" unicode="&#xeb;" horiz-adv-x="508" 
d="M438 252h-339c6 -163 62 -229 178 -229c83 0 129 40 129 40c9 -5 16 -16 17 -27c0 0 -53 -46 -156 -46c-130 0 -202 95 -202 276c0 189 85 270 205 270c119 0 179 -79 179 -184c0 -61 -11 -100 -11 -100zM415 357c0 79 -42 149 -145 149c-101 0 -167 -68 -171 -224h310
s6 28 6 75zM224 687v-42s-8 -3 -24 -3s-24 3 -24 3v42s8 3 24 3s24 -3 24 -3zM365 687v-42s-8 -3 -24 -3s-24 3 -24 3v42s8 3 24 3s24 -3 24 -3z" />
    <glyph glyph-name="edotaccent" unicode="&#x117;" horiz-adv-x="508" 
d="M438 252h-339c6 -163 62 -229 178 -229c83 0 129 40 129 40c9 -5 16 -16 17 -27c0 0 -53 -46 -156 -46c-130 0 -202 95 -202 276c0 189 85 270 205 270c119 0 179 -79 179 -184c0 -61 -11 -100 -11 -100zM415 357c0 79 -42 149 -145 149c-101 0 -167 -68 -171 -224h310
s6 28 6 75zM296 686v-42s-8 -3 -24 -3s-24 3 -24 3v42s8 3 24 3s24 -3 24 -3z" />
    <glyph glyph-name="egrave" unicode="&#xe8;" horiz-adv-x="508" 
d="M438 252h-339c6 -163 62 -229 178 -229c83 0 129 40 129 40c9 -5 16 -16 17 -27c0 0 -53 -46 -156 -46c-130 0 -202 95 -202 276c0 189 85 270 205 270c119 0 179 -79 179 -184c0 -61 -11 -100 -11 -100zM415 357c0 79 -42 149 -145 149c-101 0 -167 -68 -171 -224h310
s6 28 6 75zM294 610l-125 147c6 9 19 17 32 17l117 -150c-4 -8 -12 -13 -24 -14z" />
    <glyph glyph-name="eight" unicode="8" horiz-adv-x="583" 
d="M288 -10c-143 0 -217 74 -217 167c0 121 104 192 146 216c-68 33 -123 77 -123 161c0 95 76 156 195 156c121 0 196 -63 196 -157c0 -105 -79 -164 -121 -188c80 -35 149 -82 149 -184c0 -101 -77 -171 -225 -171zM292 21c122 0 187 61 187 139c0 119 -123 152 -230 198
c-23 -12 -144 -81 -144 -197c0 -79 58 -140 187 -140zM289 659c-98 0 -161 -49 -161 -123c0 -105 104 -137 204 -178c40 23 118 79 118 173c0 81 -64 128 -161 128z" />
    <glyph glyph-name="eight.denom" horiz-adv-x="320" 
d="M160 348c65 0 104 -29 104 -82c0 -46 -28 -75 -60 -93c39 -18 72 -41 72 -88c0 -56 -43 -90 -115 -90c-68 0 -117 30 -117 90c0 53 36 85 70 104c-33 17 -58 39 -58 79c0 47 34 80 104 80zM162 16c50 0 90 22 90 67c0 56 -63 72 -117 96c-22 -12 -67 -42 -67 -93
c0 -49 35 -70 94 -70zM159 327c-50 0 -79 -22 -79 -57c0 -51 52 -67 103 -88c33 21 57 47 57 83c0 40 -29 62 -81 62z" />
    <glyph glyph-name="eight.num" horiz-adv-x="320" 
d="M160 694c65 0 104 -29 104 -82c0 -46 -28 -75 -60 -93c39 -18 72 -41 72 -88c0 -56 -43 -90 -115 -90c-68 0 -117 30 -117 90c0 53 36 85 70 104c-33 17 -58 39 -58 79c0 47 34 80 104 80zM162 362c50 0 90 22 90 67c0 56 -63 72 -117 96c-22 -12 -67 -42 -67 -93
c0 -49 35 -70 94 -70zM159 673c-50 0 -79 -22 -79 -57c0 -51 52 -67 103 -88c33 21 57 47 57 83c0 40 -29 62 -81 62z" />
    <glyph glyph-name="eightinferior" unicode="&#x2088;" horiz-adv-x="320" 
d="M160 252c65 0 104 -29 104 -82c0 -46 -28 -75 -60 -93c39 -18 72 -41 72 -88c0 -56 -43 -90 -115 -90c-68 0 -117 30 -117 90c0 53 36 85 70 104c-33 17 -58 39 -58 79c0 47 34 80 104 80zM162 -80c50 0 90 22 90 67c0 56 -63 72 -117 96c-22 -12 -67 -42 -67 -93
c0 -49 35 -70 94 -70zM159 231c-50 0 -79 -22 -79 -57c0 -51 52 -67 103 -88c33 21 57 47 57 83c0 40 -29 62 -81 62z" />
    <glyph glyph-name="ellipsis" unicode="&#x2026;" horiz-adv-x="502" 
d="M127 45v-42s-8 -3 -24 -3s-24 3 -24 3v42s8 3 24 3s24 -3 24 -3zM275 45v-42s-8 -3 -24 -3s-24 3 -24 3v42s8 3 24 3s24 -3 24 -3zM423 45v-42s-8 -3 -24 -3s-24 3 -24 3v42s8 3 24 3s24 -3 24 -3z" />
    <glyph glyph-name="emacron" unicode="&#x113;" horiz-adv-x="508" 
d="M438 252h-339c6 -163 62 -229 178 -229c83 0 129 40 129 40c9 -5 16 -16 17 -27c0 0 -53 -46 -156 -46c-130 0 -202 95 -202 276c0 189 85 270 205 270c119 0 179 -79 179 -184c0 -61 -11 -100 -11 -100zM415 357c0 79 -42 149 -145 149c-101 0 -167 -68 -171 -224h310
s6 28 6 75zM398 642h-240c-3 5 -4 9 -4 15s1 10 4 15h240c3 -4 3 -8 3 -14s0 -11 -3 -16z" />
    <glyph glyph-name="emdash" unicode="&#x2014;" horiz-adv-x="814" 
d="M722 275h-630s-3 4 -3 15s3 15 3 15h630s3 -4 3 -15s-3 -15 -3 -15z" />
    <glyph glyph-name="endash" unicode="&#x2013;" horiz-adv-x="564" 
d="M472 275h-380s-3 4 -3 15s3 15 3 15h380s3 -4 3 -15s-3 -15 -3 -15z" />
    <glyph glyph-name="eng" unicode="&#x14b;" 
d="M123 435c41 63 105 101 187 101c94 0 151 -58 151 -148v-444c0 -87 -15 -143 -104 -172c-7 5 -11 14 -10 25c62 21 82 61 82 145v438c0 88 -45 127 -129 127c-70 0 -143 -49 -177 -131v-373s-5 -3 -16 -3s-16 3 -16 3v520s5 3 16 3s16 -3 16 -3v-88z" />
    <glyph glyph-name="eogonek" unicode="&#x119;" horiz-adv-x="508" 
d="M270 536c119 0 179 -79 179 -184c0 -61 -11 -100 -11 -100h-339c6 -163 62 -229 178 -229c83 0 129 40 129 40c9 -5 16 -16 17 -27c0 0 -32 -28 -94 -40c-43 -13 -84 -41 -84 -92c0 -32 21 -49 54 -49c25 0 42 10 42 10c6 -5 9 -13 9 -22c0 0 -21 -16 -57 -16
c-53 0 -81 31 -81 73c0 39 20 70 50 90c-127 3 -197 98 -197 276c0 189 85 270 205 270zM99 282h310s6 28 6 75c0 79 -42 149 -145 149c-101 0 -167 -68 -171 -224z" />
    <glyph glyph-name="equal" unicode="=" horiz-adv-x="510" 
d="M419 358h-328s-3 4 -3 15s3 15 3 15h328s3 -4 3 -15s-3 -15 -3 -15zM419 192h-328s-3 3 -3 15c0 11 3 15 3 15h328s3 -4 3 -15s-3 -15 -3 -15z" />
    <glyph glyph-name="estimated" unicode="&#x212e;" horiz-adv-x="827" 
d="M614 583c-54 44 -122 68 -192 68c-69 0 -137 -24 -192 -67v-222h384v221zM609 95h67c-64 -68 -152 -105 -254 -105c-194 0 -352 158 -352 352s158 352 352 352s352 -158 352 -352v-24h-544v-218c55 -41 123 -67 192 -67c68 0 133 24 187 62z" />
    <glyph glyph-name="eth" unicode="&#xf0;" horiz-adv-x="552" 
d="M405 702l-64 -40c89 -76 142 -195 142 -355c0 -241 -78 -317 -212 -317c-126 0 -205 75 -205 262s79 262 196 262c91 0 151 -41 181 -102c-16 91 -60 174 -129 232l-136 -86c-10 5 -16 16 -17 26l127 80c-41 28 -89 48 -144 59c-2 10 0 20 7 27c62 -12 117 -35 164 -68
l73 46c10 -5 16 -14 17 -26zM271 19c101 0 173 57 173 233c0 179 -76 232 -181 232c-101 0 -163 -56 -163 -232s70 -233 171 -233z" />
    <glyph glyph-name="exclam" unicode="!" horiz-adv-x="238" 
d="M107 153l-5 564s-5 3 17 3s17 -3 17 -3l-5 -564s-3 -4 -12 -4c-10 0 -12 4 -12 4zM141 45v-42s-6 -3 -22 -3s-22 3 -22 3v42s6 3 22 3s22 -3 22 -3z" />
    <glyph glyph-name="exclamdown" unicode="&#xa1;" horiz-adv-x="224" 
d="M95 -199l5 564s2 4 12 4c9 0 12 -4 12 -4l5 -564s5 -3 -17 -3s-17 3 -17 3zM136 515v-42s-8 -3 -24 -3s-24 3 -24 3v42s8 3 24 3s24 -3 24 -3z" />
    <glyph glyph-name="f" unicode="f" horiz-adv-x="336" 
d="M304 496h-164v-493s-4 -3 -16 -3s-16 3 -16 3v493h-64s-3 4 -3 15s3 15 3 15h64v60c0 97 28 164 145 164c49 0 89 -12 89 -12c2 -10 -2 -22 -9 -28c0 0 -32 10 -75 10c-99 0 -118 -47 -118 -129v-65h164s3 -4 3 -15c0 -10 -3 -15 -3 -15z" />
    <glyph glyph-name="five" unicode="5" horiz-adv-x="516" 
d="M130 648v-274s39 7 92 7c160 0 229 -72 229 -199c0 -123 -73 -192 -242 -192c-103 0 -150 25 -150 25c-2 9 2 21 9 26c0 0 60 -21 136 -21c144 0 212 51 212 162c0 90 -39 168 -201 168c-60 0 -118 -11 -118 -11v341h325s3 -5 3 -16s-3 -16 -3 -16h-292z" />
    <glyph glyph-name="five.denom" horiz-adv-x="295" 
d="M88 320v-118c103 0 167 -21 167 -105c0 -71 -50 -102 -130 -102c-49 0 -85 13 -85 13c-1 6 0 14 6 19c0 0 36 -10 78 -10c78 0 106 29 106 79c0 65 -44 83 -140 83h-26v164h172c3 -6 3 -17 0 -23h-148z" />
    <glyph glyph-name="five.num" horiz-adv-x="296" 
d="M88 666v-118c103 0 167 -21 167 -105c0 -71 -50 -102 -130 -102c-49 0 -85 13 -85 13c-1 6 0 14 6 19c0 0 36 -10 78 -10c78 0 106 29 106 79c0 65 -44 83 -140 83h-26v164h172c3 -6 3 -17 0 -23h-148z" />
    <glyph glyph-name="fiveeighths" unicode="&#x215d;" horiz-adv-x="745" 
d="M574 348c65 0 104 -29 104 -82c0 -46 -28 -75 -60 -93c39 -18 72 -41 72 -88c0 -56 -43 -90 -115 -90c-68 0 -117 30 -117 90c0 53 36 85 70 104c-33 17 -58 39 -58 79c0 47 34 80 104 80zM162 -8l389 707s4 3 13 3s12 -3 12 -3l-388 -707s-4 -2 -13 -2s-13 2 -13 2z
M106 666v-118c103 0 167 -21 167 -105c0 -71 -50 -102 -130 -102c-49 0 -85 13 -85 13c-1 6 0 14 6 19c0 0 36 -10 78 -10c78 0 106 29 106 79c0 65 -44 83 -140 83h-26v164h172c3 -6 3 -17 0 -23h-148zM576 16c50 0 90 22 90 67c0 56 -63 72 -117 96
c-22 -12 -67 -42 -67 -93c0 -49 35 -70 94 -70zM573 327c-50 0 -79 -22 -79 -57c0 -51 52 -67 103 -88c33 21 57 47 57 83c0 40 -29 62 -81 62z" />
    <glyph glyph-name="fiveinferior" unicode="&#x2085;" horiz-adv-x="295" 
d="M88 224v-118c103 0 167 -21 167 -105c0 -71 -50 -102 -130 -102c-49 0 -85 13 -85 13c-1 6 0 14 6 19c0 0 36 -10 78 -10c78 0 106 29 106 79c0 65 -44 83 -140 83h-26v164h172c3 -6 3 -17 0 -23h-148z" />
    <glyph glyph-name="florin" unicode="&#x192;" horiz-adv-x="427" 
d="M325 420h-107l-41 -409c-11 -109 -56 -152 -135 -152c-42 0 -80 18 -80 18c-1 9 1 18 9 24c0 0 35 -12 69 -12c57 0 96 27 105 121l41 410h-100s-3 5 -3 15c0 9 3 13 3 13h103l9 90c11 111 51 153 132 153c48 0 81 -15 81 -15c1 -9 -2 -17 -9 -24c0 0 -35 11 -71 11
c-59 0 -92 -29 -101 -124l-9 -91h104s3 -4 3 -14s-3 -14 -3 -14z" />
    <glyph glyph-name="four" unicode="4" horiz-adv-x="573" 
d="M44 215l340 462s5 3 18 3c12 0 16 -3 16 -3v-462h107s3 -4 3 -15s-3 -15 -3 -15h-107v-182s-5 -3 -17 -3s-16 3 -16 3v182h-341s-3 4 -3 15s3 15 3 15zM83 215h302v411z" />
    <glyph glyph-name="four.denom" horiz-adv-x="320" 
d="M241 120h43s2 -4 2 -11c0 -8 -2 -12 -2 -12h-43v-95s-3 -2 -11 -2s-12 2 -12 2v95h-184s-2 2 -2 7s2 8 2 8l183 229s3 2 12 2c8 0 12 -2 12 -2v-221zM68 120h150v187z" />
    <glyph glyph-name="four.num" horiz-adv-x="320" 
d="M241 466h43s2 -4 2 -11c0 -8 -2 -12 -2 -12h-43v-95s-3 -2 -11 -2s-12 2 -12 2v95h-184s-2 2 -2 7s2 8 2 8l183 229s3 2 12 2c8 0 12 -2 12 -2v-221zM68 466h150v187z" />
    <glyph glyph-name="fourinferior" unicode="&#x2084;" horiz-adv-x="320" 
d="M241 24h43s2 -4 2 -11c0 -8 -2 -12 -2 -12h-43v-95s-3 -2 -11 -2s-12 2 -12 2v95h-184s-2 2 -2 7s2 8 2 8l183 229s3 2 12 2c8 0 12 -2 12 -2v-221zM68 24h150v187z" />
    <glyph glyph-name="fraction" unicode="&#x2044;" horiz-adv-x="123" 
d="M-151 -6l388 705s6 3 18 3c11 0 17 -3 17 -3l-389 -705s-6 -4 -18 -4s-16 4 -16 4z" />
    <glyph glyph-name="g" unicode="g" horiz-adv-x="516" 
d="M154 215c-55 26 -85 79 -85 151c0 106 66 170 178 170c41 0 76 -9 104 -24l129 23c5 -11 5 -24 0 -36l-99 -11c29 -29 44 -71 44 -122c0 -105 -64 -169 -178 -169c-24 0 -47 3 -66 8c-16 -19 -38 -53 -38 -95c0 -118 336 -3 336 -200c0 -84 -77 -160 -239 -160
c-136 0 -194 66 -194 146c0 83 64 136 88 153c-16 13 -26 31 -26 58c0 42 28 84 46 108zM240 -221c123 0 206 52 206 128c0 130 -189 91 -284 127c-53 -34 -80 -87 -80 -133c0 -75 55 -122 158 -122zM247 508c-85 0 -144 -48 -144 -141c0 -94 59 -142 144 -142
c86 0 144 48 144 142c0 93 -58 141 -144 141z" />
    <glyph glyph-name="g.alt" horiz-adv-x="554" 
d="M431 26v62c-28 -56 -76 -98 -167 -98c-122 0 -197 69 -197 273s75 273 197 273c91 0 139 -43 167 -99v86s4 3 16 3s16 -3 16 -3v-497c0 -181 -43 -276 -203 -276c-79 0 -126 24 -126 24c-1 11 2 21 11 27c0 0 51 -19 115 -19c110 0 171 50 171 244zM101 263
c0 -171 48 -243 171 -243c117 0 157 111 159 175v136c-2 64 -41 175 -159 175c-123 0 -171 -72 -171 -243z" />
    <glyph glyph-name="gbreve" unicode="&#x11f;" horiz-adv-x="516" 
d="M154 215c-55 26 -85 79 -85 151c0 106 66 170 178 170c41 0 76 -9 104 -24l129 23c5 -11 5 -24 0 -36l-99 -11c29 -29 44 -71 44 -122c0 -105 -64 -169 -178 -169c-24 0 -47 3 -66 8c-16 -19 -38 -53 -38 -95c0 -118 336 -3 336 -200c0 -84 -77 -160 -239 -160
c-136 0 -194 66 -194 146c0 83 64 136 88 153c-16 13 -26 31 -26 58c0 42 28 84 46 108zM240 -221c123 0 206 52 206 128c0 130 -189 91 -284 127c-53 -34 -80 -87 -80 -133c0 -75 55 -122 158 -122zM247 508c-85 0 -144 -48 -144 -141c0 -94 59 -142 144 -142
c86 0 144 48 144 142c0 93 -58 141 -144 141zM380 688c0 0 -44 -54 -130 -54s-130 54 -130 54c3 10 7 15 18 19c0 0 45 -43 112 -43s112 43 112 43c12 -3 16 -8 18 -19z" />
    <glyph glyph-name="gbreve.alt" horiz-adv-x="554" 
d="M431 26v62c-28 -56 -76 -98 -167 -98c-122 0 -197 69 -197 273s75 273 197 273c91 0 139 -43 167 -99v86s4 3 16 3s16 -3 16 -3v-497c0 -181 -43 -276 -203 -276c-79 0 -126 24 -126 24c-1 11 2 21 11 27c0 0 51 -19 115 -19c110 0 171 50 171 244zM101 263
c0 -171 48 -243 171 -243c117 0 157 111 159 175v136c-2 64 -41 175 -159 175c-123 0 -171 -72 -171 -243zM415 688c0 0 -44 -54 -130 -54s-130 54 -130 54c3 10 7 15 18 19c0 0 45 -43 112 -43s112 43 112 43c12 -3 16 -8 18 -19z" />
    <glyph glyph-name="gcircumflex" unicode="&#x11d;" horiz-adv-x="516" 
d="M154 215c-55 26 -85 79 -85 151c0 106 66 170 178 170c41 0 76 -9 104 -24l129 23c5 -11 5 -24 0 -36l-99 -11c29 -29 44 -71 44 -122c0 -105 -64 -169 -178 -169c-24 0 -47 3 -66 8c-16 -19 -38 -53 -38 -95c0 -118 336 -3 336 -200c0 -84 -77 -160 -239 -160
c-136 0 -194 66 -194 146c0 83 64 136 88 153c-16 13 -26 31 -26 58c0 42 28 84 46 108zM240 -221c123 0 206 52 206 128c0 130 -189 91 -284 127c-53 -34 -80 -87 -80 -133c0 -75 55 -122 158 -122zM247 508c-85 0 -144 -48 -144 -141c0 -94 59 -142 144 -142
c86 0 144 48 144 142c0 93 -58 141 -144 141zM233 721h25l121 -99c-2 -9 -7 -17 -16 -19l-118 88l-117 -89c-10 4 -14 10 -16 20z" />
    <glyph glyph-name="gcircumflex.alt" horiz-adv-x="554" 
d="M431 26v62c-28 -56 -76 -98 -167 -98c-122 0 -197 69 -197 273s75 273 197 273c91 0 139 -43 167 -99v86s4 3 16 3s16 -3 16 -3v-497c0 -181 -43 -276 -203 -276c-79 0 -126 24 -126 24c-1 11 2 21 11 27c0 0 51 -19 115 -19c110 0 171 50 171 244zM101 263
c0 -171 48 -243 171 -243c117 0 157 111 159 175v136c-2 64 -41 175 -159 175c-123 0 -171 -72 -171 -243zM264 721h25l121 -99c-2 -9 -7 -17 -16 -19l-118 88l-117 -89c-10 4 -14 10 -16 20z" />
    <glyph glyph-name="gcommaaccent" unicode="&#x123;" horiz-adv-x="516" 
d="M154 215c-55 26 -85 79 -85 151c0 106 66 170 178 170c41 0 76 -9 104 -24l129 23c5 -11 5 -24 0 -36l-99 -11c29 -29 44 -71 44 -122c0 -105 -64 -169 -178 -169c-24 0 -47 3 -66 8c-16 -19 -38 -53 -38 -95c0 -118 336 -3 336 -200c0 -84 -77 -160 -239 -160
c-136 0 -194 66 -194 146c0 83 64 136 88 153c-16 13 -26 31 -26 58c0 42 28 84 46 108zM240 -221c123 0 206 52 206 128c0 130 -189 91 -284 127c-53 -34 -80 -87 -80 -133c0 -75 55 -122 158 -122zM247 508c-85 0 -144 -48 -144 -141c0 -94 59 -142 144 -142
c86 0 144 48 144 142c0 93 -58 141 -144 141zM272 727l17 -10s-29 -25 -34 -73c12 0 18 -3 18 -3v-37s-8 -2 -24 -2s-25 2 -25 2v29c0 61 48 94 48 94z" />
    <glyph glyph-name="gcommaaccent.alt" horiz-adv-x="554" 
d="M431 26v62c-28 -56 -76 -98 -167 -98c-122 0 -197 69 -197 273s75 273 197 273c91 0 139 -43 167 -99v86s4 3 16 3s16 -3 16 -3v-497c0 -181 -43 -276 -203 -276c-79 0 -126 24 -126 24c-1 11 2 21 11 27c0 0 51 -19 115 -19c110 0 171 50 171 244zM101 263
c0 -171 48 -243 171 -243c117 0 157 111 159 175v136c-2 64 -41 175 -159 175c-123 0 -171 -72 -171 -243zM283 744l16 -12s-28 -28 -33 -82c12 0 18 -3 18 -3v-42s-8 -3 -24 -3s-24 3 -24 3v32c0 70 47 107 47 107z" />
    <glyph glyph-name="gdotaccent" unicode="&#x121;" horiz-adv-x="516" 
d="M154 215c-55 26 -85 79 -85 151c0 106 66 170 178 170c41 0 76 -9 104 -24l129 23c5 -11 5 -24 0 -36l-99 -11c29 -29 44 -71 44 -122c0 -105 -64 -169 -178 -169c-24 0 -47 3 -66 8c-16 -19 -38 -53 -38 -95c0 -118 336 -3 336 -200c0 -84 -77 -160 -239 -160
c-136 0 -194 66 -194 146c0 83 64 136 88 153c-16 13 -26 31 -26 58c0 42 28 84 46 108zM240 -221c123 0 206 52 206 128c0 130 -189 91 -284 127c-53 -34 -80 -87 -80 -133c0 -75 55 -122 158 -122zM247 508c-85 0 -144 -48 -144 -141c0 -94 59 -142 144 -142
c86 0 144 48 144 142c0 93 -58 141 -144 141zM275 646v-42s-8 -3 -24 -3s-24 3 -24 3v42s8 3 24 3s24 -3 24 -3z" />
    <glyph glyph-name="gdotaccent.alt" horiz-adv-x="554" 
d="M431 26v62c-28 -56 -76 -98 -167 -98c-122 0 -197 69 -197 273s75 273 197 273c91 0 139 -43 167 -99v86s4 3 16 3s16 -3 16 -3v-497c0 -181 -43 -276 -203 -276c-79 0 -126 24 -126 24c-1 11 2 21 11 27c0 0 51 -19 115 -19c110 0 171 50 171 244zM101 263
c0 -171 48 -243 171 -243c117 0 157 111 159 175v136c-2 64 -41 175 -159 175c-123 0 -171 -72 -171 -243zM294 676v-42s-8 -3 -24 -3s-24 3 -24 3v42s8 3 24 3s24 -3 24 -3z" />
    <glyph glyph-name="germandbls" unicode="&#xdf;" horiz-adv-x="569" 
d="M91 3v553c0 133 67 194 195 194c127 0 178 -86 178 -170c0 -57 -21 -96 -21 -96s-126 2 -126 -98c0 -113 203 -91 203 -259c0 -81 -53 -137 -157 -137c-69 0 -99 17 -99 17c-1 10 2 20 9 25c18 -6 59 -12 85 -12c95 0 128 49 128 105c0 149 -203 121 -203 260
c0 120 136 126 136 126s10 30 10 69c0 73 -39 140 -144 140c-118 0 -162 -62 -162 -164v-553s-4 -3 -16 -3s-16 3 -16 3z" />
    <glyph glyph-name="grave" unicode="`" horiz-adv-x="238" 
d="M174 643l-125 147c6 9 19 17 32 17l117 -150c-4 -8 -12 -13 -24 -14z" />
    <glyph glyph-name="greater" unicode="&#x3e;" horiz-adv-x="474" 
d="M410 268l-320 -148s-3 6 -3 17c0 12 3 18 3 18l295 134l-295 137s-3 5 -3 17s3 16 3 16l320 -148s3 -8 3 -21c0 -14 -3 -22 -3 -22z" />
    <glyph glyph-name="greaterequal" unicode="&#x2265;" horiz-adv-x="472" 
d="M381 348l-288 -118s-3 6 -3 17c0 12 3 18 3 18l260 104l-260 107s-3 5 -3 17s3 16 3 16l288 -118s3 -8 3 -21c0 -14 -3 -22 -3 -22zM381 128h-288s-3 4 -3 15s3 15 3 15h288s3 -4 3 -15c0 -12 -3 -15 -3 -15z" />
    <glyph glyph-name="guillemotleft" unicode="&#xab;" horiz-adv-x="486" 
d="M58 284l207 225c8 -4 13 -15 13 -25l-194 -214l194 -215c0 -11 -5 -21 -13 -25l-207 226s-3 5 -3 14s3 14 3 14zM218 283l187 204c8 -4 12 -14 12 -24l-172 -193l172 -194c0 -11 -4 -20 -12 -24l-187 205s-2 4 -2 13s2 13 2 13z" />
    <glyph glyph-name="guillemotright" unicode="&#xbb;" horiz-adv-x="486" 
d="M222 509l207 -225s3 -5 3 -14s-3 -14 -3 -14l-207 -226c-8 4 -13 14 -13 25l194 215l-194 214c0 10 5 21 13 25zM82 487l187 -204s2 -4 2 -13s-2 -13 -2 -13l-187 -205c-8 4 -12 13 -12 24l172 194l-172 193c0 10 4 20 12 24z" />
    <glyph glyph-name="guilsinglleft" unicode="&#x2039;" horiz-adv-x="340" 
d="M58 284l207 225c8 -4 13 -15 13 -25l-194 -214l194 -215c0 -11 -5 -21 -13 -25l-207 226s-3 5 -3 14s3 14 3 14z" />
    <glyph glyph-name="guilsinglright" unicode="&#x203a;" horiz-adv-x="340" 
d="M75 509l207 -225s3 -5 3 -14s-3 -14 -3 -14l-207 -226c-8 4 -13 14 -13 25l194 215l-194 214c0 10 5 21 13 25z" />
    <glyph glyph-name="h" unicode="h" 
d="M461 388v-385s-5 -3 -16 -3s-16 3 -16 3v377c0 88 -45 127 -129 127c-70 0 -143 -49 -177 -131v-373s-5 -3 -16 -3s-16 3 -16 3v744s5 3 16 3s16 -3 16 -3v-312c41 63 105 101 187 101c94 0 151 -58 151 -148z" />
    <glyph glyph-name="hbar" unicode="&#x127;" 
d="M329 629h-310c-3 9 -3 21 0 29h310c4 -8 4 -20 0 -29zM461 388v-385s-5 -3 -16 -3s-16 3 -16 3v377c0 88 -45 127 -129 127c-70 0 -143 -49 -177 -131v-373s-5 -3 -16 -3s-16 3 -16 3v744s5 3 16 3s16 -3 16 -3v-312c41 63 105 101 187 101c94 0 151 -58 151 -148z" />
    <glyph glyph-name="hcircumflex" unicode="&#x125;" 
d="M461 388v-385s-5 -3 -16 -3s-16 3 -16 3v377c0 88 -45 127 -129 127c-70 0 -143 -49 -177 -131v-373s-5 -3 -16 -3s-16 3 -16 3v744s5 3 16 3s16 -3 16 -3v-312c41 63 105 101 187 101c94 0 151 -58 151 -148zM255 881h25l118 -97c-2 -10 -7 -17 -16 -19l-116 87
l-114 -88c-10 4 -15 9 -16 20z" />
    <glyph glyph-name="hungarumlaut" unicode="&#x2dd;" horiz-adv-x="386" 
d="M182 790l-125 -147c-12 1 -20 6 -24 14l111 150c17 0 29 -6 38 -17zM332 790l-125 -147c-12 1 -20 6 -24 14l111 150c17 0 29 -6 38 -17z" />
    <glyph glyph-name="hyphen" unicode="-" horiz-adv-x="354" 
d="M267 275h-180s-3 4 -3 15s3 15 3 15h180s3 -4 3 -15s-3 -15 -3 -15z" />
    <glyph glyph-name="i" unicode="i" horiz-adv-x="220" 
d="M126 523v-520s-4 -3 -16 -3s-16 3 -16 3v520s4 3 16 3s16 -3 16 -3zM134 681v-42s-8 -3 -24 -3s-24 3 -24 3v42s8 3 24 3s24 -3 24 -3z" />
    <glyph glyph-name="iacute" unicode="&#xed;" horiz-adv-x="220" 
d="M126 523v-520s-4 -3 -16 -3s-16 3 -16 3v520s4 3 16 3s16 -3 16 -3zM200 757l-125 -147c-12 1 -20 6 -24 14l117 150c14 0 25 -6 32 -17z" />
    <glyph glyph-name="ibreve" unicode="&#x12d;" horiz-adv-x="222" 
d="M127 523v-520s-4 -3 -16 -3s-16 3 -16 3v520s4 3 16 3s16 -3 16 -3zM240 688c0 0 -44 -54 -130 -54s-130 54 -130 54c3 10 7 15 18 19c0 0 45 -43 112 -43s112 43 112 43c12 -3 16 -8 18 -19z" />
    <glyph glyph-name="icircumflex" unicode="&#xee;" horiz-adv-x="222" 
d="M127 523v-520s-4 -3 -16 -3s-16 3 -16 3v520s4 3 16 3s16 -3 16 -3zM100 721h25l121 -99c-2 -9 -7 -17 -16 -19l-118 88l-117 -89c-10 4 -14 10 -16 20z" />
    <glyph glyph-name="idieresis" unicode="&#xef;" horiz-adv-x="222" 
d="M127 523v-520s-4 -3 -16 -3s-16 3 -16 3v520s4 3 16 3s16 -3 16 -3zM62 647v-42s-8 -3 -24 -3s-24 3 -24 3v42s8 3 24 3s24 -3 24 -3zM203 647v-42s-8 -3 -24 -3s-24 3 -24 3v42s8 3 24 3s24 -3 24 -3z" />
    <glyph glyph-name="igrave" unicode="&#xec;" horiz-adv-x="220" 
d="M126 523v-520s-4 -3 -16 -3s-16 3 -16 3v520s4 3 16 3s16 -3 16 -3zM135 612l-125 147c6 9 19 17 32 17l117 -150c-4 -8 -12 -13 -24 -14z" />
    <glyph glyph-name="ij" unicode="&#x133;" horiz-adv-x="375" 
d="M126 523v-520s-4 -3 -16 -3s-16 3 -16 3v520s4 3 16 3s16 -3 16 -3zM134 651v-42s-8 -3 -24 -3s-24 3 -24 3v42s8 3 24 3s24 -3 24 -3zM248 -92v615s4 3 16 3s16 -3 16 -3v-611c0 -113 -51 -162 -131 -162c-42 0 -56 9 -56 9s-1 3 -1 8c0 11 4 16 4 16s16 -4 45 -4
c72 0 107 37 107 129zM288 651v-42s-8 -3 -24 -3s-24 3 -24 3v42s8 3 24 3s24 -3 24 -3z" />
    <glyph glyph-name="imacron" unicode="&#x12b;" horiz-adv-x="222" 
d="M127 523v-520s-4 -3 -16 -3s-16 3 -16 3v520s4 3 16 3s16 -3 16 -3zM200 602h-176c-2 5 -2 9 -2 15s0 11 2 15h176c2 -3 2 -8 2 -14s0 -11 -2 -16z" />
    <glyph glyph-name="infinity" unicode="&#x221e;" horiz-adv-x="828" 
d="M236 191c119 0 158 134 158 134s-39 134 -158 134c-101 0 -135 -71 -135 -134s34 -134 135 -134zM591 162c-134 0 -177 132 -177 132s-43 -132 -177 -132c-116 0 -167 82 -167 163s51 163 167 163c134 0 177 -133 177 -133s53 133 177 133c116 0 167 -82 167 -163
s-51 -163 -167 -163zM592 459c-119 0 -158 -134 -158 -134s39 -134 158 -134c101 0 135 71 135 134s-34 134 -135 134z" />
    <glyph glyph-name="integral" unicode="&#x222b;" horiz-adv-x="504" 
d="M237 -51v631c0 90 42 141 123 141c52 0 89 -14 122 -33c-1 -10 -5 -17 -14 -22c-31 16 -64 27 -104 27c-59 0 -96 -31 -96 -111v-633c0 -111 -63 -140 -129 -140c-39 0 -78 12 -116 35c1 11 6 18 14 22c21 -12 59 -29 105 -29c48 0 95 21 95 112z" />
    <glyph glyph-name="iogonek" unicode="&#x12f;" horiz-adv-x="223" 
d="M120 -134c6 -5 9 -13 9 -22c0 0 -21 -16 -57 -16c-53 0 -81 31 -81 73c0 72 66 113 138 121v-20c-49 -9 -105 -38 -105 -97c0 -32 21 -49 54 -49c25 0 42 10 42 10zM129 523v-520s-4 -3 -16 -3s-16 3 -16 3v520s4 3 16 3s16 -3 16 -3zM137 651v-42s-8 -3 -24 -3
s-24 3 -24 3v42s8 3 24 3s24 -3 24 -3z" />
    <glyph glyph-name="itilde" unicode="&#x129;" horiz-adv-x="222" 
d="M127 523v-520s-4 -3 -16 -3s-16 3 -16 3v520s4 3 16 3s16 -3 16 -3zM166 629c23 0 32 27 32 27c8 1 16 -2 21 -10c0 0 -15 -45 -57 -45c-38 0 -55 34 -86 34c-23 0 -32 -28 -32 -28c-8 -1 -17 3 -21 10c0 0 16 46 57 46c39 0 56 -34 86 -34z" />
    <glyph glyph-name="j" unicode="j" horiz-adv-x="220" 
d="M94 -92v615s4 3 16 3s16 -3 16 -3v-611c0 -113 -51 -162 -131 -162c-42 0 -56 9 -56 9s-1 3 -1 8c0 11 4 16 4 16s16 -4 45 -4c72 0 107 37 107 129zM134 681v-42s-8 -3 -24 -3s-24 3 -24 3v42s8 3 24 3s24 -3 24 -3z" />
    <glyph glyph-name="jcircumflex" unicode="&#x135;" horiz-adv-x="222" 
d="M95 -92v615s4 3 16 3s16 -3 16 -3v-611c0 -113 -51 -162 -131 -162c-42 0 -56 9 -56 9s-1 3 -1 8c0 11 4 16 4 16s16 -4 45 -4c72 0 107 37 107 129zM98 702h26l120 -98c-2 -10 -7 -18 -16 -20l-118 88l-117 -89c-9 4 -14 10 -16 21z" />
    <glyph glyph-name="k" unicode="k" horiz-adv-x="494" 
d="M123 747v-457h123l164 233s6 3 21 3c14 0 16 -2 16 -2l-174 -247l198 -273s-5 -4 -19 -4s-21 4 -21 4l-185 256h-123v-257s-4 -3 -16 -3s-16 3 -16 3v744s4 3 16 3s16 -3 16 -3z" />
    <glyph glyph-name="kcommaaccent" unicode="&#x137;" horiz-adv-x="494" 
d="M123 747v-457h123l164 233s6 3 21 3c14 0 16 -2 16 -2l-174 -247l198 -273s-5 -4 -19 -4s-21 4 -21 4l-185 256h-123v-257s-4 -3 -16 -3s-16 3 -16 3v744s4 3 16 3s16 -3 16 -3zM252 -182l-16 12s28 28 33 82c-12 0 -18 3 -18 3v42s8 3 24 3s24 -3 24 -3v-32
c0 -70 -47 -107 -47 -107z" />
    <glyph glyph-name="kgreenlandic" unicode="&#x138;" horiz-adv-x="501" 
d="M455 523l-201 -224l222 -296s-6 -3 -19 -3c-16 0 -22 3 -22 3l-205 270l-107 -120v-150c-4 -2 -10 -3 -16 -3s-12 1 -16 3v521c3 1 9 2 16 2s14 -1 16 -2v-327l291 326c5 2 11 3 21 3c8 0 15 -1 20 -3z" />
    <glyph glyph-name="l" unicode="l" horiz-adv-x="224" 
d="M128 747v-744s-4 -3 -16 -3s-16 3 -16 3v744s4 3 16 3s16 -3 16 -3z" />
    <glyph glyph-name="lacute" unicode="&#x13a;" horiz-adv-x="224" 
d="M128 747v-744s-4 -3 -16 -3s-16 3 -16 3v744s4 3 16 3s16 -3 16 -3zM201 927l-125 -147c-12 1 -20 6 -24 14l117 150c14 0 25 -6 32 -17z" />
    <glyph glyph-name="lcaron" unicode="&#x13e;" horiz-adv-x="230" 
d="M203 591c-10 1 -16 6 -18 12c46 34 66 84 68 146c14 2 26 0 33 -6c-4 -56 -33 -123 -83 -152zM128 747v-744s-4 -3 -16 -3s-16 3 -16 3v744s4 3 16 3s16 -3 16 -3z" />
    <glyph glyph-name="lcommaaccent" unicode="&#x13c;" horiz-adv-x="224" 
d="M128 747v-744s-4 -3 -16 -3s-16 3 -16 3v744s4 3 16 3s16 -3 16 -3zM89 -182l-16 12s28 28 33 82c-12 0 -18 3 -18 3v42s8 3 24 3s24 -3 24 -3v-32c0 -70 -47 -107 -47 -107z" />
    <glyph glyph-name="ldot" unicode="&#x140;" horiz-adv-x="257" 
d="M128 747v-744s-4 -3 -16 -3s-16 3 -16 3v744s4 3 16 3s16 -3 16 -3zM261 355v-42s-8 -3 -24 -3s-24 3 -24 3v42s8 3 24 3s24 -3 24 -3z" />
    <glyph glyph-name="less" unicode="&#x3c;" horiz-adv-x="474" 
d="M385 120l-320 148s-3 8 -3 22c0 13 3 21 3 21l320 148s3 -4 3 -16s-3 -17 -3 -17l-295 -137l295 -134s3 -6 3 -18c0 -11 -3 -17 -3 -17z" />
    <glyph glyph-name="lessequal" unicode="&#x2264;" horiz-adv-x="471" 
d="M379 230l-288 118s-3 8 -3 22c0 13 3 21 3 21l288 118s3 -4 3 -16s-3 -17 -3 -17l-260 -107l260 -104s3 -6 3 -18c0 -11 -3 -17 -3 -17zM379 128h-288s-3 3 -3 15c0 11 3 15 3 15h288s3 -4 3 -15s-3 -15 -3 -15z" />
    <glyph glyph-name="logicalnot" unicode="&#xac;" horiz-adv-x="602" 
d="M511 439v-250s-5 -3 -15 -3c-11 0 -15 3 -15 3v220h-410s-3 5 -3 15s3 15 3 15h440z" />
    <glyph glyph-name="longs" unicode="&#x17f;" horiz-adv-x="251" 
d="M140 591v-588s-4 -3 -16 -3s-16 3 -16 3v493h-64s-3 4 -3 15s3 15 3 15h64v60c0 97 28 164 145 164c49 0 89 -12 89 -12c2 -10 -2 -22 -9 -28c0 0 -32 10 -75 10c-99 0 -118 -47 -118 -129z" />
    <glyph glyph-name="lozenge" unicode="&#x25ca;" horiz-adv-x="544" 
d="M492 352l-212 -345h-15l-209 345l209 344h15zM94 351l179 -299l182 299l-182 299z" />
    <glyph glyph-name="lslash" unicode="&#x142;" horiz-adv-x="314" 
d="M275 454l-103 -60v-391s-4 -3 -16 -3s-16 3 -16 3v372l-85 -49c-9 4 -15 14 -15 26l100 58v337s4 3 16 3s16 -3 16 -3v-318l88 51c8 -4 15 -15 15 -26z" />
    <glyph glyph-name="m" unicode="m" horiz-adv-x="843" 
d="M756 388v-385s-5 -3 -16 -3s-16 3 -16 3v377c0 89 -41 127 -118 127c-66 0 -134 -50 -167 -134v0v-370s-5 -3 -16 -3s-16 3 -16 3v377c0 89 -41 127 -118 127c-65 0 -133 -49 -166 -131v-373s-5 -3 -16 -3s-16 3 -16 3v520s5 3 16 3s16 -3 16 -3v-87
c39 62 98 100 176 100c18 0 35 -2 50 -7c45 -15 75 -51 86 -101c39 67 100 108 181 108c88 0 140 -58 140 -148z" />
    <glyph glyph-name="macron" unicode="&#xaf;" horiz-adv-x="407" 
d="M338 630h-283c-3 5 -4 10 -4 16s1 11 4 16h283c3 -4 4 -9 4 -15s-1 -12 -4 -17z" />
    <glyph glyph-name="minus" unicode="&#x2212;" horiz-adv-x="462" 
d="M371 313h-280s-3 4 -3 17s3 17 3 17h280s3 -4 3 -17s-3 -17 -3 -17z" />
    <glyph glyph-name="mu" unicode="&#xb5;" horiz-adv-x="575" 
d="M101 -14v537s4 3 16 3s16 -3 16 -3v-379c0 -70 30 -125 130 -125c84 0 150 66 176 130v374s4 3 16 3s16 -3 16 -3v-520s-4 -3 -16 -3s-16 3 -16 3v89c-42 -64 -106 -102 -183 -102c-70 0 -105 26 -125 51c3 -228 27 -282 27 -282c-8 -8 -21 -11 -35 -8
c0 0 -22 68 -22 235z" />
    <glyph glyph-name="multiply" unicode="&#xd7;" horiz-adv-x="453" 
d="M342 149l-115 115l-115 -115s-7 3 -14 11c-8 7 -11 14 -11 14l115 115l-115 115s3 7 11 14c7 8 14 10 14 10l115 -114l115 114s7 -2 14 -10c8 -7 10 -14 10 -14l-114 -115l114 -115s-2 -7 -10 -14c-7 -8 -14 -11 -14 -11z" />
    <glyph glyph-name="n" unicode="n" 
d="M461 388v-385s-5 -3 -16 -3s-16 3 -16 3v377c0 88 -45 127 -129 127c-70 0 -143 -49 -177 -131v-373s-5 -3 -16 -3s-16 3 -16 3v520s5 3 16 3s16 -3 16 -3v-88c41 63 105 101 187 101c94 0 151 -58 151 -148z" />
    <glyph glyph-name="nacute" unicode="&#x144;" 
d="M461 388v-385s-5 -3 -16 -3s-16 3 -16 3v377c0 88 -45 127 -129 127c-70 0 -143 -49 -177 -131v-373s-5 -3 -16 -3s-16 3 -16 3v520s5 3 16 3s16 -3 16 -3v-88c41 63 105 101 187 101c94 0 151 -58 151 -148zM348 757l-125 -147c-12 1 -20 6 -24 14l117 150
c14 0 25 -6 32 -17z" />
    <glyph glyph-name="napostrophe" unicode="&#x149;" 
d="M97 591c-10 1 -16 6 -18 12c46 34 66 84 68 146c14 2 26 0 33 -6c-4 -56 -33 -123 -83 -152zM461 388v-385s-5 -3 -16 -3s-16 3 -16 3v377c0 88 -45 127 -129 127c-70 0 -143 -49 -177 -131v-373s-5 -3 -16 -3s-16 3 -16 3v520s5 3 16 3s16 -3 16 -3v-88
c41 63 105 101 187 101c94 0 151 -58 151 -148z" />
    <glyph glyph-name="ncaron" unicode="&#x148;" horiz-adv-x="549" 
d="M461 3v385c0 90 -57 148 -151 148c-82 0 -146 -38 -187 -101v88s-5 3 -16 3s-16 -3 -16 -3v-520s5 -3 16 -3s16 3 16 3v373c34 82 107 131 177 131c84 0 129 -39 129 -127v-377s5 -3 16 -3s16 3 16 3zM294 602h-23l-114 93c2 11 6 16 15 20l111 -84l109 83
c9 -2 13 -9 15 -19z" />
    <glyph glyph-name="ncommaaccent" unicode="&#x146;" 
d="M461 388v-385s-5 -3 -16 -3s-16 3 -16 3v377c0 88 -45 127 -129 127c-70 0 -143 -49 -177 -131v-373s-5 -3 -16 -3s-16 3 -16 3v520s5 3 16 3s16 -3 16 -3v-88c41 63 105 101 187 101c94 0 151 -58 151 -148zM258 -182l-16 12s28 28 33 82c-12 0 -18 3 -18 3v42s8 3 24 3
s24 -3 24 -3v-32c0 -70 -47 -107 -47 -107z" />
    <glyph glyph-name="nine" unicode="9" horiz-adv-x="552" 
d="M126 14c0 5 1 10 3 14c161 16 276 97 306 289c-32 -21 -94 -53 -176 -53c-113 0 -200 61 -200 213c0 138 88 213 210 213c121 0 210 -80 210 -267c0 -280 -144 -409 -349 -423c-3 4 -4 9 -4 14zM94 477c0 -125 69 -183 167 -183c86 0 156 45 180 63c2 22 3 45 3 70
c0 162 -74 233 -175 233s-175 -61 -175 -183z" />
    <glyph glyph-name="nine.denom" horiz-adv-x="306" 
d="M237 171c-16 -11 -48 -27 -95 -27c-67 0 -105 40 -105 99c0 72 54 105 109 105c75 0 116 -52 116 -151c0 -101 -56 -187 -185 -200c-4 5 -5 14 -2 20c98 14 155 69 162 154zM238 198c-1 85 -32 129 -92 129c-50 0 -84 -32 -84 -84c0 -43 29 -77 82 -77c56 0 85 23 94 32z
" />
    <glyph glyph-name="nine.num" horiz-adv-x="306" 
d="M237 517c-16 -11 -48 -27 -95 -27c-67 0 -105 40 -105 99c0 72 54 105 109 105c75 0 116 -52 116 -151c0 -101 -56 -187 -185 -200c-4 5 -5 14 -2 20c98 14 155 69 162 154zM238 544c-1 85 -32 129 -92 129c-50 0 -84 -32 -84 -84c0 -43 29 -77 82 -77c56 0 85 23 94 32z
" />
    <glyph glyph-name="nineinferior" unicode="&#x2089;" horiz-adv-x="306" 
d="M237 75c-16 -11 -48 -27 -95 -27c-67 0 -105 40 -105 99c0 72 54 105 109 105c75 0 116 -52 116 -151c0 -101 -56 -187 -185 -200c-4 5 -5 14 -2 20c98 14 155 69 162 154zM238 102c-1 85 -32 129 -92 129c-50 0 -84 -32 -84 -84c0 -43 29 -77 82 -77c56 0 85 23 94 32z
" />
    <glyph glyph-name="notequal" unicode="&#x2260;" horiz-adv-x="457" 
d="M392 192h-206l-54 -98s-6 -3 -18 -3c-8 0 -15 3 -15 3l54 98h-89s-3 3 -3 15c0 11 3 15 3 15h105l75 136h-180s-3 4 -3 15s3 15 3 15h197l50 90s7 3 17 3c9 0 16 -3 16 -3l-50 -90h98s3 -4 3 -15s-3 -15 -3 -15h-114l-76 -136h190s3 -4 3 -15s-3 -15 -3 -15z" />
    <glyph glyph-name="ntilde" unicode="&#xf1;" 
d="M461 3v385c0 90 -57 148 -151 148c-82 0 -146 -38 -187 -101v88s-5 3 -16 3s-16 -3 -16 -3v-520s5 -3 16 -3s16 3 16 3v373c34 82 107 131 177 131c84 0 129 -39 129 -127v-377s5 -3 16 -3s16 3 16 3zM336 660c28 0 39 29 39 29c10 1 20 -2 26 -11c0 0 -19 -47 -70 -47
c-48 0 -69 36 -107 36c-28 0 -39 -30 -39 -30c-11 -1 -22 4 -26 11c0 0 19 48 70 48c48 0 69 -36 107 -36z" />
    <glyph glyph-name="_368" horiz-adv-x="0" 
 />
    <glyph glyph-name="numbersign" unicode="#" horiz-adv-x="651" 
d="M330 4l40 144h-178l-40 -144s-5 -4 -17 -4c-11 0 -15 4 -15 4l40 144h-109c-2 4 -3 9 -3 15s1 11 3 15h118l73 259h-107c-2 4 -3 9 -3 15s1 11 3 15h115l44 153c5 2 10 3 16 3s12 -1 16 -3l-44 -153h178l44 153c5 2 10 3 16 3s12 -1 16 -3l-44 -153h106c2 -4 3 -9 3 -15
s-1 -10 -3 -15h-114l-73 -259h103c2 -4 3 -9 3 -15s-1 -10 -3 -15h-112l-40 -144s-5 -4 -17 -4c-11 0 -15 4 -15 4zM274 437l-73 -259h178l73 259h-178z" />
    <glyph glyph-name="o" unicode="o" horiz-adv-x="538" 
d="M269 -10c-128 0 -203 75 -203 273s75 273 203 273s203 -75 203 -273s-75 -273 -203 -273zM269 507c-104 0 -169 -58 -169 -244s65 -244 169 -244s169 58 169 244s-65 244 -169 244z" />
    <glyph glyph-name="oacute" unicode="&#xf3;" horiz-adv-x="538" 
d="M269 -10c-128 0 -203 75 -203 273s75 273 203 273s203 -75 203 -273s-75 -273 -203 -273zM269 507c-104 0 -169 -58 -169 -244s65 -244 169 -244s169 58 169 244s-65 244 -169 244zM341 757l-125 -147c-12 1 -20 6 -24 14l117 150c14 0 25 -6 32 -17z" />
    <glyph glyph-name="obreve" unicode="&#x14f;" horiz-adv-x="538" 
d="M269 -10c-128 0 -203 75 -203 273s75 273 203 273s203 -75 203 -273s-75 -273 -203 -273zM269 507c-104 0 -169 -58 -169 -244s65 -244 169 -244s169 58 169 244s-65 244 -169 244zM398 688c0 0 -44 -54 -130 -54s-130 54 -130 54c3 10 7 15 18 19c0 0 45 -43 112 -43
s112 43 112 43c12 -3 16 -8 18 -19z" />
    <glyph glyph-name="ocircumflex" unicode="&#xf4;" horiz-adv-x="538" 
d="M269 -10c-128 0 -203 75 -203 273s75 273 203 273s203 -75 203 -273s-75 -273 -203 -273zM269 507c-104 0 -169 -58 -169 -244s65 -244 169 -244s169 58 169 244s-65 244 -169 244zM256 721h25l121 -99c-2 -9 -7 -17 -16 -19l-118 88l-117 -89c-10 4 -14 10 -16 20z" />
    <glyph glyph-name="odieresis" unicode="&#xf6;" horiz-adv-x="538" 
d="M269 -10c-128 0 -203 75 -203 273s75 273 203 273s203 -75 203 -273s-75 -273 -203 -273zM269 507c-104 0 -169 -58 -169 -244s65 -244 169 -244s169 58 169 244s-65 244 -169 244zM223 687v-42s-8 -3 -24 -3s-24 3 -24 3v42s8 3 24 3s24 -3 24 -3zM364 687v-42
s-8 -3 -24 -3s-24 3 -24 3v42s8 3 24 3s24 -3 24 -3z" />
    <glyph glyph-name="oe" unicode="&#x153;" horiz-adv-x="833" 
d="M762 252h-309c6 -163 52 -230 158 -230c73 0 119 39 119 39c10 -5 16 -14 17 -25c0 0 -48 -46 -146 -46c-84 0 -139 47 -166 140c-27 -100 -79 -140 -171 -140c-125 0 -197 75 -197 273s72 273 197 273c91 0 145 -41 172 -140c29 97 89 140 168 140
c114 0 169 -79 169 -184c0 -61 -11 -100 -11 -100zM264 507c-101 0 -163 -58 -163 -244s62 -244 163 -244s153 60 153 246s-52 242 -153 242zM739 357c0 79 -37 149 -135 149c-90 0 -147 -68 -151 -224h280s6 28 6 75z" />
    <glyph glyph-name="ogonek" unicode="&#x2db;" horiz-adv-x="283" 
d="M161 -170c6 -5 9 -13 9 -22c0 0 -21 -16 -57 -16c-53 0 -81 31 -81 73c0 72 66 113 138 121v-20c-49 -9 -105 -38 -105 -97c0 -32 21 -49 54 -49c25 0 42 10 42 10z" />
    <glyph glyph-name="ograve" unicode="&#xf2;" horiz-adv-x="538" 
d="M269 -10c-128 0 -203 75 -203 273s75 273 203 273s203 -75 203 -273s-75 -273 -203 -273zM269 507c-104 0 -169 -58 -169 -244s65 -244 169 -244s169 58 169 244s-65 244 -169 244zM266 610l-125 147c6 9 19 17 32 17l117 -150c-4 -8 -12 -13 -24 -14z" />
    <glyph glyph-name="ohungarumlaut" unicode="&#x151;" horiz-adv-x="538" 
d="M269 -10c-128 0 -203 75 -203 273s75 273 203 273s203 -75 203 -273s-75 -273 -203 -273zM269 507c-104 0 -169 -58 -169 -244s65 -244 169 -244s169 58 169 244s-65 244 -169 244zM307 712l-109 -115c-11 1 -18 5 -22 12l96 118c16 0 27 -5 35 -15zM445 712l-109 -115
c-11 1 -18 5 -22 12l96 118c15 0 27 -5 35 -15z" />
    <glyph glyph-name="omacron" unicode="&#x14d;" horiz-adv-x="538" 
d="M269 -10c-128 0 -203 75 -203 273s75 273 203 273s203 -75 203 -273s-75 -273 -203 -273zM269 507c-104 0 -169 -58 -169 -244s65 -244 169 -244s169 58 169 244s-65 244 -169 244zM383 643h-214c-2 5 -3 9 -3 15s1 10 3 15h214c2 -4 3 -8 3 -14s-1 -11 -3 -16z" />
    <glyph glyph-name="one" unicode="1" horiz-adv-x="387" 
d="M41 518c83 22 159 78 207 159c0 0 4 3 15 3s15 -3 15 -3v-674s-4 -3 -17 -3s-16 3 -16 3v479c0 62 2 110 4 141c-47 -70 -124 -114 -199 -134c-7 6 -11 18 -9 29z" />
    <glyph glyph-name="one.denom" horiz-adv-x="240" 
d="M33 268c46 12 93 45 118 73c2 1 7 2 12 2s10 -1 11 -2v-339c-2 -1 -7 -2 -12 -2s-9 1 -11 2v266c0 16 0 29 1 41c-30 -27 -68 -49 -114 -61c-5 4 -7 13 -5 20z" />
    <glyph glyph-name="one.num" horiz-adv-x="256" 
d="M33 614c46 12 93 45 118 73c2 1 7 2 12 2s10 -1 11 -2v-339c-2 -1 -7 -2 -11 -2s-8 0 -12 2v266c0 16 0 29 1 41c-30 -27 -68 -49 -114 -61c-5 4 -7 13 -5 20z" />
    <glyph glyph-name="oneeighth" unicode="&#x215b;" horiz-adv-x="703" 
d="M531 348c65 0 104 -29 104 -82c0 -46 -28 -75 -60 -93c39 -18 72 -41 72 -88c0 -56 -43 -90 -115 -90c-68 0 -117 30 -117 90c0 53 36 85 70 104c-33 17 -58 39 -58 79c0 47 34 80 104 80zM119 -8l389 707s4 3 13 3s12 -3 12 -3l-388 -707s-4 -2 -13 -2s-13 2 -13 2z
M42 614c46 12 93 45 118 73c2 1 7 2 12 2s10 -1 11 -2v-339c-2 -1 -7 -2 -11 -2s-8 0 -12 2v266c0 16 0 29 1 41c-30 -27 -68 -49 -114 -61c-5 4 -7 13 -5 20zM533 16c50 0 90 22 90 67c0 56 -63 72 -117 96c-22 -12 -67 -42 -67 -93c0 -49 35 -70 94 -70zM530 327
c-50 0 -79 -22 -79 -57c0 -51 52 -67 103 -88c33 21 57 47 57 83c0 40 -29 62 -81 62z" />
    <glyph glyph-name="onehalf" unicode="&#xbd;" horiz-adv-x="701" 
d="M113 -8l389 707s4 3 13 3s12 -3 12 -3l-388 -707s-4 -2 -13 -2s-13 2 -13 2zM43 614c46 12 93 45 118 73c2 1 7 2 12 2s10 -1 11 -2v-339c-2 -1 -7 -2 -11 -2s-8 0 -12 2v266c0 16 0 29 1 41c-30 -27 -68 -49 -114 -61c-5 4 -7 13 -5 20zM425 41c0 136 193 108 193 215
c0 35 -19 70 -90 70c-38 0 -75 -10 -75 -10c-4 6 -6 13 -5 20c0 0 33 12 83 12c83 0 111 -40 111 -90c0 -134 -210 -96 -193 -235h191c2 -3 3 -8 3 -12s-1 -8 -3 -11h-211s-4 18 -4 41z" />
    <glyph glyph-name="oneinferior" unicode="&#x2081;" horiz-adv-x="240" 
d="M33 172c46 12 93 45 118 73c2 1 7 2 12 2s10 -1 11 -2v-339c-2 -1 -7 -2 -11 -2s-8 0 -12 2v266c0 16 0 29 1 41c-30 -27 -68 -49 -114 -61c-5 4 -7 13 -5 20z" />
    <glyph glyph-name="onequarter" unicode="&#xbc;" horiz-adv-x="640" 
d="M113 -8l389 707s4 3 13 3s12 -3 12 -3l-388 -707s-4 -2 -13 -2s-13 2 -13 2zM43 614c46 12 93 45 118 73c2 1 7 2 12 2s10 -1 11 -2v-339c-2 -1 -7 -2 -11 -2s-8 0 -12 2v266c0 16 0 29 1 41c-30 -27 -68 -49 -114 -61c-5 4 -7 13 -5 20zM544 120h43s2 -4 2 -11
c0 -8 -2 -12 -2 -12h-43v-95s-3 -2 -11 -2s-12 2 -12 2v95h-184s-2 2 -2 7s2 8 2 8l183 229s3 2 12 2c8 0 12 -2 12 -2v-221zM371 120h150v187z" />
    <glyph glyph-name="onesuperior" unicode="&#xb9;" horiz-adv-x="240" 
d="M33 614c46 12 93 45 118 73c2 1 7 2 12 2s10 -1 11 -2v-339c-2 -1 -7 -2 -11 -2s-8 0 -12 2v266c0 16 0 29 1 41c-30 -27 -68 -49 -114 -61c-5 4 -7 13 -5 20z" />
    <glyph glyph-name="onethird" unicode="&#x2153;" horiz-adv-x="704" 
d="M119 -8l389 707s4 3 13 3s12 -3 12 -3l-388 -707s-4 -2 -13 -2s-13 2 -13 2zM647 92c0 -52 -28 -97 -130 -97c-49 0 -85 13 -85 13c-1 7 1 14 6 18c0 0 35 -10 78 -10c92 0 107 38 107 76c0 55 -39 77 -89 77h-43c-3 6 -3 16 0 22h43c50 0 77 26 77 68
c0 44 -30 67 -84 67c-47 0 -81 -9 -81 -9c-4 5 -6 12 -5 19c0 0 35 12 86 12c72 0 108 -32 108 -88c0 -39 -14 -63 -48 -79c36 -14 60 -35 60 -89zM42 614c46 12 93 45 118 73c2 1 7 2 12 2s10 -1 11 -2v-339c-2 -1 -7 -2 -11 -2s-8 0 -12 2v266c0 16 0 29 1 41
c-30 -27 -68 -49 -114 -61c-5 4 -7 13 -5 20z" />
    <glyph glyph-name="ordfeminine" unicode="&#xaa;" horiz-adv-x="360" 
d="M158 296c-56 0 -95 35 -95 93c0 57 35 93 112 93c41 0 76 -4 91 -6v46c0 63 -28 86 -82 86c-48 0 -89 -16 -89 -16c-5 4 -8 14 -7 20c0 0 47 18 99 18c71 0 102 -36 102 -102v-223s-3 -2 -9 -2c-7 0 -10 2 -10 2l-4 47c-20 -36 -59 -56 -108 -56zM286 223h-220
s-2 4 -2 11c0 6 2 10 2 10h220c1 -2 2 -6 2 -10c0 -7 -2 -11 -2 -11zM87 389c0 -49 28 -71 73 -71c59 0 104 37 106 105v33c-15 1 -52 5 -87 5c-64 0 -92 -23 -92 -72z" />
    <glyph glyph-name="ordmasculine" unicode="&#xba;" horiz-adv-x="379" 
d="M189 295c-86 0 -125 51 -125 168c0 115 39 167 125 167c85 0 126 -50 126 -167s-41 -168 -126 -168zM189 608c-73 0 -101 -44 -101 -145c0 -103 28 -146 101 -146c72 0 102 43 102 146c0 101 -30 145 -102 145zM302 223h-226s-2 4 -2 11c0 6 2 10 2 10h226s2 -3 2 -10
s-2 -11 -2 -11z" />
    <glyph glyph-name="oslash" unicode="&#xf8;" horiz-adv-x="537" 
d="M462 565l-48 -86c38 -43 58 -113 58 -216c0 -198 -75 -273 -203 -273c-43 0 -80 9 -111 28l-35 -64s-4 -3 -19 -3c-13 0 -17 3 -17 3l46 83c-43 42 -67 115 -67 226c0 198 75 273 203 273c49 0 89 -11 122 -35l35 64s4 3 19 3c13 0 17 -3 17 -3zM269 507
c-104 0 -169 -58 -169 -244c0 -97 18 -159 49 -197l226 407c-28 24 -64 34 -106 34zM173 45c26 -19 59 -26 96 -26c104 0 169 58 169 244c0 88 -15 147 -41 185z" />
    <glyph glyph-name="oslashacute" unicode="&#x1ff;" horiz-adv-x="537" 
d="M356 757l-125 -147c-12 1 -20 6 -24 14l117 150c14 0 25 -6 32 -17zM464 569l-50 -90c38 -43 58 -113 58 -216c0 -198 -75 -273 -203 -273c-43 0 -81 9 -111 28l-33 -60s-4 -3 -19 -3c-13 0 -17 3 -17 3l44 79c-43 42 -67 115 -67 226c0 198 75 273 203 273
c48 0 89 -11 121 -35l38 68s4 3 19 3c13 0 17 -3 17 -3zM269 507c-104 0 -169 -58 -169 -244c0 -97 18 -159 49 -196l226 406c-28 24 -64 34 -106 34zM173 45c26 -18 59 -26 96 -26c104 0 169 58 169 244c0 88 -15 147 -41 185z" />
    <glyph glyph-name="otilde" unicode="&#xf5;" horiz-adv-x="538" 
d="M269 -10c-128 0 -203 75 -203 273s75 273 203 273s203 -75 203 -273s-75 -273 -203 -273zM269 507c-104 0 -169 -58 -169 -244s65 -244 169 -244s169 58 169 244s-65 244 -169 244zM329 660c28 0 39 29 39 29c10 1 20 -2 26 -11c0 0 -19 -47 -70 -47
c-48 0 -69 36 -107 36c-28 0 -39 -30 -39 -30c-11 -1 -22 4 -26 11c0 0 19 48 70 48c48 0 69 -36 107 -36z" />
    <glyph glyph-name="p" unicode="p" horiz-adv-x="554" 
d="M123 87v-334s-4 -3 -16 -3s-16 3 -16 3v770s4 3 16 3s16 -3 16 -3v-84c30 59 81 97 167 97c122 0 197 -69 197 -273s-75 -273 -197 -273c-86 0 -137 38 -167 97zM123 200c0 -83 53 -180 159 -180c123 0 171 72 171 243s-48 243 -171 243c-104 0 -157 -93 -159 -174v-132z
" />
    <glyph glyph-name="paragraph" unicode="&#xb6;" horiz-adv-x="433" 
d="M324 696v-920s-4 -3 -15 -3s-15 3 -15 3v920s4 3 15 3s15 -3 15 -3zM136 -224v742c-59 2 -87 46 -87 91c1 45 31 90 90 90h27v-923s-4 -3 -15 -3c-12 0 -15 3 -15 3z" />
    <glyph glyph-name="parenleft" unicode="(" horiz-adv-x="283" 
d="M235 807c8 -5 10 -11 10 -11s-144 -187 -144 -476s144 -476 144 -476s-2 -6 -10 -11s-14 -4 -14 -4s-154 200 -154 491s154 491 154 491s6 1 14 -4z" />
    <glyph glyph-name="parenright" unicode=")" horiz-adv-x="283" 
d="M182 320c0 289 -144 476 -144 476s2 6 10 11s14 4 14 4s154 -200 154 -491s-154 -491 -154 -491s-6 -1 -14 4s-10 11 -10 11s144 187 144 476z" />
    <glyph glyph-name="partialdiff" unicode="&#x2202;" horiz-adv-x="553" 
d="M443 412c-27 151 -128 279 -299 311c-2 10 0 20 7 27c199 -39 332 -188 332 -443c0 -241 -78 -317 -212 -317c-126 0 -205 75 -205 262s79 262 196 262c91 0 151 -41 181 -102zM271 19c101 0 173 57 173 233c0 179 -76 232 -181 232c-101 0 -163 -56 -163 -232
s70 -233 171 -233z" />
    <glyph glyph-name="percent" unicode="%" horiz-adv-x="743" 
d="M183 345c-79 0 -127 48 -127 173c0 123 48 173 127 173c78 0 128 -48 128 -173s-50 -173 -128 -173zM183 661c-56 0 -92 -36 -92 -143c0 -108 36 -142 92 -142s92 34 92 142c0 106 -37 143 -92 143zM587 699l-389 -706s-7 -3 -21 -3c-11 0 -18 3 -18 3l389 706s6 3 20 3
c13 0 19 -3 19 -3zM560 -10c-79 0 -127 48 -127 173c0 123 48 173 127 173c78 0 128 -48 128 -173s-50 -173 -128 -173zM560 306c-56 0 -92 -36 -92 -143c0 -108 36 -142 92 -142s92 34 92 142c0 106 -37 143 -92 143z" />
    <glyph glyph-name="period" unicode="." horiz-adv-x="198" 
d="M123 45v-42s-8 -3 -24 -3s-24 3 -24 3v42s8 3 24 3s24 -3 24 -3z" />
    <glyph glyph-name="periodcentered" unicode="&#xb7;" horiz-adv-x="216" 
d="M132 305v-42s-8 -3 -24 -3s-24 3 -24 3v42s8 3 24 3s24 -3 24 -3z" />
    <glyph glyph-name="perthousand" unicode="&#x2030;" horiz-adv-x="1062" 
d="M183 345c-79 0 -127 48 -127 173c0 123 48 173 127 173c78 0 128 -48 128 -173s-50 -173 -128 -173zM183 661c-56 0 -92 -36 -92 -143c0 -108 36 -142 92 -142s92 34 92 142c0 106 -37 143 -92 143zM587 699l-389 -706s-7 -3 -21 -3c-11 0 -18 3 -18 3l389 706s6 3 20 3
c13 0 19 -3 19 -3zM560 -10c-79 0 -127 48 -127 173c0 123 48 173 127 173c78 0 128 -48 128 -173s-50 -173 -128 -173zM560 306c-56 0 -92 -36 -92 -143c0 -108 36 -142 92 -142s92 34 92 142c0 106 -37 143 -92 143zM880 -10c-79 0 -127 48 -127 173c0 123 48 173 127 173
c78 0 128 -48 128 -173s-50 -173 -128 -173zM880 306c-56 0 -92 -36 -92 -143c0 -108 36 -142 92 -142s92 34 92 142c0 106 -37 143 -92 143z" />
    <glyph glyph-name="pi" unicode="&#x3c0;" horiz-adv-x="597" 
d="M447 236v260h-303v-493s-4 -3 -16 -3s-16 3 -16 3v493c-43 -2 -71 -9 -71 -9c-2 4 -3 10 -3 16c0 5 1 10 3 13c0 0 34 10 131 10h382c2 -4 3 -10 3 -15s-1 -11 -3 -15h-74v-260c0 -176 37 -226 37 -226c-4 -6 -14 -10 -25 -10c-3 0 -6 0 -9 1c0 0 -36 58 -36 235z" />
    <glyph glyph-name="plus" unicode="+" horiz-adv-x="466" 
d="M218 125v150h-150s-3 4 -3 15s3 15 3 15h150v150s4 3 15 3s15 -3 15 -3v-150h150s3 -4 3 -15s-3 -15 -3 -15h-150v-150s-4 -3 -15 -3s-15 3 -15 3z" />
    <glyph glyph-name="plusminus" unicode="&#xb1;" horiz-adv-x="512" 
d="M241 267v120h-150s-3 4 -3 15s3 15 3 15h150v120s4 3 15 3s15 -3 15 -3v-120h150s3 -4 3 -15s-3 -15 -3 -15h-150v-120s-4 -3 -15 -3s-15 3 -15 3zM421 149h-330s-3 4 -3 15s3 15 3 15h330s3 -4 3 -15s-3 -15 -3 -15z" />
    <glyph glyph-name="product" unicode="&#x220f;" horiz-adv-x="705" 
d="M596 693v-897s-4 -3 -18 -3c-12 0 -16 3 -16 3v865h-419v-865s-4 -3 -18 -3c-12 0 -16 3 -16 3v897h487z" />
    <glyph glyph-name="q" unicode="q" horiz-adv-x="554" 
d="M431 -247v334c-30 -59 -82 -97 -167 -97c-122 0 -197 69 -197 273s75 273 197 273c85 0 137 -38 167 -97v84s4 3 16 3s16 -3 16 -3v-770s-4 -3 -16 -3s-16 3 -16 3zM101 263c0 -171 48 -243 171 -243c103 0 156 92 159 174v138c-3 81 -56 174 -159 174
c-123 0 -171 -72 -171 -243z" />
    <glyph glyph-name="question" unicode="?" horiz-adv-x="430" 
d="M375 535c0 -200 -191 -172 -191 -382c0 0 -5 -4 -15 -4c-9 0 -14 4 -14 4c0 232 185 198 185 380c0 67 -37 126 -146 126c-85 0 -138 -25 -138 -25c-8 5 -12 16 -11 25c0 0 60 31 152 31c128 0 178 -74 178 -155zM194 45v-42s-8 -3 -24 -3s-24 3 -24 3v42s8 3 24 3
s24 -3 24 -3z" />
    <glyph glyph-name="questiondown" unicode="&#xbf;" horiz-adv-x="420" 
d="M52 -15c0 200 191 172 191 382c0 0 5 4 15 4c9 0 14 -4 14 -4c0 -232 -185 -198 -185 -380c0 -67 37 -126 146 -126c85 0 138 25 138 25c8 -5 12 -16 11 -25c0 0 -60 -31 -152 -31c-128 0 -178 74 -178 155zM233 475v42s8 3 24 3s24 -3 24 -3v-42s-8 -3 -24 -3
s-24 3 -24 3z" />
    <glyph glyph-name="quotedbl" unicode="&#x22;" horiz-adv-x="294" 
d="M85 526l-7 191s6 3 17 3c12 0 17 -3 17 -3l-7 -191s-3 -2 -10 -2s-10 2 -10 2zM189 526l-7 191s5 3 17 3s17 -3 17 -3l-7 -191s-3 -2 -10 -2s-10 2 -10 2z" />
    <glyph glyph-name="quotedblbase" unicode="&#x201e;" horiz-adv-x="301" 
d="M76 -94l-16 12s28 28 33 82c-12 0 -18 3 -18 3v42s8 3 24 3s24 -3 24 -3v-32c0 -70 -47 -107 -47 -107zM179 -94l-16 12s28 28 33 82c-12 0 -18 3 -18 3v42s8 3 24 3s24 -3 24 -3v-32c0 -70 -47 -107 -47 -107z" />
    <glyph glyph-name="quotedblleft" unicode="&#x201c;" horiz-adv-x="303" 
d="M121 720l16 -12s-29 -28 -34 -82c12 -1 19 -3 19 -3v-42s-8 -3 -24 -3s-24 3 -24 3v32c0 70 47 107 47 107zM221 720l16 -12s-29 -28 -34 -82c12 -1 19 -3 19 -3v-42s-8 -3 -24 -3s-24 3 -24 3v32c0 70 47 107 47 107z" />
    <glyph glyph-name="quotedblright" unicode="&#x201d;" horiz-adv-x="299" 
d="M86 578l-16 12s28 28 33 82c-12 0 -18 3 -18 3v42s8 3 24 3s24 -3 24 -3v-32c0 -70 -47 -107 -47 -107zM186 578l-16 12s28 28 33 82c-12 0 -18 3 -18 3v42s8 3 24 3s24 -3 24 -3v-32c0 -70 -47 -107 -47 -107z" />
    <glyph glyph-name="quoteleft" unicode="&#x2018;" horiz-adv-x="203" 
d="M121 720l16 -12s-29 -28 -34 -82c12 -1 19 -3 19 -3v-42s-8 -3 -24 -3s-24 3 -24 3v32c0 70 47 107 47 107z" />
    <glyph glyph-name="quoteright" unicode="&#x2019;" horiz-adv-x="199" 
d="M86 578l-16 12s28 28 33 82c-12 0 -18 3 -18 3v42s8 3 24 3s24 -3 24 -3v-32c0 -70 -47 -107 -47 -107z" />
    <glyph glyph-name="quotesinglbase" unicode="&#x201a;" horiz-adv-x="198" 
d="M76 -94l-16 12s28 28 33 82c-12 0 -18 3 -18 3v42s8 3 24 3s24 -3 24 -3v-32c0 -70 -47 -107 -47 -107z" />
    <glyph glyph-name="quotesingle" unicode="'" horiz-adv-x="190" 
d="M85 526l-7 191s5 3 17 3s17 -3 17 -3l-7 -191s-3 -2 -10 -2s-10 2 -10 2z" />
    <glyph glyph-name="r" unicode="r" horiz-adv-x="386" 
d="M123 423c53 94 110 112 153 112c52 0 83 -22 83 -22c-1 -11 -7 -22 -17 -27c-24 12 -43 18 -75 18c-57 0 -105 -60 -144 -136v-365s-4 -3 -16 -3s-16 3 -16 3v520s4 3 16 3s16 -3 16 -3v-100z" />
    <glyph glyph-name="racute" unicode="&#x155;" horiz-adv-x="385" 
d="M123 423c53 94 110 112 153 112c52 0 83 -22 83 -22c-1 -11 -7 -22 -17 -27c-24 12 -43 18 -75 18c-57 0 -105 -60 -144 -136v-365s-4 -3 -16 -3s-16 3 -16 3v520s4 3 16 3s16 -3 16 -3v-100zM298 757l-125 -147c-12 1 -20 6 -24 14l117 150c14 0 25 -6 32 -17z" />
    <glyph glyph-name="radical" unicode="&#x221a;" horiz-adv-x="625" 
d="M595 722l-245 -737h-33l-157 387l-110 -47c-8 5 -13 17 -12 29l140 60l155 -382l233 698c11 2 23 -1 29 -8z" />
    <glyph glyph-name="rcaron" unicode="&#x159;" horiz-adv-x="385" 
d="M123 423c53 94 110 112 153 112c52 0 83 -22 83 -22c-1 -11 -7 -22 -17 -27c-24 12 -43 18 -75 18c-57 0 -105 -60 -144 -136v-365s-4 -3 -16 -3s-16 3 -16 3v520s4 3 16 3s16 -3 16 -3v-100zM214 602h-23l-114 93c2 11 6 16 15 20l111 -84l109 83c9 -2 13 -9 15 -19z
" />
    <glyph glyph-name="rcommaaccent" unicode="&#x157;" horiz-adv-x="385" 
d="M123 423c53 94 110 112 153 112c52 0 83 -22 83 -22c-1 -11 -7 -22 -17 -27c-24 12 -43 18 -75 18c-57 0 -105 -60 -144 -136v-365s-4 -3 -16 -3s-16 3 -16 3v520s4 3 16 3s16 -3 16 -3v-100zM84 -182l-16 12s28 28 33 82c-12 0 -18 3 -18 3v42s8 3 24 3s24 -3 24 -3v-32
c0 -70 -47 -107 -47 -107z" />
    <glyph glyph-name="registered" unicode="&#xae;" horiz-adv-x="542" 
d="M271 266c-113 0 -205 92 -205 205s92 205 205 205s205 -92 205 -205s-92 -205 -205 -205zM271 659c-103 0 -187 -84 -187 -188s84 -188 187 -188c104 0 187 84 187 188s-83 188 -187 188zM288 589c48 0 70 -23 70 -65c0 -30 -11 -50 -44 -60l58 -100s-3 -3 -10 -3
s-11 2 -11 2l-57 99h-74v-99s-3 -2 -9 -2s-9 2 -9 2v226h86zM220 572v-93h69c37 0 50 16 50 45c0 32 -13 48 -50 48h-69z" />
    <glyph glyph-name="ring" unicode="&#x2da;" horiz-adv-x="344" 
d="M170 509c-63 0 -111 38 -111 106s55 104 112 104c56 0 113 -35 113 -104c0 -68 -52 -106 -114 -106zM252 615c0 39 -27 75 -82 75c-54 0 -79 -37 -79 -75c0 -39 25 -77 79 -77c55 0 82 39 82 77z" />
    <glyph glyph-name="s" unicode="s" horiz-adv-x="441" 
d="M62 392c0 85 57 144 173 144c75 0 126 -22 126 -22c1 -9 -4 -21 -11 -26c0 0 -50 18 -112 18c-93 0 -142 -40 -142 -113c0 -66 60 -90 123 -107c78 -22 168 -42 168 -151c0 -89 -58 -145 -174 -145c-94 0 -151 31 -151 31c-1 9 3 20 10 25c0 0 65 -26 138 -26
c79 0 142 33 142 113c0 84 -70 100 -141 120c-72 20 -149 49 -149 139z" />
    <glyph glyph-name="sacute" unicode="&#x15b;" horiz-adv-x="441" 
d="M62 392c0 85 57 144 173 144c75 0 126 -22 126 -22c1 -9 -4 -21 -11 -26c0 0 -50 18 -112 18c-93 0 -142 -40 -142 -113c0 -66 60 -90 123 -107c78 -22 168 -42 168 -151c0 -89 -58 -145 -174 -145c-94 0 -151 31 -151 31c-1 9 3 20 10 25c0 0 65 -26 138 -26
c79 0 142 33 142 113c0 84 -70 100 -141 120c-72 20 -149 49 -149 139zM306 757l-125 -147c-12 1 -20 6 -24 14l117 150c14 0 25 -6 32 -17z" />
    <glyph glyph-name="scaron" unicode="&#x161;" horiz-adv-x="443" 
d="M63 392c0 85 57 144 173 144c75 0 126 -22 126 -22c1 -9 -4 -21 -11 -26c0 0 -50 18 -112 18c-93 0 -142 -40 -142 -113c0 -66 60 -90 123 -107c78 -22 168 -42 168 -151c0 -89 -58 -145 -174 -145c-94 0 -151 31 -151 31c-1 9 3 20 10 25c0 0 65 -26 138 -26
c79 0 142 33 142 113c0 84 -70 100 -141 120c-72 20 -149 49 -149 139zM248 602h-24l-112 91c2 10 6 16 16 19l109 -82l108 81c8 -2 12 -9 14 -18z" />
    <glyph glyph-name="scedilla" unicode="&#x15f;" horiz-adv-x="441" 
d="M219 286c78 -22 168 -42 168 -151c0 -87 -55 -142 -166 -145l-8 -54c76 0 110 -28 110 -80c0 -58 -37 -87 -109 -87c-49 0 -85 22 -85 22c1 10 5 17 11 22c0 0 32 -18 75 -18c49 0 76 19 76 61c0 37 -25 53 -71 53h-31l-6 8l11 73c-83 4 -132 31 -132 31c-1 9 3 20 10 25
c0 0 65 -26 138 -26c79 0 142 33 142 113c0 84 -70 100 -141 120c-72 20 -149 49 -149 139c0 85 57 144 173 144c75 0 126 -22 126 -22c1 -9 -4 -21 -11 -26c0 0 -50 18 -112 18c-93 0 -142 -40 -142 -113c0 -66 60 -90 123 -107z" />
    <glyph glyph-name="scircumflex" unicode="&#x15d;" horiz-adv-x="441" 
d="M62 392c0 85 57 144 173 144c75 0 126 -22 126 -22c1 -9 -4 -21 -11 -26c0 0 -50 18 -112 18c-93 0 -142 -40 -142 -113c0 -66 60 -90 123 -107c78 -22 168 -42 168 -151c0 -89 -58 -145 -174 -145c-94 0 -151 31 -151 31c-1 9 3 20 10 25c0 0 65 -26 138 -26
c79 0 142 33 142 113c0 84 -70 100 -141 120c-72 20 -149 49 -149 139zM216 721h25l121 -99c-2 -9 -7 -17 -16 -19l-118 88l-117 -89c-10 4 -14 10 -16 20z" />
    <glyph glyph-name="scommaaccent" unicode="&#x219;" horiz-adv-x="443" 
d="M63 392c0 85 57 144 173 144c75 0 126 -22 126 -22c1 -9 -4 -21 -11 -26c0 0 -50 18 -112 18c-93 0 -142 -40 -142 -113c0 -66 60 -90 123 -107c78 -22 168 -42 168 -151c0 -89 -58 -145 -174 -145c-94 0 -151 31 -151 31c-1 9 3 20 10 25c0 0 65 -26 138 -26
c79 0 142 33 142 113c0 84 -70 100 -141 120c-72 20 -149 49 -149 139zM199 -202l-16 12s28 28 33 82c-12 0 -18 3 -18 3v42s8 3 24 3s24 -3 24 -3v-32c0 -70 -47 -107 -47 -107z" />
    <glyph glyph-name="section" unicode="&#xa7;" horiz-adv-x="484" 
d="M378 117c0 121 -303 74 -303 230c0 68 57 106 86 121c-43 20 -76 50 -76 104c0 79 59 118 161 118c81 0 134 -21 134 -21c2 -10 -2 -22 -9 -27c0 0 -60 18 -116 18c-106 0 -135 -36 -135 -87c0 -125 287 -81 287 -232c0 -68 -53 -105 -78 -119c47 -20 84 -49 84 -105
c0 -99 -80 -127 -185 -127c-88 0 -151 24 -151 24c-1 11 2 22 9 29c0 0 72 -20 134 -20c110 0 158 28 158 94zM193 455c-30 -15 -83 -50 -83 -104c0 -78 99 -90 184 -117c25 13 78 46 78 103c0 74 -98 88 -179 118z" />
    <glyph glyph-name="semicolon" unicode=";" horiz-adv-x="236" 
d="M98 -94l-16 12s28 28 33 82c-12 0 -18 3 -18 3v42s8 3 24 3s24 -3 24 -3v-32c0 -70 -47 -107 -47 -107zM145 440v-42s-8 -3 -24 -3s-24 3 -24 3v42s8 3 24 3s24 -3 24 -3z" />
    <glyph glyph-name="seven" unicode="7" horiz-adv-x="495" 
d="M446 680c1 0 3 -6 3 -20c0 -256 -258 -304 -258 -657c0 0 -5 -3 -16 -3s-18 3 -18 3c0 356 244 414 258 645h-373s-3 5 -3 16s3 16 3 16h404z" />
    <glyph glyph-name="seven.denom" horiz-adv-x="273" 
d="M216 320h-181s-3 3 -3 11s3 12 3 12h204s2 -7 2 -20c0 -144 -129 -145 -129 -321c-3 -1 -7 -2 -13 -2s-10 1 -12 2c0 184 129 193 129 318z" />
    <glyph glyph-name="seven.num" horiz-adv-x="273" 
d="M216 666h-181c-4 6 -4 17 0 23h204s2 -7 2 -20c0 -144 -129 -145 -129 -321c-3 -1 -7 -2 -13 -2s-10 1 -12 2c0 184 129 193 129 318z" />
    <glyph glyph-name="seveneighths" unicode="&#x215e;" horiz-adv-x="657" 
d="M486 348c65 0 104 -29 104 -82c0 -46 -28 -75 -60 -93c39 -18 72 -41 72 -88c0 -56 -43 -90 -115 -90c-68 0 -117 30 -117 90c0 53 36 85 70 104c-33 17 -58 39 -58 79c0 47 34 80 104 80zM74 -8l389 707s4 3 13 3s12 -3 12 -3l-388 -707s-4 -2 -13 -2s-13 2 -13 2z
M238 666h-181c-4 6 -4 17 0 23h204s2 -7 2 -20c0 -144 -129 -145 -129 -321c-3 -1 -7 -2 -13 -2s-10 1 -12 2c0 183 129 193 129 318zM488 16c50 0 90 22 90 67c0 56 -63 72 -117 96c-22 -12 -67 -42 -67 -93c0 -49 35 -70 94 -70zM485 327c-50 0 -79 -22 -79 -57
c0 -51 52 -67 103 -88c33 21 57 47 57 83c0 40 -29 62 -81 62z" />
    <glyph glyph-name="seveninferior" unicode="&#x2087;" horiz-adv-x="272" 
d="M215 224h-181c-4 6 -4 17 0 23h204s2 -7 2 -20c0 -144 -129 -145 -129 -321c-3 -1 -7 -2 -13 -2s-10 1 -12 2c0 184 129 193 129 318z" />
    <glyph glyph-name="six" unicode="6" horiz-adv-x="552" 
d="M426 666c0 -5 -1 -10 -3 -14c-161 -16 -276 -97 -307 -289c33 21 95 53 177 53c113 0 200 -61 200 -213c0 -138 -88 -213 -210 -213c-121 0 -210 80 -210 267c0 280 144 409 349 423c2 -3 4 -8 4 -14zM458 203c0 125 -69 183 -167 183c-87 0 -156 -46 -180 -63
c-2 -22 -3 -46 -3 -70c0 -162 74 -233 175 -233s175 61 175 183z" />
    <glyph glyph-name="six.denom" horiz-adv-x="306" 
d="M69 172c15 10 47 27 95 27c67 0 105 -40 105 -99c0 -72 -54 -105 -109 -105c-75 0 -116 52 -116 151c0 101 56 187 185 200c4 -5 5 -14 2 -20c-98 -14 -155 -69 -162 -154zM68 145c1 -86 32 -129 92 -129c50 0 84 32 84 84c0 43 -29 77 -82 77c-56 0 -85 -23 -94 -32z
" />
    <glyph glyph-name="six.num" horiz-adv-x="306" 
d="M69 520c15 10 47 27 95 27c67 0 105 -40 105 -99c0 -72 -54 -105 -109 -105c-75 0 -116 52 -116 151c0 101 56 187 185 200c4 -5 5 -14 2 -20c-98 -14 -155 -69 -162 -154zM68 493c1 -86 32 -129 92 -129c50 0 84 32 84 84c0 43 -29 77 -82 77c-56 0 -85 -23 -94 -32z
" />
    <glyph glyph-name="sixinferior" unicode="&#x2086;" horiz-adv-x="306" 
d="M69 76c15 10 47 27 95 27c67 0 105 -40 105 -99c0 -72 -54 -105 -109 -105c-75 0 -116 52 -116 151c0 101 56 187 185 200c4 -5 5 -14 2 -20c-98 -14 -155 -69 -162 -154zM68 49c1 -85 32 -129 92 -129c50 0 84 32 84 84c0 43 -29 77 -82 77c-56 0 -85 -23 -94 -32z" />
    <glyph glyph-name="slash" unicode="/" horiz-adv-x="425" 
d="M25 -44l339 791s6 3 18 3c13 0 18 -3 18 -3l-339 -791s-7 -3 -20 -3c-11 0 -16 3 -16 3z" />
    <glyph glyph-name="space" unicode=" " horiz-adv-x="257" 
 />
    <glyph glyph-name="sterling" unicode="&#xa3;" horiz-adv-x="512" 
d="M379 321h-190c28 -91 39 -189 -63 -289h320c3 -4 4 -10 4 -16s-1 -12 -4 -16h-370v32c117 102 103 195 73 289h-83c-2 4 -4 10 -4 16s1 12 4 16h73c-19 53 -38 107 -38 163c0 122 80 175 199 175c83 0 147 -25 147 -25c1 -10 -3 -22 -12 -27c0 0 -59 21 -134 21
c-107 0 -164 -50 -164 -147c0 -51 22 -104 41 -160h201c2 -4 4 -9 4 -15s-1 -12 -4 -17z" />
    <glyph glyph-name="summation" unicode="&#x2211;" horiz-adv-x="569" 
d="M521 -207h-480v21l227 447l-210 417v16h457s3 -5 3 -16s-3 -16 -3 -16h-411l202 -401l-220 -436h435s3 -5 3 -16s-3 -16 -3 -16z" />
    <glyph glyph-name="t" unicode="t" horiz-adv-x="351" 
d="M311 496h-161v-324c0 -103 24 -152 114 -152c32 0 59 6 59 6s4 -5 4 -15s-2 -13 -2 -13s-27 -8 -67 -8c-110 0 -140 67 -140 182v324h-81s-3 4 -3 15s3 15 3 15h81v102c8 7 20 10 32 9v-111h161s4 -4 4 -15s-4 -15 -4 -15z" />
    <glyph glyph-name="tbar" unicode="&#x167;" horiz-adv-x="354" 
d="M266 20c32 0 59 6 59 6s4 -5 4 -15s-2 -13 -2 -13s-27 -8 -67 -8c-110 0 -140 67 -140 182v100h-68s-3 4 -3 12c0 9 3 13 3 13h68v199h-81s-3 4 -3 15s3 15 3 15h81v102c8 7 20 10 32 9v-111h161s4 -4 4 -15s-4 -15 -4 -15h-161v-199h125s3 -4 3 -13c0 -8 -3 -12 -3 -12
h-125v-100c0 -103 24 -152 114 -152z" />
    <glyph glyph-name="tcaron" unicode="&#x165;" horiz-adv-x="340" 
d="M286 561c-10 1 -16 6 -18 12c46 34 66 84 68 146c14 2 26 0 33 -6c-4 -56 -33 -123 -83 -152zM249 496h-99v-324c0 -103 24 -152 114 -152c32 0 59 6 59 6s4 -5 4 -15s-2 -13 -2 -13s-27 -8 -67 -8c-110 0 -140 67 -140 182v324h-81s-3 4 -3 15s3 15 3 15h81v102
c8 7 20 10 32 9v-111h99s4 -4 4 -15s-4 -15 -4 -15z" />
    <glyph glyph-name="tcommaaccent" unicode="&#x163;" horiz-adv-x="350" 
d="M310 496h-161v-324c0 -103 24 -152 114 -152c32 0 59 6 59 6s4 -5 4 -15s-2 -13 -2 -13s-27 -8 -67 -8c-110 0 -140 67 -140 182v324h-81s-3 4 -3 15s3 15 3 15h81v102c8 7 20 10 32 9v-111h161s4 -4 4 -15s-4 -15 -4 -15zM209 -212l-16 12s28 28 33 82
c-12 0 -18 3 -18 3v42s8 3 24 3s24 -3 24 -3v-32c0 -70 -47 -107 -47 -107z" />
    <glyph glyph-name="tcommaaccent" unicode="&#x21b;" horiz-adv-x="350" 
d="M310 496h-161v-324c0 -103 24 -152 114 -152c32 0 59 6 59 6s4 -5 4 -15s-2 -13 -2 -13s-27 -8 -67 -8c-110 0 -140 67 -140 182v324h-81s-3 4 -3 15s3 15 3 15h81v102c8 7 20 10 32 9v-111h161s4 -4 4 -15s-4 -15 -4 -15zM209 -212l-16 12s28 28 33 82
c-12 0 -18 3 -18 3v42s8 3 24 3s24 -3 24 -3v-32c0 -70 -47 -107 -47 -107z" />
    <glyph glyph-name="thorn" unicode="&#xfe;" horiz-adv-x="554" 
d="M123 87v-334s-4 -3 -16 -3s-16 3 -16 3v994s4 3 16 3s16 -3 16 -3v-308c30 59 81 97 167 97c122 0 197 -69 197 -273s-75 -273 -197 -273c-86 0 -137 38 -167 97zM123 200c0 -83 53 -180 159 -180c123 0 171 72 171 243s-48 243 -171 243c-104 0 -157 -93 -159 -174v-132
z" />
    <glyph glyph-name="three" unicode="3" horiz-adv-x="512" 
d="M440 170c0 -89 -56 -180 -223 -180c-97 0 -161 32 -161 32c0 8 4 21 10 25c29 -9 77 -26 149 -26c145 0 192 69 192 155c0 140 -108 166 -194 166h-45s-3 4 -3 15s3 15 3 15h45c76 0 175 19 175 150c0 84 -52 139 -165 139c-83 0 -145 -26 -145 -26c-8 4 -13 15 -12 24
c0 0 67 31 160 31c133 0 195 -70 195 -162c0 -82 -29 -144 -113 -171c96 -27 132 -94 132 -187z" />
    <glyph glyph-name="three.denom" horiz-adv-x="301" 
d="M257 92c0 -52 -28 -97 -130 -97c-49 0 -85 13 -85 13c-1 7 1 14 6 18c0 0 35 -10 78 -10c92 0 107 38 107 76c0 55 -39 77 -89 77h-43c-3 6 -3 16 0 22h43c50 0 77 26 77 68c0 44 -30 67 -84 67c-47 0 -81 -9 -81 -9c-4 5 -6 12 -5 19c0 0 35 12 86 12
c72 0 108 -32 108 -88c0 -39 -14 -63 -48 -79c36 -14 60 -35 60 -89z" />
    <glyph glyph-name="three.num" horiz-adv-x="301" 
d="M257 438c0 -52 -28 -97 -130 -97c-49 0 -85 13 -85 13c-1 7 1 14 6 18c0 0 35 -10 78 -10c92 0 107 38 107 76c0 55 -39 77 -89 77h-43c-3 6 -3 16 0 22h43c50 0 77 26 77 68c0 44 -30 67 -84 67c-47 0 -81 -9 -81 -9c-4 5 -6 12 -5 19c0 0 35 12 86 12
c72 0 108 -32 108 -88c0 -39 -14 -63 -48 -79c36 -14 60 -35 60 -89z" />
    <glyph glyph-name="threeeighths" unicode="&#x215c;" horiz-adv-x="750" 
d="M579 348c65 0 104 -29 104 -82c0 -46 -28 -75 -60 -93c39 -18 72 -41 72 -88c0 -56 -43 -90 -115 -90c-68 0 -117 30 -117 90c0 53 36 85 70 104c-33 17 -58 39 -58 79c0 47 34 80 104 80zM167 -8l389 707s4 3 13 3s12 -3 12 -3l-388 -707s-4 -2 -13 -2s-13 2 -13 2z
M275 438c0 -52 -28 -97 -130 -97c-49 0 -85 13 -85 13c-1 7 1 14 6 18c0 0 35 -10 78 -10c92 0 107 38 107 76c0 55 -39 77 -89 77h-43c-3 6 -3 16 0 22h43c50 0 77 26 77 68c0 44 -30 67 -84 67c-47 0 -81 -9 -81 -9c-4 5 -6 12 -5 19c0 0 35 12 86 12
c72 0 108 -32 108 -88c0 -39 -14 -63 -48 -79c36 -14 60 -35 60 -89zM581 16c50 0 90 22 90 67c0 56 -63 72 -117 96c-22 -12 -67 -42 -67 -93c0 -49 35 -70 94 -70zM578 327c-50 0 -79 -22 -79 -57c0 -51 52 -67 103 -88c33 21 57 47 57 83c0 40 -29 62 -81 62z" />
    <glyph glyph-name="threeinferior" unicode="&#x2083;" horiz-adv-x="301" 
d="M257 -4c0 -52 -28 -97 -130 -97c-49 0 -85 13 -85 13c-1 7 1 14 6 18c0 0 35 -10 78 -10c92 0 107 38 107 76c0 55 -39 77 -89 77h-43c-3 6 -3 16 0 22h43c50 0 77 26 77 68c0 44 -30 67 -84 67c-47 0 -81 -9 -81 -9c-4 5 -6 12 -5 19c0 0 35 12 86 12
c72 0 108 -32 108 -88c0 -39 -14 -63 -48 -79c36 -14 60 -35 60 -89z" />
    <glyph glyph-name="threequarters" unicode="&#xbe;" horiz-adv-x="698" 
d="M172 -8l389 707s4 3 13 3s12 -3 12 -3l-388 -707s-4 -2 -13 -2s-13 2 -13 2zM275 438c0 -52 -28 -97 -130 -97c-49 0 -85 13 -85 13c-1 7 1 14 6 18c0 0 35 -10 78 -10c92 0 107 38 107 76c0 55 -39 77 -89 77h-43c-3 6 -3 16 0 22h43c50 0 77 26 77 68
c0 44 -30 67 -84 67c-47 0 -81 -9 -81 -9c-4 5 -6 12 -5 19c0 0 35 12 86 12c72 0 108 -32 108 -88c0 -39 -14 -63 -48 -79c36 -14 60 -35 60 -89zM603 120h43s2 -4 2 -11c0 -8 -2 -12 -2 -12h-43v-95s-3 -2 -11 -2s-12 2 -12 2v95h-184s-2 2 -2 7s2 8 2 8l183 229s3 2 12 2
c8 0 12 -2 12 -2v-221zM430 120h150v187z" />
    <glyph glyph-name="threesuperior" unicode="&#xb3;" horiz-adv-x="301" 
d="M257 438c0 -52 -28 -97 -130 -97c-49 0 -85 13 -85 13c-1 7 1 14 6 18c0 0 35 -10 78 -10c92 0 107 38 107 76c0 55 -39 77 -89 77h-43c-3 6 -3 16 0 22h43c50 0 77 26 77 68c0 44 -30 67 -84 67c-47 0 -81 -9 -81 -9c-4 5 -6 12 -5 19c0 0 35 12 86 12
c72 0 108 -32 108 -88c0 -39 -14 -63 -48 -79c36 -14 60 -35 60 -89z" />
    <glyph glyph-name="tilde" unicode="&#x2dc;" horiz-adv-x="327" 
d="M232 646c28 0 39 29 39 29c10 1 20 -2 26 -11c0 0 -19 -47 -70 -47c-48 0 -69 36 -107 36c-28 0 -39 -30 -39 -30c-11 -1 -22 4 -26 11c0 0 19 48 70 48c48 0 69 -36 107 -36z" />
    <glyph glyph-name="trademark" unicode="&#x2122;" horiz-adv-x="636" 
d="M49 720h203c4 -6 4 -14 0 -21h-90v-264s-3 -3 -11 -3c-7 0 -10 3 -10 3v264h-92c-3 7 -4 15 0 21zM526 435v251l-91 -174s-3 -3 -11 -3s-11 3 -11 3l-87 174v-251s-3 -3 -9 -3s-9 3 -9 3v282s3 3 12 3s12 -3 12 -3l93 -185l96 185s3 3 12 3s12 -3 12 -3v-282s-3 -3 -9 -3
c-7 0 -10 3 -10 3z" />
    <glyph glyph-name="two" unicode="2" horiz-adv-x="528" 
d="M97 628c-8 6 -11 14 -10 26c0 0 71 36 182 36c106 0 193 -45 193 -169c0 -112 -72 -157 -191 -229c-72 -44 -177 -88 -177 -219c0 -25 2 -41 2 -41h353s3 -4 3 -16s-3 -16 -3 -16h-382s-6 32 -6 67c0 156 101 193 193 251c95 60 173 97 173 202c0 61 -24 140 -164 140
c-88 0 -166 -32 -166 -32z" />
    <glyph glyph-name="two.denom" horiz-adv-x="301" 
d="M38 41c0 136 193 108 193 215c0 35 -19 70 -90 70c-38 0 -75 -10 -75 -10c-4 6 -6 13 -5 20c0 0 33 12 83 12c83 0 111 -40 111 -90c0 -134 -210 -96 -193 -235h191c2 -3 3 -8 3 -12s-1 -8 -3 -11h-211s-4 18 -4 41z" />
    <glyph glyph-name="two.num" horiz-adv-x="301" 
d="M38 387c0 136 193 108 193 215c0 35 -19 70 -90 70c-38 0 -75 -10 -75 -10c-4 6 -6 13 -5 20c0 0 33 12 83 12c83 0 111 -40 111 -90c0 -134 -210 -96 -193 -235h191c2 -3 3 -8 3 -12s-1 -8 -3 -11h-211s-4 18 -4 41z" />
    <glyph glyph-name="twoinferior" unicode="&#x2082;" horiz-adv-x="301" 
d="M38 -55c0 136 193 108 193 215c0 35 -19 70 -90 70c-38 0 -75 -10 -75 -10c-4 6 -6 13 -5 20c0 0 33 12 83 12c83 0 111 -40 111 -90c0 -134 -210 -96 -193 -235h191c2 -3 3 -8 3 -12s-1 -8 -3 -11h-211s-4 18 -4 41z" />
    <glyph glyph-name="twosuperior" unicode="&#xb2;" horiz-adv-x="301" 
d="M38 387c0 136 193 108 193 215c0 35 -19 70 -90 70c-38 0 -75 -10 -75 -10c-4 6 -6 13 -5 20c0 0 33 12 83 12c83 0 111 -40 111 -90c0 -134 -210 -96 -193 -235h191c2 -3 3 -8 3 -12s-1 -8 -3 -11h-211s-4 18 -4 41z" />
    <glyph glyph-name="twothirds" unicode="&#x2154;" horiz-adv-x="768" 
d="M184 -8l389 707s4 3 13 3s12 -3 12 -3l-388 -707s-4 -2 -13 -2s-13 2 -13 2zM712 92c0 -52 -28 -97 -130 -97c-49 0 -85 13 -85 13c-1 7 1 14 6 18c0 0 35 -10 78 -10c92 0 107 38 107 76c0 55 -39 77 -89 77h-43c-3 6 -3 16 0 22h43c50 0 77 26 77 68
c0 44 -30 67 -84 67c-47 0 -81 -9 -81 -9c-4 5 -6 12 -5 19c0 0 35 12 86 12c72 0 108 -32 108 -88c0 -39 -14 -63 -48 -79c36 -14 60 -35 60 -89zM56 387c0 136 193 108 193 215c0 35 -19 70 -90 70c-38 0 -75 -10 -75 -10c-4 6 -6 13 -5 20c0 0 33 12 83 12
c83 0 111 -40 111 -90c0 -134 -210 -96 -193 -235h191c2 -3 3 -8 3 -12s-1 -8 -3 -11h-211s-4 18 -4 41z" />
    <glyph glyph-name="u" unicode="u" 
d="M87 138v385s5 3 16 3s16 -3 16 -3v-377c0 -88 45 -127 129 -127c69 0 142 48 177 131v373s5 3 16 3s16 -3 16 -3v-520s-5 -3 -16 -3s-16 3 -16 3v88c-42 -62 -106 -101 -187 -101c-94 0 -151 58 -151 148z" />
    <glyph glyph-name="uacute" unicode="&#xfa;" 
d="M87 138v385s5 3 16 3s16 -3 16 -3v-377c0 -88 45 -127 129 -127c69 0 142 48 177 131v373s5 3 16 3s16 -3 16 -3v-520s-5 -3 -16 -3s-16 3 -16 3v88c-42 -62 -106 -101 -187 -101c-94 0 -151 58 -151 148zM354 757l-125 -147c-12 1 -20 6 -24 14l117 150
c14 0 25 -6 32 -17z" />
    <glyph glyph-name="ubreve" unicode="&#x16d;" 
d="M87 523v-385c0 -90 57 -148 151 -148c81 0 145 39 187 101v-88s5 -3 16 -3s16 3 16 3v520s-5 3 -16 3s-16 -3 -16 -3v-373c-35 -83 -108 -131 -177 -131c-84 0 -129 39 -129 127v377s-5 3 -16 3s-16 -3 -16 -3zM403 688c0 0 -44 -54 -130 -54s-130 54 -130 54
c3 10 7 15 18 19c0 0 45 -43 112 -43s112 43 112 43c12 -3 16 -8 18 -19z" />
    <glyph glyph-name="ucircumflex" unicode="&#xfb;" 
d="M87 138v385s5 3 16 3s16 -3 16 -3v-377c0 -88 45 -127 129 -127c69 0 142 48 177 131v373s5 3 16 3s16 -3 16 -3v-520s-5 -3 -16 -3s-16 3 -16 3v88c-42 -62 -106 -101 -187 -101c-94 0 -151 58 -151 148zM259 721h25l121 -99c-2 -9 -7 -17 -16 -19l-118 88l-117 -89
c-10 4 -14 10 -16 20z" />
    <glyph glyph-name="udieresis" unicode="&#xfc;" 
d="M87 523v-385c0 -90 57 -148 151 -148c81 0 145 39 187 101v-88s5 -3 16 -3s16 3 16 3v520s-5 3 -16 3s-16 -3 -16 -3v-373c-35 -83 -108 -131 -177 -131c-84 0 -129 39 -129 127v377s-5 3 -16 3s-16 -3 -16 -3zM229 687v-42s-8 -3 -24 -3s-24 3 -24 3v42s8 3 24 3
s24 -3 24 -3zM370 687v-42s-8 -3 -24 -3s-24 3 -24 3v42s8 3 24 3s24 -3 24 -3z" />
    <glyph glyph-name="ugrave" unicode="&#xf9;" 
d="M87 523v-385c0 -90 57 -148 151 -148c81 0 145 39 187 101v-88s5 -3 16 -3s16 3 16 3v520s-5 3 -16 3s-16 -3 -16 -3v-373c-35 -83 -108 -131 -177 -131c-84 0 -129 39 -129 127v377s-5 3 -16 3s-16 -3 -16 -3zM296 610l-125 147c6 9 19 17 32 17l117 -150
c-4 -8 -12 -13 -24 -14z" />
    <glyph glyph-name="uhungarumlaut" unicode="&#x171;" 
d="M87 138v385s5 3 16 3s16 -3 16 -3v-377c0 -88 45 -127 129 -127c69 0 142 48 177 131v373s5 3 16 3s16 -3 16 -3v-520s-5 -3 -16 -3s-16 3 -16 3v88c-42 -62 -106 -101 -187 -101c-94 0 -151 58 -151 148zM306 744l-116 -135c-11 1 -18 6 -22 13l103 137
c15 0 26 -5 35 -15zM444 744l-115 -135c-11 1 -19 6 -23 13l103 137c15 0 26 -5 35 -15z" />
    <glyph glyph-name="umacron" unicode="&#x16b;" 
d="M87 523v-385c0 -90 57 -148 151 -148c81 0 145 39 187 101v-88s5 -3 16 -3s16 3 16 3v520s-5 3 -16 3s-16 -3 -16 -3v-373c-35 -83 -108 -131 -177 -131c-84 0 -129 39 -129 127v377s-5 3 -16 3s-16 -3 -16 -3zM382 642h-215c-2 5 -3 10 -3 15c0 6 1 10 3 15h215
c2 -4 3 -8 3 -14s-1 -11 -3 -16z" />
    <glyph glyph-name="underscore" unicode="_" horiz-adv-x="518" 
d="M460 -48h-400s-3 3 -3 14s3 14 3 14h400s3 -3 3 -14s-3 -14 -3 -14z" />
    <glyph glyph-name="uni00AD" unicode="&#xad;" horiz-adv-x="280" 
 />
    <glyph glyph-name="Remove1" horiz-adv-x="537" 
 />
    <glyph glyph-name="Remove2" horiz-adv-x="398" 
 />
    <glyph glyph-name="uni2117" unicode="&#x2117;" horiz-adv-x="809" 
d="M438 266h-106v-125c-4 -2 -10 -3 -15 -3s-10 1 -14 3v382h135c79 0 130 -52 130 -128c0 -78 -51 -129 -130 -129zM332 496v-203h103c61 0 102 34 102 102c0 66 -41 101 -102 101h-103zM405 5c-185 0 -335 150 -335 335s150 334 335 334s334 -149 334 -334
s-149 -335 -334 -335zM405 646c-169 0 -307 -137 -307 -306s138 -307 307 -307s306 138 306 307s-137 306 -306 306z" />
    <glyph glyph-name="uni2196" unicode="&#x2196;" horiz-adv-x="512" 
d="M83 244v286h286c2 -4 3 -9 3 -14s-1 -10 -3 -14h-237l322 -321s-3 -5 -10 -12s-12 -10 -12 -10l-321 322v-237c-4 -2 -9 -3 -14 -3s-10 1 -14 3z" />
    <glyph glyph-name="uni2197" unicode="&#x2197;" horiz-adv-x="512" 
d="M429 530v-286c-4 -2 -9 -3 -14 -3s-10 1 -14 3v237l-321 -322s-5 3 -12 10s-10 12 -10 12l322 321h-237c-2 4 -3 9 -3 14s1 10 3 14h286z" />
    <glyph glyph-name="uni2198" unicode="&#x2198;" horiz-adv-x="507" 
d="M420 432v-286h-286c-2 4 -3 9 -3 14s1 10 3 14h237l-322 321s3 5 10 12s12 10 12 10l321 -322v237c4 2 9 3 14 3s10 -1 14 -3z" />
    <glyph glyph-name="uni2199" unicode="&#x2199;" horiz-adv-x="507" 
d="M87 147v286c4 2 9 3 14 3s10 -1 14 -3v-237l321 322s7 -1 14 -8s8 -14 8 -14l-322 -321h237c2 -4 3 -9 3 -14s-1 -10 -3 -14h-286z" />
    <glyph glyph-name="uni2215" unicode="&#x2215;" horiz-adv-x="467" 
d="M21 -6l388 705s6 3 18 3c11 0 17 -3 17 -3l-389 -705s-6 -4 -18 -4s-16 4 -16 4z" />
    <glyph glyph-name="uni2219" unicode="&#x2219;" horiz-adv-x="216" 
d="M108 312c-12 0 -24 8 -24 24s12 24 24 24s24 -8 24 -24s-12 -24 -24 -24z" />
    <glyph glyph-name="uogonek" unicode="&#x173;" 
d="M426 -144c25 0 42 10 42 10c6 -5 9 -13 9 -22c0 0 -21 -16 -57 -16c-53 0 -81 31 -81 73c0 44 36 93 89 115l-3 75c-42 -62 -106 -101 -187 -101c-94 0 -151 58 -151 148v385s5 3 16 3s16 -3 16 -3v-377c0 -88 45 -127 129 -127c69 0 142 48 177 131v373s5 3 16 3
s16 -3 16 -3v-521c-54 -14 -85 -58 -85 -97c0 -32 21 -49 54 -49z" />
    <glyph glyph-name="uring" unicode="&#x16f;" 
d="M87 523v-385c0 -90 57 -148 151 -148c81 0 145 39 187 101v-88s5 -3 16 -3s16 3 16 3v520s-5 3 -16 3s-16 -3 -16 -3v-373c-35 -83 -108 -131 -177 -131c-84 0 -129 39 -129 127v377s-5 3 -16 3s-16 -3 -16 -3zM272 593c-58 0 -102 35 -102 98s50 96 103 96
c52 0 104 -32 104 -96c0 -63 -48 -98 -105 -98zM348 691c0 36 -25 69 -76 69c-50 0 -73 -34 -73 -69c0 -36 23 -71 73 -71c51 0 76 36 76 71z" />
    <glyph glyph-name="utilde" unicode="&#x169;" 
d="M87 523v-385c0 -90 57 -148 151 -148c81 0 145 39 187 101v-88s5 -3 16 -3s16 3 16 3v520s-5 3 -16 3s-16 -3 -16 -3v-373c-35 -83 -108 -131 -177 -131c-84 0 -129 39 -129 127v377s-5 3 -16 3s-16 -3 -16 -3zM334 659c28 0 39 29 39 29c10 1 20 -2 26 -11
c0 0 -19 -47 -70 -47c-48 0 -69 36 -107 36c-28 0 -39 -30 -39 -30c-11 -1 -22 4 -26 11c0 0 19 48 70 48c48 0 69 -36 107 -36z" />
    <glyph glyph-name="v" unicode="v" horiz-adv-x="498" 
d="M67 523l150 -380c21 -54 32 -96 32 -96h2s11 39 32 94l148 382s4 3 16 3c11 0 17 -3 17 -3l-201 -520s-4 -3 -13 -3s-13 3 -13 3l-205 520s5 3 18 3c12 0 17 -3 17 -3z" />
    <glyph glyph-name="w" unicode="w" horiz-adv-x="791" 
d="M557 3l-124 357c-30 91 -35 119 -35 119h-3s-6 -29 -38 -119l-123 -357s-4 -3 -13 -3s-13 3 -13 3l-173 520s5 3 17 3s17 -3 17 -3l131 -395c17 -51 20 -79 20 -79h3s5 30 22 79l136 395s4 3 15 3c12 0 16 -3 16 -3l136 -393c18 -51 20 -81 20 -81h3s5 28 22 81l130 393
s5 3 16 3c12 0 16 -3 16 -3l-172 -520s-4 -3 -13 -3s-13 3 -13 3z" />
    <glyph glyph-name="wacute" unicode="&#x1e83;" horiz-adv-x="791" 
d="M557 3l-124 357c-30 91 -35 119 -35 119h-3s-6 -29 -38 -119l-123 -357s-4 -3 -13 -3s-13 3 -13 3l-173 520s5 3 17 3s17 -3 17 -3l131 -395c17 -51 20 -79 20 -79h3s5 30 22 79l136 395s4 3 15 3c12 0 16 -3 16 -3l136 -393c18 -51 20 -81 20 -81h3s5 28 22 81l130 393
s5 3 16 3c12 0 16 -3 16 -3l-172 -520s-4 -3 -13 -3s-13 3 -13 3zM468 757l-125 -147c-12 1 -20 6 -24 14l117 150c14 0 25 -6 32 -17z" />
    <glyph glyph-name="wcircumflex" unicode="&#x175;" horiz-adv-x="791" 
d="M557 3l-124 357c-30 91 -35 119 -35 119h-3s-6 -29 -38 -119l-123 -357s-4 -3 -13 -3s-13 3 -13 3l-173 520s5 3 17 3s17 -3 17 -3l131 -395c17 -51 20 -79 20 -79h3s5 30 22 79l136 395s4 3 15 3c12 0 16 -3 16 -3l136 -393c18 -51 20 -81 20 -81h3s5 28 22 81l130 393
s5 3 16 3c12 0 16 -3 16 -3l-172 -520s-4 -3 -13 -3s-13 3 -13 3zM384 721h25l121 -99c-2 -9 -7 -17 -16 -19l-118 88l-117 -89c-10 4 -14 10 -16 20z" />
    <glyph glyph-name="wdieresis" unicode="&#x1e85;" horiz-adv-x="791" 
d="M557 3l-124 357c-30 91 -35 119 -35 119h-3s-6 -29 -38 -119l-123 -357s-4 -3 -13 -3s-13 3 -13 3l-173 520s5 3 17 3s17 -3 17 -3l131 -395c17 -51 20 -79 20 -79h3s5 30 22 79l136 395s4 3 15 3c12 0 16 -3 16 -3l136 -393c18 -51 20 -81 20 -81h3s5 28 22 81l130 393
s5 3 16 3c12 0 16 -3 16 -3l-172 -520s-4 -3 -13 -3s-13 3 -13 3zM350 677v-42s-8 -3 -24 -3s-24 3 -24 3v42s8 3 24 3s24 -3 24 -3zM491 677v-42s-8 -3 -24 -3s-24 3 -24 3v42s8 3 24 3s24 -3 24 -3z" />
    <glyph glyph-name="wgrave" unicode="&#x1e81;" horiz-adv-x="791" 
d="M557 3l-124 357c-30 91 -35 119 -35 119h-3s-6 -29 -38 -119l-123 -357s-4 -3 -13 -3s-13 3 -13 3l-173 520s5 3 17 3s17 -3 17 -3l131 -395c17 -51 20 -79 20 -79h3s5 30 22 79l136 395s4 3 15 3c12 0 16 -3 16 -3l136 -393c18 -51 20 -81 20 -81h3s5 28 22 81l130 393
s5 3 16 3c12 0 16 -3 16 -3l-172 -520s-4 -3 -13 -3s-13 3 -13 3zM403 610l-125 147c6 9 19 17 32 17l117 -150c-4 -8 -12 -13 -24 -14z" />
    <glyph glyph-name="x" unicode="x" horiz-adv-x="483" 
d="M33 3l187 265l-183 255s5 3 19 3c13 0 20 -3 20 -3l168 -233l164 233s3 3 19 3c13 0 19 -3 19 -3l-184 -259l188 -261s-5 -3 -19 -3s-20 3 -20 3l-172 239l-168 -239s-4 -3 -21 -3c-12 0 -17 3 -17 3z" />
    <glyph glyph-name="y" unicode="y" horiz-adv-x="520" 
d="M486 523l-238 -650c-27 -75 -56 -123 -120 -123c-27 0 -46 6 -46 6c-2 4 -3 9 -3 14s1 11 4 15c0 0 16 -5 42 -5c38 0 64 27 92 104l43 117c-4 2 -9 4 -13 7l-215 515s6 3 18 3s18 -3 18 -3l166 -398c22 -52 36 -93 36 -93h3s13 40 32 92l146 399s4 3 17 3s18 -3 18 -3z
" />
    <glyph glyph-name="yacute" unicode="&#xfd;" horiz-adv-x="519" 
d="M486 523l-238 -650c-27 -75 -56 -123 -120 -123c-27 0 -46 6 -46 6c-2 4 -3 9 -3 14s1 11 4 15c0 0 16 -5 42 -5c38 0 64 27 92 104l43 117c-4 2 -9 4 -13 7l-215 515s6 3 18 3s18 -3 18 -3l166 -398c22 -52 36 -93 36 -93h3s13 40 32 92l146 399s4 3 17 3s18 -3 18 -3z
M343 757l-125 -147c-12 1 -20 6 -24 14l117 150c14 0 25 -6 32 -17z" />
    <glyph glyph-name="ycircumflex" unicode="&#x177;" horiz-adv-x="519" 
d="M486 523l-238 -650c-27 -75 -56 -123 -120 -123c-27 0 -46 6 -46 6c-2 4 -3 9 -3 14s1 11 4 15c0 0 16 -5 42 -5c38 0 64 27 92 104l43 117c-4 2 -9 4 -13 7l-215 515s6 3 18 3s18 -3 18 -3l166 -398c22 -52 36 -93 36 -93h3s13 40 32 92l146 399s4 3 17 3s18 -3 18 -3z
M245 721h25l121 -99c-2 -9 -7 -17 -16 -19l-118 88l-117 -89c-10 4 -14 10 -16 20z" />
    <glyph glyph-name="ydieresis" unicode="&#xff;" horiz-adv-x="519" 
d="M486 523l-238 -650c-27 -75 -56 -123 -120 -123c-27 0 -46 6 -46 6c-2 4 -3 9 -3 14s1 11 4 15c0 0 16 -5 42 -5c38 0 64 27 92 104l43 117c-4 2 -9 4 -13 7l-215 515s6 3 18 3s18 -3 18 -3l166 -398c22 -52 36 -93 36 -93h3s13 40 32 92l146 399s4 3 17 3s18 -3 18 -3z
M210 677v-42s-8 -3 -24 -3s-24 3 -24 3v42s8 3 24 3s24 -3 24 -3zM351 677v-42s-8 -3 -24 -3s-24 3 -24 3v42s8 3 24 3s24 -3 24 -3z" />
    <glyph glyph-name="yen" unicode="&#xa5;" horiz-adv-x="605" 
d="M566 681l-242 -382h164s3 -5 3 -14s-3 -14 -3 -14h-174v-82h174s3 -5 3 -14s-3 -14 -3 -14h-174v-158s-3 -3 -16 -3s-16 3 -16 3v158h-174s-3 5 -3 14s3 14 3 14h174v82h-174s-3 5 -3 14s3 14 3 14h164l-230 382s5 3 17 3c14 0 19 -3 19 -3l220 -366l232 366s5 3 18 3
s18 -3 18 -3z" />
    <glyph glyph-name="ygrave" unicode="&#x1ef3;" horiz-adv-x="520" 
d="M486 523l-238 -650c-27 -75 -56 -123 -120 -123c-27 0 -46 6 -46 6c-2 4 -3 9 -3 14s1 11 4 15c0 0 16 -5 42 -5c38 0 64 27 92 104l43 117c-4 2 -9 4 -13 7l-215 515s6 3 18 3s18 -3 18 -3l166 -398c22 -52 36 -93 36 -93h3s13 40 32 92l146 399s4 3 17 3s18 -3 18 -3z
M258 610l-125 147c6 9 19 17 32 17l117 -150c-4 -8 -12 -13 -24 -14z" />
    <glyph glyph-name="z" unicode="z" horiz-adv-x="449" 
d="M391 496l-308 -466h312s3 -3 3 -15s-3 -15 -3 -15h-349s-3 3 -3 15s3 15 3 15l309 466h-284s-3 3 -3 15s3 15 3 15h320s3 -4 3 -15s-3 -15 -3 -15z" />
    <glyph glyph-name="zacute" unicode="&#x17a;" horiz-adv-x="448" 
d="M391 496l-308 -466h312s3 -3 3 -15s-3 -15 -3 -15h-349s-3 3 -3 15s3 15 3 15l309 466h-284s-3 3 -3 15s3 15 3 15h320s3 -4 3 -15s-3 -15 -3 -15zM335 757l-125 -147c-12 1 -20 6 -24 14l117 150c14 0 25 -6 32 -17z" />
    <glyph glyph-name="zcaron" unicode="&#x17e;" horiz-adv-x="449" 
d="M391 496l-308 -466h312s3 -3 3 -15s-3 -15 -3 -15h-349s-3 3 -3 15s3 15 3 15l309 466h-284s-3 3 -3 15s3 15 3 15h320s3 -4 3 -15s-3 -15 -3 -15zM245 602h-23l-112 91c2 10 6 16 15 19l109 -82l108 81c8 -1 12 -9 14 -18z" />
    <glyph glyph-name="zdotaccent" unicode="&#x17c;" horiz-adv-x="448" 
d="M391 496l-308 -466h312s3 -3 3 -15s-3 -15 -3 -15h-349s-3 3 -3 15s3 15 3 15l309 466h-284s-3 3 -3 15s3 15 3 15h320s3 -4 3 -15s-3 -15 -3 -15zM259 676v-42s-8 -3 -24 -3s-24 3 -24 3v42s8 3 24 3s24 -3 24 -3z" />
    <glyph glyph-name="zero" unicode="0" horiz-adv-x="621" 
d="M310 660c-135 0 -199 -98 -199 -320c0 -221 64 -320 199 -320c137 0 201 99 201 320c0 222 -64 320 -201 320zM310 -10c-152 0 -234 101 -234 350c0 246 82 350 234 350s236 -101 236 -350s-84 -350 -236 -350z" />
    <glyph glyph-name="zero.denom" horiz-adv-x="343" 
d="M171 -5c-86 0 -125 55 -125 177c0 120 39 176 125 176c85 0 126 -54 126 -176s-41 -177 -126 -177zM171 326c-73 0 -101 -48 -101 -154c0 -108 28 -155 101 -155c72 0 102 47 102 155c0 106 -30 154 -102 154z" />
    <glyph glyph-name="zero.num" horiz-adv-x="343" 
d="M171 341c-86 0 -125 55 -125 177c0 120 39 176 125 176c85 0 126 -54 126 -176s-41 -177 -126 -177zM171 672c-73 0 -101 -48 -101 -154c0 -108 28 -155 101 -155c72 0 102 47 102 155c0 106 -30 154 -102 154z" />
    <glyph glyph-name="zeroinferior" unicode="&#x2080;" horiz-adv-x="343" 
d="M171 -101c-86 0 -125 55 -125 177c0 120 39 176 125 176c85 0 126 -54 126 -176s-41 -177 -126 -177zM171 230c-73 0 -101 -48 -101 -154c0 -108 28 -155 101 -155c72 0 102 47 102 155c0 106 -30 154 -102 154z" />
    </font>
</defs>
</svg>
