<?xml version="1.0" standalone="no"?>
<!DOCTYPE svg PUBLIC "-//W3C//DTD SVG 1.1//EN" "http://www.w3.org/Graphics/SVG/1.1/DTD/svg11.dtd" >
<svg xmlns="http://www.w3.org/2000/svg">
<metadata></metadata>
<defs>
<font id="enter_brushregular" horiz-adv-x="1013" >
<font-face units-per-em="2048" ascent="1536" descent="-512" />
<missing-glyph horiz-adv-x="460" />
<glyph horiz-adv-x="0" />
<glyph horiz-adv-x="0" />
<glyph unicode="&#xd;" horiz-adv-x="460" />
<glyph unicode=" "  horiz-adv-x="460" />
<glyph unicode="&#x09;" horiz-adv-x="460" />
<glyph unicode="&#xa0;" horiz-adv-x="460" />
<glyph unicode="!" horiz-adv-x="593" d="M-14 61q0 41 14 86.5t38.5 82t56.5 61t67 24.5q92 0 136 -30.5t44 -100.5q0 -41 -13.5 -86t-37 -81.5t-57 -60.5t-74.5 -24q-72 0 -123 28.5t-51 100.5zM348 397q-92 18 -138 59.5t-46 135.5q0 57 15.5 156.5t49 225.5t86 272.5t125.5 299.5q57 -4 108.5 -21.5t85.5 -46 t46 -68.5t-6 -89q-70 -176 -124 -311.5t-94 -245t-67 -198.5t-41 -169z" />
<glyph unicode="&#x22;" horiz-adv-x="765" d="M387 1028q-20 -27 -53 -43t-67 -18t-63.5 11t-43.5 48q125 283 180 453q12 39 39 39q12 0 32.5 -9.5t43 -22.5t41 -26.5t24.5 -21.5q35 -41 12 -109q-23 -78 -58.5 -153.5t-86.5 -147.5zM741 997q-16 -29 -49 -44t-67.5 -18t-65.5 9t-45 43q53 129 92 244t68 215 q10 37 33 41q18 2 45.5 -9.5t55.5 -29.5t48.5 -41t22.5 -39q6 -37 -7.5 -88t-37 -105.5t-49.5 -102.5t-44 -75z" />
<glyph unicode="#" horiz-adv-x="1208" d="M651 578l68 198l-172 -26l-68 -195zM688 139q-35 -16 -64.5 -15t-51 13.5t-31 34t-0.5 45.5l55 191q-31 -4 -75 -13.5t-103 -23.5l-74 -232q-35 -16 -64.5 -15t-50 13.5t-30 34t-2.5 45.5l26 111q-35 -4 -64.5 5t-47 29.5t-18.5 50t24 66.5l162 37l63 197q-29 -6 -49 -6 q-29 0 -51.5 12t-34.5 33.5t-12 50t16 59.5l197 39l114 303q37 6 65.5 -2t48 -24.5t28 -38t2.5 -41.5l-54 -168l168 18l117 297q35 6 61.5 -2t44 -24.5t26.5 -38t9 -41.5q0 -43 -59 -181q55 -2 96 -31.5t41 -84.5l-196 -39l-76 -207q47 -4 87 -34t40 -77l-183 -45z" />
<glyph unicode="$" horiz-adv-x="858" d="M543 1249q8 25 18 47.5t19.5 50t20.5 64.5t24 90q43 14 74.5 5t52 -29.5t31 -47t10.5 -47.5q0 -31 -13.5 -80t-40.5 -122q37 -37 59.5 -63.5t35 -51.5t16.5 -49.5t4 -57.5q0 -76 -19.5 -142t-52.5 -128q-31 -6 -62.5 0t-58 23.5t-44 43t-17.5 56.5q0 53 10.5 96t10.5 80 q0 39 -15 43q-25 12 -56.5 -14.5t-59 -67.5t-46 -85t-18.5 -68q0 -23 9 -48.5t54 -62.5l140 -119q100 -86 100 -168q0 -33 -16 -78q-18 -45 -54 -84.5t-81.5 -68.5t-95.5 -42t-99 -1l-78 -248q-45 -2 -74.5 9.5t-47 29.5t-24.5 44t-7 52q0 23 8 74t43 100q-35 20 -69 50 t-62.5 66t-48 75t-23.5 82q33 20 63.5 25t57 1t48 -17t38.5 -30q61 -66 114.5 -86t108.5 -20q29 0 48.5 11t19.5 28q0 25 -95 96q-121 86 -159 129q-43 47 -67.5 94t-24.5 103q0 66 36.5 143.5t94 145t126 115.5t134.5 54z" />
<glyph unicode="%" horiz-adv-x="1292" d="M1184 1141q-86 -100 -206 -243.5t-271 -334.5q-88 -111 -158 -201t-128.5 -164.5t-107.5 -136t-94 -112.5q-43 25 -62.5 57.5t-19.5 67.5q0 29 11.5 58.5t31.5 57.5q121 174 298 403.5t419 518.5q-78 -43 -158 -43q-23 0 -45 3t-41 13q-10 -88 -35.5 -166.5t-64.5 -137 t-89 -93.5t-112 -35q-43 0 -85 15.5t-73.5 46t-52 78t-20.5 110.5q0 66 25.5 154t68.5 167t100.5 134t122.5 55q45 0 78 -11t57.5 -31.5t42 -48.5t35.5 -60q37 -72 131 -72q51 0 104.5 18.5t103.5 47t93 64.5t74 71q41 -25 55.5 -58t14.5 -67q0 -41 -13.5 -75t-29.5 -50z M879 -53q-41 0 -81 13t-72 42t-51.5 74t-19.5 110q0 70 28 159t74 169t105.5 135.5t120.5 55.5q51 0 91 -19.5t67.5 -52.5t41 -75t13.5 -87q0 -94 -25.5 -188.5t-68.5 -169t-100 -120.5t-123 -46zM477 1264q-12 0 -31.5 -19.5t-41 -50.5t-41 -66.5t-29.5 -68.5 q-23 -66 -34 -116t-11 -91q0 -61 35 -61q18 0 46.5 39.5t57.5 101t49.5 136.5t20.5 144q0 43 -15 52h-6zM1024 555q-2 0 -3 1t-3 1q-12 0 -32.5 -20.5t-41 -51t-41 -67.5t-33.5 -68q-29 -66 -41 -120t-12 -93q0 -55 29 -55q20 0 53 44t63.5 109.5t53 139.5t22.5 133 q0 41 -14 47z" />
<glyph unicode="&#x26;" horiz-adv-x="1200" d="M1071 1157q0 -76 -37 -144.5t-96 -133t-135 -125t-154 -119.5q53 -133 135 -248q78 59 135.5 121.5t77.5 114.5q41 -10 70 -49t29 -105q0 -63 -46 -129t-120 -129q41 -41 86 -77t92 -64q-6 -37 -22.5 -68t-40 -52.5t-50 -32.5t-51.5 -11t-55.5 14t-63 38t-63.5 51.5 t-57 51.5q-109 -59 -218.5 -95t-187.5 -36q-66 0 -120 29t-94 76t-62.5 108.5t-22.5 126.5q0 61 28.5 118.5t78 111t113 104.5t132.5 101q-37 147 -37 301q0 119 40 209t103.5 151t142.5 92t157 31q61 0 118.5 -20.5t100.5 -61.5t68.5 -103.5t25.5 -146.5zM563 1028 q0 -41 4 -81t13 -83q98 74 166.5 146.5t68.5 148.5q0 63 -22.5 92t-57.5 29q-29 0 -58.5 -18.5t-55 -51t-42 -79t-16.5 -103.5zM285 268q0 -45 22.5 -65.5t61.5 -20.5q37 0 86 15.5t102 44.5q-70 104 -121 219q-53 -47 -92 -95.5t-59 -97.5z" />
<glyph unicode="'" horiz-adv-x="434" d="M387 1028q-23 -29 -58.5 -45t-72.5 -16q-31 0 -56.5 14t-39.5 45q125 283 180 453q12 39 39 39q12 0 32.5 -9.5t43 -22.5t41 -26.5t24.5 -21.5q20 -23 21 -60q0 -37 -14.5 -83t-37 -93t-49 -92t-53.5 -82z" />
<glyph unicode="(" horiz-adv-x="587" d="M182 -182q-96 260 -96 544q0 158 29.5 313.5t86 302t141.5 277.5t196 238q57 -29 88.5 -69t31.5 -87q0 -53 -43 -114q-147 -201 -230 -443.5t-83 -507.5q0 -88 9.5 -177t31.5 -179q14 -57 36.5 -104.5t39.5 -94.5q-47 -41 -94 -41t-84 41.5t-60 100.5z" />
<glyph unicode=")" horiz-adv-x="579" d="M483 1380q41 -115 61.5 -234.5t20.5 -242.5q0 -168 -34.5 -337t-100 -325.5t-159 -298t-210.5 -253.5q-96 45 -96 116q0 57 60 129q141 172 211.5 404.5t70.5 484.5q0 166 -30.5 329t-96.5 312q29 23 58.5 33t60.5 10q59 0 111.5 -36t72.5 -91z" />
<glyph unicode="*" horiz-adv-x="972" d="M672 1087l157 -159q-10 -51 -30.5 -69.5t-50.5 -18.5q-66 0 -203 137l-68 -221q-16 -8 -30.5 -10.5t-26.5 -2.5q-23 0 -37 10.5t-22.5 26t-11.5 33.5t-3 35q0 41 10.5 78t20.5 69l-156 -43q-8 -4 -16 -4h-17q-35 0 -62.5 19.5t-27.5 64.5q0 29 11 58l239 84l-160 188 q4 43 30 62.5t61 19.5t65.5 -14.5t50.5 -36.5l76 -88l96 249q8 2 23 2q47 0 77.5 -34.5t30.5 -85.5q0 -27 -8 -50l-49 -131q45 10 80 15.5t59 5.5q45 0 84 -21.5t39 -62.5q0 -27 -16 -53z" />
<glyph unicode="+" horiz-adv-x="1112" d="M526 922q31 6 58.5 10t50.5 4q45 0 70.5 -16.5t25.5 -51.5q0 -78 -9 -144.5t-17 -123.5q53 4 111 4h128q41 0 58.5 -27.5t17.5 -74.5q0 -23 -4 -50.5t-10 -56.5q-55 2 -106.5 3t-104.5 1h-62t-63 -2q-16 -78 -38 -171t-54 -216q-6 0 -13.5 -1t-13.5 -1q-66 0 -105.5 26.5 t-39.5 80.5q0 8 1 15t3 17q12 63 23 121t22 111q-53 -6 -108.5 -15.5t-115.5 -19.5q-10 -2 -26 -2q-55 0 -84 45t-29 113q0 6 1 12t1 12q129 23 222.5 36t175.5 24q12 84 21 166t13 172z" />
<glyph unicode="," horiz-adv-x="462" d="M166 -244q-29 -29 -66 -43t-75 -14q-49 0 -90 25.5t-54 80.5q84 88 136.5 201t99.5 256q29 27 61.5 38t61.5 11q53 0 89 -35.5t36 -103.5q0 -66 -23 -131.5t-54.5 -121.5t-65 -99.5t-56.5 -63.5z" />
<glyph unicode="-" horiz-adv-x="765" d="M709 389q-35 4 -69 7t-67 3q-129 0 -247 -37q-10 -4 -27 -4q-41 0 -72.5 37t-31.5 109q0 31 10 78q104 33 193 48t159 15q92 0 132 -29.5t40 -111.5q0 -29 -5 -57.5t-15 -57.5z" />
<glyph unicode="." horiz-adv-x="454" d="M-14 80q0 41 14 86t38.5 82t56.5 61.5t67 24.5q92 0 136 -31t44 -100q0 -41 -13.5 -86t-37 -82t-57 -60.5t-74.5 -23.5q-72 0 -123 28.5t-51 100.5z" />
<glyph unicode="/" horiz-adv-x="1130" d="M190 -317q-31 -6 -57 -7q-66 0 -98.5 34t-32.5 87q0 57 35 119q76 133 169 293t206.5 359.5t249 444t294.5 546.5q82 -6 127 -50.5t45 -103.5q0 -23 -6 -48.5t-22 -49.5q-147 -252 -272.5 -467t-234 -409.5t-208 -377t-195.5 -370.5z" />
<glyph unicode="0" horiz-adv-x="970" d="M885 1391q47 -53 66.5 -121t19.5 -160q0 -96 -15.5 -223t-47 -260t-81 -262t-119 -230.5t-160.5 -163t-206 -61.5q-59 0 -115.5 28.5t-100.5 82t-70.5 130t-26.5 175.5q0 139 21.5 280.5t61.5 272.5t95 243.5t120.5 196.5t140.5 132t155 48q27 0 65.5 -9t76.5 -24.5 t71 -35t49 -39.5zM676 1270q-47 0 -94 -51.5t-91.5 -136.5t-82 -191.5t-65.5 -217t-44 -215t-16 -182.5q0 -72 15 -113.5t48 -41.5q37 0 78 58.5t81 152.5t76.5 212t65.5 234.5t45.5 221t16.5 174.5q0 45 -8.5 70.5t-24.5 25.5z" />
<glyph unicode="1" horiz-adv-x="669" d="M403 -72q-35 -8 -71 -8q-88 0 -131 53.5t-43 151.5q0 53 11 144t35.5 211t64.5 265.5t100 305.5q-66 16 -113 79q53 102 128 186.5t159 147.5q94 -8 150.5 -48t56.5 -107q0 -35 -15 -70q-74 -199 -135 -394.5t-104 -369.5t-68 -316.5t-25 -230.5z" />
<glyph unicode="2" horiz-adv-x="907" d="M948 1174q0 -76 -27.5 -162t-72.5 -177.5t-104.5 -181.5t-123 -172t-126 -149.5t-113.5 -114.5q66 16 134.5 23.5t148.5 7.5q53 0 96 -35t43 -94q0 -23 -11.5 -52.5t-39.5 -58.5q-170 -4 -313.5 -29.5t-248.5 -54.5q-31 -8 -61 -8q-70 0 -108.5 67.5t-38.5 206.5 q66 45 142.5 117t153 160t147.5 185.5t126 192.5t88 183t33 156q0 12 -7.5 21t-21.5 9q-29 0 -70 -34.5t-86 -120.5q-16 -31 -52 -51.5t-83 -20.5q-41 0 -86 20.5t-88 73.5q37 80 92.5 149.5t119 122t130 82t127.5 29.5q68 0 124 -28.5t95 -71.5t60.5 -94t21.5 -96z" />
<glyph unicode="3" horiz-adv-x="958" d="M958 1153q0 -152 -79.5 -257t-198.5 -171q104 -31 155.5 -115t51.5 -188q0 -88 -34 -178t-99.5 -163t-159.5 -119t-217 -46q-84 0 -152.5 25.5t-120 72.5t-84 114t-40.5 146q20 31 58 48.5t62 17.5q33 0 58.5 -9t46.5 -50q45 -92 92 -129t94 -37q45 0 87 29.5t73 75.5 t49 100.5t18 103.5q0 59 -28.5 99t-95.5 40q-25 0 -61 -10t-64 -10q-35 0 -56.5 18.5t-36 47t-22.5 62.5t-14 64q96 18 179 55t143.5 86.5t94 106.5t33.5 119q0 57 -21.5 89t-58.5 32q-35 0 -79 -31t-93 -98q-27 -37 -60.5 -53.5t-68.5 -16.5q-47 0 -88 27.5t-53 72.5 q39 92 94 159t116.5 110t127 64.5t129.5 21.5q66 0 124 -21.5t103 -63.5t70.5 -102.5t25.5 -138.5z" />
<glyph unicode="4" horiz-adv-x="989" d="M918 641h14q43 0 62.5 -29.5t19.5 -74.5q0 -59 -25 -117l-260 -25q-18 -57 -37.5 -117.5t-37 -120t-33 -112.5t-27.5 -94q-35 -16 -64.5 -23.5t-56.5 -7.5q-57 0 -90 32t-33 85q0 31 6 61.5t17.5 67.5t28 86t38.5 117q-72 -10 -136 -23.5t-114 -13.5q-37 0 -65.5 19.5 t-49 50t-33.5 69.5t-22 78q23 72 71 160t110.5 181t133.5 184t137.5 171t124.5 142.5t95 95.5q25 23 55.5 32t61.5 9q39 0 79 -15.5t73.5 -45t59.5 -75t36 -104.5q-20 -55 -55 -143t-72 -183.5t-71 -183.5t-52 -145zM520 616q12 39 43 119t69 173t77 187.5t69 164.5 q-131 -145 -257 -320.5t-214 -347.5q16 2 34.5 4t42.5 5t56.5 7t79.5 8z" />
<glyph unicode="5" horiz-adv-x="1005" d="M987 1208q-104 0 -190 -9t-158 -25q-49 -88 -86 -163t-61 -161q96 51 172 51q53 0 93 -24.5t65.5 -66.5t37.5 -99.5t12 -120.5q0 -109 -33.5 -227.5t-97 -218t-155.5 -164t-209 -64.5q-84 0 -152.5 25.5t-120 72.5t-84 114t-40.5 146q20 31 58 48.5t62 17.5q33 0 58.5 -9 t46.5 -50q35 -74 72.5 -105t72.5 -31q45 0 86 39t72 97.5t49 127t18 128.5q0 59 -21.5 98t-68.5 39q-31 0 -73.5 -19.5t-98.5 -62.5q-53 4 -90 40t-51 105q18 82 48 166t66 168t74.5 166t75.5 158q66 25 125.5 41t116.5 24t114.5 11.5t118.5 3.5q68 0 106 -54.5t38 -134.5 q0 -18 -2 -37.5t-6 -40.5h-60z" />
<glyph unicode="6" horiz-adv-x="940" d="M920 1337q-106 -82 -205 -193.5t-180 -236.5q63 33 120 33q49 0 91 -23.5t73 -64.5t47.5 -99.5t16.5 -127.5q0 -70 -15.5 -149t-45 -158.5t-71.5 -152.5t-94.5 -128t-115 -89t-131.5 -34q-78 0 -152 43q-131 66 -183 148.5t-52 209.5q0 133 54 290t140 309.5t190.5 288.5 t204.5 229q78 72 156 71q57 0 100.5 -41t51.5 -125zM541 733q-10 0 -28.5 -3t-41 -15.5t-48.5 -35t-48 -61.5q-41 -94 -63.5 -180t-22.5 -155q0 -41 6 -68t16.5 -42t22.5 -20.5t24 -5.5q37 0 79 42t79 110t61.5 150.5t24.5 166.5q0 49 -15 83t-46 34z" />
<glyph unicode="7" horiz-adv-x="970" d="M903 535q-31 4 -60.5 4h-58.5q-55 0 -110.5 -4.5t-108.5 -10.5q-92 -166 -171 -322.5t-134 -285.5q-29 -6 -53 -6q-41 0 -69.5 15.5t-48 40t-29 56t-9.5 64.5t15.5 79t40 99t55.5 110.5t61 112.5q-37 20 -56.5 61.5t-19.5 90.5q0 4 1.5 9t1.5 11q49 10 98 20.5t96 20.5 q84 141 171 275.5t169 245.5q-33 -10 -76 -21.5t-89 -21t-93 -16.5t-88 -7q-51 0 -80 26.5t-43 63.5t-18 77t-4 69q63 4 149 18t173 29.5t166 27t128 11.5q37 0 71.5 -29t61.5 -68t43 -78.5t16 -62.5q0 -35 -30 -74q-66 -86 -136.5 -192.5t-142.5 -227.5q18 0 37 1.5t37 1.5 q80 0 125 -15.5t45 -79.5q0 -20 -8.5 -55.5t-24.5 -62.5z" />
<glyph unicode="8" horiz-adv-x="995" d="M995 1182q0 -88 -29.5 -159t-76.5 -129t-104.5 -105.5t-110.5 -86.5q70 -68 109.5 -140.5t39.5 -143.5q0 -86 -37.5 -175t-101 -162t-145.5 -119t-170 -46q-84 0 -151.5 27.5t-116 76t-75 111t-26.5 129.5q0 78 27.5 146.5t71.5 127t98.5 108.5t109.5 93q-27 27 -46 67 t-31.5 83t-18.5 85t-6 74q0 115 46 200t116.5 141.5t154.5 84t162 27.5q156 0 233.5 -90t77.5 -225zM475 1055q0 -12 2 -40t6 -56.5t8.5 -54t10.5 -34.5q111 72 172 149t61 130q0 49 -27.5 72.5t-68.5 23.5q-29 0 -57.5 -12t-52 -35.5t-39 -59.5t-15.5 -83zM547 418 q0 37 -22.5 80t-45.5 65q-35 -29 -70.5 -67.5t-66.5 -81.5t-50.5 -90.5t-19.5 -90.5q0 -49 19.5 -71.5t48.5 -22.5q31 0 66.5 20.5t67.5 57.5t52.5 88.5t20.5 112.5z" />
<glyph unicode="9" horiz-adv-x="874" d="M63 59q104 82 203 194t183 234q-63 -33 -121 -32q-104 0 -166 87t-62 228q0 70 15.5 149.5t45 158.5t71.5 153t94.5 129t115 89t131.5 34q78 0 152 -43q129 -66 182.5 -149t53.5 -210q0 -133 -54.5 -289.5t-140.5 -310t-190.5 -289t-204.5 -227.5q-78 -72 -156 -71 q-59 0 -101.5 40.5t-50.5 124.5zM442 664q10 0 28.5 3t41.5 15t48.5 34.5t47.5 61.5q41 94 63.5 179t22.5 157q0 82 -22.5 108.5t-46.5 26.5q-37 0 -79 -42t-79 -109.5t-61.5 -151.5t-24.5 -166q0 -49 15 -82.5t46 -33.5z" />
<glyph unicode=":" horiz-adv-x="503" d="M-35 80q0 41 14.5 86t39 82t56 61.5t66.5 24.5q92 0 136.5 -31t44.5 -100q0 -41 -13.5 -86t-37 -82t-57.5 -60.5t-75 -23.5q-72 0 -123 28.5t-51 100.5zM141 737q0 41 14.5 86t39 82t56.5 61.5t66 24.5q92 0 136.5 -30.5t44.5 -100.5q0 -41 -13.5 -86t-37 -82 t-57.5 -60.5t-75 -23.5q-72 0 -123 28.5t-51 100.5z" />
<glyph unicode=";" horiz-adv-x="532" d="M145 -244q-29 -29 -65.5 -43t-75.5 -14q-49 0 -90 25.5t-53 80.5q84 88 136 201t99 256q29 27 61.5 38t61.5 11q53 0 89 -35.5t36 -103.5q0 -66 -22.5 -131.5t-54 -121.5t-65.5 -99.5t-57 -63.5zM141 737q0 41 14.5 86t39 82t56.5 61.5t66 24.5q92 0 136.5 -30.5 t44.5 -100.5q0 -41 -13.5 -86t-37 -82t-57.5 -60.5t-75 -23.5q-72 0 -123 28.5t-51 100.5z" />
<glyph unicode="&#x3c;" horiz-adv-x="802" d="M621 1004q53 -45 77.5 -87.5t24.5 -82.5q0 -55 -41 -103.5t-102.5 -88.5t-136 -70.5t-142.5 -49.5q49 -35 108.5 -67.5t120 -60t120 -51.5t108.5 -42q2 -10 2 -18.5v-16.5q0 -41 -15.5 -68.5t-39 -44t-52 -23.5t-55.5 -7q-10 0 -20.5 1t-20.5 3q-160 33 -286 124 t-236 216v22q0 72 25.5 125.5t99.5 83.5q23 8 74 35t116.5 66t136.5 91.5t134 113.5z" />
<glyph unicode="=" horiz-adv-x="1112" d="M1006 561q-53 2 -104.5 3t-100.5 1q-133 0 -267.5 -11t-302.5 -44q-10 -2 -26 -2q-55 0 -84 45t-29 113q0 6 1 12t1 12q150 27 256.5 42.5t197.5 23.5t183 11t213 3q41 0 58.5 -27.5t17.5 -74.5q0 -23 -4 -50.5t-10 -56.5zM1006 211q-53 2 -104.5 3t-100.5 1 q-133 0 -267.5 -11t-302.5 -44q-10 -2 -26 -2q-55 0 -84 45t-29 112q0 6 1 12.5t1 12.5q150 27 256.5 42t197.5 23.5t183 11.5t213 3q41 0 58.5 -27.5t17.5 -75.5q0 -23 -4 -50t-10 -56z" />
<glyph unicode="&#x3e;" horiz-adv-x="757" d="M195 8q-53 45 -78 86t-25 82q0 55 41 103.5t102.5 88.5t136 70.5t142.5 48.5q-96 72 -194.5 123.5t-198.5 87.5q-2 10 -2 17.5v17.5q0 39 14 67.5t37 45t50.5 25t53.5 8.5q45 0 106.5 -27t131.5 -73t139.5 -106.5t128.5 -127.5v-23q0 -72 -25.5 -126t-99.5 -83 q-23 -10 -74 -35.5t-116.5 -64.5t-136 -91.5t-133.5 -113.5z" />
<glyph unicode="?" horiz-adv-x="841" d="M979 1202q0 -100 -24.5 -177t-66.5 -137.5t-98.5 -108.5t-121.5 -91q-68 -43 -113 -76.5t-72.5 -66.5t-44 -68t-26.5 -80q-29 -6 -50 -6q-70 0 -107.5 40t-37.5 99q0 45 14.5 83t51 78t99 89t159.5 119q100 72 136 143.5t36 126.5q0 63 -37 103.5t-86 40.5q-45 0 -90 -40 t-74 -136q-16 -49 -53 -72t-84 -23q-31 0 -60.5 9.5t-54 26t-40 40t-17.5 51.5q23 90 72 156t113.5 109t139 64.5t150.5 21.5t145.5 -20.5t122.5 -61.5t86 -100.5t33 -135.5zM49 61q0 41 14.5 86.5t39 82t56 61t66.5 24.5q92 0 136.5 -30.5t44.5 -100.5q0 -41 -13.5 -86 t-37 -81.5t-57.5 -60.5t-75 -24q-72 0 -123 28.5t-51 100.5z" />
<glyph unicode="@" horiz-adv-x="1277" d="M862 12q-33 0 -64.5 9.5t-58 31t-44 54t-19.5 81.5q-33 -53 -73 -77.5t-79 -24.5q-61 0 -108 52t-47 138q0 68 30.5 153t81.5 159t118 124t138 50q27 0 59.5 -19.5t59.5 -49t45.5 -64.5t18.5 -66q0 -20 -9 -45q-20 -55 -38.5 -112.5t-34 -107.5t-24.5 -88t-9 -54 q0 -31 22 -31q39 0 79 31.5t72 89t51.5 135.5t19.5 168q0 205 -70 299t-193 94q-80 0 -150.5 -31.5t-130 -86t-106.5 -125t-80.5 -147.5t-51 -153.5t-17.5 -144.5q0 -94 33.5 -159.5t89 -105.5t129 -57.5t153.5 -17.5h31.5t32.5 2q23 0 22 -14q0 -10 -8 -24.5t-18 -28 t-22.5 -23.5t-18.5 -12q-49 -16 -107 -17q-109 0 -196.5 36t-149 103.5t-95.5 164t-34 214.5q0 139 47 273.5t133 239t204 168t259 63.5q215 0 343 -134t128 -395q0 -86 -20.5 -177t-63.5 -166.5t-107.5 -125t-152.5 -49.5zM791 608q0 47 -41 47q-27 0 -53.5 -27.5 t-52.5 -69.5t-47.5 -93t-37.5 -96t-25.5 -80t-9.5 -45q0 -59 35 -60q85 0 232 424z" />
<glyph unicode="A" horiz-adv-x="1067" d="M186 -90q-18 -4 -33.5 -6t-31.5 -2q-80 0 -123 44t-43 115q0 47 47 174t138 310.5t226.5 409t311.5 470.5q88 18 162 19q137 0 206.5 -53.5t69.5 -122.5q0 -20 -6 -39q-47 -172 -86 -345t-66.5 -331t-42 -295t-14.5 -238q0 -59 6 -102q-33 -8 -71 -8q-111 0 -155 79 t-44 214q0 23 1 50.5t3 55.5q-80 -4 -162 -17t-168 -36q-49 -111 -82 -199t-43 -147zM446 539q59 8 114.5 12t109.5 4q23 141 60.5 309t96.5 359q-100 -166 -197.5 -342t-183.5 -342z" />
<glyph unicode="B" horiz-adv-x="1021" d="M270 -84q-31 0 -67.5 12.5t-69.5 37t-58.5 59t-33.5 79.5q6 82 22.5 196t49 257t84 313t127.5 365q-68 55 -68 141q0 23 50 41.5t120 31.5t142.5 20.5t119.5 7.5q92 0 179 -16.5t155 -54.5t108.5 -100.5t40.5 -152.5q0 -84 -28.5 -152.5t-77.5 -125t-114.5 -101.5 t-139.5 -80q63 -35 94 -91t31 -128q0 -78 -40 -164t-120 -164.5t-202.5 -140t-288.5 -90.5h-15zM840 1085q0 74 -47.5 98.5t-102.5 24.5q-20 0 -40.5 -2t-37.5 -6q-41 -109 -76.5 -215t-68.5 -211q186 53 279.5 133t93.5 178zM305 129q82 16 142.5 48t99.5 72t57.5 83 t18.5 84q0 59 -38 100t-110 41q-16 0 -35.5 -5t-40.5 -5q-33 -119 -56.5 -223.5t-37.5 -194.5z" />
<glyph unicode="C" horiz-adv-x="983" d="M895 301q-86 -195 -190.5 -291t-219.5 -96q-88 0 -161.5 26.5t-127 83t-83 144.5t-29.5 209q0 102 21.5 224t62.5 246t97.5 239.5t125 205.5t148 144.5t168.5 54.5q31 0 66.5 -10.5t76.5 -26.5q68 -29 109.5 -65.5t65.5 -82.5t32 -100.5t8 -118.5q0 -39 -3 -75.5 t-9 -77.5t-16.5 -88t-22.5 -105q-49 -6 -88 -6q-90 0 -126 37t-36 121q0 59 13.5 108.5t13.5 102.5q0 127 -46 127q-51 0 -139 -154q-55 -96 -99 -201.5t-74 -211t-46 -205t-16 -180.5q0 -86 22.5 -120t57.5 -34q45 0 91 35t91 78t89 77.5t83 34.5q47 0 90 -49z" />
<glyph unicode="D" horiz-adv-x="1028" d="M287 -84q-41 12 -84 34.5t-79 54.5t-59.5 74t-23.5 95q0 170 70.5 437.5t214.5 627.5q-68 51 -68 135q0 23 50 42.5t119 32.5t140.5 20.5t116.5 7.5q111 0 190.5 -37t132 -100.5t78 -149.5t25.5 -184q0 -156 -57.5 -329t-165 -327.5t-260 -271.5t-340.5 -162zM625 1225 q-55 -147 -105.5 -294t-90.5 -285t-69.5 -264t-48.5 -230q66 35 127.5 95t116.5 136t101 163t80 174t52.5 169t18.5 149q0 86 -33 138.5t-108 52.5q-10 0 -20.5 -1t-20.5 -3z" />
<glyph unicode="E" horiz-adv-x="956" d="M954 592q-104 12 -204 12q-66 0 -129.5 -6t-126.5 -16q-31 -109 -53.5 -205t-39.5 -182q90 14 170 19t146 5q68 0 94.5 -37t26.5 -98q0 -27 -4.5 -56.5t-10.5 -62.5h-69q-115 0 -225.5 -10t-231.5 -39q-10 -4 -19.5 -4h-17.5q-66 0 -98.5 54t-32.5 134q0 20 2 31v4 q4 82 24.5 210t63.5 298q-16 43 -16 98v13.5t2 15.5l53 14q29 94 62.5 197.5t76.5 216.5q-29 25 -42 67t-13 93q0 20 2 31q193 47 323 66.5t234 19.5h92t80 -12.5t56.5 -41t21.5 -84.5q0 -29 -4 -59.5t-12 -65.5q-61 10 -115.5 15.5t-110.5 5.5q-92 0 -204 -19 q-35 -96 -68 -187t-62 -183q47 6 90.5 8t84.5 2q115 0 168 -24.5t53 -114.5q-1 -47 -17 -123z" />
<glyph unicode="F" horiz-adv-x="878" d="M877 592q-104 12 -205 12q-66 0 -129.5 -6t-126.5 -16q-55 -197 -87 -356.5t-32 -264.5q0 -6 -13.5 -10t-30.5 -6t-32.5 -3t-19.5 -1q-76 0 -112 39.5t-36 130.5q0 78 20.5 214t67.5 318q-16 43 -16 98v13.5t2 15.5l53 14q29 94 62.5 197.5t76.5 216.5q-29 25 -42 67 t-13 93q0 20 2 31q193 47 323 66.5t234 19.5h92.5t80 -12.5t56 -41t21.5 -84.5q0 -29 -4 -59.5t-12 -65.5q-61 10 -115.5 15.5t-110.5 5.5q-92 0 -204 -19q-35 -96 -68 -187t-61 -183q47 6 90 8t84 2q115 0 168 -24.5t53 -114.5q0 -47 -16 -123z" />
<glyph unicode="G" horiz-adv-x="976" d="M614 258q23 31 46.5 62.5t46.5 58.5q-49 -10 -96.5 -24.5t-78.5 -14.5q-63 0 -97 51t-34 125q0 6 1 12.5t1 14.5q117 29 225.5 52t209.5 23q49 0 72.5 -29.5t23.5 -78.5q0 -88 -48 -191.5t-121 -193.5t-159 -150.5t-164 -60.5q-88 0 -161.5 26.5t-127 83t-83 144.5 t-29.5 209q0 102 21.5 224t62.5 246t97.5 239.5t125 205.5t148 144.5t168.5 54.5q31 0 66.5 -10.5t76.5 -26.5q68 -29 111 -66.5t65.5 -85t30.5 -103.5t8 -122q0 -31 -2 -57.5t-8 -58t-14.5 -70.5t-20.5 -94q-49 -6 -88 -6q-90 0 -126 36.5t-36 120.5q0 59 11.5 110.5 t11.5 104.5q0 68 -48 68q-51 0 -139 -154q-55 -96 -99 -201.5t-74 -211t-46 -205t-16 -180.5q0 -86 24.5 -122t63.5 -36q47 0 102 41t96 96z" />
<glyph unicode="H" horiz-adv-x="1028" d="M811 -82q-35 -8 -72 -8q-90 0 -132 55t-42 154q0 72 19.5 197.5t60.5 291.5q-100 -6 -221 -24q-59 -211 -92 -385t-33 -281q0 -6 -9 -9t-21.5 -5t-24 -2h-17.5q-90 0 -132 56t-42 159q0 66 17.5 181.5t54.5 266.5q-29 25 -43 68t-14 96q0 20 2 31q29 8 57.5 15t56.5 13 q41 147 99.5 312.5t134.5 345.5q98 -8 162.5 -51t64.5 -115q0 -29 -12 -59q-37 -96 -70 -191.5t-63 -189.5q57 6 110.5 8t100.5 2q41 137 95 288.5t124 315.5q98 -8 162.5 -51t64.5 -115q0 -29 -12 -59q-74 -199 -135.5 -394.5t-105.5 -369.5t-68.5 -316.5t-24.5 -230.5z " />
<glyph unicode="I" horiz-adv-x="489" d="M287 -61q-35 -8 -72 -9q-88 0 -131 53.5t-43 151.5q0 70 19.5 201t63.5 306t113.5 387t168.5 446q96 -8 160.5 -50.5t64.5 -113.5q0 -29 -13 -62q-74 -199 -135 -394.5t-104 -369.5t-67.5 -316t-24.5 -230z" />
<glyph unicode="J" horiz-adv-x="761" d="M457 14q-80 -98 -224 -98q-74 0 -130 28.5t-94 78t-56.5 115t-18.5 138.5q0 18 1.5 37t3.5 37q33 10 61.5 15.5t52.5 5.5q47 0 80 -21.5t47 -73.5q31 -113 74 -112q27 0 57.5 51t63.5 143.5t68.5 217t70.5 273t71 312.5t70 332q104 -4 166 -46t62 -126q0 -10 -1 -21.5 t-3 -21.5q-29 -145 -66 -322.5t-88 -352.5t-116.5 -331t-151.5 -258z" />
<glyph unicode="K" horiz-adv-x="925" d="M887 -25q-109 -66 -201 -65q-94 0 -139 74q-29 49 -54.5 100t-49 110.5t-43 130t-35.5 158.5q-47 -180 -73 -325.5t-26 -237.5q0 -8 -9 -12t-21.5 -5t-23.5 -1h-17q-90 0 -132.5 56t-42.5 159q0 74 20.5 205t65 304t114 382t165.5 438q98 -8 162.5 -51t64.5 -115 q0 -29 -12 -59q-90 -236 -158 -461q172 154 301 329t234 379q84 -37 115.5 -89t31.5 -107q0 -82 -53 -178.5t-132 -192.5t-170 -183t-167 -151q29 -137 100.5 -284.5t184.5 -307.5z" />
<glyph unicode="L" horiz-adv-x="831" d="M688 -35q-115 0 -225.5 -10t-231.5 -39q-10 -4 -19 -4h-17q-66 0 -99 54t-33 134q0 20 3 31v4q4 80 23.5 204t60 285.5t105 358.5t159.5 420q49 -4 93 -11.5t76.5 -21.5t52 -36.5t19.5 -55.5q0 -20 -10 -51q-55 -145 -103 -287.5t-88 -275t-70 -251t-48 -218.5 q90 14 170 19t145 5q68 0 94.5 -37t26.5 -98q0 -27 -4 -56.5t-10 -62.5h-70z" />
<glyph unicode="M" horiz-adv-x="1536" d="M555 109q0 123 3 258t3 268q0 84 -2 160.5t-6 144.5q-49 -152 -90 -304.5t-69.5 -288.5t-45 -247.5t-16.5 -181.5q0 -6 -9.5 -8t-21.5 -4t-24.5 -2h-16.5q-90 0 -132 56t-42 159q0 74 20.5 205t64.5 304t113.5 382t166.5 438q57 -4 112 -11t101.5 -24.5t79 -49.5 t44.5 -85q12 -59 18.5 -154.5t6.5 -220.5q0 -139 -6 -301q43 106 104.5 224t132 231.5t146.5 216t151 180.5q14 2 26.5 3t25.5 1q55 0 100 -19.5t77 -51t49 -71.5t17 -79q0 -29 -10 -59q-74 -197 -132 -382.5t-100 -348t-63.5 -296t-21.5 -223.5q0 -6 -9.5 -8t-21.5 -4 t-24.5 -2h-16.5q-90 0 -132 55.5t-42 153.5q0 49 12 135t37 198.5t59.5 246t79.5 274.5q-86 -158 -159.5 -316.5t-131 -301t-95.5 -258t-50 -185.5q-18 -4 -35.5 -6t-34.5 -2q-98 0 -144 59.5t-46 141.5z" />
<glyph unicode="N" horiz-adv-x="1044" d="M844 -82q-47 -10 -80 -12t-62 -2q-59 0 -90.5 27.5t-40.5 99.5q-20 199 -41.5 407.5t-48.5 431.5q-47 -150 -86 -291t-66.5 -266t-43 -226t-15.5 -171q0 -6 -9 -8t-21.5 -4t-23.5 -2h-15q-86 0 -121 55t-35 154q0 72 20.5 201.5t63.5 305t112.5 386t168.5 442.5h28 q74 0 122 -14.5t77 -39t40 -58.5t15 -70q8 -106 18.5 -260t26.5 -324q47 174 114 371.5t153 402.5q92 -8 140 -45t48 -102q0 -37 -14 -78q-74 -199 -135.5 -394.5t-105.5 -369.5t-68.5 -316.5t-24.5 -230.5z" />
<glyph unicode="O" horiz-adv-x="1024" d="M1020 1376q47 -59 66.5 -126.5t19.5 -157.5q0 -174 -53 -418q-39 -178 -94.5 -319.5t-123 -239t-146.5 -149.5t-161 -52q-88 0 -161.5 26.5t-127 83t-83 144.5t-29.5 209q0 102 21.5 224t62.5 246t97.5 239.5t125 205.5t148.5 144.5t168 54.5q29 0 67.5 -10.5t76.5 -26.5 t72 -37t54 -41zM799 1229q-4 0 -6 1t-5 1q-51 0 -139 -154q-55 -96 -99 -201.5t-74 -211t-46 -205t-16 -180.5q0 -152 61 -152q37 0 78 50t81 132t75.5 186.5t63.5 213t44.5 212t16.5 183.5q0 115 -35 125z" />
<glyph unicode="P" horiz-adv-x="960" d="M305 -84q-43 0 -85 15.5t-73.5 46t-52 74.5t-20.5 104q0 172 70.5 447.5t213.5 637.5q-68 51 -67 133q0 23 49 42.5t117.5 32.5t140.5 20.5t117 7.5q88 0 173 -16.5t150.5 -54.5t105.5 -100.5t40 -152.5q0 -92 -36 -172t-96.5 -147.5t-138 -122t-161.5 -93t-168 -62.5 t-154 -32h-2q-53 -197 -81 -353.5t-28 -254.5h-14zM874 1108q0 33 -15 55.5t-39.5 36.5t-55.5 19.5t-62 5.5h-24t-23 -2q-47 -123 -89 -247t-79 -243q184 53 285.5 156.5t101.5 218.5z" />
<glyph unicode="Q" horiz-adv-x="1046" d="M1044 -291q-111 18 -223 19q-104 0 -215.5 -15.5t-247.5 -48.5q-23 -6 -39 -6q-66 0 -98.5 55.5t-32.5 134.5q0 8 1 15.5t1 15.5q111 31 216 49q-141 39 -211 146.5t-70 302.5q0 102 21.5 224t62.5 246t97 239.5t125 205.5t148.5 144.5t168.5 54.5q31 0 66.5 -10.5 t76.5 -26.5q66 -29 107.5 -64.5t65 -80.5t32 -99.5t8.5 -117.5q0 -182 -38 -363.5t-97.5 -335t-133 -266.5t-147.5 -162q35 4 69 4h64q57 0 102.5 -2t76 -14t46 -40t15.5 -79q0 -29 -4.5 -59.5t-12.5 -65.5zM797 1229q-4 0 -6.5 1t-4.5 1q-51 0 -139 -154 q-55 -96 -99 -201.5t-74 -211t-46 -205t-16 -180.5q0 -152 61 -152q37 0 78 50t81 132t75.5 186.5t63.5 213t44 212t16 183.5q1 115 -34 125z" />
<glyph unicode="R" horiz-adv-x="1132" d="M326 -84q-43 0 -85 15.5t-74 46t-52.5 74.5t-20.5 104q0 172 71 447.5t214 637.5q-68 51 -68 133q0 23 49.5 42.5t118 32.5t140 20.5t116.5 7.5q88 0 173 -16.5t150.5 -54.5t105.5 -100.5t40 -152.5q0 -102 -49 -195.5t-127 -171t-175 -138t-196 -97.5l2 -2 q33 -72 79 -146.5t101.5 -145.5t119 -134.5t133.5 -112.5q-14 -18 -42 -34.5t-61 -29t-64.5 -19.5t-56.5 -7q-84 0 -147.5 53.5t-113.5 137.5t-90 187t-75 202q-49 -188 -75.5 -339t-26.5 -245h-14zM895 1108q0 33 -15.5 55.5t-40 36.5t-55 19.5t-61.5 5.5h-24.5t-22.5 -2 q-47 -129 -92 -258t-82 -252q86 20 157.5 64t124 99.5t82 116t29.5 115.5z" />
<glyph unicode="S" horiz-adv-x="1028" d="M238 829q0 98 47 214t121.5 215.5t166 166t179.5 66.5q31 0 66.5 -10.5t76.5 -26.5q68 -29 110 -65.5t65.5 -82.5t31.5 -100.5t8 -118.5q0 -39 -3 -75.5t-9 -77.5t-16.5 -88t-22.5 -105q-49 -6 -88 -6q-90 0 -126 37t-36 121q0 59 13.5 108.5t13.5 102.5q0 127 -45 127 q-49 0 -140 -154q-16 -27 -32.5 -58.5t-31 -65t-23.5 -65.5t-9 -59q0 -49 26.5 -89t75.5 -85l156 -143q70 -66 104.5 -126t34.5 -150q0 -63 -35.5 -121t-95 -101t-139.5 -68.5t-166 -25.5q-74 0 -141.5 27.5t-121.5 83t-89 139.5t-41 199q31 16 74 16q47 0 90 -22.5 t63 -65.5q35 -74 85 -120t116 -46q53 0 75.5 33t22.5 74q0 23 -5 42t-15 35q-53 70 -121 124.5t-127 110.5t-101 121.5t-42 157.5z" />
<glyph unicode="T" horiz-adv-x="1046" d="M1245 1204q-51 8 -108.5 12.5t-122.5 4.5h-46.5t-45.5 -2v-17q0 -14 -2 -27.5t-9 -29.5q-74 -197 -131 -373t-95 -327.5t-58.5 -275.5t-20.5 -214q0 -6 -9 -8t-21.5 -4t-24.5 -2h-16q-90 0 -132.5 55t-42.5 154q0 135 56.5 394t208.5 644q-51 -8 -108.5 -23.5 t-102.5 -15.5q-66 0 -100.5 58.5t-34.5 133.5v20.5t2 20.5q90 25 186 42.5t191.5 29.5t184.5 17.5t165 5.5q63 0 110 -3.5t79 -19.5t47.5 -49t15.5 -92q0 -25 -4.5 -52.5t-10.5 -56.5z" />
<glyph unicode="U" horiz-adv-x="1007" d="M809 160q-68 -117 -153 -182.5t-183 -65.5q-55 0 -110.5 22.5t-114.5 67.5q-41 31 -68.5 76t-44 95t-23 102.5t-6.5 99.5q0 63 11 104q41 190 115.5 437t195.5 530q98 -8 161.5 -51t63.5 -117q0 -23 -10 -57q-53 -166 -100 -309.5t-84 -266.5t-58.5 -225.5t-21.5 -183.5 q0 -51 14.5 -73t36.5 -22q33 0 72 54.5t81 149.5t88 224t96 278.5t104.5 311.5t111.5 324q98 -8 160.5 -51t62.5 -119q0 -29 -8 -56q-39 -133 -81 -280.5t-90 -293.5t-102.5 -281.5t-115.5 -241.5z" />
<glyph unicode="V" horiz-adv-x="1083" d="M563 1176q0 -76 -9 -182.5t-30.5 -239.5t-58.5 -288t-90 -325q111 184 218 380t195.5 375t149.5 326.5t78 233.5q33 6 65 6q80 0 123 -43t43 -114q0 -27 -22.5 -97.5t-65.5 -175t-107.5 -235.5t-149.5 -276.5t-188.5 -300t-226.5 -304.5q-80 0 -142 20.5t-106 54.5 t-66.5 77t-22.5 88q0 23 6 45q84 303 116.5 572t32.5 468q0 59 -3 111.5t-7 95.5q18 4 35.5 6t34.5 2q96 0 144 -61.5t54 -171.5v-47z" />
<glyph unicode="W" horiz-adv-x="1552" d="M561 1165q0 -68 -6 -162t-20.5 -206.5t-41 -242.5t-65.5 -271q96 162 176 322.5t138.5 314t93 294t43.5 261.5q51 10 86 10q113 0 153.5 -71t40.5 -214q0 -70 -4 -162t-15.5 -200.5t-28.5 -229.5t-44 -246q160 297 268.5 588t165.5 547q33 6 66 6q80 0 122 -45t42 -117 q0 -29 -11 -73q-25 -98 -78 -247t-132.5 -323t-188.5 -365.5t-246 -375.5q-154 0 -234.5 47t-80.5 123q0 23 10 53q47 143 74.5 273.5t42.5 248.5q-47 -106 -99.5 -215.5t-106.5 -214t-107.5 -195.5t-100.5 -161q-80 0 -140.5 20.5t-101.5 53.5t-62.5 76t-21.5 86q0 25 7 49 q84 303 116.5 572t32.5 468q0 59 -3 111.5t-7 95.5q18 4 35.5 6t33.5 2q96 0 144.5 -61.5t54.5 -171.5v-58z" />
<glyph unicode="X" horiz-adv-x="1120" d="M240 -66q-20 -4 -38 -6t-34 -2q-84 0 -114.5 45t-30.5 111q0 96 103 264t288 397q-37 147 -69 321.5t-48 375.5q49 16 98 16q59 0 107.5 -25.5t56.5 -78.5q12 -90 27.5 -178.5t36.5 -180.5q100 119 209.5 245t226.5 257q78 -4 114.5 -46t36.5 -99q0 -35 -14 -72t-43 -68 q-123 -133 -237.5 -262t-219.5 -254q57 -199 133 -384t175 -343q-20 -27 -58.5 -45t-85.5 -18q-49 0 -88 16.5t-80 73.5t-86 164.5t-106 290.5q-123 -166 -191.5 -297.5t-68.5 -217.5z" />
<glyph unicode="Y" horiz-adv-x="927" d="M1055 1227q-12 -27 -44 -80t-76 -119.5t-97.5 -142.5t-109.5 -149.5t-113.5 -140.5t-108.5 -114q-35 -51 -63.5 -124.5t-51 -151.5t-38 -149.5t-23.5 -116.5q-39 -8 -76 -9q-86 0 -125 40t-39 98q0 57 33 170.5t110 279.5q20 123 27.5 260t7.5 269q0 123 -5 224t-9 161 q55 18 102 18q104 0 137 -69.5t33 -213.5q0 -86 -6 -183t-24 -206q68 94 129 195.5t111 194t87 168t54 120.5q37 6 65 6q72 0 106.5 -33.5t34.5 -89.5q1 -49 -28 -112z" />
<glyph unicode="Z" horiz-adv-x="974" d="M989 1225q-33 -37 -83 -102.5t-109.5 -149.5t-125 -182.5t-129 -201t-123 -203.5t-104.5 -193q68 10 127.5 15t114.5 5q51 0 101.5 -1t89 -15.5t63.5 -49t25 -102.5q0 -25 -4.5 -52.5t-10.5 -55.5q-66 10 -123 16t-116 6q-78 0 -167 -12.5t-210 -40.5q-49 0 -86 16.5 t-61.5 44t-39 62t-18.5 69.5q31 86 101.5 220.5t162.5 290t199.5 318.5t214.5 306q-63 -8 -136 -22.5t-165 -36.5q-10 -4 -18.5 -4.5t-16.5 -0.5q-66 0 -100.5 58.5t-34.5 134.5v20.5t2 20.5q160 43 283.5 60.5t228.5 17.5q53 0 103 -1t90 -14.5t65 -44t25 -90.5 q0 -25 -4.5 -51t-10.5 -55z" />
<glyph unicode="[" horiz-adv-x="827" d="M961 1331q-92 12 -173 12q-33 0 -63.5 -2t-62.5 -8q-80 -209 -142.5 -388t-110 -343t-80 -320.5t-57.5 -322.5q25 4 47.5 4h45.5q98 0 140 -28.5t42 -112.5q0 -29 -5 -57.5t-16 -57.5q-47 6 -89 10t-83 4q-49 0 -96 -6t-98 -22q-18 -6 -35 -6q-47 0 -86 41t-39 133v19 t2 20v4q6 143 36 306t83 358.5t132 431t183 524.5q104 33 199.5 48t169.5 15q96 0 136 -29.5t40 -111.5q0 -29 -5 -57.5t-15 -57.5z" />
<glyph unicode="\" horiz-adv-x="690" d="M690 -313q-31 -47 -64.5 -68.5t-66.5 -21.5q-45 0 -85 38.5t-58 108.5q-84 295 -188.5 748.5t-227.5 1061.5q63 55 133 56q53 0 95 -35t55 -100q92 -489 193 -929.5t214 -858.5z" />
<glyph unicode="]" horiz-adv-x="745" d="M784 1331q-102 -238 -170.5 -438.5t-115.5 -385.5t-77 -368.5t-50 -384.5q0 -8 -1 -15t-1 -18q-47 6 -89 10.5t-83 4.5q-49 0 -96.5 -6t-98.5 -23q-18 -6 -35 -6q-47 0 -86 41t-39 133v19.5t2 19.5q80 25 152 39t133 18q10 127 37 269.5t72 308.5t107.5 360.5 t146.5 425.5q-29 -4 -55.5 -14t-53.5 -10q-47 0 -86 41t-39 133v19t2 20q104 33 199.5 48t169.5 15q96 0 136 -28.5t40 -114.5q0 -29 -5.5 -57.5t-15.5 -55.5z" />
<glyph unicode="^" horiz-adv-x="915" d="M551 1278q-45 -43 -89 -97.5t-85 -111.5t-77 -113.5t-64 -103.5q-86 4 -120 43t-34 84q0 41 22 74q182 252 424 481q33 31 62 31q18 0 35 -15q31 -23 55.5 -41t40.5 -38.5t24.5 -46t8.5 -62.5q0 -16 -1 -50t-1 -79q0 -88 10 -205t45 -229q-90 -39 -150 -39 q-80 0 -108.5 61.5t-28.5 153.5q0 70 10.5 147.5t20.5 155.5z" />
<glyph unicode="_" horiz-adv-x="1331" d="M1204 -383q-121 18 -270 18q-90 0 -184.5 -5t-188.5 -13t-183 -18.5t-169 -20.5q-4 0 -9 -1t-10 -1q-59 0 -89.5 43t-30.5 115q0 6 1 12t1 12q111 18 206 33.5t185 25t179 14.5t187 5q72 0 149 -3t165 -7q41 -4 58.5 -29.5t17.5 -72.5q0 -23 -4.5 -50.5t-10.5 -56.5z" />
<glyph unicode="`" horiz-adv-x="643" d="M588 1184q18 -37 18 -80q0 -49 -25.5 -89t-76.5 -42q-51 51 -93 90t-79 71.5t-72 61.5t-67 57q-18 16 -26.5 37t-8.5 43q0 53 43 103.5t118 66.5q33 -25 70 -64.5t73 -83.5t68.5 -89t57.5 -82z" />
<glyph unicode="a" horiz-adv-x="911" d="M545 90v30.5t2 33.5q-68 -78 -143.5 -123t-143.5 -45q-43 0 -79 20.5t-63.5 64.5t-43 115.5t-15.5 173.5q0 125 44 249t123 223.5t184.5 161t228.5 61.5q57 0 123.5 -13.5t124 -38t96.5 -59.5t39 -80q0 -14 -6 -33q-45 -127 -85 -245.5t-70 -225t-47 -198.5t-17 -162 v-32.5t4 -30.5q-23 -10 -49.5 -13.5t-42.5 -3.5q-88 0 -126 45t-38 125zM610 494q23 74 54.5 155.5t74.5 173.5q-18 12 -36.5 19.5t-45.5 7.5q-49 0 -92 -28.5t-76.5 -75t-59.5 -104.5t-43 -115.5t-26.5 -109.5t-9.5 -87q0 -72 14.5 -103.5t36.5 -31.5q23 0 50.5 25.5 t57.5 68.5t56.5 96.5t44.5 108.5z" />
<glyph unicode="b" horiz-adv-x="944" d="M719 1341q-92 -184 -166 -368q82 25 147 24q80 2 135.5 -28.5t89 -81.5t48 -114.5t10.5 -127.5q-6 -115 -48 -212t-104.5 -177t-143.5 -141.5t-166 -102.5t-167 -62.5t-149 -23.5q-27 0 -53.5 12.5t-48 34t-37 52t-19.5 67.5q2 55 26.5 193.5t79 330t142.5 423t223 468.5 q92 -4 153.5 -35.5t59.5 -87.5q0 -16 -12 -43zM469 754q-63 -180 -103 -332t-65 -268q106 23 182 74t127.5 114.5t79 133t31.5 130.5q2 70 -24.5 119t-112.5 49q-45 -2 -115 -20z" />
<glyph unicode="c" horiz-adv-x="845" d="M801 485q-25 -4 -46.5 -6t-39.5 -2q-78 0 -104.5 31t-26.5 74q0 49 16 101t16 85q0 41 -8 57.5t-22 16.5q-37 0 -75 -42t-71.5 -97.5t-58.5 -111.5t-37 -83q-74 -172 -74 -307q0 -47 18.5 -67.5t47.5 -20.5q51 0 90 26.5t72.5 59t66.5 59.5t74 27q51 0 96 -45 q-33 -61 -76 -115.5t-94 -94.5t-110.5 -62.5t-122.5 -22.5q-150 0 -241 79.5t-91 243.5q0 72 19.5 158t56.5 172t87 167t111.5 143.5t132 99t146.5 36.5q55 0 111.5 -18t101.5 -51t72.5 -79t27.5 -101q0 -72 -16 -158t-49 -152z" />
<glyph unicode="d" horiz-adv-x="1087" d="M795 -78q-35 -6 -62 -6q-84 0 -121 40t-37 112q0 14 2.5 39.5t8.5 64.5q-72 -84 -157 -135t-163 -51q-45 0 -83 20.5t-66.5 65.5t-45 115.5t-16.5 172.5q0 125 44 249t123 223.5t184.5 161t228.5 61.5q39 0 83 -15.5t85 -48.5q51 135 114.5 274.5t141.5 280.5 q94 -6 153.5 -37.5t59.5 -87.5l-15 -43q-113 -221 -195.5 -444t-138 -419t-85 -344t-31.5 -218q0 -8 -4 -21zM346 330q0 -72 16.5 -102.5t45.5 -30.5t64.5 28.5t70.5 73.5t65.5 102.5t48.5 114.5q16 72 39 148.5t52 162.5q-49 23 -95 23q-49 0 -92 -28.5t-76.5 -75 t-59.5 -104.5t-43 -115.5t-26.5 -109.5t-9.5 -87z" />
<glyph unicode="e" horiz-adv-x="798" d="M752 219q-66 -123 -166.5 -198.5t-227.5 -75.5q-154 0 -247 78.5t-93 244.5q0 72 19.5 158t56.5 172t87 167t111.5 143.5t132.5 99t146 36.5q53 0 109.5 -17t103.5 -50t78 -79t31 -103q0 -82 -32 -158t-102.5 -135.5t-181 -98t-268.5 -47.5q-20 -82 -20 -155 q0 -53 16.5 -76t40.5 -23q39 0 65.5 27t53.5 59.5t58.5 59t80.5 26.5q66 0 148 -55zM604 842q-37 0 -73.5 -40t-69.5 -94.5t-58.5 -108.5t-37.5 -85q76 20 128 52t83.5 66t45 69.5t13.5 66.5q0 41 -8.5 57.5t-22.5 16.5z" />
<glyph unicode="f" horiz-adv-x="831" d="M760 1294q-57 0 -95 -61.5t-79 -177.5h18q45 0 81 -2t60.5 -13.5t37 -35t12.5 -66.5q0 -45 -13 -100q-37 4 -69.5 5t-61.5 1q-39 0 -72.5 -1t-66.5 -3q-47 -152 -86 -303.5t-82 -335.5q-18 -78 -28.5 -145.5t-12.5 -102.5q-43 -25 -86 -25q-59 0 -102 40t-43 100 q0 98 36.5 285.5t114.5 443.5l-26 -6q-8 -2 -14.5 -3.5t-12.5 -1.5q-49 0 -66.5 43t-17.5 109q0 10 1 19.5t1 19.5q55 16 111.5 27.5t111.5 21.5q33 96 77 187.5t99.5 162t126 112.5t158.5 42q96 0 219 -62v-30q0 -51 -6 -84t-17.5 -51.5t-26.5 -25.5t-34 -7q-33 0 -70.5 12 t-76.5 12z" />
<glyph unicode="g" horiz-adv-x="980" d="M453 -98q10 35 23 93t30 138q-61 -59 -128 -93t-126 -34q-43 0 -81 20.5t-65.5 64.5t-43 116t-15.5 174q0 125 43 246t114.5 216t165 153.5t195.5 58.5q53 0 120 -27t120 -72l43 86q20 4 35 5q31 0 61.5 -13.5t54 -35t38 -51t14.5 -62.5q0 -23 -11 -54 q-90 -225 -144 -376.5t-88 -259t-55.5 -183t-43.5 -149.5q-59 -188 -156.5 -272.5t-267.5 -84.5q-82 0 -143.5 21.5t-101.5 57.5t-60.5 83t-20.5 99q0 82 45 153q61 -8 107.5 -46t84 -81t68.5 -76.5t60 -33.5q31 0 61.5 48t67.5 171zM608 489q35 100 67 178t66 156 q-53 27 -100 27q-49 0 -91 -27.5t-76 -71.5t-59.5 -98.5t-43 -111t-25.5 -106.5t-8 -85q0 -72 15.5 -103.5t39.5 -31.5q25 0 53.5 23.5t58.5 61.5t56.5 87t46.5 102z" />
<glyph unicode="h" horiz-adv-x="886" d="M666 -55q-35 -6 -66 -6q-80 0 -121 40.5t-41 112.5q0 70 36 212t112 335q6 27 6 47q0 49 -35 49t-88 -46t-115 -146q-47 -201 -67.5 -352.5t-20.5 -223.5v-20l-8 -10q-35 -6 -61 -7q-90 0 -131 45t-41 125q2 55 20 200.5t63.5 346.5t122 438.5t197.5 475.5 q92 -6 155.5 -38t63.5 -87q0 -16 -10 -43q-68 -152 -122 -302.5t-95 -297.5q63 86 151 150.5t193 74.5q86 -4 139 -47t53 -103q0 -27 -12 -53q-66 -137 -116 -266t-84.5 -240.5t-52 -203t-17.5 -152.5z" />
<glyph unicode="i" horiz-adv-x="464" d="M250 -55q-35 -6 -66 -6q-86 0 -127 46t-41 124q0 55 14.5 144t46.5 207t84 259t130 299q92 -6 154.5 -39t62.5 -90q0 -20 -8 -39q-55 -129 -100.5 -258t-76 -244t-48 -211t-17.5 -160v-24zM485 1116q-61 0 -96 25.5t-46 63.5t-2 82t33.5 82t63.5 63.5t88 25.5 q61 0 98.5 -25.5t52.5 -63.5t10 -82t-30.5 -82t-69 -63.5t-102.5 -25.5z" />
<glyph unicode="j" horiz-adv-x="450" d="M455 1116q-80 0 -115 40t-35 93q0 37 14.5 74t40 66.5t60.5 49t76 19.5q84 0 122.5 -45t38.5 -102q0 -35 -13 -70t-39.5 -62.5t-63.5 -45t-86 -17.5zM281 1018q90 -6 151.5 -38t61.5 -87q0 -18 -11 -43q-31 -70 -69.5 -179.5t-77.5 -237.5t-76 -263t-65 -254 q-18 -72 -42 -142.5t-60 -126t-88 -90t-126 -34.5q-41 0 -72.5 16.5t-52 40t-31 49t-10.5 45.5q0 10 2 15q66 12 108 40.5t69.5 69.5t44 90.5t30.5 102.5q29 127 58.5 256t65.5 258t82.5 257t107.5 255z" />
<glyph unicode="k" horiz-adv-x="950" d="M811 0q-49 -35 -95 -48t-87 -13q-55 0 -100.5 30.5t-80 85t-61.5 125t-47 150.5q-31 -125 -46 -223.5t-18 -149.5q-20 -27 -79 -27q-82 0 -117 39t-35 111q0 20 9 91t32 179.5t58.5 248.5t90 298t127 327t166.5 337q94 -6 153.5 -38t59.5 -87l-14 -43 q-113 -223 -195.5 -445.5t-138.5 -419.5q156 111 273.5 235t210.5 267q80 -29 112.5 -66.5t32.5 -80.5q0 -53 -46 -120t-114.5 -134.5t-148.5 -129t-148 -106.5q25 -90 87.5 -189.5t158.5 -203.5z" />
<glyph unicode="l" horiz-adv-x="385" d="M238 -63q-35 -6 -62 -7q-84 0 -121 40t-37 112q0 23 9.5 94.5t32 181t59.5 248.5t90 296t126 325t167 334q94 -6 153.5 -38t59.5 -87q-123 -246 -209 -481.5t-142.5 -435.5t-86 -351t-39.5 -231z" />
<glyph unicode="m" horiz-adv-x="1314" d="M793 537q-66 -186 -105 -338t-39 -240q0 -8 -11 -12t-24.5 -6t-24.5 -2h-14q-80 0 -120.5 40.5t-40.5 112.5q0 70 35.5 212t111.5 335q8 27 8 53q0 43 -28 43q-29 0 -80 -49t-117 -154q-29 -94 -50.5 -182t-34.5 -164.5t-19.5 -138t-6.5 -102.5q-23 -10 -40 -12.5 t-33 -2.5q-78 0 -119 40t-41 110q0 43 11.5 140t43 231.5t89 292t147.5 321.5q88 -4 149.5 -36t61.5 -85q0 -23 -11.5 -42t-17.5 -40q51 63 116.5 105.5t149.5 50.5q102 -10 137 -42t35 -77q0 -27 -6 -51q53 72 124 121t161 57q111 -10 152.5 -48t41.5 -89q0 -29 -9 -56.5 t-23 -56.5q-61 -121 -108.5 -241.5t-79 -228t-48 -195.5t-16.5 -146q0 -6 -11.5 -10t-24.5 -5t-24.5 -2t-13.5 -1q-80 0 -121 41t-41 112q0 70 36 212.5t112 334.5q8 27 8 53q0 43 -29 43t-80.5 -48.5t-117.5 -157.5z" />
<glyph unicode="n" horiz-adv-x="831" d="M244 -55q-23 -10 -40.5 -12.5t-33.5 -2.5q-78 0 -119 40t-41 110q0 43 11.5 140t43 231.5t89 292t147.5 321.5q88 -4 149.5 -36t61.5 -85q0 -23 -12 -47l-19 -37q59 63 132 106.5t157 51.5q111 -10 153 -48t42 -89q0 -29 -9.5 -56.5t-23.5 -56.5q-61 -121 -108.5 -241.5 t-79 -228.5t-48 -196t-16.5 -145q0 -6 -11.5 -10t-24.5 -5t-24.5 -2t-13.5 -1q-80 0 -121 40.5t-41 112.5q0 70 36 212t112 335q4 14 6 26.5t2 22.5q0 47 -37 47q-33 0 -88 -49t-121 -154q-29 -94 -50 -182t-34.5 -164.5t-19.5 -138t-6 -102.5z" />
<glyph unicode="o" horiz-adv-x="864" d="M815 963q41 -39 60.5 -88.5t19.5 -104.5q0 -66 -12.5 -143.5t-34.5 -157.5q-70 -248 -196 -387t-271 -139q-70 0 -129 13t-111 48h2q-66 37 -94.5 103.5t-28.5 160.5q0 72 19.5 158t56.5 172t87 167t111.5 143.5t132.5 99t146 36.5q27 0 60 -7t65.5 -19t63 -26.5 t53.5 -28.5zM608 844q-39 0 -112 -101q-47 -63 -85 -134.5t-65 -143.5t-41 -140.5t-14 -123.5q0 -94 43 -95q29 0 62.5 33t67.5 87.5t65.5 124t55 143t38 145.5t14.5 129q0 33 -6 53.5t-17 22.5h-6z" />
<glyph unicode="p" horiz-adv-x="944" d="M180 -492q-23 -10 -38 -13t-31 -3q-90 0 -131 45t-41 125q2 55 19 192.5t61 329t120 422t197 467.5q72 -4 127 -25.5t78 -56.5q39 6 77 6q84 0 147.5 -30.5t106.5 -80.5t64.5 -113.5t21.5 -129.5q0 -174 -75.5 -299t-186 -209t-236.5 -132t-227 -69q-29 -139 -41 -246.5 t-12 -179.5zM487 772q-66 -160 -115.5 -315.5t-86.5 -296.5q98 25 174 75t129 113.5t80.5 131t27.5 126.5q0 68 -42 118t-134 50q-8 0 -16.5 -1t-16.5 -1z" />
<glyph unicode="q" horiz-adv-x="944" d="M471 -412q2 55 19.5 192.5t60.5 330.5q-63 -57 -131 -91t-129 -34q-45 0 -83 20.5t-66.5 64.5t-45 115.5t-16.5 173.5q0 125 44 249t123 223.5t184.5 161t227.5 61.5q57 0 131 -13.5t138.5 -39t108.5 -61.5t44 -81v-13t-4 -16q-100 -221 -169.5 -437t-112.5 -401.5 t-62.5 -326.5t-19.5 -211v-20q-43 -18 -84 -19q-66 0 -110 46t-48 126zM625 389q31 104 70.5 212t88.5 220q-27 12 -53 20.5t-53 8.5q-51 0 -93 -28.5t-76 -75t-59.5 -104.5t-43 -115.5t-26.5 -109.5t-9 -87q0 -72 16 -103.5t45 -31.5q20 0 45 15t50.5 42t50 61.5t47.5 75.5 z" />
<glyph unicode="r" horiz-adv-x="784" d="M311 -55q-23 -10 -40 -12.5t-33 -2.5q-78 0 -118 39t-40 107q0 113 23.5 239.5t62.5 256.5t91 256t112 237q88 -4 149.5 -36t61.5 -85q0 -29 -21.5 -71t-38.5 -78q37 51 79 99t86 85t90 59.5t89 22.5q51 0 72.5 -22.5t21.5 -59.5q0 -29 -11 -64.5t-29.5 -72.5t-41 -72 t-47.5 -65q-29 10 -62.5 20t-74.5 10q-35 0 -71.5 -12t-73.5 -45t-73 -89.5t-66 -144.5q-55 -158 -76 -292.5t-21 -206.5z" />
<glyph unicode="s" horiz-adv-x="874" d="M100 602q0 41 19.5 89t53.5 97.5t79 95.5t96 81.5t105.5 57t105.5 21.5q27 0 60.5 -7t67.5 -19t63.5 -26.5t52.5 -28.5q41 -41 59.5 -91.5t18.5 -107.5t-10.5 -114.5t-34.5 -141.5q-23 -2 -43.5 -3t-36.5 -1q-86 0 -121 29.5t-35 89.5q0 43 11.5 76.5t11.5 68.5 q0 76 -29 76q-25 0 -58.5 -32t-64.5 -75t-52.5 -88t-21.5 -69q0 -39 26 -67t64.5 -51.5t83.5 -48t84 -57t64.5 -78t25.5 -108.5q0 -45 -31.5 -85t-86 -70.5t-125 -49t-148.5 -18.5q-66 0 -127 19.5t-109 59.5t-80 101t-38 143q35 14 76 15q57 0 93 -28t64.5 -59.5t62.5 -59 t89 -27.5q41 0 58.5 19.5t17.5 41.5q0 20 -14.5 37.5t-34 34t-40 30t-32.5 23.5q-47 37 -90 63.5t-76 57.5t-53.5 72.5t-20.5 111.5z" />
<glyph unicode="t" horiz-adv-x="704" d="M119 174q6 70 43 227.5t133 393.5q-23 -8 -41 -9q-49 0 -66.5 43t-17.5 109q0 10 1 19.5t1 19.5q55 16 112.5 27.5t112.5 21.5q39 80 82 165t96 177q39 -4 77 -11t67 -20.5t47 -36t18 -53.5q0 -18 -9 -43.5t-21.5 -51.5t-26.5 -51.5t-25 -45.5q90 0 133.5 -19.5 t43.5 -97.5q0 -45 -13 -100q-33 4 -64.5 6t-66.5 2q-66 0 -133 -6q-41 -92 -77 -181.5t-63.5 -168t-43 -145t-15.5 -112.5q0 -43 13.5 -69.5t36 -40.5t52.5 -19.5t60 -5.5q-18 -35 -45.5 -61.5t-62.5 -47t-74 -30.5t-76 -10q-80 0 -134 51t-54 174z" />
<glyph unicode="u" horiz-adv-x="944" d="M750 -27q-23 -10 -40.5 -12t-33.5 -2q-80 0 -121 41t-41 113q0 35 8 75q-27 -39 -60.5 -80.5t-73.5 -75.5t-88 -56.5t-103 -22.5q-84 0 -124 41t-40 112q0 49 18.5 139.5t57 211.5t100 267t147.5 308q92 -4 152.5 -35.5t60.5 -87.5q0 -18 -10 -45q-68 -139 -122 -275 t-93 -257q-8 -25 -8 -49q0 -47 35 -47t92 51t123 162v-3q39 123 100.5 272.5t153.5 319.5q88 -4 148.5 -36.5t60.5 -86.5q0 -25 -11 -45h2q-66 -137 -119 -271t-90.5 -253t-59 -215.5t-21.5 -157.5z" />
<glyph unicode="v" horiz-adv-x="864" d="M416 848q0 -186 -40 -349t-93 -315q88 119 173 244t153.5 236.5t115.5 205t61 150.5q16 4 32 4h32q76 0 118 -34t42 -87q0 -27 -43 -120t-127 -227t-209 -295t-289 -320q-74 0 -131 16t-97 43t-60.5 60.5t-20.5 66.5q0 10 4 27q72 205 101.5 392t29.5 318q0 39 -2 75 t-8 73q23 4 41 6t32 2q90 0 135.5 -46t49.5 -126z" />
<glyph unicode="w" horiz-adv-x="1280" d="M924 823q0 -88 -13.5 -221t-52.5 -287q129 193 214 380.5t132 353.5q16 4 30.5 4h29.5q78 0 117.5 -35t39.5 -88q0 -47 -41 -150.5t-115.5 -235.5t-181 -282.5t-237.5 -292.5q-143 0 -215 42t-72 102q0 10 4 26q31 78 51.5 150.5t36.5 142.5q-41 -68 -83 -137.5t-85 -133 t-85 -119.5t-79 -99q-72 0 -127 15t-93 41t-57 58.5t-19 65.5q0 10 4 31q72 205 100.5 391t28.5 321q0 37 -2 74t-9 72q41 8 74 8q96 0 139 -54.5t43 -146.5q0 -90 -20.5 -236.5t-77.5 -324.5q150 207 243 406.5t109 365.5h2q39 4 57.5 7t30.5 3q92 0 135.5 -56.5 t43.5 -160.5z" />
<glyph unicode="x" horiz-adv-x="905" d="M205 -45q-45 -23 -76 -23q-74 0 -104.5 43t-30.5 91q0 33 26.5 78.5t73.5 101t109.5 119t134.5 133.5q-37 111 -66.5 238.5t-46.5 277.5q45 14 101 14q55 0 100 -20.5t53 -61.5q25 -133 62 -262q117 104 205 190.5t112 157.5q72 -6 115 -42t43 -91q0 -43 -30 -90 t-82 -101.5t-124.5 -119t-158.5 -144.5q47 -121 107 -232.5t134 -205.5q-18 -31 -55 -47t-78 -16q-43 0 -78 13t-68.5 49t-70.5 99.5t-82 163.5q-96 -92 -160.5 -174t-64.5 -139z" />
<glyph unicode="y" horiz-adv-x="768" d="M-123 -401q96 72 175 156.5t145 178.5q0 197 -10.5 347.5t-29 273.5t-45 228.5t-59.5 209.5q27 16 54.5 25.5t54.5 9.5q63 0 111.5 -37t64.5 -117q27 -127 44 -249.5t17 -255.5q0 -18 -1 -36t-1 -36q86 193 137.5 380t83.5 345q16 4 32 6l32 4q76 0 120 -45t44 -117 q0 -14 -2 -29.5t-6 -31.5q-41 -154 -105.5 -314.5t-146.5 -319.5t-176.5 -309.5t-194.5 -283.5q-31 -41 -84 -61.5t-96 -20.5q-49 0 -91 25t-67 74z" />
<glyph unicode="z" horiz-adv-x="782" d="M844 848q-43 -39 -115 -116t-153.5 -172t-162.5 -199.5t-143 -198.5q57 10 115.5 15t120.5 5q49 0 86 -4t61.5 -18.5t38 -41t13.5 -71.5q0 -51 -21 -92q-59 8 -108.5 12t-102.5 4q-66 0 -141.5 -8t-179.5 -26h-2q-92 0 -138.5 45t-52.5 98q27 57 85 145t135 190.5 t167 211t180 207.5q-59 -8 -119.5 -20.5t-119.5 -27.5q-10 -2 -27 -2q-57 0 -86 51.5t-29 122.5v19q139 39 275.5 58.5t241.5 19.5q45 0 80.5 -2t60 -13.5t38 -35t13.5 -66.5q0 -23 -2 -42t-8 -48z" />
<glyph unicode="{" horiz-adv-x="880" d="M1044 1331q-92 12 -172 12q-33 0 -63.5 -2t-63.5 -8q-39 -104 -64.5 -203.5t-57 -184.5t-77.5 -150.5t-126 -102.5q45 -29 82 -76t37 -129q0 -31 -7 -67q-16 -80 -28 -140.5t-23.5 -113.5t-21.5 -102.5t-19 -104.5q25 4 47.5 4h42.5q98 0 140.5 -28.5t42.5 -112.5 q0 -29 -5.5 -57.5t-15.5 -57.5q-47 6 -89 10t-83 4q-49 0 -96 -6t-98 -22q-18 -6 -35 -6q-47 0 -86 41t-39 133v19t2 20v4q2 55 10 120.5t20.5 136t29 142.5t32.5 141q8 33 8 60q0 51 -55 51q-16 0 -43 -6t-51 -6q-59 0 -89 46t-30 99q0 41 14 72q70 12 130.5 25.5t108.5 35 t81 54t45 86.5l141 563q104 33 199.5 48t169.5 15q96 0 136 -29.5t40 -111.5q0 -29 -5.5 -57.5t-15.5 -57.5z" />
<glyph unicode="|" horiz-adv-x="987" d="M354 -317q-31 -6 -55 -7q-72 0 -103.5 44t-31.5 110q0 39 12 86q86 319 165 592.5t141.5 485.5t102.5 356.5t48 208.5q92 -8 141 -49.5t49 -114.5q0 -43 -14 -86q-43 -135 -93 -297t-100.5 -328t-97.5 -326.5t-84 -296t-58.5 -232.5t-21.5 -138v-8z" />
<glyph unicode="}" horiz-adv-x="993" d="M-61 -66q47 -6 88 -10t82 -4q61 0 127 12q39 104 66.5 209t60 197t82 164.5t130.5 113.5q-47 29 -83.5 75t-36.5 132q0 31 6 68q14 76 26.5 133t21.5 103.5t17.5 88t16.5 91.5q-49 -6 -92 -7q-98 0 -140.5 30t-42.5 114q0 57 23 115q47 -6 88 -10.5t82 -4.5q49 0 97 6 t99 23q8 4 16.5 4h18.5q47 0 86 -41t39 -133q0 -8 -1 -17.5t-1 -19.5v-4q-4 -111 -25.5 -233.5t-56.5 -262.5q-10 -41 -10 -59q0 -51 57 -51q16 0 43 5t51 5q59 0 89 -45t30 -98q0 -37 -14 -72q-70 -12 -130.5 -25.5t-108.5 -35t-80.5 -54.5t-45.5 -86l-151 -608 q-104 -33 -199.5 -48.5t-171.5 -15.5q-94 0 -135 29t-41 113q0 57 23 114z" />
<glyph unicode="~" horiz-adv-x="989" d="M967 326q-68 82 -123.5 113.5t-102.5 31.5q-49 0 -95 -24.5t-94 -53t-102.5 -53.5t-121.5 -25q-55 0 -95 17.5t-66 46.5t-38 64.5t-12 74.5q0 59 25.5 114.5t72.5 86.5q29 -78 62.5 -107.5t74.5 -29.5q43 0 92.5 24.5t102.5 55t111.5 55t119.5 24.5q51 0 97.5 -17t82 -48 t57 -74t21.5 -94q0 -41 -16 -87t-53 -95z" />
<glyph unicode="&#xa1;" horiz-adv-x="571" d="M750 1411q0 -41 -14.5 -86t-39 -82t-56.5 -61.5t-67 -24.5q-92 0 -136 31t-44 100q0 41 13.5 86t37 82t57.5 60.5t74 23.5q72 0 123.5 -28.5t51.5 -100.5zM387 1075q92 -18 138 -59t46 -135q0 -57 -15 -156.5t-49 -225.5t-86 -272.5t-126 -300.5q-57 4 -108.5 21.5 t-85 46.5t-46 68.5t5.5 89.5q70 176 124.5 311t94 244.5t66.5 198.5t41 169z" />
<glyph unicode="&#xa3;" horiz-adv-x="935" d="M705 426q-96 12 -189 12q-43 0 -82 -1t-80 -5l-35 -172q102 16 191.5 23.5t161.5 7.5q68 0 94.5 -37t26.5 -98q0 -27 -4.5 -56.5t-10.5 -62.5h-69q-115 0 -225.5 -10.5t-231.5 -38.5q-10 -4 -19.5 -4h-17.5q-66 0 -98.5 54t-32.5 134q0 33 18.5 38t42.5 9q-6 88 -6 191 q-61 2 -94 37.5t-33 89.5q0 4 1 9t1 9l127 20q8 139 35 273.5t84 240t151.5 170t237.5 64.5q61 0 117.5 -22.5t99.5 -63.5t69 -99.5t26 -129.5q0 -43 -1.5 -78t-5.5 -70t-13 -79t-26 -105q-43 -6 -75 -6q-80 0 -114 31.5t-34 101.5q0 35 3 57.5t7.5 42t7.5 42t3 56.5 q0 29 -6.5 57.5t-30.5 28.5q-96 0 -159.5 -118.5t-125.5 -372.5q31 2 60.5 2h60.5q100 0 159.5 -12.5t59.5 -75.5q0 -16 -4 -34.5t-10 -41.5z" />
<glyph unicode="&#xa5;" horiz-adv-x="1024" d="M1204 1227q-12 -27 -44 -80t-76 -119.5t-97 -142.5t-109.5 -149.5t-113.5 -140.5t-109 -114q-35 -51 -63.5 -124.5t-51 -151.5t-38 -149.5t-23.5 -116.5q-39 -8 -76 -9q-86 0 -124.5 40t-38.5 98q0 57 32.5 170.5t110.5 279.5q20 123 27.5 260t7.5 269q0 123 -5 224 t-10 161q55 18 103 18q104 0 137 -69.5t33 -213.5q0 -86 -6 -183t-25 -206q68 94 129.5 195.5t111.5 194t87 168t53 120.5q37 6 66 6q72 0 106.5 -33.5t34.5 -89.5q0 -49 -29 -112zM993 561q-53 2 -104 3t-101 1q-133 0 -267 -11t-302 -44q-10 -2 -26 -2q-55 0 -84 45 t-29 113q0 6 1 12t1 12q150 27 256 42.5t197.5 23.5t183.5 11t213 3q41 0 58.5 -27.5t17.5 -74.5q0 -23 -4.5 -50.5t-10.5 -56.5zM993 211q-53 2 -104 3t-101 1q-133 0 -267 -11t-302 -44q-10 -2 -26 -2q-55 0 -84 45t-29 112q0 6 1 12.5t1 12.5q150 27 256 42t197.5 23.5 t183.5 11.5t213 3q41 0 58.5 -27.5t17.5 -75.5q0 -23 -4.5 -50t-10.5 -56z" />
<glyph unicode="&#xa7;" horiz-adv-x="991" d="M901 518q0 -86 -82 -167t-221 -138q49 -53 83 -107.5t34 -105.5q0 -45 -32 -85t-86 -70.5t-125 -49t-148 -18.5q-66 0 -127.5 19.5t-109.5 59.5t-80 101t-38 143q35 14 76 15q57 0 93 -28t64.5 -59.5t62.5 -59t89 -27.5q41 0 58.5 19.5t17.5 41.5q0 31 -28.5 63.5 t-69.5 65.5t-86 65.5t-78 63.5q-41 37 -67.5 91.5t-26.5 115.5q0 80 55 162t195 143q-31 29 -49.5 71t-18.5 107q0 41 19.5 89t53 97.5t79 95.5t96.5 82t105.5 57.5t105.5 21.5q27 0 60.5 -7.5t67.5 -19.5t63.5 -26.5t51.5 -28.5q41 -41 59.5 -91.5t18.5 -107.5t-10 -114.5 t-35 -141.5q-23 -2 -43 -3t-37 -1q-86 0 -120.5 29.5t-34.5 89.5q0 43 11 76.5t11 68.5q0 76 -28 76q-25 0 -59 -32t-64.5 -75t-52 -88t-21.5 -69q0 -39 25.5 -66.5t64.5 -51.5t84 -48.5t84 -57t64.5 -78t25.5 -108.5zM459 674q-72 -31 -102.5 -69t-30.5 -79t23.5 -76.5 t58.5 -64.5l47 -39q55 20 86.5 46t48 50.5t21.5 46t5 31.5q0 18 -14 36.5t-33.5 34t-40 30t-32.5 24.5z" />
<glyph unicode="&#xa8;" horiz-adv-x="737" d="M150 1260q-63 0 -91 31.5t-28 74.5q0 29 11 58.5t31.5 54t48.5 40t60 15.5q66 0 97.5 -36t31.5 -83q0 -29 -10 -56.5t-30.5 -49t-51 -35.5t-69.5 -14zM543 1274q-59 0 -85 28.5t-26 69.5q0 27 10.5 55.5t30 52t46 38t56.5 14.5q63 0 93 -34t30 -77q0 -27 -10 -52.5 t-30.5 -47t-49 -34.5t-65.5 -13z" />
<glyph unicode="&#xa9;" horiz-adv-x="1419" d="M618 -84q-129 0 -233 43t-179 124t-115 195.5t-40 256.5q0 168 56.5 327.5t159 284.5t242.5 200.5t310 75.5q129 0 233.5 -40t177.5 -119.5t112.5 -197.5t39.5 -273q0 -68 -20.5 -160t-61 -189.5t-103 -191.5t-147.5 -169t-193 -121t-239 -46zM598 35q141 0 253 71.5 t189.5 184t119.5 253t42 275.5q0 98 -23.5 186.5t-71.5 156t-122 106.5t-176 39q-141 0 -252 -72t-187.5 -183.5t-116.5 -249.5t-40 -272q0 -98 22.5 -188t70.5 -157.5t121 -107.5t171 -42zM961 690q-18 -4 -34 -6t-30 -2q-57 0 -76.5 26.5t-19.5 61.5q0 41 12 83t12 71 q0 35 -5 47t-15 12q-53 0 -97 -51t-77 -129t-51.5 -169t-18.5 -173q0 -45 16.5 -64.5t40.5 -19.5q33 0 62 22.5t55.5 50t52 50t54.5 22.5q37 0 71 -37q-49 -102 -126.5 -172.5t-186.5 -70.5q-43 0 -83 16t-70.5 49t-49 83t-18.5 118q0 94 32.5 205.5t88 209t128 163 t152.5 65.5q41 0 82 -15.5t73 -43t52.5 -64.5t20.5 -82q0 -59 -12 -131t-35 -125z" />
<glyph unicode="&#xaa;" horiz-adv-x="956" d="M519 617.679v25.9863t1.70605 28.541q-58.0186 -66.4551 -122.436 -104.794q-64.417 -38.3398 -122.436 -38.3398q-36.6885 0 -67.4043 17.4658q-30.7148 17.4658 -54.1787 54.9531q-23.4629 37.4873 -36.6875 98.4053q-13.2246 60.917 -13.2246 147.82 q0 106.498 37.541 212.145q37.541 105.647 104.944 190.42q67.4043 84.7734 157.418 137.171t194.958 52.3975q48.6328 0 105.372 -11.502q56.7383 -11.502 105.798 -32.376t82.335 -50.6934t33.2754 -68.1592q0 -11.9277 -5.12012 -28.1152 q-38.3936 -108.203 -72.5225 -209.164q-34.1279 -100.961 -59.7246 -191.697q-25.5967 -90.7373 -40.1006 -169.12q-14.5049 -78.3828 -14.5049 -138.022v-27.6895t3.41309 -25.9863q-19.624 -8.51953 -42.2344 -11.501q-22.6104 -2.98242 -36.2617 -2.98242 q-75.082 0 -107.504 38.3398q-32.4219 38.3389 -32.4219 106.498zM574.458 961.883q19.624 63.0469 46.5 132.484t63.5645 147.82q-15.3574 10.2236 -31.1426 16.6143q-15.7842 6.38965 -38.8203 6.38965q-41.8076 0 -78.4961 -24.2822q-36.6875 -24.2812 -65.2705 -63.8984 q-28.582 -39.6182 -50.7656 -89.0332t-36.6885 -98.4053q-14.5039 -48.9893 -22.6094 -93.293q-8.10547 -44.3027 -8.10547 -74.123q0 -61.3428 12.3711 -88.1807q12.3721 -26.8379 31.1426 -26.8379q19.624 0 43.0869 21.7256q23.4629 21.7266 49.0596 58.3613 q25.5967 36.6357 48.2061 82.2178q22.6104 45.5811 37.9678 92.4404z" />
<glyph unicode="&#xab;" horiz-adv-x="1067" d="M549 874q43 -33 62.5 -66.5t19.5 -68.5q0 -45 -29 -89t-75 -81t-102 -66.5t-112 -45.5q80 -63 161 -131t165 -99q-2 -33 -17.5 -58.5t-39 -44t-50 -27.5t-51.5 -9q-16 0 -37 8q-96 43 -177 126t-173 186v22q0 47 9.5 74.5t30 48t54 40t85 53.5t119 87t157.5 141zM889 807 q63 -61 63 -125q0 -39 -22.5 -73t-58 -62.5t-79.5 -51t-87 -34.5q66 -47 134 -82t134 -60q0 -6 1 -11t1 -11q0 -59 -36 -81.5t-71 -22.5q-39 0 -83 19t-88 52t-87 74t-80 84q0 55 14.5 97t71.5 67q14 6 47 22.5t72 44t80 66.5t74 88z" />
<glyph unicode="&#xac;" horiz-adv-x="1374" d="M1157 68q-18 -10 -34.5 -13.5t-30.5 -3.5q-39 0 -65 16.5t-41 41t-21.5 54.5t-6.5 58q0 59 8.5 104.5t28.5 86.5q-96 0 -200.5 -7.5t-207 -17.5t-199.5 -21.5t-179 -21.5q-4 0 -9 -1t-10 -1q-59 0 -89.5 43t-30.5 115q0 6 1 12t1 12q117 20 220 37t204.5 29t203 18 t211.5 6q63 0 132 -3t143 -7q41 -4 57.5 -29.5t16.5 -72.5q0 -12 -1.5 -25.5t-3.5 -27.5v-13q0 -23 -8 -41q-25 -43 -41 -76.5t-25.5 -68.5t-14.5 -78t-9 -104z" />
<glyph unicode="&#xad;" horiz-adv-x="598" d="M541 389q-35 4 -69 7t-66 3q-129 0 -248 -37q-10 -4 -27 -4q-41 0 -72.5 37t-31.5 109q0 31 10 78q104 33 193 48t159 15q92 0 132 -29.5t40 -111.5q0 -29 -5 -57.5t-15 -57.5z" />
<glyph unicode="&#xae;" horiz-adv-x="1419" d="M618 -84q-129 0 -233 43t-179 124t-115 195.5t-40 256.5q0 168 56.5 327.5t159 284.5t242.5 200.5t310 75.5q129 0 233.5 -40t177.5 -119.5t112.5 -197.5t39.5 -273q0 -68 -20.5 -160t-61 -189.5t-103 -191.5t-147.5 -169t-193 -121t-239 -46zM598 35q141 0 253 71.5 t189.5 184t119.5 253t42 275.5q0 98 -23.5 186.5t-71.5 156t-122 106.5t-176 39q-141 0 -252 -72t-187.5 -183.5t-116.5 -249.5t-40 -272q0 -98 22.5 -188t70.5 -157.5t121 -107.5t171 -42zM518 254q-53 0 -94 36t-41 103q0 100 41 259t127 370q-23 20 -36 37.5t-13 32.5 q0 16 26.5 30.5t64.5 24.5t80 16t72 6q53 0 104.5 -11t91.5 -34.5t64.5 -61.5t24.5 -91q0 -59 -28.5 -112.5t-73.5 -99.5t-101.5 -81t-113.5 -57q41 -84 106.5 -169t145.5 -145q-72 -53 -131 -53q-47 0 -84 30.5t-67 80t-52.5 108.5t-42.5 117h-2q-29 -109 -43.5 -196 t-14.5 -140h-10zM850 946q0 39 -32 53.5t-66 14.5q-20 0 -29 -2q-29 -74 -53.5 -149t-46.5 -146q49 12 91 37.5t71.5 57.5t47 66.5t17.5 67.5z" />
<glyph unicode="&#xb0;" horiz-adv-x="712" d="M387 958q-43 0 -84 10.5t-74.5 34t-54 60.5t-20.5 90q0 90 29.5 168t76.5 134t108.5 89t127.5 33q55 0 96 -16.5t69.5 -43t43 -60.5t14.5 -71q0 -78 -26.5 -153.5t-72 -137t-105.5 -99.5t-128 -38zM520 1370q-12 59 -39 60q-25 0 -52.5 -33t-50 -79t-37.5 -97.5 t-15 -87.5q0 -51 32 -52q35 0 65 26t51.5 68t33.5 93t12 102z" />
<glyph unicode="&#xb1;" horiz-adv-x="1112" d="M565 1176q31 6 58.5 10t50.5 4q45 0 70.5 -16.5t25.5 -51.5q0 -78 -9 -144.5t-18 -123.5q53 4 111.5 4h128.5q41 0 58.5 -27.5t17.5 -74.5q0 -23 -4 -50.5t-11 -56.5q-55 2 -106 3t-104 1h-62t-63 -2q-16 -78 -38 -171t-55 -216q-6 0 -13 -1t-13 -1q-66 0 -106 26.5 t-40 80.5q0 8 1 15t4 17q12 63 23 121t22 111q-53 -6 -108.5 -15.5t-115.5 -19.5q-10 -2 -26 -2q-55 0 -84 45t-29 113q0 6 1 12t1 12q129 23 222.5 36t174.5 24q12 84 21.5 166t13.5 172zM948 0q-29 0 -54.5 1t-51.5 1q-82 0 -160 -4t-158 -11t-166 -16.5t-184 -21.5 q-4 0 -9 -1t-9 -1q-59 0 -90 43t-31 114q0 6 1 12.5t1 12.5q150 27 256 42t197.5 23.5t183.5 11.5t213 3q41 0 58.5 -27.5t17.5 -75.5q0 -23 -4.5 -50t-10.5 -56z" />
<glyph unicode="&#xb2;" horiz-adv-x="598" d="M562.387 1088.12q0 -44.9355 -16.2559 -95.7822q-16.2559 -50.8477 -42.8564 -104.946q-26.6006 -54.0996 -61.7725 -107.312q-35.1719 -53.2129 -72.709 -101.695q-37.5361 -48.4814 -74.4814 -88.3906t-67.0928 -67.6982q39.0146 9.45996 79.5068 13.8945 q40.4912 4.43359 87.7822 4.43359q31.3291 0 56.748 -20.6934q25.418 -20.6934 25.418 -55.5771q0 -13.5986 -6.79785 -31.04q-6.79785 -17.4424 -23.3496 -34.5879q-100.491 -2.36523 -185.317 -17.4424q-84.8271 -15.0771 -146.896 -32.2227 q-18.3242 -4.73047 -36.0586 -4.73047q-41.3789 0 -64.1367 39.9092q-22.7588 39.9092 -22.7588 122.093q39.0146 26.6064 84.2354 69.1758q45.2217 42.5703 90.4424 94.5996q45.2217 52.0303 87.1914 109.677t74.4814 113.815q32.5117 56.168 52.0195 108.198 q19.5068 52.0293 19.5068 92.2344q0 7.09473 -4.43359 12.416t-12.709 5.32129q-17.1426 0 -41.3789 -20.3975q-24.2363 -20.3984 -50.8369 -71.2461q-9.45801 -18.3281 -30.7383 -30.4492q-21.2803 -12.1201 -49.0635 -12.1201q-24.2363 0 -50.8369 12.1201 q-26.6006 12.1211 -52.0186 43.457q21.8711 47.2998 54.6787 88.3916t70.3438 72.1318q37.5371 31.041 76.8467 48.4824t75.3682 17.4414q40.1963 0 73.2998 -16.8496q33.1025 -16.8506 56.1572 -42.2744q23.0537 -25.4238 35.7627 -55.5771 q12.709 -30.1543 12.709 -56.7598z" />
<glyph unicode="&#xb3;" horiz-adv-x="661" d="M592.188 1070.02q0 -89.6475 -46.9023 -151.574t-117.108 -100.853q61.3564 -18.2832 91.7393 -67.8252q30.3838 -49.542 30.3838 -110.879q0 -51.9014 -20.0586 -104.981q-20.0596 -53.0811 -58.7021 -96.1348t-94.0996 -70.1846q-55.457 -27.1299 -128.022 -27.1299 q-49.5566 0 -89.9697 15.04q-40.4121 15.0391 -70.7959 42.7588q-30.3828 27.7197 -49.5566 67.2354q-19.1748 39.5156 -23.8936 86.1084q11.7988 18.2832 34.2178 28.6045t36.5771 10.3213q19.4697 0 34.5137 -5.30859q15.0439 -5.30762 27.4336 -29.4893 q26.5479 -54.2598 54.2764 -76.082q27.7285 -21.8213 55.457 -21.8213q26.5479 0 51.3271 17.3984q24.7783 17.3984 43.0674 44.5283t28.9082 59.2734t10.6191 61.043q0 34.7969 -16.8135 58.3877q-16.8145 23.5918 -56.3418 23.5918q-14.749 0 -35.9883 -5.89844 q-21.2383 -5.89746 -37.7578 -5.89746q-20.6484 0 -33.333 10.9111t-21.2383 27.7197q-8.55469 16.8086 -13.2744 36.8613t-8.25977 37.7461q56.6367 10.6162 105.604 32.4385q48.9678 21.8213 84.6602 51.0156q35.6934 29.1943 55.457 62.8125 q19.7637 33.6172 19.7637 70.1836q0 33.6182 -12.6836 52.4912q-12.6846 18.873 -34.5137 18.873q-20.6484 0 -46.6074 -18.2832q-25.958 -18.2842 -54.8662 -57.7988q-15.9297 -21.8223 -35.6934 -31.5537t-40.4121 -9.73145q-27.7285 0 -51.917 16.2188 q-24.1895 16.2197 -31.2686 42.7598q23.0088 54.2598 55.457 93.7754t68.7305 64.876q36.2832 25.3604 74.9258 38.041t76.4004 12.6807q38.9385 0 73.1562 -12.6807t60.7666 -37.4512q26.5479 -24.7705 41.5928 -60.4531q15.0439 -35.6816 15.0439 -81.6846z" />
<glyph unicode="&#xb5;" horiz-adv-x="991" d="M618 449q39 123 100.5 271t153.5 318q88 -4 148.5 -36.5t60.5 -86.5q0 -25 -10 -45h2q-66 -137 -119 -271t-91 -253t-59.5 -215t-21.5 -158l-8 -8q-35 -6 -65 -6q-41 0 -66 16.5t-40 44t-20 63.5t-5 73q-45 -76 -98.5 -116t-98.5 -40q-66 0 -84 80q-61 -150 -130 -278 t-138 -220q-31 -41 -79 -60.5t-95 -19.5q-51 0 -97.5 23.5t-68.5 73.5q106 88 188 198.5t143.5 233.5t103.5 253t70.5 259t45 250.5t26.5 228.5q31 8 64 8q78 0 129 -53t51 -143v-25q-16 -111 -47 -231.5t-72 -243.5q-6 -25 -6 -41q0 -47 35 -47q31 0 83 48.5t115 154.5z " />
<glyph unicode="&#xb6;" horiz-adv-x="1492" d="M657 -444q-37 -12 -63 -13q-66 0 -95.5 48.5t-29.5 119.5q0 104 23.5 238.5t74.5 308.5q-106 2 -182 30.5t-125 77t-71.5 112t-22.5 134.5q0 121 47 209t129 145.5t192.5 85t235.5 27.5q154 0 312.5 -41t332.5 -106q33 -12 48.5 -40t15.5 -65q0 -66 -43 -147l-146 63 q-141 -381 -216 -678.5t-75 -476.5q0 -6 -8 -9t-18 -4t-20.5 -2t-12.5 -1q-61 0 -85 49t-24 123q0 88 13.5 196.5t45.5 240.5t83 290t125 346q-29 10 -56.5 17.5t-58.5 13.5q0 -43 -20 -96q-150 -397 -228 -706.5t-78 -489.5zM573 461q27 0 62 6q33 94 71.5 196.5 t86.5 215.5q-16 0 -34 1t-34 1q-74 0 -129 -26t-92 -64.5t-56.5 -87t-19.5 -93.5q0 -61 35.5 -105t109.5 -44z" />
<glyph unicode="&#xb7;" horiz-adv-x="946" d="M475 971q59 0 111.5 -23.5t91.5 -63.5t61.5 -93.5t22.5 -114.5q0 -74 -27.5 -129t-70.5 -92t-93.5 -55.5t-95.5 -18.5q-59 0 -111.5 23.5t-92.5 63.5t-63.5 93t-23.5 115q0 61 23.5 114.5t63.5 93.5t92.5 63.5t111.5 23.5z" />
<glyph unicode="&#xb9;" horiz-adv-x="448" d="M184 627q-23 -4 -43 -4q-55 0 -80.5 31.5t-25.5 88.5q0 35 8 90.5t21.5 127t39 160.5t58.5 184q-39 12 -68 49q35 63 78 115.5t96 86.5q55 -4 90 -28.5t35 -65.5q0 -18 -8 -41q-45 -121 -82 -238.5t-62.5 -223t-41 -192.5t-15.5 -140z" />
<glyph unicode="&#xba;" horiz-adv-x="819" d="M494 958q-43 0 -84 10.5t-75 34t-54.5 60.5t-20.5 90q0 90 29.5 168t77 134t109 89t126.5 33q55 0 96 -16.5t70 -43t43 -60.5t14 -71q0 -78 -26.5 -153.5t-71.5 -137t-105 -99.5t-128 -38zM627 1370q-12 59 -39 60q-25 0 -52.5 -33t-50 -79t-38 -97.5t-15.5 -87.5 q0 -51 33 -52q35 0 64.5 26t51 68t34 93t12.5 102z" />
<glyph unicode="&#xbb;" horiz-adv-x="1071" d="M522 27q-45 33 -63.5 65.5t-18.5 67.5q0 45 29 89t75 81t101 66.5t111 47.5q-80 61 -161 130t-163 100q2 33 17.5 58.5t38 43t50 26.5t52.5 9q20 0 37 -6q96 -43 177 -126t173 -185v-23q0 -57 -20.5 -97t-84.5 -75q-18 -10 -55 -34.5t-85 -60.5t-103.5 -81t-106.5 -96z M199 109q-70 61 -70 124q0 37 21.5 72t56.5 63.5t78 52t84 38.5q-66 45 -136.5 77.5t-136.5 57.5q-2 10 -2 27q0 57 35 78.5t70 21.5q39 0 83 -18.5t89 -48t89 -68.5t83 -80v-25q0 -47 -16.5 -83t-63.5 -58q-14 -6 -46 -24.5t-71 -47t-77.5 -68.5t-69.5 -91z" />
<glyph unicode="&#xbc;" horiz-adv-x="976" d="M281 713q-4 0 -9.5 -2t-9.5 -2h-16q-55 0 -70 30q-27 27 -26 78q0 16 2 35.5t6 42.5t7 51.5t11 59.5q6 33 15.5 67.5t19.5 75.5q10 39 22.5 79t28.5 81q-20 6 -35 18q-14 8 -26 25q16 27 33.5 52.5t35.5 47.5l34.5 34.5t30 24t34 11.5t47.5 -4q23 -12 35 -31 q6 -10 11 -19.5t5 -19.5q0 -6 -2 -10t-2 -11q0 -4 -2 -8t-2 -10q-16 -43 -30.5 -85t-31.5 -85q-12 -39 -23.5 -80t-23.5 -80q-10 -41 -19 -76.5t-16 -72.5q-10 -33 -16 -63.5t-10 -57.5q-4 -29 -6 -52.5t-2 -43.5zM920 383q18 0 27 -13.5t11.5 -32t0 -38.5t-4.5 -33 l-139 -14l-18 -66q-4 -6 -11.5 -28.5t-15.5 -49t-15 -54t-10 -42.5q-35 -6 -62.5 -5t-43.5 13.5t-20.5 39t10.5 71.5q8 25 16 50.5t19 54.5q-23 -2 -47.5 -8.5t-45.5 -6.5q-12 -4 -22 -4h-17q-20 0 -34 8q-25 20 -27 27q-29 51 -24.5 83t32.5 83q10 23 25.5 46t32.5 50 q16 27 34.5 49.5t34.5 44.5l74 92l65 78l28.5 28.5t23.5 20.5q8 4 15 8.5t15 8.5t16.5 4h14.5q16 0 40 -7t45.5 -21.5t34.5 -39t11 -57.5q-25 -70 -60.5 -160t-70.5 -188l57 8h5zM707 371q0 8 19 56t44 104.5t46.5 108.5t25.5 69q-14 -8 -48 -52.5t-73 -100.5t-75 -112.5 t-52 -87.5q14 2 49 4.5t64 10.5zM276 256q-4 -4 -9 -4h-9h-12q-25 0 -39 8q-16 10 -23 23q-8 14 -8 34v13.5t4 17.5q4 6 6 15.5t7 15.5q20 35 42.5 75t49.5 81q23 43 51.5 91t56.5 101q29 53 61.5 110.5t69.5 123.5l156 292q16 -4 29.5 -7t23.5 -7q18 -12 29 -31 q8 -10 9 -19t1 -20v-24q-4 -8 -7 -14.5t-7 -12.5q-33 -53 -61.5 -103t-55.5 -97q-27 -49 -52.5 -92.5t-51.5 -90.5l-93 -166q-23 -39 -44 -77.5t-42 -77.5q-20 -41 -42 -79t-40 -79z" />
<glyph unicode="&#xbd;" horiz-adv-x="1077" d="M287 707q-10 -4 -19.5 -4.5t-19.5 -0.5q-51 0 -72 31q-14 14 -18 33.5t-4 46.5v36.5t4 43.5t8 52.5t10 64.5q6 33 15.5 66.5t19.5 74.5q14 41 27.5 81t25.5 83q-6 4 -15 7t-16 11l-26 27q14 27 30.5 53.5t36.5 48.5q20 23 43 43.5t45 36.5q16 -4 30 -7t28 -7 q29 -12 41 -31q12 -12 12 -39v-18q-4 -6 -4 -11.5t-4 -11.5q-16 -43 -30.5 -84t-26.5 -84q-14 -45 -26.5 -85t-23.5 -81q-14 -41 -23 -78.5t-18 -70.5q-6 -37 -12 -68.5t-10 -60.5q-6 -31 -7 -54.5t-1 -43.5zM1051 676q0 -45 -15 -88q-12 -47 -39 -99q-14 -23 -27.5 -47 t-29.5 -51l-68 -92q-16 -20 -32.5 -39.5t-32.5 -40.5l-64 -63q16 4 36 7t36 7q20 0 39.5 2t40.5 2q10 0 20.5 -2t20.5 -6q12 -8 27 -27q8 -20 8 -37q0 -16 -4 -26t-10.5 -17.5t-12.5 -13.5q-31 -4 -59.5 -4t-55.5 -4q-29 -4 -54 -9t-48 -10q-16 -4 -44 -7t-56.5 -3t-51 6 t-26.5 19q-23 33 -23 110q16 10 36 25.5t40 36.5q23 20 43.5 40.5t40.5 47.5q20 25 39.5 48.5t40.5 49.5q20 27 37.5 53.5t34.5 53.5q14 29 25 52t20 46q16 41 16 84q0 8 -4 14l-2 2q-2 0 -3 1t-3 1q-12 0 -27 -10q-14 -6 -26 -26q-18 -23 -31 -48q-8 -20 -33 -26 q-6 -8 -18.5 -11.5t-24.5 -3.5q-25 0 -45 15q-14 4 -24.5 13t-24.5 26q20 39 49 80l68 67q33 27 69 43q31 14 68 14q43 0 65 -14q33 -12 54 -39q25 -25 30 -49q15 -26 15 -53zM279 240q-6 -4 -16.5 -4h-14.5q-16 0 -41 10q-16 8 -23 20q-6 23 -7 34t3 34q2 6 6 15t13 20 q20 35 42.5 73.5t45.5 81.5q27 43 54.5 93.5t55.5 103.5q35 53 69 112.5t69 127.5q37 66 76.5 141.5t84.5 154.5q12 0 24.5 -3t22.5 -11q10 -6 19.5 -13t13.5 -18q12 -12 12 -38q0 -18 -4 -27q-4 -8 -5 -14.5t-9 -12.5q-29 -53 -59.5 -103t-59.5 -102q-27 -47 -53.5 -93 t-48.5 -89q-27 -43 -51.5 -85t-46.5 -83q-23 -43 -44.5 -84t-44.5 -82q-20 -41 -40 -79.5t-43 -79.5z" />
<glyph unicode="&#xbe;" horiz-adv-x="1214" d="M459 256q-4 0 -6 -2t-7 -2q-12 4 -22 4t-16 4q-6 8 -12.5 12t-10.5 15q-8 8 -8 30v15.5t4 15.5q0 10 5 17.5t9 17.5q18 33 41 72t49 84q23 43 51.5 89t57.5 99q29 55 62.5 114.5t68.5 125.5t75 137.5t83 148.5q35 0 51 -14q20 -14 31 -29q4 -8 6 -17t2 -24v-20 q-4 -6 -6 -15.5t-6 -15.5q-68 -104 -119 -200q-59 -92 -105 -179q-23 -41 -46 -83t-44 -83q-23 -39 -45 -79.5t-43 -79.5q-23 -37 -42 -77t-40 -81h-18zM647 1362q0 -47 -22 -96q-10 -20 -22.5 -39t-29.5 -35q-16 -16 -33.5 -29.5t-39.5 -27.5q33 -6 59 -35 q14 -10 22.5 -24.5t12.5 -31.5q14 -31 14 -69q0 -33 -10 -74q-6 -20 -15.5 -37.5t-19.5 -36.5q-12 -16 -25.5 -32.5t-29.5 -28.5q-16 -14 -35.5 -23.5t-38.5 -19.5q-43 -14 -96 -14q-29 0 -55.5 4t-49.5 18q-23 12 -40 28.5t-33 37.5q-14 23 -20.5 48t-10.5 52q4 8 16 21 q20 8 23 8q6 4 12 5t10 1h21q8 0 11 -3l7 -7q8 -4 17 -21q8 -16 16 -29.5t14 -23.5q10 -10 17.5 -16.5t17.5 -10.5q10 -6 17.5 -7t17.5 -1q18 0 35 8q10 8 19.5 14.5t15.5 16.5q6 8 13 16.5t13 18.5q10 23 17 45q4 12 5 22.5t1 24.5q0 10 -1 19.5t-5 15.5q-6 20 -21 26 q-6 6 -16 7.5t-23 5.5q-4 -4 -9 -4h-9q-8 -4 -27 -5q-8 -4 -20 -4q-10 0 -17.5 2t-13.5 7q-6 6 -10 12t-8 14q-6 10 -13 35q-4 6 -4 14.5t-4 16.5q27 6 50.5 12t45.5 16q45 23 78 50q16 12 26.5 25t20.5 30q10 14 14.5 29.5t4.5 31.5t-3 27.5t-7 21.5q-10 16 -29 17 q-20 0 -45 -17q-23 -14 -47 -53q-10 -10 -17.5 -16t-17.5 -10q-10 -6 -17.5 -7.5t-17.5 -1.5h-17t-18 4q-6 4 -13 9.5t-13 9.5q-12 12 -13 31q10 23 22.5 44t24.5 38q14 20 30 33.5t32 27.5q16 10 32.5 18.5t37.5 16.5q16 4 32.5 6t36.5 2q31 0 66 -12q12 -4 26.5 -12.5 t24.5 -18.5q29 -29 39 -57q14 -31 14 -74zM1116 383h4h4q18 0 27 -8q4 -4 7 -8.5l7 -10.5q4 -8 4 -30v-13.5t-4 -17.5q0 -6 -3 -14.5t-7 -14.5l-139 -14q-4 -16 -8 -30.5t-9 -31.5q-6 -16 -11 -31.5t-11 -31.5q-4 -16 -8 -30.5t-8 -30.5q-4 -14 -7.5 -26.5t-7.5 -23.5 q-10 -6 -18 -7t-17 -5q-10 -4 -16 -4h-12q-31 0 -49 16q-16 14 -17 45v17.5t4 17.5q0 6 2 15.5t6 19.5t6.5 22.5t6.5 24.5q8 14 12 27.5t10 34.5q-12 -4 -24.5 -4t-22.5 -5q-14 -4 -24.5 -5t-24.5 -5q-10 0 -18.5 -2t-16.5 -2q-20 0 -35 14q-18 6 -24 25q-16 16 -23 35 q-4 14 -6 24.5t-2 20.5q6 18 15.5 38.5t19.5 43.5q12 23 27.5 48.5t31.5 47.5q16 27 33.5 52.5t36.5 47.5q20 23 37.5 45.5t38.5 45.5q16 23 31.5 40t31.5 33l53 53q10 10 31 17q6 0 13.5 2t17.5 2t19.5 -2t23.5 -6q20 -6 39 -23q6 -10 15 -19t16 -24q6 -10 9 -24.5t7 -26.5 q-4 -14 -9 -29.5t-12 -31.5q-8 -16 -14 -35t-16 -39q-12 -43 -31 -78q-6 -23 -13.5 -41t-13.5 -39q-6 -16 -11 -30.5t-9 -24.5zM907 371q4 10 7.5 20t11.5 27q4 16 11 32.5t13 36.5q8 20 16.5 39t14.5 39q10 20 17.5 40t17.5 38q8 20 14 36.5t12 33.5q-23 -27 -46 -55.5 t-46 -57.5t-43 -58.5t-43 -62.5q-20 -29 -36.5 -61.5t-32.5 -61.5q6 0 11 2t15 2h13.5t21.5 5q10 0 22.5 3t28.5 3z" />
<glyph unicode="&#xbf;" horiz-adv-x="1024" d="M74 266q0 100 24.5 177t66.5 137.5t98 108.5t122 91q68 43 113 77t72.5 66.5t44 67.5t26.5 80q29 6 49 6q70 0 108 -40t38 -99q0 -45 -14.5 -83t-51.5 -78t-99.5 -89t-158.5 -119q-100 -72 -136 -143.5t-36 -126.5q0 -63 37 -103t86 -40q45 0 90 40t74 136q16 49 53 71.5 t84 22.5q31 0 60.5 -9t54 -25.5t40 -40t17.5 -52.5q-23 -90 -72 -155.5t-113.5 -108.5t-139 -64.5t-150.5 -21.5t-145.5 20.5t-123 61.5t-86 100t-32.5 135zM1004 1407q0 -41 -14.5 -86t-39 -82t-56.5 -61.5t-67 -24.5q-92 0 -136 30.5t-44 100.5q0 41 13.5 86t37 82 t57 60.5t74.5 23.5q72 0 123.5 -28.5t51.5 -100.5z" />
<glyph unicode="&#xc4;" horiz-adv-x="1067" d="M700 1552q-72 0 -103.5 31t-31.5 74q0 29 12.5 59.5t35 54t54 40t66.5 16.5q78 0 113 -36t35 -83q0 -55 -47.5 -105.5t-133.5 -50.5zM1075 1552q-70 0 -98.5 29t-28.5 70q0 27 12.5 55.5t34 52t51 38.5t66.5 15q72 0 105.5 -33.5t33.5 -76.5q0 -53 -46 -101.5t-130 -48.5 zM197 -90q-20 -6 -37 -7t-35 -1q-80 0 -125 46t-45 120q0 49 48 181t143.5 322.5t236.5 424t324 491.5q92 18 167 18q143 0 216 -55t73 -129q0 -20 -6 -39q-49 -180 -90 -360.5t-69.5 -344t-43 -306t-14.5 -246.5q0 -63 4 -107q-33 -8 -74 -8q-117 0 -161.5 81t-44.5 224 q0 20 1 50t3 61q-82 -4 -167 -18.5t-175 -37.5q-53 -117 -87 -208t-42 -152zM465 563q63 8 119.5 13.5t113.5 5.5q23 145 63 320t101 372q-104 -172 -205.5 -355.5t-191.5 -355.5z" />
<glyph unicode="&#xc5;" horiz-adv-x="1067" d="M1595 471q6 20 17 21q8 0 15 -13.5t7 -38.5q0 -29 -14 -71.5t-53 -92.5q-61 -80 -143.5 -133t-175.5 -84.5t-192.5 -46t-193.5 -14.5q-53 0 -143 7t-194.5 32.5t-212 76t-191.5 134.5q-29 33 -48.5 75t-31.5 87t-18.5 87t-6.5 74q0 43 11 60q12 109 73.5 179.5 t151.5 137.5q-16 20 -21.5 26.5t-21.5 24.5q-4 4 -4 11q0 23 31.5 51.5t72.5 28.5q20 0 41 -10.5t37 -39.5q10 0 21 -10q4 -4 4 -6q14 0 22 3t19 13q-18 16 -36 42t-36 48q-10 14 -19.5 26.5t-17.5 25.5q-18 0 -18 10t18 35q33 47 55.5 87t53.5 91q16 0 22 13.5t25 13.5 q16 6 54 13t81 13t83 10.5t58 4.5q14 0 29.5 -3.5t15.5 -19.5q47 -35 89 -67.5t94 -45.5v-47q4 0 4 -8q0 -12 -9.5 -37.5t-21.5 -54.5t-23.5 -56.5t-17.5 -41.5h16l15 10q12 10 12 33q12 29 30.5 40t39.5 11q20 0 38 -6q18 -8 38 -18.5t38 -26.5v-27q0 -12 -15 -29.5 t-36 -38.5q156 -31 286 -106.5t214 -235.5q10 -20 14 -41.5t4 -42.5q0 -31 -7 -51t-15 -20q-6 0 -13 20q-10 10 -18 18.5t-8 28.5q-35 92 -106.5 159t-165 112t-204 66.5t-223.5 21.5q-133 0 -260 -29t-230.5 -85t-173 -139t-85.5 -194q-4 -12 -4 -25.5v-25.5 q0 -98 66.5 -165.5t166 -113t215 -70t211.5 -32.5q94 0 217 15.5t242 57.5t217 116.5t143 191.5zM475 1290q0 -18 -11 -23t-11 -18q16 -16 34.5 -19t38.5 -3q0 16 -16.5 30.5t-34.5 32.5zM657 1040h97q-20 20 -36 47t-16 48h-45v-95zM795 1249q20 0 46.5 11.5t43.5 29.5 q-16 18 -31.5 34.5t-32.5 29.5zM844 1040q14 39 27.5 84t13.5 74q-16 -12 -43 -17t-47 -22v-24q20 -20 26.5 -38t22.5 -57zM727 1382h-32.5t-49.5 -3t-54.5 -9t-47.5 -16q35 -55 71 -156q33 0 54.5 14.5t33.5 14.5q0 14 4.5 33.5t8.5 41l8 43t4 37.5zM453 1159 q37 -61 77 -102q20 -23 37 -33v111q-18 0 -47.5 3t-66.5 21z" />
<glyph unicode="&#xc7;" horiz-adv-x="983" d="M1876 991q94 -8 178 -45t148.5 -95t102.5 -137t38 -171v-23q0 -94 -38 -181t-102.5 -154.5t-149.5 -107.5t-177 -40q-102 6 -187 45t-146.5 100.5t-96.5 143.5t-35 176v18q0 66 20.5 130.5t56.5 121.5t85 104.5t108 77.5v19q-176 -104 -300 -235.5t-228 -293.5 q-14 -14 -35 -14q-20 0 -20 14q-43 104 -86 192.5t-90 178.5q-8 0 -20.5 -3t-25 -8t-21.5 -12.5t-9 -13.5q119 -127 119 -295q-10 -94 -50.5 -182t-105 -155.5t-149.5 -107.5t-185 -40q-96 6 -178 45t-143.5 100.5t-100.5 143.5t-45 178v18q6 94 45 180.5t100.5 151 t143.5 102t178 37.5q186 0 313 -118q14 14 47 27.5t48 27.5q-29 61 -57.5 131t-57.5 145q-47 -18 -78 -34.5t-59 -45.5q-10 -10 -25 -10q-18 0 -32.5 16.5t-14.5 39.5q0 20 14 34q43 37 99.5 59.5t118 35t126 16.5t123.5 4q4 2 11 2q10 0 13 -7t3 -17q0 -12 -6 -23.5 t-21 -11.5q-57 -14 -107 -18.5t-108 -20.5q29 -74 57.5 -137.5t57.5 -137.5q160 74 313.5 120t327.5 75q20 0 32.5 -14.5t12.5 -30.5q0 -23 -20 -31q-90 -14 -169 -29.5t-153 -36t-147.5 -47t-153.5 -63.5q29 -72 66.5 -155t66.5 -154q59 80 118.5 149.5t126 131 t140.5 116.5t162 107q-29 53 -45 100t-33 100l-4 15q-57 -29 -111.5 -36t-101.5 -22q-23 0 -33 11.5t-10 25.5t10.5 26.5t32.5 12.5q100 0 213 57q43 0 43 47q0 14 -29 15q-33 0 -75.5 -13.5t-51.5 -29.5q-4 -2 -12 -2q-16 0 -28.5 16.5t-12.5 30.5q0 16 15 16q66 45 131 45 q23 0 45 -6q37 0 67.5 -20.5t30.5 -55.5q0 -8 -4 -24q0 -18 -9.5 -39t-27.5 -37q14 -72 40 -147.5t54 -161.5q29 14 59.5 16t59.5 2zM883 483q0 76 -28 142.5t-87 109.5q-104 -57 -205.5 -128.5t-202.5 -162.5q-4 -4 -12 -4q-14 0 -28.5 10.5t-14.5 26.5q0 12 12 25 q90 90 191.5 162.5t218.5 132.5q-59 43 -118.5 59t-133.5 16q-80 0 -151.5 -30.5t-125 -83.5t-84 -124t-30.5 -151t30.5 -154.5t84 -131t125 -90t151.5 -33.5t153.5 30.5t130 86t90.5 130t34 162.5zM1876 117q76 6 147.5 35.5t126 76.5t87 114t32.5 146q0 8 -1 15.5t-1 15.5 q0 80 -28.5 150.5t-79 124t-118 85t-143.5 31.5h-22q-29 0 -56.5 -2t-41.5 -18q14 -72 41.5 -157t56.5 -171q0 -20 -12.5 -31.5t-28.5 -11.5q-25 0 -39 25q-14 86 -40.5 171t-55.5 156q-104 -43 -160.5 -138t-71.5 -214q6 -80 39 -152.5t85.5 -129t125 -89t158.5 -32.5z" />
<glyph unicode="&#xc9;" horiz-adv-x="956" d="M195 37q-16 0 -25.5 5t-9.5 34q-4 61 -9.5 126.5t-13.5 135.5q-14 117 -33.5 264.5t-54.5 300.5q-8 8 -8 17q0 8 7 13t15 5q10 10 25 10q12 0 22.5 -8t10.5 -18q35 -154 56.5 -303.5t33.5 -272.5q6 -72 11 -138.5t9 -131.5q8 -8 9 -17q0 -22 -45 -22zM1276 829 q-205 35 -391.5 46.5t-339.5 11.5h-107q-188 -2 -352 -19q-37 0 -37 35q-8 8 -8 17q0 8 7 13t15 5q6 0 44 5t103.5 11.5t157 11.5t201.5 5q154 0 338.5 -14.5t388.5 -53.5q27 0 27 -20q0 -10 -10 -15q0 -39 -37 -39zM1186 2q-207 23 -397.5 31t-331.5 8q-80 0 -138.5 -1 t-91.5 -3h-32q-10 -6 -17 -6q-18 0 -18 45q0 16 9 26.5t26 10.5q59 2 121.5 3t127.5 1h64q143 -4 320.5 -12.5t375.5 -28.5q35 0 35 -39q-16 -10 -21 -22.5t-32 -12.5zM1186 133q-35 0 -35 35q6 207 19.5 343t29.5 220q18 100 39 152l4 6q10 10 17.5 16t17.5 6t18 -8 q27 0 27 -26q0 -16 -10 -31q-10 -27 -20.5 -62.5t-16.5 -83.5q-16 -78 -26.5 -206.5t-10.5 -325.5q0 -35 -53 -35zM471 883q-84 55 -136 107t-81 97.5t-39 83t-10 64.5q0 35 8 51q16 57 63.5 84t100.5 27q49 -8 96 -36t86 -81t68.5 -133t44.5 -191q0 -16 -11.5 -25t-27.5 -9 q-6 -8 -12 -9q-10 0 -17.5 12.5t-7.5 30.5q-12 88 -38 154t-56.5 109t-64.5 64.5t-60 21.5q-29 0 -52.5 -4.5t-39.5 -30.5q-4 -20 -4 -31q0 -55 55 -126t190 -157q12 -16 13 -26q0 -14 -13 -27q0 -16 -11 -18t-28 -2h-16zM764 883q-16 0 -26.5 11t-10.5 28q0 16 2 25t14 9 q135 63 225.5 121t142.5 106t73.5 85t21.5 61q0 4 -1 6t-1 6q0 12 -8 20.5t-20.5 14.5t-25.5 10.5t-22 10.5q-43 0 -100 -22.5t-116.5 -72t-114 -130t-90.5 -197.5l-18.5 -18.5t-18.5 -8.5q-8 0 -17 8q-35 0 -35 37q43 137 108 228.5t135.5 146.5t141 78.5t125.5 23.5 q70 0 111 -33.5t57 -74.5q0 -4 1 -10t1 -11q0 -96 -134 -218t-384 -240h-16zM526 37q-16 0 -27.5 11t-11.5 28q2 59 3.5 118.5t1.5 118.5v56q-4 125 -12.5 271t-28.5 282q0 16 12 25t24 9q10 10 19 11q10 0 18 -9.5t19 -19.5q16 -121 22 -249t6 -245q0 -76 -2 -141 t-3 -114.5t-3 -79t-2 -33.5q0 -16 -9.5 -27.5t-25.5 -11.5zM764 37q-16 0 -26.5 11t-10.5 28q0 4 -4 44t-8 104.5t-8.5 147.5t-4.5 173q0 92 5.5 183t19.5 175q0 18 5 30.5t16 12.5q8 0 16 -8q27 0 31 -9t4 -26q-10 -84 -13.5 -175t-3.5 -183q0 -90 2 -173t5.5 -147.5 t6.5 -104.5t3 -44q0 -16 -9.5 -27.5t-25.5 -11.5z" />
<glyph unicode="&#xd1;" horiz-adv-x="1044" d="M1735 541q20 -16 29.5 -39t9.5 -43q20 -14 40.5 -41t20.5 -60q0 -23 -13.5 -43t-31.5 -40.5t-38.5 -39t-35.5 -34.5q-41 -35 -89 -67t-101 -58.5t-109.5 -42t-111.5 -15.5q-12 0 -23.5 1t-24.5 4q-16 0 -24 6t-12 15t-9.5 18.5t-15.5 15.5q-16 31 -27.5 47t-11.5 37 q-33 0 -51.5 -11.5t-48.5 -11.5q-61 0 -110.5 22.5t-110.5 39.5q-125 59 -243 115.5t-253 103.5q-16 -31 -37.5 -67t-48.5 -67.5t-57.5 -53t-65.5 -21.5q-39 0 -74 29q-23 16 -32 36.5t-9 45.5q0 23 5.5 45t11.5 45q0 2 1 4t1 4q20 78 48 149.5t71 132.5q12 20 29.5 46 t39 47.5t44 36t46.5 14.5q31 0 62 -31q25 -25 35 -61.5t10 -77.5q0 -51 -12.5 -102.5t-30.5 -92.5q104 -31 198.5 -72.5t198.5 -89.5q47 -14 104.5 -39.5t116.5 -39.5h101v18q-121 156 -283 283q-6 6 -6 22t7 31.5t20 15.5q6 0 20 -10q92 -78 168 -152.5t135 -166.5l10 8 q10 4 14.5 8t14.5 4q4 10 14 10q12 0 25.5 -18.5t13.5 -40.5q0 -20 -12 -33q-8 0 -10 -4q-10 -2 -16.5 -3t-14.5 -11q20 -33 32.5 -50.5t28.5 -50.5q78 0 158 27t139 74q59 33 115.5 77t87.5 103l-16 29q-41 70 -79 138t-69 152l-10 31q-27 72 -50.5 137.5t-33.5 130.5 q-66 -72 -146.5 -132t-158.5 -101l-43 -23q-82 -43 -171 -82.5t-181 -39.5h-39q-80 53 -80 120q0 41 25.5 86t68.5 95q-10 29 -13 54t-3 52q0 96 52 176t134 136.5t183.5 88t197.5 31.5q10 0 17.5 -1t15.5 -1q164 0 271.5 -94t166.5 -242q37 -72 59.5 -149.5t22.5 -153.5 q0 -82 -32.5 -153.5t-110.5 -124.5zM1696 621q63 47 88.5 104t25.5 119q0 84 -34.5 171t-79.5 165q-23 51 -63 89t-88 62.5t-102 36.5t-106 12q-80 -6 -168 -33.5t-162.5 -74.5t-122.5 -114.5t-48 -156.5v-22q59 49 128.5 95t140.5 83t138.5 58.5t122.5 21.5q43 0 72 -14 q16 -10 24 -26.5t8 -33.5q0 -29 -22 -28q-6 0 -10 2q-29 12 -62 12q-37 0 -73.5 -9.5t-65.5 -17.5q-59 -33 -117.5 -62.5t-124.5 -60.5q-16 -16 -54 -40.5t-85 -55.5v-10q0 -4 3 -8t15 -6q4 -16 5 -23q0 -18 -9.5 -28.5t-21.5 -10.5q-18 0 -35 23q-31 -23 -52.5 -48.5 t-21.5 -50.5q0 -20 21 -39q92 0 183 38t177 81l37 19q39 31 82 61.5t83 64t75 71.5t57 85q18 18 35 19q16 0 25.5 -13.5t23.5 -27.5q33 -121 66 -240.5t92 -238.5zM315 541q0 10 6.5 30.5t12.5 45t12 51t6 49.5q0 29 -12 47q-8 0 -12 -4q-12 -6 -13 -21q-29 -16 -49 -30.5 t-30 -30.5h18q16 0 29.5 -24.5t13.5 -47.5q0 -29 -21 -28q-31 0 -46 26.5t-15 59.5v-43q-6 -6 -10 -10.5t-8 -7.5t-8.5 -9t-12.5 -16h21q20 0 35.5 -17.5t15.5 -34.5q0 -25 -33 -24q-14 0 -26.5 21.5t-12.5 35.5q-20 -14 -23 -29.5t-18 -48.5h19q20 0 31.5 -19.5t11.5 -37.5 q0 -27 -21 -27q-20 0 -30.5 13.5t-10.5 29.5q-12 -35 -29.5 -73.5t-17.5 -55.5q0 -10 8 -10q35 0 62.5 16.5t49 42t39 56t34.5 61.5q4 6 6 12.5t6 16.5q0 6 3 10t19 4v21zM1176 1040q8 4 14 4q23 0 37 -26.5t14 -44.5q0 -8 -4 -12q-59 -43 -115.5 -66t-103.5 -55 q-14 -10 -25 -11q-20 0 -35.5 17.5t-15.5 34.5q0 14 14 22q57 43 117 74.5t103 62.5z" />
<glyph unicode="&#xd6;" horiz-adv-x="980" d="M637 1526q-61 0 -88 26.5t-27 63.5q0 25 10.5 50.5t30 46t46 33.5t57.5 13q66 0 95.5 -29.5t29.5 -70.5q0 -47 -40 -90t-114 -43zM965 1538q-59 0 -84 24.5t-25 59.5q0 23 10.5 47.5t28.5 44t44 32.5t56 13q61 0 90 -28.5t29 -65.5q0 -45 -38.5 -86t-110.5 -41zM637 1526 q-61 0 -88 26.5t-27 63.5q0 25 10.5 50.5t30 46t46 33.5t57.5 13q66 0 95.5 -29.5t29.5 -70.5q0 -47 -40 -90t-114 -43zM965 1538q-59 0 -84 24.5t-25 59.5q0 23 10.5 47.5t28.5 44t44 32.5t56 13q61 0 90 -28.5t29 -65.5q0 -45 -38.5 -86t-110.5 -41zM977 1376 q47 -59 66.5 -126.5t19.5 -157.5q0 -174 -53 -418q-39 -178 -94.5 -319.5t-123 -239t-146.5 -149.5t-161 -52q-88 0 -161.5 26.5t-127 83t-83 144.5t-29.5 209q0 102 21.5 224t62.5 246t97.5 239.5t125 205.5t148 144.5t168.5 54.5q29 0 67.5 -10.5t76.5 -26.5t72 -37 t54 -41zM756 1229q-4 0 -6 1t-5 1q-51 0 -139 -154q-55 -96 -99 -201.5t-74 -211t-46 -205t-16 -180.5q0 -152 61 -152q37 0 78 50t81 132t75.5 186.5t63.5 213t44.5 212t16.5 183.5q0 115 -35 125z" />
<glyph unicode="&#xdc;" horiz-adv-x="989" d="M539 1532q-61 0 -88 26.5t-27 63.5q0 25 10 50.5t29.5 46t46.5 33.5t57 13q66 0 95.5 -29.5t29.5 -70.5q0 -47 -39.5 -90t-113.5 -43zM866 1544q-59 0 -83.5 24.5t-24.5 59.5q0 23 10 47.5t28.5 44t44 32.5t56.5 13q61 0 90 -28.5t29 -65.5q0 -45 -39 -86t-111 -41z M539 1532q-61 0 -88 26.5t-27 63.5q0 25 10 50.5t29.5 46t46.5 33.5t57 13q66 0 95.5 -29.5t29.5 -70.5q0 -47 -39.5 -90t-113.5 -43zM866 1544q-59 0 -83.5 24.5t-24.5 59.5q0 23 10 47.5t28.5 44t44 32.5t56.5 13q61 0 90 -28.5t29 -65.5q0 -45 -39 -86t-111 -41zM743 160 q-68 -117 -152.5 -182.5t-182.5 -65.5q-55 0 -110.5 22.5t-115.5 67.5q-41 31 -68.5 76t-44 95t-22.5 102.5t-6 99.5q0 63 10 104q41 190 116 437t195 530q98 -8 162 -51t64 -117q0 -23 -10 -57q-53 -166 -100.5 -309.5t-84.5 -266.5t-58.5 -225.5t-21.5 -183.5 q0 -51 14.5 -73t37.5 -22q33 0 71.5 54.5t80.5 149.5t88 224t96.5 278.5t104.5 311.5t112 324q98 -8 160.5 -51t62.5 -119q0 -29 -8 -56q-39 -133 -81 -280.5t-90.5 -293.5t-103 -281.5t-115.5 -241.5z" />
<glyph unicode="&#xdf;" horiz-adv-x="1234" d="M201 -49q-16 -4 -35 -5t-37 -5q-45 2 -74.5 13t-48.5 40q-37 45 -20 153q8 68 55 207q18 68 47 144.5t64 169.5q35 92 77.5 190t96.5 209q33 70 69.5 128t82.5 109.5t103.5 95.5t129.5 85q47 18 107.5 32.5t118.5 11.5t109.5 -32t79.5 -96q25 -59 21 -115.5t-27.5 -112 t-64.5 -108.5t-90 -104q-31 -33 -59.5 -58.5t-39.5 -48.5q-23 -43 3 -72.5t65 -46.5q57 -33 114.5 -69.5t98.5 -85t59.5 -111.5t-2.5 -147q-31 -133 -133 -244q-45 -51 -97 -87t-114 -52q-129 -45 -254 0q-29 8 -64.5 35.5t-67.5 67.5t-54.5 89t-26.5 100q72 49 119 45 t82 -30.5t61.5 -60t57.5 -44.5q51 -25 104 -2q57 23 98 70q29 29 45.5 60.5t26.5 66.5q6 33 -9 60.5t-43 52t-64.5 46t-73.5 44.5q-68 41 -106 84t-60 104q-18 47 -8 93t37.5 91t68.5 90.5t84 92.5q53 61 85 117.5t22 74.5q-39 41 -89.5 15.5t-105.5 -98.5t-114.5 -181.5 t-116 -232t-106.5 -253.5t-90 -245t-65.5 -205t-31.5 -135z" />
<glyph unicode="&#xe0;" horiz-adv-x="911" d="M137 289q25 0 25 -60q0 -43 -25 -43q-29 6 -49 32t-32.5 60.5t-18.5 72.5t-6 69q0 4 4 8q16 16 24 16h50q25 0 40 -24.5t15 -48.5q0 -14 -6 -24.5t-21 -10.5h-28v-23zM1554 360q27 0 42.5 -20.5t15.5 -42.5q0 -33 -29 -33q-59 -10 -120.5 -13t-127.5 -3q-129 0 -257 8 t-242 8q-29 0 -46.5 30t-17.5 50q0 16 10 16q129 0 257 -5t257 -5q66 0 129 2t129 8zM768 444q-8 0 -14 4.5t-25 24.5q-20 92 -95 137t-161 45q-88 0 -165 -45t-99 -137q-10 -18 -27 -18q-18 0 -34.5 20.5t-16.5 44.5q0 12 6 25q18 51 51 91t77 66.5t94.5 41t103.5 14.5 q14 0 28.5 -1t28.5 -3q98 -25 172 -82.5t115 -155.5h139q141 0 284.5 4t303.5 25q10 0 25.5 -29t15.5 -57q0 -27 -21 -39h-772v24h-14zM1815 1214q-8 -86 -18.5 -175t-27 -177t-41 -169t-63.5 -148q-8 -27 -29 -27q-20 0 -38.5 23.5t-18.5 46.5q0 12 4 16q41 53 63.5 123 t36.5 129q-123 -23 -240.5 -35t-238.5 -12q-86 0 -170 6t-174 16q-25 0 -40 30t-15 52q0 25 16 25q2 0 15 -4q86 0 167.5 -2t165.5 -2q131 0 258 11t256 46q18 78 25.5 150.5t34.5 136.5q0 33 16 33t36 -31t20 -62zM2329 389q10 0 17 -4t7 -25q27 0 31 -15t4 -32 q0 -4 -4 -10t-17 -10q-4 -4 -14 -4h-72q-49 0 -49 47q0 18 3 35.5t22 17.5h53h19zM2388 647q0 -23 1 -45t1 -43q0 -31 -4 -56.5t-18.5 -44t-40 -28.5t-70.5 -10q-18 18 -35.5 22t-17.5 31q-20 49 -57.5 83t-80.5 53.5t-87 28.5t-81 9q-16 0 -30.5 9.5t-24.5 22.5t-16 27.5 t-6 26.5q0 20 18 21q16 2 33.5 3t34.5 1q119 0 209 -54.5t141 -158.5q41 0 47 18.5t6 59.5q-86 35 -121 101.5t-35 141.5q0 49 13.5 98.5t36.5 94.5q-18 27 -24.5 46t-25.5 38q-20 20 -34.5 42.5t-28.5 46t-29.5 46t-38.5 43.5q-14 6 -21 10t-11 8q-12 6 -45 7h-412 q-59 -10 -109.5 -15.5t-96.5 -14.5t-92 -24.5t-95 -42.5l-305 -243q-57 -37 -133 -62.5t-157 -50.5t-159 -52.5t-140.5 -69.5t-100 -103.5t-37.5 -151.5q-16 -18 -35 -18q-25 0 -46.5 21.5t-21.5 49.5q18 141 106.5 230.5t204.5 134.5q82 39 159 57.5t175 42.5q41 18 83 54 t102 55q78 84 172 161.5t211 118.5q63 23 131.5 29t140.5 6q66 0 130.5 -3t121.5 -3q29 0 61.5 2t65.5 2q49 0 96 -9t82 -44q78 -78 135.5 -164t110.5 -178l16 -27q33 -76 55.5 -182.5t22.5 -204.5zM2257 934q-8 -25 -13.5 -51.5t-5.5 -53.5q0 -35 10.5 -62.5t32.5 -41.5 v131q0 14 -12 37t-12 41zM627 420q-2 4 -2 12q0 14 10 20.5t24 6.5q16 0 31 -9.5t15 -29.5q12 -31 19 -63.5t7 -65.5q0 -70 -30.5 -128.5t-92.5 -86.5q-72 -45 -147 -45q-57 0 -108.5 25.5t-84.5 76.5q-37 45 -53 91t-16 93q0 55 21.5 106.5t59 89.5t89 61.5t110.5 23.5 q66 0 129 -29q6 -10 12.5 -32.5t6.5 -42.5q0 -33 -21 -33q-12 0 -33 12q-45 10 -84 10q-43 0 -82.5 -14t-66.5 -49q-23 -25 -35 -54.5t-12 -64.5q0 -61 47 -115q53 -41 115 -41q37 0 71.5 14.5t60 41t41 61.5t15.5 76q0 43 -16 82zM2101 389q-2 8 -3 13.5t-1 11.5 q0 39 27 39q14 0 29.5 -16.5t25.5 -47.5q8 -33 8 -78q0 -68 -24.5 -135t-79.5 -98q-84 -47 -158 -47q-55 0 -102 25.5t-80 76.5q-43 47 -62.5 98.5t-19.5 102.5q0 53 19.5 101t53 84t82 57.5t103.5 21.5q66 0 129 -29q18 -8 27.5 -27.5t9.5 -39.5q0 -16 -6 -28.5t-23 -12.5 q-14 0 -33 12q-45 10 -84 10q-43 0 -81.5 -14t-65.5 -49q-23 -25 -37 -56.5t-14 -66.5q0 -29 11 -56.5t40 -54.5q57 -43 121 -43q39 0 73.5 14.5t62.5 41t44 61.5t16 76q0 12 -2 25.5t-6 27.5zM1407 647q-25 0 -41 18.5t-16 59.5q0 53 77 53h54q27 0 50 -11t23 -46 q0 -20 -6 -47t-43 -27h-98z" />
<glyph unicode="&#xe1;" horiz-adv-x="911" d="M1186 573q-8 -61 -17.5 -121.5t-27 -116.5t-46 -105.5t-73.5 -86.5q-53 -43 -101.5 -70.5t-97.5 -43t-105 -21.5t-126 -6q-127 0 -220 38t-167 146q-33 39 -53.5 78t-34 81t-21.5 88t-16 102q0 45 4 96t16.5 103t33 100.5t50.5 87.5q29 47 73 74.5t91 27.5q43 16 76 16 t65 -16v63h-22q-16 14 -27.5 39t-20.5 51.5t-16.5 52t-15.5 42.5q0 20 -8 51t-8 66q0 16 3 33.5t13 33.5q47 16 101.5 18.5t82.5 2.5q61 0 122 -2t124 -17q33 -8 45 -30.5t12 -53.5q0 -29 -8 -60.5t-19 -62t-24.5 -58.5t-23.5 -46q-16 -16 -21.5 -29.5t-21.5 -30.5v-63 q29 0 55.5 1t54.5 1q61 0 117.5 -14.5t97.5 -67.5q31 -33 50.5 -80t32 -98t17.5 -101.5t5 -91.5zM449 1352q18 -37 18 -80q16 -35 21.5 -51.5t21.5 -32.5v-21h207q0 16 8 33t8 51q16 33 21.5 59.5t21.5 61.5q-16 0 -29.5 2t-29.5 19h-268v-41zM532 1063q0 -18 9 -27l8 -12 q16 -16 34.5 -18t47.5 -2h63v59h-162zM631 780q33 0 38 21.5t5 38.5q0 16 10 40.5t10 41.5h-145v-39q14 -18 18 -60q4 -12 4 -21v-22h60zM1102 553q6 29 10 58.5t4 60.5q0 59 -16.5 114.5t-57.5 96.5q-29 45 -70.5 61.5t-90.5 16.5q-59 0 -125 -17q0 -35 -3 -71.5t-20 -53.5 q0 -121 -59 -121q0 -111 -20.5 -225.5t-82.5 -206.5q-16 -25 -43 -24q-20 0 -34.5 13t-14.5 30q0 14 10 24q61 78 82 178.5t21 210.5q-35 0 -50.5 17.5t-31.5 64.5q-16 45 -18.5 81t-2.5 83q-29 14 -61 14q-33 0 -59 -14q-53 -16 -83 -47t-63 -78q-29 -61 -44 -144t-15 -161 q16 -78 35.5 -151.5t64.5 -137.5q31 -47 67 -74.5t75.5 -43t86 -20.5t99.5 -5h12q51 0 99.5 2t93.5 14.5t87 37t79 71.5q74 78 106.5 166t32.5 180zM879 330q12 4 16 4q20 0 35.5 -18.5t15.5 -43.5q0 -14 -6 -26q-57 -72 -142 -107t-177 -35q-104 0 -201.5 45.5 t-155.5 137.5q-4 6 -4 16q0 18 17.5 30.5t37.5 12.5q10 0 19.5 -3t13.5 -13q45 -68 113.5 -99.5t142.5 -31.5q78 0 153 34t122 97zM879 883q31 -16 54 -46t38.5 -64t22.5 -69.5t7 -64.5q0 -23 -10 -32t-24 -9q-16 0 -32.5 14.5t-16.5 42.5q0 16 -1.5 38t-6.5 43.5t-17 39 t-35 25.5q-23 10 -22 37q0 16 9 31.5t23 15.5q7 0 11 -2z" />
<glyph unicode="&#xe2;" horiz-adv-x="911" d="M1772 1372q8 -31 8 -61q0 -29 -14.5 -47.5t-53.5 -28.5q-51 -29 -89 -65.5t-60 -77.5q-12 -8 -17 -9q-4 0 -6 2l-10 7q-39 39 -86 38q0 -4 -6 -10q-4 -2 -6 -4q0 -2 -2 -2h-5q-41 -31 -68.5 -56.5t-58.5 -47.5q-94 -66 -174 -130.5t-170 -129.5q-25 -29 -52.5 -46.5 t-51.5 -48.5q-14 0 -14 -8t14 -22t39 -15q23 0 45 7.5t39 7.5q47 -14 47 -60q0 -20 -8 -41.5t-20.5 -40t-26 -32t-25.5 -17.5q-35 -12 -66.5 -20t-61.5 -19.5t-54.5 -29t-44.5 -50.5q-14 -41 -30.5 -78.5t-41.5 -62.5q-45 -59 -98.5 -92t-112.5 -33q-96 0 -188 90 q-43 41 -81 84t-68 91t-47 101.5t-17 114.5v30.5t4 31.5q14 63 64 97t113.5 54.5t129.5 35t111 40.5q27 20 50 47t45.5 56.5t46 57.5t52.5 50q20 20 49 44t60 24q14 0 26 -6q33 0 47.5 -25t14.5 -55q0 -20 -6 -39q-4 -4 -15.5 -17.5t-22 -30t-18.5 -32.5t-8 -29 q0 -16 19 -16q8 0 12 2q2 4 8 7t6 11q129 90 257 185.5t247 199.5q8 6 18 7q10 0 17.5 -3.5t15.5 -3.5q12 -29 16.5 -45t14.5 -30q23 8 45 8q23 0 42 -7.5t40 -15.5l63 72q23 23 74 51q0 -4 4 -4q2 0 6 4q8 0 10.5 3t10.5 11q10 0 10 13q0 10 -10 26q-66 0 -138.5 -30.5 t-134.5 -55.5q-8 -4 -10 -4q-10 0 -18 10.5t-8 20.5q0 14 14 20l-14 21v37l12 8q8 2 13 4t11 2q33 0 33 -33h17q-23 23 -23 50q0 10 6 16h49q0 -10 13 -23l10 -10h14q-14 0 -14 8q-4 0 -4 4q0 2 4 7q0 10 2 24.5t12 28.5q6 0 10 4q4 0 6.5 1t6.5 1q6 0 12 -6l6 -6 q6 -8 7 -12.5t1 -20.5v-14q8 0 15 6q4 4 4 8v33q0 10 3 19t19 20q10 0 21.5 -2t11.5 -17q4 -4 9 -15t5 -18v-20q23 0 52 -4t39 -29zM1073 922q68 53 144.5 111.5t154.5 111.5q0 14 -7 18t-7 15q-123 -90 -236.5 -171t-214.5 -171l-8 -5q-27 -14 -53.5 -27t-54.5 -13 q-37 0 -64 28q-18 31 -18 58q0 23 11 42t30 35l28 47q6 12 6 23q0 8 -6 8t-14 -6q-51 0 -51 -39q-29 -10 -54.5 -32.5t-50.5 -47.5q-29 -43 -66.5 -88t-90.5 -69q-33 -14 -67 -22.5t-67.5 -17t-65.5 -20.5t-61 -35q-51 -33 -78.5 -79t-27.5 -99q0 -29 8 -56.5t27 -55.5 l6 -11q20 -31 50 -71.5t63.5 -76.5t70.5 -60.5t76 -24.5q10 -2 18.5 -2h18.5q57 0 96 28.5t67.5 69.5t53.5 87t55 83q27 33 58.5 47.5t64.5 25.5t64.5 23.5t58.5 38.5l6 13l8 20q-16 0 -27.5 -4t-25.5 -4q-16 0 -33 8q-29 6 -53 41t-24 70t26 49q68 51 129 102.5t127 104.5z M537 346q-14 0 -15 41q0 27 10 27q6 0 23 -13q10 -10 12 -25.5t2 -29.5h-32zM522 315q10 0 23.5 -2t23.5 -12l6 -22q2 -4 3 -11q0 -8 -9 -8q-12 -12 -22 -12q-12 0 -21.5 13t-9.5 30q0 14 6 24zM674 696q18 -31 30.5 -45t22.5 -26q0 -41 -1 -48.5t-3 -7.5q-10 0 -19.5 3 t-9.5 20l-28 20l-11 13q-10 12 -21 23t-11 26v9t4 9q6 23 14 23q10 0 14.5 -9.5t18.5 -9.5zM555 625q29 -25 43 -49.5t25 -36.5v-47q-6 0 -21 6l-33 24q-4 4 -4 8q-8 8 -10 9q0 12 -9 23t-9 30q-14 0 -15 14q-4 4 -4 8q0 2 4 11q8 8 17 8q4 0 6 -2zM504 506 q-10 12 -13.5 24.5t-21.5 24.5l-8 12q-2 2 -2 8q0 8 10 17q4 2 9 5t9 3l5 -2h2l10 -6q14 -18 18 -29.5t15 -23.5q14 -12 18 -24.5t14 -22.5q-4 -8 -4 -23q-8 -18 -10 -18h-18q-4 4 -5 8q-4 4 -3 7t-7 3v23zM385 592q0 -23 -18 -23q-12 0 -23.5 11.5t-11.5 29.5 q0 39 21.5 58.5t53 30t67.5 15.5t63 15q37 31 68.5 66.5t62.5 35.5q23 0 45 -28q6 -16 6 -33q0 -29 -10 -29q-6 0 -15 23q-12 4 -16 4q-23 0 -41.5 -21.5t-28.5 -31.5q-14 -14 -30.5 -29.5t-40.5 -30.5q-6 0 -30 -5t-51.5 -14t-49 -20.5t-21.5 -23.5zM399 301q8 2 23 2 q41 0 61.5 -30.5t20.5 -65.5q0 -10 -8.5 -21.5t-26.5 -11.5l-12 10q-2 10 -4 14.5t-2 8.5v18l-9 6q-2 2 -2 7q0 4 11 4h-19q-14 0 -14 -17v-18h14v-33q-12 -18 -22 -18t-11 18q-35 31 -34 74q0 16 8 31.5t26 21.5zM385 346q-39 0 -39 41q-10 10 -21.5 23.5t-11.5 23.5 q-10 10 -10 37q0 25 10 35q10 0 20.5 10t20.5 10q6 0 11 -4q18 0 35.5 -10t17.5 -20q10 -20 23.5 -41t27.5 -31q0 -14 -2 -25.5t-16 -29.5q0 -14 -11.5 -23.5t-21.5 -9.5h-19q-14 0 -14 14zM418 420q-14 10 -23.5 14t-9.5 17l-20 18q0 -18 -19 -18l19 -17q18 -10 21 -21.5 t13 -11.5z" />
<glyph unicode="&#xe3;" horiz-adv-x="911" d="M2030 1006q119 -74 197.5 -178.5t78.5 -221.5q0 -51 -16.5 -101t-55.5 -104q-12 -14 -22 -29.5t-23.5 -27.5t-32 -20.5t-47.5 -8.5q-104 -16 -228 -18t-251 -2q-342 0 -657.5 5t-628.5 38q-174 0 -174 121q-61 94 -61 184q0 63 28.5 118.5t76.5 102.5t110.5 88t130.5 74 q-8 33 -12.5 61.5t-9.5 55t-12 55.5t-20 64q0 14 5.5 18t27.5 4q174 68 364.5 99.5t389.5 31.5q223 0 442 -34.5t422 -96.5q10 -16 12 -31.5t2 -40.5q0 -41 -10 -97t-26 -109zM2206 530q31 61 30 117q0 94 -67.5 171t-159.5 126q-14 -53 -43 -93t-43 -81q59 -14 99 -41 t94 -67l38 -31zM2009 1212q-211 55 -420 85t-418 30q-119 0 -235.5 -10t-230.5 -33q-59 -16 -113.5 -31.5t-99.5 -40.5v-10q0 -33 2 -66.5t12 -62.5q12 -35 22.5 -65.5t22.5 -60t29.5 -58.5t46.5 -55q4 18 32.5 21t45.5 3q82 4 165.5 7t169.5 3t173 -3t178 -7 q111 -18 222 -25.5t224 -33.5q68 88 105.5 198.5t66.5 214.5zM195 551q14 31 46.5 60.5t71.5 57t79 49t71 34.5q27 14 52.5 32.5t35.5 34.5q-10 29 -29.5 65t-29.5 89q-55 -31 -112.5 -67t-104 -75.5t-75 -86t-28.5 -101.5q0 -41 23 -92zM2109 401q18 0 34 14.5t30 14.5v29 q0 29 -16.5 57.5t-38 52t-41 40t-25.5 22.5q-47 41 -97 65.5t-118 51.5q-160 23 -320.5 34t-326.5 11q-117 0 -233.5 -6.5t-233.5 -16.5q-70 0 -116 -16.5t-101 -48.5q-33 -41 -58.5 -56.5t-64.5 -25.5q-35 -27 -59.5 -50.5t-47.5 -46.5q-18 -23 -30.5 -40t-12.5 -29 q0 -18 33 -27q59 -20 114.5 -24.5t113.5 -4.5h57q246 -18 499 -21t519 -3h422q29 0 57 12t61 12zM2030 229q12 0 26.5 -17t14.5 -32q0 -14 -19 -14q-47 -14 -86 -16.5t-86 -2.5v-88q0 -31 -18 -30q-14 0 -29.5 17t-15.5 44v57q-293 -31 -586 -30q-354 0 -694 49 q10 -14 12 -40t2 -36q0 -53 -14 -53q-27 0 -31 13t-14 40q0 10 -14.5 36t-14.5 40q-25 18 -48.5 21t-52.5 3q-18 8 -30.5 23.5t-12.5 32.5q0 27 43 26q205 -43 422 -60t441 -17q205 0 405.5 10t399.5 24z" />
<glyph unicode="&#xe4;" horiz-adv-x="948" d="M512 1106q-72 0 -102.5 36t-30.5 83q0 33 12 65.5t36 60t54.5 45t67.5 17.5q76 0 110.5 -40t34.5 -93q0 -31 -12 -61.5t-34.5 -56t-57.5 -41t-78 -15.5zM866 1106q-66 0 -95.5 32.5t-29.5 80.5q0 31 12.5 62.5t34 57t51 42t64.5 16.5q72 0 104.5 -38t32.5 -87 q0 -29 -11 -58.5t-33.5 -53t-55.5 -39t-74 -15.5zM506 90v30.5t2 33.5q-68 -78 -143.5 -123t-143.5 -45q-43 0 -79 20.5t-63.5 64.5t-43 115.5t-15.5 173.5q0 125 44.5 249t123 223.5t184 161t228.5 61.5q57 0 124 -13.5t124 -38t96 -59.5t39 -80q0 -14 -6 -33 q-45 -127 -85 -245.5t-69.5 -225t-47 -198.5t-17.5 -162v-32.5t4 -30.5q-23 -10 -49.5 -13.5t-42.5 -3.5q-88 0 -126 45t-38 125zM571 494q23 74 54.5 155.5t74.5 173.5q-18 12 -36.5 19.5t-45.5 7.5q-49 0 -92 -28.5t-76.5 -75t-59 -104.5t-43 -115.5t-27 -109.5t-9.5 -87 q0 -72 14.5 -103.5t36.5 -31.5q23 0 50.5 25.5t57.5 68.5t56.5 96.5t44.5 108.5z" />
<glyph unicode="&#xe5;" horiz-adv-x="911" d="M1389 1364q35 0 34 -55q-53 -303 -83.5 -611.5t-57.5 -625.5l-4 -49q0 -6 -2 -11q-2 -8 -14 -8q-160 27 -320 41t-324 14q-92 0 -185 -5t-187 -15q-6 -6 -13 -6q-10 0 -18 16.5t-8 28.5q-8 160 -37 320.5t-60.5 320.5t-57 318.5t-25.5 314.5q0 12 2 22t16 27 q150 25 300.5 38t303.5 13q186 0 372 -20.5t368 -67.5zM1223 96q29 303 51 606.5t76 606.5q-160 37 -326 54t-334 17q-299 0 -590 -53q70 -303 109 -607t55 -607q96 10 189.5 15t187.5 5q150 0 295.5 -10.5t286.5 -26.5zM373 1274q0 35 35 35q6 -6 10 -6t8 -2.5t9 -8.5 t11 -20q4 -4 5 -8q0 -4 -3.5 -10.5t-3.5 -16.5q0 -27 -18 -27q-8 0 -18 11q-16 0 -17.5 9t-17.5 25v19zM1223 1094q16 0 26.5 -13.5t10.5 -29.5q0 -12 -8.5 -21.5t-28.5 -9.5q-129 18 -261.5 30.5t-265.5 12.5q-49 0 -98 -2t-98 -6h-19q-53 0 -111.5 -2t-105.5 -17 q-2 -2 -6 -2q-10 0 -19.5 16.5t-9.5 32.5q0 20 17 27q63 14 116.5 16t114.5 2h23q49 4 98 6.5t98 2.5q133 0 265.5 -12.5t261.5 -30.5zM264 1182q-14 0 -16 11t-2 28v41q0 20 4 20q6 0 14 -8q16 0 25.5 -10.5t9.5 -26.5v-37l-12 -10q-9 -8 -23 -8zM969 928 q86 -57 133 -151.5t47 -194.5q0 -47 -12.5 -93.5t-38.5 -87.5q-59 -94 -155.5 -148t-201.5 -54q-43 0 -86 9t-84 32q-53 27 -94 66.5t-69.5 88.5t-44 104.5t-15.5 110.5q0 70 25 138q20 53 56 98t83 78.5t101.5 52t113.5 18.5q66 0 135 -28q27 -16 27 -41q0 -20 -25 -21 q-6 0 -22 4q-23 10 -46.5 13.5t-47.5 3.5q-49 0 -99.5 -14.5t-94.5 -41t-78 -62.5t-50 -79q-20 -49 -20 -115q0 -45 11 -91t34.5 -87t57.5 -73.5t79 -51.5q76 -31 160 -30q78 0 145.5 29.5t114.5 92.5q37 49 57 107.5t20 118.5q0 70 -28.5 130t-87.5 97q-14 6 -21.5 19.5 t-7.5 27.5q0 27 18 27q7 0 11 -2zM735 782q-41 0 -76.5 -15t-63.5 -43t-44 -63.5t-16 -74.5q14 -72 64 -121t120 -49q8 0 16 1t19 3q33 0 67.5 13t63 36t47 52.5t18.5 64.5q4 12 4 23.5v21.5q0 61 -35.5 99t-95.5 52q-16 0 -24 12.5t-8 28.5q0 12 7 22.5t25 10.5 q49 -12 86 -36.5t61.5 -58.5t36 -74t11.5 -81q0 -51 -17.5 -100t-51.5 -88t-83 -62.5t-112 -23.5q-47 6 -96.5 22.5t-88.5 46t-63.5 70.5t-24.5 94q-2 10 -2 19.5v19.5q0 106 68.5 172t167.5 80q4 2 12 2q12 0 19.5 -10t7.5 -27q-1 -27 -19 -39z" />
<glyph unicode="&#xe7;" horiz-adv-x="845" d="M1237 1415q37 -31 61.5 -70.5t39 -86t20.5 -93.5t6 -90q0 -18 -16 -18q-10 0 -20.5 9t-10.5 26q0 74 -23.5 148.5t-74.5 127.5q-6 12 -7 29q0 10 3.5 19t9.5 9t12 -10zM1303 496q25 -49 24 -88q0 -37 -24 -62q0 -25 -11.5 -46t-21.5 -34q0 -10 8 -28.5t25 -34.5 q6 -12 6 -25q0 -23 -15 -22q-10 0 -24 14q-51 51 -51 96q-18 0 -48 33q-47 10 -66.5 56t-29.5 96q0 4 -1 6t-1 6q-23 57 -53.5 113.5t-65.5 113.5l-10 15q-10 -16 -12 -25.5t-2 -26.5q10 -10 25.5 -38.5t37.5 -39.5q8 0 13.5 -14t5.5 -26q0 -14 -8 -15q-2 0 -11 4 q-23 0 -38 17.5t-25 33.5q-16 10 -25.5 33t-25.5 45q-6 12 -7 27q0 33 39 72q-10 16 -29.5 32.5t-35.5 32.5q-35 10 -80 13.5t-80 19.5q-37 10 -76 13t-80 3q-76 0 -150.5 -13t-146.5 -36q-33 0 -32 33q-16 72 -29.5 142.5t-52.5 131.5q-10 0 -10 17q0 16 10 16 q39 10 72.5 23.5t58.5 23.5q35 14 57.5 16.5t44.5 2.5h8q49 6 95.5 25.5t91.5 43t91 48t95 42.5q55 25 118.5 40.5t129.5 15.5q92 0 171 -38t118 -130q2 -6 2 -15q0 -16 -12 -16q-10 0 -21.5 8t-19.5 23q-12 23 -40 43t-63 35.5t-71.5 24.5t-67.5 9q-98 0 -192.5 -39.5 t-180.5 -87.5q-59 -39 -121.5 -68.5t-136.5 -29.5h-16q23 -51 38 -97t25 -97q0 -18 -16 -19q-10 0 -20.5 9.5t-10.5 25.5q-8 18 -14 40.5t-13.5 47.5t-16.5 48.5t-21 41.5q-23 -14 -50.5 -26.5t-60.5 -24.5q23 -51 43 -107.5t20 -115.5q68 20 131.5 28.5t127.5 8.5 q66 0 126 -6.5t125 -16.5q4 0 10.5 -1t10.5 -1q6 0 11 -1t11 -3l45 -8h15q37 -6 76 -6q59 0 117.5 14t104.5 44t74.5 76t28.5 107q0 31 -10 72q0 25 23 24q10 0 17 -6t7 -18q4 -20 6 -41t2 -39q0 -127 -88 -205t-227 -88q-10 -10 -27 -10q-20 0 -39 10q51 -51 79 -97t52 -97 q23 -25 35.5 -59t28.5 -68q6 -18 10 -41t10.5 -44.5t17.5 -36t32 -14.5q4 0 5 1t5 1q82 18 82 60q0 18 -17 55q-10 35 -12 73t-2 73q-4 25 -6 47t-2 45q0 45 4 89t4 93q0 18 16 18q10 0 20.5 -8t10.5 -24q0 -47 -4 -106.5t-4 -117.5q0 -47 5.5 -88.5t21.5 -74.5zM766 1124 q-6 6 -6 17q0 10 7 21.5t19 11.5q8 0 13 -3q78 -104 178 -176q6 -6 6 -18t-6 -25.5t-16 -13.5q-8 0 -17 8q-35 53 -81 90t-97 88zM1073 995q-12 -12 -20 -12q-10 0 -11 12q-53 35 -88.5 73t-74.5 89q-8 0 -15.5 4t-7.5 13q0 8 8 16q0 14 33 14q35 -51 80 -88t82 -74 q10 -12 12 -21.5t2 -25.5zM1122 1026q-47 53 -86 98t-73 80q-12 10 -15.5 18.5t-3.5 18.5v14q0 10 10 11q8 0 23 -11q37 -39 81 -84t81 -96q10 -12 12 -24.5t2 -24.5h-31zM86 1124q51 -61 69.5 -131.5t28.5 -142.5q0 -27 -14 -27q-10 0 -21.5 12.5t-11.5 28.5 q-16 51 -30.5 113.5t-53.5 114.5q-4 4 -4 10q0 10 8.5 21.5t16.5 11.5q6 -1 12 -11zM752 332q111 -59 196.5 -123t173.5 -137q6 -12 6 -29q0 -29 -12 -29q-6 0 -10 11q-86 86 -186.5 153.5t-211 122.5t-226 98t-232.5 78q-10 10 -17.5 27.5t-7.5 27.5t8 11q12 59 29 117.5 t51 109.5q8 4 15 4q16 0 27.5 -13t11.5 -26q0 -10 -7 -16q-35 -51 -49 -97.5t-30 -97.5h18q10 61 34.5 111.5t59.5 101.5q6 10 13 11q10 0 20 -14.5t10 -28.5t-10 -19q-25 -35 -47.5 -80t-32.5 -96q6 0 15.5 -5t11.5 -5l6 -4v14q10 51 27.5 97t52.5 98q6 10 12 10 q10 0 20.5 -14.5t10.5 -28.5q0 -12 -10 -19q-25 -35 -37.5 -80t-28.5 -96h18q10 51 35 104.5t64 90.5q4 10 10 10q8 0 15 -15.5t7 -29.5q0 -10 -4 -14q-35 -35 -49 -80t-30 -80l18 -19q10 59 34.5 108.5t59.5 100.5q8 6 17 6q16 0 26 -15t10 -34q0 -8 -4 -20 q-37 -25 -61.5 -67t-34.5 -93q-2 0 6 -4q8 -8 8 -14q29 121 99 194q8 8 16 8q14 0 25.5 -16t11.5 -31q0 -6 -4 -10q-37 -35 -61.5 -71.5t-34.5 -88.5h14q25 51 50.5 95.5t64.5 82.5q10 10 20 11q12 0 19.5 -11.5t7.5 -25.5q0 -18 -15 -25l-8 -12q-23 -33 -45 -66.5 t-45 -80.5h14q25 51 51.5 93t65.5 66q8 10 21 11q12 0 21 -12.5t9 -28.5q0 -4 -4 -17q-35 -25 -61 -67.5t-51 -77.5z" />
<glyph unicode="&#xe8;" horiz-adv-x="798" d="M469 811q-29 -10 -63 -10q-72 0 -126.5 46t-70.5 107q0 4 -1 5.5t-1 5.5q-10 41 -18.5 78.5t-8.5 78.5q0 39 8 72l5 10q14 31 35.5 63.5t62.5 47.5q6 2 16 2q29 0 62.5 -25.5t65.5 -60.5t58.5 -74t41.5 -65q16 -29 25 -63t9 -68q0 -47 -23.5 -89.5t-76.5 -60.5zM270 1194 q-10 -31 -13 -57.5t-3 -53.5t3 -54.5t13 -55.5q10 -43 40 -66.5t69 -23.5q59 0 110 51q27 27 27 59q0 35 -23.5 71t-43.5 69q-10 6 -28 20t-37 28.5t-38.5 26t-38.5 11.5q-27 0 -37 -25zM291 772q45 -16 87 -44t71 -56q37 -47 36 -123q0 -53 -19.5 -104.5t-55.5 -77.5 q-41 -29 -86 -29q-61 0 -111.5 51t-81.5 121q-6 12 -14 35.5t-15.5 52.5t-12.5 58.5t-5 58.5q0 41 14.5 68.5t51.5 27.5q45 0 78.5 -11.5t62.5 -27.5zM389 489q27 39 27 80q0 29 -15.5 55.5t-50.5 47.5q-29 16 -71.5 37.5t-90.5 21.5q-6 2 -14 2q-27 0 -27 -45 q0 -20 5.5 -43.5t11.5 -46.5t13 -41t11 -27l5 -8q0 -4 2 -5t2 -5q16 -31 35.5 -58.5t58.5 -27.5q35 0 66.5 14t31.5 49zM549 1235q-23 23 -35 54.5t-12 64.5q0 27 8 43q14 27 35.5 46t52.5 19q14 0 33 -6q45 -8 89 -26.5t83 -47t67.5 -65.5t42.5 -82q18 -37 19 -94 q0 -31 -7 -60.5t-21.5 -53t-38 -39t-56.5 -15.5h-14q-47 0 -88 17.5t-76 62.5q-18 33 -33.5 65.5t-32.5 67.5q0 2 -1 3t-1 3t-1 3t-1 3t-1 3t-1 3t-1 3t-1 3t-1 3t-1 4q0 2 -1 3t-1 3t-1 3t-1 3t-1 3t-1 3zM651 1374q-8 4 -24 4q-23 0 -38.5 -15t-15.5 -38q0 -25 19 -51v-21 q14 -23 23.5 -47t20.5 -48.5t27.5 -46t47.5 -38.5q31 -16 63 -16q43 0 71.5 30.5t28.5 83.5q-16 61 -47.5 96.5t-95.5 69.5q-16 16 -30.5 18.5t-49.5 18.5zM973 1214q0 14 1 33t7 35t18.5 31.5t36.5 23.5q12 6 23 6q29 0 60.5 -18t54.5 -31q39 -23 75.5 -49t64 -60t45 -76 t17.5 -95q0 -76 -53 -123t-125 -47q-29 0 -63 10q-45 16 -86 48t-76 91v80v141zM1036 1194q0 -23 -1 -47.5t-1 -48.5q0 -57 13.5 -104.5t66.5 -59.5q29 -14 64 -14q47 0 87 28.5t52 83.5q0 55 -44 97t-87 75q-2 2 -7 7.5t-10 5.5q-16 10 -41.5 22t-48.5 12q-18 0 -30.5 -12 t-12.5 -45zM1376 629q6 -29 6 -54q0 -111 -108 -188q-37 -27 -76 -40t-86 -25l-37 -11q-41 -16 -71.5 -47t-59.5 -63l-10 -13q-23 -31 -54.5 -59.5t-69.5 -53t-79 -43t-80 -26.5q-78 0 -112.5 50t-49.5 112q0 23 7.5 31t17.5 8q12 0 23.5 -11.5t11.5 -27.5 q12 -39 33.5 -54.5t48.5 -15.5q35 0 71.5 20.5t71.5 49.5q31 16 54.5 37.5t45 46t45 49.5t52.5 47q31 25 65.5 34t68.5 16.5t66.5 16.5t61.5 34q35 29 57.5 63.5t22.5 71.5q0 29 -18.5 56.5t-61.5 47.5q-29 14 -62.5 17.5t-69.5 5.5t-73 9t-74 32l-12 8q-35 23 -78 45 t-88 22q-23 0 -44 -8t-40 -26q-35 -33 -48 -76t-13 -88v-140q-16 -47 -41 -104t-41 -113q0 -16 -12 -16t-30 17.5t-18 37.5q16 41 29.5 86t30.5 92q8 23 9 48.5t1 54.5t1 58.5t11 60.5q8 39 23.5 75.5t40 64.5t58.5 45t81 17q45 0 80 -13t80 -46q16 -16 31.5 -30.5 t50.5 -30.5h119q74 0 143 -43t98 -121z" />
<glyph unicode="&#xe9;" horiz-adv-x="798" d="M852 1100q-8 2 -8 5t-8 3q-12 12 -13 27q0 12 13 34h12q0 12 6 13q8 0 8 -13q16 0 23.5 -16t7.5 -29q-10 -12 -12 -16t-19 -16zM682 1092q-6 -4 -16 -5q-14 0 -15 21q-12 12 -12 25q0 12 12 24q0 12 13 12q31 -23 30 -45q0 -32 -12 -32zM465 801q0 12 6 12q8 0 18.5 -11 t10.5 -20q0 -4 -2 -6q-23 -57 -23 -112q0 -47 19.5 -87t62.5 -63q37 -29 67.5 -47t57.5 -47q72 -55 72 -135q0 -29 -11.5 -56.5t-33.5 -50.5q-4 -4 -9 -4q-10 0 -18 11.5t-8 21.5q0 8 8 14q18 18 25.5 34.5t7.5 33.5q0 33 -28 63.5t-65.5 58t-77.5 53t-63 48.5 q-29 29 -39 61.5t-10 67.5q0 41 10.5 83t22.5 77zM315 481q45 -47 69 -93t36 -105q0 -29 -14 -29q-20 0 -31 29q0 37 -10.5 68.5t-36.5 54.5q-10 16 -36 38.5t-54 22.5q-20 0 -33 -14q-10 -16 -10 -45q0 -27 9 -54.5t26.5 -51t40 -38t46.5 -14.5q16 0 27 4q16 0 23.5 -13.5 t7.5 -27.5q0 -23 -17 -23q-6 -2 -20 -2q-35 0 -66.5 24t-57.5 58.5t-41 77.5t-15 82q0 41 16 68q10 14 23.5 19t27.5 5q25 0 49.5 -12.5t40.5 -28.5zM1217 254q47 23 86.5 56.5t66.5 80.5q0 8 12.5 34t12.5 42q0 14 -13 14q-27 0 -38 -8t-37 -20q-37 -27 -60.5 -59 t-46.5 -66q0 -4 -5 -15.5t-12 -26t-12.5 -26.5t-5.5 -18q0 -4 4 -4q14 0 23.5 -14.5t9.5 -26.5q0 -18 -16 -19q-35 6 -51.5 24.5t-16.5 43.5q0 31 23 69q23 57 64.5 109.5t101.5 89.5q27 20 59 21q35 0 58.5 -26t23.5 -73q0 -43 -18.5 -78.5t-48 -65.5t-65.5 -51.5 t-71 -33.5q-8 -4 -10 -4q-12 0 -21.5 14t-9.5 25q1 12 13 12zM1493 526q14 -43 14 -90q0 -82 -43 -153.5t-111.5 -124t-153.5 -83t-169 -30.5q-92 0 -168 39q-20 -4 -40.5 -8t-43.5 -4q-31 0 -62.5 6t-64.5 22q-45 -10 -87 -15t-83 -5q-78 0 -150.5 24.5t-140.5 83.5 q-51 45 -96 118t-45 155q0 53 23 98q18 59 58 90t87 31q37 0 74 -18.5t67 -59.5q37 -49 67 -109.5t61.5 -121t73.5 -111.5t104 -82q0 -12 9 -16t9 -17q41 -10 84 -10q41 0 82 10h14q68 -41 158 -41q74 0 146.5 25t125.5 64q31 23 61.5 52t55.5 63t40 72t15 75q0 41 -16 71 q-35 66 -92 66q-29 0 -59.5 -14.5t-58.5 -36t-50.5 -46t-34.5 -42.5q-47 -86 -101.5 -162t-113.5 -146q-2 -2 -6 -2q-8 0 -17.5 12.5t-9.5 24.5q0 8 4 10q47 57 91 114.5t79 115.5q0 4 2 10l4 12l7 11v16q18 68 18 137q0 70 -24.5 133.5t-84.5 110.5h-14q0 -12 -9 -22.5 t-20 -26.5q-39 -39 -90 -59.5t-106 -20.5q-59 0 -111 22q-8 0 -13 11.5t-5 21.5q0 14 10 15q2 0 4 -1.5t4 -1.5q18 -4 38 -6t40 -2q29 0 59.5 5.5t59.5 17.5q39 14 74.5 54t35.5 81q0 25 -17 46.5t-60 35.5q-25 4 -46.5 6t-43.5 2q-23 0 -43.5 -2t-38.5 -6 q-16 -10 -37 -24.5t-39.5 -33t-30.5 -39t-12 -42.5q0 -31 28 -60q8 -8 9 -20q0 -10 -4.5 -17.5t-8.5 -7.5q-6 0 -8 12q-55 53 -55 113q0 37 21.5 71t56.5 58.5t79 38.5t87 14q68 0 114 -34q37 -23 59.5 -54.5t32.5 -68.5q43 27 63.5 74t20.5 100q0 43 -12 86t-39 78 q-51 70 -119.5 112.5t-156.5 42.5q-12 0 -24.5 -1t-24.5 -3q-78 -12 -143.5 -55t-100.5 -115q-10 -35 -16.5 -77t-6.5 -85q0 -53 14.5 -103t55.5 -83q18 -12 18 -33q0 -18 -18 -18q-2 0 -14 4l-17 16q-47 -29 -87 -79t-50 -107q0 -12 -6 -12q-8 0 -17.5 12t-9.5 22q0 6 4 11 q10 57 44 109t94 87q-35 41 -49.5 93.5t-14.5 105.5q0 86 31 154l16 16q-29 18 -55 18q-25 0 -46.5 -10t-35.5 -24q-18 -25 -18 -54q0 -27 16 -47t47 -20q16 0 23.5 -10.5t7.5 -20.5q0 -18 -17 -18q-57 0 -86.5 44t-29.5 95q0 12 2 24.5t6 22.5q12 37 47 57.5t61 20.5 q37 0 59.5 -10.5t35.5 -22.5q45 68 129 111t178 43q125 -10 213 -83t135 -177q0 -10 8 -22.5t8 -25.5q16 -8 37 -8q31 0 49.5 24.5t18.5 59.5q2 8 2 21q0 29 -20.5 40t-49.5 11q-27 0 -53 -6q-2 -2 -8 -2q-10 0 -18.5 13t-8.5 24q0 10 6 10q23 6 42.5 12t39.5 6q31 0 56 -18 q37 -29 49 -57.5t12 -65.5q0 -49 -30.5 -90t-84.5 -41q-18 0 -39 6q6 -29 6 -53q0 -90 -67 -158q68 -47 116 -122t83 -152q39 20 79 20q47 0 86 -29t66 -88zM1153 545q12 10 24.5 21.5t39.5 23.5v12q-45 150 -138 232q47 -59 60.5 -135t13.5 -154zM238 207q66 -41 131 -54.5 t131 -13.5q51 0 106 6q-49 47 -91 109.5t-77 122.5q-16 27 -37.5 71t-48 85.5t-57.5 72.5t-68 31q-41 0 -82 -47q-27 -29 -38 -63.5t-11 -69.5q0 -74 41.5 -142.5t100.5 -107.5zM784 866q-10 0 -19 6.5t-26 6.5q-10 16 -12 25t-18 22v12q0 8 3 15.5t15 17.5q12 16 33 16h8 q16 0 33.5 -5t34.5 -28q12 0 12 -12v-16q0 -16 -31 -47q-13 -13 -33 -13z" />
<glyph unicode="&#xea;" horiz-adv-x="798" d="M395 1061q10 -78 13.5 -168t3.5 -182v-508q0 -43 -14.5 -86t-57.5 -43q-12 0 -29.5 -1t-36.5 -1q-41 0 -77.5 10t-36.5 49q0 27 8 41t8 31q16 16 18.5 28.5t18.5 28.5q0 41 9 81t9 81q16 72 19.5 149.5t19.5 161.5q0 80 -3 158t-19 147h-125q-29 0 -44.5 9.5t-24.5 23.5 t-13 30.5t-10 31.5q4 6 4 20q0 23 -11.5 50.5t-11.5 62.5q0 16 2 42.5t17 41.5q16 8 37 8q18 0 37.5 -4t35.5 -4h19v16q0 10 3 19.5t13 19.5q12 18 25.5 24.5t27.5 6.5q20 0 40 -6.5t42 -6.5q14 0 21.5 -2t7.5 -16v-39h147q12 0 19.5 -11.5t7.5 -23.5q0 -14 -7 -24.5 t-20 -10.5h-419q6 0 13 -25.5t12 -58t9 -62.5t4 -36q0 -14 9.5 -16t25.5 -2h54q43 16 91 18t91 19q55 0 106.5 8t91.5 8h39l-145 164q-4 8 -4 14q0 16 11 27.5t24 11.5q14 0 22 -16q4 -12 28.5 -46t52.5 -72t49.5 -74t21.5 -52q0 -8 -6 -10q-8 -8 -21 -9q-10 0 -21.5 4.5 t-29.5 4.5q-16 0 -40 -9.5t-52 -9.5h-31q-18 0 -38 -3t-40 -13zM248 1350q10 0 19 3t20 13h-56v-16h17zM358 641q0 96 -4 202.5t-30 217.5h-19q14 -41 16.5 -68.5t2.5 -64.5v-15q0 -135 -4.5 -282.5t-32.5 -300.5q-16 -41 -19.5 -79t-19.5 -67q0 -16 -8.5 -17t-8.5 -17 q16 0 37 -9.5t37 -9.5l8 6q2 2 6 2t5 -8l16 19q0 27 9 41t9 30v420zM1032 549q8 -10 8 -31q0 -18 -4 -38.5t-4 -39.5q-16 -55 -18 -109.5t-19 -109.5q0 -23 -1 -48.5t-6 -51t-16 -48t-30 -34.5q-10 -8 -22.5 -10t-26.5 -2q-43 0 -90 19.5t-80 29.5q-53 16 -117.5 39.5 t-118.5 50.5q-16 0 -27 10t-28 27q0 27 10.5 42t26.5 31q39 35 61.5 78t36 90.5t22.5 97.5t25 99q12 20 32 25.5t40.5 7.5t39.5 4t34 16q14 14 18 34t4 42q0 23 -2 44.5t-2 43.5q-23 94 -50.5 182t-27.5 189q0 16 1 33.5t4 33.5q16 82 67 131.5t135 49.5q53 0 102.5 -34 t77.5 -77q18 -43 19 -80q0 -35 -10.5 -67.5t-25.5 -65.5t-30.5 -65.5t-25.5 -65.5q-18 -49 -30.5 -102.5t-12.5 -106.5q0 -45 8 -80q0 -43 9 -93t26 -91h18zM831 713q-25 -80 -108 -109h20q41 -29 92.5 -34t106.5 -5q-14 27 -16 52.5t-2 50.5v8q-12 70 -13 137q0 63 13 119 q16 53 30.5 105.5t40.5 95.5q12 33 27.5 64.5t15.5 64.5q0 16 -6 34q0 20 -11 40t-29.5 35t-41 24.5t-43.5 9.5h-16q-74 0 -103.5 -53.5t-29.5 -122.5q0 -35 5 -69t15 -64q4 -39 14.5 -78t20.5 -77t18.5 -78t8.5 -79q-1 -38 -9 -71zM942 184q0 84 10.5 162t26.5 148 q-84 0 -169 9t-142 62q0 -16 -8.5 -17t-8.5 -18q53 -43 126 -66.5t130 -23.5q20 0 30.5 -9t10.5 -19q0 -27 -41 -27q-70 0 -145.5 15.5t-128.5 58.5l-4 -10q-14 -41 -28.5 -77t-41.5 -77q0 -49 -55 -74q6 0 16 -10q2 -2 2 -8q70 -16 128.5 -36t127.5 -36q29 -16 54.5 -25.5 t52.5 -9.5q14 0 22 11.5t14.5 27t10.5 29.5t10 20zM995 1225q-35 -61 -94 -62h-16t-17 4q-23 12 -41 29.5t-18 40.5q0 12 6 23q0 29 12.5 51t40.5 39h74q18 -12 19 -31q0 -27 -23 -27q-2 0 -14 4h-23q-16 0 -24.5 -2t-8.5 -16v-16q0 -10 3 -18.5t14 -18.5q6 -6 14 -6 q10 0 20.5 14t22.5 27q8 8 21 8q12 0 24 -8.5t12 -20.5q0 -6 -4 -14z" />
<glyph unicode="&#xeb;" horiz-adv-x="798" d="M465 602q-41 0 -41 41l-8 66q-25 188 -47.5 364t-36.5 367q-12 0 -13 4q0 4 11.5 8t21.5 4q154 8 309.5 11t315.5 3t317.5 -3t319.5 -11q16 0 30.5 -16.5t14.5 -32.5q0 -10 -6 -17.5t-23 -7.5q-154 0 -306.5 6.5t-305.5 6.5q-307 0 -610 -13h-21q0 -23 10.5 -45t10.5 -57 q12 -143 36.5 -298t36.5 -302h1030q0 29 10.5 68.5t10.5 87.5q16 121 27.5 232.5t33.5 231.5q0 23 17 23q14 0 29.5 -14.5t15.5 -30.5q0 -10 -4 -14q-16 -160 -31.5 -321t-50.5 -320q0 -20 -17 -21h-1087zM1630 446q8 -8 35 -33.5t61.5 -62.5t72.5 -80t70 -84t52.5 -75.5 t20.5 -53.5q0 -18 -23 -18q-106 -12 -214 -14t-210 -2h-1339q-10 -2 -27 -3q-35 0 -49 13.5t-14 36.5q0 33 22.5 73.5t50.5 71.5q59 59 115.5 128t118.5 140q6 8 14 21.5t20.5 27t27 23.5t30.5 10h1087q20 0 35 -17.5t15 -35.5q0 -29 -33 -29h-1104q-47 -59 -85 -104 t-73 -107q-41 -47 -81 -88t-87 -88h1667q23 0 23 21q0 20 -20.5 51t-43.5 47q-47 59 -86 104.5t-86 90.5q-10 8 -14 16t-4 14q0 20 22 21q19 -1 33 -15zM1552 293q0 -16 -2 -36.5t-18 -20.5h-1030q-12 0 -27.5 13t-15.5 30q0 8 6 14q6 23 16.5 41t21.5 35.5t21.5 36 t18.5 40.5l20 21q223 0 433 -10.5t421 -10.5h21q10 0 9 -4t3 -8q0 -4 4 -8q35 -29 49 -63.5t49 -69.5zM1454 309q0 29 -37 64h-796l-15 6q-12 4 -10 4q-4 0 -4 -6t-8 -23q0 -10 -4.5 -14t-8.5 -14l-8 -17h891zM760 199q86 0 181 2t181 14q20 0 32.5 -16.5t12.5 -36.5 q0 -12 -5 -23.5t-19 -17.5h-346q-20 0 -38 22.5t-18 38.5q1 17 19 17z" />
<glyph unicode="&#xec;" horiz-adv-x="464" d="M1006 891q-23 -51 -80.5 -77t-122.5 -26q-39 0 -77 9.5t-71 27.5v-41q0 -16 12.5 -26t31 -15.5t40 -6.5t39.5 -1h31q18 0 37.5 1t38 7.5t33 20.5t24.5 39q0 18 12 18q14 0 33 -19.5t19 -43.5q-10 -55 -68.5 -82t-126.5 -27q-45 0 -86 10.5t-70 32.5q-47 49 -55 109.5 t-8 107.5v23q0 14 10 16q2 4 12 4q10 51 54.5 76t89.5 25q27 0 51 -11q66 0 123 -31.5t74 -101.5v-18zM788 979q-23 -8 -39 -13t-32 -14q-20 -6 -33.5 -15t-13.5 -17t8 -11q16 -16 54 -25.5t79 -9.5q45 0 83 13.5t48 44.5q-10 18 -31.5 27.5t-45 13.5t-45.5 5t-32 1z M246 891q-35 45 -41 102.5t-6 106.5v26q0 6 4 11q4 12 20 12q8 25 32 41t51.5 27.5t57 15.5t52.5 4q0 -12 8 -15t20 -3h19q31 16 54.5 31.5t53.5 31.5v84q12 51 54.5 73.5t87.5 22.5q31 0 53 -8q23 0 52.5 -6t57 -20.5t47 -36t19.5 -52.5q0 -12 -14 -14h-10 q-12 -47 -61.5 -74.5t-106.5 -27.5q-31 0 -62 9t-55 28v-66q0 -14 28.5 -22.5t69.5 -8.5q47 0 91 13.5t50 42.5q0 27 17 26q16 0 34.5 -18.5t18.5 -32.5q-12 -57 -69.5 -83t-120.5 -26q-43 0 -80 10.5t-58 30.5q-16 16 -21 34t-22 34q-8 0 -12 -2q-10 -6 -10 -21l6 -6 q16 -16 26.5 -28.5t10.5 -28.5v-23q-23 -51 -75 -77.5t-114 -26.5q-35 0 -71.5 9t-67.5 30v-68q0 -16 30 -23t71 -7q27 0 53 3t50 10t40 18.5t22 25.5q0 27 15 27q14 0 30.5 -18.5t16.5 -35.5q-4 -29 -22.5 -48t-46 -32.5t-61.5 -19.5t-67 -6q-47 0 -89 11t-60 34zM748 1393 q-6 0 -24.5 -7.5t-38 -18.5t-36 -22.5t-16.5 -19.5q16 -10 52 -17.5t75 -7.5q41 0 73.5 10.5t38.5 32.5q-8 18 -25.5 28.5t-36.5 15t-36.5 5.5t-25.5 1zM375 1149q-16 -4 -32.5 -9t-29.5 -14q-8 -4 -28.5 -14t-20.5 -27q16 -8 56 -14t83 -6t80 9t47 34q-10 14 -32.5 23.5 t-47 12.5t-46 4t-29.5 1zM1591 1020q8 -49 12.5 -104.5t4.5 -112.5t-4.5 -113.5t-12.5 -103.5q0 -27 -21.5 -54.5t-50 -51t-57 -42t-45.5 -26.5q-96 -86 -195.5 -154t-199.5 -156q-29 -27 -64.5 -55.5t-74.5 -28.5q-14 0 -29 7q-199 78 -389.5 172t-376.5 192 q-31 16 -47 32.5t-24.5 37t-9.5 47t-1 65.5v361h23v20q31 20 63.5 36t65.5 32q4 4 12 4q10 0 19.5 -12.5t9.5 -28.5q0 -18 -19 -31q-16 -16 -32.5 -21t-32.5 -22q16 0 21 -9t22 -9l129 -64.5t129 -68.5q86 -33 154.5 -63.5t154.5 -65.5q31 -16 65.5 -44t81.5 -44 q8 8 20.5 19t26 22.5t25.5 18.5t21 7q47 33 91 75t79 75q98 68 182 132t166 130q-16 16 -42 22.5t-44 22.5q-16 0 -30.5 13.5t-14.5 29.5q0 10 7 19.5t17 9.5t21 -11q33 -16 74.5 -30.5t78.5 -30.5h19q16 0 19 -14.5t3 -30.5zM1550 952q-92 -61 -182 -132.5t-182 -145.5 l-29 -23q-27 -16 -58.5 -42.5t-65.5 -52.5t-69.5 -48.5t-68.5 -32.5v-258q0 -35 -23 -35q-14 0 -27.5 12.5t-13.5 22.5v258q-31 10 -66.5 28.5t-71.5 39t-67.5 38t-54.5 27.5q-117 66 -227.5 116t-206.5 101q-16 16 -33.5 21.5t-33.5 21.5v-393q16 0 43.5 -12t44.5 -29 q115 -51 228.5 -109.5t227.5 -107.5q47 -33 97.5 -52.5t97.5 -35.5q25 -12 34 -22.5t15 -10.5q4 0 14 10q100 51 187.5 123t181.5 140q70 49 156 110.5t153 128.5v217v127zM942 1237q-8 6 -12 18.5t-4 24.5q0 29 20 29q8 0 19 -6q31 0 50 -13.5t56 -29.5q35 16 65.5 19 t63.5 3q25 0 51.5 -8t51 -25.5t44 -42t27.5 -57.5v-23q-20 -47 -71.5 -72.5t-112.5 -25.5q-37 0 -74 9.5t-67 27.5v-45q0 -16 17 -24.5t39.5 -11.5t44 -4t32.5 -1q31 0 69.5 16.5t55.5 46.5q0 18 14 19q16 0 34.5 -18.5t18.5 -41.5q-6 -29 -24.5 -49t-46 -34.5t-61.5 -20.5 t-66 -6q-43 0 -83 10t-67 31q-29 33 -37 68.5t-8 70.5q0 23 1 41t1 37v22q0 16 5 24.5t18 23.5q-16 0 -32 9t-32 9zM1307 1171q-6 8 -26.5 13.5t-45.5 7.5t-47.5 2h-30.5q-39 -4 -63 -12q-18 -6 -34 -13.5t-16 -13.5q0 -2 5 -6q16 -16 56 -27.5t83 -11.5q41 0 77 13t42 48z " />
<glyph unicode="&#xed;" horiz-adv-x="1705" d="M1446 1157q0 -6 1 -12t1 -12q0 -41 -15.5 -74t-41 -62.5t-58.5 -54t-65 -47.5q-31 -20 -68 -39.5t-72.5 -38t-67.5 -38t-54 -42.5l-7 -10q-12 -20 -27.5 -45t-34.5 -45.5t-42 -33.5t-49 -13q-16 0 -41 10q-33 4 -72 25.5t-71.5 52.5t-55 69.5t-22.5 79.5q0 8 1 14.5 t3 14.5q14 61 42.5 93t74.5 48q-12 27 -32 62t-45.5 63.5t-54 49t-59.5 20.5q-37 0 -70 -35q-29 -16 -45 -51l-32 -70q0 -53 16 -105t42 -100.5t57.5 -92.5t60.5 -83q78 -90 166 -166.5t194 -93.5q25 -4 46.5 -6t41.5 -2q63 0 115 29q53 29 53 69q0 39 -42 75t-95 56 q-6 10 -12 32t-6 38t8 16q2 0 10 -4q31 -16 66.5 -38.5t67.5 -50t55.5 -60.5t33.5 -70q0 -39 -17.5 -68.5t-44 -52t-58 -38t-60.5 -23.5q-8 0 -16.5 -1t-16.5 -1q-78 0 -150.5 24.5t-138 64.5t-121 91t-98.5 103q-29 29 -59.5 71.5t-58.5 87.5q-53 -10 -101.5 -40.5 t-85.5 -73.5t-58.5 -95.5t-21.5 -105.5q0 -43 15.5 -85t50.5 -79q51 -57 113.5 -84t127.5 -27q74 0 142.5 33t116.5 99q10 10 22 10q16 0 28.5 -19.5t12.5 -36.5q0 -6 -4 -14q-55 -78 -135 -117t-166 -39q-98 0 -190.5 49.5t-149.5 145.5q-37 94 -37 188q0 131 72.5 232.5 t208.5 138.5q-23 53 -41.5 106.5t-18.5 106.5q0 23 3 44.5t14 43.5q8 31 23 59.5t38 51t52.5 37t66.5 14.5q47 -10 85 -33.5t69.5 -57.5t57 -74t48.5 -79q0 16 12 21.5t29 21.5q23 45 49.5 97.5t60 101.5t75.5 87t95 52q27 8 64 8q49 0 95 -16t81 -51q45 -45 75 -93.5 t46 -107.5zM1143 918q31 20 71.5 45.5t79.5 55.5t65.5 65.5t26.5 76.5q0 4 -1 8.5t-1 8.5q-16 29 -39.5 60.5t-39.5 59.5q-68 55 -129 56q-53 0 -97.5 -34t-82.5 -83t-69.5 -103.5t-60.5 -97.5q-16 -16 -32.5 -38.5t-51.5 -39.5q-16 -16 -49 -30.5t-49 -30.5 q-25 -31 -25 -68q0 -29 14.5 -55t37 -47.5t51.5 -35t57 -13.5q51 0 84 41q16 29 45 57.5t58 63.5q29 29 68.5 45.5t68.5 32.5zM385 600q-53 -23 -92 -77t-39 -107q0 -47 31 -78q35 -35 72.5 -50.5t76.5 -15.5q47 0 87 22.5t65 65.5q12 4 18 5q23 0 35 -18.5t12 -41.5 q0 -14 -6 -26q-41 -49 -90 -73t-100 -24q-121 0 -211 115q-49 74 -49 154q0 72 39.5 134t111.5 93q8 4 12 4q16 0 29.5 -18.5t13.5 -36.5q0 -21 -16 -27zM524 1020q-27 0 -42 16.5t-15 32.5q0 29 37 29q18 0 30.5 -18.5t12.5 -35.5q0 -24 -23 -24zM1022 516q29 0 45 -16.5 t16 -32.5q0 -29 -39 -29q-18 0 -29 18.5t-11 35.5q0 24 18 24z" />
<glyph unicode="&#xee;" horiz-adv-x="1705" d="M1587 1212q2 -8 2 -28q0 -47 -28.5 -90t-83.5 -43q-12 0 -33 4q-78 12 -146.5 35.5t-115.5 83.5q-78 -123 -137.5 -265.5t-106.5 -279.5q8 2 14 3t15 1q39 0 69.5 -20.5t40.5 -45.5q18 6 39 6q41 0 77 -24.5t50 -61.5q76 119 124 237t77 226q8 31 31 31q12 0 23 -10 t11 -25q0 -2 -4 -14q-31 -96 -60.5 -172t-62.5 -172q-16 -16 -27.5 -41t-21.5 -51.5t-21.5 -51t-25.5 -38.5q-78 -61 -164 -119t-164 -105q-10 -10 -20 -10t-14 9t-4 20l-5 22q-16 72 -28.5 128.5t-28.5 113.5q0 31 -5 56.5t-5 51.5q0 29 10 56q59 166 133 329.5t152 319.5 h16v16q27 51 80 76t113 25q41 0 82 -12.5t73.5 -35t54 -56.5t25.5 -79zM1020 504q0 63 -43 63q-27 0 -57 -22q0 -31 9 -60.5t9 -64.5q0 -16 2 -28.5t18 -29.5q16 0 40 -10t40 -28l23 20q29 16 68.5 32.5t72.5 49.5q-18 66 -88 66h-18.5t-18.5 -5q-6 -10 -16 -10t-19.5 8.5 t-21.5 18.5zM1202 1251q31 -59 94.5 -81.5t128.5 -34.5q20 -14 43 -15q37 0 58 54v20q0 16 -3 32.5t-18 24.5q-33 35 -81 56.5t-95 21.5q-39 0 -73 -18.5t-54 -59.5zM1182 1032q6 14 16 15q10 0 19.5 -13.5t9.5 -25.5q0 -8 -6 -15q-16 -78 -44 -142.5t-57 -123.5 q-8 -20 -24 -20q-12 0 -21 8q-18 14 -18 30q0 6 4 23q29 61 60.5 124.5t60.5 139.5zM1221 645q-6 -16 -23 -16q-14 0 -27.5 12t-13.5 29q0 10 2 14q47 78 81 154.5t63 154.5q8 10 18 11q16 0 29.5 -19.5t13.5 -34.5q-29 -76 -61.5 -151.5t-81.5 -153.5zM797 221q12 4 16 4 q16 0 28.5 -12t12.5 -27q0 -14 -16 -24q-78 -47 -164 -87t-164 -52q-4 -2 -12 -3q-18 0 -35 20.5t-31 47.5t-23.5 53.5t-15.5 40.5q-111 203 -201 399.5t-161 389.5q-14 37 -15 61q0 25 31 39q-12 27 -12 57q0 53 35.5 90t87.5 37q10 0 30 -4q25 0 62 -39q0 55 36 100.5 t101 45.5q16 0 27 -2q16 0 27.5 -13.5t11.5 -25.5q0 53 32.5 98t96.5 45q8 0 15 -1t17 -3q49 -16 67.5 -53t37.5 -70l39 -39q47 -76 80.5 -161.5t81.5 -161.5q2 -6 2 -15q0 -14 -9.5 -21t-21.5 -7q-23 0 -33 22q-33 61 -62.5 135t-76.5 152v14q-18 -29 -23.5 -44t-15.5 -33 q-16 -16 -41 -17q-16 0 -27.5 8.5t-11.5 20.5t14 26v25q-29 -18 -56.5 -22.5t-47.5 -20.5q0 -33 -11.5 -63.5t-27.5 -59.5q-16 -16 -37 -16q-18 0 -31.5 11t-13.5 28q0 10 4 16t10.5 16.5t6.5 12.5q4 4 4 12q-33 -12 -62.5 -17.5t-62.5 -23.5q0 -41 -5 -75t-34 -64 q-16 -16 -37 -17q-16 0 -26.5 8.5t-10.5 22.5q0 10 12 27q0 16 10.5 31.5t10.5 27.5q-12 -10 -40 -24.5t-46 -14.5q-12 0 -27.5 -2t-25.5 -18q12 -16 17 -30.5t24 -31.5q76 -184 152.5 -362t168.5 -348q16 -29 30.5 -58.5t31.5 -60.5l16 -21h27q59 33 130 62.5t130 58.5z M614 1376q-12 12 -24 13q-23 0 -42.5 -25t-19.5 -47q0 -10 9 -23h16q16 0 42 13.5t42 25.5q0 6 -4 13q-5 14 -19 30zM414 1278q-12 10 -31 10q-23 0 -39 -17.5t-16 -39.5q0 -6 4 -19q29 0 50 12.5t50 12.5q0 6 -3 11t-7 14zM188 1174q-6 12 -18 12q-18 0 -38.5 -24.5 t-20.5 -51.5q29 18 49 23.5t49 17.5zM680 1071q20 0 37.5 -16.5t17.5 -34.5t-16 -27q-109 -33 -205 -76t-203 -90q-8 -4 -14 -4q-16 0 -24.5 18.5t-8.5 32.5t6 15l33 14q98 43 192.5 84t184.5 84zM352 711q-23 0 -36 17t-13 36q0 16 8 24q72 16 131.5 41t116.5 52l16 8 q2 4 9 4q10 0 19 -11.5t9 -25.5q0 -16 -18 -29q-66 -29 -124.5 -58t-117.5 -58zM453 487q-6 -6 -13 -6q-10 0 -17 11.5t-7 23.5q0 20 16 29q29 16 72 41.5t90 42.5q4 2 14 2q18 0 26.5 -15.5t8.5 -29.5q0 -12 -6 -19q-47 -16 -92 -42t-92 -38zM494 362q-8 -4 -11 -4 q-10 0 -19 13.5t-9 27.5q0 18 16 27q61 29 123.5 58.5t138.5 60.5q4 4 10 4q10 0 19.5 -11.5t9.5 -25.5q0 -18 -14 -25q-59 -33 -123.5 -62.5t-140.5 -62.5zM393 606q-4 -2 -10 -2q-10 0 -19.5 10.5t-9.5 24.5q0 18 17 29q47 16 90 34.5t84 37t84 36t90 31.5q12 4 14 4 q16 0 24.5 -13.5t8.5 -27.5q0 -12 -8 -20q-92 -29 -184.5 -72t-180.5 -72z" />
<glyph unicode="&#xef;" horiz-adv-x="452" d="M203 -55q-35 -6 -66 -6q-82 0 -122 43t-40 114q0 51 16.5 141.5t53.5 210t95.5 264t142.5 306.5q90 -6 151.5 -38t61.5 -87q0 -18 -11 -43q-63 -137 -113 -271.5t-86 -253t-55.5 -215t-19.5 -157.5zM592 1157q-63 0 -90 32t-27 73q0 29 11.5 59.5t32 55t48 40t62.5 15.5 q66 0 97.5 -35t31.5 -82q0 -29 -11.5 -56.5t-32 -50t-52 -37t-70.5 -14.5zM276 1147q-66 0 -95 32.5t-29 80.5q0 31 12 62.5t33.5 57t51.5 42t64 16.5q72 0 105 -38t33 -87q0 -29 -11.5 -58.5t-34 -53t-55.5 -39t-74 -15.5z" />
<glyph unicode="&#xf1;" horiz-adv-x="831" d="M1227 651q16 16 37 17q23 0 41 -17.5t18 -40.5q0 -27 -27 -47q-39 -41 -90 -77.5t-104 -63.5q-125 -74 -275.5 -129t-304.5 -55q-88 0 -164 20q-78 20 -135 66.5t-94 108t-54.5 133t-17.5 147.5q0 53 8.5 105t24.5 102q49 141 150.5 199.5t230.5 58.5q121 0 255 -40 t262 -96.5t236.5 -120t176.5 -112.5q147 -104 306 -195.5t333 -156.5q74 -20 165 -41t181 -21t168 32t125 118q31 55 48 125.5t17 144.5q0 100 -34 189q-37 94 -112 136t-167 42q-106 0 -211.5 -24.5t-205 -66.5t-191.5 -96.5t-172 -113.5q-20 -14 -39 -15q-29 0 -48.5 22.5 t-19.5 47.5q0 23 19 35q133 104 266 157q59 31 131 63t149.5 57.5t158.5 43t161 17.5q53 0 101 -8.5t96 -28.5q61 -35 104 -87t71.5 -113.5t42 -131.5t13.5 -139q0 -156 -57 -289q-59 -135 -168 -189.5t-242 -54.5q-119 0 -249 34t-253 84t-230.5 107.5t-182.5 104.5 q-147 106 -297 197.5t-324 158.5q-35 14 -80 29.5t-95 29t-102.5 22.5t-103.5 9q-88 0 -161.5 -35.5t-110.5 -127.5q-23 -78 -23 -168q0 -72 16.5 -140.5t57.5 -117.5t97.5 -71t121.5 -22q39 0 82 7q86 6 177 28.5t179 59.5t169 86t149 108z" />
<glyph unicode="&#xf3;" horiz-adv-x="864" d="M1784 690q-16 -8 -28.5 5.5t-16.5 31.5t1 34.5t21 16.5q35 0 67 10.5t62 10.5q-16 66 -51 112.5t-100 63.5q-66 -35 -127.5 -53.5t-112.5 -34.5q-281 -66 -543 -36t-528 146q-33 -35 -51.5 -69.5t-34.5 -85.5v-21q-16 -16 -30.5 -42.5t-14.5 -45.5l25 -22q16 -8 24 -25.5 t8 -34t-8 -27t-24 -1.5h-25q0 -16 3 -34t22 -50q31 -74 85 -132.5t121.5 -101.5t143.5 -71.5t149 -45.5q88 -16 203 -22t236.5 5t238.5 42t210 87t149.5 141t56.5 206q0 25 13.5 30t29.5 -1t29.5 -20.5t13.5 -32.5q0 -141 -66.5 -242.5t-174 -168.5t-245 -101.5t-278.5 -43 t-273.5 7t-230.5 48.5q-74 33 -152.5 75t-147 95t-122 118.5t-78.5 147.5v88q-23 18 -30 21q-8 2 -15 2q-49 16 -93 48t-60 81q-8 33 -1 64.5t23.5 56t40 40t47.5 15.5q49 0 82 -14.5t49 -30.5q16 51 46 86t63 69h43q139 -66 289.5 -105.5t304.5 -47.5t307.5 17.5 t300.5 90.5q8 0 23.5 6.5t34 12.5t38 8t35.5 -6q35 -16 55.5 -31.5t53.5 -32.5q35 16 69.5 40t83.5 24q49 -16 90 -48t41 -83q8 -66 -33.5 -108t-103 -68.5t-128 -41t-105.5 -22.5zM123 799q16 -16 46 -28.5t64 -12.5q0 16 2.5 44.5t18.5 63.5q-16 0 -32.5 10.5t-33.5 10.5 q-16 -8 -34.5 -19.5t-30.5 -24t-14 -24.5t14 -20zM1915 909q16 -16 21.5 -34.5t21.5 -53.5q0 14 10 19q4 2 10 2q35 18 65 36.5t46 51.5q8 16 -2 22t-26.5 6t-34 -3t-25.5 -3q-33 -16 -51.5 -21.5t-34.5 -21.5zM537 1106q-16 0 -30.5 13.5t-23 29.5t-7.5 29.5t18 13.5 q98 35 185 50t185 15v43q8 41 32 73t54.5 53.5t65.5 29.5t67 0q33 -8 57.5 -27.5t43 -44t32 -52t21.5 -52.5q98 -16 185 -32.5t186 -33.5q16 -8 27.5 -25.5t13.5 -33.5t-7.5 -26.5t-33.5 -2.5q-82 16 -174.5 29.5t-173.5 13.5q0 -16 -3.5 -44.5t-19.5 -63.5q0 -16 -10 -17.5 t-22.5 7t-23 24t-10.5 31.5q0 25 2.5 64.5t-3 81.5t-19.5 75t-47 41q-25 0 -51.5 -5t-51 -17.5t-43 -34t-26.5 -54.5q33 16 76 19.5t75 3.5q16 0 28.5 -17.5t15.5 -38t-2 -38t-21 -17.5h-152q0 -16 3 -21t20 -22q8 -8 5 -21t-13.5 -23.5t-25.5 -11.5t-32 15q0 16 -13 34 t-32 50q-82 -16 -163.5 -23t-163.5 -40z" />
<glyph unicode="&#xf6;" horiz-adv-x="888" d="M512 1106q-72 0 -102.5 36t-30.5 83q0 33 12 65.5t36 60t54.5 45t67.5 17.5q76 0 110.5 -40t34.5 -93q0 -31 -12 -61.5t-34.5 -56t-57.5 -41t-78 -15.5zM866 1106q-66 0 -95.5 32.5t-29.5 80.5q0 31 12.5 62.5t34 57t51 42t64.5 16.5q72 0 104.5 -38t32.5 -87 q0 -29 -11 -58.5t-33.5 -53t-55.5 -39t-74 -15.5zM815 963q41 -39 60.5 -88.5t19.5 -104.5q0 -66 -12.5 -143.5t-34.5 -157.5q-70 -248 -196 -387t-271 -139q-70 0 -129 13t-111 48h2q-66 37 -94.5 103.5t-28.5 160.5q0 72 19.5 158t56.5 172t87 167t111.5 143.5t132.5 99 t146 36.5q27 0 60 -7t65.5 -19t63 -26.5t53.5 -28.5zM608 844q-39 0 -112 -101q-47 -63 -85 -134.5t-65 -143.5t-41 -140.5t-14 -123.5q0 -94 43 -95q29 0 62.5 33t67.5 87.5t65.5 124t55 143t38 145.5t14.5 129q0 33 -6 53.5t-17 22.5h-6z" />
<glyph unicode="&#xf7;" horiz-adv-x="1112" d="M1006 395q-29 0 -54.5 1t-52.5 1q-82 0 -159.5 -4t-157.5 -11t-166 -16.5t-185 -21.5q-4 0 -9 -1t-9 -1q-59 0 -90 43t-31 115q0 6 1 12t1 12q150 27 256.5 42.5t197.5 23.5t183 11t213 3q41 0 58.5 -27.5t17.5 -74.5q0 -23 -4 -50.5t-10 -56.5zM350 90q0 35 12.5 73 t34 69.5t48 52t55.5 20.5q78 0 115.5 -25.5t37.5 -84.5q0 -35 -11 -73t-31.5 -70t-49.5 -52t-63 -20q-61 0 -104.5 24.5t-43.5 85.5zM506 788q0 35 12 73t33.5 70t48.5 52.5t55 20.5q78 0 116 -26t38 -85q0 -35 -11.5 -73t-32 -69.5t-49 -52t-63.5 -20.5q-61 0 -104 24.5 t-43 85.5z" />
<glyph unicode="&#xfc;" horiz-adv-x="948" d="M512 1106q-72 0 -102.5 36t-30.5 83q0 33 12 65.5t36 60t54.5 45t67.5 17.5q76 0 110.5 -40t34.5 -93q0 -31 -12 -61.5t-34.5 -56t-57.5 -41t-78 -15.5zM866 1106q-66 0 -95.5 32.5t-29.5 80.5q0 31 12.5 62.5t34 57t51 42t64.5 16.5q72 0 104.5 -38t32.5 -87 q0 -29 -11 -58.5t-33.5 -53t-55.5 -39t-74 -15.5zM719 -27q-23 -10 -40 -12t-34 -2q-80 0 -121 41t-41 113q0 35 9 75q-27 -39 -61 -80.5t-74 -75.5t-88 -56.5t-103 -22.5q-84 0 -124 41t-40 112q0 49 18.5 139.5t57.5 211.5t100.5 267t147.5 308q92 -4 152.5 -35.5 t60.5 -87.5q0 -18 -11 -45q-68 -139 -122 -275t-93 -257q-8 -25 -8 -49q0 -47 35 -47t92 51t123 162v-3q39 123 100.5 272.5t153.5 319.5q88 -4 148.5 -36.5t60.5 -86.5q0 -25 -10 -45h2q-66 -137 -119 -271t-91 -253t-59.5 -215.5t-21.5 -157.5z" />
<glyph unicode="&#x178;" horiz-adv-x="788" d="M502 1499q-63 0 -91 32t-28 75q0 29 11.5 58.5t31.5 54t48 40t61 15.5q66 0 97.5 -36t31.5 -83q0 -29 -10.5 -56.5t-31 -49t-51 -36t-69.5 -14.5zM848 1520q-59 0 -85 28.5t-26 69.5q0 27 10.5 55.5t30 52t46 38t57.5 14.5q63 0 93 -34t30 -77q0 -27 -10.5 -52.5t-31 -47 t-49 -34.5t-65.5 -13zM1055 1227q-12 -27 -44 -80t-76 -119.5t-97.5 -142.5t-109.5 -149.5t-113.5 -140.5t-108.5 -114q-35 -51 -63.5 -124.5t-51 -151.5t-38 -149.5t-23.5 -116.5q-39 -8 -76 -9q-86 0 -125 40t-39 98q0 57 33 170.5t110 279.5q20 123 27.5 260t7.5 269 q0 123 -5 224t-9 161q55 18 102 18q104 0 137 -69.5t33 -213.5q0 -86 -6 -183t-24 -206q68 94 129 195.5t111 194t87 168t54 120.5q37 6 65 6q72 0 106.5 -33.5t34.5 -89.5q1 -49 -28 -112z" />
<glyph unicode="&#x192;" horiz-adv-x="1062" d="M915 627q-41 6 -85 11t-80 5q-16 0 -38 -1t-44 -3q-18 -109 -43 -222.5t-56.5 -222t-70.5 -206t-88.5 -170t-109.5 -114.5t-134 -42q-72 0 -121 24.5t-80 69.5t-45 108.5t-14 139.5q0 29 2 60.5t6 64.5q57 35 106 35q51 0 84 -32t33 -85q0 -29 -4 -53.5t-4 -40.5 q0 -45 29 -45q41 0 70.5 52t54 144.5t47 218.5t47.5 273l-41 -8q-8 -2 -23 -2q-49 0 -67.5 43t-18.5 104q0 10 1 17.5t1 17.5q94 27 185 41q12 59 26.5 134t35 151.5t51 148.5t75.5 128t107.5 90t148.5 34q74 0 131.5 -27.5t96 -73.5t59 -104.5t20.5 -118.5q0 -37 -7 -73.5 t-19 -71.5q-25 -4 -44.5 -6t-37.5 -2q-92 0 -119 32.5t-27 77.5q0 35 8.5 70t8.5 62q0 39 -35 38q-41 0 -71.5 -36.5t-53.5 -99t-38 -145.5t-28 -173q10 2 21.5 2h21.5q39 0 74 -1t60.5 -12.5t40 -34t14.5 -65.5q0 -45 -12 -102z" />
<glyph unicode="&#x401;" horiz-adv-x="808" d="M786 590q-102 12 -178 12q-53 0 -102 -5t-103 -15q-31 -109 -53 -206t-39 -181q78 12 148.5 16t132.5 4q68 0 94.5 -37t26.5 -98q0 -27 -4 -56.5t-11 -62.5h-84q-104 0 -197 -9t-210 -36q-80 18 -123 67.5t-43 147.5q4 70 20.5 175.5t47 241.5t79 300t119.5 350 q-29 25 -42 67t-13 93q0 20 2 31q96 25 169 41t131 26t106.5 14.5t91.5 4.5q39 0 82 -1t76.5 -12.5t56 -38t22.5 -80.5q0 -45 -16 -120q-47 8 -88 11t-82 3q-86 0 -187 -18q-37 -100 -70.5 -197.5t-64.5 -192.5q66 8 118 11.5t112 3.5q49 0 70.5 -34t21.5 -93 q-1 -51 -17 -127zM522 1503q-63 0 -91 32t-28 75q0 29 11.5 58.5t32 54t48 40t60.5 15.5q66 0 97.5 -36t31.5 -83q0 -29 -10 -56.5t-30.5 -49t-51.5 -36t-70 -14.5zM838 1524q-59 0 -85 28.5t-26 69.5q0 27 10.5 55.5t29.5 52t46 38t57 14.5q63 0 93 -34t30 -77 q0 -27 -10 -52.5t-30.5 -47t-49 -34.5t-65.5 -13z" />
<glyph unicode="&#x402;" horiz-adv-x="1069" d="M1090 752q-31 -76 -68 -175.5t-74 -209t-70.5 -225t-60.5 -226.5q-18 -72 -41.5 -142.5t-59.5 -126t-88.5 -90t-125.5 -34.5q-41 0 -73 16.5t-52.5 40t-30.5 49t-10 45.5q0 10 2 15q66 12 107.5 40.5t69.5 69.5t44 90.5t31 102.5q18 80 37.5 152.5t41 144t45 144.5 t50.5 155q4 10 6 22.5t2 26.5q0 18 -7 32.5t-30 14.5q-33 0 -86 -46t-117 -146q-43 -166 -66.5 -300.5t-23.5 -230.5q0 -8 -9 -12t-20.5 -6t-23.5 -2h-18q-90 0 -132 55t-42 154q0 135 56 394t208 644q-51 -8 -108.5 -23.5t-102.5 -15.5q-66 0 -100.5 58.5t-34.5 133.5v20.5 t2 20.5q90 25 186 42.5t191.5 29.5t184.5 17.5t165 5.5q63 0 110 -3.5t79 -19.5t47.5 -49t15.5 -92q0 -25 -4.5 -52.5t-10.5 -56.5q-51 8 -108.5 12.5t-122.5 4.5h-46.5t-45.5 -2v-17q0 -14 -2 -27.5t-8 -29.5q-39 -102 -73 -197.5t-63 -187.5q61 78 146.5 134t183.5 56 q72 0 119 -28.5t47 -87.5q0 -37 -18 -82z" />
<glyph unicode="&#x403;" horiz-adv-x="837" d="M1006 1212q-59 10 -109.5 15.5t-97.5 5.5q-80 0 -181 -19q-74 -195 -134 -382t-104 -352t-68.5 -300t-24.5 -223q0 -4 -14.5 -7t-31 -5t-32.5 -3t-19 -1q-76 0 -111.5 39.5t-35.5 130.5q0 63 14.5 169.5t45 246t82 309.5t124.5 362q-29 25 -42 67t-13 93q0 20 2 31 q96 25 172 41t137.5 26t113.5 14.5t99 4.5h87t79 -12.5t56.5 -41t21.5 -84.5q0 -29 -4 -59.5t-12 -65.5zM516 1645q63 45 104.5 76.5t72 56t56 48t60.5 52.5q20 20 35 20q20 0 37.5 -24.5t32 -53t22.5 -55t8 -28.5q0 -23 -27.5 -59t-71.5 -70.5t-99.5 -59t-110.5 -24.5 q-45 0 -77 26.5t-42 94.5z" />
<glyph unicode="&#x404;" horiz-adv-x="1009" d="M801 485q-49 8 -99.5 12.5t-101.5 4.5q-88 0 -182 -13q-10 -55 -15.5 -108t-5.5 -102q0 -86 22.5 -120t57.5 -34q45 0 91 35t91.5 78t89.5 77.5t82 34.5q47 0 91 -49q-86 -195 -190.5 -291t-219.5 -96q-88 0 -162 26.5t-127 83t-82.5 144.5t-29.5 209q0 16 1 33.5t1 33.5 q-43 14 -65.5 59.5t-22.5 106.5q0 20 2 31l116 29q18 88 50 184t75 187.5t95.5 173t112 143t125 97.5t132.5 36q31 0 67 -10.5t77 -26.5q68 -29 109.5 -65.5t65 -82.5t32 -100.5t8.5 -118.5q0 -39 -3.5 -75.5t-9.5 -77.5t-16 -88t-23 -105q-49 -6 -88 -6q-90 0 -125.5 37 t-35.5 121q0 59 13 108.5t13 102.5q0 127 -45 127q-27 0 -64.5 -46t-79.5 -119t-81 -161t-68 -174q-4 -8 -4 -12q35 2 66.5 3t62.5 1q51 0 90 -2t65.5 -14.5t41 -37t14.5 -69.5q0 -25 -4 -53.5t-10 -61.5z" />
<glyph unicode="&#x405;" horiz-adv-x="946" d="M156 829q0 98 47 214t121.5 215.5t166 166t179.5 66.5q31 0 66.5 -10.5t76.5 -26.5q68 -29 110 -65.5t65.5 -82.5t31.5 -100.5t8 -118.5q0 -39 -3 -75.5t-9 -77.5t-16.5 -88t-22.5 -105q-49 -6 -88 -6q-90 0 -126 37t-36 121q0 59 13.5 108.5t13.5 102.5q0 127 -45 127 q-49 0 -140 -154q-16 -27 -32.5 -58.5t-30.5 -65t-23.5 -65.5t-9.5 -59q0 -49 26.5 -89t75.5 -85l156 -143q70 -66 104.5 -126t34.5 -150q0 -63 -35.5 -121t-95 -101t-139.5 -68.5t-166 -25.5q-74 0 -141.5 27.5t-121.5 83t-89 139.5t-41 199q31 16 74 16q47 0 90 -22.5 t63 -65.5q35 -74 85 -120t116 -46q53 0 75.5 33t22.5 74q0 23 -5 42t-15 35q-53 70 -121 124.5t-127 110.5t-101 121.5t-42 157.5z" />
<glyph unicode="&#x406;" horiz-adv-x="530" d="M246 -61q-35 -8 -72 -9q-88 0 -131 53.5t-43 151.5q0 70 19.5 201t63.5 306t113.5 387t168.5 446q96 -8 160.5 -50.5t64.5 -113.5q0 -29 -12 -62q-74 -199 -135.5 -394.5t-104.5 -369.5t-67.5 -316t-24.5 -230z" />
<glyph unicode="&#x407;" horiz-adv-x="528" d="M287 -61q-35 -8 -72 -9q-88 0 -131 53.5t-43 151.5q0 70 19.5 201t63.5 306t113.5 387t168.5 446q96 -8 160.5 -50.5t64.5 -113.5q0 -29 -13 -62q-74 -199 -135 -394.5t-104 -369.5t-67.5 -316t-24.5 -230zM707 1503q-63 -2 -90 31t-27 74q0 29 11 59.5t31.5 55t48.5 40 t62 15.5q66 0 97.5 -35t31.5 -82q0 -29 -11 -56.5t-31.5 -50t-52 -37t-70.5 -14.5zM344 1495q-66 0 -95.5 33t-29.5 80q0 31 12.5 62.5t34 57t51 42t64.5 16.5q72 0 104.5 -38t32.5 -87q0 -29 -11 -58.5t-33.5 -53t-55.5 -39t-74 -15.5z" />
<glyph unicode="&#x409;" horiz-adv-x="1404" d="M512 117q4 66 18.5 176t45 252.5t78.5 307.5t120 337q-70 -121 -140.5 -245t-134 -245.5t-119.5 -236.5t-100 -214t-74 -181t-40 -138q-18 -4 -33.5 -6t-32.5 -2q-80 0 -123 44t-43 116q0 49 53.5 180t152 318.5t240.5 418t320 476.5q100 0 173 -19.5t118 -51.5t66.5 -74 t21.5 -85q0 -27 -6 -51q-39 -98 -73.5 -194.5t-63.5 -190.5q47 16 92 24.5t90 8.5q68 0 127.5 -18.5t103.5 -54.5t70.5 -90t26.5 -126q0 -141 -67.5 -248.5t-170 -183.5t-222.5 -123t-224 -66q-10 -2 -18.5 -2h-16.5q-55 0 -92 16.5t-61.5 43t-39 60.5t-22.5 67zM883 621 q-39 -143 -64.5 -270.5t-40.5 -231.5q182 53 280.5 158.5t98.5 232.5q0 57 -40 95t-116 38q-46 1 -118 -22z" />
<glyph unicode="&#x40a;" horiz-adv-x="1425" d="M309 -90q-35 -8 -71 -8q-90 0 -132.5 56t-42.5 159q0 66 17.5 181.5t54.5 266.5q-29 25 -43 68t-14 96q0 20 2 31q29 8 57.5 15t57.5 13q41 147 99 312.5t134 345.5q98 -8 162.5 -51t64.5 -115q0 -29 -12 -59q-37 -96 -69.5 -191.5t-63.5 -189.5q57 6 110.5 8t100.5 2 q41 137 95 288.5t124 315.5q98 -8 162.5 -51t64.5 -115q0 -29 -12 -59q-39 -102 -73.5 -203.5t-65.5 -200.5q31 8 62.5 11.5t60.5 3.5q68 0 127 -18.5t103 -54.5t70.5 -89t26.5 -125q0 -141 -61.5 -250.5t-156.5 -188.5t-208.5 -128t-218.5 -68q-35 -8 -71 -8 q-90 0 -132.5 55t-42.5 154q0 72 19.5 197.5t60.5 291.5q-100 -6 -221 -24q-59 -217 -92 -393.5t-33 -280.5zM958 635q-43 -154 -73.5 -288t-46.5 -245q88 27 152.5 71t106.5 97.5t61.5 114.5t19.5 125q0 55 -40 94t-114 39q-16 0 -33 -2t-33 -6z" />
<glyph unicode="&#x40b;" horiz-adv-x="1062" d="M1077 1204q-51 8 -108.5 12.5t-122.5 4.5h-46.5t-45.5 -2v-17q0 -14 -2 -27.5t-9 -29.5q-39 -102 -72.5 -196.5t-62.5 -186.5q63 78 147.5 136t182.5 69q86 -4 129 -46t43 -102q0 -29 -12 -55q-129 -274 -183.5 -482t-58.5 -337q-35 -6 -65 -6q-86 0 -124 46t-38 124 q0 43 10 91t27.5 106.5t41 128t52.5 153.5q8 25 8 49q0 49 -37 49q-33 0 -86 -47t-117 -147q-43 -166 -66.5 -300.5t-23.5 -230.5q0 -8 -9 -12t-20.5 -6t-23.5 -2h-18q-90 0 -132 55t-42 154q0 135 56 394t208 644q-51 -8 -108.5 -23.5t-102.5 -15.5q-66 0 -100.5 58.5 t-34.5 133.5v20.5t2 20.5q90 25 186 42.5t191.5 29.5t184.5 17.5t165 5.5q63 0 110 -3.5t79 -19.5t47.5 -49t15.5 -92q0 -25 -4.5 -52.5t-10.5 -56.5z" />
<glyph unicode="&#x40c;" horiz-adv-x="970" d="M909 -25q-109 -66 -200 -65q-94 0 -140 74q-29 49 -54.5 100t-49 110.5t-43 130t-35.5 158.5q-47 -180 -72.5 -325.5t-25.5 -237.5q0 -8 -9.5 -12t-21.5 -5t-23.5 -1h-17.5q-90 0 -132 56t-42 159q0 74 20.5 205t64.5 304t113.5 382t166.5 438q98 -8 162.5 -51t64.5 -115 q0 -29 -12 -59q-90 -236 -158 -461q172 154 301 329t233 379q84 -37 116 -89t32 -107q0 -82 -53.5 -178.5t-132 -192.5t-170 -183t-166.5 -151q29 -137 100 -284.5t184 -307.5zM586 1583q63 45 104 77t72 56.5t56.5 48t60.5 52.5q20 20 34 20q20 0 38 -24.5t32 -53 t22.5 -55.5t8.5 -29q0 -23 -28 -58.5t-72 -70.5t-99 -59.5t-110 -24.5q-45 0 -77 26.5t-42 94.5z" />
<glyph unicode="&#x40e;" horiz-adv-x="745" d="M287 -57q-47 -59 -98.5 -85t-98.5 -26q-53 0 -97 23.5t-73 62.5q37 43 74 89t68.5 89t58 80t45.5 60q23 131 22 329q0 119 -7 246t-18 246t-26.5 218t-34.5 163q49 16 93 16q76 0 131 -47t71 -139q14 -90 26.5 -211t12.5 -262v-58.5t-2 -58.5q59 121 105.5 237.5t80 220 t54 189.5t28.5 145q23 6 42.5 8.5t35.5 2.5q78 0 120 -45t42 -117q0 -14 -16.5 -79.5t-50 -169t-87 -237t-126 -282t-165.5 -303.5t-210 -305zM844 1724q-14 -53 -45 -103t-78 -89t-107.5 -63.5t-132.5 -24.5q-129 0 -196.5 64.5t-67.5 166.5q0 18 2 39t8 43q23 2 44.5 3 t37.5 1q66 0 99.5 -13t48 -32.5t16.5 -43t3 -43t7 -33t33 -13.5q37 0 57.5 28.5t40 62.5t44 62.5t69.5 28.5q47 0 117 -41z" />
<glyph unicode="&#x40f;" horiz-adv-x="1017" d="M444 -469q-37 -6 -69 -6q-88 0 -129 43t-41 115q0 61 23.5 123.5t60.5 121.5q-27 -4 -58.5 -14t-58.5 -10q-66 0 -98.5 55t-32.5 135q0 8 1 15.5t1 15.5v10q4 80 26.5 210t65.5 301t110.5 374t162.5 426q98 -8 162.5 -51t64.5 -115q0 -29 -12 -59q-111 -289 -190 -558.5 t-114 -474.5q70 12 128.5 17.5t115.5 5.5q4 80 25.5 200.5t63.5 278.5t107.5 350.5t160.5 413.5q98 -8 162.5 -51t64.5 -115q0 -29 -12 -59q-145 -383 -227.5 -693.5t-98.5 -496.5q-2 -16 -4 -34.5t-6 -41.5q-51 2 -93 3t-81 1h-37l-6 -18q-66 -59 -98.5 -158.5 t-32.5 -210.5q0 -10 1 -19.5t1 -19.5z" />
<glyph unicode="&#x410;" horiz-adv-x="1214" d="M725 143q-2 14 -2 28.5v31.5q0 23 1 50.5t3 55.5q-80 -4 -162 -17t-168 -36q-49 -111 -81.5 -199t-43.5 -147q-18 -4 -33.5 -6t-31.5 -2q-80 0 -123 44t-43 115q0 47 47 174t138 310.5t226.5 409t311.5 470.5q88 18 162 19q137 0 206.5 -53.5t69.5 -122.5q0 -20 -6 -39 q-47 -172 -86 -345t-66.5 -331t-42 -295t-14.5 -238q0 -59 6 -102q-33 -8 -71 -8q-94 0 -143.5 61t-53.5 172zM756 555q23 141 60.5 309t96.5 359q-100 -166 -197.5 -342t-183.5 -342q59 8 115 12t109 4z" />
<glyph unicode="&#x411;" horiz-adv-x="956" d="M1047 1212q-61 10 -115.5 15.5t-110.5 5.5q-92 0 -205 -19q-33 -88 -62.5 -175t-57.5 -173q61 12 116 13q80 0 142.5 -26t103.5 -71t62.5 -104.5t21.5 -126.5q0 -92 -40 -192.5t-122 -188.5t-204.5 -155.5t-290.5 -98.5h-15q-31 0 -67.5 12.5t-69.5 37t-58.5 59 t-33.5 79.5q4 80 20.5 191t48 249t80 303t119.5 351q-29 25 -42 67t-13 93q0 20 2 31q193 47 323 66.5t234 19.5h92t80 -12.5t56.5 -41t21.5 -84.5q0 -29 -4 -59.5t-12 -65.5zM305 129q86 18 147.5 55t101.5 85t59.5 100.5t19.5 101.5q0 72 -39 123t-111 51q-14 0 -27.5 -2 t-29.5 -6q-41 -145 -73 -273.5t-48 -234.5z" />
<glyph unicode="&#x412;" horiz-adv-x="999" d="M270 -84q-31 0 -67.5 12.5t-69.5 37t-58.5 59t-33.5 79.5q6 82 22.5 197t50 259.5t85 315.5t127.5 365q-70 47 -70 133q0 23 49 42.5t118 32.5t140.5 20.5t116.5 7.5q88 0 173 -16.5t150.5 -54.5t105.5 -100.5t40 -152.5q0 -84 -26.5 -152.5t-74 -125t-109.5 -100.5 t-132 -79q66 -33 98.5 -91t32.5 -130q0 -78 -40 -164t-121 -164.5t-203.5 -140t-288.5 -90.5h-15zM840 1108q0 33 -15.5 55.5t-40 36.5t-55.5 19.5t-61 5.5h-24.5t-22.5 -2q-41 -113 -80 -225.5t-74 -223.5q373 107 373 334zM305 129q82 16 142.5 48t99.5 72t57.5 83 t18.5 84q0 59 -38 100t-110 41q-16 0 -35.5 -5t-40.5 -5q-33 -119 -56.5 -223.5t-37.5 -194.5z" />
<glyph unicode="&#x413;" horiz-adv-x="847" d="M1016 1212q-59 10 -109.5 15.5t-97.5 5.5q-80 0 -180 -19q-74 -195 -134.5 -382t-104.5 -352t-68.5 -300t-24.5 -223q0 -4 -14.5 -7t-30.5 -5t-32.5 -3t-18.5 -1q-76 0 -112 39.5t-36 130.5q0 63 14.5 169.5t45 246t82 309.5t124.5 362q-29 25 -42 67t-13 93q0 20 2 31 q96 25 172 41t137.5 26t113.5 14.5t99 4.5h87.5t79 -12.5t56 -41t21.5 -84.5q0 -29 -4 -59.5t-12 -65.5z" />
<glyph unicode="&#x414;" horiz-adv-x="1021" d="M102 -395q-41 -33 -75.5 -39t-59.5 -6q-78 0 -114.5 55t-36.5 149q0 90 32.5 184.5t77.5 186.5q70 18 137 31q20 80 70.5 215t132.5 307t193.5 375t257.5 418h24q96 0 165 -18.5t113 -50.5t64.5 -72t20.5 -83q0 -23 -6 -47q-104 -289 -160.5 -543.5t-75.5 -447.5h4 q84 -6 131 -28.5t47 -69.5q0 -25 -12 -51q-66 -59 -98.5 -158.5t-32.5 -210.5q0 -10 1 -19.5t1 -19.5l-8 -10q-37 -6 -70 -6q-88 0 -129 43t-41 114q0 47 12.5 91.5t34.5 89.5h-49q-135 0 -281.5 -15.5t-277.5 -48.5h-4q-18 -61 -18 -133q-1 -94 30 -182zM580 223 q4 72 18 173.5t42 228.5t69 276.5t100 315.5q-74 -135 -141.5 -272.5t-126 -268.5t-105.5 -250t-80 -217q59 4 115 8t109 6z" />
<glyph unicode="&#x415;" horiz-adv-x="804" d="M797 590q-102 12 -179 12q-53 0 -102 -5t-102 -15q-31 -109 -53.5 -206t-38.5 -181q78 12 148.5 16t131.5 4q68 0 94.5 -37t26.5 -98q0 -27 -4 -56.5t-10 -62.5h-84q-104 0 -197.5 -9t-210.5 -36q-80 18 -123 67.5t-43 147.5q4 70 20.5 175.5t47.5 241.5t79 300t119 350 q-29 25 -42 67t-13 93q0 20 2 31q96 25 169 41t131.5 26t106.5 14.5t91 4.5q39 0 82 -1t76.5 -12.5t56 -38t22.5 -80.5q0 -45 -16 -120q-47 8 -88 11t-82 3q-86 0 -186 -18q-37 -100 -71 -197.5t-64 -192.5q66 8 118 11.5t111 3.5q49 0 70.5 -34t21.5 -93q0 -51 -16 -127z " />
<glyph unicode="&#x416;" horiz-adv-x="1462" d="M780 -90q-35 -8 -71 -8q-90 0 -132 56t-42 159q0 59 16 163.5t45 239.5q-76 -47 -138.5 -132t-107.5 -175t-69.5 -169t-24.5 -116q0 -29 -14 -28q-45 0 -86 12t-73 35.5t-51.5 57.5t-19.5 77q0 70 37 156t97.5 166.5t137 149.5t156.5 105q-61 121 -101 307.5t-73 452.5 q55 20 115 21q72 0 122 -34t56 -89t11 -122t15.5 -139.5t27 -148.5t44.5 -147q43 154 102.5 325.5t139.5 360.5q98 -8 162.5 -51t64.5 -115q0 -29 -12 -59q-90 -236 -158 -461q172 154 301 329t234 379q84 -37 115.5 -89t31.5 -107q0 -78 -48 -168t-120.5 -181.5 t-158.5 -176t-160 -148.5q63 -104 104 -265t52 -358q-96 -57 -168 -57q-49 0 -82 31t-37 102q-6 141 -32.5 268t-92.5 232q-55 -207 -85 -374t-30 -267z" />
<glyph unicode="&#x417;" horiz-adv-x="948" d="M1067 1153q0 -86 -30.5 -156.5t-82 -128t-120 -101.5t-144.5 -77q117 -41 175.5 -139t58.5 -213q0 -78 -28 -153.5t-85 -135t-144 -96.5t-204 -37q-80 0 -153.5 26.5t-131 79t-94.5 130t-43 182.5q23 16 54.5 26.5t60.5 10.5q41 0 70.5 -17.5t37.5 -56.5 q14 -84 68.5 -125t118.5 -41q68 0 124 51t56 154q0 37 -8.5 75t-28 69.5t-51 52t-76.5 20.5q-18 0 -41 -4t-41 -4q-41 0 -67.5 15t-42 41t-22.5 59.5t-7 68.5q96 18 187 56t162 88.5t113 108.5t42 120q0 55 -29 90t-68 35q-37 0 -75.5 -38t-63.5 -126q-12 -41 -46 -59.5 t-75 -18.5q-33 0 -65.5 10.5t-59 27.5t-44 42t-19.5 55q23 90 72 155.5t113.5 108.5t139 64.5t150.5 21.5t145.5 -20t122.5 -61t86 -100.5t33 -135.5z" />
<glyph unicode="&#x418;" horiz-adv-x="1054" d="M842 -82q-35 -8 -72 -8q-90 0 -132 55t-42 154q0 63 15.5 171.5t50.5 252.5q-53 -90 -104.5 -179.5t-99.5 -171t-91 -153.5t-78 -129q-35 -8 -72 -8q-90 0 -132 56t-42 159q0 74 20.5 205t64.5 304t113.5 382t166.5 438q98 -8 162.5 -51t64.5 -115q0 -29 -12 -59 q-78 -209 -142.5 -414t-109.5 -385q135 205 285.5 467t304.5 565q98 -8 162.5 -51t64.5 -115q0 -29 -12 -59q-74 -199 -135.5 -394.5t-105.5 -369.5t-68.5 -316.5t-24.5 -230.5z" />
<glyph unicode="&#x419;" horiz-adv-x="1054" d="M842 -82q-35 -8 -72 -8q-90 0 -132 55t-42 154q0 63 15.5 171.5t50.5 252.5q-53 -90 -104.5 -179.5t-99.5 -171t-91 -153.5t-78 -129q-35 -8 -72 -8q-90 0 -132 56t-42 159q0 74 20.5 205t64.5 304t113.5 382t166.5 438q98 -8 162.5 -51t64.5 -115q0 -29 -12 -59 q-78 -209 -142.5 -414t-109.5 -385q135 205 285.5 467t304.5 565q98 -8 162.5 -51t64.5 -115q0 -29 -12 -59q-74 -199 -135.5 -394.5t-105.5 -369.5t-68.5 -316.5t-24.5 -230.5zM1151 1712q-29 -45 -74 -92t-100 -86t-122 -64.5t-138 -25.5q-109 0 -163 46t-54 124 q0 68 39 143q25 2 45 3t39 1q88 0 115.5 -22.5t27.5 -52.5q0 -20 -6 -41t-6 -37q0 -10 6 -17.5t24 -7.5q37 0 65 26.5t55.5 59.5t60 59.5t75.5 26.5q23 0 50.5 -10t60.5 -33z" />
<glyph unicode="&#x41a;" horiz-adv-x="970" d="M909 -25q-109 -66 -200 -65q-94 0 -140 74q-29 49 -54.5 100t-49 110.5t-43 130t-35.5 158.5q-47 -180 -72.5 -325.5t-25.5 -237.5q0 -8 -9.5 -12t-21.5 -5t-23.5 -1h-17.5q-90 0 -132 56t-42 159q0 74 20.5 205t64.5 304t113.5 382t166.5 438q98 -8 162.5 -51t64.5 -115 q0 -29 -12 -59q-90 -236 -158 -461q172 154 301 329t233 379q84 -37 116 -89t32 -107q0 -82 -53.5 -178.5t-132 -192.5t-170 -183t-166.5 -151q29 -137 100 -284.5t184 -307.5z" />
<glyph unicode="&#x41b;" horiz-adv-x="1079" d="M672 186q4 63 17 165t42 231t75 282.5t116 321.5q-106 -178 -209 -365.5t-186 -357.5t-140 -310.5t-72 -222.5q-18 -4 -33.5 -6t-31.5 -2q-80 0 -123 44t-43 116q0 49 53 180t151.5 318.5t241 418t320.5 476.5q100 0 173 -19.5t118 -51.5t66.5 -74t21.5 -85q0 -27 -6 -51 q-76 -190 -133.5 -376.5t-96.5 -353.5t-59.5 -304t-20.5 -228q-10 -2 -19 -2h-20q-104 0 -154 61.5t-50 166.5q0 6 1 13t1 15z" />
<glyph unicode="&#x41c;" horiz-adv-x="1462" d="M512 109q0 123 3 258t3 268q0 84 -2 160.5t-6 144.5q-49 -152 -90 -304.5t-69.5 -288.5t-45 -247.5t-16.5 -181.5q0 -6 -9.5 -8t-21.5 -4t-24.5 -2h-16.5q-90 0 -132 56t-42 159q0 74 20.5 205t64.5 304t113.5 382t166.5 438q57 -4 112 -11t101.5 -24.5t79 -49.5 t44.5 -85q12 -59 18.5 -154.5t6.5 -220.5q0 -139 -6 -301q43 106 99.5 221t123 226.5t144 215t167.5 189.5q14 2 26.5 3t25.5 1q55 0 100 -19.5t77 -51t49 -71.5t17 -79q0 -29 -10 -59q-74 -197 -132 -382.5t-100 -348t-63.5 -296t-21.5 -223.5q0 -6 -9.5 -8t-21.5 -4 t-24.5 -2h-16.5q-90 0 -132 55.5t-42 153.5q0 49 12 135t37 198.5t59.5 246t79.5 274.5q-86 -158 -159.5 -316.5t-131 -301t-95.5 -258t-50 -185.5q-18 -4 -35.5 -6t-34.5 -2q-98 0 -144 59.5t-46 141.5z" />
<glyph unicode="&#x41d;" horiz-adv-x="1003" d="M811 -82q-35 -8 -72 -8q-90 0 -132 55t-42 154q0 72 19.5 197.5t60.5 291.5q-100 -6 -221 -24q-59 -211 -92 -385t-33 -281q0 -6 -9 -9t-21.5 -5t-24 -2h-17.5q-90 0 -132 56t-42 159q0 66 17.5 181.5t54.5 266.5q-29 25 -43 68t-14 96q0 20 2 31q29 8 57.5 15t56.5 13 q41 147 99.5 312.5t134.5 345.5q98 -8 162.5 -51t64.5 -115q0 -29 -12 -59q-37 -96 -70 -191.5t-63 -189.5q57 6 110.5 8t100.5 2q41 137 95 288.5t124 315.5q98 -8 162.5 -51t64.5 -115q0 -29 -12 -59q-74 -199 -135.5 -394.5t-105.5 -369.5t-68.5 -316.5t-24.5 -230.5z " />
<glyph unicode="&#x41e;" horiz-adv-x="940" d="M934 1376q47 -59 66.5 -126.5t19.5 -157.5q0 -174 -53 -418q-39 -178 -94.5 -319.5t-123 -239t-146.5 -149.5t-161 -52q-88 0 -161.5 26.5t-127 83t-83 144.5t-29.5 209q0 102 21.5 224t62.5 246t97.5 239.5t125 205.5t148 144.5t168.5 54.5q29 0 67.5 -10.5t76.5 -26.5 t72 -37t54 -41zM713 1229q-4 0 -6 1t-5 1q-51 0 -139 -154q-55 -96 -99 -201.5t-74 -211t-46 -205t-16 -180.5q0 -152 61 -152q37 0 78 50t81 132t75.5 186.5t63.5 213t44.5 212t16.5 183.5q0 115 -35 125z" />
<glyph unicode="&#x41f;" horiz-adv-x="1064" d="M801 -82q-35 -8 -72 -8q-90 0 -132 55t-42 154q0 63 15.5 171.5t49 252t85 316.5t124.5 368q-104 -4 -215 -19q-2 -10 -4 -21t-6 -22q-74 -197 -132 -382t-99 -348t-62.5 -296t-21.5 -223q0 -6 -9.5 -8t-21.5 -4t-24.5 -2h-16.5q-90 0 -132 56t-42 159q0 63 13.5 165.5 t44 237.5t79.5 299t121 352q-41 16 -63.5 65.5t-22.5 115.5q0 20 2 30q86 25 179 41.5t187.5 26.5t182.5 15t166 5q66 0 115 -2t82.5 -14t51 -40t17.5 -81q0 -29 -4 -59.5t-12 -65.5l-54 6q-74 -197 -134 -390t-103 -365t-66.5 -312.5t-23.5 -228.5z" />
<glyph unicode="&#x420;" horiz-adv-x="1017" d="M283 -84q-43 0 -85 15.5t-74 46t-52.5 74.5t-20.5 104q0 172 71 447.5t214 637.5q-68 51 -68 133q0 23 49.5 42.5t118 32.5t140 20.5t116.5 7.5q88 0 173 -16.5t150.5 -54.5t105.5 -100.5t40 -152.5q0 -92 -35.5 -172t-96 -147.5t-138.5 -122t-162 -93t-168 -62.5 t-153 -32h-2q-53 -197 -81 -353.5t-28 -254.5h-14zM852 1108q0 33 -15.5 55.5t-40 36.5t-55 19.5t-61.5 5.5h-24.5t-22.5 -2q-47 -123 -89 -247t-79 -243q184 53 285.5 156.5t101.5 218.5z" />
<glyph unicode="&#x421;" horiz-adv-x="940" d="M852 301q-86 -195 -190.5 -291t-219.5 -96q-88 0 -161.5 26.5t-127 83t-83 144.5t-29.5 209q0 102 21.5 224t62.5 246t97.5 239.5t125 205.5t148 144.5t168.5 54.5q31 0 66.5 -10.5t76.5 -26.5q68 -29 109.5 -65.5t65.5 -82.5t32 -100.5t8 -118.5q0 -39 -3 -75.5 t-9 -77.5t-16.5 -88t-22.5 -105q-49 -6 -88 -6q-90 0 -126 37t-36 121q0 59 13.5 108.5t13.5 102.5q0 127 -46 127q-51 0 -139 -154q-55 -96 -99 -201.5t-74 -211t-46 -205t-16 -180.5q0 -86 22.5 -120t57.5 -34q45 0 91 35t91 78t89 77.5t83 34.5q47 0 90 -49z" />
<glyph unicode="&#x422;" horiz-adv-x="851" d="M1077 1204q-51 8 -109.5 12.5t-123.5 4.5h-46.5t-47.5 -2q6 -23 6 -43q0 -14 -2 -28.5t-9 -31.5q-74 -197 -131 -373t-95 -327.5t-58.5 -275.5t-20.5 -214q0 -6 -9 -8t-21.5 -4t-24.5 -2h-16q-90 0 -132 55.5t-42 153.5q0 137 58 404.5t216 664.5q-53 -10 -114.5 -25.5 t-108.5 -15.5q-66 0 -100.5 58.5t-34.5 133.5v20.5t2 20.5q90 25 186 42.5t191.5 29.5t184.5 17.5t165 5.5q63 0 110 -3.5t79 -19.5t47.5 -49t15.5 -92q0 -25 -4.5 -52.5t-10.5 -56.5z" />
<glyph unicode="&#x423;" horiz-adv-x="983" d="M434 -57q-47 -59 -98 -85t-98 -26q-53 0 -97.5 23.5t-72.5 62.5q37 43 73.5 89t68.5 89t58.5 80t44.5 60q23 131 23 329q0 119 -7 246t-18.5 246t-27 218t-33.5 163q49 16 92 16q82 0 128 -45t69.5 -128t28.5 -198.5t5 -259.5q0 -47 -1 -92t-3 -92q59 121 107.5 244 t84.5 233.5t58.5 202.5t30.5 151q23 6 42 8.5t36 2.5q78 0 120 -45t42 -117q0 -14 -16.5 -79.5t-50.5 -169t-87 -237t-126 -282t-166 -303.5t-210 -305z" />
<glyph unicode="&#x424;" horiz-adv-x="1269" d="M649 -84q-41 0 -82 15.5t-74.5 44t-54 72.5t-20.5 99q0 68 12 158q-80 4 -154.5 24.5t-131 58.5t-90.5 97.5t-34 143.5q0 125 66 228.5t165 182t217 130t224 73.5q27 70 54.5 139.5t58.5 141.5q49 -4 93 -11.5t77 -21.5t52.5 -36.5t19.5 -55.5q0 -20 -11 -51l-41 -109 q82 -4 158 -23.5t133 -58.5t92 -98.5t35 -143.5q0 -129 -68.5 -234.5t-172 -184t-225.5 -130t-228 -71.5q-29 -123 -42 -219t-13 -160h-15zM1104 870q0 35 -16.5 57.5t-41 37t-56.5 19.5t-62 5h-17q-41 -123 -75.5 -242.5t-63.5 -232.5q160 57 246 153.5t86 202.5zM473 528 q47 209 133 467q-133 -51 -204.5 -142t-71.5 -200q0 -66 42 -94.5t101 -30.5z" />
<glyph unicode="&#x425;" horiz-adv-x="983" d="M154 -86q-20 -4 -38 -6t-34 -2q-84 0 -114.5 45t-30.5 110q0 96 103 264.5t288 397.5q-37 147 -69 321.5t-48 374.5q49 16 98 17q59 0 107.5 -26t56.5 -79q12 -90 27.5 -178t36.5 -180q100 119 209.5 244.5t226.5 257.5q78 -4 114.5 -46.5t36.5 -99.5q0 -35 -14 -71.5 t-43 -67.5q-123 -133 -237.5 -262t-219.5 -254q57 -199 133 -384.5t175 -342.5q-20 -27 -58.5 -45.5t-85.5 -18.5q-49 0 -88 16.5t-80 74t-86 165t-106 289.5q-123 -166 -191.5 -297t-68.5 -217z" />
<glyph unicode="&#x426;" horiz-adv-x="1064" d="M918 -367q-37 -6 -70 -6q-88 0 -129 43t-41 115q0 47 13.5 92t35.5 92q-121 0 -250 -12t-266 -47q-23 -6 -39 -6q-66 0 -98.5 55t-32.5 135q0 8 1 15.5t1 15.5v10q4 80 26.5 210t65.5 301t110.5 374t162.5 426q98 -8 162.5 -51t64.5 -115q0 -29 -12 -59 q-111 -293 -191 -564.5t-115 -476.5q125 18 246 25q4 80 25.5 200.5t63.5 279.5t107.5 352.5t160.5 416.5q98 -8 162.5 -51t64.5 -115q0 -29 -12 -59q-113 -297 -191 -561.5t-113 -462.5q111 0 173.5 -25.5t62.5 -77.5q0 -25 -12 -51q-66 -59 -98.5 -158.5t-32.5 -209.5 q0 -10 1 -19.5t1 -19.5z" />
<glyph unicode="&#x427;" horiz-adv-x="884" d="M66 729q0 70 22.5 160t56 186t72.5 192.5t74 178.5q37 -4 77 -14.5t72.5 -31t54 -51t21.5 -73.5q0 -31 -22.5 -95.5t-49 -140t-49 -151.5t-22.5 -129q0 -55 25.5 -76.5t64.5 -21.5q20 0 45 6q47 174 117.5 371.5t167.5 422.5q33 -4 71.5 -10t72.5 -21.5t56.5 -41 t22.5 -64.5q0 -25 -8 -49q-74 -199 -136.5 -402.5t-107.5 -387t-70.5 -333t-25.5 -237.5q-10 -2 -20.5 -2h-20.5q-35 0 -72 7t-69.5 27.5t-53 57.5t-20.5 96q0 141 41 347q-27 -4 -51.5 -7.5t-49.5 -3.5q-55 0 -105 15.5t-89 49.5t-63.5 89t-28.5 137z" />
<glyph unicode="&#x428;" horiz-adv-x="1521" d="M1321 -27q-223 0 -399.5 -3t-311.5 -9t-234.5 -17.5t-168.5 -27.5q-80 18 -123 67.5t-43 147.5q4 80 26.5 212t65.5 304t109.5 377t160.5 428q98 -8 164 -51t66 -115q0 -29 -12 -59q-55 -150 -105.5 -294.5t-90.5 -279.5t-69.5 -256t-48.5 -221q66 10 128.5 17.5 t123.5 11.5v12q4 80 25.5 199t63.5 274.5t107.5 347t159.5 414.5q98 -8 163 -51t65 -115q0 -29 -13 -59q-111 -293 -189.5 -552t-113.5 -454q59 4 121 4t127 2q4 80 24.5 199t61.5 274.5t106.5 346t159.5 413.5q98 -8 163 -51t65 -115q0 -29 -13 -59q-74 -199 -134 -382 t-101 -343t-63.5 -290t-22.5 -220h-2q0 -6 1 -12.5t1 -14.5z" />
<glyph unicode="&#x429;" horiz-adv-x="1572" d="M1430 -346q-37 -6 -70 -6q-88 0 -129 43t-41 114q0 43 10 84t31 82q-182 0 -342 -3t-292 -10t-231.5 -17.5t-158.5 -24.5q-80 18 -123 67.5t-43 147.5q4 80 26.5 212t65.5 304t109.5 377t160.5 428q98 -8 164 -51t66 -115q0 -29 -12 -59q-55 -150 -105.5 -294.5 t-90.5 -279.5t-69.5 -256t-48.5 -221q63 8 125 14.5t127 12.5v14q4 80 25.5 199t63.5 274.5t107.5 347t159.5 414.5q98 -8 163 -51t65 -115q0 -29 -13 -59q-111 -295 -189.5 -555t-113.5 -455q59 4 121 4t127 2v2q4 80 24.5 199t61.5 274.5t106.5 347t159.5 414.5 q98 -8 163 -51t65 -115q0 -29 -13 -59q-113 -297 -189.5 -558t-111.5 -456h60q84 0 131 -28.5t47 -69.5q0 -25 -12 -51q-66 -59 -98.5 -158.5t-32.5 -210.5q0 -10 1 -19.5t1 -19.5z" />
<glyph unicode="&#x42a;" horiz-adv-x="1054" d="M1092 582q0 -152 -73 -266.5t-182.5 -196.5t-238.5 -132t-240 -71h-14q-31 0 -67.5 12.5t-69.5 37t-58.5 59t-33.5 79.5q4 76 20.5 187.5t47 251t76.5 301.5t110 340q-45 -8 -98.5 -21.5t-92.5 -13.5q-66 0 -100.5 58.5t-34.5 133.5v20.5t2 20.5q129 35 271.5 56.5 t271.5 31.5q41 -18 74.5 -68t33.5 -128v-25q-37 -98 -70.5 -195.5t-64.5 -193.5q92 29 180 29q72 0 135.5 -19.5t111.5 -57.5t76 -96t28 -134zM782 537q0 59 -43 100t-123 41q-25 0 -54.5 -5t-61.5 -16q-43 -156 -75 -293t-48 -249q195 55 300 170t105 252z" />
<glyph unicode="&#x42b;" horiz-adv-x="1495" d="M270 -84q-31 0 -67.5 12.5t-69.5 37t-58.5 59t-33.5 79.5q6 90 28.5 232.5t66.5 321t111.5 386t162.5 431.5q96 -8 160.5 -50.5t64.5 -113.5q0 -31 -12 -62q-37 -98 -71 -195.5t-65 -193.5q92 29 181 29q72 0 135 -19.5t111.5 -57.5t76 -96.5t27.5 -133.5 q0 -152 -73 -266.5t-182.5 -196.5t-238.5 -132t-239 -71h-15zM1282 -61q-35 -8 -72 -9q-88 0 -131 53.5t-43 151.5q0 70 19.5 201t63.5 306t114 387t168 446q96 -8 160.5 -50.5t64.5 -113.5q0 -29 -12 -62q-74 -199 -135.5 -394.5t-104.5 -369.5t-67.5 -316t-24.5 -230z M709 537q0 59 -43 100t-123 41q-25 0 -54.5 -5t-62.5 -16q-43 -156 -75 -293t-48 -249q195 55 300.5 170t105.5 252z" />
<glyph unicode="&#x42c;" horiz-adv-x="987" d="M270 -84q-31 0 -67.5 12.5t-69.5 37t-58.5 59t-33.5 79.5q6 90 28.5 232.5t66.5 321t111.5 386t162.5 431.5q96 -8 160.5 -50.5t64.5 -113.5q0 -31 -12 -62q-37 -98 -71 -195.5t-65 -193.5q92 29 181 29q72 0 135 -19.5t111.5 -57.5t76 -96.5t27.5 -133.5 q0 -152 -73 -266.5t-182.5 -196.5t-238.5 -132t-239 -71h-15zM709 537q0 59 -43 100t-123 41q-25 0 -54.5 -5t-62.5 -16q-43 -156 -75 -293t-48 -249q195 55 300.5 170t105.5 252z" />
<glyph unicode="&#x42d;" horiz-adv-x="964" d="M1063 532q-29 4 -57.5 7.5t-57.5 7.5q-33 -117 -82 -230.5t-116.5 -202.5t-152.5 -143.5t-189 -54.5q-78 0 -144.5 30.5t-116 83t-77 122t-27.5 149.5v24.5t2 24.5q57 18 98 19q78 0 111 -97q29 -90 62.5 -128t68.5 -38t72 34t70.5 92.5t65.5 136t58 163.5 q-49 -6 -101 -16t-110 -24q-10 -4 -17 -4.5t-17 -0.5q-59 0 -89 50.5t-30 121.5v13.5t2 15.5q111 29 216 47.5t202 28.5q29 150 28 270q0 98 -19.5 153.5t-47.5 55.5q-29 0 -56.5 -36t-52 -84t-46 -94t-34.5 -66q-55 -90 -139 -91q-80 0 -180 86q27 70 67.5 161t98 174 t132 140.5t167.5 57.5q55 0 116.5 -20.5t110.5 -51.5q53 -35 84 -83t47 -105t20.5 -122t4.5 -134q0 -53 -3.5 -105.5t-11.5 -105.5h2q45 -4 63.5 -35t18.5 -82q0 -25 -4 -53.5t-10 -61.5z" />
<glyph unicode="&#x42e;" horiz-adv-x="1544" d="M1538 1376q47 -59 66.5 -126.5t19.5 -157.5q0 -174 -53 -418q-39 -178 -94.5 -319.5t-123 -239t-146.5 -149.5t-160 -52q-88 0 -162 26.5t-127 83t-83 144.5t-30 209q0 57 5 113.5t16 115.5q-51 -2 -103.5 -7t-107.5 -15q-59 -211 -92 -385t-33 -281q0 -6 -9.5 -9 t-21.5 -5t-23.5 -2h-17.5q-90 0 -132 56t-42 159q0 66 17.5 181.5t54.5 266.5q-29 25 -43.5 68t-14.5 96q0 20 2 31q29 8 57.5 15t57.5 13q41 147 99.5 312.5t134.5 345.5q98 -8 162.5 -51t64.5 -115q0 -29 -12 -59q-37 -96 -70 -191.5t-64 -189.5q53 6 102.5 8t94.5 2 q39 119 96.5 233.5t127 204.5t150.5 146.5t167 56.5q29 0 67.5 -10.5t76.5 -26.5t72 -37t54 -41zM1317 1229q-4 0 -6 1t-4 1q-51 0 -140 -154q-55 -96 -99 -201.5t-73.5 -211t-46 -205t-16.5 -180.5q0 -152 61 -152q37 0 78 50t81 132t76 186.5t63.5 213t44 212t16.5 183.5 q0 115 -35 125z" />
<glyph unicode="&#x42f;" horiz-adv-x="1034" d="M821 -90q-35 -8 -71 -8q-90 0 -132.5 56t-42.5 159q0 59 14.5 157.5t43.5 227.5q-68 -53 -130.5 -136t-109.5 -168t-75.5 -159t-28.5 -111q0 -29 -15 -28q-45 0 -86 12t-72.5 35.5t-51 57.5t-19.5 77q0 51 27.5 124t74 148.5t106.5 144t126 111.5q-111 49 -168 144.5 t-57 222.5t43 223t114.5 160.5t167.5 97.5t203 33q63 0 147 -14.5t159 -42t127 -67.5t52 -89q0 -27 -12 -57q-74 -199 -135.5 -394.5t-105.5 -369.5t-68.5 -316.5t-24.5 -230.5zM702 1243q-59 0 -106 -24.5t-80 -65.5t-49 -92t-16 -107q0 -47 13 -92t40.5 -82t69.5 -63.5 t102 -34.5q33 121 76 255t98 282q-93 24 -148 24z" />
<glyph unicode="&#x430;" horiz-adv-x="917" d="M526 90v30.5t2 33.5q-70 -78 -146.5 -125t-145.5 -47q-84 0 -139.5 78.5t-55.5 263.5q0 139 44 270t123 233.5t184.5 165t228.5 62.5q57 0 123.5 -13.5t124 -38t96.5 -59.5t39 -80q0 -14 -7 -33q-45 -127 -85 -245.5t-69.5 -225t-47 -198.5t-17.5 -162v-32.5t4 -30.5 q-23 -10 -49 -13.5t-43 -3.5q-88 0 -126 45t-38 125zM592 494q23 74 54.5 155.5t74.5 173.5q-18 12 -36.5 19.5t-45.5 7.5q-49 0 -92 -28.5t-77 -75t-59.5 -104.5t-43 -115.5t-26.5 -109.5t-9 -87q0 -72 14 -103.5t37 -31.5t50.5 25.5t57 68.5t56.5 96.5t45 108.5z" />
<glyph unicode="&#x431;" horiz-adv-x="911" d="M43 319q0 225 39 417t99.5 336.5t133 233.5t142.5 107q61 10 133 26.5t142.5 39t134 50t106.5 62.5q27 -25 45 -64.5t18 -84.5q0 -53 -37.5 -99.5t-107.5 -81t-169 -55t-222 -22.5q-47 -39 -108.5 -139.5t-98.5 -278.5q59 117 133 192.5t178 75.5q47 0 101.5 -18.5 t117.5 -59.5q47 -43 64.5 -99t17.5 -118q0 -61 -15.5 -144t-45 -173t-72.5 -176t-100.5 -156t-128 -111.5t-154.5 -41.5q-178 0 -262 94.5t-84 287.5zM616 838q-39 0 -112 -101q-47 -63 -85 -135t-64.5 -143.5t-41 -140t-14.5 -123.5q0 -94 43 -95q47 0 100.5 70t98.5 171 t74.5 216t29.5 205q0 33 -6 53.5t-16 22.5h-7z" />
<glyph unicode="&#x432;" horiz-adv-x="905" d="M987 801q0 -55 -21.5 -102.5t-60.5 -86.5t-90 -70.5t-108 -56.5q47 -25 71.5 -62.5t24.5 -84.5q0 -55 -37 -115.5t-108.5 -116t-181 -99.5t-253.5 -64h-2q-29 0 -63.5 7t-66.5 24.5t-57.5 43t-33.5 62.5q10 113 62.5 310.5t185.5 465.5q-59 37 -60 105q0 16 44 30.5 t104.5 23.5t124 14t104.5 5q80 0 157 -12t135 -40t94 -71.5t36 -109.5zM559 842q-27 0 -37 -2q-35 -72 -65.5 -142.5t-59.5 -140.5q147 35 224 87t77 126q0 41 -45 56.5t-94 15.5zM330 377q-27 -76 -45.5 -142.5t-32.5 -123.5q133 25 194.5 80t61.5 104q0 37 -31 62.5 t-90 25.5q-25 0 -55 -6h-2z" />
<glyph unicode="&#x433;" horiz-adv-x="811" d="M870 838q-41 6 -83 10t-80 4q-41 0 -87.5 -4t-95.5 -12q-66 -135 -118 -269.5t-89.5 -251t-58 -212t-20.5 -154.5l-9 -10q-35 -6 -61 -7q-84 0 -125 41t-41 113q0 43 13.5 116.5t42 172t73.5 217.5t109 252q-31 45 -31 121q0 6 1 12t1 12q139 39 263 56.5t228 17.5 q45 0 81 -2t60.5 -13.5t37 -35t12.5 -66.5q0 -45 -12 -100z" />
<glyph unicode="&#x434;" horiz-adv-x="1054" d="M180 -297q-53 -45 -131 -45q-68 0 -102.5 40t-34.5 105q0 70 26.5 153t67.5 148q12 4 18.5 6.5t16.5 5.5t29.5 7t56.5 10q20 57 67.5 152.5t119 214t169 256t219.5 280.5q186 0 268.5 -47t82.5 -115q0 -18 -6 -36q-88 -193 -136.5 -365t-64.5 -305q63 -4 103 -22.5 t40 -69.5v-11.5t-2 -13.5q-29 -18 -49 -51t-33.5 -73t-20.5 -83t-7 -82q0 -20 2 -30q-49 -35 -103 -35q-55 0 -95 37t-40 90q0 39 10.5 89t24.5 77h-12q-51 0 -115 -3t-130.5 -9.5t-131 -13.5t-119.5 -15q-4 -10 -6 -26.5t-3 -35t-2 -36t-1 -29.5q0 -29 6 -59.5t18 -59.5z M748 786q-106 -162 -204 -315.5t-157 -306.5q45 4 106.5 6t102.5 4q4 43 15.5 108.5t29.5 146.5t45 172t62 185z" />
<glyph unicode="&#x435;" horiz-adv-x="864" d="M754 219q-66 -123 -166.5 -198.5t-227.5 -75.5q-154 0 -247 78.5t-93 244.5q0 72 19.5 158t56.5 172t87 167t111.5 143.5t132.5 99t146 36.5q53 0 109.5 -17t104 -50t78 -79t30.5 -103q0 -82 -32 -158t-102.5 -135.5t-181 -98t-268.5 -47.5q-20 -82 -20 -155 q0 -53 16.5 -76t40.5 -23q39 0 65.5 27t53.5 59.5t58.5 59t80.5 26.5q66 0 148 -55zM606 842q-37 0 -73.5 -40t-69.5 -94.5t-58.5 -108.5t-37.5 -85q76 20 128 52t83.5 66t45 69.5t13.5 66.5q0 41 -8.5 57.5t-22.5 16.5z" />
<glyph unicode="&#x436;" horiz-adv-x="1247" d="M623 -61q-35 -6 -62 -7q-86 0 -126 42t-40 116q0 41 12.5 106.5t36.5 149.5q-61 -35 -110 -90t-85 -113.5t-55.5 -108.5t-19.5 -75q0 -16 -3 -21.5t-15 -5.5q-41 0 -80 8.5t-69 26t-48 42t-18 54.5q0 49 31.5 108.5t82.5 116t118 104.5t136 75q-53 86 -87 214t-62 310 q29 6 53.5 8t46.5 2q72 0 121 -21.5t55 -64.5l6 -47q10 -68 21.5 -150.5t48.5 -160.5q39 102 90 216t117 239q92 -4 152.5 -36t60.5 -85q0 -27 -10 -47q-35 -72 -66 -142.5t-59 -140.5q139 102 245.5 218t192.5 251q80 -29 112.5 -66.5t32.5 -80.5q0 -45 -28 -90v2 q-29 -51 -73 -102.5t-96.5 -99.5t-110.5 -92t-114 -83q53 -72 87 -183.5t45 -240.5l-7 -8q-41 -23 -79.5 -32t-71.5 -9q-47 0 -78 22.5t-35 77.5q-6 88 -26.5 169t-67.5 151q-47 -135 -70.5 -243t-23.5 -173z" />
<glyph unicode="&#x437;" horiz-adv-x="868" d="M918 801q0 -57 -25 -104.5t-67 -86.5t-97 -69.5t-119 -55.5q88 -33 135.5 -100.5t47.5 -142.5q0 -55 -26 -108.5t-76 -96.5t-128 -68.5t-182 -25.5q-72 0 -138.5 19.5t-117.5 57t-85 94t-40 130.5q27 14 55.5 22t55.5 8q39 0 67.5 -14t36.5 -45q14 -53 59 -79.5t95 -26.5 q55 0 101 33.5t46 99.5q0 23 -7 47t-22.5 43.5t-42 33t-63.5 13.5q-16 0 -34.5 -3t-35.5 -3q-76 0 -103.5 45t-27.5 100q84 14 163 40t140.5 58.5t98 71.5t36.5 80q0 33 -21.5 53.5t-49.5 20.5q-29 0 -59.5 -24.5t-53.5 -82.5q-12 -31 -43 -45t-72 -14q-29 0 -59.5 8 t-55 22.5t-41 34t-18.5 41.5q20 63 64.5 110.5t102 78t124 45t133.5 14.5q68 0 130.5 -15.5t111.5 -44t78 -71.5t29 -98z" />
<glyph unicode="&#x438;" horiz-adv-x="948" d="M711 -55q-35 -6 -66 -6q-86 0 -124 39.5t-38 82.5q0 39 8.5 75t20.5 79t27.5 95t27.5 124q-49 -55 -97 -126.5t-92 -141.5t-83 -130.5t-66 -96.5h-2q-31 -6 -61 -7q-84 0 -124 41t-40 113q0 49 18.5 139t57.5 211t100.5 267.5t147.5 308.5q92 -4 152.5 -36t60.5 -87 q0 -18 -11 -45q-61 -129 -112 -254t-90 -238q115 135 237.5 305t245.5 363l8 -4q86 -6 143.5 -37t57.5 -84q0 -25 -10 -45h2q-66 -137 -119 -271.5t-91 -253t-59.5 -215t-21.5 -157.5z" />
<glyph unicode="&#x439;" horiz-adv-x="927" d="M711 -55q-35 -6 -66 -6q-80 0 -121 40.5t-41 112.5q0 37 11.5 100.5t33.5 145.5q-86 -117 -164.5 -222.5t-134.5 -176.5h-2q-31 -6 -61 -7q-84 0 -124 41t-40 113q0 49 18.5 139t57.5 211t100.5 267.5t147.5 308.5q92 -4 152.5 -36t60.5 -87q0 -18 -11 -45 q-61 -129 -112 -254t-90 -238q115 135 237.5 305t245.5 363l8 -4q86 -6 143.5 -37t57.5 -84q0 -25 -10 -45h2q-66 -137 -119 -271.5t-91 -253t-59.5 -215t-21.5 -157.5zM1071 1350q-29 -43 -72 -89.5t-97 -84t-117.5 -62t-133.5 -24.5q-104 0 -157.5 45t-53.5 118 q0 63 39 140q23 2 43.5 3t36.5 1q86 0 112.5 -21.5t26.5 -50.5q0 -20 -6 -39.5t-6 -36.5q0 -10 6 -17t25 -7q35 0 62.5 25.5t54 57t56.5 57.5t73 26q47 0 108 -41z" />
<glyph unicode="&#x43a;" horiz-adv-x="894" d="M772 -16q-47 -23 -92 -34t-86 -11q-55 0 -99 29.5t-78 80.5t-59.5 116.5t-46.5 139.5q-37 -117 -56 -207t-19 -149l-9 -10q-31 -6 -61 -7q-86 0 -125 42t-39 116q0 51 18.5 141.5t58.5 210t100.5 265t146.5 305.5q92 -4 151.5 -36t59.5 -85q0 -23 -13 -47h2 q-35 -72 -65.5 -142.5t-59.5 -140.5q141 104 248 219t193 250q80 -29 112.5 -66.5t32.5 -80.5q0 -53 -46 -120t-114.5 -134.5t-148.5 -129t-148 -106.5q25 -90 87.5 -189.5t158.5 -203.5z" />
<glyph unicode="&#x43b;" horiz-adv-x="958" d="M516 139q6 78 43 233.5t133 364.5q-84 -117 -162.5 -233.5t-142 -222t-106.5 -191.5t-58 -139q-16 -4 -29.5 -4h-27.5q-78 0 -121 32.5t-43 86.5q0 33 45 123t131 219t212 288.5t288 335.5q92 0 158.5 -13t109.5 -35.5t62.5 -50.5t19.5 -59q0 -20 -6 -34 q-68 -133 -119 -264.5t-86 -248t-52 -214t-17 -160.5q-10 -2 -18.5 -2h-16.5q-102 0 -149.5 46t-47.5 124v18z" />
<glyph unicode="&#x43c;" horiz-adv-x="1308" d="M416 80q0 102 8 210.5t8 233.5q0 31 -1 61.5t-3 65.5q-43 -104 -80 -210.5t-63.5 -202t-42 -173t-15.5 -126.5q-35 -6 -67 -7q-80 0 -119 41t-39 111q0 49 18.5 140t57.5 213t100.5 268.5t147.5 308.5q51 -4 101 -9.5t92 -17.5t72 -34.5t40 -57.5q16 -53 21 -110.5 t5 -116.5q0 -53 -3 -109.5t-5 -116.5q37 74 85 152t106.5 152.5t126 144.5t145.5 127q10 2 22.5 2h22.5q49 0 91 -14.5t71 -37t45 -51t16 -57.5q0 -20 -10 -41q-66 -135 -117 -264t-88 -241.5t-56 -207t-19 -157.5q0 -4 -9.5 -6t-20.5 -3t-21.5 -1h-14.5q-80 0 -120 39.5 t-40 111.5q0 66 33 203t100 317q-72 -104 -129 -204.5t-101 -188.5t-72.5 -158.5t-41.5 -117.5q-16 -4 -31.5 -4h-31.5q-90 0 -132 42t-42 101z" />
<glyph unicode="&#x43d;" horiz-adv-x="933" d="M696 -55q-35 -6 -65 -6q-80 0 -121 40.5t-41 112.5q0 47 16.5 130t51.5 194q-41 -4 -84 -7t-91 -10q-51 -147 -77.5 -264t-26.5 -186l-8 -10q-35 -6 -62 -7q-84 0 -124.5 41t-40.5 113q0 47 15 127t48 184q-51 41 -51 121q0 14 2 23l104 20q37 100 88.5 214t116.5 237 q92 -4 152.5 -36t60.5 -85q0 -27 -10 -47q-31 -61 -58.5 -124t-52.5 -122q86 6 160 6h6q35 94 83 197.5t108 216.5q90 -4 150.5 -37t60.5 -86q0 -20 -13 -45h2q-66 -137 -119 -271.5t-90.5 -253t-59 -215t-21.5 -157.5z" />
<glyph unicode="&#x43e;" horiz-adv-x="876" d="M815 963q41 -39 60.5 -88.5t19.5 -104.5q0 -66 -12.5 -143.5t-34.5 -157.5q-70 -248 -196 -387t-271 -139q-70 0 -129 13t-111 48h2q-66 37 -94.5 103.5t-28.5 160.5q0 72 19.5 158t56.5 172t87 167t111.5 143.5t132.5 99t146 36.5q27 0 60 -7t65.5 -19t63 -26.5 t53.5 -28.5zM608 844q-39 0 -112 -101q-47 -63 -85 -134.5t-65 -143.5t-41 -140.5t-14 -123.5q0 -94 43 -95q29 0 62.5 33t67.5 87.5t65.5 124t55 143t38 145.5t14.5 129q0 33 -6 53.5t-17 22.5h-6z" />
<glyph unicode="&#x43f;" horiz-adv-x="921" d="M676 -55q-35 -6 -66 -6q-80 0 -120.5 40.5t-40.5 112.5q0 43 14 119t45 176t78 222t112 259q-10 0 -37.5 -3t-56.5 -6t-52.5 -7t-23.5 -8q-66 -137 -119 -271.5t-91.5 -253t-59 -215t-20.5 -155.5l-9 -10q-35 -6 -61 -7q-84 0 -125 41t-41 113q0 43 14.5 119t44 176 t76.5 222t113 259q-39 45 -39 113q0 4 1 9t1 9q160 33 302 48.5t259 15.5q51 0 92 -2t69 -12.5t43 -31t15 -57.5q0 -23 -5 -52.5t-15 -51.5q-66 -135 -119 -270.5t-91 -254t-58.5 -215t-20.5 -157.5z" />
<glyph unicode="&#x440;" horiz-adv-x="948" d="M172 -502q-35 -6 -61 -6q-90 0 -131 45t-41 125q2 55 19 192.5t61 329t120 422t197 467.5q72 -4 127 -25.5t78 -56.5q39 6 77 6q84 0 147.5 -30.5t106.5 -80.5t64.5 -113.5t21.5 -129.5q0 -174 -75.5 -299t-186 -209t-236.5 -132t-227 -69q-29 -139 -41 -243.5 t-12 -161.5v-21zM487 772q-66 -160 -115.5 -315.5t-86.5 -296.5q98 25 174 75t129 113.5t80.5 131t27.5 126.5q0 68 -42 118t-134 50q-8 0 -16.5 -1t-16.5 -1z" />
<glyph unicode="&#x441;" horiz-adv-x="845" d="M801 485q-25 -4 -46.5 -6t-39.5 -2q-78 0 -104.5 31t-26.5 74q0 49 16 101t16 85q0 41 -8 57.5t-22 16.5q-37 0 -75 -42t-71.5 -97.5t-58.5 -111.5t-37 -83q-74 -172 -74 -307q0 -47 18.5 -67.5t47.5 -20.5q51 0 90 26.5t72.5 59t66.5 59.5t74 27q51 0 96 -45 q-33 -61 -76 -115.5t-94 -94.5t-110.5 -62.5t-122.5 -22.5q-150 0 -241 79.5t-91 243.5q0 72 19.5 158t56.5 172t87 167t111.5 143.5t132 99t146.5 36.5q55 0 111.5 -18t101.5 -51t72.5 -79t27.5 -101q0 -72 -16 -158t-49 -152z" />
<glyph unicode="&#x442;" horiz-adv-x="858" d="M991 827q-45 6 -94 8.5t-102 2.5h-37t-37 -2q0 -4 1 -9.5t1 -9.5q0 -23 -12 -47h2q-129 -272 -196.5 -482t-67.5 -333l-9 -8q-35 -6 -65 -6q-84 0 -123 41t-39 112q0 92 51 272.5t185 448.5q-43 -6 -91.5 -17.5t-89.5 -11.5q-59 0 -93 45.5t-34 102.5v16t2 17 q82 18 168 30.5t170 20.5t163 12t147 4q57 0 100 -4t70.5 -16.5t41 -36t13.5 -64.5q0 -35 -12 -77z" />
<glyph unicode="&#x443;" horiz-adv-x="874" d="M-37 -401q96 72 175 156.5t145 178.5v89q0 172 -11.5 309t-30 251.5t-45 214t-57.5 195.5q27 16 54.5 25.5t54.5 9.5q63 0 111.5 -37t64.5 -117q27 -127 44 -249.5t17 -255.5q0 -18 -1 -36t-1 -36q86 193 137.5 380t84.5 345q16 4 31.5 6t31.5 4q76 0 120 -45t44 -117 q0 -14 -2 -29.5t-6 -31.5q-41 -154 -105.5 -314.5t-146.5 -319.5t-176.5 -309.5t-194.5 -283.5q-61 -82 -145 -82q-49 0 -99.5 26t-93.5 73z" />
<glyph unicode="&#x444;" horiz-adv-x="1245" d="M602 -500q-35 -6 -65 -6q-94 0 -128 51.5t-34 139.5q0 43 5 121.5t17 187.5q-16 -2 -30.5 -3t-28.5 -1q-84 0 -147.5 30.5t-105.5 81t-63.5 114t-21.5 128.5q0 154 59.5 268.5t151.5 197.5t201.5 135t210.5 83q35 106 74.5 213t86.5 213q90 -4 149.5 -36t59.5 -85 q0 -25 -12 -49h2q-29 -66 -54.5 -136.5t-47.5 -143.5q12 2 23 2h22q84 0 147.5 -31t106.5 -82t64.5 -114.5t21.5 -127.5q0 -152 -58.5 -265.5t-147.5 -195t-196.5 -135t-208.5 -84.5q-25 -172 -35 -293.5t-10 -169.5zM817 782q-39 -147 -69.5 -294.5t-55.5 -284.5 q74 33 132.5 83t98.5 105t60.5 113.5t20.5 109.5q0 72 -44.5 120t-142.5 48zM428 213q23 127 51.5 270.5t69.5 296.5q-70 -35 -123 -84t-90 -102t-55.5 -108.5t-18.5 -104.5q0 -68 40 -116t126 -52z" />
<glyph unicode="&#x445;" horiz-adv-x="823" d="M123 -45q-45 -23 -76 -23q-74 0 -104.5 43t-30.5 91q0 33 26.5 78.5t73.5 101t109.5 119t134.5 133.5q-37 111 -66.5 238.5t-46.5 277.5q45 14 101 14q55 0 100 -20.5t53 -61.5q25 -133 62 -262q117 104 205 190.5t112 157.5q72 -6 115 -42t43 -91q0 -43 -30 -90 t-82 -101.5t-124.5 -119t-158.5 -144.5q47 -121 107.5 -232.5t133.5 -205.5l-2 -16q-16 -18 -53 -32.5t-78 -14.5q-43 0 -77.5 13t-68.5 49t-71 99.5t-82 163.5q-96 -92 -160.5 -174t-64.5 -139z" />
<glyph unicode="&#x446;" horiz-adv-x="987" d="M807 -393q-35 -6 -66 -6q-80 0 -116.5 38.5t-36.5 108.5q0 59 15 118.5t44 117.5h-12q-86 0 -190.5 -12.5t-215.5 -32.5q-35 -6 -61 -7q-84 0 -125 41t-41 113q0 49 18.5 139t57.5 211t100.5 267.5t147.5 308.5q92 -4 152.5 -36t60.5 -85q0 -27 -11 -47 q-92 -193 -160.5 -377t-103.5 -326q51 8 99.5 12.5t93.5 8.5q10 111 80.5 328t236.5 528q92 -4 151.5 -37t59.5 -86q0 -18 -10 -45q-94 -199 -162 -374t-98 -308q8 2 18 2h23q27 0 59.5 -5t59 -17.5t45 -35t18.5 -55.5q0 -10 -2 -20t-6 -23q-72 -76 -94.5 -178t-22.5 -219z " />
<glyph unicode="&#x447;" horiz-adv-x="856" d="M119 629q23 72 41 123t36.5 93t38 81t44.5 86q33 -2 69.5 -11.5t67 -24.5t51 -39t20.5 -54q0 -12 -19 -55.5t-42 -96.5t-42 -108.5t-19 -90.5q0 -61 41 -61q27 0 65 23q41 117 102.5 248.5t143.5 281.5q31 -2 66.5 -8t67.5 -17.5t53.5 -31t21.5 -49.5q0 -18 -8 -37 q-66 -135 -119.5 -275.5t-93 -267.5t-61 -230.5t-21.5 -164.5h-48q-31 0 -65.5 5t-64 19.5t-49 41t-19.5 71.5q0 104 39 246q-63 -20 -125 -21q-86 0 -141.5 47t-55.5 142q0 57 25 135z" />
<glyph unicode="&#x448;" horiz-adv-x="1355" d="M1128 -18q-195 0 -348 -2.5t-272 -7.5t-206 -12t-148 -17q-74 14 -114 45.5t-40 109.5q4 55 23.5 146.5t58.5 211t97.5 262t142.5 298.5q92 -4 152.5 -37t60.5 -86q0 -25 -11 -45h2q-98 -201 -168.5 -384t-103.5 -321q94 12 197 19q8 111 79.5 327t237.5 527 q92 -4 152.5 -36t60.5 -85q0 -27 -10 -47q-96 -199 -163 -372t-97 -304q47 2 95 3t97 1q10 113 80 326t234 520q90 -4 150 -37t60 -86q0 -20 -12 -45h2q-66 -137 -117 -263t-86.5 -235.5t-55 -197.5t-19.5 -148l-2 -2q0 -4 1 -8t1 -8z" />
<glyph unicode="&#x449;" horiz-adv-x="1429" d="M1253 -385q-35 -6 -65 -6q-80 0 -117 39t-37 108q0 55 15.5 110.5t40.5 108.5q-160 0 -307.5 -2t-269.5 -5t-215 -10t-144 -15q-74 14 -114 45.5t-40 109.5q4 55 23.5 146.5t58.5 211t97.5 262t142.5 298.5q92 -4 153.5 -37t61.5 -88q0 -16 -11 -43 q-98 -203 -168.5 -387.5t-103.5 -321.5q47 6 95 9.5t102 7.5v2q10 111 79.5 326.5t237.5 531.5q92 -4 152.5 -36t60.5 -85q0 -27 -10 -47q-96 -201 -164 -376t-98 -306l194 4q4 55 22.5 137t55.5 188.5t94.5 238.5t141.5 288q92 -4 151 -37t59 -86q0 -18 -10 -45 q-98 -201 -163.5 -377t-94.5 -307h55q86 -4 136.5 -28.5t50.5 -71.5q0 -25 -10 -45q-72 -66 -101.5 -174.5t-29.5 -225.5z" />
<glyph unicode="&#x44a;" horiz-adv-x="958" d="M649 866q-35 -59 -69.5 -127.5t-61.5 -128.5q41 8 78 12.5t72 4.5q141 0 205.5 -59.5t64.5 -145.5q0 -80 -46 -164t-127 -154.5t-191.5 -115.5t-239.5 -45h-2q-29 0 -64 7t-66.5 24.5t-57 43t-33.5 62.5q4 53 18 132t42 177t71 214t104 243q-25 -2 -45 -4t-40.5 -5 t-43 -7.5t-53.5 -12.5q-10 -2 -27 -2q-63 0 -88.5 57.5t-25.5 135.5q70 18 130 29.5t124.5 17.5t136 7t161.5 1q25 -25 40.5 -44.5t22.5 -41t9 -48t2 -63.5zM457 459q-35 -98 -59.5 -186.5t-39.5 -161.5q68 12 122.5 40.5t91 65.5t56 77t19.5 75q0 41 -29.5 69.5t-91.5 28.5 q-16 0 -33.5 -2t-35.5 -6z" />
<glyph unicode="&#x44b;" horiz-adv-x="1257" d="M526 848q-35 -59 -63.5 -118.5t-54.5 -119.5q41 8 77.5 12.5t71.5 4.5q141 0 205.5 -59.5t64.5 -145.5q0 -80 -46 -164t-127 -154.5t-191.5 -115.5t-239.5 -45h-2q-29 0 -63.5 7t-66.5 24.5t-57.5 43t-33.5 62.5q4 61 23.5 158.5t58.5 219.5t98.5 265t145.5 301 q86 -4 151.5 -35t65.5 -86q-1 -22 -17 -55zM1049 -55q-35 -6 -66 -6q-80 0 -121 40.5t-41 112.5q0 49 18.5 139.5t57.5 211t101.5 267t148.5 308.5q90 -4 150.5 -37t60.5 -86q0 -20 -12 -45h2q-66 -137 -119 -271.5t-91 -253t-59.5 -215t-21.5 -157.5zM346 459 q-35 -98 -59.5 -186.5t-38.5 -161.5q68 12 122 40.5t91 65.5t56.5 77t19.5 75q0 41 -30 69.5t-91 28.5q-16 0 -34 -2t-36 -6z" />
<glyph unicode="&#x44c;" horiz-adv-x="847" d="M526 848q-35 -59 -63.5 -118.5t-54.5 -119.5q41 8 77.5 12.5t71.5 4.5q141 0 205.5 -59.5t64.5 -145.5q0 -80 -46 -164t-127 -154.5t-191.5 -115.5t-239.5 -45h-2q-29 0 -63.5 7t-66.5 24.5t-57.5 43t-33.5 62.5q4 61 23.5 158.5t58.5 219.5t98.5 265t145.5 301 q86 -4 151.5 -35t65.5 -86q-1 -22 -17 -55zM346 459q-35 -98 -59.5 -186.5t-38.5 -161.5q68 12 122 40.5t91 65.5t56.5 77t19.5 75q0 41 -30 69.5t-91 28.5q-16 0 -34 -2t-36 -6z" />
<glyph unicode="&#x44d;" horiz-adv-x="946" d="M967 342q-78 8 -154 12q-76 -205 -189.5 -308t-238.5 -103q-92 0 -162.5 26.5t-118 71.5t-73 104.5t-31.5 124.5q35 14 76 15q57 0 92 -28t60.5 -61.5t49 -61.5t60.5 -28q39 0 90 61.5t96 166.5l-151 -25q-10 -2 -31 -2q-63 0 -97 44t-34 108q0 4 1 9t1 9 q104 23 201.5 36t185.5 19q41 135 41 236q0 41 -7 58.5t-24 17.5q-23 0 -53.5 -22.5t-56.5 -78.5q-12 -27 -30.5 -54t-43.5 -51t-55.5 -39t-69.5 -15q-37 0 -80 17t-94 58q39 76 88 145.5t106.5 123t122 85t134.5 31.5q27 0 61.5 -6t69.5 -20q100 -39 142 -92.5t48 -130.5 q0 -55 -7 -121t-24 -137q66 0 95.5 -24t29.5 -75q0 -20 -4 -41.5t-10 -46.5z" />
<glyph unicode="&#x44e;" horiz-adv-x="1359" d="M250 -61q-35 -6 -62 -7q-84 0 -124.5 41t-40.5 113q0 47 15 127t48 184q-51 41 -51 121q0 14 2 23l104 20q37 100 88.5 214t116.5 237q92 -4 152.5 -36t60.5 -85q0 -27 -10 -47q-31 -61 -58.5 -124t-52.5 -122q74 6 142 6q37 82 88 162t112.5 141.5t132 99t144.5 37.5 q27 0 61.5 -6t69.5 -20q111 -43 150.5 -102.5t39.5 -145.5q0 -66 -12 -143.5t-35 -157.5q-70 -248 -195.5 -387t-271.5 -139q-70 0 -129 13t-110 48h2q-66 37 -94.5 103.5t-28.5 160.5q0 76 14 146q-37 -2 -76 -6.5t-80 -8.5q-51 -147 -77.5 -264t-26.5 -186zM1092 844 q-39 0 -113 -101q-47 -63 -85 -134.5t-64.5 -143.5t-41 -140.5t-14.5 -123.5q0 -94 43 -95q29 0 62.5 33t67.5 87.5t65.5 124t55.5 143t38 145.5t14 129q0 33 -6 53.5t-16 22.5h-6z" />
<glyph unicode="&#x44f;" horiz-adv-x="1009" d="M772 -61q-35 -6 -63 -7q-86 0 -125 42t-39 116q0 39 11 98.5t32 137.5q-53 -39 -102.5 -92.5t-87.5 -106.5t-60.5 -99t-22.5 -69q0 -16 -3 -21.5t-15 -5.5q-41 0 -80 8.5t-68.5 26t-48 42t-18.5 57.5q0 35 23.5 84t62.5 101t91 99t108 80q-92 41 -139.5 108.5 t-49.5 153.5q6 82 46 147.5t103.5 111.5t146.5 69.5t177 23.5q55 0 130 -10t141.5 -30.5t112.5 -49t46 -65.5q0 -20 -12 -45h2q-66 -137 -119 -271.5t-92 -253t-59.5 -215t-20.5 -155.5zM455 666q0 -59 44 -111.5t140 -65.5q53 160 141 349q-78 16 -114 16 q-100 0 -155.5 -57t-55.5 -131z" />
<glyph unicode="&#x451;" horiz-adv-x="864" d="M754 219q-66 -123 -166.5 -198.5t-227.5 -75.5q-154 0 -247 78.5t-93 244.5q0 72 19.5 158t56.5 172t87 167t111.5 143.5t132.5 99t146 36.5q53 0 109.5 -17t104 -50t78 -79t30.5 -103q0 -82 -32 -158t-102.5 -135.5t-181 -98t-268.5 -47.5q-20 -82 -20 -155 q0 -53 16.5 -76t40.5 -23q39 0 65.5 27t53.5 59.5t58.5 59t80.5 26.5q66 0 148 -55zM512 1106q-72 0 -102.5 36t-30.5 83q0 33 12 65.5t36 60t54.5 45t67.5 17.5q76 0 110.5 -40t34.5 -93q0 -31 -12 -61.5t-34.5 -56t-57.5 -41t-78 -15.5zM866 1106q-66 0 -95.5 32.5 t-29.5 80.5q0 31 12.5 62.5t34 57t51 42t64.5 16.5q72 0 104.5 -38t32.5 -87q0 -29 -11 -58.5t-33.5 -53t-55.5 -39t-74 -15.5zM606 842q-37 0 -73.5 -40t-69.5 -94.5t-58.5 -108.5t-37.5 -85q76 20 128 52t83.5 66t45 69.5t13.5 66.5q0 41 -8.5 57.5t-22.5 16.5z" />
<glyph unicode="&#x452;" horiz-adv-x="917" d="M948 803q-31 -76 -66.5 -183.5t-71.5 -227.5t-69.5 -242.5t-60.5 -233.5q-18 -72 -42 -142.5t-59.5 -126t-88 -90t-125.5 -34.5q-41 0 -73 16.5t-52.5 40t-30.5 49t-10 45.5q0 10 2 15q66 12 107.5 40.5t69.5 69.5t44 90.5t31 102.5q37 162 76.5 322.5t93.5 324.5 q4 10 6 22.5t2 26.5q0 18 -7.5 32.5t-29.5 14.5q-33 0 -87 -46t-116 -146q-47 -201 -67.5 -352.5t-20.5 -223.5v-20l-8 -10q-35 -6 -62 -7q-90 0 -131 45t-41 125q2 41 11.5 133.5t33 222.5t61.5 288.5t97 332.5q-4 -4 -15 -5t-18 -1q-49 0 -66.5 43t-17.5 109q0 10 1.5 19 t1.5 20q49 14 99 24t99 21q27 63 55.5 126.5t61.5 127.5q92 -6 155.5 -38t63.5 -87q0 -16 -10 -43l-25 -54h17q45 0 80.5 -2t60 -13t37 -34.5t12.5 -66.5q0 -45 -12 -101l-10 -8q-41 6 -83 10t-81 4q-49 0 -107 -6q-31 -84 -57.5 -166t-48.5 -163q63 84 151 146t193 62 q72 0 119 -28.5t47 -87.5q-1 -37 -19 -82z" />
<glyph unicode="&#x453;" horiz-adv-x="782" d="M870 838q-41 6 -83 10t-80 4q-41 0 -87.5 -4t-95.5 -12q-66 -135 -118 -269.5t-89.5 -251t-58 -212t-20.5 -154.5l-9 -10q-35 -6 -61 -7q-84 0 -125 41t-41 113q0 43 13.5 116.5t42 172t73.5 217.5t109 252q-31 45 -31 121q0 6 1 12t1 12q139 39 263 56.5t228 17.5 q45 0 81 -2t60.5 -13.5t37 -35t12.5 -66.5q0 -45 -12 -100zM487 1245q57 43 95.5 72t67 51.5t53 44t55.5 47.5q18 18 33 19q20 0 36.5 -23.5t28.5 -52.5t20 -51l7 -23q0 -23 -26 -55.5t-65.5 -64t-91 -54t-102.5 -22.5q-41 0 -71 24.5t-40 87.5z" />
<glyph unicode="&#x454;" horiz-adv-x="923" d="M649 342q-96 12 -188 12h-39t-33 -2q-10 -41 -15 -78.5t-5 -72.5q0 -47 18.5 -67.5t46.5 -20.5q51 0 90 26.5t73 59t66.5 59.5t73.5 27q51 0 97 -45q-33 -61 -76 -115.5t-94.5 -94.5t-110.5 -62.5t-123 -22.5q-150 0 -241 79.5t-91 243.5v27.5t2 28.5q-49 10 -73.5 52 t-24.5 97v19q41 8 75 14t64 10q27 92 80 186.5t121 170t147.5 123.5t161.5 48q55 0 111.5 -18t101.5 -51t73 -79t28 -101q0 -72 -16.5 -158t-49.5 -152q-25 -4 -46.5 -6t-39.5 -2q-78 0 -104.5 31t-26.5 74q0 49 16.5 101t16.5 85q0 41 -8.5 57.5t-22.5 16.5 q-33 0 -66.5 -33t-64.5 -81t-56.5 -99t-41.5 -88h2q51 0 92 -2t68.5 -12.5t43 -31t15.5 -57.5q0 -20 -4 -41.5t-10 -46.5z" />
<glyph unicode="&#x455;" horiz-adv-x="874" d="M100 602q0 41 19.5 89t53.5 97.5t79 95.5t96 81.5t105.5 57t105.5 21.5q27 0 60.5 -7t67.5 -19t63.5 -26.5t52.5 -28.5q41 -41 59.5 -91.5t18.5 -107.5t-10.5 -114.5t-34.5 -141.5q-23 -2 -43.5 -3t-36.5 -1q-86 0 -121 29.5t-35 89.5q0 43 11.5 76.5t11.5 68.5 q0 76 -29 76q-25 0 -58.5 -32t-64.5 -75t-52.5 -88t-21.5 -69q0 -39 26 -67t64.5 -51.5t83.5 -48t84 -57t64.5 -78t25.5 -108.5q0 -45 -31.5 -85t-86 -70.5t-125 -49t-148.5 -18.5q-66 0 -127 19.5t-109 59.5t-80 101t-38 143q35 14 76 15q57 0 93 -28t64.5 -59.5t62.5 -59 t89 -27.5q41 0 58.5 19.5t17.5 41.5q0 20 -14.5 37.5t-34 34t-40 30t-32.5 23.5q-47 37 -90 63.5t-76 57.5t-53.5 72.5t-20.5 111.5z" />
<glyph unicode="&#x456;" horiz-adv-x="479" d="M229 -55q-35 -6 -65 -6q-82 0 -122 43t-40 114q0 51 16.5 141.5t53.5 210t95 264t142 306.5q90 -6 151.5 -38t61.5 -87q0 -18 -10 -43q-63 -137 -113.5 -271.5t-86.5 -253t-55 -215t-19 -157.5zM483 1116q-80 0 -114.5 40t-34.5 93q0 37 14 74t40 66.5t60.5 49t75.5 19.5 q84 0 123 -45t39 -102q0 -35 -13.5 -70t-40 -62.5t-63.5 -45t-86 -17.5z" />
<glyph unicode="&#x457;" horiz-adv-x="452" d="M203 -55q-35 -6 -66 -6q-82 0 -122 43t-40 114q0 51 16.5 141.5t53.5 210t95.5 264t142.5 306.5q90 -6 151.5 -38t61.5 -87q0 -18 -11 -43q-63 -137 -113 -271.5t-86 -253t-55.5 -215t-19.5 -157.5zM592 1157q-63 0 -90 32t-27 73q0 29 11.5 59.5t32 55t48 40t62.5 15.5 q66 0 97.5 -35t31.5 -82q0 -29 -11.5 -56.5t-32 -50t-52 -37t-70.5 -14.5zM276 1147q-66 0 -95 32.5t-29 80.5q0 31 12 62.5t33.5 57t51.5 42t64 16.5q72 0 105 -38t33 -87q0 -29 -11.5 -58.5t-34 -53t-55.5 -39t-74 -15.5z" />
<glyph unicode="&#x458;" horiz-adv-x="419" d="M424 1116q-80 0 -115 40t-35 93q0 37 14.5 74t40 66.5t60.5 49t76 19.5q84 0 123 -45t39 -102q0 -35 -13.5 -70t-40 -62.5t-63.5 -45t-86 -17.5zM250 1018q90 -6 151.5 -38t61.5 -87q0 -18 -10 -43q-31 -70 -70 -179.5t-78 -237.5t-75.5 -263t-65.5 -254 q-18 -72 -42 -142.5t-59.5 -126t-88 -90t-126.5 -34.5q-41 0 -72.5 16.5t-52 40t-30.5 49t-10 45.5q0 10 2 15q66 12 107.5 40.5t69 69.5t44 90.5t31.5 102.5q29 127 58.5 256t65 258t82 257t107.5 255z" />
<glyph unicode="&#x459;" horiz-adv-x="1277" d="M453 139q6 78 42.5 233.5t133.5 364.5q-84 -117 -163 -233.5t-142.5 -222t-106.5 -191.5t-57 -139q-16 -4 -29.5 -4h-28.5q-78 0 -120.5 32.5t-42.5 86.5q0 33 45 123t131 219t212 288.5t287 335.5q92 0 159 -13t110 -35.5t62.5 -50.5t19.5 -59q0 -20 -7 -34 q-29 -55 -53 -111.5t-47 -110.5q76 16 131 17q129 0 187.5 -58.5t58.5 -144.5q0 -76 -40 -161t-111.5 -155.5t-170 -116.5t-215.5 -46q-12 0 -24 -1t-25 -1q-102 0 -149 46t-47 124v18zM799 467q-68 -195 -97 -348q63 12 112.5 39.5t84.5 64.5t53.5 77t18.5 75 q0 43 -26.5 71.5t-84.5 28.5q-14 0 -29.5 -2t-31.5 -6z" />
<glyph unicode="&#x45a;" horiz-adv-x="1282" d="M250 -61q-35 -6 -62 -7q-84 0 -124.5 41t-40.5 113q0 47 15 127t48 184q-51 41 -51 121q0 14 2 23l104 20q37 100 88.5 214t116.5 237q92 -4 152.5 -36t60.5 -85q0 -27 -10 -47q-31 -61 -58.5 -124t-52.5 -122q86 6 160 6h6q35 94 83 197.5t108 216.5q90 -4 150.5 -37 t60.5 -86q0 -20 -13 -45h2q-29 -59 -54.5 -117.5t-49.5 -118.5q61 12 110 13q129 0 187.5 -58.5t58.5 -144.5q0 -76 -40 -161t-111.5 -155.5t-170 -116.5t-214.5 -46q-20 0 -41 -3t-39 -3q-80 0 -121 40.5t-41 112.5q0 47 16.5 130t51.5 194q-41 -4 -84 -7t-91 -10 q-51 -147 -77.5 -264t-26.5 -186zM831 463q-72 -201 -106 -350q61 12 109.5 40.5t81 64.5t50 75t17.5 74q0 43 -26.5 71.5t-84.5 28.5q-10 0 -20.5 -1t-20.5 -3z" />
<glyph unicode="&#x45b;" horiz-adv-x="897" d="M813 1114q-41 6 -83 10t-81 4q-49 0 -106 -6q-31 -84 -57.5 -166t-49.5 -163q63 86 151.5 150.5t192.5 74.5q84 -4 129 -45t45 -94q0 -35 -14 -64q-66 -137 -113 -266t-77.5 -240.5t-45 -203t-14.5 -152.5l-8 -8q-35 -6 -66 -6q-80 0 -120.5 40.5t-40.5 112.5 q0 68 38.5 209t108.5 338q4 10 6 22.5t2 26.5q0 18 -7 32.5t-30 14.5q-33 0 -87 -46t-115 -146q-47 -201 -67.5 -352.5t-20.5 -223.5v-20l-9 -10q-35 -6 -61 -7q-90 0 -131 45t-41 125q2 41 11 133.5t33 222.5t61.5 288.5t97.5 332.5q-4 -4 -15.5 -5t-17.5 -1 q-49 0 -66.5 43t-17.5 109q0 10 1 19t1 20q49 14 99.5 24t99.5 21q27 63 55.5 126.5t60.5 127.5q92 -6 156 -38t64 -87q0 -16 -11 -43l-24 -54h16q45 0 81 -2t60.5 -13t37 -34.5t12.5 -66.5q0 -45 -13 -101z" />
<glyph unicode="&#x45c;" horiz-adv-x="894" d="M772 -16q-47 -23 -92 -34t-86 -11q-55 0 -99 29.5t-78 80.5t-59.5 116.5t-46.5 139.5q-37 -117 -56 -207t-19 -149l-9 -10q-31 -6 -61 -7q-86 0 -125 42t-39 116q0 51 18.5 141.5t58.5 210t100.5 265t146.5 305.5q92 -4 151.5 -36t59.5 -85q0 -23 -13 -47h2 q-35 -72 -65.5 -142.5t-59.5 -140.5q141 104 248 219t193 250q80 -29 112.5 -66.5t32.5 -80.5q0 -53 -46 -120t-114.5 -134.5t-148.5 -129t-148 -106.5q25 -90 87.5 -189.5t158.5 -203.5zM512 1245q57 43 95 72t66.5 51.5t53.5 44t55 47.5q18 18 33 19q20 0 36.5 -23.5 t29 -52.5t19.5 -51l7 -23q0 -23 -25.5 -55.5t-65.5 -64t-91 -54t-102 -22.5q-41 0 -71 24.5t-40 87.5z" />
<glyph unicode="&#x45f;" horiz-adv-x="915" d="M350 -416q-31 -6 -61 -6q-72 0 -105.5 35t-33.5 98q0 57 14 113.5t41 109.5q-10 -2 -18.5 -2h-18.5q-84 0 -125 41t-41 113q0 49 18.5 139t57.5 211t100.5 267.5t147.5 308.5q92 -4 152.5 -36t60.5 -85q0 -27 -11 -47q-92 -193 -160.5 -377t-103.5 -326q51 8 99.5 12.5 t93.5 8.5q10 111 80.5 328t236.5 528q92 -4 151.5 -37t59.5 -86q0 -18 -10 -45q-66 -137 -118 -264t-89 -236.5t-56.5 -199t-19.5 -150.5q-63 0 -110 -3t-101 -20l-6 -18q-33 -31 -55.5 -72t-36.5 -89t-20.5 -100t-6.5 -106z" />
<glyph unicode="&#x490;" horiz-adv-x="802" d="M1006 1212q-59 10 -109.5 15.5t-97.5 5.5q-80 0 -181 -19q-74 -195 -134 -382t-104 -352t-68.5 -300t-24.5 -223q0 -4 -14.5 -7t-31 -5t-32.5 -3t-19 -1q-76 0 -111.5 39.5t-35.5 130.5q0 63 14.5 169.5t45 246t82 309.5t124.5 362q-29 25 -42 67t-13 93q0 20 2 31 q94 23 169 39t136.5 26t113.5 15.5t99 5.5h31q0 49 7 86.5t22.5 73.5t40 72t61.5 83q86 -4 139 -29.5t53 -72.5q0 -25 -10 -46q-35 -55 -49 -93t-22.5 -81t-15.5 -101.5t-25 -154.5z" />
<glyph unicode="&#x491;" horiz-adv-x="782" d="M870 838q-41 6 -83 10t-80 4q-41 0 -87.5 -4t-95.5 -12q-66 -135 -118 -269.5t-89.5 -251t-58 -212t-20.5 -154.5l-9 -10q-35 -6 -61 -7q-84 0 -125 41t-41 113q0 43 13.5 116.5t42 172t73.5 217.5t109 252q-31 45 -31 121q0 6 1 12t1 12q135 37 258 54.5t227 19.5 q-2 10 -2 18.5v18.5q0 51 6.5 90t19.5 74.5t36.5 71.5t58.5 83q78 -4 128 -28.5t50 -71.5q0 -18 -10 -45q-25 -43 -41 -77t-25.5 -68.5t-14.5 -77.5t-9 -105q0 -45 -12 -100z" />
<glyph unicode="&#x2000;" horiz-adv-x="949" />
<glyph unicode="&#x2001;" horiz-adv-x="1898" />
<glyph unicode="&#x2002;" horiz-adv-x="949" />
<glyph unicode="&#x2003;" horiz-adv-x="1898" />
<glyph unicode="&#x2004;" horiz-adv-x="632" />
<glyph unicode="&#x2005;" horiz-adv-x="474" />
<glyph unicode="&#x2006;" horiz-adv-x="316" />
<glyph unicode="&#x2007;" horiz-adv-x="316" />
<glyph unicode="&#x2008;" horiz-adv-x="237" />
<glyph unicode="&#x2009;" horiz-adv-x="379" />
<glyph unicode="&#x200a;" horiz-adv-x="105" />
<glyph unicode="&#x2010;" horiz-adv-x="765" d="M709 389q-35 4 -69 7t-67 3q-129 0 -247 -37q-10 -4 -27 -4q-41 0 -72.5 37t-31.5 109q0 31 10 78q104 33 193 48t159 15q92 0 132 -29.5t40 -111.5q0 -29 -5 -57.5t-15 -57.5z" />
<glyph unicode="&#x2011;" horiz-adv-x="765" d="M709 389q-35 4 -69 7t-67 3q-129 0 -247 -37q-10 -4 -27 -4q-41 0 -72.5 37t-31.5 109q0 31 10 78q104 33 193 48t159 15q92 0 132 -29.5t40 -111.5q0 -29 -5 -57.5t-15 -57.5z" />
<glyph unicode="&#x2012;" horiz-adv-x="765" d="M709 389q-35 4 -69 7t-67 3q-129 0 -247 -37q-10 -4 -27 -4q-41 0 -72.5 37t-31.5 109q0 31 10 78q104 33 193 48t159 15q92 0 132 -29.5t40 -111.5q0 -29 -5 -57.5t-15 -57.5z" />
<glyph unicode="&#x2013;" horiz-adv-x="1396" d="M1290 395q-53 8 -114.5 12.5t-126.5 4.5q-96 0 -202 -7.5t-210.5 -17.5t-202.5 -21.5t-182 -21.5q-4 0 -9 -1t-10 -1q-59 0 -89.5 43t-30.5 115q0 6 1 12t1 12q117 20 220 37t204.5 29t203 18t211.5 6q63 0 132 -3t143 -7q41 -4 58.5 -29.5t17.5 -72.5q0 -23 -4.5 -50.5 t-10.5 -56.5z" />
<glyph unicode="&#x2014;" horiz-adv-x="1503" d="M1417 395q-70 10 -147.5 16.5t-167.5 6.5q-180 0 -393 -19.5t-457 -54.5q-8 -2 -23 -2q-59 0 -87.5 44t-28.5 112q0 6 1 13t1 13q158 25 283.5 42.5t233 28.5t204 16t194.5 5q76 0 155 -4t171 -8q41 -4 58.5 -29.5t17.5 -72.5q0 -23 -4.5 -50.5t-10.5 -56.5z" />
<glyph unicode="&#x2018;" horiz-adv-x="425" d="M594 1559q-53 -37 -91 -75t-65.5 -89.5t-46 -122t-33.5 -170.5q-59 -51 -129 -51q-55 0 -96 36.5t-41 104.5q0 86 29 165t77 139t110.5 96t131.5 36q45 0 85 -16t69 -53z" />
<glyph unicode="&#x2019;" horiz-adv-x="579" d="M113 1096q53 37 91 74.5t65.5 89t46 122t32.5 170.5q29 27 62.5 38.5t64.5 11.5q57 0 98 -36t41 -104q0 -86 -28.5 -164.5t-76.5 -140t-110.5 -97.5t-132.5 -36q-45 0 -84.5 17.5t-68.5 54.5z" />
<glyph unicode="&#x201a;" horiz-adv-x="462" d="M166 -244q-29 -29 -66 -43t-75 -14q-49 0 -90 25.5t-54 80.5q84 88 136.5 201t99.5 256q29 27 61.5 38t61.5 11q53 0 89 -35.5t36 -103.5q0 -66 -23 -131.5t-54.5 -121.5t-65 -99.5t-56.5 -63.5z" />
<glyph unicode="&#x201c;" horiz-adv-x="868" d="M1036 1559q-53 -37 -91 -75t-65.5 -89.5t-46 -122t-32.5 -170.5q-59 -51 -129 -51q-55 0 -96 36.5t-41 104.5q0 86 28.5 165t76.5 139t110.5 96t132.5 36q45 0 84.5 -16t68.5 -53zM563 1546q-49 -41 -84 -82t-57.5 -95t-34.5 -126t-18 -172q-31 -31 -68 -46t-72 -15 q-63 0 -100 42t-37 126t26.5 160.5t72 136t105.5 94.5t128 35q82 -1 139 -58z" />
<glyph unicode="&#x201d;" horiz-adv-x="1095" d="M113 1096q53 37 91 74.5t65.5 89t46 122t32.5 170.5q29 27 62.5 38.5t64.5 11.5q57 0 98 -36t41 -104q0 -86 -28.5 -164.5t-76.5 -140t-110.5 -97.5t-132.5 -36q-45 0 -84.5 17.5t-68.5 54.5zM584 1110q49 41 83.5 82t58.5 95t36 125t18 173q31 31 67 46.5t71 15.5 q66 0 101.5 -43t35.5 -127t-27 -161t-72 -135.5t-106.5 -93t-128.5 -34.5q-39 0 -73.5 13t-63.5 44z" />
<glyph unicode="&#x201e;" horiz-adv-x="1124" d="M90 -283q53 37 91 75t65.5 89t46 122t33.5 171q29 27 62.5 38t64.5 11q57 0 98 -35.5t41 -103.5q0 -86 -28.5 -165t-77 -140.5t-111 -97t-131.5 -35.5q-45 0 -85 17t-69 54zM561 -268q49 41 84 82t58.5 95t36 124.5t18.5 173.5q31 31 66.5 46t70.5 15q66 0 101.5 -43 t35.5 -127t-26.5 -160.5t-71.5 -135t-106.5 -93.5t-129.5 -35q-39 0 -73.5 13.5t-63.5 44.5z" />
<glyph unicode="&#x2020;" horiz-adv-x="843" d="M874 926q-41 6 -82.5 10t-80.5 4q-23 0 -56.5 -3t-76.5 -7q-61 -162 -106.5 -313.5t-76 -278.5t-47 -223.5t-18.5 -147.5q0 -8 -4 -20l-9 -10q-35 -6 -61 -7q-84 0 -121 40t-37 112q0 23 9.5 93.5t32 178t57 244.5t88.5 291q-53 -10 -99.5 -20.5t-68.5 -10.5 q-57 0 -86 51.5t-29 122.5v19q70 18 168 36.5t201 32.5q45 109 96 219.5t115 221.5q94 -6 153.5 -38t59.5 -87l-15 -43q-31 -59 -58.5 -121t-53.5 -123q10 2 19 2h20q45 0 80.5 -2t60 -13.5t37 -35t12.5 -66.5q0 -45 -12 -100z" />
<glyph unicode="&#x2022;" horiz-adv-x="946" d="M475 971q59 0 111.5 -23.5t91.5 -63.5t61.5 -93.5t22.5 -114.5q0 -74 -27.5 -129t-70.5 -92t-93.5 -55.5t-95.5 -18.5q-59 0 -111.5 23.5t-92.5 63.5t-63.5 93t-23.5 115q0 61 23.5 114.5t63.5 93.5t92.5 63.5t111.5 23.5z" />
<glyph unicode="&#x2026;" horiz-adv-x="1366" d="M-14 80q0 41 14 86t38.5 82t56.5 61.5t67 24.5q92 0 136 -31t44 -100q0 -41 -13.5 -86t-37 -82t-57 -60.5t-74.5 -23.5q-72 0 -123 28.5t-51 100.5zM504 100q0 41 14 86t39 82t56.5 61.5t66.5 24.5q92 0 136 -30.5t44 -100.5q0 -41 -13 -86t-37 -82t-57.5 -60.5 t-74.5 -23.5q-72 0 -123 28.5t-51 100.5zM1026 121q0 41 14.5 86t39 82t56 61.5t66.5 24.5q92 0 136 -31t44 -100q0 -41 -13 -86t-36.5 -82t-57.5 -60.5t-75 -23.5q-72 0 -123 28.5t-51 100.5z" />
<glyph unicode="&#x202f;" horiz-adv-x="379" />
<glyph unicode="&#x2030;" horiz-adv-x="1771" d="M1165 1141q-86 -100 -205.5 -243.5t-271.5 -334.5q-88 -111 -157.5 -201t-128 -164.5t-107.5 -136t-94 -112.5q-43 25 -62.5 57.5t-19.5 67.5q0 29 11 58.5t32 57.5q121 174 298 403.5t419 518.5q-78 -43 -158 -43q-23 0 -45.5 3t-40.5 13q-10 -88 -36 -166.5t-64.5 -137 t-89 -93.5t-111.5 -35q-43 0 -85 15.5t-74 46t-52.5 78t-20.5 110.5q0 66 26 154t69 167t100 134t123 55q45 0 77.5 -11t57.5 -31.5t42 -48.5t36 -60q37 -72 131 -72q51 0 104.5 18.5t103.5 47t93 64.5t74 71q41 -25 55 -58t14 -67q0 -41 -13.5 -75t-29.5 -50zM860 -53 q-41 0 -81 13t-71.5 42t-51 74t-19.5 110q0 70 27.5 159t73.5 169t105.5 135.5t121.5 55.5q51 0 91 -19.5t67.5 -52.5t41 -75t13.5 -87q0 -94 -26 -188.5t-69 -169t-100 -120.5t-123 -46zM459 1264q-12 0 -31.5 -19.5t-41 -50.5t-41 -66.5t-30.5 -68.5q-23 -66 -34 -116 t-11 -91q0 -61 35 -61q18 0 47 39.5t57.5 101t49 136.5t20.5 144q0 43 -14 52h-6zM1006 555q-2 0 -3.5 1t-3.5 1q-12 0 -32.5 -20.5t-41 -51t-41 -67.5t-32.5 -68q-29 -66 -41 -120t-12 -93q0 -55 28 -55q20 0 53 44t64 109.5t53.5 139.5t22.5 133q0 41 -14 47zM1405 -53 q-41 0 -81 13t-71.5 42t-51 74t-19.5 110q0 70 27.5 159t73.5 169t105.5 135.5t120.5 55.5q51 0 91 -19.5t68 -52.5t41 -75t13 -87q0 -94 -25.5 -188.5t-68.5 -169t-100 -120.5t-123 -46zM1550 555q-2 0 -3 1t-3 1q-12 0 -32.5 -20.5t-41 -51t-41 -67.5t-32.5 -68 q-29 -66 -41.5 -120t-12.5 -93q0 -55 29 -55q20 0 53 44t64 109.5t53.5 139.5t22.5 133q-1 41 -15 47z" />
<glyph unicode="&#x2039;" horiz-adv-x="1112" d="M717 1004q53 -45 77.5 -87.5t24.5 -82.5q0 -55 -41 -103.5t-102.5 -88.5t-136 -70.5t-142.5 -49.5q49 -35 108.5 -67.5t120 -60t120 -51.5t108.5 -42q2 -10 2 -18.5v-16.5q0 -41 -15.5 -68.5t-39 -44t-52 -23.5t-55.5 -7q-10 0 -20 1t-21 3q-160 33 -285.5 124 t-236.5 216v22q0 72 25.5 125.5t99.5 83.5q23 8 74 35t116.5 66t136.5 91.5t134 113.5z" />
<glyph unicode="&#x203a;" horiz-adv-x="1112" d="M358 8q-53 45 -77.5 86t-24.5 82q0 55 41 103.5t102.5 88.5t136 70.5t142.5 48.5q-96 72 -194.5 123.5t-198.5 87.5q-2 10 -2 17.5v17.5q0 39 14 67.5t36.5 45t50.5 25t54 8.5q45 0 106.5 -27t131 -73t139.5 -106.5t129 -127.5v-23q0 -72 -25.5 -126t-99.5 -83 q-23 -10 -74 -35.5t-116.5 -64.5t-136.5 -91.5t-134 -113.5z" />
<glyph unicode="&#x205f;" horiz-adv-x="474" />
<glyph unicode="&#x20ac;" horiz-adv-x="1146" d="M733 420q-96 12 -188 12h-23q-2 -18 -3 -34.5t-1 -32.5q0 -86 32 -124t81 -38q43 0 80 25.5t70.5 56t68.5 56.5t72 26q51 0 96 -45q-39 -78 -89 -136.5t-105.5 -96.5t-115 -56.5t-116.5 -18.5q-70 0 -133.5 27t-111.5 77t-76.5 123.5t-28.5 170.5l-39 -6q-10 -2 -31 -3 q-63 0 -97 38t-34 91q0 12 29.5 20.5t68.5 14.5t75 9.5t46 3.5l19 75q-6 -4 -19.5 -4h-23.5q-63 0 -97.5 38t-34.5 91q0 12 33 20.5t75 14.5t81 10t49 4q37 82 87 159t111.5 134.5t135.5 92t160 34.5q55 0 111.5 -18.5t101.5 -51t72.5 -78.5t27.5 -102q0 -72 -16.5 -157.5 t-49.5 -151.5q-43 -6 -71 -6q-78 0 -103.5 32t-25.5 79t13 96t13 82q0 41 -11 57.5t-30 16.5q-66 0 -123 -58.5t-102 -148.5l92 -6q88 -6 88 -82q0 -16 -4 -35t-10 -41l-12 -8q-96 12 -189 12h-30q-14 -41 -25 -88q98 0 152.5 -13.5t54.5 -74.5q0 -16 -4 -34.5t-11 -41.5z " />
<glyph unicode="&#x20ba;" d="M4 408h82t84 2l12 53q-63 4 -109 26.5t-46 85.5q0 8 1 16.5t3 18.5q47 2 96 4t102 7q31 98 72 205.5t92 228.5q-66 47 -65 112q0 18 46 35t109.5 29t130 18t105.5 6q82 0 158.5 -14t136 -46t96.5 -85t37 -129q0 -117 -68.5 -204t-169 -145.5t-216 -91t-210.5 -40.5 l-18 -70q86 10 170 27.5t166 42.5q8 -23 8 -45q0 -47 -34 -81t-88 -58.5t-123.5 -39t-143.5 -22.5q-23 -102 -37 -187t-14 -139h-9q-41 0 -80.5 11.5t-73.5 36t-54.5 63.5t-20.5 92q0 27 2 55.5t6 61.5q-59 8 -99 33.5t-40 87.5v18.5t4 20.5zM852 942q0 55 -46 77.5 t-95 22.5q-10 0 -19.5 -1t-19.5 -3q-39 -86 -70 -172t-65 -188q158 47 236.5 106.5t78.5 157.5z" />
<glyph unicode="&#x20bb;" d="M4 408h82t84 2l12 53q-63 4 -109 26.5t-46 85.5q0 8 1 16.5t3 18.5q47 2 96 4t102 7q31 98 72 205.5t92 228.5q-66 47 -65 112q0 18 46 35t109.5 29t130 18t105.5 6q82 0 158.5 -14t136 -46t96.5 -85t37 -129q0 -117 -68.5 -204t-169 -145.5t-216 -91t-210.5 -40.5 l-18 -70q86 10 170 27.5t166 42.5q8 -23 8 -45q0 -47 -34 -81t-88 -58.5t-123.5 -39t-143.5 -22.5q-23 -102 -37 -187t-14 -139h-9q-41 0 -80.5 11.5t-73.5 36t-54.5 63.5t-20.5 92q0 27 2 55.5t6 61.5q-59 8 -99 33.5t-40 87.5v18.5t4 20.5zM852 942q0 55 -46 77.5 t-95 22.5q-10 0 -19.5 -1t-19.5 -3q-39 -86 -70 -172t-65 -188q158 47 236.5 106.5t78.5 157.5z" />
<glyph unicode="&#x20bc;" d="M4 408h82t84 2l12 53q-63 4 -109 26.5t-46 85.5q0 8 1 16.5t3 18.5q47 2 96 4t102 7q31 98 72 205.5t92 228.5q-66 47 -65 112q0 18 46 35t109.5 29t130 18t105.5 6q82 0 158.5 -14t136 -46t96.5 -85t37 -129q0 -117 -68.5 -204t-169 -145.5t-216 -91t-210.5 -40.5 l-18 -70q86 10 170 27.5t166 42.5q8 -23 8 -45q0 -47 -34 -81t-88 -58.5t-123.5 -39t-143.5 -22.5q-23 -102 -37 -187t-14 -139h-9q-41 0 -80.5 11.5t-73.5 36t-54.5 63.5t-20.5 92q0 27 2 55.5t6 61.5q-59 8 -99 33.5t-40 87.5v18.5t4 20.5zM852 942q0 55 -46 77.5 t-95 22.5q-10 0 -19.5 -1t-19.5 -3q-39 -86 -70 -172t-65 -188q158 47 236.5 106.5t78.5 157.5z" />
<glyph unicode="&#x20bd;" d="M4 408h82t84 2l12 53q-63 4 -109 26.5t-46 85.5q0 8 1 16.5t3 18.5q47 2 96 4t102 7q31 98 72 205.5t92 228.5q-66 47 -65 112q0 18 46 35t109.5 29t130 18t105.5 6q82 0 158.5 -14t136 -46t96.5 -85t37 -129q0 -117 -68.5 -204t-169 -145.5t-216 -91t-210.5 -40.5 l-18 -70q86 10 170 27.5t166 42.5q8 -23 8 -45q0 -47 -34 -81t-88 -58.5t-123.5 -39t-143.5 -22.5q-23 -102 -37 -187t-14 -139h-9q-41 0 -80.5 11.5t-73.5 36t-54.5 63.5t-20.5 92q0 27 2 55.5t6 61.5q-59 8 -99 33.5t-40 87.5v18.5t4 20.5zM852 942q0 55 -46 77.5 t-95 22.5q-10 0 -19.5 -1t-19.5 -3q-39 -86 -70 -172t-65 -188q158 47 236.5 106.5t78.5 157.5z" />
<glyph unicode="&#x20be;" d="M4 408h82t84 2l12 53q-63 4 -109 26.5t-46 85.5q0 8 1 16.5t3 18.5q47 2 96 4t102 7q31 98 72 205.5t92 228.5q-66 47 -65 112q0 18 46 35t109.5 29t130 18t105.5 6q82 0 158.5 -14t136 -46t96.5 -85t37 -129q0 -117 -68.5 -204t-169 -145.5t-216 -91t-210.5 -40.5 l-18 -70q86 10 170 27.5t166 42.5q8 -23 8 -45q0 -47 -34 -81t-88 -58.5t-123.5 -39t-143.5 -22.5q-23 -102 -37 -187t-14 -139h-9q-41 0 -80.5 11.5t-73.5 36t-54.5 63.5t-20.5 92q0 27 2 55.5t6 61.5q-59 8 -99 33.5t-40 87.5v18.5t4 20.5zM852 942q0 55 -46 77.5 t-95 22.5q-10 0 -19.5 -1t-19.5 -3q-39 -86 -70 -172t-65 -188q158 47 236.5 106.5t78.5 157.5z" />
<glyph unicode="&#x20bf;" d="M4 408h82t84 2l12 53q-63 4 -109 26.5t-46 85.5q0 8 1 16.5t3 18.5q47 2 96 4t102 7q31 98 72 205.5t92 228.5q-66 47 -65 112q0 18 46 35t109.5 29t130 18t105.5 6q82 0 158.5 -14t136 -46t96.5 -85t37 -129q0 -117 -68.5 -204t-169 -145.5t-216 -91t-210.5 -40.5 l-18 -70q86 10 170 27.5t166 42.5q8 -23 8 -45q0 -47 -34 -81t-88 -58.5t-123.5 -39t-143.5 -22.5q-23 -102 -37 -187t-14 -139h-9q-41 0 -80.5 11.5t-73.5 36t-54.5 63.5t-20.5 92q0 27 2 55.5t6 61.5q-59 8 -99 33.5t-40 87.5v18.5t4 20.5zM852 942q0 55 -46 77.5 t-95 22.5q-10 0 -19.5 -1t-19.5 -3q-39 -86 -70 -172t-65 -188q158 47 236.5 106.5t78.5 157.5z" />
<glyph unicode="&#x20c0;" d="M4 408h82t84 2l12 53q-63 4 -109 26.5t-46 85.5q0 8 1 16.5t3 18.5q47 2 96 4t102 7q31 98 72 205.5t92 228.5q-66 47 -65 112q0 18 46 35t109.5 29t130 18t105.5 6q82 0 158.5 -14t136 -46t96.5 -85t37 -129q0 -117 -68.5 -204t-169 -145.5t-216 -91t-210.5 -40.5 l-18 -70q86 10 170 27.5t166 42.5q8 -23 8 -45q0 -47 -34 -81t-88 -58.5t-123.5 -39t-143.5 -22.5q-23 -102 -37 -187t-14 -139h-9q-41 0 -80.5 11.5t-73.5 36t-54.5 63.5t-20.5 92q0 27 2 55.5t6 61.5q-59 8 -99 33.5t-40 87.5v18.5t4 20.5zM852 942q0 55 -46 77.5 t-95 22.5q-10 0 -19.5 -1t-19.5 -3q-39 -86 -70 -172t-65 -188q158 47 236.5 106.5t78.5 157.5z" />
<glyph unicode="&#x20c1;" d="M4 408h82t84 2l12 53q-63 4 -109 26.5t-46 85.5q0 8 1 16.5t3 18.5q47 2 96 4t102 7q31 98 72 205.5t92 228.5q-66 47 -65 112q0 18 46 35t109.5 29t130 18t105.5 6q82 0 158.5 -14t136 -46t96.5 -85t37 -129q0 -117 -68.5 -204t-169 -145.5t-216 -91t-210.5 -40.5 l-18 -70q86 10 170 27.5t166 42.5q8 -23 8 -45q0 -47 -34 -81t-88 -58.5t-123.5 -39t-143.5 -22.5q-23 -102 -37 -187t-14 -139h-9q-41 0 -80.5 11.5t-73.5 36t-54.5 63.5t-20.5 92q0 27 2 55.5t6 61.5q-59 8 -99 33.5t-40 87.5v18.5t4 20.5zM852 942q0 55 -46 77.5 t-95 22.5q-10 0 -19.5 -1t-19.5 -3q-39 -86 -70 -172t-65 -188q158 47 236.5 106.5t78.5 157.5z" />
<glyph unicode="&#x20c2;" d="M4 408h82t84 2l12 53q-63 4 -109 26.5t-46 85.5q0 8 1 16.5t3 18.5q47 2 96 4t102 7q31 98 72 205.5t92 228.5q-66 47 -65 112q0 18 46 35t109.5 29t130 18t105.5 6q82 0 158.5 -14t136 -46t96.5 -85t37 -129q0 -117 -68.5 -204t-169 -145.5t-216 -91t-210.5 -40.5 l-18 -70q86 10 170 27.5t166 42.5q8 -23 8 -45q0 -47 -34 -81t-88 -58.5t-123.5 -39t-143.5 -22.5q-23 -102 -37 -187t-14 -139h-9q-41 0 -80.5 11.5t-73.5 36t-54.5 63.5t-20.5 92q0 27 2 55.5t6 61.5q-59 8 -99 33.5t-40 87.5v18.5t4 20.5zM852 942q0 55 -46 77.5 t-95 22.5q-10 0 -19.5 -1t-19.5 -3q-39 -86 -70 -172t-65 -188q158 47 236.5 106.5t78.5 157.5z" />
<glyph unicode="&#x20c3;" d="M4 408h82t84 2l12 53q-63 4 -109 26.5t-46 85.5q0 8 1 16.5t3 18.5q47 2 96 4t102 7q31 98 72 205.5t92 228.5q-66 47 -65 112q0 18 46 35t109.5 29t130 18t105.5 6q82 0 158.5 -14t136 -46t96.5 -85t37 -129q0 -117 -68.5 -204t-169 -145.5t-216 -91t-210.5 -40.5 l-18 -70q86 10 170 27.5t166 42.5q8 -23 8 -45q0 -47 -34 -81t-88 -58.5t-123.5 -39t-143.5 -22.5q-23 -102 -37 -187t-14 -139h-9q-41 0 -80.5 11.5t-73.5 36t-54.5 63.5t-20.5 92q0 27 2 55.5t6 61.5q-59 8 -99 33.5t-40 87.5v18.5t4 20.5zM852 942q0 55 -46 77.5 t-95 22.5q-10 0 -19.5 -1t-19.5 -3q-39 -86 -70 -172t-65 -188q158 47 236.5 106.5t78.5 157.5z" />
<glyph unicode="&#x20c4;" d="M4 408h82t84 2l12 53q-63 4 -109 26.5t-46 85.5q0 8 1 16.5t3 18.5q47 2 96 4t102 7q31 98 72 205.5t92 228.5q-66 47 -65 112q0 18 46 35t109.5 29t130 18t105.5 6q82 0 158.5 -14t136 -46t96.5 -85t37 -129q0 -117 -68.5 -204t-169 -145.5t-216 -91t-210.5 -40.5 l-18 -70q86 10 170 27.5t166 42.5q8 -23 8 -45q0 -47 -34 -81t-88 -58.5t-123.5 -39t-143.5 -22.5q-23 -102 -37 -187t-14 -139h-9q-41 0 -80.5 11.5t-73.5 36t-54.5 63.5t-20.5 92q0 27 2 55.5t6 61.5q-59 8 -99 33.5t-40 87.5v18.5t4 20.5zM852 942q0 55 -46 77.5 t-95 22.5q-10 0 -19.5 -1t-19.5 -3q-39 -86 -70 -172t-65 -188q158 47 236.5 106.5t78.5 157.5z" />
<glyph unicode="&#x20c5;" d="M4 408h82t84 2l12 53q-63 4 -109 26.5t-46 85.5q0 8 1 16.5t3 18.5q47 2 96 4t102 7q31 98 72 205.5t92 228.5q-66 47 -65 112q0 18 46 35t109.5 29t130 18t105.5 6q82 0 158.5 -14t136 -46t96.5 -85t37 -129q0 -117 -68.5 -204t-169 -145.5t-216 -91t-210.5 -40.5 l-18 -70q86 10 170 27.5t166 42.5q8 -23 8 -45q0 -47 -34 -81t-88 -58.5t-123.5 -39t-143.5 -22.5q-23 -102 -37 -187t-14 -139h-9q-41 0 -80.5 11.5t-73.5 36t-54.5 63.5t-20.5 92q0 27 2 55.5t6 61.5q-59 8 -99 33.5t-40 87.5v18.5t4 20.5zM852 942q0 55 -46 77.5 t-95 22.5q-10 0 -19.5 -1t-19.5 -3q-39 -86 -70 -172t-65 -188q158 47 236.5 106.5t78.5 157.5z" />
<glyph unicode="&#x20c6;" d="M4 408h82t84 2l12 53q-63 4 -109 26.5t-46 85.5q0 8 1 16.5t3 18.5q47 2 96 4t102 7q31 98 72 205.5t92 228.5q-66 47 -65 112q0 18 46 35t109.5 29t130 18t105.5 6q82 0 158.5 -14t136 -46t96.5 -85t37 -129q0 -117 -68.5 -204t-169 -145.5t-216 -91t-210.5 -40.5 l-18 -70q86 10 170 27.5t166 42.5q8 -23 8 -45q0 -47 -34 -81t-88 -58.5t-123.5 -39t-143.5 -22.5q-23 -102 -37 -187t-14 -139h-9q-41 0 -80.5 11.5t-73.5 36t-54.5 63.5t-20.5 92q0 27 2 55.5t6 61.5q-59 8 -99 33.5t-40 87.5v18.5t4 20.5zM852 942q0 55 -46 77.5 t-95 22.5q-10 0 -19.5 -1t-19.5 -3q-39 -86 -70 -172t-65 -188q158 47 236.5 106.5t78.5 157.5z" />
<glyph unicode="&#x20c7;" d="M4 408h82t84 2l12 53q-63 4 -109 26.5t-46 85.5q0 8 1 16.5t3 18.5q47 2 96 4t102 7q31 98 72 205.5t92 228.5q-66 47 -65 112q0 18 46 35t109.5 29t130 18t105.5 6q82 0 158.5 -14t136 -46t96.5 -85t37 -129q0 -117 -68.5 -204t-169 -145.5t-216 -91t-210.5 -40.5 l-18 -70q86 10 170 27.5t166 42.5q8 -23 8 -45q0 -47 -34 -81t-88 -58.5t-123.5 -39t-143.5 -22.5q-23 -102 -37 -187t-14 -139h-9q-41 0 -80.5 11.5t-73.5 36t-54.5 63.5t-20.5 92q0 27 2 55.5t6 61.5q-59 8 -99 33.5t-40 87.5v18.5t4 20.5zM852 942q0 55 -46 77.5 t-95 22.5q-10 0 -19.5 -1t-19.5 -3q-39 -86 -70 -172t-65 -188q158 47 236.5 106.5t78.5 157.5z" />
<glyph unicode="&#x20c8;" d="M4 408h82t84 2l12 53q-63 4 -109 26.5t-46 85.5q0 8 1 16.5t3 18.5q47 2 96 4t102 7q31 98 72 205.5t92 228.5q-66 47 -65 112q0 18 46 35t109.5 29t130 18t105.5 6q82 0 158.5 -14t136 -46t96.5 -85t37 -129q0 -117 -68.5 -204t-169 -145.5t-216 -91t-210.5 -40.5 l-18 -70q86 10 170 27.5t166 42.5q8 -23 8 -45q0 -47 -34 -81t-88 -58.5t-123.5 -39t-143.5 -22.5q-23 -102 -37 -187t-14 -139h-9q-41 0 -80.5 11.5t-73.5 36t-54.5 63.5t-20.5 92q0 27 2 55.5t6 61.5q-59 8 -99 33.5t-40 87.5v18.5t4 20.5zM852 942q0 55 -46 77.5 t-95 22.5q-10 0 -19.5 -1t-19.5 -3q-39 -86 -70 -172t-65 -188q158 47 236.5 106.5t78.5 157.5z" />
<glyph unicode="&#x20c9;" d="M4 408h82t84 2l12 53q-63 4 -109 26.5t-46 85.5q0 8 1 16.5t3 18.5q47 2 96 4t102 7q31 98 72 205.5t92 228.5q-66 47 -65 112q0 18 46 35t109.5 29t130 18t105.5 6q82 0 158.5 -14t136 -46t96.5 -85t37 -129q0 -117 -68.5 -204t-169 -145.5t-216 -91t-210.5 -40.5 l-18 -70q86 10 170 27.5t166 42.5q8 -23 8 -45q0 -47 -34 -81t-88 -58.5t-123.5 -39t-143.5 -22.5q-23 -102 -37 -187t-14 -139h-9q-41 0 -80.5 11.5t-73.5 36t-54.5 63.5t-20.5 92q0 27 2 55.5t6 61.5q-59 8 -99 33.5t-40 87.5v18.5t4 20.5zM852 942q0 55 -46 77.5 t-95 22.5q-10 0 -19.5 -1t-19.5 -3q-39 -86 -70 -172t-65 -188q158 47 236.5 106.5t78.5 157.5z" />
<glyph unicode="&#x20ca;" d="M4 408h82t84 2l12 53q-63 4 -109 26.5t-46 85.5q0 8 1 16.5t3 18.5q47 2 96 4t102 7q31 98 72 205.5t92 228.5q-66 47 -65 112q0 18 46 35t109.5 29t130 18t105.5 6q82 0 158.5 -14t136 -46t96.5 -85t37 -129q0 -117 -68.5 -204t-169 -145.5t-216 -91t-210.5 -40.5 l-18 -70q86 10 170 27.5t166 42.5q8 -23 8 -45q0 -47 -34 -81t-88 -58.5t-123.5 -39t-143.5 -22.5q-23 -102 -37 -187t-14 -139h-9q-41 0 -80.5 11.5t-73.5 36t-54.5 63.5t-20.5 92q0 27 2 55.5t6 61.5q-59 8 -99 33.5t-40 87.5v18.5t4 20.5zM852 942q0 55 -46 77.5 t-95 22.5q-10 0 -19.5 -1t-19.5 -3q-39 -86 -70 -172t-65 -188q158 47 236.5 106.5t78.5 157.5z" />
<glyph unicode="&#x20cb;" d="M4 408h82t84 2l12 53q-63 4 -109 26.5t-46 85.5q0 8 1 16.5t3 18.5q47 2 96 4t102 7q31 98 72 205.5t92 228.5q-66 47 -65 112q0 18 46 35t109.5 29t130 18t105.5 6q82 0 158.5 -14t136 -46t96.5 -85t37 -129q0 -117 -68.5 -204t-169 -145.5t-216 -91t-210.5 -40.5 l-18 -70q86 10 170 27.5t166 42.5q8 -23 8 -45q0 -47 -34 -81t-88 -58.5t-123.5 -39t-143.5 -22.5q-23 -102 -37 -187t-14 -139h-9q-41 0 -80.5 11.5t-73.5 36t-54.5 63.5t-20.5 92q0 27 2 55.5t6 61.5q-59 8 -99 33.5t-40 87.5v18.5t4 20.5zM852 942q0 55 -46 77.5 t-95 22.5q-10 0 -19.5 -1t-19.5 -3q-39 -86 -70 -172t-65 -188q158 47 236.5 106.5t78.5 157.5z" />
<glyph unicode="&#x20cc;" d="M4 408h82t84 2l12 53q-63 4 -109 26.5t-46 85.5q0 8 1 16.5t3 18.5q47 2 96 4t102 7q31 98 72 205.5t92 228.5q-66 47 -65 112q0 18 46 35t109.5 29t130 18t105.5 6q82 0 158.5 -14t136 -46t96.5 -85t37 -129q0 -117 -68.5 -204t-169 -145.5t-216 -91t-210.5 -40.5 l-18 -70q86 10 170 27.5t166 42.5q8 -23 8 -45q0 -47 -34 -81t-88 -58.5t-123.5 -39t-143.5 -22.5q-23 -102 -37 -187t-14 -139h-9q-41 0 -80.5 11.5t-73.5 36t-54.5 63.5t-20.5 92q0 27 2 55.5t6 61.5q-59 8 -99 33.5t-40 87.5v18.5t4 20.5zM852 942q0 55 -46 77.5 t-95 22.5q-10 0 -19.5 -1t-19.5 -3q-39 -86 -70 -172t-65 -188q158 47 236.5 106.5t78.5 157.5z" />
<glyph unicode="&#x20cd;" d="M4 408h82t84 2l12 53q-63 4 -109 26.5t-46 85.5q0 8 1 16.5t3 18.5q47 2 96 4t102 7q31 98 72 205.5t92 228.5q-66 47 -65 112q0 18 46 35t109.5 29t130 18t105.5 6q82 0 158.5 -14t136 -46t96.5 -85t37 -129q0 -117 -68.5 -204t-169 -145.5t-216 -91t-210.5 -40.5 l-18 -70q86 10 170 27.5t166 42.5q8 -23 8 -45q0 -47 -34 -81t-88 -58.5t-123.5 -39t-143.5 -22.5q-23 -102 -37 -187t-14 -139h-9q-41 0 -80.5 11.5t-73.5 36t-54.5 63.5t-20.5 92q0 27 2 55.5t6 61.5q-59 8 -99 33.5t-40 87.5v18.5t4 20.5zM852 942q0 55 -46 77.5 t-95 22.5q-10 0 -19.5 -1t-19.5 -3q-39 -86 -70 -172t-65 -188q158 47 236.5 106.5t78.5 157.5z" />
<glyph unicode="&#x20ce;" d="M4 408h82t84 2l12 53q-63 4 -109 26.5t-46 85.5q0 8 1 16.5t3 18.5q47 2 96 4t102 7q31 98 72 205.5t92 228.5q-66 47 -65 112q0 18 46 35t109.5 29t130 18t105.5 6q82 0 158.5 -14t136 -46t96.5 -85t37 -129q0 -117 -68.5 -204t-169 -145.5t-216 -91t-210.5 -40.5 l-18 -70q86 10 170 27.5t166 42.5q8 -23 8 -45q0 -47 -34 -81t-88 -58.5t-123.5 -39t-143.5 -22.5q-23 -102 -37 -187t-14 -139h-9q-41 0 -80.5 11.5t-73.5 36t-54.5 63.5t-20.5 92q0 27 2 55.5t6 61.5q-59 8 -99 33.5t-40 87.5v18.5t4 20.5zM852 942q0 55 -46 77.5 t-95 22.5q-10 0 -19.5 -1t-19.5 -3q-39 -86 -70 -172t-65 -188q158 47 236.5 106.5t78.5 157.5z" />
<glyph unicode="&#x20cf;" d="M4 408h82t84 2l12 53q-63 4 -109 26.5t-46 85.5q0 8 1 16.5t3 18.5q47 2 96 4t102 7q31 98 72 205.5t92 228.5q-66 47 -65 112q0 18 46 35t109.5 29t130 18t105.5 6q82 0 158.5 -14t136 -46t96.5 -85t37 -129q0 -117 -68.5 -204t-169 -145.5t-216 -91t-210.5 -40.5 l-18 -70q86 10 170 27.5t166 42.5q8 -23 8 -45q0 -47 -34 -81t-88 -58.5t-123.5 -39t-143.5 -22.5q-23 -102 -37 -187t-14 -139h-9q-41 0 -80.5 11.5t-73.5 36t-54.5 63.5t-20.5 92q0 27 2 55.5t6 61.5q-59 8 -99 33.5t-40 87.5v18.5t4 20.5zM852 942q0 55 -46 77.5 t-95 22.5q-10 0 -19.5 -1t-19.5 -3q-39 -86 -70 -172t-65 -188q158 47 236.5 106.5t78.5 157.5z" />
<glyph unicode="&#x2122;" horiz-adv-x="1439" d="M842 952q0 94 -1 159t-7 118q-27 -68 -47.5 -122t-35 -99t-21.5 -84t-7 -76q-10 -4 -19.5 -4h-19.5q-47 0 -69.5 30.5t-22.5 86.5q0 41 9 83.5t30.5 101t56.5 140.5t86 203q63 -4 102 -17.5t59.5 -45t28 -87t7.5 -145.5v-43q45 78 112.5 163t163.5 177q10 2 27 2 q59 0 94 -37t35 -80q0 -20 -4 -30q-41 -104 -70 -177t-49 -127.5t-29.5 -98.5t-9.5 -91q-31 -6 -51 -6q-41 0 -59.5 23.5t-18.5 76.5q0 23 2 49.5t9 62.5t19.5 81t33.5 104q-92 -127 -137.5 -224t-59.5 -169q-10 -4 -19.5 -4h-17.5q-53 0 -76.5 31.5t-23.5 74.5zM684 1360 q-29 4 -60.5 6t-66.5 2q-20 0 -28.5 -1t-11.5 -5t-3 -12.5t-6 -22.5q-39 -100 -63.5 -168.5t-39 -119t-19.5 -91.5t-5 -84q0 -16 -13.5 -17t-23.5 -1q-47 0 -70.5 29.5t-23.5 82.5q0 39 2 72t13 74t31.5 98.5t57.5 147.5q-29 -4 -57.5 -12.5t-52.5 -8.5q-35 0 -54.5 32 t-19.5 73q0 12 2 20q98 27 202.5 39t184.5 12q66 0 99.5 -12t33.5 -76q0 -12 -2 -26.5t-6 -30.5z" />
<glyph unicode="&#x2206;" horiz-adv-x="1067" d="M946 0q-78 12 -174 12q-125 0 -267.5 -18.5t-279.5 -52.5q-10 -4 -17 -4h-18q-59 0 -88.5 50t-29.5 122v13t2 15l2 2q0 27 35.5 123t108.5 235.5t185.5 308.5t266.5 343h35q131 0 207.5 -51t80.5 -115q0 -12 -4 -25q-47 -168 -64.5 -323.5t-17.5 -280.5q0 -76 4.5 -136 t18.5 -126q-2 0 -2 -1t-2 -1zM664 238q-2 29 -3.5 55t-1.5 53q0 154 27 292t62 271q-59 -94 -117 -191t-108 -189.5t-92 -177.5t-73 -154q84 12 162 19t146 9q-2 5 -2 13z" />
<glyph unicode="&#x221a;" horiz-adv-x="1257" d="M756 823q0 -137 -22.5 -260t-57.5 -239q96 168 186 336.5t163 320.5t122 275.5t63 199.5q33 6 66 6q80 0 123 -43t43 -114q0 -27 -22.5 -97.5t-65.5 -175t-107.5 -235.5t-149.5 -276.5t-188.5 -300t-226.5 -304.5q-74 0 -131 16.5t-97 43t-60.5 60.5t-20.5 66q0 10 4 27 q66 184 95.5 353t33.5 298q-66 -4 -136.5 -17t-146.5 -32q-10 -2 -26 -2q-57 0 -86 51t-29 123v19q133 37 253 54t220 19h16q90 0 135.5 -46t49.5 -126z" />
<glyph unicode="&#x2248;" horiz-adv-x="1103" d="M989 573q-61 55 -116.5 78t-108.5 23q-59 0 -115.5 -20.5t-112 -45t-110.5 -45t-111 -20.5q-109 0 -156.5 47t-47.5 110q0 49 27.5 99.5t76.5 81.5q47 -57 90 -79t84 -22q43 0 87 19.5t90 42t98.5 42t113.5 19.5q106 0 179 -41t73 -135q0 -66 -41 -154zM891 158 q-59 61 -110.5 84.5t-98.5 23.5q-49 0 -94 -18.5t-90 -41t-89 -41t-94 -18.5q-63 0 -108 15.5t-75 41t-44 59.5t-14 69q0 39 16 78t51 67q37 -59 75 -81.5t79 -22.5q45 0 92 21.5t99.5 46t109.5 46t119 21.5q49 0 94 -11.5t79 -34t54.5 -55t20.5 -75.5q0 -37 -16.5 -80 t-55.5 -94z" />
<glyph unicode="&#x2260;" horiz-adv-x="1112" d="M338 -43q-10 -2 -17.5 -3t-15.5 -1q-39 0 -57.5 20.5t-18.5 49.5q0 35 21 69l45 78l-64 -10q-10 -2 -26 -2q-55 0 -84 45t-29 112q0 6 1 12.5t1 12.5q100 16 180 28.5t148 22.5l92 160q-66 -6 -135.5 -15.5t-147.5 -25.5q-10 -2 -26 -2q-55 0 -84 45t-29 113q0 6 1 12 t1 12q92 16 167 28.5t138.5 21t119.5 13.5t112 9q35 61 70.5 128.5t74.5 141.5q47 -4 72.5 -28.5t25.5 -59.5q0 -27 -16 -55l-72 -121q37 2 76 2h82q41 0 58.5 -27.5t17.5 -74.5q0 -23 -4 -50.5t-10 -56.5q-57 2 -108.5 3t-104.5 1h-62t-63 -2l-88 -153q84 6 169 8t195 2 q41 0 58.5 -27.5t17.5 -75.5q0 -23 -4 -50t-10 -56q-55 2 -106.5 3t-102.5 1q-84 0 -165 -4t-169 -14q-33 -59 -63.5 -120t-61.5 -120z" />
<glyph unicode="&#x2264;" horiz-adv-x="1112" d="M717 1184q53 -45 77.5 -87t24.5 -83q0 -55 -41 -103.5t-102.5 -88.5t-136 -70.5t-142.5 -49.5q49 -35 108.5 -67.5t120 -60t120 -51t108.5 -42.5q2 -10 2 -18v-17q0 -41 -15.5 -68.5t-39 -44t-52 -23.5t-55.5 -7q-10 0 -20 1t-21 3q-160 33 -285.5 124t-236.5 216v23 q0 72 25.5 125t99.5 84q23 8 74 34.5t116.5 65.5t136.5 91.5t134 113.5zM948 0q-29 0 -54.5 1t-51.5 1q-82 0 -160 -4t-158 -11t-166 -16.5t-184 -21.5q-4 0 -9 -1t-9 -1q-59 0 -90 43t-31 114q0 6 1 12.5t1 12.5q150 27 256 42t197.5 23.5t183.5 11.5t213 3 q41 0 58.5 -27.5t17.5 -75.5q0 -23 -4.5 -50t-10.5 -56z" />
<glyph unicode="&#xe000;" horiz-adv-x="1034" d="M0 1034h1034v-1034h-1034v1034z" />
</font>
</defs>
</svg>
