<?xml version="1.0" standalone="no"?>
<!DOCTYPE svg PUBLIC "-//W3C//DTD SVG 1.1//EN" "http://www.w3.org/Graphics/SVG/1.1/DTD/svg11.dtd" >
<svg xmlns="http://www.w3.org/2000/svg" xmlns:xlink="http://www.w3.org/1999/xlink" version="1.1">
<metadata>
Created by FontForge 20141024 at Tue Jun 30 10:03:27 2015
 By Jimmy Warting
Copyright \(c\) 2014 by Fontfabric LLC. All rights reserved.
</metadata>
<defs>
<font id="GloberRegularItalic" horiz-adv-x="549" >
  <font-face 
    font-family="Glober Regular Italic"
    font-weight="400"
    font-style="italic"
    font-stretch="normal"
    units-per-em="1000"
    panose-1="0 0 0 0 0 0 0 0 0 0"
    ascent="750"
    descent="-250"
    x-height="526"
    cap-height="720"
    bbox="-225 -258 1012 1053.24"
    underline-thickness="50"
    underline-position="-50"
    stemh="60"
    stemv="72"
    unicode-range="U+0020-FB02"
  />
<missing-glyph horiz-adv-x="618" 
d="M422 0h-538l153 720h538zM411 500c18 83 -28 133 -126 133c-77 0 -130 -27 -130 -27c-6 -16 -3 -32 9 -42c0 0 41 20 103 20c69 0 95 -32 84 -87c-28 -129 -154 -97 -192 -274c0 0 7 -6 22 -6c16 0 24 6 24 6c31 145 173 119 206 277zM198 143c0 0 -10 4 -32 4
s-33 -4 -33 -4l-12 -58s9 -4 31 -4s34 4 34 4z" />
    <glyph glyph-name="fi" unicode="fi" horiz-adv-x="569" 
d="M166 586c21 103 84 164 218 164c108 0 184 -30 184 -30c-4 -21 -14 -39 -30 -53c0 0 -66 24 -160 24c-89 0 -125 -32 -139 -100l-14 -65h269c18 0 33 -3 38 -4l-110 -517s-13 -5 -37 -5c-26 0 -35 5 -35 5l99 464h-236l-99 -464s-13 -5 -37 -5c-25 0 -35 5 -35 5l99 464
h-64s-2 11 2 29s10 28 10 28h64z" />
    <glyph glyph-name="fl" unicode="fl" horiz-adv-x="572" 
d="M167 586c21 99 84 164 212 164c108 0 195 -34 195 -34l-151 -711s-13 -5 -37 -5c-26 0 -35 5 -35 5l142 670c-26 7 -68 16 -120 16c-84 0 -120 -35 -133 -100l-14 -65h112c0 -6 1 -15 -2 -28s-7 -22 -10 -29h-112l-99 -464s-13 -5 -37 -5c-25 0 -35 5 -35 5l99 464h-64
c0 7 -1 16 2 29s6 22 10 28h64z" />
    <glyph glyph-name=".notdef" horiz-adv-x="618" 
d="M422 0h-538l153 720h538zM411 500c18 83 -28 133 -126 133c-77 0 -130 -27 -130 -27c-6 -16 -3 -32 9 -42c0 0 41 20 103 20c69 0 95 -32 84 -87c-28 -129 -154 -97 -192 -274c0 0 7 -6 22 -6c16 0 24 6 24 6c31 145 173 119 206 277zM198 143c0 0 -10 4 -32 4
s-33 -4 -33 -4l-12 -58s9 -4 31 -4s34 4 34 4z" />
    <glyph glyph-name="A" unicode="A" horiz-adv-x="646" 
d="M369 714c0 0 17 6 42 6c26 0 40 -6 40 -6l114 -708s-14 -6 -42 -6c-19 0 -30 6 -30 6l-31 191h-319l-112 -191s-13 -6 -44 -6c-24 0 -34 6 -34 6zM398 641h-3s-12 -30 -35 -69l-182 -313h275l-50 313c-6 40 -5 69 -5 69z" />
    <glyph glyph-name="AE" unicode="&#xc6;" horiz-adv-x="855" 
d="M531 720h351c5 -19 -3 -45 -13 -62h-278l-56 -263h228c3 -20 -2 -43 -13 -62h-228l-58 -271h288c4 -20 -1 -45 -13 -62h-350l40 190h-250l-149 -184c-12 -4 -31 -6 -46 -6s-30 2 -38 6zM230 252h213l80 370z" />
    <glyph glyph-name="AEacute" unicode="&#x1fc;" horiz-adv-x="855" 
d="M808 901l-154 -139c-19 2 -33 10 -38 24l133 144c26 2 51 -10 59 -29zM531 720h351c5 -19 -3 -45 -13 -62h-278l-56 -263h228c3 -20 -2 -43 -13 -62h-228l-58 -271h288c4 -20 -1 -45 -13 -62h-350l40 190h-250l-149 -184c-12 -4 -31 -6 -46 -6s-30 2 -38 6zM230 252h213
l80 370z" />
    <glyph glyph-name="Aacute" unicode="&#xc1;" horiz-adv-x="646" 
d="M363 779l134 144c26 2 51 -10 58 -29l-155 -139c-18 2 -32 10 -37 24zM369 714c0 0 17 6 42 6c26 0 40 -6 40 -6l114 -708s-14 -6 -42 -6c-19 0 -30 6 -30 6l-31 191h-319l-112 -191s-13 -6 -44 -6c-24 0 -34 6 -34 6zM398 641h-3s-12 -30 -35 -69l-182 -313h275l-50 313
c-6 40 -5 69 -5 69z" />
    <glyph glyph-name="Abreve" unicode="&#x102;" horiz-adv-x="646" 
d="M432 836c69 0 119 36 119 36c17 -5 25 -18 27 -35c0 0 -54 -56 -151 -56c-98 0 -141 56 -141 56c8 16 22 29 40 35c0 0 37 -36 106 -36zM369 714c0 0 17 6 42 6c26 0 40 -6 40 -6l114 -708s-14 -6 -42 -6c-19 0 -30 6 -30 6l-31 191h-319l-112 -191s-13 -6 -44 -6
c-24 0 -34 6 -34 6zM398 641h-3s-12 -30 -35 -69l-182 -313h275l-50 313c-6 40 -5 69 -5 69z" />
    <glyph glyph-name="Acircumflex" unicode="&#xc2;" horiz-adv-x="646" 
d="M461 906l109 -108c-11 -16 -20 -30 -37 -35l-95 79l-127 -79c-15 6 -29 18 -31 35l155 108h26zM369 714c0 0 17 6 42 6c26 0 40 -6 40 -6l114 -708s-14 -6 -42 -6c-19 0 -30 6 -30 6l-31 191h-319l-112 -191s-13 -6 -44 -6c-24 0 -34 6 -34 6zM398 641h-3
s-12 -30 -35 -69l-182 -313h275l-50 313c-6 40 -5 69 -5 69z" />
    <glyph glyph-name="Adieresis" unicode="&#xc4;" horiz-adv-x="646" 
d="M317 852c0 0 13 4 38 4c24 0 36 -4 36 -4l-14 -66s-14 -4 -38 -4c-25 0 -36 4 -36 4zM475 852c0 0 13 4 38 4c24 0 36 -4 36 -4l-14 -66s-14 -4 -38 -4c-25 0 -36 4 -36 4zM369 714c0 0 17 6 42 6c26 0 40 -6 40 -6l114 -708s-14 -6 -42 -6c-19 0 -30 6 -30 6l-31 191
h-319l-112 -191s-13 -6 -44 -6c-24 0 -34 6 -34 6zM398 641h-3s-12 -30 -35 -69l-182 -313h275l-50 313c-6 40 -5 69 -5 69z" />
    <glyph glyph-name="Agrave" unicode="&#xc0;" horiz-adv-x="646" 
d="M407 922l73 -144c-12 -14 -28 -22 -48 -24l-95 139c14 17 46 31 70 29zM369 714c0 0 17 6 42 6c26 0 40 -6 40 -6l114 -708s-14 -6 -42 -6c-19 0 -30 6 -30 6l-31 191h-319l-112 -191s-13 -6 -44 -6c-24 0 -34 6 -34 6zM398 641h-3s-12 -30 -35 -69l-182 -313h275
l-50 313c-6 40 -5 69 -5 69z" />
    <glyph glyph-name="Amacron" unicode="&#x100;" horiz-adv-x="646" 
d="M291 846h273c4 -14 -2 -35 -11 -49h-273c-2 15 2 34 11 49zM369 714c0 0 17 6 42 6c26 0 40 -6 40 -6l114 -708s-14 -6 -42 -6c-19 0 -30 6 -30 6l-31 191h-319l-112 -191s-13 -6 -44 -6c-24 0 -34 6 -34 6zM398 641h-3s-12 -30 -35 -69l-182 -313h275l-50 313
c-6 40 -5 69 -5 69z" />
    <glyph glyph-name="Aogonek" unicode="&#x104;" horiz-adv-x="645" 
d="M506 -139c21 0 38 8 38 8c8 -7 9 -22 6 -35c0 0 -29 -17 -66 -17c-120 0 -105 143 3 197l-25 183h-319l-112 -191s-13 -6 -44 -6c-24 0 -34 6 -34 6l416 708s17 6 42 6c26 0 40 -6 40 -6l114 -708l-9 -3c-96 -13 -137 -142 -50 -142zM453 259l-51 306c-5 40 -5 69 -5 69
h-3s-13 -30 -35 -69l-181 -306h275z" />
    <glyph glyph-name="Aring" unicode="&#xc5;" horiz-adv-x="645" 
d="M455 695l109 -689s-13 -6 -41 -6c-24 0 -30 6 -30 6l-31 191h-319l-112 -191s-20 -6 -44 -6s-34 6 -34 6l403 687c-32 12 -58 51 -47 102c15 70 79 103 139 103c58 0 108 -39 93 -110c-11 -50 -46 -80 -86 -93zM495 791c7 34 -10 65 -57 65s-76 -32 -83 -65
c-7 -34 8 -67 55 -67s78 34 85 67zM453 259l-49 311c-6 40 -5 69 -5 69h-3s-12 -30 -35 -69l-183 -311h275z" />
    <glyph glyph-name="Aringacute" unicode="&#x1fa;" horiz-adv-x="646" 
d="M599 1031l-139 -104c-16 3 -30 8 -36 18l120 108c24 2 48 -9 55 -22zM454 695l111 -689s-14 -6 -42 -6c-24 0 -30 6 -30 6l-31 191h-319l-112 -191s-13 -6 -44 -6c-24 0 -34 6 -34 6l403 687c-38 12 -60 46 -49 98c15 70 81 107 140 107c58 0 110 -36 95 -107
c-11 -50 -47 -83 -88 -96zM495 791c7 34 -10 65 -58 65c-47 0 -76 -32 -83 -65c-7 -34 8 -67 55 -67c48 0 79 34 86 67zM453 259l-49 316c-6 40 -5 69 -5 69h-3s-12 -30 -35 -69l-183 -316h275z" />
    <glyph glyph-name="Atilde" unicode="&#xc3;" horiz-adv-x="646" 
d="M289 805c0 0 24 48 80 50c54 2 75 -36 116 -34c28 0 46 27 46 27c14 -2 29 -16 34 -30c0 0 -26 -45 -83 -46c-54 -2 -74 35 -113 34c-31 -1 -47 -28 -47 -28c-17 2 -31 13 -33 27zM369 714c0 0 17 6 42 6c26 0 40 -6 40 -6l114 -708s-14 -6 -42 -6c-19 0 -30 6 -30 6
l-31 191h-319l-112 -191s-13 -6 -44 -6c-24 0 -34 6 -34 6zM398 641h-3s-12 -30 -35 -69l-182 -313h275l-50 313c-6 40 -5 69 -5 69z" />
    <glyph glyph-name="B" unicode="B" horiz-adv-x="628" 
d="M186 720h249c137 0 175 -100 153 -207c-20 -95 -89 -138 -124 -150c34 -8 103 -58 77 -179c-25 -119 -107 -184 -250 -184h-258zM190 393h164c98 0 146 55 163 134c17 80 -7 133 -107 133h-163zM120 60h171c109 0 160 51 178 137c20 95 -18 138 -120 138h-171z" />
    <glyph glyph-name="C" unicode="C" horiz-adv-x="557" 
d="M75 360c52 244 173 370 359 370c109 0 161 -33 161 -33c-4 -24 -18 -42 -35 -56c0 0 -51 25 -131 25c-125 0 -225 -68 -276 -307s21 -303 146 -303c88 0 153 25 153 25c11 -14 15 -36 11 -57c0 0 -69 -34 -186 -34c-186 0 -254 123 -202 370z" />
    <glyph glyph-name="CR" horiz-adv-x="322" 
 />
    <glyph glyph-name="Cacute" unicode="&#x106;" horiz-adv-x="557" 
d="M570 895l-154 -139c-19 2 -33 10 -38 24l134 144c26 2 51 -10 58 -29zM276 -10c-185 0 -253 123 -201 370c52 244 172 370 358 370c110 0 162 -33 162 -33c-4 -24 -18 -42 -35 -56c0 0 -51 25 -131 25c-125 0 -225 -68 -276 -307s21 -303 146 -303c88 0 153 25 153 25
c12 -15 15 -36 11 -57c0 0 -69 -34 -187 -34z" />
    <glyph glyph-name="Ccaron" unicode="&#x10c;" horiz-adv-x="557" 
d="M428 763l-110 108c10 16 24 29 42 35l95 -79l126 78c15 -5 23 -18 27 -34l-154 -108h-26zM276 -10c-185 0 -253 123 -201 370c52 244 172 370 358 370c110 0 162 -33 162 -33c-4 -25 -18 -42 -35 -56c0 0 -51 25 -131 25c-125 0 -225 -68 -276 -307s21 -303 146 -303
c88 0 153 25 153 25c12 -15 15 -36 11 -57c0 0 -69 -34 -187 -34z" />
    <glyph glyph-name="Ccedilla" unicode="&#xc7;" horiz-adv-x="557" 
d="M464 56c3 -17 -2 -32 -2 -32s-68 -33 -183 -34l-15 -36c77 0 100 -37 89 -92c-14 -66 -63 -99 -138 -99c-55 0 -86 23 -86 23c4 15 13 28 25 35c5 -3 32 -16 67 -16c42 0 72 17 81 58c7 33 -9 52 -51 52h-35l-8 12l26 66c-154 17 -208 139 -160 367
c52 244 172 370 358 370c110 0 162 -33 162 -33s0 -13 -10 -30c-12 -18 -25 -26 -25 -26s-51 25 -131 25c-125 0 -225 -68 -276 -307s21 -304 146 -304c88 0 153 25 153 25s8 -7 13 -24z" />
    <glyph glyph-name="Ccircumflex" unicode="&#x108;" horiz-adv-x="557" 
d="M488 894l109 -108c-10 -16 -24 -30 -41 -34l-96 78l-126 -79c-15 6 -24 19 -27 35l155 108h26zM276 -10c-185 0 -253 123 -201 370c52 244 172 370 358 370c110 0 162 -33 162 -33c-4 -23 -18 -41 -35 -56c0 0 -51 25 -131 25c-125 0 -225 -68 -276 -307
s21 -303 146 -303c88 0 153 25 153 25c12 -14 15 -35 11 -57c0 0 -69 -34 -187 -34z" />
    <glyph glyph-name="Cdotaccent" unicode="&#x10a;" horiz-adv-x="557" 
d="M500 853l-14 -68s-14 -5 -39 -5c-27 0 -37 5 -37 5l14 68s12 4 39 4c25 0 37 -4 37 -4zM276 -10c-185 0 -253 123 -201 370c52 244 172 370 358 370c110 0 162 -33 162 -33c-4 -23 -17 -42 -35 -56c0 0 -51 25 -131 25c-125 0 -225 -68 -276 -307s21 -303 146 -303
c88 0 153 25 153 25c12 -15 15 -36 11 -57c0 0 -69 -34 -187 -34z" />
    <glyph glyph-name="D" unicode="D" horiz-adv-x="662" 
d="M186 720h209c188 0 268 -104 210 -375c-57 -270 -175 -345 -363 -345h-209zM120 63h129c137 0 230 57 281 297c52 241 -17 297 -154 297h-129z" />
    <glyph glyph-name="Dcaron" unicode="&#x10e;" horiz-adv-x="662" 
d="M383 763l-116 108c9 16 24 29 42 35l95 -79l126 78c14 -5 23 -18 27 -34l-148 -108h-26zM186 720h209c188 0 268 -104 210 -375c-57 -270 -175 -345 -363 -345h-209zM120 63h129c137 0 230 57 281 297c52 241 -17 297 -154 297h-129z" />
    <glyph glyph-name="Dcroat" unicode="&#x110;" horiz-adv-x="673" 
d="M195 720h209c188 0 269 -106 211 -377c-57 -270 -176 -343 -364 -343h-209l70 330h-82c-1 16 3 38 11 53h82zM256 657l-59 -274h156c1 -14 -3 -37 -11 -53h-156l-57 -267h129c137 0 230 57 281 297c52 241 -17 297 -154 297h-129z" />
    <glyph glyph-name="Delta" unicode="&#x2206;" horiz-adv-x="641" 
d="M375 715c8 2 22 5 39 5s29 -3 37 -5l109 -675c-7 -17 -19 -30 -33 -40h-538c-11 10 -17 24 -17 39zM392 626h-3c-6 -15 -25 -54 -52 -100l-278 -464h421l-78 465c-8 43 -9 84 -10 99z" />
    <glyph glyph-name="E" unicode="E" horiz-adv-x="556" 
d="M186 720h397c2 -9 2 -18 0 -30c-3 -12 -7 -23 -13 -32h-323l-56 -263h273c2 -9 2 -19 0 -29c-3 -12 -7 -22 -13 -32h-273l-58 -272h333c2 -9 2 -19 0 -30c-3 -11 -7 -22 -13 -32h-407z" />
    <glyph glyph-name="Eacute" unicode="&#xc9;" horiz-adv-x="556" 
d="M512 895l-154 -139c-19 2 -33 10 -38 24l134 144c26 2 51 -10 58 -29zM186 720h397c2 -9 2 -18 0 -30c-3 -12 -7 -23 -13 -32h-323l-56 -263h273c2 -9 2 -19 0 -29c-3 -12 -7 -22 -13 -32h-273l-58 -272h333c2 -9 2 -19 0 -30c-3 -11 -7 -22 -13 -32h-407z" />
    <glyph glyph-name="Ebreve" unicode="&#x114;" horiz-adv-x="556" 
d="M553 843c0 0 -61 -56 -157 -56c-98 0 -135 56 -135 56c9 16 23 29 42 35c0 0 35 -36 105 -36c69 0 120 36 120 36c16 -5 25 -18 25 -35zM186 720h397c2 -9 2 -18 0 -30c-3 -12 -7 -23 -13 -32h-323l-56 -263h273c2 -9 2 -19 0 -29c-3 -12 -7 -22 -13 -32h-273l-58 -272
h333c2 -9 2 -19 0 -30c-3 -11 -7 -22 -13 -32h-407z" />
    <glyph glyph-name="Ecaron" unicode="&#x11a;" horiz-adv-x="556" 
d="M368 763l-110 108c10 16 24 29 42 35l95 -79l126 78c15 -5 23 -18 27 -34l-154 -108h-26zM186 720h397c2 -9 2 -18 0 -30c-3 -12 -7 -23 -13 -32h-323l-56 -263h273c2 -9 2 -19 0 -29c-3 -12 -7 -22 -13 -32h-273l-58 -272h333c2 -9 2 -19 0 -30c-3 -11 -7 -22 -13 -32
h-407z" />
    <glyph glyph-name="Ecircumflex" unicode="&#xca;" horiz-adv-x="556" 
d="M435 906l109 -108c-10 -16 -25 -30 -42 -35l-94 79l-127 -79c-16 6 -24 18 -27 35l155 108h26zM186 720h397c2 -9 2 -18 0 -30c-3 -12 -7 -23 -13 -32h-323l-56 -263h273c2 -9 2 -19 0 -29c-3 -12 -7 -22 -13 -32h-273l-58 -272h333c2 -9 2 -19 0 -30
c-3 -11 -7 -22 -13 -32h-407z" />
    <glyph glyph-name="Edieresis" unicode="&#xcb;" horiz-adv-x="556" 
d="M369 842l-14 -66s-13 -4 -37 -4c-25 0 -36 4 -36 4l14 66s13 4 38 4c24 0 35 -4 35 -4zM527 842l-14 -66s-13 -4 -37 -4c-25 0 -36 4 -36 4l14 66s13 4 38 4c24 0 35 -4 35 -4zM186 720h397c2 -9 2 -18 0 -30c-3 -12 -7 -23 -13 -32h-323l-56 -263h273c2 -9 2 -19 0 -29
c-3 -12 -7 -22 -13 -32h-273l-58 -272h333c2 -9 2 -19 0 -30c-3 -11 -7 -22 -13 -32h-407z" />
    <glyph glyph-name="Edotaccent" unicode="&#x116;" horiz-adv-x="556" 
d="M453 853l-14 -68s-15 -5 -39 -5c-27 0 -38 5 -38 5l14 68s13 4 40 4c24 0 37 -4 37 -4zM186 720h397c2 -9 2 -18 0 -30c-3 -12 -7 -23 -13 -32h-323l-56 -263h273c2 -9 2 -19 0 -29c-3 -12 -7 -22 -13 -32h-273l-58 -272h333c2 -9 2 -19 0 -30c-3 -11 -7 -22 -13 -32
h-407z" />
    <glyph glyph-name="Egrave" unicode="&#xc8;" horiz-adv-x="556" 
d="M400 754l-95 139c14 17 46 31 70 29l73 -144c-12 -14 -28 -22 -48 -24zM186 720h397c2 -9 2 -18 0 -30c-3 -12 -7 -23 -13 -32h-323l-56 -263h273c2 -9 2 -19 0 -29c-3 -12 -7 -22 -13 -32h-273l-58 -272h333c2 -9 2 -19 0 -30c-3 -11 -7 -22 -13 -32h-407z" />
    <glyph glyph-name="Emacron" unicode="&#x112;" horiz-adv-x="556" 
d="M539 788h-284c-1 15 3 34 11 49h284c2 -14 -4 -35 -11 -49zM186 720h397c2 -9 2 -18 0 -30c-3 -12 -7 -23 -13 -32h-323l-56 -263h273c2 -9 2 -19 0 -29c-3 -12 -7 -22 -13 -32h-273l-58 -272h333c2 -9 2 -19 0 -30c-3 -11 -7 -22 -13 -32h-407z" />
    <glyph glyph-name="Eng" unicode="&#x14a;" horiz-adv-x="700" 
d="M620 714c0 0 12 6 36 6c25 0 33 -6 33 -6l-162 -762c-21 -96 -60 -151 -156 -180c-14 11 -18 32 -11 54c53 18 79 50 95 125l10 51c-9 2 -14 4 -14 4l-184 509c-22 60 -34 110 -34 110h-3s-7 -54 -28 -152l-99 -467s-12 -6 -36 -6s-33 6 -33 6l151 708s16 6 45 6
s42 -6 42 -6l181 -503c21 -58 38 -116 38 -116h3s8 64 26 149z" />
    <glyph glyph-name="Eogonek" unicode="&#x118;" horiz-adv-x="556" 
d="M186 720h397c2 -9 2 -18 0 -30c-3 -12 -7 -23 -13 -32h-323l-56 -263h273c2 -9 2 -19 0 -29c-3 -12 -7 -22 -13 -32h-273l-58 -272h333c2 -9 2 -19 0 -30c-3 -11 -7 -22 -13 -32h-1c-48 -15 -92 -38 -101 -83c-8 -34 12 -51 43 -51c21 0 37 8 37 8c8 -7 9 -19 7 -32
c0 0 -31 -18 -68 -18c-55 0 -84 33 -73 85c9 40 36 71 74 91h-325z" />
    <glyph glyph-name="Eth" unicode="&#xd0;" horiz-adv-x="670" 
d="M195 720h209c188 0 266 -106 208 -377c-57 -270 -173 -343 -361 -343h-209l70 330h-82c-1 17 3 38 11 53h82zM256 657l-59 -274h156c1 -15 -3 -37 -11 -53h-156l-57 -267h129c137 0 230 57 281 297c52 241 -17 297 -154 297h-129z" />
    <glyph glyph-name="Euro" unicode="&#x20ac;" horiz-adv-x="585" 
d="M163 440c57 159 154 240 294 240c100 0 142 -31 142 -31c-6 -21 -14 -38 -33 -51c0 0 -43 22 -112 22c-92 0 -167 -43 -217 -180h258c0 -15 -7 -35 -19 -49h-256c-5 -18 -9 -37 -13 -57c-4 -19 -8 -37 -10 -53h224c-1 -15 -8 -35 -20 -49h-209c-9 -140 48 -181 141 -181
c76 0 131 22 131 22c13 -12 15 -32 12 -51c0 0 -60 -32 -165 -32c-140 0 -204 80 -192 242h-84c1 15 9 35 20 49h70c2 17 5 35 9 54s8 37 14 56h-79c1 15 9 36 19 49h75z" />
    <glyph glyph-name="F" unicode="F" horiz-adv-x="536" 
d="M176 323l-68 -317s-13 -6 -38 -6s-36 6 -36 6l152 714h393c1 -7 2 -17 -1 -31s-8 -24 -12 -31h-319l-58 -273h279c2 -6 2 -17 -1 -30c-3 -14 -8 -25 -12 -32h-279z" />
    <glyph glyph-name="G" unicode="G" horiz-adv-x="627" 
d="M76 360c52 244 183 370 372 370c117 0 178 -33 178 -33c-5 -21 -18 -42 -35 -55c0 0 -63 24 -147 24c-128 0 -239 -68 -290 -307s32 -304 160 -304c54 0 101 9 118 13l55 259h-164s-3 12 1 31c5 21 13 31 13 31h235l-78 -366s-81 -33 -203 -33c-188 0 -267 123 -215 370z
" />
    <glyph glyph-name="Gbreve" unicode="&#x11e;" horiz-adv-x="627" 
d="M617 840c0 0 -54 -56 -150 -56c-98 0 -142 56 -142 56c8 16 23 29 41 35c0 0 37 -36 106 -36s119 36 119 36c16 -5 25 -18 26 -35zM291 -10c-188 0 -267 123 -215 370c52 244 183 370 372 370c117 0 178 -33 178 -33c-5 -21 -18 -42 -35 -55c0 0 -63 24 -147 24
c-128 0 -239 -68 -290 -307s31 -304 160 -304c54 0 101 9 118 13l55 259h-164s-3 12 1 31c5 21 13 31 13 31h235l-78 -366s-81 -33 -203 -33z" />
    <glyph glyph-name="Gcircumflex" unicode="&#x11c;" horiz-adv-x="627" 
d="M515 906l109 -108c-11 -16 -26 -30 -42 -35l-95 79l-127 -79c-15 6 -24 18 -26 35l155 108h26zM291 -10c-188 0 -267 123 -215 370c52 244 183 370 372 370c117 0 178 -33 178 -33c-5 -21 -18 -42 -35 -55c0 0 -63 24 -147 24c-128 0 -239 -68 -290 -307
s31 -304 160 -304c54 0 101 9 118 13l55 259h-164s-3 12 1 31c5 21 13 31 13 31h235l-78 -366s-81 -33 -203 -33z" />
    <glyph glyph-name="Gcommaaccent" unicode="&#x122;" horiz-adv-x="627" 
d="M291 -10c-188 0 -267 123 -215 370c52 244 183 370 372 370c117 0 178 -33 178 -33c-5 -21 -18 -41 -35 -55c0 0 -63 24 -147 24c-128 0 -239 -68 -290 -307s31 -304 160 -304c54 0 101 9 118 13l55 259h-164s-3 12 1 31c5 21 13 31 13 31h235l-78 -366s-81 -33 -203 -33
zM228 -234l-26 18s40 30 57 87c-20 1 -28 5 -28 5l14 68s16 5 45 5c28 0 42 -5 42 -5l-10 -47c-18 -86 -94 -131 -94 -131z" />
    <glyph glyph-name="Gdotaccent" unicode="&#x120;" horiz-adv-x="627" 
d="M514 853l-14 -68s-14 -5 -39 -5c-26 0 -37 5 -37 5l14 68s13 4 39 4c25 0 37 -4 37 -4zM291 -10c-188 0 -267 123 -215 370c52 244 183 370 372 370c117 0 178 -33 178 -33c-5 -21 -18 -42 -35 -55c0 0 -63 24 -147 24c-128 0 -239 -68 -290 -307s31 -304 160 -304
c54 0 101 9 118 13l55 259h-164s-3 12 1 31c5 21 13 31 13 31h235l-78 -366s-81 -33 -203 -33z" />
    <glyph glyph-name="H" unicode="H" horiz-adv-x="682" 
d="M530 402l67 312s14 6 38 6s36 -6 36 -6l-151 -708s-13 -6 -38 -6c-27 0 -36 6 -36 6l70 330h-338l-70 -330s-14 -6 -38 -6c-27 0 -36 6 -36 6l151 708s14 6 38 6s36 -6 36 -6l-67 -312h338z" />
    <glyph glyph-name="Hbar" unicode="&#x126;" horiz-adv-x="699" 
d="M653 598h75c2 -15 -4 -36 -10 -49h-75l-116 -543s-13 -6 -38 -6c-27 0 -36 6 -36 6l70 330h-338l-70 -330s-14 -6 -38 -6c-27 0 -36 6 -36 6l116 543h-65c-2 16 2 35 10 49h65l25 116s14 6 38 6s36 -6 36 -6l-25 -116h338l25 116s14 6 38 6s36 -6 36 -6zM231 549
l-32 -147h338l32 147h-338z" />
    <glyph glyph-name="Hcircumflex" unicode="&#x124;" horiz-adv-x="682" 
d="M489 906l109 -108c-11 -16 -26 -30 -42 -35l-95 79l-127 -79c-15 6 -24 18 -26 35l155 108h26zM530 402l67 312s14 6 38 6s36 -6 36 -6l-151 -708s-13 -6 -38 -6c-27 0 -36 6 -36 6l70 330h-338l-70 -330s-14 -6 -38 -6c-27 0 -36 6 -36 6l151 708s14 6 38 6s36 -6 36 -6
l-67 -312h338z" />
    <glyph glyph-name="I" unicode="I" horiz-adv-x="270" 
d="M34 6l151 708s13 6 38 6s36 -6 36 -6l-151 -708s-14 -6 -38 -6c-26 0 -36 6 -36 6z" />
    <glyph glyph-name="IJ" unicode="&#x132;" horiz-adv-x="659" 
d="M34 6l151 708s13 6 38 6s36 -6 36 -6l-151 -708s-14 -6 -38 -6c-26 0 -36 6 -36 6zM464 174l115 540s11 6 38 6c24 0 36 -6 36 -6l-115 -540c-27 -127 -104 -184 -216 -184c-77 0 -135 30 -135 30c4 23 15 43 33 57c0 0 47 -21 104 -21c67 0 121 29 140 118z" />
    <glyph glyph-name="Iacute" unicode="&#xcd;" horiz-adv-x="270" 
d="M352 895l-154 -139c-19 2 -33 10 -38 24l134 144c26 2 51 -10 58 -29zM34 6l151 708s13 6 38 6s36 -6 36 -6l-151 -708s-14 -6 -38 -6c-26 0 -36 6 -36 6z" />
    <glyph glyph-name="Ibreve" unicode="&#x12c;" horiz-adv-x="270" 
d="M392 837c0 0 -61 -56 -158 -56s-134 56 -134 56c8 16 22 29 40 35c0 0 37 -36 106 -36s119 36 119 36c17 -5 25 -18 27 -35zM34 6l151 708s13 6 38 6s36 -6 36 -6l-151 -708s-14 -6 -38 -6c-26 0 -36 6 -36 6z" />
    <glyph glyph-name="Icircumflex" unicode="&#xce;" horiz-adv-x="270" 
d="M272 906l113 -108c-11 -16 -25 -30 -42 -35l-95 79l-127 -79c-15 6 -23 18 -26 35l151 108h26zM34 6l151 708s13 6 38 6s36 -6 36 -6l-151 -708s-14 -6 -38 -6c-26 0 -36 6 -36 6z" />
    <glyph glyph-name="Idieresis" unicode="&#xcf;" horiz-adv-x="270" 
d="M199 837l-14 -66s-13 -4 -37 -4c-25 0 -36 4 -36 4l14 66s13 4 38 4c24 0 35 -4 35 -4zM357 837l-14 -66s-13 -4 -37 -4c-25 0 -36 4 -36 4l14 66s13 4 38 4c24 0 35 -4 35 -4zM34 6l151 708s13 6 38 6s36 -6 36 -6l-151 -708s-14 -6 -38 -6c-26 0 -36 6 -36 6z" />
    <glyph glyph-name="Idotaccent" unicode="&#x130;" horiz-adv-x="270" 
d="M210 848c0 0 14 5 41 5s40 -5 40 -5l-15 -73s-15 -5 -42 -5s-39 5 -39 5zM185 714c0 0 13 6 38 6s36 -6 36 -6l-151 -708s-14 -6 -38 -6c-26 0 -36 6 -36 6z" />
    <glyph glyph-name="Igrave" unicode="&#xcc;" horiz-adv-x="270" 
d="M250 754l-95 139c14 17 46 31 70 29l73 -144c-12 -14 -28 -22 -48 -24zM34 6l151 708s13 6 38 6s36 -6 36 -6l-151 -708s-14 -6 -38 -6c-26 0 -36 6 -36 6z" />
    <glyph glyph-name="Imacron" unicode="&#x12a;" horiz-adv-x="270" 
d="M375 763h-283c-4 15 0 34 11 49h283c4 -14 -2 -35 -11 -49zM34 6l151 708s13 6 38 6s36 -6 36 -6l-151 -708s-14 -6 -38 -6c-26 0 -36 6 -36 6z" />
    <glyph glyph-name="Iogonek" unicode="&#x12e;" horiz-adv-x="270" 
d="M108 6v-1c-58 -14 -113 -39 -125 -92c-7 -34 13 -51 44 -51c21 0 37 8 37 8c8 -7 9 -19 7 -32c0 0 -30 -18 -68 -18c-54 0 -84 33 -73 85c10 50 50 87 105 106l150 703s13 6 38 6s36 -6 36 -6z" />
    <glyph glyph-name="Itilde" unicode="&#x128;" horiz-adv-x="270" 
d="M305 812c28 0 49 26 49 26c12 -5 20 -17 20 -31c-1 -4 -37 -45 -86 -45c-52 0 -62 33 -100 33c-29 0 -49 -25 -49 -25c-14 7 -21 17 -21 31c0 0 32 44 87 44c52 0 61 -33 100 -33zM34 6l151 708s13 6 38 6s36 -6 36 -6l-151 -708s-14 -6 -38 -6c-26 0 -36 6 -36 6z" />
    <glyph glyph-name="J" unicode="J" horiz-adv-x="435" 
d="M240 174l115 540s11 6 38 6c25 0 36 -6 36 -6l-115 -538c-27 -127 -103 -186 -215 -186c-78 0 -135 30 -135 30c4 23 15 43 32 57c0 0 47 -21 104 -21c67 0 121 29 140 118z" />
    <glyph glyph-name="Jcircumflex" unicode="&#x134;" horiz-adv-x="435" 
d="M446 906l109 -108c-11 -16 -26 -30 -42 -35l-95 79l-127 -79c-15 6 -24 18 -26 35l155 108h26zM240 174l115 540s11 6 38 6c25 0 36 -6 36 -6l-115 -538c-27 -127 -103 -186 -215 -186c-78 0 -135 30 -135 30c4 23 15 43 32 57c0 0 47 -21 104 -21c67 0 121 29 140 118z
" />
    <glyph glyph-name="K" unicode="K" horiz-adv-x="611" 
d="M295 405l275 309c8 3 29 6 46 6s31 -3 39 -6l-305 -342l183 -366s-15 -6 -44 -6c-17 0 -33 6 -33 6l-167 337h-109l-72 -337s-12 -6 -38 -6c-24 0 -36 6 -36 6l151 708s14 6 39 6c24 0 35 -6 35 -6l-66 -309h102z" />
    <glyph glyph-name="Kcommaaccent" unicode="&#x136;" horiz-adv-x="611" 
d="M206 -237l-24 20s38 32 55 93c-18 1 -25 5 -25 5l15 73s15 5 41 5c27 0 40 -5 40 -5l-10 -50c-20 -93 -92 -141 -92 -141zM295 405l275 309c8 3 29 6 46 6s31 -3 39 -6l-305 -342l183 -366s-15 -6 -44 -6c-17 0 -33 6 -33 6l-167 337h-109l-72 -337s-12 -6 -38 -6
c-24 0 -36 6 -36 6l151 708s14 6 39 6c24 0 35 -6 35 -6l-66 -309h102z" />
    <glyph glyph-name="L" unicode="L" horiz-adv-x="510" 
d="M33 0l152 714s14 6 38 6c25 0 36 -6 36 -6l-138 -649h313c0 -7 1 -19 -2 -32c-3 -14 -8 -25 -12 -33h-387z" />
    <glyph glyph-name="Lacute" unicode="&#x139;" horiz-adv-x="510" 
d="M372 895l-154 -139c-19 2 -33 10 -38 24l134 144c26 2 51 -10 58 -29zM33 0l152 714s14 6 38 6c25 0 36 -6 36 -6l-138 -649h313c0 -7 1 -19 -2 -32c-3 -14 -8 -25 -12 -33h-387z" />
    <glyph glyph-name="Lcaron" unicode="&#x13d;" horiz-adv-x="510" 
d="M351 585c-14 3 -23 11 -27 22c52 38 79 80 94 142c27 2 48 -2 60 -14c-21 -62 -70 -125 -127 -150zM33 0l152 714s14 6 38 6c25 0 36 -6 36 -6l-138 -649h313c0 -7 1 -19 -2 -32c-3 -14 -8 -25 -12 -33h-387z" />
    <glyph glyph-name="Lcommaaccent" unicode="&#x13b;" horiz-adv-x="510" 
d="M33 0l152 714s14 6 38 6c25 0 36 -6 36 -6l-138 -649h313c0 -7 1 -19 -2 -32c-3 -14 -8 -25 -12 -33h-387zM162 -236l-24 20s38 32 55 93c-18 1 -26 5 -26 5l15 73s15 5 42 5s39 -5 39 -5l-10 -50c-20 -93 -91 -141 -91 -141z" />
    <glyph glyph-name="Ldot" unicode="&#x13f;" horiz-adv-x="512" 
d="M33 0l152 714s14 6 38 6c25 0 36 -6 36 -6l-138 -649h313c0 -7 1 -19 -2 -32c-3 -14 -8 -25 -12 -33h-387zM389 367l-14 -65s-14 -6 -38 -6c-25 0 -36 6 -36 6l14 65s13 5 38 5c24 0 36 -5 36 -5z" />
    <glyph glyph-name="Lslash" unicode="&#x141;" horiz-adv-x="523" 
d="M199 714c0 0 14 6 38 6c25 0 36 -6 36 -6l-62 -291l119 62c11 -10 17 -25 16 -43l-147 -76l-64 -301h313c0 -7 1 -19 -2 -32c-3 -14 -8 -25 -12 -33h-387l69 323l-69 -35c-11 10 -17 26 -16 42l97 50z" />
    <glyph glyph-name="M" unicode="M" horiz-adv-x="843" 
d="M735 714c11 3 29 6 49 6c30 0 48 -6 48 -6l-151 -708s-14 -6 -38 -6s-36 6 -36 6l90 424c19 86 36 165 48 200h-3c-14 -26 -54 -86 -99 -147l-230 -296s-11 -4 -26 -4c-14 0 -22 4 -22 4l-98 294c-19 59 -36 123 -37 149h-3c0 -29 -15 -107 -34 -195l-91 -429
s-12 -6 -35 -6c-22 0 -33 6 -33 6l151 708s15 6 43 6c24 0 39 -6 39 -6l136 -436h3z" />
    <glyph glyph-name="N" unicode="N" horiz-adv-x="700" 
d="M451 6l-183 509c-22 60 -35 115 -35 115h-3s-7 -59 -28 -157l-99 -467s-12 -6 -36 -6c-23 0 -33 6 -33 6l151 708s17 6 45 6c30 0 43 -6 43 -6l181 -503c21 -58 37 -120 37 -120h3s8 68 26 153l100 470s12 6 37 6c24 0 32 -6 32 -6l-151 -708s-14 -6 -43 -6
c-30 0 -44 6 -44 6z" />
    <glyph glyph-name="Nacute" unicode="&#x143;" horiz-adv-x="700" 
d="M589 895l-154 -139c-19 2 -33 10 -38 24l134 144c26 2 51 -10 58 -29zM451 6l-183 509c-22 60 -35 115 -35 115h-3s-7 -59 -28 -157l-99 -467s-12 -6 -36 -6c-23 0 -33 6 -33 6l151 708s17 6 45 6c30 0 43 -6 43 -6l181 -503c21 -58 37 -120 37 -120h3s8 68 26 153
l100 470s12 6 37 6c24 0 32 -6 32 -6l-151 -708s-14 -6 -43 -6c-30 0 -44 6 -44 6z" />
    <glyph glyph-name="Ncaron" unicode="&#x147;" horiz-adv-x="700" 
d="M433 765l-119 106c9 16 24 29 42 35l95 -79l126 78c14 -5 23 -18 27 -34l-145 -106h-26zM451 6l-183 509c-22 60 -35 115 -35 115h-3s-7 -59 -28 -157l-99 -467s-12 -6 -36 -6c-23 0 -33 6 -33 6l151 708s17 6 45 6c30 0 43 -6 43 -6l181 -503c21 -58 37 -120 37 -120h3
s8 68 26 153l100 470s12 6 37 6c24 0 32 -6 32 -6l-151 -708s-14 -6 -43 -6c-30 0 -44 6 -44 6z" />
    <glyph glyph-name="Ncommaaccent" unicode="&#x145;" horiz-adv-x="700" 
d="M218 -242l-24 20s38 32 55 93c-18 1 -25 5 -25 5l15 73s15 5 41 5c27 0 40 -5 40 -5l-10 -50c-20 -93 -92 -141 -92 -141zM451 6l-183 509c-22 60 -35 115 -35 115h-3s-7 -59 -28 -157l-99 -467s-12 -6 -36 -6c-23 0 -33 6 -33 6l151 708s17 6 45 6c30 0 43 -6 43 -6
l181 -503c21 -58 37 -120 37 -120h3s8 68 26 153l100 470s12 6 37 6c24 0 32 -6 32 -6l-151 -708s-14 -6 -43 -6c-30 0 -44 6 -44 6z" />
    <glyph glyph-name="Ntilde" unicode="&#xd1;" horiz-adv-x="700" 
d="M524 823c30 0 50 26 50 26c14 -4 23 -19 23 -34c-4 -6 -31 -43 -80 -43c-53 0 -72 34 -112 34c-29 0 -51 -27 -51 -27c-14 7 -23 18 -22 34c0 0 23 45 79 45c54 0 73 -35 113 -35zM451 6l-183 509c-22 60 -35 115 -35 115h-3s-7 -59 -28 -157l-99 -467s-12 -6 -36 -6
c-23 0 -33 6 -33 6l151 708s17 6 45 6c30 0 43 -6 43 -6l181 -503c21 -58 37 -120 37 -120h3s8 68 26 153l100 470s12 6 37 6c24 0 32 -6 32 -6l-151 -708s-14 -6 -43 -6c-30 0 -44 6 -44 6z" />
    <glyph glyph-name="O" unicode="O" horiz-adv-x="677" 
d="M79 373c53 258 176 357 346 357s250 -126 196 -385c-53 -259 -176 -355 -347 -355s-248 124 -195 383zM546 360c50 231 -11 308 -131 308s-213 -77 -263 -308c-49 -231 12 -308 132 -308s213 77 262 308z" />
    <glyph glyph-name="OE" unicode="&#x152;" horiz-adv-x="847" 
d="M79 375c56 259 182 355 357 355c33 0 63 -5 84 -10h354c2 -9 2 -19 -1 -31c-2 -12 -6 -22 -12 -31h-281l-56 -263h231c2 -9 2 -19 0 -30c-3 -11 -7 -21 -13 -31h-231l-58 -272h291c2 -10 2 -19 0 -31c-3 -11 -7 -21 -13 -31h-365c-23 -5 -53 -10 -87 -10
c-175 0 -254 127 -200 385zM509 652c-22 10 -53 16 -86 16c-124 0 -221 -77 -271 -308c-49 -231 16 -308 140 -308c32 0 66 6 92 16z" />
    <glyph glyph-name="Oacute" unicode="&#xd3;" horiz-adv-x="677" 
d="M385 796l130 139c25 2 51 -10 58 -29l-150 -134c-18 3 -33 11 -38 24zM79 373c53 258 176 357 346 357s250 -126 196 -385c-53 -259 -176 -355 -347 -355s-248 124 -195 383zM546 360c50 231 -11 308 -131 308s-213 -77 -263 -308c-49 -231 12 -308 132 -308
s213 77 262 308z" />
    <glyph glyph-name="Obreve" unicode="&#x14e;" horiz-adv-x="677" 
d="M453 846c69 0 119 36 119 36c17 -5 25 -18 27 -35c0 0 -54 -56 -151 -56c-98 0 -141 56 -141 56c8 16 22 29 40 35c0 0 37 -36 106 -36zM79 373c53 258 176 357 346 357s250 -126 196 -385c-53 -259 -176 -355 -347 -355s-248 124 -195 383zM546 360
c50 231 -11 308 -131 308s-213 -77 -263 -308c-49 -231 12 -308 132 -308s213 77 262 308z" />
    <glyph glyph-name="Ocircumflex" unicode="&#xd4;" horiz-adv-x="677" 
d="M475 906l115 -108c-11 -16 -26 -30 -42 -35l-95 79l-127 -79c-15 6 -24 18 -26 35l149 108h26zM79 373c53 258 176 357 346 357s250 -126 196 -385c-53 -259 -176 -355 -347 -355s-248 124 -195 383zM546 360c50 231 -11 308 -131 308s-213 -77 -263 -308
c-49 -231 12 -308 132 -308s213 77 262 308z" />
    <glyph glyph-name="Odieresis" unicode="&#xd6;" horiz-adv-x="677" 
d="M336 862c0 0 13 4 38 4c24 0 36 -4 36 -4l-14 -66s-14 -4 -38 -4c-25 0 -36 4 -36 4zM494 862c0 0 13 4 38 4c24 0 36 -4 36 -4l-14 -66s-14 -4 -38 -4c-25 0 -36 4 -36 4zM79 373c53 258 176 357 346 357s250 -126 196 -385c-53 -259 -176 -355 -347 -355
s-248 124 -195 383zM546 360c50 231 -11 308 -131 308s-213 -77 -263 -308c-49 -231 12 -308 132 -308s213 77 262 308z" />
    <glyph glyph-name="Ograve" unicode="&#xd2;" horiz-adv-x="677" 
d="M443 920l68 -136c-11 -14 -28 -21 -47 -23l-90 131c14 17 45 30 69 28zM79 373c53 258 176 357 346 357s250 -126 196 -385c-53 -259 -176 -355 -347 -355s-248 124 -195 383zM546 360c50 231 -11 308 -131 308s-213 -77 -263 -308c-49 -231 12 -308 132 -308
s213 77 262 308z" />
    <glyph glyph-name="Ohungarumlaut" unicode="&#x150;" horiz-adv-x="677" 
d="M322 784l117 133c26 2 51 -10 60 -28l-140 -128c-19 3 -32 10 -37 23zM473 784l118 133c26 2 51 -10 59 -28l-140 -128c-18 3 -31 10 -37 23zM79 373c53 258 176 357 346 357s250 -126 196 -385c-53 -259 -176 -355 -347 -355s-248 124 -195 383zM546 360
c50 231 -11 308 -131 308s-213 -77 -263 -308c-49 -231 12 -308 132 -308s213 77 262 308z" />
    <glyph glyph-name="Omacron" unicode="&#x14c;" horiz-adv-x="677" 
d="M316 850h275c2 -14 -4 -35 -11 -49h-275c-2 16 2 33 11 49zM79 373c53 258 176 357 346 357s250 -126 196 -385c-53 -259 -176 -355 -347 -355s-248 124 -195 383zM546 360c50 231 -11 308 -131 308s-213 -77 -263 -308c-49 -231 12 -308 132 -308s213 77 262 308z" />
    <glyph glyph-name="Omega" unicode="&#x2126;" horiz-adv-x="720" 
d="M92 380c52 246 187 350 357 350c171 0 261 -104 209 -350c-37 -174 -169 -284 -202 -315h148c1 -11 2 -21 0 -32c-3 -12 -8 -23 -14 -33h-235c-5 20 0 46 14 67c59 42 175 144 211 313c44 208 -20 288 -144 288s-222 -80 -266 -288c-36 -169 36 -271 77 -313
c5 -21 0 -44 -14 -67h-235c-2 10 -3 21 0 32c2 12 7 23 14 33h147c-21 31 -104 141 -67 315z" />
    <glyph glyph-name="Oslash" unicode="&#xd8;" horiz-adv-x="676" 
d="M674 739l-75 -93c41 -63 50 -163 21 -301c-53 -259 -176 -355 -347 -355c-64 0 -115 17 -151 53l-69 -89c-20 2 -37 11 -48 26l85 108c-33 63 -38 158 -12 285c53 258 176 357 346 357c58 0 105 -14 140 -44l62 79c20 -2 38 -13 48 -26zM414 668
c-120 0 -213 -77 -263 -308c-20 -93 -22 -161 -9 -210l378 483c-25 24 -62 35 -106 35zM283 52c120 0 213 77 262 308c22 104 23 176 5 225l-383 -487c26 -33 66 -46 116 -46z" />
    <glyph glyph-name="Oslashacute" unicode="&#x1fe;" horiz-adv-x="676" 
d="M575 908l-155 -139c-19 2 -33 10 -38 24l134 144c25 2 51 -10 59 -29zM674 739l-75 -93c41 -63 50 -163 21 -301c-53 -259 -176 -355 -347 -355c-64 0 -115 17 -151 53l-69 -89c-20 2 -37 11 -48 26l85 108c-33 63 -38 158 -12 285c53 258 176 357 346 357
c58 0 105 -14 140 -44l62 79c20 -2 38 -13 48 -26zM414 668c-120 0 -213 -77 -263 -308c-20 -93 -22 -161 -9 -210l378 483c-25 24 -62 35 -106 35zM283 52c120 0 213 77 262 308c22 104 23 176 5 225l-383 -487c26 -33 66 -46 116 -46z" />
    <glyph glyph-name="Otilde" unicode="&#xd5;" horiz-adv-x="677" 
d="M501 840c30 1 50 29 50 29c13 -5 22 -18 23 -33c0 0 -21 -46 -78 -48c-50 -2 -75 32 -115 31c-30 -1 -51 -29 -51 -29c-14 8 -20 18 -22 33c0 0 21 45 78 47c55 2 75 -31 115 -30zM79 373c53 258 176 357 346 357s250 -126 196 -385c-53 -259 -176 -355 -347 -355
s-248 124 -195 383zM546 360c50 231 -11 308 -131 308s-213 -77 -263 -308c-49 -231 12 -308 132 -308s213 77 262 308z" />
    <glyph glyph-name="P" unicode="P" horiz-adv-x="602" 
d="M169 292l-61 -286s-13 -6 -37 -6c-27 0 -37 6 -37 6l152 714h253c128 0 183 -103 156 -231c-27 -127 -119 -197 -247 -197h-179zM183 356h172c87 0 148 57 167 149c20 95 -16 152 -103 152h-172z" />
    <glyph glyph-name="Q" unicode="Q" horiz-adv-x="677" 
d="M425 730c170 0 250 -126 196 -385c-31 -151 -86 -247 -160 -300c31 -33 73 -54 113 -63c-9 -27 -30 -52 -55 -63c-48 16 -92 52 -115 94c-40 -16 -83 -23 -130 -23c-171 0 -248 124 -195 383c53 258 176 357 346 357zM415 668c-120 0 -213 -77 -263 -308
c-49 -231 12 -308 132 -308s213 77 262 308c50 231 -11 308 -131 308z" />
    <glyph glyph-name="R" unicode="R" horiz-adv-x="626" 
d="M186 720h248c128 0 188 -95 161 -218c-21 -101 -88 -162 -183 -184l106 -312s-16 -6 -44 -6s-36 6 -36 6l-99 304h-166l-65 -304s-13 -6 -37 -6c-27 0 -37 6 -37 6zM353 373c85 0 147 52 166 142c19 89 -20 142 -105 142h-167l-61 -284h167z" />
    <glyph glyph-name="Racute" unicode="&#x154;" horiz-adv-x="626" 
d="M320 780l134 144c26 2 51 -10 58 -29l-154 -139c-19 2 -33 10 -38 24zM186 720h248c128 0 188 -95 161 -218c-21 -101 -88 -162 -183 -184l106 -312s-16 -6 -44 -6s-36 6 -36 6l-99 304h-166l-65 -304s-13 -6 -37 -6c-27 0 -37 6 -37 6zM353 373c85 0 147 52 166 142
c19 89 -20 142 -105 142h-167l-61 -284h167z" />
    <glyph glyph-name="Rcaron" unicode="&#x158;" horiz-adv-x="626" 
d="M404 827l126 78c14 -5 23 -18 27 -34l-148 -108h-26l-116 108c9 16 24 29 42 35zM186 720h248c128 0 188 -95 161 -218c-21 -101 -88 -162 -183 -184l106 -312s-16 -6 -44 -6s-36 6 -36 6l-99 304h-166l-65 -304s-13 -6 -37 -6c-27 0 -37 6 -37 6zM353 373
c85 0 147 52 166 142c19 89 -20 142 -105 142h-167l-61 -284h167z" />
    <glyph glyph-name="Rcommaaccent" unicode="&#x156;" horiz-adv-x="626" 
d="M207 -45c0 0 15 5 41 5c27 0 40 -5 40 -5l-10 -50c-20 -93 -92 -141 -92 -141l-24 20s38 32 55 93c-18 1 -25 5 -25 5zM186 720h248c128 0 188 -95 161 -218c-21 -101 -88 -162 -183 -184l106 -312s-16 -6 -44 -6s-36 6 -36 6l-99 304h-166l-65 -304s-13 -6 -37 -6
c-27 0 -37 6 -37 6zM353 373c85 0 147 52 166 142c19 89 -20 142 -105 142h-167l-61 -284h167z" />
    <glyph glyph-name="S" unicode="S" horiz-adv-x="567" 
d="M113 547c25 120 119 183 275 183c115 0 183 -27 183 -27c-4 -21 -16 -43 -32 -58c0 0 -67 21 -154 21c-117 0 -184 -49 -201 -131c-20 -91 57 -114 150 -143c91 -30 182 -80 154 -215c-27 -128 -128 -187 -285 -187c-127 0 -201 40 -201 40c5 20 16 43 32 59
c0 0 84 -31 178 -31c113 0 183 46 202 133c18 87 -43 117 -118 140c-99 33 -214 71 -183 216z" />
    <glyph glyph-name="Sacute" unicode="&#x15a;" horiz-adv-x="567" 
d="M530 897l-151 -129c-18 3 -32 12 -36 26l130 135c26 1 50 -14 57 -32zM113 547c25 120 119 183 275 183c115 0 183 -27 183 -27c-4 -21 -16 -43 -32 -58c0 0 -67 21 -154 21c-117 0 -184 -49 -201 -131c-20 -91 57 -114 150 -143c91 -30 182 -80 154 -215
c-27 -128 -128 -187 -285 -187c-127 0 -201 40 -201 40c5 20 16 43 32 59c0 0 84 -31 178 -31c113 0 183 46 202 133c18 87 -43 117 -118 140c-99 33 -214 71 -183 216z" />
    <glyph glyph-name="Scaron" unicode="&#x160;" horiz-adv-x="567" 
d="M392 774l-115 105c10 17 24 30 42 35l94 -79l127 78c15 -4 24 -18 27 -34l-149 -105h-26zM113 547c25 120 119 183 275 183c115 0 183 -27 183 -27c-4 -21 -16 -43 -32 -58c0 0 -67 21 -154 21c-117 0 -184 -49 -201 -131c-20 -91 57 -114 150 -143
c91 -30 182 -80 154 -215c-27 -128 -128 -187 -285 -187c-127 0 -201 40 -201 40c5 20 16 43 32 59c0 0 84 -31 178 -31c113 0 183 46 202 133c18 87 -43 117 -118 140c-99 33 -214 71 -183 216z" />
    <glyph glyph-name="Scedilla" unicode="&#x15e;" horiz-adv-x="567" 
d="M113 547c25 120 119 183 275 183c115 0 183 -27 183 -27c-4 -21 -16 -43 -32 -58c0 0 -67 21 -154 21c-117 0 -184 -49 -201 -131c-20 -91 57 -114 150 -143c91 -30 182 -80 154 -215c-25 -121 -117 -180 -259 -186l-19 -49c77 0 105 -41 93 -96
c-14 -66 -68 -95 -143 -95c-55 0 -85 23 -85 23c3 15 13 28 24 35c6 -3 32 -16 67 -16c42 0 73 17 81 58c7 33 -9 52 -51 52h-35l-7 12l30 75c-115 4 -182 40 -182 40c5 20 16 43 32 59c0 0 84 -31 178 -31c113 0 183 46 202 133c18 87 -43 117 -118 140
c-99 33 -214 71 -183 216z" />
    <glyph glyph-name="Scircumflex" unicode="&#x15c;" horiz-adv-x="567" 
d="M432 909l113 -105c-10 -16 -25 -30 -41 -35l-95 79l-127 -79c-14 6 -24 18 -27 35l151 105h26zM113 547c25 120 119 183 275 183c115 0 183 -27 183 -27c-4 -21 -16 -43 -32 -58c0 0 -67 21 -154 21c-117 0 -184 -49 -201 -131c-20 -91 57 -114 150 -143
c91 -30 182 -80 154 -215c-27 -128 -128 -187 -285 -187c-127 0 -201 40 -201 40c5 20 16 43 32 59c0 0 84 -31 178 -31c113 0 183 46 202 133c18 87 -43 117 -118 140c-99 33 -214 71 -183 216z" />
    <glyph glyph-name="Scommaaccent" unicode="&#x218;" horiz-adv-x="567" 
d="M146 -247l-23 20s38 32 54 92c-18 1 -26 5 -26 5l16 73s15 5 42 5s39 -5 39 -5l-11 -50c-19 -92 -91 -140 -91 -140zM113 547c25 120 119 183 275 183c115 0 183 -27 183 -27c-4 -21 -16 -43 -32 -58c0 0 -67 21 -154 21c-117 0 -184 -49 -201 -131
c-20 -91 57 -114 150 -143c91 -30 182 -80 154 -215c-27 -128 -128 -187 -285 -187c-127 0 -201 40 -201 40c5 20 16 43 32 59c0 0 84 -31 178 -31c113 0 183 46 202 133c18 87 -43 117 -118 140c-99 33 -214 71 -183 216z" />
    <glyph glyph-name="T" unicode="T" horiz-adv-x="532" 
d="M119 720h469s3 -12 -1 -32c-4 -19 -13 -33 -13 -33h-195l-138 -649s-14 -6 -38 -6c-26 0 -36 6 -36 6l138 649h-200s-3 13 1 33c4 19 13 32 13 32z" />
    <glyph glyph-name="Tbar" unicode="&#x166;" horiz-adv-x="548" 
d="M324 368h131c2 -15 -3 -33 -10 -49h-131l-67 -313s-14 -6 -38 -6c-26 0 -36 6 -36 6l67 313h-124c-1 17 3 34 10 49h124l61 287h-200s-3 13 1 33c4 19 13 32 13 32h469s3 -12 -1 -32c-4 -19 -13 -33 -13 -33h-195z" />
    <glyph glyph-name="Tcaron" unicode="&#x164;" horiz-adv-x="532" 
d="M342 763l-116 108c9 16 24 29 42 35l95 -79l126 78c14 -5 23 -18 27 -34l-148 -108h-26zM119 720h469s3 -12 -1 -32c-4 -19 -13 -33 -13 -33h-195l-138 -649s-14 -6 -38 -6c-26 0 -36 6 -36 6l138 649h-200s-3 13 1 33c4 19 13 32 13 32z" />
    <glyph glyph-name="Thorn" unicode="&#xde;" horiz-adv-x="604" 
d="M185 714c0 0 12 6 38 6s36 -6 36 -6l-29 -135h179c128 0 184 -97 158 -222c-27 -124 -118 -193 -246 -193h-179l-34 -158s-13 -6 -38 -6c-27 0 -36 6 -36 6zM217 516l-62 -289h172c87 0 148 54 167 143c19 92 -18 146 -105 146h-172z" />
    <glyph glyph-name="U" unicode="U" horiz-adv-x="672" 
d="M667 714l-102 -479c-33 -157 -140 -245 -286 -245c-147 0 -234 90 -201 245l102 479s14 6 38 6c25 0 36 -6 36 -6l-104 -490c-23 -108 26 -171 134 -171c107 0 183 63 206 171l104 490s13 6 37 6s36 -6 36 -6z" />
    <glyph glyph-name="Uacute" unicode="&#xda;" horiz-adv-x="672" 
d="M564 895l-154 -139c-19 2 -33 10 -38 24l134 144c26 2 51 -10 58 -29zM667 714l-102 -479c-33 -157 -140 -245 -286 -245c-147 0 -234 90 -201 245l102 479s14 6 38 6c25 0 36 -6 36 -6l-104 -490c-23 -108 26 -171 134 -171c107 0 183 63 206 171l104 490s13 6 37 6
s36 -6 36 -6z" />
    <glyph glyph-name="Ubreve" unicode="&#x16c;" horiz-adv-x="672" 
d="M595 837c0 0 -55 -56 -151 -56c-98 0 -141 56 -141 56c8 16 23 29 41 35c0 0 37 -36 106 -36s119 36 119 36c16 -5 25 -18 26 -35zM667 714l-102 -479c-33 -157 -140 -245 -286 -245c-147 0 -234 90 -201 245l102 479s14 6 38 6c25 0 36 -6 36 -6l-104 -490
c-23 -108 26 -171 134 -171c107 0 183 63 206 171l104 490s13 6 37 6s36 -6 36 -6z" />
    <glyph glyph-name="Ucircumflex" unicode="&#xdb;" horiz-adv-x="672" 
d="M477 906l115 -108c-11 -16 -25 -30 -42 -35l-95 79l-127 -79c-15 6 -24 18 -26 35l149 108h26zM667 714l-102 -479c-33 -157 -140 -245 -286 -245c-147 0 -234 90 -201 245l102 479s14 6 38 6c25 0 36 -6 36 -6l-104 -490c-23 -108 26 -171 134 -171
c107 0 183 63 206 171l104 490s13 6 37 6s36 -6 36 -6z" />
    <glyph glyph-name="Udieresis" unicode="&#xdc;" horiz-adv-x="672" 
d="M408 853l-14 -65s-13 -5 -37 -5c-25 0 -36 5 -36 5l14 65s13 5 38 5c24 0 35 -5 35 -5zM566 853l-14 -65s-13 -5 -37 -5c-25 0 -36 5 -36 5l14 65s13 5 38 5c24 0 35 -5 35 -5zM667 714l-102 -479c-33 -157 -140 -245 -286 -245c-147 0 -234 90 -201 245l102 479
s14 6 38 6c25 0 36 -6 36 -6l-104 -490c-23 -108 26 -171 134 -171c107 0 183 63 206 171l104 490s13 6 37 6s36 -6 36 -6z" />
    <glyph glyph-name="Ugrave" unicode="&#xd9;" horiz-adv-x="672" 
d="M425 760l-91 133c14 17 46 31 70 29l69 -138c-11 -13 -29 -21 -48 -24zM667 714l-102 -479c-33 -157 -140 -245 -286 -245c-147 0 -234 90 -201 245l102 479s14 6 38 6c25 0 36 -6 36 -6l-104 -490c-23 -108 26 -171 134 -171c107 0 183 63 206 171l104 490s13 6 37 6
s36 -6 36 -6z" />
    <glyph glyph-name="Uhungarumlaut" unicode="&#x170;" horiz-adv-x="672" 
d="M504 891l-144 -131c-19 2 -32 10 -38 23l122 136c27 2 52 -10 60 -28zM657 891l-144 -131c-19 2 -32 10 -38 23l122 136c27 2 52 -10 60 -28zM667 714l-102 -479c-33 -157 -140 -245 -286 -245c-147 0 -234 90 -201 245l102 479s14 6 38 6c25 0 36 -6 36 -6l-104 -490
c-23 -108 26 -171 134 -171c107 0 183 63 206 171l104 490s13 6 37 6s36 -6 36 -6z" />
    <glyph glyph-name="Umacron" unicode="&#x16a;" horiz-adv-x="672" 
d="M583 810h-283c-3 16 1 34 10 49h283c2 -14 -2 -34 -10 -49zM667 714l-102 -479c-33 -157 -140 -245 -286 -245c-147 0 -234 90 -201 245l102 479s14 6 38 6c25 0 36 -6 36 -6l-104 -490c-23 -108 26 -171 134 -171c107 0 183 63 206 171l104 490s13 6 37 6s36 -6 36 -6z
" />
    <glyph glyph-name="Uogonek" unicode="&#x172;" horiz-adv-x="672" 
d="M594 714c0 0 13 6 37 6s36 -6 36 -6l-102 -479c-25 -119 -92 -198 -186 -229c-42 -17 -76 -43 -85 -86c-9 -38 13 -56 48 -56c23 0 41 9 41 9c8 -8 10 -21 7 -36c0 0 -34 -20 -75 -20c-61 0 -93 37 -80 94c7 31 23 58 46 79h-2c-147 0 -234 90 -201 245l102 479
s14 6 38 6c25 0 36 -6 36 -6l-104 -490c-23 -108 26 -171 134 -171c107 0 183 63 206 171z" />
    <glyph glyph-name="Uring" unicode="&#x16e;" horiz-adv-x="672" 
d="M441 765c-66 0 -113 40 -98 110c15 71 75 107 135 107c58 0 115 -35 100 -107c-15 -71 -72 -110 -137 -110zM530 875c7 34 -9 66 -57 66c-47 0 -76 -33 -83 -66c-7 -34 8 -67 55 -67c48 0 78 34 85 67zM667 714l-102 -479c-33 -157 -140 -245 -286 -245
c-147 0 -234 90 -201 245l102 479s14 6 38 6c25 0 36 -6 36 -6l-104 -490c-23 -108 26 -171 134 -171c107 0 183 63 206 171l104 490s13 6 37 6s36 -6 36 -6z" />
    <glyph glyph-name="Utilde" unicode="&#x168;" horiz-adv-x="672" 
d="M501 846c30 0 50 27 50 27c14 -6 22 -19 23 -33c0 0 -22 -43 -79 -43c-51 0 -72 34 -112 34c-30 0 -51 -28 -51 -28c-14 7 -22 18 -23 32c0 0 24 45 81 45c53 0 72 -34 111 -34zM667 714l-102 -479c-33 -157 -140 -245 -286 -245c-147 0 -234 90 -201 245l102 479
s14 6 38 6c25 0 36 -6 36 -6l-104 -490c-23 -108 26 -171 134 -171c107 0 183 63 206 171l104 490s13 6 37 6s36 -6 36 -6z" />
    <glyph glyph-name="V" unicode="V" horiz-adv-x="623" 
d="M180 714l75 -533c7 -53 6 -93 6 -93h3s15 40 45 93l303 533s11 6 40 6c25 0 37 -6 37 -6l-401 -709s-17 -5 -41 -5c-25 0 -40 5 -40 5l-98 708s13 7 41 7c20 0 30 -6 30 -6z" />
    <glyph glyph-name="W" unicode="W" horiz-adv-x="955" 
d="M579 6l-27 506c-4 79 4 121 4 121h-3s-9 -43 -48 -121l-252 -506c-9 -3 -28 -6 -45 -6c-18 0 -32 3 -40 6l-54 708s13 6 38 6c26 0 34 -6 34 -6l39 -511c5 -61 1 -116 1 -116h3s17 54 47 115l256 512s12 6 38 6c27 0 37 -6 37 -6l30 -511c4 -64 -4 -116 -4 -116h3
s18 50 50 115l253 512s17 6 39 6s34 -6 34 -6l-351 -708s-16 -6 -41 -6c-24 0 -41 6 -41 6z" />
    <glyph glyph-name="Wacute" unicode="&#x1e82;" horiz-adv-x="955" 
d="M695 895l-149 -135c-19 3 -33 11 -38 24l129 140c26 2 51 -10 58 -29zM579 6l-27 506c-4 79 4 121 4 121h-3s-9 -43 -48 -121l-252 -506c-9 -3 -28 -6 -45 -6c-18 0 -32 3 -40 6l-54 708s13 6 38 6c26 0 34 -6 34 -6l39 -511c5 -61 1 -116 1 -116h3s17 54 47 115l256 512
s12 6 38 6c27 0 37 -6 37 -6l30 -511c4 -64 -4 -116 -4 -116h3s18 50 50 115l253 512s17 6 39 6s34 -6 34 -6l-351 -708s-16 -6 -41 -6c-24 0 -41 6 -41 6z" />
    <glyph glyph-name="Wcircumflex" unicode="&#x174;" horiz-adv-x="955" 
d="M617 904l115 -106c-11 -16 -26 -30 -42 -35l-95 79l-127 -79c-15 6 -24 18 -26 35l149 106h26zM579 6l-27 506c-4 79 4 121 4 121h-3s-9 -43 -48 -121l-252 -506c-9 -3 -28 -6 -45 -6c-18 0 -32 3 -40 6l-54 708s13 6 38 6c26 0 34 -6 34 -6l39 -511c5 -61 1 -116 1 -116
h3s17 54 47 115l256 512s12 6 38 6c27 0 37 -6 37 -6l30 -511c4 -64 -4 -116 -4 -116h3s18 50 50 115l253 512s17 6 39 6s34 -6 34 -6l-351 -708s-16 -6 -41 -6c-24 0 -41 6 -41 6z" />
    <glyph glyph-name="Wdieresis" unicode="&#x1e84;" horiz-adv-x="955" 
d="M554 865l-14 -66s-13 -4 -37 -4c-25 0 -36 4 -36 4l14 66s13 4 38 4c24 0 35 -4 35 -4zM712 865l-14 -66s-13 -4 -37 -4c-25 0 -36 4 -36 4l14 66s13 4 38 4c24 0 35 -4 35 -4zM579 6l-27 506c-4 79 4 121 4 121h-3s-9 -43 -48 -121l-252 -506c-9 -3 -28 -6 -45 -6
c-18 0 -32 3 -40 6l-54 708s13 6 38 6c26 0 34 -6 34 -6l39 -511c5 -61 1 -116 1 -116h3s17 54 47 115l256 512s12 6 38 6c27 0 37 -6 37 -6l30 -511c4 -64 -4 -116 -4 -116h3s18 50 50 115l253 512s17 6 39 6s34 -6 34 -6l-351 -708s-16 -6 -41 -6c-24 0 -41 6 -41 6z" />
    <glyph glyph-name="Wgrave" unicode="&#x1e80;" horiz-adv-x="955" 
d="M578 759l-91 134c14 17 46 31 70 29l69 -139c-11 -14 -28 -22 -48 -24zM579 6l-27 506c-4 79 4 121 4 121h-3s-9 -43 -48 -121l-252 -506c-9 -3 -28 -6 -45 -6c-18 0 -32 3 -40 6l-54 708s13 6 38 6c26 0 34 -6 34 -6l39 -511c5 -61 1 -116 1 -116h3s17 54 47 115
l256 512s12 6 38 6c27 0 37 -6 37 -6l30 -511c4 -64 -4 -116 -4 -116h3s18 50 50 115l253 512s17 6 39 6s34 -6 34 -6l-351 -708s-16 -6 -41 -6c-24 0 -41 6 -41 6z" />
    <glyph glyph-name="X" unicode="X" horiz-adv-x="609" 
d="M572 714c8 3 29 6 48 6s32 -3 40 -6l-297 -344l159 -363s-16 -7 -44 -7s-35 6 -35 6l-136 307l-259 -308c-7 -2 -29 -5 -47 -5c-19 0 -33 3 -42 5l314 372l-147 337s16 6 45 6c26 0 34 -6 34 -6l125 -281z" />
    <glyph glyph-name="Y" unicode="Y" horiz-adv-x="622" 
d="M602 714c0 0 23 6 50 6c26 0 41 -6 41 -6l-347 -411l-63 -297s-13 -6 -37 -6c-26 0 -37 6 -37 6l63 295l-164 413s16 6 46 6c28 0 33 -6 33 -6l135 -335z" />
    <glyph glyph-name="Yacute" unicode="&#xdd;" horiz-adv-x="622" 
d="M346 780l134 144c26 2 51 -10 58 -29l-154 -139c-19 2 -33 10 -38 24zM602 714c0 0 23 6 50 6c26 0 41 -6 41 -6l-347 -411l-63 -297s-13 -6 -37 -6c-26 0 -37 6 -37 6l63 295l-164 413s16 6 46 6c28 0 33 -6 33 -6l135 -335z" />
    <glyph glyph-name="Ycircumflex" unicode="&#x176;" horiz-adv-x="622" 
d="M456 905l114 -107c-10 -16 -25 -30 -42 -35l-94 79l-127 -79c-16 6 -24 18 -27 35l150 107h26zM602 714c0 0 23 6 50 6c26 0 41 -6 41 -6l-347 -411l-63 -297s-13 -6 -37 -6c-26 0 -37 6 -37 6l63 295l-164 413s16 6 46 6c28 0 33 -6 33 -6l135 -335z" />
    <glyph glyph-name="Ydieresis" unicode="&#x178;" horiz-adv-x="622" 
d="M311 866c0 0 13 5 38 5c24 0 36 -5 36 -5l-13 -65s-15 -5 -39 -5c-25 0 -35 5 -35 5zM469 866c0 0 13 5 38 5c24 0 36 -5 36 -5l-13 -65s-15 -5 -39 -5c-25 0 -35 5 -35 5zM602 714c0 0 23 6 50 6c26 0 41 -6 41 -6l-347 -411l-63 -297s-13 -6 -37 -6c-26 0 -37 6 -37 6
l63 295l-164 413s16 6 46 6c28 0 33 -6 33 -6l135 -335z" />
    <glyph glyph-name="Ygrave" unicode="&#x1ef2;" horiz-adv-x="622" 
d="M390 922l73 -144c-12 -14 -28 -22 -48 -24l-95 139c14 17 46 31 70 29zM602 714c0 0 23 6 50 6c26 0 41 -6 41 -6l-347 -411l-63 -297s-13 -6 -37 -6c-26 0 -37 6 -37 6l63 295l-164 413s16 6 46 6c28 0 33 -6 33 -6l135 -335z" />
    <glyph glyph-name="Z" unicode="Z" horiz-adv-x="584" 
d="M160 720h451c2 -6 2 -17 -1 -32c-3 -14 -9 -27 -13 -34l-521 -588h409c1 -6 1 -17 -2 -32s-7 -26 -12 -34h-492c0 8 -1 19 2 34c3 14 9 25 12 32l519 588h-366c0 8 -1 20 2 35c3 14 9 25 12 31z" />
    <glyph glyph-name="Zacute" unicode="&#x179;" horiz-adv-x="584" 
d="M341 786l128 138c26 2 51 -10 58 -29l-147 -133c-19 3 -33 11 -39 24zM160 720h451c2 -6 2 -17 -1 -32c-3 -14 -9 -27 -13 -34l-521 -588h409c1 -6 1 -17 -2 -32s-7 -26 -12 -34h-492c0 8 -1 19 2 34c3 14 9 25 12 32l519 588h-366c0 8 -1 20 2 35c3 14 9 25 12 31z" />
    <glyph glyph-name="Zcaron" unicode="&#x17d;" horiz-adv-x="584" 
d="M399 833l126 78c14 -5 23 -18 27 -34l-149 -107h-26l-115 107c9 16 24 29 42 35zM160 720h451c2 -6 2 -17 -1 -32c-3 -14 -9 -27 -13 -34l-521 -588h409c1 -6 1 -17 -2 -32s-7 -26 -12 -34h-492c0 8 -1 19 2 34c3 14 9 25 12 32l519 588h-366c0 8 -1 20 2 35
c3 14 9 25 12 31z" />
    <glyph glyph-name="Zdotaccent" unicode="&#x17b;" horiz-adv-x="584" 
d="M369 863c0 0 13 4 39 4c25 0 37 -4 37 -4l-14 -68s-14 -5 -39 -5c-26 0 -37 5 -37 5zM160 720h451c2 -6 2 -17 -1 -32c-3 -14 -9 -27 -13 -34l-521 -588h409c1 -6 1 -17 -2 -32s-7 -26 -12 -34h-492c0 8 -1 19 2 34c3 14 9 25 12 32l519 588h-366c0 8 -1 20 2 35
c3 14 9 25 12 31z" />
    <glyph glyph-name="_0020" horiz-adv-x="0" 
 />
    <glyph glyph-name="_375" horiz-adv-x="646" 
d="M287 715c8 2 22 5 39 5s29 -3 37 -5l109 -675c-7 -17 -19 -30 -33 -40h-538c-11 10 -17 24 -17 39zM304 626h-3c-6 -15 -25 -54 -52 -100l-278 -464h421l-78 465c-8 43 -9 84 -10 99z" />
    <glyph glyph-name="_376" horiz-adv-x="700" 
d="M492 0h-235c-5 20 0 46 14 67c59 42 175 144 211 313c44 208 -20 288 -144 288s-222 -80 -266 -288c-36 -169 36 -271 77 -313c5 -21 0 -44 -14 -67h-235c-2 10 -3 21 0 32c2 12 7 23 14 33h147c-21 31 -104 141 -67 315c52 246 187 350 357 350c171 0 261 -104 209 -350
c-37 -174 -169 -284 -202 -315h148c1 -11 2 -21 0 -32c-3 -12 -8 -23 -14 -33z" />
    <glyph glyph-name="a" unicode="a" horiz-adv-x="554" 
d="M456 521c0 0 7 5 32 5s32 -5 32 -5l-110 -516s-13 -5 -31 -5c-19 0 -29 5 -29 5l7 64c-39 -50 -90 -79 -169 -79c-122 0 -179 85 -136 289s128 257 245 257c76 0 121 -32 140 -81zM407 328c14 73 -19 147 -103 147c-97 0 -149 -54 -182 -212c-34 -158 -6 -212 91 -212
c85 0 151 75 166 149z" />
    <glyph glyph-name="aacute" unicode="&#xe1;" horiz-adv-x="554" 
d="M259 612l134 144c25 2 46 -12 54 -31l-150 -137c-19 2 -33 10 -38 24zM456 521c0 0 7 5 32 5s32 -5 32 -5l-110 -516s-13 -5 -31 -5c-19 0 -29 5 -29 5l7 64c-39 -50 -90 -79 -169 -79c-122 0 -179 85 -136 289s128 257 245 257c76 0 121 -32 140 -81zM407 328
c14 73 -19 147 -103 147c-97 0 -149 -54 -182 -212c-34 -158 -6 -212 91 -212c85 0 151 75 166 149z" />
    <glyph glyph-name="abreve" unicode="&#x103;" horiz-adv-x="554" 
d="M360 684c66 0 115 36 115 36c16 -6 23 -19 25 -35c0 0 -52 -58 -145 -58c-92 0 -133 58 -133 58c8 15 21 29 39 35c0 0 33 -36 99 -36zM456 521c0 0 7 5 32 5s32 -5 32 -5l-110 -516s-13 -5 -31 -5c-19 0 -29 5 -29 5l7 64c-39 -50 -90 -79 -169 -79
c-122 0 -179 85 -136 289s128 257 245 257c76 0 121 -32 140 -81zM407 328c14 73 -19 147 -103 147c-97 0 -149 -54 -182 -212c-34 -158 -6 -212 91 -212c85 0 151 75 166 149z" />
    <glyph glyph-name="acircumflex" unicode="&#xe2;" horiz-adv-x="554" 
d="M383 740l107 -104c-10 -15 -24 -29 -41 -33l-89 76l-125 -77c-15 6 -22 18 -26 34l149 104h25zM456 521c0 0 7 5 32 5s32 -5 32 -5l-110 -516s-13 -5 -31 -5c-19 0 -29 5 -29 5l7 64c-39 -50 -90 -79 -169 -79c-122 0 -179 85 -136 289s128 257 245 257
c76 0 121 -32 140 -81zM407 328c14 73 -19 147 -103 147c-97 0 -149 -54 -182 -212c-34 -158 -6 -212 91 -212c85 0 151 75 166 149z" />
    <glyph glyph-name="acute" unicode="&#xb4;" horiz-adv-x="224" 
d="M207 779l-155 -139c-19 2 -33 10 -38 24l135 144c25 2 51 -10 58 -29z" />
    <glyph glyph-name="adieresis" unicode="&#xe4;" horiz-adv-x="554" 
d="M233 704c0 0 13 5 38 5c24 0 35 -5 35 -5l-14 -65s-13 -5 -37 -5c-25 0 -36 5 -36 5zM391 704c0 0 13 5 38 5c24 0 35 -5 35 -5l-14 -65s-13 -5 -37 -5c-25 0 -36 5 -36 5zM456 521c0 0 7 5 32 5s32 -5 32 -5l-110 -516s-13 -5 -31 -5c-19 0 -29 5 -29 5l7 64
c-39 -50 -90 -79 -169 -79c-122 0 -179 85 -136 289s128 257 245 257c76 0 121 -32 140 -81zM407 328c14 73 -19 147 -103 147c-97 0 -149 -54 -182 -212c-34 -158 -6 -212 91 -212c85 0 151 75 166 149z" />
    <glyph glyph-name="ae" unicode="&#xe6;" horiz-adv-x="790" 
d="M619 536c116 0 157 -71 131 -192c-12 -55 -32 -96 -32 -96h-291c-22 -137 12 -197 98 -197c72 0 121 32 121 32c11 -10 16 -29 14 -49c0 0 -57 -44 -158 -44c-65 0 -98 30 -112 80l-18 -65c-4 -3 -14 -5 -27 -5c-19 0 -27 5 -27 5l7 59c-39 -50 -82 -74 -156 -74
c-97 0 -162 84 -119 288s135 258 227 258c76 0 112 -24 130 -81l19 66s7 5 32 5c17 0 26 -5 26 -5l-11 -61c40 45 90 76 146 76zM438 302h234s6 17 13 49c14 68 -3 126 -83 126c-68 0 -130 -46 -164 -175zM352 200l26 120c16 76 -14 155 -90 155c-77 0 -135 -54 -168 -212
c-34 -158 1 -212 78 -212c85 0 139 75 154 149z" />
    <glyph glyph-name="aeacute" unicode="&#x1fd;" horiz-adv-x="791" 
d="M598 712l-155 -139c-19 2 -33 10 -39 24l135 144c25 2 51 -10 59 -29zM620 536c116 0 157 -71 131 -192c-12 -55 -32 -96 -32 -96h-291c-22 -137 12 -197 98 -197c72 0 121 32 121 32c11 -10 16 -29 14 -49c0 0 -57 -44 -158 -44c-65 0 -98 30 -112 80l-18 -65
c-4 -3 -14 -5 -27 -5c-19 0 -27 5 -27 5l7 59c-39 -50 -82 -74 -156 -74c-97 0 -162 84 -119 288s135 258 227 258c76 0 112 -24 130 -81l19 66s7 5 32 5c17 0 26 -5 26 -5l-11 -61c40 45 90 76 146 76zM439 302h234s6 17 13 49c14 68 -3 126 -83 126
c-68 0 -130 -46 -164 -175zM353 200l26 120c16 76 -14 155 -90 155c-77 0 -135 -54 -168 -212c-34 -158 1 -212 78 -212c85 0 139 75 154 149z" />
    <glyph glyph-name="agrave" unicode="&#xe0;" horiz-adv-x="554" 
d="M332 771l77 -141c-12 -14 -29 -22 -48 -24l-94 134c15 17 42 33 65 31zM456 521c0 0 7 5 32 5s32 -5 32 -5l-110 -516s-13 -5 -31 -5c-19 0 -29 5 -29 5l7 64c-39 -50 -90 -79 -169 -79c-122 0 -179 85 -136 289s128 257 245 257c76 0 121 -32 140 -81zM407 328
c14 73 -19 147 -103 147c-97 0 -149 -54 -182 -212c-34 -158 -6 -212 91 -212c85 0 151 75 166 149z" />
    <glyph glyph-name="amacron" unicode="&#x101;" horiz-adv-x="554" 
d="M236 694h239c3 -15 -2 -33 -10 -47h-239c-1 16 3 34 10 47zM456 521c0 0 7 5 32 5s32 -5 32 -5l-110 -516s-13 -5 -31 -5c-19 0 -29 5 -29 5l7 64c-39 -50 -90 -79 -169 -79c-122 0 -179 85 -136 289s128 257 245 257c76 0 121 -32 140 -81zM407 328
c14 73 -19 147 -103 147c-97 0 -149 -54 -182 -212c-34 -158 -6 -212 91 -212c85 0 151 75 166 149z" />
    <glyph glyph-name="ampersand" unicode="&#x26;" horiz-adv-x="634" 
d="M402 690c91 0 132 -53 118 -122c-22 -103 -116 -160 -235 -219c23 -68 66 -135 128 -192c41 41 70 88 91 128c23 2 45 -8 52 -24c-20 -38 -54 -87 -106 -137c32 -25 68 -47 108 -65c-4 -24 -23 -49 -44 -60c-45 20 -87 45 -123 74c-24 -21 -107 -83 -222 -83
c-97 0 -179 51 -154 171c24 112 137 178 193 204c-13 54 -14 107 -3 156c21 101 88 169 197 169zM386 638c-55 0 -100 -38 -115 -113c-9 -42 -9 -85 1 -129c93 46 161 91 177 165c10 47 -11 77 -63 77zM193 50c76 0 137 39 162 56c-64 62 -109 137 -134 212
c-42 -22 -117 -71 -133 -148c-16 -74 26 -120 105 -120z" />
    <glyph glyph-name="aogonek" unicode="&#x105;" horiz-adv-x="553" 
d="M346 -139c21 0 38 8 38 8c8 -7 9 -19 6 -32c0 0 -31 -18 -68 -18c-60 0 -84 32 -73 81c8 40 46 82 97 108l7 62c-39 -50 -91 -80 -170 -80c-111 0 -175 85 -132 289s132 257 244 257c76 0 121 -30 140 -84l19 69s7 5 32 5s32 -5 32 -5l-110 -516
c-30 -9 -94 -41 -107 -103c-6 -27 10 -41 45 -41zM377 200l28 128c14 73 -19 147 -103 147c-97 0 -149 -54 -182 -212c-34 -158 -4 -212 93 -212c85 0 149 75 164 149z" />
    <glyph glyph-name="approxequal" unicode="&#x2248;" horiz-adv-x="539" 
d="M202 366c-48 0 -82 -37 -82 -37c-19 5 -28 20 -27 38c0 0 44 57 124 57c66 0 83 -51 146 -51c48 0 82 37 82 37c18 -6 28 -19 28 -37c0 0 -43 -58 -125 -58c-66 0 -83 51 -146 51zM166 198c-48 0 -82 -37 -82 -37c-19 6 -27 21 -27 38c0 0 45 58 125 58
c66 0 83 -51 146 -51c48 0 81 36 81 36c18 -5 28 -19 29 -37c0 0 -44 -58 -126 -58c-66 0 -83 51 -146 51z" />
    <glyph glyph-name="aring" unicode="&#xe5;" horiz-adv-x="554" 
d="M242 696c12 67 75 102 133 102c56 0 108 -34 96 -102c-13 -68 -72 -105 -135 -105c-64 0 -107 37 -94 105zM422 696c6 31 -9 60 -54 60c-43 0 -71 -30 -77 -60c-7 -32 8 -62 51 -62c45 0 73 31 80 62zM456 521c0 0 7 5 32 5s32 -5 32 -5l-110 -516s-13 -5 -31 -5
c-19 0 -29 5 -29 5l7 64c-39 -50 -90 -79 -169 -79c-122 0 -179 85 -136 289s128 257 245 257c76 0 121 -32 140 -81zM407 328c14 73 -19 147 -103 147c-97 0 -149 -54 -182 -212c-34 -158 -6 -212 91 -212c85 0 151 75 166 149z" />
    <glyph glyph-name="aringacute" unicode="&#x1fb;" horiz-adv-x="554" 
d="M322 823l120 108c24 2 48 -9 55 -22l-141 -107c-16 3 -28 11 -34 21zM239 679c12 67 74 101 132 101c56 0 109 -34 97 -101c-11 -67 -71 -104 -134 -104c-64 0 -106 37 -95 104zM419 679c7 30 -9 59 -54 59c-43 0 -71 -30 -77 -59c-6 -31 8 -61 51 -61c45 0 74 30 80 61z
M456 521c0 0 7 5 32 5s32 -5 32 -5l-110 -516s-13 -5 -31 -5c-19 0 -29 5 -29 5l7 64c-39 -50 -90 -79 -169 -79c-122 0 -179 85 -136 289s128 257 245 257c76 0 121 -32 140 -81zM407 328c14 73 -19 147 -103 147c-97 0 -149 -54 -182 -212c-34 -158 -6 -212 91 -212
c85 0 151 75 166 149z" />
    <glyph glyph-name="arrowdown" unicode="&#x2193;" horiz-adv-x="492" 
d="M285 612c6 2 16 4 27 4c12 0 20 -2 26 -4l-93 -437l189 156c14 -6 24 -19 25 -33l-260 -215l-169 215c7 14 22 27 40 33l122 -156z" />
    <glyph glyph-name="arrowleft" unicode="&#x2190;" horiz-adv-x="623" 
d="M51 350l261 215c13 -5 23 -17 26 -33l-189 -156h437c1 -5 1 -14 -2 -26c-2 -12 -6 -21 -9 -26h-437l123 -156c-10 -16 -25 -29 -40 -33z" />
    <glyph glyph-name="arrowright" unicode="&#x2192;" horiz-adv-x="621" 
d="M588 350l-259 -215c-14 4 -25 17 -27 33l189 156h-436c-1 5 -2 14 0 26c3 12 7 21 11 26h436l-123 156c9 16 25 28 41 33z" />
    <glyph glyph-name="arrowup" unicode="&#x2191;" horiz-adv-x="491" 
d="M312 616l169 -214c-7 -15 -23 -28 -39 -34l-123 156l-92 -436c-7 -3 -16 -5 -28 -5c-11 0 -20 3 -25 5l92 436l-188 -156c-16 6 -25 19 -26 34z" />
    <glyph glyph-name="asciicircum" unicode="^" horiz-adv-x="515" 
d="M379 715l119 -258s-10 -5 -31 -5s-33 5 -33 5l-98 212l-187 -212s-13 -5 -34 -5s-29 5 -29 5l229 258s11 5 33 5s31 -5 31 -5z" />
    <glyph glyph-name="asciitilde" unicode="~" horiz-adv-x="532" 
d="M181 289c-48 0 -81 -36 -81 -36c-19 5 -28 20 -27 38c0 0 44 57 124 57c66 0 83 -51 146 -51c48 0 82 36 82 36c18 -5 28 -19 28 -37c0 0 -43 -58 -125 -58c-66 0 -84 51 -147 51z" />
    <glyph glyph-name="asterisk" unicode="*" horiz-adv-x="344" 
d="M215 621l18 84c14 5 29 5 42 0l-18 -84l87 27c7 -10 7 -24 3 -40l-86 -26l37 -71c-11 -9 -25 -19 -41 -24l-36 69l-64 -69c-13 4 -24 14 -30 23l65 71l-74 27c4 16 11 30 22 40z" />
    <glyph glyph-name="at" unicode="@" horiz-adv-x="914" 
d="M849 303c-29 -137 -109 -218 -219 -218c-57 0 -93 21 -99 67c-30 -40 -76 -67 -143 -67c-89 0 -148 49 -117 193c31 146 110 194 199 194c59 0 92 -21 108 -52l10 48s12 6 33 6s29 -6 29 -6l-52 -248c-13 -59 4 -85 45 -85c60 0 121 50 146 168c42 197 -50 328 -256 328
c-201 0 -366 -134 -413 -352c-51 -241 84 -343 259 -343c102 0 206 34 288 80c15 -7 20 -20 17 -38c-106 -65 -217 -94 -326 -94c-204 0 -359 128 -303 395c53 248 256 401 488 401c245 0 354 -153 306 -377zM339 278c-24 -115 18 -145 79 -145s106 46 120 96l20 97
c10 51 -16 98 -78 98c-61 0 -115 -25 -141 -146z" />
    <glyph glyph-name="atilde" unicode="&#xe3;" horiz-adv-x="554" 
d="M219 666c3 4 29 45 80 45c53 0 72 -34 112 -34c29 0 46 19 50 26c14 -6 22 -19 22 -34c-2 -4 -28 -44 -78 -44c-54 0 -73 35 -113 35c-30 0 -52 -28 -52 -28c-14 9 -21 19 -21 34zM456 521c0 0 7 5 32 5s32 -5 32 -5l-110 -516s-13 -5 -31 -5c-19 0 -29 5 -29 5l7 64
c-39 -50 -90 -79 -169 -79c-122 0 -179 85 -136 289s128 257 245 257c76 0 121 -32 140 -81zM407 328c14 73 -19 147 -103 147c-97 0 -149 -54 -182 -212c-34 -158 -6 -212 91 -212c85 0 151 75 166 149z" />
    <glyph glyph-name="b" unicode="b" horiz-adv-x="555" 
d="M246 745l-60 -282c45 49 93 73 170 73c112 0 174 -79 131 -283s-130 -263 -247 -263c-72 0 -119 29 -138 78l-17 -63c-9 -3 -12 -5 -34 -5c-25 0 -34 5 -34 5l157 740s12 5 37 5s35 -5 35 -5zM415 263c33 158 -3 212 -96 212c-84 0 -144 -72 -161 -146l-28 -129
c-15 -74 19 -149 99 -149c98 0 152 54 186 212z" />
    <glyph glyph-name="backslash" unicode="\" horiz-adv-x="454" 
d="M191 744l168 -785s-13 -6 -39 -6c-24 0 -36 6 -36 6l-169 785s14 6 39 6s37 -6 37 -6z" />
    <glyph glyph-name="bar" unicode="|" horiz-adv-x="266" 
d="M199 785c0 0 11 5 37 5c24 0 35 -5 35 -5l-208 -977s-13 -5 -37 -5c-26 0 -35 5 -35 5z" />
    <glyph glyph-name="braceleft" unicode="{" horiz-adv-x="344" 
d="M354 810h58c1 -6 1 -16 -2 -29c-3 -12 -8 -23 -10 -29h-44c-55 0 -84 -28 -95 -77l-52 -245c-9 -45 -24 -75 -56 -95c24 -20 25 -51 16 -95l-52 -246c-11 -49 6 -77 61 -77h44c1 -6 1 -16 -2 -29c-3 -14 -7 -23 -10 -29h-58c-88 0 -121 53 -104 133l57 266
c6 27 -2 47 -32 47h-31c-1 6 -2 16 1 29c3 14 8 24 11 30h31c30 0 47 21 53 48l56 265c17 80 72 133 160 133z" />
    <glyph glyph-name="braceright" unicode="}" horiz-adv-x="344" 
d="M147 810h57c89 0 122 -53 105 -133l-56 -265c-6 -27 1 -48 31 -48h30c1 -6 2 -16 -1 -29c-3 -14 -7 -24 -11 -30h-30c-30 0 -46 -20 -52 -47l-57 -266c-17 -80 -72 -133 -161 -133h-57c-1 6 -2 16 1 28c3 13 8 24 11 30h43c56 0 84 28 95 77l52 246c9 44 25 75 55 94
c-22 20 -24 51 -15 96l52 245c11 49 -5 77 -61 77h-43c-1 6 -2 16 1 29c3 14 8 23 11 29z" />
    <glyph glyph-name="bracketleft" unicode="[" horiz-adv-x="322" 
d="M205 810h185s2 -10 -2 -30s-10 -29 -10 -29h-116l-184 -862h116s2 -10 -2 -29c-4 -21 -10 -30 -10 -30h-185z" />
    <glyph glyph-name="bracketright" unicode="]" horiz-adv-x="322" 
d="M124 -170h-184s-3 9 1 30c4 19 11 29 11 29h115l184 862h-115s-3 9 1 29s11 30 11 30h184z" />
    <glyph glyph-name="breve" unicode="&#x2d8;" horiz-adv-x="324" 
d="M292 674c0 0 -60 -60 -155 -60c-94 0 -129 60 -129 60c9 16 23 30 41 36c0 0 34 -37 101 -37s117 37 117 37c16 -6 24 -19 25 -36z" />
    <glyph glyph-name="brokenbar" unicode="&#xa6;" horiz-adv-x="256" 
d="M145 561c0 0 12 5 38 5c24 0 36 -5 36 -5l-110 -519s-14 -5 -38 -5c-26 0 -36 5 -36 5z" />
    <glyph glyph-name="bullet" unicode="&#x2022;" horiz-adv-x="317" 
d="M215 282c-8 -37 -39 -61 -75 -61c-35 0 -57 24 -49 61c8 38 40 62 75 62c36 0 57 -24 49 -62z" />
    <glyph glyph-name="c" unicode="c" horiz-adv-x="443" 
d="M318 475c-107 0 -168 -70 -198 -212c-31 -143 4 -209 112 -209c47 0 80 9 101 19c12 -11 21 -32 17 -53c-27 -14 -63 -30 -143 -30c-143 0 -196 110 -158 288s129 258 269 258c87 0 121 -24 121 -24c-4 -21 -16 -41 -31 -54c0 0 -34 17 -90 17z" />
    <glyph glyph-name="cacute" unicode="&#x107;" horiz-adv-x="443" 
d="M443 746l-155 -142c-19 2 -33 13 -38 27l135 144c25 2 51 -10 58 -29zM318 475c-107 0 -168 -70 -198 -212c-31 -143 4 -209 112 -209c47 0 80 9 101 19c12 -11 21 -32 17 -53c-27 -14 -63 -30 -143 -30c-143 0 -196 110 -158 288s129 258 269 258c87 0 121 -24 121 -24
c-4 -21 -16 -41 -31 -54c0 0 -34 17 -90 17z" />
    <glyph glyph-name="caron" unicode="&#x2c7;" horiz-adv-x="404" 
d="M149 550l-109 108c9 17 24 30 41 35l95 -79l127 78c14 -4 23 -18 27 -34l-155 -108h-26z" />
    <glyph glyph-name="ccaron" unicode="&#x10d;" horiz-adv-x="443" 
d="M329 603l-111 99c9 15 23 27 39 33l87 -73l116 72c13 -5 20 -17 24 -32l-132 -99h-23zM318 475c-107 0 -168 -70 -198 -212c-31 -143 4 -209 112 -209c47 0 80 9 101 19c12 -11 21 -32 17 -53c-27 -14 -63 -30 -143 -30c-143 0 -196 110 -158 288s129 258 269 258
c87 0 121 -24 121 -24c-4 -21 -16 -41 -31 -54c0 0 -34 17 -90 17z" />
    <glyph glyph-name="ccedilla" unicode="&#xe7;" horiz-adv-x="440" 
d="M197 -10l-18 -48c77 0 100 -35 89 -89c-14 -66 -62 -95 -137 -95c-55 0 -86 23 -86 23c4 15 13 28 25 35c5 -3 31 -16 66 -16c42 0 72 13 81 54c7 33 -9 51 -51 51h-35l-8 11l30 78c-104 20 -136 129 -103 285c38 178 127 257 267 257c87 0 121 -24 121 -24
c-4 -20 -17 -39 -33 -52c0 0 -32 17 -88 17c-107 0 -168 -72 -198 -214c-31 -143 4 -212 112 -212c58 0 101 20 101 20c11 -11 16 -30 12 -51c0 0 -50 -29 -147 -30z" />
    <glyph glyph-name="ccircumflex" unicode="&#x109;" horiz-adv-x="443" 
d="M355 742l116 -104c-11 -16 -25 -29 -42 -34l-91 77l-125 -77c-15 6 -23 18 -26 34l143 104h25zM318 475c-107 0 -168 -70 -198 -212c-31 -143 4 -209 112 -209c47 0 80 9 101 19c12 -11 21 -32 17 -53c-27 -14 -63 -30 -143 -30c-143 0 -196 110 -158 288
s129 258 269 258c87 0 121 -24 121 -24c-4 -21 -16 -41 -31 -54c0 0 -34 17 -90 17z" />
    <glyph glyph-name="cdotaccent" unicode="&#x10b;" horiz-adv-x="443" 
d="M383 709l-15 -68s-14 -5 -39 -5c-26 0 -37 5 -37 5l15 68s13 4 39 4c25 0 37 -4 37 -4zM318 475c-107 0 -168 -70 -198 -212c-31 -143 4 -209 112 -209c47 0 80 9 101 19c12 -11 21 -32 17 -53c-27 -14 -63 -30 -143 -30c-143 0 -196 110 -158 288s129 258 269 258
c87 0 121 -24 121 -24c-4 -21 -16 -41 -31 -54c0 0 -34 17 -90 17z" />
    <glyph glyph-name="cedilla" unicode="&#xb8;" horiz-adv-x="296" 
d="M-29 45l41 -9l-25 -62c77 0 101 -37 89 -92c-14 -66 -63 -99 -138 -99c-55 0 -85 23 -85 23c3 15 13 28 24 35c6 -3 32 -16 67 -16c42 0 72 17 81 58c7 33 -9 52 -51 52h-35l-7 12z" />
    <glyph glyph-name="cent" unicode="&#xa2;" horiz-adv-x="461" 
d="M310 627c3 1 18 6 34 6c17 0 27 -5 29 -6l-25 -92c69 -3 98 -23 98 -23c-4 -20 -17 -39 -33 -52c0 0 -32 17 -88 17c-107 0 -168 -72 -198 -214c-31 -143 4 -212 112 -212c58 0 101 20 101 20c11 -11 16 -30 12 -51c0 0 -44 -25 -120 -29l-14 -92c-3 -2 -16 -7 -33 -7
c-16 0 -28 5 -30 7l25 93c-118 11 -163 105 -128 271s120 259 243 271z" />
    <glyph glyph-name="circumflex" unicode="&#x2c6;" horiz-adv-x="396" 
d="M208 704l109 -108c-11 -16 -26 -30 -42 -34l-95 78l-127 -79c-15 6 -24 19 -26 35l155 108h26z" />
    <glyph glyph-name="colon" unicode=":" horiz-adv-x="234" 
d="M193 473l-15 -73s-15 -5 -42 -5c-28 0 -40 5 -40 5l15 73s15 5 43 5c27 0 39 -5 39 -5zM110 78l-16 -73s-15 -5 -42 -5c-28 0 -40 5 -40 5l16 73s14 5 42 5c27 0 40 -5 40 -5z" />
    <glyph glyph-name="comma" unicode="," horiz-adv-x="226" 
d="M5 -112l-24 19s38 33 55 93c-18 1 -25 5 -25 5l16 73s15 5 41 5c27 0 40 -5 40 -5l-11 -50c-20 -93 -92 -140 -92 -140z" />
    <glyph glyph-name="commaaccentcomb" unicode="&#xf6c3;" horiz-adv-x="0" 
d="M-107 -112l-24 19s38 33 55 93c-18 1 -25 5 -25 5l16 73s13 5 41 5c27 0 40 -5 40 -5l-11 -50c-20 -93 -92 -140 -92 -140z" />
    <glyph glyph-name="commaaccentcomb.alt" horiz-adv-x="0" 
d="M101 720l24 -20s-38 -32 -56 -93c19 -1 27 -4 27 -4l-15 -73s-15 -6 -43 -6c-26 0 -38 6 -38 6l10 50c20 92 91 140 91 140z" />
    <glyph glyph-name="copyright" unicode="&#xa9;" horiz-adv-x="803" 
d="M337 -1c-189 0 -309 152 -269 341s225 341 414 341s308 -152 268 -341s-224 -341 -413 -341zM471 630c-160 0 -319 -130 -353 -290s69 -291 229 -291c161 0 318 131 352 291s-67 290 -228 290zM370 147c-114 0 -156 72 -129 200c28 131 100 199 214 199
c66 0 98 -22 98 -22c-3 -17 -11 -30 -26 -41c0 0 -35 17 -75 17c-80 0 -130 -41 -154 -153c-23 -107 12 -151 90 -151c44 0 85 14 85 14c12 -9 13 -25 10 -40c0 0 -44 -23 -113 -23z" />
    <glyph glyph-name="currency" unicode="&#xa4;" horiz-adv-x="590" 
d="M431 39l-58 74c-38 -25 -83 -40 -128 -40s-83 15 -111 40l-89 -74s-12 1 -22 15c-10 13 -8 24 -8 24l90 74c-18 32 -25 74 -15 119c9 44 34 86 66 119l-59 74s4 12 19 25c17 13 28 13 28 13l58 -73c38 25 83 40 128 40c44 0 82 -16 109 -41l90 74s10 0 21 -13
c10 -13 9 -25 9 -25l-89 -74c18 -33 25 -74 16 -119c-10 -45 -35 -87 -67 -120l59 -73s-3 -12 -19 -25c-16 -14 -28 -14 -28 -14zM318 415c-80 0 -157 -63 -174 -144c-18 -81 33 -144 113 -144c81 0 157 63 175 144c17 81 -33 144 -114 144z" />
    <glyph glyph-name="d" unicode="d" horiz-adv-x="554" 
d="M496 745c0 0 12 5 37 5s35 -5 35 -5l-157 -740s-13 -5 -31 -5c-19 0 -31 5 -31 5l7 61c-39 -50 -95 -76 -174 -76c-106 0 -173 84 -130 288s132 258 246 258c67 0 118 -29 137 -78zM408 328c14 73 -24 147 -99 147c-94 0 -153 -54 -186 -212c-34 -158 -1 -212 96 -212
c85 0 146 75 161 149z" />
    <glyph glyph-name="dagger" unicode="&#x2020;" horiz-adv-x="565" 
d="M193 -127l-28 20l121 537l-230 -7s-2 12 2 30c4 19 10 29 10 29l228 -6l40 221s14 4 33 4s30 -4 30 -4l-54 -221l226 6s2 -11 -2 -29s-10 -30 -10 -30l-224 7l-107 -537z" />
    <glyph glyph-name="daggerdbl" unicode="&#x2021;" horiz-adv-x="626" 
d="M305 149l230 7s2 -11 -2 -30c-5 -20 -10 -29 -10 -29l-228 7l-40 -222s-13 -4 -33 -4s-30 4 -30 4l54 222l-229 -7s-2 11 2 29c4 19 10 30 10 30l227 -7l22 140l37 141l-230 -7s-2 11 2 30c4 20 10 29 10 29l228 -6l40 221s13 4 33 4s30 -4 30 -4l-54 -221l229 6
s2 -11 -2 -29c-4 -19 -10 -30 -10 -30l-227 7l-23 -141z" />
    <glyph glyph-name="dcaron" unicode="&#x10f;" horiz-adv-x="567" 
d="M587 601c49 42 71 86 80 147c26 6 49 4 62 -7c-15 -62 -58 -129 -112 -159c-16 2 -26 8 -30 19zM496 745c0 0 12 5 37 5s35 -5 35 -5l-157 -740s-13 -5 -31 -5c-19 0 -31 5 -31 5l7 61c-39 -50 -95 -76 -174 -76c-106 0 -173 84 -130 288s132 258 246 258
c67 0 118 -29 137 -78zM408 328c14 73 -24 147 -99 147c-94 0 -153 -54 -186 -212c-34 -158 -1 -212 96 -212c85 0 146 75 161 149z" />
    <glyph glyph-name="dcroat" unicode="&#x111;" horiz-adv-x="554" 
d="M551 668h70s1 -8 -2 -24c-4 -16 -8 -24 -8 -24h-71l-130 -615s-13 -5 -31 -5c-19 0 -31 5 -31 5l7 61c-39 -50 -95 -76 -174 -76c-106 0 -173 84 -130 288s132 258 246 258c67 0 118 -29 137 -78l34 162h-114s-3 8 1 24c3 16 9 24 9 24h115l16 77s12 5 37 5s35 -5 35 -5z
M379 200l28 128c14 73 -24 147 -99 147c-94 0 -153 -54 -186 -212c-34 -158 -1 -212 96 -212c85 0 146 75 161 149z" />
    <glyph glyph-name="degree" unicode="&#xb0;" horiz-adv-x="354" 
d="M118 617c13 61 70 124 152 124c81 0 109 -61 97 -121c-13 -61 -67 -121 -148 -121c-85 0 -114 58 -101 118zM324 619c8 42 -8 82 -63 82s-91 -42 -100 -83c-8 -40 8 -80 65 -80c55 0 89 40 98 81z" />
    <glyph glyph-name="dieresis" unicode="&#xa8;" horiz-adv-x="455" 
d="M173 681l-14 -65s-13 -5 -37 -5c-25 0 -36 5 -36 5l14 65s13 5 38 5c24 0 35 -5 35 -5zM331 681l-14 -65s-13 -5 -37 -5c-25 0 -36 5 -36 5l14 65s13 5 38 5c24 0 35 -5 35 -5z" />
    <glyph glyph-name="divide" unicode="&#xf7;" horiz-adv-x="542" 
d="M350 488l-16 -73s-15 -5 -42 -5c-28 0 -40 5 -40 5l16 73s14 5 42 5c27 0 40 -5 40 -5zM460 262h-398s-3 10 1 28c3 18 11 28 11 28h398s1 -10 -2 -28c-4 -18 -10 -28 -10 -28zM281 165l-15 -73s-16 -5 -43 -5c-28 0 -39 5 -39 5l15 73s14 5 42 5c27 0 40 -5 40 -5z" />
    <glyph glyph-name="dollar" unicode="$" horiz-adv-x="557" 
d="M349 784c0 0 13 5 34 5c22 0 33 -5 33 -5l-33 -116c101 -3 161 -24 161 -24c-1 -3 -2 -15 -11 -30c-8 -15 -18 -23 -22 -25c0 0 -60 20 -146 20c-112 0 -177 -39 -193 -113c-36 -172 364 -68 312 -312c-22 -106 -107 -171 -242 -181l-19 -127s-11 -5 -34 -5
c-22 0 -33 5 -33 5l33 126c-116 2 -186 36 -186 36c0 2 1 13 8 29c9 16 19 25 21 26c0 0 85 -27 179 -27c109 0 179 34 196 114c40 185 -360 73 -310 309c22 102 104 167 234 177z" />
    <glyph glyph-name="dotaccent" unicode="&#x2d9;" horiz-adv-x="176" 
d="M116 676l-15 -68s-14 -5 -39 -5c-26 0 -37 5 -37 5l15 68s13 5 39 5c25 0 37 -5 37 -5z" />
    <glyph glyph-name="dotlessi" unicode="&#x131;" horiz-adv-x="239" 
d="M202 521l-110 -516s-13 -5 -37 -5c-26 0 -35 5 -35 5l110 516s11 5 37 5c24 0 35 -5 35 -5z" />
    <glyph glyph-name="dotlessj" unicode="&#x237;" horiz-adv-x="239" 
d="M-1 -92l131 613s11 5 37 5c24 0 35 -5 35 -5l-130 -609c-23 -109 -85 -162 -174 -162c-42 0 -60 9 -60 9s-2 7 0 17c6 25 16 37 16 37s15 -4 39 -4c56 0 92 29 106 99z" />
    <glyph glyph-name="e" unicode="e" horiz-adv-x="505" 
d="M431 240h-317c-22 -137 18 -186 115 -186c76 0 129 33 129 33c12 -11 21 -33 17 -54c0 0 -66 -43 -173 -43c-144 0 -191 110 -153 291c41 189 146 255 268 255c109 0 172 -73 147 -194c-14 -62 -33 -102 -33 -102zM397 351c14 68 -7 126 -93 126
c-80 0 -145 -53 -179 -183h255c3 5 10 26 17 57z" />
    <glyph glyph-name="eacute" unicode="&#xe9;" horiz-adv-x="505" 
d="M448 746l-155 -139c-19 2 -33 10 -38 24l135 144c25 2 51 -10 58 -29zM431 240h-317c-22 -137 18 -186 115 -186c76 0 129 33 129 33c12 -11 21 -33 17 -54c0 0 -66 -43 -173 -43c-144 0 -191 110 -153 291c41 189 146 255 268 255c109 0 172 -73 147 -194
c-14 -62 -33 -102 -33 -102zM397 351c14 68 -7 126 -93 126c-80 0 -145 -53 -179 -183h255c3 5 10 26 17 57z" />
    <glyph glyph-name="ebreve" unicode="&#x115;" horiz-adv-x="505" 
d="M487 680c0 0 -52 -59 -147 -59c-94 0 -137 59 -137 59c9 16 23 30 41 36c0 0 34 -37 101 -37s117 37 117 37c16 -6 24 -19 25 -36zM431 240h-317c-22 -137 18 -186 115 -186c76 0 129 33 129 33c12 -11 21 -33 17 -54c0 0 -66 -43 -173 -43c-144 0 -191 110 -153 291
c41 189 146 255 268 255c109 0 172 -73 147 -194c-14 -62 -33 -102 -33 -102zM397 351c14 68 -7 126 -93 126c-80 0 -145 -53 -179 -183h255c3 5 10 26 17 57z" />
    <glyph glyph-name="ecaron" unicode="&#x11b;" horiz-adv-x="505" 
d="M324 604l-112 101c9 15 23 28 40 33l90 -76l121 75c14 -4 22 -17 25 -32l-139 -101h-25zM431 240h-317c-22 -137 18 -186 115 -186c76 0 129 33 129 33c12 -11 21 -33 17 -54c0 0 -66 -43 -173 -43c-144 0 -191 110 -153 291c41 189 146 255 268 255
c109 0 172 -73 147 -194c-14 -62 -33 -102 -33 -102zM397 351c14 68 -7 126 -93 126c-80 0 -145 -53 -179 -183h255c3 5 10 26 17 57z" />
    <glyph glyph-name="ecircumflex" unicode="&#xea;" horiz-adv-x="505" 
d="M366 741l112 -105c-10 -15 -24 -29 -41 -33l-92 76l-124 -77c-16 6 -23 18 -27 34l147 105h25zM431 240h-317c-22 -137 18 -186 115 -186c76 0 129 33 129 33c12 -11 21 -33 17 -54c0 0 -66 -43 -173 -43c-144 0 -191 110 -153 291c41 189 146 255 268 255
c109 0 172 -73 147 -194c-14 -62 -33 -102 -33 -102zM397 351c14 68 -7 126 -93 126c-80 0 -145 -53 -179 -183h255c3 5 10 26 17 57z" />
    <glyph glyph-name="edieresis" unicode="&#xeb;" horiz-adv-x="505" 
d="M307 695l-14 -65s-14 -5 -38 -5c-25 0 -35 5 -35 5l14 65s12 5 37 5c24 0 36 -5 36 -5zM465 695l-14 -65s-14 -5 -38 -5c-25 0 -35 5 -35 5l14 65s12 5 37 5c24 0 36 -5 36 -5zM431 240h-317c-22 -137 18 -186 115 -186c76 0 129 33 129 33c12 -11 21 -33 17 -54
c0 0 -66 -43 -173 -43c-144 0 -191 110 -153 291c41 189 146 255 268 255c109 0 172 -73 147 -194c-14 -62 -33 -102 -33 -102zM397 351c14 68 -7 126 -93 126c-80 0 -145 -53 -179 -183h255c3 5 10 26 17 57z" />
    <glyph glyph-name="edotaccent" unicode="&#x117;" horiz-adv-x="505" 
d="M390 704l-15 -68s-14 -5 -39 -5c-26 0 -37 5 -37 5l15 68s13 5 39 5c25 0 37 -5 37 -5zM431 240h-317c-22 -137 18 -186 115 -186c76 0 129 33 129 33c12 -11 21 -33 17 -54c0 0 -66 -43 -173 -43c-144 0 -191 110 -153 291c41 189 146 255 268 255
c109 0 172 -73 147 -194c-14 -62 -33 -102 -33 -102zM397 351c14 68 -7 126 -93 126c-80 0 -145 -53 -179 -183h255c3 5 10 26 17 57z" />
    <glyph glyph-name="egrave" unicode="&#xe8;" horiz-adv-x="505" 
d="M345 607l-95 139c14 17 46 31 70 29l73 -144c-12 -14 -29 -22 -48 -24zM431 240h-317c-22 -137 18 -186 115 -186c76 0 129 33 129 33c12 -11 21 -33 17 -54c0 0 -66 -43 -173 -43c-144 0 -191 110 -153 291c41 189 146 255 268 255c109 0 172 -73 147 -194
c-14 -62 -33 -102 -33 -102zM397 351c14 68 -7 126 -93 126c-80 0 -145 -53 -179 -183h255c3 5 10 26 17 57z" />
    <glyph glyph-name="eight" unicode="8" horiz-adv-x="583" 
d="M221 -10c-143 0 -208 84 -186 189c23 107 121 155 175 182c-56 34 -93 94 -75 178c21 101 110 151 237 151c125 0 190 -74 168 -174c-20 -94 -95 -136 -145 -163c66 -36 117 -99 96 -198c-23 -111 -119 -165 -270 -165zM360 631c-83 0 -143 -39 -156 -101
c-19 -87 64 -117 145 -154c39 23 106 70 122 147c15 70 -28 108 -111 108zM237 49c99 0 167 49 181 118c21 98 -76 128 -164 169c-30 -16 -129 -73 -149 -168c-15 -69 26 -119 132 -119z" />
    <glyph glyph-name="eight.denom" horiz-adv-x="323" 
d="M41 262c10 51 57 86 130 86c68 0 103 -31 92 -85c-9 -41 -39 -69 -69 -86c31 -18 54 -42 44 -87c-13 -60 -65 -95 -142 -95c-73 0 -116 31 -102 93c9 46 46 76 81 94c-26 17 -43 40 -34 80zM215 260c7 32 -11 50 -53 50c-39 0 -66 -18 -72 -46c-8 -39 31 -53 70 -70
c28 16 49 37 55 66zM188 87c10 45 -42 59 -80 78c-13 -7 -57 -32 -66 -74c-8 -39 16 -56 64 -56c40 0 75 17 82 52z" />
    <glyph glyph-name="eight.num" horiz-adv-x="323" 
d="M114 608c11 51 57 86 130 86c68 0 104 -31 92 -85c-8 -41 -38 -69 -69 -86c31 -18 54 -42 45 -87c-13 -60 -66 -95 -143 -95c-73 0 -115 31 -102 93c10 46 46 76 81 94c-25 17 -42 40 -34 80zM289 606c7 32 -12 50 -54 50c-39 0 -65 -18 -71 -46c-9 -39 30 -53 70 -70
c27 16 49 37 55 66zM262 433c10 45 -42 59 -80 78c-14 -7 -57 -32 -66 -74c-8 -39 16 -56 64 -56c40 0 75 17 82 52z" />
    <glyph glyph-name="eightinferior" unicode="&#x2088;" horiz-adv-x="323" 
d="M20 166c11 51 58 86 131 86c68 0 103 -31 91 -85c-8 -41 -38 -69 -69 -86c31 -18 54 -42 45 -87c-13 -60 -66 -95 -143 -95c-73 0 -115 31 -102 93c10 46 46 76 81 94c-25 17 -42 40 -34 80zM195 164c7 32 -12 50 -54 50c-39 0 -65 -18 -71 -46c-9 -39 30 -53 70 -70
c27 16 49 37 55 66zM168 -9c10 45 -42 59 -80 78c-14 -7 -57 -32 -66 -74c-8 -39 16 -56 64 -56c40 0 75 17 82 52z" />
    <glyph glyph-name="ellipsis" unicode="&#x2026;" horiz-adv-x="587" 
d="M108 78l-16 -73s-15 -5 -42 -5c-28 0 -40 5 -40 5l16 73s14 5 42 5c27 0 40 -5 40 -5zM289 78l-16 -73s-15 -5 -41 -5c-28 0 -40 5 -40 5l16 73s14 5 42 5c26 0 39 -5 39 -5zM470 78l-16 -73s-15 -5 -42 -5c-28 0 -39 5 -39 5l16 73s13 5 41 5c27 0 40 -5 40 -5z" />
    <glyph glyph-name="emacron" unicode="&#x113;" horiz-adv-x="505" 
d="M457 647h-249c-2 15 2 34 10 49h249c2 -14 -1 -36 -10 -49zM431 240h-317c-22 -137 18 -186 115 -186c76 0 129 33 129 33c12 -11 21 -33 17 -54c0 0 -66 -43 -173 -43c-144 0 -191 110 -153 291c41 189 146 255 268 255c109 0 172 -73 147 -194
c-14 -62 -33 -102 -33 -102zM397 351c14 68 -7 126 -93 126c-80 0 -145 -53 -179 -183h255c3 5 10 26 17 57z" />
    <glyph glyph-name="emdash" unicode="&#x2014;" horiz-adv-x="830" 
d="M729 262h-647s-3 10 1 28c3 18 11 28 11 28h647s1 -10 -2 -28c-4 -18 -10 -28 -10 -28z" />
    <glyph glyph-name="endash" unicode="&#x2013;" horiz-adv-x="580" 
d="M479 262h-397s-3 10 1 28c3 18 11 28 11 28h397s1 -10 -2 -28c-4 -18 -10 -28 -10 -28z" />
    <glyph glyph-name="eng" unicode="&#x14b;" horiz-adv-x="551" 
d="M185 458c50 49 103 78 173 78c98 0 150 -66 130 -162l-90 -422c-20 -96 -60 -151 -156 -180c-13 11 -18 31 -12 53c55 18 80 52 96 126l89 421c15 69 -14 104 -86 104c-55 0 -117 -34 -159 -91l-81 -380s-13 -5 -37 -5c-25 0 -35 5 -35 5l110 516s12 5 37 5
c24 0 35 -5 35 -5z" />
    <glyph glyph-name="eogonek" unicode="&#x119;" horiz-adv-x="507" 
d="M49 277c41 183 141 259 269 259c115 0 174 -73 149 -194c-14 -62 -33 -102 -33 -102h-319c-22 -137 18 -186 115 -186c76 0 129 33 129 33c12 -11 19 -32 15 -53c0 0 -33 -23 -89 -35c-55 -14 -97 -52 -107 -99c-8 -34 16 -39 47 -39c21 0 38 8 38 8c8 -7 9 -20 6 -34
c0 0 -31 -17 -68 -17c-55 0 -89 22 -78 74c8 38 32 76 69 98c-135 5 -182 111 -143 287zM400 351c14 68 -9 126 -95 126c-80 0 -145 -53 -179 -183h257c3 5 10 26 17 57z" />
    <glyph glyph-name="equal" unicode="=" horiz-adv-x="515" 
d="M439 349h-346c-1 19 3 39 12 56h346c1 -17 -3 -38 -12 -56zM402 174h-346c-1 20 3 40 12 57h346c1 -18 -3 -39 -12 -57z" />
    <glyph glyph-name="estimated" unicode="&#x212e;" horiz-adv-x="805" 
d="M554 95h67c-78 -68 -174 -105 -276 -105c-194 0 -319 158 -277 352c41 194 232 352 426 352s319 -158 278 -352l-5 -24h-544l-47 -218c47 -41 109 -67 178 -67c68 0 138 24 200 62zM663 583c-45 43 -108 68 -178 68c-69 0 -142 -25 -206 -67l-47 -222h384z" />
    <glyph glyph-name="eth" unicode="&#xf0;" horiz-adv-x="554" 
d="M496 696l-69 -38c72 -76 100 -194 66 -351c-51 -243 -144 -317 -284 -317c-132 0 -202 90 -161 279c40 189 133 245 257 245c62 0 117 -28 137 -71c-1 71 -26 135 -73 182l-109 -60c-13 8 -24 24 -24 39l93 51c-30 21 -67 37 -110 46c2 19 10 40 25 53
c57 -10 106 -35 146 -64l88 49c12 -10 18 -25 18 -43zM215 47c84 0 152 46 186 205c34 162 -17 204 -104 204c-84 0 -146 -45 -179 -204c-34 -159 13 -205 97 -205z" />
    <glyph glyph-name="exclam" unicode="!" horiz-adv-x="260" 
d="M75 176l103 539s9 5 40 5c30 0 38 -5 38 -5l-127 -539s-10 -6 -28 -6s-26 6 -26 6zM121 78l-16 -73s-13 -5 -40 -5c-28 0 -38 5 -38 5l16 73s12 5 40 5c27 0 38 -5 38 -5z" />
    <glyph glyph-name="exclamdown" unicode="&#xa1;" horiz-adv-x="249" 
d="M128 513c0 0 15 5 42 5c28 0 40 -5 40 -5l-16 -73s-14 -5 -42 -5c-27 0 -40 5 -40 5zM106 342c0 0 10 5 28 5c17 0 26 -5 26 -5l-103 -539s-9 -5 -40 -5c-30 0 -38 5 -38 5z" />
    <glyph glyph-name="f" unicode="f" horiz-adv-x="346" 
d="M166 586c20 97 70 164 192 164c60 0 99 -17 99 -17c-5 -21 -15 -39 -31 -53c0 0 -28 11 -74 11c-74 0 -100 -35 -113 -100l-14 -65h141c0 -7 1 -16 -1 -29c-3 -12 -8 -21 -11 -28h-141l-99 -464s-12 -5 -37 -5s-35 5 -35 5l99 464h-68c-1 7 -1 16 2 29s6 22 10 28h68z
" />
    <glyph glyph-name="five" unicode="5" horiz-adv-x="523" 
d="M230 615l-48 -226c5 1 33 5 70 5c156 0 214 -80 186 -215c-28 -129 -120 -189 -292 -189c-111 0 -154 30 -154 30c2 19 15 42 31 54c0 0 51 -21 128 -21c121 0 192 41 213 138c18 89 -12 141 -150 141c-50 0 -101 -7 -117 -8l75 356h342c3 -22 -2 -45 -13 -65h-271z" />
    <glyph glyph-name="five.denom" horiz-adv-x="299" 
d="M106 299l-19 -88c99 0 149 -28 132 -109c-16 -73 -70 -107 -159 -107c-56 0 -87 17 -87 17c1 13 8 27 20 36c0 0 31 -11 71 -11c63 0 95 22 103 64c12 53 -19 67 -95 67h-42l37 175h184c3 -14 -2 -31 -9 -44h-136z" />
    <glyph glyph-name="five.num" horiz-adv-x="299" 
d="M179 645l-19 -88c99 0 149 -28 132 -109c-15 -73 -70 -107 -159 -107c-56 0 -87 17 -87 17c2 13 9 27 21 36c0 0 30 -11 70 -11c63 0 95 22 104 64c11 53 -20 67 -96 67h-42l37 175h184c3 -14 -1 -31 -9 -44h-136z" />
    <glyph glyph-name="fiveeighths" unicode="&#x215d;" horiz-adv-x="753" 
d="M623 697c0 0 9 5 28 5s26 -5 26 -5l-536 -703s-11 -4 -29 -4c-16 0 -26 4 -26 4zM152 689h185c2 -14 -1 -31 -9 -44h-137l-19 -88c99 0 150 -28 133 -109c-15 -73 -70 -107 -159 -107c-56 0 -87 17 -87 17c2 13 9 27 20 36c0 0 31 -11 70 -11c64 0 95 22 104 64
c11 53 -20 67 -95 67h-43zM466 262c10 51 57 86 130 86c68 0 103 -31 92 -85c-9 -41 -39 -69 -69 -86c31 -18 54 -42 44 -87c-13 -60 -65 -95 -142 -95c-73 0 -116 31 -102 93c9 46 46 76 81 94c-26 17 -43 40 -34 80zM640 260c7 32 -11 50 -53 50c-39 0 -66 -18 -72 -46
c-8 -39 31 -53 70 -70c28 16 49 37 55 66zM613 87c10 45 -42 59 -80 78c-13 -7 -57 -32 -66 -74c-8 -39 16 -56 64 -56c40 0 75 17 82 52z" />
    <glyph glyph-name="fiveinferior" unicode="&#x2085;" horiz-adv-x="298" 
d="M85 203l-19 -88c99 0 149 -28 132 -109c-15 -73 -70 -107 -159 -107c-56 0 -87 17 -87 17c2 13 9 27 21 36c0 0 30 -11 70 -11c63 0 95 22 104 64c11 53 -20 67 -96 67h-42l37 175h184c3 -14 -1 -31 -9 -44h-136z" />
    <glyph glyph-name="florin" unicode="&#x192;" horiz-adv-x="452" 
d="M267 407l-121 -394c-33 -102 -86 -154 -184 -154c-54 0 -90 21 -90 21c4 19 13 35 30 48c0 0 29 -11 68 -11c49 0 83 22 105 93l123 397h-89s-2 10 1 28c4 16 11 26 11 26h94l24 76c32 103 83 154 181 154c58 0 91 -18 91 -18c-4 -20 -13 -35 -28 -49c0 0 -31 11 -71 11
c-50 0 -81 -24 -103 -96l-24 -78h93s3 -10 -1 -27c-3 -17 -11 -27 -11 -27h-99z" />
    <glyph glyph-name="four" unicode="4" horiz-adv-x="575" 
d="M25 236l416 438s13 6 39 6c24 0 34 -6 34 -6l-93 -438h96s4 -10 0 -30c-5 -20 -12 -29 -12 -29h-96l-37 -171s-14 -6 -36 -6c-23 0 -34 6 -34 6l37 171h-326s-5 9 0 29c4 20 12 30 12 30zM423 576l-322 -340h250z" />
    <glyph glyph-name="four.denom" horiz-adv-x="326" 
d="M212 128h40c1 -5 2 -12 0 -20c-2 -9 -5 -15 -8 -19h-40l-18 -86c-7 -1 -14 -3 -23 -3s-17 2 -21 3l18 86h-176c0 4 -1 10 0 16c2 7 5 12 7 16l218 218c5 2 14 4 25 4c10 0 18 -2 23 -4zM200 280l-152 -152h120z" />
    <glyph glyph-name="four.num" horiz-adv-x="326" 
d="M286 474h40c1 -5 1 -12 -1 -20c-1 -9 -5 -15 -8 -19h-40l-18 -86c-6 -1 -13 -3 -22 -3s-17 2 -22 3l18 86h-176c0 4 0 10 1 16c1 7 4 12 6 16l219 218c5 2 13 4 24 4c10 0 19 -2 24 -4zM274 626l-152 -152h120z" />
    <glyph glyph-name="fourinferior" unicode="&#x2084;" horiz-adv-x="326" 
d="M192 32h40c1 -5 1 -12 0 -20c-2 -9 -6 -15 -9 -19h-40l-18 -86c-6 -1 -13 -3 -22 -3s-17 2 -22 3l18 86h-176c0 4 0 10 1 16c1 7 4 12 6 16l219 218c5 2 13 4 24 4c10 0 19 -2 24 -4zM180 184l-152 -152h120z" />
    <glyph glyph-name="fraction" unicode="&#x2044;" horiz-adv-x="131" 
d="M-225 -5l536 702s11 5 31 5s29 -5 29 -5l-537 -702s-12 -5 -31 -5c-18 0 -28 5 -28 5z" />
    <glyph glyph-name="g" unicode="g" horiz-adv-x="555" 
d="M345 26l9 36c-38 -46 -93 -72 -173 -72c-107 0 -173 84 -130 288s129 258 246 258c80 0 118 -32 137 -79l17 64s9 5 34 5s35 -5 35 -5l-106 -495c-39 -187 -111 -276 -284 -276c-93 0 -141 31 -141 31c5 20 16 39 32 51c0 0 51 -21 115 -21c111 0 169 36 209 215z
M122 263c-34 -158 9 -212 96 -212c90 0 145 82 160 144l29 134c12 63 -7 146 -99 146c-97 0 -153 -54 -186 -212z" />
    <glyph glyph-name="g.alt" horiz-adv-x="520" 
d="M130 204c-52 27 -73 91 -58 165c24 109 103 167 224 167c43 0 77 -9 103 -24l141 23c3 -17 -2 -43 -13 -60l-91 -3c16 -28 20 -74 10 -120c-23 -109 -97 -167 -220 -167c-19 0 -38 1 -52 5c-16 -17 -42 -43 -49 -74c-25 -116 320 -4 277 -216
c-19 -93 -109 -150 -271 -150c-128 0 -199 63 -179 158c17 79 85 112 114 128c-11 14 -20 38 -14 64c9 43 37 71 78 104zM285 483c-70 0 -127 -40 -144 -122c-18 -83 22 -123 92 -123c71 0 126 40 144 123c17 82 -21 122 -92 122zM144 -193c111 0 178 40 192 102
c21 102 -146 74 -231 105c-43 -26 -74 -67 -83 -108c-13 -59 35 -99 122 -99z" />
    <glyph glyph-name="gbreve" unicode="&#x11f;" horiz-adv-x="555" 
d="M498 680c0 0 -54 -60 -149 -60c-94 0 -135 60 -135 60c9 16 23 30 41 36c0 0 34 -37 101 -37s117 37 117 37c16 -6 24 -19 25 -36zM345 26l9 36c-38 -46 -93 -72 -173 -72c-107 0 -173 84 -130 288s129 258 246 258c80 0 118 -32 137 -79l17 64s9 5 34 5s35 -5 35 -5
l-106 -495c-39 -187 -111 -276 -284 -276c-93 0 -141 31 -141 31c5 20 16 39 32 51c0 0 51 -21 115 -21c111 0 169 36 209 215zM122 263c-34 -158 9 -212 96 -212c90 0 145 82 160 144l29 134c12 63 -7 146 -99 146c-97 0 -153 -54 -186 -212z" />
    <glyph glyph-name="gbreve.alt" horiz-adv-x="520" 
d="M457 680c0 0 -54 -60 -149 -60c-94 0 -135 60 -135 60c9 16 23 30 41 36c0 0 34 -37 101 -37s117 37 117 37c16 -6 24 -19 25 -36zM130 204c-52 27 -73 91 -58 165c24 109 103 167 224 167c43 0 77 -9 103 -24l141 23c3 -17 -2 -43 -13 -60l-91 -3c16 -28 20 -74 10 -120
c-23 -109 -97 -167 -220 -167c-19 0 -38 1 -52 5c-16 -17 -42 -43 -49 -74c-25 -116 320 -4 277 -216c-19 -93 -109 -150 -271 -150c-128 0 -199 63 -179 158c17 79 85 112 114 128c-11 14 -20 38 -14 64c9 43 37 71 78 104zM285 483c-70 0 -127 -40 -144 -122
c-18 -83 22 -123 92 -123c71 0 126 40 144 123c17 82 -21 122 -92 122zM144 -193c111 0 178 40 192 102c21 102 -146 74 -231 105c-43 -26 -74 -67 -83 -108c-13 -59 35 -99 122 -99z" />
    <glyph glyph-name="gcircumflex" unicode="&#x11d;" horiz-adv-x="555" 
d="M377 742l110 -106c-10 -15 -24 -29 -40 -33l-93 76l-124 -77c-15 6 -23 18 -26 34l148 106h25zM345 26l9 36c-38 -46 -93 -72 -173 -72c-107 0 -173 84 -130 288s129 258 246 258c80 0 118 -32 137 -79l17 64s9 5 34 5s35 -5 35 -5l-106 -495
c-39 -187 -111 -276 -284 -276c-93 0 -141 31 -141 31c5 20 16 39 32 51c0 0 51 -21 115 -21c111 0 169 36 209 215zM122 263c-34 -158 9 -212 96 -212c90 0 145 82 160 144l29 134c12 63 -7 146 -99 146c-97 0 -153 -54 -186 -212z" />
    <glyph glyph-name="gcircumflex.alt" horiz-adv-x="520" 
d="M336 742l110 -106c-10 -15 -24 -29 -40 -33l-93 76l-124 -77c-15 6 -23 18 -26 34l148 106h25zM130 204c-52 27 -73 91 -58 165c24 109 103 167 224 167c43 0 77 -9 103 -24l141 23c3 -17 -2 -43 -13 -60l-91 -3c16 -28 20 -74 10 -120c-23 -109 -97 -167 -220 -167
c-19 0 -38 1 -52 5c-16 -17 -42 -43 -49 -74c-25 -116 320 -4 277 -216c-19 -93 -109 -150 -271 -150c-128 0 -199 63 -179 158c17 79 85 112 114 128c-11 14 -20 38 -14 64c9 43 37 71 78 104zM285 483c-70 0 -127 -40 -144 -122c-18 -83 22 -123 92 -123
c71 0 126 40 144 123c17 82 -21 122 -92 122zM144 -193c111 0 178 40 192 102c21 102 -146 74 -231 105c-43 -26 -74 -67 -83 -108c-13 -59 35 -99 122 -99z" />
    <glyph glyph-name="gcommaaccent" unicode="&#x123;" horiz-adv-x="555" 
d="M379 773l25 -16s-36 -28 -52 -80c18 -1 26 -4 26 -4l-14 -64s-14 -3 -40 -3s-41 3 -41 3l10 44c17 79 86 120 86 120zM345 26l9 36c-38 -46 -93 -72 -173 -72c-107 0 -173 84 -130 288s129 258 246 258c80 0 118 -32 137 -79l17 64s9 5 34 5s35 -5 35 -5l-106 -495
c-39 -187 -111 -276 -284 -276c-93 0 -141 31 -141 31c5 20 16 39 32 51c0 0 51 -21 115 -21c111 0 169 36 209 215zM122 263c-34 -158 9 -212 96 -212c90 0 145 82 160 144l29 134c12 63 -7 146 -99 146c-97 0 -153 -54 -186 -212z" />
    <glyph glyph-name="gcommaaccent.alt" horiz-adv-x="520" 
d="M358 770l25 -16s-36 -28 -52 -80c18 -1 26 -4 26 -4l-14 -64s-14 -3 -40 -3s-41 3 -41 3l10 44c17 79 86 120 86 120zM130 204c-52 27 -73 91 -58 165c24 109 103 167 224 167c43 0 77 -9 103 -24l141 23c3 -17 -2 -43 -13 -60l-91 -3c16 -28 20 -74 10 -120
c-23 -109 -97 -167 -220 -167c-19 0 -38 1 -52 5c-16 -17 -42 -43 -49 -74c-25 -116 320 -4 277 -216c-19 -93 -109 -150 -271 -150c-128 0 -199 63 -179 158c17 79 85 112 114 128c-11 14 -20 38 -14 64c9 43 37 71 78 104zM285 483c-70 0 -127 -40 -144 -122
c-18 -83 22 -123 92 -123c71 0 126 40 144 123c17 82 -21 122 -92 122zM144 -193c111 0 178 40 192 102c21 102 -146 74 -231 105c-43 -26 -74 -67 -83 -108c-13 -59 35 -99 122 -99z" />
    <glyph glyph-name="gdotaccent" unicode="&#x121;" horiz-adv-x="555" 
d="M384 703l-14 -68s-14 -5 -39 -5c-26 0 -37 5 -37 5l14 68s13 5 39 5c25 0 37 -5 37 -5zM345 26l9 36c-38 -46 -93 -72 -173 -72c-107 0 -173 84 -130 288s129 258 246 258c80 0 118 -32 137 -79l17 64s9 5 34 5s35 -5 35 -5l-106 -495c-39 -187 -111 -276 -284 -276
c-93 0 -141 31 -141 31c5 20 16 39 32 51c0 0 51 -21 115 -21c111 0 169 36 209 215zM122 263c-34 -158 9 -212 96 -212c90 0 145 82 160 144l29 134c12 63 -7 146 -99 146c-97 0 -153 -54 -186 -212z" />
    <glyph glyph-name="gdotaccent.alt" horiz-adv-x="520" 
d="M363 705l-14 -68s-14 -5 -39 -5c-26 0 -37 5 -37 5l14 68s13 5 39 5c25 0 37 -5 37 -5zM130 204c-52 27 -73 91 -58 165c24 109 103 167 224 167c43 0 77 -9 103 -24l141 23c3 -17 -2 -43 -13 -60l-91 -3c16 -28 20 -74 10 -120c-23 -109 -97 -167 -220 -167
c-19 0 -38 1 -52 5c-16 -17 -42 -43 -49 -74c-25 -116 320 -4 277 -216c-19 -93 -109 -150 -271 -150c-128 0 -199 63 -179 158c17 79 85 112 114 128c-11 14 -20 38 -14 64c9 43 37 71 78 104zM285 483c-70 0 -127 -40 -144 -122c-18 -83 22 -123 92 -123
c71 0 126 40 144 123c17 82 -21 122 -92 122zM144 -193c111 0 178 40 192 102c21 102 -146 74 -231 105c-43 -26 -74 -67 -83 -108c-13 -59 35 -99 122 -99z" />
    <glyph glyph-name="germandbls" unicode="&#xdf;" horiz-adv-x="571" 
d="M17 5l117 551c28 133 110 194 242 194c131 0 175 -88 155 -173c-11 -45 -35 -87 -43 -100c0 0 -105 1 -124 -86c-22 -106 165 -104 131 -266c-20 -93 -93 -135 -195 -135c-69 0 -103 18 -103 18c2 20 11 41 28 54c16 -6 49 -13 75 -13c71 0 113 33 124 84
c26 121 -160 121 -130 261c24 112 127 121 142 121c4 7 17 32 23 61c12 61 -9 115 -91 115c-94 0 -143 -48 -162 -135l-117 -551s-12 -5 -37 -5s-35 5 -35 5z" />
    <glyph glyph-name="grave" unicode="`" horiz-adv-x="238" 
d="M146 640l-95 139c14 17 46 31 70 29l73 -144c-12 -14 -29 -22 -48 -24z" />
    <glyph glyph-name="greater" unicode="&#x3e;" horiz-adv-x="457" 
d="M390 257l-351 -145s-3 10 1 29c4 20 11 30 11 30l286 118l-235 120s-3 10 1 30c5 20 11 28 11 28l289 -145s3 -12 -1 -32c-4 -19 -12 -33 -12 -33z" />
    <glyph glyph-name="greaterequal" unicode="&#x2265;" horiz-adv-x="467" 
d="M394 337l-327 -115s-3 10 1 29c5 20 12 30 12 30l254 88l-216 90s-3 10 1 30s11 29 11 29l277 -116s3 -12 -1 -32c-4 -19 -12 -33 -12 -33zM345 108h-302s-3 10 1 29c4 18 11 28 11 28h302s3 -10 -1 -28c-4 -19 -11 -29 -11 -29z" />
    <glyph glyph-name="guillemotleft" unicode="&#xab;" horiz-adv-x="505" 
d="M54 300l248 209c12 -10 16 -28 16 -45l-214 -194l131 -195c-7 -17 -19 -35 -35 -45l-159 208s-4 11 0 30c4 20 13 32 13 32zM232 298l230 193c11 -9 16 -26 14 -43l-194 -178l118 -179c-5 -17 -17 -34 -32 -43l-148 192s-3 10 1 28c4 19 11 30 11 30z" />
    <glyph glyph-name="guillemotright" unicode="&#xbb;" horiz-adv-x="506" 
d="M289 509l161 -209s2 -12 -2 -32c-4 -19 -11 -30 -11 -30l-250 -208c-11 10 -16 28 -15 45l213 195l-130 194c6 17 19 35 34 45zM121 491l148 -193s3 -11 -1 -30c-4 -18 -11 -28 -11 -28l-230 -192c-11 9 -14 26 -14 43l194 179l-118 178c7 17 17 34 32 43z" />
    <glyph glyph-name="guilsinglleft" unicode="&#x2039;" horiz-adv-x="339" 
d="M54 300l248 209c12 -10 16 -28 16 -45l-214 -194l131 -195c-7 -17 -19 -35 -35 -45l-159 208s-4 11 0 30c4 20 13 32 13 32z" />
    <glyph glyph-name="guilsinglright" unicode="&#x203a;" horiz-adv-x="339" 
d="M122 509l160 -209s3 -12 -1 -32c-4 -19 -12 -30 -12 -30l-249 -208c-12 10 -16 28 -15 45l213 195l-130 194c6 17 18 35 34 45z" />
    <glyph glyph-name="h" unicode="h" horiz-adv-x="550" 
d="M487 372l-78 -367s-14 -5 -37 -5c-25 0 -35 5 -35 5l78 367c15 69 -14 104 -86 104c-55 0 -117 -34 -159 -91l-81 -380s-13 -5 -37 -5c-25 0 -35 5 -35 5l157 740s12 5 37 5c24 0 35 -5 35 -5l-61 -282c50 49 103 73 173 73c98 0 150 -67 129 -164z" />
    <glyph glyph-name="hbar" unicode="&#x127;" horiz-adv-x="550" 
d="M185 463c50 49 103 73 173 73c98 0 150 -67 129 -164l-78 -367s-14 -5 -37 -5c-25 0 -35 5 -35 5l78 367c15 69 -14 104 -86 104c-55 0 -117 -34 -159 -91l-81 -380s-13 -5 -37 -5c-25 0 -35 5 -35 5l130 614h-68c-2 15 1 34 10 49h69l16 77s12 5 37 5c24 0 35 -5 35 -5
l-17 -77h139c3 -14 -1 -33 -10 -49h-139z" />
    <glyph glyph-name="hcircumflex" unicode="&#x125;" horiz-adv-x="550" 
d="M258 902l108 -104c-10 -15 -23 -28 -40 -33l-91 76l-121 -76c-15 6 -24 17 -26 33l145 104h25zM487 372l-78 -367s-14 -5 -37 -5c-25 0 -35 5 -35 5l78 367c15 69 -14 104 -86 104c-55 0 -117 -34 -159 -91l-81 -380s-13 -5 -37 -5c-25 0 -35 5 -35 5l157 740s12 5 37 5
c24 0 35 -5 35 -5l-61 -282c50 49 103 73 173 73c98 0 150 -67 129 -164z" />
    <glyph glyph-name="hungarumlaut" unicode="&#x2dd;" horiz-adv-x="386" 
d="M203 779l-155 -139c-20 2 -33 10 -39 24l131 144c27 2 54 -10 63 -29zM361 779l-155 -139c-19 2 -33 10 -38 24l131 144c27 2 53 -10 62 -29z" />
    <glyph glyph-name="hyphen" unicode="-" horiz-adv-x="357" 
d="M267 262h-196s-3 10 1 28c3 18 11 28 11 28h196s2 -10 -1 -28c-4 -18 -11 -28 -11 -28z" />
    <glyph glyph-name="i" unicode="i" horiz-adv-x="239" 
d="M248 713l-16 -73s-15 -5 -42 -5c-28 0 -40 5 -40 5l16 73s14 5 42 5c27 0 40 -5 40 -5zM202 521l-110 -516s-13 -5 -37 -5c-26 0 -35 5 -35 5l110 516s11 5 37 5c24 0 35 -5 35 -5z" />
    <glyph glyph-name="iacute" unicode="&#xed;" horiz-adv-x="239" 
d="M316 746l-155 -139c-19 2 -33 10 -38 24l135 144c25 2 51 -10 58 -29zM202 521l-110 -516s-13 -5 -37 -5c-26 0 -35 5 -35 5l110 516s11 5 37 5c24 0 35 -5 35 -5z" />
    <glyph glyph-name="ibreve" unicode="&#x12d;" horiz-adv-x="239" 
d="M341 682c0 0 -53 -60 -148 -60c-94 0 -136 60 -136 60c8 16 22 30 40 35c0 0 35 -36 102 -36s116 36 116 36c16 -5 25 -18 26 -35zM202 521l-110 -516s-13 -5 -37 -5c-26 0 -35 5 -35 5l110 516s11 5 37 5c24 0 35 -5 35 -5z" />
    <glyph glyph-name="icircumflex" unicode="&#xee;" horiz-adv-x="239" 
d="M221 742l112 -106c-10 -15 -24 -29 -40 -33l-93 76l-124 -77c-15 6 -23 18 -27 34l147 106h25zM202 521l-110 -516s-13 -5 -37 -5c-26 0 -35 5 -35 5l110 516s11 5 37 5c24 0 35 -5 35 -5z" />
    <glyph glyph-name="idieresis" unicode="&#xef;" horiz-adv-x="239" 
d="M159 700l-14 -66s-13 -4 -38 -4c-24 0 -35 4 -35 4l14 66s13 4 37 4c25 0 36 -4 36 -4zM317 700l-14 -66s-13 -4 -37 -4c-25 0 -36 4 -36 4l14 66s13 4 38 4c24 0 35 -4 35 -4zM202 521l-110 -516s-13 -5 -37 -5c-26 0 -35 5 -35 5l110 516s11 5 37 5c24 0 35 -5 35 -5z
" />
    <glyph glyph-name="igrave" unicode="&#xec;" horiz-adv-x="239" 
d="M198 609l-95 139c15 17 47 31 70 29l74 -144c-12 -14 -29 -22 -49 -24zM202 521l-110 -516s-13 -5 -37 -5c-26 0 -35 5 -35 5l110 516s11 5 37 5c24 0 35 -5 35 -5z" />
    <glyph glyph-name="ij" unicode="&#x133;" horiz-adv-x="462" 
d="M248 713l-16 -73s-15 -5 -42 -5c-28 0 -40 5 -40 5l16 73s14 5 42 5c27 0 40 -5 40 -5zM202 521l-110 -516s-13 -5 -37 -5c-26 0 -35 5 -35 5l110 516s11 5 37 5c24 0 35 -5 35 -5zM470 715l-16 -73s-15 -6 -41 -6c-28 0 -40 6 -40 6l16 73s14 5 42 5c26 0 39 -5 39 -5z
M222 -92l131 613s11 5 37 5c24 0 35 -5 35 -5l-130 -609c-23 -109 -85 -162 -174 -162c-42 0 -60 9 -60 9s-2 7 0 17c6 25 16 37 16 37s15 -4 39 -4c56 0 92 29 106 99z" />
    <glyph glyph-name="imacron" unicode="&#x12b;" horiz-adv-x="239" 
d="M287 648h-186c-1 14 1 32 10 47h186c1 -14 -2 -32 -10 -47zM202 521l-110 -516s-13 -5 -37 -5c-26 0 -35 5 -35 5l110 516s11 5 37 5c24 0 35 -5 35 -5z" />
    <glyph glyph-name="infinity" unicode="&#x221e;" horiz-adv-x="816" 
d="M550 158c-122 0 -149 119 -149 119s-77 -119 -199 -119c-119 0 -157 84 -139 167s91 167 210 167c122 0 148 -120 148 -120s84 120 200 120c119 0 156 -84 138 -167s-90 -167 -209 -167zM212 215c98 0 161 110 161 110s-17 110 -115 110c-83 0 -125 -58 -136 -110
s7 -110 90 -110zM610 435c-98 0 -161 -110 -161 -110s17 -110 115 -110c83 0 125 58 136 110s-7 110 -90 110z" />
    <glyph glyph-name="integral" unicode="&#x222b;" horiz-adv-x="496" 
d="M144 -30l125 589c21 101 82 162 178 162c58 0 99 -28 115 -39c-7 -19 -18 -34 -35 -44c-27 18 -58 30 -94 28c-50 -2 -89 -32 -105 -106l-125 -590c-24 -113 -91 -161 -178 -161c-51 0 -89 26 -108 39c6 19 18 34 35 44c21 -16 53 -32 92 -30c40 3 82 27 100 108z" />
    <glyph glyph-name="iogonek" unicode="&#x12f;" horiz-adv-x="239" 
d="M159 684c0 0 14 5 42 5c27 0 40 -5 40 -5l-15 -73s-15 -5 -42 -5c-28 0 -40 5 -40 5zM130 521c0 0 11 5 37 5c24 0 35 -5 35 -5l-110 -516c-59 -19 -97 -60 -106 -102c-7 -34 14 -43 45 -43c21 0 38 8 38 8c7 -7 8 -23 4 -36c0 0 -29 -17 -66 -17c-55 0 -92 27 -80 80
c9 43 43 87 93 111z" />
    <glyph glyph-name="itilde" unicode="&#x129;" horiz-adv-x="239" 
d="M245 674c24 0 43 28 43 28c11 -5 19 -18 18 -33c-4 -7 -23 -45 -66 -45s-59 33 -92 33c-24 0 -42 -27 -42 -27c-12 7 -20 18 -18 33c3 7 23 43 65 43c43 0 60 -32 92 -32zM202 521l-110 -516s-13 -5 -37 -5c-26 0 -35 5 -35 5l110 516s11 5 37 5c24 0 35 -5 35 -5z" />
    <glyph glyph-name="j" unicode="j" horiz-adv-x="239" 
d="M247 715l-16 -73s-15 -6 -41 -6c-28 0 -40 6 -40 6l16 73s14 5 42 5c26 0 39 -5 39 -5zM-1 -92l131 613s11 5 37 5c24 0 35 -5 35 -5l-130 -609c-23 -109 -85 -162 -174 -162c-42 0 -60 9 -60 9s-2 7 0 17c6 25 16 37 16 37s15 -4 39 -4c56 0 92 29 106 99z" />
    <glyph glyph-name="jcircumflex" unicode="&#x135;" horiz-adv-x="239" 
d="M222 723l106 -105c-10 -16 -24 -30 -41 -34l-93 77l-124 -78c-15 6 -23 18 -26 35l152 105h26zM-1 -92l131 613s11 5 37 5c24 0 35 -5 35 -5l-130 -609c-23 -109 -85 -162 -174 -162c-42 0 -60 9 -60 9s-2 7 0 17c6 25 16 37 16 37s15 -4 39 -4c56 0 92 29 106 99z" />
    <glyph glyph-name="k" unicode="k" horiz-adv-x="498" 
d="M237 303l188 218s21 5 46 5c22 0 34 -5 34 -5l-214 -249l128 -266s-17 -6 -42 -6c-21 0 -35 6 -35 6l-112 240h-90l-51 -241s-14 -5 -36 -5c-24 0 -36 5 -36 5l158 741s14 4 37 4c21 0 35 -4 35 -4l-95 -443h85z" />
    <glyph glyph-name="kcommaaccent" unicode="&#x137;" horiz-adv-x="498" 
d="M137 -236l-24 20s37 32 55 92c-19 1 -26 5 -26 5l15 73s15 5 41 5c27 0 40 -5 40 -5l-10 -50c-20 -93 -91 -140 -91 -140zM237 303l188 218s21 5 46 5c22 0 34 -5 34 -5l-214 -249l128 -266s-17 -6 -42 -6c-21 0 -35 6 -35 6l-112 240h-90l-51 -241s-14 -5 -36 -5
c-24 0 -36 5 -36 5l158 741s14 4 37 4c21 0 35 -4 35 -4l-95 -443h85z" />
    <glyph glyph-name="kgreenlandic" unicode="&#x138;" horiz-adv-x="506" 
d="M516 521l-232 -215l145 -298s-16 -8 -44 -8c-29 0 -33 6 -33 6l-124 248l-107 -100l-32 -148c-11 -4 -23 -6 -36 -6s-27 2 -36 6l110 516c11 3 24 4 38 4s27 -1 34 -4l-56 -263l282 263c13 3 37 4 52 4c14 0 28 -1 39 -5z" />
    <glyph glyph-name="l" unicode="l" horiz-adv-x="243" 
d="M251 745l-157 -740s-13 -5 -37 -5c-26 0 -35 5 -35 5l157 740s11 5 37 5c24 0 35 -5 35 -5z" />
    <glyph glyph-name="lacute" unicode="&#x13a;" horiz-adv-x="243" 
d="M353 916l-155 -139c-18 2 -33 10 -38 24l135 144c25 2 51 -10 58 -29zM251 745l-157 -740s-13 -5 -37 -5c-26 0 -35 5 -35 5l157 740s11 5 37 5c24 0 35 -5 35 -5z" />
    <glyph glyph-name="lcaron" unicode="&#x13e;" horiz-adv-x="251" 
d="M300 582c-16 2 -26 8 -30 19c49 42 72 86 80 147c27 6 49 4 62 -7c-15 -62 -57 -129 -112 -159zM251 745l-157 -740s-13 -5 -37 -5c-26 0 -35 5 -35 5l157 740s11 5 37 5c24 0 35 -5 35 -5z" />
    <glyph glyph-name="lcommaaccent" unicode="&#x13c;" horiz-adv-x="243" 
d="M252 745l-157 -740s-13 -5 -37 -5c-26 0 -35 5 -35 5l157 740s11 5 37 5c24 0 35 -5 35 -5zM-12 -236l-24 20s37 32 55 93c-19 1 -26 5 -26 5l15 73s15 5 41 5c27 0 40 -5 40 -5l-10 -50c-20 -93 -91 -141 -91 -141z" />
    <glyph glyph-name="ldot" unicode="&#x140;" horiz-adv-x="318" 
d="M251 745l-157 -740s-13 -5 -37 -5c-26 0 -35 5 -35 5l157 740s11 5 37 5c24 0 35 -5 35 -5zM333 367l-14 -65s-14 -6 -38 -6c-26 0 -36 6 -36 6l14 65s12 5 38 5c24 0 36 -5 36 -5z" />
    <glyph glyph-name="less" unicode="&#x3c;" horiz-adv-x="457" 
d="M335 112l-289 145s-2 14 2 33c4 20 11 32 11 32l351 145s4 -8 -1 -28c-4 -20 -11 -30 -11 -30l-287 -120l236 -118s3 -10 -1 -30c-4 -19 -11 -29 -11 -29z" />
    <glyph glyph-name="lessequal" unicode="&#x2264;" horiz-adv-x="470" 
d="M366 222l-277 115s-2 14 2 33c4 20 11 32 11 32l327 116s3 -9 -1 -29s-11 -30 -11 -30l-256 -90l218 -88s3 -10 -2 -30c-4 -19 -11 -29 -11 -29zM342 108h-302s-3 10 1 29c4 18 11 28 11 28h302s3 -10 -1 -28c-4 -19 -11 -29 -11 -29z" />
    <glyph glyph-name="logicalnot" unicode="&#xac;" horiz-adv-x="600" 
d="M546 439l-55 -258s-13 -7 -33 -7s-30 7 -30 7l42 196h-394s-4 12 -1 30c5 20 14 32 14 32h457z" />
    <glyph glyph-name="longs" unicode="&#x17f;" horiz-adv-x="279" 
d="M239 591l-125 -586s-12 -5 -37 -5s-35 5 -35 5l99 464h-71c0 20 4 39 12 57h71l13 60c20 97 70 164 192 164c60 0 99 -17 99 -17c-5 -21 -15 -39 -31 -53c0 0 -28 11 -74 11c-74 0 -100 -40 -113 -100z" />
    <glyph glyph-name="lozenge" unicode="&#x25ca;" horiz-adv-x="552" 
d="M195 7l-138 345l285 344h32l141 -344l-288 -345h-32zM445 351l-105 262l-211 -262l100 -262z" />
    <glyph glyph-name="lslash" unicode="&#x142;" horiz-adv-x="329" 
d="M218 745c0 0 11 5 37 5c24 0 35 -5 35 -5l-62 -293l91 46c2 -1 8 -6 12 -18c4 -13 3 -22 3 -25l-118 -61l-83 -389s-13 -5 -37 -5c-26 0 -35 5 -35 5l74 347l-85 -43c-3 1 -8 6 -13 18c-5 13 -4 21 -3 24l113 59z" />
    <glyph glyph-name="m" unicode="m" horiz-adv-x="835" 
d="M472 449c52 56 106 87 180 87c93 0 140 -71 121 -161l-79 -370s-13 -5 -37 -5c-25 0 -35 5 -35 5l78 367c15 70 -10 104 -77 104c-52 0 -109 -31 -151 -92l-81 -379s-13 -5 -37 -5c-25 0 -35 5 -35 5l78 367c15 70 -10 104 -77 104c-51 0 -110 -34 -150 -91l-81 -380
s-13 -5 -37 -5c-25 0 -35 5 -35 5l110 516s12 5 37 5c24 0 35 -5 35 -5l-13 -62c46 48 97 77 163 77c61 0 114 -26 123 -87z" />
    <glyph glyph-name="macron" unicode="&#xaf;" horiz-adv-x="407" 
d="M328 630h-300c-4 16 0 34 10 49h300c3 -14 -2 -34 -10 -49z" />
    <glyph glyph-name="minus" unicode="&#x2212;" horiz-adv-x="469" 
d="M381 301h-297s-3 10 1 29s11 29 11 29h297s2 -10 -2 -29s-10 -29 -10 -29z" />
    <glyph glyph-name="mu" unicode="&#xb5;" horiz-adv-x="583" 
d="M460 521c0 0 12 5 37 5s35 -5 35 -5l-110 -516s-12 -5 -37 -5s-35 5 -35 5l13 59c-46 -47 -104 -74 -166 -74c-57 0 -84 20 -99 42c-34 -195 -22 -265 -22 -265c-22 -17 -58 -21 -80 -13c0 0 -6 65 30 232l114 535s13 5 37 5c26 0 35 -5 35 -5l-79 -368
c-12 -59 6 -103 88 -103c62 0 123 44 158 91z" />
    <glyph glyph-name="multiply" unicode="&#xd7;" horiz-adv-x="461" 
d="M217 247l-140 -116s-11 4 -20 18c-12 12 -13 24 -13 24l140 116l-91 116s7 12 23 24c15 14 28 18 28 18l91 -116l141 116s11 -4 20 -18c12 -12 13 -24 13 -24l-141 -116l92 -116s-7 -12 -23 -24c-15 -14 -28 -18 -28 -18z" />
    <glyph glyph-name="n" unicode="n" horiz-adv-x="550" 
d="M487 372l-78 -367s-14 -5 -37 -5c-25 0 -35 5 -35 5l78 367c15 69 -14 104 -86 104c-55 0 -117 -34 -159 -91l-81 -380s-13 -5 -37 -5c-25 0 -35 5 -35 5l110 516s12 5 37 5c24 0 35 -5 35 -5l-14 -63c50 49 105 78 173 78c98 0 151 -62 129 -164z" />
    <glyph glyph-name="nacute" unicode="&#x144;" horiz-adv-x="550" 
d="M455 746l-155 -139c-19 2 -33 10 -38 24l135 144c25 2 51 -10 58 -29zM487 372l-78 -367s-14 -5 -37 -5c-25 0 -35 5 -35 5l78 367c15 69 -14 104 -86 104c-55 0 -117 -34 -159 -91l-81 -380s-13 -5 -37 -5c-25 0 -35 5 -35 5l110 516s12 5 37 5c24 0 35 -5 35 -5
l-14 -63c50 49 105 78 173 78c98 0 151 -62 129 -164z" />
    <glyph glyph-name="napostrophe" unicode="&#x149;" horiz-adv-x="550" 
d="M167 585c-14 3 -23 11 -27 22c52 38 79 80 94 142c27 2 48 -2 60 -14c-21 -62 -70 -125 -127 -150zM487 372l-78 -367s-14 -5 -37 -5c-25 0 -35 5 -35 5l78 367c15 69 -14 104 -86 104c-55 0 -117 -34 -159 -91l-81 -380s-13 -5 -37 -5c-25 0 -35 5 -35 5l110 516
s12 5 37 5c24 0 35 -5 35 -5l-14 -63c50 49 105 78 173 78c98 0 151 -62 129 -164z" />
    <glyph glyph-name="ncaron" unicode="&#x148;" horiz-adv-x="550" 
d="M350 656l118 72c14 -4 21 -16 25 -32l-137 -97h-23l-106 97c9 16 22 28 38 33zM487 372l-78 -367s-14 -5 -37 -5c-25 0 -35 5 -35 5l78 367c15 69 -14 104 -86 104c-55 0 -117 -34 -159 -91l-81 -380s-13 -5 -37 -5c-25 0 -35 5 -35 5l110 516s12 5 37 5
c24 0 35 -5 35 -5l-14 -63c50 49 105 78 173 78c98 0 151 -62 129 -164z" />
    <glyph glyph-name="ncommaaccent" unicode="&#x146;" horiz-adv-x="550" 
d="M145 -238l-23 20s36 32 54 92c-18 1 -26 5 -26 5l16 74s15 5 42 5c26 0 39 -5 39 -5l-11 -51c-19 -92 -91 -140 -91 -140zM487 372l-78 -367s-14 -5 -37 -5c-25 0 -35 5 -35 5l78 367c15 69 -14 104 -86 104c-55 0 -117 -34 -159 -91l-81 -380s-13 -5 -37 -5
c-25 0 -35 5 -35 5l110 516s12 5 37 5c24 0 35 -5 35 -5l-14 -63c50 49 105 78 173 78c98 0 151 -62 129 -164z" />
    <glyph glyph-name="nine" unicode="9" 
d="M53 0c-4 20 1 41 13 59c153 15 265 83 330 241c-34 -18 -77 -36 -141 -36c-114 0 -198 72 -166 225c31 142 129 201 259 201s202 -80 162 -267c-60 -280 -230 -409 -457 -423zM159 477c-23 -109 26 -154 107 -154c65 0 127 26 154 43c6 19 11 39 16 61
c31 145 -10 205 -101 205c-84 0 -153 -50 -176 -155z" />
    <glyph glyph-name="nine.denom" horiz-adv-x="309" 
d="M19 240c15 73 75 108 139 108c77 0 111 -48 90 -145c-25 -117 -106 -194 -241 -206c-5 10 -2 28 7 40c78 8 139 46 167 115c-15 -7 -41 -16 -75 -16c-65 0 -101 36 -87 104zM197 196c14 73 0 112 -48 112c-40 0 -70 -25 -79 -68c-8 -39 9 -64 51 -64c38 0 63 14 76 20z
" />
    <glyph glyph-name="nine.num" horiz-adv-x="308" 
d="M92 586c15 73 74 108 138 108c77 0 111 -48 91 -145c-25 -117 -107 -194 -241 -206c-5 10 -2 28 6 40c78 8 139 46 168 115c-16 -7 -42 -16 -76 -16c-65 0 -101 36 -86 104zM269 542c15 73 1 112 -47 112c-40 0 -70 -25 -79 -68c-9 -39 9 -64 51 -64c38 0 63 14 75 20z
" />
    <glyph glyph-name="nineinferior" unicode="&#x2089;" horiz-adv-x="308" 
d="M-2 144c15 73 75 108 139 108c77 0 110 -48 90 -145c-25 -117 -107 -194 -241 -206c-5 10 -2 28 6 40c78 9 139 46 168 115c-16 -7 -42 -16 -76 -16c-65 0 -101 36 -86 104zM175 100c15 73 1 112 -47 112c-40 0 -70 -25 -79 -68c-9 -39 9 -64 51 -64c38 0 63 14 75 20z
" />
    <glyph glyph-name="notequal" unicode="&#x2260;" horiz-adv-x="483" 
d="M171 174l-70 -92c-6 -2 -17 -5 -30 -5c-10 0 -19 3 -24 5l71 92h-78c-1 7 -2 15 1 28c3 14 8 23 11 29h109l90 118h-174c-1 6 -1 16 1 29c3 13 8 22 11 27h205l65 84c6 2 17 5 29 5c11 0 20 -3 25 -5l-65 -84h87c1 -5 2 -14 -1 -27c-2 -13 -8 -23 -11 -29h-118l-90 -118
h183c1 -6 2 -15 -1 -28s-8 -22 -11 -29h-215z" />
    <glyph glyph-name="ntilde" unicode="&#xf1;" horiz-adv-x="550" 
d="M218 669c0 0 25 47 81 47c54 0 74 -34 113 -34c30 0 51 30 51 30c14 -6 25 -20 25 -35c0 0 -26 -47 -82 -47c-54 0 -74 34 -113 34c-30 0 -51 -30 -51 -30c-16 8 -24 20 -24 35zM487 372l-78 -367s-14 -5 -37 -5c-25 0 -35 5 -35 5l78 367c15 69 -14 104 -86 104
c-55 0 -117 -34 -159 -91l-81 -380s-13 -5 -37 -5c-25 0 -35 5 -35 5l110 516s12 5 37 5c24 0 35 -5 35 -5l-14 -63c50 49 105 78 173 78c98 0 151 -62 129 -164z" />
    <glyph glyph-name="_300" horiz-adv-x="0" 
 />
    <glyph glyph-name="numbersign" unicode="#" horiz-adv-x="655" 
d="M560 617c11 4 22 6 33 6s23 -2 31 -6l-68 -136h90c1 -8 2 -17 -1 -28c-2 -11 -6 -22 -11 -31h-106l-114 -230h87c0 -2 2 -13 -1 -29c-4 -16 -10 -27 -12 -30h-104l-62 -127c-7 -2 -19 -6 -34 -6c-14 0 -23 4 -31 6l63 127h-154l-63 -127c-7 -2 -19 -6 -34 -6
c-14 0 -23 4 -30 6l62 127h-93c0 2 -2 13 1 29c4 18 10 28 12 30h110l114 230h-91c-2 9 -1 19 1 30s5 21 11 29h107l68 136c11 4 22 6 33 6s23 -2 31 -6l-67 -136h154zM309 422l-113 -230h154l113 230h-154z" />
    <glyph glyph-name="o" unicode="o" horiz-adv-x="539" 
d="M51 280c42 198 133 256 267 256s195 -89 153 -287s-135 -259 -269 -259s-193 92 -151 290zM400 263c34 167 -10 216 -96 216s-150 -49 -184 -216c-35 -167 10 -216 96 -216s149 49 184 216z" />
    <glyph glyph-name="oacute" unicode="&#xf3;" horiz-adv-x="539" 
d="M254 631l135 144c25 2 51 -10 58 -29l-155 -139c-19 2 -33 10 -38 24zM51 280c42 198 133 256 267 256s195 -89 153 -287s-135 -259 -269 -259s-193 92 -151 290zM400 263c34 167 -10 216 -96 216s-150 -49 -184 -216c-35 -167 10 -216 96 -216s149 49 184 216z" />
    <glyph glyph-name="obreve" unicode="&#x14f;" horiz-adv-x="539" 
d="M348 684c67 0 117 37 117 37c16 -5 24 -19 26 -36c0 0 -54 -58 -149 -58c-94 0 -135 58 -135 58c8 16 22 30 40 36c0 0 34 -37 101 -37zM51 280c42 198 133 256 267 256s195 -89 153 -287s-135 -259 -269 -259s-193 92 -151 290zM400 263c34 167 -10 216 -96 216
s-150 -49 -184 -216c-35 -167 10 -216 96 -216s149 49 184 216z" />
    <glyph glyph-name="ocircumflex" unicode="&#xf4;" horiz-adv-x="539" 
d="M366 740l112 -104c-10 -15 -24 -29 -40 -33l-93 76l-124 -77c-16 6 -23 18 -27 34l147 104h25zM51 280c42 198 133 256 267 256s195 -89 153 -287s-135 -259 -269 -259s-193 92 -151 290zM400 263c34 167 -10 216 -96 216s-150 -49 -184 -216c-35 -167 10 -216 96 -216
s149 49 184 216z" />
    <glyph glyph-name="odieresis" unicode="&#xf6;" horiz-adv-x="539" 
d="M236 704c0 0 12 4 37 4c24 0 36 -4 36 -4l-14 -66s-13 -4 -37 -4c-25 0 -36 4 -36 4zM394 704c0 0 12 4 37 4c24 0 36 -4 36 -4l-14 -66s-13 -4 -37 -4c-25 0 -36 4 -36 4zM51 280c42 198 133 256 267 256s195 -89 153 -287s-135 -259 -269 -259s-193 92 -151 290z
M400 263c34 167 -10 216 -96 216s-150 -49 -184 -216c-35 -167 10 -216 96 -216s149 49 184 216z" />
    <glyph glyph-name="oe" unicode="&#x153;" horiz-adv-x="813" 
d="M740 240h-294c-22 -137 9 -189 99 -189c71 0 125 32 125 32c12 -10 16 -29 14 -49c0 0 -60 -44 -165 -44c-76 0 -122 36 -135 108c-46 -74 -107 -108 -186 -108c-131 0 -191 87 -149 285s134 261 265 261c79 0 123 -32 137 -109c47 75 112 109 183 109
c115 0 164 -73 139 -194c-14 -62 -33 -102 -33 -102zM302 479c-83 0 -147 -49 -182 -216c-36 -167 7 -216 90 -216c85 0 138 50 173 217c36 167 4 215 -81 215zM706 351c14 68 -2 126 -85 126c-74 0 -129 -53 -164 -183h232c2 5 10 26 17 57z" />
    <glyph glyph-name="ogonek" unicode="&#x2db;" horiz-adv-x="283" 
d="M-23 -167c8 -7 9 -19 7 -32c0 0 -31 -18 -68 -18c-55 0 -84 33 -73 85c15 70 85 115 178 121v-21c-58 -14 -113 -39 -124 -92c-8 -34 12 -51 43 -51c21 0 37 8 37 8z" />
    <glyph glyph-name="ograve" unicode="&#xf2;" horiz-adv-x="539" 
d="M303 775l76 -144c-12 -14 -28 -21 -47 -23l-97 138c14 17 43 31 68 29zM51 280c42 198 133 256 267 256s195 -89 153 -287s-135 -259 -269 -259s-193 92 -151 290zM400 263c34 167 -10 216 -96 216s-150 -49 -184 -216c-35 -167 10 -216 96 -216s149 49 184 216z" />
    <glyph glyph-name="ohungarumlaut" unicode="&#x151;" horiz-adv-x="539" 
d="M234 626l103 110c24 2 48 -9 56 -24l-123 -107c-18 3 -31 9 -36 21zM380 626l102 110c24 2 49 -9 57 -24l-123 -107c-18 3 -31 9 -36 21zM51 280c42 198 133 256 267 256s195 -89 153 -287s-135 -259 -269 -259s-193 92 -151 290zM400 263c34 167 -10 216 -96 216
s-150 -49 -184 -216c-35 -167 10 -216 96 -216s149 49 184 216z" />
    <glyph glyph-name="omacron" unicode="&#x14d;" horiz-adv-x="539" 
d="M228 694h242c2 -14 -2 -34 -10 -49h-242c-1 16 3 35 10 49zM51 280c42 198 133 256 267 256s195 -89 153 -287s-135 -259 -269 -259s-193 92 -151 290zM400 263c34 167 -10 216 -96 216s-150 -49 -184 -216c-35 -167 10 -216 96 -216s149 49 184 216z" />
    <glyph glyph-name="one" unicode="1" horiz-adv-x="401" 
d="M79 530c87 22 163 70 227 144c0 0 12 6 36 6s35 -6 35 -6l-142 -668s-12 -6 -38 -6c-24 0 -36 6 -36 6l93 438c12 56 24 102 34 134c-59 -56 -135 -92 -205 -109c-11 14 -14 38 -4 61z" />
    <glyph glyph-name="one.denom" horiz-adv-x="243" 
d="M18 274c49 12 92 38 123 66c8 2 17 3 26 3c8 0 17 -1 22 -3l-71 -337c-7 -2 -16 -3 -24 -3c-10 0 -18 1 -25 3l50 236c3 16 6 29 9 41c-30 -21 -67 -38 -106 -46c-7 9 -9 25 -4 40z" />
    <glyph glyph-name="one.num" horiz-adv-x="258" 
d="M91 620c48 12 92 38 123 66c7 2 16 3 25 3c8 0 17 -1 23 -3l-72 -337c-6 -2 -15 -3 -23 -3c-9 0 -17 0 -26 3l50 236c4 16 6 29 10 41c-30 -21 -67 -38 -107 -46c-7 9 -8 25 -3 40z" />
    <glyph glyph-name="oneeighth" unicode="&#x215b;" horiz-adv-x="709" 
d="M579 697c0 0 9 5 28 5s26 -5 26 -5l-536 -703s-11 -4 -29 -4c-16 0 -26 4 -26 4zM222 685c7 3 15 4 25 4c8 0 16 -2 23 -4l-72 -336c-7 -2 -15 -3 -23 -3c-9 0 -18 0 -27 3l50 236c4 16 6 28 10 40c-30 -21 -66 -38 -106 -46c-8 9 -8 26 -3 41c48 12 92 37 123 65z
M422 262c10 51 57 86 130 86c68 0 103 -31 92 -85c-9 -41 -39 -69 -69 -86c31 -18 54 -42 44 -87c-13 -60 -65 -95 -142 -95c-73 0 -116 31 -102 93c9 46 46 76 81 94c-26 17 -43 40 -34 80zM596 260c7 32 -11 50 -53 50c-39 0 -66 -18 -72 -46c-8 -39 31 -53 70 -70
c28 16 49 37 55 66zM569 87c10 45 -42 59 -80 78c-13 -7 -57 -32 -66 -74c-8 -39 16 -56 64 -56c40 0 75 17 82 52z" />
    <glyph glyph-name="onehalf" unicode="&#xbd;" horiz-adv-x="706" 
d="M576 697c0 0 9 5 28 5s26 -5 26 -5l-536 -703s-11 -4 -29 -4c-16 0 -26 4 -26 4zM223 685c7 3 15 4 25 4c8 0 16 -2 23 -4l-72 -336c-7 -2 -15 -3 -23 -3c-9 0 -18 0 -27 3l50 236c4 16 6 28 10 40c-30 -21 -66 -38 -106 -46c-8 9 -8 26 -3 41c48 12 92 37 123 65z
M459 334c0 0 40 14 93 14c77 0 110 -37 98 -95c-26 -121 -191 -100 -225 -209h171c3 -7 2 -15 1 -22c-2 -8 -5 -15 -10 -22h-217s0 18 5 41c29 136 204 119 223 209c7 32 -10 56 -63 56c-32 0 -67 -8 -72 -10c-7 11 -8 24 -4 38z" />
    <glyph glyph-name="oneinferior" unicode="&#x2081;" horiz-adv-x="243" 
d="M-2 178c48 12 92 38 123 66c7 2 16 3 25 3c8 0 17 -1 23 -3l-72 -337c-6 -2 -15 -3 -23 -3c-9 0 -17 0 -27 3l50 236c4 16 7 29 10 41c-29 -21 -66 -38 -106 -46c-7 9 -8 25 -3 40z" />
    <glyph glyph-name="onequarter" unicode="&#xbc;" horiz-adv-x="653" 
d="M39 -6l537 703s9 5 28 5s26 -5 26 -5l-536 -703s-11 -4 -29 -4c-16 0 -26 4 -26 4zM100 620c48 12 92 37 123 65c7 3 15 4 25 4c8 0 16 -2 23 -4l-72 -336c-7 -2 -15 -3 -23 -3c-9 0 -18 0 -27 3l50 236c4 16 6 28 10 40c-30 -21 -66 -38 -106 -46c-8 9 -8 26 -3 41z
M530 128h41c0 -5 1 -12 -1 -20c-2 -9 -5 -15 -7 -19h-41l-18 -86c-7 -1 -13 -3 -22 -3c-10 0 -17 2 -22 3l18 86h-175c0 3 -1 9 0 15c2 7 4 13 7 17l217 218c6 2 14 4 25 4s18 -2 23 -4zM518 280l-152 -152h120z" />
    <glyph glyph-name="onesuperior" unicode="&#xb9;" horiz-adv-x="242" 
d="M91 620c48 12 92 37 123 65c7 3 16 4 25 4c8 0 17 -2 23 -4l-72 -336c-6 -2 -15 -3 -23 -3c-9 0 -17 0 -26 3l50 236c4 16 6 28 10 40c-31 -21 -67 -38 -107 -46c-7 9 -8 26 -3 41z" />
    <glyph glyph-name="ordfeminine" unicode="&#xaa;" horiz-adv-x="360" 
d="M143 608c0 0 53 22 110 22c79 0 104 -37 89 -108l-46 -216s-8 -4 -22 -4c-12 0 -19 4 -19 4l2 37c-26 -30 -64 -47 -109 -47c-57 0 -88 35 -74 99c13 63 59 96 136 96c36 0 66 -3 74 -4l7 32c10 46 -7 67 -53 67c-44 0 -88 -15 -88 -15c-7 9 -10 24 -7 37zM277 450
c-9 0 -38 3 -69 3c-48 0 -76 -18 -84 -58c-9 -41 10 -58 47 -58c50 0 88 36 100 88zM47 244h233c1 -13 -2 -29 -9 -43h-233c-1 15 2 30 9 43z" />
    <glyph glyph-name="ordmasculine" unicode="&#xba;" horiz-adv-x="376" 
d="M89 463c25 118 80 167 167 167s123 -47 97 -167c-25 -120 -81 -168 -168 -168s-121 48 -96 168zM300 463c20 93 2 125 -53 125c-56 0 -86 -32 -106 -125c-20 -94 -3 -125 53 -125c55 0 86 31 106 125zM56 244h236c1 -5 1 -11 -1 -21c-2 -9 -5 -17 -8 -22h-236
c-1 5 -1 13 1 22s5 16 8 21z" />
    <glyph glyph-name="oslash" unicode="&#xf8;" horiz-adv-x="537" 
d="M517 548l-61 -76c30 -47 36 -120 14 -223c-42 -198 -135 -259 -269 -259c-43 0 -78 9 -104 28l-51 -63c-17 1 -31 10 -40 23l59 74c-31 48 -37 123 -15 228c42 198 133 256 267 256c44 0 81 -10 108 -30l51 65c18 -2 33 -12 41 -23zM303 479c-86 0 -150 -49 -184 -216
c-14 -69 -15 -118 -5 -151l268 341c-19 19 -46 26 -79 26zM215 47c86 0 149 49 184 216c13 65 15 112 6 145l-266 -338c19 -17 45 -23 76 -23z" />
    <glyph glyph-name="oslashacute" unicode="&#x1ff;" horiz-adv-x="538" 
d="M448 746l-155 -139c-19 2 -33 10 -38 24l135 144c25 2 51 -10 58 -29zM517 548l-61 -76c30 -47 36 -120 14 -223c-42 -198 -135 -259 -269 -259c-43 0 -78 9 -104 28l-51 -63c-17 1 -31 10 -40 23l59 74c-31 48 -37 123 -15 228c42 198 133 256 267 256
c44 0 81 -10 108 -30l51 65c18 -2 33 -12 41 -23zM303 479c-86 0 -150 -49 -184 -216c-14 -69 -15 -118 -5 -151l268 341c-19 19 -46 26 -79 26zM215 47c86 0 149 49 184 216c13 65 15 112 6 145l-266 -338c19 -17 45 -23 76 -23z" />
    <glyph glyph-name="otilde" unicode="&#xf5;" horiz-adv-x="539" 
d="M209 663c0 0 25 47 81 47c54 0 74 -34 113 -34c30 0 51 29 51 29c15 -5 24 -18 24 -34c0 0 -25 -47 -81 -47c-54 0 -74 35 -113 35c-30 0 -52 -30 -52 -30c-17 8 -23 19 -23 34zM51 280c42 198 133 256 267 256s195 -89 153 -287s-135 -259 -269 -259s-193 92 -151 290z
M400 263c34 167 -10 216 -96 216s-150 -49 -184 -216c-35 -167 10 -216 96 -216s149 49 184 216z" />
    <glyph glyph-name="p" unicode="p" horiz-adv-x="556" 
d="M185 458c40 49 96 78 167 78c117 0 179 -82 136 -286s-135 -260 -252 -260c-67 0 -115 33 -134 78l-64 -302s-12 -5 -37 -5s-35 5 -35 5l161 755s12 5 37 5s31 -5 31 -5zM415 263c33 158 2 212 -96 212c-84 0 -144 -72 -161 -146l-28 -129c-14 -64 22 -149 99 -149
c98 0 152 54 186 212z" />
    <glyph glyph-name="paragraph" unicode="&#xb6;" horiz-adv-x="521" 
d="M59 -223l133 629c-94 2 -125 74 -110 146c18 74 82 147 178 147h54l-196 -922s-11 -4 -30 -4c-22 0 -29 4 -29 4zM500 695l-195 -918s-11 -4 -31 -4s-28 4 -28 4l195 918s10 4 30 4s29 -4 29 -4z" />
    <glyph glyph-name="parenleft" unicode="(" horiz-adv-x="287" 
d="M337 803c16 -10 19 -22 19 -22s-165 -181 -224 -461c-60 -280 28 -461 28 -461s-9 -13 -28 -22s-32 -8 -32 -8s-100 209 -40 491c60 283 248 491 248 491s14 1 29 -8z" />
    <glyph glyph-name="parenright" unicode=")" horiz-adv-x="287" 
d="M162 320c59 280 -28 461 -28 461s9 12 28 22c19 9 32 8 32 8s99 -208 39 -491c-60 -282 -247 -491 -247 -491s-15 -1 -30 8s-18 22 -18 22s164 181 224 461z" />
    <glyph glyph-name="partialdiff" unicode="&#x2202;" horiz-adv-x="555" 
d="M218 688c0 23 8 46 23 62c227 -31 307 -174 251 -437c-52 -245 -151 -323 -288 -323c-132 0 -201 73 -160 262c40 189 138 262 262 262c63 0 105 -25 129 -59c-5 120 -69 208 -217 233zM429 379c-19 51 -70 77 -130 77c-84 0 -146 -44 -180 -204
c-34 -159 13 -205 97 -205c105 0 162 78 189 205c9 45 18 86 24 127z" />
    <glyph glyph-name="percent" unicode="%" horiz-adv-x="751" 
d="M686 697l-536 -702s-12 -5 -33 -5c-20 0 -30 5 -30 5l537 702s10 5 32 5c21 0 30 -5 30 -5zM187 345c-84 0 -123 48 -96 173c26 123 86 173 170 173c82 0 123 -48 96 -173s-88 -173 -170 -173zM251 644c-47 0 -81 -28 -102 -126c-21 -99 1 -125 48 -125
c45 0 80 26 101 125c21 98 -2 126 -47 126zM506 -10c-83 0 -123 48 -96 173c26 123 86 173 169 173c82 0 123 -48 97 -173c-27 -125 -88 -173 -170 -173zM569 289c-46 0 -81 -28 -101 -126c-21 -99 2 -125 48 -125s80 26 101 125c20 98 -3 126 -48 126z" />
    <glyph glyph-name="period" unicode="." horiz-adv-x="222" 
d="M108 78l-16 -73s-15 -5 -42 -5c-28 0 -40 5 -40 5l16 73s14 5 42 5c27 0 40 -5 40 -5z" />
    <glyph glyph-name="periodcentered" unicode="&#xb7;" horiz-adv-x="225" 
d="M151 317l-13 -65s-15 -6 -39 -6c-25 0 -35 6 -35 6l13 65s13 5 38 5c24 0 36 -5 36 -5z" />
    <glyph glyph-name="perthousand" unicode="&#x2030;" horiz-adv-x="1073" 
d="M686 697l-536 -702s-12 -5 -33 -5c-20 0 -30 5 -30 5l537 702s10 5 32 5c21 0 30 -5 30 -5zM187 345c-84 0 -123 48 -96 173c26 123 86 173 170 173c82 0 123 -48 96 -173s-88 -173 -170 -173zM251 644c-47 0 -81 -28 -102 -126c-21 -99 1 -125 48 -125
c45 0 80 26 101 125c21 98 -2 126 -47 126zM506 -10c-83 0 -123 48 -96 173c26 123 86 173 169 173c82 0 123 -48 97 -173c-27 -125 -88 -173 -170 -173zM830 -10c-83 0 -122 48 -95 173c26 123 85 173 168 173c82 0 124 -48 98 -173c-27 -125 -89 -173 -171 -173zM569 289
c-46 0 -81 -28 -101 -126c-21 -99 2 -125 48 -125s80 26 101 125c20 98 -3 126 -48 126zM893 289c-46 0 -80 -28 -100 -126c-21 -99 1 -125 47 -125s80 26 101 125c20 98 -3 126 -48 126z" />
    <glyph glyph-name="pi" unicode="&#x3c0;" horiz-adv-x="610" 
d="M247 526h370c1 -9 1 -20 -2 -30c-2 -11 -6 -22 -11 -31h-72l-49 -228c-34 -162 -14 -220 -14 -220c-13 -11 -34 -17 -54 -17c-7 0 -19 1 -24 4c0 0 -18 55 19 232l49 229h-245l-98 -459s-12 -6 -37 -6c-24 0 -35 6 -35 6l97 456c-44 -4 -71 -11 -71 -11c-1 9 -1 20 1 31
c3 11 6 22 12 30c0 0 52 14 164 14z" />
    <glyph glyph-name="plus" unicode="+" horiz-adv-x="461" 
d="M193 262h-145s-3 10 1 28c3 18 11 28 11 28h145l31 146s10 4 28 4s28 -4 28 -4l-31 -146h146s1 -10 -2 -28c-4 -18 -10 -28 -10 -28h-146l-31 -145s-11 -5 -29 -5s-27 5 -27 5z" />
    <glyph glyph-name="plusminus" unicode="&#xb1;" horiz-adv-x="510" 
d="M241 374h-145s-2 10 1 28c4 18 11 28 11 28h145l25 116s11 4 29 4s27 -4 27 -4l-25 -116h146s2 -10 -2 -28c-3 -18 -10 -28 -10 -28h-146l-24 -115s-11 -5 -29 -5s-27 5 -27 5zM393 136h-347s-3 10 1 28s11 28 11 28h347s2 -10 -2 -28s-10 -28 -10 -28z" />
    <glyph glyph-name="product" unicode="&#x220f;" horiz-adv-x="715" 
d="M694 693l-190 -894s-12 -6 -36 -6c-22 0 -32 6 -32 6l177 830h-373l-177 -830s-11 -6 -36 -6c-21 0 -32 6 -32 6l190 894h509z" />
    <glyph glyph-name="q" unicode="q" horiz-adv-x="554" 
d="M286 -234l63 295c-42 -49 -87 -71 -163 -71c-108 0 -179 80 -136 284s129 262 246 262c76 0 118 -29 137 -78l20 63s11 5 30 5c25 0 36 -5 36 -5l-161 -755s-12 -5 -37 -5s-35 5 -35 5zM121 263c-34 -158 8 -212 96 -212c82 0 142 71 160 143l29 135
c14 74 -25 146 -103 146c-97 0 -149 -54 -182 -212z" />
    <glyph glyph-name="question" unicode="?" horiz-adv-x="429" 
d="M429 524c-42 -198 -219 -165 -257 -346c0 0 -10 -8 -30 -8c-18 0 -27 8 -27 8c47 221 204 180 238 342c15 68 -18 108 -104 108c-77 0 -129 -24 -129 -24c-14 12 -18 32 -11 53c0 0 67 33 164 33c121 0 178 -63 156 -166zM164 78l-16 -73s-15 -5 -42 -5
c-28 0 -40 5 -40 5l16 73s14 5 42 5c27 0 40 -5 40 -5z" />
    <glyph glyph-name="questiondown" unicode="&#xbf;" horiz-adv-x="420" 
d="M244 442l15 73s15 5 41 5c28 0 40 -5 40 -5l-15 -73s-14 -5 -42 -5c-26 0 -39 5 -39 5zM-23 -4c42 198 219 165 258 346c0 0 10 6 29 6s29 -6 29 -6c-47 -221 -206 -180 -240 -342c-14 -68 18 -108 104 -108c78 0 129 24 129 24c15 -12 18 -32 12 -53
c0 0 -67 -33 -164 -33c-121 0 -179 63 -157 166z" />
    <glyph glyph-name="quotedbl" unicode="&#x22;" horiz-adv-x="330" 
d="M120 518l29 197s12 5 37 5s35 -5 35 -5l-55 -197s-8 -4 -24 -4c-15 0 -22 4 -22 4zM250 518l29 197s11 5 37 5c24 0 35 -5 35 -5l-55 -197s-9 -4 -24 -4c-16 0 -22 4 -22 4z" />
    <glyph glyph-name="quotedblbase" unicode="&#x201e;" horiz-adv-x="350" 
d="M6 -112l-24 19s37 33 55 93c-18 1 -26 5 -26 5l16 73s14 5 42 5c26 0 39 -5 39 -5l-11 -50c-20 -93 -91 -140 -91 -140zM133 -112l-24 19s38 33 55 93c-18 1 -26 5 -26 5l16 73s14 5 42 5c26 0 39 -5 39 -5l-11 -50c-20 -93 -91 -140 -91 -140z" />
    <glyph glyph-name="quotedblright" unicode="&#x201d;" horiz-adv-x="334" 
d="M134 524l-23 20s37 32 55 93c-18 1 -26 5 -26 5l16 73s13 5 41 5c27 0 40 -5 40 -5l-11 -50c-19 -93 -92 -141 -92 -141zM260 524l-23 20s36 32 54 93c-17 1 -26 5 -26 5l16 73s14 5 42 5c26 0 39 -5 39 -5l-11 -50c-19 -93 -91 -141 -91 -141z" />
    <glyph glyph-name="quoteleft" unicode="&#x2018;" horiz-adv-x="216" 
d="M213 720l24 -20s-38 -32 -56 -93c19 -1 27 -4 27 -4l-15 -73s-15 -6 -43 -6c-26 0 -38 6 -38 6l10 50c20 92 91 140 91 140z" />
    <glyph glyph-name="quoteright" unicode="&#x2019;" horiz-adv-x="208" 
d="M134 524l-23 20s36 32 54 93c-18 1 -26 5 -26 5l16 73s14 5 41 5s40 -5 40 -5l-11 -50c-19 -93 -91 -141 -91 -141z" />
    <glyph glyph-name="quotesinglbase" unicode="&#x201a;" horiz-adv-x="223" 
d="M5 -112l-24 19s38 33 55 93c-18 1 -25 5 -25 5l16 73s13 5 41 5c27 0 40 -5 40 -5l-11 -50c-20 -93 -92 -140 -92 -140z" />
    <glyph glyph-name="quotesingle" unicode="'" horiz-adv-x="200" 
d="M120 518l29 197s11 5 37 5c24 0 35 -5 35 -5l-55 -197s-8 -4 -24 -4c-15 0 -22 4 -22 4z" />
    <glyph glyph-name="r" unicode="r" horiz-adv-x="390" 
d="M183 448c59 77 113 87 154 87c43 0 68 -15 81 -24c-9 -24 -22 -42 -43 -58c-19 14 -40 17 -67 17c-46 0 -99 -40 -141 -100l-78 -365s-12 -5 -37 -5s-35 5 -35 5l110 516s12 5 37 5s35 -5 35 -5z" />
    <glyph glyph-name="racute" unicode="&#x155;" horiz-adv-x="390" 
d="M212 631l135 144c25 2 51 -10 58 -29l-155 -139c-19 2 -33 10 -38 24zM183 448c59 77 113 87 154 87c43 0 68 -15 81 -24c-9 -24 -22 -42 -43 -58c-19 14 -40 17 -67 17c-46 0 -99 -40 -141 -100l-78 -365s-12 -5 -37 -5s-35 5 -35 5l110 516s12 5 37 5s35 -5 35 -5z" />
    <glyph glyph-name="radical" unicode="&#x221a;" horiz-adv-x="635" 
d="M240 -15l-77 372l-116 -46c-11 10 -17 30 -9 50l175 70l73 -357l360 656c21 3 41 -1 50 -14l-400 -731h-56z" />
    <glyph glyph-name="rcaron" unicode="&#x159;" horiz-adv-x="390" 
d="M280 662l116 72c13 -5 20 -17 24 -32l-135 -100h-23l-108 100c9 15 23 27 39 33zM183 448c59 77 113 87 154 87c43 0 68 -15 81 -24c-9 -24 -22 -42 -43 -58c-19 14 -40 17 -67 17c-46 0 -99 -40 -141 -100l-78 -365s-12 -5 -37 -5s-35 5 -35 5l110 516s12 5 37 5
s35 -5 35 -5z" />
    <glyph glyph-name="rcommaaccent" unicode="&#x157;" horiz-adv-x="390" 
d="M6 -48c0 0 15 5 42 5c26 0 39 -5 39 -5l-10 -50c-20 -93 -91 -141 -91 -141l-24 20s38 32 55 93c-18 1 -26 5 -26 5zM184 448c59 77 113 87 154 87c43 0 68 -15 81 -24c-9 -24 -22 -42 -43 -58c-19 14 -40 17 -67 17c-46 0 -99 -40 -141 -100l-78 -365s-12 -5 -37 -5
s-35 5 -35 5l110 516s12 5 37 5s35 -5 35 -5z" />
    <glyph glyph-name="registered" unicode="&#xae;" horiz-adv-x="534" 
d="M256 260c-116 0 -191 95 -166 211s140 211 256 211s191 -95 166 -211s-140 -211 -256 -211zM339 649c-98 0 -195 -79 -216 -178s42 -178 140 -178c99 0 195 79 216 178s-41 178 -140 178zM342 589c48 0 69 -26 60 -68c-7 -30 -24 -52 -57 -62l38 -93s-9 -5 -21 -5
c-11 0 -18 3 -18 3l-37 92h-49l-20 -92s-8 -3 -17 -3c-10 0 -16 3 -16 3l48 225h89zM264 484h54c30 0 45 14 50 37c5 27 -4 40 -34 40h-54z" />
    <glyph glyph-name="ring" unicode="&#x2da;" horiz-adv-x="344" 
d="M124 505c-66 0 -107 40 -92 110c15 71 79 107 139 107c58 0 111 -35 96 -107c-15 -71 -78 -110 -143 -110zM219 615c7 34 -9 66 -57 66c-47 0 -76 -33 -83 -66c-8 -34 7 -67 54 -67c48 0 79 34 86 67z" />
    <glyph glyph-name="s" unicode="s" horiz-adv-x="443" 
d="M75 397c19 88 88 139 210 139c89 0 130 -25 130 -25c-3 -19 -15 -41 -32 -53c0 0 -44 17 -103 17c-78 0 -126 -31 -138 -88s44 -76 103 -96c75 -25 135 -58 114 -161c-21 -96 -90 -140 -212 -140c-100 0 -153 34 -153 34c4 21 15 44 32 56c0 0 59 -27 130 -27
c68 0 121 27 134 89c14 66 -42 83 -101 101c-66 20 -134 59 -114 154z" />
    <glyph glyph-name="sacute" unicode="&#x15b;" horiz-adv-x="443" 
d="M413 746l-155 -139c-19 2 -33 10 -38 24l135 144c25 2 51 -10 58 -29zM75 397c19 88 88 139 210 139c89 0 130 -25 130 -25c-3 -19 -15 -41 -32 -53c0 0 -44 17 -103 17c-78 0 -126 -31 -138 -88s44 -76 103 -96c75 -25 135 -58 114 -161c-21 -96 -90 -140 -212 -140
c-100 0 -153 34 -153 34c4 21 15 44 32 56c0 0 59 -27 130 -27c68 0 121 27 134 89c14 66 -42 83 -101 101c-66 20 -134 59 -114 154z" />
    <glyph glyph-name="scaron" unicode="&#x161;" horiz-adv-x="443" 
d="M288 606l-103 98c9 15 21 26 38 31l85 -71l115 71c13 -5 21 -17 24 -31l-135 -98h-24zM75 397c19 88 88 139 210 139c89 0 130 -25 130 -25c-3 -19 -15 -41 -32 -53c0 0 -44 17 -103 17c-78 0 -126 -31 -138 -88s44 -76 103 -96c75 -25 135 -58 114 -161
c-21 -96 -90 -140 -212 -140c-100 0 -153 34 -153 34c4 21 15 44 32 56c0 0 59 -27 130 -27c68 0 121 27 134 89c14 66 -42 83 -101 101c-66 20 -134 59 -114 154z" />
    <glyph glyph-name="scedilla" unicode="&#x15f;" horiz-adv-x="443" 
d="M75 397c19 88 88 139 210 139c89 0 130 -25 130 -25c-3 -19 -15 -41 -32 -53c0 0 -44 17 -103 17c-78 0 -126 -31 -138 -88s44 -76 103 -96c75 -25 135 -58 114 -161c-20 -90 -81 -134 -189 -139l-19 -48c75 0 97 -40 86 -92c-13 -63 -61 -92 -134 -92
c-54 0 -83 23 -83 23c3 14 12 26 24 33c5 -3 30 -16 64 -16c41 0 72 17 80 57c7 31 -9 50 -50 50h-34l-8 11l30 74c-86 4 -132 33 -132 33c4 21 15 44 32 56c0 0 59 -27 130 -27c68 0 121 27 134 89c14 66 -42 83 -101 101c-66 20 -134 59 -114 154z" />
    <glyph glyph-name="scircumflex" unicode="&#x15d;" horiz-adv-x="443" 
d="M329 733l111 -103c-11 -16 -24 -29 -40 -34l-93 77l-124 -77c-15 6 -24 18 -26 34l147 103h25zM75 397c19 88 88 139 210 139c89 0 130 -25 130 -25c-3 -19 -15 -41 -32 -53c0 0 -44 17 -103 17c-78 0 -126 -31 -138 -88s44 -76 103 -96c75 -25 135 -58 114 -161
c-21 -96 -90 -140 -212 -140c-100 0 -153 34 -153 34c4 21 15 44 32 56c0 0 59 -27 130 -27c68 0 121 27 134 89c14 66 -42 83 -101 101c-66 20 -134 59 -114 154z" />
    <glyph glyph-name="scommaaccent" unicode="&#x219;" horiz-adv-x="443" 
d="M83 -258l-23 19s37 32 54 93c-17 1 -26 5 -26 5l16 73s15 5 42 5s39 -5 39 -5l-11 -50c-20 -93 -91 -140 -91 -140zM75 397c19 88 88 139 210 139c89 0 130 -25 130 -25c-3 -19 -15 -41 -32 -53c0 0 -44 17 -103 17c-78 0 -126 -31 -138 -88s44 -76 103 -96
c75 -25 135 -58 114 -161c-21 -96 -90 -140 -212 -140c-100 0 -153 34 -153 34c4 21 15 44 32 56c0 0 59 -27 130 -27c68 0 121 27 134 89c14 66 -42 83 -101 101c-66 20 -134 59 -114 154z" />
    <glyph glyph-name="section" unicode="&#xa7;" horiz-adv-x="486" 
d="M316 126c23 108 -274 55 -240 215c13 58 63 96 94 116c-30 20 -48 50 -37 102c18 88 95 131 201 131c67 0 114 -15 132 -22c0 -16 -10 -38 -26 -49c-9 3 -57 16 -105 16c-83 0 -126 -26 -136 -75c-23 -110 261 -57 227 -216c-12 -57 -60 -93 -88 -111
c36 -22 59 -53 48 -108c-22 -101 -116 -135 -223 -135c-91 0 -153 25 -153 25c1 18 9 39 27 51c9 -3 70 -19 127 -19c86 0 139 21 152 79zM216 432c-25 -15 -65 -42 -74 -82c-13 -65 75 -72 148 -96c22 15 60 40 69 81c14 63 -74 71 -143 97z" />
    <glyph glyph-name="semicolon" unicode=";" horiz-adv-x="242" 
d="M199 473l-15 -73s-15 -5 -42 -5c-28 0 -40 5 -40 5l15 73s15 5 43 5c27 0 39 -5 39 -5zM13 -112l-24 19s38 33 55 93c-18 1 -26 5 -26 5l16 73s14 5 42 5c27 0 40 -5 40 -5l-11 -50c-20 -93 -92 -140 -92 -140z" />
    <glyph glyph-name="seven" unicode="7" horiz-adv-x="493" 
d="M117 680h410c2 -14 0 -27 -3 -41c-57 -244 -316 -301 -387 -635c-7 -1 -20 -4 -35 -4c-16 0 -28 3 -36 4c73 344 311 409 378 610h-341s-3 12 1 33c5 22 13 33 13 33z" />
    <glyph glyph-name="seven.denom" horiz-adv-x="277" 
d="M194 298h-166c-1 5 -1 13 1 22c2 10 6 17 9 23h215s0 -13 -3 -28c-29 -135 -160 -145 -195 -312c-9 -2 -17 -3 -26 -3s-18 1 -23 3c37 172 143 184 188 295z" />
    <glyph glyph-name="seven.num" horiz-adv-x="277" 
d="M112 689h215c1 -8 -1 -19 -3 -28c-28 -135 -159 -145 -195 -312c-17 -4 -34 -4 -49 0c38 172 143 184 189 295h-166c-3 14 0 31 9 45z" />
    <glyph glyph-name="seveneighths" unicode="&#x215e;" horiz-adv-x="669" 
d="M539 697c0 0 9 5 28 5s26 -5 26 -5l-536 -703s-11 -4 -29 -4c-16 0 -26 4 -26 4zM131 689h216s1 -13 -3 -28c-29 -135 -160 -145 -196 -312c-17 -4 -34 -4 -49 0c39 172 143 184 189 295h-166c-2 14 1 31 9 45zM382 262c10 51 57 86 130 86c68 0 103 -31 92 -85
c-9 -41 -39 -69 -69 -86c31 -18 54 -42 44 -87c-13 -60 -65 -95 -142 -95c-73 0 -116 31 -102 93c9 46 46 76 81 94c-26 17 -43 40 -34 80zM556 260c7 32 -11 50 -53 50c-39 0 -66 -18 -72 -46c-8 -39 31 -53 70 -70c28 16 49 37 55 66zM529 87c10 45 -42 59 -80 78
c-13 -7 -57 -32 -66 -74c-8 -39 16 -56 64 -56c40 0 75 17 82 52z" />
    <glyph glyph-name="seveninferior" unicode="&#x2087;" horiz-adv-x="277" 
d="M175 202h-166c-3 14 0 31 9 45h215s1 -13 -3 -29c-28 -134 -166 -144 -199 -311c-17 -4 -34 -4 -50 0c39 174 148 184 194 295z" />
    <glyph glyph-name="six" unicode="6" horiz-adv-x="552" 
d="M509 680c5 -17 0 -40 -12 -59c-153 -16 -267 -83 -331 -241c35 15 89 36 153 36c114 0 191 -69 158 -222c-30 -142 -131 -204 -262 -204c-129 0 -201 80 -161 267c59 280 230 409 455 423zM403 203c23 109 -25 154 -106 154c-66 0 -128 -30 -154 -43
c-6 -19 -12 -40 -16 -61c-31 -145 10 -205 94 -205s160 50 182 155z" />
    <glyph glyph-name="six.denom" horiz-adv-x="310" 
d="M4 140c25 117 108 194 243 206c3 -11 0 -28 -9 -40c-77 -9 -139 -46 -166 -115c14 6 40 17 74 17c65 0 102 -37 88 -105c-16 -73 -75 -108 -140 -108c-76 0 -111 48 -90 145zM183 103c8 39 -11 64 -52 64c-39 0 -64 -14 -75 -20c-16 -74 -2 -112 46 -112
c40 0 72 25 81 68z" />
    <glyph glyph-name="six.num" horiz-adv-x="311" 
d="M78 487c25 117 109 194 243 206c4 -11 0 -28 -8 -40c-77 -9 -139 -46 -167 -115c15 6 41 17 75 17c65 0 102 -37 88 -105c-16 -73 -75 -108 -140 -108c-76 0 -111 48 -91 145zM258 450c8 39 -11 64 -52 64c-39 0 -64 -14 -75 -20c-16 -74 -2 -112 46 -112
c40 0 71 25 81 68z" />
    <glyph glyph-name="sixinferior" unicode="&#x2086;" horiz-adv-x="310" 
d="M-16 44c25 117 109 194 243 206c4 -11 0 -27 -8 -40c-77 -9 -139 -46 -167 -115c14 6 41 17 75 17c65 0 102 -37 87 -105c-15 -73 -75 -108 -140 -108c-76 0 -110 48 -90 145zM163 7c9 39 -10 64 -51 64c-39 0 -64 -14 -75 -20c-16 -73 -2 -112 46 -112c40 0 71 25 80 68
z" />
    <glyph glyph-name="slash" unicode="/" horiz-adv-x="457" 
d="M-50 -41l503 785s14 6 37 6c25 0 36 -6 36 -6l-503 -785s-14 -6 -38 -6s-35 6 -35 6z" />
    <glyph glyph-name="space" unicode=" " horiz-adv-x="243" 
 />
    <glyph glyph-name="sterling" unicode="&#xa3;" horiz-adv-x="523" 
d="M397 309h-175c3 -77 -12 -159 -117 -243h306c2 -2 3 -15 -1 -33s-11 -31 -13 -33h-389l14 66c117 90 129 166 124 243h-82c-1 2 -3 13 1 28c3 15 8 26 11 28h66c-7 45 -12 92 -1 145c28 128 124 181 246 181c77 0 134 -21 153 -30c-2 -22 -14 -42 -34 -54
c-13 5 -62 22 -122 22c-87 0 -149 -37 -167 -122c-10 -47 -3 -94 2 -142h190c0 -2 2 -12 -1 -27c-3 -14 -9 -26 -11 -29z" />
    <glyph glyph-name="summation" unicode="&#x2211;" horiz-adv-x="582" 
d="M-65 -169l318 430l-125 400l7 33h479s3 -11 -1 -31c-4 -19 -12 -31 -12 -31h-387l116 -372l-297 -404h409s3 -11 -1 -32c-4 -19 -12 -31 -12 -31h-502z" />
    <glyph glyph-name="t" unicode="t" horiz-adv-x="359" 
d="M213 469l-61 -287c-21 -96 -11 -132 68 -132c25 0 60 5 60 5s3 -12 -1 -30c-3 -17 -9 -27 -9 -27c-11 -3 -39 -8 -72 -8c-118 0 -145 67 -119 189l62 290h-78s-3 10 1 28c4 20 11 29 11 29h78l20 95c22 13 50 18 75 16l-23 -111h143s3 -10 -1 -28s-11 -29 -11 -29h-143z
" />
    <glyph glyph-name="tbar" unicode="&#x167;" horiz-adv-x="361" 
d="M222 50c25 0 60 5 60 5s3 -12 -1 -30c-3 -17 -9 -27 -9 -27c-11 -3 -39 -8 -72 -8c-118 0 -145 67 -119 189l17 81h-67c0 16 3 33 10 48h67l35 161h-78s-3 10 1 28c4 20 11 29 11 29h78l20 95c22 13 50 18 75 16l-23 -111h143s3 -10 -1 -28s-11 -29 -11 -29h-143
l-35 -161h107c2 -15 -3 -33 -10 -48h-107l-16 -78c-21 -96 -11 -132 68 -132z" />
    <glyph glyph-name="tcaron" unicode="&#x165;" horiz-adv-x="359" 
d="M354 585c-14 3 -23 11 -27 22c52 38 79 80 94 142c27 2 48 -2 60 -14c-21 -62 -70 -125 -127 -150zM213 469l-61 -287c-21 -96 -11 -132 68 -132c25 0 60 5 60 5s3 -12 -1 -30c-3 -17 -9 -27 -9 -27c-11 -3 -39 -8 -72 -8c-118 0 -145 67 -119 189l62 290h-78s-3 10 1 28
c4 20 11 29 11 29h78l20 95c22 13 50 18 75 16l-23 -111h143s3 -10 -1 -28s-11 -29 -11 -29h-143z" />
    <glyph glyph-name="thorn" unicode="&#xfe;" horiz-adv-x="556" 
d="M174 745c0 0 12 5 37 5s35 -5 35 -5l-61 -287c40 49 94 78 171 78c117 0 175 -83 132 -287s-131 -259 -248 -259c-77 0 -119 29 -138 78l-64 -302s-12 -5 -37 -5s-35 5 -35 5zM415 263c33 158 2 212 -96 212c-84 0 -144 -72 -161 -146l-28 -129c-15 -74 14 -149 99 -149
c98 0 152 54 186 212z" />
    <glyph glyph-name="three" unicode="3" horiz-adv-x="519" 
d="M429 177c-23 -104 -102 -187 -277 -187c-105 0 -162 34 -162 34c3 19 16 42 31 54c15 -6 66 -24 139 -24c120 0 179 49 197 133c23 111 -48 139 -133 139h-62c-4 19 1 41 13 60h62c74 0 148 26 168 123c17 77 -21 120 -118 120c-78 0 -140 -24 -140 -24
c-15 11 -20 31 -13 52c0 0 73 33 173 33c137 0 191 -75 169 -180c-14 -68 -49 -125 -129 -153c80 -27 100 -91 82 -180z" />
    <glyph glyph-name="three.denom" horiz-adv-x="299" 
d="M215 94c-12 -57 -54 -99 -157 -99c-55 0 -87 17 -87 17c2 12 9 27 21 35c0 0 31 -10 73 -10c70 0 93 27 100 61c9 43 -14 61 -59 61h-45c-2 13 1 28 8 41h45c42 0 66 20 73 52c7 37 -13 54 -58 54c-42 0 -77 -9 -77 -9c-6 8 -8 22 -4 36c0 0 39 15 93 15
c75 0 110 -33 98 -90c-8 -37 -26 -61 -62 -77c31 -14 48 -38 38 -87z" />
    <glyph glyph-name="three.num" horiz-adv-x="300" 
d="M289 440c-12 -57 -54 -99 -157 -99c-55 0 -87 17 -87 17c3 12 10 27 21 35c0 0 31 -10 73 -10c70 0 93 27 100 61c9 43 -14 61 -59 61h-45c-2 13 1 28 9 41h45c42 0 65 20 72 52c8 37 -12 54 -57 54c-42 0 -77 -9 -77 -9c-7 8 -9 22 -5 36c0 0 39 15 93 15
c75 0 110 -33 98 -90c-8 -37 -26 -61 -61 -77c31 -14 48 -38 37 -87z" />
    <glyph glyph-name="threeeighths" unicode="&#x215c;" horiz-adv-x="755" 
d="M625 697c0 0 9 5 28 5s26 -5 26 -5l-536 -703s-11 -4 -29 -4c-16 0 -26 4 -26 4zM135 679c0 0 40 15 94 15c74 0 109 -33 97 -90c-8 -37 -26 -61 -61 -77c31 -14 48 -38 37 -87c-12 -57 -54 -99 -156 -99c-56 0 -87 17 -87 17c2 12 9 27 20 35c0 0 32 -10 74 -10
c69 0 93 27 100 61c9 43 -15 61 -59 61h-46c-2 13 1 28 9 41h46c41 0 65 20 72 52c8 37 -13 54 -57 54c-42 0 -78 -9 -78 -9c-7 8 -9 22 -5 36zM468 262c10 51 57 86 130 86c68 0 103 -31 92 -85c-9 -41 -39 -69 -69 -86c31 -18 54 -42 44 -87c-13 -60 -65 -95 -142 -95
c-73 0 -116 31 -102 93c9 46 46 76 81 94c-26 17 -43 40 -34 80zM642 260c7 32 -11 50 -53 50c-39 0 -66 -18 -72 -46c-8 -39 31 -53 70 -70c28 16 49 37 55 66zM615 87c10 45 -42 59 -80 78c-13 -7 -57 -32 -66 -74c-8 -39 16 -56 64 -56c40 0 75 17 82 52z" />
    <glyph glyph-name="threeinferior" unicode="&#x2083;" horiz-adv-x="300" 
d="M196 -2c-13 -57 -55 -99 -158 -99c-55 0 -87 17 -87 17c3 12 10 27 22 35c0 0 30 -10 72 -10c70 0 93 27 100 61c10 43 -14 61 -59 61h-45c-2 13 1 28 9 41h45c42 0 65 20 72 52c8 37 -12 54 -57 54c-42 0 -77 -9 -77 -9c-7 8 -9 22 -5 36c0 0 40 15 94 15
c75 0 110 -33 97 -90c-7 -37 -26 -61 -61 -77c31 -14 48 -38 38 -87z" />
    <glyph glyph-name="threequarters" unicode="&#xbe;" horiz-adv-x="703" 
d="M626 697c0 0 9 5 28 5s26 -5 26 -5l-536 -703s-11 -4 -29 -4c-16 0 -26 4 -26 4zM134 679c0 0 39 15 93 15c74 0 109 -33 97 -90c-8 -37 -25 -61 -61 -77c32 -14 48 -38 37 -87c-12 -57 -54 -99 -156 -99c-55 0 -87 17 -87 17c2 12 10 27 20 35c0 0 32 -10 74 -10
c70 0 93 27 100 61c9 43 -15 61 -59 61h-45c-3 13 0 28 9 41h45c41 0 65 20 72 52c8 37 -13 54 -57 54c-42 0 -78 -9 -78 -9c-7 8 -8 22 -4 36zM577 339c6 2 14 4 25 4s18 -2 23 -4l-45 -211h41c0 -5 1 -12 -1 -20c-2 -9 -5 -15 -7 -19h-41l-18 -86c-7 -1 -13 -3 -22 -3
c-10 0 -17 2 -22 3l18 86h-175c0 4 -1 10 0 16c2 7 4 12 7 16zM416 128h120l32 152z" />
    <glyph glyph-name="threesuperior" unicode="&#xb3;" horiz-adv-x="300" 
d="M289 440c-12 -57 -54 -99 -157 -99c-55 0 -87 17 -87 17c3 12 10 27 21 35c0 0 31 -10 73 -10c70 0 93 27 100 61c9 43 -14 61 -59 61h-45c-2 13 1 28 9 41h45c42 0 65 20 72 52c8 37 -12 54 -57 54c-42 0 -77 -9 -77 -9c-7 8 -9 22 -5 36c0 0 39 15 93 15
c75 0 110 -33 98 -90c-8 -37 -26 -61 -61 -77c31 -14 48 -38 37 -87z" />
    <glyph glyph-name="tilde" unicode="&#x2dc;" horiz-adv-x="327" 
d="M218 669c29 0 51 29 51 29c14 -6 23 -19 23 -34c0 0 -35 -47 -91 -47c-54 0 -63 35 -102 35c-30 0 -53 -30 -53 -30c-15 8 -23 19 -23 34c0 0 35 47 92 47c53 0 63 -34 103 -34z" />
    <glyph glyph-name="trademark" unicode="&#x2122;" horiz-adv-x="622" 
d="M124 720h203c1 -4 1 -9 0 -14c-1 -6 -3 -10 -6 -15h-84l-55 -256s-5 -3 -17 -3s-16 3 -16 3l55 256h-86c0 4 -1 9 0 14s3 10 6 15zM376 717c0 0 7 3 21 3c10 0 13 -2 18 -3l30 -98c8 -28 14 -55 18 -75c10 18 29 44 49 71l72 102s11 3 22 3c13 0 20 -3 20 -3l-60 -282
s-6 -3 -16 -3c-11 0 -17 3 -17 3l27 124c9 45 17 79 25 114c-14 -21 -29 -43 -43 -62l-72 -99s-6 -3 -16 -3s-14 3 -14 3l-28 98c-6 24 -12 42 -17 63c-4 -30 -13 -69 -22 -114l-27 -124s-6 -3 -15 -3c-10 0 -15 3 -15 3z" />
    <glyph glyph-name="two" unicode="2" horiz-adv-x="529" 
d="M164 601c-14 12 -18 30 -10 53c0 0 83 36 192 36c114 0 195 -61 168 -190c-26 -120 -105 -151 -239 -223c-74 -40 -174 -79 -196 -181c-3 -16 -3 -27 -4 -30h330c2 -6 2 -17 -1 -33c-3 -15 -9 -26 -13 -33h-396s1 32 8 67c33 166 145 205 249 264c105 60 169 93 188 180
c13 61 -9 118 -119 118c-80 0 -157 -28 -157 -28z" />
    <glyph glyph-name="two.denom" horiz-adv-x="300" 
d="M-23 41c29 136 204 119 223 209c7 32 -10 55 -63 56c-32 0 -67 -8 -72 -10c-7 11 -9 24 -4 38c0 0 40 14 93 14c77 0 109 -37 97 -95c-26 -121 -190 -100 -224 -209h171c2 -7 2 -15 1 -22c-2 -8 -6 -15 -10 -22h-217s0 18 5 41z" />
    <glyph glyph-name="two.num" horiz-adv-x="301" 
d="M52 387c29 136 205 119 224 209c6 31 -10 56 -63 56c-32 0 -66 -8 -73 -10c-6 11 -8 24 -4 38c0 0 40 14 93 14c77 0 110 -37 97 -95c-25 -121 -189 -100 -223 -209h171c1 -7 2 -15 0 -22c-2 -8 -5 -15 -9 -22h-217s-1 18 4 41z" />
    <glyph glyph-name="twoinferior" unicode="&#x2082;" horiz-adv-x="301" 
d="M-42 -55c29 136 205 119 224 209c6 32 -11 56 -64 56c-31 0 -66 -8 -72 -10c-6 11 -8 24 -3 38c0 0 40 14 93 14c77 0 109 -37 96 -95c-25 -121 -189 -100 -223 -209h171c1 -7 2 -15 0 -22c-1 -8 -5 -15 -9 -22h-217s-1 18 4 41z" />
    <glyph glyph-name="twosuperior" unicode="&#xb2;" horiz-adv-x="301" 
d="M52 387c29 136 205 119 224 209c6 32 -11 56 -65 56c-31 0 -65 -8 -71 -10c-6 11 -8 24 -4 38c0 0 40 14 93 14c77 0 110 -37 97 -95c-25 -121 -189 -100 -223 -209h171c1 -7 2 -15 0 -22c-2 -8 -5 -15 -9 -22h-217s-1 18 4 41z" />
    <glyph glyph-name="u" unicode="u" 
d="M45 157l77 364s14 5 37 5c25 0 35 -5 35 -5l-78 -367c-15 -69 14 -104 87 -104c53 0 115 33 158 91l81 380s13 5 37 5c25 0 35 -5 35 -5l-110 -516s-7 -5 -32 -5c-24 0 -34 5 -34 5l6 58c-49 -49 -102 -73 -171 -73c-98 0 -149 71 -128 167z" />
    <glyph glyph-name="uacute" unicode="&#xfa;" 
d="M460 746l-155 -139c-19 2 -33 10 -38 24l135 144c25 2 51 -10 58 -29zM45 157l77 364s14 5 37 5c25 0 35 -5 35 -5l-78 -367c-15 -69 14 -104 87 -104c53 0 115 33 158 91l81 380s13 5 37 5c25 0 35 -5 35 -5l-110 -516s-7 -5 -32 -5c-24 0 -34 5 -34 5l6 58
c-49 -49 -102 -73 -171 -73c-98 0 -149 71 -128 167z" />
    <glyph glyph-name="ubreve" unicode="&#x16d;" 
d="M343 682c67 0 117 36 117 36c16 -5 26 -23 26 -40c0 0 -51 -53 -146 -53c-94 0 -139 58 -139 58c9 16 24 30 41 35c0 0 34 -36 101 -36zM45 157l77 364s14 5 37 5c25 0 35 -5 35 -5l-78 -367c-15 -69 14 -104 87 -104c53 0 115 33 158 91l81 380s13 5 37 5
c25 0 35 -5 35 -5l-110 -516s-7 -5 -32 -5c-24 0 -34 5 -34 5l6 58c-49 -49 -102 -73 -171 -73c-98 0 -149 71 -128 167z" />
    <glyph glyph-name="ucircumflex" unicode="&#xfb;" 
d="M375 741l110 -105c-9 -15 -23 -29 -40 -33l-93 76l-124 -77c-15 6 -23 18 -26 34l148 105h25zM45 157l77 364s14 5 37 5c25 0 35 -5 35 -5l-78 -367c-15 -69 14 -104 87 -104c53 0 115 33 158 91l81 380s13 5 37 5c25 0 35 -5 35 -5l-110 -516s-7 -5 -32 -5
c-24 0 -34 5 -34 5l6 58c-49 -49 -102 -73 -171 -73c-98 0 -149 71 -128 167z" />
    <glyph glyph-name="udieresis" unicode="&#xfc;" 
d="M240 705c0 0 13 5 38 5c24 0 36 -5 36 -5l-14 -65s-14 -5 -38 -5c-25 0 -36 5 -36 5zM398 705c0 0 13 5 38 5c24 0 36 -5 36 -5l-14 -65s-14 -5 -38 -5c-25 0 -36 5 -36 5zM45 157l77 364s14 5 37 5c25 0 35 -5 35 -5l-78 -367c-15 -69 14 -104 87 -104
c53 0 115 33 158 91l81 380s13 5 37 5c25 0 35 -5 35 -5l-110 -516s-7 -5 -32 -5c-24 0 -34 5 -34 5l6 58c-49 -49 -102 -73 -171 -73c-98 0 -149 71 -128 167z" />
    <glyph glyph-name="ugrave" unicode="&#xf9;" 
d="M320 774l74 -143c-12 -14 -26 -22 -45 -24l-95 139c14 17 42 30 66 28zM45 157l77 364s14 5 37 5c25 0 35 -5 35 -5l-78 -367c-15 -69 14 -104 87 -104c53 0 115 33 158 91l81 380s13 5 37 5c25 0 35 -5 35 -5l-110 -516s-7 -5 -32 -5c-24 0 -34 5 -34 5l6 58
c-49 -49 -102 -73 -171 -73c-98 0 -149 71 -128 167z" />
    <glyph glyph-name="uhungarumlaut" unicode="&#x171;" 
d="M404 734l-143 -128c-18 2 -30 10 -36 22l122 132c25 2 49 -9 57 -26zM550 734l-142 -128c-18 2 -31 10 -37 22l122 132c24 2 48 -9 57 -26zM45 157l77 364s14 5 37 5c25 0 35 -5 35 -5l-78 -367c-15 -69 14 -104 87 -104c53 0 115 33 158 91l81 380s13 5 37 5
c25 0 35 -5 35 -5l-110 -516s-7 -5 -32 -5c-24 0 -34 5 -34 5l6 58c-49 -49 -102 -73 -171 -73c-98 0 -149 71 -128 167z" />
    <glyph glyph-name="umacron" unicode="&#x16b;" 
d="M243 699h231c3 -13 -2 -31 -10 -46h-231c-2 16 2 33 10 46zM45 157l77 364s14 5 37 5c25 0 35 -5 35 -5l-78 -367c-15 -69 14 -104 87 -104c53 0 115 33 158 91l81 380s13 5 37 5c25 0 35 -5 35 -5l-110 -516s-7 -5 -32 -5c-24 0 -34 5 -34 5l6 58
c-49 -49 -102 -73 -171 -73c-98 0 -149 71 -128 167z" />
    <glyph glyph-name="underscore" unicode="_" horiz-adv-x="544" 
d="M404 -71h-417s-4 7 0 26c4 18 11 25 11 25h417s2 -7 -2 -25c-4 -19 -9 -26 -9 -26z" />
    <glyph glyph-name="uni00AD" unicode="&#xad;" horiz-adv-x="258" 
 />
    <glyph glyph-name="Tcommaaccent" unicode="&#x162;" horiz-adv-x="532" 
d="M119 720h469s3 -12 -1 -32c-4 -19 -13 -33 -13 -33h-195l-138 -649s-14 -6 -38 -6c-26 0 -36 6 -36 6l138 649h-200s-3 13 1 33c4 19 13 32 13 32zM132 -247l-23 20s38 32 54 92c-18 1 -26 5 -26 5l16 73s15 5 42 5s39 -5 39 -5l-11 -50c-19 -92 -91 -140 -91 -140z" />
    <glyph glyph-name="Tcommaaccent" unicode="&#x21a;" horiz-adv-x="532" 
d="M119 720h469s3 -12 -1 -32c-4 -19 -13 -33 -13 -33h-195l-138 -649s-14 -6 -38 -6c-26 0 -36 6 -36 6l138 649h-200s-3 13 1 33c4 19 13 32 13 32zM132 -247l-23 20s38 32 54 92c-18 1 -26 5 -26 5l16 73s15 5 42 5s39 -5 39 -5l-11 -50c-19 -92 -91 -140 -91 -140z" />
    <glyph glyph-name="tcommaaccent" unicode="&#x163;" horiz-adv-x="359" 
d="M213 469l-61 -287c-21 -96 -11 -132 68 -132c25 0 60 5 60 5s3 -12 -1 -30c-3 -17 -9 -27 -9 -27c-11 -3 -39 -8 -72 -8c-118 0 -145 67 -119 189l62 290h-78s-3 10 1 28c4 20 11 29 11 29h78l20 95c22 13 50 18 75 16l-23 -111h143s3 -10 -1 -28s-11 -29 -11 -29h-143z
M84 -258l-23 19s37 32 54 93c-17 1 -26 5 -26 5l16 73s15 5 42 5s39 -5 39 -5l-11 -50c-20 -93 -91 -140 -91 -140z" />
    <glyph glyph-name="tcommaaccent" unicode="&#x21b;" horiz-adv-x="359" 
d="M213 469l-61 -287c-21 -96 -11 -132 68 -132c25 0 60 5 60 5s3 -12 -1 -30c-3 -17 -9 -27 -9 -27c-11 -3 -39 -8 -72 -8c-118 0 -145 67 -119 189l62 290h-78s-3 10 1 28c4 20 11 29 11 29h78l20 95c22 13 50 18 75 16l-23 -111h143s3 -10 -1 -28s-11 -29 -11 -29h-143z
M84 -258l-23 19s37 32 54 93c-17 1 -26 5 -26 5l16 73s15 5 42 5s39 -5 39 -5l-11 -50c-20 -93 -91 -140 -91 -140z" />
    <glyph glyph-name="uni0401" unicode="&#x401;" horiz-adv-x="556" 
d="M308 865c0 0 13 5 38 5c24 0 36 -5 36 -5l-14 -65s-14 -5 -38 -5c-25 0 -36 5 -36 5zM466 865c0 0 13 5 38 5c24 0 36 -5 36 -5l-14 -65s-14 -5 -38 -5c-25 0 -36 5 -36 5zM186 720h397c1 -9 2 -18 0 -30c-3 -12 -7 -23 -13 -32h-323l-56 -263h273c1 -9 2 -19 0 -29
c-3 -12 -7 -22 -13 -32h-273l-58 -272h333c1 -9 2 -19 0 -30c-3 -11 -7 -22 -13 -32h-407z" />
    <glyph glyph-name="uni0410" unicode="&#x410;" horiz-adv-x="646" 
d="M369 714c0 0 17 6 42 6c26 0 40 -6 40 -6l114 -708s-14 -6 -42 -6c-19 0 -30 6 -30 6l-31 191h-319l-112 -191s-13 -6 -44 -6c-24 0 -34 6 -34 6zM398 641h-3s-12 -30 -35 -69l-182 -313h275l-50 313c-6 40 -5 69 -5 69z" />
    <glyph glyph-name="uni0411" unicode="&#x411;" horiz-adv-x="616" 
d="M186 720h397s3 -12 -1 -33c-4 -19 -13 -32 -13 -32h-323l-51 -242h190c126 0 186 -95 159 -219c-26 -125 -121 -194 -247 -194h-264zM182 354l-62 -295h177c94 0 155 59 174 148c19 90 -18 147 -112 147h-177z" />
    <glyph glyph-name="uni0412" unicode="&#x412;" horiz-adv-x="628" 
d="M186 720h249c137 0 175 -100 153 -207c-20 -95 -89 -138 -124 -150c34 -8 103 -58 77 -179c-25 -119 -107 -184 -250 -184h-258zM190 393h164c98 0 146 55 163 134c17 80 -7 133 -107 133h-163zM120 60h171c109 0 160 51 178 137c20 95 -18 138 -120 138h-171z" />
    <glyph glyph-name="uni0413" unicode="&#x413;" horiz-adv-x="502" 
d="M186 720h374s3 -12 -1 -32c-4 -18 -13 -33 -13 -33h-300l-138 -649s-14 -6 -38 -6s-36 6 -36 6z" />
    <glyph glyph-name="uni0414" unicode="&#x414;" horiz-adv-x="689" 
d="M511 62h78l-42 -200c-8 -3 -21 -6 -35 -6c-15 0 -26 3 -33 6l29 138h-485l-29 -138c-9 -3 -21 -6 -36 -6c-14 0 -25 3 -32 6l42 200h59c56 50 101 149 146 305l102 353h376zM329 662l-86 -301c-39 -134 -83 -239 -132 -299h326l128 600h-236z" />
    <glyph glyph-name="uni0415" unicode="&#x415;" horiz-adv-x="556" 
d="M186 720h397c2 -9 2 -18 0 -30c-3 -12 -7 -23 -13 -32h-323l-56 -262h273c2 -9 2 -19 0 -30c-3 -11 -7 -21 -13 -31h-273l-58 -273h333c2 -9 2 -19 0 -30c-3 -11 -7 -22 -13 -32h-407z" />
    <glyph glyph-name="uni0416" unicode="&#x416;" horiz-adv-x="933" 
d="M895 714c7 3 25 6 42 6s30 -3 38 -6l-288 -343l168 -365s-16 -6 -45 -6c-28 0 -39 6 -39 6l-147 337h-110l-72 -337s-12 -6 -38 -6c-24 0 -36 6 -36 6l72 337h-110l-290 -337s-16 -6 -43 -6c-29 0 -42 6 -42 6l325 384l-144 324c8 3 23 6 40 6c18 0 30 -3 37 -6l134 -310
h106l66 310s14 6 38 6c25 0 36 -6 36 -6l-66 -310h105z" />
    <glyph glyph-name="uni0417" unicode="&#x417;" horiz-adv-x="546" 
d="M131 696c0 0 81 34 192 34c152 0 212 -85 187 -202c-23 -110 -102 -149 -142 -164l-1 -2c39 -14 117 -58 91 -181c-24 -112 -112 -191 -302 -191c-119 0 -178 32 -178 32c3 21 16 44 33 56c29 -10 81 -22 149 -22c136 0 206 53 224 137c25 119 -60 143 -156 143h-61
c-3 20 2 45 14 63h61c85 0 171 24 195 136c18 85 -32 131 -135 131c-88 0 -159 -25 -159 -25c-13 15 -16 36 -12 55z" />
    <glyph glyph-name="uni0418" unicode="&#x418;" horiz-adv-x="692" 
d="M595 714c0 0 14 6 44 6s42 -6 42 -6l-151 -708s-13 -6 -38 -6c-27 0 -36 6 -36 6l88 415c31 142 48 197 48 197h-3s-24 -44 -105 -153l-362 -459c-1 0 -17 -6 -46 -6c-31 0 -42 6 -42 6l151 708s13 6 38 6s36 -6 36 -6l-89 -419c-25 -118 -49 -199 -49 -199h3
c14 27 61 95 113 164z" />
    <glyph glyph-name="uni0419" unicode="&#x419;" horiz-adv-x="692" 
d="M465 876c70 0 128 37 128 37c16 -5 26 -21 27 -38c0 0 -61 -59 -161 -59c-99 0 -149 59 -149 59c10 17 26 33 43 38c0 0 43 -37 112 -37zM595 714c0 0 14 6 44 6s42 -6 42 -6l-151 -708s-13 -6 -38 -6c-27 0 -36 6 -36 6l88 415c31 142 48 197 48 197h-3
s-24 -44 -105 -153l-362 -459c-1 0 -17 -6 -46 -6c-31 0 -42 6 -42 6l151 708s13 6 38 6s36 -6 36 -6l-89 -419c-25 -118 -49 -199 -49 -199h3c14 27 61 95 113 164z" />
    <glyph glyph-name="uni041A" unicode="&#x41a;" horiz-adv-x="611" 
d="M295 405l275 309c8 3 29 6 46 6s31 -3 39 -6l-305 -342l183 -366s-15 -6 -44 -6c-17 0 -33 6 -33 6l-167 337h-109l-72 -337s-12 -6 -38 -6c-24 0 -36 6 -36 6l151 708s14 6 39 6c24 0 35 -6 35 -6l-66 -309h102z" />
    <glyph glyph-name="uni041B" unicode="&#x41b;" horiz-adv-x="665" 
d="M-2 -6c-16 0 -30 3 -39 7c-2 6 -2 16 0 27c2 12 8 22 12 29c7 0 16 -1 28 0c38 2 103 26 193 340l94 323h369l-152 -714s-14 -6 -38 -6c-26 0 -37 6 -36 6l139 654h-229l-76 -265c-106 -366 -202 -401 -265 -401z" />
    <glyph glyph-name="uni041C" unicode="&#x41c;" horiz-adv-x="843" 
d="M735 714c11 3 29 6 49 6c30 0 48 -6 48 -6l-151 -708s-14 -6 -38 -6s-36 6 -36 6l90 424c19 86 36 165 48 200h-3c-14 -26 -54 -86 -99 -147l-230 -296s-11 -4 -26 -4c-14 0 -22 4 -22 4l-98 294c-19 59 -36 123 -37 149h-3c0 -29 -15 -107 -34 -195l-91 -429
s-12 -6 -35 -6c-22 0 -33 6 -33 6l151 708s15 6 43 6c24 0 39 -6 39 -6l136 -436h3z" />
    <glyph glyph-name="uni041D" unicode="&#x41d;" horiz-adv-x="682" 
d="M530 402l67 312s14 6 38 6s36 -6 36 -6l-151 -708s-13 -6 -38 -6c-27 0 -36 6 -36 6l70 330h-338l-70 -330s-14 -6 -38 -6c-27 0 -36 6 -36 6l151 708s14 6 38 6s36 -6 36 -6l-67 -312h338z" />
    <glyph glyph-name="uni041E" unicode="&#x41e;" horiz-adv-x="677" 
d="M79 373c53 258 176 357 346 357s250 -126 196 -385c-53 -259 -176 -355 -347 -355s-248 124 -195 383zM546 360c50 231 -11 308 -131 308s-213 -77 -263 -308c-49 -231 12 -308 132 -308s213 77 262 308z" />
    <glyph glyph-name="uni041F" unicode="&#x41f;" horiz-adv-x="670" 
d="M660 720l-152 -714s-14 -6 -37 -6c-27 0 -37 6 -37 6l138 649h-326l-138 -649s-14 -6 -38 -6c-26 0 -36 6 -36 6l152 714h474z" />
    <glyph glyph-name="uni0420" unicode="&#x420;" horiz-adv-x="602" 
d="M169 292l-61 -286s-13 -6 -37 -6c-27 0 -37 6 -37 6l152 714h253c128 0 183 -103 156 -231c-27 -127 -119 -197 -247 -197h-179zM183 356h172c87 0 148 57 167 149c20 95 -16 152 -103 152h-172z" />
    <glyph glyph-name="uni0421" unicode="&#x421;" horiz-adv-x="557" 
d="M75 360c52 244 173 370 359 370c109 0 161 -33 161 -33c-4 -24 -18 -42 -35 -56c0 0 -51 25 -131 25c-125 0 -225 -68 -276 -307s21 -303 146 -303c88 0 153 25 153 25c11 -14 15 -36 11 -57c0 0 -69 -34 -186 -34c-186 0 -254 123 -202 370z" />
    <glyph glyph-name="uni0422" unicode="&#x422;" horiz-adv-x="532" 
d="M119 720h469s3 -12 -1 -32c-4 -19 -13 -33 -13 -33h-195l-138 -649s-14 -6 -38 -6c-26 0 -36 6 -36 6l138 649h-200s-3 13 1 33c4 19 13 32 13 32z" />
    <glyph glyph-name="uni0423" unicode="&#x423;" horiz-adv-x="609" 
d="M592 714c0 0 14 6 39 6c22 0 38 -6 38 -6l-315 -521c-102 -169 -164 -193 -236 -193c-34 0 -65 8 -65 8c-1 3 -2 15 1 31c3 14 9 27 10 29c0 0 34 -3 54 -3c49 0 82 10 145 106h-7l-154 543s14 6 42 6c29 0 37 -6 37 -6l106 -389c10 -35 17 -81 17 -88h3c5 7 20 36 42 73
z" />
    <glyph glyph-name="uni0424" unicode="&#x424;" horiz-adv-x="801" 
d="M441 652l15 74s14 6 38 6c25 0 36 -6 36 -6l-15 -74c177 0 295 -72 250 -286c-46 -214 -191 -267 -368 -267l-20 -93s-15 -6 -38 -6c-27 0 -36 6 -36 6l20 93c-177 0 -297 74 -251 288c45 214 192 265 369 265zM336 158l92 435c-137 0 -246 -43 -283 -217
c-37 -175 54 -218 191 -218zM502 593l-92 -435c136 0 246 44 283 218c37 175 -55 217 -191 217z" />
    <glyph glyph-name="uni0425" unicode="&#x425;" horiz-adv-x="609" 
d="M572 714c8 3 29 6 48 6s32 -3 40 -6l-297 -344l159 -363s-16 -7 -44 -7s-35 6 -35 6l-136 307l-259 -308c-7 -2 -29 -5 -47 -5c-19 0 -33 3 -42 5l314 372l-147 337s16 6 45 6c26 0 34 -6 34 -6l125 -281z" />
    <glyph glyph-name="uni0426" unicode="&#x426;" horiz-adv-x="704" 
d="M33 0l152 714s12 6 38 6c24 0 36 -6 36 -6l-138 -649h332l138 649s12 6 38 6c24 0 36 -6 36 -6l-138 -649h77l-43 -203c-11 -4 -23 -6 -36 -6c-12 0 -22 2 -32 6l29 138h-489z" />
    <glyph glyph-name="uni0427" unicode="&#x427;" horiz-adv-x="636" 
d="M482 390l69 324s14 6 38 6s36 -6 36 -6l-151 -708s-14 -6 -38 -6c-26 0 -36 6 -36 6l68 318c-14 -6 -92 -34 -189 -34c-135 0 -213 53 -176 230l42 194s14 6 38 6s36 -6 36 -6l-42 -194c-26 -126 17 -165 127 -165c92 0 165 29 178 35z" />
    <glyph glyph-name="uni0428" unicode="&#x428;" horiz-adv-x="958" 
d="M33 0l152 714s12 6 38 6c25 0 36 -6 36 -6l-138 -649h270l138 649s10 6 38 6c26 0 36 -6 36 -6l-138 -649h270l138 649s11 6 38 6c25 0 36 -6 36 -6l-152 -714h-762z" />
    <glyph glyph-name="uni0429" unicode="&#x429;" horiz-adv-x="986" 
d="M33 0l152 714s12 6 38 6c24 0 36 -6 36 -6l-138 -649h270l138 649s12 6 38 6c25 0 36 -6 36 -6l-138 -649h270l138 649s12 6 38 6c24 0 36 -6 36 -6l-138 -649h77l-43 -203c-11 -5 -23 -6 -36 -6c-12 0 -22 2 -32 6l29 138h-771z" />
    <glyph glyph-name="uni042A" unicode="&#x42a;" horiz-adv-x="699" 
d="M279 415h189c127 0 190 -92 163 -216c-26 -126 -124 -199 -251 -199h-263l139 655h-154s-3 12 1 32s13 33 13 33h228zM266 352l-62 -289h179c91 0 153 56 172 145s-19 144 -110 144h-179z" />
    <glyph glyph-name="uni042B" unicode="&#x42b;" horiz-adv-x="869" 
d="M185 714c0 0 12 6 39 6c24 0 35 -6 35 -6l-64 -299h189c127 0 187 -96 160 -220c-26 -126 -121 -195 -248 -195h-263zM784 714c0 0 13 6 38 6s36 -6 36 -6l-151 -708s-13 -6 -38 -6c-26 0 -36 6 -36 6zM182 352l-62 -289h179c91 0 153 56 172 145s-19 144 -110 144h-179z
" />
    <glyph glyph-name="uni042C" unicode="&#x42c;" horiz-adv-x="612" 
d="M195 415h189c127 0 187 -94 160 -218c-26 -126 -121 -197 -248 -197h-263l152 714s12 6 39 6c24 0 35 -6 35 -6zM120 63h179c91 0 153 56 172 145s-19 144 -110 144h-179z" />
    <glyph glyph-name="uni042D" unicode="&#x42d;" horiz-adv-x="580" 
d="M131 697c0 0 71 33 186 33c191 0 259 -139 207 -383c-52 -247 -174 -357 -364 -357c-122 0 -183 34 -183 34c6 22 18 43 35 56c0 0 60 -25 153 -25c126 0 227 61 279 280h-273s-3 12 1 31c4 20 12 31 12 31h272c35 207 -39 269 -161 269c-85 0 -153 -24 -153 -24
c-13 14 -15 35 -11 55z" />
    <glyph glyph-name="uni042E" unicode="&#x42e;" horiz-adv-x="950" 
d="M37 6l145 708s13 6 37 6c25 0 37 -6 37 -6l-66 -323h165c56 235 178 339 343 339c172 0 253 -111 199 -370c-53 -259 -178 -370 -350 -370c-165 0 -245 102 -205 339h-165l-66 -323s-15 -6 -38 -6c-26 0 -36 6 -36 6zM688 668c-121 0 -213 -77 -263 -308
c-49 -231 11 -308 132 -308c122 0 213 77 262 308c50 231 -9 308 -131 308z" />
    <glyph glyph-name="uni042F" unicode="&#x42f;" horiz-adv-x="627" 
d="M617 720l-152 -714s-11 -6 -38 -6c-25 0 -36 6 -36 6l63 295h-161l-224 -295s-17 -6 -44 -6s-41 6 -41 6l232 303c-87 23 -123 105 -100 209c26 125 121 202 249 202h252zM530 657h-172c-85 0 -150 -54 -169 -146c-20 -93 8 -146 93 -146h186z" />
    <glyph glyph-name="uni0430" unicode="&#x430;" horiz-adv-x="554" 
d="M456 521c0 0 7 5 32 5s32 -5 32 -5l-110 -516s-13 -5 -31 -5c-19 0 -29 5 -29 5l7 64c-39 -50 -90 -79 -169 -79c-122 0 -179 85 -136 289s128 257 245 257c76 0 121 -32 140 -81zM407 328c14 73 -19 147 -103 147c-97 0 -149 -54 -182 -212c-34 -158 -6 -212 91 -212
c85 0 151 75 166 149z" />
    <glyph glyph-name="uni0431" unicode="&#x431;" horiz-adv-x="566" 
d="M79 351c63 298 165 331 390 371c39 7 53 8 69 35c20 -2 38 -11 43 -26c-22 -47 -48 -65 -108 -75c-197 -36 -269 -52 -322 -244h3c37 59 99 102 193 102c127 0 189 -83 150 -269c-40 -186 -126 -255 -261 -255c-131 0 -221 61 -157 361zM331 457
c-81 0 -154 -40 -189 -205c-35 -162 16 -205 98 -205s151 43 186 205c34 162 -13 205 -95 205z" />
    <glyph glyph-name="uni0432" unicode="&#x432;" horiz-adv-x="513" 
d="M344 526c89 0 130 -60 112 -147c-12 -57 -45 -92 -90 -113c50 -20 71 -71 58 -132c-20 -92 -85 -134 -186 -134h-222l112 526h216zM150 293h127c59 0 98 34 110 90c12 57 -13 88 -72 88h-128zM100 55h136c64 0 104 31 117 90c12 58 -10 94 -78 94h-136z" />
    <glyph glyph-name="uni0433" unicode="&#x433;" horiz-adv-x="400" 
d="M128 526h293s3 -12 -1 -31c-4 -18 -12 -30 -12 -30h-221l-98 -460s-12 -5 -37 -5s-35 5 -35 5z" />
    <glyph glyph-name="uni0434" unicode="&#x434;" horiz-adv-x="575" 
d="M-28 56h41c34 28 67 84 109 232l70 238h324l-100 -470h63l-38 -179c-7 -2 -18 -5 -32 -5c-16 0 -28 3 -35 5l26 123h-374l-26 -123c-7 -2 -19 -5 -34 -5c-16 0 -28 3 -32 5zM240 468l-53 -184c-34 -120 -64 -183 -95 -228h252l87 412h-191z" />
    <glyph glyph-name="uni0435" unicode="&#x435;" horiz-adv-x="505" 
d="M431 240h-317c-22 -137 18 -186 115 -186c76 0 129 33 129 33c12 -11 21 -33 17 -54c0 0 -66 -43 -173 -43c-144 0 -191 110 -153 291c41 189 146 255 268 255c109 0 172 -73 147 -194c-14 -62 -33 -102 -33 -102zM397 351c14 68 -7 126 -93 126
c-80 0 -145 -53 -179 -183h255c3 5 10 26 17 57z" />
    <glyph glyph-name="uni0436" unicode="&#x436;" horiz-adv-x="765" 
d="M695 521c0 0 15 5 40 5c23 0 35 -5 35 -5l-207 -249l121 -266s-14 -6 -42 -6c-26 0 -40 6 -40 6l-101 240h-93l-51 -241s-14 -5 -37 -5c-24 0 -35 5 -35 5l51 241h-94l-203 -240s-16 -6 -42 -6c-29 0 -40 6 -40 6l231 283l-97 232s15 5 39 5c25 0 37 -5 37 -5l87 -218h94
l47 218s13 5 37 5c22 0 35 -5 35 -5l-47 -218h94z" />
    <glyph glyph-name="uni0437" unicode="&#x437;" horiz-adv-x="452" 
d="M93 512c0 0 54 24 158 24c130 0 167 -67 148 -156c-12 -55 -40 -91 -95 -111v-2c54 -19 73 -64 60 -124c-18 -87 -81 -153 -243 -153c-98 0 -147 29 -147 29c4 19 15 38 32 51c0 0 45 -20 125 -20c98 0 146 32 160 97c14 63 -27 92 -110 92h-63s-3 12 1 29
c3 16 11 27 11 27h63c70 0 121 23 135 91c14 64 -20 92 -103 92c-71 0 -124 -17 -124 -17c-11 11 -13 30 -8 51z" />
    <glyph glyph-name="uni0438" unicode="&#x438;" horiz-adv-x="578" 
d="M468 521c0 0 14 5 39 5s37 -5 37 -5l-110 -516s-14 -5 -37 -5c-22 0 -36 5 -36 5l61 285c17 83 32 138 33 139h-3c3 -1 -46 -64 -92 -119l-267 -305s-15 -5 -40 -5c-24 0 -36 5 -36 5l110 516s14 5 37 5c24 0 35 -5 35 -5l-62 -289c-14 -68 -31 -134 -32 -135h2
s24 37 62 80z" />
    <glyph glyph-name="uni0439" unicode="&#x439;" horiz-adv-x="578" 
d="M366 679c67 0 117 37 117 37c16 -6 24 -19 25 -36c0 0 -54 -59 -149 -59c-94 0 -135 59 -135 59c9 16 23 30 41 36c0 0 34 -37 101 -37zM468 521c0 0 14 5 39 5s37 -5 37 -5l-110 -516s-14 -5 -37 -5c-22 0 -36 5 -36 5l61 285c17 83 32 137 33 139h-3s-26 -40 -64 -84
l-295 -340s-15 -5 -40 -5c-24 0 -36 5 -36 5l110 516s14 5 37 5c24 0 35 -5 35 -5l-62 -289c-14 -69 -31 -135 -32 -135h2s24 37 62 80z" />
    <glyph glyph-name="uni043A" unicode="&#x43a;" horiz-adv-x="498" 
d="M236 303l188 218s21 5 46 5c22 0 34 -5 34 -5l-214 -249l128 -266s-17 -6 -42 -6c-21 0 -35 6 -35 6l-112 240h-90l-51 -241s-14 -5 -36 -5c-24 0 -36 5 -36 5l111 517s14 4 37 4c21 0 35 -4 35 -4l-48 -219h85z" />
    <glyph glyph-name="uni043B" unicode="&#x43b;" horiz-adv-x="552" 
d="M200 290c-79 -260 -128 -296 -195 -296c-20 0 -46 6 -46 6s-3 9 0 25c3 15 11 27 11 27s23 -3 40 -1c39 3 72 64 124 243l68 232h316l-111 -521s-16 -5 -36 -5c-24 0 -36 5 -36 5l98 463h-182z" />
    <glyph glyph-name="uni043C" unicode="&#x43c;" horiz-adv-x="670" 
d="M551 521c0 0 22 5 47 5c22 0 38 -5 38 -5l-110 -516s-12 -5 -35 -5c-24 0 -35 5 -35 5l65 305c14 68 28 109 31 119h-3c-6 -9 -21 -35 -54 -78l-184 -230s-8 -4 -20 -4s-18 4 -18 4l-80 225c-16 45 -21 73 -23 83h-3c0 -10 -4 -52 -18 -120l-65 -304s-14 -5 -35 -5
c-20 0 -32 5 -32 5l110 516s17 5 41 5c25 0 33 -5 33 -5l104 -314h3z" />
    <glyph glyph-name="uni043D" unicode="&#x43d;" horiz-adv-x="561" 
d="M139 241l-50 -236s-13 -5 -37 -5s-35 5 -35 5l110 516s13 5 37 5s35 -5 35 -5l-47 -220h256l47 220s14 5 37 5c24 0 35 -5 35 -5l-110 -516s-13 -5 -38 -5c-23 0 -34 5 -34 5l50 236h-256z" />
    <glyph glyph-name="uni043E" unicode="&#x43e;" horiz-adv-x="539" 
d="M51 280c42 198 133 256 267 256s195 -89 153 -287s-135 -259 -269 -259s-193 92 -151 290zM400 263c34 167 -10 216 -96 216s-150 -49 -184 -216c-35 -167 10 -216 96 -216s149 49 184 216z" />
    <glyph glyph-name="uni043F" unicode="&#x43f;" horiz-adv-x="551" 
d="M187 465l-98 -460s-14 -5 -37 -5s-35 5 -35 5l111 521h389l-111 -521s-13 -5 -37 -5c-22 0 -35 5 -35 5l98 460h-245z" />
    <glyph glyph-name="uni0440" unicode="&#x440;" horiz-adv-x="556" 
d="M185 458c40 49 96 78 167 78c117 0 179 -82 136 -286s-135 -260 -252 -260c-67 0 -115 33 -134 78l-64 -302s-12 -5 -37 -5s-35 5 -35 5l161 755s12 5 37 5s31 -5 31 -5zM415 263c33 158 2 212 -96 212c-84 0 -144 -72 -161 -146l-28 -129c-14 -64 22 -149 99 -149
c98 0 152 54 186 212z" />
    <glyph glyph-name="uni0441" unicode="&#x441;" horiz-adv-x="443" 
d="M318 475c-107 0 -168 -70 -198 -212c-31 -143 4 -209 112 -209c47 0 80 9 101 19c12 -11 21 -32 17 -53c-27 -14 -63 -30 -143 -30c-143 0 -196 110 -158 288s129 258 269 258c87 0 121 -24 121 -24c-4 -21 -16 -41 -31 -54c0 0 -34 17 -90 17z" />
    <glyph glyph-name="uni0442" unicode="&#x442;" horiz-adv-x="436" 
d="M74 526h384s3 -11 -1 -31s-12 -31 -12 -31h-156l-98 -459s-13 -5 -37 -5c-26 0 -35 5 -35 5l98 459h-156s-5 11 -1 31s14 31 14 31z" />
    <glyph glyph-name="uni0443" unicode="&#x443;" 
d="M443 521c0 0 13 5 37 5c25 0 35 -5 35 -5l-106 -495c-44 -204 -111 -276 -284 -276c-93 0 -141 31 -141 31c5 20 16 39 32 51c0 0 51 -21 115 -21c111 0 166 39 206 215l7 31c-50 -49 -101 -67 -170 -67c-111 0 -148 76 -129 166l78 365s14 5 37 5c25 0 35 -5 35 -5
l-78 -367c-15 -69 14 -104 87 -104c53 0 115 33 158 91z" />
    <glyph glyph-name="uni0444" unicode="&#x444;" horiz-adv-x="775" 
d="M444 745c0 0 11 5 37 5c24 0 35 -5 35 -5l-49 -230s50 22 115 21c134 -1 162 -108 124 -286s-106 -260 -240 -260c-68 0 -105 24 -105 24l-55 -259s-13 -5 -37 -5c-26 0 -35 5 -35 5l55 259s-48 -24 -116 -24c-133 0 -160 108 -122 286s105 260 238 260
c65 0 106 -21 106 -21zM385 456c-1 -1 -31 22 -96 22c-89 0 -137 -66 -169 -215s-12 -214 77 -214c60 0 107 26 107 26zM636 263c32 149 12 215 -77 215c-65 0 -106 -23 -107 -22l-81 -381s36 -26 96 -26c89 0 137 65 169 214z" />
    <glyph glyph-name="uni0445" unicode="&#x445;" horiz-adv-x="529" 
d="M529 521l-231 -256l129 -260s-10 -5 -37 -5s-35 5 -35 5l-103 211l-190 -211s-21 -5 -47 -5c-24 0 -36 5 -36 5l242 268l-124 248s14 5 40 5c27 0 34 -5 34 -5l97 -199l178 199s20 5 45 5s38 -5 38 -5z" />
    <glyph glyph-name="uni0446" unicode="&#x446;" horiz-adv-x="577" 
d="M445 521c0 0 14 5 37 5s35 -5 35 -5l-98 -460h63l-39 -184c-7 -2 -18 -5 -33 -5c-16 0 -28 3 -33 5l26 123h-387l111 521s13 5 36 5c26 0 36 -5 36 -5l-98 -460h246z" />
    <glyph glyph-name="uni0447" unicode="&#x447;" horiz-adv-x="519" 
d="M485 521l-110 -516s-13 -5 -38 -5c-24 0 -34 5 -34 5l47 220c-17 -8 -64 -28 -140 -28c-125 0 -172 55 -149 164l34 160s13 5 37 5c23 0 35 -5 35 -5l-35 -161c-15 -71 13 -104 98 -104c66 0 116 22 133 31l50 234s12 5 36 5c25 0 36 -5 36 -5z" />
    <glyph glyph-name="uni0448" unicode="&#x448;" horiz-adv-x="778" 
d="M16 0l111 521s11 5 37 5c25 0 35 -5 35 -5l-98 -460h200l98 460s11 5 36 5s36 -5 36 -5l-98 -460h200l98 460s11 5 37 5c24 0 35 -5 35 -5l-111 -521h-616z" />
    <glyph glyph-name="uni0449" unicode="&#x449;" horiz-adv-x="803" 
d="M708 61l-39 -184c-7 -2 -18 -5 -34 -5s-27 3 -32 5l26 123h-613l111 521s11 5 37 5c25 0 35 -5 35 -5l-98 -460h200l98 460s11 5 36 5s36 -5 36 -5l-98 -460h200l98 460s11 5 37 5c24 0 35 -5 35 -5l-98 -460h63z" />
    <glyph glyph-name="uni044A" unicode="&#x44a;" horiz-adv-x="560" 
d="M217 307h153c98 0 137 -72 117 -164c-19 -91 -84 -143 -182 -143h-225l99 464h-117c-3 7 -4 17 -1 32c3 14 8 24 14 30h189zM164 55h140c63 0 102 36 115 98c13 61 -10 99 -73 99h-140z" />
    <glyph glyph-name="uni044B" unicode="&#x44b;" horiz-adv-x="718" 
d="M127 521c8 2 22 5 37 5c16 0 28 -3 35 -5l-46 -214h153c98 0 138 -71 118 -163c-19 -91 -85 -144 -183 -144h-225zM612 521c8 2 21 5 37 5c17 0 28 -3 35 -5l-110 -516c-7 -2 -20 -5 -37 -5c-16 0 -27 3 -35 5zM142 252l-42 -197h140c63 0 102 36 115 98
c13 61 -10 99 -73 99h-140z" />
    <glyph glyph-name="uni044C" unicode="&#x44c;" horiz-adv-x="498" 
d="M153 307h153c98 0 139 -71 119 -163c-19 -91 -86 -144 -184 -144h-225l111 521c8 2 22 5 37 5c16 0 28 -3 35 -5zM100 55h140c63 0 102 36 115 98c13 61 -10 99 -73 99h-140z" />
    <glyph glyph-name="uni044D" unicode="&#x44d;" horiz-adv-x="452" 
d="M307 237h-203c0 3 -2 12 1 29c4 15 10 25 11 28h202c20 121 -16 184 -115 184c-58 0 -103 -16 -103 -16c-10 12 -13 30 -9 50c0 0 50 24 138 24c141 0 197 -95 159 -273s-136 -273 -276 -273c-91 0 -137 30 -137 30c6 21 18 39 33 50c0 0 41 -19 100 -19
c102 0 168 61 199 186z" />
    <glyph glyph-name="uni044E" unicode="&#x44e;" horiz-adv-x="777" 
d="M288 290c44 177 139 246 267 246c136 0 197 -85 155 -283s-136 -263 -271 -263c-126 0 -192 66 -165 238h-138l-47 -223c-7 -2 -20 -5 -37 -5c-16 0 -27 3 -35 5l110 516c8 2 21 5 37 5c17 0 28 -3 35 -5l-49 -231h138zM639 263c35 167 -9 216 -96 216
c-86 0 -153 -49 -188 -216c-36 -167 10 -216 96 -216c87 0 152 49 188 216z" />
    <glyph glyph-name="uni044F" unicode="&#x44f;" horiz-adv-x="522" 
d="M216 211l-157 -206c-8 -2 -23 -5 -44 -5c-19 0 -30 3 -38 5l168 217c-59 21 -78 87 -63 159c20 94 89 145 195 145h211l-111 -521c-8 -2 -21 -5 -37 -5c-17 0 -28 3 -35 5l44 206h-133zM278 471c-71 0 -113 -39 -127 -103c-13 -60 4 -102 75 -102h134l44 205h-126z" />
    <glyph glyph-name="uni0451" unicode="&#x451;" horiz-adv-x="505" 
d="M228 701c0 0 13 5 38 5c24 0 36 -5 36 -5l-14 -66s-14 -4 -38 -4c-25 0 -36 4 -36 4zM386 701c0 0 13 5 38 5c24 0 36 -5 36 -5l-14 -66s-14 -4 -38 -4c-25 0 -36 4 -36 4zM431 240h-317c-22 -137 18 -186 115 -186c76 0 129 33 129 33c12 -11 21 -33 17 -54
c0 0 -66 -43 -173 -43c-144 0 -191 110 -153 291c41 189 146 255 268 255c109 0 172 -73 147 -194c-14 -62 -33 -102 -33 -102zM397 351c14 68 -7 126 -93 126c-80 0 -145 -53 -179 -183h255c3 5 10 26 17 57z" />
    <glyph glyph-name="uni2113" unicode="&#x2113;" horiz-adv-x="457" 
d="M165 530c29 138 80 220 204 220c98 0 132 -60 113 -149c-27 -124 -146 -248 -304 -345l-23 -112c-15 -70 7 -92 55 -92c64 0 130 55 130 55c17 -4 28 -18 27 -36c0 0 -79 -81 -189 -81c-89 0 -118 49 -89 183l8 39c-19 -10 -56 -27 -76 -36c-11 11 -16 27 -10 50
c35 14 69 33 100 51zM412 600c13 59 1 97 -52 97c-56 0 -94 -30 -117 -138l-48 -227c111 82 198 177 217 268z" />
    <glyph glyph-name="uni2117" unicode="&#x2117;" horiz-adv-x="803" 
d="M68 340c40 189 225 341 414 341s308 -152 268 -341s-224 -341 -413 -341s-309 152 -269 341zM699 340c34 160 -67 290 -228 290c-160 0 -319 -130 -353 -290s69 -291 229 -291c161 0 318 131 352 291zM342 523h143c79 0 119 -52 103 -128c-17 -78 -79 -129 -158 -129h-90
l-25 -122c-18 -8 -40 -8 -53 0zM385 477l-35 -164h85c49 0 86 28 98 82c11 53 -14 82 -63 82h-85z" />
    <glyph glyph-name="uni2153" unicode="&#x2153;" horiz-adv-x="710" 
d="M579 697c0 0 9 5 28 5s26 -5 26 -5l-536 -703s-11 -4 -29 -4c-16 0 -26 4 -26 4zM222 685c7 3 15 4 25 4c8 0 16 -2 23 -4l-72 -336c-7 -2 -15 -3 -23 -3c-9 0 -18 0 -27 3l50 236c4 16 6 28 10 40c-30 -21 -66 -38 -106 -46c-8 9 -8 26 -3 41c48 12 92 37 123 65z
M453 333c0 0 40 15 94 15c74 0 109 -33 97 -90c-8 -37 -26 -61 -62 -77c31 -14 48 -38 38 -87c-12 -57 -54 -99 -156 -99c-56 0 -87 17 -87 17c1 12 8 27 20 35c0 0 32 -10 74 -10c69 0 93 27 100 61c9 43 -15 61 -59 61h-46c-2 13 1 28 8 41h46c41 0 66 20 73 52
c7 37 -14 54 -58 54c-42 0 -78 -9 -78 -9c-6 8 -8 22 -4 36z" />
    <glyph glyph-name="uni2154" unicode="&#x2154;" horiz-adv-x="774" 
d="M107 -6l537 703s9 5 28 5s26 -5 26 -5l-536 -703s-11 -4 -29 -4c-16 0 -26 4 -26 4zM63 387c29 136 205 119 224 209c6 31 -11 55 -62 56c-33 0 -67 -8 -74 -10c-6 11 -7 24 -4 38c0 0 41 14 94 14c76 0 110 -37 97 -95c-25 -121 -190 -100 -224 -209h172
c1 -7 1 -15 -1 -22c-2 -8 -4 -15 -8 -22h-218s-1 18 4 41zM685 94c-12 -57 -54 -99 -156 -99c-56 0 -87 17 -87 17c1 12 8 27 20 35c0 0 32 -10 74 -10c69 0 93 27 100 61c9 43 -15 61 -59 61h-46c-2 13 1 28 8 41h46c41 0 66 20 73 52c7 37 -14 54 -58 54
c-42 0 -78 -9 -78 -9c-6 8 -8 22 -4 36c0 0 40 15 94 15c74 0 109 -33 97 -90c-8 -37 -26 -61 -62 -77c31 -14 48 -38 38 -87z" />
    <glyph glyph-name="uni2196" unicode="&#x2196;" horiz-adv-x="510" 
d="M122 538h304c2 -7 2 -15 0 -23c-1 -8 -5 -16 -10 -24h-220l244 -308c-10 -17 -29 -31 -46 -38l-243 310l-46 -221c-8 -3 -16 -4 -24 -4c-9 0 -17 1 -23 4z" />
    <glyph glyph-name="uni2197" unicode="&#x2197;" horiz-adv-x="513" 
d="M487 538l-64 -304c-8 -3 -16 -4 -25 -4c-8 0 -16 1 -22 4l46 220l-373 -309c-16 7 -28 21 -30 38l374 308h-220c-1 8 -1 16 0 24c2 8 6 16 10 23h304z" />
    <glyph glyph-name="uni2198" unicode="&#x2198;" horiz-adv-x="506" 
d="M363 222l47 220c8 3 16 4 24 4c9 0 17 -1 23 -4l-65 -304h-304c-1 7 -2 15 0 23s6 16 10 24h220l-243 308c9 17 27 31 46 38z" />
    <glyph glyph-name="uni2199" unicode="&#x2199;" horiz-adv-x="511" 
d="M106 222l374 309c15 -7 27 -21 30 -38l-375 -308h220c2 -7 2 -15 0 -23c-2 -9 -5 -17 -9 -23h-304l64 303c8 4 16 5 25 5c8 0 16 -1 22 -5z" />
    <glyph glyph-name="uni2215" unicode="&#x2215;" horiz-adv-x="476" 
d="M-52 -5l536 702s11 5 31 5s29 -5 29 -5l-537 -702s-12 -5 -31 -5c-18 0 -28 5 -28 5z" />
    <glyph glyph-name="uni2219" unicode="&#x2219;" horiz-adv-x="237" 
d="M115 292c-22 0 -41 15 -35 44c7 29 32 44 54 44s41 -15 34 -44c-6 -29 -31 -44 -53 -44z" />
    <glyph glyph-name="uogonek" unicode="&#x173;" horiz-adv-x="550" 
d="M443 521c0 0 13 5 37 5c25 0 35 -5 35 -5l-111 -520c-53 -15 -101 -51 -111 -100c-6 -30 14 -39 45 -39c21 0 37 7 37 7c8 -7 8 -22 6 -35c0 0 -30 -17 -68 -17c-54 0 -85 29 -75 76c10 48 49 91 96 113l12 62c-49 -49 -103 -78 -172 -78c-98 0 -151 60 -132 150l81 381
s14 5 37 5c25 0 35 -5 35 -5l-78 -367c-15 -69 14 -104 87 -104c53 0 115 33 158 91z" />
    <glyph glyph-name="uring" unicode="&#x16f;" 
d="M240 701c15 71 80 107 140 107c58 0 110 -35 95 -107c-15 -71 -77 -110 -142 -110c-66 0 -108 40 -93 110zM427 701c7 34 -9 66 -57 66c-47 0 -76 -33 -83 -66c-7 -34 8 -67 55 -67c48 0 78 34 85 67zM45 157l77 364s14 5 37 5c25 0 35 -5 35 -5l-78 -367
c-15 -69 14 -104 87 -104c53 0 115 33 158 91l81 380s13 5 37 5c25 0 35 -5 35 -5l-110 -516s-7 -5 -32 -5c-24 0 -34 5 -34 5l6 58c-49 -49 -102 -73 -171 -73c-98 0 -149 71 -128 167z" />
    <glyph glyph-name="utilde" unicode="&#x169;" 
d="M218 668c0 0 25 47 82 47c53 0 73 -34 113 -34c30 0 51 29 51 29c15 -5 23 -18 24 -34c0 0 -25 -46 -82 -46c-54 0 -73 34 -113 34c-30 0 -52 -30 -52 -30c-16 8 -23 19 -23 34zM45 157l77 364s14 5 37 5c25 0 35 -5 35 -5l-78 -367c-15 -69 14 -104 87 -104
c53 0 115 33 158 91l81 380s13 5 37 5c25 0 35 -5 35 -5l-110 -516s-7 -5 -32 -5c-24 0 -34 5 -34 5l6 58c-49 -49 -102 -73 -171 -73c-98 0 -149 71 -128 167z" />
    <glyph glyph-name="v" unicode="v" horiz-adv-x="506" 
d="M140 521l52 -342c8 -55 8 -103 8 -103h3s21 46 53 102l196 343s16 5 38 5c23 0 37 -5 37 -5l-296 -516s-18 -5 -42 -5c-26 0 -40 5 -40 5l-80 516s14 5 39 5c26 0 32 -5 32 -5z" />
    <glyph glyph-name="w" unicode="w" horiz-adv-x="791" 
d="M462 5l-29 307c-7 77 -4 115 -1 133h-3c-6 -18 -21 -57 -62 -133l-165 -307c-9 -2 -23 -5 -39 -5c-17 0 -29 3 -39 5l-50 516s11 5 35 5c25 0 32 -5 32 -5l36 -350c5 -47 2 -78 1 -91h3c5 13 17 45 41 91l186 350s17 5 39 5c24 0 35 -5 35 -5l31 -348c4 -48 1 -80 0 -93
h3c5 13 17 43 43 92l183 349s13 5 34 5c23 0 34 -5 34 -5l-270 -516c-11 -2 -24 -5 -40 -5s-27 3 -38 5z" />
    <glyph glyph-name="wacute" unicode="&#x1e83;" horiz-adv-x="791" 
d="M575 746l-155 -139c-19 2 -33 10 -38 24l135 144c25 2 51 -10 58 -29zM462 5l-29 307c-7 77 -4 115 -1 133h-3c-6 -18 -21 -57 -62 -133l-165 -307c-9 -2 -23 -5 -39 -5c-17 0 -29 3 -39 5l-50 516s11 5 35 5c25 0 32 -5 32 -5l36 -350c5 -47 2 -78 1 -91h3
c5 13 17 45 41 91l186 350s17 5 39 5c24 0 35 -5 35 -5l31 -348c4 -48 1 -80 0 -93h3c5 13 17 43 43 92l183 349s13 5 34 5c23 0 34 -5 34 -5l-270 -516c-11 -2 -24 -5 -40 -5s-27 3 -38 5z" />
    <glyph glyph-name="wcircumflex" unicode="&#x175;" horiz-adv-x="791" 
d="M501 742l111 -106c-9 -15 -23 -29 -40 -33l-93 76l-124 -77c-15 6 -22 18 -26 34l147 106h25zM462 5l-29 307c-7 77 -4 115 -1 133h-3c-6 -18 -21 -57 -62 -133l-165 -307c-9 -2 -23 -5 -39 -5c-17 0 -29 3 -39 5l-50 516s11 5 35 5c25 0 32 -5 32 -5l36 -350
c5 -47 2 -78 1 -91h3c5 13 17 45 41 91l186 350s17 5 39 5c24 0 35 -5 35 -5l31 -348c4 -48 1 -80 0 -93h3c5 13 17 43 43 92l183 349s13 5 34 5c23 0 34 -5 34 -5l-270 -516c-11 -2 -24 -5 -40 -5s-27 3 -38 5z" />
    <glyph glyph-name="wdieresis" unicode="&#x1e85;" horiz-adv-x="791" 
d="M442 701l-14 -66s-14 -4 -38 -4c-25 0 -36 4 -36 4l14 66s13 5 38 5c24 0 36 -5 36 -5zM600 701l-14 -66s-14 -4 -38 -4c-25 0 -36 4 -36 4l14 66s13 5 38 5c24 0 36 -5 36 -5zM462 5l-29 307c-7 77 -4 115 -1 133h-3c-6 -18 -21 -57 -62 -133l-165 -307
c-9 -2 -23 -5 -39 -5c-17 0 -29 3 -39 5l-50 516s11 5 35 5c25 0 32 -5 32 -5l36 -350c5 -47 2 -78 1 -91h3c5 13 17 45 41 91l186 350s17 5 39 5c24 0 35 -5 35 -5l31 -348c4 -48 1 -80 0 -93h3c5 13 17 43 43 92l183 349s13 5 34 5c23 0 34 -5 34 -5l-270 -516
c-11 -2 -24 -5 -40 -5s-27 3 -38 5z" />
    <glyph glyph-name="wgrave" unicode="&#x1e81;" horiz-adv-x="791" 
d="M457 607l-95 139c14 17 42 30 66 28l77 -143c-12 -14 -29 -22 -48 -24zM462 5l-29 307c-7 77 -4 115 -1 133h-3c-6 -18 -21 -57 -62 -133l-165 -307c-9 -2 -23 -5 -39 -5c-17 0 -29 3 -39 5l-50 516s11 5 35 5c25 0 32 -5 32 -5l36 -350c5 -47 2 -78 1 -91h3
c5 13 17 45 41 91l186 350s17 5 39 5c24 0 35 -5 35 -5l31 -348c4 -48 1 -80 0 -93h3c5 13 17 43 43 92l183 349s13 5 34 5c23 0 34 -5 34 -5l-270 -516c-11 -2 -24 -5 -40 -5s-27 3 -38 5z" />
    <glyph glyph-name="x" unicode="x" horiz-adv-x="493" 
d="M509 521l-231 -256l129 -260s-10 -5 -37 -5s-35 5 -35 5l-103 211l-190 -211s-21 -5 -47 -5c-24 0 -36 5 -36 5l242 268l-124 248s14 5 40 5c27 0 34 -5 34 -5l97 -199l178 199s20 5 45 5s38 -5 38 -5z" />
    <glyph glyph-name="y" unicode="y" horiz-adv-x="550" 
d="M443 521c0 0 13 5 37 5c25 0 35 -5 35 -5l-106 -495c-44 -204 -111 -276 -284 -276c-93 0 -141 31 -141 31c5 20 16 39 32 51c0 0 51 -21 115 -21c111 0 166 39 206 215l7 31c-50 -49 -101 -67 -170 -67c-111 0 -148 76 -129 166l78 365s14 5 37 5c25 0 35 -5 35 -5
l-78 -367c-15 -69 14 -104 87 -104c53 0 115 33 158 91z" />
    <glyph glyph-name="yacute" unicode="&#xfd;" 
d="M461 746l-155 -139c-19 2 -33 10 -38 24l135 144c25 2 51 -10 58 -29zM443 521c0 0 13 5 37 5c25 0 35 -5 35 -5l-106 -495c-44 -204 -111 -276 -284 -276c-93 0 -141 31 -141 31c5 20 16 39 32 51c0 0 51 -21 115 -21c111 0 166 39 206 215l7 31
c-50 -49 -101 -67 -170 -67c-111 0 -148 76 -129 166l78 365s14 5 37 5c25 0 35 -5 35 -5l-78 -367c-15 -69 14 -104 87 -104c53 0 115 33 158 91z" />
    <glyph glyph-name="ycircumflex" unicode="&#x177;" 
d="M370 741l110 -105c-9 -15 -23 -29 -40 -33l-93 76l-124 -77c-15 6 -23 18 -26 34l148 105h25zM443 521c0 0 13 5 37 5c25 0 35 -5 35 -5l-106 -495c-44 -204 -111 -276 -284 -276c-93 0 -141 31 -141 31c5 20 16 39 32 51c0 0 51 -21 115 -21c111 0 166 39 206 215l7 31
c-50 -49 -101 -67 -170 -67c-111 0 -148 76 -129 166l78 365s14 5 37 5c25 0 35 -5 35 -5l-78 -367c-15 -69 14 -104 87 -104c53 0 115 33 158 91z" />
    <glyph glyph-name="ydieresis" unicode="&#xff;" 
d="M321 706l-14 -65s-14 -5 -38 -5c-25 0 -36 5 -36 5l14 65s13 5 38 5c24 0 36 -5 36 -5zM479 706l-14 -65s-14 -5 -38 -5c-25 0 -36 5 -36 5l14 65s13 5 38 5c24 0 36 -5 36 -5zM443 521c0 0 13 5 37 5c25 0 35 -5 35 -5l-106 -495c-44 -204 -111 -276 -284 -276
c-93 0 -141 31 -141 31c5 20 16 39 32 51c0 0 51 -21 115 -21c111 0 166 39 206 215l7 31c-50 -49 -101 -67 -170 -67c-111 0 -148 76 -129 166l78 365s14 5 37 5c25 0 35 -5 35 -5l-78 -367c-15 -69 14 -104 87 -104c53 0 115 33 158 91z" />
    <glyph glyph-name="yen" unicode="&#xa5;" horiz-adv-x="610" 
d="M581 679c0 0 14 5 39 5c23 0 36 -5 36 -5l-296 -355h143c1 -5 1 -13 -1 -24c-3 -11 -6 -19 -10 -25h-167l-16 -76h167c1 -4 1 -13 -1 -24s-6 -19 -9 -25h-167l-31 -144s-11 -6 -35 -6c-23 0 -33 6 -33 6l31 144h-168c-1 6 -1 15 1 26c2 10 6 18 9 23h168l16 76h-168
c0 6 0 15 2 25c2 11 6 19 9 24h144l-134 354s14 6 41 6c26 0 38 -6 38 -6l122 -326z" />
    <glyph glyph-name="ygrave" unicode="&#x1ef3;" 
d="M351 607l-95 139c14 17 41 31 65 29l76 -144c-12 -14 -27 -22 -46 -24zM443 521c0 0 13 5 37 5c25 0 35 -5 35 -5l-106 -495c-44 -204 -111 -276 -284 -276c-93 0 -141 31 -141 31c5 20 16 39 32 51c0 0 51 -21 115 -21c111 0 166 39 206 215l7 31
c-50 -49 -101 -67 -170 -67c-111 0 -148 76 -129 166l78 365s14 5 37 5c25 0 35 -5 35 -5l-78 -367c-15 -69 14 -104 87 -104c53 0 115 33 158 91z" />
    <glyph glyph-name="z" unicode="z" horiz-adv-x="456" 
d="M69 61h284s4 -10 -1 -31c-4 -19 -12 -30 -12 -30h-361c-2 7 -1 17 2 32c3 14 7 23 11 29l369 404h-263s-3 11 1 31c5 20 12 30 12 30h340c0 -6 2 -15 -1 -29s-9 -25 -12 -32z" />
    <glyph glyph-name="zacute" unicode="&#x17a;" horiz-adv-x="456" 
d="M441 746l-155 -139c-19 2 -33 10 -38 24l134 144c25 2 51 -10 59 -29zM69 61h284s4 -10 -1 -31c-4 -19 -12 -30 -12 -30h-361c-2 7 -1 17 2 32c3 14 7 23 11 29l369 404h-263s-3 11 1 31c5 20 12 30 12 30h340c0 -6 2 -15 -1 -29s-9 -25 -12 -32z" />
    <glyph glyph-name="zcaron" unicode="&#x17e;" horiz-adv-x="456" 
d="M294 602l-104 98c10 15 22 26 38 32l85 -72l115 71c12 -4 20 -17 24 -31l-135 -98h-23zM69 61h284s4 -10 -1 -31c-4 -19 -12 -30 -12 -30h-361c-1 7 -1 17 2 32c3 14 8 23 11 29l369 404h-263s-3 11 1 31c5 20 12 30 12 30h340c0 -6 2 -15 -1 -29s-9 -25 -12 -32z" />
    <glyph glyph-name="zdotaccent" unicode="&#x17c;" horiz-adv-x="456" 
d="M363 710l-15 -68s-14 -5 -39 -5c-26 0 -37 5 -37 5l15 68s13 4 39 4c25 0 37 -4 37 -4zM69 61h284s4 -10 -1 -31c-4 -19 -12 -30 -12 -30h-361c-2 7 -1 17 2 32c3 14 7 23 11 29l369 404h-263s-3 11 1 31c5 20 12 30 12 30h340c0 -6 2 -15 -1 -29s-9 -25 -12 -32z" />
    <glyph glyph-name="zero" unicode="0" horiz-adv-x="617" 
d="M240 -10c-156 0 -216 115 -163 364c53 246 156 336 312 336s218 -117 165 -366s-158 -334 -314 -334zM375 628c-109 0 -180 -74 -226 -288c-45 -212 -5 -288 104 -288c112 0 182 76 227 288c46 214 7 288 -105 288z" />
    <glyph glyph-name="zero.denom" horiz-adv-x="346" 
d="M106 -5c-87 0 -120 54 -93 177c25 121 81 176 168 176c86 0 122 -53 96 -176c-27 -123 -85 -177 -171 -177zM172 306c-56 0 -88 -36 -108 -134c-22 -99 -5 -134 51 -134c55 0 87 35 109 134c20 98 3 134 -52 134z" />
    <glyph glyph-name="zero.num" horiz-adv-x="346" 
d="M178 341c-87 0 -119 54 -93 177c26 121 81 176 168 176c86 0 122 -53 96 -176s-85 -177 -171 -177zM245 652c-56 0 -88 -36 -109 -134c-21 -99 -4 -134 52 -134c55 0 87 35 108 134c21 98 4 134 -51 134z" />
    <glyph glyph-name="zeroinferior" unicode="&#x2080;" horiz-adv-x="345" 
d="M85 -101c-87 0 -119 54 -93 177c26 121 82 176 169 176c86 0 120 -53 94 -176s-84 -177 -170 -177zM152 210c-56 0 -88 -36 -109 -134c-21 -100 -4 -134 52 -134c55 0 87 34 108 134c21 98 4 134 -51 134z" />
    <glyph glyph-name="quotedblleft" unicode="&#x201c;" horiz-adv-x="324" 
d="M338 720l23 -20s-37 -32 -55 -93c18 -1 26 -5 26 -5l-16 -73s-13 -5 -41 -5c-27 0 -40 5 -40 5l11 50c19 93 92 141 92 141zM212 720l23 -20s-36 -32 -54 -93c17 -1 26 -5 26 -5l-16 -73s-14 -5 -42 -5c-26 0 -39 5 -39 5l11 50c19 93 91 141 91 141z" />
    </font>
</defs>
</svg>
