<?xml version="1.0" standalone="no"?>
<!DOCTYPE svg PUBLIC "-//W3C//DTD SVG 1.1//EN" "http://www.w3.org/Graphics/SVG/1.1/DTD/svg11.dtd" >
<svg xmlns="http://www.w3.org/2000/svg" xmlns:xlink="http://www.w3.org/1999/xlink" version="1.1">
<metadata>
Created by FontForge 20141024 at Tue Jun 30 10:01:22 2015
 By Jimmy Warting
Copyright \(c\) 2014 by Fontfabric LLC. All rights reserved.
</metadata>
<defs>
<font id="GloberBookItalic" horiz-adv-x="550" >
  <font-face 
    font-family="Glober Book Italic"
    font-weight="400"
    font-style="italic"
    font-stretch="normal"
    units-per-em="1000"
    panose-1="0 0 0 0 0 0 0 0 0 0"
    ascent="750"
    descent="-250"
    x-height="526"
    cap-height="720"
    bbox="-219 -250.105 1001 1052.09"
    underline-thickness="50"
    underline-position="-50"
    stemh="43"
    stemv="50"
    unicode-range="U+0020-FB02"
  />
<missing-glyph horiz-adv-x="618" 
d="M422 0h-538l153 720h538zM409 505c16 73 -20 128 -121 128c-74 0 -128 -26 -128 -26c-4 -11 -2 -23 7 -30c0 0 44 20 109 20c79 0 101 -40 90 -95c-29 -137 -164 -108 -203 -290c0 0 5 -4 15 -4c12 0 18 4 18 4c33 157 180 134 213 293zM187 129c0 0 -7 3 -24 3
s-26 -3 -26 -3l-9 -45s7 -3 24 -3s26 3 26 3z" />
    <glyph glyph-name="fi" unicode="fi" horiz-adv-x="561" 
d="M168 586c21 103 77 164 213 164c97 0 172 -28 172 -28c-1 -15 -9 -30 -21 -40c0 0 -67 25 -155 25c-104 0 -142 -38 -158 -116l-14 -65h284c9 0 21 -2 28 -2l-110 -520s-9 -4 -26 -4c-19 0 -24 4 -24 4l102 480h-263l-102 -480s-8 -4 -26 -4s-24 4 -24 4l102 480h-64
s-3 7 0 21s9 21 9 21h64z" />
    <glyph glyph-name="fl" unicode="fl" horiz-adv-x="563" 
d="M168 586c20 98 77 164 205 164c103 0 185 -34 185 -34l-151 -712s-9 -4 -26 -4c-19 0 -24 4 -24 4l145 682c-27 9 -74 21 -133 21c-97 0 -135 -42 -150 -116l-14 -65h124c0 -3 2 -9 -1 -21c-2 -11 -7 -18 -8 -21h-124l-102 -480s-8 -4 -26 -4s-24 4 -24 4l102 480h-64
c-1 3 -2 9 0 21c3 12 7 18 9 21h64z" />
    <glyph glyph-name=".notdef" horiz-adv-x="618" 
d="M422 0h-538l153 720h538zM409 505c16 73 -20 128 -121 128c-74 0 -128 -26 -128 -26c-4 -11 -2 -23 7 -30c0 0 44 20 109 20c79 0 101 -40 90 -95c-29 -137 -164 -108 -203 -290c0 0 5 -4 15 -4c12 0 18 4 18 4c33 157 180 134 213 293zM187 129c0 0 -7 3 -24 3
s-26 -3 -26 -3l-9 -45s7 -3 24 -3s26 3 26 3z" />
    <glyph glyph-name="A" unicode="A" horiz-adv-x="640" 
d="M381 716c0 0 10 4 27 4s25 -4 25 -4l124 -712s-10 -4 -29 -4c-14 0 -23 4 -23 4l-36 204h-337l-123 -204s-9 -4 -31 -4c-17 0 -23 4 -23 4zM397 653h-2s-10 -21 -27 -52l-210 -347h304l-60 347c-5 32 -5 52 -5 52z" />
    <glyph glyph-name="AE" unicode="&#xc6;" horiz-adv-x="851" 
d="M534 720h344c4 -13 -1 -33 -10 -46h-286l-61 -286h236c3 -15 -1 -33 -9 -46h-236l-63 -296h296c3 -14 -1 -33 -10 -46h-344l42 198h-267l-158 -194c-9 -2 -21 -4 -31 -4c-11 0 -22 1 -28 4zM203 244h240l84 398z" />
    <glyph glyph-name="AEacute" unicode="&#x1fc;" horiz-adv-x="852" 
d="M834 901l-155 -144c-16 2 -25 9 -29 19l142 148c20 1 36 -9 42 -23zM8 4c-9 -2 -22 -4 -32 -4s-22 1 -27 4l585 716h344c3 -13 -1 -33 -10 -46h-287l-61 -286h237c3 -15 -1 -33 -9 -46h-237l-63 -296h297c3 -14 -1 -32 -10 -46h-344l42 198h-268zM527 642l-324 -398h240z
" />
    <glyph glyph-name="Aacute" unicode="&#xc1;" horiz-adv-x="640" 
d="M374 775l142 148c19 1 36 -9 42 -23l-155 -144c-16 2 -25 9 -29 19zM381 716c0 0 10 4 27 4s25 -4 25 -4l124 -712s-10 -4 -29 -4c-17 0 -23 4 -23 4l-36 204h-337l-123 -204s-12 -4 -31 -4c-17 0 -23 4 -23 4zM397 653h-2s-10 -21 -27 -52l-210 -347h304l-60 347
c-5 32 -5 52 -5 52z" />
    <glyph glyph-name="Abreve" unicode="&#x102;" horiz-adv-x="640" 
d="M427 826c69 0 122 39 122 39c13 -4 19 -13 19 -26c0 -7 -56 -53 -148 -53c-93 0 -130 54 -130 54c7 12 16 20 31 25c0 0 37 -39 106 -39zM381 716c0 0 10 4 27 4s25 -4 25 -4l124 -712s-10 -4 -29 -4c-17 0 -23 4 -23 4l-36 204h-337l-123 -204s-12 -4 -31 -4
c-17 0 -23 4 -23 4zM397 653h-2s-10 -21 -27 -52l-210 -347h304l-60 347c-5 32 -5 52 -5 52z" />
    <glyph glyph-name="Acircumflex" unicode="&#xc2;" horiz-adv-x="640" 
d="M458 899l105 -104c-7 -13 -17 -23 -30 -26l-96 84l-132 -87c-12 5 -22 15 -23 29l150 104h26zM381 716c0 0 10 4 27 4s25 -4 25 -4l124 -712s-10 -4 -29 -4c-14 0 -23 4 -23 4l-36 204h-337l-123 -204s-9 -4 -31 -4c-17 0 -23 4 -23 4zM397 653h-2s-10 -21 -27 -52
l-210 -347h304l-60 347c-5 32 -5 52 -5 52z" />
    <glyph glyph-name="Adieresis" unicode="&#xc4;" horiz-adv-x="640" 
d="M327 831c0 0 9 3 30 3c19 0 29 -3 29 -3l-12 -53s-11 -4 -30 -4c-21 0 -29 4 -29 4zM475 831c0 0 10 3 30 3s30 -3 30 -3l-12 -53s-11 -4 -31 -4s-29 4 -29 4zM381 716c0 0 10 4 27 4s25 -4 25 -4l124 -712s-10 -4 -29 -4c-14 0 -23 4 -23 4l-36 204h-337l-123 -204
s-9 -4 -31 -4c-17 0 -23 4 -23 4zM397 653h-2s-10 -21 -27 -52l-210 -347h304l-60 347c-5 32 -5 52 -5 52z" />
    <glyph glyph-name="Agrave" unicode="&#xc0;" horiz-adv-x="640" 
d="M393 922l79 -148c-8 -10 -21 -17 -37 -19l-94 144c11 13 33 24 52 23zM381 716c0 0 10 4 27 4s25 -4 25 -4l124 -712s-10 -4 -29 -4c-14 0 -23 4 -23 4l-36 204h-337l-123 -204s-9 -4 -31 -4c-17 0 -23 4 -23 4zM397 653h-2s-10 -21 -27 -52l-210 -347h304l-60 347
c-5 32 -5 52 -5 52z" />
    <glyph glyph-name="Amacron" unicode="&#x100;" horiz-adv-x="640" 
d="M290 832h275c3 -11 -1 -28 -9 -40h-275c-3 12 0 28 9 40zM381 716c0 0 10 4 27 4s25 -4 25 -4l124 -712s-10 -4 -29 -4c-14 0 -23 4 -23 4l-36 204h-337l-123 -204s-9 -4 -31 -4c-17 0 -23 4 -23 4zM397 653h-2s-10 -21 -27 -52l-210 -347h304l-60 347c-5 32 -5 52 -5 52
z" />
    <glyph glyph-name="Aogonek" unicode="&#x104;" horiz-adv-x="639" 
d="M469 -142c24 0 42 9 42 9c5 -6 7 -16 4 -27c0 0 -26 -16 -62 -16c-54 0 -80 31 -70 78c12 55 53 91 121 110l-35 196h-337l-123 -204s-12 -4 -31 -4c-17 0 -23 4 -23 4l426 712s10 4 27 4s25 -4 25 -4l123 -718s-5 -2 -14 -3c-50 -10 -104 -33 -116 -87
c-7 -33 11 -50 43 -50zM462 254l-60 347c-5 32 -5 52 -5 52h-2s-10 -21 -27 -52l-210 -347h304z" />
    <glyph glyph-name="Aring" unicode="&#xc5;" horiz-adv-x="640" 
d="M437 696l120 -692s-10 -4 -29 -4c-17 0 -23 4 -23 4l-36 204h-337l-123 -204s-9 -4 -31 -4c-17 0 -23 4 -23 4l414 691c-45 10 -72 45 -60 101c15 69 79 106 137 106c57 0 108 -36 93 -106c-12 -55 -54 -90 -102 -100zM500 796c8 37 -11 71 -63 71c-50 0 -81 -35 -89 -71
c-7 -36 7 -72 59 -72s86 37 93 72zM462 254l-60 347c-5 32 -5 52 -5 52h-2s-10 -21 -27 -52l-210 -347h304z" />
    <glyph glyph-name="Aringacute" unicode="&#x1fa;" horiz-adv-x="640" 
d="M591 1035l-140 -106c-13 1 -22 6 -27 13l127 110c18 1 34 -6 40 -17zM437 696l120 -692s-10 -4 -29 -4c-14 0 -23 4 -23 4l-36 204h-337l-123 -204s-12 -4 -31 -4c-17 0 -23 4 -23 4l413 691c-34 7 -72 45 -60 101c15 69 79 106 138 106c57 0 107 -36 92 -106
c-11 -54 -54 -89 -101 -100zM499 796c8 37 -11 71 -62 71s-82 -35 -90 -71c-7 -36 9 -72 60 -72s85 37 92 72zM462 254l-60 347c-5 32 -5 52 -5 52h-2s-10 -21 -27 -52l-210 -347h304z" />
    <glyph glyph-name="Atilde" unicode="&#xc3;" horiz-adv-x="640" 
d="M298 800c0 0 21 50 74 51c51 0 73 -36 112 -36c28 1 45 28 45 28c13 0 24 -5 29 -17c0 0 -22 -48 -76 -49c-50 -1 -72 36 -111 35c-28 0 -46 -29 -46 -29c-14 0 -25 7 -27 17zM381 716c0 0 10 4 27 4s25 -4 25 -4l124 -712s-10 -4 -29 -4c-14 0 -23 4 -23 4l-36 204h-337
l-123 -204s-12 -4 -31 -4c-17 0 -23 4 -23 4zM397 653h-2s-10 -21 -27 -52l-210 -347h304l-60 347c-5 32 -5 52 -5 52z" />
    <glyph glyph-name="B" unicode="B" horiz-adv-x="629" 
d="M192 720h242c144 0 174 -95 153 -196c-25 -119 -107 -149 -125 -158c11 -6 106 -41 76 -180c-24 -115 -94 -186 -253 -186h-246zM173 386h180c110 0 162 58 181 145c18 87 -7 144 -122 144h-178zM101 45h188c122 0 175 55 195 148c22 102 -19 149 -133 149h-187z" />
    <glyph glyph-name="C" unicode="C" horiz-adv-x="553" 
d="M83 369c53 245 165 361 346 361c109 0 160 -33 160 -33c-4 -16 -13 -29 -25 -40c0 0 -53 27 -138 27c-133 0 -237 -74 -291 -325c-53 -251 20 -322 154 -322c93 0 160 27 160 27c7 -10 10 -26 8 -41c0 0 -67 -33 -185 -33c-180 0 -241 130 -189 379z" />
    <glyph glyph-name="CR" horiz-adv-x="322" 
 />
    <glyph glyph-name="Cacute" unicode="&#x106;" horiz-adv-x="553" 
d="M557 895l-163 -135c-16 4 -24 11 -27 22l151 140c19 -1 34 -12 39 -27zM83 369c53 245 165 361 346 361c109 0 160 -33 160 -33c-4 -16 -13 -29 -25 -40c0 0 -53 27 -138 27c-133 0 -237 -74 -291 -325c-53 -251 20 -322 154 -322c93 0 160 27 160 27c7 -10 10 -26 8 -41
c0 0 -67 -33 -185 -33c-180 0 -241 130 -189 379z" />
    <glyph glyph-name="Ccaron" unicode="&#x10c;" horiz-adv-x="553" 
d="M422 767l-106 104c7 14 13 23 27 28l99 -86l133 85c11 -3 21 -14 22 -27l-149 -104h-26zM83 369c53 245 165 361 346 361c109 0 160 -33 160 -33c-4 -16 -13 -29 -25 -40c0 0 -53 27 -138 27c-133 0 -237 -74 -291 -325c-53 -251 20 -322 154 -322c93 0 160 27 160 27
c7 -10 10 -26 8 -41c0 0 -67 -33 -185 -33c-180 0 -241 130 -189 379z" />
    <glyph glyph-name="Ccedilla" unicode="&#xc7;" horiz-adv-x="552" 
d="M455 47c2 -13 -2 -24 -2 -24s-67 -33 -183 -33l-25 -46c78 0 102 -33 90 -88c-13 -65 -60 -95 -135 -95c-52 0 -83 23 -83 23c4 13 11 22 20 28c3 -1 30 -17 70 -17c46 0 78 16 87 60c8 36 -12 56 -57 56h-32l-6 10l39 71c-155 14 -206 146 -157 379
c53 245 163 359 344 359c109 0 160 -33 160 -33s0 -9 -7 -21c-8 -14 -18 -19 -18 -19s-53 27 -138 27c-133 0 -237 -74 -291 -325c-53 -251 20 -322 154 -322c93 0 160 27 160 27s7 -4 10 -17z" />
    <glyph glyph-name="Ccircumflex" unicode="&#x108;" horiz-adv-x="553" 
d="M482 883l104 -105c-6 -12 -16 -22 -28 -25l-97 84l-132 -86c-12 5 -22 14 -24 27l151 105h26zM83 369c53 245 165 361 346 361c109 0 160 -33 160 -33c-4 -16 -13 -29 -25 -40c0 0 -53 27 -138 27c-133 0 -237 -74 -291 -325c-53 -251 20 -322 154 -322
c93 0 160 27 160 27c7 -10 10 -26 8 -41c0 0 -67 -33 -185 -33c-180 0 -241 130 -189 379z" />
    <glyph glyph-name="Cdotaccent" unicode="&#x10a;" horiz-adv-x="553" 
d="M485 845l-12 -54s-12 -4 -32 -4c-21 0 -29 4 -29 4l12 54s9 4 30 4c20 0 31 -4 31 -4zM83 369c53 245 165 361 346 361c109 0 160 -33 160 -33c-4 -16 -13 -29 -25 -40c0 0 -53 27 -138 27c-133 0 -237 -74 -291 -325c-53 -251 20 -322 154 -322c93 0 160 27 160 27
c7 -10 10 -26 8 -41c0 0 -67 -33 -185 -33c-180 0 -241 130 -189 379z" />
    <glyph glyph-name="D" unicode="D" horiz-adv-x="662" 
d="M192 720h192c190 0 276 -95 217 -370c-58 -275 -168 -350 -358 -350h-204zM101 46h141c153 0 251 63 304 314c54 252 -18 314 -171 314h-141z" />
    <glyph glyph-name="Dcaron" unicode="&#x10e;" horiz-adv-x="662" 
d="M376 767l-106 104c7 14 13 21 27 26l97 -86l135 85c11 -3 21 -12 22 -25l-149 -104h-26zM192 720h192c190 0 276 -95 217 -370c-58 -275 -168 -350 -358 -350h-204zM101 46h141c153 0 251 63 304 314c54 252 -18 314 -171 314h-141z" />
    <glyph glyph-name="Dcroat" unicode="&#x110;" horiz-adv-x="668" 
d="M198 720h192c190 0 276 -95 217 -370c-58 -275 -168 -350 -358 -350h-204l72 337h-85c-1 13 3 28 8 40h85zM248 46c153 0 251 63 304 314c54 252 -18 314 -171 314h-141l-63 -297h146c1 -12 -3 -28 -8 -40h-146l-62 -291h141z" />
    <glyph glyph-name="Delta" unicode="&#x2206;" horiz-adv-x="641" 
d="M386 716c4 1 13 4 28 4s22 -3 26 -4l117 -685c-7 -13 -15 -23 -27 -31h-544c-8 8 -13 19 -12 31zM400 657h-2c-4 -7 -18 -40 -49 -90l-315 -521h467l-91 522c-10 46 -10 82 -10 89z" />
    <glyph glyph-name="E" unicode="E" horiz-adv-x="556" 
d="M192 720h391c1 -6 1 -13 -1 -22c-2 -10 -4 -17 -9 -24h-339l-61 -286h289c1 -7 1 -14 0 -22c-2 -9 -5 -16 -9 -23h-289l-63 -297h349c0 -7 1 -14 -1 -22c-2 -9 -5 -17 -9 -24h-401z" />
    <glyph glyph-name="Eacute" unicode="&#xc9;" horiz-adv-x="556" 
d="M506 901l-155 -144c-16 2 -25 9 -29 19l142 148c20 1 36 -9 42 -23zM192 720h391c1 -6 1 -13 -1 -22c-2 -10 -4 -17 -9 -24h-339l-61 -286h289c1 -7 1 -14 0 -22c-2 -9 -5 -16 -9 -23h-289l-63 -297h349c0 -7 1 -14 -1 -22c-2 -9 -5 -17 -9 -24h-401z" />
    <glyph glyph-name="Ebreve" unicode="&#x114;" horiz-adv-x="556" 
d="M552 847c0 0 -59 -53 -151 -53c-93 0 -129 53 -129 53c7 13 17 22 32 27c0 0 36 -39 105 -39s123 39 123 39c13 -4 19 -13 20 -27zM192 720h391c1 -6 1 -13 -1 -22c-2 -10 -4 -17 -9 -24h-339l-61 -286h289c1 -7 1 -14 0 -22c-2 -9 -5 -16 -9 -23h-289l-63 -297h349
c0 -7 1 -14 -1 -22c-2 -9 -5 -17 -9 -24h-401z" />
    <glyph glyph-name="Ecaron" unicode="&#x11a;" horiz-adv-x="556" 
d="M372 767l-106 104c7 14 13 23 27 28l99 -86l133 85c11 -3 21 -14 22 -27l-149 -104h-26zM192 720h391c1 -6 1 -13 -1 -22c-2 -10 -4 -17 -9 -24h-339l-61 -286h289c1 -7 1 -14 0 -22c-2 -9 -5 -16 -9 -23h-289l-63 -297h349c0 -7 1 -14 -1 -22c-2 -9 -5 -17 -9 -24h-401z
" />
    <glyph glyph-name="Ecircumflex" unicode="&#xca;" horiz-adv-x="556" 
d="M435 899l105 -104c-7 -13 -17 -24 -30 -27l-99 85l-133 -86c-12 5 -18 14 -19 28l150 104h26zM192 720h391c1 -6 1 -13 -1 -22c-2 -10 -4 -17 -9 -24h-339l-61 -286h289c1 -7 1 -14 0 -22c-2 -9 -5 -16 -9 -23h-289l-63 -297h349c0 -7 1 -14 -1 -22c-2 -9 -5 -17 -9 -24
h-401z" />
    <glyph glyph-name="Edieresis" unicode="&#xcb;" horiz-adv-x="556" 
d="M369 823l-11 -53s-11 -4 -30 -4c-20 0 -29 4 -29 4l11 53s11 3 31 3c19 0 28 -3 28 -3zM518 823l-11 -53s-11 -4 -31 -4s-28 4 -28 4l11 53s10 3 30 3s29 -3 29 -3zM192 720h391c1 -6 1 -13 -1 -22c-2 -10 -4 -17 -9 -24h-339l-61 -286h289c1 -7 1 -14 0 -22
c-2 -9 -5 -16 -9 -23h-289l-63 -297h349c0 -7 1 -14 -1 -22c-2 -9 -5 -17 -9 -24h-401z" />
    <glyph glyph-name="Edotaccent" unicode="&#x116;" horiz-adv-x="556" 
d="M447 842l-12 -54s-11 -4 -31 -4c-21 0 -30 4 -30 4l12 54s10 4 31 4c20 0 30 -4 30 -4zM192 720h391c1 -6 1 -13 -1 -22c-2 -10 -4 -17 -9 -24h-339l-61 -286h289c1 -7 1 -14 0 -22c-2 -9 -5 -16 -9 -23h-289l-63 -297h349c0 -7 1 -14 -1 -22c-2 -9 -5 -17 -9 -24h-401z
" />
    <glyph glyph-name="Egrave" unicode="&#xc8;" horiz-adv-x="556" 
d="M405 755l-94 144c11 13 33 24 52 23l79 -148c-8 -10 -21 -17 -37 -19zM192 720h391c1 -6 1 -13 -1 -22c-2 -10 -4 -17 -9 -24h-339l-61 -286h289c1 -7 1 -14 0 -22c-2 -9 -5 -16 -9 -23h-289l-63 -297h349c0 -7 1 -14 -1 -22c-2 -9 -5 -17 -9 -24h-401z" />
    <glyph glyph-name="Emacron" unicode="&#x112;" horiz-adv-x="556" 
d="M539 792h-275c-1 12 2 28 9 40h275c2 -11 -2 -28 -9 -40zM192 720h391c1 -6 1 -13 -1 -22c-2 -10 -4 -17 -9 -24h-339l-61 -286h289c1 -7 1 -14 0 -22c-2 -9 -5 -16 -9 -23h-289l-63 -297h349c0 -7 1 -14 -1 -22c-2 -9 -5 -17 -9 -24h-401z" />
    <glyph glyph-name="Eng" unicode="&#x14a;" horiz-adv-x="697" 
d="M631 716c0 0 9 4 27 4c17 0 23 -4 23 -4l-163 -768c-19 -91 -52 -147 -148 -176c-11 8 -13 23 -7 39c59 19 86 54 103 135l12 56c-6 1 -9 2 -9 2l-243 648h-2s-6 -44 -26 -140l-108 -508s-9 -4 -27 -4c-17 0 -23 4 -23 4l151 712s12 4 32 4s29 -4 29 -4l245 -640h2
s6 48 23 126z" />
    <glyph glyph-name="Eogonek" unicode="&#x118;" horiz-adv-x="556" 
d="M192 720h391c1 -6 1 -13 -1 -22c-2 -10 -4 -17 -9 -24h-339l-61 -286h289c1 -7 1 -14 0 -22c-2 -9 -5 -16 -9 -23h-289l-63 -297h349c0 -7 1 -14 -1 -22c-2 -9 -5 -17 -9 -24c-72 -4 -126 -51 -136 -97c-7 -33 11 -50 44 -50c23 0 41 9 41 9c5 -6 7 -15 5 -26
c0 0 -28 -17 -64 -17c-54 0 -79 32 -69 79c7 32 40 82 95 102h-317z" />
    <glyph glyph-name="Eth" unicode="&#xd0;" horiz-adv-x="668" 
d="M198 720h192c190 0 276 -95 217 -370c-58 -275 -168 -350 -358 -350h-204l72 337h-85c-1 13 3 28 8 40h85zM248 46c153 0 251 63 304 314c54 252 -18 314 -171 314h-141l-63 -297h146c1 -12 -3 -28 -8 -40h-146l-62 -291h141z" />
    <glyph glyph-name="Euro" unicode="&#x20ac;" horiz-adv-x="581" 
d="M164 435c56 162 150 245 287 245c101 0 141 -31 141 -31c-4 -14 -11 -26 -24 -36c0 0 -44 24 -119 24c-100 0 -180 -49 -233 -202h270c0 -12 -5 -27 -15 -38h-268c-5 -20 -9 -41 -14 -63c-5 -21 -9 -41 -12 -59h234c0 -11 -5 -26 -14 -37h-223c-15 -157 46 -204 147 -204
c82 0 139 24 139 24c8 -9 10 -23 8 -37c0 0 -58 -31 -163 -31c-138 0 -198 81 -183 248h-82c0 12 6 26 13 37h73c3 19 7 39 11 60c5 21 9 40 15 62h-79c1 12 7 27 14 38h77z" />
    <glyph glyph-name="F" unicode="F" horiz-adv-x="538" 
d="M162 333l-70 -329s-9 -4 -27 -4s-25 4 -25 4l152 716h389c0 -3 2 -10 -1 -23c-2 -12 -7 -20 -9 -23h-337l-63 -296h293c1 -2 2 -10 0 -22c-3 -12 -8 -20 -9 -23h-293z" />
    <glyph glyph-name="G" unicode="G" horiz-adv-x="620" 
d="M83 373c53 245 176 357 357 357c115 0 176 -33 176 -33c-5 -14 -14 -29 -25 -39c0 0 -66 26 -154 26c-133 0 -249 -74 -303 -325c-53 -251 32 -322 166 -322c61 0 114 11 139 16l60 282h-180s-2 9 1 23c3 16 9 23 9 23h231l-76 -358s-81 -33 -201 -33
c-180 0 -252 134 -200 383z" />
    <glyph glyph-name="Gbreve" unicode="&#x11e;" horiz-adv-x="620" 
d="M605 839c0 0 -58 -54 -150 -54c-93 0 -129 54 -129 54c7 12 17 21 31 26c0 0 38 -39 107 -39s122 39 122 39c13 -4 19 -13 19 -26zM83 373c53 245 176 357 357 357c115 0 176 -33 176 -33c-5 -14 -14 -29 -25 -39c0 0 -66 26 -154 26c-133 0 -249 -74 -303 -325
c-53 -251 32 -322 166 -322c61 0 114 11 139 16l60 282h-180s-2 9 1 23c3 16 9 23 9 23h231l-76 -358s-81 -33 -201 -33c-180 0 -252 134 -200 383z" />
    <glyph glyph-name="Gcircumflex" unicode="&#x11c;" horiz-adv-x="620" 
d="M503 899l105 -104c-7 -13 -14 -24 -27 -27l-99 85l-133 -86c-12 5 -21 14 -22 28l150 104h26zM83 373c53 245 176 357 357 357c115 0 176 -33 176 -33c-5 -14 -14 -29 -25 -39c0 0 -66 26 -154 26c-133 0 -249 -74 -303 -325c-53 -251 32 -322 166 -322
c61 0 114 11 139 16l60 282h-180s-2 9 1 23c3 16 9 23 9 23h231l-76 -358s-81 -33 -201 -33c-180 0 -252 134 -200 383z" />
    <glyph glyph-name="Gcommaaccent" unicode="&#x122;" horiz-adv-x="620" 
d="M219 -219l-20 14s38 28 53 82c-15 0 -22 4 -22 4l11 52s13 4 35 4s32 -4 32 -4l-8 -38c-16 -75 -81 -114 -81 -114zM83 373c53 245 176 357 357 357c115 0 176 -33 176 -33c-5 -14 -14 -29 -25 -39c0 0 -66 26 -154 26c-133 0 -249 -74 -303 -325
c-53 -251 32 -322 166 -322c61 0 114 11 139 16l60 282h-180s-2 9 1 23c3 16 9 23 9 23h231l-76 -358s-81 -33 -201 -33c-180 0 -252 134 -200 383z" />
    <glyph glyph-name="Gdotaccent" unicode="&#x120;" horiz-adv-x="620" 
d="M496 842l-12 -54s-10 -4 -30 -4c-21 0 -31 4 -31 4l12 54s11 4 32 4c20 0 29 -4 29 -4zM83 373c53 245 176 357 357 357c115 0 176 -33 176 -33c-5 -14 -14 -29 -25 -39c0 0 -66 26 -154 26c-133 0 -249 -74 -303 -325c-53 -251 32 -322 166 -322c61 0 114 11 139 16
l60 282h-180s-2 9 1 23c3 16 9 23 9 23h231l-76 -358s-81 -33 -201 -33c-180 0 -252 134 -200 383z" />
    <glyph glyph-name="H" unicode="H" horiz-adv-x="679" 
d="M542 393l69 323s10 4 27 4s25 -4 25 -4l-151 -712s-9 -4 -27 -4c-20 0 -25 4 -25 4l72 341h-368l-72 -341s-10 -4 -27 -4c-19 0 -25 4 -25 4l151 712s10 4 27 4s25 -4 25 -4l-69 -323h368z" />
    <glyph glyph-name="Hbar" unicode="&#x126;" horiz-adv-x="688" 
d="M643 592h75c2 -10 -2 -28 -8 -37h-75l-117 -551s-9 -4 -27 -4c-20 0 -25 4 -25 4l72 341h-368l-72 -341s-10 -4 -27 -4c-19 0 -25 4 -25 4l117 551h-65c-2 12 2 27 8 37h65l26 124s10 4 27 4s25 -4 25 -4l-26 -124h368l26 124s10 4 27 4s25 -4 25 -4zM215 555l-35 -162
h368l35 162h-368z" />
    <glyph glyph-name="Hcircumflex" unicode="&#x124;" horiz-adv-x="679" 
d="M486 899l105 -104c-7 -13 -17 -24 -30 -27l-94 85l-138 -86c-12 5 -18 14 -19 28l150 104h26zM542 393l69 323s10 4 27 4s25 -4 25 -4l-151 -712s-9 -4 -27 -4c-20 0 -25 4 -25 4l72 341h-368l-72 -341s-10 -4 -27 -4c-19 0 -25 4 -25 4l151 712s10 4 27 4s25 -4 25 -4
l-69 -323h368z" />
    <glyph glyph-name="I" unicode="I" horiz-adv-x="259" 
d="M40 4l151 712s9 4 27 4s25 -4 25 -4l-151 -712s-9 -4 -27 -4c-19 0 -25 4 -25 4z" />
    <glyph glyph-name="IJ" unicode="&#x132;" horiz-adv-x="641" 
d="M40 4l151 712s9 4 27 4s25 -4 25 -4l-151 -712s-9 -4 -27 -4c-19 0 -25 4 -25 4zM461 163l117 553s8 4 27 4c17 0 25 -4 25 -4l-117 -553c-26 -119 -91 -173 -200 -173c-75 0 -131 30 -131 30c3 17 11 32 24 41c0 0 50 -24 111 -24c70 0 123 31 144 126z" />
    <glyph glyph-name="Iacute" unicode="&#xcd;" horiz-adv-x="259" 
d="M342 901l-155 -144c-16 2 -25 9 -29 19l142 148c20 1 36 -9 42 -23zM40 4l151 712s9 4 27 4s25 -4 25 -4l-151 -712s-9 -4 -27 -4c-19 0 -25 4 -25 4z" />
    <glyph glyph-name="Ibreve" unicode="&#x12c;" horiz-adv-x="259" 
d="M380 839c0 0 -58 -54 -150 -54c-93 0 -129 54 -129 54c7 12 17 21 32 26c0 0 37 -39 106 -39s122 39 122 39c13 -4 19 -13 19 -26zM40 4l151 712s9 4 27 4s25 -4 25 -4l-151 -712s-9 -4 -27 -4c-19 0 -25 4 -25 4z" />
    <glyph glyph-name="Icircumflex" unicode="&#xce;" horiz-adv-x="259" 
d="M269 899l105 -104c-7 -13 -14 -24 -27 -27l-99 85l-133 -86c-12 5 -21 14 -22 28l150 104h26zM40 4l151 712s9 4 27 4s25 -4 25 -4l-151 -712s-9 -4 -27 -4c-19 0 -25 4 -25 4z" />
    <glyph glyph-name="Idieresis" unicode="&#xcf;" horiz-adv-x="259" 
d="M196 823l-11 -53s-11 -4 -31 -4s-29 4 -29 4l11 53s11 3 31 3s29 -3 29 -3zM345 823l-11 -53s-11 -4 -31 -4s-29 4 -29 4l11 53s11 3 31 3s29 -3 29 -3zM40 4l151 712s9 4 27 4s25 -4 25 -4l-151 -712s-9 -4 -27 -4c-19 0 -25 4 -25 4z" />
    <glyph glyph-name="Idotaccent" unicode="&#x130;" horiz-adv-x="259" 
d="M213 840c0 0 10 4 31 4s32 -4 32 -4l-12 -56s-12 -4 -33 -4s-30 4 -30 4zM191 716c0 0 9 4 27 4s25 -4 25 -4l-151 -712s-9 -4 -27 -4c-19 0 -25 4 -25 4z" />
    <glyph glyph-name="Igrave" unicode="&#xcc;" horiz-adv-x="259" 
d="M251 755l-94 144c11 13 33 24 52 23l79 -148c-8 -10 -21 -17 -37 -19zM40 4l151 712s9 4 27 4s25 -4 25 -4l-151 -712s-9 -4 -27 -4c-19 0 -25 4 -25 4z" />
    <glyph glyph-name="Imacron" unicode="&#x12a;" horiz-adv-x="259" 
d="M359 777h-255c-3 12 0 28 9 40h255c3 -11 -1 -28 -9 -40zM40 4l151 712s9 4 27 4s25 -4 25 -4l-151 -712s-9 -4 -27 -4c-19 0 -25 4 -25 4z" />
    <glyph glyph-name="Iogonek" unicode="&#x12e;" horiz-adv-x="259" 
d="M92 4v-1c-56 -16 -98 -58 -105 -94c-7 -33 11 -50 43 -50c23 0 41 9 41 9c7 -6 8 -16 5 -27c0 0 -26 -17 -63 -17c-54 0 -80 32 -70 79c8 36 37 81 98 107l150 706s9 4 27 4s25 -4 25 -4z" />
    <glyph glyph-name="Itilde" unicode="&#x128;" horiz-adv-x="259" 
d="M299 804c28 0 50 27 50 27c8 -3 14 -11 15 -21c-3 -7 -34 -44 -78 -44c-49 0 -61 35 -98 35c-28 0 -47 -26 -47 -26c-11 5 -17 11 -18 22c0 0 26 42 78 42c49 0 61 -35 98 -35zM40 4l151 712s9 4 27 4s25 -4 25 -4l-151 -712s-9 -4 -27 -4c-19 0 -25 4 -25 4z" />
    <glyph glyph-name="J" unicode="J" horiz-adv-x="427" 
d="M247 163l117 553s8 4 27 4c17 0 25 -4 25 -4l-117 -552c-25 -119 -91 -174 -200 -174c-76 0 -131 30 -131 30c3 17 11 32 24 41c0 0 50 -24 111 -24c70 0 123 31 144 126z" />
    <glyph glyph-name="Jcircumflex" unicode="&#x134;" horiz-adv-x="427" 
d="M442 899l105 -104c-7 -13 -17 -24 -30 -27l-99 85l-133 -86c-12 5 -18 14 -19 28l150 104h26zM247 163l117 553s8 4 27 4c17 0 25 -4 25 -4l-117 -552c-25 -119 -91 -174 -200 -174c-76 0 -131 30 -131 30c3 17 11 32 24 41c0 0 50 -24 111 -24c70 0 123 31 144 126z" />
    <glyph glyph-name="K" unicode="K" horiz-adv-x="608" 
d="M298 397l290 319c3 1 15 4 30 4c14 0 25 -3 29 -4l-309 -345l187 -367s-11 -4 -31 -4c-18 0 -29 4 -29 4l-173 347h-127l-74 -347s-9 -4 -27 -4c-17 0 -25 4 -25 4l151 712s10 4 28 4c17 0 24 -4 24 -4l-68 -319h124z" />
    <glyph glyph-name="Kcommaaccent" unicode="&#x136;" horiz-adv-x="608" 
d="M188 -207l-19 16s37 30 53 87c-14 0 -21 4 -21 4l12 56s11 4 32 4s32 -4 32 -4l-9 -40c-17 -81 -80 -123 -80 -123zM298 397l290 319c3 1 15 4 30 4c14 0 25 -3 29 -4l-309 -345l187 -367s-11 -4 -31 -4c-18 0 -29 4 -29 4l-173 347h-127l-74 -347s-9 -4 -27 -4
c-17 0 -25 4 -25 4l151 712s10 4 28 4c17 0 24 -4 24 -4l-68 -319h124z" />
    <glyph glyph-name="L" unicode="L" horiz-adv-x="505" 
d="M39 0l152 716s10 4 27 4c18 0 25 -4 25 -4l-142 -669h323c0 -3 1 -12 -1 -23c-2 -12 -7 -20 -9 -24h-375z" />
    <glyph glyph-name="Lacute" unicode="&#x139;" horiz-adv-x="505" 
d="M366 901l-155 -144c-16 2 -25 9 -29 19l142 148c20 1 36 -9 42 -23zM39 0l152 716s10 4 27 4c18 0 25 -4 25 -4l-142 -669h323c0 -3 1 -12 -1 -23c-2 -12 -7 -20 -9 -24h-375z" />
    <glyph glyph-name="Lcaron" unicode="&#x13d;" horiz-adv-x="505" 
d="M346 588c-13 2 -19 9 -21 17c52 36 81 82 96 144c21 2 37 -1 45 -10c-18 -58 -64 -124 -120 -151zM39 0l152 716s10 4 27 4c18 0 25 -4 25 -4l-142 -669h323c0 -3 1 -12 -1 -23c-2 -12 -7 -20 -9 -24h-375z" />
    <glyph glyph-name="Lcommaaccent" unicode="&#x13b;" horiz-adv-x="505" 
d="M39 0l152 716s10 4 27 4c18 0 25 -4 25 -4l-142 -669h323c0 -3 1 -12 -1 -23c-2 -12 -7 -20 -9 -24h-375zM166 -218l-18 16s36 30 53 87c-15 0 -22 4 -22 4l12 56s11 4 32 4s32 -4 32 -4l-9 -40c-17 -81 -80 -123 -80 -123z" />
    <glyph glyph-name="Ldot" unicode="&#x13f;" horiz-adv-x="507" 
d="M39 0l152 716s10 4 27 4c18 0 25 -4 25 -4l-142 -669h323c0 -3 1 -12 -1 -23c-2 -12 -7 -20 -9 -24h-375zM379 360l-11 -52s-10 -4 -30 -4s-30 4 -30 4l11 52s11 4 31 4s29 -4 29 -4z" />
    <glyph glyph-name="Lslash" unicode="&#x141;" horiz-adv-x="520" 
d="M207 716c0 0 10 4 27 4c18 0 25 -4 25 -4l-65 -308l116 61c9 -7 13 -20 12 -34l-138 -72l-67 -316h323c0 -3 1 -12 -1 -23c-2 -12 -7 -20 -9 -24h-375l71 333l-80 -40c-8 7 -14 20 -12 33l101 52z" />
    <glyph glyph-name="M" unicode="M" horiz-adv-x="844" 
d="M755 716c5 1 21 4 39 4c23 0 34 -4 34 -4l-151 -712s-9 -4 -27 -4s-25 4 -25 4l108 507c16 76 31 132 36 148h-3c-6 -12 -33 -54 -73 -105l-281 -356s-9 -4 -21 -4s-19 4 -19 4c-40 118 -81 236 -121 355c-17 48 -28 94 -28 106h-3c0 -14 -8 -71 -25 -152l-107 -503
s-8 -4 -25 -4s-24 4 -24 4l151 712s14 4 34 4c19 0 28 -4 28 -4l150 -454h2z" />
    <glyph glyph-name="N" unicode="N" horiz-adv-x="696" 
d="M468 4l-243 639h-2s-6 -35 -26 -131l-108 -508s-9 -4 -27 -4c-16 0 -23 4 -23 4l151 712s12 4 32 4c21 0 29 -4 29 -4l245 -647h2s7 55 24 133l109 514s8 4 26 4c17 0 23 -4 23 -4l-151 -712s-10 -4 -31 -4s-30 4 -30 4z" />
    <glyph glyph-name="Nacute" unicode="&#x143;" horiz-adv-x="696" 
d="M601 901l-155 -144c-16 2 -25 9 -29 19l142 148c20 1 36 -9 42 -23zM468 4l-243 639h-2s-6 -35 -26 -131l-108 -508s-9 -4 -27 -4c-16 0 -23 4 -23 4l151 712s12 4 32 4c21 0 29 -4 29 -4l245 -647h2s7 55 24 133l109 514s8 4 26 4c17 0 23 -4 23 -4l-151 -712
s-10 -4 -31 -4s-30 4 -30 4z" />
    <glyph glyph-name="Ncaron" unicode="&#x147;" horiz-adv-x="696" 
d="M441 767l-106 104c7 14 14 23 28 28l99 -86l130 87c11 -3 23 -16 24 -29l-149 -104h-26zM468 4l-243 639h-2s-6 -35 -26 -131l-108 -508s-9 -4 -27 -4c-16 0 -23 4 -23 4l151 712s12 4 32 4c21 0 29 -4 29 -4l245 -647h2s7 55 24 133l109 514s8 4 26 4c17 0 23 -4 23 -4
l-151 -712s-10 -4 -31 -4s-30 4 -30 4z" />
    <glyph glyph-name="Ncommaaccent" unicode="&#x145;" horiz-adv-x="696" 
d="M217 -211l-19 16s37 30 53 87c-14 0 -21 4 -21 4l12 56s11 4 32 4s32 -4 32 -4l-9 -40c-17 -81 -80 -123 -80 -123zM468 4l-243 639h-2s-6 -35 -26 -131l-108 -508s-9 -4 -27 -4c-16 0 -23 4 -23 4l151 712s12 4 32 4c21 0 29 -4 29 -4l245 -647h2s7 55 24 133l109 514
s8 4 26 4c17 0 23 -4 23 -4l-151 -712s-10 -4 -31 -4s-30 4 -30 4z" />
    <glyph glyph-name="Ntilde" unicode="&#xd1;" horiz-adv-x="696" 
d="M519 806c29 0 50 26 50 26c10 -3 22 -14 21 -26c-6 -9 -31 -40 -74 -40c-51 0 -71 36 -110 36c-29 0 -50 -29 -50 -29c-11 5 -20 14 -21 25c0 0 20 43 74 43c51 0 72 -35 110 -35zM468 4l-243 639h-2s-6 -35 -26 -131l-108 -508s-9 -4 -27 -4c-16 0 -23 4 -23 4l151 712
s12 4 32 4c21 0 29 -4 29 -4l245 -647h2s7 55 24 133l109 514s8 4 26 4c17 0 23 -4 23 -4l-151 -712s-10 -4 -31 -4s-30 4 -30 4z" />
    <glyph glyph-name="O" unicode="O" horiz-adv-x="676" 
d="M83 373c55 258 173 357 340 357s248 -119 192 -378c-55 -259 -167 -362 -335 -362s-252 124 -197 383zM563 360c51 239 -23 325 -144 325c-131 0 -233 -86 -284 -325c-50 -238 32 -325 145 -325c131 0 233 87 283 325z" />
    <glyph glyph-name="OE" unicode="&#x152;" horiz-adv-x="837" 
d="M84 374c56 259 181 356 353 356c34 0 64 -5 84 -10h342c2 -6 1 -14 -1 -23s-5 -17 -9 -23h-297l-61 -286h247c2 -7 1 -14 0 -22c-2 -9 -5 -16 -9 -23h-247l-63 -297h307c1 -7 1 -14 -1 -22c-2 -10 -5 -17 -9 -24h-353c-22 -5 -51 -10 -87 -10c-172 0 -250 126 -196 384z
M508 672c-19 7 -47 13 -80 13c-135 0 -243 -87 -294 -325c-50 -239 20 -325 155 -325c33 0 66 6 86 14z" />
    <glyph glyph-name="Oacute" unicode="&#xd3;" horiz-adv-x="676" 
d="M429 788l136 141c20 1 37 -8 43 -23l-149 -136c-15 2 -26 8 -30 18zM83 373c55 258 173 357 340 357s248 -119 192 -378c-55 -259 -167 -362 -335 -362s-252 124 -197 383zM563 360c51 239 -23 325 -144 325c-131 0 -233 -86 -284 -325c-50 -238 32 -325 145 -325
c131 0 233 87 283 325z" />
    <glyph glyph-name="Obreve" unicode="&#x14e;" horiz-adv-x="676" 
d="M451 826c69 0 122 39 122 39c13 -4 19 -13 19 -26c0 0 -51 -54 -143 -54c-93 0 -136 54 -136 54c7 12 17 21 32 26c0 0 37 -39 106 -39zM83 373c55 258 173 357 340 357s248 -119 192 -378c-55 -259 -167 -362 -335 -362s-252 124 -197 383zM563 360
c51 239 -23 325 -144 325c-131 0 -233 -86 -284 -325c-50 -238 32 -325 145 -325c131 0 233 87 283 325z" />
    <glyph glyph-name="Ocircumflex" unicode="&#xd4;" horiz-adv-x="676" 
d="M479 899l105 -104c-7 -13 -14 -24 -27 -27l-99 85l-133 -86c-12 5 -21 14 -22 28l150 104h26zM83 373c55 258 173 357 340 357s248 -119 192 -378c-55 -259 -167 -362 -335 -362s-252 124 -197 383zM563 360c51 239 -23 325 -144 325c-131 0 -233 -86 -284 -325
c-50 -238 32 -325 145 -325c131 0 233 87 283 325z" />
    <glyph glyph-name="Odieresis" unicode="&#xd6;" horiz-adv-x="676" 
d="M347 843c0 0 11 3 31 3s29 -3 29 -3l-11 -53s-11 -4 -31 -4s-29 4 -29 4zM496 843c0 0 11 3 31 3c19 0 29 -3 29 -3l-11 -53s-12 -4 -31 -4c-20 0 -29 4 -29 4zM83 373c55 258 173 357 340 357s248 -119 192 -378c-55 -259 -167 -362 -335 -362s-252 124 -197 383z
M563 360c51 239 -23 325 -144 325c-131 0 -233 -86 -284 -325c-50 -238 32 -325 145 -325c131 0 233 87 283 325z" />
    <glyph glyph-name="Ograve" unicode="&#xd2;" horiz-adv-x="676" 
d="M432 922l74 -141c-8 -10 -21 -17 -37 -18l-89 136c11 13 33 24 52 23zM83 373c55 258 173 357 340 357s248 -119 192 -378c-55 -259 -167 -362 -335 -362s-252 124 -197 383zM563 360c51 239 -23 325 -144 325c-131 0 -233 -86 -284 -325c-50 -238 32 -325 145 -325
c131 0 233 87 283 325z" />
    <glyph glyph-name="Ohungarumlaut" unicode="&#x150;" horiz-adv-x="676" 
d="M340 792l111 124c20 1 38 -8 45 -22l-129 -120c-14 2 -24 8 -27 18zM486 792l113 124c20 1 36 -8 44 -22l-129 -120c-13 2 -24 8 -28 18zM83 373c55 258 173 357 340 357s248 -119 192 -378c-55 -259 -167 -362 -335 -362s-252 124 -197 383zM563 360
c51 239 -23 325 -144 325c-131 0 -233 -86 -284 -325c-50 -238 32 -325 145 -325c131 0 233 87 283 325z" />
    <glyph glyph-name="Omacron" unicode="&#x14c;" horiz-adv-x="676" 
d="M317 845h270c2 -11 -2 -28 -9 -40h-270c-2 14 2 27 9 40zM83 373c55 258 173 357 340 357s248 -119 192 -378c-55 -259 -167 -362 -335 -362s-252 124 -197 383zM563 360c51 239 -23 325 -144 325c-131 0 -233 -86 -284 -325c-50 -238 32 -325 145 -325
c131 0 233 87 283 325z" />
    <glyph glyph-name="Omega" unicode="&#x2126;" horiz-adv-x="715" 
d="M95 380c52 246 187 350 353 350s257 -104 205 -350c-42 -197 -203 -315 -223 -333h165c1 -8 2 -15 0 -23c-2 -9 -7 -17 -10 -24h-231c-5 14 -1 35 11 50c59 42 195 154 233 330c44 210 -24 305 -159 305s-245 -95 -289 -305c-38 -176 52 -288 93 -330
c3 -15 -1 -34 -11 -50h-231c-2 7 -2 15 0 23c2 9 4 17 10 24h165c-13 18 -123 136 -81 333z" />
    <glyph glyph-name="Oslash" unicode="&#xd8;" horiz-adv-x="675" 
d="M663 743l-70 -89c42 -62 52 -161 22 -302c-55 -259 -167 -362 -335 -362c-67 0 -121 20 -158 60l-74 -95c-14 3 -27 9 -35 20l85 109c-35 64 -43 159 -15 289c55 258 173 357 340 357c59 0 107 -15 142 -45l61 79c15 -3 28 -11 37 -21zM419 685
c-131 0 -233 -86 -284 -325c-21 -102 -19 -176 0 -227l398 511c-29 28 -68 41 -114 41zM280 35c131 0 233 87 283 325c25 116 20 196 -5 248l-402 -515c29 -41 73 -58 124 -58z" />
    <glyph glyph-name="Oslashacute" unicode="&#x1fe;" horiz-adv-x="675" 
d="M565 900l-163 -134c-16 3 -24 10 -27 21l150 140c20 -1 35 -11 40 -27zM663 743l-70 -89c42 -62 52 -161 22 -302c-55 -259 -167 -362 -335 -362c-67 0 -121 20 -158 60l-74 -95c-14 3 -27 9 -35 20l85 109c-35 64 -43 159 -15 289c55 258 173 357 340 357
c59 0 107 -15 142 -45l61 79c15 -3 28 -11 37 -21zM419 685c-131 0 -233 -86 -284 -325c-21 -102 -19 -176 0 -227l398 511c-29 28 -68 41 -114 41zM280 35c131 0 233 87 283 325c25 116 20 196 -5 248l-402 -515c29 -41 73 -58 124 -58z" />
    <glyph glyph-name="Otilde" unicode="&#xd5;" horiz-adv-x="676" 
d="M508 830c30 1 50 29 50 29c10 -3 17 -12 18 -23c0 0 -16 -44 -70 -46c-49 -2 -73 33 -112 32c-30 -1 -49 -29 -49 -29c-11 6 -17 12 -19 23c0 0 16 43 70 45c51 2 74 -32 112 -31zM83 373c55 258 173 357 340 357s248 -119 192 -378c-55 -259 -167 -362 -335 -362
s-252 124 -197 383zM563 360c51 239 -23 325 -144 325c-131 0 -233 -86 -284 -325c-50 -238 32 -325 145 -325c131 0 233 87 283 325z" />
    <glyph glyph-name="P" unicode="P" horiz-adv-x="599" 
d="M155 301l-63 -297s-9 -4 -26 -4c-19 0 -26 4 -26 4l152 716h247c126 0 178 -95 151 -220c-26 -124 -114 -199 -240 -199h-195zM165 348h193c94 0 160 62 181 161c22 103 -18 165 -112 165h-193z" />
    <glyph glyph-name="Q" unicode="Q" horiz-adv-x="676" 
d="M423 730c167 0 248 -119 192 -378c-33 -157 -87 -256 -162 -310c29 -35 73 -57 110 -67c-6 -19 -21 -36 -40 -45c-44 12 -89 46 -113 86c-39 -18 -82 -26 -130 -26c-168 0 -252 124 -197 383c55 258 173 357 340 357zM419 685c-131 0 -233 -86 -284 -325
c-50 -238 32 -325 145 -325c131 0 233 87 283 325c51 239 -23 325 -144 325z" />
    <glyph glyph-name="R" unicode="R" horiz-adv-x="620" 
d="M192 720h241c126 0 182 -91 156 -211c-21 -101 -89 -164 -186 -184l105 -321s-11 -4 -31 -4c-19 0 -30 4 -30 4l-101 315h-187l-67 -315s-9 -4 -26 -4c-19 0 -26 4 -26 4zM234 674l-65 -309h188c90 0 159 57 179 154c21 98 -24 155 -114 155h-188z" />
    <glyph glyph-name="Racute" unicode="&#x154;" horiz-adv-x="620" 
d="M322 776l142 148c20 1 36 -9 42 -23l-155 -144c-16 2 -25 9 -29 19zM192 720h241c126 0 182 -91 156 -211c-21 -101 -89 -164 -186 -184l105 -321s-11 -4 -31 -4c-19 0 -30 4 -30 4l-101 315h-187l-67 -315s-9 -4 -26 -4c-19 0 -26 4 -26 4zM234 674l-65 -309h188
c90 0 159 57 179 154c21 98 -24 155 -114 155h-188z" />
    <glyph glyph-name="Rcaron" unicode="&#x158;" horiz-adv-x="620" 
d="M396 813l133 85c11 -3 21 -14 22 -27l-149 -104h-26l-106 104c7 14 13 23 27 28zM192 720h241c126 0 182 -91 156 -211c-21 -101 -89 -164 -186 -184l105 -321s-11 -4 -31 -4c-19 0 -30 4 -30 4l-101 315h-187l-67 -315s-9 -4 -26 -4c-19 0 -26 4 -26 4zM234 674
l-65 -309h188c90 0 159 57 179 154c21 98 -24 155 -114 155h-188z" />
    <glyph glyph-name="Rcommaaccent" unicode="&#x156;" horiz-adv-x="620" 
d="M234 -54c0 0 11 4 32 4s32 -4 32 -4l-9 -40c-17 -81 -80 -123 -80 -123l-19 16s37 30 53 87c-14 0 -21 4 -21 4zM192 720h241c126 0 182 -91 156 -211c-21 -101 -89 -164 -186 -184l105 -321s-11 -4 -31 -4c-19 0 -30 4 -30 4l-101 315h-187l-67 -315s-9 -4 -26 -4
c-19 0 -26 4 -26 4zM234 674l-65 -309h188c90 0 159 57 179 154c21 98 -24 155 -114 155h-188z" />
    <glyph glyph-name="S" unicode="S" horiz-adv-x="560" 
d="M118 548c25 118 118 182 267 182c112 0 179 -25 179 -25c-4 -16 -11 -31 -23 -42c0 0 -71 21 -159 21c-125 0 -196 -56 -214 -145c-22 -102 51 -126 149 -155c94 -28 188 -72 159 -209c-26 -123 -124 -185 -275 -185c-123 0 -195 38 -195 38c3 14 12 32 23 43
c0 0 82 -32 177 -32c120 0 200 51 220 147c22 101 -49 129 -131 153c-100 31 -207 68 -177 209z" />
    <glyph glyph-name="Sacute" unicode="&#x15a;" horiz-adv-x="560" 
d="M522 902l-148 -132c-15 2 -25 9 -28 20l134 136c19 1 36 -9 42 -24zM118 548c25 118 118 182 267 182c112 0 179 -25 179 -25c-4 -16 -11 -31 -23 -42c0 0 -71 21 -159 21c-125 0 -196 -56 -214 -145c-22 -102 51 -126 149 -155c94 -28 188 -72 159 -209
c-26 -123 -124 -185 -275 -185c-123 0 -195 38 -195 38c3 14 12 32 23 43c0 0 82 -32 177 -32c120 0 200 51 220 147c22 101 -49 129 -131 153c-100 31 -207 68 -177 209z" />
    <glyph glyph-name="Scaron" unicode="&#x160;" horiz-adv-x="560" 
d="M385 778l-106 103c7 14 14 23 28 28l99 -86l132 85c12 -3 21 -14 22 -27l-149 -103h-26zM118 548c25 118 118 182 267 182c112 0 179 -25 179 -25c-4 -16 -11 -31 -23 -42c0 0 -71 21 -159 21c-125 0 -196 -56 -214 -145c-22 -102 51 -126 149 -155
c94 -28 188 -72 159 -209c-26 -123 -124 -185 -275 -185c-123 0 -195 38 -195 38c3 14 12 32 23 43c0 0 82 -32 177 -32c120 0 200 51 220 147c22 101 -49 129 -131 153c-100 31 -207 68 -177 209z" />
    <glyph glyph-name="Scedilla" unicode="&#x15e;" horiz-adv-x="560" 
d="M118 548c25 118 118 182 267 182c112 0 179 -25 179 -25c-4 -16 -11 -31 -23 -42c0 0 -71 21 -159 21c-125 0 -196 -56 -214 -145c-22 -102 51 -126 149 -155c94 -28 188 -72 159 -209c-25 -117 -115 -179 -254 -185l-19 -48c78 0 102 -38 91 -93
c-14 -65 -60 -95 -135 -95c-52 0 -83 23 -83 23c3 13 10 22 20 28c2 -1 30 -17 70 -17c46 0 78 21 88 65c7 36 -12 56 -57 56h-32l-6 10l27 71c-114 3 -180 38 -180 38c3 14 12 32 23 43c0 0 82 -32 177 -32c120 0 200 51 220 147c22 101 -49 129 -131 153
c-100 31 -207 68 -177 209z" />
    <glyph glyph-name="Scircumflex" unicode="&#x15c;" horiz-adv-x="560" 
d="M432 904l105 -104c-5 -16 -13 -24 -26 -27l-99 85l-133 -86c-11 5 -21 14 -23 28l150 104h26zM118 548c25 118 118 182 267 182c112 0 179 -25 179 -25c-4 -16 -11 -31 -23 -42c0 0 -71 21 -159 21c-125 0 -196 -56 -214 -145c-22 -102 51 -126 149 -155
c94 -28 188 -72 159 -209c-26 -123 -124 -185 -275 -185c-123 0 -195 38 -195 38c3 14 12 32 23 43c0 0 82 -32 177 -32c120 0 200 51 220 147c22 101 -49 129 -131 153c-100 31 -207 68 -177 209z" />
    <glyph glyph-name="Scommaaccent" unicode="&#x218;" horiz-adv-x="560" 
d="M152 -223l-19 16s35 30 52 87c-15 0 -21 4 -21 4l12 56s12 4 33 4s30 -4 30 -4l-8 -40c-18 -81 -79 -123 -79 -123zM118 548c25 118 118 182 267 182c112 0 179 -25 179 -25c-4 -16 -11 -31 -23 -42c0 0 -71 21 -159 21c-125 0 -196 -56 -214 -145
c-22 -102 51 -126 149 -155c94 -28 188 -72 159 -209c-26 -123 -124 -185 -275 -185c-123 0 -195 38 -195 38c3 14 12 32 23 43c0 0 82 -32 177 -32c120 0 200 51 220 147c22 101 -49 129 -131 153c-100 31 -207 68 -177 209z" />
    <glyph glyph-name="T" unicode="T" horiz-adv-x="529" 
d="M120 720h463s2 -8 -1 -23c-3 -14 -9 -23 -9 -23h-203l-142 -670s-9 -4 -27 -4c-19 0 -25 4 -25 4l142 670h-208s-2 9 1 23s9 23 9 23z" />
    <glyph glyph-name="Tbar" unicode="&#x166;" horiz-adv-x="545" 
d="M311 363h131c1 -12 -2 -26 -8 -38h-131l-68 -321s-9 -4 -27 -4c-19 0 -25 4 -25 4l68 321h-132c0 13 3 26 8 38h132l66 311h-208s-2 9 1 23s9 23 9 23h463s2 -8 -1 -23c-3 -14 -9 -23 -9 -23h-203z" />
    <glyph glyph-name="Tcaron" unicode="&#x164;" horiz-adv-x="529" 
d="M352 767l-106 104c7 14 13 21 27 28l99 -86l133 85c11 -3 21 -14 22 -27l-149 -104h-26zM120 720h463s2 -8 -1 -23c-3 -14 -9 -23 -9 -23h-203l-142 -670s-9 -4 -27 -4c-19 0 -25 4 -25 4l142 670h-208s-2 9 1 23s9 23 9 23z" />
    <glyph glyph-name="Thorn" unicode="&#xde;" horiz-adv-x="604" 
d="M191 716c0 0 8 4 27 4s25 -4 25 -4l-30 -141h195c126 0 182 -94 156 -216c-26 -121 -116 -191 -242 -191h-195l-35 -164s-8 -4 -27 -4s-25 4 -25 4zM203 528l-66 -313h193c94 0 159 58 180 155c21 100 -20 158 -114 158h-193z" />
    <glyph glyph-name="U" unicode="U" horiz-adv-x="668" 
d="M658 716l-104 -488c-32 -153 -135 -238 -277 -238s-228 87 -196 238l104 488s10 4 27 4c18 0 26 -4 26 -4l-105 -495c-25 -118 28 -186 145 -186c116 0 199 68 224 186l105 495s9 4 26 4s25 -4 25 -4z" />
    <glyph glyph-name="Uacute" unicode="&#xda;" horiz-adv-x="668" 
d="M556 901l-155 -144c-16 2 -25 9 -29 19l142 148c20 1 36 -9 42 -23zM658 716l-104 -488c-32 -153 -135 -238 -277 -238s-228 87 -196 238l104 488s10 4 27 4c18 0 26 -4 26 -4l-105 -495c-25 -118 28 -186 145 -186c116 0 199 68 224 186l105 495s9 4 26 4s25 -4 25 -4z
" />
    <glyph glyph-name="Ubreve" unicode="&#x16c;" horiz-adv-x="668" 
d="M585 839c0 0 -49 -54 -141 -54c-93 0 -138 54 -138 54c6 12 16 21 31 26c0 0 37 -39 106 -39s122 39 122 39c13 -4 19 -13 20 -26zM658 716l-104 -488c-32 -153 -135 -238 -277 -238s-228 87 -196 238l104 488s10 4 27 4c18 0 26 -4 26 -4l-105 -495
c-25 -118 28 -186 145 -186c116 0 199 68 224 186l105 495s9 4 26 4s25 -4 25 -4z" />
    <glyph glyph-name="Ucircumflex" unicode="&#xdb;" horiz-adv-x="668" 
d="M477 899l105 -104c-7 -13 -13 -24 -26 -27l-99 85l-133 -86c-12 5 -22 14 -23 28l150 104h26zM658 716l-104 -488c-32 -153 -135 -238 -277 -238s-228 87 -196 238l104 488s10 4 27 4c18 0 26 -4 26 -4l-105 -495c-25 -118 28 -186 145 -186c116 0 199 68 224 186
l105 495s9 4 26 4s25 -4 25 -4z" />
    <glyph glyph-name="Udieresis" unicode="&#xdc;" horiz-adv-x="668" 
d="M402 839l-11 -53s-11 -4 -31 -4s-29 4 -29 4l11 53s11 3 31 3s29 -3 29 -3zM551 839l-11 -53s-11 -4 -31 -4s-29 4 -29 4l11 53s11 3 31 3s29 -3 29 -3zM658 716l-104 -488c-32 -153 -135 -238 -277 -238s-228 87 -196 238l104 488s10 4 27 4c18 0 26 -4 26 -4l-105 -495
c-25 -118 28 -186 145 -186c116 0 199 68 224 186l105 495s9 4 26 4s25 -4 25 -4z" />
    <glyph glyph-name="Ugrave" unicode="&#xd9;" horiz-adv-x="668" 
d="M439 764l-88 135c11 13 33 24 52 23l73 -139c-8 -11 -21 -17 -37 -19zM658 716l-104 -488c-32 -153 -135 -238 -277 -238s-228 87 -196 238l104 488s10 4 27 4c18 0 26 -4 26 -4l-105 -495c-25 -118 28 -186 145 -186c116 0 199 68 224 186l105 495s9 4 26 4s25 -4 25 -4
z" />
    <glyph glyph-name="Uhungarumlaut" unicode="&#x170;" horiz-adv-x="668" 
d="M498 896l-144 -133c-14 2 -23 8 -27 19l126 137c21 1 38 -9 45 -23zM647 896l-144 -133c-14 2 -24 8 -28 19l127 137c21 1 37 -9 45 -23zM658 716l-104 -488c-32 -153 -135 -238 -277 -238s-228 87 -196 238l104 488s10 4 27 4c18 0 26 -4 26 -4l-105 -495
c-25 -118 28 -186 145 -186c116 0 199 68 224 186l105 495s9 4 26 4s25 -4 25 -4z" />
    <glyph glyph-name="Umacron" unicode="&#x16a;" horiz-adv-x="668" 
d="M578 800h-274c-2 13 1 28 8 40h274c3 -11 -1 -28 -8 -40zM658 716l-104 -488c-32 -153 -135 -238 -277 -238s-228 87 -196 238l104 488s10 4 27 4c18 0 26 -4 26 -4l-105 -495c-25 -118 28 -186 145 -186c116 0 199 68 224 186l105 495s9 4 26 4s25 -4 25 -4z" />
    <glyph glyph-name="Uogonek" unicode="&#x172;" horiz-adv-x="668" 
d="M607 716c0 0 9 4 26 4s25 -4 25 -4l-104 -488c-24 -114 -83 -190 -175 -222c-41 -15 -77 -42 -86 -84c-7 -33 12 -50 44 -50c23 0 41 9 41 9c6 -6 7 -17 5 -28c0 0 -27 -17 -64 -17c-54 0 -79 34 -69 81c7 31 26 56 51 74l-24 -1c-142 0 -228 87 -196 238l104 488
s10 4 27 4c18 0 26 -4 26 -4l-105 -495c-25 -118 28 -186 145 -186c116 0 199 68 224 186z" />
    <glyph glyph-name="Uring" unicode="&#x16e;" horiz-adv-x="668" 
d="M436 767c-59 0 -108 43 -93 108c16 69 76 106 134 106c54 0 110 -41 95 -106c-16 -69 -73 -108 -136 -108zM533 875c8 37 -10 71 -62 71c-51 0 -81 -35 -89 -71c-8 -37 8 -72 59 -72c52 0 84 36 92 72zM658 716l-104 -488c-32 -153 -135 -238 -277 -238s-228 87 -196 238
l104 488s10 4 27 4c18 0 26 -4 26 -4l-105 -495c-25 -118 28 -186 145 -186c116 0 199 68 224 186l105 495s9 4 26 4s25 -4 25 -4z" />
    <glyph glyph-name="Utilde" unicode="&#x168;" horiz-adv-x="668" 
d="M503 821c29 0 48 27 48 27c11 -4 18 -13 19 -24c0 0 -17 -41 -70 -41c-48 0 -71 35 -110 35c-29 0 -49 -29 -49 -29c-11 5 -18 14 -19 24c0 0 18 43 72 43c50 0 70 -35 109 -35zM658 716l-104 -488c-32 -153 -135 -238 -277 -238s-228 87 -196 238l104 488s10 4 27 4
c18 0 26 -4 26 -4l-105 -495c-25 -118 28 -186 145 -186c116 0 199 68 224 186l105 495s9 4 26 4s25 -4 25 -4z" />
    <glyph glyph-name="V" unicode="V" horiz-adv-x="613" 
d="M162 716l85 -575c6 -42 5 -73 5 -73h3s12 31 36 72l329 576s9 4 30 4c19 0 26 -4 26 -4l-407 -712s-11 -4 -27 -4s-25 4 -25 4l-105 711s9 5 29 5c14 0 21 -4 21 -4z" />
    <glyph glyph-name="W" unicode="W" horiz-adv-x="947" 
d="M594 4l-42 545c-5 68 1 101 1 101h-3s-7 -34 -41 -101l-278 -545c-4 -1 -16 -4 -29 -4s-21 3 -25 4l-61 712s9 4 27 4c19 0 26 -4 26 -4l44 -546c5 -57 2 -103 2 -103h3s13 45 43 103l279 546s8 4 26 4s24 -4 24 -4l40 -546c4 -59 1 -103 1 -103h2s12 43 42 103l273 546
s9 4 29 4c16 0 24 -4 24 -4l-355 -712s-10 -4 -27 -4c-16 0 -25 4 -25 4z" />
    <glyph glyph-name="Wacute" unicode="&#x1e82;" horiz-adv-x="947" 
d="M686 901l-149 -137c-14 2 -25 8 -29 19l136 141c20 1 36 -9 42 -23zM594 4l-42 545c-5 68 1 101 1 101h-3s-7 -34 -41 -101l-278 -545c-4 -1 -16 -4 -29 -4s-21 3 -25 4l-61 712s9 4 27 4c19 0 26 -4 26 -4l44 -546c5 -57 2 -103 2 -103h3s13 45 43 103l279 546s8 4 26 4
s24 -4 24 -4l40 -546c4 -59 1 -103 1 -103h2s12 43 42 103l273 546s9 4 29 4c16 0 24 -4 24 -4l-355 -712s-10 -4 -27 -4c-16 0 -25 4 -25 4z" />
    <glyph glyph-name="Wcircumflex" unicode="&#x174;" horiz-adv-x="947" 
d="M617 899l105 -104c-7 -13 -14 -24 -27 -27l-99 85l-133 -86c-12 5 -21 14 -22 28l150 104h26zM594 4l-42 545c-5 68 1 101 1 101h-3s-7 -34 -41 -101l-278 -545c-4 -1 -16 -4 -29 -4s-21 3 -25 4l-61 712s9 4 27 4c19 0 26 -4 26 -4l44 -546c5 -57 2 -103 2 -103h3
s13 45 43 103l279 546s8 4 26 4s24 -4 24 -4l40 -546c4 -59 1 -103 1 -103h2s12 43 42 103l273 546s9 4 29 4c16 0 24 -4 24 -4l-355 -712s-10 -4 -27 -4c-16 0 -25 4 -25 4z" />
    <glyph glyph-name="Wdieresis" unicode="&#x1e84;" horiz-adv-x="947" 
d="M546 843l-11 -53s-11 -4 -31 -4s-29 4 -29 4l11 53s11 3 31 3s29 -3 29 -3zM695 843l-11 -53s-11 -4 -31 -4s-29 4 -29 4l11 53s11 3 31 3s29 -3 29 -3zM594 4l-42 545c-5 68 1 101 1 101h-3s-7 -34 -41 -101l-278 -545c-4 -1 -16 -4 -29 -4s-21 3 -25 4l-61 712
s9 4 27 4c19 0 26 -4 26 -4l44 -546c5 -57 2 -103 2 -103h3s13 45 43 103l279 546s8 4 26 4s24 -4 24 -4l40 -546c4 -59 1 -103 1 -103h2s12 43 42 103l273 546s9 4 29 4c16 0 24 -4 24 -4l-355 -712s-10 -4 -27 -4c-16 0 -25 4 -25 4z" />
    <glyph glyph-name="Wgrave" unicode="&#x1e80;" horiz-adv-x="947" 
d="M581 763l-89 136c11 13 33 24 52 23l74 -141c-8 -10 -21 -17 -37 -18zM594 4l-42 545c-5 68 1 101 1 101h-3s-7 -34 -41 -101l-278 -545c-4 -1 -16 -4 -29 -4s-21 3 -25 4l-61 712s9 4 27 4c19 0 26 -4 26 -4l44 -546c5 -57 2 -103 2 -103h3s13 45 43 103l279 546
s8 4 26 4s24 -4 24 -4l40 -546c4 -59 1 -103 1 -103h2s12 43 42 103l273 546s9 4 29 4c16 0 24 -4 24 -4l-355 -712s-10 -4 -27 -4c-16 0 -25 4 -25 4z" />
    <glyph glyph-name="X" unicode="X" horiz-adv-x="597" 
d="M580 716c4 1 20 4 36 4s25 -3 29 -4l-298 -344l158 -367s-12 -5 -33 -5c-15 0 -24 4 -24 4l-141 328l-275 -328c-4 -1 -22 -4 -37 -4c-16 0 -25 3 -29 4l308 366l-147 346s11 4 33 4c14 0 24 -4 24 -4l131 -308z" />
    <glyph glyph-name="Y" unicode="Y" horiz-adv-x="614" 
d="M619 716c0 0 10 4 34 4c21 0 30 -4 30 -4l-351 -412l-64 -300s-10 -4 -27 -4s-25 4 -25 4l63 299l-169 413s12 4 33 4c15 0 24 -4 24 -4l147 -357z" />
    <glyph glyph-name="Yacute" unicode="&#xdd;" horiz-adv-x="614" 
d="M354 776l142 148c20 1 36 -9 42 -23l-155 -144c-16 2 -25 9 -29 19zM619 716c0 0 10 4 34 4c21 0 30 -4 30 -4l-351 -412l-64 -300s-10 -4 -27 -4s-25 4 -25 4l63 299l-169 413s12 4 33 4c15 0 24 -4 24 -4l147 -357z" />
    <glyph glyph-name="Ycircumflex" unicode="&#x176;" horiz-adv-x="614" 
d="M454 899l105 -104c-7 -13 -13 -21 -27 -27l-98 85l-133 -86c-12 5 -22 14 -23 28l150 104h26zM619 716c0 0 10 4 34 4c21 0 30 -4 30 -4l-351 -412l-64 -300s-10 -4 -27 -4s-25 4 -25 4l63 299l-169 413s12 4 33 4c15 0 24 -4 24 -4l147 -357z" />
    <glyph glyph-name="Ydieresis" unicode="&#x178;" horiz-adv-x="614" 
d="M317 840c0 0 10 3 30 3s30 -3 30 -3l-12 -53s-11 -4 -31 -4s-29 4 -29 4zM466 840c0 0 10 3 30 3s30 -3 30 -3l-12 -53s-11 -4 -31 -4s-29 4 -29 4zM619 716c0 0 10 4 34 4c21 0 30 -4 30 -4l-351 -412l-64 -300s-10 -4 -27 -4s-25 4 -25 4l63 299l-169 413s12 4 33 4
c15 0 24 -4 24 -4l147 -357z" />
    <glyph glyph-name="Ygrave" unicode="&#x1ef2;" horiz-adv-x="614" 
d="M375 922l79 -148c-8 -10 -21 -17 -37 -19l-94 144c11 13 33 24 52 23zM619 716c0 0 10 4 34 4c21 0 30 -4 30 -4l-351 -412l-64 -300s-10 -4 -27 -4s-25 4 -25 4l63 299l-169 413s12 4 33 4c15 0 24 -4 24 -4l147 -357z" />
    <glyph glyph-name="Z" unicode="Z" horiz-adv-x="577" 
d="M160 720h445c0 -3 2 -11 -1 -23c-2 -12 -7 -21 -9 -25l-545 -624h425c1 -3 2 -11 -1 -24c-2 -12 -7 -20 -9 -24h-485c0 4 -1 12 1 24c3 12 7 20 9 24l545 624h-385c0 4 -2 12 1 25s7 20 9 23z" />
    <glyph glyph-name="Zacute" unicode="&#x179;" horiz-adv-x="577" 
d="M344 785l133 139c20 1 36 -9 42 -23l-146 -135c-15 2 -26 8 -29 19zM160 720h445c0 -3 2 -11 -1 -23c-2 -12 -7 -21 -9 -25l-545 -624h425c1 -3 2 -11 -1 -24c-2 -12 -7 -20 -9 -24h-485c0 4 -1 12 1 24c3 12 7 20 9 24l545 624h-385c0 4 -2 12 1 25s7 20 9 23z" />
    <glyph glyph-name="Zcaron" unicode="&#x17d;" horiz-adv-x="577" 
d="M398 813l135 87c11 -3 20 -16 21 -29l-149 -104h-26l-106 104c7 14 17 23 31 28zM160 720h445c0 -3 2 -11 -1 -23c-2 -12 -7 -21 -9 -25l-545 -624h425c1 -3 2 -11 -1 -24c-2 -12 -7 -20 -9 -24h-485c0 4 -1 12 1 24c3 12 7 20 9 24l545 624h-385c0 4 -2 12 1 25
s7 20 9 23z" />
    <glyph glyph-name="Zdotaccent" unicode="&#x17b;" horiz-adv-x="577" 
d="M375 842c0 0 10 4 31 4c20 0 29 -4 29 -4l-12 -54s-10 -4 -30 -4c-21 0 -30 4 -30 4zM160 720h445c0 -3 2 -11 -1 -23c-2 -12 -7 -21 -9 -25l-545 -624h425c1 -3 2 -11 -1 -24c-2 -12 -7 -20 -9 -24h-485c0 4 -1 12 1 24c3 12 7 20 9 24l545 624h-385c0 4 -2 12 1 25
s7 20 9 23z" />
    <glyph glyph-name="_0020" horiz-adv-x="0" 
 />
    <glyph glyph-name="_375" horiz-adv-x="646" 
d="M298 716c4 1 13 4 28 4s22 -3 26 -4l117 -685c-7 -13 -15 -23 -27 -31h-544c-8 8 -13 19 -12 31zM312 657h-2c-4 -7 -18 -40 -49 -90l-315 -521h467l-91 522c-10 46 -10 82 -10 89z" />
    <glyph glyph-name="_376" horiz-adv-x="700" 
d="M488 0h-231c-5 14 -1 35 11 50c59 42 195 154 233 330c44 210 -24 305 -159 305s-245 -95 -289 -305c-38 -176 52 -288 93 -330c3 -15 -1 -34 -11 -50h-231c-2 7 -2 15 0 23c2 9 4 17 10 24h165c-13 18 -123 136 -81 333c52 246 187 350 353 350s257 -104 205 -350
c-42 -197 -203 -315 -223 -333h165c1 -8 2 -15 0 -23c-2 -9 -7 -17 -10 -24z" />
    <glyph glyph-name="a" unicode="a" horiz-adv-x="554" 
d="M467 524c0 0 8 4 23 4c18 0 23 -4 23 -4l-110 -520s-9 -4 -22 -4s-21 4 -21 4l13 77c-42 -55 -103 -91 -184 -91c-117 0 -177 79 -134 283s133 263 250 263c77 0 122 -36 143 -91zM421 327c16 78 -20 165 -114 165c-108 0 -167 -64 -202 -229s-5 -229 103 -229
c94 0 170 87 186 166z" />
    <glyph glyph-name="aacute" unicode="&#xe1;" horiz-adv-x="554" 
d="M267 627l143 148c19 1 36 -9 42 -23l-156 -144c-15 2 -25 9 -29 19zM467 524c0 0 8 4 23 4c18 0 23 -4 23 -4l-110 -520s-9 -4 -22 -4s-21 4 -21 4l13 77c-42 -55 -103 -91 -184 -91c-117 0 -177 79 -134 283s133 263 250 263c77 0 122 -36 143 -91zM421 327
c16 78 -20 165 -114 165c-108 0 -167 -64 -202 -229s-5 -229 103 -229c94 0 170 87 186 166z" />
    <glyph glyph-name="abreve" unicode="&#x103;" horiz-adv-x="554" 
d="M357 671c67 0 119 40 119 40c12 -5 18 -16 19 -30c0 0 -48 -53 -138 -53s-133 56 -133 56c7 13 16 22 30 27c0 0 36 -40 103 -40zM467 524c0 0 8 4 23 4c18 0 23 -4 23 -4l-110 -520s-9 -4 -22 -4s-21 4 -21 4l13 77c-42 -55 -103 -91 -184 -91c-117 0 -177 79 -134 283
s133 263 250 263c77 0 122 -36 143 -91zM421 327c16 78 -20 165 -114 165c-108 0 -167 -64 -202 -229s-5 -229 103 -229c94 0 170 87 186 166z" />
    <glyph glyph-name="acircumflex" unicode="&#xe2;" horiz-adv-x="554" 
d="M382 730l103 -103c-6 -11 -16 -22 -29 -25l-92 83l-132 -84c-12 5 -20 14 -22 26l147 103h25zM467 524c0 0 8 4 23 4c18 0 23 -4 23 -4l-110 -520s-9 -4 -22 -4s-21 4 -21 4l13 77c-42 -55 -103 -91 -184 -91c-117 0 -177 79 -134 283s133 263 250 263
c77 0 122 -36 143 -91zM421 327c16 78 -20 165 -114 165c-108 0 -167 -64 -202 -229s-5 -229 103 -229c94 0 170 87 186 166z" />
    <glyph glyph-name="acute" unicode="&#xb4;" horiz-adv-x="224" 
d="M202 785l-156 -144c-15 2 -25 9 -29 19l143 148c19 1 36 -9 42 -23z" />
    <glyph glyph-name="adieresis" unicode="&#xe4;" horiz-adv-x="554" 
d="M261 704c0 0 10 3 30 3s30 -3 30 -3l-12 -53s-11 -4 -31 -4s-29 4 -29 4zM410 704c0 0 10 3 30 3s30 -3 30 -3l-12 -53s-11 -4 -31 -4s-29 4 -29 4zM467 524c0 0 8 4 23 4c18 0 23 -4 23 -4l-110 -520s-9 -4 -22 -4s-21 4 -21 4l13 77c-42 -55 -103 -91 -184 -91
c-117 0 -177 79 -134 283s133 263 250 263c77 0 122 -36 143 -91zM421 327c16 78 -20 165 -114 165c-108 0 -167 -64 -202 -229s-5 -229 103 -229c94 0 170 87 186 166z" />
    <glyph glyph-name="ae" unicode="&#xe6;" horiz-adv-x="805" 
d="M631 536c113 0 154 -76 130 -188c-12 -54 -31 -93 -31 -93h-298c-25 -150 6 -220 100 -220c75 0 124 36 124 36c10 -7 15 -21 12 -36c0 0 -55 -45 -152 -45c-70 0 -107 32 -122 85l-15 -71s-9 -4 -20 -4c-13 0 -21 4 -21 4l9 68c-41 -55 -89 -82 -163 -82
c-108 0 -172 80 -129 284s137 262 245 262c72 0 108 -24 128 -80l17 68s8 4 23 4c16 0 21 -4 21 -4l-14 -69c41 53 95 81 156 81zM441 296h255s9 18 17 58c16 74 1 139 -88 139c-76 0 -149 -53 -184 -197zM374 200l27 127c16 78 -11 165 -98 165c-99 0 -163 -64 -198 -229
s0 -229 99 -229c94 0 154 87 170 166z" />
    <glyph glyph-name="aeacute" unicode="&#x1fd;" horiz-adv-x="805" 
d="M604 752l-156 -144c-15 2 -25 9 -29 19l143 148c19 1 36 -9 42 -23zM631 536c113 0 154 -76 130 -188c-12 -54 -31 -93 -31 -93h-298c-25 -150 6 -220 100 -220c75 0 124 36 124 36c10 -7 15 -21 12 -36c0 0 -55 -45 -152 -45c-70 0 -107 32 -122 85l-15 -71
s-9 -4 -20 -4c-13 0 -21 4 -21 4l9 68c-41 -55 -89 -82 -163 -82c-108 0 -172 80 -129 284s137 262 245 262c72 0 108 -24 128 -80l17 68s8 4 23 4c16 0 21 -4 21 -4l-14 -69c41 53 95 81 156 81zM441 296h255s9 18 17 58c16 74 1 139 -88 139c-76 0 -149 -53 -184 -197z
M374 200l27 127c16 78 -11 165 -98 165c-99 0 -163 -64 -198 -229s0 -229 99 -229c94 0 154 87 170 166z" />
    <glyph glyph-name="agrave" unicode="&#xe0;" horiz-adv-x="554" 
d="M315 774l80 -148c-8 -10 -22 -17 -37 -19l-94 144c10 13 33 24 51 23zM467 524c0 0 8 4 23 4c18 0 23 -4 23 -4l-110 -520s-9 -4 -22 -4s-21 4 -21 4l13 77c-42 -55 -103 -91 -184 -91c-117 0 -177 79 -134 283s133 263 250 263c77 0 122 -36 143 -91zM421 327
c16 78 -20 165 -114 165c-108 0 -167 -64 -202 -229s-5 -229 103 -229c94 0 170 87 186 166z" />
    <glyph glyph-name="amacron" unicode="&#x101;" horiz-adv-x="554" 
d="M482 652h-249c-3 12 1 31 8 41h249c2 -12 -3 -30 -8 -41zM467 524c0 0 8 4 23 4c18 0 23 -4 23 -4l-110 -520s-9 -4 -22 -4s-21 4 -21 4l13 77c-42 -55 -103 -91 -184 -91c-117 0 -177 79 -134 283s133 263 250 263c77 0 122 -36 143 -91zM421 327
c16 78 -20 165 -114 165c-108 0 -167 -64 -202 -229s-5 -229 103 -229c94 0 170 87 186 166z" />
    <glyph glyph-name="ampersand" unicode="&#x26;" horiz-adv-x="632" 
d="M404 690c89 0 126 -56 112 -120c-22 -104 -118 -160 -248 -223c23 -76 71 -150 140 -211c49 46 82 100 103 144c18 1 35 -7 40 -19c-19 -41 -57 -96 -115 -150c33 -27 71 -49 113 -68c-3 -18 -17 -36 -31 -44c-47 20 -87 46 -124 75c-19 -16 -103 -84 -223 -84
c-96 0 -178 50 -152 170c24 113 138 177 193 202c-13 53 -14 106 -3 155c22 105 90 173 195 173zM391 650c-65 0 -114 -44 -132 -129c-10 -45 -10 -91 0 -137c110 52 189 100 206 179c11 53 -15 87 -74 87zM187 34c85 0 154 46 179 65c-71 65 -120 145 -145 227
c-45 -23 -130 -75 -148 -161c-17 -82 28 -131 114 -131z" />
    <glyph glyph-name="aogonek" unicode="&#x105;" horiz-adv-x="556" 
d="M352 -134c23 0 41 9 41 9c7 -6 8 -15 6 -26c0 0 -27 -17 -64 -17c-54 0 -80 26 -71 70c11 50 47 87 99 110l12 69c-42 -55 -103 -91 -184 -91c-117 0 -179 78 -136 282s135 264 252 264c79 0 122 -41 143 -91l19 79s8 4 23 4c18 0 23 -4 23 -4l-110 -520
c-62 -27 -89 -54 -98 -97c-6 -30 13 -41 45 -41zM396 200l27 127c16 78 -19 165 -113 165c-108 0 -168 -64 -203 -229s-4 -229 104 -229c94 0 169 87 185 166z" />
    <glyph glyph-name="approxequal" unicode="&#x2248;" horiz-adv-x="541" 
d="M203 370c-48 0 -84 -36 -84 -36c-14 3 -22 15 -22 29c0 0 43 52 119 52c66 0 83 -51 146 -51c48 0 84 36 84 36c15 -3 23 -13 24 -28c0 0 -42 -53 -121 -53c-66 0 -83 51 -146 51zM168 207c-48 0 -84 -36 -84 -36c-14 3 -22 15 -22 29c0 0 44 52 120 52
c66 0 83 -51 146 -51c48 0 83 36 83 36c16 -3 23 -14 24 -28c0 0 -42 -53 -121 -53c-66 0 -83 51 -146 51z" />
    <glyph glyph-name="aring" unicode="&#xe5;" horiz-adv-x="554" 
d="M254 697c14 63 73 97 127 97c53 0 100 -33 86 -97c-13 -63 -70 -98 -129 -98c-60 0 -97 35 -84 98zM429 697c7 34 -9 63 -56 63c-45 0 -74 -30 -81 -63s9 -64 54 -64c47 0 76 32 83 64zM467 524c0 0 8 4 23 4c18 0 23 -4 23 -4l-110 -520s-9 -4 -22 -4s-21 4 -21 4l13 77
c-42 -55 -103 -91 -184 -91c-117 0 -177 79 -134 283s133 263 250 263c77 0 122 -36 143 -91zM421 327c16 78 -20 165 -114 165c-108 0 -167 -64 -202 -229s-5 -229 103 -229c94 0 170 87 186 166z" />
    <glyph glyph-name="aringacute" unicode="&#x1fb;" horiz-adv-x="554" 
d="M332 820l127 110c18 1 34 -6 40 -17l-140 -106c-13 1 -22 6 -27 13zM253 680c14 63 74 95 128 95c53 0 101 -32 87 -95c-13 -62 -70 -96 -129 -96c-60 0 -99 34 -86 96zM430 680c7 32 -9 63 -57 63c-46 0 -75 -32 -82 -63c-6 -31 9 -63 55 -63c48 0 78 32 84 63zM467 524
c0 0 8 4 23 4c18 0 23 -4 23 -4l-110 -520s-9 -4 -22 -4s-21 4 -21 4l13 77c-42 -55 -103 -91 -184 -91c-117 0 -177 79 -134 283s133 263 250 263c77 0 122 -36 143 -91zM421 327c16 78 -20 165 -114 165c-108 0 -167 -64 -202 -229s-5 -229 103 -229c94 0 170 87 186 166z
" />
    <glyph glyph-name="arrowdown" unicode="&#x2193;" horiz-adv-x="488" 
d="M288 607c3 1 10 3 21 3s17 -2 19 -3l-95 -447l198 163c11 -4 18 -15 19 -26l-252 -208l-164 208c6 11 18 22 32 26l127 -163z" />
    <glyph glyph-name="arrowleft" unicode="&#x2190;" horiz-adv-x="619" 
d="M56 350l253 208c10 -4 19 -13 20 -26l-197 -162h447c0 -2 1 -9 -2 -20c-2 -11 -5 -18 -7 -20h-447l128 -163c-6 -12 -19 -22 -31 -25z" />
    <glyph glyph-name="arrowright" unicode="&#x2192;" horiz-adv-x="618" 
d="M581 350l-252 -208c-10 3 -18 13 -21 25l198 163h-447c0 2 -1 9 1 20c3 11 6 18 8 20h447l-129 162c8 13 20 22 32 26z" />
    <glyph glyph-name="arrowup" unicode="&#x2191;" horiz-adv-x="487" 
d="M310 610l163 -208c-5 -11 -17 -21 -30 -26l-128 163l-95 -447c-3 -1 -10 -3 -21 -3s-17 2 -19 3l95 447l-197 -163c-12 5 -19 15 -21 26z" />
    <glyph glyph-name="asciicircum" unicode="^" horiz-adv-x="510" 
d="M369 716l120 -260s-7 -4 -25 -4s-25 4 -25 4l-104 224l-197 -224s-8 -4 -26 -4s-23 4 -23 4l230 260s8 4 26 4s24 -4 24 -4z" />
    <glyph glyph-name="asciitilde" unicode="~" horiz-adv-x="540" 
d="M187 303c-48 0 -83 -36 -83 -36c-15 3 -22 15 -22 29c0 0 43 52 119 52c66 0 83 -51 146 -51c48 0 84 36 84 36c15 -3 23 -13 24 -28c0 0 -42 -53 -121 -53c-66 0 -84 51 -147 51z" />
    <glyph glyph-name="asterisk" unicode="*" horiz-adv-x="345" 
d="M219 616l18 87c12 4 24 4 33 0l-18 -87l90 28c6 -8 6 -19 3 -32l-91 -27l39 -74c-8 -7 -20 -15 -30 -18l-39 72l-67 -73c-11 3 -19 11 -24 18l69 75l-78 27c3 13 8 24 17 32z" />
    <glyph glyph-name="at" unicode="@" horiz-adv-x="915" 
d="M845 303c-28 -135 -106 -218 -214 -218c-51 0 -85 22 -90 71c-30 -41 -76 -71 -144 -71c-87 0 -149 49 -118 193c31 146 113 194 200 194c61 0 94 -24 109 -58l12 55s8 4 22 4s23 -4 23 -4l-53 -249c-15 -69 4 -98 49 -98c63 0 133 52 160 181c44 204 -52 340 -268 340
c-203 0 -379 -139 -427 -364c-52 -248 85 -356 267 -356c109 0 213 37 294 84c11 -5 16 -15 13 -29c-103 -65 -214 -94 -325 -94c-203 0 -351 129 -295 395c53 247 253 401 480 401c247 0 353 -155 305 -377zM328 278c-26 -124 24 -157 89 -157c68 0 118 53 131 107l21 98
c12 55 -15 110 -85 110c-65 0 -128 -28 -156 -158z" />
    <glyph glyph-name="atilde" unicode="&#xe3;" horiz-adv-x="554" 
d="M234 665c6 6 27 43 72 43c51 0 71 -35 110 -35c28 0 43 17 50 26c11 -3 17 -13 17 -24c-3 -6 -25 -41 -69 -41c-51 0 -73 35 -111 35c-29 0 -51 -28 -51 -28c-12 6 -16 13 -18 24zM467 524c0 0 8 4 23 4c18 0 23 -4 23 -4l-110 -520s-9 -4 -22 -4s-21 4 -21 4l13 77
c-42 -55 -103 -91 -184 -91c-117 0 -177 79 -134 283s133 263 250 263c77 0 122 -36 143 -91zM421 327c16 78 -20 165 -114 165c-108 0 -167 -64 -202 -229s-5 -229 103 -229c94 0 170 87 186 166z" />
    <glyph glyph-name="b" unicode="b" horiz-adv-x="557" 
d="M231 746l-64 -298c42 54 99 88 180 88c120 0 179 -78 136 -282s-132 -264 -252 -264c-81 0 -125 38 -143 88l-16 -74s-8 -4 -25 -4c-18 0 -24 4 -24 4l158 742s7 4 25 4s25 -4 25 -4zM431 263c35 165 6 229 -105 229c-88 0 -165 -84 -184 -161l-28 -131
c-16 -79 20 -166 111 -166c111 0 171 64 206 229z" />
    <glyph glyph-name="backslash" unicode="\" horiz-adv-x="436" 
d="M171 745l169 -787s-10 -5 -28 -5s-27 5 -27 5l-169 787s10 5 28 5c19 0 27 -5 27 -5z" />
    <glyph glyph-name="bar" unicode="|" horiz-adv-x="254" 
d="M204 786c0 0 8 4 26 4s24 -4 24 -4l-208 -979s-8 -4 -26 -4s-24 4 -24 4z" />
    <glyph glyph-name="braceleft" unicode="{" horiz-adv-x="340" 
d="M358 810h48c0 -3 2 -11 -1 -22c-2 -11 -7 -19 -8 -22h-39c-65 0 -99 -33 -112 -91l-53 -250c-9 -44 -22 -72 -52 -90c22 -18 23 -47 14 -91l-53 -250c-13 -58 7 -91 72 -91h39c1 -3 2 -9 0 -22c-3 -13 -7 -19 -9 -22h-48c-89 0 -122 53 -105 133l58 270
c5 27 -2 50 -32 50h-33c0 3 -1 11 1 22c3 12 7 20 9 23h33c30 0 47 23 52 50l58 270c17 80 72 133 161 133z" />
    <glyph glyph-name="braceright" unicode="}" horiz-adv-x="339" 
d="M147 810h48c89 0 122 -53 105 -133l-58 -270c-5 -27 2 -50 32 -50h33c0 -3 2 -11 -1 -22c-2 -12 -7 -20 -9 -23h-33c-30 0 -47 -23 -52 -50l-58 -270c-17 -80 -72 -133 -161 -133h-48c0 3 -1 10 2 22c2 11 6 19 7 22h39c66 0 99 33 112 91l53 250c9 44 22 72 52 90
c-22 18 -23 47 -14 91l53 250c13 58 -6 91 -72 91h-39c0 3 -1 9 1 21c3 14 6 20 8 23z" />
    <glyph glyph-name="bracketleft" unicode="[" horiz-adv-x="316" 
d="M209 810h173s3 -7 -1 -23c-3 -16 -9 -23 -9 -23h-123l-188 -888h123s2 -8 -1 -23c-4 -16 -9 -23 -9 -23h-173z" />
    <glyph glyph-name="bracketright" unicode="]" horiz-adv-x="316" 
d="M113 -170h-173s-3 7 1 23c3 15 9 23 9 23h123l188 888h-123s-2 7 1 23c4 16 9 23 9 23h173z" />
    <glyph glyph-name="breve" unicode="&#x2d8;" horiz-adv-x="324" 
d="M286 678c0 0 -57 -56 -147 -56s-123 56 -123 56c7 13 16 22 30 27c0 0 35 -40 102 -40s120 40 120 40c13 -4 18 -13 18 -27z" />
    <glyph glyph-name="brokenbar" unicode="&#xa6;" horiz-adv-x="256" 
d="M183 689c0 0 9 4 27 4s25 -4 25 -4l-164 -775s-9 -4 -27 -4s-25 4 -25 4z" />
    <glyph glyph-name="bullet" unicode="&#x2022;" horiz-adv-x="299" 
d="M189 282c-6 -27 -28 -44 -54 -44c-25 0 -42 17 -36 44c6 28 29 45 54 45c26 0 42 -17 36 -45z" />
    <glyph glyph-name="c" unicode="c" horiz-adv-x="442" 
d="M318 491c-116 0 -184 -75 -216 -226c-33 -153 7 -228 124 -228c61 0 102 21 102 21c10 -7 16 -23 14 -39c0 0 -48 -29 -133 -29c-135 0 -193 107 -155 285s129 261 264 261c81 0 116 -24 116 -24c-3 -15 -12 -30 -26 -39c0 0 -32 18 -90 18z" />
    <glyph glyph-name="cacute" unicode="&#x107;" horiz-adv-x="442" 
d="M437 752l-156 -146c-15 2 -26 14 -30 24l144 145c19 1 36 -9 42 -23zM318 491c-116 0 -184 -75 -216 -226c-33 -153 7 -228 124 -228c61 0 102 21 102 21c10 -7 16 -23 14 -39c0 0 -48 -29 -133 -29c-135 0 -193 107 -155 285s129 261 264 261c81 0 116 -24 116 -24
c-3 -15 -12 -30 -26 -39c0 0 -32 18 -90 18z" />
    <glyph glyph-name="caron" unicode="&#x2c7;" horiz-adv-x="404" 
d="M149 550l-106 104c7 14 17 23 31 28l99 -86l133 85c11 -3 17 -14 18 -27l-149 -104h-26z" />
    <glyph glyph-name="ccaron" unicode="&#x10d;" horiz-adv-x="442" 
d="M318 602l-98 96c7 13 13 20 26 25l90 -79l122 78c11 -3 19 -12 20 -24l-137 -96h-23zM318 491c-116 0 -184 -75 -216 -226c-33 -153 7 -228 124 -228c61 0 102 21 102 21c10 -7 16 -23 14 -39c0 0 -48 -29 -133 -29c-135 0 -193 107 -155 285s129 261 264 261
c81 0 116 -24 116 -24c-3 -15 -12 -30 -26 -39c0 0 -32 18 -90 18z" />
    <glyph glyph-name="ccedilla" unicode="&#xe7;" horiz-adv-x="442" 
d="M54 275c38 178 129 261 264 261c81 0 116 -24 116 -24c-3 -15 -12 -30 -26 -39c0 0 -32 18 -90 18c-116 0 -184 -75 -216 -226c-33 -153 7 -228 124 -228c61 0 102 21 102 21c10 -7 16 -23 14 -39c0 0 -47 -28 -130 -29l-20 -51c78 0 103 -36 92 -90
c-14 -64 -58 -88 -133 -88c-52 0 -83 23 -83 23c4 13 11 22 20 28c3 -1 30 -17 70 -17c46 0 78 15 87 59c8 36 -13 54 -58 54h-32l-5 10l27 74c-112 16 -158 120 -123 283z" />
    <glyph glyph-name="ccircumflex" unicode="&#x109;" horiz-adv-x="442" 
d="M362 733l103 -102c-6 -12 -17 -23 -29 -26l-93 83l-133 -83c-13 4 -18 13 -19 26l146 102h25zM318 491c-116 0 -184 -75 -216 -226c-33 -153 7 -228 124 -228c61 0 102 21 102 21c10 -7 16 -23 14 -39c0 0 -48 -29 -133 -29c-135 0 -193 107 -155 285s129 261 264 261
c81 0 116 -24 116 -24c-3 -15 -12 -30 -26 -39c0 0 -32 18 -90 18z" />
    <glyph glyph-name="cdotaccent" unicode="&#x10b;" horiz-adv-x="442" 
d="M374 703l-11 -54s-12 -4 -32 -4s-29 4 -29 4l11 54s11 4 31 4s30 -4 30 -4zM318 491c-116 0 -184 -75 -216 -226c-33 -153 7 -228 124 -228c61 0 102 21 102 21c10 -7 16 -23 14 -39c0 0 -48 -29 -133 -29c-135 0 -193 107 -155 285s129 261 264 261
c81 0 116 -24 116 -24c-3 -15 -12 -30 -26 -39c0 0 -32 18 -90 18z" />
    <glyph glyph-name="cedilla" unicode="&#xb8;" horiz-adv-x="296" 
d="M-26 42l33 -5l-25 -63c78 0 104 -35 92 -90c-14 -65 -61 -98 -136 -98c-52 0 -83 23 -83 23c4 13 11 22 20 28c3 -1 31 -17 71 -17c46 0 78 21 88 65c7 36 -13 56 -58 56h-32l-5 10z" />
    <glyph glyph-name="cent" unicode="&#xa2;" horiz-adv-x="460" 
d="M315 627c6 2 15 4 26 4s20 -2 23 -4l-24 -91c69 -3 100 -24 100 -24c-3 -15 -11 -29 -25 -38c0 0 -32 18 -90 18c-116 0 -185 -78 -217 -229c-33 -153 7 -227 124 -227c61 0 104 21 104 21c10 -7 12 -22 10 -38c0 0 -48 -26 -122 -29l-15 -91c-5 -2 -15 -5 -26 -5
c-10 0 -19 3 -23 5l25 92c-119 10 -165 104 -129 272s122 262 245 272z" />
    <glyph glyph-name="circumflex" unicode="&#x2c6;" horiz-adv-x="396" 
d="M205 693l105 -105c-7 -12 -17 -23 -30 -26l-99 85l-133 -86c-12 5 -18 14 -19 27l150 105h26z" />
    <glyph glyph-name="colon" unicode=":" horiz-adv-x="224" 
d="M176 455l-12 -56s-12 -4 -33 -4s-31 4 -31 4l12 56s12 4 33 4s31 -4 31 -4zM92 60l-12 -56s-12 -4 -33 -4s-31 4 -31 4l12 56s12 4 33 4s31 -4 31 -4z" />
    <glyph glyph-name="comma" unicode="," horiz-adv-x="220" 
d="M5 -102l-19 15s37 30 53 87c-14 0 -21 4 -21 4l12 56s12 4 33 4s31 -4 31 -4l-9 -40c-17 -81 -80 -122 -80 -122z" />
    <glyph glyph-name="commaaccentcomb" unicode="&#xf6c3;" horiz-adv-x="0" 
d="M-107 -102l-19 15s37 30 53 87c-14 0 -21 4 -21 4l12 56s12 4 33 4s31 -4 31 -4l-9 -40c-17 -81 -80 -122 -80 -122z" />
    <glyph glyph-name="commaaccentcomb.alt" horiz-adv-x="0" 
d="M101 720l18 -16s-37 -29 -54 -87c16 -1 23 -3 23 -3l-12 -57s-11 -4 -32 -4s-32 4 -32 4l9 41c17 80 80 122 80 122z" />
    <glyph glyph-name="copyright" unicode="&#xa9;" horiz-adv-x="806" 
d="M339 2c-187 0 -306 151 -266 338s223 337 410 337s305 -150 265 -337s-222 -338 -409 -338zM475 639c-165 0 -329 -134 -364 -299s71 -300 236 -300s328 135 363 300s-70 299 -235 299zM372 147c-113 0 -154 72 -127 200c28 131 99 199 212 199c66 0 96 -22 96 -22
c-2 -12 -10 -23 -21 -31c0 0 -34 18 -77 18c-90 0 -142 -46 -167 -164c-24 -111 10 -163 97 -163c47 0 89 16 89 16c10 -6 11 -18 9 -30c0 0 -42 -23 -111 -23z" />
    <glyph glyph-name="currency" unicode="&#xa4;" horiz-adv-x="588" 
d="M436 46l-60 74c-38 -26 -84 -43 -130 -43c-47 0 -85 17 -113 43l-89 -74s-8 0 -17 11c-8 10 -6 18 -6 18l90 74c-19 33 -27 75 -17 122c9 46 35 89 69 122l-59 74s3 9 14 19c14 10 21 10 21 10l61 -74c38 26 83 43 129 43c45 0 83 -17 111 -43l88 74s8 0 17 -10
c8 -10 7 -19 7 -19l-89 -74c20 -34 28 -76 19 -122c-10 -47 -36 -89 -70 -122l59 -74s-3 -9 -14 -18c-13 -12 -21 -11 -21 -11zM320 424c-85 0 -167 -67 -185 -153c-19 -86 35 -153 120 -153c86 0 167 67 186 153c18 86 -35 153 -121 153z" />
    <glyph glyph-name="d" unicode="d" horiz-adv-x="554" 
d="M511 746c0 0 7 4 25 4s25 -4 25 -4l-158 -742s-9 -4 -22 -4s-21 4 -21 4l13 77c-42 -55 -94 -91 -177 -91c-120 0 -184 78 -141 282s137 264 250 264c81 0 124 -39 142 -88zM421 327c16 78 -14 165 -110 165c-106 0 -171 -64 -206 -229s-3 -229 108 -229
c96 0 165 87 181 166z" />
    <glyph glyph-name="dagger" unicode="&#x2020;" horiz-adv-x="574" 
d="M196 -127l-21 18l123 545l-238 -6s-2 9 1 23c3 15 9 22 9 22l235 -6l41 229s10 3 26 3c15 0 23 -3 23 -3l-55 -229l236 6s2 -8 -1 -22s-9 -23 -9 -23l-233 6l-109 -545z" />
    <glyph glyph-name="daggerdbl" unicode="&#x2021;" horiz-adv-x="631" 
d="M298 142l238 7s1 -7 -2 -23c-4 -16 -8 -22 -8 -22l-234 7l-42 -230s-9 -3 -26 -3s-23 3 -23 3l56 230l-237 -7s-2 7 1 22c3 16 9 23 9 23l233 -7l24 147l39 147l-238 -6s-1 7 2 23c4 16 8 22 8 22l235 -6l41 229s9 3 26 3s23 -3 23 -3l-55 -229l236 6s2 -7 -1 -22
c-3 -16 -9 -23 -9 -23l-233 6l-25 -147z" />
    <glyph glyph-name="dcaron" unicode="&#x10f;" horiz-adv-x="566" 
d="M584 599c51 41 74 89 83 150c20 5 37 3 46 -4c-11 -59 -51 -127 -106 -160c-12 1 -19 6 -23 14zM511 746c0 0 7 4 25 4s25 -4 25 -4l-158 -742s-9 -4 -22 -4s-21 4 -21 4l13 77c-42 -55 -94 -91 -177 -91c-120 0 -184 78 -141 282s137 264 250 264c81 0 124 -39 142 -88z
M421 327c16 78 -14 165 -110 165c-106 0 -171 -64 -206 -229s-3 -229 108 -229c96 0 165 87 181 166z" />
    <glyph glyph-name="dcroat" unicode="&#x111;" horiz-adv-x="555" 
d="M615 662c0 0 2 -5 -1 -18s-7 -18 -7 -18h-71l-132 -622s-9 -4 -22 -4s-21 4 -21 4l11 77c-42 -55 -99 -91 -182 -91c-120 0 -180 69 -137 273s133 273 253 273c81 0 124 -34 142 -88l38 178h-117s-2 5 1 18s7 18 7 18h117l18 84s7 4 25 4s25 -4 25 -4l-18 -84h71z
M395 200l27 127c16 78 -14 165 -110 165c-111 0 -171 -64 -206 -229s-3 -229 108 -229c96 0 165 87 181 166z" />
    <glyph glyph-name="degree" unicode="&#xb0;" horiz-adv-x="360" 
d="M122 617c13 59 68 121 149 121c80 0 106 -60 94 -118c-13 -59 -65 -119 -145 -119c-84 0 -110 58 -98 116zM334 619c9 46 -9 91 -70 91s-101 -47 -111 -92c-9 -45 9 -89 72 -89c61 0 99 44 109 90z" />
    <glyph glyph-name="dieresis" unicode="&#xa8;" horiz-adv-x="455" 
d="M168 668l-11 -53s-11 -4 -31 -4s-29 4 -29 4l11 53s11 3 31 3s29 -3 29 -3zM317 668l-11 -53s-11 -4 -31 -4s-29 4 -29 4l11 53s11 3 31 3s29 -3 29 -3z" />
    <glyph glyph-name="divide" unicode="&#xf7;" horiz-adv-x="559" 
d="M348 479l-12 -56s-12 -4 -33 -4s-31 4 -31 4l12 56s12 4 33 4s31 -4 31 -4zM465 269h-389s-2 7 1 21s8 21 8 21h389s3 -7 0 -21s-9 -21 -9 -21zM279 157l-12 -56s-11 -4 -32 -4s-32 4 -32 4l12 56s12 4 33 4s31 -4 31 -4z" />
    <glyph glyph-name="dollar" unicode="$" horiz-adv-x="560" 
d="M356 785c0 0 9 4 26 4c18 0 25 -4 25 -4l-31 -117c105 -1 163 -23 163 -23c-1 -4 -2 -12 -8 -22s-12 -15 -15 -18c0 0 -62 19 -149 19c-123 0 -193 -47 -210 -127c-41 -189 371 -73 319 -317c-22 -103 -110 -169 -242 -177l-21 -128s-7 -4 -25 -4s-26 4 -26 4l33 127
c-118 1 -188 34 -188 34c0 4 1 12 6 22s12 16 15 18c0 0 83 -27 178 -27c119 0 198 41 217 128c42 200 -371 79 -320 316c21 100 104 165 234 174z" />
    <glyph glyph-name="dotaccent" unicode="&#x2d9;" horiz-adv-x="176" 
d="M104 661l-11 -54s-11 -4 -31 -4c-21 0 -29 4 -29 4l11 54s10 4 31 4c20 0 29 -4 29 -4z" />
    <glyph glyph-name="dotlessi" unicode="&#x131;" horiz-adv-x="230" 
d="M186 522l-110 -518s-8 -4 -26 -4s-24 4 -24 4l110 518s8 4 26 4s24 -4 24 -4z" />
    <glyph glyph-name="dotlessj" unicode="&#x237;" horiz-adv-x="230" 
d="M5 -92l131 614s7 4 26 4c17 0 24 -4 24 -4l-130 -610c-23 -111 -85 -162 -169 -162c-42 0 -57 9 -57 9s-1 5 0 12c4 18 12 26 12 26s15 -4 42 -4c65 0 104 33 121 115z" />
    <glyph glyph-name="e" unicode="e" horiz-adv-x="505" 
d="M429 247h-330c-25 -142 14 -211 122 -211c79 0 136 38 136 38c9 -8 17 -23 14 -39c0 0 -57 -45 -162 -45c-136 0 -196 108 -154 289c40 174 136 257 256 257c117 0 173 -82 148 -194c-14 -62 -30 -95 -30 -95zM415 353c16 74 -13 140 -108 140c-91 0 -163 -62 -199 -205
h287c1 2 12 25 20 65z" />
    <glyph glyph-name="eacute" unicode="&#xe9;" horiz-adv-x="505" 
d="M444 752l-156 -144c-15 2 -25 9 -29 19l143 148c19 1 36 -9 42 -23zM429 247h-330c-25 -142 14 -211 122 -211c79 0 136 38 136 38c9 -8 17 -23 14 -39c0 0 -57 -45 -162 -45c-136 0 -196 108 -154 289c40 174 136 257 256 257c117 0 173 -82 148 -194
c-14 -62 -30 -95 -30 -95zM415 353c16 74 -13 140 -108 140c-91 0 -163 -62 -199 -205h287c1 2 12 25 20 65z" />
    <glyph glyph-name="ebreve" unicode="&#x115;" horiz-adv-x="505" 
d="M484 684c0 0 -49 -56 -139 -56s-133 56 -133 56c7 13 16 22 30 27c0 0 36 -40 103 -40s119 40 119 40c13 -4 20 -13 20 -27zM429 247h-330c-25 -142 14 -211 122 -211c79 0 136 38 136 38c9 -8 17 -23 14 -39c0 0 -57 -45 -162 -45c-136 0 -196 108 -154 289
c40 174 136 257 256 257c117 0 173 -82 148 -194c-14 -62 -30 -95 -30 -95zM415 353c16 74 -13 140 -108 140c-91 0 -163 -62 -199 -205h287c1 2 12 25 20 65z" />
    <glyph glyph-name="ecaron" unicode="&#x11b;" horiz-adv-x="505" 
d="M245 727l91 -82l127 81c11 -3 20 -13 21 -25l-142 -99h-25l-101 99c7 13 17 22 29 26zM429 247h-330c-25 -142 14 -211 122 -211c79 0 136 38 136 38c9 -8 17 -23 14 -39c0 0 -57 -45 -162 -45c-136 0 -196 108 -154 289c40 174 136 257 256 257c117 0 173 -82 148 -194
c-14 -62 -30 -95 -30 -95zM415 353c16 74 -13 140 -108 140c-91 0 -163 -62 -199 -205h287c1 2 12 25 20 65z" />
    <glyph glyph-name="ecircumflex" unicode="&#xea;" horiz-adv-x="505" 
d="M370 731l103 -103c-6 -11 -16 -22 -29 -25l-93 83l-129 -84c-12 5 -21 14 -23 26l146 103h25zM429 247h-330c-25 -142 14 -211 122 -211c79 0 136 38 136 38c9 -8 17 -23 14 -39c0 0 -57 -45 -162 -45c-136 0 -196 108 -154 289c40 174 136 257 256 257
c117 0 173 -82 148 -194c-14 -62 -30 -95 -30 -95zM415 353c16 74 -13 140 -108 140c-91 0 -163 -62 -199 -205h287c1 2 12 25 20 65z" />
    <glyph glyph-name="edieresis" unicode="&#xeb;" horiz-adv-x="505" 
d="M306 691l-11 -53s-11 -4 -31 -4s-29 4 -29 4l11 53s10 3 30 3s30 -3 30 -3zM455 691l-11 -53s-11 -4 -31 -4s-29 4 -29 4l11 53s10 3 30 3s30 -3 30 -3zM429 247h-330c-25 -142 14 -211 122 -211c79 0 136 38 136 38c9 -8 17 -23 14 -39c0 0 -57 -45 -162 -45
c-136 0 -196 108 -154 289c40 174 136 257 256 257c117 0 173 -82 148 -194c-14 -62 -30 -95 -30 -95zM415 353c16 74 -13 140 -108 140c-91 0 -163 -62 -199 -205h287c1 2 12 25 20 65z" />
    <glyph glyph-name="edotaccent" unicode="&#x117;" horiz-adv-x="505" 
d="M383 701l-12 -54s-10 -4 -30 -4c-21 0 -30 4 -30 4l12 54s10 4 31 4c20 0 29 -4 29 -4zM429 247h-330c-25 -142 14 -211 122 -211c79 0 136 38 136 38c9 -8 17 -23 14 -39c0 0 -57 -45 -162 -45c-136 0 -196 108 -154 289c40 174 136 257 256 257c117 0 173 -82 148 -194
c-14 -62 -30 -95 -30 -95zM415 353c16 74 -13 140 -108 140c-91 0 -163 -62 -199 -205h287c1 2 12 25 20 65z" />
    <glyph glyph-name="egrave" unicode="&#xe8;" horiz-adv-x="505" 
d="M352 608l-94 144c11 13 33 24 52 23l79 -148c-8 -10 -21 -17 -37 -19zM429 247h-330c-25 -142 14 -211 122 -211c79 0 136 38 136 38c9 -8 17 -23 14 -39c0 0 -57 -45 -162 -45c-136 0 -196 108 -154 289c40 174 136 257 256 257c117 0 173 -82 148 -194
c-14 -62 -30 -95 -30 -95zM415 353c16 74 -13 140 -108 140c-91 0 -163 -62 -199 -205h287c1 2 12 25 20 65z" />
    <glyph glyph-name="eight" unicode="8" horiz-adv-x="584" 
d="M372 690c123 0 186 -70 166 -171c-19 -96 -101 -147 -149 -172c67 -38 119 -95 98 -193c-22 -105 -116 -164 -265 -164c-143 0 -206 83 -185 181c24 113 131 172 182 199c-56 33 -98 86 -80 168c20 97 111 152 233 152zM190 533c-20 -95 67 -127 153 -166
c43 23 125 73 143 160c16 76 -33 120 -124 120s-157 -45 -172 -114zM235 34c111 0 185 55 201 129c23 108 -83 140 -174 184c-32 -16 -151 -80 -173 -183c-16 -74 27 -130 146 -130z" />
    <glyph glyph-name="eight.denom" horiz-adv-x="323" 
d="M45 265c11 49 55 83 126 83c66 0 101 -30 89 -83c-9 -44 -41 -72 -75 -90c33 -18 59 -42 49 -88c-12 -58 -63 -92 -137 -92c-71 0 -114 31 -101 91c11 50 50 81 87 100c-27 17 -46 39 -38 79zM225 263c8 36 -14 56 -61 56c-45 0 -75 -20 -82 -52c-10 -45 34 -60 78 -80
c33 19 58 43 65 76zM198 85c11 51 -45 66 -88 88c-20 -10 -68 -38 -78 -85c-10 -44 18 -63 72 -63c45 0 85 19 94 60z" />
    <glyph glyph-name="eight.num" horiz-adv-x="322" 
d="M118 611c10 49 54 83 125 83c66 0 101 -30 90 -83c-10 -44 -41 -72 -75 -90c33 -18 59 -42 49 -88c-12 -58 -64 -92 -138 -92c-71 0 -113 31 -100 91c10 50 50 81 87 100c-27 17 -47 39 -38 79zM297 609c8 36 -14 56 -61 56c-45 0 -75 -20 -82 -52c-9 -45 35 -60 78 -80
c33 19 58 43 65 76zM271 431c10 51 -45 66 -89 88c-20 -10 -68 -38 -78 -85c-9 -44 19 -63 73 -63c45 0 85 19 94 60z" />
    <glyph glyph-name="eightinferior" unicode="&#x2088;" horiz-adv-x="323" 
d="M25 169c10 49 55 83 126 83c66 0 100 -30 89 -83c-9 -44 -41 -72 -75 -90c33 -18 59 -42 49 -88c-12 -58 -64 -92 -138 -92c-71 0 -113 31 -100 91c10 50 50 81 87 100c-27 17 -47 39 -38 79zM204 167c8 36 -14 56 -61 56c-45 0 -75 -20 -82 -52c-9 -45 35 -60 78 -80
c33 19 58 43 65 76zM178 -11c10 51 -45 66 -89 88c-20 -10 -68 -38 -78 -85c-9 -44 19 -63 73 -63c45 0 85 19 94 60z" />
    <glyph glyph-name="ellipsis" unicode="&#x2026;" horiz-adv-x="546" 
d="M93 60l-12 -56s-12 -4 -33 -4s-31 4 -31 4l12 56s12 4 33 4s31 -4 31 -4zM256 60l-12 -56s-12 -4 -33 -4s-30 4 -30 4l12 56s11 4 32 4s31 -4 31 -4zM419 60l-12 -56s-12 -4 -33 -4s-30 4 -30 4l12 56s11 4 32 4s31 -4 31 -4z" />
    <glyph glyph-name="emacron" unicode="&#x113;" horiz-adv-x="505" 
d="M464 646h-241c-2 12 1 27 9 39h241c1 -11 -2 -29 -9 -39zM429 247h-330c-25 -142 14 -211 122 -211c79 0 136 38 136 38c9 -8 17 -23 14 -39c0 0 -57 -45 -162 -45c-136 0 -196 108 -154 289c40 174 136 257 256 257c117 0 173 -82 148 -194c-14 -62 -30 -95 -30 -95z
M415 353c16 74 -13 140 -108 140c-91 0 -163 -62 -199 -205h287c1 2 12 25 20 65z" />
    <glyph glyph-name="emdash" unicode="&#x2014;" horiz-adv-x="820" 
d="M720 269h-638s-2 7 1 21s8 21 8 21h638s3 -7 0 -21s-9 -21 -9 -21z" />
    <glyph glyph-name="endash" unicode="&#x2013;" horiz-adv-x="570" 
d="M470 269h-388s-2 7 1 21s8 21 8 21h388s3 -7 0 -21s-9 -21 -9 -21z" />
    <glyph glyph-name="eng" unicode="&#x14b;" horiz-adv-x="551" 
d="M167 445c54 57 110 91 187 91c95 0 148 -63 128 -159l-91 -429c-19 -91 -52 -147 -148 -176c-9 8 -12 22 -7 38c61 20 89 57 105 136l91 430c17 80 -16 117 -95 117c-63 0 -136 -42 -184 -113l-80 -376s-9 -4 -26 -4s-24 4 -24 4l110 518s9 4 26 4s24 -4 24 -4z" />
    <glyph glyph-name="eogonek" unicode="&#x119;" horiz-adv-x="503" 
d="M55 280c41 182 136 256 260 256c108 0 168 -76 144 -188c-13 -62 -33 -101 -33 -101h-328c-25 -152 16 -210 124 -210c79 0 134 37 134 37c9 -8 15 -23 12 -39c0 0 -30 -25 -92 -38c-52 -11 -96 -49 -107 -99c-7 -32 14 -40 46 -40c23 0 41 9 41 9c5 -6 7 -17 5 -28
c0 0 -28 -16 -64 -16c-54 0 -81 23 -71 70c8 38 35 76 71 97c-130 4 -182 112 -142 290zM410 354c16 74 -7 139 -102 139c-91 0 -165 -62 -201 -205h284c1 2 11 26 19 66z" />
    <glyph glyph-name="equal" unicode="=" horiz-adv-x="511" 
d="M433 354h-336c0 14 3 29 9 42h336c1 -14 -3 -29 -9 -42zM397 184h-336c-1 14 2 29 9 42h336c1 -13 -3 -28 -9 -42z" />
    <glyph glyph-name="estimated" unicode="&#x212e;" horiz-adv-x="814" 
d="M559 95h67c-78 -68 -174 -105 -276 -105c-194 0 -319 158 -277 352c41 194 232 352 426 352s319 -158 278 -352l-5 -24h-544l-47 -218c47 -41 109 -67 178 -67c68 0 138 24 200 62zM668 583c-45 43 -108 68 -178 68c-69 0 -142 -25 -206 -67l-47 -222h384z" />
    <glyph glyph-name="eth" unicode="&#xf0;" horiz-adv-x="554" 
d="M491 699l-72 -39c73 -76 101 -195 67 -353c-51 -242 -144 -317 -281 -317c-129 0 -192 85 -152 273c39 188 131 251 251 251c71 0 130 -38 148 -91c1 100 -23 159 -75 212l-117 -64c-11 7 -18 19 -17 31l103 58c-32 25 -73 43 -121 53c0 14 6 27 18 37
c59 -11 108 -33 148 -64l85 47c10 -7 16 -19 15 -34zM211 32c93 0 170 52 206 220s-33 219 -119 219c-94 0 -162 -51 -197 -219c-36 -168 17 -220 110 -220z" />
    <glyph glyph-name="exclam" unicode="!" horiz-adv-x="250" 
d="M76 164l109 552s2 4 28 4s26 -4 26 -4l-125 -552s-7 -5 -20 -5c-14 0 -18 5 -18 5zM103 60l-12 -56s-10 -4 -31 -4s-29 4 -29 4l12 56s10 4 31 4s29 -4 29 -4z" />
    <glyph glyph-name="exclamdown" unicode="&#xa1;" horiz-adv-x="239" 
d="M132 514c0 0 12 4 33 4s31 -4 31 -4l-12 -56s-12 -4 -33 -4s-31 4 -31 4zM111 354c0 0 6 5 20 5c13 0 18 -5 18 -5l-109 -552s-2 -4 -28 -4s-26 4 -26 4z" />
    <glyph glyph-name="f" unicode="f" horiz-adv-x="340" 
d="M167 586c20 97 65 164 185 164c54 0 92 -14 92 -14c-2 -15 -10 -30 -22 -40c0 0 -29 11 -73 11c-88 0 -116 -42 -131 -116l-14 -65h154c0 -3 2 -9 -1 -21c-2 -11 -7 -18 -8 -21h-154l-102 -480s-8 -4 -26 -4s-24 4 -24 4l102 480h-70c-1 3 -2 9 0 21c3 12 7 18 9 21h70z
" />
    <glyph glyph-name="five" unicode="5" horiz-adv-x="520" 
d="M217 633l-54 -252c2 0 37 6 82 6c158 0 215 -77 187 -208c-26 -126 -117 -189 -287 -189c-107 0 -148 27 -148 27c1 14 9 31 21 39c0 0 53 -21 130 -21c133 0 208 47 230 151c20 90 -6 156 -157 156c-56 0 -111 -9 -119 -10l73 348h333c3 -16 0 -32 -9 -47h-282z" />
    <glyph glyph-name="five.denom" horiz-adv-x="300" 
d="M99 310l-22 -104c101 0 157 -24 139 -107c-15 -72 -71 -104 -155 -104c-52 0 -85 15 -85 15c1 9 6 20 15 27c0 0 32 -11 73 -11c71 0 105 26 115 72c13 60 -24 76 -110 76h-34l36 169h178c2 -10 -1 -24 -7 -33h-143z" />
    <glyph glyph-name="five.num" horiz-adv-x="300" 
d="M172 656l-22 -104c101 0 157 -24 140 -107c-16 -72 -72 -104 -156 -104c-52 0 -84 15 -84 15c1 9 6 20 14 27c0 0 33 -11 74 -11c71 0 105 26 114 72c13 60 -24 76 -110 76h-34l36 169h178c2 -10 -1 -24 -7 -33h-143z" />
    <glyph glyph-name="fiveeighths" unicode="&#x215d;" horiz-adv-x="746" 
d="M628 698c0 0 7 4 21 4c13 0 17 -4 17 -4l-537 -705s-7 -3 -20 -3c-12 0 -19 3 -19 3zM157 689h178c2 -10 -1 -24 -7 -33h-143l-22 -104c101 0 157 -24 140 -107c-16 -72 -72 -104 -156 -104c-52 0 -84 15 -84 15c2 9 6 20 14 27c0 0 33 -11 74 -11c72 0 105 26 114 72
c13 60 -24 76 -110 76h-34zM463 265c11 49 54 83 125 83c66 0 101 -30 89 -83c-9 -44 -41 -72 -75 -90c33 -18 59 -42 49 -88c-12 -58 -63 -92 -137 -92c-70 0 -114 31 -101 91c11 50 50 81 87 100c-27 17 -45 39 -37 79zM642 263c8 36 -14 56 -61 56c-45 0 -75 -20 -82 -52
c-10 -45 34 -60 78 -80c33 19 58 43 65 76zM616 85c11 51 -46 66 -89 88c-20 -10 -68 -38 -78 -85c-10 -44 18 -63 72 -63c45 0 86 19 95 60z" />
    <glyph glyph-name="fiveinferior" unicode="&#x2085;" horiz-adv-x="300" 
d="M78 214l-22 -104c101 0 157 -24 140 -107c-16 -72 -72 -104 -156 -104c-52 0 -84 15 -84 15c1 9 6 20 14 27c0 0 33 -11 74 -11c71 0 105 26 114 72c13 60 -23 76 -109 76h-34l35 169h178c2 -10 -1 -24 -7 -33h-143z" />
    <glyph glyph-name="florin" unicode="&#x192;" horiz-adv-x="441" 
d="M255 414l-125 -402c-34 -106 -87 -153 -175 -153c-48 0 -82 19 -82 19c2 14 8 26 20 35c0 0 32 -11 68 -11c53 0 93 25 119 108l126 404h-95s-3 7 0 21c3 12 8 19 8 19h99l26 83c34 108 84 154 173 154c52 0 83 -17 83 -17c-3 -13 -9 -25 -20 -35c0 0 -32 11 -70 11
c-55 0 -91 -27 -116 -111l-27 -85h99s3 -7 0 -20s-8 -20 -8 -20h-103z" />
    <glyph glyph-name="four" unicode="4" horiz-adv-x="571" 
d="M24 225l428 451s8 4 27 4c18 0 25 -4 25 -4l-96 -451h102s2 -7 -1 -22s-9 -22 -9 -22h-102l-37 -177s-9 -4 -26 -4s-24 4 -24 4l37 177h-334s-2 7 1 22s9 22 9 22zM438 603l-358 -378h278z" />
    <glyph glyph-name="four.denom" horiz-adv-x="324" 
d="M206 124h42c1 -3 2 -8 0 -15c-2 -9 -5 -14 -6 -16h-42l-19 -90c-3 -1 -8 -3 -16 -3c-9 0 -15 2 -16 3l19 90h-180c-1 2 -2 6 -1 12c1 5 4 9 6 11l224 224c3 1 9 3 19 3c9 0 14 -2 16 -3zM211 295l-173 -171h136z" />
    <glyph glyph-name="four.num" horiz-adv-x="324" 
d="M280 470h42c0 -3 1 -8 0 -15c-2 -9 -5 -14 -7 -16h-42l-19 -90c-2 -1 -7 -3 -15 -3c-9 0 -15 2 -17 3l19 90h-180c0 2 -1 6 0 12c1 5 4 9 5 11l225 224c3 1 8 3 18 3c9 0 15 -2 17 -3zM284 641l-172 -171h136z" />
    <glyph glyph-name="fourinferior" unicode="&#x2084;" horiz-adv-x="324" 
d="M186 28h42c0 -3 1 -8 0 -15c-2 -9 -5 -14 -7 -16h-42l-19 -90c-2 -1 -7 -3 -15 -3c-9 0 -15 2 -17 3l19 90h-180c0 2 -1 6 0 12c1 5 4 9 5 11l225 224c3 1 8 3 18 3c9 0 15 -2 17 -3zM190 199l-172 -171h136z" />
    <glyph glyph-name="fraction" unicode="&#x2044;" horiz-adv-x="127" 
d="M-219 -5l536 703s9 4 25 4c15 0 21 -4 21 -4l-537 -703s-9 -5 -25 -5c-14 0 -20 5 -20 5z" />
    <glyph glyph-name="g" unicode="g" horiz-adv-x="555" 
d="M359 26l12 53c-40 -52 -89 -89 -175 -89c-120 0 -183 83 -140 287s133 259 249 259c86 0 124 -44 142 -90l16 76s8 4 26 4s25 -4 25 -4l-105 -496c-39 -184 -103 -276 -280 -276c-86 0 -135 27 -135 27c3 15 10 30 23 38c0 0 53 -20 117 -20c126 0 187 46 225 231z
M105 263c-35 -165 -3 -229 108 -229c105 0 165 98 180 161l29 135c12 64 -5 162 -111 162c-111 0 -171 -64 -206 -229z" />
    <glyph glyph-name="g.alt" horiz-adv-x="518" 
d="M134 210c-52 27 -70 91 -55 164c23 108 101 162 217 162c42 0 76 -9 101 -24l137 23c3 -14 -1 -32 -10 -47l-97 -7c20 -29 22 -78 11 -127c-22 -106 -97 -163 -215 -163c-22 0 -40 3 -56 7c-19 -18 -46 -54 -54 -91c-21 -111 330 3 287 -204c-18 -88 -107 -153 -269 -153
c-146 0 -193 76 -174 156c18 76 78 115 116 137c-12 13 -18 32 -13 58c10 43 36 78 74 109zM287 496c-78 0 -141 -44 -160 -132c-19 -89 26 -133 104 -133c79 0 141 44 160 133c19 88 -25 132 -104 132zM132 -208c118 0 204 46 218 116c25 117 -159 83 -246 117
c-51 -30 -89 -78 -99 -122c-14 -68 29 -111 127 -111z" />
    <glyph glyph-name="gbreve" unicode="&#x11f;" horiz-adv-x="555" 
d="M495 681c0 0 -49 -56 -139 -56s-131 56 -131 56c6 13 15 22 29 27c0 0 36 -40 103 -40s119 40 119 40c14 -4 19 -13 19 -27zM359 26l12 53c-40 -52 -89 -89 -175 -89c-120 0 -183 83 -140 287s133 259 249 259c86 0 124 -44 142 -90l16 76s8 4 26 4s25 -4 25 -4
l-105 -496c-39 -184 -103 -276 -280 -276c-86 0 -135 27 -135 27c3 15 10 30 23 38c0 0 53 -20 117 -20c126 0 187 46 225 231zM105 263c-35 -165 -3 -229 108 -229c105 0 165 98 180 161l29 135c12 64 -5 162 -111 162c-111 0 -171 -64 -206 -229z" />
    <glyph glyph-name="gbreve.alt" horiz-adv-x="518" 
d="M465 684c0 0 -49 -56 -139 -56s-131 56 -131 56c7 13 16 22 30 27c0 0 36 -40 103 -40s119 40 119 40c13 -4 18 -13 18 -27zM134 210c-52 27 -70 91 -55 164c23 108 101 162 217 162c42 0 76 -9 101 -24l137 23c3 -14 -1 -32 -10 -47l-97 -7c20 -29 22 -78 11 -127
c-22 -106 -97 -163 -215 -163c-22 0 -40 3 -56 7c-19 -18 -46 -54 -54 -91c-21 -111 330 3 287 -204c-18 -88 -107 -153 -269 -153c-146 0 -193 76 -174 156c18 76 78 115 116 137c-12 13 -18 32 -13 58c10 43 36 78 74 109zM287 496c-78 0 -141 -44 -160 -132
c-19 -89 26 -133 104 -133c79 0 141 44 160 133c19 88 -25 132 -104 132zM132 -208c118 0 204 46 218 116c25 117 -159 83 -246 117c-51 -30 -89 -78 -99 -122c-14 -68 29 -111 127 -111z" />
    <glyph glyph-name="gcircumflex" unicode="&#x11d;" horiz-adv-x="555" 
d="M378 731l103 -103c-6 -11 -16 -22 -29 -25l-92 83l-132 -86c-12 5 -20 16 -22 28l147 103h25zM359 26l12 53c-40 -52 -89 -89 -175 -89c-120 0 -183 83 -140 287s133 259 249 259c86 0 124 -44 142 -90l16 76s8 4 26 4s25 -4 25 -4l-105 -496
c-39 -184 -103 -276 -280 -276c-86 0 -135 27 -135 27c3 15 10 30 23 38c0 0 53 -20 117 -20c126 0 187 46 225 231zM105 263c-35 -165 -3 -229 108 -229c105 0 165 98 180 161l29 135c12 64 -5 162 -111 162c-111 0 -171 -64 -206 -229z" />
    <glyph glyph-name="gcircumflex.alt" horiz-adv-x="518" 
d="M345 731l106 -103c-6 -11 -16 -22 -29 -25l-96 83l-131 -84c-12 5 -17 14 -19 26l144 103h25zM134 210c-52 27 -70 91 -55 164c23 108 101 162 217 162c42 0 76 -9 101 -24l137 23c3 -14 -1 -32 -10 -47l-97 -7c20 -29 22 -78 11 -127c-22 -106 -97 -163 -215 -163
c-22 0 -40 3 -56 7c-19 -18 -46 -54 -54 -91c-21 -111 330 3 287 -204c-18 -88 -107 -153 -269 -153c-146 0 -193 76 -174 156c18 76 78 115 116 137c-12 13 -18 32 -13 58c10 43 36 78 74 109zM287 496c-78 0 -141 -44 -160 -132c-19 -89 26 -133 104 -133
c79 0 141 44 160 133c19 88 -25 132 -104 132zM132 -208c118 0 204 46 218 116c25 117 -159 83 -246 117c-51 -30 -89 -78 -99 -122c-14 -68 29 -111 127 -111z" />
    <glyph glyph-name="gcommaaccent" unicode="&#x123;" horiz-adv-x="555" 
d="M385 750l20 -13s-36 -26 -52 -77c15 0 22 -4 22 -4l-10 -49s-12 -3 -33 -3s-32 3 -32 3l8 36c15 70 77 107 77 107zM359 26l12 53c-40 -52 -89 -89 -175 -89c-120 0 -183 83 -140 287s133 259 249 259c86 0 124 -44 142 -90l16 76s8 4 26 4s25 -4 25 -4l-105 -496
c-39 -184 -103 -276 -280 -276c-86 0 -135 27 -135 27c3 15 10 30 23 38c0 0 53 -20 117 -20c126 0 187 46 225 231zM105 263c-35 -165 -3 -229 108 -229c105 0 165 98 180 161l29 135c12 64 -5 162 -111 162c-111 0 -171 -64 -206 -229z" />
    <glyph glyph-name="gcommaaccent.alt" horiz-adv-x="518" 
d="M365 750l20 -13s-36 -26 -52 -77c15 0 22 -4 22 -4l-10 -49s-12 -3 -33 -3s-32 3 -32 3l8 36c15 70 77 107 77 107zM134 210c-52 27 -70 91 -55 164c23 108 101 162 217 162c42 0 76 -9 101 -24l137 23c3 -14 -1 -32 -10 -47l-97 -7c20 -29 22 -78 11 -127
c-22 -106 -97 -163 -215 -163c-22 0 -40 3 -56 7c-19 -18 -46 -54 -54 -91c-21 -111 330 3 287 -204c-18 -88 -107 -153 -269 -153c-146 0 -193 76 -174 156c18 76 78 115 116 137c-12 13 -18 32 -13 58c10 43 36 78 74 109zM287 496c-78 0 -141 -44 -160 -132
c-19 -89 26 -133 104 -133c79 0 141 44 160 133c19 88 -25 132 -104 132zM132 -208c118 0 204 46 218 116c25 117 -159 83 -246 117c-51 -30 -89 -78 -99 -122c-14 -68 29 -111 127 -111z" />
    <glyph glyph-name="gdotaccent" unicode="&#x121;" horiz-adv-x="555" 
d="M393 699l-12 -54s-11 -4 -31 -4c-21 0 -29 4 -29 4l12 54s9 4 30 4c20 0 30 -4 30 -4zM359 26l12 53c-40 -52 -89 -89 -175 -89c-120 0 -183 83 -140 287s133 259 249 259c86 0 124 -44 142 -90l16 76s8 4 26 4s25 -4 25 -4l-105 -496c-39 -184 -103 -276 -280 -276
c-86 0 -135 27 -135 27c3 15 10 30 23 38c0 0 53 -20 117 -20c126 0 187 46 225 231zM105 263c-35 -165 -3 -229 108 -229c105 0 165 98 180 161l29 135c12 64 -5 162 -111 162c-111 0 -171 -64 -206 -229z" />
    <glyph glyph-name="gdotaccent.alt" horiz-adv-x="518" 
d="M365 699l-12 -54s-11 -4 -31 -4c-21 0 -29 4 -29 4l12 54s9 4 30 4c20 0 30 -4 30 -4zM134 210c-52 27 -70 91 -55 164c23 108 101 162 217 162c42 0 76 -9 101 -24l137 23c3 -14 -1 -32 -10 -47l-97 -7c20 -29 22 -78 11 -127c-22 -106 -97 -163 -215 -163
c-22 0 -40 3 -56 7c-19 -18 -46 -54 -54 -91c-21 -111 330 3 287 -204c-18 -88 -107 -153 -269 -153c-146 0 -193 76 -174 156c18 76 78 115 116 137c-12 13 -18 32 -13 58c10 43 36 78 74 109zM287 496c-78 0 -141 -44 -160 -132c-19 -89 26 -133 104 -133
c79 0 141 44 160 133c19 88 -25 132 -104 132zM132 -208c118 0 204 46 218 116c25 117 -159 83 -246 117c-51 -30 -89 -78 -99 -122c-14 -68 29 -111 127 -111z" />
    <glyph glyph-name="germandbls" unicode="&#xdf;" horiz-adv-x="570" 
d="M23 4l117 552c28 133 108 194 236 194c129 0 170 -85 152 -171c-11 -52 -38 -90 -41 -96c0 0 -119 -1 -139 -95c-23 -110 173 -102 138 -268c-19 -87 -84 -130 -188 -130c-69 0 -98 18 -98 18c1 14 8 31 19 39c17 -6 54 -14 80 -14c84 0 127 42 138 96
c29 136 -168 125 -138 265c24 116 153 122 153 122c2 3 16 28 23 62c14 68 -10 129 -104 129c-107 0 -161 -56 -181 -151l-117 -552s-8 -4 -26 -4s-24 4 -24 4z" />
    <glyph glyph-name="grave" unicode="`" horiz-adv-x="238" 
d="M152 641l-94 144c11 13 33 24 52 23l79 -148c-8 -10 -21 -17 -37 -19z" />
    <glyph glyph-name="greater" unicode="&#x3e;" horiz-adv-x="464" 
d="M396 263l-351 -147s-3 8 1 23c3 16 8 23 8 23l307 127l-252 129s-2 8 1 23c3 16 8 22 8 22l289 -147s2 -10 -1 -26c-4 -16 -10 -27 -10 -27z" />
    <glyph glyph-name="greaterequal" unicode="&#x2265;" horiz-adv-x="469" 
d="M391 343l-319 -117s-2 8 1 23c3 16 9 23 9 23l269 97l-228 99s-2 8 1 23c4 16 9 22 9 22l269 -117s2 -10 -1 -26c-4 -16 -10 -27 -10 -27zM343 119h-294s-2 7 1 21s8 21 8 21h294s3 -7 0 -21c-3 -15 -9 -21 -9 -21z" />
    <glyph glyph-name="guillemotleft" unicode="&#xab;" horiz-adv-x="495" 
d="M55 291l252 218c10 -7 13 -21 11 -34l-227 -205l140 -206c-4 -14 -13 -27 -26 -34l-159 218s-3 8 0 21c3 14 9 22 9 22zM224 290l230 199c9 -6 12 -20 10 -33l-204 -186l125 -187c-4 -14 -13 -27 -24 -33l-146 199s-2 7 1 20c3 14 8 21 8 21z" />
    <glyph glyph-name="guillemotright" unicode="&#xbb;" horiz-adv-x="495" 
d="M274 509l160 -218s2 -8 -1 -22c-3 -13 -8 -21 -8 -21l-253 -218c-8 7 -12 20 -10 34l226 206l-139 205c4 13 14 27 25 34zM119 489l146 -199s1 -7 -2 -21c-3 -13 -7 -20 -7 -20l-230 -199c-9 6 -12 19 -10 33l204 187l-125 186c4 13 13 27 24 33z" />
    <glyph glyph-name="guilsinglleft" unicode="&#x2039;" horiz-adv-x="340" 
d="M55 291l252 218c10 -7 13 -21 11 -34l-227 -205l140 -206c-4 -14 -13 -27 -26 -34l-159 218s-3 8 0 21c3 14 9 22 9 22z" />
    <glyph glyph-name="guilsinglright" unicode="&#x203a;" horiz-adv-x="339" 
d="M119 509l160 -218s2 -8 -1 -22c-3 -13 -8 -21 -8 -21l-253 -218c-9 7 -12 20 -10 34l226 206l-139 205c4 13 13 27 25 34z" />
    <glyph glyph-name="h" unicode="h" horiz-adv-x="551" 
d="M483 377l-80 -373s-9 -4 -26 -4c-18 0 -24 4 -24 4l79 372c17 80 -16 117 -95 117c-63 0 -136 -42 -184 -113l-80 -376s-9 -4 -26 -4s-24 4 -24 4l158 742s8 4 25 4s25 -4 25 -4l-64 -297c52 57 113 87 190 87c95 0 147 -61 126 -159z" />
    <glyph glyph-name="hbar" unicode="&#x127;" horiz-adv-x="551" 
d="M167 449c52 57 113 87 190 87c95 0 147 -61 126 -159l-80 -373s-9 -4 -26 -4c-18 0 -24 4 -24 4l79 372c17 80 -16 117 -95 117c-63 0 -136 -42 -184 -113l-80 -376s-9 -4 -26 -4s-24 4 -24 4l132 621h-71c-2 11 2 27 8 37h71l18 84s8 4 25 4s25 -4 25 -4l-18 -84h153
c2 -10 -2 -25 -8 -37h-153z" />
    <glyph glyph-name="hcircumflex" unicode="&#x125;" horiz-adv-x="551" 
d="M246 891l110 -100c-7 -13 -17 -23 -29 -26l-95 82l-127 -82c-13 4 -18 12 -19 26l135 100h25zM483 377l-80 -373s-9 -4 -26 -4c-18 0 -24 4 -24 4l79 372c17 80 -16 117 -95 117c-63 0 -136 -42 -184 -113l-80 -376s-9 -4 -26 -4s-24 4 -24 4l158 742s8 4 25 4
s25 -4 25 -4l-64 -297c52 57 113 87 190 87c95 0 147 -61 126 -159z" />
    <glyph glyph-name="hungarumlaut" unicode="&#x2dd;" horiz-adv-x="386" 
d="M200 785l-156 -144c-15 2 -25 9 -29 19l138 148c21 1 39 -9 47 -23zM353 785l-156 -144c-14 2 -24 9 -29 19l139 148c21 1 39 -9 46 -23z" />
    <glyph glyph-name="hyphen" unicode="-" horiz-adv-x="357" 
d="M263 269h-188s-2 7 1 21s8 21 8 21h188s3 -7 0 -21s-9 -21 -9 -21z" />
    <glyph glyph-name="i" unicode="i" horiz-adv-x="230" 
d="M232 706l-12 -56s-12 -4 -33 -4s-31 4 -31 4l12 56s12 4 33 4s31 -4 31 -4zM186 522l-110 -518s-8 -4 -26 -4s-24 4 -24 4l110 518s8 4 26 4s24 -4 24 -4z" />
    <glyph glyph-name="iacute" unicode="&#xed;" horiz-adv-x="230" 
d="M306 752l-156 -144c-15 2 -25 9 -29 19l143 148c19 1 36 -9 42 -23zM186 522l-110 -518s-8 -4 -26 -4s-24 4 -24 4l110 518s8 4 26 4s24 -4 24 -4z" />
    <glyph glyph-name="ibreve" unicode="&#x12d;" horiz-adv-x="230" 
d="M330 687c0 0 -49 -57 -139 -57s-131 57 -131 57c7 13 16 22 30 26c0 0 35 -40 102 -40s120 40 120 40c13 -4 18 -13 18 -26zM186 522l-110 -518s-8 -4 -26 -4s-24 4 -24 4l110 518s8 4 26 4s24 -4 24 -4z" />
    <glyph glyph-name="icircumflex" unicode="&#xee;" horiz-adv-x="230" 
d="M212 731l110 -103c-6 -11 -16 -22 -29 -25l-96 83l-131 -84c-12 5 -17 14 -19 26l140 103h25zM186 522l-110 -518s-8 -4 -26 -4s-24 4 -24 4l110 518s8 4 26 4s24 -4 24 -4z" />
    <glyph glyph-name="idieresis" unicode="&#xef;" horiz-adv-x="230" 
d="M151 697l-11 -53s-11 -3 -31 -3s-29 3 -29 3l11 53s11 4 31 4s29 -4 29 -4zM300 697l-11 -53s-11 -3 -31 -3s-29 3 -29 3l11 53s11 4 31 4s29 -4 29 -4zM186 522l-110 -518s-8 -4 -26 -4s-24 4 -24 4l110 518s8 4 26 4s24 -4 24 -4z" />
    <glyph glyph-name="igrave" unicode="&#xec;" horiz-adv-x="230" 
d="M200 610l-95 144c11 13 33 24 52 23l80 -148c-8 -10 -22 -17 -37 -19zM186 522l-110 -518s-8 -4 -26 -4s-24 4 -24 4l110 518s8 4 26 4s24 -4 24 -4z" />
    <glyph glyph-name="ij" unicode="&#x133;" horiz-adv-x="428" 
d="M232 706l-12 -56s-12 -4 -33 -4s-31 4 -31 4l12 56s12 4 33 4s31 -4 31 -4zM186 522l-110 -518s-8 -4 -26 -4s-24 4 -24 4l110 518s8 4 26 4s24 -4 24 -4zM430 709l-12 -56s-11 -4 -32 -4c-22 0 -31 4 -31 4l12 56s11 4 33 4c21 0 30 -4 30 -4zM203 -92l131 614s7 4 26 4
c17 0 24 -4 24 -4l-130 -610c-23 -111 -85 -162 -169 -162c-42 0 -57 9 -57 9s-1 5 0 12c4 18 12 26 12 26s15 -4 42 -4c65 0 104 33 121 115z" />
    <glyph glyph-name="imacron" unicode="&#x12b;" horiz-adv-x="230" 
d="M280 656h-180c-1 10 0 24 8 37h180c2 -10 0 -26 -8 -37zM186 522l-110 -518s-8 -4 -26 -4s-24 4 -24 4l110 518s8 4 26 4s24 -4 24 -4z" />
    <glyph glyph-name="infinity" unicode="&#x221e;" horiz-adv-x="822" 
d="M556 160c-129 0 -149 126 -149 126s-74 -126 -203 -126c-117 0 -152 83 -135 165s88 165 205 165c129 0 149 -127 149 -127s82 127 203 127c117 0 152 -83 135 -165s-88 -165 -205 -165zM212 202c109 0 175 123 175 123s-14 123 -123 123c-93 0 -139 -65 -151 -123
s6 -123 99 -123zM618 448c-109 0 -175 -123 -175 -123s14 -123 123 -123c93 0 139 65 151 123s-6 123 -99 123z" />
    <glyph glyph-name="integral" unicode="&#x222b;" horiz-adv-x="499" 
d="M153 -41l130 611c20 95 76 151 164 151c55 0 92 -20 116 -36c-5 -14 -14 -25 -27 -32c-27 17 -58 28 -96 28c-56 -1 -97 -32 -113 -109l-131 -613c-24 -112 -91 -150 -167 -150c-45 0 -82 18 -109 37c5 14 15 25 27 32c19 -14 53 -30 96 -29c44 1 92 23 110 110z" />
    <glyph glyph-name="iogonek" unicode="&#x12f;" horiz-adv-x="230" 
d="M159 666c0 0 11 4 32 4s32 -4 32 -4l-12 -56s-12 -4 -33 -4s-31 4 -31 4zM135 522c0 0 8 4 26 4s24 -4 24 -4l-110 -516c-46 -18 -91 -65 -99 -106c-8 -34 12 -44 44 -44c23 0 42 9 42 9c6 -6 7 -17 4 -28c0 0 -26 -17 -63 -17c-53 0 -83 26 -73 74c10 44 53 91 96 115z
" />
    <glyph glyph-name="itilde" unicode="&#x129;" horiz-adv-x="230" 
d="M239 671c23 0 42 30 42 30c8 -4 17 -13 16 -25c-7 -10 -21 -43 -61 -43s-58 34 -90 34c-23 0 -42 -28 -42 -28c-8 5 -16 13 -15 25c5 9 21 41 60 41c41 0 59 -34 90 -34zM186 522l-110 -518s-8 -4 -26 -4s-24 4 -24 4l110 518s8 4 26 4s24 -4 24 -4z" />
    <glyph glyph-name="j" unicode="j" horiz-adv-x="230" 
d="M232 709l-12 -56s-11 -4 -32 -4c-22 0 -31 4 -31 4l12 56s11 4 33 4c21 0 30 -4 30 -4zM5 -92l131 614s7 4 26 4c17 0 24 -4 24 -4l-130 -610c-23 -111 -85 -162 -169 -162c-42 0 -57 9 -57 9s-1 5 0 12c4 18 12 26 12 26s15 -4 42 -4c65 0 104 33 121 115z" />
    <glyph glyph-name="jcircumflex" unicode="&#x135;" horiz-adv-x="230" 
d="M209 712l108 -102c-7 -12 -17 -23 -30 -26l-96 83l-131 -84c-11 5 -17 14 -18 27l141 102h26zM5 -92l131 614s7 4 26 4c17 0 24 -4 24 -4l-130 -610c-23 -111 -85 -162 -169 -162c-42 0 -57 9 -57 9s-1 5 0 12c4 18 12 26 12 26s15 -4 42 -4c65 0 104 33 121 115z" />
    <glyph glyph-name="k" unicode="k" horiz-adv-x="495" 
d="M241 296l202 226s8 4 29 4c18 0 27 -3 27 -3l-225 -253l139 -265s-11 -5 -30 -5c-15 0 -24 5 -24 5l-128 249h-105l-53 -250s-9 -4 -26 -4s-24 4 -24 4l158 742s8 4 25 4s25 -4 25 -4l-96 -450h106z" />
    <glyph glyph-name="kcommaaccent" unicode="&#x137;" horiz-adv-x="495" 
d="M138 -207l-19 15s37 30 53 87c-15 0 -22 4 -22 4l12 56s12 4 33 4s31 -4 31 -4l-8 -40c-17 -81 -80 -122 -80 -122zM241 296l202 226s8 4 29 4c18 0 27 -3 27 -3l-225 -253l139 -265s-11 -5 -30 -5c-15 0 -24 5 -24 5l-128 249h-105l-53 -250s-9 -4 -26 -4s-24 4 -24 4
l158 742s8 4 25 4s25 -4 25 -4l-96 -450h106z" />
    <glyph glyph-name="kgreenlandic" unicode="&#x138;" horiz-adv-x="500" 
d="M509 522l-244 -223l153 -294s-11 -5 -29 -5c-20 0 -28 4 -28 4l-135 260l-121 -110l-32 -150c-7 -3 -16 -4 -26 -4c-9 0 -18 1 -24 4l110 519c7 2 17 3 27 3s20 -1 23 -3l-61 -294l320 293c9 3 20 4 32 4c11 0 27 -1 35 -4z" />
    <glyph glyph-name="l" unicode="l" horiz-adv-x="234" 
d="M236 746l-158 -742s-8 -4 -26 -4s-24 4 -24 4l158 742s7 4 25 4s25 -4 25 -4z" />
    <glyph glyph-name="lacute" unicode="&#x13a;" horiz-adv-x="234" 
d="M343 922l-156 -144c-15 2 -25 9 -29 19l143 148c19 1 36 -9 42 -23zM236 746l-158 -742s-8 -4 -26 -4s-24 4 -24 4l158 742s7 4 25 4s25 -4 25 -4z" />
    <glyph glyph-name="lcaron" unicode="&#x13e;" horiz-adv-x="241" 
d="M282 585c-12 1 -19 6 -23 14c51 41 74 89 83 150c20 5 37 3 46 -4c-11 -59 -51 -127 -106 -160zM236 746l-158 -742s-8 -4 -26 -4s-24 4 -24 4l158 742s7 4 25 4s25 -4 25 -4z" />
    <glyph glyph-name="lcommaaccent" unicode="&#x13c;" horiz-adv-x="234" 
d="M237 746l-158 -742s-8 -4 -26 -4s-24 4 -24 4l158 742s7 4 25 4s25 -4 25 -4zM-13 -207l-18 16s36 30 53 87c-15 0 -21 4 -21 4l12 56s10 4 31 4s32 -4 32 -4l-9 -40c-17 -81 -80 -123 -80 -123z" />
    <glyph glyph-name="ldot" unicode="&#x140;" horiz-adv-x="284" 
d="M236 746l-158 -742s-8 -4 -26 -4s-24 4 -24 4l158 742s7 4 25 4s25 -4 25 -4zM299 360l-11 -52s-10 -4 -30 -4s-30 4 -30 4l11 52s11 4 31 4s29 -4 29 -4z" />
    <glyph glyph-name="less" unicode="&#x3c;" horiz-adv-x="465" 
d="M340 116l-289 147s-2 11 2 27c3 16 9 26 9 26l351 147s3 -6 0 -22c-3 -15 -9 -23 -9 -23l-308 -129l253 -127s3 -7 0 -23c-4 -15 -9 -23 -9 -23z" />
    <glyph glyph-name="lessequal" unicode="&#x2264;" horiz-adv-x="472" 
d="M364 226l-269 117s-2 11 2 27c3 16 9 26 9 26l319 117s3 -6 -1 -22c-3 -15 -9 -23 -9 -23l-270 -99l229 -97s2 -7 -1 -23c-3 -15 -9 -23 -9 -23zM341 119h-294s-2 6 1 21c3 14 8 21 8 21h294s3 -7 0 -21s-9 -21 -9 -21z" />
    <glyph glyph-name="logicalnot" unicode="&#xac;" horiz-adv-x="598" 
d="M539 439l-54 -254s-9 -4 -24 -4s-21 4 -21 4l45 209h-403s-3 8 0 22c4 15 9 23 9 23h448z" />
    <glyph glyph-name="longs" unicode="&#x17f;" horiz-adv-x="265" 
d="M219 591l-125 -587s-8 -4 -26 -4s-24 4 -24 4l102 480h-74c0 14 3 28 9 42h74l13 60c20 97 65 164 185 164c54 0 92 -14 92 -14c-2 -15 -10 -30 -22 -40c0 0 -29 11 -73 11c-88 0 -116 -42 -131 -116z" />
    <glyph glyph-name="lozenge" unicode="&#x25ca;" 
d="M198 7l-136 345l283 344h23l140 -344l-287 -345h-23zM456 351l-112 282l-229 -282l109 -282z" />
    <glyph glyph-name="lslash" unicode="&#x142;" horiz-adv-x="304" 
d="M211 746c0 0 7 4 25 4s25 -4 25 -4l-66 -306l93 47c3 -2 8 -7 10 -14c4 -9 4 -16 3 -20l-115 -59l-83 -390s-8 -4 -26 -4s-24 4 -24 4l77 361l-84 -43c-3 2 -6 7 -10 14c-3 9 -2 15 -1 20l104 54z" />
    <glyph glyph-name="m" unicode="m" horiz-adv-x="842" 
d="M467 438c53 61 114 98 188 98c90 0 141 -56 119 -157l-80 -375s-9 -4 -26 -4c-18 0 -24 4 -24 4l79 372c17 81 -12 117 -85 117c-59 0 -129 -39 -176 -115l-79 -374s-9 -4 -26 -4s-24 4 -24 4l79 372c17 81 -12 117 -85 117c-58 0 -128 -42 -173 -113l-80 -376
s-10 -4 -27 -4s-24 4 -24 4l110 518s9 4 26 4s25 -4 25 -4l-16 -76c49 56 107 90 176 90c64 0 119 -30 123 -98z" />
    <glyph glyph-name="macron" unicode="&#xaf;" horiz-adv-x="407" 
d="M323 630h-291c-4 12 0 28 8 40h291c4 -11 -1 -28 -8 -40z" />
    <glyph glyph-name="minus" unicode="&#x2212;" horiz-adv-x="466" 
d="M375 307h-288s-2 7 1 23c4 16 9 23 9 23h288s3 -7 -1 -23c-3 -16 -9 -23 -9 -23z" />
    <glyph glyph-name="mu" unicode="&#xb5;" horiz-adv-x="581" 
d="M475 522c0 0 8 4 26 4s24 -4 24 -4l-110 -518s-8 -4 -26 -4s-24 4 -24 4l16 75c-52 -56 -117 -89 -187 -89c-64 0 -92 23 -107 47c-40 -213 -28 -274 -28 -274c-16 -12 -40 -16 -58 -11c0 0 -6 67 30 234l114 536s9 4 26 4c19 0 24 -4 24 -4l-80 -374
c-13 -65 5 -115 97 -115c74 0 145 56 183 112z" />
    <glyph glyph-name="multiply" unicode="&#xd7;" horiz-adv-x="456" 
d="M217 256l-140 -115s-8 3 -15 14c-9 9 -10 18 -10 18l139 116l-90 116s5 9 18 18c11 11 21 14 21 14l91 -115l141 115s8 -3 15 -14c9 -9 10 -18 10 -18l-140 -116l91 -116s-5 -9 -18 -18c-11 -11 -21 -14 -21 -14z" />
    <glyph glyph-name="n" unicode="n" 
d="M482 377l-79 -373s-9 -4 -26 -4c-18 0 -24 4 -24 4l79 372c17 80 -16 117 -95 117c-63 0 -136 -42 -184 -113l-80 -376s-9 -4 -26 -4s-24 4 -24 4l110 518s9 4 26 4s24 -4 24 -4l-16 -77c54 57 110 91 187 91c95 0 148 -63 128 -159z" />
    <glyph glyph-name="nacute" unicode="&#x144;" 
d="M450 752l-156 -144c-15 2 -25 9 -29 19l143 148c19 1 36 -9 42 -23zM482 377l-79 -373s-9 -4 -26 -4c-18 0 -24 4 -24 4l79 372c17 80 -16 117 -95 117c-63 0 -136 -42 -184 -113l-80 -376s-9 -4 -26 -4s-24 4 -24 4l110 518s9 4 26 4s24 -4 24 -4l-16 -77
c54 57 110 91 187 91c95 0 148 -63 128 -159z" />
    <glyph glyph-name="napostrophe" unicode="&#x149;" 
d="M163 588c-13 2 -19 9 -21 17c52 36 81 82 96 144c21 2 37 -1 45 -10c-18 -58 -64 -124 -120 -151zM482 377l-79 -373s-9 -4 -26 -4c-18 0 -24 4 -24 4l79 372c17 80 -16 117 -95 117c-63 0 -136 -42 -184 -113l-80 -376s-9 -4 -26 -4s-24 4 -24 4l110 518s9 4 26 4
s24 -4 24 -4l-16 -77c54 57 110 91 187 91c95 0 148 -63 128 -159z" />
    <glyph glyph-name="ncaron" unicode="&#x148;" 
d="M355 651l122 78c11 -3 16 -12 18 -24l-133 -97h-23l-101 97c7 13 15 21 27 25zM482 377l-79 -373s-9 -4 -26 -4c-18 0 -24 4 -24 4l79 372c17 80 -16 117 -95 117c-63 0 -136 -42 -184 -113l-80 -376s-9 -4 -26 -4s-24 4 -24 4l110 518s9 4 26 4s24 -4 24 -4l-16 -77
c54 57 110 91 187 91c95 0 148 -63 128 -159z" />
    <glyph glyph-name="ncommaaccent" unicode="&#x146;" 
d="M150 -213l-19 15s35 30 52 87c-14 1 -21 4 -21 4l12 57s12 4 33 4s30 -4 30 -4l-8 -41c-17 -80 -79 -122 -79 -122zM482 377l-79 -373s-9 -4 -26 -4c-18 0 -24 4 -24 4l79 372c17 80 -16 117 -95 117c-63 0 -136 -42 -184 -113l-80 -376s-9 -4 -26 -4s-24 4 -24 4
l110 518s9 4 26 4s24 -4 24 -4l-16 -77c54 57 110 91 187 91c95 0 148 -63 128 -159z" />
    <glyph glyph-name="nine" unicode="9" horiz-adv-x="549" 
d="M59 0c-4 13 0 34 8 46c159 16 283 87 351 263c-35 -18 -98 -45 -172 -45c-113 0 -184 73 -152 225c30 140 137 201 255 201c125 0 197 -80 157 -267c-60 -280 -231 -409 -447 -423zM143 477c-25 -118 28 -170 118 -170c76 0 148 38 176 54c6 21 12 42 17 66
c32 154 -22 220 -115 220s-171 -56 -196 -170z" />
    <glyph glyph-name="nine.denom" horiz-adv-x="309" 
d="M22 242c16 72 76 106 136 106c75 0 107 -50 86 -148c-23 -109 -100 -191 -234 -203c-3 7 -1 20 4 29c91 12 156 58 182 136c-17 -9 -47 -22 -88 -22c-66 0 -99 39 -86 102zM208 197c16 80 -2 121 -56 121c-46 0 -82 -28 -93 -76c-8 -41 12 -71 59 -71c48 0 78 18 90 26z
" />
    <glyph glyph-name="nine.num" horiz-adv-x="308" 
d="M95 588c15 72 75 106 135 106c75 0 108 -50 87 -148c-23 -109 -101 -191 -234 -203c-4 7 -2 20 4 29c91 12 155 58 182 136c-17 -9 -48 -22 -89 -22c-66 0 -98 39 -85 102zM280 543c16 80 -2 121 -56 121c-46 0 -82 -28 -92 -76c-9 -41 12 -71 59 -71c48 0 78 18 89 26z
" />
    <glyph glyph-name="nineinferior" unicode="&#x2089;" horiz-adv-x="308" 
d="M1 146c15 72 76 106 136 106c75 0 107 -50 86 -148c-23 -109 -101 -191 -234 -203c-4 7 -2 20 4 29c91 12 156 59 182 136c-17 -9 -48 -22 -89 -22c-66 0 -98 39 -85 102zM186 101c16 80 -2 121 -56 121c-46 0 -82 -28 -92 -76c-9 -41 12 -71 59 -71c48 0 78 18 89 26z
" />
    <glyph glyph-name="notequal" unicode="&#x2260;" horiz-adv-x="472" 
d="M167 184l-72 -95c-3 -1 -12 -4 -24 -4c-9 0 -16 3 -19 4l73 95h-84c0 3 -2 8 1 21c2 12 6 18 8 21h107l97 128h-177c0 3 -2 9 1 21c2 12 6 18 8 21h201l67 87c3 1 11 4 22 4c10 0 18 -3 21 -4l-68 -87h93c0 -3 2 -9 0 -21c-3 -12 -7 -18 -9 -21h-116l-98 -128h187
c0 -3 2 -9 0 -21c-3 -12 -7 -18 -9 -21h-210z" />
    <glyph glyph-name="ntilde" unicode="&#xf1;" 
d="M230 671c0 0 19 45 72 45c51 0 73 -35 112 -35c29 0 49 31 49 31c12 -3 22 -13 21 -26c0 0 -21 -45 -75 -45c-50 0 -71 36 -110 36c-29 0 -50 -33 -50 -33c-12 5 -20 15 -19 27zM482 377l-79 -373s-9 -4 -26 -4c-18 0 -24 4 -24 4l79 372c17 80 -16 117 -95 117
c-63 0 -136 -42 -184 -113l-80 -376s-9 -4 -26 -4s-24 4 -24 4l110 518s9 4 26 4s24 -4 24 -4l-16 -77c54 57 110 91 187 91c95 0 148 -63 128 -159z" />
    <glyph glyph-name="_300" horiz-adv-x="0" 
 />
    <glyph glyph-name="numbersign" unicode="#" horiz-adv-x="648" 
d="M564 619c8 3 15 4 24 4c8 0 17 -1 23 -4l-72 -145h98c0 -6 1 -13 -1 -21c-2 -9 -5 -16 -9 -23h-110l-121 -245h95c1 -4 2 -12 0 -22c-3 -11 -6 -18 -9 -22h-108l-67 -136c-3 -1 -12 -5 -25 -5s-19 4 -22 5l67 136h-167l-67 -136c-3 -1 -12 -5 -26 -5c-12 0 -18 4 -21 5
l67 136h-102c0 3 -1 11 2 22c2 11 5 18 7 22h115l121 245h-100c0 7 -1 14 1 22s5 15 9 22h112l72 145c8 3 15 4 24 4c8 0 17 -1 23 -4l-72 -145h167zM303 430l-121 -245h167l121 245h-167z" />
    <glyph glyph-name="o" unicode="o" horiz-adv-x="538" 
d="M55 274c42 198 142 262 260 262c131 0 193 -83 151 -281s-140 -265 -261 -265c-131 0 -192 86 -150 284zM416 263c37 177 -11 231 -107 231c-86 0 -168 -54 -205 -231c-38 -177 11 -231 107 -231c86 0 167 54 205 231z" />
    <glyph glyph-name="oacute" unicode="&#xf3;" horiz-adv-x="538" 
d="M257 627l143 148c19 1 36 -9 42 -23l-156 -144c-15 2 -25 9 -29 19zM55 274c42 198 142 262 260 262c131 0 193 -83 151 -281s-140 -265 -261 -265c-131 0 -192 86 -150 284zM416 263c37 177 -11 231 -107 231c-86 0 -168 -54 -205 -231c-38 -177 11 -231 107 -231
c86 0 167 54 205 231z" />
    <glyph glyph-name="obreve" unicode="&#x14f;" horiz-adv-x="538" 
d="M347 678c67 0 120 40 120 40c13 -4 18 -13 18 -26c0 0 -49 -56 -139 -56s-131 56 -131 56c7 12 16 21 30 26c0 0 35 -40 102 -40zM55 274c42 198 142 262 260 262c131 0 193 -83 151 -281s-140 -265 -261 -265c-131 0 -192 86 -150 284zM416 263c37 177 -11 231 -107 231
c-86 0 -168 -54 -205 -231c-38 -177 11 -231 107 -231c86 0 167 54 205 231z" />
    <glyph glyph-name="ocircumflex" unicode="&#xf4;" horiz-adv-x="538" 
d="M364 731l109 -103c-6 -11 -16 -22 -29 -25l-96 83l-131 -84c-12 5 -17 14 -19 26l141 103h25zM55 274c42 198 142 262 260 262c131 0 193 -83 151 -281s-140 -265 -261 -265c-131 0 -192 86 -150 284zM416 263c37 177 -11 231 -107 231c-86 0 -168 -54 -205 -231
c-38 -177 11 -231 107 -231c86 0 167 54 205 231z" />
    <glyph glyph-name="odieresis" unicode="&#xf6;" horiz-adv-x="538" 
d="M248 703c0 0 11 4 31 4c19 0 29 -4 29 -4l-11 -53s-12 -4 -31 -4c-20 0 -29 4 -29 4zM397 703c0 0 10 4 31 4c19 0 28 -4 28 -4l-11 -53s-11 -4 -30 -4c-21 0 -29 4 -29 4zM55 274c42 198 142 262 260 262c131 0 193 -83 151 -281s-140 -265 -261 -265
c-131 0 -192 86 -150 284zM416 263c37 177 -11 231 -107 231c-86 0 -168 -54 -205 -231c-38 -177 11 -231 107 -231c86 0 167 54 205 231z" />
    <glyph glyph-name="oe" unicode="&#x153;" horiz-adv-x="825" 
d="M747 247h-304c-25 -152 6 -212 105 -212c71 0 126 36 126 36c11 -7 15 -21 13 -36c0 0 -59 -45 -160 -45c-80 0 -124 42 -135 125c-47 -88 -105 -125 -191 -125c-128 0 -189 84 -147 282s130 264 258 264c85 0 131 -37 140 -126c49 87 117 126 192 126
c116 0 160 -76 136 -188c-13 -62 -33 -101 -33 -101zM305 494c-93 0 -163 -54 -200 -231c-38 -177 9 -231 102 -231s151 55 189 233c38 177 2 229 -91 229zM733 354c16 74 0 139 -91 139c-82 0 -154 -62 -190 -205h262c1 2 11 26 19 66z" />
    <glyph glyph-name="ogonek" unicode="&#x2db;" horiz-adv-x="283" 
d="M-26 -169c7 -6 8 -15 6 -26c0 0 -27 -17 -64 -17c-54 0 -79 32 -69 79c15 71 88 113 170 120l-2 -20c-54 -11 -113 -39 -125 -95c-7 -33 11 -50 43 -50c23 0 41 9 41 9z" />
    <glyph glyph-name="ograve" unicode="&#xf2;" horiz-adv-x="538" 
d="M299 775l79 -148c-8 -10 -21 -17 -37 -19l-94 144c11 13 34 24 52 23zM55 274c42 198 142 262 260 262c131 0 193 -83 151 -281s-140 -265 -261 -265c-131 0 -192 86 -150 284zM416 263c37 177 -11 231 -107 231c-86 0 -168 -54 -205 -231c-38 -177 11 -231 107 -231
c86 0 167 54 205 231z" />
    <glyph glyph-name="ohungarumlaut" unicode="&#x151;" horiz-adv-x="538" 
d="M239 623l124 122c21 1 37 -6 43 -19l-140 -119c-14 1 -23 7 -27 16zM381 623l123 122c20 1 37 -6 44 -19l-140 -119c-14 1 -24 7 -27 16zM55 274c42 198 142 262 260 262c131 0 193 -83 151 -281s-140 -265 -261 -265c-131 0 -192 86 -150 284zM416 263
c37 177 -11 231 -107 231c-86 0 -168 -54 -205 -231c-38 -177 11 -231 107 -231c86 0 167 54 205 231z" />
    <glyph glyph-name="omacron" unicode="&#x14d;" horiz-adv-x="538" 
d="M233 694h234c3 -11 0 -28 -8 -40h-234c-1 12 2 29 8 40zM55 274c42 198 142 262 260 262c131 0 193 -83 151 -281s-140 -265 -261 -265c-131 0 -192 86 -150 284zM416 263c37 177 -11 231 -107 231c-86 0 -168 -54 -205 -231c-38 -177 11 -231 107 -231
c86 0 167 54 205 231z" />
    <glyph glyph-name="one" unicode="1" horiz-adv-x="392" 
d="M79 524c88 22 170 74 235 152c0 0 7 4 25 4c17 0 24 -4 24 -4l-143 -672s-8 -4 -27 -4c-18 0 -25 4 -25 4l98 460c12 60 24 107 34 138c-60 -63 -142 -103 -217 -122c-8 10 -10 27 -4 44z" />
    <glyph glyph-name="one.denom" horiz-adv-x="241" 
d="M22 271c48 12 97 41 128 69c5 2 12 3 19 3c6 0 13 -1 15 -3l-71 -337c-5 -2 -11 -3 -18 -3s-13 1 -17 3l53 252c4 16 6 29 10 41c-33 -25 -73 -44 -118 -55c-5 7 -6 19 -1 30z" />
    <glyph glyph-name="one.num" horiz-adv-x="257" 
d="M94 617c49 12 98 41 129 69c4 2 11 3 18 3c6 0 13 -1 16 -3l-72 -337c-4 -2 -10 -3 -16 -3s-13 0 -19 3l54 252c3 16 6 29 9 41c-33 -25 -73 -44 -117 -55c-6 7 -6 19 -2 30z" />
    <glyph glyph-name="oneeighth" unicode="&#x215b;" horiz-adv-x="703" 
d="M585 698c0 0 7 4 21 4c13 0 17 -4 17 -4l-537 -705s-7 -3 -20 -3c-12 0 -19 3 -19 3zM232 686c4 2 11 3 18 3c6 0 13 -1 16 -3l-72 -338c-4 -1 -10 -2 -16 -2s-13 0 -19 2l54 253c3 16 6 28 9 40c-33 -24 -73 -44 -117 -54c-6 7 -6 19 -2 30c49 12 98 41 129 69zM420 265
c11 49 54 83 125 83c66 0 101 -30 89 -83c-9 -44 -41 -72 -75 -90c33 -18 59 -42 49 -88c-12 -58 -63 -92 -137 -92c-70 0 -114 31 -101 91c11 50 50 81 87 100c-27 17 -45 39 -37 79zM599 263c8 36 -14 56 -61 56c-45 0 -75 -20 -82 -52c-10 -45 34 -60 78 -80
c33 19 58 43 65 76zM573 85c11 51 -46 66 -89 88c-20 -10 -68 -38 -78 -85c-10 -44 18 -63 72 -63c45 0 86 19 95 60z" />
    <glyph glyph-name="onehalf" unicode="&#xbd;" horiz-adv-x="699" 
d="M580 698c0 0 7 4 21 4c13 0 17 -4 17 -4l-537 -705s-7 -3 -20 -3c-12 0 -19 3 -19 3zM232 686c5 2 11 3 18 3s13 -1 17 -3l-72 -338c-4 -1 -11 -2 -17 -2s-12 0 -18 2l54 253c3 16 6 28 9 40c-33 -24 -73 -44 -117 -54c-6 7 -6 19 -2 30c49 12 97 41 128 69zM456 335
c0 0 38 13 89 13c80 0 106 -38 94 -92c-27 -128 -211 -98 -234 -223h182c2 -5 2 -11 0 -17c-1 -6 -3 -11 -7 -16h-214s0 18 5 41c29 136 211 113 232 212c7 34 -8 64 -71 64c-35 0 -72 -9 -74 -10c-5 8 -6 18 -2 28z" />
    <glyph glyph-name="oneinferior" unicode="&#x2081;" horiz-adv-x="241" 
d="M0 175c49 12 98 41 129 69c4 2 11 3 18 3c6 0 13 -1 16 -3l-72 -337c-4 -2 -10 -3 -16 -3s-13 0 -19 3l54 252c3 16 6 29 9 41c-33 -25 -73 -44 -117 -55c-6 7 -6 19 -2 30z" />
    <glyph glyph-name="onequarter" unicode="&#xbc;" horiz-adv-x="643" 
d="M42 -7l538 705s7 4 21 4c13 0 17 -4 17 -4l-537 -705s-7 -3 -20 -3c-12 0 -19 3 -19 3zM104 617c49 12 97 41 128 69c5 2 11 3 18 3s13 -1 17 -3l-72 -338c-4 -1 -11 -2 -17 -2s-12 0 -18 2l54 253c3 16 6 28 9 40c-33 -24 -73 -44 -117 -54c-6 7 -6 19 -2 30zM515 124
h42c1 -3 2 -8 0 -15c-2 -9 -5 -14 -6 -16h-42l-19 -90c-3 -1 -8 -3 -16 -3c-9 0 -15 2 -16 3l19 90h-180c-1 2 -2 5 -1 11s4 10 6 12l224 224c3 1 9 3 19 3c9 0 14 -2 16 -3zM520 295l-174 -171h137z" />
    <glyph glyph-name="onesuperior" unicode="&#xb9;" horiz-adv-x="242" 
d="M94 617c49 12 98 41 129 69c4 2 11 3 18 3c6 0 13 -1 16 -3l-72 -338c-4 -1 -10 -2 -16 -2c-7 0 -13 0 -19 2l54 253c3 16 6 28 9 40c-33 -24 -73 -44 -117 -54c-6 7 -6 19 -2 30z" />
    <glyph glyph-name="ordfeminine" unicode="&#xaa;" horiz-adv-x="361" 
d="M149 610c0 0 51 20 106 20c74 0 98 -36 84 -105l-47 -219s-6 -4 -15 -4c-10 0 -14 4 -14 4l4 42c-26 -33 -68 -52 -115 -52c-56 0 -88 35 -75 96c13 59 57 94 134 94c39 0 71 -4 83 -5l8 39c12 56 -9 78 -59 78c-46 0 -90 -16 -90 -16c-5 7 -7 19 -4 28zM288 453
c-12 1 -45 4 -78 4c-57 0 -87 -20 -97 -65c-9 -46 12 -65 53 -65c54 0 101 36 116 97zM50 244h226c1 -10 -2 -21 -7 -31h-226c-1 10 2 21 7 31z" />
    <glyph glyph-name="ordmasculine" unicode="&#xba;" horiz-adv-x="379" 
d="M93 463c25 117 78 167 164 167s119 -48 93 -167c-25 -119 -78 -168 -164 -168s-118 49 -93 168zM313 463c21 97 1 136 -63 136c-65 0 -99 -39 -120 -136c-21 -99 -3 -136 62 -136c64 0 100 37 121 136zM60 244h230c0 -2 1 -7 0 -15c-2 -8 -5 -14 -7 -16h-230
c0 2 -1 8 1 16c1 7 4 13 6 15z" />
    <glyph glyph-name="oslash" unicode="&#xf8;" horiz-adv-x="536" 
d="M511 551l-60 -76c30 -45 36 -117 14 -220c-42 -198 -140 -265 -261 -265c-44 0 -80 10 -106 30l-50 -64c-14 3 -25 10 -31 20l55 70c-33 45 -41 120 -18 228c42 198 142 262 260 262c47 0 84 -10 112 -33l53 67c14 -2 26 -10 32 -19zM308 494c-86 0 -168 -54 -205 -231
c-18 -84 -16 -141 1 -176l293 377c-21 22 -51 30 -89 30zM210 32c86 0 167 54 205 231c16 79 16 133 2 169l-291 -376c21 -17 49 -24 84 -24z" />
    <glyph glyph-name="oslashacute" unicode="&#x1ff;" horiz-adv-x="536" 
d="M444 752l-156 -144c-15 2 -25 9 -29 19l143 148c19 1 36 -9 42 -23zM511 551l-60 -76c30 -45 36 -117 14 -220c-42 -198 -140 -265 -261 -265c-44 0 -80 10 -106 30l-50 -64c-14 3 -25 10 -31 20l55 70c-33 45 -41 120 -18 228c42 198 142 262 260 262
c47 0 84 -10 112 -33l53 67c14 -2 26 -10 32 -19zM308 494c-86 0 -168 -54 -205 -231c-18 -84 -16 -141 1 -176l293 377c-21 22 -51 30 -89 30zM210 32c86 0 167 54 205 231c16 79 16 133 2 169l-291 -376c21 -17 49 -24 84 -24z" />
    <glyph glyph-name="otilde" unicode="&#xf5;" horiz-adv-x="538" 
d="M219 663c0 0 20 45 73 45c51 0 73 -35 112 -35c29 0 50 31 50 31c12 -4 19 -13 20 -26c0 0 -20 -45 -74 -45c-50 0 -72 36 -111 36c-29 0 -51 -31 -51 -31c-13 5 -19 13 -19 25zM55 274c42 198 142 262 260 262c131 0 193 -83 151 -281s-140 -265 -261 -265
c-131 0 -192 86 -150 284zM416 263c37 177 -11 231 -107 231c-86 0 -168 -54 -205 -231c-38 -177 11 -231 107 -231c86 0 167 54 205 231z" />
    <glyph glyph-name="p" unicode="p" horiz-adv-x="555" 
d="M167 448c42 54 99 88 180 88c120 0 177 -79 134 -283s-130 -263 -250 -263c-68 0 -121 47 -140 98l-70 -329s-8 -4 -26 -4s-24 4 -24 4l162 763s8 4 26 4s24 -4 24 -4zM431 263c35 165 6 229 -105 229c-95 0 -167 -83 -184 -161l-26 -121c-17 -79 34 -176 117 -176
c111 0 163 64 198 229z" />
    <glyph glyph-name="paragraph" unicode="&#xb6;" horiz-adv-x="469" 
d="M35 -223l146 690c-75 2 -99 59 -87 116c13 58 65 116 141 116h39l-196 -922s-8 -4 -23 -4c-16 0 -20 4 -20 4zM444 695l-195 -918s-7 -4 -22 -4c-16 0 -21 4 -21 4l195 918s7 4 23 4c15 0 20 -4 20 -4z" />
    <glyph glyph-name="parenleft" unicode="(" horiz-adv-x="284" 
d="M338 805c11 -7 13 -16 13 -16s-175 -184 -236 -469s36 -469 36 -469s-6 -9 -19 -16c-14 -7 -23 -6 -23 -6s-106 204 -45 491s253 491 253 491s11 1 21 -6z" />
    <glyph glyph-name="parenright" unicode=")" horiz-adv-x="283" 
d="M173 320c61 285 -35 469 -35 469s5 9 19 16s22 6 22 6s106 -204 45 -491s-253 -491 -253 -491s-11 -1 -21 6c-11 7 -12 16 -12 16s174 184 235 469z" />
    <glyph glyph-name="partialdiff" unicode="&#x2202;" horiz-adv-x="556" 
d="M226 707c1 16 6 32 17 43c208 -35 300 -182 245 -440c-51 -240 -149 -320 -284 -320c-129 0 -194 74 -154 262c39 188 136 262 256 262c75 0 122 -33 146 -76c-1 134 -72 240 -226 269zM445 372c-19 67 -78 99 -145 99c-93 0 -162 -50 -197 -219
c-36 -168 17 -220 110 -220c122 0 182 96 209 220c8 40 18 80 23 120z" />
    <glyph glyph-name="percent" unicode="%" horiz-adv-x="745" 
d="M676 698l-537 -704s-9 -4 -27 -4c-15 0 -22 4 -22 4l537 704s8 4 26 4c17 0 23 -4 23 -4zM188 345c-81 0 -119 48 -92 173c26 123 85 173 166 173c80 0 121 -48 94 -173s-88 -173 -168 -173zM254 653c-51 0 -91 -32 -113 -135c-22 -104 5 -134 56 -134s90 30 112 134
c22 102 -4 135 -55 135zM498 -10c-81 0 -119 48 -92 173c26 123 84 173 165 173c80 0 121 -48 95 -173c-27 -125 -88 -173 -168 -173zM563 298c-51 0 -91 -32 -112 -135c-22 -104 4 -134 55 -134s91 30 113 134c21 102 -5 135 -56 135z" />
    <glyph glyph-name="period" unicode="." horiz-adv-x="216" 
d="M93 60l-12 -56s-12 -4 -33 -4s-31 4 -31 4l12 56s12 4 33 4s31 -4 31 -4z" />
    <glyph glyph-name="periodcentered" unicode="&#xb7;" horiz-adv-x="221" 
d="M141 310l-11 -52s-11 -4 -31 -4s-29 4 -29 4l11 52s11 4 31 4s29 -4 29 -4z" />
    <glyph glyph-name="perthousand" unicode="&#x2030;" horiz-adv-x="1064" 
d="M676 698l-537 -704s-9 -4 -27 -4c-15 0 -22 4 -22 4l537 704s8 4 26 4c17 0 23 -4 23 -4zM188 345c-81 0 -119 48 -92 173c26 123 85 173 166 173c80 0 121 -48 94 -173s-88 -173 -168 -173zM254 653c-51 0 -91 -32 -113 -135c-22 -104 5 -134 56 -134s90 30 112 134
c22 102 -4 135 -55 135zM498 -10c-81 0 -119 48 -92 173c26 123 84 173 165 173c80 0 121 -48 95 -173c-27 -125 -88 -173 -168 -173zM820 -10c-81 0 -119 48 -92 173c26 123 84 173 165 173c80 0 121 -48 95 -173c-27 -125 -88 -173 -168 -173zM563 298
c-51 0 -91 -32 -112 -135c-22 -104 4 -134 55 -134s91 30 113 134c21 102 -5 135 -56 135zM885 298c-51 0 -91 -32 -112 -135c-22 -104 4 -134 55 -134s91 30 113 134c21 102 -5 135 -56 135z" />
    <glyph glyph-name="pi" unicode="&#x3c0;" horiz-adv-x="601" 
d="M230 526h376c1 -6 1 -14 -1 -22s-4 -16 -9 -22h-73l-52 -246c-36 -169 -12 -223 -12 -223c-9 -8 -24 -13 -40 -13c-5 0 -12 0 -16 2c0 0 -20 57 17 234l52 246h-277l-101 -478s-8 -4 -26 -4s-24 4 -24 4l101 476c-44 -3 -72 -9 -72 -9c-2 6 -1 14 1 22c1 8 4 16 8 21
c0 0 44 12 148 12z" />
    <glyph glyph-name="plus" unicode="+" horiz-adv-x="460" 
d="M200 269h-148s-2 7 1 21s8 21 8 21h148l32 148s7 4 21 4s21 -4 21 -4l-32 -148h148s3 -7 0 -21s-9 -21 -9 -21h-148l-31 -148s-8 -4 -22 -4s-20 4 -20 4z" />
    <glyph glyph-name="plusminus" unicode="&#xb1;" horiz-adv-x="516" 
d="M252 381h-148s-3 7 0 21s9 21 9 21h148l25 118s8 4 22 4s20 -4 20 -4l-25 -118h148s2 -7 -1 -21s-8 -21 -8 -21h-148l-25 -118s-8 -4 -22 -4s-20 4 -20 4zM391 143h-338s-2 7 1 21s8 21 8 21h338s3 -7 0 -21s-9 -21 -9 -21z" />
    <glyph glyph-name="product" unicode="&#x220f;" horiz-adv-x="711" 
d="M686 693l-190 -896s-8 -4 -27 -4c-16 0 -23 4 -23 4l180 849h-397l-180 -849s-8 -4 -27 -4c-17 0 -23 4 -23 4l190 896h497z" />
    <glyph glyph-name="q" unicode="q" horiz-adv-x="556" 
d="M303 -241l68 319c-42 -54 -96 -88 -177 -88c-120 0 -182 80 -139 284s135 262 255 262c73 0 122 -40 139 -88l16 74s7 4 25 4s25 -4 25 -4l-162 -763s-8 -4 -26 -4s-24 4 -24 4zM107 263c-35 -165 -9 -229 102 -229c93 0 167 82 186 160l29 137c14 76 -25 161 -111 161
c-111 0 -171 -64 -206 -229z" />
    <glyph glyph-name="question" unicode="?" horiz-adv-x="426" 
d="M424 530c-43 -199 -223 -169 -265 -366c0 0 -8 -5 -23 -5c-13 0 -20 5 -20 5c48 228 217 190 254 363c14 68 -14 118 -112 118c-82 0 -137 -25 -137 -25c-11 8 -13 24 -8 38c0 0 66 32 161 32c125 0 169 -69 150 -160zM148 60l-12 -56s-12 -4 -33 -4s-31 4 -31 4l12 56
s12 4 33 4s31 -4 31 -4z" />
    <glyph glyph-name="questiondown" unicode="&#xbf;" horiz-adv-x="418" 
d="M257 460l12 56s11 4 32 4s31 -4 31 -4l-12 -56s-11 -4 -32 -4s-31 4 -31 4zM-20 -10c42 199 224 169 266 366c0 0 7 4 21 4s21 -4 21 -4c-49 -228 -217 -190 -254 -363c-14 -68 14 -118 112 -118c82 0 138 25 138 25c10 -8 13 -24 8 -38c0 0 -67 -32 -161 -32
c-125 0 -171 69 -151 160z" />
    <glyph glyph-name="quotedbl" unicode="&#x22;" horiz-adv-x="311" 
d="M125 522l31 194s10 4 27 4c18 0 25 -4 25 -4l-51 -194s-6 -3 -17 -3s-15 3 -15 3zM241 522l31 194s9 4 27 4s25 -4 25 -4l-51 -194s-6 -3 -17 -3s-15 3 -15 3z" />
    <glyph glyph-name="quotedblbase" unicode="&#x201e;" horiz-adv-x="330" 
d="M5 -102l-19 15s36 30 53 87c-15 0 -21 4 -21 4l12 56s11 4 33 4c21 0 30 -4 30 -4l-9 -40c-17 -81 -79 -122 -79 -122zM119 -102l-19 15s37 30 53 87c-15 0 -21 4 -21 4l12 56s11 4 33 4c21 0 30 -4 30 -4l-9 -40c-17 -81 -79 -122 -79 -122z" />
    <glyph glyph-name="quotedblleft" unicode="&#x201c;" horiz-adv-x="317" 
d="M317 719l19 -16s-36 -30 -52 -87c15 0 21 -4 21 -4l-12 -56s-11 -4 -33 -4c-21 0 -30 4 -30 4l8 40c18 81 79 123 79 123zM205 719l19 -16s-35 -30 -52 -87c15 0 21 -4 21 -4l-12 -56s-11 -4 -33 -4c-20 0 -30 4 -30 4l8 40c18 81 79 123 79 123z" />
    <glyph glyph-name="quotedblright" unicode="&#x201d;" horiz-adv-x="317" 
d="M139 553l-19 16s36 30 52 87c-15 0 -21 4 -21 4l12 56s11 4 33 4c21 0 30 -4 30 -4l-8 -40c-18 -81 -79 -123 -79 -123zM251 553l-19 16s35 30 52 87c-15 0 -21 4 -21 4l12 56s11 4 33 4c20 0 30 -4 30 -4l-8 -40c-18 -81 -79 -123 -79 -123z" />
    <glyph glyph-name="quoteleft" unicode="&#x2018;" horiz-adv-x="211" 
d="M211 720l18 -16s-37 -29 -54 -87c16 -1 23 -3 23 -3l-12 -57s-11 -4 -32 -4s-32 4 -32 4l9 41c17 80 80 122 80 122z" />
    <glyph glyph-name="quoteright" unicode="&#x2019;" horiz-adv-x="204" 
d="M138 553l-18 16s35 30 52 87c-15 0 -21 4 -21 4l12 56s11 4 32 4s31 -4 31 -4l-8 -40c-18 -81 -80 -123 -80 -123z" />
    <glyph glyph-name="quotesinglbase" unicode="&#x201a;" horiz-adv-x="217" 
d="M5 -102l-19 15s37 30 53 87c-14 0 -21 4 -21 4l12 56s12 4 33 4s31 -4 31 -4l-9 -40c-17 -81 -80 -122 -80 -122z" />
    <glyph glyph-name="quotesingle" unicode="'" horiz-adv-x="195" 
d="M125 522l31 194s9 4 27 4s25 -4 25 -4l-51 -194s-6 -3 -17 -3s-15 3 -15 3z" />
    <glyph glyph-name="r" unicode="r" horiz-adv-x="388" 
d="M165 441c64 93 130 94 166 94c44 0 74 -19 79 -23c-5 -18 -16 -33 -33 -42c-21 12 -42 18 -68 18c-46 0 -105 -33 -159 -119l-77 -365s-8 -4 -26 -4s-24 4 -24 4l110 518s8 4 26 4s24 -4 24 -4z" />
    <glyph glyph-name="racute" unicode="&#x155;" horiz-adv-x="388" 
d="M215 627l143 148c19 1 36 -9 42 -23l-156 -144c-15 2 -25 9 -29 19zM165 441c64 93 130 94 166 94c44 0 74 -19 79 -23c-5 -18 -16 -33 -33 -42c-21 12 -42 18 -68 18c-46 0 -105 -33 -159 -119l-77 -365s-8 -4 -26 -4s-24 4 -24 4l110 518s8 4 26 4s24 -4 24 -4z" />
    <glyph glyph-name="radical" unicode="&#x221a;" horiz-adv-x="628" 
d="M241 -15l-75 380l-118 -46c-10 7 -14 22 -8 38l163 65l73 -371l372 679c16 3 31 -1 38 -11l-401 -734h-44z" />
    <glyph glyph-name="rcaron" unicode="&#x159;" horiz-adv-x="388" 
d="M276 645l122 78c11 -3 16 -13 17 -25l-131 -96h-23l-104 96c7 13 16 21 29 26zM165 441c64 93 130 94 166 94c44 0 74 -19 79 -23c-5 -18 -16 -33 -33 -42c-21 12 -42 18 -68 18c-46 0 -105 -33 -159 -119l-77 -365s-8 -4 -26 -4s-24 4 -24 4l110 518s8 4 26 4
s24 -4 24 -4z" />
    <glyph glyph-name="rcommaaccent" unicode="&#x157;" horiz-adv-x="388" 
d="M8 -44c0 0 11 4 31 4c21 0 32 -4 32 -4l-9 -40c-17 -81 -80 -123 -80 -123l-18 16s36 30 53 87c-15 0 -21 4 -21 4zM166 441c64 93 130 94 166 94c44 0 74 -19 79 -23c-5 -18 -16 -33 -33 -42c-21 12 -42 18 -68 18c-46 0 -105 -33 -159 -119l-77 -365s-8 -4 -26 -4
s-24 4 -24 4l110 518s8 4 26 4s24 -4 24 -4z" />
    <glyph glyph-name="registered" unicode="&#xae;" horiz-adv-x="537" 
d="M259 263c-115 0 -188 93 -164 208c25 115 137 208 252 208s189 -93 164 -208c-24 -115 -137 -208 -252 -208zM342 655c-101 0 -200 -82 -222 -184s43 -184 144 -184c102 0 200 82 222 184s-42 184 -144 184zM344 589c48 0 67 -24 58 -66c-6 -30 -23 -51 -57 -61l38 -97
s-6 -4 -15 -4s-14 3 -14 3l-36 95h-63l-21 -95s-5 -3 -12 -3c-8 0 -13 3 -13 3l48 225h87zM259 481h62c34 0 49 15 55 42c6 29 -3 44 -37 44h-62z" />
    <glyph glyph-name="ring" unicode="&#x2da;" horiz-adv-x="344" 
d="M125 507c-64 0 -105 39 -90 108c14 69 78 106 136 106c57 0 108 -36 93 -106c-15 -69 -76 -108 -139 -108zM225 615c8 37 -10 71 -62 71c-51 0 -82 -35 -89 -71c-8 -37 7 -72 58 -72c52 0 85 36 93 72z" />
    <glyph glyph-name="s" unicode="s" horiz-adv-x="442" 
d="M82 405c19 86 82 131 201 131c81 0 125 -23 125 -23c-2 -14 -12 -31 -23 -39c0 0 -45 18 -106 18c-86 0 -136 -30 -150 -96c-13 -61 38 -88 98 -106c69 -22 148 -55 126 -161c-20 -92 -89 -139 -208 -139c-97 0 -148 32 -148 32c2 15 10 30 22 39c0 0 59 -26 131 -26
c75 0 137 30 152 102c16 76 -38 95 -102 114c-65 20 -138 62 -118 154z" />
    <glyph glyph-name="sacute" unicode="&#x15b;" horiz-adv-x="442" 
d="M406 752l-156 -144c-15 2 -25 9 -29 19l143 148c19 1 36 -9 42 -23zM82 405c19 86 82 131 201 131c81 0 125 -23 125 -23c-2 -14 -12 -31 -23 -39c0 0 -45 18 -106 18c-86 0 -136 -30 -150 -96c-13 -61 38 -88 98 -106c69 -22 148 -55 126 -161
c-20 -92 -89 -139 -208 -139c-97 0 -148 32 -148 32c2 15 10 30 22 39c0 0 59 -26 131 -26c75 0 137 30 152 102c16 76 -38 95 -102 114c-65 20 -138 62 -118 154z" />
    <glyph glyph-name="scaron" unicode="&#x161;" horiz-adv-x="442" 
d="M291 608l-99 94c6 12 15 21 28 24l89 -77l116 78c10 -4 20 -14 21 -25l-131 -94h-24zM82 405c19 86 82 131 201 131c81 0 125 -23 125 -23c-2 -14 -12 -31 -23 -39c0 0 -45 18 -106 18c-86 0 -136 -30 -150 -96c-13 -61 38 -88 98 -106c69 -22 148 -55 126 -161
c-20 -92 -89 -139 -208 -139c-97 0 -148 32 -148 32c2 15 10 30 22 39c0 0 59 -26 131 -26c75 0 137 30 152 102c16 76 -38 95 -102 114c-65 20 -138 62 -118 154z" />
    <glyph glyph-name="scedilla" unicode="&#x15f;" horiz-adv-x="442" 
d="M82 405c19 86 82 131 201 131c81 0 125 -23 125 -23c-2 -14 -12 -31 -23 -39c0 0 -45 18 -106 18c-86 0 -136 -30 -150 -96c-13 -61 38 -88 98 -106c69 -22 148 -55 126 -161c-18 -84 -78 -131 -179 -138l-20 -50c75 0 101 -33 90 -86c-13 -62 -60 -94 -132 -94
c-51 0 -81 22 -81 22c2 12 10 21 19 27c2 -1 30 -17 68 -17c46 0 77 20 86 63c8 34 -11 54 -55 54h-32l-6 9l28 71c-93 1 -142 32 -142 32c2 15 10 30 22 39c0 0 59 -26 131 -26c75 0 137 30 152 102c16 76 -38 95 -102 114c-65 20 -138 62 -118 154z" />
    <glyph glyph-name="scircumflex" unicode="&#x15d;" horiz-adv-x="442" 
d="M324 728l109 -102c-7 -12 -17 -23 -30 -26l-96 83l-131 -84c-12 5 -17 14 -18 27l141 102h25zM82 405c19 86 82 131 201 131c81 0 125 -23 125 -23c-2 -14 -12 -31 -23 -39c0 0 -45 18 -106 18c-86 0 -136 -30 -150 -96c-13 -61 38 -88 98 -106c69 -22 148 -55 126 -161
c-20 -92 -89 -139 -208 -139c-97 0 -148 32 -148 32c2 15 10 30 22 39c0 0 59 -26 131 -26c75 0 137 30 152 102c16 76 -38 95 -102 114c-65 20 -138 62 -118 154z" />
    <glyph glyph-name="scommaaccent" unicode="&#x219;" horiz-adv-x="442" 
d="M85 -243l-17 16s35 30 52 87c-15 0 -22 4 -22 4l12 56s12 4 33 4s31 -4 31 -4l-9 -41c-17 -80 -80 -122 -80 -122zM82 405c19 86 82 131 201 131c81 0 125 -23 125 -23c-2 -14 -12 -31 -23 -39c0 0 -45 18 -106 18c-86 0 -136 -30 -150 -96c-13 -61 38 -88 98 -106
c69 -22 148 -55 126 -161c-20 -92 -89 -139 -208 -139c-97 0 -148 32 -148 32c2 15 10 30 22 39c0 0 59 -26 131 -26c75 0 137 30 152 102c16 76 -38 95 -102 114c-65 20 -138 62 -118 154z" />
    <glyph glyph-name="section" unicode="&#xa7;" horiz-adv-x="485" 
d="M329 121c24 115 -282 65 -248 223c14 64 72 102 103 119c-33 20 -57 50 -46 103c18 83 90 124 194 124c74 0 123 -18 130 -21c0 -13 -8 -30 -20 -37c-3 1 -56 17 -108 17c-96 0 -136 -32 -147 -82c-25 -118 267 -70 234 -225c-14 -63 -68 -99 -96 -115
c39 -21 66 -51 55 -106c-22 -100 -111 -131 -217 -131c-89 0 -149 24 -149 24c1 15 7 30 20 39c4 -1 69 -19 129 -19c99 0 153 25 166 87zM221 444c-29 -15 -79 -46 -89 -93c-16 -73 76 -82 153 -108c26 14 75 44 85 93c15 69 -77 80 -149 108z" />
    <glyph glyph-name="semicolon" unicode=";" horiz-adv-x="238" 
d="M186 455l-12 -56s-12 -4 -33 -4s-31 4 -31 4l12 56s12 4 33 4s31 -4 31 -4zM13 -102l-18 15s36 30 52 87c-14 0 -21 4 -21 4l12 56s12 4 33 4s31 -4 31 -4l-9 -40c-17 -81 -80 -122 -80 -122z" />
    <glyph glyph-name="seven" unicode="7" horiz-adv-x="492" 
d="M117 680h407c1 -10 0 -20 -2 -30c-55 -250 -319 -302 -392 -646c-4 -1 -13 -4 -26 -4s-22 3 -25 4c74 350 322 411 387 628h-359s-2 9 1 24c4 16 9 24 9 24z" />
    <glyph glyph-name="seven.denom" horiz-adv-x="275" 
d="M206 310h-174c-1 2 -2 7 0 16s5 14 7 17h209s1 -10 -2 -24c-30 -139 -160 -145 -197 -317c-5 -1 -11 -2 -19 -2c-7 0 -13 1 -17 2c38 179 158 189 193 308z" />
    <glyph glyph-name="seven.num" horiz-adv-x="275" 
d="M112 689h209c1 -7 0 -16 -2 -24c-29 -139 -160 -145 -196 -317c-13 -3 -26 -3 -36 0c38 179 157 189 192 308h-174c-2 10 0 23 7 33z" />
    <glyph glyph-name="seveneighths" unicode="&#x215e;" horiz-adv-x="660" 
d="M542 698c0 0 7 4 21 4c13 0 17 -4 17 -4l-537 -705s-7 -3 -20 -3c-12 0 -19 3 -19 3zM134 689h209s1 -10 -2 -24c-29 -139 -160 -145 -196 -317c-13 -3 -26 -3 -36 0c38 178 157 189 192 308h-174c-1 10 1 23 7 33zM377 265c11 49 54 83 125 83c66 0 101 -30 89 -83
c-9 -44 -41 -72 -75 -90c33 -18 59 -42 49 -88c-12 -58 -63 -92 -137 -92c-70 0 -114 31 -101 91c11 50 50 81 87 100c-27 17 -45 39 -37 79zM556 263c8 36 -14 56 -61 56c-45 0 -75 -20 -82 -52c-10 -45 34 -60 78 -80c33 19 58 43 65 76zM530 85c11 51 -46 66 -89 88
c-20 -10 -68 -38 -78 -85c-10 -44 18 -63 72 -63c45 0 86 19 95 60z" />
    <glyph glyph-name="seveninferior" unicode="&#x2087;" horiz-adv-x="275" 
d="M185 214h-174c-2 10 0 23 7 33h209s1 -10 -2 -24c-29 -139 -162 -145 -198 -317c-13 -3 -26 -3 -36 0c38 180 159 189 194 308z" />
    <glyph glyph-name="six" unicode="6" horiz-adv-x="551" 
d="M505 681c3 -13 -1 -32 -8 -45c-160 -16 -284 -89 -352 -265c36 18 98 45 172 45c113 0 187 -68 155 -224c-29 -140 -127 -202 -253 -202c-125 0 -201 80 -161 267c59 280 231 410 447 424zM420 203c25 118 -28 170 -118 170c-77 0 -148 -39 -175 -54
c-7 -21 -12 -43 -17 -66c-33 -154 21 -220 114 -220s172 56 196 170z" />
    <glyph glyph-name="six.denom" horiz-adv-x="309" 
d="M8 143c24 109 103 191 237 203c2 -8 -1 -21 -7 -29c-90 -12 -155 -59 -182 -136c16 8 47 22 89 22c66 0 99 -39 85 -102c-15 -72 -75 -106 -134 -106c-76 0 -108 50 -88 148zM193 101c9 41 -10 71 -58 71s-79 -19 -89 -26c-17 -81 1 -121 56 -121c45 0 81 28 91 76z" />
    <glyph glyph-name="six.num" horiz-adv-x="309" 
d="M82 491c23 108 103 190 236 203c3 -9 0 -21 -6 -30c-90 -11 -155 -58 -182 -136c16 9 47 23 89 23c66 0 99 -39 85 -102c-15 -73 -75 -106 -134 -106c-76 0 -109 50 -88 148zM267 449c9 41 -11 71 -59 71s-78 -19 -88 -27c-17 -80 1 -121 56 -121c45 0 81 29 91 77z" />
    <glyph glyph-name="sixinferior" unicode="&#x2086;" horiz-adv-x="309" 
d="M-12 47c23 109 103 191 236 203c1 -9 -1 -20 -6 -29c-91 -12 -156 -59 -182 -136c16 8 47 22 89 22c66 0 98 -39 85 -102c-15 -72 -76 -106 -135 -106c-76 0 -108 50 -87 148zM173 5c9 41 -11 71 -59 71s-78 -19 -88 -26c-17 -80 1 -121 56 -121c45 0 81 28 91 76z" />
    <glyph glyph-name="slash" unicode="/" horiz-adv-x="440" 
d="M-50 -43l506 789s9 4 26 4c19 0 27 -4 27 -4l-506 -789s-11 -4 -29 -4c-17 0 -24 4 -24 4z" />
    <glyph glyph-name="space" unicode=" " horiz-adv-x="253" 
 />
    <glyph glyph-name="sterling" unicode="&#xa3;" horiz-adv-x="515" 
d="M389 316h-182c6 -85 -6 -176 -121 -268h313c3 -3 2 -13 0 -24c-2 -12 -6 -21 -10 -24h-379l10 48c130 96 138 181 130 268h-83c0 3 -2 11 1 21c2 10 5 18 8 21h70c-6 50 -13 101 -2 155c27 125 121 178 241 178c80 0 138 -23 147 -27c-2 -16 -11 -32 -25 -40
c-6 3 -59 22 -127 22c-98 0 -162 -44 -182 -136c-10 -49 -2 -99 5 -152h195c1 -3 3 -10 1 -20s-6 -18 -10 -22z" />
    <glyph glyph-name="summation" unicode="&#x2211;" horiz-adv-x="573" 
d="M-64 -178l320 439l-123 409l5 24h467s3 -8 0 -23c-4 -15 -9 -23 -9 -23h-400l116 -387l-305 -422h423s2 -8 -1 -23s-9 -23 -9 -23h-490z" />
    <glyph glyph-name="t" unicode="t" horiz-adv-x="351" 
d="M198 484l-66 -308c-21 -99 -14 -142 71 -142c29 0 65 5 65 5s4 -8 1 -22c-3 -13 -7 -19 -7 -19c-6 -1 -34 -8 -70 -8c-114 0 -135 67 -110 185l66 309h-80s-3 6 0 21s9 21 9 21h80l21 99c15 9 35 14 52 12l-23 -111h153s3 -7 0 -21s-9 -21 -9 -21h-153z" />
    <glyph glyph-name="tbar" unicode="&#x167;" horiz-adv-x="355" 
d="M206 34c29 0 65 5 65 5s4 -8 1 -22c-3 -13 -7 -19 -7 -19c-6 -1 -34 -8 -70 -8c-114 0 -135 67 -110 185l19 90h-67c0 13 3 26 8 37h67l39 182h-80s-3 6 0 21s9 21 9 21h80l21 99c15 9 35 14 52 12l-23 -111h153s3 -7 0 -21s-9 -21 -9 -21h-153l-39 -182h126
c1 -11 -2 -25 -8 -37h-126l-19 -89c-21 -99 -14 -142 71 -142z" />
    <glyph glyph-name="tcaron" unicode="&#x165;" horiz-adv-x="350" 
d="M348 588c-13 2 -19 9 -21 17c52 36 81 82 96 144c21 2 37 -1 45 -10c-18 -58 -64 -124 -120 -151zM198 484l-66 -308c-21 -99 -14 -142 71 -142c29 0 65 5 65 5s4 -8 1 -22c-3 -13 -7 -19 -7 -19c-6 -1 -34 -8 -70 -8c-114 0 -135 67 -110 185l66 309h-80s-3 6 0 21
s9 21 9 21h80l21 99c15 9 35 14 52 12l-23 -111h153s3 -7 0 -21s-9 -21 -9 -21h-153z" />
    <glyph glyph-name="thorn" unicode="&#xfe;" horiz-adv-x="557" 
d="M181 746c0 0 7 4 25 4s25 -4 25 -4l-64 -298c42 54 99 88 180 88c120 0 179 -78 136 -282s-132 -264 -252 -264c-71 0 -124 34 -142 88l-68 -319s-8 -4 -26 -4s-24 4 -24 4zM431 263c35 165 8 229 -103 229c-95 0 -167 -84 -186 -161l-28 -131c-16 -79 28 -166 114 -166
c111 0 168 64 203 229z" />
    <glyph glyph-name="three" unicode="3" horiz-adv-x="514" 
d="M419 173c-21 -96 -98 -183 -269 -183c-100 0 -157 33 -157 33c2 13 11 31 22 38c21 -7 69 -25 142 -25c134 0 193 60 211 145c27 127 -61 154 -146 154h-53c-2 14 1 29 9 43h53c75 0 164 23 189 138c17 81 -22 130 -128 130c-81 0 -145 -25 -145 -25c-11 7 -14 23 -10 37
c0 0 74 32 170 32c135 0 184 -81 163 -179c-16 -76 -53 -125 -139 -157c86 -35 107 -89 88 -181z" />
    <glyph glyph-name="three.denom" horiz-adv-x="302" 
d="M214 93c-12 -54 -51 -98 -153 -98c-52 0 -85 15 -85 15c1 9 6 20 15 26c0 0 32 -10 74 -10c82 0 105 32 113 69c11 49 -19 69 -66 69h-44c-2 9 0 22 6 31h44c46 0 75 24 82 61c9 40 -14 61 -64 61c-44 0 -80 -9 -80 -9c-4 6 -5 16 -2 27c0 0 38 13 91 13
c73 0 105 -32 93 -89c-8 -38 -27 -62 -64 -78c32 -14 51 -36 40 -88z" />
    <glyph glyph-name="three.num" horiz-adv-x="302" 
d="M287 439c-11 -54 -51 -98 -153 -98c-52 0 -84 15 -84 15c1 9 6 20 14 26c0 0 33 -10 75 -10c82 0 105 32 113 69c10 49 -20 69 -67 69h-44c-2 9 1 22 7 31h44c46 0 74 24 82 61c8 40 -14 61 -64 61c-44 0 -80 -9 -80 -9c-5 6 -6 16 -2 27c0 0 37 13 90 13
c73 0 106 -32 94 -89c-9 -38 -28 -62 -64 -78c32 -14 50 -36 39 -88z" />
    <glyph glyph-name="threeeighths" unicode="&#x215c;" horiz-adv-x="747" 
d="M629 698c0 0 7 4 21 4c13 0 17 -4 17 -4l-537 -705s-7 -3 -20 -3c-12 0 -19 3 -19 3zM140 681c0 0 37 13 90 13c73 0 106 -32 94 -89c-9 -38 -28 -62 -64 -78c32 -14 50 -36 39 -88c-11 -54 -51 -98 -153 -98c-52 0 -84 15 -84 15c1 9 6 20 14 26c0 0 33 -10 75 -10
c82 0 105 32 113 69c10 49 -20 69 -67 69h-44c-2 9 1 22 7 31h44c46 0 75 24 83 61c8 40 -15 61 -65 61c-44 0 -80 -9 -80 -9c-5 6 -6 16 -2 27zM464 265c11 49 54 83 125 83c66 0 101 -30 89 -83c-9 -44 -41 -72 -75 -90c33 -18 59 -42 49 -88c-12 -58 -63 -92 -137 -92
c-70 0 -114 31 -101 91c11 50 50 81 87 100c-27 17 -45 39 -37 79zM643 263c8 36 -14 56 -61 56c-45 0 -75 -20 -82 -52c-10 -45 34 -60 78 -80c33 19 58 43 65 76zM617 85c11 51 -46 66 -89 88c-20 -10 -68 -38 -78 -85c-10 -44 18 -63 72 -63c45 0 86 19 95 60z" />
    <glyph glyph-name="threeinferior" unicode="&#x2083;" horiz-adv-x="302" 
d="M193 -3c-11 -54 -51 -98 -153 -98c-52 0 -84 15 -84 15c1 9 6 20 14 26c0 0 33 -10 75 -10c82 0 105 32 113 69c10 49 -20 69 -67 69h-44c-2 9 1 22 7 31h44c46 0 74 24 82 61c8 40 -14 61 -64 61c-44 0 -80 -9 -80 -9c-5 6 -6 16 -2 27c0 0 38 13 91 13
c73 0 105 -32 93 -89c-8 -38 -28 -62 -64 -78c32 -14 50 -36 39 -88z" />
    <glyph glyph-name="threequarters" unicode="&#xbe;" horiz-adv-x="696" 
d="M633 698c0 0 7 4 21 4c13 0 17 -4 17 -4l-537 -705s-7 -3 -20 -3c-12 0 -19 3 -19 3zM140 681c0 0 37 13 90 13c73 0 106 -32 94 -89c-9 -38 -28 -62 -64 -78c32 -14 50 -36 39 -88c-11 -54 -51 -98 -153 -98c-52 0 -84 15 -84 15c1 9 6 20 14 26c0 0 33 -10 75 -10
c82 0 105 32 113 69c10 49 -20 69 -67 69h-44c-2 9 1 22 7 31h44c46 0 74 24 82 61c8 40 -14 61 -64 61c-44 0 -80 -9 -80 -9c-5 6 -6 16 -2 27zM579 340c3 1 9 3 19 3c9 0 14 -2 16 -3l-46 -216h42c1 -3 2 -8 0 -15c-2 -9 -5 -14 -6 -16h-42l-19 -90c-3 -1 -8 -3 -16 -3
c-9 0 -15 2 -16 3l19 90h-180c-1 2 -2 6 -1 12c1 5 4 9 6 11zM399 124h137l37 171z" />
    <glyph glyph-name="threesuperior" unicode="&#xb3;" horiz-adv-x="302" 
d="M287 439c-11 -54 -51 -98 -153 -98c-52 0 -84 15 -84 15c1 9 6 20 14 26c0 0 33 -10 75 -10c82 0 105 32 113 69c10 49 -20 69 -67 69h-44c-2 9 1 22 7 31h44c46 0 74 24 82 61c8 40 -14 61 -64 61c-44 0 -80 -9 -80 -9c-5 6 -6 16 -2 27c0 0 37 13 90 13
c73 0 106 -32 94 -89c-9 -38 -28 -62 -64 -78c32 -14 50 -36 39 -88z" />
    <glyph glyph-name="tilde" unicode="&#x2dc;" horiz-adv-x="327" 
d="M217 657c29 0 51 30 51 30c10 -4 18 -13 18 -25c0 0 -29 -45 -83 -45c-50 0 -62 35 -100 35c-29 0 -51 -30 -51 -30c-13 5 -20 13 -20 24c0 0 31 46 84 46c51 0 63 -35 101 -35z" />
    <glyph glyph-name="trademark" unicode="&#x2122;" horiz-adv-x="625" 
d="M127 720h203c1 -4 2 -7 0 -12c-1 -5 -2 -8 -5 -13h-87l-56 -260s-4 -3 -14 -3c-9 0 -13 3 -13 3l56 260h-89c0 4 -1 8 0 13c1 4 2 8 5 12zM382 717c0 0 6 3 17 3c9 0 12 -2 14 -3l32 -108c8 -25 15 -51 19 -73c13 21 29 45 50 70l79 111s7 3 17 3c11 0 15 -3 15 -3
l-60 -282s-4 -3 -12 -3c-9 0 -13 3 -13 3l28 128l24 117c-14 -21 -28 -42 -44 -62l-77 -106s-5 -3 -14 -3s-12 3 -12 3l-30 106c-6 22 -13 41 -19 62c-5 -35 -13 -74 -22 -116l-28 -129s-4 -3 -12 -3s-12 3 -12 3z" />
    <glyph glyph-name="two" unicode="2" horiz-adv-x="526" 
d="M165 616c-9 8 -12 25 -7 42c0 0 81 32 191 32s189 -56 161 -182c-25 -112 -104 -151 -238 -223c-78 -42 -186 -84 -211 -201c-5 -21 -6 -35 -6 -36h343c1 -3 2 -10 -1 -24s-7 -21 -9 -24h-389s1 32 8 67c33 156 143 198 248 257c107 60 182 95 203 192
c13 61 -1 130 -128 130c-84 0 -165 -30 -165 -30z" />
    <glyph glyph-name="two.denom" horiz-adv-x="300" 
d="M-20 41c29 136 211 113 232 212c7 34 -8 63 -70 64c-36 0 -73 -9 -75 -10c-5 8 -6 18 -2 28c0 0 38 13 89 13c80 0 106 -38 94 -92c-27 -128 -211 -98 -234 -223h182c2 -5 2 -11 0 -17c-1 -6 -3 -11 -7 -16h-214s0 18 5 41z" />
    <glyph glyph-name="two.num" horiz-adv-x="302" 
d="M55 387c29 136 211 113 232 212c8 34 -7 64 -69 64c-36 0 -72 -9 -75 -10c-6 8 -6 18 -2 28c0 0 37 13 88 13c80 0 106 -38 95 -92c-27 -128 -212 -98 -234 -223h182c1 -5 1 -11 0 -17s-3 -11 -7 -16h-214s-1 18 4 41z" />
    <glyph glyph-name="twoinferior" unicode="&#x2082;" horiz-adv-x="302" 
d="M-39 -55c29 136 211 113 232 212c8 34 -7 64 -70 64c-35 0 -72 -9 -74 -10c-5 8 -6 18 -2 28c0 0 38 13 89 13c80 0 105 -38 94 -92c-27 -128 -212 -98 -234 -223h182c2 -5 1 -11 0 -17s-3 -11 -7 -16h-214s-1 18 4 41z" />
    <glyph glyph-name="twosuperior" unicode="&#xb2;" horiz-adv-x="302" 
d="M55 387c29 136 211 113 232 212c8 34 -7 64 -70 64c-35 0 -72 -9 -74 -10c-6 8 -6 18 -2 28c0 0 37 13 88 13c80 0 106 -38 95 -92c-27 -128 -212 -98 -234 -223h182c1 -5 1 -11 0 -17s-3 -11 -7 -16h-214s-1 18 4 41z" />
    <glyph glyph-name="u" unicode="u" 
d="M51 152l78 370s9 4 26 4c18 0 24 -4 24 -4l-79 -372c-17 -80 16 -117 95 -117c62 0 136 41 184 113l80 376s9 4 26 4s24 -4 24 -4l-110 -518s-9 -4 -26 -4s-24 4 -24 4l16 72c-53 -56 -111 -86 -187 -86c-95 0 -147 66 -127 162z" />
    <glyph glyph-name="uacute" unicode="&#xfa;" 
d="M456 752l-156 -144c-15 2 -25 9 -29 19l143 148c19 1 36 -9 42 -23zM51 152l78 370s9 4 26 4c18 0 24 -4 24 -4l-79 -372c-17 -80 16 -117 95 -117c62 0 136 41 184 113l80 376s9 4 26 4s24 -4 24 -4l-110 -518s-9 -4 -26 -4s-24 4 -24 4l16 72
c-53 -56 -111 -86 -187 -86c-95 0 -147 66 -127 162z" />
    <glyph glyph-name="ubreve" unicode="&#x16d;" 
d="M352 675c67 0 119 40 119 40c14 -4 19 -13 19 -27c0 0 -47 -56 -137 -56s-134 56 -134 56c7 13 16 22 31 27c0 0 35 -40 102 -40zM51 152l78 370s9 4 26 4c18 0 24 -4 24 -4l-79 -372c-17 -80 16 -117 95 -117c62 0 136 41 184 113l80 376s9 4 26 4s24 -4 24 -4
l-110 -518s-9 -4 -26 -4s-24 4 -24 4l16 72c-53 -56 -111 -86 -187 -86c-95 0 -147 66 -127 162z" />
    <glyph glyph-name="ucircumflex" unicode="&#xfb;" 
d="M372 732l107 -104c-6 -11 -16 -22 -29 -25l-96 83l-131 -84c-12 5 -17 14 -19 26l143 104h25zM51 152l78 370s9 4 26 4c18 0 24 -4 24 -4l-79 -372c-17 -80 16 -117 95 -117c62 0 136 41 184 113l80 376s9 4 26 4s24 -4 24 -4l-110 -518s-9 -4 -26 -4s-24 4 -24 4l16 72
c-53 -56 -111 -86 -187 -86c-95 0 -147 66 -127 162z" />
    <glyph glyph-name="udieresis" unicode="&#xfc;" 
d="M251 705c0 0 11 4 31 4c19 0 29 -4 29 -4l-11 -53s-12 -3 -31 -3c-20 0 -29 3 -29 3zM400 705c0 0 10 4 30 4s29 -4 29 -4l-11 -53s-11 -3 -31 -3s-28 3 -28 3zM51 152l78 370s9 4 26 4c18 0 24 -4 24 -4l-79 -372c-17 -80 16 -117 95 -117c62 0 136 41 184 113l80 376
s9 4 26 4s24 -4 24 -4l-110 -518s-9 -4 -26 -4s-24 4 -24 4l16 72c-53 -56 -111 -86 -187 -86c-95 0 -147 66 -127 162z" />
    <glyph glyph-name="ugrave" unicode="&#xf9;" 
d="M314 775l79 -148c-8 -10 -21 -17 -37 -19l-94 144c11 13 33 24 52 23zM51 152l78 370s9 4 26 4c18 0 24 -4 24 -4l-79 -372c-17 -80 16 -117 95 -117c62 0 136 41 184 113l80 376s9 4 26 4s24 -4 24 -4l-110 -518s-9 -4 -26 -4s-24 4 -24 4l16 72
c-53 -56 -111 -86 -187 -86c-95 0 -147 66 -127 162z" />
    <glyph glyph-name="uhungarumlaut" unicode="&#x171;" 
d="M402 740l-144 -132c-14 1 -22 7 -26 17l127 135c20 1 36 -7 43 -20zM544 740l-143 -132c-14 1 -23 7 -27 17l127 135c19 1 35 -7 43 -20zM51 152l78 370s9 4 26 4c18 0 24 -4 24 -4l-79 -372c-17 -80 16 -117 95 -117c62 0 136 41 184 113l80 376s9 4 26 4s24 -4 24 -4
l-110 -518s-9 -4 -26 -4s-24 4 -24 4l16 72c-53 -56 -111 -86 -187 -86c-95 0 -147 66 -127 162z" />
    <glyph glyph-name="umacron" unicode="&#x16b;" 
d="M247 699h225c2 -10 -2 -26 -8 -37h-225c-2 12 1 26 8 37zM51 152l78 370s9 4 26 4c18 0 24 -4 24 -4l-79 -372c-17 -80 16 -117 95 -117c62 0 136 41 184 113l80 376s9 4 26 4s24 -4 24 -4l-110 -518s-9 -4 -26 -4s-24 4 -24 4l16 72c-53 -56 -111 -86 -187 -86
c-95 0 -147 66 -127 162z" />
    <glyph glyph-name="underscore" unicode="_" horiz-adv-x="531" 
d="M396 -59h-408s-3 5 1 20c3 14 8 19 8 19h408s3 -5 0 -19c-4 -15 -9 -20 -9 -20z" />
    <glyph glyph-name="uni00AD" unicode="&#xad;" horiz-adv-x="268" 
 />
    <glyph glyph-name="Tcommaaccent" unicode="&#x162;" horiz-adv-x="529" 
d="M120 720h463s2 -8 -1 -23c-3 -14 -9 -23 -9 -23h-203l-142 -670s-9 -4 -27 -4c-19 0 -25 4 -25 4l142 670h-208s-2 9 1 23s9 23 9 23zM137 -223l-19 16s35 30 52 87c-15 0 -21 4 -21 4l12 56s12 4 33 4s30 -4 30 -4l-8 -40c-18 -81 -79 -123 -79 -123z" />
    <glyph glyph-name="Tcommaaccent" unicode="&#x21a;" horiz-adv-x="529" 
d="M120 720h463s2 -8 -1 -23c-3 -14 -9 -23 -9 -23h-203l-142 -670s-9 -4 -27 -4c-19 0 -25 4 -25 4l142 670h-208s-2 9 1 23s9 23 9 23zM137 -223l-19 16s35 30 52 87c-15 0 -21 4 -21 4l12 56s12 4 33 4s30 -4 30 -4l-8 -40c-18 -81 -79 -123 -79 -123z" />
    <glyph glyph-name="tcommaaccent" unicode="&#x163;" horiz-adv-x="351" 
d="M198 484l-66 -308c-21 -99 -14 -142 71 -142c29 0 65 5 65 5s4 -8 1 -22c-3 -13 -7 -19 -7 -19c-6 -1 -34 -8 -70 -8c-114 0 -135 67 -110 185l66 309h-80s-3 6 0 21s9 21 9 21h80l21 99c15 9 35 14 52 12l-23 -111h153s3 -7 0 -21s-9 -21 -9 -21h-153zM76 -243l-17 16
s35 30 52 87c-15 0 -22 4 -22 4l12 56s12 4 33 4s31 -4 31 -4l-9 -41c-17 -80 -80 -122 -80 -122z" />
    <glyph glyph-name="tcommaaccent" unicode="&#x21b;" horiz-adv-x="351" 
d="M198 484l-66 -308c-21 -99 -14 -142 71 -142c29 0 65 5 65 5s4 -8 1 -22c-3 -13 -7 -19 -7 -19c-6 -1 -34 -8 -70 -8c-114 0 -135 67 -110 185l66 309h-80s-3 6 0 21s9 21 9 21h80l21 99c15 9 35 14 52 12l-23 -111h153s3 -7 0 -21s-9 -21 -9 -21h-153zM76 -243l-17 16
s35 30 52 87c-15 0 -22 4 -22 4l12 56s12 4 33 4s31 -4 31 -4l-9 -41c-17 -80 -80 -122 -80 -122z" />
    <glyph glyph-name="uni0401" unicode="&#x401;" horiz-adv-x="556" 
d="M320 857c0 0 11 4 31 4s29 -4 29 -4l-11 -53s-11 -4 -31 -4s-29 4 -29 4zM469 857c0 0 11 4 31 4s29 -4 29 -4l-11 -53s-11 -4 -31 -4s-29 4 -29 4zM192 720h391c1 -6 1 -13 -1 -22c-2 -10 -5 -17 -9 -24h-339l-61 -286h289c1 -7 1 -14 0 -22c-2 -9 -6 -16 -9 -23h-289
l-63 -297h349c0 -7 1 -14 -1 -22c-2 -9 -6 -17 -9 -24h-401z" />
    <glyph glyph-name="uni0410" unicode="&#x410;" horiz-adv-x="640" 
d="M381 716c0 0 10 4 27 4s25 -4 25 -4l124 -712s-10 -4 -29 -4c-14 0 -23 4 -23 4l-36 204h-337l-123 -204s-9 -4 -31 -4c-17 0 -23 4 -23 4zM397 653h-2s-10 -21 -27 -52l-210 -347h304l-60 347c-5 32 -5 52 -5 52z" />
    <glyph glyph-name="uni0411" unicode="&#x411;" horiz-adv-x="612" 
d="M192 720h383s3 -9 0 -24c-3 -14 -10 -23 -10 -23h-331l-57 -268h203c124 0 182 -90 156 -212c-26 -123 -118 -193 -242 -193h-255zM168 361l-68 -317h195c101 0 170 64 190 159c21 97 -21 158 -122 158h-195z" />
    <glyph glyph-name="uni0412" unicode="&#x412;" horiz-adv-x="629" 
d="M192 720h242c144 0 174 -95 153 -196c-25 -119 -107 -149 -125 -158c11 -6 106 -41 76 -180c-24 -115 -94 -186 -253 -186h-246zM173 386h180c110 0 162 58 181 145c18 87 -7 144 -122 144h-178zM101 45h188c122 0 175 55 195 148c22 102 -19 149 -133 149h-187z" />
    <glyph glyph-name="uni0413" unicode="&#x413;" horiz-adv-x="499" 
d="M192 720h364s2 -9 -1 -23s-9 -24 -9 -24h-312l-142 -669s-10 -4 -27 -4s-25 4 -25 4z" />
    <glyph glyph-name="uni0414" unicode="&#x414;" horiz-adv-x="680" 
d="M497 46h78l-39 -184c-4 -1 -13 -4 -25 -4c-13 0 -21 3 -24 4l29 138h-511l-29 -138c-5 -1 -13 -4 -26 -4c-12 0 -21 3 -23 4l39 184h61c59 59 104 167 149 321l102 353h362zM315 677l-90 -316c-40 -142 -88 -255 -139 -315h359l134 631h-264z" />
    <glyph glyph-name="uni0415" unicode="&#x415;" horiz-adv-x="556" 
d="M192 720h391c1 -6 1 -13 -1 -22c-2 -10 -4 -17 -9 -24h-339l-61 -286h289c1 -6 1 -14 0 -22c-2 -8 -5 -16 -9 -23h-289l-63 -297h349c0 -7 1 -14 -1 -22c-2 -9 -5 -17 -9 -24h-401z" />
    <glyph glyph-name="uni0416" unicode="&#x416;" horiz-adv-x="941" 
d="M918 716c3 1 14 4 34 4c14 0 23 -3 26 -4l-286 -346l166 -366s-12 -4 -32 -4c-17 0 -29 4 -29 4l-153 347h-135l-74 -347s-9 -4 -27 -4c-17 0 -25 4 -25 4l74 347h-140l-297 -347s-12 -4 -32 -4s-28 4 -28 4l320 379l-140 333c4 1 15 4 29 4c15 0 24 -3 27 -4l135 -320
h135l68 320s10 4 27 4s25 -4 25 -4l-68 -320h133z" />
    <glyph glyph-name="uni0417" unicode="&#x417;" horiz-adv-x="544" 
d="M136 697c0 0 81 33 187 33c150 0 203 -81 183 -194c-22 -126 -122 -160 -152 -168l-1 -2c31 -8 126 -53 97 -191c-23 -107 -106 -185 -294 -185c-112 0 -175 30 -175 30c2 15 12 33 25 41c30 -10 80 -24 154 -24c150 0 219 63 237 149c29 135 -73 159 -169 159h-54
c-4 14 0 33 10 46h54c85 0 187 23 214 150c19 88 -29 142 -144 142c-90 0 -162 -26 -162 -26c-13 9 -15 24 -10 40z" />
    <glyph glyph-name="uni0418" unicode="&#x418;" horiz-adv-x="688" 
d="M612 716c0 0 10 4 31 4s29 -4 29 -4l-151 -712s-9 -4 -27 -4c-19 0 -25 4 -25 4l103 484c26 122 39 161 39 161h-3s-22 -38 -85 -116l-422 -529c-1 0 -13 -4 -33 -4c-21 0 -29 4 -29 4l151 712s10 4 27 4c18 0 26 -4 26 -4l-104 -490c-20 -93 -38 -157 -38 -157h2
c6 13 45 67 90 124z" />
    <glyph glyph-name="uni0419" unicode="&#x419;" horiz-adv-x="688" 
d="M475 868c68 0 131 39 131 39c12 -5 19 -18 20 -32c0 0 -63 -52 -155 -52s-142 55 -142 55c8 14 19 24 32 29c0 0 45 -39 114 -39zM612 716c0 0 10 4 31 4s29 -4 29 -4l-151 -712s-9 -4 -27 -4c-19 0 -25 4 -25 4l103 484c26 122 39 161 39 161h-3s-24 -38 -86 -116
l-421 -529c-1 0 -13 -4 -33 -4c-21 0 -29 4 -29 4l151 712s10 4 27 4c18 0 26 -4 26 -4l-104 -490c-20 -93 -38 -157 -38 -157h2c6 13 46 67 91 124z" />
    <glyph glyph-name="uni041A" unicode="&#x41a;" horiz-adv-x="608" 
d="M298 397l290 319c3 1 15 4 30 4c14 0 25 -3 29 -4l-309 -345l187 -367s-11 -4 -31 -4c-18 0 -29 4 -29 4l-173 347h-127l-74 -347s-9 -4 -27 -4c-17 0 -25 4 -25 4l151 712s10 4 28 4c17 0 24 -4 24 -4l-68 -319h124z" />
    <glyph glyph-name="uni041B" unicode="&#x41b;" horiz-adv-x="660" 
d="M-10 -6c-11 0 -24 3 -32 6c0 3 -2 10 0 20s7 18 9 21c7 0 14 -1 23 -1c53 1 105 16 203 355l94 325h356l-152 -716s-10 -4 -27 -4c-18 0 -26 4 -25 4l142 671h-258l-81 -282c-106 -369 -178 -399 -252 -399z" />
    <glyph glyph-name="uni041C" unicode="&#x41c;" horiz-adv-x="844" 
d="M755 716c5 1 21 4 39 4c23 0 34 -4 34 -4l-151 -712s-9 -4 -27 -4s-25 4 -25 4l108 507c16 76 31 132 36 148h-3c-6 -12 -33 -54 -73 -105l-281 -356s-9 -4 -21 -4s-19 4 -19 4c-40 118 -81 236 -121 355c-17 48 -28 94 -28 106h-3c0 -14 -8 -71 -25 -152l-107 -503
s-8 -4 -25 -4s-24 4 -24 4l151 712s14 4 34 4c19 0 28 -4 28 -4l150 -454h2z" />
    <glyph glyph-name="uni041D" unicode="&#x41d;" horiz-adv-x="679" 
d="M542 393l69 323s10 4 27 4s25 -4 25 -4l-151 -712s-9 -4 -27 -4c-20 0 -25 4 -25 4l72 341h-368l-72 -341s-10 -4 -27 -4c-19 0 -25 4 -25 4l151 712s10 4 27 4s25 -4 25 -4l-69 -323h368z" />
    <glyph glyph-name="uni041E" unicode="&#x41e;" horiz-adv-x="676" 
d="M83 373c55 258 173 357 340 357s248 -119 192 -378c-55 -259 -167 -362 -335 -362s-252 124 -197 383zM563 360c51 239 -23 325 -144 325c-131 0 -233 -86 -284 -325c-50 -238 32 -325 145 -325c131 0 233 87 283 325z" />
    <glyph glyph-name="uni041F" unicode="&#x41f;" horiz-adv-x="668" 
d="M652 720l-152 -716s-10 -4 -26 -4c-19 0 -26 4 -26 4l142 669h-355l-142 -669s-11 -4 -28 -4s-25 4 -25 4l152 716h460z" />
    <glyph glyph-name="uni0420" unicode="&#x420;" horiz-adv-x="599" 
d="M155 301l-63 -297s-9 -4 -26 -4c-19 0 -26 4 -26 4l152 716h247c126 0 178 -95 151 -220c-26 -124 -114 -199 -240 -199h-195zM165 348h193c94 0 160 62 181 161c22 103 -18 165 -112 165h-193z" />
    <glyph glyph-name="uni0421" unicode="&#x421;" horiz-adv-x="553" 
d="M83 369c53 245 165 361 346 361c109 0 160 -33 160 -33c-4 -16 -13 -29 -25 -40c0 0 -53 27 -138 27c-133 0 -237 -74 -291 -325c-53 -251 20 -322 154 -322c93 0 160 27 160 27c7 -10 10 -26 8 -41c0 0 -67 -33 -185 -33c-180 0 -241 130 -189 379z" />
    <glyph glyph-name="uni0422" unicode="&#x422;" horiz-adv-x="529" 
d="M120 720h463s2 -8 -1 -23c-3 -14 -9 -23 -9 -23h-203l-142 -670s-9 -4 -27 -4c-19 0 -25 4 -25 4l142 670h-208s-2 9 1 23s9 23 9 23z" />
    <glyph glyph-name="uni0423" unicode="&#x423;" horiz-adv-x="609" 
d="M610 716c0 0 9 4 27 4c23 0 31 -4 31 -4l-317 -525c-102 -169 -166 -191 -240 -191c-33 0 -53 7 -53 7c-1 4 -1 13 1 23c2 9 6 18 9 21c0 0 22 -4 40 -4c53 0 95 7 160 106h-5l-158 563s10 4 30 4c17 0 25 -4 25 -4l126 -460c7 -25 11 -52 13 -61h2c6 9 16 36 33 64z" />
    <glyph glyph-name="uni0424" unicode="&#x424;" horiz-adv-x="796" 
d="M446 649l16 77s10 4 27 4s25 -4 25 -4l-16 -77c177 0 304 -69 259 -283c-46 -214 -198 -264 -375 -264l-21 -98s-11 -4 -27 -4c-18 0 -25 4 -25 4l21 98c-177 0 -301 67 -256 281s195 266 372 266zM339 146l98 460c-152 0 -272 -47 -311 -230c-39 -184 61 -230 213 -230z
M489 606l-98 -460c153 0 273 47 312 230c39 184 -61 230 -214 230z" />
    <glyph glyph-name="uni0425" unicode="&#x425;" horiz-adv-x="597" 
d="M580 716c4 1 20 4 36 4s25 -3 29 -4l-298 -344l158 -367s-12 -5 -33 -5c-15 0 -24 4 -24 4l-141 328l-275 -328c-4 -1 -22 -4 -37 -4c-16 0 -25 3 -29 4l308 366l-147 346s11 4 33 4c14 0 24 -4 24 -4l131 -308z" />
    <glyph glyph-name="uni0426" unicode="&#x426;" horiz-adv-x="700" 
d="M39 0l152 716s9 4 27 4c17 0 25 -4 25 -4l-142 -669h364l142 669s9 4 27 4c17 0 25 -4 25 -4l-142 -669h77l-39 -185c-8 -3 -16 -4 -26 -4c-9 0 -17 1 -23 4l29 138h-496z" />
    <glyph glyph-name="uni0427" unicode="&#x427;" horiz-adv-x="632" 
d="M494 385l70 331s10 4 27 4s25 -4 25 -4l-151 -712s-10 -4 -27 -4c-18 0 -25 4 -25 4l70 332c-6 -2 -94 -36 -203 -36c-132 0 -208 51 -171 229l40 187s9 4 26 4c18 0 26 -4 26 -4l-40 -187c-29 -139 17 -182 140 -182c104 0 186 36 193 38z" />
    <glyph glyph-name="uni0428" unicode="&#x428;" horiz-adv-x="958" 
d="M39 0l152 716s9 4 27 4s25 -4 25 -4l-142 -669h297l142 669s7 4 28 4c19 0 25 -4 25 -4l-142 -669h297l142 669s8 4 27 4c18 0 25 -4 25 -4l-152 -716h-751z" />
    <glyph glyph-name="uni0429" unicode="&#x429;" horiz-adv-x="983" 
d="M39 0l152 716s9 4 27 4c17 0 25 -4 25 -4l-142 -669h297l142 669s10 4 28 4c17 0 25 -4 25 -4l-142 -669h297l142 669s9 4 27 4c17 0 25 -4 25 -4l-142 -669h77l-39 -185c-8 -3 -15 -4 -25 -4c-9 0 -17 1 -24 4l29 138h-779z" />
    <glyph glyph-name="uni042A" unicode="&#x42a;" horiz-adv-x="690" 
d="M254 406h202c125 0 185 -86 160 -215c-24 -123 -121 -191 -246 -191h-254l143 673h-154s-2 9 1 23c3 15 9 24 9 24h206zM244 360l-66 -314h196c100 0 168 62 188 158c21 96 -22 156 -122 156h-196z" />
    <glyph glyph-name="uni042B" unicode="&#x42b;" horiz-adv-x="862" 
d="M191 716c0 0 9 4 28 4c17 0 24 -4 24 -4l-66 -310h202c125 0 186 -88 161 -210c-25 -123 -122 -196 -247 -196h-254zM794 716c0 0 9 4 27 4s25 -4 25 -4l-151 -712s-9 -4 -27 -4s-25 4 -25 4zM167 360l-66 -314h196c100 0 168 62 188 158c21 96 -22 156 -122 156h-196z
" />
    <glyph glyph-name="uni042C" unicode="&#x42c;" horiz-adv-x="611" 
d="M177 406h202c125 0 185 -91 160 -213c-27 -123 -121 -193 -246 -193h-254l152 716s9 4 28 4c17 0 24 -4 24 -4zM101 46h196c100 0 168 62 188 158c21 96 -22 156 -122 156h-196z" />
    <glyph glyph-name="uni042D" unicode="&#x42d;" horiz-adv-x="578" 
d="M135 697c0 0 70 33 184 33c186 0 252 -137 199 -382c-52 -249 -171 -358 -356 -358c-123 0 -181 33 -181 33c4 16 13 31 25 40c0 0 61 -26 159 -26c135 0 242 68 297 306h-285s-2 9 1 23s9 23 9 23h284c41 226 -37 295 -169 295c-90 0 -158 -26 -158 -26
c-9 10 -12 24 -9 39z" />
    <glyph glyph-name="uni042E" unicode="&#x42e;" horiz-adv-x="949" 
d="M40 4l151 712s10 4 27 4c18 0 26 -4 26 -4l-71 -333h184c58 242 177 347 341 347c169 0 247 -119 191 -378c-55 -259 -175 -362 -344 -362c-165 0 -243 104 -197 347h-184l-71 -333s-11 -4 -27 -4c-18 0 -26 4 -26 4zM691 685c-132 0 -233 -86 -284 -325
c-50 -238 13 -325 145 -325c133 0 233 87 283 325c51 239 -11 325 -144 325z" />
    <glyph glyph-name="uni042F" unicode="&#x42f;" horiz-adv-x="624" 
d="M608 720l-152 -716s-9 -4 -28 -4c-18 0 -25 4 -25 4l65 307h-189l-230 -307s-13 -4 -32 -4s-28 4 -28 4l234 313c-89 20 -128 94 -105 199c26 122 118 204 243 204h247zM545 674h-192c-91 0 -159 -59 -180 -158c-22 -100 12 -158 103 -158h202z" />
    <glyph glyph-name="uni0430" unicode="&#x430;" horiz-adv-x="554" 
d="M467 524c0 0 8 4 23 4c18 0 23 -4 23 -4l-110 -520s-9 -4 -22 -4s-21 4 -21 4l13 77c-42 -55 -103 -91 -184 -91c-117 0 -177 79 -134 283s133 263 250 263c77 0 122 -36 143 -91zM421 327c16 78 -20 165 -114 165c-108 0 -167 -64 -202 -229s-5 -229 103 -229
c94 0 170 87 186 166z" />
    <glyph glyph-name="uni0431" unicode="&#x431;" horiz-adv-x="568" 
d="M86 351c63 298 164 331 388 371c39 7 49 11 69 35c16 -1 28 -7 33 -18c-19 -38 -40 -52 -100 -63c-198 -37 -279 -64 -337 -276h4c37 60 104 114 205 114c124 0 185 -84 146 -268c-40 -184 -125 -256 -258 -256c-127 0 -215 56 -150 361zM331 472
c-88 0 -168 -44 -205 -220c-37 -172 22 -220 112 -220c91 0 169 48 206 220c36 172 -22 220 -113 220z" />
    <glyph glyph-name="uni0432" unicode="&#x432;" horiz-adv-x="515" 
d="M338 526c89 0 134 -54 115 -143c-12 -58 -48 -98 -95 -118c55 -19 75 -68 62 -131c-20 -92 -86 -134 -186 -134h-212l112 526h204zM133 287h144c67 0 113 37 126 100c14 65 -17 97 -84 97h-144zM81 42h155c72 0 118 33 132 100c14 64 -13 104 -89 104h-155z" />
    <glyph glyph-name="uni0433" unicode="&#x433;" horiz-adv-x="398" 
d="M134 526h282s2 -8 -1 -22s-9 -22 -9 -22h-232l-101 -478s-7 -4 -26 -4c-18 0 -24 4 -24 4z" />
    <glyph glyph-name="uni0434" unicode="&#x434;" horiz-adv-x="569" 
d="M-30 42h44c33 32 66 88 111 246l70 238h312l-103 -484h63l-35 -166c-4 -1 -11 -4 -23 -4c-13 0 -21 3 -24 4l26 124h-403l-26 -124c-4 -1 -11 -4 -25 -4c-13 0 -20 3 -22 4zM229 483l-58 -199c-38 -135 -69 -198 -100 -242h283l94 441h-219z" />
    <glyph glyph-name="uni0435" unicode="&#x435;" horiz-adv-x="505" 
d="M429 247h-330c-25 -142 14 -211 122 -211c79 0 136 38 136 38c9 -8 17 -23 14 -39c0 0 -57 -45 -162 -45c-136 0 -196 108 -154 289c40 174 136 257 256 257c117 0 173 -82 148 -194c-14 -62 -30 -95 -30 -95zM415 353c16 74 -13 140 -108 140c-91 0 -163 -62 -199 -205
h287c1 2 12 25 20 65z" />
    <glyph glyph-name="uni0436" unicode="&#x436;" horiz-adv-x="769" 
d="M712 522c0 0 11 4 34 4c18 0 24 -4 24 -4l-209 -250l124 -267s-10 -5 -31 -5c-16 0 -25 5 -25 5l-115 249h-113l-53 -250s-9 -4 -26 -4s-24 4 -24 4l53 250h-113l-215 -249s-12 -5 -34 -5c-21 0 -28 5 -28 5l240 278l-106 239s9 4 28 4c17 0 26 -4 26 -4l98 -226h113
l48 226s9 4 26 4c16 0 24 -4 24 -4l-48 -226h113z" />
    <glyph glyph-name="uni0437" unicode="&#x437;" horiz-adv-x="449" 
d="M98 512c0 0 55 24 152 24c126 0 158 -71 142 -150c-12 -60 -43 -100 -102 -120v-1c57 -20 74 -73 62 -132c-18 -85 -72 -143 -233 -143c-95 0 -141 27 -141 27c3 15 11 29 23 38c0 0 45 -21 125 -21c112 0 163 39 179 110c14 69 -33 102 -125 102h-57s-3 9 0 22
c2 12 9 21 9 21h57c77 0 137 23 154 100c15 70 -17 104 -114 104c-73 0 -125 -19 -125 -19c-10 8 -10 24 -6 38z" />
    <glyph glyph-name="uni0438" unicode="&#x438;" horiz-adv-x="578" 
d="M143 140l339 382s9 4 28 4c20 0 27 -4 27 -4l-110 -518s-10 -4 -26 -4s-25 4 -25 4l74 348c14 65 25 107 26 107h-3c1 -1 -37 -49 -76 -94l-320 -361s-10 -4 -29 -4c-18 0 -26 4 -26 4l110 518s9 4 26 4c18 0 24 -4 24 -4l-75 -353c-12 -57 -25 -102 -25 -102h2
s22 31 59 73z" />
    <glyph glyph-name="uni0439" unicode="&#x439;" horiz-adv-x="578" 
d="M367 671c67 0 119 40 119 40c13 -4 20 -15 20 -29c0 0 -53 -54 -143 -54s-129 56 -129 56c7 13 16 22 30 27c0 0 36 -40 103 -40zM482 522c0 0 9 4 28 4c20 0 27 -4 27 -4l-110 -518s-10 -4 -26 -4s-25 4 -25 4l74 348c13 64 24 106 26 107h-3s-27 -37 -63 -78l-333 -377
s-10 -4 -29 -4c-18 0 -26 4 -26 4l110 518s9 4 26 4c18 0 24 -4 24 -4l-75 -353c-12 -57 -25 -102 -25 -102h2s22 31 59 73z" />
    <glyph glyph-name="uni043A" unicode="&#x43a;" horiz-adv-x="496" 
d="M240 296l200 226s8 4 31 4c18 0 27 -3 27 -3l-225 -253l139 -265s-11 -5 -30 -5c-15 0 -24 5 -24 5l-128 249h-105l-53 -250s-9 -4 -26 -4s-24 4 -24 4l110 518s8 4 25 4s25 -4 25 -4l-48 -226h106z" />
    <glyph glyph-name="uni043B" unicode="&#x43b;" horiz-adv-x="551" 
d="M184 290c-81 -265 -126 -296 -193 -296c-17 0 -31 5 -31 5s-3 6 0 18c2 12 8 20 8 20s11 -2 27 -1c51 1 88 70 142 258l68 232h306l-111 -522s-10 -4 -26 -4c-17 0 -24 4 -24 4l102 479h-212z" />
    <glyph glyph-name="uni043C" unicode="&#x43c;" horiz-adv-x="672" 
d="M571 522c0 0 12 4 33 4c17 0 27 -4 27 -4l-110 -518s-8 -4 -25 -4s-24 4 -24 4l76 357c10 48 20 81 24 95h-2c-9 -13 -25 -38 -54 -74l-209 -255s-7 -3 -16 -3s-14 3 -14 3l-93 250c-13 37 -19 65 -21 78h-3c-1 -13 -4 -47 -14 -94l-76 -357s-9 -4 -25 -4s-23 4 -23 4
l110 518s11 4 28 4c16 0 24 -4 24 -4l118 -334h2z" />
    <glyph glyph-name="uni043D" unicode="&#x43d;" horiz-adv-x="561" 
d="M124 249l-52 -245s-8 -4 -26 -4c-17 0 -24 4 -24 4l110 518s8 4 26 4s24 -4 24 -4l-49 -229h288l49 229s9 4 26 4c18 0 24 -4 24 -4l-110 -518s-9 -4 -26 -4c-18 0 -24 4 -24 4l52 245h-288z" />
    <glyph glyph-name="uni043E" unicode="&#x43e;" horiz-adv-x="538" 
d="M55 274c42 198 142 262 260 262c131 0 193 -83 151 -281s-140 -265 -261 -265c-131 0 -192 86 -150 284zM416 263c37 177 -11 231 -107 231c-86 0 -168 -54 -205 -231c-38 -177 11 -231 107 -231c86 0 167 54 205 231z" />
    <glyph glyph-name="uni043F" unicode="&#x43f;" horiz-adv-x="551" 
d="M174 482l-101 -478s-9 -4 -26 -4s-24 4 -24 4l111 522h377l-111 -522s-8 -4 -25 -4c-18 0 -25 4 -25 4l101 478h-277z" />
    <glyph glyph-name="uni0440" unicode="&#x440;" horiz-adv-x="555" 
d="M167 448c42 54 99 88 180 88c120 0 177 -79 134 -283s-130 -263 -250 -263c-68 0 -121 47 -140 98l-70 -329s-8 -4 -26 -4s-24 4 -24 4l162 763s8 4 26 4s24 -4 24 -4zM431 263c35 165 6 229 -105 229c-95 0 -167 -83 -184 -161l-26 -121c-17 -79 34 -176 117 -176
c111 0 163 64 198 229z" />
    <glyph glyph-name="uni0441" unicode="&#x441;" horiz-adv-x="442" 
d="M318 491c-116 0 -184 -75 -216 -226c-33 -153 7 -228 124 -228c61 0 102 21 102 21c10 -7 16 -23 14 -39c0 0 -48 -29 -133 -29c-135 0 -193 107 -155 285s129 261 264 261c81 0 116 -24 116 -24c-3 -15 -12 -30 -26 -39c0 0 -32 18 -90 18z" />
    <glyph glyph-name="uni0442" unicode="&#x442;" horiz-adv-x="429" 
d="M76 526h372s3 -7 0 -22s-10 -23 -10 -23h-161l-101 -477s-8 -4 -26 -4s-24 4 -24 4l101 477h-161s-3 8 0 23s10 22 10 22z" />
    <glyph glyph-name="uni0443" unicode="&#x443;" 
d="M459 522c0 0 9 4 26 4s24 -4 24 -4l-106 -500c-39 -184 -101 -272 -278 -272c-86 0 -135 27 -135 27c3 15 10 30 23 38c0 0 53 -20 117 -20c126 0 186 42 227 227l12 54c-53 -56 -109 -86 -185 -86c-106 0 -154 67 -133 167l78 365s9 4 26 4c18 0 24 -4 24 -4l-79 -372
c-17 -80 16 -117 95 -117c62 0 136 41 184 113z" />
    <glyph glyph-name="uni0444" unicode="&#x444;" horiz-adv-x="778" 
d="M458 746c0 0 7 4 25 4s25 -4 25 -4l-50 -232s55 23 125 22c132 -2 159 -101 121 -279s-104 -267 -237 -267c-75 0 -115 25 -115 25l-55 -261s-8 -4 -26 -4s-24 4 -24 4l55 261s-50 -25 -125 -25c-133 0 -159 101 -121 279s104 267 237 267c69 0 115 -22 115 -22zM400 470
c-1 -1 -37 23 -108 23c-100 0 -152 -74 -185 -230s-13 -229 87 -229c66 0 119 27 119 27zM653 263c33 156 13 230 -87 230c-71 0 -117 -24 -118 -23l-87 -409s41 -27 107 -27c100 0 152 73 185 229z" />
    <glyph glyph-name="uni0445" unicode="&#x445;" horiz-adv-x="488" 
d="M205 268l-124 254s10 4 29 4c15 0 24 -4 24 -4l108 -218l198 218s4 4 29 4c19 0 31 -4 31 -4l-233 -255l129 -263s-10 -4 -29 -4c-15 0 -23 4 -23 4l-113 226l-205 -226s-4 -5 -31 -5c-17 0 -30 5 -30 5z" />
    <glyph glyph-name="uni0446" unicode="&#x446;" horiz-adv-x="576" 
d="M462 522c0 0 9 4 26 4c18 0 25 -4 25 -4l-102 -478h63l-35 -168c-4 -1 -11 -4 -24 -4s-21 3 -23 4l26 124h-396l111 522s9 4 26 4c19 0 25 -4 25 -4l-102 -478h278z" />
    <glyph glyph-name="uni0447" unicode="&#x447;" horiz-adv-x="519" 
d="M477 522l-110 -518s-8 -4 -26 -4s-24 4 -24 4l50 234c-24 -12 -78 -35 -158 -35c-125 0 -166 58 -144 160l34 159s9 4 26 4s24 -4 24 -4l-34 -160c-17 -79 14 -116 109 -116c72 0 129 25 152 38l51 238s8 4 26 4s24 -4 24 -4z" />
    <glyph glyph-name="uni0448" unicode="&#x448;" horiz-adv-x="792" 
d="M22 0l111 522s8 4 26 4s24 -4 24 -4l-102 -478h233l102 478s8 4 26 4s25 -4 25 -4l-102 -478h234l102 478s8 4 26 4s24 -4 24 -4l-111 -522h-618z" />
    <glyph glyph-name="uni0449" unicode="&#x449;" horiz-adv-x="814" 
d="M712 44l-35 -168c-4 -1 -11 -4 -24 -4s-21 3 -23 4l26 124h-634l111 522s8 4 26 4s24 -4 24 -4l-102 -478h233l102 478s8 4 26 4s25 -4 25 -4l-102 -478h234l102 478s8 4 26 4s24 -4 24 -4l-102 -478h63z" />
    <glyph glyph-name="uni044A" unicode="&#x44a;" horiz-adv-x="561" 
d="M196 300h169c96 0 135 -68 116 -158s-84 -142 -180 -142h-219l102 481h-119c0 3 -3 10 0 23c3 12 8 19 10 22h169zM141 42h161c72 0 114 39 129 107c14 68 -11 109 -83 109h-161z" />
    <glyph glyph-name="uni044B" unicode="&#x44b;" horiz-adv-x="714" 
d="M133 522c4 1 14 4 26 4c13 0 21 -3 24 -4l-47 -222h169c96 0 134 -68 115 -158s-83 -142 -179 -142h-219zM622 522c4 1 12 4 27 4c14 0 20 -3 24 -4l-110 -518c-4 -1 -12 -4 -27 -4c-14 0 -20 3 -24 4zM127 258l-46 -216h161c72 0 114 39 129 107c14 68 -11 109 -83 109
h-161z" />
    <glyph glyph-name="uni044C" unicode="&#x44c;" horiz-adv-x="499" 
d="M136 300h169c96 0 134 -67 115 -157s-83 -143 -179 -143h-219l111 522c4 1 14 4 26 4c13 0 21 -3 24 -4zM81 42h161c72 0 114 39 129 107c14 68 -11 109 -83 109h-161z" />
    <glyph glyph-name="uni044D" unicode="&#x44d;" horiz-adv-x="451" 
d="M324 245h-213c0 3 -2 10 0 21c3 10 7 18 9 21h212c24 135 -16 206 -125 206c-59 0 -104 -17 -104 -17c-8 9 -10 21 -7 36c0 0 49 24 130 24c136 0 193 -95 155 -273s-136 -273 -271 -273c-86 0 -131 29 -131 29c4 16 13 29 25 37c0 0 41 -21 101 -21
c113 0 185 69 219 210z" />
    <glyph glyph-name="uni044E" unicode="&#x44e;" horiz-adv-x="779" 
d="M290 281c44 184 137 255 265 255c133 0 194 -80 152 -278s-136 -268 -268 -268c-126 0 -190 68 -159 247h-158l-49 -233c-3 -1 -12 -4 -26 -4s-20 3 -24 4l110 518c4 1 12 4 26 4s21 -3 24 -4l-51 -241h158zM656 263c37 177 -13 231 -110 231s-171 -54 -208 -231
c-38 -177 13 -231 110 -231s170 54 208 231z" />
    <glyph glyph-name="uni044F" unicode="&#x44f;" horiz-adv-x="521" 
d="M203 218l-161 -214c-4 -1 -16 -4 -33 -4c-15 0 -22 3 -26 4l171 222c-63 20 -86 73 -71 145c19 92 90 155 196 155h202l-111 -522c-4 -1 -12 -4 -26 -4s-21 3 -24 4l45 214h-162zM278 484c-81 0 -128 -42 -143 -113c-14 -66 4 -111 85 -111h154l48 224h-144z" />
    <glyph glyph-name="uni0451" unicode="&#x451;" horiz-adv-x="505" 
d="M247 699c0 0 10 4 30 4s30 -4 30 -4l-12 -53s-11 -4 -31 -4s-29 4 -29 4zM396 699c0 0 10 4 30 4s30 -4 30 -4l-12 -53s-11 -4 -31 -4s-29 4 -29 4zM429 247h-330c-25 -142 14 -211 122 -211c79 0 136 38 136 38c9 -8 17 -23 14 -39c0 0 -57 -45 -162 -45
c-136 0 -196 108 -154 289c40 174 136 257 256 257c117 0 173 -82 148 -194c-14 -62 -30 -95 -30 -95zM415 353c16 74 -13 140 -108 140c-91 0 -163 -62 -199 -205h287c1 2 12 25 20 65z" />
    <glyph glyph-name="uni2113" unicode="&#x2113;" horiz-adv-x="453" 
d="M169 526c32 153 82 224 197 224c92 0 123 -60 104 -149c-27 -125 -152 -253 -309 -347l-24 -114c-17 -80 6 -105 62 -105c67 0 137 56 137 56c13 -2 22 -13 22 -26c0 0 -77 -75 -181 -75c-92 0 -110 55 -82 189l10 46c-19 -10 -63 -31 -83 -40c-9 9 -11 20 -8 36
c35 15 70 34 101 52zM419 600c15 66 2 110 -59 110c-65 0 -109 -33 -133 -143l-55 -260c122 84 225 186 247 293z" />
    <glyph glyph-name="uni2117" unicode="&#x2117;" horiz-adv-x="806" 
d="M73 340c40 187 223 337 410 337s305 -150 265 -337s-222 -338 -409 -338s-306 151 -266 338zM710 340c35 165 -70 299 -235 299s-329 -134 -364 -299s71 -300 236 -300s328 135 363 300zM346 523h139c79 0 119 -52 103 -128c-17 -78 -79 -129 -158 -129h-99l-26 -124
c-12 -5 -29 -5 -40 0zM378 487l-39 -185h95c55 0 99 31 112 93c13 60 -18 92 -73 92h-95z" />
    <glyph glyph-name="uni2153" unicode="&#x2153;" horiz-adv-x="704" 
d="M585 698c0 0 7 4 21 4c13 0 17 -4 17 -4l-537 -705s-7 -3 -20 -3c-12 0 -19 3 -19 3zM232 686c4 2 11 3 18 3c6 0 13 -1 16 -3l-72 -338c-4 -1 -10 -2 -16 -2s-13 0 -19 2l54 253c3 16 6 28 9 40c-33 -24 -73 -44 -117 -54c-6 7 -6 19 -2 30c49 12 98 41 129 69zM450 335
c0 0 38 13 91 13c73 0 104 -32 92 -89c-8 -38 -26 -62 -63 -78c32 -14 51 -36 40 -88c-12 -54 -51 -98 -154 -98c-51 0 -84 15 -84 15c1 9 6 20 15 26c0 0 31 -10 74 -10c82 0 105 32 113 69c11 49 -19 69 -66 69h-44c-2 9 0 22 6 31h44c46 0 75 24 82 61
c9 40 -14 61 -64 61c-45 0 -80 -9 -80 -9c-4 6 -5 16 -2 27z" />
    <glyph glyph-name="uni2154" unicode="&#x2154;" horiz-adv-x="767" 
d="M111 -7l538 705s7 4 21 4c13 0 17 -4 17 -4l-537 -705s-7 -3 -20 -3c-12 0 -19 3 -19 3zM67 387c29 136 211 113 232 212c8 34 -7 63 -69 64c-36 0 -73 -9 -75 -10c-5 8 -5 18 -2 28c0 0 37 13 88 13c80 0 106 -38 95 -92c-27 -128 -212 -98 -234 -223h182
c1 -5 1 -11 0 -17s-3 -11 -7 -16h-214s-1 18 4 41zM674 93c-12 -54 -51 -98 -154 -98c-51 0 -84 15 -84 15c1 9 6 20 15 26c0 0 31 -10 74 -10c82 0 105 32 113 69c11 49 -19 69 -66 69h-44c-2 9 0 22 6 31h44c46 0 75 24 82 61c9 40 -14 61 -64 61c-45 0 -80 -9 -80 -9
c-4 6 -5 16 -2 27c0 0 38 13 91 13c73 0 104 -32 92 -89c-8 -38 -26 -62 -63 -78c32 -14 51 -36 40 -88z" />
    <glyph glyph-name="uni2196" unicode="&#x2196;" horiz-adv-x="509" 
d="M126 534h295c1 -6 1 -12 -1 -19c-1 -6 -3 -12 -6 -18h-230l249 -315c-8 -13 -22 -23 -36 -29l-248 317l-48 -230c-6 -3 -13 -4 -19 -4c-7 0 -13 1 -18 4z" />
    <glyph glyph-name="uni2197" unicode="&#x2197;" horiz-adv-x="512" 
d="M480 534l-62 -294c-7 -3 -13 -4 -20 -4c-6 0 -13 1 -17 4l49 229l-383 -316c-11 5 -20 16 -22 29l383 315h-230c-1 6 -1 12 0 18c2 7 4 13 7 19h295z" />
    <glyph glyph-name="uni2198" unicode="&#x2198;" horiz-adv-x="504" 
d="M363 207l49 229c5 3 12 4 18 4c7 0 13 -1 19 -4l-63 -294h-295c-1 6 0 12 1 19c1 6 4 12 7 18h230l-249 315c7 13 21 23 35 29z" />
    <glyph glyph-name="uni2199" unicode="&#x2199;" horiz-adv-x="510" 
d="M99 208l382 316c12 -6 22 -17 23 -29l-383 -315h230c1 -6 1 -12 -1 -19c-1 -6 -4 -13 -7 -18h-295l63 294c6 3 13 4 20 4c6 0 12 -1 17 -4z" />
    <glyph glyph-name="uni2215" unicode="&#x2215;" horiz-adv-x="471" 
d="M-47 -5l536 703s9 4 25 4c15 0 21 -4 21 -4l-537 -703s-9 -5 -25 -5c-14 0 -20 5 -20 5z" />
    <glyph glyph-name="uni2219" unicode="&#x2219;" horiz-adv-x="228" 
d="M112 303c-17 0 -30 11 -26 33c5 22 23 33 40 33c16 0 31 -11 26 -33c-4 -22 -24 -33 -40 -33z" />
    <glyph glyph-name="uogonek" unicode="&#x173;" 
d="M459 522c0 0 9 4 26 4s24 -4 24 -4l-110 -519c-42 -14 -100 -54 -111 -105c-5 -27 9 -39 41 -39c23 0 41 9 41 9c6 -6 7 -18 5 -28c0 0 -27 -17 -64 -17c-54 0 -74 29 -66 69c11 51 59 94 105 118l15 71c-53 -56 -111 -91 -187 -91c-95 0 -150 59 -130 149l81 383
s9 4 26 4c18 0 24 -4 24 -4l-79 -372c-17 -80 16 -117 95 -117c62 0 136 41 184 113z" />
    <glyph glyph-name="uring" unicode="&#x16f;" 
d="M244 701c15 69 76 106 134 106c57 0 110 -36 95 -106c-15 -69 -71 -108 -134 -108c-64 0 -110 39 -95 108zM434 701c8 37 -10 71 -62 71c-51 0 -81 -35 -89 -71c-8 -37 8 -72 59 -72c52 0 84 36 92 72zM51 152l78 370s9 4 26 4c18 0 24 -4 24 -4l-79 -372
c-17 -80 16 -117 95 -117c62 0 136 41 184 113l80 376s9 4 26 4s24 -4 24 -4l-110 -518s-9 -4 -26 -4s-24 4 -24 4l16 72c-53 -56 -111 -86 -187 -86c-95 0 -147 66 -127 162z" />
    <glyph glyph-name="utilde" unicode="&#x169;" 
d="M228 670c0 0 20 45 74 45c51 0 72 -35 110 -35c29 0 52 30 52 30c11 -4 19 -11 19 -25c0 0 -20 -44 -74 -44c-51 0 -72 35 -110 35c-29 0 -52 -31 -52 -31c-13 5 -19 14 -19 25zM51 152l78 370s9 4 26 4c18 0 24 -4 24 -4l-79 -372c-17 -80 16 -117 95 -117
c62 0 136 41 184 113l80 376s9 4 26 4s24 -4 24 -4l-110 -518s-9 -4 -26 -4s-24 4 -24 4l16 72c-53 -56 -111 -86 -187 -86c-95 0 -147 66 -127 162z" />
    <glyph glyph-name="v" unicode="v" horiz-adv-x="501" 
d="M123 522l61 -362c9 -55 10 -100 10 -100h3s20 42 53 98l214 364s8 4 29 4c16 0 24 -4 24 -4l-304 -518s-11 -4 -27 -4c-17 0 -25 4 -25 4l-88 518s10 4 28 4c15 0 22 -4 22 -4z" />
    <glyph glyph-name="w" unicode="w" horiz-adv-x="792" 
d="M479 4l-40 334c-10 85 -8 119 -8 127h-3c-2 -8 -15 -42 -61 -127l-182 -334c-4 -1 -13 -4 -25 -4c-13 0 -20 3 -25 4l-57 518s8 4 25 4c16 0 23 -4 23 -4l41 -374c5 -49 3 -79 2 -85h3c3 6 14 37 40 85l202 374s10 4 31 4c13 0 19 -4 19 -4l45 -372c5 -50 2 -81 1 -87h3
c3 6 14 35 41 86l198 373s6 4 28 4c17 0 26 -4 26 -4l-277 -518c-5 -1 -13 -4 -26 -4c-12 0 -19 3 -24 4z" />
    <glyph glyph-name="wacute" unicode="&#x1e83;" horiz-adv-x="792" 
d="M570 752l-156 -144c-15 2 -25 9 -29 19l143 148c19 1 36 -9 42 -23zM479 4l-40 334c-10 85 -8 119 -8 127h-3c-2 -8 -15 -42 -61 -127l-182 -334c-4 -1 -13 -4 -25 -4c-13 0 -20 3 -25 4l-57 518s8 4 25 4c16 0 23 -4 23 -4l41 -374c5 -49 3 -79 2 -85h3c3 6 14 37 40 85
l202 374s10 4 31 4c13 0 19 -4 19 -4l45 -372c5 -50 2 -81 1 -87h3c3 6 14 35 41 86l198 373s6 4 28 4c17 0 26 -4 26 -4l-277 -518c-5 -1 -13 -4 -26 -4c-12 0 -19 3 -24 4z" />
    <glyph glyph-name="wcircumflex" unicode="&#x175;" horiz-adv-x="792" 
d="M497 731l107 -103c-6 -11 -16 -22 -29 -25l-95 83l-131 -84c-12 5 -17 14 -19 26l142 103h25zM479 4l-40 334c-10 85 -8 119 -8 127h-3c-2 -8 -15 -42 -61 -127l-182 -334c-4 -1 -13 -4 -25 -4c-13 0 -20 3 -25 4l-57 518s8 4 25 4c16 0 23 -4 23 -4l41 -374
c5 -49 3 -79 2 -85h3c3 6 14 37 40 85l202 374s10 4 31 4c13 0 19 -4 19 -4l45 -372c5 -50 2 -81 1 -87h3c3 6 14 35 41 86l198 373s6 4 28 4c17 0 26 -4 26 -4l-277 -518c-5 -1 -13 -4 -26 -4c-12 0 -19 3 -24 4z" />
    <glyph glyph-name="wdieresis" unicode="&#x1e85;" horiz-adv-x="792" 
d="M438 699l-12 -53s-11 -4 -31 -4s-29 4 -29 4l12 53s10 4 30 4s30 -4 30 -4zM587 699l-12 -53s-11 -4 -31 -4s-29 4 -29 4l12 53s10 4 30 4s30 -4 30 -4zM479 4l-40 334c-10 85 -8 119 -8 127h-3c-2 -8 -15 -42 -61 -127l-182 -334c-4 -1 -13 -4 -25 -4c-13 0 -20 3 -25 4
l-57 518s8 4 25 4c16 0 23 -4 23 -4l41 -374c5 -49 3 -79 2 -85h3c3 6 14 37 40 85l202 374s10 4 31 4c13 0 19 -4 19 -4l45 -372c5 -50 2 -81 1 -87h3c3 6 14 35 41 86l198 373s6 4 28 4c17 0 26 -4 26 -4l-277 -518c-5 -1 -13 -4 -26 -4c-12 0 -19 3 -24 4z" />
    <glyph glyph-name="wgrave" unicode="&#x1e81;" horiz-adv-x="792" 
d="M463 608l-94 144c11 13 33 24 52 23l79 -148c-8 -10 -21 -17 -37 -19zM479 4l-40 334c-10 85 -8 119 -8 127h-3c-2 -8 -15 -42 -61 -127l-182 -334c-4 -1 -13 -4 -25 -4c-13 0 -20 3 -25 4l-57 518s8 4 25 4c16 0 23 -4 23 -4l41 -374c5 -49 3 -79 2 -85h3
c3 6 14 37 40 85l202 374s10 4 31 4c13 0 19 -4 19 -4l45 -372c5 -50 2 -81 1 -87h3c3 6 14 35 41 86l198 373s6 4 28 4c17 0 26 -4 26 -4l-277 -518c-5 -1 -13 -4 -26 -4c-12 0 -19 3 -24 4z" />
    <glyph glyph-name="x" unicode="x" horiz-adv-x="488" 
d="M205 268l-124 254s10 4 29 4c15 0 24 -4 24 -4l108 -218l198 218s4 4 29 4c19 0 31 -4 31 -4l-233 -255l129 -263s-10 -4 -29 -4c-15 0 -23 4 -23 4l-113 226l-205 -226s-4 -5 -31 -5c-17 0 -30 5 -30 5z" />
    <glyph glyph-name="y" unicode="y" 
d="M459 522c0 0 9 4 26 4s24 -4 24 -4l-106 -500c-39 -184 -101 -272 -278 -272c-86 0 -135 27 -135 27c3 15 10 30 23 38c0 0 53 -20 117 -20c126 0 186 42 227 227l12 54c-53 -56 -109 -86 -185 -86c-106 0 -154 67 -133 167l78 365s9 4 26 4c18 0 24 -4 24 -4l-79 -372
c-17 -80 16 -117 95 -117c62 0 136 41 184 113z" />
    <glyph glyph-name="yacute" unicode="&#xfd;" 
d="M452 741l-152 -141c-15 2 -25 8 -28 18l139 145c19 1 36 -8 41 -22zM459 522c0 0 9 4 26 4s24 -4 24 -4l-106 -500c-39 -184 -101 -272 -278 -272c-86 0 -135 27 -135 27c3 15 10 30 23 38c0 0 53 -20 117 -20c126 0 186 42 227 227l12 54c-53 -56 -109 -86 -185 -86
c-106 0 -154 67 -133 167l78 365s9 4 26 4c18 0 24 -4 24 -4l-79 -372c-17 -80 16 -117 95 -117c62 0 136 41 184 113z" />
    <glyph glyph-name="ycircumflex" unicode="&#x177;" 
d="M377 731l107 -103c-6 -11 -16 -22 -29 -25l-95 83l-131 -84c-12 5 -17 14 -19 26l142 103h25zM459 522c0 0 9 4 26 4s24 -4 24 -4l-106 -500c-39 -184 -101 -272 -278 -272c-86 0 -135 27 -135 27c3 15 10 30 23 38c0 0 53 -20 117 -20c126 0 186 42 227 227l12 54
c-53 -56 -109 -86 -185 -86c-106 0 -154 67 -133 167l78 365s9 4 26 4c18 0 24 -4 24 -4l-79 -372c-17 -80 16 -117 95 -117c62 0 136 41 184 113z" />
    <glyph glyph-name="ydieresis" unicode="&#xff;" 
d="M316 706l-11 -53s-11 -4 -31 -4s-29 4 -29 4l11 53s11 4 31 4s29 -4 29 -4zM465 706l-11 -53s-11 -4 -31 -4s-29 4 -29 4l11 53s11 4 31 4s29 -4 29 -4zM459 522c0 0 9 4 26 4s24 -4 24 -4l-106 -500c-39 -184 -101 -272 -278 -272c-86 0 -135 27 -135 27
c3 15 10 30 23 38c0 0 53 -20 117 -20c126 0 186 42 227 227l12 54c-53 -56 -109 -86 -185 -86c-106 0 -154 67 -133 167l78 365s9 4 26 4c18 0 24 -4 24 -4l-79 -372c-17 -80 16 -117 95 -117c62 0 136 41 184 113z" />
    <glyph glyph-name="yen" unicode="&#xa5;" horiz-adv-x="604" 
d="M592 680c0 0 10 4 28 4s26 -4 26 -4l-310 -369h154c0 -3 2 -9 0 -19s-7 -17 -8 -19h-171l-17 -79h171c1 -2 2 -9 0 -19s-6 -16 -8 -19h-171l-32 -152s-7 -4 -25 -4s-23 4 -23 4l32 152h-171c0 3 -2 10 0 19c2 10 7 16 8 19h171l17 79h-171c0 3 -2 9 0 19s6 16 8 19h154
l-142 368s10 5 28 5c20 0 28 -4 28 -4l133 -348z" />
    <glyph glyph-name="ygrave" unicode="&#x1ef3;" 
d="M356 602l-94 144c10 13 33 24 51 23l80 -148c-8 -10 -22 -17 -37 -19zM459 522c0 0 9 4 26 4s24 -4 24 -4l-106 -500c-39 -184 -101 -272 -278 -272c-86 0 -135 27 -135 27c3 15 10 30 23 38c0 0 53 -20 117 -20c126 0 186 42 227 227l12 54c-53 -56 -109 -86 -185 -86
c-106 0 -154 67 -133 167l78 365s9 4 26 4c18 0 24 -4 24 -4l-79 -372c-17 -80 16 -117 95 -117c62 0 136 41 184 113z" />
    <glyph glyph-name="z" unicode="z" horiz-adv-x="451" 
d="M45 44h299s3 -6 0 -22c-4 -15 -9 -22 -9 -22h-355c0 3 -2 9 1 23c3 13 7 18 8 21l390 438h-274s-2 7 1 22c3 16 9 22 9 22h329c0 -3 2 -9 -1 -21c-2 -13 -7 -20 -9 -23z" />
    <glyph glyph-name="zacute" unicode="&#x17a;" horiz-adv-x="451" 
d="M436 752l-156 -144c-15 2 -25 9 -29 19l143 148c19 1 36 -9 42 -23zM45 44h299s3 -6 0 -22c-4 -15 -9 -22 -9 -22h-355c0 3 -2 9 1 23c3 13 7 18 8 21l390 438h-274s-2 7 1 22c3 16 9 22 9 22h329c0 -3 2 -9 -1 -21c-2 -13 -7 -20 -9 -23z" />
    <glyph glyph-name="zcaron" unicode="&#x17e;" horiz-adv-x="451" 
d="M287 602l-96 94c6 12 15 21 28 25l89 -77l120 76c11 -2 15 -12 17 -24l-135 -94h-23zM45 44h299s3 -6 0 -22c-4 -15 -9 -22 -9 -22h-355c0 3 -2 9 1 23c3 13 7 18 8 21l390 438h-274s-2 7 1 22c3 16 9 22 9 22h329c0 -3 2 -9 -1 -21c-2 -13 -7 -20 -9 -23z" />
    <glyph glyph-name="zdotaccent" unicode="&#x17c;" horiz-adv-x="451" 
d="M353 709l-12 -54s-11 -4 -31 -4c-21 0 -29 4 -29 4l12 54s10 4 31 4c20 0 29 -4 29 -4zM45 44h299s3 -6 0 -22c-4 -15 -9 -22 -9 -22h-355c0 3 -2 9 1 23c3 13 7 18 8 21l390 438h-274s-2 7 1 22c3 16 9 22 9 22h329c0 -3 2 -9 -1 -21c-2 -13 -7 -20 -9 -23z" />
    <glyph glyph-name="zero" unicode="0" horiz-adv-x="619" 
d="M249 -10c-154 0 -219 101 -170 350c49 246 153 350 307 350s220 -101 171 -350s-154 -350 -308 -350zM382 645c-123 0 -202 -87 -249 -305c-46 -217 -4 -305 119 -305c125 0 204 88 250 305c47 218 5 305 -120 305z" />
    <glyph glyph-name="zero.denom" horiz-adv-x="346" 
d="M106 -5c-87 0 -117 54 -90 177c25 121 78 176 165 176c85 0 118 -53 92 -176c-27 -123 -82 -177 -167 -177zM174 317c-66 0 -101 -43 -122 -145c-23 -104 -5 -145 61 -145c64 0 99 41 122 145c21 102 3 145 -61 145z" />
    <glyph glyph-name="zero.num" horiz-adv-x="345" 
d="M179 341c-87 0 -116 54 -90 177c26 121 78 176 165 176c86 0 118 -53 92 -176s-81 -177 -167 -177zM248 663c-65 0 -100 -43 -122 -145c-22 -104 -5 -145 60 -145c64 0 101 41 123 145c22 102 3 145 -61 145z" />
    <glyph glyph-name="zeroinferior" unicode="&#x2080;" horiz-adv-x="345" 
d="M85 -101c-87 0 -116 54 -90 177c26 121 79 176 166 176c86 0 117 -53 91 -176s-81 -177 -167 -177zM154 221c-65 0 -100 -43 -122 -145c-22 -104 -5 -145 60 -145c64 0 101 41 123 145c22 102 3 145 -61 145z" />
    </font>
</defs>
</svg>
