<?xml version="1.0" standalone="no"?>
<!DOCTYPE svg PUBLIC "-//W3C//DTD SVG 1.1//EN" "http://www.w3.org/Graphics/SVG/1.1/DTD/svg11.dtd" >
<svg xmlns="http://www.w3.org/2000/svg" xmlns:xlink="http://www.w3.org/1999/xlink" version="1.1">
<metadata>
Created by FontForge 20141024 at Tue Jun 30 10:03:27 2015
 By Jimmy Warting
Copyright \(c\) 2014 by Fontfabric LLC. All rights reserved.
</metadata>
<defs>
<font id="GloberLightItalic" horiz-adv-x="554" >
  <font-face 
    font-family="Glober Light Italic"
    font-weight="300"
    font-style="italic"
    font-stretch="normal"
    units-per-em="1000"
    panose-1="0 0 0 0 0 0 0 0 0 0"
    ascent="750"
    descent="-250"
    x-height="526"
    cap-height="720"
    bbox="-218 -250.141 991 1052"
    underline-thickness="50"
    underline-position="-50"
    stemh="32"
    stemv="34"
    unicode-range="U+0020-FB02"
  />
<missing-glyph horiz-adv-x="618" 
d="M-116 0l153 720h538l-153 -720h-538zM176 200c8 0 13 3 13 3c36 168 184 146 218 306c14 65 -13 124 -116 124c-73 0 -127 -25 -127 -25c-2 -7 -1 -16 5 -20c0 0 46 20 114 20c87 0 107 -47 96 -101c-31 -145 -173 -118 -213 -304c0 0 3 -3 10 -3zM172 83l7 34
s-6 2 -19 2s-19 -2 -19 -2l-7 -34s5 -2 18 -2s20 2 20 2z" />
    <glyph glyph-name="fi" unicode="fi" 
d="M506 526l-111 -523s-5 -3 -17 -3s-15 3 -15 3l104 493h-285l-104 -493s-5 -3 -17 -3s-15 3 -15 3l104 493h-64s-2 4 1 15c2 11 6 15 6 15h64l13 60c21 103 72 164 209 164c89 0 164 -27 164 -27c0 -10 -7 -22 -15 -28c0 0 -67 25 -150 25c-117 0 -157 -42 -175 -129
l-14 -65h296h5h16z" />
    <glyph glyph-name="fl" unicode="fl" horiz-adv-x="556" 
d="M316 496h-134l-104 -493s-5 -3 -17 -3s-15 3 -15 3l104 493h-64s-2 4 1 15c2 11 6 15 6 15h64l13 60c20 97 72 164 199 164c99 0 177 -34 177 -34l-151 -713s-5 -3 -17 -3s-15 3 -15 3l147 693c-27 10 -78 24 -142 24c-109 0 -148 -47 -165 -129l-14 -65h134s2 -4 0 -15
c-3 -10 -7 -15 -7 -15z" />
    <glyph glyph-name=".notdef" horiz-adv-x="618" 
d="M-116 0l153 720h538l-153 -720h-538zM176 200c8 0 13 3 13 3c36 168 184 146 218 306c14 65 -13 124 -116 124c-73 0 -127 -25 -127 -25c-2 -7 -1 -16 5 -20c0 0 46 20 114 20c87 0 107 -47 96 -101c-31 -145 -173 -118 -213 -304c0 0 3 -3 10 -3zM172 83l7 34
s-6 2 -19 2s-19 -2 -19 -2l-7 -34s5 -2 18 -2s20 2 20 2z" />
    <glyph glyph-name="A" unicode="A" horiz-adv-x="634" 
d="M516 3l-40 215h-353l-131 -215s-8 -3 -21 -3s-15 3 -15 3l434 714s5 3 15 3c9 0 13 -3 13 -3l132 -714s-6 -3 -19 -3c-9 0 -15 3 -15 3zM374 631l-232 -381h328l-69 381c-5 25 -4 38 -4 38h-2s-7 -14 -21 -38z" />
    <glyph glyph-name="AE" unicode="&#xc6;" horiz-adv-x="846" 
d="M-11 3c-6 -2 -14 -3 -20 -3c-7 0 -15 1 -18 3l585 717h335c3 -8 0 -23 -7 -32h-294l-65 -307h244c3 -10 0 -23 -7 -32h-244l-67 -317h304c3 -9 0 -23 -7 -32h-338l46 205h-282zM179 237h263l93 435z" />
    <glyph glyph-name="AEacute" unicode="&#x1fc;" horiz-adv-x="846" 
d="M-11 3c-6 -2 -14 -3 -20 -3c-7 0 -15 1 -18 3l585 717h335c3 -8 0 -23 -7 -32h-294l-65 -307h244c3 -10 0 -23 -7 -32h-244l-67 -317h304c3 -9 0 -23 -7 -32h-336l44 205h-282zM179 237h263l93 435zM829 906l-157 -147c-11 1 -18 6 -21 14l149 150c14 0 24 -6 29 -17z
" />
    <glyph glyph-name="Aacute" unicode="&#xc1;" horiz-adv-x="634" 
d="M516 3l-40 215h-353l-131 -215s-6 -3 -21 -3c-13 0 -15 3 -15 3l434 714s5 3 15 3c9 0 13 -3 13 -3l132 -714s-6 -3 -19 -3c-9 0 -15 3 -15 3zM374 631l-232 -381h328l-69 381c-5 25 -4 38 -4 38h-2s-7 -14 -21 -38zM550 905l-156 -147c-12 1 -19 6 -21 14l149 150
c14 0 24 -6 28 -17z" />
    <glyph glyph-name="Abreve" unicode="&#x102;" horiz-adv-x="634" 
d="M516 3l-40 215h-353l-131 -215s-8 -3 -21 -3s-15 3 -15 3l434 714s5 3 15 3c9 0 13 -3 13 -3l132 -714s-6 -3 -19 -3c-9 0 -15 3 -15 3zM374 631l-232 -381h328l-69 381c-5 25 -4 38 -4 38h-2s-7 -14 -21 -38zM561 840c0 0 -54 -51 -142 -51c-89 0 -126 51 -126 51
c5 10 10 15 22 19c0 0 38 -42 107 -42s124 42 124 42c11 -3 15 -8 15 -19z" />
    <glyph glyph-name="Acircumflex" unicode="&#xc2;" horiz-adv-x="634" 
d="M516 3l-40 215h-353l-131 -215s-8 -3 -21 -3s-15 3 -15 3l434 714s5 3 15 3c9 0 13 -3 13 -3l132 -714s-6 -3 -19 -3c-11 0 -15 3 -15 3zM374 631l-232 -381h328l-69 381c-5 25 -4 38 -4 38h-2s-7 -14 -21 -38zM429 893h26l101 -101c-4 -10 -9 -18 -18 -20l-102 90
l-138 -91c-9 4 -15 10 -15 21z" />
    <glyph glyph-name="Adieresis" unicode="&#xc4;" horiz-adv-x="634" 
d="M516 3l-40 215h-353l-131 -215s-6 -3 -21 -3c-13 0 -15 3 -15 3l434 714s5 3 15 3c9 0 13 -3 13 -3l132 -714s-6 -3 -19 -3c-9 0 -15 3 -15 3zM374 631l-232 -381h328l-69 381c-5 25 -4 38 -4 38h-2s-7 -14 -21 -38zM378 815l-9 -42s-8 -3 -24 -3s-24 3 -24 3l9 42
s9 3 25 3s23 -3 23 -3zM519 815l-9 -42s-8 -3 -24 -3s-24 3 -24 3l9 42s9 3 25 3s23 -3 23 -3z" />
    <glyph glyph-name="Agrave" unicode="&#xc0;" horiz-adv-x="634" 
d="M516 3l-40 215h-353l-131 -215s-8 -3 -21 -3s-15 3 -15 3l434 714s5 3 15 3c9 0 13 -3 13 -3l132 -714s-6 -3 -19 -3c-11 0 -15 3 -15 3zM374 631l-232 -381h328l-69 381c-5 25 -4 38 -4 38h-2s-7 -14 -21 -38zM438 757l-94 147c8 9 23 17 36 17l85 -150
c-6 -8 -15 -13 -27 -14z" />
    <glyph glyph-name="Amacron" unicode="&#x100;" horiz-adv-x="634" 
d="M516 3l-40 215h-353l-131 -215s-8 -3 -21 -3s-15 3 -15 3l434 714s5 3 15 3c9 0 13 -3 13 -3l132 -714s-6 -3 -19 -3c-11 0 -15 3 -15 3zM374 631l-232 -381h328l-69 381c-5 25 -4 38 -4 38h-2s-7 -14 -21 -38zM550 796h-267c-2 5 -2 10 0 16c1 6 3 11 7 16h267
c2 -4 2 -9 1 -15c-2 -6 -4 -12 -8 -17z" />
    <glyph glyph-name="Aogonek" unicode="&#x104;" horiz-adv-x="634" 
d="M416 -96c-7 -32 10 -49 43 -49c25 0 44 10 44 10c5 -5 7 -13 5 -22c0 0 -25 -16 -61 -16c-53 0 -74 31 -65 73c13 58 70 100 132 115l-38 203h-353l-131 -215s-8 -3 -21 -3s-15 3 -15 3l434 714s5 3 15 3c9 0 13 -3 13 -3l132 -714s-4 -2 -13 -3
c-50 -10 -109 -42 -121 -96zM142 250h328l-69 381c-5 25 -4 38 -4 38h-2s-7 -14 -21 -38z" />
    <glyph glyph-name="Aring" unicode="&#xc5;" horiz-adv-x="634" 
d="M422 696l128 -693s-6 -3 -19 -3c-11 0 -15 3 -15 3l-40 215h-353l-131 -215s-8 -3 -21 -3s-15 3 -15 3l422 694c-49 9 -78 45 -68 104c13 68 73 104 130 104c56 0 108 -35 95 -104c-11 -61 -59 -98 -113 -105zM437 876c-54 0 -87 -37 -95 -75c-8 -39 9 -77 63 -77
c55 0 90 39 98 77c9 39 -11 75 -66 75zM142 250h328l-69 381c-5 25 -4 38 -4 38h-2s-7 -14 -21 -38z" />
    <glyph glyph-name="Aringacute" unicode="&#x1fa;" horiz-adv-x="634" 
d="M584 1039l-139 -112c-11 1 -19 7 -21 13l133 112c13 0 23 -5 27 -13zM439 905c56 0 108 -35 95 -104c-11 -61 -58 -97 -112 -105l128 -693s-6 -3 -19 -3c-9 0 -15 3 -15 3l-40 215h-353l-131 -215s-8 -3 -21 -3s-15 3 -15 3l422 694c-44 10 -79 46 -69 104
c13 68 73 104 130 104zM436 876c-54 0 -87 -37 -95 -75c-8 -39 9 -77 63 -77c55 0 90 39 98 77c9 39 -11 75 -66 75zM142 250h328l-69 381c-5 25 -4 38 -4 38h-2s-7 -14 -21 -38z" />
    <glyph glyph-name="Atilde" unicode="&#xc3;" horiz-adv-x="634" 
d="M516 3l-40 215h-353l-131 -215s-6 -3 -21 -3c-13 0 -15 3 -15 3l434 714s5 3 15 3c9 0 13 -3 13 -3l132 -714s-6 -3 -19 -3c-9 0 -15 3 -15 3zM374 631l-232 -381h328l-69 381c-5 25 -4 38 -4 38h-2s-7 -14 -21 -38zM478 799c28 0 45 29 45 29c10 1 20 -2 24 -11
c-5 -12 -24 -47 -75 -47c-44 0 -67 36 -105 36c-28 0 -45 -30 -45 -30c-11 -1 -21 8 -24 15c0 0 24 44 78 44c44 0 64 -36 102 -36z" />
    <glyph glyph-name="B" unicode="B" horiz-adv-x="628" 
d="M279 0h-236l153 720h232c129 0 180 -74 154 -194c-28 -129 -117 -159 -133 -162c2 -1 116 -27 83 -181c-24 -113 -85 -183 -253 -183zM351 347h-200l-67 -315h201c134 0 190 59 211 157c23 109 -21 158 -145 158zM223 688l-65 -309h193c121 0 178 65 195 155
c19 101 -19 154 -133 154h-190z" />
    <glyph glyph-name="C" unicode="C" horiz-adv-x="553" 
d="M269 -10c-176 0 -236 125 -183 376c53 246 163 364 340 364c109 0 159 -32 159 -32s1 -7 -5 -15c-6 -9 -12 -12 -12 -12s-52 28 -143 28c-139 0 -248 -78 -304 -340c-55 -262 20 -337 160 -337c99 0 166 28 166 28s5 -2 7 -11s-1 -16 -1 -16s-66 -33 -184 -33z" />
    <glyph glyph-name="CR" horiz-adv-x="322" 
 />
    <glyph glyph-name="Cacute" unicode="&#x106;" horiz-adv-x="553" 
d="M269 -10c-176 0 -237 119 -184 370c53 246 164 370 341 370c109 0 159 -32 159 -32s1 -7 -5 -15c-6 -9 -12 -12 -12 -12s-52 28 -143 28c-139 0 -248 -78 -304 -340c-55 -262 20 -337 160 -337c99 0 166 28 166 28s5 -2 7 -11s-1 -16 -1 -16s-66 -33 -184 -33zM560 906
l-157 -147c-11 1 -18 6 -21 14l149 150c14 0 24 -6 29 -17z" />
    <glyph glyph-name="Ccaron" unicode="&#x10c;" horiz-adv-x="553" 
d="M269 -10c-176 0 -237 119 -184 370c53 246 164 370 341 370c109 0 159 -32 159 -32s1 -7 -5 -15c-6 -9 -12 -12 -12 -12s-52 28 -143 28c-139 0 -248 -78 -304 -340c-55 -262 20 -337 160 -337c99 0 166 28 166 28s5 -2 7 -11s-1 -16 -1 -16s-66 -33 -184 -33zM446 771
h-26l-103 101c5 11 7 17 18 21l101 -91l139 90c8 -2 15 -10 15 -20z" />
    <glyph glyph-name="Ccedilla" unicode="&#xc7;" horiz-adv-x="552" 
d="M425 730c109 0 159 -32 159 -32s1 -7 -5 -15c-6 -9 -12 -12 -12 -12s-52 28 -143 28c-129 0 -248 -78 -304 -340c-55 -262 20 -337 160 -337c99 0 166 28 166 28s5 -2 7 -11s-1 -16 -1 -16s-66 -33 -183 -33l-15 -40c78 0 104 -39 92 -92c-14 -64 -56 -89 -130 -89
c-50 0 -82 23 -82 23c3 10 8 17 15 22c0 0 30 -18 74 -18c50 0 82 20 92 67c9 39 -13 59 -60 59h-31l-5 8l23 61c-156 12 -207 136 -157 374c53 246 163 365 340 365z" />
    <glyph glyph-name="Ccircumflex" unicode="&#x108;" horiz-adv-x="553" 
d="M270 -10c-176 0 -237 119 -184 370c53 246 154 370 341 370c109 0 159 -32 159 -32s1 -7 -5 -15c-6 -9 -12 -12 -12 -12s-52 28 -143 28c-139 0 -248 -78 -304 -340c-55 -262 20 -337 160 -337c99 0 166 28 166 28s5 -2 7 -11c2 -12 -1 -19 -1 -19s-66 -30 -184 -30z
M454 880h26l101 -101c-4 -10 -10 -17 -19 -19l-99 90l-142 -92c-10 4 -13 10 -13 21z" />
    <glyph glyph-name="Cdotaccent" unicode="&#x10a;" horiz-adv-x="553" 
d="M269 -10c-176 0 -237 119 -184 370c53 246 164 370 341 370c109 0 159 -32 159 -32s1 -7 -5 -15c-6 -9 -12 -12 -12 -12s-52 28 -143 28c-139 0 -248 -78 -304 -340c-55 -262 20 -337 160 -337c99 0 166 28 166 28s5 -2 7 -11s-1 -16 -1 -16s-66 -33 -184 -33zM476 833
l-9 -42s-9 -3 -25 -3s-23 3 -23 3l9 42s9 3 25 3s23 -3 23 -3z" />
    <glyph glyph-name="D" unicode="D" horiz-adv-x="659" 
d="M374 688h-151l-139 -655h151c167 0 269 66 324 327c56 262 -18 328 -185 328zM238 0h-195l153 720h183c192 0 276 -81 216 -360c-59 -279 -165 -360 -357 -360z" />
    <glyph glyph-name="Dcaron" unicode="&#x10e;" horiz-adv-x="659" 
d="M401 771h-26l-103 101c5 11 8 17 19 21l101 -91l139 90c8 -2 14 -10 14 -20zM374 688h-151l-139 -655h151c167 0 269 66 324 327c56 262 -18 328 -185 328zM238 0h-195l153 720h183c192 0 276 -81 216 -360c-59 -279 -165 -360 -357 -360z" />
    <glyph glyph-name="Dcroat" unicode="&#x110;" horiz-adv-x="664" 
d="M201 720h183c192 0 276 -81 216 -360c-59 -279 -165 -360 -357 -360h-195l73 342h-87s-2 5 0 15s6 15 6 15h87zM240 32c167 0 269 67 324 328c56 262 -18 328 -185 328h-151l-67 -316h174s2 -5 0 -15c-2 -9 -6 -15 -6 -15h-174l-66 -310h151z" />
    <glyph glyph-name="Delta" unicode="&#x2206;" horiz-adv-x="638" 
d="M532 0h-549c-7 6 -10 15 -10 24l421 693s6 3 19 3s17 -3 17 -3l122 -693c-5 -10 -12 -18 -20 -24zM12 32h505c-30 158 -58 317 -86 476l-17 95c-9 49 -9 80 -9 80h-2s-11 -28 -43 -81l-58 -95z" />
    <glyph glyph-name="E" unicode="E" horiz-adv-x="555" 
d="M43 0l153 720h385c1 -4 1 -9 0 -16c-2 -7 -4 -12 -7 -16h-351l-65 -307h301c1 -4 1 -9 0 -15c-2 -6 -4 -11 -7 -16h-301l-67 -318h361c1 -5 1 -9 0 -15c-2 -7 -4 -12 -7 -17h-395z" />
    <glyph glyph-name="Eacute" unicode="&#xc9;" horiz-adv-x="555" 
d="M43 0l153 720h385c1 -4 1 -9 0 -16c-2 -7 -4 -12 -7 -16h-351l-65 -307h301c1 -4 1 -9 0 -15c-2 -6 -4 -11 -7 -16h-301l-67 -318h361c1 -5 1 -9 0 -15c-2 -7 -4 -12 -7 -17h-395zM500 906l-157 -147c-11 1 -18 6 -21 14l149 150c14 0 24 -6 29 -17z" />
    <glyph glyph-name="Ebreve" unicode="&#x114;" horiz-adv-x="555" 
d="M43 0l153 720h385c1 -4 1 -9 0 -16c-2 -7 -4 -12 -7 -16h-351l-65 -307h301c1 -4 1 -9 0 -15c-2 -6 -4 -11 -7 -16h-301l-67 -318h361c1 -5 1 -9 0 -15c-2 -7 -4 -12 -7 -17h-395zM549 851c0 0 -57 -51 -145 -51c-89 0 -123 51 -123 51c5 10 10 15 22 19
c0 0 38 -42 107 -42s124 42 124 42c11 -3 15 -8 15 -19z" />
    <glyph glyph-name="Ecaron" unicode="&#x11a;" horiz-adv-x="555" 
d="M43 0l153 720h385c1 -4 1 -9 0 -16c-2 -7 -4 -12 -7 -16h-351l-65 -307h301c1 -4 1 -9 0 -15c-2 -6 -4 -11 -7 -16h-301l-67 -318h361c1 -5 1 -9 0 -15c-2 -7 -4 -12 -7 -17h-395zM401 771h-26l-103 101c5 11 8 17 19 21l100 -91l140 90c8 -2 14 -10 14 -20z" />
    <glyph glyph-name="Ecircumflex" unicode="&#xca;" horiz-adv-x="555" 
d="M43 0l153 720h385c1 -4 1 -9 0 -16c-2 -7 -4 -12 -7 -16h-351l-65 -307h301c1 -4 1 -9 0 -15c-2 -6 -4 -11 -7 -16h-301l-67 -318h361c1 -5 1 -9 0 -15c-2 -7 -4 -12 -7 -17h-395zM408 893h26l101 -101c-4 -10 -8 -18 -17 -20l-102 90l-138 -91c-9 4 -16 10 -16 21z" />
    <glyph glyph-name="Edieresis" unicode="&#xcb;" horiz-adv-x="555" 
d="M43 0l153 720h385c1 -4 1 -9 0 -16c-2 -7 -4 -12 -7 -16h-351l-65 -307h301c1 -4 1 -9 0 -15c-2 -6 -4 -11 -7 -16h-301l-67 -318h361c1 -5 1 -9 0 -15c-2 -7 -4 -12 -7 -17h-395zM363 820l-9 -42s-8 -3 -24 -3s-24 3 -24 3l9 42s9 3 25 3s23 -3 23 -3zM504 820l-9 -42
s-8 -3 -24 -3s-24 3 -24 3l9 42s9 3 25 3s23 -3 23 -3z" />
    <glyph glyph-name="Edotaccent" unicode="&#x116;" horiz-adv-x="555" 
d="M43 0l153 720h385c1 -4 1 -9 0 -16c-2 -7 -4 -12 -7 -16h-351l-65 -307h301c1 -4 1 -9 0 -15c-2 -6 -4 -11 -7 -16h-301l-67 -318h361c1 -5 1 -9 0 -15c-2 -7 -4 -12 -7 -17h-395zM440 833l-9 -42s-9 -3 -25 -3s-23 3 -23 3l9 42s9 3 25 3s23 -3 23 -3z" />
    <glyph glyph-name="Egrave" unicode="&#xc8;" horiz-adv-x="555" 
d="M43 0l153 720h385c1 -4 1 -9 0 -16c-2 -7 -4 -12 -7 -16h-351l-65 -307h301c1 -4 1 -9 0 -15c-2 -6 -4 -11 -7 -16h-301l-67 -318h361c1 -5 1 -9 0 -15c-2 -7 -4 -12 -7 -17h-395zM409 757l-94 147c8 9 23 17 36 17l85 -150c-6 -8 -15 -13 -27 -14z" />
    <glyph glyph-name="Emacron" unicode="&#x112;" horiz-adv-x="555" 
d="M43 0l153 720h385c1 -4 1 -9 0 -16c-2 -7 -4 -12 -7 -16h-351l-65 -307h301c1 -4 1 -9 0 -15c-2 -6 -4 -11 -7 -16h-301l-67 -318h361c1 -5 1 -9 0 -15c-2 -7 -4 -12 -7 -17h-395zM538 796h-267c-2 5 -2 10 0 16c1 6 3 11 7 16h267c2 -4 2 -9 1 -15c-2 -6 -4 -12 -8 -17z
" />
    <glyph glyph-name="Eng" unicode="&#x14a;" horiz-adv-x="694" 
d="M673 717l-152 -714l-12 -59c-18 -87 -45 -143 -141 -172c-7 5 -8 15 -4 26c64 21 93 58 112 144l12 60l-2 1l-238 588c-22 54 -29 84 -29 84h-2s-4 -36 -24 -130l-116 -542s-6 -3 -18 -3c-11 0 -15 3 -15 3l151 714s8 3 21 3c11 0 16 -3 16 -3l236 -580
c20 -48 31 -90 31 -90h2s6 48 21 120l118 550s6 3 18 3c11 0 15 -3 15 -3z" />
    <glyph glyph-name="Eogonek" unicode="&#x118;" horiz-adv-x="555" 
d="M196 720h385c1 -4 1 -9 0 -16c-2 -7 -4 -12 -7 -16h-351l-65 -307h301c1 -4 1 -9 0 -15c-2 -6 -4 -11 -7 -16h-301l-67 -318h361c1 -5 1 -9 0 -15c-2 -7 -4 -12 -7 -17h-10c-51 -9 -113 -38 -126 -97c-6 -32 11 -49 44 -49c25 0 44 10 44 10c5 -5 6 -13 4 -22
c0 0 -24 -16 -60 -16c-53 0 -74 31 -66 73c10 47 46 81 90 101h-315z" />
    <glyph glyph-name="Eth" unicode="&#xd0;" horiz-adv-x="664" 
d="M201 720h183c192 0 276 -81 216 -360c-59 -279 -165 -360 -357 -360h-195l73 342h-87s-2 5 0 15s6 15 6 15h87zM240 32c167 0 269 67 324 328c56 262 -18 328 -185 328h-151l-67 -316h174s2 -5 0 -15c-2 -9 -6 -15 -6 -15h-174l-66 -310h151z" />
    <glyph glyph-name="Euro" unicode="&#x20ac;" horiz-adv-x="581" 
d="M395 243h-234c-19 -171 44 -223 153 -223c87 0 145 25 145 25s5 -2 6 -10c2 -9 -1 -14 -1 -14s-56 -31 -161 -31c-137 0 -194 82 -176 253h-82s-3 4 2 14c4 11 9 14 9 14h75c3 20 6 41 11 64s9 43 16 67h-80s-2 4 2 14c5 11 9 14 9 14h78c55 166 146 250 282 250
c101 0 139 -30 139 -30s1 -6 -5 -14s-11 -10 -11 -10s-44 25 -124 25c-107 0 -192 -54 -247 -221h279s2 -3 -2 -14s-9 -14 -9 -14h-277c-5 -21 -11 -44 -16 -68c-5 -23 -9 -44 -11 -63h241s2 -2 -2 -14c-5 -11 -9 -14 -9 -14z" />
    <glyph glyph-name="F" unicode="F" horiz-adv-x="537" 
d="M453 341h-304l-71 -338s-6 -3 -18 -3s-16 3 -16 3l152 717h385s2 -5 0 -16c-3 -11 -7 -16 -7 -16h-351l-67 -315h304s2 -6 0 -16s-7 -16 -7 -16z" />
    <glyph glyph-name="G" unicode="G" horiz-adv-x="619" 
d="M286 -10c-174 0 -254 119 -201 370c53 246 171 370 346 370c121 0 180 -32 180 -32s1 -7 -5 -15c-6 -9 -12 -11 -12 -11s-67 27 -158 27c-137 0 -259 -78 -315 -340c-55 -262 33 -337 171 -337c67 0 125 12 157 19l64 301h-193s-2 6 0 16c3 12 6 16 6 16h227l-74 -352
s-75 -32 -193 -32z" />
    <glyph glyph-name="Gbreve" unicode="&#x11e;" horiz-adv-x="619" 
d="M598 840c0 0 -57 -51 -145 -51c-89 0 -123 51 -123 51c5 10 7 15 19 19c0 0 38 -42 107 -42s124 42 124 42c11 -3 18 -8 18 -19zM286 -10c-174 0 -254 119 -201 370c53 246 171 370 346 370c121 0 180 -32 180 -32s1 -7 -5 -15c-6 -9 -12 -11 -12 -11s-67 27 -158 27
c-137 0 -259 -78 -315 -340c-55 -262 33 -337 171 -337c67 0 125 12 157 19l64 301h-193s-2 6 0 16c3 12 6 16 6 16h227l-74 -352s-75 -32 -193 -32z" />
    <glyph glyph-name="Gcircumflex" unicode="&#x11c;" horiz-adv-x="619" 
d="M477 893h26l101 -101c-4 -10 -9 -18 -18 -20l-102 90l-138 -91c-9 4 -15 10 -15 21zM286 -10c-174 0 -254 119 -201 370c53 246 171 370 346 370c121 0 180 -32 180 -32s1 -7 -5 -15c-6 -9 -12 -11 -12 -11s-67 27 -158 27c-137 0 -259 -78 -315 -340
c-55 -262 33 -337 171 -337c67 0 125 12 157 19l64 301h-193s-2 6 0 16c3 12 6 16 6 16h227l-74 -352s-75 -32 -193 -32z" />
    <glyph glyph-name="Gcommaaccent" unicode="&#x122;" horiz-adv-x="619" 
d="M226 -194l-15 11s36 26 52 77c-13 0 -19 3 -19 3l9 39s9 3 26 3s25 -3 25 -3l-7 -30c-14 -65 -71 -100 -71 -100zM286 -10c-174 0 -254 119 -201 370c53 246 171 370 346 370c121 0 180 -32 180 -32s1 -7 -5 -15c-6 -9 -12 -11 -12 -11s-67 27 -158 27
c-137 0 -259 -78 -315 -340c-55 -262 33 -337 171 -337c67 0 125 12 157 19l64 301h-193s-2 6 0 16c3 12 6 16 6 16h227l-74 -352s-75 -32 -193 -32z" />
    <glyph glyph-name="Gdotaccent" unicode="&#x120;" horiz-adv-x="619" 
d="M486 833l-9 -42s-9 -3 -25 -3s-23 3 -23 3l9 42s9 3 25 3s23 -3 23 -3zM286 -10c-174 0 -254 119 -201 370c53 246 171 370 346 370c121 0 180 -32 180 -32s1 -7 -5 -15c-6 -9 -12 -11 -12 -11s-67 27 -158 27c-137 0 -259 -78 -315 -340c-55 -262 33 -337 171 -337
c67 0 125 12 157 19l64 301h-193s-2 6 0 16c3 12 6 16 6 16h227l-74 -352s-75 -32 -193 -32z" />
    <glyph glyph-name="H" unicode="H" horiz-adv-x="676" 
d="M551 385l70 332s7 3 18 3s16 -3 16 -3l-151 -714s-6 -3 -18 -3c-13 0 -16 3 -16 3l74 350h-392l-74 -350s-7 -3 -18 -3c-13 0 -16 3 -16 3l151 714s7 3 18 3s16 -3 16 -3l-70 -332h392z" />
    <glyph glyph-name="Hbar" unicode="&#x126;" horiz-adv-x="689" 
d="M634 588h70c1 -3 1 -9 0 -14s-3 -10 -6 -14h-70l-118 -557s-6 -3 -18 -3c-13 0 -16 3 -16 3l74 350h-392l-74 -350s-7 -3 -18 -3c-13 0 -16 3 -16 3l118 557h-65c-1 5 -1 9 0 14s3 10 6 14h65l27 129s7 3 18 3s16 -3 16 -3l-27 -129h392l27 129s7 3 18 3s16 -3 16 -3z
M557 385l37 175h-392l-37 -175h392z" />
    <glyph glyph-name="Hcircumflex" unicode="&#x124;" horiz-adv-x="676" 
d="M551 385l70 332s7 3 18 3s16 -3 16 -3l-151 -714s-6 -3 -18 -3c-13 0 -16 3 -16 3l74 350h-392l-74 -350s-7 -3 -18 -3c-13 0 -16 3 -16 3l151 714s7 3 18 3s16 -3 16 -3l-70 -332h392zM457 893h26l101 -101c-4 -10 -11 -18 -20 -20l-99 90l-141 -91c-9 4 -13 10 -13 21z
" />
    <glyph glyph-name="I" unicode="I" horiz-adv-x="250" 
d="M44 3l151 714s6 3 18 3s16 -3 16 -3l-151 -714s-6 -3 -18 -3s-16 3 -16 3z" />
    <glyph glyph-name="IJ" unicode="&#x132;" horiz-adv-x="609" 
d="M44 3l151 714s6 3 18 3s16 -3 16 -3l-151 -714s-6 -3 -18 -3s-16 3 -16 3zM439 154l119 563s5 3 18 3c11 0 16 -3 16 -3l-119 -563c-24 -113 -80 -164 -187 -164c-74 0 -128 30 -128 30c2 12 8 22 17 28c0 0 53 -26 118 -26c72 0 124 32 146 132z" />
    <glyph glyph-name="Iacute" unicode="&#xcd;" horiz-adv-x="250" 
d="M44 3l151 714s6 3 18 3s16 -3 16 -3l-151 -714s-6 -3 -18 -3s-16 3 -16 3zM333 906l-157 -147c-11 1 -18 6 -21 14l149 150c14 0 24 -6 29 -17z" />
    <glyph glyph-name="Ibreve" unicode="&#x12c;" horiz-adv-x="250" 
d="M44 3l151 714s6 3 18 3s16 -3 16 -3l-151 -714s-6 -3 -18 -3s-16 3 -16 3zM371 840c0 0 -57 -51 -145 -51c-89 0 -123 51 -123 51c5 10 8 15 20 19c0 0 38 -42 107 -42s124 42 124 42c11 -3 17 -8 17 -19z" />
    <glyph glyph-name="Icircumflex" unicode="&#xce;" horiz-adv-x="250" 
d="M44 3l151 714s6 3 18 3s16 -3 16 -3l-151 -714s-6 -3 -18 -3s-16 3 -16 3zM237 893h26l101 -101c-4 -10 -10 -18 -19 -20l-100 90l-141 -91c-9 4 -13 10 -13 21z" />
    <glyph glyph-name="Idieresis" unicode="&#xcf;" horiz-adv-x="250" 
d="M44 3l151 714s6 3 18 3s16 -3 16 -3l-151 -714s-6 -3 -18 -3s-16 3 -16 3zM187 815l-9 -42s-8 -3 -24 -3s-24 3 -24 3l9 42s9 3 25 3s23 -3 23 -3zM328 815l-9 -42s-8 -3 -24 -3s-24 3 -24 3l9 42s9 3 25 3s23 -3 23 -3z" />
    <glyph glyph-name="Idotaccent" unicode="&#x130;" horiz-adv-x="250" 
d="M44 3l151 714s6 3 18 3s16 -3 16 -3l-151 -714s-6 -3 -18 -3s-16 3 -16 3zM261 833l-9 -42s-9 -3 -25 -3s-23 3 -23 3l9 42s9 3 25 3s23 -3 23 -3z" />
    <glyph glyph-name="Igrave" unicode="&#xcc;" horiz-adv-x="250" 
d="M44 3l151 714s6 3 18 3s16 -3 16 -3l-151 -714s-6 -3 -18 -3s-16 3 -16 3zM252 757l-94 147c8 9 23 17 36 17l85 -150c-6 -8 -15 -13 -27 -14z" />
    <glyph glyph-name="Imacron" unicode="&#x12a;" horiz-adv-x="250" 
d="M44 3l151 714s6 3 18 3s16 -3 16 -3l-151 -714s-6 -3 -18 -3s-16 3 -16 3zM346 776h-251c-2 5 -2 10 -1 16c2 6 4 11 8 16h251c2 -4 2 -9 0 -15c-1 -6 -3 -12 -7 -17z" />
    <glyph glyph-name="Iogonek" unicode="&#x12e;" horiz-adv-x="250" 
d="M229 717l-152 -715c-40 -9 -104 -41 -116 -100c-7 -32 11 -46 44 -46c25 0 44 10 44 10c5 -5 7 -15 5 -24c0 0 -25 -14 -61 -14c-53 0 -74 31 -65 73c13 60 69 99 119 115l148 701s6 3 18 3s16 -3 16 -3z" />
    <glyph glyph-name="Itilde" unicode="&#x128;" horiz-adv-x="250" 
d="M44 3l151 714s6 3 18 3s16 -3 16 -3l-151 -714s-6 -3 -18 -3s-16 3 -16 3zM285 798c27 0 44 29 44 29c10 1 18 -2 22 -11c0 0 -17 -46 -67 -46c-47 0 -70 35 -107 35c-27 0 -44 -29 -44 -29c-11 -1 -21 4 -23 11c0 0 18 46 68 46c46 0 70 -35 107 -35z" />
    <glyph glyph-name="J" unicode="J" horiz-adv-x="421" 
d="M251 154l119 563s5 3 18 3c11 0 16 -3 16 -3l-119 -563c-24 -113 -80 -164 -187 -164c-74 0 -128 30 -128 30c2 12 8 22 17 28c0 0 53 -26 118 -26c72 0 124 32 146 132z" />
    <glyph glyph-name="Jcircumflex" unicode="&#x134;" horiz-adv-x="421" 
d="M251 154l119 563s5 3 18 3c11 0 16 -3 16 -3l-119 -563c-24 -113 -80 -164 -187 -164c-74 0 -128 30 -128 30c2 12 8 22 17 28c0 0 53 -26 118 -26c72 0 124 32 146 132zM412 893h26l101 -101c-4 -10 -11 -18 -20 -20l-99 90l-141 -91c-9 4 -13 10 -13 21z" />
    <glyph glyph-name="K" unicode="K" horiz-adv-x="605" 
d="M229 717l-69 -327h143l298 327s7 3 22 3c12 0 18 -3 18 -3l-312 -346l189 -368s-7 -3 -20 -3c-11 0 -19 3 -19 3l-181 355h-145l-75 -355s-7 -3 -18 -3s-16 3 -16 3l151 714s7 3 18 3s16 -3 16 -3z" />
    <glyph glyph-name="Kcommaaccent" unicode="&#x136;" horiz-adv-x="605" 
d="M190 -192l-13 12s34 28 50 82c-12 0 -17 3 -17 3l9 42s8 3 24 3s24 -3 24 -3l-7 -32c-15 -70 -70 -107 -70 -107zM229 717l-69 -327h143l298 327s7 3 22 3c12 0 18 -3 18 -3l-312 -346l189 -368s-7 -3 -20 -3c-11 0 -19 3 -19 3l-181 355h-145l-75 -355s-7 -3 -18 -3
s-16 3 -16 3l151 714s7 3 18 3s16 -3 16 -3z" />
    <glyph glyph-name="L" unicode="L" horiz-adv-x="498" 
d="M43 0l152 717s7 3 18 3c12 0 16 -3 16 -3l-145 -685h331s1 -6 -1 -16s-6 -16 -6 -16h-365z" />
    <glyph glyph-name="Lacute" unicode="&#x139;" horiz-adv-x="498" 
d="M43 0l152 717s7 3 18 3c12 0 16 -3 16 -3l-145 -685h331s1 -6 -1 -16s-6 -16 -6 -16h-365zM360 906l-157 -147c-11 1 -18 6 -21 14l149 150c14 0 24 -6 29 -17z" />
    <glyph glyph-name="Lcaron" unicode="&#x13d;" horiz-adv-x="499" 
d="M350 566c-10 0 -16 5 -18 11c50 39 75 92 84 155c14 4 25 3 32 -3c-10 -57 -46 -128 -98 -163zM44 0l152 717s7 3 18 3c12 0 16 -3 16 -3l-145 -685h331s1 -6 -1 -16s-6 -16 -6 -16h-365z" />
    <glyph glyph-name="Lcommaaccent" unicode="&#x13b;" horiz-adv-x="498" 
d="M43 0l152 717s7 3 18 3c12 0 16 -3 16 -3l-145 -685h331s1 -6 -1 -16s-6 -16 -6 -16h-365zM170 -182l-13 12s34 28 50 82c-12 0 -17 3 -17 3l9 42s8 3 24 3s24 -3 24 -3l-7 -32c-15 -70 -70 -107 -70 -107z" />
    <glyph glyph-name="Ldot" unicode="&#x13f;" horiz-adv-x="502" 
d="M43 0l152 717s7 3 18 3c12 0 16 -3 16 -3l-145 -685h331s1 -6 -1 -16s-6 -16 -6 -16h-365zM390 355l-9 -42s-8 -3 -24 -3s-24 3 -24 3l9 42s9 3 25 3s23 -3 23 -3z" />
    <glyph glyph-name="Lslash" unicode="&#x141;" horiz-adv-x="510" 
d="M96 32h331s1 -6 -1 -16s-6 -16 -6 -16h-365l72 341l-76 -39c-7 4 -12 15 -10 26l94 48l72 341s7 3 18 3c12 0 16 -3 16 -3l-68 -322l142 73c7 -4 11 -15 9 -26l-158 -81z" />
    <glyph glyph-name="M" unicode="M" horiz-adv-x="846" 
d="M640 3l122 576c14 68 27 104 27 104h-2s-17 -27 -52 -69l-324 -407s-7 -3 -17 -3c-9 0 -15 3 -15 3l-142 407c-14 39 -20 69 -20 69h-2s-2 -39 -18 -114l-120 -566s-5 -3 -17 -3s-16 3 -16 3l151 714s9 3 23 3s19 -3 19 -3l145 -418c12 -34 16 -53 16 -53h2s14 18 42 53
l334 418s7 3 27 3c16 0 22 -3 22 -3l-151 -714s-6 -3 -18 -3s-16 3 -16 3z" />
    <glyph glyph-name="N" unicode="N" horiz-adv-x="694" 
d="M486 3l-238 588c-22 54 -29 84 -29 84h-2s-4 -36 -24 -130l-116 -542s-6 -3 -18 -3c-11 0 -15 3 -15 3l151 714s8 3 21 3c11 0 16 -3 16 -3l236 -580c20 -48 31 -90 31 -90h2s6 48 21 120l118 550s6 3 18 3c11 0 15 -3 15 -3l-151 -714s-7 -3 -20 -3c-11 0 -16 3 -16 3z
" />
    <glyph glyph-name="Nacute" unicode="&#x143;" horiz-adv-x="694" 
d="M595 906l-157 -147c-11 1 -18 6 -21 14l149 150c14 0 24 -6 29 -17zM486 3l-238 588c-22 54 -29 84 -29 84h-2s-4 -36 -24 -130l-116 -542s-6 -3 -18 -3c-11 0 -15 3 -15 3l151 714s8 3 21 3c11 0 16 -3 16 -3l236 -580c20 -48 31 -90 31 -90h2s6 48 21 120l118 550
s6 3 18 3c11 0 15 -3 15 -3l-151 -714s-7 -3 -20 -3c-11 0 -16 3 -16 3z" />
    <glyph glyph-name="Ncaron" unicode="&#x147;" horiz-adv-x="694" 
d="M466 771h-26l-103 101c5 11 10 15 21 19l99 -89l138 90c8 -2 15 -10 15 -20zM486 3l-238 588c-22 54 -29 84 -29 84h-2s-4 -36 -24 -130l-116 -542s-6 -3 -18 -3c-11 0 -15 3 -15 3l151 714s8 3 21 3c11 0 16 -3 16 -3l236 -580c20 -48 31 -90 31 -90h2s6 48 21 120
l118 550s6 3 18 3c11 0 15 -3 15 -3l-151 -714s-7 -3 -20 -3c-11 0 -16 3 -16 3z" />
    <glyph glyph-name="Ncommaaccent" unicode="&#x145;" horiz-adv-x="694" 
d="M225 -192l-13 12s34 28 50 82c-12 0 -17 3 -17 3l9 42s8 3 24 3s24 -3 24 -3l-7 -32c-15 -70 -70 -107 -70 -107zM486 3l-238 588c-22 54 -29 84 -29 84h-2s-4 -36 -24 -130l-116 -542s-6 -3 -18 -3c-11 0 -15 3 -15 3l151 714s8 3 21 3c11 0 16 -3 16 -3l236 -580
c20 -48 31 -90 31 -90h2s6 48 21 120l118 550s6 3 18 3c11 0 15 -3 15 -3l-151 -714s-7 -3 -20 -3c-11 0 -16 3 -16 3z" />
    <glyph glyph-name="Ntilde" unicode="&#xd1;" horiz-adv-x="694" 
d="M515 799c28 0 45 29 45 29c10 1 20 -2 24 -11c0 0 -19 -46 -70 -46c-48 0 -72 35 -110 35c-28 0 -45 -30 -45 -30c-11 -1 -21 4 -24 11c0 0 19 48 70 48c48 0 72 -36 110 -36zM486 3l-238 588c-22 54 -29 84 -29 84h-2s-4 -36 -24 -130l-116 -542s-6 -3 -18 -3
c-11 0 -15 3 -15 3l151 714s8 3 21 3c11 0 16 -3 16 -3l236 -580c20 -48 31 -90 31 -90h2s6 48 21 120l118 550s6 3 18 3c11 0 15 -3 15 -3l-151 -714s-7 -3 -20 -3c-11 0 -16 3 -16 3z" />
    <glyph glyph-name="O" unicode="O" horiz-adv-x="677" 
d="M275 -10c-165 0 -243 111 -190 370c54 259 176 370 341 370s243 -111 189 -370c-53 -259 -175 -370 -340 -370zM426 700c-143 0 -250 -95 -305 -340c-54 -245 17 -340 157 -340c136 0 247 95 301 340c55 245 -13 340 -153 340z" />
    <glyph glyph-name="OE" unicode="&#x152;" horiz-adv-x="826" 
d="M707 0h-340c-20 -5 -49 -10 -86 -10c-170 0 -252 111 -197 370c56 259 184 370 354 370c35 0 65 -6 83 -10h329c1 -4 1 -9 0 -16c-2 -7 -4 -12 -7 -16h-301l-65 -307h251c1 -4 1 -9 0 -15c-2 -6 -4 -11 -7 -16h-251l-67 -318h311c1 -5 1 -9 0 -15c-2 -7 -4 -12 -7 -17z
M120 360c-52 -245 14 -340 167 -340c33 0 64 7 82 13l139 655c-17 6 -42 12 -76 12c-145 0 -259 -95 -312 -340z" />
    <glyph glyph-name="Oacute" unicode="&#xd3;" horiz-adv-x="677" 
d="M602 906l-157 -147c-11 1 -18 6 -21 14l149 150c14 0 24 -6 29 -17zM275 -10c-165 0 -243 111 -190 370c54 259 176 370 341 370s243 -111 189 -370c-53 -259 -175 -370 -340 -370zM426 700c-143 0 -250 -95 -305 -340c-54 -245 17 -340 157 -340c136 0 247 95 301 340
c55 245 -13 340 -153 340z" />
    <glyph glyph-name="Obreve" unicode="&#x14e;" horiz-adv-x="677" 
d="M589 840c0 0 -57 -51 -145 -51c-89 0 -123 51 -123 51c5 10 10 15 22 19c0 0 33 -42 102 -42s129 42 129 42c11 -3 15 -8 15 -19zM275 -10c-165 0 -243 111 -190 370c54 259 176 370 341 370s243 -111 189 -370c-53 -259 -175 -370 -340 -370zM426 700
c-143 0 -250 -95 -305 -340c-54 -245 17 -340 157 -340c136 0 247 95 301 340c55 245 -13 340 -153 340z" />
    <glyph glyph-name="Ocircumflex" unicode="&#xd4;" horiz-adv-x="677" 
d="M453 893h26l101 -101c-4 -10 -11 -18 -20 -20l-100 90l-140 -91c-9 4 -13 10 -13 21zM275 -10c-165 0 -243 111 -190 370c54 259 176 370 341 370s243 -111 189 -370c-53 -259 -175 -370 -340 -370zM426 700c-143 0 -250 -95 -305 -340c-54 -245 17 -340 157 -340
c136 0 247 95 301 340c55 245 -13 340 -153 340z" />
    <glyph glyph-name="Odieresis" unicode="&#xd6;" horiz-adv-x="677" 
d="M399 825l-9 -42s-8 -3 -24 -3s-24 3 -24 3l9 42s9 3 25 3s23 -3 23 -3zM540 825l-9 -42s-8 -3 -24 -3s-24 3 -24 3l9 42s9 3 25 3s23 -3 23 -3zM275 -10c-165 0 -243 111 -190 370c54 259 176 370 341 370s243 -111 189 -370c-53 -259 -175 -370 -340 -370zM426 700
c-143 0 -250 -95 -305 -340c-54 -245 17 -340 157 -340c136 0 247 95 301 340c55 245 -13 340 -153 340z" />
    <glyph glyph-name="Ograve" unicode="&#xd2;" horiz-adv-x="677" 
d="M481 757l-94 147c8 9 23 17 36 17l85 -150c-6 -8 -15 -13 -27 -14zM275 -10c-165 0 -243 111 -190 370c54 259 176 370 341 370s243 -111 189 -370c-53 -259 -175 -370 -340 -370zM426 700c-143 0 -250 -95 -305 -340c-54 -245 17 -340 157 -340c136 0 247 95 301 340
c55 245 -13 340 -153 340z" />
    <glyph glyph-name="Ohungarumlaut" unicode="&#x150;" horiz-adv-x="677" 
d="M494 899l-136 -127c-11 1 -19 5 -20 13l124 131c16 0 26 -6 32 -17zM638 899l-137 -127c-10 1 -18 5 -20 13l125 131c16 0 25 -6 32 -17zM275 -10c-165 0 -243 111 -190 370c54 259 176 370 341 370s243 -111 189 -370c-53 -259 -175 -370 -340 -370zM426 700
c-143 0 -250 -95 -305 -340c-54 -245 17 -340 157 -340c136 0 247 95 301 340c55 245 -13 340 -153 340z" />
    <glyph glyph-name="Omacron" unicode="&#x14c;" horiz-adv-x="677" 
d="M571 795h-267c-2 5 -2 7 -1 13s3 11 7 16h267c2 -4 2 -9 1 -15s-3 -9 -7 -14zM275 -10c-165 0 -243 111 -190 370c54 259 176 370 341 370s243 -111 189 -370c-53 -259 -175 -370 -340 -370zM426 700c-143 0 -250 -95 -305 -340c-54 -245 17 -340 157 -340
c136 0 247 95 301 340c55 245 -13 340 -153 340z" />
    <glyph glyph-name="Omega" unicode="&#x2126;" horiz-adv-x="711" 
d="M579 0h-227c-2 5 -2 11 0 17c1 6 3 13 7 18c59 42 213 163 252 345c45 212 -26 320 -171 320s-262 -108 -307 -320c-39 -182 63 -303 104 -345c2 -5 2 -11 1 -17s-4 -13 -8 -18h-227c-1 4 -2 10 -1 16c2 6 4 11 8 16h179c-7 6 -138 131 -92 348c52 246 187 350 349 350
s253 -104 201 -350c-46 -217 -232 -342 -241 -348h180c2 -5 2 -10 0 -16c-1 -6 -4 -12 -7 -16z" />
    <glyph glyph-name="Oslash" unicode="&#xd8;" horiz-adv-x="677" 
d="M676 763l-82 -107c41 -59 50 -156 21 -296c-53 -259 -175 -370 -340 -370c-65 0 -116 17 -151 53l-67 -87s-7 -3 -20 -3c-12 0 -17 3 -17 3l85 111c-39 59 -48 155 -20 293c54 259 176 370 341 370c63 0 113 -16 148 -50l64 83s8 4 20 4c15 0 18 -4 18 -4zM426 700
c-143 0 -250 -95 -305 -340c-27 -124 -23 -209 7 -263l426 556c-30 33 -73 47 -128 47zM278 20c136 0 247 95 301 340c29 127 24 214 -7 268l-427 -557c30 -35 76 -51 133 -51z" />
    <glyph glyph-name="Oslashacute" unicode="&#x1fe;" horiz-adv-x="677" 
d="M572 906l-167 -142c-11 1 -18 6 -21 14l159 145c14 0 24 -6 29 -17zM676 763l-82 -107c41 -59 50 -156 21 -296c-53 -259 -175 -370 -340 -370c-65 0 -116 17 -151 53l-67 -87s-7 -3 -20 -3c-12 0 -17 3 -17 3l85 111c-39 59 -48 155 -20 293c54 259 176 370 341 370
c63 0 113 -16 148 -50l64 83s8 4 20 4c15 0 18 -4 18 -4zM426 700c-143 0 -250 -95 -305 -340c-27 -124 -23 -209 7 -263l426 556c-30 33 -73 47 -128 47zM278 20c136 0 247 95 301 340c29 127 24 214 -7 268l-427 -557c30 -35 76 -51 133 -51z" />
    <glyph glyph-name="Otilde" unicode="&#xd5;" horiz-adv-x="677" 
d="M509 809c28 0 45 29 45 29c10 1 20 -2 24 -11c0 0 -19 -47 -70 -47c-48 0 -72 36 -110 36c-28 0 -45 -30 -45 -30c-11 -1 -21 4 -24 11c0 0 19 48 70 48c48 0 72 -36 110 -36zM275 -10c-165 0 -243 111 -190 370c54 259 176 370 341 370s243 -111 189 -370
c-53 -259 -175 -370 -340 -370zM426 700c-143 0 -250 -95 -305 -340c-54 -245 17 -340 157 -340c136 0 247 95 301 340c55 245 -13 340 -153 340z" />
    <glyph glyph-name="P" unicode="P" horiz-adv-x="598" 
d="M355 309h-212l-65 -306s-6 -3 -18 -3s-16 3 -16 3l152 717h238c123 0 180 -83 154 -206c-26 -122 -110 -205 -233 -205zM223 688l-74 -347h209c100 0 171 66 194 172c23 109 -20 175 -120 175h-209z" />
    <glyph glyph-name="Q" unicode="Q" horiz-adv-x="677" 
d="M426 730c165 0 243 -111 189 -370c-33 -160 -91 -263 -170 -319c29 -38 74 -62 110 -71c-5 -14 -15 -24 -28 -30c-41 10 -87 43 -112 83c-42 -22 -89 -33 -140 -33c-165 0 -243 111 -190 370c54 259 176 370 341 370zM121 360c-54 -245 17 -340 157 -340
c136 0 247 95 301 340c55 245 -13 340 -153 340c-143 0 -250 -95 -305 -340z" />
    <glyph glyph-name="R" unicode="R" horiz-adv-x="616" 
d="M196 720h233c123 0 179 -82 154 -200c-22 -103 -88 -174 -187 -190l103 -327s-8 -3 -20 -3s-19 3 -19 3l-100 323h-10h-204l-68 -323s-6 -3 -18 -3s-16 3 -16 3zM357 358c96 0 170 61 192 165s-26 165 -122 165h-204l-70 -330h204z" />
    <glyph glyph-name="Racute" unicode="&#x154;" horiz-adv-x="616" 
d="M500 906l-151 -142c-11 1 -18 6 -21 14l143 145c14 0 24 -6 29 -17zM196 720h233c123 0 179 -82 154 -200c-22 -103 -88 -174 -187 -190l103 -327s-8 -3 -20 -3s-19 3 -19 3l-100 323h-10h-204l-68 -323s-6 -3 -18 -3s-16 3 -16 3zM357 358c96 0 170 61 192 165
s-26 165 -122 165h-204l-70 -330h204z" />
    <glyph glyph-name="Rcaron" unicode="&#x158;" horiz-adv-x="616" 
d="M401 771h-26l-103 101c5 11 8 17 19 21l101 -91l139 90c8 -2 14 -10 14 -20zM196 720h233c123 0 179 -82 154 -200c-22 -103 -88 -174 -187 -190l103 -327s-8 -3 -20 -3s-19 3 -19 3l-100 323h-10h-204l-68 -323s-6 -3 -18 -3s-16 3 -16 3zM357 358c96 0 170 61 192 165
s-26 165 -122 165h-204l-70 -330h204z" />
    <glyph glyph-name="Rcommaaccent" unicode="&#x156;" horiz-adv-x="616" 
d="M200 -182l-13 12s34 28 50 82c-12 0 -17 3 -17 3l9 42s8 3 24 3s24 -3 24 -3l-7 -32c-15 -70 -70 -107 -70 -107zM196 720h233c123 0 179 -82 154 -200c-22 -103 -88 -174 -187 -190l103 -327s-8 -3 -20 -3s-19 3 -19 3l-100 323h-10h-204l-68 -323s-6 -3 -18 -3
s-16 3 -16 3zM357 358c96 0 170 61 192 165s-26 165 -122 165h-204l-70 -330h204z" />
    <glyph glyph-name="S" unicode="S" horiz-adv-x="560" 
d="M382 699c-132 0 -209 -62 -228 -157c-23 -116 51 -140 153 -168c97 -27 194 -61 165 -200c-26 -120 -126 -184 -272 -184c-120 0 -190 37 -190 37c1 10 7 22 16 28c0 0 80 -32 176 -32c127 0 215 55 237 159c23 112 -54 137 -143 162c-101 29 -204 61 -175 202
c24 116 118 184 263 184c109 0 175 -24 175 -24c-2 -12 -6 -21 -16 -28c0 0 -72 21 -161 21z" />
    <glyph glyph-name="Sacute" unicode="&#x15a;" horiz-adv-x="559" 
d="M505 906l-151 -141c-11 1 -18 6 -21 14l143 144c14 0 24 -6 29 -17zM382 699c-132 0 -209 -62 -228 -157c-23 -116 51 -140 153 -168c97 -27 192 -61 163 -200c-26 -120 -124 -184 -270 -184c-120 0 -190 37 -190 37c1 10 7 22 16 28c0 0 80 -32 176 -32
c127 0 215 55 237 159c23 112 -54 137 -143 162c-101 29 -204 61 -175 202c24 116 118 184 263 184c109 0 175 -24 175 -24c-2 -12 -6 -21 -16 -28c0 0 -72 21 -161 21z" />
    <glyph glyph-name="Scaron" unicode="&#x160;" horiz-adv-x="559" 
d="M406 771h-26l-103 101c5 11 7 16 18 20l101 -91l139 90c8 -2 15 -9 15 -19zM382 699c-132 0 -209 -62 -228 -157c-23 -116 51 -140 153 -168c97 -27 192 -61 163 -200c-26 -120 -124 -184 -270 -184c-120 0 -190 37 -190 37c1 10 7 22 16 28c0 0 80 -32 176 -32
c127 0 215 55 237 159c23 112 -54 137 -143 162c-101 29 -204 61 -175 202c24 116 118 184 263 184c109 0 175 -24 175 -24c-2 -12 -6 -21 -16 -28c0 0 -72 21 -161 21z" />
    <glyph glyph-name="Scedilla" unicode="&#x15e;" horiz-adv-x="559" 
d="M120 546c24 116 118 184 263 184c109 0 175 -24 175 -24c-2 -12 -6 -21 -16 -28c0 0 -72 21 -161 21c-132 0 -209 -62 -228 -157c-23 -116 51 -140 153 -168c97 -27 194 -61 165 -200c-25 -115 -119 -179 -256 -184l-18 -48c78 0 103 -39 91 -94
c-14 -64 -56 -91 -130 -91c-50 0 -82 23 -82 23c3 10 9 17 16 22c0 0 29 -18 73 -18c50 0 83 23 93 70c8 39 -13 60 -60 60h-31l-6 8l26 68c-112 2 -178 37 -178 37c1 10 7 22 16 28c0 0 80 -32 176 -32c127 0 215 55 237 159c23 112 -54 137 -143 162
c-101 29 -204 61 -175 202z" />
    <glyph glyph-name="Scircumflex" unicode="&#x15c;" horiz-adv-x="560" 
d="M412 893h26l101 -101c-4 -10 -9 -18 -18 -20l-101 90l-139 -91c-9 4 -15 10 -15 21zM382 699c-132 0 -209 -62 -228 -157c-23 -116 51 -140 153 -168c97 -27 194 -61 165 -200c-26 -120 -126 -184 -272 -184c-120 0 -190 37 -190 37c1 10 7 22 16 28c0 0 80 -32 176 -32
c127 0 215 55 237 159c23 112 -54 137 -143 162c-101 29 -204 61 -175 202c24 116 118 184 263 184c109 0 175 -24 175 -24c-2 -12 -6 -21 -16 -28c0 0 -72 21 -161 21z" />
    <glyph glyph-name="Scommaaccent" unicode="&#x218;" horiz-adv-x="560" 
d="M140 -202l-13 12s34 28 50 82c-12 0 -17 3 -17 3l9 42s8 3 24 3s24 -3 24 -3l-7 -32c-15 -70 -70 -107 -70 -107zM382 699c-132 0 -209 -62 -228 -157c-23 -116 51 -140 153 -168c97 -27 193 -61 164 -200c-26 -120 -125 -184 -271 -184c-120 0 -190 37 -190 37
c1 10 7 22 16 28c0 0 80 -32 176 -32c127 0 215 55 237 159c23 112 -54 137 -143 162c-101 29 -204 61 -175 202c24 116 118 184 263 184c109 0 175 -24 175 -24c-2 -12 -6 -21 -16 -28c0 0 -72 21 -161 21z" />
    <glyph glyph-name="T" unicode="T" horiz-adv-x="524" 
d="M121 720h457s2 -4 0 -15c-2 -10 -7 -16 -7 -16h-209l-145 -686s-6 -3 -18 -3s-16 3 -16 3l145 686h-214s-1 6 1 16s6 15 6 15z" />
    <glyph glyph-name="Tbar" unicode="&#x166;" horiz-adv-x="537" 
d="M127 720h457s2 -4 0 -15c-2 -10 -7 -16 -7 -16h-209l-70 -330h130s3 -5 0 -15c-2 -7 -6 -13 -6 -13h-130l-69 -328s-6 -3 -18 -3s-16 3 -16 3l69 328h-130s-2 5 0 13c2 10 6 15 6 15h130l70 330h-214s-1 6 1 16s6 15 6 15z" />
    <glyph glyph-name="Tcaron" unicode="&#x164;" horiz-adv-x="524" 
d="M121 720h457s2 -4 0 -15c-2 -10 -7 -16 -7 -16h-209l-145 -686s-6 -3 -18 -3s-16 3 -16 3l145 686h-214s-1 6 1 16s6 15 6 15zM374 767h-26l-103 101c5 11 8 17 19 21l101 -91l139 90c8 -2 14 -10 14 -20z" />
    <glyph glyph-name="Tcommaaccent" unicode="&#x162;" horiz-adv-x="524" 
d="M121 720h457s2 -4 0 -15c-2 -10 -7 -16 -7 -16h-209l-145 -686s-6 -3 -18 -3s-16 3 -16 3l145 686h-214s-1 6 1 16s6 15 6 15zM137 -182l-13 12s34 28 50 82c-12 0 -17 3 -17 3l9 42s8 3 24 3s24 -3 24 -3l-7 -32c-15 -70 -70 -107 -70 -107z" />
    <glyph glyph-name="Tcommaaccent" unicode="&#x21a;" horiz-adv-x="524" 
d="M121 720h457s2 -4 0 -15c-2 -10 -7 -16 -7 -16h-209l-145 -686s-6 -3 -18 -3s-16 3 -16 3l145 686h-214s-1 6 1 16s6 15 6 15zM137 -182l-13 12s34 28 50 82c-12 0 -17 3 -17 3l9 42s8 3 24 3s24 -3 24 -3l-7 -32c-15 -70 -70 -107 -70 -107z" />
    <glyph glyph-name="Thorn" unicode="&#xde;" horiz-adv-x="600" 
d="M327 172h-213l-36 -169s-5 -3 -18 -3s-16 3 -16 3l151 714s5 3 18 3s16 -3 16 -3l-31 -146h203c123 0 181 -85 156 -205c-25 -119 -107 -194 -230 -194zM192 539l-72 -335h209c100 0 171 63 193 166c22 106 -21 169 -121 169h-209z" />
    <glyph glyph-name="U" unicode="U" horiz-adv-x="665" 
d="M651 717l-105 -495c-32 -149 -135 -232 -273 -232s-219 84 -188 232l105 495s7 3 18 3c12 0 16 -3 16 -3l-106 -499c-26 -126 32 -198 156 -198c123 0 212 72 238 198l106 499s7 3 17 3c11 0 16 -3 16 -3z" />
    <glyph glyph-name="Uacute" unicode="&#xda;" horiz-adv-x="665" 
d="M651 717l-105 -495c-32 -149 -135 -232 -273 -232s-219 84 -188 232l105 495s7 3 18 3c12 0 16 -3 16 -3l-106 -499c-26 -126 32 -198 156 -198c123 0 212 72 238 198l106 499s7 3 17 3c11 0 16 -3 16 -3zM550 906l-157 -147c-11 1 -18 6 -21 14l149 150
c14 0 24 -6 29 -17z" />
    <glyph glyph-name="Ubreve" unicode="&#x16c;" horiz-adv-x="665" 
d="M651 717l-105 -495c-32 -149 -135 -232 -273 -232s-219 84 -188 232l105 495s7 3 18 3c12 0 16 -3 16 -3l-106 -499c-26 -126 32 -198 156 -198c123 0 212 72 238 198l106 499s7 3 17 3c11 0 16 -3 16 -3zM577 840c0 0 -53 -52 -141 -52c-89 0 -127 52 -127 52
c5 10 10 15 22 19c0 0 38 -42 107 -42s124 42 124 42c11 -3 15 -8 15 -19z" />
    <glyph glyph-name="Ucircumflex" unicode="&#xdb;" horiz-adv-x="665" 
d="M651 717l-105 -495c-32 -149 -136 -232 -274 -232s-218 84 -187 232l105 495s7 3 18 3c12 0 16 -3 16 -3l-106 -499c-26 -126 32 -198 156 -198c123 0 212 72 238 198l106 499s7 3 17 3c11 0 16 -3 16 -3zM447 893h26l101 -101c-4 -10 -8 -18 -17 -20l-101 91l-139 -92
c-9 4 -16 10 -16 21z" />
    <glyph glyph-name="Udieresis" unicode="&#xdc;" horiz-adv-x="665" 
d="M651 717l-105 -495c-32 -149 -136 -232 -274 -232s-218 84 -187 232l105 495s7 3 18 3c12 0 16 -3 16 -3l-106 -499c-26 -126 32 -198 156 -198c123 0 212 72 238 198l106 499s7 3 17 3c11 0 16 -3 16 -3zM392 835l-9 -42s-9 -3 -25 -3s-23 3 -23 3l9 42s9 3 25 3
s23 -3 23 -3zM533 835l-9 -42s-9 -3 -25 -3s-23 3 -23 3l9 42s9 3 25 3s23 -3 23 -3z" />
    <glyph glyph-name="Ugrave" unicode="&#xd9;" horiz-adv-x="665" 
d="M651 717l-105 -495c-32 -149 -135 -232 -273 -232s-219 84 -188 232l105 495s7 3 18 3c12 0 16 -3 16 -3l-106 -499c-26 -126 32 -198 156 -198c123 0 212 72 238 198l106 499s7 3 17 3c11 0 16 -3 16 -3zM449 757l-94 147c8 9 20 16 33 16l85 -150
c-6 -8 -12 -12 -24 -13z" />
    <glyph glyph-name="Uhungarumlaut" unicode="&#x170;" horiz-adv-x="665" 
d="M651 717l-105 -495c-32 -149 -135 -232 -273 -232s-219 84 -188 232l105 495s7 3 18 3c12 0 16 -3 16 -3l-106 -499c-26 -126 32 -198 156 -198c123 0 212 72 238 198l106 499s7 3 17 3c11 0 16 -3 16 -3zM494 901l-151 -143c-12 1 -18 6 -20 14l138 146
c16 0 27 -6 33 -17zM639 901l-151 -143c-12 1 -18 6 -20 14l138 146c16 0 27 -6 33 -17z" />
    <glyph glyph-name="Umacron" unicode="&#x16a;" horiz-adv-x="665" 
d="M651 717l-105 -495c-32 -149 -134 -232 -272 -232s-220 84 -189 232l105 495s7 3 18 3c12 0 16 -3 16 -3l-106 -499c-26 -126 32 -198 156 -198c123 0 212 72 238 198l106 499s7 3 17 3c11 0 16 -3 16 -3zM559 802h-254c-2 5 -2 9 -1 15c2 6 3 10 7 15h254
c2 -4 2 -8 0 -14c-1 -6 -3 -11 -6 -16z" />
    <glyph glyph-name="Uogonek" unicode="&#x172;" horiz-adv-x="665" 
d="M617 717c0 0 7 3 17 3c11 0 16 -3 16 -3l-105 -495c-26 -121 -101 -199 -202 -224c-46 -15 -96 -40 -107 -92c-7 -32 10 -49 43 -49c25 0 44 10 44 10c5 -5 7 -13 5 -22c0 0 -25 -16 -61 -16c-53 0 -74 31 -65 73c8 40 35 68 69 88h-1c-138 0 -217 84 -186 232l105 495
s7 3 18 3c12 0 16 -3 16 -3l-106 -499c-26 -126 32 -198 156 -198c123 0 212 72 238 198z" />
    <glyph glyph-name="Uring" unicode="&#x16e;" horiz-adv-x="665" 
d="M651 717l-105 -495c-32 -149 -136 -232 -274 -232s-218 84 -187 232l105 495s7 3 18 3c12 0 16 -3 16 -3l-106 -499c-26 -126 32 -198 156 -198c123 0 212 72 238 198l106 499s7 3 17 3c11 0 16 -3 16 -3zM433 769c-63 0 -104 38 -90 106c13 68 75 104 132 104
c56 0 107 -35 93 -104c-14 -68 -73 -106 -135 -106zM536 875c8 39 -10 75 -65 75c-54 0 -88 -37 -96 -75c-8 -39 8 -77 62 -77c55 0 91 39 99 77z" />
    <glyph glyph-name="Utilde" unicode="&#x168;" horiz-adv-x="665" 
d="M651 717l-105 -495c-32 -149 -136 -232 -274 -232s-218 84 -187 232l105 495s7 3 18 3c12 0 16 -3 16 -3l-106 -499c-26 -126 32 -198 156 -198c123 0 212 72 238 198l106 499s7 3 17 3c11 0 16 -3 16 -3zM496 818c28 0 44 27 44 27c11 1 20 -1 24 -10
c0 0 -18 -45 -69 -45c-48 0 -72 34 -110 34c-28 0 -45 -29 -45 -29c-12 -1 -21 4 -24 11c0 0 19 46 70 46c48 0 72 -34 110 -34z" />
    <glyph glyph-name="V" unicode="V" horiz-adv-x="602" 
d="M145 717l94 -610c5 -33 5 -56 5 -56h2s9 23 27 55l353 611s8 3 21 3s16 -3 16 -3l-412 -714s-5 -3 -15 -3c-9 0 -13 3 -13 3l-110 714s5 3 18 3c11 0 14 -3 14 -3z" />
    <glyph glyph-name="W" unicode="W" horiz-adv-x="940" 
d="M605 3l-52 577c-5 59 -1 84 -1 84h-2s-6 -25 -37 -84l-301 -577s-6 -3 -15 -3c-10 0 -13 3 -13 3l-67 714s6 3 18 3s17 -3 17 -3l53 -574c5 -55 3 -92 3 -92h2s10 37 39 92l298 574s4 3 15 3s13 -3 13 -3l51 -574c5 -55 0 -92 0 -92h2s12 37 40 92l288 574s5 3 20 3
c11 0 15 -3 15 -3l-358 -714s-5 -3 -15 -3s-13 3 -13 3z" />
    <glyph glyph-name="Wacute" unicode="&#x1e82;" horiz-adv-x="940" 
d="M668 916l-157 -147c-11 1 -18 6 -21 14l149 150c14 0 24 -6 29 -17zM605 3l-52 577c-5 59 -1 84 -1 84h-2s-6 -25 -37 -84l-301 -577s-6 -3 -15 -3c-10 0 -13 3 -13 3l-67 714s6 3 18 3s17 -3 17 -3l53 -574c5 -55 3 -92 3 -92h2s10 37 39 92l298 574s4 3 15 3
s13 -3 13 -3l51 -574c5 -55 0 -92 0 -92h2s12 37 40 92l288 574s5 3 20 3c11 0 15 -3 15 -3l-358 -714s-5 -3 -15 -3s-13 3 -13 3z" />
    <glyph glyph-name="Wcircumflex" unicode="&#x174;" horiz-adv-x="940" 
d="M586 893h26l101 -101c-4 -10 -8 -18 -17 -20l-102 90l-138 -91c-9 4 -16 10 -16 21zM605 3l-52 577c-5 59 -1 84 -1 84h-2s-6 -25 -37 -84l-301 -577s-6 -3 -15 -3c-10 0 -13 3 -13 3l-67 714s6 3 18 3s17 -3 17 -3l53 -574c5 -55 3 -92 3 -92h2s10 37 39 92l298 574
s4 3 15 3s13 -3 13 -3l51 -574c5 -55 0 -92 0 -92h2s12 37 40 92l288 574s5 3 20 3c11 0 15 -3 15 -3l-358 -714s-5 -3 -15 -3s-13 3 -13 3z" />
    <glyph glyph-name="Wdieresis" unicode="&#x1e84;" horiz-adv-x="940" 
d="M536 839l-9 -42s-8 -3 -24 -3s-24 3 -24 3l9 42s9 3 25 3s23 -3 23 -3zM677 839l-9 -42s-8 -3 -24 -3s-24 3 -24 3l9 42s9 3 25 3s23 -3 23 -3zM605 3l-52 577c-5 59 -1 84 -1 84h-2s-6 -25 -37 -84l-301 -577s-6 -3 -15 -3c-10 0 -13 3 -13 3l-67 714s6 3 18 3
s17 -3 17 -3l53 -574c5 -55 3 -92 3 -92h2s10 37 39 92l298 574s4 3 15 3s13 -3 13 -3l51 -574c5 -55 0 -92 0 -92h2s12 37 40 92l288 574s5 3 20 3c11 0 15 -3 15 -3l-358 -714s-5 -3 -15 -3s-13 3 -13 3z" />
    <glyph glyph-name="Wgrave" unicode="&#x1e80;" horiz-adv-x="940" 
d="M595 768l-108 136c7 10 21 20 34 21l100 -140c-5 -9 -14 -15 -26 -17zM605 3l-52 577c-5 59 -1 84 -1 84h-2s-6 -25 -37 -84l-301 -577s-6 -3 -15 -3c-10 0 -13 3 -13 3l-67 714s6 3 18 3s17 -3 17 -3l53 -574c5 -55 3 -92 3 -92h2s10 37 39 92l298 574s4 3 15 3
s13 -3 13 -3l51 -574c5 -55 0 -92 0 -92h2s12 37 40 92l288 574s5 3 20 3c11 0 15 -3 15 -3l-358 -714s-5 -3 -15 -3s-13 3 -13 3z" />
    <glyph glyph-name="X" unicode="X" horiz-adv-x="587" 
d="M633 717l-303 -348l160 -366s-8 -3 -22 -3c-13 0 -18 3 -18 3l-149 341l-285 -341s-12 -3 -26 -3c-13 0 -18 3 -18 3l307 365l-151 349s8 3 23 3c10 0 16 -3 16 -3l140 -325l281 325s8 3 25 3c14 0 20 -3 20 -3z" />
    <glyph glyph-name="Y" unicode="Y" horiz-adv-x="606" 
d="M111 717c0 0 8 3 22 3c11 0 16 -3 16 -3l158 -375l324 375s9 3 23 3c16 0 20 -3 20 -3l-355 -412l-64 -302s-7 -3 -18 -3s-16 3 -16 3l64 301z" />
    <glyph glyph-name="Yacute" unicode="&#xdd;" horiz-adv-x="606" 
d="M111 717c0 0 8 3 22 3c12 0 17 -3 17 -3l158 -375l324 375s6 3 22 3s20 -3 20 -3l-355 -412l-64 -302s-7 -3 -18 -3s-16 3 -16 3l64 301zM510 892l-157 -147c-11 1 -18 6 -21 14l149 150c14 0 24 -6 29 -17z" />
    <glyph glyph-name="Ycircumflex" unicode="&#x176;" horiz-adv-x="606" 
d="M111 717c0 0 8 3 22 3c11 0 16 -3 16 -3l158 -375l324 375s6 3 23 3c16 0 20 -3 20 -3l-355 -412l-64 -302s-7 -3 -18 -3s-16 3 -16 3l64 301zM422 893h26l101 -101c-4 -10 -8 -18 -17 -20l-102 90l-138 -91c-9 4 -16 10 -16 21z" />
    <glyph glyph-name="Ydieresis" unicode="&#x178;" horiz-adv-x="606" 
d="M111 717c0 0 8 3 22 3c11 0 16 -3 16 -3l158 -375l324 375s6 3 23 3c16 0 20 -3 20 -3l-355 -412l-64 -302s-7 -3 -18 -3s-16 3 -16 3l64 301zM363 826l-9 -42s-8 -3 -24 -3s-24 3 -24 3l9 42s9 3 25 3s23 -3 23 -3zM504 826l-9 -42s-8 -3 -24 -3s-24 3 -24 3l9 42
s9 3 25 3s23 -3 23 -3z" />
    <glyph glyph-name="Ygrave" unicode="&#x1ef2;" horiz-adv-x="606" 
d="M111 717c0 0 8 3 22 3c11 0 16 -3 16 -3l158 -375l324 375s6 3 23 3c16 0 20 -3 20 -3l-355 -412l-64 -302s-7 -3 -18 -3s-16 3 -16 3l64 301zM409 757l-94 147c8 9 19 16 32 16l85 -150c-6 -8 -11 -12 -23 -13z" />
    <glyph glyph-name="Z" unicode="Z" horiz-adv-x="570" 
d="M159 720h439s2 -6 0 -16c-3 -10 -7 -16 -7 -16l-568 -656h442s2 -5 -1 -16c-2 -11 -6 -16 -6 -16h-479s-2 5 0 16c2 10 7 16 7 16l566 656h-400s-2 5 1 16c2 11 6 16 6 16z" />
    <glyph glyph-name="Zacute" unicode="&#x179;" horiz-adv-x="570" 
d="M159 720h439s2 -6 0 -16c-3 -10 -7 -16 -7 -16l-565 -656h439s2 -5 -1 -16c-2 -11 -6 -16 -6 -16h-479s-2 5 0 16c2 10 7 16 7 16l566 656h-400s-2 5 1 16c2 11 6 16 6 16zM511 906l-157 -147c-11 1 -18 6 -21 14l149 150c14 0 24 -6 29 -17z" />
    <glyph glyph-name="Zcaron" unicode="&#x17d;" horiz-adv-x="570" 
d="M159 720h439s2 -6 0 -16c-3 -10 -7 -16 -7 -16l-565 -656h439s2 -5 -1 -16c-2 -11 -6 -16 -6 -16h-479s-2 5 0 16c2 10 7 16 7 16l566 656h-400s-2 5 1 16c2 11 6 16 6 16zM402 771h-26l-103 101c5 11 8 17 19 21l101 -91l139 90c8 -2 14 -10 14 -20z" />
    <glyph glyph-name="Zdotaccent" unicode="&#x17b;" horiz-adv-x="570" 
d="M159 720h439s2 -6 0 -16c-3 -10 -7 -16 -7 -16l-565 -656h439s2 -5 -1 -16c-2 -11 -6 -16 -6 -16h-479s-2 5 0 16c2 10 7 16 7 16l566 656h-400s-2 5 1 16c2 11 6 16 6 16zM423 833l-9 -42s-9 -3 -25 -3s-23 3 -23 3l9 42s9 3 25 3s23 -3 23 -3z" />
    <glyph glyph-name="_0020" horiz-adv-x="0" 
 />
    <glyph glyph-name="_375" horiz-adv-x="646" 
d="M445 0h-549c-7 6 -10 15 -10 24l421 693s6 3 19 3s17 -3 17 -3l122 -693c-5 -10 -12 -18 -20 -24zM-75 32h505c-30 158 -58 317 -86 476l-17 95c-9 49 -9 80 -9 80h-2s-11 -28 -43 -81l-58 -95z" />
    <glyph glyph-name="_376" horiz-adv-x="700" 
d="M484 0h-227c-2 5 -2 11 0 17c1 6 3 13 7 18c59 42 213 163 252 345c45 212 -26 320 -171 320s-262 -108 -307 -320c-39 -182 63 -303 104 -345c2 -5 2 -11 1 -17s-4 -13 -8 -18h-227c-1 4 -2 10 -1 16c2 6 4 11 8 16h179c-7 6 -138 131 -92 348c52 246 187 350 349 350
s253 -104 201 -350c-46 -217 -232 -342 -241 -348h180c2 -5 2 -10 0 -16c-1 -6 -4 -12 -7 -16z" />
    <glyph glyph-name="a" unicode="a" 
d="M459 436l22 87s2 3 14 3s14 -3 14 -3l-110 -520s-5 -3 -14 -3s-12 3 -12 3l13 87c-43 -62 -103 -100 -189 -100c-117 0 -182 69 -139 273s133 273 255 273c78 0 132 -41 146 -100zM436 326c20 83 -18 180 -117 180c-123 0 -188 -72 -227 -243s-3 -243 115 -243
c106 0 181 97 200 180z" />
    <glyph glyph-name="aacute" unicode="&#xe1;" 
d="M449 753l-156 -147c-12 1 -19 6 -21 14l149 150c14 0 23 -6 28 -17zM459 436l23 90s2 3 14 3s14 -3 14 -3l-111 -523s-5 -3 -14 -3s-12 3 -12 3l13 87c-43 -62 -103 -100 -189 -100c-117 0 -182 69 -139 273s133 273 255 273c78 0 132 -41 146 -100zM436 326
c20 83 -18 180 -117 180c-123 0 -188 -72 -227 -243s-3 -243 115 -243c106 0 181 97 200 180z" />
    <glyph glyph-name="abreve" unicode="&#x103;" 
d="M492 688c0 0 -50 -54 -136 -54s-124 54 -124 54c5 10 10 15 22 19c0 0 36 -43 103 -43s121 43 121 43c12 -3 15 -8 14 -19zM459 436l23 90s2 3 14 3s14 -3 14 -3l-111 -523s-5 -3 -14 -3s-12 3 -12 3l13 87c-43 -62 -103 -100 -189 -100c-117 0 -182 69 -139 273
s133 273 255 273c78 0 132 -41 146 -100zM436 326c20 83 -18 180 -117 180c-123 0 -188 -72 -227 -243s-3 -243 115 -243c106 0 181 97 200 180z" />
    <glyph glyph-name="acircumflex" unicode="&#xe2;" 
d="M358 721h25l98 -99c-4 -9 -7 -17 -17 -19l-97 88l-138 -89c-9 4 -15 10 -15 20zM459 436l23 90s2 3 14 3s14 -3 14 -3l-111 -523s-5 -3 -14 -3s-12 3 -12 3l13 87c-43 -62 -103 -100 -189 -100c-117 0 -182 69 -139 273s133 273 255 273c78 0 132 -41 146 -100zM436 326
c20 83 -18 180 -117 180c-123 0 -188 -72 -227 -243s-3 -243 115 -243c106 0 181 97 200 180z" />
    <glyph glyph-name="acute" unicode="&#xb4;" horiz-adv-x="224" 
d="M197 790l-156 -147c-12 1 -19 6 -21 14l148 150c14 0 24 -6 29 -17z" />
    <glyph glyph-name="adieresis" unicode="&#xe4;" 
d="M312 681l-9 -42s-9 -3 -25 -3s-23 3 -23 3l9 42s8 3 24 3s24 -3 24 -3zM453 681l-9 -42s-9 -3 -25 -3s-23 3 -23 3l9 42s8 3 24 3s24 -3 24 -3zM459 436l23 90s2 3 14 3s14 -3 14 -3l-111 -523s-5 -3 -14 -3s-12 3 -12 3l13 87c-43 -62 -103 -100 -189 -100
c-117 0 -182 69 -139 273s133 273 255 273c78 0 132 -41 146 -100zM436 326c20 83 -18 180 -117 180c-123 0 -188 -72 -227 -243s-3 -243 115 -243c106 0 181 97 200 180z" />
    <glyph glyph-name="ae" unicode="&#xe6;" horiz-adv-x="804" 
d="M634 536c112 0 147 -79 125 -184c-11 -53 -31 -91 -31 -91h-303c-28 -162 4 -239 104 -239c78 0 125 39 125 39c9 -5 13 -14 12 -25c0 0 -55 -46 -148 -46c-73 0 -115 37 -127 108l-20 -95s-5 -3 -14 -3s-12 3 -12 3l16 85c-40 -62 -89 -98 -175 -98
c-105 0 -171 69 -128 273s139 273 244 273c85 0 116 -37 132 -101l20 91s2 3 14 3s14 -3 14 -3l-21 -96c46 70 107 106 173 106zM383 200l27 126c17 77 0 180 -106 180s-176 -72 -212 -243s2 -243 108 -243s166 97 183 180zM432 291h275s9 19 19 66c17 79 -2 149 -98 149
c-82 0 -159 -59 -196 -215z" />
    <glyph glyph-name="aeacute" unicode="&#x1fd;" horiz-adv-x="804" 
d="M597 744l-154 -144c-11 1 -18 5 -21 13l147 147c14 0 23 -5 28 -16zM634 536c112 0 147 -79 125 -184c-11 -53 -31 -91 -31 -91h-303c-28 -162 4 -239 104 -239c78 0 125 39 125 39c9 -5 13 -14 12 -25c0 0 -55 -46 -148 -46c-73 0 -115 37 -127 108l-20 -95
s-5 -3 -14 -3s-12 3 -12 3l16 85c-40 -62 -89 -98 -175 -98c-105 0 -171 69 -128 273s139 273 244 273c85 0 116 -37 132 -101l20 91s2 3 14 3s14 -3 14 -3l-21 -96c46 70 107 106 173 106zM383 200l27 126c17 77 0 180 -106 180s-176 -72 -212 -243s2 -243 108 -243
s166 97 183 180zM432 291h275s9 19 19 66c17 79 -2 149 -98 149c-82 0 -159 -59 -196 -215z" />
    <glyph glyph-name="afii10017" unicode="&#x410;" horiz-adv-x="634" 
d="M516 3l-40 215h-353l-131 -215s-8 -3 -21 -3s-15 3 -15 3l434 714s5 3 15 3c9 0 13 -3 13 -3l132 -714s-6 -3 -19 -3c-9 0 -15 3 -15 3zM374 631l-232 -381h328l-69 381c-5 25 -4 38 -4 38h-2s-7 -14 -21 -38z" />
    <glyph glyph-name="afii10018" unicode="&#x411;" horiz-adv-x="609" 
d="M561 688h-338l-61 -290h208c122 0 186 -79 161 -199c-26 -121 -114 -199 -236 -199h-252l153 720h372s2 -6 0 -16c-3 -10 -7 -16 -7 -16zM84 31h210c107 0 180 68 201 169c22 102 -23 167 -130 167h-210z" />
    <glyph glyph-name="afii10019" unicode="&#x412;" horiz-adv-x="628" 
d="M279 0h-236l153 720h232c129 0 180 -74 154 -194c-28 -129 -117 -159 -133 -162c2 -1 116 -27 83 -181c-24 -113 -85 -183 -253 -183zM351 347h-200l-67 -315h201c134 0 190 59 211 157c23 109 -21 158 -145 158zM223 688l-65 -309h193c121 0 178 65 195 155
c19 101 -19 154 -133 154h-190z" />
    <glyph glyph-name="afii10020" unicode="&#x413;" horiz-adv-x="496" 
d="M44 3l152 717h355s2 -6 0 -16c-2 -9 -7 -16 -7 -16h-321l-145 -685s-7 -3 -18 -3s-16 3 -16 3z" />
    <glyph glyph-name="afii10021" unicode="&#x414;" horiz-adv-x="669" 
d="M560 32l-36 -170s-7 -3 -17 -3c-11 0 -16 3 -16 3l29 138h-533l-29 -138s-7 -3 -18 -3c-10 0 -15 3 -15 3l36 170h63c62 67 108 183 152 335l102 353h350l-146 -688h78zM301 689l-93 -328c-43 -148 -92 -268 -146 -329h386l139 657h-286z" />
    <glyph glyph-name="afii10022" unicode="&#x415;" horiz-adv-x="555" 
d="M43 0l153 720h385c1 -4 1 -9 0 -16c-2 -7 -4 -12 -7 -16h-351l-65 -307h301c1 -4 1 -9 0 -15c-2 -6 -4 -11 -7 -16h-301l-67 -318h361c1 -5 1 -9 0 -15c-2 -7 -4 -12 -7 -17h-395z" />
    <glyph glyph-name="afii10023" unicode="&#x401;" horiz-adv-x="555" 
d="M374 831l-9 -42s-9 -3 -25 -3s-23 3 -23 3l9 42s8 3 24 3s24 -3 24 -3zM515 831l-9 -42s-9 -3 -25 -3s-23 3 -23 3l9 42s8 3 24 3s24 -3 24 -3zM43 0l153 720h385c1 -4 1 -9 0 -16c-2 -7 -4 -12 -7 -16h-351l-65 -307h301c1 -4 1 -9 0 -15c-2 -6 -4 -11 -7 -16h-301
l-67 -318h361c1 -5 1 -9 0 -15c-2 -7 -4 -12 -7 -17h-395z" />
    <glyph glyph-name="afii10024" unicode="&#x416;" horiz-adv-x="945" 
d="M476 389l69 328s7 3 18 3s16 -3 16 -3l-69 -328h157l273 328s7 3 23 3c12 0 17 -3 17 -3l-285 -348l163 -366s-8 -3 -20 -3c-14 0 -22 3 -22 3l-154 355h-159l-75 -355s-7 -3 -18 -3s-16 3 -16 3l75 355h-165l-300 -355s-8 -3 -24 -3c-13 0 -17 3 -17 3l320 379l-139 335
s8 3 18 3c13 0 18 -3 18 -3l136 -328h160z" />
    <glyph glyph-name="afii10025" unicode="&#x417;" horiz-adv-x="540" 
d="M442 175c-21 -102 -101 -185 -286 -185c-108 0 -173 29 -173 29c2 9 9 22 17 27c30 -10 80 -24 160 -24c162 0 229 71 247 159c32 148 -83 171 -179 171h-50c-3 10 0 23 7 32h50c85 0 199 22 229 162c19 90 -26 152 -152 152c-92 0 -167 -28 -167 -28c-9 6 -10 17 -7 28
c0 0 81 32 185 32c146 0 198 -83 175 -190c-33 -156 -167 -173 -167 -173s147 -23 111 -192z" />
    <glyph glyph-name="afii10026" unicode="&#x418;" horiz-adv-x="686" 
d="M562 590l-479 -587s-9 -3 -22 -3c-12 0 -17 3 -17 3l151 714s7 3 18 3c12 0 16 -3 16 -3l-119 -550c-16 -72 -29 -120 -29 -120h2s29 42 68 90l475 580s7 3 21 3c13 0 18 -3 18 -3l-151 -714s-6 -3 -18 -3s-16 3 -16 3l116 542c22 104 31 130 31 130h-2s-19 -31 -63 -85z
" />
    <glyph glyph-name="afii10027" unicode="&#x419;" horiz-adv-x="686" 
d="M607 881c0 0 -62 -50 -149 -50c-86 0 -134 50 -134 50c5 10 13 17 22 20c19 -17 58 -41 116 -41c67 0 132 41 132 41c10 -3 13 -10 13 -20zM83 3l478 587c45 54 63 85 63 85h2s-9 -26 -31 -130l-115 -542s4 -3 16 -3s18 3 18 3l151 714s-5 3 -18 3c-14 0 -21 -3 -21 -3
l-473 -580c-39 -48 -68 -90 -68 -90h-2s14 48 29 120l117 550s-4 3 -16 3c-11 0 -18 -3 -18 -3l-151 -714s5 -3 17 -3c13 0 22 3 22 3z" />
    <glyph glyph-name="afii10028" unicode="&#x41a;" horiz-adv-x="605" 
d="M229 717l-69 -327h143l298 327s7 3 22 3c12 0 18 -3 18 -3l-312 -346l189 -368s-7 -3 -20 -3c-11 0 -19 3 -19 3l-181 355h-145l-75 -355s-7 -3 -18 -3s-16 3 -16 3l151 714s7 3 18 3s16 -3 16 -3z" />
    <glyph glyph-name="afii10029" unicode="&#x41b;" horiz-adv-x="654" 
d="M-16 -6c-8 0 -20 2 -26 5c0 0 -2 5 0 14s6 15 6 15c7 -1 13 -2 19 -2c43 0 106 7 211 368l94 326h345l-152 -717s-7 -3 -18 -3s-17 3 -16 3l145 685h-281l-85 -296c-107 -372 -182 -398 -242 -398z" />
    <glyph glyph-name="afii10030" unicode="&#x41c;" horiz-adv-x="846" 
d="M640 3l122 576c14 68 27 104 27 104h-2s-17 -27 -52 -69l-324 -407s-7 -3 -17 -3c-9 0 -15 3 -15 3l-142 407c-14 39 -20 69 -20 69h-2s-2 -39 -18 -114l-120 -566s-5 -3 -17 -3s-16 3 -16 3l151 714s9 3 23 3s19 -3 19 -3l145 -418c12 -34 16 -53 16 -53h2s14 18 42 53
l334 418s7 3 27 3c16 0 22 -3 22 -3l-151 -714s-6 -3 -18 -3s-16 3 -16 3z" />
    <glyph glyph-name="afii10031" unicode="&#x41d;" horiz-adv-x="676" 
d="M551 385l70 332s7 3 18 3s16 -3 16 -3l-151 -714s-6 -3 -18 -3c-13 0 -16 3 -16 3l74 350h-392l-74 -350s-7 -3 -18 -3c-13 0 -16 3 -16 3l151 714s7 3 18 3s16 -3 16 -3l-70 -332h392z" />
    <glyph glyph-name="afii10032" unicode="&#x41e;" horiz-adv-x="677" 
d="M275 -10c-165 0 -243 111 -190 370c54 259 176 370 341 370s243 -111 189 -370c-53 -259 -175 -370 -340 -370zM426 700c-143 0 -250 -95 -305 -340c-54 -245 17 -340 157 -340c136 0 247 95 301 340c55 245 -13 340 -153 340z" />
    <glyph glyph-name="afii10033" unicode="&#x41f;" horiz-adv-x="665" 
d="M196 720h448l-152 -717s-7 -3 -17 -3c-12 0 -17 3 -17 3l145 685h-380l-145 -685s-7 -3 -18 -3s-16 3 -16 3z" />
    <glyph glyph-name="afii10034" unicode="&#x420;" horiz-adv-x="598" 
d="M355 309h-212l-65 -306s-6 -3 -18 -3s-16 3 -16 3l152 717h238c123 0 180 -83 154 -206c-26 -122 -110 -205 -233 -205zM223 688l-74 -347h209c100 0 171 66 194 172c23 109 -20 175 -120 175h-209z" />
    <glyph glyph-name="afii10035" unicode="&#x421;" horiz-adv-x="553" 
d="M269 -10c-176 0 -236 125 -183 376c53 246 163 364 340 364c109 0 159 -32 159 -32s1 -7 -5 -15c-6 -9 -12 -12 -12 -12s-52 28 -143 28c-139 0 -248 -78 -304 -340c-55 -262 20 -337 160 -337c99 0 166 28 166 28s5 -2 7 -11s-1 -16 -1 -16s-66 -33 -184 -33z" />
    <glyph glyph-name="afii10036" unicode="&#x422;" horiz-adv-x="524" 
d="M121 720h457s2 -4 0 -15c-2 -10 -7 -16 -7 -16h-209l-145 -686s-6 -3 -18 -3s-16 3 -16 3l145 686h-214s-1 6 1 16s6 15 6 15z" />
    <glyph glyph-name="afii10037" unicode="&#x423;" horiz-adv-x="603" 
d="M267 138l-159 579s6 3 20 3c11 0 16 -3 16 -3l136 -504c5 -17 8 -33 10 -45h2c7 12 17 28 29 48l301 501s3 3 19 3c13 0 19 -3 19 -3l-317 -524c-102 -169 -146 -193 -230 -193c-31 0 -51 6 -51 6c-1 9 2 21 8 30c0 0 21 -5 39 -5c55 0 97 6 164 107h-6z" />
    <glyph glyph-name="afii10038" unicode="&#x424;" horiz-adv-x="790" 
d="M451 646l17 80s7 3 18 3s16 -3 16 -3l-17 -80c177 0 307 -61 262 -275c-46 -214 -200 -266 -377 -266l-21 -102s-8 -3 -18 -3c-12 0 -16 3 -16 3l21 102c-177 0 -306 61 -260 275c45 214 198 266 375 266zM343 135l102 481c-166 0 -294 -49 -334 -240
c-41 -192 66 -241 232 -241zM479 616l-102 -481c166 0 295 50 336 241c41 192 -68 240 -234 240z" />
    <glyph glyph-name="afii10039" unicode="&#x425;" horiz-adv-x="587" 
d="M633 717l-303 -348l160 -366s-8 -3 -22 -3c-13 0 -18 3 -18 3l-149 341l-285 -341s-12 -3 -26 -3c-13 0 -18 3 -18 3l307 365l-151 349s8 3 23 3c10 0 16 -3 16 -3l140 -325l281 325s8 3 25 3c14 0 20 -3 20 -3z" />
    <glyph glyph-name="afii10040" unicode="&#x426;" horiz-adv-x="695" 
d="M516 -138l29 138h-502l152 717s7 3 18 3s16 -3 16 -3l-145 -685h390l145 685s7 3 18 3s16 -3 16 -3l-145 -685h77l-36 -170c-5 -2 -11 -3 -18 -3s-12 1 -15 3z" />
    <glyph glyph-name="afii10041" unicode="&#x427;" horiz-adv-x="629" 
d="M504 381l71 336s7 3 18 3s16 -3 16 -3l-151 -714s-7 -3 -18 -3s-16 3 -16 3l73 344s-92 -43 -210 -43c-129 0 -211 54 -173 232l38 181s7 3 18 3s16 -3 16 -3l-38 -180c-32 -150 16 -201 149 -201c116 0 207 45 207 45z" />
    <glyph glyph-name="afii10042" unicode="&#x428;" horiz-adv-x="958" 
d="M785 0h-742l152 717s6 3 18 3s16 -3 16 -3l-145 -685h320l145 685s4 3 18 3s16 -3 16 -3l-145 -685h320l145 685s6 3 18 3s16 -3 16 -3z" />
    <glyph glyph-name="afii10043" unicode="&#x429;" horiz-adv-x="980" 
d="M801 -138l29 138h-786l152 717s6 3 18 3c11 0 16 -3 16 -3l-145 -685h320l145 685s7 3 18 3s16 -3 16 -3l-145 -685h320l145 685s7 3 18 3s16 -3 16 -3l-145 -685h77l-36 -170c-6 -2 -10 -3 -17 -3s-12 1 -16 3z" />
    <glyph glyph-name="afii10044" unicode="&#x42a;" horiz-adv-x="679" 
d="M107 688c0 0 -2 6 1 16c2 11 6 16 6 16h166h5h17l-68 -322h213c122 0 181 -84 156 -204c-26 -121 -119 -194 -241 -194h-247l146 688h-154zM227 367l-71 -336h210c107 0 180 68 201 169c22 102 -23 167 -130 167h-210z" />
    <glyph glyph-name="afii10045" unicode="&#x42b;" horiz-adv-x="856" 
d="M162 398h213c122 0 180 -84 155 -204c-26 -121 -118 -194 -240 -194h-247l152 717s7 3 18 3s16 -3 16 -3zM650 3l151 714s6 3 18 3s16 -3 16 -3l-151 -714s-6 -3 -18 -3s-16 3 -16 3zM155 367l-71 -336h210c107 0 180 68 201 169c22 102 -23 167 -130 167h-210z" />
    <glyph glyph-name="afii10046" unicode="&#x42c;" horiz-adv-x="606" 
d="M162 398h213c122 0 180 -82 155 -202c-26 -121 -118 -196 -240 -196h-247l152 717s7 3 18 3s16 -3 16 -3zM155 367l-71 -336h210c107 0 180 68 201 169c22 102 -23 167 -130 167h-210z" />
    <glyph glyph-name="afii10047" unicode="&#x42d;" horiz-adv-x="577" 
d="M321 730c182 0 245 -131 192 -377c-53 -251 -158 -363 -349 -363c-123 0 -180 33 -180 33s0 6 5 15c6 10 12 12 12 12s61 -27 165 -27c143 0 254 72 310 327h-294s-1 6 1 16s6 16 6 16h294c46 243 -34 317 -173 317c-96 0 -165 -27 -165 -27s-6 2 -8 11c-2 10 1 17 1 17
s70 30 183 30z" />
    <glyph glyph-name="afii10048" unicode="&#x42e;" horiz-adv-x="945" 
d="M44 3l151 714s7 3 18 3s16 -3 16 -3l-72 -341h200c56 247 170 354 334 354c167 0 248 -111 192 -370c-55 -259 -170 -370 -337 -370c-164 0 -245 106 -196 354h-200l-72 -341s-7 -3 -18 -3s-16 3 -16 3zM691 700c-142 0 -251 -95 -304 -340c-52 -245 17 -340 159 -340
s249 95 301 340c53 245 -14 340 -156 340z" />
    <glyph glyph-name="afii10049" unicode="&#x42f;" horiz-adv-x="621" 
d="M231 326c-85 13 -130 92 -108 197c26 120 113 197 236 197h241l-152 -717s-6 -3 -18 -3s-16 3 -16 3l67 317h-213l-235 -317s-9 -3 -22 -3c-12 0 -18 3 -18 3zM488 352l71 336h-209c-97 0 -170 -62 -193 -168c-22 -106 20 -168 116 -168h215z" />
    <glyph glyph-name="afii10065" unicode="&#x430;" 
d="M459 436l23 90s2 3 14 3s14 -3 14 -3l-111 -523s-5 -3 -14 -3s-12 3 -12 3l13 87c-43 -62 -103 -100 -189 -100c-117 0 -182 69 -139 273s133 273 255 273c78 0 132 -41 146 -100zM436 326c20 83 -18 180 -117 180c-123 0 -188 -72 -227 -243s-3 -243 115 -243
c106 0 181 97 200 180z" />
    <glyph glyph-name="afii10066" unicode="&#x431;" horiz-adv-x="567" 
d="M90 351c63 298 163 329 386 369c39 7 46 14 66 38c11 2 27 -4 31 -11c-17 -32 -37 -47 -97 -58c-199 -38 -279 -63 -347 -307h1c36 66 99 132 214 132s184 -83 146 -265c-39 -182 -126 -259 -257 -259c-105 0 -209 52 -143 361zM333 483c-83 0 -183 -54 -222 -231
c-40 -181 41 -233 123 -233c98 0 184 52 223 233c38 181 -33 231 -124 231z" />
    <glyph glyph-name="afii10067" unicode="&#x432;" horiz-adv-x="513" 
d="M333 526c89 0 135 -50 116 -139c-13 -61 -53 -102 -101 -121c57 -18 79 -66 65 -131c-19 -92 -83 -135 -182 -135h-204l112 526h194zM284 252h-171l-48 -222h171c78 0 129 36 145 109c14 69 -14 113 -97 113zM164 496l-45 -214h158c74 0 125 39 140 108
c15 73 -21 106 -95 106h-158z" />
    <glyph glyph-name="afii10068" unicode="&#x433;" horiz-adv-x="395" 
d="M28 3l111 523h273s2 -5 0 -15c-3 -10 -7 -15 -7 -15h-241l-104 -493s-4 -3 -17 -3c-12 0 -15 3 -15 3z" />
    <glyph glyph-name="afii10069" unicode="&#x434;" horiz-adv-x="562" 
d="M-32 30h46c32 35 65 91 113 258l70 238h302l-106 -496h63l-33 -155s-5 -3 -15 -3c-11 0 -15 3 -15 3l27 125h-428l-27 -125s-4 -3 -15 -3s-15 3 -15 3zM218 496l-61 -212c-42 -148 -73 -210 -105 -254h309l99 466h-242z" />
    <glyph glyph-name="afii10070" unicode="&#x435;" horiz-adv-x="506" 
d="M426 252h-339c-29 -163 13 -229 129 -229c83 0 137 40 137 40c8 -5 13 -17 12 -28c0 0 -58 -45 -161 -45c-130 0 -187 95 -149 276c41 189 138 270 258 270c119 0 167 -79 145 -184c-13 -61 -32 -100 -32 -100zM427 357c17 79 -9 149 -115 149c-101 0 -182 -68 -219 -224
h312s12 28 22 75z" />
    <glyph glyph-name="afii10071" unicode="&#x451;" horiz-adv-x="506" 
d="M292 677l-8 -42s-9 -3 -25 -3s-23 3 -23 3l8 42s9 3 25 3s23 -3 23 -3zM433 677l-8 -42s-9 -3 -25 -3s-23 3 -23 3l8 42s9 3 25 3s23 -3 23 -3zM426 252h-339c-29 -163 13 -229 129 -229c83 0 137 40 137 40c8 -5 13 -17 12 -28c0 0 -58 -45 -161 -45
c-130 0 -187 95 -149 276c41 189 138 270 258 270c119 0 167 -79 145 -184c-13 -61 -32 -100 -32 -100zM427 357c17 79 -9 149 -115 149c-101 0 -182 -68 -219 -224h312s12 28 22 75z" />
    <glyph glyph-name="afii10072" unicode="&#x436;" horiz-adv-x="773" 
d="M370 290l49 233s5 3 17 3s15 -3 15 -3l-49 -233h129l199 233s7 3 25 3c14 0 16 -3 16 -3l-214 -253l129 -266s-7 -4 -21 -4c-12 0 -17 4 -17 4l-124 256h-129l-54 -257s-5 -3 -17 -3s-15 3 -15 3l54 257h-129l-228 -256s-8 -4 -24 -4c-14 0 -18 4 -18 4l245 279l-110 240
s4 3 18 3s19 -3 19 -3l105 -233h129z" />
    <glyph glyph-name="afii10073" unicode="&#x437;" horiz-adv-x="450" 
d="M350 133c-18 -83 -72 -143 -232 -143c-93 0 -138 26 -138 26c3 11 9 21 17 27c0 0 46 -22 126 -22c123 0 178 44 194 120c16 75 -37 112 -136 112h-53s-2 6 0 15s6 15 6 15h53c83 0 151 24 169 109c16 74 -13 114 -122 114c-75 0 -128 -20 -128 -20c-7 5 -7 17 -3 27
c0 0 56 23 147 23c123 0 158 -64 140 -147c-13 -63 -47 -103 -112 -122c63 -18 84 -74 72 -134z" />
    <glyph glyph-name="afii10074" unicode="&#x438;" horiz-adv-x="579" 
d="M123 109l372 414s5 3 20 3c16 0 18 -3 18 -3l-110 -520s-6 -3 -17 -3s-16 3 -16 3l85 401c10 48 19 80 19 80h-2s-28 -35 -62 -73l-364 -408s-7 -3 -21 -3c-13 0 -17 3 -17 3l110 520s5 3 17 3s15 -3 15 -3l-86 -407c-10 -47 -19 -74 -19 -74h2s19 26 56 67z" />
    <glyph glyph-name="afii10075" unicode="&#x439;" horiz-adv-x="579" 
d="M501 688c0 0 -51 -54 -137 -54s-123 54 -123 54c5 10 10 15 22 19c0 0 35 -44 102 -44s122 44 122 44c12 -3 15 -8 14 -19zM123 109l372 414s5 3 20 3c16 0 18 -3 18 -3l-110 -520s-6 -3 -17 -3s-16 3 -16 3l85 401c10 48 19 80 19 80h-2s-28 -35 -62 -73l-364 -408
s-7 -3 -21 -3c-13 0 -17 3 -17 3l110 520s5 3 17 3s15 -3 15 -3l-86 -407c-10 -47 -19 -74 -19 -74h2s19 26 56 67z" />
    <glyph glyph-name="afii10076" unicode="&#x43a;" horiz-adv-x="494" 
d="M170 523l-50 -233h123l211 233s7 3 24 3c14 0 15 -2 15 -2l-227 -252l141 -268s-6 -4 -20 -4c-12 0 -18 4 -18 4l-133 256h-123l-54 -257s-5 -3 -17 -3s-15 3 -15 3l111 520s4 3 16 3s16 -3 16 -3z" />
    <glyph glyph-name="afii10077" unicode="&#x43b;" horiz-adv-x="550" 
d="M170 290c-82 -269 -118 -296 -178 -296c-14 0 -31 4 -31 4s-3 4 -1 13s6 14 6 14s15 -3 29 -3c55 0 89 76 145 272l68 232h297l-111 -523s-5 -3 -17 -3s-15 3 -15 3l104 493h-237z" />
    <glyph glyph-name="afii10078" unicode="&#x43c;" horiz-adv-x="675" 
d="M138 523c0 0 6 3 18 3c13 0 17 -3 17 -3l128 -352l292 352s7 3 19 3s17 -3 17 -3l-110 -520s-5 -3 -17 -3s-15 3 -15 3l85 401c7 32 13 57 19 74h-2c-11 -16 -27 -40 -52 -70l-232 -276s-4 -2 -11 -2s-11 2 -11 2l-102 272c-11 30 -19 57 -21 74h-3
c-1 -17 -3 -43 -10 -74l-87 -401s-5 -3 -17 -3s-15 3 -15 3z" />
    <glyph glyph-name="afii10079" unicode="&#x43d;" horiz-adv-x="562" 
d="M374 3l53 253h-314l-53 -253s-5 -3 -17 -3s-15 3 -15 3l110 520s5 3 17 3c13 0 15 -3 15 -3l-50 -237h314l50 237s5 3 17 3c13 0 15 -3 15 -3l-110 -520s-5 -3 -17 -3s-15 3 -15 3z" />
    <glyph glyph-name="afii10080" unicode="&#x43e;" horiz-adv-x="537" 
d="M207 -10c-128 0 -189 75 -150 273s128 273 256 273s189 -75 150 -273s-128 -273 -256 -273zM312 506c-104 0 -182 -57 -221 -243c-40 -186 13 -243 117 -243s181 57 221 243c39 186 -13 243 -117 243z" />
    <glyph glyph-name="afii10081" unicode="&#x43f;" horiz-adv-x="551" 
d="M363 3l104 493h-303l-104 -493s-5 -3 -17 -3s-15 3 -15 3l111 523h367l-111 -523s-4 -3 -16 -3c-13 0 -16 3 -16 3z" />
    <glyph glyph-name="afii10082" unicode="&#x440;" 
d="M79 95l-73 -342s-4 -3 -16 -3s-16 3 -16 3l164 770s5 3 17 3s15 -3 15 -3l-18 -84c43 59 102 97 183 97c122 0 187 -69 144 -273s-128 -273 -250 -273c-80 0 -132 39 -150 105zM101 200c-17 -83 21 -180 121 -180c123 0 187 72 223 243s4 243 -119 243
c-99 0 -177 -93 -196 -174z" />
    <glyph glyph-name="afii10083" unicode="&#x441;" horiz-adv-x="442" 
d="M321 505c-123 0 -197 -83 -231 -242c-34 -161 8 -241 133 -241c64 0 108 24 108 24c7 -5 9 -16 8 -27c0 0 -50 -29 -130 -29c-131 0 -189 99 -151 282c37 178 132 264 263 264c76 0 111 -23 111 -23c-2 -11 -7 -21 -18 -28c0 0 -33 20 -93 20z" />
    <glyph glyph-name="afii10084" unicode="&#x442;" horiz-adv-x="419" 
d="M76 526h362s3 -4 1 -15c-3 -11 -8 -15 -8 -15h-165l-104 -493s-5 -3 -17 -3s-15 3 -15 3l104 493h-165s-3 4 0 15c2 11 7 15 7 15z" />
    <glyph glyph-name="afii10085" unicode="&#x443;" horiz-adv-x="549" 
d="M472 523c0 0 6 3 17 3s15 -3 15 -3l-111 -520c-39 -166 -112 -253 -265 -253c-79 0 -121 24 -121 24c1 11 6 21 17 27c0 0 47 -19 111 -19c110 0 190 47 227 222l18 87c-55 -62 -121 -101 -202 -101c-94 0 -145 58 -126 148l82 385s6 3 17 3s15 -3 15 -3l-80 -377
c-19 -88 18 -127 102 -127c69 0 152 48 205 131z" />
    <glyph glyph-name="afii10086" unicode="&#x444;" horiz-adv-x="774" 
d="M341 16l-56 -263s-4 -3 -16 -3s-16 3 -16 3l56 263s-47 -26 -127 -26c-133 0 -162 95 -124 273s97 273 230 273c72 0 127 -23 127 -23l50 234s4 3 16 3s16 -3 16 -3l-50 -234s53 24 127 23c132 -2 162 -95 124 -273s-97 -273 -230 -273c-80 0 -127 26 -127 26zM317 50
l91 431c-1 -1 -40 25 -117 25c-109 0 -165 -81 -199 -243c-35 -162 -14 -242 95 -242c72 0 130 29 130 29zM664 263c34 162 14 243 -95 243c-77 0 -128 -26 -129 -25l-91 -431s44 -29 116 -29c109 0 164 80 199 242z" />
    <glyph glyph-name="afii10087" unicode="&#x445;" horiz-adv-x="483" 
d="M-31 3l243 265l-129 255s6 3 20 3c9 0 15 -3 15 -3l119 -233l213 233s4 3 24 3c13 0 18 -3 18 -3l-239 -259l133 -261s-6 -3 -20 -3c-10 0 -15 3 -15 3l-122 239l-218 -239s-5 -3 -26 -3c-12 0 -16 3 -16 3z" />
    <glyph glyph-name="afii10088" unicode="&#x446;" horiz-adv-x="572" 
d="M508 523l-105 -493h63l-33 -155s-4 -3 -15 -3s-15 3 -15 3l27 125h-403l111 523s5 3 17 3s15 -3 15 -3l-105 -493h306l105 493s5 3 17 3s15 -3 15 -3z" />
    <glyph glyph-name="afii10089" unicode="&#x447;" horiz-adv-x="517" 
d="M471 523l-110 -520s-5 -3 -17 -3s-15 3 -15 3l52 245c-29 -15 -82 -46 -166 -46c-126 0 -166 66 -145 163l33 158s5 3 17 3s15 -3 15 -3l-34 -159c-18 -85 14 -132 119 -132c76 0 138 34 168 50l51 241s5 3 17 3s15 -3 15 -3z" />
    <glyph glyph-name="afii10090" unicode="&#x448;" horiz-adv-x="803" 
d="M758 523l-111 -523h-620l111 523s5 3 17 3s15 -3 15 -3l-105 -493h261l105 493s5 3 17 3s15 -3 15 -3l-105 -493h263l105 493s5 3 17 3s15 -3 15 -3z" />
    <glyph glyph-name="afii10091" unicode="&#x449;" horiz-adv-x="822" 
d="M758 523l-105 -493h63l-33 -155s-4 -3 -15 -3s-15 3 -15 3l27 125h-653l111 523s5 3 17 3s15 -3 15 -3l-105 -493h261l105 493s5 3 17 3s15 -3 15 -3l-105 -493h263l105 493s5 3 17 3s15 -3 15 -3z" />
    <glyph glyph-name="afii10092" unicode="&#x44a;" horiz-adv-x="556" 
d="M226 526l-50 -232h182c95 0 133 -64 114 -152c-18 -88 -81 -142 -176 -142h-214l105 496h-120s-2 4 1 15c2 11 6 15 6 15h152zM348 264h-178l-50 -234h178c79 0 125 42 141 116s-12 118 -91 118z" />
    <glyph glyph-name="afii10093" unicode="&#x44b;" horiz-adv-x="709" 
d="M170 523l-49 -229h182c95 0 133 -65 114 -153c-18 -88 -81 -141 -176 -141h-214l111 523s7 3 17 3c11 0 15 -3 15 -3zM293 264h-178l-50 -234h178c79 0 125 42 141 116s-12 118 -91 118zM663 523l-110 -520s-5 -3 -17 -3s-15 3 -15 3l110 520s5 3 17 3s15 -3 15 -3z" />
    <glyph glyph-name="afii10094" unicode="&#x44c;" horiz-adv-x="499" 
d="M170 523l-49 -229h182c95 0 132 -65 113 -153c-18 -88 -80 -141 -175 -141h-214l111 523s7 3 17 3c11 0 15 -3 15 -3zM293 264h-178l-50 -234h178c79 0 125 42 141 116s-12 118 -91 118z" />
    <glyph glyph-name="afii10095" unicode="&#x44d;" horiz-adv-x="448" 
d="M337 251h-222c-2 9 1 22 7 30h221c27 147 -9 225 -133 225c-60 0 -105 -18 -105 -18c-7 6 -8 17 -6 28c0 0 48 20 124 20c132 0 189 -99 151 -277s-136 -269 -267 -269c-81 0 -125 29 -125 29c3 10 9 19 18 25c0 0 42 -22 103 -22c122 0 199 76 234 229z" />
    <glyph glyph-name="afii10096" unicode="&#x44e;" horiz-adv-x="778" 
d="M170 523l-53 -249h175c43 189 130 262 258 262c130 0 196 -75 154 -273s-130 -273 -260 -273c-126 0 -192 70 -158 254h-175l-51 -241s-5 -3 -17 -3s-15 3 -15 3l110 520s5 3 17 3s15 -3 15 -3zM549 507c-106 0 -188 -58 -227 -244c-40 -186 17 -244 123 -244
s185 58 225 244c39 186 -15 244 -121 244z" />
    <glyph glyph-name="afii10097" unicode="&#x44f;" horiz-adv-x="519" 
d="M331 3l47 221h-161c-15 0 -22 1 -22 1l-169 -222s-9 -3 -23 -3c-12 0 -16 3 -16 3l175 227c-65 18 -91 71 -76 144c20 90 87 152 193 152h195l-111 -523s-5 -3 -17 -3s-15 3 -15 3zM276 496c-90 0 -139 -46 -156 -122c-15 -71 6 -120 96 -120h168l51 242h-159z" />
    <glyph glyph-name="afii61289" unicode="&#x2113;" horiz-adv-x="449" 
d="M24 192c-8 7 -9 15 -6 25c35 15 70 34 101 52l54 253c35 167 85 228 191 228c87 0 116 -59 97 -149c-27 -127 -158 -257 -314 -349l-25 -116c-19 -88 6 -116 69 -116c70 0 144 57 144 57c8 0 16 -8 15 -17c0 0 -74 -70 -173 -70c-95 0 -104 60 -76 195l11 50
c-19 -10 -68 -34 -88 -43zM215 574l-61 -288c131 85 247 193 272 314c16 71 2 121 -66 121c-72 0 -121 -35 -145 -147z" />
    <glyph glyph-name="agrave" unicode="&#xe0;" 
d="M308 768l85 -150c-5 -8 -11 -12 -24 -13l-93 147c8 9 19 16 32 16zM459 436l23 90s2 3 14 3s14 -3 14 -3l-111 -523s-5 -3 -14 -3s-12 3 -12 3l13 87c-43 -62 -103 -100 -189 -100c-117 0 -182 69 -139 273s133 273 255 273c78 0 132 -41 146 -100zM436 326
c20 83 -18 180 -117 180c-123 0 -188 -72 -227 -243s-3 -243 115 -243c106 0 181 97 200 180z" />
    <glyph glyph-name="amacron" unicode="&#x101;" 
d="M454 656h-225c-1 5 -1 7 0 13s3 11 6 15h225c3 -3 3 -8 1 -14c-1 -6 -3 -9 -7 -14zM459 436l23 90s2 3 14 3s14 -3 14 -3l-111 -523s-5 -3 -14 -3s-12 3 -12 3l13 87c-43 -62 -103 -100 -189 -100c-117 0 -182 69 -139 273s133 273 255 273c78 0 132 -41 146 -100z
M436 326c20 83 -18 180 -117 180c-123 0 -188 -72 -227 -243s-3 -243 115 -243c106 0 181 97 200 180z" />
    <glyph glyph-name="ampersand" unicode="&#x26;" horiz-adv-x="627" 
d="M404 690c87 0 120 -58 107 -119c-22 -105 -119 -160 -260 -226c24 -83 75 -163 151 -228c56 52 93 112 115 159c12 0 24 -6 28 -15c-20 -44 -59 -103 -123 -162c34 -27 74 -50 117 -70c-1 -12 -10 -24 -20 -30c-47 20 -88 46 -125 76c-14 -13 -100 -85 -224 -85
c-95 0 -175 50 -149 169c24 113 138 176 192 200c-11 53 -12 105 -2 155c23 108 91 176 193 176zM180 20c93 0 168 53 194 72c-77 68 -130 154 -154 240c-48 -22 -142 -77 -162 -171c-19 -89 31 -141 122 -141zM393 660c-72 0 -127 -50 -147 -143c-10 -48 -11 -96 -1 -144
c125 58 212 108 230 192c12 58 -17 95 -82 95z" />
    <glyph glyph-name="aogonek" unicode="&#x105;" 
d="M328 -145c25 0 44 11 44 11c5 -5 7 -13 5 -22c0 0 -25 -17 -61 -17c-53 0 -75 26 -66 68c11 54 64 101 124 120l11 75c-43 -62 -103 -100 -189 -100c-122 0 -182 69 -139 273s133 273 255 273c85 0 128 -46 145 -105l24 95s2 3 14 3s14 -3 14 -3l-111 -523l-10 -3
c-44 -15 -95 -54 -105 -101c-6 -32 12 -44 45 -44zM407 200l27 126c18 83 -14 180 -120 180c-123 0 -187 -72 -223 -243s-6 -243 117 -243c106 0 182 97 199 180z" />
    <glyph glyph-name="approxequal" unicode="&#x2248;" horiz-adv-x="541" 
d="M203 374c-48 0 -85 -36 -85 -36c-12 2 -18 11 -18 22c0 0 42 47 114 47c66 0 84 -51 147 -51c48 0 85 36 85 36c12 -2 18 -9 20 -20c0 0 -40 -49 -116 -49c-66 0 -84 51 -147 51zM170 215c-48 0 -86 -36 -86 -36c-12 2 -18 11 -17 22c0 0 42 47 114 47
c66 0 83 -51 146 -51c48 0 85 36 85 36c12 -2 19 -9 20 -20c0 0 -40 -49 -116 -49c-66 0 -83 51 -146 51z" />
    <glyph glyph-name="aring" unicode="&#xe5;" 
d="M337 590c-63 0 -104 38 -90 106c13 68 75 104 132 104c56 0 107 -35 93 -104c-14 -68 -73 -106 -135 -106zM440 696c9 39 -10 75 -65 75c-54 0 -87 -37 -96 -75c-9 -39 8 -77 62 -77c55 0 90 39 99 77zM459 436l23 90s2 3 14 3s14 -3 14 -3l-111 -523s-5 -3 -14 -3
s-12 3 -12 3l13 87c-43 -62 -103 -100 -189 -100c-117 0 -182 69 -139 273s133 273 255 273c78 0 132 -41 146 -100zM436 326c20 83 -18 180 -117 180c-123 0 -188 -72 -227 -243s-3 -243 115 -243c106 0 181 97 200 180z" />
    <glyph glyph-name="aringacute" unicode="&#x1fb;" 
d="M488 917l-139 -113c-11 1 -18 8 -21 14l133 112c13 0 23 -5 27 -13zM332 575c-61 0 -101 37 -88 103s74 101 129 101c54 0 103 -34 90 -101c-13 -66 -71 -103 -131 -103zM434 678c9 39 -10 75 -65 75c-54 0 -87 -37 -96 -75c-9 -39 8 -77 62 -77c55 0 90 39 99 77z
M459 436l23 90s2 3 14 3s14 -3 14 -3l-111 -523s-5 -3 -14 -3s-12 3 -12 3l13 87c-43 -62 -103 -100 -189 -100c-117 0 -182 69 -139 273s133 273 255 273c78 0 132 -41 146 -100zM436 326c20 83 -18 180 -117 180c-123 0 -188 -72 -227 -243s-3 -243 115 -243
c106 0 181 97 200 180z" />
    <glyph glyph-name="arrowdown" unicode="&#x2193;" horiz-adv-x="485" 
d="M196 94l-159 202c5 8 13 17 24 20l131 -168l97 455s6 2 16 2s14 -2 14 -2l-97 -455l204 168c8 -3 15 -12 15 -20z" />
    <glyph glyph-name="arrowleft" unicode="&#x2190;" horiz-adv-x="618" 
d="M59 350l245 202c8 -3 15 -10 16 -20l-203 -167h455s0 -5 -2 -15s-5 -15 -5 -15h-455l132 -168c-4 -9 -15 -17 -24 -19z" />
    <glyph glyph-name="arrowright" unicode="&#x2192;" horiz-adv-x="617" 
d="M418 552l159 -202l-245 -202c-7 2 -14 10 -16 19l204 168h-455s-1 5 1 15s6 15 6 15h455l-133 167c5 10 16 17 24 20z" />
    <glyph glyph-name="arrowup" unicode="&#x2191;" horiz-adv-x="485" 
d="M62 403l245 202l159 -202c-4 -8 -14 -17 -24 -20l-132 168l-97 -455s-5 -2 -15 -2s-15 2 -15 2l97 455l-203 -168c-9 3 -14 12 -15 20z" />
    <glyph glyph-name="asciicircum" unicode="^" horiz-adv-x="511" 
d="M364 717l121 -262s-5 -3 -20 -3s-19 3 -19 3l-107 235l-207 -235s-4 -3 -19 -3s-18 3 -18 3l231 262s5 3 20 3s18 -3 18 -3z" />
    <glyph glyph-name="asciitilde" unicode="~" horiz-adv-x="539" 
d="M190 315c-48 0 -86 -36 -86 -36c-11 2 -17 11 -17 22c0 0 42 47 114 47c66 0 83 -51 146 -51c48 0 86 36 86 36c11 -2 18 -9 19 -20c0 0 -40 -49 -116 -49c-66 0 -83 51 -146 51z" />
    <glyph glyph-name="asterisk" unicode="*" horiz-adv-x="354" 
d="M272 497l-40 75l-71 -76c-7 3 -14 9 -18 14l72 78l-81 28c2 10 7 18 13 24l81 -28l19 89s4 2 13 2c8 0 12 -2 12 -2l-19 -89l93 28c5 -6 5 -14 3 -24l-94 -28l40 -77c-6 -5 -15 -11 -23 -14z" />
    <glyph glyph-name="at" unicode="@" horiz-adv-x="914" 
d="M840 303c-28 -133 -103 -218 -210 -218c-46 0 -79 22 -82 75c-30 -43 -77 -75 -145 -75c-86 0 -150 49 -119 193c31 146 115 194 201 194c63 0 96 -27 110 -64l13 61s5 3 14 3s16 -3 16 -3l-53 -249c-17 -78 5 -109 53 -109c66 0 143 53 172 192c45 211 -56 351 -279 351
c-205 0 -389 -144 -438 -375c-54 -254 84 -367 271 -367c115 0 222 40 301 87c8 -3 13 -10 10 -21c-101 -65 -211 -94 -324 -94c-202 0 -344 130 -288 395c52 245 249 401 473 401c248 0 351 -157 304 -377zM317 278c-28 -131 28 -167 97 -167c74 0 128 59 142 117l21 97
c13 60 -16 121 -92 121c-69 0 -139 -30 -168 -168z" />
    <glyph glyph-name="atilde" unicode="&#xe3;" 
d="M421 668c28 0 45 29 45 29c10 1 20 -2 24 -11c0 0 -21 -46 -72 -46c-48 0 -70 35 -108 35c-28 0 -45 -30 -45 -30c-11 -1 -21 4 -24 11c0 0 20 48 71 48c48 0 71 -36 109 -36zM459 436l23 90s2 3 14 3s14 -3 14 -3l-111 -523s-5 -3 -14 -3s-12 3 -12 3l13 87
c-43 -62 -103 -100 -189 -100c-117 0 -182 69 -139 273s133 273 255 273c78 0 132 -41 146 -100zM436 326c20 83 -18 180 -117 180c-123 0 -188 -72 -227 -243s-3 -243 115 -243c106 0 181 97 200 180z" />
    <glyph glyph-name="b" unicode="b" 
d="M218 747l-66 -308c43 59 97 97 183 97c116 0 187 -69 144 -273s-131 -273 -250 -273c-83 0 -133 41 -151 104l-18 -91s-5 -3 -17 -3s-15 3 -15 3l158 744s4 3 16 3s16 -3 16 -3zM445 263c36 171 -2 243 -119 243c-104 0 -177 -93 -196 -174l-29 -132
c-17 -83 18 -180 121 -180c120 0 187 72 223 243z" />
    <glyph glyph-name="backslash" unicode="\" horiz-adv-x="421" 
d="M154 746l169 -789s-6 -4 -19 -4s-18 4 -18 4l-169 789s5 4 18 4c14 0 19 -4 19 -4z" />
    <glyph glyph-name="bar" unicode="|" horiz-adv-x="244" 
d="M240 787l-208 -981s-5 -3 -17 -3s-15 3 -15 3l208 981s5 3 17 3s15 -3 15 -3z" />
    <glyph glyph-name="braceleft" unicode="{" horiz-adv-x="334" 
d="M82 318h-35s-2 6 0 16c2 11 7 17 7 17h35c30 0 47 25 53 52l58 274c17 80 72 133 161 133h40s2 -6 0 -16s-7 -16 -7 -16h-35c-74 0 -112 -38 -126 -103l-54 -254c-9 -43 -19 -69 -48 -86c22 -17 21 -44 12 -87l-54 -254c-14 -66 8 -103 82 -103h35s2 -4 0 -15
c-3 -13 -7 -17 -7 -17h-40c-89 0 -122 53 -105 133l58 274c6 27 0 52 -30 52z" />
    <glyph glyph-name="braceright" unicode="}" horiz-adv-x="334" 
d="M265 351h35s1 -6 -1 -16c-2 -11 -6 -17 -6 -17h-35c-30 0 -48 -25 -54 -52l-58 -274c-17 -80 -72 -133 -161 -133h-40s-2 6 0 16c3 10 7 16 7 16h35c74 0 112 38 126 103l54 254c9 43 19 69 48 86c-21 17 -21 44 -12 87l54 254c14 66 -8 103 -82 103h-35s-2 4 1 15
c2 13 6 17 6 17h40c89 0 122 -53 105 -133l-58 -274c-6 -27 1 -52 31 -52z" />
    <glyph glyph-name="bracketleft" unicode="[" horiz-adv-x="311" 
d="M214 810h163s2 -5 0 -17c-3 -12 -7 -17 -7 -17h-129l-194 -912h129s2 -5 0 -16c-3 -13 -7 -18 -7 -18h-163z" />
    <glyph glyph-name="bracketright" unicode="]" horiz-adv-x="310" 
d="M147 810h163l-208 -980h-163s-2 5 1 18c2 11 6 16 6 16h129l194 912h-129s-2 5 1 17c2 12 6 17 6 17z" />
    <glyph glyph-name="breve" unicode="&#x2d8;" horiz-adv-x="324" 
d="M282 682c0 0 -56 -54 -142 -54s-118 54 -118 54c5 10 10 15 22 19c0 0 36 -43 103 -43s121 43 121 43c11 -3 14 -8 14 -19z" />
    <glyph glyph-name="brokenbar" unicode="&#xa6;" horiz-adv-x="243" 
d="M-1 -194l93 441s6 3 18 3s16 -3 16 -3l-93 -441s-6 -3 -18 -3s-16 3 -16 3zM116 356l93 441s6 3 18 3s16 -3 16 -3l-93 -441s-6 -3 -18 -3s-16 3 -16 3z" />
    <glyph glyph-name="bullet" unicode="&#x2022;" horiz-adv-x="279" 
d="M165 282c-4 -18 -19 -30 -37 -30c-17 0 -29 12 -25 30c4 19 20 31 37 31c18 0 29 -12 25 -31z" />
    <glyph glyph-name="c" unicode="c" horiz-adv-x="442" 
d="M321 505c-123 0 -197 -83 -231 -242c-34 -161 8 -241 133 -241c64 0 108 24 108 24c7 -5 9 -16 8 -27c0 0 -50 -29 -130 -29c-131 0 -189 99 -151 282c37 178 132 264 263 264c76 0 111 -23 111 -23c-2 -11 -7 -21 -18 -28c0 0 -33 20 -93 20z" />
    <glyph glyph-name="cacute" unicode="&#x107;" horiz-adv-x="442" 
d="M432 757l-154 -147c-12 1 -19 6 -21 14l148 150c14 0 22 -6 27 -17zM321 505c-123 0 -197 -83 -231 -242c-34 -161 8 -241 133 -241c64 0 108 24 108 24c7 -5 9 -16 8 -27c0 0 -50 -29 -130 -29c-131 0 -189 99 -151 282c37 178 132 264 263 264c76 0 111 -23 111 -23
c-2 -11 -7 -21 -18 -28c0 0 -33 20 -93 20z" />
    <glyph glyph-name="caron" unicode="&#x2c7;" horiz-adv-x="404" 
d="M175 550h-26l-103 101c5 11 11 17 22 21l101 -91l139 90c8 -2 11 -10 11 -20z" />
    <glyph glyph-name="ccaron" unicode="&#x10d;" horiz-adv-x="442" 
d="M343 602h-23l-94 93c4 11 7 15 17 19l93 -84l127 83c8 -2 13 -8 13 -18zM321 505c-123 0 -197 -83 -231 -242c-34 -161 8 -241 133 -241c64 0 108 24 108 24c7 -5 9 -16 8 -27c0 0 -50 -29 -130 -29c-131 0 -189 99 -151 282c37 178 132 264 263 264
c76 0 111 -23 111 -23c-2 -11 -7 -21 -18 -28c0 0 -33 20 -93 20z" />
    <glyph glyph-name="ccedilla" unicode="&#xe7;" horiz-adv-x="442" 
d="M58 272c37 178 132 264 263 264c76 0 111 -23 111 -23c-2 -11 -7 -21 -18 -28c0 0 -33 20 -93 20c-123 0 -197 -83 -231 -242c-34 -161 8 -241 133 -241c64 0 108 24 108 24c7 -5 9 -16 8 -27c0 0 -50 -29 -130 -29h-8l-18 -44c72 0 103 -38 91 -93
c-13 -64 -55 -92 -129 -92c-50 0 -82 23 -82 23c3 10 8 17 15 22c0 0 30 -18 74 -18c50 0 82 23 92 70c9 39 -13 60 -60 60h-31l-5 8l26 67c-106 16 -150 113 -116 279z" />
    <glyph glyph-name="ccircumflex" unicode="&#x109;" horiz-adv-x="442" 
d="M342 721h25l100 -99c-4 -9 -7 -15 -17 -17l-99 88l-136 -89c-9 4 -15 8 -15 18zM321 505c-123 0 -197 -83 -231 -242c-34 -161 8 -241 133 -241c64 0 108 24 108 24c7 -5 9 -16 8 -27c0 0 -50 -29 -130 -29c-131 0 -189 99 -151 282c37 178 132 264 263 264
c76 0 111 -23 111 -23c-2 -11 -7 -21 -18 -28c0 0 -33 20 -93 20z" />
    <glyph glyph-name="cdotaccent" unicode="&#x10b;" horiz-adv-x="442" 
d="M366 666l-9 -42s-8 -3 -24 -3s-24 3 -24 3l9 42s9 3 25 3s23 -3 23 -3zM321 505c-123 0 -197 -83 -231 -242c-34 -161 8 -241 133 -241c64 0 108 24 108 24c7 -5 9 -16 8 -27c0 0 -50 -29 -130 -29c-131 0 -189 99 -151 282c37 178 132 264 263 264c76 0 111 -23 111 -23
c-2 -11 -7 -21 -18 -28c0 0 -33 20 -93 20z" />
    <glyph glyph-name="cedilla" unicode="&#xb8;" horiz-adv-x="296" 
d="M-52 -54l-5 8l33 85l27 -2l-25 -63c78 0 106 -33 95 -88c-14 -64 -59 -97 -133 -97c-50 0 -82 23 -82 23c3 10 9 17 16 22c0 0 29 -18 73 -18c50 0 83 23 93 70c8 39 -14 60 -61 60h-31z" />
    <glyph glyph-name="cent" unicode="&#xa2;" horiz-adv-x="458" 
d="M357 627l-28 -109h-25l18 109c7 2 13 3 19 3s12 -1 16 -3zM167 -101l29 109h25l-19 -109c-6 -3 -12 -4 -18 -4s-12 1 -17 4zM325 505c-123 0 -197 -83 -231 -242c-34 -161 8 -240 133 -240c64 0 108 23 108 23c7 -5 9 -16 8 -27c0 0 -54 -29 -134 -29
c-131 0 -187 95 -149 273s134 273 265 273c76 0 111 -23 111 -23c-2 -11 -7 -21 -18 -28c0 0 -33 20 -93 20z" />
    <glyph glyph-name="circumflex" unicode="&#x2c6;" horiz-adv-x="396" 
d="M177 683h26l102 -101c-4 -10 -11 -18 -21 -20l-101 90l-139 -91c-9 4 -13 10 -12 21z" />
    <glyph glyph-name="colon" unicode=":" horiz-adv-x="218" 
d="M78 45l-9 -42s-9 -3 -25 -3s-23 3 -23 3l9 42s8 3 24 3s24 -3 24 -3zM161 440l-8 -42s-9 -3 -25 -3s-23 3 -23 3l8 42s9 3 25 3s23 -3 23 -3z" />
    <glyph glyph-name="comma" unicode="," horiz-adv-x="204" 
d="M-4 -94l-13 12s33 28 50 82c-12 0 -17 3 -17 3l9 42s8 3 24 3s24 -3 24 -3l-7 -32c-15 -70 -70 -107 -70 -107z" />
    <glyph glyph-name="commaaccent" unicode="&#xf6c3;" horiz-adv-x="186" 
d="M-108 -94l-13 12s33 28 50 82c-12 0 -17 3 -17 3l9 42s8 3 24 3s24 -3 24 -3l-7 -32c-15 -70 -70 -107 -70 -107z" />
    <glyph glyph-name="commaaccent.alt" horiz-adv-x="166" 
d="M101 720l13 -12s-35 -28 -51 -82c12 -1 18 -3 18 -3l-9 -42s-8 -3 -24 -3s-24 3 -24 3l7 32c15 70 70 107 70 107z" />
    <glyph glyph-name="copyright" unicode="&#xa9;" horiz-adv-x="807" 
d="M340 5c-185 0 -303 150 -264 335c40 185 221 334 406 334s303 -149 263 -334c-39 -185 -220 -335 -405 -335zM476 646c-169 0 -336 -137 -372 -306s73 -307 242 -307s335 138 371 307s-72 306 -241 306zM371 147c-112 0 -151 72 -124 200c28 131 97 199 209 199
c66 0 95 -22 95 -22c-1 -8 -7 -17 -15 -22c0 0 -36 18 -81 18c-99 0 -152 -50 -178 -173c-25 -114 10 -173 105 -173c49 0 93 17 93 17c6 -4 7 -12 6 -21c0 0 -41 -23 -110 -23z" />
    <glyph glyph-name="currency" unicode="&#xa4;" horiz-adv-x="586" 
d="M438 51l-59 75c-39 -28 -86 -45 -133 -45c-48 0 -87 17 -114 45l-90 -75s-6 0 -12 9c-7 7 -6 13 -6 13l91 74c-21 33 -29 76 -18 124c10 47 36 91 72 124l-60 74s2 7 11 14c10 7 15 7 15 7l61 -73c38 27 84 44 131 44c46 0 85 -17 112 -45l89 74s5 0 13 -7
c5 -7 5 -14 5 -14l-89 -74c22 -34 30 -77 20 -124c-11 -48 -37 -91 -73 -124l59 -74s-1 -6 -9 -13c-10 -9 -16 -9 -16 -9zM321 431c-89 0 -175 -70 -194 -160c-20 -90 37 -160 126 -160c90 0 174 70 194 160c19 90 -36 160 -126 160z" />
    <glyph glyph-name="d" unicode="d" 
d="M458 434l66 313s4 3 16 3s16 -3 16 -3l-158 -744s-5 -3 -14 -3s-12 3 -12 3l13 88c-43 -64 -98 -101 -184 -101c-118 0 -187 69 -144 273s129 273 250 273c83 0 134 -43 151 -102zM434 326c18 83 -16 180 -120 180c-122 0 -187 -72 -223 -243s0 -243 119 -243
c106 0 180 97 197 180z" />
    <glyph glyph-name="dagger" unicode="&#x2020;" horiz-adv-x="581" 
d="M330 442l-111 -553l-21 -16l-16 16l125 553l-243 -6s-3 6 -1 17c3 11 8 16 8 16l241 -5l42 234s7 3 20 3c12 0 17 -3 17 -3l-56 -234l245 5s2 -5 -1 -16c-2 -11 -6 -17 -6 -17z" />
    <glyph glyph-name="daggerdbl" unicode="&#x2021;" horiz-adv-x="636" 
d="M293 136l243 7s3 -4 0 -17c-3 -12 -7 -16 -7 -16l-240 7l-43 -236s-5 -3 -20 -3c-14 0 -17 3 -17 3l57 236l-243 -7s-2 4 1 16c3 13 6 17 6 17l240 -7l25 153l40 153l-243 -6s-3 4 0 17c3 12 7 16 7 16l241 -5l42 234s5 3 20 3c14 0 17 -3 17 -3l-56 -234l242 5
s2 -4 -1 -16c-3 -13 -6 -17 -6 -17l-240 6l-26 -153z" />
    <glyph glyph-name="dcaron" unicode="&#x10f;" horiz-adv-x="565" 
d="M599 588c-10 0 -16 5 -17 11c50 37 78 89 88 152c15 3 26 2 33 -4c-12 -57 -51 -126 -104 -159zM458 434l66 313s4 3 16 3s16 -3 16 -3l-158 -744s-5 -3 -14 -3s-12 3 -12 3l13 88c-43 -64 -98 -101 -184 -101c-118 0 -187 69 -144 273s129 273 250 273
c83 0 134 -43 151 -102zM434 326c18 83 -16 180 -120 180c-122 0 -187 -72 -223 -243s0 -243 119 -243c106 0 180 97 197 180z" />
    <glyph glyph-name="dcroat" unicode="&#x111;" 
d="M537 658h72s2 -3 0 -14s-6 -14 -6 -14h-72l-133 -627s-5 -3 -14 -3s-12 3 -12 3l13 88c-43 -64 -98 -101 -184 -101c-118 0 -187 69 -144 273s129 273 250 273c83 0 134 -43 151 -102l41 196h-136s-2 3 0 14s6 14 6 14h136l19 89s4 3 16 3s16 -3 16 -3zM407 200l27 126
c18 83 -16 180 -120 180c-122 0 -187 -72 -223 -243s0 -243 119 -243c106 0 180 97 197 180z" />
    <glyph glyph-name="degree" unicode="&#xb0;" horiz-adv-x="362" 
d="M343 619c10 50 -11 98 -77 98s-109 -50 -120 -99c-10 -49 11 -96 79 -96c66 0 107 47 118 97zM126 617c12 58 66 119 145 119c78 0 104 -59 92 -116c-13 -58 -63 -117 -141 -117c-82 0 -108 57 -96 114z" />
    <glyph glyph-name="dieresis" unicode="&#xa8;" horiz-adv-x="455" 
d="M163 656l-9 -42s-8 -3 -24 -3s-24 3 -24 3l9 42s9 3 25 3s23 -3 23 -3zM304 656l-9 -42s-8 -3 -24 -3s-24 3 -24 3l9 42s9 3 25 3s23 -3 23 -3z" />
    <glyph glyph-name="divide" unicode="&#xf7;" horiz-adv-x="563" 
d="M464 275h-381s-2 4 1 15c2 11 6 15 6 15h381s2 -4 0 -15c-3 -11 -7 -15 -7 -15zM272 150l-9 -42s-9 -3 -25 -3s-23 3 -23 3l9 42s8 3 24 3s24 -3 24 -3zM340 472l-9 -42s-8 -3 -24 -3s-24 3 -24 3l9 42s9 3 25 3s23 -3 23 -3z" />
    <glyph glyph-name="dollar" unicode="$" horiz-adv-x="558" 
d="M365 637c-132 0 -205 -53 -223 -138c-44 -205 379 -79 327 -323c-21 -101 -112 -166 -242 -173l-22 -129s-5 -3 -19 -3c-15 0 -20 3 -20 3l32 128c-119 0 -190 33 -190 33c1 9 8 22 16 27c0 0 81 -27 177 -27c127 0 213 46 233 140c45 212 -378 84 -327 322
c20 97 104 162 233 170l20 119s7 3 20 3c14 0 19 -3 19 -3l-31 -118c109 0 165 -22 165 -22c-1 -10 -6 -21 -15 -27c0 0 -64 18 -153 18z" />
    <glyph glyph-name="dotaccent" unicode="&#x2d9;" horiz-adv-x="176" 
d="M96 648l-9 -42s-9 -3 -25 -3s-23 3 -23 3l9 42s8 3 24 3s24 -3 24 -3z" />
    <glyph glyph-name="dotlessi" unicode="&#x131;" horiz-adv-x="222" 
d="M173 523l-110 -520s-5 -3 -17 -3s-15 3 -15 3l110 520s5 3 17 3s15 -3 15 -3z" />
    <glyph glyph-name="dotlessj" unicode="&#x237;" horiz-adv-x="223" 
d="M11 -92l131 615s5 3 17 3s15 -3 15 -3l-130 -611c-24 -113 -85 -162 -165 -162c-42 0 -54 9 -54 9s-1 3 0 8c3 11 8 16 8 16s15 -4 44 -4c72 0 115 37 134 129z" />
    <glyph glyph-name="e" unicode="e" horiz-adv-x="506" 
d="M426 252h-339c-29 -163 13 -229 129 -229c83 0 137 40 137 40c8 -5 13 -17 12 -28c0 0 -58 -45 -161 -45c-130 0 -187 95 -149 276c41 189 138 270 258 270c119 0 167 -79 145 -184c-13 -61 -32 -100 -32 -100zM427 357c17 79 -9 149 -115 149c-101 0 -182 -68 -219 -224
h312s12 28 22 75z" />
    <glyph glyph-name="eacute" unicode="&#xe9;" horiz-adv-x="506" 
d="M437 746l-153 -144c-11 1 -18 5 -20 13l145 147c14 0 23 -5 28 -16zM426 252h-339c-29 -163 13 -229 129 -229c83 0 137 40 137 40c8 -5 13 -17 12 -28c0 0 -58 -45 -161 -45c-130 0 -187 95 -149 276c41 189 138 270 258 270c119 0 167 -79 145 -184
c-13 -61 -32 -100 -32 -100zM427 357c17 79 -9 149 -115 149c-101 0 -182 -68 -219 -224h312s12 28 22 75z" />
    <glyph glyph-name="ebreve" unicode="&#x115;" horiz-adv-x="506" 
d="M218 688c5 10 10 15 22 19c0 0 36 -43 103 -43s121 43 121 43c12 -3 15 -11 14 -22c0 0 -52 -50 -138 -50s-122 53 -122 53zM426 252h-339c-29 -163 13 -229 129 -229c83 0 137 40 137 40c8 -5 13 -17 12 -28c0 0 -58 -45 -161 -45c-130 0 -187 95 -149 276
c41 189 138 270 258 270c119 0 167 -79 145 -184c-13 -61 -32 -100 -32 -100zM427 357c17 79 -9 149 -115 149c-101 0 -182 -68 -219 -224h312s12 28 22 75z" />
    <glyph glyph-name="ecaron" unicode="&#x11b;" horiz-adv-x="506" 
d="M342 602h-25l-98 96c4 10 8 15 18 19l96 -87l132 86c8 -2 14 -9 14 -18zM426 252h-339c-29 -163 13 -229 129 -229c83 0 137 40 137 40c8 -5 13 -17 12 -28c0 0 -58 -45 -161 -45c-130 0 -187 95 -149 276c41 189 138 270 258 270c119 0 167 -79 145 -184
c-13 -61 -32 -100 -32 -100zM427 357c17 79 -9 149 -115 149c-101 0 -182 -68 -219 -224h312s12 28 22 75z" />
    <glyph glyph-name="ecircumflex" unicode="&#xea;" horiz-adv-x="506" 
d="M344 721h25l100 -99c-4 -9 -7 -16 -17 -18l-99 88l-136 -89c-9 4 -15 9 -15 19zM426 252h-339c-29 -163 13 -229 129 -229c83 0 137 40 137 40c8 -5 13 -17 12 -28c0 0 -58 -45 -161 -45c-130 0 -187 95 -149 276c41 189 138 270 258 270c119 0 167 -79 145 -184
c-13 -61 -32 -100 -32 -100zM427 357c17 79 -9 149 -115 149c-101 0 -182 -68 -219 -224h312s12 28 22 75z" />
    <glyph glyph-name="edieresis" unicode="&#xeb;" horiz-adv-x="506" 
d="M295 677l-8 -42s-9 -3 -25 -3s-23 3 -23 3l8 42s9 3 25 3s23 -3 23 -3zM436 677l-8 -42s-9 -3 -25 -3s-23 3 -23 3l8 42s9 3 25 3s23 -3 23 -3zM426 252h-339c-29 -163 13 -229 129 -229c83 0 137 40 137 40c8 -5 13 -17 12 -28c0 0 -58 -45 -161 -45
c-130 0 -187 95 -149 276c41 189 138 270 258 270c119 0 167 -79 145 -184c-13 -61 -32 -100 -32 -100zM427 357c17 79 -9 149 -115 149c-101 0 -182 -68 -219 -224h312s12 28 22 75z" />
    <glyph glyph-name="edotaccent" unicode="&#x117;" horiz-adv-x="506" 
d="M366 676l-9 -42s-8 -3 -24 -3s-24 3 -24 3l9 42s9 3 25 3s23 -3 23 -3zM426 252h-339c-29 -163 13 -229 129 -229c83 0 137 40 137 40c8 -5 13 -17 12 -28c0 0 -58 -45 -161 -45c-130 0 -187 95 -149 276c41 189 138 270 258 270c119 0 167 -79 145 -184
c-13 -61 -32 -100 -32 -100zM427 357c17 79 -9 149 -115 149c-101 0 -182 -68 -219 -224h312s12 28 22 75z" />
    <glyph glyph-name="egrave" unicode="&#xe8;" horiz-adv-x="506" 
d="M357 602l-92 144c8 9 22 16 35 16l84 -147c-6 -8 -15 -12 -27 -13zM426 252h-339c-29 -163 13 -229 129 -229c83 0 137 40 137 40c8 -5 13 -17 12 -28c0 0 -58 -45 -161 -45c-130 0 -187 95 -149 276c41 189 138 270 258 270c119 0 167 -79 145 -184
c-13 -61 -32 -100 -32 -100zM427 357c17 79 -9 149 -115 149c-101 0 -182 -68 -219 -224h312s12 28 22 75z" />
    <glyph glyph-name="eight" unicode="8" horiz-adv-x="579" 
d="M222 -10c-143 0 -204 74 -185 167c26 121 145 192 192 216c-61 33 -104 81 -87 165c21 95 104 152 227 152c121 0 182 -63 162 -157c-22 -105 -114 -164 -161 -188c73 -35 131 -86 109 -188c-21 -101 -104 -167 -257 -167zM226 21c127 0 201 61 219 139
c28 119 -88 152 -184 198c-25 -12 -162 -81 -189 -197c-19 -79 25 -140 154 -140zM365 659c-102 0 -172 -49 -190 -123c-23 -105 73 -137 163 -178c46 23 137 79 158 173c19 81 -34 128 -131 128z" />
    <glyph glyph-name="eight.denom" horiz-adv-x="322" 
d="M170 348c65 0 98 -29 86 -82c-9 -46 -43 -75 -79 -93c35 -18 63 -41 53 -88c-12 -56 -62 -90 -134 -90c-68 0 -111 30 -98 90c11 53 54 85 92 104c-29 17 -50 39 -41 79c10 47 51 80 121 80zM101 16c50 0 95 22 105 67c12 56 -48 72 -97 96c-25 -12 -76 -42 -87 -93
c-10 -49 20 -70 79 -70zM164 327c-50 0 -83 -22 -91 -57c-10 -51 38 -67 85 -88c37 21 67 47 74 83c9 40 -16 62 -68 62z" />
    <glyph glyph-name="eight.num" horiz-adv-x="322" 
d="M243 694c65 0 98 -29 87 -82c-10 -46 -44 -75 -80 -93c35 -18 64 -41 54 -88c-12 -56 -63 -90 -135 -90c-68 0 -110 30 -97 90c11 53 54 85 92 104c-30 17 -50 39 -42 79c10 47 51 80 121 80zM175 362c50 0 95 22 104 67c12 56 -48 72 -96 96c-25 -12 -76 -42 -87 -93
c-11 -49 20 -70 79 -70zM238 673c-50 0 -84 -22 -91 -57c-11 -51 38 -67 84 -88c38 21 67 47 75 83c8 40 -16 62 -68 62z" />
    <glyph glyph-name="eightinferior" unicode="&#x2088;" horiz-adv-x="322" 
d="M150 252c65 0 97 -29 86 -82c-10 -46 -44 -75 -80 -93c36 -18 64 -41 54 -88c-12 -56 -63 -90 -135 -90c-68 0 -110 30 -97 90c11 53 54 85 92 104c-30 17 -50 39 -41 79c10 47 51 80 121 80zM81 -80c50 0 95 22 104 67c12 56 -47 72 -96 96c-25 -12 -76 -42 -87 -93
c-11 -49 20 -70 79 -70zM144 231c-50 0 -84 -22 -91 -57c-11 -51 38 -67 84 -88c38 21 67 47 75 83c8 40 -16 62 -68 62z" />
    <glyph glyph-name="ellipsis" unicode="&#x2026;" horiz-adv-x="500" 
d="M73 45l-9 -42s-9 -3 -25 -3s-23 3 -23 3l9 42s8 3 24 3s24 -3 24 -3zM221 45l-9 -42s-9 -3 -25 -3s-23 3 -23 3l9 42s8 3 24 3s24 -3 24 -3zM369 45l-9 -42s-9 -3 -25 -3s-23 3 -23 3l9 42s8 3 24 3s24 -3 24 -3z" />
    <glyph glyph-name="emacron" unicode="&#x113;" horiz-adv-x="506" 
d="M457 643h-234c-2 4 -2 8 -1 14s3 10 7 14h234c2 -3 2 -7 0 -13c-1 -6 -2 -11 -6 -15zM426 252h-339c-29 -163 13 -229 129 -229c83 0 137 40 137 40c8 -5 13 -17 12 -28c0 0 -58 -45 -161 -45c-130 0 -187 95 -149 276c41 189 138 270 258 270c119 0 167 -79 145 -184
c-13 -61 -32 -100 -32 -100zM427 357c17 79 -9 149 -115 149c-101 0 -182 -68 -219 -224h312s12 28 22 75z" />
    <glyph glyph-name="emdash" unicode="&#x2014;" horiz-adv-x="809" 
d="M711 275h-630s-2 4 1 15c2 11 6 15 6 15h630s2 -4 0 -15c-3 -11 -7 -15 -7 -15z" />
    <glyph glyph-name="endash" unicode="&#x2013;" horiz-adv-x="559" 
d="M461 275h-380s-2 4 1 15c2 11 6 15 6 15h380s2 -4 0 -15c-3 -11 -7 -15 -7 -15z" />
    <glyph glyph-name="eng" unicode="&#x14b;" horiz-adv-x="550" 
d="M151 435c55 63 124 101 206 101c94 0 142 -58 122 -148l-94 -444c-18 -87 -45 -143 -141 -172c-5 5 -8 14 -4 25c66 21 95 61 113 145l93 438c18 88 -14 127 -98 127c-70 0 -158 -49 -209 -131l-79 -373s-6 -3 -17 -3s-15 3 -15 3l110 520s6 3 17 3s15 -3 15 -3z" />
    <glyph glyph-name="eogonek" unicode="&#x119;" horiz-adv-x="507" 
d="M56 266c41 189 138 270 258 270c119 0 167 -79 145 -184c-13 -61 -32 -100 -32 -100h-339c-29 -163 13 -229 129 -229c83 0 137 40 137 40c8 -5 13 -17 12 -28c0 0 -35 -27 -100 -39c-40 -15 -77 -43 -86 -87c-7 -32 10 -49 43 -49c25 0 44 10 44 10c5 -5 7 -13 5 -22
c0 0 -25 -16 -61 -16c-53 0 -74 31 -65 73c8 36 30 65 60 85h-1c-130 0 -187 95 -149 276zM406 282c0 0 12 28 22 75c17 79 -9 149 -115 149c-101 0 -182 -68 -219 -224h312z" />
    <glyph glyph-name="equal" unicode="=" horiz-adv-x="513" 
d="M431 358h-328s-2 4 0 15c3 11 6 15 6 15h328s3 -4 0 -15c-2 -11 -6 -15 -6 -15zM396 192h-328s-3 3 0 15c2 11 6 15 6 15h328s2 -4 0 -15s-6 -15 -6 -15z" />
    <glyph glyph-name="estimated" unicode="&#x212e;" horiz-adv-x="821" 
d="M671 583c-45 44 -108 68 -178 68c-69 0 -142 -24 -206 -67l-47 -222h384zM562 95h67c-78 -68 -174 -105 -276 -105c-194 0 -319 158 -277 352c41 194 232 352 426 352s319 -158 278 -352l-5 -24h-544l-47 -218c47 -41 109 -67 178 -67c68 0 138 24 200 62z" />
    <glyph glyph-name="eth" unicode="&#xf0;" 
d="M488 702l-72 -40c73 -76 100 -195 66 -355c-51 -241 -140 -317 -274 -317c-126 0 -194 75 -154 262c39 187 129 262 246 262c91 0 155 -43 165 -116c6 119 -23 188 -80 246l-133 -74c-9 5 -13 16 -12 26l123 68c-35 28 -79 48 -131 59c0 10 4 20 12 27
c60 -12 110 -35 150 -68l83 46c9 -5 13 -14 11 -26zM209 19c101 0 185 57 223 233c38 179 -27 232 -132 232c-101 0 -175 -56 -212 -232c-38 -176 20 -233 121 -233z" />
    <glyph glyph-name="exclam" unicode="!" horiz-adv-x="238" 
d="M74 153l115 564s-4 3 18 3s16 -3 16 -3l-125 -564s-3 -4 -12 -4c-10 0 -12 4 -12 4zM86 45l-9 -42s-7 -3 -23 -3s-21 3 -21 3l9 42s6 3 22 3s22 -3 22 -3z" />
    <glyph glyph-name="exclamdown" unicode="&#xa1;" horiz-adv-x="228" 
d="M-10 -199l125 564s2 4 12 4c9 0 12 -4 12 -4l-115 -564s4 -3 -18 -3s-16 3 -16 3zM182 515l-9 -42s-8 -3 -24 -3s-24 3 -24 3l9 42s9 3 25 3s23 -3 23 -3z" />
    <glyph glyph-name="f" unicode="f" horiz-adv-x="334" 
d="M344 496h-164l-104 -493s-5 -3 -17 -3s-15 3 -15 3l104 493h-70c-3 18 7 30 7 30h70l14 66c21 97 61 158 178 158c49 0 87 -12 87 -12c0 -10 -7 -22 -15 -28c0 0 -30 10 -73 10c-99 0 -128 -47 -145 -129l-14 -65h164s2 -4 0 -15c-3 -10 -7 -15 -7 -15z" />
    <glyph glyph-name="five" unicode="5" horiz-adv-x="519" 
d="M205 648l-59 -274s41 7 94 7c160 0 213 -81 186 -207c-26 -123 -113 -184 -282 -184c-103 0 -145 25 -145 25c0 9 7 23 15 28c0 0 55 -22 131 -22c144 0 223 50 247 161c19 90 -4 168 -166 168c-60 0 -120 -11 -120 -11l72 341h325s2 -5 0 -16s-6 -16 -6 -16h-292z" />
    <glyph glyph-name="five.denom" horiz-adv-x="299" 
d="M93 320l-25 -118c103 0 162 -21 145 -105c-16 -71 -72 -102 -152 -102c-49 0 -82 13 -82 13c0 6 3 14 10 19c0 0 34 -10 76 -10c78 0 112 29 122 79c14 65 -26 83 -122 83h-26l35 164h172c2 -6 -1 -17 -5 -23h-148z" />
    <glyph glyph-name="five.num" horiz-adv-x="301" 
d="M168 666l-26 -118c103 0 163 -21 145 -105c-15 -71 -72 -102 -152 -102c-49 0 -82 13 -82 13c0 6 3 14 10 19c0 0 34 -10 76 -10c78 0 112 29 123 79c14 65 -26 83 -122 83h-26l34 164h172c2 -6 0 -17 -4 -23h-148z" />
    <glyph glyph-name="fiveeighths" unicode="&#x215d;" horiz-adv-x="740" 
d="M581 348c65 0 98 -29 86 -82c-9 -46 -43 -75 -79 -93c35 -18 63 -41 53 -88c-12 -56 -62 -90 -134 -90c-68 0 -111 30 -98 90c11 53 54 85 92 104c-29 17 -50 39 -41 79c10 47 51 80 121 80zM93 -8l540 707s4 3 13 3s12 -3 12 -3l-539 -707s-4 -2 -13 -2s-13 2 -13 2z
M181 666l-26 -118c103 0 163 -21 145 -105c-15 -71 -72 -102 -152 -102c-49 0 -82 13 -82 13c0 6 3 14 10 19c0 0 34 -10 76 -10c78 0 112 29 123 79c14 65 -26 83 -122 83h-26l34 164h172c2 -6 0 -17 -4 -23h-148zM512 16c50 0 95 22 105 67c12 56 -48 72 -97 96
c-25 -12 -76 -42 -87 -93c-10 -49 20 -70 79 -70zM575 327c-50 0 -83 -22 -91 -57c-10 -51 38 -67 85 -88c37 21 67 47 74 83c9 40 -16 62 -68 62z" />
    <glyph glyph-name="fiveinferior" unicode="&#x2085;" horiz-adv-x="300" 
d="M74 224l-26 -118c103 0 163 -21 145 -105c-15 -71 -72 -102 -152 -102c-49 0 -82 13 -82 13c1 6 3 14 10 19c0 0 34 -10 76 -10c78 0 112 29 123 79c14 65 -26 83 -122 83h-26l34 164h172c2 -6 0 -17 -4 -23h-148z" />
    <glyph glyph-name="florin" unicode="&#x192;" horiz-adv-x="433" 
d="M351 420h-107l-128 -409c-34 -109 -88 -152 -167 -152c-42 0 -76 18 -76 18c1 9 5 18 14 24c0 0 32 -12 66 -12c57 0 102 27 131 121l128 410h-100s-2 5 0 15c2 9 6 13 6 13h103l28 90c35 111 84 153 165 153c48 0 78 -15 78 -15c-1 -9 -6 -17 -14 -24c0 0 -33 11 -69 11
c-59 0 -98 -29 -127 -124l-29 -91h104s2 -4 0 -14s-6 -14 -6 -14z" />
    <glyph glyph-name="four" unicode="4" horiz-adv-x="568" 
d="M24 215l438 462s5 3 18 3c12 0 16 -3 16 -3l-98 -464h107s2 -4 -1 -13c-4 -11 -6 -15 -6 -15h-107l-38 -182s-6 -3 -18 -3s-15 3 -15 3l38 182h-341s-2 4 0 15c3 11 7 15 7 15zM61 213h304l88 413z" />
    <glyph glyph-name="four.denom" horiz-adv-x="323" 
d="M203 120h43s2 -4 0 -11c-2 -8 -4 -12 -4 -12h-43l-21 -95s-3 -2 -11 -2s-12 2 -12 2l21 95h-184s-2 2 -1 7s4 8 4 8l231 229s4 2 13 2c8 0 11 -2 11 -2zM30 120h150l40 187z" />
    <glyph glyph-name="four.num" horiz-adv-x="324" 
d="M277 466h43s1 -4 0 -11c-2 -8 -5 -12 -5 -12h-43l-20 -95s-3 -2 -11 -2s-12 2 -12 2l20 95h-184s-1 2 0 7s3 8 3 8l232 229s3 2 12 2c8 0 12 -2 12 -2zM104 466h150l40 187z" />
    <glyph glyph-name="fourinferior" unicode="&#x2084;" horiz-adv-x="324" 
d="M183 24h43s1 -4 0 -11c-2 -8 -5 -12 -5 -12h-43l-20 -95s-3 -2 -11 -2s-12 2 -12 2l20 95h-184s-1 2 0 7s3 8 3 8l232 229s3 2 12 2c8 0 12 -2 12 -2zM10 24h150l40 187z" />
    <glyph glyph-name="fraction" unicode="&#x2044;" horiz-adv-x="123" 
d="M-218 -6l538 705s6 3 18 3c11 0 17 -3 17 -3l-539 -705s-7 -4 -19 -4s-15 4 -15 4z" />
    <glyph glyph-name="g" unicode="g" horiz-adv-x="553" 
d="M370 26l14 62c-40 -56 -92 -98 -183 -98c-122 0 -187 69 -144 273s128 273 250 273c91 0 134 -48 150 -104l19 91s5 3 17 3s15 -3 15 -3l-106 -497c-38 -181 -94 -276 -261 -276c-79 0 -121 24 -121 24c1 11 6 21 17 27c0 0 47 -19 111 -19c117 0 181 50 222 244zM91 263
c-36 -171 -4 -243 119 -243c117 0 181 111 196 175l29 136c12 64 -3 175 -121 175c-123 0 -187 -72 -223 -243z" />
    <glyph glyph-name="g.alt" horiz-adv-x="515" 
d="M139 214c-50 26 -73 80 -57 152c22 106 99 170 211 170c41 0 75 -9 100 -24l136 23c2 -11 0 -24 -8 -36l-103 -11c22 -29 31 -71 20 -122c-23 -105 -96 -170 -210 -170c-24 0 -47 3 -64 8c-21 -19 -54 -52 -63 -94c-25 -118 336 -7 294 -204c-18 -84 -104 -156 -273 -156
c-136 0 -179 72 -162 152c17 83 92 130 119 147c-13 13 -19 31 -13 58c9 42 43 83 73 107zM128 -219c123 0 217 50 233 126c28 130 -169 91 -257 127c-60 -34 -99 -87 -109 -133c-16 -75 30 -120 133 -120zM290 508c-85 0 -154 -48 -174 -141c-20 -94 29 -142 114 -142
c86 0 154 48 174 142c20 93 -28 141 -114 141z" />
    <glyph glyph-name="gbreve" unicode="&#x11f;" horiz-adv-x="553" 
d="M485 690c0 0 -51 -54 -137 -54s-123 54 -123 54c5 10 10 15 22 19c0 0 36 -43 103 -43s121 43 121 43c11 -3 14 -8 14 -19zM370 26l14 62c-40 -56 -92 -98 -183 -98c-122 0 -187 69 -144 273s128 273 250 273c91 0 134 -48 150 -104l19 91s5 3 17 3s15 -3 15 -3
l-106 -497c-38 -181 -94 -276 -261 -276c-79 0 -121 24 -121 24c1 11 6 21 17 27c0 0 47 -19 111 -19c117 0 181 50 222 244zM91 263c-36 -171 -4 -243 119 -243c117 0 181 111 196 175l29 136c12 64 -3 175 -121 175c-123 0 -187 -72 -223 -243z" />
    <glyph glyph-name="gbreve.alt" horiz-adv-x="515" 
d="M461 688c0 0 -52 -52 -138 -52s-122 52 -122 52c5 10 10 15 22 19c0 0 36 -43 103 -43s121 43 121 43c12 -3 15 -8 14 -19zM139 214c-50 26 -73 80 -57 152c22 106 99 170 211 170c41 0 75 -9 100 -24l136 23c2 -11 0 -24 -8 -36l-103 -11c22 -29 31 -71 20 -122
c-23 -105 -96 -170 -210 -170c-24 0 -47 3 -64 8c-21 -19 -54 -52 -63 -94c-25 -118 336 -7 294 -204c-18 -84 -104 -156 -273 -156c-136 0 -179 72 -162 152c17 83 92 130 119 147c-13 13 -19 31 -13 58c9 42 43 83 73 107zM128 -219c123 0 217 50 233 126
c28 130 -169 91 -257 127c-60 -34 -99 -87 -109 -133c-16 -75 30 -120 133 -120zM290 508c-85 0 -154 -48 -174 -141c-20 -94 29 -142 114 -142c86 0 154 48 174 142c20 93 -28 141 -114 141z" />
    <glyph glyph-name="gcircumflex" unicode="&#x11d;" horiz-adv-x="553" 
d="M351 721h25l100 -99c-4 -9 -7 -14 -17 -16l-99 88l-136 -89c-9 4 -15 7 -15 17zM370 26l14 62c-40 -56 -92 -98 -183 -98c-122 0 -187 69 -144 273s128 273 250 273c91 0 134 -48 150 -104l19 91s5 3 17 3s15 -3 15 -3l-106 -497c-38 -181 -94 -276 -261 -276
c-79 0 -121 24 -121 24c1 11 6 21 17 27c0 0 47 -19 111 -19c117 0 181 50 222 244zM91 263c-36 -171 -4 -243 119 -243c117 0 181 111 196 175l29 136c12 64 -3 175 -121 175c-123 0 -187 -72 -223 -243z" />
    <glyph glyph-name="gcircumflex.alt" horiz-adv-x="515" 
d="M321 721h25l100 -99c-4 -9 -9 -16 -19 -18l-97 87l-139 -89c-9 4 -12 10 -12 20zM139 214c-50 26 -73 80 -57 152c22 106 99 170 211 170c41 0 75 -9 100 -24l136 23c2 -11 0 -24 -8 -36l-103 -11c22 -29 31 -71 20 -122c-23 -105 -96 -170 -210 -170c-24 0 -47 3 -64 8
c-21 -19 -54 -52 -63 -94c-25 -118 336 -7 294 -204c-18 -84 -104 -156 -273 -156c-136 0 -179 72 -162 152c17 83 92 130 119 147c-13 13 -19 31 -13 58c9 42 43 83 73 107zM128 -219c123 0 217 50 233 126c28 130 -169 91 -257 127c-60 -34 -99 -87 -109 -133
c-16 -75 30 -120 133 -120zM290 508c-85 0 -154 -48 -174 -141c-20 -94 29 -142 114 -142c86 0 154 48 174 142c20 93 -28 141 -114 141z" />
    <glyph glyph-name="gcommaaccent" unicode="&#x123;" horiz-adv-x="553" 
d="M381 727l15 -10s-34 -25 -49 -73c12 0 17 -3 17 -3l-8 -37s-8 -2 -24 -2s-25 2 -25 2l7 29c12 61 67 94 67 94zM370 26l14 62c-40 -56 -92 -98 -183 -98c-122 0 -187 69 -144 273s128 273 250 273c91 0 134 -48 150 -104l19 91s5 3 17 3s15 -3 15 -3l-106 -497
c-38 -181 -94 -276 -261 -276c-79 0 -121 24 -121 24c1 11 6 21 17 27c0 0 47 -19 111 -19c117 0 181 50 222 244zM91 263c-36 -171 -4 -243 119 -243c117 0 181 111 196 175l29 136c12 64 -3 175 -121 175c-123 0 -187 -72 -223 -243z" />
    <glyph glyph-name="gcommaaccent.alt" horiz-adv-x="515" 
d="M361 727l15 -10s-34 -25 -49 -73c12 0 17 -3 17 -3l-8 -37s-8 -2 -24 -2s-25 2 -25 2l7 29c12 61 67 94 67 94zM139 214c-50 26 -73 80 -57 152c22 106 99 170 211 170c41 0 75 -9 100 -24l136 23c2 -11 0 -24 -8 -36l-103 -11c22 -29 31 -71 20 -122
c-23 -105 -96 -170 -210 -170c-24 0 -47 3 -64 8c-21 -19 -54 -52 -63 -94c-25 -118 336 -7 294 -204c-18 -84 -104 -156 -273 -156c-136 0 -179 72 -162 152c17 83 92 130 119 147c-13 13 -19 31 -13 58c9 42 43 83 73 107zM128 -219c123 0 217 50 233 126
c28 130 -169 91 -257 127c-60 -34 -99 -87 -109 -133c-16 -75 30 -120 133 -120zM290 508c-85 0 -154 -48 -174 -141c-20 -94 29 -142 114 -142c86 0 154 48 174 142c20 93 -28 141 -114 141z" />
    <glyph glyph-name="gdotaccent" unicode="&#x121;" horiz-adv-x="553" 
d="M376 679l-9 -42s-8 -3 -24 -3s-24 3 -24 3l9 42s9 3 25 3s23 -3 23 -3zM370 26l14 62c-40 -56 -92 -98 -183 -98c-122 0 -187 69 -144 273s128 273 250 273c91 0 134 -48 150 -104l19 91s5 3 17 3s15 -3 15 -3l-106 -497c-38 -181 -94 -276 -261 -276
c-79 0 -121 24 -121 24c1 11 6 21 17 27c0 0 47 -19 111 -19c117 0 181 50 222 244zM91 263c-36 -171 -4 -243 119 -243c117 0 181 111 196 175l29 136c12 64 -3 175 -121 175c-123 0 -187 -72 -223 -243z" />
    <glyph glyph-name="gdotaccent.alt" horiz-adv-x="515" 
d="M347 676l-9 -42s-8 -3 -24 -3s-24 3 -24 3l9 42s9 3 25 3s23 -3 23 -3zM139 214c-50 26 -73 80 -57 152c22 106 99 170 211 170c41 0 75 -9 100 -24l136 23c2 -11 0 -24 -8 -36l-103 -11c22 -29 31 -71 20 -122c-23 -105 -96 -170 -210 -170c-24 0 -47 3 -64 8
c-21 -19 -54 -52 -63 -94c-25 -118 336 -7 294 -204c-18 -84 -104 -156 -273 -156c-136 0 -179 72 -162 152c17 83 92 130 119 147c-13 13 -19 31 -13 58c9 42 43 83 73 107zM128 -219c123 0 217 50 233 126c28 130 -169 91 -257 127c-60 -34 -99 -87 -109 -133
c-16 -75 30 -120 133 -120zM290 508c-85 0 -154 -48 -174 -141c-20 -94 29 -142 114 -142c86 0 154 48 174 142c20 93 -28 141 -114 141z" />
    <glyph glyph-name="germandbls" unicode="&#xdf;" horiz-adv-x="569" 
d="M28 3l117 553c28 133 108 194 236 194c127 0 160 -86 142 -170c-12 -57 -41 -96 -41 -96s-128 -4 -149 -104c-24 -113 186 -85 150 -253c-17 -81 -82 -137 -186 -137c-69 0 -96 17 -96 17c2 10 7 20 15 25c16 -6 56 -12 82 -12c95 0 139 54 151 110
c31 149 -178 116 -148 255c25 120 163 126 163 126s16 30 24 69c16 73 -9 140 -114 140c-118 0 -175 -62 -197 -164l-117 -553s-5 -3 -17 -3s-15 3 -15 3z" />
    <glyph glyph-name="grave" unicode="`" horiz-adv-x="238" 
d="M158 643l-94 147c8 9 22 17 35 17l86 -150c-6 -8 -15 -13 -27 -14z" />
    <glyph glyph-name="greater" unicode="&#x3e;" horiz-adv-x="470" 
d="M399 268l-352 -148s-1 6 1 17c3 12 7 18 7 18l323 134l-265 137s-2 5 0 17c3 12 7 16 7 16l288 -148s1 -8 -1 -21c-3 -14 -8 -22 -8 -22z" />
    <glyph glyph-name="greaterequal" unicode="&#x2265;" horiz-adv-x="471" 
d="M390 348l-313 -118s-2 6 0 17c3 12 7 18 7 18l282 104l-237 107s-2 5 1 17c2 12 6 16 6 16l263 -118s1 -8 -1 -21c-3 -14 -8 -22 -8 -22zM343 128h-288s-2 4 0 15c3 11 7 15 7 15h288s2 -4 -1 -15c-2 -12 -6 -15 -6 -15z" />
    <glyph glyph-name="guillemotleft" unicode="&#xab;" horiz-adv-x="486" 
d="M55 284l255 225c7 -4 10 -15 8 -25l-240 -214l149 -215c-3 -11 -10 -21 -19 -25l-159 226s-2 5 0 14s6 14 6 14zM215 283l230 204c8 -4 9 -14 7 -24l-213 -193l131 -194c-2 -11 -8 -20 -17 -24l-143 205s-2 4 0 13s5 13 5 13z" />
    <glyph glyph-name="guillemotright" unicode="&#xbb;" horiz-adv-x="485" 
d="M262 509l159 -225s2 -5 0 -14s-6 -14 -6 -14l-255 -226c-7 4 -10 14 -7 25l239 215l-148 214c2 10 9 21 18 25zM117 487l144 -204s1 -4 -1 -13s-4 -13 -4 -13l-231 -205c-7 4 -9 13 -7 24l213 194l-131 193c2 10 9 20 17 24z" />
    <glyph glyph-name="guilsinglleft" unicode="&#x2039;" horiz-adv-x="341" 
d="M55 284l255 225c7 -4 10 -15 8 -25l-240 -214l149 -215c-3 -11 -10 -21 -19 -25l-159 226s-2 5 0 14s6 14 6 14z" />
    <glyph glyph-name="guilsinglright" unicode="&#x203a;" horiz-adv-x="339" 
d="M116 509l159 -225s2 -5 0 -14s-6 -14 -6 -14l-255 -226c-7 4 -10 14 -7 25l239 215l-148 214c2 10 9 21 18 25z" />
    <glyph glyph-name="h" unicode="h" horiz-adv-x="550" 
d="M479 388l-81 -385s-6 -3 -17 -3s-15 3 -15 3l80 377c18 88 -18 127 -102 127c-70 0 -154 -49 -205 -131l-79 -373s-6 -3 -17 -3s-15 3 -15 3l158 744s5 3 16 3s16 -3 16 -3l-67 -312c55 63 121 101 203 101c94 0 145 -58 125 -148z" />
    <glyph glyph-name="hbar" unicode="&#x127;" horiz-adv-x="550" 
d="M151 435c56 63 120 101 202 101c94 0 146 -58 126 -148l-81 -385s-6 -3 -17 -3s-15 3 -15 3l80 377c18 88 -18 127 -102 127c-70 0 -154 -49 -205 -131l-79 -373s-6 -3 -17 -3s-15 3 -15 3l133 628h-72c-1 9 1 19 6 27h72l19 89s5 3 16 3s16 -3 16 -3l-19 -89h166
c2 -8 0 -18 -6 -27h-166z" />
    <glyph glyph-name="hcircumflex" unicode="&#x125;" horiz-adv-x="550" 
d="M479 388l-81 -385s-6 -3 -17 -3s-15 3 -15 3l80 377c18 88 -18 127 -102 127c-70 0 -154 -49 -205 -131l-79 -373s-6 -3 -17 -3s-15 3 -15 3l158 744s5 3 16 3s16 -3 16 -3l-67 -312c57 63 120 101 202 101c94 0 146 -58 126 -148zM378 881h25l98 -97
c-5 -10 -7 -16 -16 -18l-98 87l-133 -88c-9 4 -17 8 -15 19z" />
    <glyph glyph-name="hungarumlaut" unicode="&#x2dd;" horiz-adv-x="386" 
d="M197 790l-156 -147c-12 1 -19 6 -21 14l142 150c17 0 28 -6 35 -17zM347 790l-156 -147c-12 1 -19 6 -21 14l142 150c17 0 28 -6 35 -17z" />
    <glyph glyph-name="hyphen" unicode="-" horiz-adv-x="355" 
d="M259 275h-180s-2 4 1 15c2 11 6 15 6 15h180s2 -4 0 -15c-3 -11 -7 -15 -7 -15z" />
    <glyph glyph-name="i" unicode="i" horiz-adv-x="222" 
d="M173 523l-110 -520s-5 -3 -17 -3s-15 3 -15 3l110 520s5 3 17 3s15 -3 15 -3zM215 683l-9 -42s-8 -3 -24 -3s-24 3 -24 3l9 42s9 3 25 3s23 -3 23 -3z" />
    <glyph glyph-name="iacute" unicode="&#xed;" horiz-adv-x="222" 
d="M173 523l-110 -520s-5 -3 -17 -3s-15 3 -15 3l110 520s5 3 17 3s15 -3 15 -3zM297 757l-156 -147c-12 1 -19 6 -21 14l148 150c14 0 24 -6 29 -17z" />
    <glyph glyph-name="ibreve" unicode="&#x12d;" horiz-adv-x="222" 
d="M173 523l-110 -520s-5 -3 -17 -3s-15 3 -15 3l110 520s5 3 17 3s15 -3 15 -3zM321 688c0 0 -55 -54 -141 -54s-119 54 -119 54c5 10 10 15 22 19c0 0 32 -43 99 -43s125 43 125 43c12 -3 15 -8 14 -19z" />
    <glyph glyph-name="icircumflex" unicode="&#xee;" horiz-adv-x="222" 
d="M173 523l-110 -520s-5 -3 -17 -3s-15 3 -15 3l110 520s5 3 17 3s15 -3 15 -3zM188 721h25l102 -99c-4 -9 -10 -17 -20 -19l-99 88l-136 -89c-9 4 -14 10 -14 20z" />
    <glyph glyph-name="idieresis" unicode="&#xef;" horiz-adv-x="222" 
d="M173 523l-110 -520s-5 -3 -17 -3s-15 3 -15 3l110 520s5 3 17 3s15 -3 15 -3zM134 647l-8 -42s-9 -3 -25 -3s-23 3 -23 3l8 42s9 3 25 3s23 -3 23 -3zM275 647l-8 -42s-9 -3 -25 -3s-23 3 -23 3l8 42s9 3 25 3s23 -3 23 -3z" />
    <glyph glyph-name="igrave" unicode="&#xec;" horiz-adv-x="222" 
d="M173 523l-110 -520s-5 -3 -17 -3s-15 3 -15 3l110 520s5 3 17 3s15 -3 15 -3zM201 612l-94 147c8 9 19 16 32 16l85 -150c-6 -8 -11 -12 -23 -13z" />
    <glyph glyph-name="ij" unicode="&#x133;" horiz-adv-x="404" 
d="M173 523l-110 -520s-5 -3 -17 -3s-15 3 -15 3l110 520s5 3 17 3s15 -3 15 -3zM208 651l-9 -42s-8 -3 -24 -3s-24 3 -24 3l9 42s9 3 25 3s23 -3 23 -3zM192 -92l131 615s5 3 17 3s15 -3 15 -3l-130 -611c-24 -113 -85 -162 -165 -162c-42 0 -54 9 -54 9s-1 3 0 8
c3 11 8 16 8 16s15 -4 44 -4c72 0 115 37 134 129zM390 651l-9 -42s-8 -3 -24 -3s-24 3 -24 3l9 42s9 3 25 3s23 -3 23 -3z" />
    <glyph glyph-name="imacron" unicode="&#x12b;" horiz-adv-x="222" 
d="M173 523l-110 -520s-5 -3 -17 -3s-15 3 -15 3l110 520s5 3 17 3s15 -3 15 -3zM263 634h-176c-1 5 0 7 1 13s2 11 5 15h176c2 -3 1 -8 -1 -14c-1 -6 -2 -9 -5 -14z" />
    <glyph glyph-name="infinity" unicode="&#x221e;" horiz-adv-x="827" 
d="M211 191c119 0 186 134 186 134s-10 134 -129 134c-101 0 -151 -71 -164 -134s6 -134 107 -134zM559 162c-134 0 -149 132 -149 132s-71 -132 -205 -132c-116 0 -149 82 -132 163s86 163 202 163c134 0 148 -133 148 -133s82 133 206 133c116 0 149 -82 132 -163
s-86 -163 -202 -163zM624 459c-119 0 -187 -134 -187 -134s11 -134 130 -134c101 0 150 71 163 134s-5 134 -106 134z" />
    <glyph glyph-name="integral" unicode="&#x222b;" horiz-adv-x="498" 
d="M158 -51l134 631c19 90 72 141 153 141c52 0 86 -14 115 -33c-3 -10 -8 -17 -18 -22c-28 16 -59 27 -99 27c-59 0 -102 -31 -119 -111l-135 -633c-23 -111 -93 -140 -159 -140c-39 0 -75 12 -108 35c3 11 10 18 18 22c19 -12 53 -29 99 -29c48 0 100 21 119 112z" />
    <glyph glyph-name="iogonek" unicode="&#x12f;" horiz-adv-x="223" 
d="M161 651c0 0 9 3 25 3s23 -3 23 -3l-9 -42s-8 -3 -24 -3s-24 3 -24 3zM34 14l108 509s5 3 17 3s15 -3 15 -3l-110 -520c-49 -13 -93 -48 -104 -95c-8 -32 10 -49 43 -49c25 0 44 10 44 10c5 -5 7 -13 5 -22c0 0 -25 -16 -61 -16c-53 0 -75 31 -65 73c12 51 55 92 108 110
z" />
    <glyph glyph-name="itilde" unicode="&#x129;" horiz-adv-x="222" 
d="M173 523l-110 -520s-5 -3 -17 -3s-15 3 -15 3l110 520s5 3 17 3s15 -3 15 -3zM235 629c23 0 37 27 37 27c9 1 16 -2 19 -10c0 0 -14 -43 -56 -43c-38 0 -58 32 -89 32c-23 0 -38 -28 -38 -28c-8 -1 -16 3 -19 10c0 0 16 45 57 45c39 0 59 -33 89 -33z" />
    <glyph glyph-name="j" unicode="j" horiz-adv-x="223" 
d="M11 -92l131 615s5 3 17 3s15 -3 15 -3l-130 -611c-24 -113 -85 -162 -165 -162c-42 0 -54 9 -54 9s-1 3 0 8c3 11 8 16 8 16s15 -4 44 -4c72 0 115 37 134 129zM216 683l-9 -42s-8 -3 -24 -3s-24 3 -24 3l9 42s9 3 25 3s23 -3 23 -3z" />
    <glyph glyph-name="jcircumflex" unicode="&#x135;" horiz-adv-x="223" 
d="M11 -92l131 615s5 3 17 3s15 -3 15 -3l-130 -611c-24 -113 -85 -162 -165 -162c-42 0 -54 9 -54 9s-1 3 0 8c3 11 8 16 8 16s15 -4 44 -4c72 0 115 37 134 129zM183 702h26l99 -98c-4 -10 -8 -17 -18 -19l-99 88l-136 -89c-8 4 -14 9 -14 20z" />
    <glyph glyph-name="k" unicode="k" horiz-adv-x="493" 
d="M218 747l-97 -457h123l211 233s7 3 24 3c14 0 15 -2 15 -2l-227 -252l141 -268s-6 -4 -20 -4c-12 0 -18 4 -18 4l-133 256h-123l-54 -257s-5 -3 -17 -3s-15 3 -15 3l158 744s4 3 16 3s16 -3 16 -3z" />
    <glyph glyph-name="kcommaaccent" unicode="&#x137;" horiz-adv-x="493" 
d="M147 -192l-13 12s34 28 50 82c-12 0 -17 3 -17 3l9 42s8 3 24 3s24 -3 24 -3l-7 -32c-15 -70 -70 -107 -70 -107zM218 747l-97 -457h123l211 233s7 3 24 3c14 0 15 -2 15 -2l-227 -252l141 -268s-6 -4 -20 -4c-12 0 -18 4 -18 4l-133 256h-123l-54 -257s-5 -3 -17 -3
s-15 3 -15 3l158 744s4 3 16 3s16 -3 16 -3z" />
    <glyph glyph-name="kgreenlandic" unicode="&#x138;" horiz-adv-x="498" 
d="M502 523l-248 -224l159 -296s-7 -3 -20 -3c-10 0 -15 3 -15 3l-148 275l-139 -125l-31 -150c-5 -2 -11 -3 -17 -3s-12 1 -15 3l110 521c4 1 10 2 17 2s14 -1 15 -2l-66 -319l353 318c6 2 12 3 26 3c8 0 15 -1 19 -3z" />
    <glyph glyph-name="l" unicode="l" horiz-adv-x="226" 
d="M223 747l-158 -744s-5 -3 -17 -3s-15 3 -15 3l158 744s4 3 16 3s16 -3 16 -3z" />
    <glyph glyph-name="lacute" unicode="&#x13a;" horiz-adv-x="226" 
d="M223 747l-158 -744s-5 -3 -17 -3s-15 3 -15 3l158 744s4 3 16 3s16 -3 16 -3zM338 919l-166 -136c-11 2 -18 7 -20 15l160 140c14 -1 22 -8 26 -19z" />
    <glyph glyph-name="lcaron" unicode="&#x13e;" horiz-adv-x="232" 
d="M265 588c-10 0 -16 5 -17 11c50 37 78 89 88 152c15 3 26 2 33 -4c-12 -57 -51 -126 -104 -159zM223 747l-158 -744s-5 -3 -17 -3s-15 3 -15 3l158 744s4 3 16 3s16 -3 16 -3z" />
    <glyph glyph-name="lcommaaccent" unicode="&#x13c;" horiz-adv-x="226" 
d="M223 747l-158 -744s-5 -3 -17 -3s-15 3 -15 3l158 744s4 3 16 3s16 -3 16 -3zM-14 -182l-13 12s34 28 50 82c-12 0 -17 3 -17 3l9 42s8 3 24 3s24 -3 24 -3l-7 -32c-15 -70 -70 -107 -70 -107z" />
    <glyph glyph-name="ldot" unicode="&#x140;" horiz-adv-x="245" 
d="M223 747l-158 -744s-5 -3 -17 -3s-15 3 -15 3l158 744s4 3 16 3s16 -3 16 -3zM262 355l-9 -42s-8 -3 -24 -3s-24 3 -24 3l9 42s9 3 25 3s23 -3 23 -3z" />
    <glyph glyph-name="less" unicode="&#x3c;" horiz-adv-x="473" 
d="M343 120l-288 148s-1 8 2 22c2 13 7 21 7 21l352 148s2 -4 -1 -16c-2 -12 -6 -17 -6 -17l-325 -137l267 -134s2 -6 -1 -18c-2 -11 -7 -17 -7 -17z" />
    <glyph glyph-name="lessequal" unicode="&#x2264;" horiz-adv-x="472" 
d="M363 230l-263 118s-1 8 2 22c2 13 7 21 7 21l313 118s2 -4 0 -16c-3 -12 -7 -17 -7 -17l-283 -107l238 -104s2 -6 -1 -18c-2 -11 -6 -17 -6 -17zM341 128h-288s-2 3 0 15c3 11 7 15 7 15h288s2 -4 -1 -15c-2 -11 -6 -15 -6 -15z" />
    <glyph glyph-name="logicalnot" unicode="&#xac;" horiz-adv-x="596" 
d="M533 439l-53 -250s-6 -3 -16 -3c-11 0 -14 3 -14 3l47 220h-410s-2 5 0 15s6 15 6 15h440z" />
    <glyph glyph-name="longs" unicode="&#x17f;" horiz-adv-x="254" 
d="M203 591l-125 -588s-5 -3 -17 -3s-15 3 -15 3l104 493h-64s-2 4 1 15c2 11 6 15 6 15h64l13 60c20 97 62 164 179 164c49 0 87 -12 87 -12c0 -10 -7 -22 -15 -28c0 0 -30 10 -73 10c-99 0 -128 -47 -145 -129z" />
    <glyph glyph-name="lozenge" unicode="&#x25ca;" horiz-adv-x="546" 
d="M501 352l-286 -345h-15l-135 345l282 344h15zM103 351l115 -299l246 299l-119 299z" />
    <glyph glyph-name="lslash" unicode="&#x142;" horiz-adv-x="278" 
d="M169 430l94 48c7 -4 11 -15 9 -26l-111 -57l-83 -392s-5 -3 -17 -3s-15 3 -15 3l79 373l-78 -40c-8 4 -12 14 -10 26l96 49l71 336s4 3 16 3s16 -3 16 -3z" />
    <glyph glyph-name="m" unicode="m" horiz-adv-x="845" 
d="M774 388l-81 -385s-6 -3 -17 -3s-15 3 -15 3l80 377c19 89 -12 127 -89 127c-66 0 -147 -50 -198 -134l-78 -370c0 0 -6 -3 -17 -3s-15 3 -15 3l80 377c19 89 -11 127 -88 127c-65 0 -147 -49 -197 -131l-79 -373s-6 -3 -17 -3s-15 3 -15 3l110 520s6 3 17 3s15 -3 15 -3
l-18 -87c52 62 116 100 194 100c66 0 116 -32 116 -108c53 67 121 108 202 108c88 0 130 -58 110 -148z" />
    <glyph glyph-name="macron" unicode="&#xaf;" horiz-adv-x="407" 
d="M319 630h-283c-2 5 -2 10 -1 16c2 6 4 11 8 16h283c2 -4 2 -9 0 -15c-1 -6 -3 -12 -7 -17z" />
    <glyph glyph-name="minus" unicode="&#x2212;" horiz-adv-x="466" 
d="M372 313h-280s-2 4 1 17s7 17 7 17h280s2 -4 -1 -17s-7 -17 -7 -17z" />
    <glyph glyph-name="mu" unicode="&#xb5;" horiz-adv-x="578" 
d="M33 -14l114 537s5 3 17 3s15 -3 15 -3l-80 -379c-15 -70 3 -125 103 -125c84 0 164 66 204 130l79 374s5 3 17 3s15 -3 15 -3l-110 -520s-5 -3 -17 -3s-15 3 -15 3l19 89c-56 -64 -128 -102 -205 -102c-70 0 -100 26 -114 51c-46 -228 -33 -282 -33 -282
c-10 -8 -24 -11 -37 -8c0 0 -8 68 28 235z" />
    <glyph glyph-name="multiply" unicode="&#xd7;" horiz-adv-x="451" 
d="M307 149l-91 115l-139 -115s-7 3 -12 11c-7 7 -8 14 -8 14l139 115l-90 115s4 7 14 14c9 8 16 10 16 10l91 -114l139 114s7 -2 12 -10c6 -7 7 -14 7 -14l-139 -115l90 -115s-4 -7 -13 -14c-9 -8 -16 -11 -16 -11z" />
    <glyph glyph-name="n" unicode="n" horiz-adv-x="550" 
d="M479 388l-81 -385s-6 -3 -17 -3s-15 3 -15 3l80 377c18 88 -15 127 -99 127c-70 0 -157 -49 -208 -131l-79 -373s-6 -3 -17 -3s-15 3 -15 3l110 520s6 3 17 3s15 -3 15 -3l-19 -88c55 63 124 101 206 101c94 0 142 -58 122 -148z" />
    <glyph glyph-name="nacute" unicode="&#x144;" horiz-adv-x="550" 
d="M445 757l-156 -147c-12 1 -19 6 -21 14l148 150c14 0 24 -6 29 -17zM479 388l-81 -385s-6 -3 -17 -3s-15 3 -15 3l80 377c18 88 -15 127 -99 127c-70 0 -157 -49 -208 -131l-79 -373s-6 -3 -17 -3s-15 3 -15 3l110 520s6 3 17 3s15 -3 15 -3l-19 -88
c55 63 124 101 206 101c94 0 142 -58 122 -148z" />
    <glyph glyph-name="napostrophe" unicode="&#x149;" horiz-adv-x="550" 
d="M159 591c-10 1 -15 6 -16 12c53 34 84 84 99 146c15 2 26 0 32 -6c-16 -56 -59 -123 -115 -152zM479 388l-81 -385s-6 -3 -17 -3s-15 3 -15 3l80 377c18 88 -15 127 -99 127c-70 0 -157 -49 -208 -131l-79 -373s-6 -3 -17 -3s-15 3 -15 3l110 520s6 3 17 3s15 -3 15 -3
l-19 -88c55 63 124 101 206 101c94 0 142 -58 122 -148z" />
    <glyph glyph-name="ncaron" unicode="&#x148;" horiz-adv-x="550" 
d="M358 602h-23l-97 96c4 11 8 13 18 17l94 -86l126 85c8 -2 15 -9 15 -19zM479 388l-81 -385s-6 -3 -17 -3s-15 3 -15 3l80 377c18 88 -15 127 -99 127c-70 0 -157 -49 -208 -131l-79 -373s-6 -3 -17 -3s-15 3 -15 3l110 520s6 3 17 3s15 -3 15 -3l-19 -88
c55 63 124 101 206 101c94 0 142 -58 122 -148z" />
    <glyph glyph-name="ncommaaccent" unicode="&#x146;" horiz-adv-x="550" 
d="M156 -192l-13 12s34 28 50 82c-12 0 -17 3 -17 3l9 42s8 3 24 3s24 -3 24 -3l-7 -32c-15 -70 -70 -107 -70 -107zM479 388l-81 -385s-6 -3 -17 -3s-15 3 -15 3l80 377c18 88 -15 127 -99 127c-70 0 -157 -49 -208 -131l-79 -373s-6 -3 -17 -3s-15 3 -15 3l110 520
s6 3 17 3s15 -3 15 -3l-19 -88c55 63 124 101 206 101c94 0 142 -58 122 -148z" />
    <glyph glyph-name="nine" unicode="9" horiz-adv-x="551" 
d="M64 14c1 5 3 13 6 17c164 16 300 96 370 288c-53 -31 -99 -55 -181 -55c-113 0 -195 67 -163 219c30 138 130 207 252 207c121 0 196 -88 156 -267c-63 -280 -225 -411 -439 -423c-2 4 -2 9 -1 14zM130 477c-26 -125 31 -182 129 -182c86 0 148 34 193 62
c7 22 12 45 18 70c34 162 -25 233 -126 233s-188 -61 -214 -183z" />
    <glyph glyph-name="nine.denom" horiz-adv-x="309" 
d="M209 171c-18 -11 -53 -27 -100 -27c-67 0 -97 40 -84 99c15 72 76 105 131 105c75 0 105 -52 84 -151c-22 -101 -96 -187 -228 -200c-3 5 -2 14 3 20c101 14 169 69 194 154zM216 198c17 85 -5 129 -65 129c-50 0 -90 -32 -101 -84c-10 -43 12 -77 65 -77
c56 0 90 23 101 32z" />
    <glyph glyph-name="nine.num" horiz-adv-x="308" 
d="M282 517c-18 -11 -54 -27 -101 -27c-67 0 -96 40 -84 99c15 72 76 105 131 105c75 0 105 -52 84 -151c-21 -101 -95 -187 -227 -200c-3 5 -2 14 2 20c101 14 170 69 195 154zM289 544c17 85 -5 129 -65 129c-50 0 -91 -32 -102 -84c-9 -43 13 -77 66 -77
c56 0 90 23 101 32z" />
    <glyph glyph-name="nineinferior" unicode="&#x2089;" horiz-adv-x="308" 
d="M188 75c-18 -11 -54 -27 -101 -27c-67 0 -96 40 -84 99c16 72 77 105 132 105c75 0 104 -52 83 -151c-21 -101 -95 -187 -227 -200c-3 5 -2 14 2 20c101 14 170 69 195 154zM195 102c17 85 -5 129 -65 129c-50 0 -91 -32 -102 -84c-9 -43 13 -77 66 -77
c56 0 90 23 101 32z" />
    <glyph glyph-name="notequal" unicode="&#x2260;" horiz-adv-x="458" 
d="M368 192h-206l-75 -98s-7 -3 -19 -3c-8 0 -14 3 -14 3l75 98h-89s-3 3 0 15c2 11 6 15 6 15h105l104 136h-180s-2 4 0 15c3 11 6 15 6 15h197l70 90s7 3 17 3c9 0 16 -3 16 -3l-70 -90h98s3 -4 0 -15c-2 -11 -6 -15 -6 -15h-114l-105 -136h190s2 -4 0 -15s-6 -15 -6 -15z
" />
    <glyph glyph-name="ntilde" unicode="&#xf1;" horiz-adv-x="550" 
d="M406 630c28 0 45 29 45 29c10 1 20 -2 24 -11c0 0 -19 -46 -70 -46c-48 0 -72 35 -110 35c-28 0 -45 -30 -45 -30c-11 -1 -21 4 -24 11c0 0 20 47 71 47c48 0 71 -35 109 -35zM479 388l-81 -385s-6 -3 -17 -3s-15 3 -15 3l80 377c18 88 -15 127 -99 127
c-70 0 -157 -49 -208 -131l-79 -373s-6 -3 -17 -3s-15 3 -15 3l110 520s6 3 17 3s15 -3 15 -3l-19 -88c55 63 124 101 206 101c94 0 142 -58 122 -148z" />
    <glyph glyph-name="_368" horiz-adv-x="0" 
 />
    <glyph glyph-name="numbersign" unicode="#" horiz-adv-x="645" 
d="M263 4l70 144h-178l-70 -144s-6 -4 -18 -4c-11 0 -14 4 -14 4l70 144h-109c-1 4 -1 9 1 15c1 6 3 11 6 15h118l128 259h-107c-1 4 -1 9 0 15s3 11 6 15h115l77 153c5 2 10 3 16 3s12 -1 16 -3l-77 -153h178l77 153c5 2 10 3 16 3s12 -1 16 -3l-77 -153h106
c1 -4 1 -9 0 -15s-3 -10 -6 -15h-114l-128 -259h103c1 -4 1 -9 0 -15c-2 -6 -4 -10 -7 -15h-112l-70 -144s-6 -4 -18 -4c-11 0 -14 4 -14 4zM299 437l-128 -259h178l128 259h-178z" />
    <glyph glyph-name="o" unicode="o" horiz-adv-x="537" 
d="M207 -10c-128 0 -189 75 -150 273s128 273 256 273s189 -75 150 -273s-128 -273 -256 -273zM312 506c-104 0 -182 -57 -221 -243c-40 -186 13 -243 117 -243s181 57 221 243c39 186 -13 243 -117 243z" />
    <glyph glyph-name="oacute" unicode="&#xf3;" horiz-adv-x="537" 
d="M437 757l-156 -147c-12 1 -19 6 -21 14l148 150c14 0 24 -6 29 -17zM207 -10c-128 0 -189 75 -150 273s128 273 256 273s189 -75 150 -273s-128 -273 -256 -273zM312 506c-104 0 -182 -57 -221 -243c-40 -186 13 -243 117 -243s181 57 221 243c39 186 -13 243 -117 243z
" />
    <glyph glyph-name="obreve" unicode="&#x14f;" horiz-adv-x="537" 
d="M479 688c0 0 -50 -53 -136 -53s-124 53 -124 53c5 10 10 15 22 19c0 0 36 -43 103 -43s121 43 121 43c12 -3 15 -8 14 -19zM207 -10c-128 0 -189 75 -150 273s128 273 256 273s189 -75 150 -273s-128 -273 -256 -273zM312 506c-104 0 -182 -57 -221 -243
c-40 -186 13 -243 117 -243s181 57 221 243c39 186 -13 243 -117 243z" />
    <glyph glyph-name="ocircumflex" unicode="&#xf4;" horiz-adv-x="537" 
d="M344 721h25l100 -99c-4 -9 -7 -17 -17 -19l-99 88l-136 -89c-9 4 -15 10 -15 20zM207 -10c-128 0 -189 75 -150 273s128 273 256 273s189 -75 150 -273s-128 -273 -256 -273zM312 506c-104 0 -182 -57 -221 -243c-40 -186 13 -243 117 -243s181 57 221 243
c39 186 -13 243 -117 243z" />
    <glyph glyph-name="odieresis" unicode="&#xf6;" horiz-adv-x="537" 
d="M296 677l-8 -42s-9 -3 -25 -3s-23 3 -23 3l8 42s9 3 25 3s23 -3 23 -3zM437 677l-8 -42s-9 -3 -25 -3s-23 3 -23 3l8 42s9 3 25 3s23 -3 23 -3zM207 -10c-128 0 -189 75 -150 273s128 273 256 273s189 -75 150 -273s-128 -273 -256 -273zM312 506
c-104 0 -182 -57 -221 -243c-40 -186 13 -243 117 -243s181 57 221 243c39 186 -13 243 -117 243z" />
    <glyph glyph-name="oe" unicode="&#x153;" horiz-adv-x="826" 
d="M746 252h-308c-29 -163 1 -230 107 -230c73 0 131 39 131 39c9 -5 13 -14 12 -25c0 0 -58 -46 -156 -46c-84 0 -129 47 -136 140c-49 -100 -109 -140 -201 -140c-125 0 -181 75 -139 273s130 273 255 273c91 0 136 -41 142 -140c50 97 119 140 198 140
c105 0 149 -79 127 -184c-13 -61 -32 -100 -32 -100zM309 507c-101 0 -180 -58 -219 -244c-40 -186 7 -244 108 -244s169 64 211 246c41 178 -2 242 -100 242zM748 357c17 79 -5 149 -103 149c-90 0 -164 -68 -201 -224h282s12 28 22 75z" />
    <glyph glyph-name="ogonek" unicode="&#x2db;" horiz-adv-x="283" 
d="M-28 -170c5 -5 6 -13 4 -22c0 0 -24 -16 -60 -16c-53 0 -75 31 -66 73c16 72 90 113 164 121l-4 -20c-51 -9 -113 -38 -126 -97c-7 -32 11 -49 44 -49c25 0 44 10 44 10z" />
    <glyph glyph-name="ograve" unicode="&#xf2;" horiz-adv-x="537" 
d="M336 614l-102 137c7 10 20 19 33 19l94 -140c-5 -9 -13 -14 -25 -16zM207 -10c-128 0 -189 75 -150 273s128 273 256 273s189 -75 150 -273s-128 -273 -256 -273zM312 506c-104 0 -182 -57 -221 -243c-40 -186 13 -243 117 -243s181 57 221 243c39 186 -13 243 -117 243z
" />
    <glyph glyph-name="ohungarumlaut" unicode="&#x151;" horiz-adv-x="537" 
d="M386 720l-131 -122c-11 1 -17 5 -19 12l118 125c16 0 26 -5 32 -15zM524 720l-131 -122c-11 1 -17 5 -19 12l118 125c15 0 26 -5 32 -15zM207 -10c-128 0 -189 75 -150 273s128 273 256 273s189 -75 150 -273s-128 -273 -256 -273zM312 506c-104 0 -182 -57 -221 -243
c-40 -186 13 -243 117 -243s181 57 221 243c39 186 -13 243 -117 243z" />
    <glyph glyph-name="omacron" unicode="&#x14d;" horiz-adv-x="537" 
d="M443 643h-217c-1 5 -1 9 0 15c2 6 4 10 6 15h217c1 -4 1 -8 0 -14c-2 -6 -4 -11 -6 -16zM207 -10c-128 0 -189 75 -150 273s128 273 256 273s189 -75 150 -273s-128 -273 -256 -273zM312 506c-104 0 -182 -57 -221 -243c-40 -186 13 -243 117 -243s181 57 221 243
c39 186 -13 243 -117 243z" />
    <glyph glyph-name="one" unicode="1" horiz-adv-x="385" 
d="M81 518c88 22 176 78 241 159c0 0 4 3 15 3s15 -3 15 -3l-143 -674s-5 -3 -18 -3s-15 3 -15 3l101 479c14 62 26 110 34 141c-61 -70 -148 -114 -227 -134c-6 6 -7 18 -3 29z" />
    <glyph glyph-name="one.denom" horiz-adv-x="241" 
d="M24 268c48 12 102 45 133 73c3 1 8 2 13 2s10 -1 10 -2l-72 -339c-2 -1 -7 -2 -12 -2s-9 1 -11 2l57 266c3 16 6 29 10 41c-36 -27 -79 -49 -127 -61c-4 4 -5 13 -1 20z" />
    <glyph glyph-name="one.num" horiz-adv-x="258" 
d="M98 614c49 12 103 45 134 73c2 1 7 2 12 2s10 -1 11 -2l-72 -339c-2 -1 -7 -2 -11 -2s-8 0 -12 2l56 266c4 16 7 29 10 41c-36 -27 -78 -49 -127 -61c-4 4 -4 13 -1 20z" />
    <glyph glyph-name="oneeighth" unicode="&#x215b;" horiz-adv-x="696" 
d="M537 348c65 0 98 -29 86 -82c-9 -46 -43 -75 -79 -93c35 -18 63 -41 53 -88c-12 -56 -62 -90 -134 -90c-68 0 -111 30 -98 90c11 53 54 85 92 104c-29 17 -50 39 -41 79c10 47 51 80 121 80zM49 -8l540 707s4 3 13 3s12 -3 12 -3l-539 -707s-4 -2 -13 -2s-13 2 -13 2z
M104 614c49 12 103 45 134 73c2 1 7 2 12 2s10 -1 11 -2l-72 -339c-2 -1 -7 -2 -11 -2s-8 0 -12 2l56 266c4 16 7 29 10 41c-36 -27 -78 -49 -127 -61c-4 4 -4 13 -1 20zM468 16c50 0 95 22 105 67c12 56 -48 72 -97 96c-25 -12 -76 -42 -87 -93c-10 -49 20 -70 79 -70z
M531 327c-50 0 -83 -22 -91 -57c-10 -51 38 -67 85 -88c37 21 67 47 74 83c9 40 -16 62 -68 62z" />
    <glyph glyph-name="onehalf" unicode="&#xbd;" horiz-adv-x="693" 
d="M44 -8l540 707s4 3 13 3s12 -3 12 -3l-539 -707s-4 -2 -13 -2s-13 2 -13 2zM106 614c49 12 103 45 134 73c2 1 7 2 12 2s10 -1 11 -2l-72 -339c-2 -1 -7 -2 -11 -2s-8 0 -12 2l56 266c4 16 7 29 10 41c-36 -27 -78 -49 -127 -61c-4 4 -4 13 -1 20zM367 41
c29 136 216 108 238 215c8 35 -4 70 -75 70c-38 0 -77 -10 -77 -10c-3 6 -3 13 -1 20c0 0 36 12 86 12c83 0 102 -40 92 -90c-29 -134 -231 -96 -243 -235h191c1 -3 1 -8 0 -12s-2 -8 -5 -11h-211s0 18 5 41z" />
    <glyph glyph-name="oneinferior" unicode="&#x2081;" horiz-adv-x="242" 
d="M4 172c48 12 102 45 133 73c2 1 7 2 12 2s10 -1 11 -2l-72 -339c-2 -1 -7 -2 -11 -2s-8 0 -12 2l57 266c3 16 6 29 9 41c-36 -27 -78 -49 -127 -61c-4 4 -4 13 0 20z" />
    <glyph glyph-name="onequarter" unicode="&#xbc;" horiz-adv-x="635" 
d="M44 -8l540 707s4 3 13 3s12 -3 12 -3l-539 -707s-4 -2 -13 -2s-13 2 -13 2zM106 614c49 12 103 45 134 73c2 1 7 2 12 2s10 -1 11 -2l-72 -339c-2 -1 -7 -2 -11 -2s-8 0 -12 2l56 266c4 16 7 29 10 41c-36 -27 -78 -49 -127 -61c-4 4 -4 13 -1 20zM502 120h43s2 -4 0 -11
c-2 -8 -4 -12 -4 -12h-43l-21 -95s-3 -2 -11 -2s-12 2 -12 2l21 95h-184s-2 2 -1 7s4 8 4 8l231 229s4 2 13 2c8 0 11 -2 11 -2zM329 120h150l40 187z" />
    <glyph glyph-name="onesuperior" unicode="&#xb9;" horiz-adv-x="242" 
d="M98 614c49 12 103 45 134 73c2 1 7 2 12 2s10 -1 11 -2l-72 -339c-2 -1 -7 -2 -11 -2s-8 0 -12 2l56 266c4 16 7 29 10 41c-36 -27 -78 -49 -127 -61c-4 4 -4 13 -1 20z" />
    <glyph glyph-name="onethird" unicode="&#x2153;" horiz-adv-x="697" 
d="M49 -8l540 707s4 3 13 3s12 -3 12 -3l-539 -707s-4 -2 -13 -2s-13 2 -13 2zM599 92c-12 -52 -49 -97 -151 -97c-49 0 -82 13 -82 13c0 7 4 14 9 18c0 0 33 -10 76 -10c92 0 115 38 124 76c11 55 -23 77 -73 77h-43c-2 6 0 16 5 22h43c50 0 82 26 91 68
c9 44 -16 67 -70 67c-47 0 -83 -9 -83 -9c-3 5 -3 12 -1 19c0 0 38 12 89 12c72 0 101 -32 89 -88c-8 -39 -27 -63 -65 -79c33 -14 53 -35 42 -89zM104 614c49 12 103 45 134 73c2 1 7 2 12 2s10 -1 11 -2l-72 -339c-2 -1 -7 -2 -11 -2s-8 0 -12 2l56 266c4 16 7 29 10 41
c-36 -27 -78 -49 -127 -61c-4 4 -4 13 -1 20z" />
    <glyph glyph-name="ordfeminine" unicode="&#xaa;" horiz-adv-x="360" 
d="M161 296c-56 0 -92 35 -79 93c12 57 54 93 131 93c41 0 76 -4 90 -6l10 46c13 63 -2 86 -64 86c-48 0 -92 -16 -92 -16c-4 4 -5 14 -3 20c0 0 51 18 103 18c71 0 94 -36 80 -102l-47 -223s-2 -2 -8 -2c-7 0 -9 2 -9 2l6 49c-28 -36 -69 -58 -118 -58zM269 223h-220
s-1 4 1 11c1 6 4 10 4 10h220c0 -2 1 -6 0 -10c-2 -7 -5 -11 -5 -11zM106 389c-11 -49 13 -71 58 -71c59 0 114 40 128 105l7 33c-15 1 -51 5 -86 5c-64 0 -97 -23 -107 -72z" />
    <glyph glyph-name="ordmasculine" unicode="&#xba;" horiz-adv-x="378" 
d="M190 295c-86 0 -115 51 -93 168c23 115 72 167 158 167c85 0 116 -50 93 -167c-22 -117 -73 -168 -158 -168zM253 608c-73 0 -110 -44 -132 -145c-22 -103 -3 -146 70 -146c72 0 111 43 133 146c22 101 1 145 -71 145zM284 223h-226s-1 4 1 11c1 6 4 10 4 10h226
s1 -3 0 -10c-2 -7 -5 -11 -5 -11z" />
    <glyph glyph-name="oslash" unicode="&#xf8;" horiz-adv-x="535" 
d="M509 568l-65 -85c31 -43 39 -114 18 -220c-39 -198 -128 -273 -256 -273c-48 0 -87 11 -114 34l-52 -67s-5 -3 -20 -3c-13 0 -16 3 -16 3l68 89c-29 43 -36 113 -16 217c39 198 128 273 256 273c47 0 84 -10 112 -32l49 64s5 3 20 3c13 0 16 -3 16 -3zM311 507
c-104 0 -182 -58 -221 -244c-20 -91 -17 -152 3 -190l311 406c-22 20 -54 28 -93 28zM207 19c104 0 181 58 221 244c20 94 16 155 -5 193l-312 -406c23 -22 55 -31 96 -31z" />
    <glyph glyph-name="oslashacute" unicode="&#x1ff;" horiz-adv-x="535" 
d="M441 757l-156 -147c-12 1 -19 6 -21 14l148 150c14 0 24 -6 29 -17zM509 568l-65 -85c31 -43 39 -114 18 -220c-39 -198 -128 -273 -256 -273c-48 0 -87 11 -114 34l-52 -67s-5 -3 -20 -3c-13 0 -16 3 -16 3l68 89c-29 43 -36 113 -16 217c39 198 128 273 256 273
c47 0 84 -10 112 -32l49 64s5 3 20 3c13 0 16 -3 16 -3zM311 507c-104 0 -182 -58 -221 -244c-20 -91 -17 -152 3 -190l311 406c-22 20 -54 28 -93 28zM207 19c104 0 181 58 221 244c20 94 16 155 -5 193l-312 -406c23 -22 55 -31 96 -31z" />
    <glyph glyph-name="otilde" unicode="&#xf5;" horiz-adv-x="537" 
d="M395 654c28 0 45 29 45 29c10 1 20 -2 24 -11c0 0 -21 -47 -72 -47c-48 0 -70 36 -108 36c-28 0 -45 -30 -45 -30c-11 -1 -21 4 -24 11c0 0 22 48 73 48c48 0 69 -36 107 -36zM207 -10c-128 0 -189 75 -150 273s128 273 256 273s189 -75 150 -273s-128 -273 -256 -273z
M312 506c-104 0 -182 -57 -221 -243c-40 -186 13 -243 117 -243s181 57 221 243c39 186 -13 243 -117 243z" />
    <glyph glyph-name="p" unicode="p" 
d="M79 95l-73 -342s-4 -3 -16 -3s-16 3 -16 3l164 770s5 3 17 3s15 -3 15 -3l-18 -84c43 59 102 97 183 97c122 0 187 -69 144 -273s-128 -273 -250 -273c-80 0 -132 39 -150 105zM101 200c-17 -83 21 -180 121 -180c123 0 187 72 223 243s4 243 -119 243
c-99 0 -177 -93 -196 -174z" />
    <glyph glyph-name="paragraph" unicode="&#xb6;" horiz-adv-x="438" 
d="M410 696l-196 -920s-4 -3 -15 -3s-15 3 -15 3l196 920s5 3 16 3s14 -3 14 -3zM26 -224l158 742c-59 2 -77 46 -68 91c11 45 51 90 110 90h27l-197 -923s-4 -3 -15 -3c-12 0 -15 3 -15 3z" />
    <glyph glyph-name="parenleft" unicode="(" horiz-adv-x="280" 
d="M340 807c7 -5 8 -11 8 -11s-184 -187 -245 -476s43 -476 43 -476s-3 -6 -13 -11c-9 -5 -14 -4 -14 -4s-112 200 -50 491s258 491 258 491s7 1 13 -4z" />
    <glyph glyph-name="parenright" unicode=")" horiz-adv-x="279" 
d="M183 320c61 289 -43 476 -43 476s3 6 12 11c10 5 15 4 15 4s112 -200 50 -491s-258 -491 -258 -491s-7 -1 -14 4c-6 5 -7 11 -7 11s184 187 245 476z" />
    <glyph glyph-name="partialdiff" unicode="&#x2202;" horiz-adv-x="553" 
d="M465 412c5 151 -69 279 -233 311c0 10 4 20 12 27c191 -39 292 -188 238 -443c-51 -241 -145 -317 -279 -317c-126 0 -189 75 -149 262c39 187 134 262 251 262c91 0 142 -41 160 -102zM209 19c101 0 185 57 223 233c38 179 -27 232 -132 232c-101 0 -175 -56 -212 -232
c-38 -176 20 -233 121 -233z" />
    <glyph glyph-name="percent" unicode="%" horiz-adv-x="740" 
d="M190 345c-79 0 -117 48 -90 173c26 123 85 173 164 173c78 0 118 -48 91 -173s-87 -173 -165 -173zM257 661c-56 0 -99 -36 -122 -143c-23 -108 6 -142 62 -142s99 34 122 142c23 106 -7 143 -62 143zM670 699l-540 -706s-7 -3 -21 -3c-11 0 -18 3 -18 3l540 706
s6 3 20 3c13 0 19 -3 19 -3zM492 -10c-79 0 -117 48 -90 173c26 123 84 173 163 173c78 0 118 -48 92 -173c-27 -125 -87 -173 -165 -173zM559 306c-56 0 -100 -36 -122 -143c-23 -108 5 -142 61 -142s100 34 123 142c22 106 -7 143 -62 143z" />
    <glyph glyph-name="period" unicode="." horiz-adv-x="195" 
d="M71 45l-9 -42s-9 -3 -25 -3s-23 3 -23 3l9 42s8 3 24 3s24 -3 24 -3z" />
    <glyph glyph-name="periodcentered" unicode="&#xb7;" horiz-adv-x="217" 
d="M132 305l-9 -42s-9 -3 -25 -3s-23 3 -23 3l9 42s8 3 24 3s24 -3 24 -3z" />
    <glyph glyph-name="perthousand" unicode="&#x2030;" horiz-adv-x="1058" 
d="M190 345c-79 0 -117 48 -90 173c26 123 85 173 164 173c78 0 118 -48 91 -173s-87 -173 -165 -173zM257 661c-56 0 -99 -36 -122 -143c-23 -108 6 -142 62 -142s99 34 122 142c23 106 -7 143 -62 143zM670 699l-540 -706s-7 -3 -21 -3c-11 0 -18 3 -18 3l540 706
s6 3 20 3c13 0 19 -3 19 -3zM492 -10c-79 0 -117 48 -90 173c26 123 84 173 163 173c78 0 118 -48 92 -173c-27 -125 -87 -173 -165 -173zM559 306c-56 0 -100 -36 -122 -143c-23 -108 5 -142 61 -142s100 34 123 142c22 106 -7 143 -62 143zM812 -10c-79 0 -117 48 -90 173
c26 123 84 173 163 173c78 0 118 -48 92 -173c-27 -125 -87 -173 -165 -173zM879 306c-56 0 -100 -36 -122 -143c-23 -108 5 -142 61 -142s100 34 123 142c22 106 -7 143 -62 143z" />
    <glyph glyph-name="pi" unicode="&#x3c0;" horiz-adv-x="594" 
d="M429 236l55 260h-303l-104 -493s-5 -3 -17 -3s-15 3 -15 3l104 493c-43 -2 -73 -9 -73 -9c-1 4 0 10 1 16c1 5 3 10 6 13c0 0 36 10 133 10h382c1 -4 1 -10 0 -15s-4 -11 -7 -15h-74l-55 -260c-37 -176 -11 -226 -11 -226c-5 -6 -16 -10 -27 -10c-3 0 -6 0 -9 1
c0 0 -23 58 14 235z" />
    <glyph glyph-name="plus" unicode="+" horiz-adv-x="460" 
d="M176 125l31 150h-150s-2 4 1 15c2 11 6 15 6 15h150l32 150s4 3 15 3s15 -3 15 -3l-32 -150h150s2 -4 0 -15c-3 -11 -7 -15 -7 -15h-150l-31 -150s-5 -3 -16 -3s-14 3 -14 3z" />
    <glyph glyph-name="plusminus" unicode="&#xb1;" horiz-adv-x="513" 
d="M233 267l25 120h-150s-2 4 0 15c3 11 7 15 7 15h150l25 120s5 3 16 3s14 -3 14 -3l-25 -120h150s2 -4 -1 -15c-2 -11 -6 -15 -6 -15h-150l-25 -120s-5 -3 -16 -3s-14 3 -14 3zM388 149h-330s-3 4 0 15c2 11 6 15 6 15h330s2 -4 0 -15c-3 -11 -6 -15 -6 -15z" />
    <glyph glyph-name="product" unicode="&#x220f;" horiz-adv-x="709" 
d="M680 693l-190 -897s-5 -3 -19 -3c-12 0 -15 3 -15 3l183 865h-419l-183 -865s-5 -3 -19 -3c-12 0 -15 3 -15 3l190 897h487z" />
    <glyph glyph-name="q" unicode="q" horiz-adv-x="553" 
d="M313 -247l71 334c-42 -59 -97 -97 -182 -97c-122 0 -187 69 -144 273s128 273 250 273c85 0 133 -42 150 -103l19 90s5 3 17 3s15 -3 15 -3l-164 -770s-4 -3 -16 -3s-16 3 -16 3zM92 263c-36 -171 -4 -243 119 -243c103 0 176 92 196 174l30 138c14 81 -19 174 -122 174
c-123 0 -187 -72 -223 -243z" />
    <glyph glyph-name="question" unicode="?" horiz-adv-x="423" 
d="M418 535c-43 -200 -228 -172 -273 -382c0 0 -5 -4 -15 -4c-9 0 -14 4 -14 4c50 232 228 198 266 380c14 67 -10 126 -119 126c-85 0 -143 -25 -143 -25c-7 5 -9 16 -6 25c0 0 67 31 159 31c128 0 162 -74 145 -155zM133 45l-9 -42s-9 -3 -25 -3s-23 3 -23 3l9 42
s8 3 24 3s24 -3 24 -3z" />
    <glyph glyph-name="questiondown" unicode="&#xbf;" horiz-adv-x="413" 
d="M-16 -15c42 200 227 172 272 382c0 0 6 4 16 4c9 0 13 -4 13 -4c-49 -232 -227 -198 -266 -380c-14 -67 10 -126 119 -126c85 0 144 25 144 25c7 -5 8 -16 5 -25c0 0 -66 -31 -158 -31c-128 0 -162 74 -145 155zM269 475l9 42s8 3 24 3s24 -3 24 -3l-9 -42s-9 -3 -25 -3
s-23 3 -23 3z" />
    <glyph glyph-name="quotedbl" unicode="&#x22;" horiz-adv-x="291" 
d="M128 526l33 191s7 3 18 3c12 0 16 -3 16 -3l-47 -191s-4 -2 -11 -2s-9 2 -9 2zM232 526l33 191s6 3 18 3s16 -3 16 -3l-47 -191s-4 -2 -11 -2s-9 2 -9 2z" />
    <glyph glyph-name="quotedblbase" unicode="&#x201e;" horiz-adv-x="298" 
d="M-6 -94l-13 12s33 28 50 82c-12 0 -17 3 -17 3l9 42s8 3 24 3s24 -3 24 -3l-7 -32c-15 -70 -70 -107 -70 -107zM97 -94l-13 12s33 28 50 82c-12 0 -17 3 -17 3l9 42s8 3 24 3s24 -3 24 -3l-7 -32c-15 -70 -70 -107 -70 -107z" />
    <glyph glyph-name="quotedblleft" unicode="&#x201c;" horiz-adv-x="302" 
d="M206 720l13 -12s-35 -28 -51 -82c12 -1 18 -3 18 -3l-9 -42s-8 -3 -24 -3s-24 3 -24 3l7 32c15 70 70 107 70 107zM306 720l13 -12s-35 -28 -51 -82c12 -1 18 -3 18 -3l-9 -42s-8 -3 -24 -3s-24 3 -24 3l7 32c15 70 70 107 70 107z" />
    <glyph glyph-name="quotedblright" unicode="&#x201d;" horiz-adv-x="299" 
d="M141 578l-14 12s34 28 51 82c-12 0 -18 3 -18 3l9 42s9 3 25 3s23 -3 23 -3l-6 -32c-15 -70 -70 -107 -70 -107zM241 578l-14 12s34 28 51 82c-12 0 -18 3 -18 3l9 42s9 3 25 3s23 -3 23 -3l-6 -32c-15 -70 -70 -107 -70 -107z" />
    <glyph glyph-name="quoteleft" unicode="&#x2018;" horiz-adv-x="202" 
d="M206 720l13 -12s-35 -28 -51 -82c12 -1 18 -3 18 -3l-9 -42s-8 -3 -24 -3s-24 3 -24 3l7 32c15 70 70 107 70 107z" />
    <glyph glyph-name="quoteright" unicode="&#x2019;" horiz-adv-x="199" 
d="M141 578l-14 12s34 28 51 82c-12 0 -18 3 -18 3l9 42s9 3 25 3s23 -3 23 -3l-6 -32c-15 -70 -70 -107 -70 -107z" />
    <glyph glyph-name="quotesinglbase" unicode="&#x201a;" horiz-adv-x="195" 
d="M-6 -94l-13 12s33 28 50 82c-12 0 -17 3 -17 3l9 42s8 3 24 3s24 -3 24 -3l-7 -32c-15 -70 -70 -107 -70 -107z" />
    <glyph glyph-name="quotesingle" unicode="'" horiz-adv-x="187" 
d="M128 526l33 191s6 3 18 3s16 -3 16 -3l-47 -191s-4 -2 -11 -2s-9 2 -9 2z" />
    <glyph glyph-name="r" unicode="r" horiz-adv-x="385" 
d="M149 426c73 100 134 109 177 109c52 0 78 -22 78 -22c-3 -11 -8 -22 -19 -27c-21 12 -39 18 -71 18c-57 0 -125 -52 -177 -136l-77 -365s-5 -3 -17 -3s-15 3 -15 3l110 520s5 3 17 3s15 -3 15 -3z" />
    <glyph glyph-name="racute" unicode="&#x155;" horiz-adv-x="385" 
d="M149 423c73 94 134 112 177 112c52 0 78 -22 78 -22c-3 -11 -12 -22 -23 -27c-21 12 -39 18 -71 18c-57 0 -118 -60 -173 -136l-77 -365s-5 -3 -17 -3s-15 3 -15 3l110 520s5 3 17 3s15 -3 15 -3zM395 757l-156 -147c-12 1 -19 6 -21 14l148 150c14 0 24 -6 29 -17z" />
    <glyph glyph-name="radical" unicode="&#x221a;" horiz-adv-x="621" 
d="M677 722l-401 -737h-33l-75 387l-120 -47c-7 5 -9 17 -6 29l153 60l74 -382l381 698c12 2 23 -1 27 -8z" />
    <glyph glyph-name="rcaron" unicode="&#x159;" horiz-adv-x="385" 
d="M149 423c73 94 134 112 177 112c52 0 78 -22 78 -22c-3 -11 -12 -22 -23 -27c-21 12 -39 18 -71 18c-57 0 -118 -60 -173 -136l-77 -365s-5 -3 -17 -3s-15 3 -15 3l110 520s5 3 17 3s15 -3 15 -3zM278 602h-23l-94 93c4 11 6 14 16 18l93 -84l127 83c8 -2 14 -7 14 -17z
" />
    <glyph glyph-name="rcommaaccent" unicode="&#x157;" horiz-adv-x="385" 
d="M149 423c73 94 134 112 177 112c52 0 78 -22 78 -22c-3 -11 -12 -22 -23 -27c-21 12 -39 18 -71 18c-57 0 -118 -60 -173 -136l-77 -365s-5 -3 -17 -3s-15 3 -15 3l110 520s5 3 17 3s15 -3 15 -3zM-19 -182l-13 12s34 28 50 82c-12 0 -17 3 -17 3l9 42s8 3 24 3
s24 -3 24 -3l-7 -32c-15 -70 -70 -107 -70 -107z" />
    <glyph glyph-name="registered" unicode="&#xae;" horiz-adv-x="540" 
d="M260 266c-113 0 -185 92 -161 205s136 205 249 205s185 -92 161 -205s-136 -205 -249 -205zM344 659c-103 0 -205 -84 -227 -188s44 -188 147 -188c104 0 205 84 227 188s-43 188 -147 188zM346 589c48 0 65 -23 56 -65c-6 -30 -21 -50 -56 -60l36 -100s-3 -3 -10 -3
s-11 2 -11 2l-36 99h-74l-21 -99s-3 -2 -9 -2s-9 2 -9 2l48 226h86zM275 572l-20 -93h69c37 0 53 16 59 45c7 32 -2 48 -39 48h-69z" />
    <glyph glyph-name="ring" unicode="&#x2da;" horiz-adv-x="344" 
d="M125 509c-63 0 -103 38 -88 106c14 68 77 104 134 104c56 0 105 -35 91 -104c-15 -68 -75 -106 -137 -106zM230 615c8 39 -11 75 -66 75c-54 0 -87 -37 -95 -75c-9 -39 8 -77 62 -77c55 0 91 39 99 77z" />
    <glyph glyph-name="s" unicode="s" horiz-adv-x="445" 
d="M84 399c18 85 86 137 202 137c75 0 121 -22 121 -22c-1 -9 -8 -22 -16 -27c0 0 -46 19 -108 19c-93 0 -151 -40 -167 -113c-14 -66 41 -93 101 -110c73 -22 158 -52 135 -156c-20 -89 -88 -137 -204 -137c-94 0 -145 31 -145 31c1 9 8 22 16 27c0 0 59 -28 132 -28
c79 0 149 32 167 112c18 79 -48 101 -114 121c-68 20 -139 56 -120 146z" />
    <glyph glyph-name="sacute" unicode="&#x15b;" horiz-adv-x="445" 
d="M404 757l-156 -147c-12 1 -19 6 -21 14l148 150c14 0 24 -6 29 -17zM84 399c18 85 86 137 202 137c75 0 121 -22 121 -22c-1 -9 -8 -22 -16 -27c0 0 -46 19 -108 19c-93 0 -151 -40 -167 -113c-14 -66 41 -93 101 -110c73 -22 158 -52 135 -156
c-20 -89 -88 -137 -204 -137c-94 0 -145 31 -145 31c1 9 8 22 16 27c0 0 59 -28 132 -28c79 0 149 32 167 112c18 79 -48 101 -114 121c-68 20 -139 56 -120 146z" />
    <glyph glyph-name="scaron" unicode="&#x161;" horiz-adv-x="445" 
d="M312 602h-24l-93 91c4 10 10 16 20 19l89 -82l124 82c8 -2 14 -10 14 -19zM84 399c18 85 86 137 202 137c75 0 121 -22 121 -22c-1 -9 -8 -22 -16 -27c0 0 -46 19 -108 19c-93 0 -151 -40 -167 -113c-14 -66 41 -93 101 -110c73 -22 158 -52 135 -156
c-20 -89 -88 -137 -204 -137c-94 0 -145 31 -145 31c1 9 8 22 16 27c0 0 59 -28 132 -28c79 0 149 32 167 112c18 79 -48 101 -114 121c-68 20 -139 56 -120 146z" />
    <glyph glyph-name="scedilla" unicode="&#x15f;" horiz-adv-x="444" 
d="M83 399c18 85 86 137 202 137c75 0 121 -22 121 -22c-1 -9 -8 -22 -16 -27c0 0 -46 19 -108 19c-93 0 -151 -40 -167 -113c-14 -66 41 -93 101 -110c73 -22 158 -52 135 -156c-19 -86 -83 -133 -192 -137l-17 -46c76 0 101 -37 90 -89c-13 -62 -55 -86 -127 -86
c-49 0 -80 22 -80 22c3 10 8 17 15 22c0 0 28 -18 71 -18c49 0 81 19 91 65c8 37 -13 57 -59 57h-31l-4 8l24 65c-84 3 -130 31 -130 31c1 9 8 22 16 27c0 0 59 -28 132 -28c79 0 149 32 167 112c18 79 -48 101 -114 121c-68 20 -139 56 -120 146z" />
    <glyph glyph-name="scircumflex" unicode="&#x15d;" horiz-adv-x="445" 
d="M306 721h25l100 -99c-4 -9 -10 -17 -20 -19l-97 88l-135 -89c-9 4 -15 10 -15 20zM84 399c18 85 86 137 202 137c75 0 121 -22 121 -22c-1 -9 -8 -22 -16 -27c0 0 -46 19 -108 19c-93 0 -151 -40 -167 -113c-14 -66 41 -93 101 -110c73 -22 158 -52 135 -156
c-20 -89 -88 -137 -204 -137c-94 0 -145 31 -145 31c1 9 8 22 16 27c0 0 59 -28 132 -28c79 0 149 32 167 112c18 79 -48 101 -114 121c-68 20 -139 56 -120 146z" />
    <glyph glyph-name="scommaaccent" unicode="&#x219;" horiz-adv-x="444" 
d="M93 -212l-13 12s34 28 50 82c-12 0 -17 3 -17 3l9 42s8 3 24 3s24 -3 24 -3l-7 -32c-15 -70 -70 -107 -70 -107zM83 399c18 85 86 137 202 137c75 0 121 -22 121 -22c-1 -9 -8 -22 -16 -27c0 0 -46 19 -108 19c-93 0 -151 -40 -167 -113c-14 -66 41 -93 101 -110
c73 -22 158 -52 135 -156c-20 -89 -88 -137 -204 -137c-94 0 -145 31 -145 31c1 9 8 22 16 27c0 0 59 -28 132 -28c79 0 149 32 167 112c18 79 -48 101 -114 121c-68 20 -139 56 -120 146z" />
    <glyph glyph-name="section" unicode="&#xa7;" horiz-adv-x="484" 
d="M339 117c26 121 -287 74 -254 230c14 68 79 106 111 121c-38 20 -65 50 -53 104c16 79 84 118 186 118c81 0 129 -21 129 -21c0 -10 -7 -22 -15 -27c0 0 -56 18 -112 18c-106 0 -142 -36 -153 -87c-27 -125 270 -81 237 -232c-14 -68 -75 -105 -103 -119
c43 -20 74 -49 62 -105c-21 -99 -107 -127 -212 -127c-88 0 -146 24 -146 24c1 11 7 22 15 29c0 0 68 -20 130 -20c110 0 164 28 178 94zM226 455c-34 -15 -94 -50 -105 -104c-17 -78 79 -90 159 -117c27 13 87 46 100 103c15 74 -80 88 -154 118z" />
    <glyph glyph-name="semicolon" unicode=";" horiz-adv-x="236" 
d="M13 -94l-13 12s33 28 50 82c-12 0 -17 3 -17 3l9 42s8 3 24 3s24 -3 24 -3l-7 -32c-15 -70 -70 -107 -70 -107zM173 440l-8 -42s-9 -3 -25 -3s-23 3 -23 3l8 42s9 3 25 3s23 -3 23 -3z" />
    <glyph glyph-name="seven" unicode="7" horiz-adv-x="489" 
d="M519 680c1 0 2 -6 -1 -20c-54 -256 -322 -304 -397 -657c0 0 -6 -3 -17 -3s-17 3 -17 3c75 356 332 414 395 645h-373s-2 5 0 16s6 16 6 16h404z" />
    <glyph glyph-name="seven.denom" horiz-adv-x="273" 
d="M216 320h-181s-2 3 -1 11c2 8 6 12 6 12h204s0 -7 -2 -20c-31 -144 -160 -145 -198 -321c-3 -1 -7 -2 -13 -2s-10 1 -12 2c39 184 170 193 197 318z" />
    <glyph glyph-name="seven.num" horiz-adv-x="272" 
d="M289 666h-181c-3 6 -1 17 4 23h204s1 -7 -2 -20c-30 -144 -160 -145 -197 -321c-3 -1 -7 -2 -13 -2s-10 1 -12 2c39 184 170 193 197 318z" />
    <glyph glyph-name="seveneighths" unicode="&#x215e;" horiz-adv-x="650" 
d="M491 348c65 0 98 -29 86 -82c-9 -46 -43 -75 -79 -93c35 -18 63 -41 53 -88c-12 -56 -62 -90 -134 -90c-68 0 -111 30 -98 90c11 53 54 85 92 104c-29 17 -50 39 -41 79c10 47 51 80 121 80zM3 -8l540 707s4 3 13 3s12 -3 12 -3l-539 -707s-4 -2 -13 -2s-13 2 -13 2z
M311 666h-181c-3 6 -1 17 4 23h204s1 -7 -2 -20c-30 -144 -160 -145 -197 -321c-3 -1 -7 -2 -13 -2s-10 1 -12 2c39 183 170 193 197 318zM422 16c50 0 95 22 105 67c12 56 -48 72 -97 96c-25 -12 -76 -42 -87 -93c-10 -49 20 -70 79 -70zM485 327c-50 0 -83 -22 -91 -57
c-10 -51 38 -67 85 -88c37 21 67 47 74 83c9 40 -16 62 -68 62z" />
    <glyph glyph-name="seveninferior" unicode="&#x2087;" horiz-adv-x="272" 
d="M195 224h-181c-3 6 -1 17 4 23h204s1 -7 -2 -20c-30 -144 -160 -145 -197 -321c-3 -1 -7 -2 -13 -2s-10 1 -12 2c39 184 170 193 197 318z" />
    <glyph glyph-name="six" unicode="6" horiz-adv-x="553" 
d="M502 666c-2 -5 -4 -10 -6 -14c-165 -16 -297 -97 -369 -289c38 21 106 53 188 53c113 0 187 -75 155 -227c-29 -138 -130 -199 -252 -199c-121 0 -196 80 -156 267c59 280 231 409 438 423c2 -3 3 -8 2 -14zM435 196c27 125 -30 188 -128 188c-87 0 -166 -44 -193 -61
c-7 -22 -13 -46 -18 -70c-35 -162 24 -233 125 -233s188 54 214 176z" />
    <glyph glyph-name="six.denom" horiz-adv-x="308" 
d="M42 172c17 10 52 27 100 27c67 0 97 -40 84 -99c-15 -72 -76 -105 -131 -105c-75 0 -105 52 -84 151c21 101 96 187 228 200c2 -5 2 -14 -3 -20c-101 -14 -169 -69 -194 -154zM35 145c-17 -86 4 -129 64 -129c50 0 91 32 102 84c9 43 -12 77 -65 77
c-56 0 -90 -23 -101 -32z" />
    <glyph glyph-name="six.num" horiz-adv-x="308" 
d="M115 520c18 10 53 27 101 27c67 0 97 -40 84 -99c-15 -72 -76 -105 -131 -105c-75 0 -105 52 -84 151c21 101 96 187 227 200c3 -5 2 -14 -2 -20c-101 -14 -169 -69 -195 -154zM109 493c-18 -86 4 -129 64 -129c50 0 91 32 102 84c9 43 -12 77 -65 77
c-56 0 -90 -23 -101 -32z" />
    <glyph glyph-name="sixinferior" unicode="&#x2086;" horiz-adv-x="308" 
d="M21 76c17 10 53 27 101 27c67 0 96 -40 84 -99c-15 -72 -77 -105 -132 -105c-75 0 -104 52 -83 151c21 101 95 187 227 200c3 -5 2 -14 -2 -20c-101 -14 -170 -69 -195 -154zM14 49c-17 -85 5 -129 65 -129c50 0 91 32 102 84c9 43 -13 77 -66 77c-56 0 -90 -23 -101 -32
z" />
    <glyph glyph-name="slash" unicode="/" horiz-adv-x="426" 
d="M-48 -44l507 791s6 3 18 3c13 0 18 -3 18 -3l-507 -791s-8 -3 -21 -3c-11 0 -15 3 -15 3z" />
    <glyph glyph-name="space" unicode=" " horiz-adv-x="263" 
 />
    <glyph glyph-name="sterling" unicode="&#xa3;" horiz-adv-x="510" 
d="M383 321h-190c9 -91 -1 -189 -124 -289h320c2 -4 2 -10 0 -16c-1 -6 -3 -12 -7 -16h-370l7 32c138 102 144 195 134 289h-83c-1 4 -2 10 0 16c1 6 3 12 7 16h73c-8 53 -15 107 -3 163c26 122 117 175 236 175c83 0 142 -25 142 -25c-2 -10 -8 -22 -18 -27
c0 0 -55 21 -130 21c-107 0 -174 -50 -195 -147c-11 -51 0 -104 7 -160h201c1 -4 2 -9 1 -15s-4 -12 -8 -17z" />
    <glyph glyph-name="summation" unicode="&#x2211;" horiz-adv-x="564" 
d="M411 -207h-480l4 21l322 447l-121 417l3 16h457s2 -5 0 -16s-6 -16 -6 -16h-411l116 -401l-312 -436h435s2 -5 -1 -16c-2 -11 -6 -16 -6 -16z" />
    <glyph glyph-name="t" unicode="t" horiz-adv-x="342" 
d="M345 496h-161l-68 -324c-22 -103 -14 -152 76 -152c32 0 65 6 65 6s3 -5 1 -15s-4 -13 -4 -13s-29 -8 -69 -8c-110 0 -126 67 -101 182l68 324h-81s-2 4 1 15c2 11 6 15 6 15h81l21 102c10 7 23 10 34 9l-23 -111h161s3 -4 1 -15c-3 -11 -8 -15 -8 -15z" />
    <glyph glyph-name="tbar" unicode="&#x167;" horiz-adv-x="344" 
d="M193 526h161s3 -4 1 -15c-3 -11 -8 -15 -8 -15h-161l-42 -198h135s2 -4 0 -14s-6 -14 -6 -14h-134l-21 -98c-22 -103 -14 -152 76 -152c32 0 65 6 65 6s3 -5 1 -15s-4 -13 -4 -13s-29 -8 -69 -8c-110 0 -126 67 -101 182l21 98h-59s-2 4 0 14s6 14 6 14h58l42 198h-81
s-2 4 1 15c2 11 6 15 6 15h81l21 102c10 7 23 10 34 9z" />
    <glyph glyph-name="tcaron" unicode="&#x165;" horiz-adv-x="331" 
d="M311 571c-10 1 -15 6 -16 12c53 34 84 84 99 146c15 2 26 0 32 -6c-16 -56 -59 -123 -115 -152zM289 496h-105l-68 -324c-22 -103 -9 -152 81 -152c32 0 60 6 60 6s3 -5 1 -15s-4 -13 -4 -13s-29 -8 -69 -8c-110 0 -126 67 -101 182l68 324h-81s-2 4 1 15c2 11 6 15 6 15
h81l21 102c10 7 23 10 34 9l-23 -111h105s3 -4 1 -15c-3 -11 -8 -15 -8 -15z" />
    <glyph glyph-name="tcommaaccent" unicode="&#x163;" horiz-adv-x="341" 
d="M345 496h-161l-68 -324c-22 -103 -13 -152 77 -152c32 0 64 6 64 6s3 -5 1 -15s-4 -13 -4 -13s-29 -8 -69 -8c-110 0 -126 67 -101 182l68 324h-81s-2 4 1 15c2 11 6 15 6 15h81l21 102c10 7 23 10 34 9l-23 -111h161s3 -4 1 -15c-3 -11 -8 -15 -8 -15zM103 -202l-13 12
s34 28 50 82c-12 0 -17 3 -17 3l9 42s8 3 24 3s24 -3 24 -3l-7 -32c-15 -70 -70 -107 -70 -107z" />
    <glyph glyph-name="tcommaaccent" unicode="&#x21b;" horiz-adv-x="341" 
d="M345 496h-161l-68 -324c-22 -103 -13 -152 77 -152c32 0 64 6 64 6s3 -5 1 -15s-4 -13 -4 -13s-29 -8 -69 -8c-110 0 -126 67 -101 182l68 324h-81s-2 4 1 15c2 11 6 15 6 15h81l21 102c10 7 23 10 34 9l-23 -111h161s3 -4 1 -15c-3 -11 -8 -15 -8 -15zM103 -202l-13 12
s34 28 50 82c-12 0 -17 3 -17 3l9 42s8 3 24 3s24 -3 24 -3l-7 -32c-15 -70 -70 -107 -70 -107z" />
    <glyph glyph-name="thorn" unicode="&#xfe;" 
d="M77 87l-71 -334s-4 -3 -16 -3s-16 3 -16 3l212 994s4 3 16 3s16 -3 16 -3l-66 -308c43 59 97 97 183 97c122 0 187 -69 144 -273s-128 -273 -250 -273c-86 0 -134 38 -152 97zM101 200c-17 -83 15 -180 121 -180c123 0 187 72 223 243s4 243 -119 243
c-104 0 -177 -93 -196 -174z" />
    <glyph glyph-name="three" unicode="3" horiz-adv-x="509" 
d="M409 170c-17 -90 -94 -180 -261 -180c-97 0 -154 32 -154 32c1 8 8 21 15 25c27 -9 71 -26 143 -26c145 0 207 69 225 155c30 140 -72 166 -158 166h-45s-2 4 0 15s6 15 6 15h45c76 0 179 19 207 150c18 84 -26 139 -136 139c-83 0 -150 -26 -150 -26c-7 4 -10 18 -7 27
c0 0 74 28 167 28c130 0 178 -79 158 -171c-17 -82 -59 -137 -149 -164c90 -27 111 -95 94 -185z" />
    <glyph glyph-name="three.denom" horiz-adv-x="304" 
d="M213 92c-12 -52 -49 -97 -151 -97c-49 0 -82 13 -82 13c0 7 4 14 9 18c0 0 33 -10 76 -10c92 0 115 38 124 76c11 55 -23 77 -73 77h-43c-2 6 0 16 5 22h43c50 0 82 26 91 68c9 44 -16 67 -70 67c-47 0 -83 -9 -83 -9c-3 5 -3 12 -1 19c0 0 38 12 89 12
c72 0 101 -32 89 -88c-8 -39 -27 -63 -65 -79c33 -14 53 -35 42 -89z" />
    <glyph glyph-name="three.num" horiz-adv-x="305" 
d="M287 438c-11 -52 -49 -97 -151 -97c-49 0 -82 13 -82 13c1 7 4 14 10 18c0 0 33 -10 76 -10c92 0 115 38 123 76c12 55 -23 77 -73 77h-43c-1 6 1 16 5 22h43c50 0 83 26 92 68c9 44 -16 67 -70 67c-47 0 -83 -9 -83 -9c-3 5 -4 12 -1 19c0 0 37 12 88 12
c72 0 102 -32 90 -88c-9 -39 -28 -63 -65 -79c33 -14 53 -35 41 -89z" />
    <glyph glyph-name="threeeighths" unicode="&#x215c;" horiz-adv-x="742" 
d="M583 348c65 0 98 -29 86 -82c-9 -46 -43 -75 -79 -93c35 -18 63 -41 53 -88c-12 -56 -62 -90 -134 -90c-68 0 -111 30 -98 90c11 53 54 85 92 104c-29 17 -50 39 -41 79c10 47 51 80 121 80zM95 -8l540 707s4 3 13 3s12 -3 12 -3l-539 -707s-4 -2 -13 -2s-13 2 -13 2z
M298 438c-11 -52 -49 -97 -151 -97c-49 0 -82 13 -82 13c1 7 4 14 10 18c0 0 33 -10 76 -10c92 0 115 38 123 76c12 55 -23 77 -73 77h-43c-1 6 1 16 5 22h43c50 0 83 26 92 68c9 44 -16 67 -70 67c-47 0 -83 -9 -83 -9c-3 5 -4 12 -1 19c0 0 37 12 88 12
c72 0 102 -32 90 -88c-9 -39 -28 -63 -65 -79c33 -14 53 -35 41 -89zM514 16c50 0 95 22 105 67c12 56 -48 72 -97 96c-25 -12 -76 -42 -87 -93c-10 -49 20 -70 79 -70zM577 327c-50 0 -83 -22 -91 -57c-10 -51 38 -67 85 -88c37 21 67 47 74 83c9 40 -16 62 -68 62z" />
    <glyph glyph-name="threeinferior" unicode="&#x2083;" horiz-adv-x="304" 
d="M192 -4c-11 -52 -49 -97 -151 -97c-49 0 -82 13 -82 13c1 7 4 14 10 18c0 0 33 -10 76 -10c92 0 115 38 123 76c12 55 -23 77 -73 77h-43c-1 6 1 16 5 22h43c50 0 83 26 92 68c9 44 -16 67 -70 67c-47 0 -83 -9 -83 -9c-3 5 -4 12 -1 19c0 0 38 12 89 12
c72 0 101 -32 89 -88c-8 -39 -28 -63 -65 -79c33 -14 53 -35 41 -89z" />
    <glyph glyph-name="threequarters" unicode="&#xbe;" horiz-adv-x="691" 
d="M100 -8l540 707s4 3 13 3s12 -3 12 -3l-539 -707s-4 -2 -13 -2s-13 2 -13 2zM298 438c-11 -52 -49 -97 -151 -97c-49 0 -82 13 -82 13c1 7 4 14 10 18c0 0 33 -10 76 -10c92 0 115 38 123 76c12 55 -23 77 -73 77h-43c-1 6 1 16 5 22h43c50 0 83 26 92 68
c9 44 -16 67 -70 67c-47 0 -83 -9 -83 -9c-3 5 -4 12 -1 19c0 0 37 12 88 12c72 0 102 -32 90 -88c-9 -39 -28 -63 -65 -79c33 -14 53 -35 41 -89zM558 120h43s2 -4 0 -11c-2 -8 -4 -12 -4 -12h-43l-21 -95s-3 -2 -11 -2s-12 2 -12 2l21 95h-184s-2 2 -1 7s4 8 4 8l231 229
s4 2 13 2c8 0 11 -2 11 -2zM385 120h150l40 187z" />
    <glyph glyph-name="threesuperior" unicode="&#xb3;" horiz-adv-x="305" 
d="M287 438c-11 -52 -49 -97 -151 -97c-49 0 -82 13 -82 13c1 7 4 14 10 18c0 0 33 -10 76 -10c92 0 115 38 123 76c12 55 -23 77 -73 77h-43c-1 6 1 16 5 22h43c50 0 83 26 92 68c9 44 -16 67 -70 67c-47 0 -83 -9 -83 -9c-3 5 -4 12 -1 19c0 0 37 12 88 12
c72 0 102 -32 90 -88c-9 -39 -28 -63 -65 -79c33 -14 53 -35 41 -89z" />
    <glyph glyph-name="tilde" unicode="&#x2dc;" horiz-adv-x="327" 
d="M216 646c28 0 45 29 45 29c11 1 20 -2 24 -11c0 0 -29 -47 -80 -47c-48 0 -61 36 -99 36c-28 0 -46 -30 -46 -30c-11 -1 -21 4 -23 11c0 0 29 48 80 48c48 0 61 -36 99 -36z" />
    <glyph glyph-name="trademark" unicode="&#x2122;" horiz-adv-x="628" 
d="M128 720h203c3 -6 1 -14 -4 -21h-90l-57 -264s-3 -3 -11 -3c-7 0 -10 3 -10 3l57 264h-92c-2 7 -1 15 4 21zM544 435l54 251l-128 -174s-4 -3 -12 -3s-10 3 -10 3l-50 174l-54 -251s-3 -3 -9 -3s-9 3 -9 3l60 282s4 3 13 3s11 -3 11 -3l54 -185l135 185s4 3 13 3
s11 -3 11 -3l-60 -282s-3 -3 -9 -3c-7 0 -10 3 -10 3z" />
    <glyph glyph-name="two" unicode="2" horiz-adv-x="523" 
d="M165 628c-6 6 -8 18 -4 30c0 0 79 32 190 32c106 0 179 -51 153 -175c-24 -112 -102 -154 -236 -226c-81 -44 -196 -85 -224 -216c-5 -25 -6 -41 -6 -41h353s2 -4 -1 -16c-2 -12 -6 -16 -6 -16h-382s1 32 8 67c33 156 142 193 247 251c107 60 193 97 215 202
c13 61 6 140 -134 140c-88 0 -173 -32 -173 -32z" />
    <glyph glyph-name="two.denom" horiz-adv-x="301" 
d="M-17 41c29 136 216 108 238 215c8 35 -4 70 -75 70c-38 0 -77 -10 -77 -10c-3 6 -3 13 -1 20c0 0 36 12 86 12c83 0 102 -40 92 -90c-29 -134 -231 -96 -243 -235h191c1 -3 1 -8 0 -12s-2 -8 -5 -11h-211s0 18 5 41z" />
    <glyph glyph-name="two.num" horiz-adv-x="301" 
d="M57 387c29 136 216 108 239 215c7 35 -4 70 -75 70c-38 0 -77 -10 -77 -10c-3 6 -4 13 -1 20c0 0 35 12 85 12c83 0 103 -40 92 -90c-28 -134 -230 -96 -243 -235h191c2 -3 2 -8 1 -12s-3 -8 -5 -11h-211s-1 18 4 41z" />
    <glyph glyph-name="twoinferior" unicode="&#x2082;" horiz-adv-x="301" 
d="M-37 -55c29 136 216 108 239 215c7 35 -4 70 -75 70c-38 0 -77 -10 -77 -10c-3 6 -4 13 -1 20c0 0 36 12 86 12c83 0 102 -40 91 -90c-28 -134 -230 -96 -243 -235h191c2 -3 2 -8 1 -12s-3 -8 -5 -11h-211s-1 18 4 41z" />
    <glyph glyph-name="twosuperior" unicode="&#xb2;" horiz-adv-x="301" 
d="M57 387c29 136 216 108 239 215c7 35 -4 70 -75 70c-38 0 -77 -10 -77 -10c-3 6 -4 13 -1 20c0 0 35 12 85 12c83 0 103 -40 92 -90c-28 -134 -230 -96 -243 -235h191c2 -3 2 -8 1 -12s-3 -8 -5 -11h-211s-1 18 4 41z" />
    <glyph glyph-name="twothirds" unicode="&#x2154;" horiz-adv-x="761" 
d="M114 -8l540 707s4 3 13 3s12 -3 12 -3l-539 -707s-4 -2 -13 -2s-13 2 -13 2zM664 92c-12 -52 -49 -97 -151 -97c-49 0 -82 13 -82 13c0 7 4 14 9 18c0 0 33 -10 76 -10c92 0 115 38 124 76c11 55 -23 77 -73 77h-43c-2 6 0 16 5 22h43c50 0 82 26 91 68
c9 44 -16 67 -70 67c-47 0 -83 -9 -83 -9c-3 5 -3 12 -1 19c0 0 38 12 89 12c72 0 101 -32 89 -88c-8 -39 -27 -63 -65 -79c33 -14 53 -35 42 -89zM70 387c29 136 216 108 239 215c7 35 -4 70 -75 70c-38 0 -77 -10 -77 -10c-3 6 -4 13 -1 20c0 0 35 12 85 12
c83 0 103 -40 92 -90c-28 -134 -230 -96 -243 -235h191c2 -3 2 -8 1 -12s-3 -8 -5 -11h-211s-1 18 4 41z" />
    <glyph glyph-name="u" unicode="u" horiz-adv-x="551" 
d="M53 143l82 380s6 3 17 3s15 -3 15 -3l-80 -377c-19 -88 17 -128 101 -128c69 0 153 49 206 132l79 373s6 3 17 3s15 -3 15 -3l-110 -520s-6 -3 -17 -3s-15 3 -15 3l18 88c-55 -62 -119 -101 -200 -101c-94 0 -149 57 -128 153z" />
    <glyph glyph-name="uacute" unicode="&#xfa;" horiz-adv-x="551" 
d="M452 757l-156 -147c-12 1 -19 6 -21 14l148 150c14 0 24 -6 29 -17zM53 143l82 380s6 3 17 3s15 -3 15 -3l-80 -377c-19 -88 17 -128 101 -128c69 0 153 49 206 132l79 373s6 3 17 3s15 -3 15 -3l-110 -520s-6 -3 -17 -3s-15 3 -15 3l18 88c-55 -62 -119 -101 -200 -101
c-94 0 -149 57 -128 153z" />
    <glyph glyph-name="ubreve" unicode="&#x16d;" horiz-adv-x="551" 
d="M486 688c0 0 -51 -52 -137 -52s-123 52 -123 52c5 10 10 15 22 19c0 0 36 -43 103 -43s121 43 121 43c12 -3 15 -8 14 -19zM53 143l82 380s6 3 17 3s15 -3 15 -3l-80 -377c-19 -88 17 -128 101 -128c69 0 153 49 206 132l79 373s6 3 17 3s15 -3 15 -3l-110 -520
s-6 -3 -17 -3s-15 3 -15 3l18 88c-55 -62 -119 -101 -200 -101c-94 0 -149 57 -128 153z" />
    <glyph glyph-name="ucircumflex" unicode="&#xfb;" horiz-adv-x="551" 
d="M349 721h25l100 -99c-4 -9 -10 -17 -20 -19l-96 88l-139 -89c-9 4 -12 10 -12 20zM53 143l82 380s6 3 17 3s15 -3 15 -3l-80 -377c-19 -88 17 -128 101 -128c69 0 153 49 206 132l79 373s6 3 17 3s15 -3 15 -3l-110 -520s-6 -3 -17 -3s-15 3 -15 3l18 88
c-55 -62 -119 -101 -200 -101c-94 0 -149 57 -128 153z" />
    <glyph glyph-name="udieresis" unicode="&#xfc;" horiz-adv-x="551" 
d="M298 677l-8 -42s-9 -3 -25 -3s-23 3 -23 3l8 42s9 3 25 3s23 -3 23 -3zM439 677l-8 -42s-9 -3 -25 -3s-23 3 -23 3l8 42s9 3 25 3s23 -3 23 -3zM53 143l82 380s6 3 17 3s15 -3 15 -3l-80 -377c-19 -88 17 -128 101 -128c69 0 153 49 206 132l79 373s6 3 17 3s15 -3 15 -3
l-110 -520s-6 -3 -17 -3s-15 3 -15 3l18 88c-55 -62 -119 -101 -200 -101c-94 0 -149 57 -128 153z" />
    <glyph glyph-name="ugrave" unicode="&#xf9;" horiz-adv-x="551" 
d="M360 617l-86 134c7 9 20 16 32 16l79 -137c-6 -7 -14 -12 -25 -13zM53 143l82 380s6 3 17 3s15 -3 15 -3l-80 -377c-19 -88 17 -128 101 -128c69 0 153 49 206 132l79 373s6 3 17 3s15 -3 15 -3l-110 -520s-6 -3 -17 -3s-15 3 -15 3l18 88c-55 -62 -119 -101 -200 -101
c-94 0 -149 57 -128 153z" />
    <glyph glyph-name="uhungarumlaut" unicode="&#x171;" horiz-adv-x="551" 
d="M375 724l-141 -131c-10 1 -16 6 -19 13l129 133c14 0 24 -5 31 -15zM509 724l-140 -131c-10 1 -17 6 -20 13l129 133c14 0 24 -5 31 -15zM53 143l82 380s6 3 17 3s15 -3 15 -3l-80 -377c-19 -88 17 -128 101 -128c69 0 153 49 206 132l79 373s6 3 17 3s15 -3 15 -3
l-110 -520s-6 -3 -17 -3s-15 3 -15 3l18 88c-55 -62 -119 -101 -200 -101c-94 0 -149 57 -128 153z" />
    <glyph glyph-name="umacron" unicode="&#x16b;" horiz-adv-x="551" 
d="M447 643h-211c-1 4 -1 9 0 14c1 6 3 10 6 14h211c1 -3 2 -7 0 -13c-1 -6 -3 -11 -6 -15zM53 143l82 380s6 3 17 3s15 -3 15 -3l-80 -377c-19 -88 17 -128 101 -128c69 0 153 49 206 132l79 373s6 3 17 3s15 -3 15 -3l-110 -520s-6 -3 -17 -3s-15 3 -15 3l18 88
c-55 -62 -119 -101 -200 -101c-94 0 -149 57 -128 153z" />
    <glyph glyph-name="underscore" unicode="_" horiz-adv-x="512" 
d="M385 -48h-400s-3 3 0 14c2 11 6 14 6 14h400s2 -3 0 -14c-3 -11 -6 -14 -6 -14z" />
    <glyph glyph-name="uni00AD" unicode="&#xad;" horiz-adv-x="274" 
 />
    <glyph glyph-name="Remove1" horiz-adv-x="537" 
 />
    <glyph glyph-name="Remove2" horiz-adv-x="398" 
 />
    <glyph glyph-name="uni2117" unicode="&#x2117;" horiz-adv-x="807" 
d="M428 266h-106l-26 -125c-4 -2 -11 -3 -16 -3s-9 1 -13 3l81 382h135c79 0 119 -52 103 -128c-17 -78 -79 -129 -158 -129zM371 496l-43 -203h103c61 0 109 34 124 102c14 66 -20 101 -81 101h-103zM340 5c-185 0 -303 150 -264 335c40 185 221 334 406 334
s303 -149 263 -334c-39 -185 -220 -335 -405 -335zM476 646c-169 0 -336 -137 -372 -306s73 -307 242 -307s335 138 371 307s-72 306 -241 306z" />
    <glyph glyph-name="uni2196" unicode="&#x2196;" horiz-adv-x="508" 
d="M69 244l61 286h286c1 -4 1 -9 0 -14s-3 -10 -6 -14h-237l253 -321s-4 -5 -12 -12c-9 -7 -14 -10 -14 -10l-253 322l-50 -237c-5 -2 -10 -3 -15 -3s-10 1 -13 3z" />
    <glyph glyph-name="uni2197" unicode="&#x2197;" horiz-adv-x="511" 
d="M474 530l-61 -286c-5 -2 -10 -3 -15 -3s-10 1 -13 3l50 237l-389 -322s-5 3 -10 10c-6 7 -8 12 -8 12l391 321h-237c-1 4 -1 9 0 14s3 10 6 14h286z" />
    <glyph glyph-name="uni2198" unicode="&#x2198;" horiz-adv-x="502" 
d="M442 432l-61 -286h-286c-1 4 -1 9 0 14s3 10 6 14h237l-254 321s4 5 13 12c8 7 14 10 14 10l252 -322l51 237c4 2 9 3 14 3s10 -1 14 -3z" />
    <glyph glyph-name="uni2199" unicode="&#x2199;" horiz-adv-x="507" 
d="M52 147l61 286c4 2 10 3 15 3s9 -1 13 -3l-50 -237l389 322s7 -1 12 -8c6 -7 5 -14 5 -14l-390 -321h237c1 -4 1 -9 0 -14s-3 -10 -6 -14h-286z" />
    <glyph glyph-name="uni2215" unicode="&#x2215;" horiz-adv-x="467" 
d="M-45 -6l538 705s6 3 18 3c11 0 17 -3 17 -3l-539 -705s-7 -4 -19 -4s-15 4 -15 4z" />
    <glyph glyph-name="uni2219" unicode="&#x2219;" horiz-adv-x="219" 
d="M109 312c-12 0 -22 8 -19 24c4 16 17 24 29 24s23 -8 19 -24c-3 -16 -17 -24 -29 -24z" />
    <glyph glyph-name="uogonek" unicode="&#x173;" horiz-adv-x="551" 
d="M505 523l-111 -524c-51 -9 -103 -43 -115 -94c-8 -32 10 -49 43 -49c25 0 44 10 44 10c5 -5 7 -13 5 -22c0 0 -25 -16 -61 -16c-53 0 -75 31 -65 73c13 54 62 95 122 112l15 78c-55 -62 -120 -101 -201 -101c-94 0 -149 57 -128 153l82 380s6 3 17 3s15 -3 15 -3
l-80 -377c-19 -88 17 -128 101 -128c69 0 153 49 206 132l79 373s6 3 17 3s15 -3 15 -3z" />
    <glyph glyph-name="uring" unicode="&#x16f;" horiz-adv-x="551" 
d="M367 794c53 0 101 -33 88 -98c-11 -64 -68 -100 -126 -100c-59 0 -97 36 -85 100c11 64 69 98 123 98zM274 696c-9 -37 6 -73 57 -73c52 0 86 37 94 73c9 37 -8 71 -60 71c-51 0 -83 -35 -91 -71zM53 143l82 380s6 3 17 3s15 -3 15 -3l-80 -377c-19 -88 17 -128 101 -128
c69 0 153 49 206 132l79 373s6 3 17 3s15 -3 15 -3l-110 -520s-6 -3 -17 -3s-15 3 -15 3l18 88c-55 -62 -119 -101 -200 -101c-94 0 -149 57 -128 153z" />
    <glyph glyph-name="utilde" unicode="&#x169;" horiz-adv-x="551" 
d="M405 650c28 0 45 29 45 29c10 1 20 -2 24 -11c0 0 -21 -47 -72 -47c-48 0 -70 36 -108 36c-28 0 -45 -30 -45 -30c-11 -1 -21 4 -24 11c0 0 20 48 71 48c48 0 71 -36 109 -36zM53 143l82 380s6 3 17 3s15 -3 15 -3l-80 -377c-19 -88 17 -128 101 -128
c69 0 153 49 206 132l79 373s6 3 17 3s15 -3 15 -3l-110 -520s-6 -3 -17 -3s-15 3 -15 3l18 88c-55 -62 -119 -101 -200 -101c-94 0 -149 57 -128 153z" />
    <glyph glyph-name="v" unicode="v" horiz-adv-x="494" 
d="M109 523l69 -380c10 -54 12 -96 12 -96h2s19 39 52 94l229 382s5 3 19 3c11 0 16 -3 16 -3l-311 -520s-5 -3 -14 -3s-12 3 -12 3l-95 520s6 3 19 3c10 0 14 -3 14 -3z" />
    <glyph glyph-name="w" unicode="w" horiz-adv-x="789" 
d="M492 3l-47 357c-12 91 -9 119 -9 119h-3s-13 -28 -64 -119l-200 -357s-5 -3 -14 -3s-12 3 -12 3l-63 520s6 3 18 3s16 -3 16 -3l45 -395c6 -51 3 -79 3 -79h3s12 30 39 79l222 395s5 3 16 3c12 0 15 -3 15 -3l51 -393c7 -51 2 -81 2 -81h3s11 28 40 81l213 393s6 3 19 3
c12 0 15 -3 15 -3l-282 -520s-5 -3 -14 -3s-12 3 -12 3z" />
    <glyph glyph-name="wacute" unicode="&#x1e83;" horiz-adv-x="789" 
d="M563 757l-156 -147c-12 1 -19 6 -21 14l148 150c14 0 24 -6 29 -17zM492 3l-47 357c-12 91 -9 119 -9 119h-3s-13 -28 -64 -119l-200 -357s-5 -3 -14 -3s-12 3 -12 3l-63 520s6 3 18 3s16 -3 16 -3l45 -395c6 -51 3 -79 3 -79h3s12 30 39 79l222 395s5 3 16 3
c12 0 15 -3 15 -3l51 -393c7 -51 2 -81 2 -81h3s11 28 40 81l213 393s6 3 19 3c12 0 15 -3 15 -3l-282 -520s-5 -3 -14 -3s-12 3 -12 3z" />
    <glyph glyph-name="wcircumflex" unicode="&#x175;" horiz-adv-x="789" 
d="M471 721h25l100 -99c-4 -9 -10 -17 -20 -19l-97 88l-138 -89c-9 4 -12 10 -12 20zM492 3l-47 357c-12 91 -9 119 -9 119h-3s-13 -28 -64 -119l-200 -357s-5 -3 -14 -3s-12 3 -12 3l-63 520s6 3 18 3s16 -3 16 -3l45 -395c6 -51 3 -79 3 -79h3s12 30 39 79l222 395
s5 3 16 3c12 0 15 -3 15 -3l51 -393c7 -51 2 -81 2 -81h3s11 28 40 81l213 393s6 3 19 3c12 0 15 -3 15 -3l-282 -520s-5 -3 -14 -3s-12 3 -12 3z" />
    <glyph glyph-name="wdieresis" unicode="&#x1e85;" horiz-adv-x="789" 
d="M421 677l-8 -42s-9 -3 -25 -3s-23 3 -23 3l8 42s9 3 25 3s23 -3 23 -3zM562 677l-8 -42s-9 -3 -25 -3s-23 3 -23 3l8 42s9 3 25 3s23 -3 23 -3zM492 3l-47 357c-12 91 -9 119 -9 119h-3s-13 -28 -64 -119l-200 -357s-5 -3 -14 -3s-12 3 -12 3l-63 520s6 3 18 3
s16 -3 16 -3l45 -395c6 -51 3 -79 3 -79h3s12 30 39 79l222 395s5 3 16 3c12 0 15 -3 15 -3l51 -393c7 -51 2 -81 2 -81h3s11 28 40 81l213 393s6 3 19 3c12 0 15 -3 15 -3l-282 -520s-5 -3 -14 -3s-12 3 -12 3z" />
    <glyph glyph-name="wgrave" unicode="&#x1e81;" horiz-adv-x="789" 
d="M471 616l-100 134c7 9 20 18 33 19l92 -138c-5 -8 -13 -14 -25 -15zM492 3l-47 357c-12 91 -9 119 -9 119h-3s-13 -28 -64 -119l-200 -357s-5 -3 -14 -3s-12 3 -12 3l-63 520s6 3 18 3s16 -3 16 -3l45 -395c6 -51 3 -79 3 -79h3s12 30 39 79l222 395s5 3 16 3
c12 0 15 -3 15 -3l51 -393c7 -51 2 -81 2 -81h3s11 28 40 81l213 393s6 3 19 3c12 0 15 -3 15 -3l-282 -520s-5 -3 -14 -3s-12 3 -12 3z" />
    <glyph glyph-name="x" unicode="x" horiz-adv-x="483" 
d="M-31 3l243 265l-129 255s6 3 20 3c9 0 15 -3 15 -3l119 -233l213 233s4 3 24 3c13 0 18 -3 18 -3l-239 -259l133 -261s-6 -3 -20 -3c-10 0 -15 3 -15 3l-122 239l-218 -239s-5 -3 -26 -3c-12 0 -16 3 -16 3z" />
    <glyph glyph-name="y" unicode="y" horiz-adv-x="549" 
d="M472 523c0 0 6 3 17 3s15 -3 15 -3l-111 -520c-39 -166 -112 -253 -265 -253c-79 0 -121 24 -121 24c1 11 6 21 17 27c0 0 47 -19 111 -19c110 0 190 47 227 222l18 87c-55 -62 -122 -101 -203 -101c-94 0 -144 58 -125 148l82 385s6 3 17 3s15 -3 15 -3l-80 -377
c-19 -88 18 -127 102 -127c69 0 152 48 205 131z" />
    <glyph glyph-name="yacute" unicode="&#xfd;" horiz-adv-x="549" 
d="M466 747l-157 -147c-11 1 -18 6 -21 14l149 150c14 0 24 -6 29 -17zM472 523c0 0 6 3 17 3s15 -3 15 -3l-111 -520c-39 -166 -112 -253 -265 -253c-79 0 -121 24 -121 24c1 11 6 21 17 27c0 0 47 -19 111 -19c110 0 190 47 227 222l18 87c-55 -62 -122 -101 -203 -101
c-94 0 -144 58 -125 148l82 385s6 3 17 3s15 -3 15 -3l-80 -377c-19 -88 18 -127 102 -127c69 0 152 48 205 131z" />
    <glyph glyph-name="ycircumflex" unicode="&#x177;" horiz-adv-x="549" 
d="M355 725h25l100 -99c-4 -9 -11 -17 -20 -19l-96 88l-135 -89c-9 4 -16 10 -16 20zM472 523c0 0 6 3 17 3s15 -3 15 -3l-111 -520c-39 -166 -112 -253 -265 -253c-79 0 -121 24 -121 24c1 11 6 21 17 27c0 0 47 -19 111 -19c110 0 190 47 227 222l18 87
c-55 -62 -122 -101 -203 -101c-94 0 -144 58 -125 148l82 385s6 3 17 3s15 -3 15 -3l-80 -377c-19 -88 18 -127 102 -127c69 0 152 48 205 131z" />
    <glyph glyph-name="ydieresis" unicode="&#xff;" horiz-adv-x="549" 
d="M308 686l-9 -42s-9 -3 -25 -3s-23 3 -23 3l9 42s8 3 24 3s24 -3 24 -3zM449 686l-9 -42s-9 -3 -25 -3s-23 3 -23 3l9 42s8 3 24 3s24 -3 24 -3zM472 523c0 0 6 3 17 3s15 -3 15 -3l-111 -520c-39 -166 -112 -253 -265 -253c-79 0 -121 24 -121 24c1 11 6 21 17 27
c0 0 47 -19 111 -19c110 0 190 47 227 222l18 87c-55 -62 -122 -101 -203 -101c-94 0 -144 58 -125 148l82 385s6 3 17 3s15 -3 15 -3l-80 -377c-19 -88 18 -127 102 -127c69 0 152 48 205 131z" />
    <glyph glyph-name="yen" unicode="&#xa5;" horiz-adv-x="602" 
d="M641 681l-323 -382h164s1 -5 0 -14c-2 -9 -6 -14 -6 -14h-174l-18 -82h174s2 -5 0 -14s-6 -14 -6 -14h-174l-33 -158s-4 -3 -17 -3s-15 3 -15 3l33 158h-174s-2 5 0 14s6 14 6 14h174l18 82h-174s-2 5 0 14c1 9 6 14 6 14h164l-149 382s5 3 17 3c14 0 19 -3 19 -3
l142 -366l310 366s5 3 18 3s18 -3 18 -3z" />
    <glyph glyph-name="ygrave" unicode="&#x1ef3;" horiz-adv-x="549" 
d="M368 599l-100 134c7 9 21 18 34 19l91 -138c-5 -8 -13 -14 -25 -15zM472 523c0 0 6 3 17 3s15 -3 15 -3l-111 -520c-39 -166 -112 -253 -265 -253c-79 0 -121 24 -121 24c1 11 6 21 17 27c0 0 47 -19 111 -19c110 0 190 47 227 222l18 84c-55 -62 -122 -98 -203 -98
c-94 0 -144 58 -125 148l82 385s6 3 17 3s15 -3 15 -3l-80 -377c-19 -88 18 -127 102 -127c69 0 152 48 205 131z" />
    <glyph glyph-name="z" unicode="z" horiz-adv-x="444" 
d="M430 496l-407 -466h312s3 -3 0 -15c-2 -12 -6 -15 -6 -15h-349s-2 3 0 15c3 12 6 15 6 15l408 468h-284s-2 3 1 13c4 12 6 15 6 15h320s2 -4 0 -15c-3 -11 -7 -15 -7 -15z" />
    <glyph glyph-name="zacute" unicode="&#x17a;" horiz-adv-x="444" 
d="M430 496l-407 -466h312s3 -3 0 -15c-2 -12 -6 -15 -6 -15h-349s-2 3 0 15c3 12 6 15 6 15l408 468h-284s-2 3 1 13c4 12 6 15 6 15h320s2 -4 0 -15c-3 -11 -7 -15 -7 -15zM430 757l-156 -147c-12 1 -19 6 -21 14l148 150c14 0 24 -6 29 -17z" />
    <glyph glyph-name="zcaron" unicode="&#x17e;" horiz-adv-x="444" 
d="M430 496l-407 -466h312s3 -3 0 -15c-2 -12 -6 -15 -6 -15h-349s-2 3 0 15c3 12 6 15 6 15l408 468h-284s-2 3 1 13c4 12 6 15 6 15h320s2 -4 0 -15c-3 -11 -7 -15 -7 -15zM307 602h-23l-93 91c4 10 10 16 19 19l89 -82l124 82c8 -1 14 -10 14 -19z" />
    <glyph glyph-name="zdotaccent" unicode="&#x17c;" horiz-adv-x="444" 
d="M430 496l-407 -466h312s3 -3 0 -15c-2 -12 -6 -15 -6 -15h-349s-2 3 0 15c3 12 6 15 6 15l408 468h-284s-2 3 1 13c4 12 6 15 6 15h320s2 -4 0 -15c-3 -11 -7 -15 -7 -15zM334 680l-9 -42s-8 -3 -24 -3s-24 3 -24 3l9 42s9 3 25 3s23 -3 23 -3z" />
    <glyph glyph-name="zero" unicode="0" horiz-adv-x="620" 
d="M384 660c-135 0 -220 -98 -267 -320c-47 -221 -4 -320 131 -320c137 0 222 99 269 320c47 222 4 320 -133 320zM248 -10c-152 0 -215 101 -166 350c49 246 151 350 303 350s216 -101 167 -350s-152 -350 -304 -350z" />
    <glyph glyph-name="zero.denom" horiz-adv-x="346" 
d="M105 -5c-86 0 -113 55 -87 177c25 120 76 176 162 176c85 0 114 -54 89 -176c-26 -122 -79 -177 -164 -177zM175 326c-73 0 -111 -48 -133 -154c-23 -108 -5 -155 68 -155c72 0 112 47 135 155c22 106 2 154 -70 154z" />
    <glyph glyph-name="zero.num" horiz-adv-x="345" 
d="M178 341c-86 0 -113 55 -87 177c26 120 76 176 162 176c85 0 115 -54 89 -176s-79 -177 -164 -177zM249 672c-73 0 -111 -48 -134 -154c-23 -108 -5 -155 68 -155c72 0 112 47 135 155c23 106 3 154 -69 154z" />
    <glyph glyph-name="zeroinferior" unicode="&#x2080;" horiz-adv-x="345" 
d="M84 -101c-86 0 -113 55 -87 177c26 120 77 176 163 176c85 0 114 -54 88 -176s-79 -177 -164 -177zM155 230c-73 0 -111 -48 -134 -154c-23 -108 -5 -155 68 -155c72 0 112 47 135 155c23 106 3 154 -69 154z" />
    </font>
</defs>
</svg>
