<?xml version="1.0" standalone="no"?>
<!DOCTYPE svg PUBLIC "-//W3C//DTD SVG 1.1//EN" "http://www.w3.org/Graphics/SVG/1.1/DTD/svg11.dtd" >
<svg xmlns="http://www.w3.org/2000/svg" xmlns:xlink="http://www.w3.org/1999/xlink" version="1.1">
<metadata>
Created by FontForge 20141024 at Tue Jun 30 10:05:59 2015
 By Jimmy Warting
Copyright \(c\) 2014 by Fontfabric LLC. All rights reserved.
</metadata>
<defs>
<font id="GloberThinItalic" horiz-adv-x="555" >
  <font-face 
    font-family="Glober Thin Italic"
    font-weight="250"
    font-style="italic"
    font-stretch="normal"
    units-per-em="1000"
    panose-1="0 0 0 0 0 0 0 0 0 0"
    ascent="750"
    descent="-250"
    x-height="524"
    cap-height="720"
    bbox="-212 -267 983 1006"
    underline-thickness="50"
    underline-position="-50"
    stemh="15"
    stemv="15"
    unicode-range="U+0020-FB02"
  />
<missing-glyph horiz-adv-x="618" 
d="M422 0h-538l153 720h538zM405 513c12 57 -6 120 -111 120c-71 0 -126 -24 -126 -24c0 -3 0 -8 3 -10c0 0 49 20 120 20c96 0 112 -54 101 -107c-33 -153 -182 -128 -223 -318c0 0 2 -2 6 -2s6 2 6 2c38 179 190 158 224 319zM170 105c0 0 -4 1 -13 1s-13 -1 -13 -1
l-5 -23s4 -1 13 -1s13 1 13 1z" />
    <glyph glyph-name="fi" unicode="fi" horiz-adv-x="549" 
d="M173 590c22 104 73 160 208 160c80 0 151 -26 151 -26c0 -5 -4 -11 -8 -13c0 0 -66 25 -144 25c-131 0 -172 -49 -192 -145l-14 -65h321l-112 -524s-1 -2 -8 -2c-5 0 -6 2 -6 2l109 510h-307l-109 -510s-1 -2 -7 -2s-7 2 -7 2l109 510h-64c-2 4 -1 9 3 14h64z" />
    <glyph glyph-name="fl" unicode="fl" horiz-adv-x="550" 
d="M173 586c20 96 67 164 193 164c95 0 169 -34 169 -34l-152 -714c-5 -3 -9 -3 -14 0l150 704c-28 11 -81 30 -151 30c-121 0 -161 -55 -180 -145l-14 -65h144c1 -5 0 -9 -3 -14h-144l-109 -510s-1 -2 -7 -2s-7 2 -7 2l109 510h-64c-1 5 0 9 3 14h64z" />
    <glyph glyph-name=".notdef" horiz-adv-x="618" 
d="M422 0h-538l153 720h538zM405 513c12 57 -6 120 -111 120c-71 0 -126 -24 -126 -24c0 -3 0 -8 3 -10c0 0 49 20 120 20c96 0 112 -54 101 -107c-33 -153 -182 -128 -223 -318c0 0 2 -2 6 -2s6 2 6 2c38 179 190 158 224 319zM170 105c0 0 -4 1 -13 1s-13 -1 -13 -1
l-5 -23s4 -1 13 -1s13 1 13 1z" />
    <glyph glyph-name="A" unicode="A" horiz-adv-x="631" 
d="M406 723l138 -722s-3 -2 -8 -2c-4 0 -7 2 -7 2l-44 227h-371l-139 -227c-5 -2 -13 -3 -18 0l445 722c1 1 3 1 4 0zM124 243h358l-84 446z" />
    <glyph glyph-name="AE" unicode="&#xc6;" horiz-adv-x="838" 
d="M412 15h312c1 -4 0 -10 -3 -15h-327l45 212h-294l-171 -211c-3 -2 -9 -2 -11 -2c-3 0 -8 1 -9 2l586 719h324c1 -4 0 -10 -3 -15h-302l-71 -334h252c1 -5 0 -10 -3 -15h-252zM157 227h285l102 476z" />
    <glyph glyph-name="AEacute" unicode="&#x1fc;" horiz-adv-x="838" 
d="M412 15h312c1 -4 0 -10 -3 -15h-327l45 212h-294l-172 -211c-3 -2 -8 -2 -10 -2c-3 0 -8 1 -9 2l586 719h324c1 -4 0 -10 -3 -15h-302l-71 -334h252c1 -5 0 -10 -3 -15h-252zM157 227h285l102 476zM605 770l157 146c5 -1 7 -5 9 -10l-158 -144c-5 1 -7 4 -8 8z" />
    <glyph glyph-name="Aacute" unicode="&#xc1;" horiz-adv-x="631" 
d="M406 723l138 -722s-3 -2 -8 -2c-4 0 -7 2 -7 2l-44 227h-371l-139 -227c-5 -2 -13 -3 -18 0l445 722c1 1 3 1 4 0zM124 243h358l-84 446zM379 769l156 152c6 -1 9 -4 11 -9l-157 -152c-5 1 -9 5 -10 9z" />
    <glyph glyph-name="Abreve" unicode="&#x102;" horiz-adv-x="631" 
d="M406 723l138 -722s-3 -2 -8 -2c-4 0 -7 2 -7 2l-44 227h-371l-139 -227c-5 -2 -13 -3 -18 0l445 722c1 1 3 1 4 0zM124 243h358l-84 446zM421 803c67 0 113 35 127 48c5 -3 6 -5 7 -10c0 0 -53 -52 -135 -52s-113 52 -113 52c3 5 5 7 10 8c8 -10 35 -46 104 -46z" />
    <glyph glyph-name="Acircumflex" unicode="&#xc2;" horiz-adv-x="631" 
d="M406 723l138 -722s-3 -2 -8 -2c-4 0 -7 2 -7 2l-44 227h-371l-139 -227c-5 -2 -13 -3 -18 0l445 722c1 1 3 1 4 0zM124 243h358l-84 446zM295 769c-5 1 -8 6 -8 10l148 101h13l104 -101c-2 -5 -4 -7 -10 -9l-101 97z" />
    <glyph glyph-name="Adieresis" unicode="&#xc4;" horiz-adv-x="631" 
d="M367 811l-4 -20s-6 -4 -15 -4c-8 0 -13 4 -13 4l4 20s7 4 15 4c9 0 13 -4 13 -4zM501 811l-4 -20s-6 -4 -15 -4c-8 0 -13 4 -13 4l4 20s7 4 15 4c9 0 13 -4 13 -4zM406 723l138 -722s-3 -2 -8 -2c-4 0 -7 2 -7 2l-44 227h-371l-139 -227c-5 -2 -13 -3 -18 0l445 722
c1 1 3 1 4 0zM124 243h358l-84 446z" />
    <glyph glyph-name="Agrave" unicode="&#xc0;" horiz-adv-x="631" 
d="M406 723l138 -722s-3 -2 -8 -2c-4 0 -7 2 -7 2l-44 227h-371l-139 -227c-5 -2 -13 -3 -18 0l445 722c1 1 3 1 4 0zM124 243h358l-84 446zM348 913c4 5 7 7 13 9l92 -152c-3 -4 -7 -6 -12 -7z" />
    <glyph glyph-name="Amacron" unicode="&#x100;" horiz-adv-x="631" 
d="M544 803h-255c-1 5 0 10 3 15h255c1 -5 0 -9 -3 -15zM406 723l138 -722s-3 -2 -8 -2c-4 0 -7 2 -7 2l-44 227h-371l-139 -227c-5 -2 -13 -3 -18 0l445 722c1 1 3 1 4 0zM124 243h358l-84 446z" />
    <glyph glyph-name="Aogonek" unicode="&#x104;" horiz-adv-x="632" 
d="M545 1l-6 -2c-56 -32 -105 -76 -115 -128c-7 -36 17 -51 53 -51c27 0 48 12 48 12c3 -3 4 -7 4 -11c0 0 -22 -15 -57 -15c-44 0 -71 27 -62 64c12 59 60 104 119 137l-43 221h-371l-139 -227c-5 -2 -13 -3 -18 0l445 722c1 1 3 1 4 0zM125 243h358l-84 446z" />
    <glyph glyph-name="Aring" unicode="&#xc5;" horiz-adv-x="632" 
d="M412 695l133 -694s-3 -2 -8 -2c-4 0 -9 2 -9 2l-43 227h-370l-139 -227s-4 -2 -10 -2c-5 0 -8 2 -8 2l427 694c-48 5 -76 42 -65 93c13 61 69 92 119 92s94 -34 80 -92c-13 -56 -57 -88 -107 -93zM435 867c-57 0 -93 -39 -101 -79c-9 -47 10 -82 67 -82
c58 0 96 42 104 82c9 41 -8 79 -70 79zM125 243h357l-84 446z" />
    <glyph glyph-name="Aringacute" unicode="&#x1fa;" horiz-adv-x="632" 
d="M411 694l134 -693s-3 -2 -8 -2c-4 0 -9 2 -9 2l-43 227h-371l-139 -227s-3 -2 -9 -2c-5 0 -8 2 -8 2l426 693c-49 5 -75 42 -64 92c13 61 65 92 119 92c56 0 92 -37 80 -92c-12 -56 -57 -87 -108 -92zM435 865c-57 0 -92 -39 -101 -79c-11 -49 16 -81 67 -81
s96 41 104 81c10 47 -18 79 -70 79zM124 243h359l-86 445zM406 918l154 88c5 -3 4 -8 5 -13l-154 -86c-5 3 -6 6 -5 11z" />
    <glyph glyph-name="Atilde" unicode="&#xc3;" horiz-adv-x="631" 
d="M406 723l138 -722s-3 -2 -8 -2c-4 0 -7 2 -7 2l-44 227h-371l-139 -227c-5 -2 -13 -3 -18 0l445 722c1 1 3 1 4 0zM124 243h358l-84 446zM478 803c31 0 47 23 53 33c5 -1 10 -3 12 -7c0 0 -21 -41 -69 -41c-44 0 -62 40 -100 40c-33 0 -50 -34 -50 -34c-6 1 -10 3 -12 7
c0 0 19 41 67 41c38 0 54 -39 99 -39z" />
    <glyph glyph-name="B" unicode="B" horiz-adv-x="627" 
d="M579 535c-27 -128 -109 -161 -168 -172c51 -3 147 -35 116 -178c-26 -127 -105 -185 -252 -185h-226l153 720h222c127 0 180 -65 155 -185zM143 370h207c117 0 190 57 214 167c23 110 -21 168 -147 168h-203zM67 15h215c146 0 208 66 230 170c24 113 -24 171 -158 171
h-214z" />
    <glyph glyph-name="C" unicode="C" horiz-adv-x="552" 
d="M90 359c55 257 159 371 333 371c109 0 159 -32 159 -32c-1 -5 -4 -9 -9 -12c0 0 -53 29 -150 29c-166 0 -266 -112 -318 -356c-52 -243 -6 -354 160 -354c105 0 139 13 178 32c5 -2 7 -8 6 -14c-39 -18 -69 -33 -185 -33c-175 0 -228 116 -174 369z" />
    <glyph glyph-name="CR" horiz-adv-x="322" 
 />
    <glyph glyph-name="Cacute" unicode="&#x106;" horiz-adv-x="552" 
d="M90 359c55 257 159 371 333 371c109 0 159 -32 159 -32c-1 -5 -4 -9 -9 -12c0 0 -53 29 -150 29c-166 0 -266 -112 -318 -356c-52 -243 -6 -354 160 -354c105 0 139 13 178 32c5 -2 7 -8 6 -14c-39 -18 -69 -33 -185 -33c-175 0 -228 116 -174 369zM371 778l156 152
c6 -1 9 -4 11 -9l-157 -152c-5 1 -9 5 -10 9z" />
    <glyph glyph-name="Ccaron" unicode="&#x10c;" horiz-adv-x="552" 
d="M431 775l-106 101c2 4 6 7 11 9l102 -97l144 98c5 0 8 -5 8 -10l-146 -101h-13zM90 359c55 257 159 371 333 371c109 0 159 -32 159 -32c-1 -5 -4 -9 -9 -12c0 0 -53 29 -150 29c-166 0 -266 -112 -318 -356c-52 -243 -6 -354 160 -354c105 0 139 13 178 32
c5 -2 7 -8 6 -14c-39 -18 -69 -33 -185 -33c-175 0 -228 116 -174 369z" />
    <glyph glyph-name="Ccedilla" unicode="&#xc7;" horiz-adv-x="552" 
d="M90 359c55 257 159 371 333 371c109 0 159 -32 159 -32c-1 -5 -4 -9 -9 -12c0 0 -53 29 -150 29c-166 0 -266 -112 -318 -356c-52 -243 -6 -354 160 -354c105 0 139 13 178 32c5 -2 7 -8 6 -14c-39 -18 -68 -33 -182 -33l-23 -60c74 2 116 -30 106 -79
c-13 -59 -53 -94 -126 -94c-36 0 -61 10 -83 27c2 5 5 8 10 11c19 -16 42 -24 77 -24c54 0 96 24 108 82c8 38 -25 64 -84 64h-20l-4 6l25 67c-166 5 -216 121 -163 369z" />
    <glyph glyph-name="Ccircumflex" unicode="&#x108;" horiz-adv-x="552" 
d="M90 359c55 257 159 371 333 371c109 0 159 -32 159 -32c-1 -5 -4 -9 -9 -12c0 0 -53 29 -150 29c-166 0 -266 -112 -318 -356c-52 -243 -6 -354 160 -354c105 0 139 13 178 32c5 -2 7 -8 6 -14c-39 -18 -69 -33 -185 -33c-175 0 -228 116 -174 369zM311 769
c-5 1 -8 6 -8 10l148 101h13l104 -101c-2 -5 -4 -7 -10 -9l-101 97z" />
    <glyph glyph-name="Cdotaccent" unicode="&#x10a;" horiz-adv-x="552" 
d="M462 841l-5 -20s-6 -4 -15 -4c-8 0 -13 4 -13 4l5 20s6 4 14 4c9 0 14 -4 14 -4zM90 359c55 257 159 371 333 371c109 0 159 -32 159 -32c-1 -5 -4 -9 -9 -12c0 0 -53 29 -150 29c-166 0 -266 -112 -318 -356c-52 -243 -6 -354 160 -354c105 0 139 13 178 32
c5 -2 7 -8 6 -14c-39 -18 -69 -33 -185 -33c-175 0 -228 116 -174 369z" />
    <glyph glyph-name="D" unicode="D" horiz-adv-x="657" 
d="M202 720h180c204 0 263 -110 208 -360c-56 -257 -159 -360 -361 -360h-180zM67 15h162c195 0 294 99 346 345c53 246 3 346 -199 346h-162z" />
    <glyph glyph-name="Dcaron" unicode="&#x10e;" horiz-adv-x="657" 
d="M202 720h180c204 0 263 -110 208 -360c-56 -257 -159 -360 -361 -360h-180zM67 15h162c195 0 294 99 346 345c53 246 3 346 -199 346h-162zM390 777l-106 101c2 4 6 7 11 9l102 -97l144 98c5 0 8 -5 8 -10l-146 -101h-13z" />
    <glyph glyph-name="Dcroat" unicode="&#x110;" horiz-adv-x="661" 
d="M205 720h180c189 0 269 -77 208 -360c-60 -283 -178 -360 -361 -360h-180l75 352h-89c-1 5 0 10 3 15h89zM70 15h162c181 0 289 74 346 345c58 272 -13 345 -199 345h-162l-72 -338h183c1 -5 0 -10 -3 -15h-183z" />
    <glyph glyph-name="Delta" unicode="&#x2206;" horiz-adv-x="637" 
d="M422 718l127 -701c-4 -7 -9 -13 -15 -17h-551c-5 4 -9 11 -9 17l430 701c9 5 18 0 18 0zM534 15l-124 691l-423 -691h547z" />
    <glyph glyph-name="E" unicode="E" 
d="M202 720h379c1 -5 0 -10 -3 -15h-364l-71 -332h314c1 -5 0 -10 -3 -15h-314l-73 -343h374c1 -5 0 -10 -3 -15h-389z" />
    <glyph glyph-name="Eacute" unicode="&#xc9;" 
d="M202 720h379c1 -5 0 -10 -3 -15h-364l-71 -332h314c1 -5 0 -10 -3 -15h-314l-73 -343h374c1 -5 0 -10 -3 -15h-389zM347 776l156 152c6 -1 9 -4 11 -9l-157 -152c-5 1 -9 5 -10 9z" />
    <glyph glyph-name="Ebreve" unicode="&#x114;" 
d="M202 720h379c1 -5 0 -10 -3 -15h-364l-71 -332h314c1 -5 0 -10 -3 -15h-314l-73 -343h374c1 -5 0 -10 -3 -15h-389zM410 821c67 0 113 35 127 48c5 -3 6 -5 7 -10c0 0 -53 -52 -135 -52s-113 52 -113 52c3 5 5 7 10 8c8 -10 35 -46 104 -46z" />
    <glyph glyph-name="Ecaron" unicode="&#x11a;" 
d="M202 720h379c1 -5 0 -10 -3 -15h-364l-71 -332h314c1 -5 0 -10 -3 -15h-314l-73 -343h374c1 -5 0 -10 -3 -15h-389zM387 774l-106 101c2 4 6 7 11 9l102 -97l144 98c5 0 8 -5 8 -10l-146 -101h-13z" />
    <glyph glyph-name="Ecircumflex" unicode="&#xca;" 
d="M202 720h379c1 -5 0 -10 -3 -15h-364l-71 -332h314c1 -5 0 -10 -3 -15h-314l-73 -343h374c1 -5 0 -10 -3 -15h-389zM279 777c-5 1 -8 6 -8 10l148 101h13l104 -101c-2 -5 -4 -7 -10 -9l-101 97z" />
    <glyph glyph-name="Edieresis" unicode="&#xcb;" 
d="M372 827l-5 -20s-5 -4 -14 -4c-8 0 -14 4 -14 4l5 20s7 4 15 4c9 0 13 -4 13 -4zM506 827l-5 -20s-5 -4 -14 -4c-8 0 -14 4 -14 4l5 20s7 4 15 4c9 0 13 -4 13 -4zM202 720h379c1 -5 0 -10 -3 -15h-364l-71 -332h314c1 -5 0 -10 -3 -15h-314l-73 -343h374
c1 -5 0 -10 -3 -15h-389z" />
    <glyph glyph-name="Edotaccent" unicode="&#x116;" 
d="M432 823l-4 -20s-6 -4 -15 -4c-8 0 -13 4 -13 4l4 20s7 4 15 4c9 0 13 -4 13 -4zM202 720h379c1 -5 0 -10 -3 -15h-364l-71 -332h314c1 -5 0 -10 -3 -15h-314l-73 -343h374c1 -5 0 -10 -3 -15h-389z" />
    <glyph glyph-name="Egrave" unicode="&#xc8;" 
d="M202 720h379c1 -5 0 -10 -3 -15h-364l-71 -332h314c1 -5 0 -10 -3 -15h-314l-73 -343h374c1 -5 0 -10 -3 -15h-389zM344 914c4 5 7 7 13 9l92 -152c-3 -4 -7 -6 -12 -7z" />
    <glyph glyph-name="Emacron" unicode="&#x112;" 
d="M534 812h-255c-1 5 0 10 3 15h255c1 -5 0 -9 -3 -15zM202 720h379c1 -5 0 -10 -3 -15h-364l-71 -332h314c1 -5 0 -10 -3 -15h-314l-73 -343h374c1 -5 0 -10 -3 -15h-389z" />
    <glyph glyph-name="Eng" unicode="&#x14a;" horiz-adv-x="692" 
d="M666 718l-166 -778c-16 -82 -38 -139 -134 -168c-4 2 -4 7 -1 13c70 22 102 60 120 153l13 65l-287 692l-24 -116l-122 -577s-5 -2 -9 -2s-7 2 -7 2l153 716s3 2 8 2s7 -2 7 -2l256 -616l31 -81s7 44 21 110l125 587s2 2 9 2c4 0 7 -2 7 -2z" />
    <glyph glyph-name="Eogonek" unicode="&#x118;" 
d="M365 -164c27 0 49 12 49 12c3 -4 3 -6 3 -11c0 0 -22 -15 -57 -15c-48 0 -71 23 -63 62c12 53 56 92 108 116h-356l153 720h379c1 -5 0 -10 -3 -15h-364l-71 -332h314c1 -5 0 -10 -3 -15h-314l-73 -343h374c1 -5 0 -10 -3 -15h-5c-57 -21 -109 -61 -120 -113
c-8 -37 13 -51 52 -51z" />
    <glyph glyph-name="Eth" unicode="&#xd0;" horiz-adv-x="661" 
d="M205 720h180c189 0 269 -77 208 -360c-60 -283 -178 -360 -361 -360h-180l75 352h-89c-1 5 0 10 3 15h89zM70 15h162c181 0 289 74 346 345c58 272 -13 345 -199 345h-162l-72 -338h183c1 -5 0 -10 -3 -15h-183z" />
    <glyph glyph-name="Euro" unicode="&#x20ac;" horiz-adv-x="576" 
d="M304 5c92 0 150 27 150 27c2 -3 3 -7 3 -11c0 0 -54 -31 -159 -31c-170 0 -187 128 -170 258h-80l6 15h76c3 24 8 48 13 71c5 25 11 51 19 76h-80l6 15h78c41 133 115 255 278 255c101 0 137 -29 137 -29c-1 -5 -4 -10 -8 -12c0 0 -44 26 -129 26
c-155 0 -224 -112 -262 -240h289c0 -6 -2 -9 -6 -15h-288c-7 -25 -13 -51 -18 -76c-5 -24 -10 -48 -13 -71h250c0 -5 -2 -9 -6 -15h-246c-17 -129 2 -243 160 -243z" />
    <glyph glyph-name="F" unicode="F" horiz-adv-x="539" 
d="M138 350l-74 -348s-1 -2 -7 -2s-8 2 -8 2l153 718h381c1 -5 0 -10 -3 -15h-366l-72 -340h316c0 -5 -1 -10 -4 -15h-316z" />
    <glyph glyph-name="G" unicode="G" horiz-adv-x="617" 
d="M91 360c60 275 148 370 343 370c111 0 173 -31 173 -31c-2 -6 -5 -10 -9 -13c0 0 -70 29 -164 29c-187 0 -271 -91 -328 -355c-50 -233 7 -355 176 -355c73 0 140 14 179 26l69 322h-209l3 14h223l-74 -346s-80 -31 -196 -31c-173 0 -238 132 -186 370z" />
    <glyph glyph-name="Gbreve" unicode="&#x11e;" horiz-adv-x="615" 
d="M89 360c52 243 172 370 343 370c111 0 173 -31 173 -31c-2 -6 -5 -10 -9 -13c0 0 -70 29 -164 29c-165 0 -278 -122 -328 -355c-58 -273 34 -355 177 -355c73 0 140 15 179 27l68 320h-209l3 15h223l-74 -346s-80 -31 -196 -31c-170 0 -239 117 -186 370zM454 811
c67 0 111 35 126 48c4 -3 5 -5 6 -10c0 0 -53 -52 -135 -52s-113 52 -113 52c3 5 6 8 11 9c8 -10 38 -47 105 -47z" />
    <glyph glyph-name="Gcircumflex" unicode="&#x11c;" horiz-adv-x="617" 
d="M91 360c60 275 148 370 343 370c111 0 173 -31 173 -31c-2 -6 -5 -10 -9 -13c0 0 -70 29 -164 29c-187 0 -271 -91 -328 -355c-50 -233 7 -355 176 -355c73 0 140 14 179 26l69 321h-209l3 15h223l-74 -346s-80 -31 -196 -31c-173 0 -238 132 -186 370zM318 779
c-5 1 -8 6 -8 10l148 101h13l104 -101c-2 -5 -4 -7 -10 -9l-101 97z" />
    <glyph glyph-name="Gcommaaccent" unicode="&#x122;" horiz-adv-x="617" 
d="M231 -168l-6 6s31 36 38 68c-4 0 -9 2 -9 2l4 20s3 2 12 2c8 0 12 -2 12 -2l-4 -17c-9 -44 -47 -79 -47 -79zM91 360c60 275 148 370 343 370c111 0 173 -31 173 -31c-2 -6 -5 -10 -9 -13c0 0 -70 29 -164 29c-187 0 -271 -91 -328 -355c-50 -233 7 -355 176 -355
c73 0 140 14 179 26l69 321h-209l3 15h223l-74 -346s-80 -31 -196 -31c-173 0 -238 132 -186 370z" />
    <glyph glyph-name="Gdotaccent" unicode="&#x120;" horiz-adv-x="617" 
d="M471 823l-4 -20s-6 -4 -15 -4c-8 0 -13 4 -13 4l4 20s7 4 15 4c9 0 13 -4 13 -4zM91 360c60 275 148 370 343 370c111 0 173 -31 173 -31c-2 -6 -5 -10 -9 -13c0 0 -70 29 -164 29c-187 0 -271 -91 -328 -355c-50 -233 7 -355 176 -355c73 0 140 14 179 26l69 321h-209
l3 15h223l-74 -346s-80 -31 -196 -31c-173 0 -238 132 -186 370z" />
    <glyph glyph-name="H" unicode="H" horiz-adv-x="676" 
d="M562 377l73 341s3 2 7 2c5 0 8 -2 8 -2l-153 -716s-2 -2 -8 -2s-7 2 -7 2l77 360h-418l-77 -360s-2 -2 -7 -2c-7 0 -8 2 -8 2l153 716s3 2 8 2c4 0 7 -2 7 -2l-73 -341h418z" />
    <glyph glyph-name="Hbar" unicode="&#x126;" horiz-adv-x="677" 
d="M622 583h72c1 -5 -1 -13 -3 -15h-72l-121 -566s-2 -2 -8 -2s-7 2 -7 2l77 360h-418l-77 -360s-2 -2 -7 -2c-7 0 -8 2 -8 2l121 566h-75c-2 5 -1 10 3 15h75l29 135s3 2 8 2c4 0 7 -2 7 -2l-29 -135h418l29 135s3 2 7 2c5 0 8 -2 8 -2zM145 377h418l41 191h-418z" />
    <glyph glyph-name="Hcircumflex" unicode="&#x124;" horiz-adv-x="676" 
d="M562 377l73 341s3 2 7 2c5 0 8 -2 8 -2l-153 -716s-2 -2 -8 -2s-7 2 -7 2l77 359h-418l-77 -359s-2 -2 -7 -2c-7 0 -8 2 -8 2l153 716s3 2 8 2c4 0 7 -2 7 -2l-73 -341h418zM314 776c-5 2 -6 6 -6 10l148 101h13l104 -101c-1 -5 -5 -9 -10 -10l-101 98z" />
    <glyph glyph-name="I" unicode="I" horiz-adv-x="243" 
d="M49 2l153 716s2 2 8 2s7 -2 7 -2l-152 -716c-1 -1 -2 -2 -8 -2c-5 0 -8 2 -8 2z" />
    <glyph glyph-name="IJ" unicode="&#x132;" horiz-adv-x="588" 
d="M49 2l153 716s2 2 8 2s7 -2 7 -2l-152 -716c-1 0 -2 -2 -8 -2c-5 0 -8 2 -8 2zM429 145l122 573s1 2 8 2c4 0 7 -2 7 -2l-122 -573c-23 -107 -66 -155 -170 -155c-73 0 -128 30 -128 30c1 7 5 12 9 14c0 0 48 -29 125 -29c81 0 127 37 149 140z" />
    <glyph glyph-name="Iacute" unicode="&#xcd;" horiz-adv-x="243" 
d="M49 2l153 716s2 2 8 2s7 -2 7 -2l-153 -716c-1 0 -1 -2 -7 -2c-5 0 -8 2 -8 2zM163 769l157 152c6 -1 7 -5 9 -10l-157 -150c-5 1 -7 4 -9 8z" />
    <glyph glyph-name="Ibreve" unicode="&#x12c;" horiz-adv-x="243" 
d="M228 808c67 0 110 35 125 48c4 -3 6 -5 7 -10c0 0 -53 -52 -135 -52s-113 52 -113 52c3 5 5 8 11 9c8 -10 38 -47 105 -47zM49 2l153 716s2 2 8 2s7 -2 7 -2l-152 -716c-1 -1 -2 -2 -8 -2c-5 0 -8 2 -8 2z" />
    <glyph glyph-name="Icircumflex" unicode="&#xce;" horiz-adv-x="243" 
d="M49 2l153 716s2 2 8 2s7 -2 7 -2l-153 -716c-2 -2 -1 -2 -7 -2c-5 0 -8 2 -8 2zM95 775c-5 2 -6 6 -6 10l148 101h13l104 -101c-1 -5 -4 -8 -9 -9l-102 97z" />
    <glyph glyph-name="Idieresis" unicode="&#xcf;" horiz-adv-x="243" 
d="M49 2l153 716s2 2 8 2s7 -2 7 -2l-153 -716c-1 -1 -3 -2 -7 -2c-5 0 -8 2 -8 2zM177 816l-4 -20s-6 -4 -15 -4c-8 0 -13 4 -13 4l4 20s7 4 15 4c9 0 13 -4 13 -4zM311 816l-4 -20s-6 -4 -15 -4c-8 0 -13 4 -13 4l4 20s7 4 15 4c9 0 13 -4 13 -4z" />
    <glyph glyph-name="Idotaccent" unicode="&#x130;" horiz-adv-x="243" 
d="M202 718c0 0 2 2 8 2s7 -2 7 -2l-153 -716c-2 -1 -3 -2 -7 -2c-5 0 -8 2 -8 2zM246 822l-5 -20s-5 -4 -14 -4c-8 0 -14 4 -14 4l5 20s7 4 15 4c9 0 13 -4 13 -4z" />
    <glyph glyph-name="Igrave" unicode="&#xcc;" horiz-adv-x="243" 
d="M49 2l153 716s2 2 8 2s7 -2 7 -2l-153 -716c-1 0 -1 -2 -7 -2c-5 0 -8 2 -8 2zM162 910c4 5 7 8 14 10l91 -152c-3 -4 -6 -7 -11 -8z" />
    <glyph glyph-name="Imacron" unicode="&#x12a;" horiz-adv-x="243" 
d="M49 2l153 716s2 2 8 2s7 -2 7 -2l-153 -716c-2 -2 -4 -2 -8 -2c-5 0 -7 2 -7 2zM349 784h-252c-1 5 0 10 3 15h252c1 -5 0 -9 -3 -15z" />
    <glyph glyph-name="Iogonek" unicode="&#x12e;" horiz-adv-x="243" 
d="M13 -160c27 0 49 12 49 12c3 -4 3 -6 3 -11c0 0 -22 -15 -57 -15c-48 0 -71 23 -63 62c11 52 54 93 105 118l152 712s2 2 8 2s7 -2 7 -2l-152 -716l-1 -1v0c-48 -23 -94 -65 -103 -110c-8 -37 13 -51 52 -51z" />
    <glyph glyph-name="Itilde" unicode="&#x128;" horiz-adv-x="243" 
d="M49 2l153 716s2 2 8 2c5 0 7 -2 7 -2l-153 -716c-1 -1 -3 -2 -8 -2s-7 2 -7 2zM278 791c31 0 47 23 53 33c5 -1 8 -3 11 -7c0 0 -21 -41 -69 -41c-45 0 -59 40 -97 40c-37 0 -53 -34 -53 -34c-6 1 -8 2 -11 6c0 0 20 43 71 43c38 0 50 -40 95 -40z" />
    <glyph glyph-name="J" unicode="J" horiz-adv-x="416" 
d="M257 145l122 573s3 2 7 2c5 0 8 -2 8 -2l-122 -574c-23 -107 -67 -154 -172 -154c-72 0 -127 30 -127 30c1 7 5 12 10 14c0 0 48 -29 123 -29c83 0 129 39 151 140z" />
    <glyph glyph-name="Jcircumflex" unicode="&#x134;" horiz-adv-x="416" 
d="M257 145l122 573s3 2 7 2c5 0 8 -2 8 -2l-122 -574c-23 -107 -67 -154 -172 -154c-72 0 -127 30 -127 30c1 7 5 12 10 14c0 0 48 -29 123 -29c83 0 128 34 151 140zM263 776c-5 2 -6 6 -6 10l148 101h13l104 -101c-1 -5 -5 -9 -10 -10l-101 98z" />
    <glyph glyph-name="K" unicode="K" horiz-adv-x="604" 
d="M309 381l308 337c11 6 19 0 19 0l-316 -346l191 -370c-1 0 -4 -2 -9 -2c-7 0 -9 2 -9 2l-186 364h-165l-78 -364s-3 -2 -7 -2c-5 0 -8 2 -8 2l153 716s3 2 7 2c5 0 8 -2 8 -2l-72 -337h164z" />
    <glyph glyph-name="Kcommaaccent" unicode="&#x136;" horiz-adv-x="604" 
d="M207 -143l-7 6s30 30 37 62c-4 0 -10 2 -10 2l5 20s3 2 12 2c8 0 12 -2 12 -2l-4 -17c-9 -44 -45 -73 -45 -73zM309 381l308 337c11 6 19 0 19 0l-316 -346l191 -370c-1 0 -4 -2 -9 -2c-7 0 -9 2 -9 2l-186 364h-165l-78 -364s-3 -2 -7 -2c-5 0 -8 2 -8 2l153 716
s3 2 7 2c5 0 8 -2 8 -2l-72 -337h164z" />
    <glyph glyph-name="L" unicode="L" horiz-adv-x="494" 
d="M49 0l153 718s3 2 8 2c6 0 7 -2 7 -2l-150 -703h340c3 -9 -3 -15 -3 -15h-355z" />
    <glyph glyph-name="Lacute" unicode="&#x139;" horiz-adv-x="494" 
d="M49 0l153 718s3 2 8 2c6 0 7 -2 7 -2l-150 -703h340c3 -9 -3 -15 -3 -15h-355zM192 771l156 152c6 -1 7 -5 9 -10l-157 -150c-5 1 -7 4 -8 8z" />
    <glyph glyph-name="Lcaron" unicode="&#x13d;" horiz-adv-x="494" 
d="M361 576c-6 -1 -9 1 -9 5c46 33 71 83 79 140c9 2 15 2 18 0c-7 -49 -38 -113 -88 -145zM49 0l153 718s3 2 8 2c6 0 7 -2 7 -2l-150 -703h340c3 -9 -3 -15 -3 -15h-355z" />
    <glyph glyph-name="Lcommaaccent" unicode="&#x13b;" horiz-adv-x="494" 
d="M49 0l153 718s3 2 8 2c6 0 7 -2 7 -2l-150 -703h340c3 -9 -3 -15 -3 -15h-355zM186 -138l-7 6s30 30 37 62c-4 0 -9 2 -9 2l4 20s3 2 12 2c8 0 12 -2 12 -2l-4 -17c-9 -44 -45 -73 -45 -73z" />
    <glyph glyph-name="Ldot" unicode="&#x13f;" horiz-adv-x="495" 
d="M49 0l153 718s3 2 8 2c6 0 7 -2 7 -2l-150 -703h340c3 -9 -3 -15 -3 -15h-355zM328 344l-4 -20s-6 -4 -15 -4c-8 0 -13 4 -13 4l4 20s7 4 15 4c9 0 13 -4 13 -4z" />
    <glyph glyph-name="Lslash" unicode="&#x141;" horiz-adv-x="500" 
d="M74 15h340c3 -9 -3 -15 -3 -15h-355l75 353l-80 -42c-4 3 -6 6 -4 13l88 46l74 348s3 2 8 2c6 0 7 -2 7 -2l-73 -340l123 64c4 -3 5 -6 4 -12l-130 -68z" />
    <glyph glyph-name="M" unicode="M" horiz-adv-x="864" 
d="M414 227l402 491c7 3 15 3 22 0l-153 -716s-2 -2 -8 -2s-7 2 -7 2l139 647l13 56l-398 -488c-8 -3 -16 -3 -22 0l-188 488l-12 -56l-138 -647s-1 -2 -7 -2s-8 2 -8 2l153 716c7 3 15 3 22 0z" />
    <glyph glyph-name="N" unicode="N" horiz-adv-x="692" 
d="M498 2l-287 693l-24 -116l-122 -577s-5 -2 -9 -2s-7 2 -7 2l153 716s3 2 8 2s7 -2 7 -2l256 -616l31 -81s7 44 21 110l125 587s2 2 9 2c4 0 7 -2 7 -2l-153 -716s-3 -2 -7 -2c-6 0 -8 2 -8 2z" />
    <glyph glyph-name="Nacute" unicode="&#x143;" horiz-adv-x="692" 
d="M414 769l156 152c6 -1 9 -5 11 -10l-157 -150c-5 1 -8 4 -10 8zM498 2l-287 693l-24 -116l-122 -577s-5 -2 -9 -2s-7 2 -7 2l153 716s3 2 8 2s7 -2 7 -2l256 -616l31 -81s7 44 21 110l125 587s2 2 9 2c4 0 7 -2 7 -2l-153 -716s-3 -2 -7 -2c-6 0 -8 2 -8 2z" />
    <glyph glyph-name="Ncaron" unicode="&#x147;" horiz-adv-x="692" 
d="M498 2l-287 693l-24 -116l-122 -577s-5 -2 -9 -2s-7 2 -7 2l153 716s3 2 8 2s7 -2 7 -2l256 -616l31 -81s7 44 21 110l125 587s2 2 9 2c4 0 7 -2 7 -2l-153 -716s-3 -2 -7 -2c-6 0 -8 2 -8 2zM436 772l-106 101c2 4 6 7 11 9l102 -97l144 98c5 0 8 -5 8 -10l-146 -101
h-13z" />
    <glyph glyph-name="Ncommaaccent" unicode="&#x145;" horiz-adv-x="692" 
d="M232 -159l-6 6s30 30 37 62c-4 0 -10 2 -10 2l4 20s4 2 13 2c8 0 11 -2 11 -2l-3 -17c-10 -44 -46 -73 -46 -73zM498 2l-287 693l-24 -116l-122 -577s-5 -2 -9 -2s-7 2 -7 2l153 716s3 2 8 2s7 -2 7 -2l256 -616l31 -81s7 44 21 110l125 587s2 2 9 2c4 0 7 -2 7 -2
l-153 -716s-3 -2 -7 -2c-6 0 -8 2 -8 2z" />
    <glyph glyph-name="Ntilde" unicode="&#xd1;" horiz-adv-x="692" 
d="M498 2l-287 693l-24 -116l-122 -577s-5 -2 -9 -2s-7 2 -7 2l153 716s3 2 8 2s7 -2 7 -2l256 -616l31 -81s7 44 21 110l125 587s2 2 9 2c4 0 7 -2 7 -2l-153 -716s-3 -2 -7 -2c-6 0 -8 2 -8 2zM499 803c31 0 47 23 53 33c5 -1 10 -3 12 -7c0 0 -21 -41 -69 -41
c-44 0 -62 40 -100 40c-33 0 -50 -34 -50 -34c-6 1 -10 3 -12 7c0 0 19 41 67 41c38 0 54 -39 99 -39z" />
    <glyph glyph-name="O" unicode="O" horiz-adv-x="675" 
d="M89 360c56 260 176 370 339 370c167 0 234 -127 181 -370c-55 -259 -176 -370 -338 -370c-169 0 -234 127 -182 370zM594 360c52 243 -10 355 -169 355c-150 0 -267 -103 -321 -355c-51 -243 11 -355 170 -355c149 0 267 103 320 355z" />
    <glyph glyph-name="OE" unicode="&#x152;" horiz-adv-x="809" 
d="M89 360c56 259 188 370 356 370c36 0 66 -7 82 -10h306c1 -4 0 -11 -3 -15h-301l-71 -332h261c1 -4 0 -11 -3 -15h-261l-73 -343h311c1 -7 0 -10 -3 -15h-317c-18 -5 -47 -10 -85 -10c-168 0 -254 110 -199 370zM514 707c-14 4 -37 8 -72 8c-155 0 -284 -103 -338 -355
c-53 -252 32 -355 187 -355c33 0 61 5 76 9z" />
    <glyph glyph-name="Oacute" unicode="&#xd3;" horiz-adv-x="675" 
d="M392 773l161 148c6 -1 7 -5 8 -10l-161 -146c-5 1 -8 4 -8 8zM89 360c56 260 176 370 339 370c167 0 234 -127 181 -370c-55 -259 -176 -370 -338 -370c-169 0 -234 127 -182 370zM594 360c52 243 -10 355 -169 355c-150 0 -267 -103 -321 -355
c-51 -243 11 -355 170 -355c149 0 267 103 320 355z" />
    <glyph glyph-name="Obreve" unicode="&#x14e;" horiz-adv-x="675" 
d="M443 806c67 0 113 35 127 48c5 -3 6 -5 7 -10c0 0 -53 -52 -135 -52s-113 52 -113 52c3 5 5 7 10 8c8 -10 35 -46 104 -46zM89 360c56 260 176 370 339 370c167 0 234 -127 181 -370c-55 -259 -176 -370 -338 -370c-169 0 -234 127 -182 370zM594 360
c52 243 -10 355 -169 355c-150 0 -267 -103 -321 -355c-51 -243 11 -355 170 -355c149 0 267 103 320 355z" />
    <glyph glyph-name="Ocircumflex" unicode="&#xd4;" horiz-adv-x="675" 
d="M315 777c-4 2 -6 6 -6 10l149 101h13l103 -101c-1 -5 -5 -9 -10 -10l-102 98zM89 360c56 260 176 370 339 370c167 0 234 -127 181 -370c-55 -259 -176 -370 -338 -370c-169 0 -234 127 -182 370zM594 360c52 243 -10 355 -169 355c-150 0 -267 -103 -321 -355
c-51 -243 11 -355 170 -355c149 0 267 103 320 355z" />
    <glyph glyph-name="Odieresis" unicode="&#xd6;" horiz-adv-x="675" 
d="M395 833l-4 -20s-6 -4 -15 -4c-8 0 -13 4 -13 4l4 20s7 4 15 4c9 0 13 -4 13 -4zM529 833l-4 -20s-6 -4 -15 -4c-8 0 -13 4 -13 4l4 20s7 4 15 4c9 0 13 -4 13 -4zM89 360c56 260 176 370 339 370c167 0 234 -127 181 -370c-55 -259 -176 -370 -338 -370
c-169 0 -234 127 -182 370zM594 360c52 243 -10 355 -169 355c-150 0 -267 -103 -321 -355c-51 -243 11 -355 170 -355c149 0 267 103 320 355z" />
    <glyph glyph-name="Ograve" unicode="&#xd2;" horiz-adv-x="675" 
d="M387 912c3 5 6 8 12 10l97 -148c-1 -4 -5 -7 -10 -8zM89 360c56 260 176 370 339 370c167 0 234 -127 181 -370c-55 -259 -176 -370 -338 -370c-169 0 -234 127 -182 370zM594 360c52 243 -10 355 -169 355c-150 0 -267 -103 -321 -355c-51 -243 11 -355 170 -355
c149 0 267 103 320 355z" />
    <glyph glyph-name="Ohungarumlaut" unicode="&#x150;" horiz-adv-x="675" 
d="M358 787l114 122c11 -1 15 -3 18 -11l-120 -118c-8 0 -13 1 -12 7zM484 787l115 122c11 -1 14 -3 19 -11l-122 -118c-7 0 -11 1 -12 7zM89 360c56 260 176 370 339 370c167 0 234 -127 181 -370c-55 -259 -176 -370 -338 -370c-169 0 -234 127 -182 370zM594 360
c52 243 -10 355 -169 355c-150 0 -267 -103 -321 -355c-51 -243 11 -355 170 -355c149 0 267 103 320 355z" />
    <glyph glyph-name="Omacron" unicode="&#x14c;" horiz-adv-x="675" 
d="M323 827h249c1 -5 0 -9 -3 -15h-249c-1 5 0 10 3 15zM89 360c56 260 176 370 339 370c167 0 234 -127 181 -370c-55 -259 -176 -370 -338 -370c-169 0 -234 127 -182 370zM594 360c52 243 -10 355 -169 355c-150 0 -267 -103 -321 -355c-51 -243 11 -355 170 -355
c149 0 267 103 320 355z" />
    <glyph glyph-name="Omega" unicode="&#x2126;" horiz-adv-x="708" 
d="M374 16h203c3 -2 3 -4 2 -8c-1 -3 -4 -7 -5 -8h-223c-3 4 -1 15 4 20c67 36 229 164 271 360c46 220 -16 335 -184 335s-280 -115 -326 -335c-40 -188 66 -318 117 -360c5 -3 2 -16 -4 -20h-223c-1 1 -2 5 -1 8c1 4 2 6 4 8h206c-10 5 -164 136 -115 364
c49 230 167 350 345 350s246 -120 197 -350c-48 -223 -231 -344 -268 -364z" />
    <glyph glyph-name="Oslash" unicode="&#xd8;" horiz-adv-x="675" 
d="M658 750l-70 -92c43 -61 51 -161 21 -298c-55 -259 -176 -370 -338 -370c-67 0 -117 20 -151 59l-69 -90c-5 0 -8 2 -10 6l72 93c-45 61 -54 163 -24 302c56 260 176 370 339 370c68 0 119 -21 153 -62l67 88c4 -1 8 -3 10 -6zM425 715c-150 0 -267 -103 -321 -355
c-29 -137 -22 -232 18 -289l449 585c-31 40 -80 59 -146 59zM274 5c149 0 267 103 320 355c29 135 23 229 -16 286l-448 -585c31 -38 80 -56 144 -56z" />
    <glyph glyph-name="Oslashacute" unicode="&#x1fe;" horiz-adv-x="675" 
d="M396 771l156 152c6 -1 7 -5 9 -10l-157 -150c-5 1 -7 4 -8 8zM658 750l-70 -92c43 -61 51 -161 21 -298c-55 -259 -176 -370 -338 -370c-67 0 -117 20 -151 59l-69 -90c-5 0 -8 2 -10 6l72 93c-45 61 -54 163 -24 302c56 260 176 370 339 370c68 0 119 -21 153 -62l67 88
c4 -1 8 -3 10 -6zM425 715c-150 0 -267 -103 -321 -355c-29 -137 -22 -232 18 -289l449 585c-31 40 -80 59 -146 59zM274 5c149 0 267 103 320 355c29 135 23 229 -16 286l-448 -585c31 -38 80 -56 144 -56z" />
    <glyph glyph-name="Otilde" unicode="&#xd5;" horiz-adv-x="675" 
d="M498 802c31 0 47 23 53 33c5 -1 10 -3 12 -7c0 0 -21 -41 -69 -41c-44 0 -62 40 -100 40c-33 0 -50 -34 -50 -34c-6 1 -10 3 -12 7c0 0 19 41 67 41c38 0 54 -39 99 -39zM89 360c56 260 176 370 339 370c167 0 234 -127 181 -370c-55 -259 -176 -370 -338 -370
c-169 0 -234 127 -182 370zM594 360c52 243 -10 355 -169 355c-150 0 -267 -103 -321 -355c-51 -243 11 -355 170 -355c149 0 267 103 320 355z" />
    <glyph glyph-name="P" unicode="P" horiz-adv-x="598" 
d="M131 317l-67 -315s-2 -2 -8 -2c-5 0 -7 2 -7 2l153 718h241c116 0 168 -75 141 -202c-27 -126 -111 -201 -227 -201h-226zM135 332h227c105 0 182 69 207 185c25 118 -17 189 -127 189h-227z" />
    <glyph glyph-name="Q" unicode="Q" horiz-adv-x="675" 
d="M428 730c167 0 234 -127 181 -370c-34 -161 -94 -265 -174 -321c28 -42 75 -66 108 -75c-1 -6 -3 -10 -8 -14c-38 7 -89 41 -113 80c-45 -27 -96 -40 -151 -40c-169 0 -234 127 -182 370c56 260 176 370 339 370zM104 360c-51 -243 11 -355 170 -355
c149 0 267 103 320 355c52 243 -10 355 -169 355c-150 0 -267 -103 -321 -355z" />
    <glyph glyph-name="R" unicode="R" horiz-adv-x="614" 
d="M202 720h235c117 0 169 -77 144 -193c-22 -103 -88 -175 -193 -191l101 -334s-5 -2 -9 -2c-6 0 -8 2 -8 2l-99 332h-238l-71 -332s-2 -2 -8 -2c-5 0 -7 2 -7 2zM214 705l-76 -356h222c101 0 182 67 206 178s-24 178 -130 178h-222z" />
    <glyph glyph-name="Racute" unicode="&#x154;" horiz-adv-x="614" 
d="M202 720h235c117 0 169 -77 144 -193c-22 -103 -92 -175 -193 -191l101 -334s-5 -2 -9 -2c-6 0 -8 2 -8 2l-99 332h-238l-71 -332s-2 -2 -8 -2c-5 0 -7 2 -7 2zM214 705l-76 -356h222c101 0 182 67 206 178s-29 178 -130 178h-222zM335 768l157 152c5 -1 6 -5 8 -10
l-156 -150c-5 1 -8 4 -9 8z" />
    <glyph glyph-name="Rcaron" unicode="&#x158;" horiz-adv-x="614" 
d="M202 720h235c117 0 169 -77 144 -193c-22 -103 -92 -175 -193 -191l101 -334s-5 -2 -9 -2c-6 0 -8 2 -8 2l-99 332h-238l-71 -332s-2 -2 -8 -2c-5 0 -7 2 -7 2zM214 705l-76 -356h222c101 0 182 67 206 178s-29 178 -130 178h-222zM380 774l-105 101c2 4 5 8 10 10
l102 -98l147 98c5 -1 7 -5 6 -10l-147 -101h-13z" />
    <glyph glyph-name="Rcommaaccent" unicode="&#x156;" horiz-adv-x="614" 
d="M202 720h235c117 0 169 -77 144 -193c-22 -103 -92 -175 -193 -191l101 -334s-5 -2 -9 -2c-6 0 -8 2 -8 2l-99 332h-238l-71 -332s-2 -2 -8 -2c-5 0 -7 2 -7 2zM214 705l-76 -356h222c101 0 182 67 206 178s-29 178 -130 178h-222zM214 -138l-7 6s30 30 37 62
c-4 0 -9 2 -9 2l4 20s3 2 12 2c8 0 12 -2 12 -2l-4 -17c-9 -44 -45 -73 -45 -73z" />
    <glyph glyph-name="S" unicode="S" horiz-adv-x="557" 
d="M123 547c24 114 119 184 259 184c106 0 170 -24 170 -24c-1 -6 -3 -10 -8 -14c0 0 -74 23 -164 23c-135 0 -219 -70 -242 -171c-27 -120 52 -147 158 -175c95 -25 198 -60 170 -195c-25 -117 -122 -185 -268 -185c-117 0 -186 36 -186 36c1 4 6 11 9 14
c0 0 73 -35 175 -35c138 0 231 61 255 173c26 124 -63 152 -160 178c-102 27 -196 58 -168 191z" />
    <glyph glyph-name="Sacute" unicode="&#x15a;" horiz-adv-x="557" 
d="M344 781l156 150c6 -1 7 -5 9 -10l-157 -148c-5 1 -7 4 -8 8zM123 547c24 114 119 184 259 184c106 0 170 -24 170 -24c-1 -6 -3 -10 -8 -14c0 0 -74 23 -164 23c-135 0 -219 -70 -242 -171c-27 -120 52 -147 158 -175c95 -25 198 -60 170 -195
c-25 -117 -122 -185 -268 -185c-117 0 -186 36 -186 36c1 4 6 11 9 14c0 0 73 -35 175 -35c138 0 231 61 255 173c26 124 -63 152 -160 178c-102 27 -196 58 -168 191z" />
    <glyph glyph-name="Scaron" unicode="&#x160;" horiz-adv-x="557" 
d="M123 547c24 114 119 184 259 184c106 0 170 -24 170 -24c-1 -6 -3 -10 -8 -14c0 0 -74 23 -164 23c-135 0 -219 -70 -242 -171c-27 -120 52 -147 158 -175c95 -25 198 -60 170 -195c-25 -117 -122 -185 -268 -185c-117 0 -186 36 -186 36c1 4 6 11 9 14
c0 0 73 -35 175 -35c138 0 231 61 255 173c26 124 -63 152 -160 178c-102 27 -196 58 -168 191zM391 787l-106 101c2 4 6 7 11 9l102 -97l144 98c5 0 8 -5 8 -10l-146 -101h-13z" />
    <glyph glyph-name="Scedilla" unicode="&#x15e;" horiz-adv-x="557" 
d="M123 547c24 114 119 184 259 184c106 0 170 -24 170 -24c-1 -6 -3 -10 -8 -14c0 0 -74 23 -164 23c-135 0 -219 -70 -242 -171c-27 -120 52 -147 158 -175c95 -25 198 -60 170 -195c-24 -114 -118 -182 -258 -185l-24 -56c74 2 116 -30 106 -79c-13 -59 -53 -94 -126 -94
c-36 0 -61 10 -83 27c2 5 5 8 10 11c19 -16 42 -24 77 -24c54 0 96 24 108 82c8 38 -25 64 -84 64h-20l-4 6l26 63c-115 1 -182 36 -182 36c1 4 6 11 9 14c0 0 73 -35 175 -35c138 0 231 61 255 173c26 124 -63 152 -160 178c-102 27 -196 58 -168 191z" />
    <glyph glyph-name="Scircumflex" unicode="&#x15c;" horiz-adv-x="557" 
d="M123 547c24 114 119 184 259 184c106 0 170 -24 170 -24c-1 -6 -3 -10 -8 -14c0 0 -74 23 -164 23c-135 0 -219 -70 -242 -171c-27 -120 52 -147 158 -175c95 -25 198 -60 170 -195c-25 -117 -122 -185 -268 -185c-117 0 -186 36 -186 36c1 4 6 11 9 14
c0 0 73 -35 175 -35c138 0 231 61 255 173c26 124 -63 152 -160 178c-102 27 -196 58 -168 191zM270 779c-5 1 -8 6 -8 10l148 101h13l104 -101c-2 -5 -4 -7 -10 -9l-101 97z" />
    <glyph glyph-name="Scommaaccent" unicode="&#x218;" horiz-adv-x="557" 
d="M163 -171l-7 6s30 30 37 62c-4 0 -10 2 -10 2l5 20s3 2 12 2c8 0 12 -2 12 -2l-4 -17c-9 -44 -45 -73 -45 -73zM123 547c24 114 119 184 259 184c106 0 170 -24 170 -24c-1 -6 -3 -10 -8 -14c0 0 -74 23 -164 23c-135 0 -219 -70 -242 -171c-27 -120 52 -147 158 -175
c95 -25 198 -60 170 -195c-25 -117 -122 -185 -268 -185c-117 0 -186 36 -186 36c1 4 6 11 9 14c0 0 73 -35 175 -35c138 0 231 61 255 173c26 124 -63 152 -160 178c-102 27 -196 58 -168 191z" />
    <glyph glyph-name="T" unicode="T" horiz-adv-x="522" 
d="M123 720h451s2 0 1 -7c-2 -6 -4 -8 -4 -8h-215l-150 -703s-2 -2 -8 -2c-4 0 -7 2 -7 2l150 703h-221s-2 3 0 8c1 6 3 7 3 7z" />
    <glyph glyph-name="Tbar" unicode="&#x166;" horiz-adv-x="533" 
d="M286 352h129c1 -5 0 -10 -3 -15h-129l-72 -335s-2 -2 -8 -2c-5 0 -8 2 -8 2l72 335h-128c-1 5 0 10 3 15h128l75 353h-220s-2 3 0 8c1 6 3 7 3 7h451s2 0 1 -7c-2 -6 -4 -8 -4 -8h-215z" />
    <glyph glyph-name="Tcaron" unicode="&#x164;" horiz-adv-x="522" 
d="M123 720h451s2 0 1 -7c-2 -6 -4 -8 -4 -8h-215l-150 -703s-2 -2 -8 -2c-5 0 -7 2 -7 2l150 703h-221s-2 3 0 8c1 6 3 7 3 7zM357 774l-105 101c2 4 5 8 10 10l103 -98l146 98c5 -1 7 -5 6 -10l-147 -101h-13z" />
    <glyph glyph-name="Thorn" unicode="&#xde;" horiz-adv-x="599" 
d="M202 718c0 0 1 2 8 2s7 -2 7 -2l-33 -151h225c116 0 170 -73 144 -196c-26 -121 -110 -193 -226 -193h-225l-38 -176s0 -2 -7 -2s-8 2 -8 2zM181 552l-76 -359h227c106 0 182 66 206 177c24 114 -24 182 -130 182h-227z" />
    <glyph glyph-name="U" unicode="U" horiz-adv-x="665" 
d="M646 718l-107 -502c-30 -142 -128 -226 -274 -226c-141 0 -206 84 -176 226l107 502s3 2 8 2c6 0 7 -2 7 -2l-107 -503c-28 -132 29 -209 163 -210c132 -1 229 78 257 210l107 503s3 2 6 2c5 0 9 -2 9 -2z" />
    <glyph glyph-name="Uacute" unicode="&#xda;" horiz-adv-x="665" 
d="M646 718l-107 -502c-30 -142 -132 -226 -274 -226c-141 0 -206 84 -176 226l107 502s3 2 8 2c6 0 7 -2 7 -2l-107 -503c-28 -132 33 -210 165 -210s227 78 255 210l107 503s3 2 6 2c5 0 9 -2 9 -2zM381 768l157 152c5 -1 6 -5 8 -10l-156 -150c-5 1 -8 4 -9 8z" />
    <glyph glyph-name="Ubreve" unicode="&#x16c;" horiz-adv-x="665" 
d="M646 718l-107 -502c-30 -142 -132 -226 -274 -226c-141 0 -206 84 -176 226l107 502s3 2 8 2c6 0 7 -2 7 -2l-107 -503c-28 -132 33 -210 165 -210s227 78 255 210l107 503s3 2 6 2c5 0 9 -2 9 -2zM432 806c67 0 111 35 125 48c5 -3 6 -5 7 -10c0 0 -53 -52 -135 -52
s-113 52 -113 52c3 5 6 8 11 9c8 -10 38 -47 105 -47z" />
    <glyph glyph-name="Ucircumflex" unicode="&#xdb;" horiz-adv-x="665" 
d="M646 718l-107 -502c-30 -142 -132 -226 -274 -226c-141 0 -206 84 -176 226l107 502s3 2 8 2c6 0 7 -2 7 -2l-107 -503c-28 -132 33 -210 165 -210s227 78 255 210l107 503s3 2 6 2c5 0 9 -2 9 -2zM306 776c-5 2 -6 6 -6 10l148 101h13l104 -101c-1 -5 -5 -9 -10 -10
l-102 98z" />
    <glyph glyph-name="Udieresis" unicode="&#xdc;" horiz-adv-x="665" 
d="M646 718l-107 -502c-30 -142 -132 -226 -274 -226c-141 0 -206 84 -176 226l107 502s3 2 8 2c6 0 7 -2 7 -2l-107 -503c-28 -132 33 -210 165 -210s227 78 255 210l107 503s3 2 6 2c5 0 9 -2 9 -2zM392 839l-4 -20s-6 -4 -15 -4c-8 0 -13 4 -13 4l4 20s7 4 15 4
c9 0 13 -4 13 -4zM526 839l-4 -20s-6 -4 -15 -4c-8 0 -13 4 -13 4l4 20s7 4 15 4c9 0 13 -4 13 -4z" />
    <glyph glyph-name="Ugrave" unicode="&#xd9;" horiz-adv-x="665" 
d="M646 718l-107 -502c-30 -142 -132 -226 -274 -226c-141 0 -206 84 -176 226l107 502s3 2 8 2c6 0 7 -2 7 -2l-107 -503c-28 -132 33 -210 165 -210s227 78 255 210l107 503s3 2 6 2c5 0 9 -2 9 -2zM375 920c4 5 6 8 13 10l91 -152c-3 -4 -6 -7 -11 -8z" />
    <glyph glyph-name="Uhungarumlaut" unicode="&#x170;" horiz-adv-x="665" 
d="M479 895l-118 -113c-7 0 -9 3 -9 8l109 114c10 -1 13 -3 18 -9zM595 895l-118 -113c-7 0 -9 3 -9 8l109 114c10 -1 13 -3 18 -9zM646 718l-107 -502c-30 -142 -132 -226 -274 -226c-141 0 -206 84 -176 226l107 502s3 2 8 2c6 0 7 -2 7 -2l-107 -503
c-28 -132 33 -210 165 -210s227 78 255 210l107 503s3 2 6 2c5 0 9 -2 9 -2z" />
    <glyph glyph-name="Umacron" unicode="&#x16a;" horiz-adv-x="665" 
d="M646 718l-107 -502c-30 -142 -132 -226 -274 -226c-141 0 -206 84 -176 226l107 502s3 2 8 2c6 0 7 -2 7 -2l-107 -503c-28 -132 33 -210 165 -210s227 78 255 210l107 503s3 2 6 2c5 0 9 -2 9 -2zM564 821h-245c0 5 1 10 4 15h245c1 -5 0 -9 -4 -15z" />
    <glyph glyph-name="Uogonek" unicode="&#x172;" horiz-adv-x="665" 
d="M631 718c0 0 3 2 6 2c5 0 9 -2 9 -2l-107 -502c-24 -111 -91 -187 -187 -214c-54 -22 -102 -65 -113 -114c-8 -37 13 -51 52 -51c27 0 49 12 49 12c3 -4 4 -6 4 -11c0 0 -23 -15 -58 -15c-48 0 -71 23 -62 62c9 45 45 84 90 109c-15 -2 -33 -4 -49 -4
c-141 0 -206 84 -176 226l107 502s3 2 8 2c6 0 7 -2 7 -2l-107 -503c-28 -132 33 -210 165 -210s227 78 255 210z" />
    <glyph glyph-name="Uring" unicode="&#x16e;" horiz-adv-x="665" 
d="M646 718l-107 -502c-30 -142 -132 -226 -274 -226c-141 0 -206 84 -176 226l107 502s3 2 8 2c6 0 7 -2 7 -2l-107 -503c-28 -132 33 -210 165 -210s227 78 255 210l107 503s3 2 6 2c5 0 9 -2 9 -2zM430 775c-59 0 -96 35 -82 99c13 64 71 97 124 97c52 0 99 -32 85 -97
c-14 -64 -69 -99 -127 -99zM542 874c9 43 -13 83 -74 83c-60 0 -96 -41 -105 -83c-9 -43 9 -86 69 -86c61 0 101 44 110 86z" />
    <glyph glyph-name="Utilde" unicode="&#x168;" horiz-adv-x="665" 
d="M646 718l-107 -502c-30 -142 -132 -226 -274 -226c-141 0 -206 84 -176 226l107 502s3 2 8 2c6 0 7 -2 7 -2l-107 -503c-28 -132 33 -210 165 -210s227 78 255 210l107 503s3 2 6 2c5 0 9 -2 9 -2zM498 814c31 0 47 23 53 33c5 -1 8 -3 11 -7c0 0 -21 -41 -69 -41
c-45 0 -59 40 -97 40c-37 0 -53 -34 -53 -34c-6 1 -9 2 -11 6c0 0 19 43 70 43c38 0 51 -40 96 -40z" />
    <glyph glyph-name="V" unicode="V" horiz-adv-x="593" 
d="M132 718l105 -683h1l396 683s4 2 11 2s7 -2 7 -2l-420 -722c-1 -1 -2 -1 -3 0l-113 723s2 1 8 1c4 0 8 -2 8 -2z" />
    <glyph glyph-name="W" unicode="W" horiz-adv-x="934" 
d="M559 613l-6 72h-1s-19 -41 -35 -71l-324 -618c-1 -1 -2 -1 -3 0l-70 722s2 2 8 2c5 0 8 -2 8 -2l58 -609c5 -52 4 -77 4 -77h1s12 25 39 77l318 609s1 2 3 2s3 -2 3 -2l58 -609c5 -51 4 -79 4 -79h1s11 29 36 79l305 609s0 2 10 2c6 0 7 -2 7 -2l-364 -722
c-1 -1 -2 -1 -3 0z" />
    <glyph glyph-name="Wacute" unicode="&#x1e82;" horiz-adv-x="934" 
d="M616 -4l-61 618c-5 50 -2 71 -2 71h-1s-8 -21 -35 -71l-324 -618c-1 -1 -2 -1 -3 0l-70 722s2 2 8 2c5 0 8 -2 8 -2l58 -609c5 -52 6 -77 6 -77h1s10 25 37 77l318 609s1 2 3 2s3 -2 3 -2l58 -609c5 -51 4 -79 4 -79h1s12 29 36 79l306 609s0 2 9 2c6 0 7 -2 7 -2
l-364 -722c-1 -1 -2 -1 -3 0zM517 774l157 152c6 -1 7 -5 9 -10l-157 -150c-5 1 -7 4 -9 8z" />
    <glyph glyph-name="Wcircumflex" unicode="&#x174;" horiz-adv-x="934" 
d="M445 778c-4 2 -5 6 -6 10l149 101h13l103 -101c-1 -5 -4 -9 -10 -10l-102 98zM616 -4l-61 618c-5 50 -2 71 -2 71h-1s-8 -21 -35 -71l-324 -618c-1 -1 -2 -1 -3 0l-70 722s2 2 8 2c5 0 8 -2 8 -2l58 -609c5 -52 6 -77 6 -77h1s10 25 37 77l318 609s1 2 3 2s3 -2 3 -2
l58 -609c5 -51 4 -79 4 -79h1s12 29 36 79l306 609s0 2 9 2c6 0 7 -2 7 -2l-364 -722c-1 -1 -2 -1 -3 0z" />
    <glyph glyph-name="Wdieresis" unicode="&#x1e84;" horiz-adv-x="934" 
d="M616 -4l-61 618c-5 50 -2 71 -2 71h-1s-8 -21 -35 -71l-324 -618c-1 -1 -2 -1 -3 0l-70 722s2 2 8 2c5 0 8 -2 8 -2l58 -609c5 -52 6 -77 6 -77h1s10 25 37 77l318 609s1 2 3 2s3 -2 3 -2l58 -609c5 -51 4 -79 4 -79h1s12 29 36 79l306 609s0 2 9 2c6 0 7 -2 7 -2
l-364 -722c-1 -1 -2 -1 -3 0zM529 829l-4 -20s-6 -4 -15 -4c-8 0 -13 4 -13 4l4 20s7 4 15 4c9 0 13 -4 13 -4zM663 829l-4 -20s-6 -4 -15 -4c-8 0 -13 4 -13 4l4 20s7 4 15 4c9 0 13 -4 13 -4z" />
    <glyph glyph-name="Wgrave" unicode="&#x1e80;" horiz-adv-x="934" 
d="M616 -4l-61 618c-5 50 -2 71 -2 71h-1s-8 -21 -35 -71l-324 -618c-1 -1 -2 -1 -3 0l-70 722s2 2 8 2c5 0 8 -2 8 -2l58 -609c5 -52 6 -77 6 -77h1s10 25 37 77l318 609s1 2 3 2s3 -2 3 -2l58 -609c5 -51 4 -79 4 -79h1s12 29 36 79l306 609s0 2 9 2c6 0 7 -2 7 -2
l-364 -722c-1 -1 -2 -1 -3 0zM502 919c4 5 7 8 13 10l92 -152c-3 -4 -6 -7 -12 -8z" />
    <glyph glyph-name="X" unicode="X" horiz-adv-x="566" 
d="M609 718l-306 -357l158 -360s-3 -1 -9 -1c-3 0 -7 2 -7 2l-152 346l-297 -346c-3 -2 -8 -2 -12 -2c-2 0 -5 1 -7 2l309 361l-156 355s2 2 9 2c3 0 7 -2 7 -2l151 -343l293 343c7 3 14 3 19 0z" />
    <glyph glyph-name="Y" unicode="Y" horiz-adv-x="601" 
d="M648 718c0 0 2 2 10 2c9 0 9 -2 9 -2l-360 -412l-65 -304s-3 -2 -8 -2c-4 0 -7 2 -7 2l65 303l-176 413s3 2 10 2c6 0 7 -2 7 -2l168 -396z" />
    <glyph glyph-name="Yacute" unicode="&#xdd;" horiz-adv-x="601" 
d="M648 718c0 0 3 2 10 2c9 0 9 -2 9 -2l-360 -412l-65 -304s-3 -2 -8 -2c-4 0 -7 2 -7 2l65 303l-176 413s3 2 10 2c6 0 7 -2 7 -2l168 -396zM358 771l156 152c6 -1 7 -5 9 -10l-157 -150c-5 1 -7 4 -8 8z" />
    <glyph glyph-name="Ycircumflex" unicode="&#x176;" horiz-adv-x="601" 
d="M280 780c-5 2 -6 6 -6 10l148 101h13l104 -101c-1 -5 -5 -9 -10 -10l-102 98zM648 718c0 0 2 2 10 2c9 0 9 -2 9 -2l-360 -412l-65 -304s-3 -2 -8 -2c-4 0 -7 2 -7 2l65 303l-176 413s3 2 10 2c5 0 7 -2 7 -2l168 -396z" />
    <glyph glyph-name="Ydieresis" unicode="&#x178;" horiz-adv-x="601" 
d="M648 718c0 0 2 2 10 2c9 0 9 -2 9 -2l-360 -412l-65 -304s-3 -2 -8 -2c-4 0 -7 2 -7 2l65 303l-176 413s3 2 10 2c5 0 7 -2 7 -2l168 -396zM359 837l-4 -20s-6 -4 -15 -4c-8 0 -13 4 -13 4l4 20s7 4 15 4c9 0 13 -4 13 -4zM493 837l-4 -20s-6 -4 -15 -4c-8 0 -13 4 -13 4
l4 20s7 4 15 4c9 0 13 -4 13 -4z" />
    <glyph glyph-name="Ygrave" unicode="&#x1ef2;" horiz-adv-x="601" 
d="M648 718c0 0 2 2 10 2c9 0 9 -2 9 -2l-360 -412l-65 -304s-3 -2 -8 -2c-4 0 -7 2 -7 2l65 303l-176 413s3 2 10 2c6 0 7 -2 7 -2l168 -396zM334 911c4 5 6 8 13 10l91 -152c-2 -4 -6 -7 -11 -8z" />
    <glyph glyph-name="Z" unicode="Z" horiz-adv-x="562" 
d="M158 720h433c1 -5 0 -11 -3 -16l-590 -689h456c5 -7 -3 -15 -3 -15h-473c-1 5 0 11 3 16l590 689h-416c-2 5 -1 10 3 15z" />
    <glyph glyph-name="Zacute" unicode="&#x179;" horiz-adv-x="562" 
d="M158 720h433c1 -5 0 -11 -3 -16l-590 -689h456c0 3 2 1 0 -8c-1 -9 -5 -11 -3 -7h-473c-1 5 0 11 3 16l590 689h-416c0 -4 -3 -2 -1 6c2 10 6 12 4 9zM350 785l156 152c6 -1 7 -5 9 -10l-157 -150c-5 1 -7 4 -8 8z" />
    <glyph glyph-name="Zcaron" unicode="&#x17d;" horiz-adv-x="562" 
d="M158 720h433c1 -5 0 -11 -3 -16l-590 -689h456c0 3 2 1 0 -8c-1 -9 -5 -11 -3 -7h-473c-1 5 0 11 3 16l590 689h-416c0 -4 -3 -2 -1 6c2 10 6 12 4 9zM385 774l-105 101c2 4 5 8 10 10l105 -98l144 98c5 -1 7 -5 6 -10l-147 -101h-13z" />
    <glyph glyph-name="Zdotaccent" unicode="&#x17b;" horiz-adv-x="562" 
d="M390 831c0 0 5 1 15 1c11 0 15 -1 15 -1l-6 -28s-5 -1 -16 -1c-10 0 -14 1 -14 1zM158 720h433c1 -5 0 -11 -3 -16l-590 -689h456c0 3 2 1 0 -8c-1 -9 -5 -11 -3 -7h-473c-1 5 0 11 3 16l590 689h-416c0 -4 -3 -2 -1 6c2 10 6 12 4 9z" />
    <glyph glyph-name="_0020" horiz-adv-x="0" 
 />
    <glyph glyph-name="_375" horiz-adv-x="646" 
d="M335 718l127 -701c-4 -7 -9 -13 -15 -17h-551c-5 4 -9 11 -9 17l430 701c9 5 18 0 18 0zM447 15l-124 691l-423 -691h547z" />
    <glyph glyph-name="_376" horiz-adv-x="700" 
d="M280 16h203c3 -2 3 -4 2 -8c-1 -3 -4 -7 -5 -8h-223c-3 4 -1 15 4 20c67 36 229 164 271 360c46 220 -16 335 -184 335s-280 -115 -326 -335c-40 -188 66 -318 117 -360c5 -3 2 -16 -4 -20h-223c-1 1 -2 5 -1 8c1 4 2 6 4 8h206c-10 5 -164 136 -115 364
c49 230 167 350 345 350s246 -120 197 -350c-48 -223 -231 -344 -268 -364z" />
    <glyph glyph-name="a" unicode="a" 
d="M310 536c81 0 138 -43 153 -129l26 119s2 2 7 2c6 0 8 -2 8 -2l-112 -524s-2 -2 -8 -2s-7 2 -7 2l26 121c-43 -76 -111 -133 -202 -133c-130 0 -179 94 -141 273s124 273 250 273zM449 341c16 85 -27 180 -140 180c-117 0 -198 -88 -234 -258s6 -258 128 -258
c116 0 198 108 216 195z" />
    <glyph glyph-name="aacute" unicode="&#xe1;" 
d="M296 621l156 152c6 -1 7 -5 9 -10l-157 -150c-5 1 -7 4 -8 8zM310 536c81 0 138 -43 153 -129l26 119s2 2 7 2c6 0 8 -2 8 -2l-112 -524s-2 -2 -8 -2s-7 2 -7 2l26 121c-43 -76 -111 -133 -202 -133c-131 0 -179 94 -141 273s124 273 250 273zM449 341
c16 85 -33 180 -141 180c-117 0 -197 -88 -233 -258s8 -258 130 -258c116 0 196 108 214 195z" />
    <glyph glyph-name="abreve" unicode="&#x103;" 
d="M347 654c67 0 110 35 125 48c5 -3 6 -5 7 -10c0 0 -53 -52 -135 -52s-113 52 -113 52c3 5 6 8 11 9c8 -10 38 -47 105 -47zM310 536c81 0 138 -43 153 -129l26 119s2 2 7 2c6 0 8 -2 8 -2l-112 -524s-2 -2 -8 -2s-7 2 -7 2l26 121c-43 -76 -111 -133 -202 -133
c-131 0 -179 94 -141 273s124 273 250 273zM449 341c16 85 -33 180 -141 180c-117 0 -197 -88 -233 -258s8 -258 130 -258c116 0 196 108 214 195z" />
    <glyph glyph-name="acircumflex" unicode="&#xe2;" 
d="M215 609c-4 2 -5 6 -5 10l148 101h13l104 -101c-2 -5 -5 -9 -11 -10l-102 98zM310 536c81 0 138 -43 153 -129l26 119s2 2 7 2c6 0 8 -2 8 -2l-112 -524s-2 -2 -8 -2s-7 2 -7 2l26 121c-43 -76 -111 -133 -202 -133c-131 0 -179 94 -141 273s124 273 250 273zM449 341
c16 85 -33 180 -141 180c-117 0 -197 -88 -233 -258s8 -258 130 -258c116 0 196 108 214 195z" />
    <glyph glyph-name="acute" unicode="&#xb4;" horiz-adv-x="224" 
d="M24 653l156 152c6 -1 9 -4 11 -9l-157 -152c-5 1 -9 5 -10 9z" />
    <glyph glyph-name="adieresis" unicode="&#xe4;" 
d="M306 701l-4 -18s-5 -3 -13 -3c-7 0 -11 3 -11 3l4 18s6 3 13 3c8 0 11 -3 11 -3zM440 701l-4 -18s-5 -3 -13 -3c-7 0 -11 3 -11 3l4 18s6 3 13 3c8 0 11 -3 11 -3zM310 536c81 0 138 -43 153 -129l26 119s2 2 7 2c6 0 8 -2 8 -2l-112 -524s-2 -2 -8 -2s-7 2 -7 2l26 121
c-43 -76 -111 -133 -202 -133c-131 0 -179 94 -141 273s124 273 250 273zM449 341c16 85 -33 180 -141 180c-117 0 -197 -88 -233 -258s8 -258 130 -258c116 0 196 108 214 195z" />
    <glyph glyph-name="ae" unicode="&#xe6;" horiz-adv-x="801" 
d="M442 408c47 86 115 128 189 128c110 0 139 -82 119 -179c-11 -52 -30 -88 -30 -88h-311c-32 -174 2 -264 108 -264c81 0 130 43 130 43c6 -2 8 -5 9 -11c0 0 -54 -47 -143 -47c-74 0 -127 43 -132 146c0 6 2 26 3 32l48 218c2 5 8 17 10 22zM735 360
c18 84 -4 161 -107 161c-89 0 -177 -68 -216 -237h300s14 31 23 76zM293 536c81 0 122 -38 132 -122l24 112s2 2 7 2c6 0 8 -2 8 -2l-112 -524s-2 -2 -8 -2s-7 2 -7 2l24 111c-35 -71 -86 -123 -177 -123c-120 0 -162 94 -124 273s118 273 233 273zM409 341
c16 85 -10 180 -118 180c-106 0 -180 -88 -216 -258s3 -258 113 -258c116 0 173 108 191 195z" />
    <glyph glyph-name="aeacute" unicode="&#x1fd;" horiz-adv-x="801" 
d="M432 619l156 152c6 -1 7 -5 9 -10l-157 -150c-5 1 -7 4 -8 8zM442 408c47 86 115 128 189 128c110 0 139 -82 119 -179c-11 -52 -30 -88 -30 -88h-311c-32 -174 2 -264 108 -264c81 0 130 43 130 43c6 -2 8 -5 9 -11c0 0 -54 -47 -143 -47c-74 0 -127 43 -132 146
c0 6 2 26 3 32l48 218c2 5 8 17 10 22zM735 360c18 84 -4 161 -107 161c-89 0 -177 -68 -216 -237h300s14 31 23 76zM293 536c81 0 122 -38 132 -122l24 112s2 2 7 2c6 0 8 -2 8 -2l-112 -524s-2 -2 -8 -2s-7 2 -7 2l24 111c-35 -71 -86 -123 -177 -123
c-120 0 -162 94 -124 273s118 273 233 273zM409 341c16 85 -10 180 -118 180c-106 0 -180 -88 -216 -258s3 -258 113 -258c116 0 173 108 191 195z" />
    <glyph glyph-name="agrave" unicode="&#xe0;" 
d="M290 761c4 5 6 8 13 10l92 -152c-3 -4 -7 -7 -12 -8zM310 536c81 0 138 -43 153 -129l26 119s2 2 7 2c6 0 8 -2 8 -2l-112 -524s-2 -2 -8 -2s-7 2 -7 2l26 121c-43 -76 -111 -133 -202 -133c-131 0 -179 94 -141 273s124 273 250 273zM449 341c16 85 -33 180 -141 180
c-117 0 -197 -88 -233 -258s8 -258 130 -258c116 0 196 108 214 195z" />
    <glyph glyph-name="amacron" unicode="&#x101;" 
d="M480 675h-235c-1 5 1 10 4 15h235c1 -5 0 -9 -4 -15zM310 536c81 0 138 -43 153 -129l26 119s2 2 7 2c6 0 8 -2 8 -2l-112 -524s-2 -2 -8 -2s-7 2 -7 2l26 121c-43 -76 -111 -133 -202 -133c-131 0 -179 94 -141 273s124 273 250 273zM449 341c16 85 -33 180 -141 180
c-117 0 -197 -88 -233 -258s8 -258 130 -258c116 0 196 108 214 195z" />
    <glyph glyph-name="ampersand" unicode="&#x26;" horiz-adv-x="622" 
d="M411 88c35 -27 72 -54 120 -74c-1 -7 -3 -11 -9 -15c-45 19 -89 48 -125 77c-62 -50 -138 -86 -226 -86c-94 0 -172 50 -146 168c21 103 103 156 192 198c-11 53 -12 104 -1 155c24 113 94 179 190 179c85 0 115 -60 103 -118c-28 -127 -157 -169 -274 -223
c25 -102 82 -183 165 -252c56 49 100 112 125 175c7 -1 10 -4 13 -10c-26 -58 -69 -122 -127 -174zM398 674c-83 0 -145 -60 -166 -161c-11 -50 -10 -101 0 -150c114 53 236 94 260 207c14 63 -22 104 -94 104zM220 342c-84 -40 -159 -89 -180 -185
c-20 -96 38 -152 135 -152c78 0 151 32 211 80c-81 71 -140 155 -166 257z" />
    <glyph glyph-name="aogonek" unicode="&#x105;" 
d="M322 -167c18 0 34 4 49 12c3 -4 4 -6 4 -11c0 0 -23 -15 -58 -15c-48 0 -71 23 -62 62c12 58 64 101 123 126l25 116c-43 -76 -111 -133 -202 -133c-131 0 -179 94 -141 273s124 273 250 273c81 0 138 -43 153 -129l26 119s2 2 7 2c6 0 8 -2 8 -2l-112 -525
c-58 -22 -111 -66 -122 -117c-8 -37 13 -51 52 -51zM75 263c-36 -170 8 -258 130 -258c116 0 196 108 214 195l30 141c16 85 -33 180 -141 180c-117 0 -197 -88 -233 -258z" />
    <glyph glyph-name="approxequal" unicode="&#x2248;" horiz-adv-x="535" 
d="M171 231c-52 0 -93 -42 -93 -42c-6 0 -9 3 -9 9c0 0 45 48 106 48c66 0 81 -61 144 -61c57 0 95 40 95 40c6 0 9 -2 10 -7c0 0 -44 -48 -109 -48c-66 0 -81 61 -144 61zM202 376c-52 0 -93 -42 -93 -42c-6 0 -9 3 -9 9c0 0 45 48 106 48c66 0 81 -61 144 -61
c57 0 95 40 95 40c6 0 9 -2 10 -7c0 0 -44 -48 -109 -48c-66 0 -81 61 -144 61z" />
    <glyph glyph-name="aring" unicode="&#xe5;" 
d="M333 604c-59 0 -95 35 -82 99c14 64 72 97 125 97c52 0 98 -32 84 -97c-13 -64 -69 -99 -127 -99zM445 703c10 43 -12 83 -73 83c-60 0 -97 -41 -106 -83c-9 -43 10 -86 70 -86c61 0 100 44 109 86zM310 536c81 0 138 -43 153 -129l26 119s2 2 7 2c6 0 8 -2 8 -2
l-112 -524s-2 -2 -8 -2s-7 2 -7 2l26 121c-43 -76 -111 -133 -202 -133c-131 0 -179 94 -141 273s124 273 250 273zM449 341c16 85 -33 180 -141 180c-117 0 -197 -88 -233 -258s8 -258 130 -258c116 0 196 108 214 195z" />
    <glyph glyph-name="aringacute" unicode="&#x1fb;" 
d="M339 581c-56 0 -91 32 -78 93s67 90 118 90c50 0 94 -28 81 -90c-13 -61 -66 -93 -121 -93zM446 674c9 41 -12 77 -70 77c-57 0 -92 -37 -101 -77c-8 -41 10 -80 67 -80c58 0 96 40 104 80zM334 796l139 98c5 -1 6 -6 7 -11l-140 -96c-4 1 -6 5 -6 9zM310 536
c81 0 138 -43 153 -129l26 119s2 2 7 2c6 0 8 -2 8 -2l-112 -524s-2 -2 -8 -2s-7 2 -7 2l26 121c-43 -76 -111 -133 -202 -133c-131 0 -179 94 -141 273s124 273 250 273zM449 341c16 85 -33 180 -141 180c-117 0 -197 -88 -233 -258s8 -258 130 -258c116 0 196 108 214 195
z" />
    <glyph glyph-name="arrowdown" unicode="&#x2193;" horiz-adv-x="482" 
d="M208 127l217 178c5 -2 8 -5 8 -10l-238 -196l-154 196c3 5 5 8 13 10l139 -177l100 471c-3 -1 1 1 8 1s10 -2 7 -1z" />
    <glyph glyph-name="arrowleft" unicode="&#x2190;" horiz-adv-x="616" 
d="M301 546c5 -1 7 -4 8 -10l-216 -179h472c-1 3 1 0 -1 -7c-1 -7 -4 -11 -2 -8h-471l139 -177c-3 -7 -7 -9 -12 -11l-155 196z" />
    <glyph glyph-name="arrowright" unicode="&#x2192;" horiz-adv-x="616" 
d="M544 357l-140 179c3 6 7 9 12 10l154 -196l-237 -196c-5 2 -7 4 -8 11l215 177h-471c0 -3 -1 1 0 8c2 7 4 10 3 7h472z" />
    <glyph glyph-name="arrowup" unicode="&#x2191;" horiz-adv-x="484" 
d="M460 404c-2 -5 -6 -8 -12 -10l-141 178l-101 -472c3 1 0 -1 -7 -1s-11 2 -8 1l100 471l-214 -177c-7 2 -8 5 -9 10l237 196z" />
    <glyph glyph-name="asciicircum" unicode="^" horiz-adv-x="511" 
d="M357 718l120 -264c-7 -3 -12 -3 -19 0l-115 252l-223 -252c-6 -3 -13 -3 -19 0l235 264s1 2 10 2c10 0 11 -2 11 -2z" />
    <glyph glyph-name="asciitilde" unicode="~" horiz-adv-x="536" 
d="M193 335c-52 0 -93 -42 -93 -42c-6 0 -9 3 -9 9c0 0 45 48 106 48c66 0 81 -61 144 -61c57 0 95 40 95 40c6 0 9 -2 10 -7c0 0 -44 -48 -109 -48c-66 0 -81 61 -144 61z" />
    <glyph glyph-name="asterisk" unicode="*" horiz-adv-x="369" 
d="M234 607l19 91c6 2 10 2 15 0l-19 -91l98 28c3 -4 4 -6 2 -13l-100 -29l43 -82c-4 -3 -7 -6 -13 -8l-43 81l-76 -82c-5 2 -8 4 -11 8l78 83l-86 29c2 7 3 9 7 13z" />
    <glyph glyph-name="at" unicode="@" horiz-adv-x="916" 
d="M837 303c-30 -143 -98 -218 -199 -218c-41 0 -84 26 -77 100c-28 -56 -82 -100 -150 -100c-106 0 -147 66 -120 193s96 194 202 194c65 0 99 -42 107 -86l18 83c8 4 15 0 15 0l-53 -249c-19 -87 12 -120 63 -120c89 0 151 70 179 203c47 218 -60 362 -291 362
c-207 0 -398 -149 -449 -386c-50 -238 52 -379 276 -379c121 0 222 35 306 91c5 -2 7 -5 7 -11c-99 -65 -201 -95 -316 -95c-233 0 -340 146 -288 394c52 243 246 401 467 401c249 0 350 -159 303 -377zM306 278c-25 -117 11 -178 106 -178c80 0 139 66 154 128l21 96
c15 65 -16 133 -99 133c-95 0 -157 -61 -182 -179z" />
    <glyph glyph-name="atilde" unicode="&#xe3;" 
d="M403 663c31 0 47 23 53 33c5 -1 8 -3 10 -7c0 0 -20 -41 -68 -41c-45 0 -59 40 -97 40c-37 0 -53 -34 -53 -34c-6 1 -9 2 -11 6c0 0 19 43 70 43c38 0 51 -40 96 -40zM310 536c81 0 138 -43 153 -129l26 119s2 2 7 2c6 0 8 -2 8 -2l-112 -524s-2 -2 -8 -2s-7 2 -7 2
l26 121c-43 -76 -111 -133 -202 -133c-131 0 -179 94 -141 273s124 273 250 273zM449 341c16 85 -33 180 -141 180c-117 0 -197 -88 -233 -258s8 -258 130 -258c116 0 196 108 214 195z" />
    <glyph glyph-name="b" unicode="b" 
d="M206 748l-72 -340c51 82 132 128 208 128c126 0 172 -94 134 -273s-126 -273 -257 -273c-83 0 -135 57 -146 133l-26 -121s-1 -2 -7 -2s-8 2 -8 2l159 746s2 2 8 2c5 0 7 -2 7 -2zM461 263c36 170 -4 258 -121 258c-103 0 -199 -94 -220 -179l-31 -142
c-18 -87 22 -195 130 -195c122 0 206 88 242 258z" />
    <glyph glyph-name="backslash" unicode="\" horiz-adv-x="410" 
d="M138 747l169 -791c-6 -2 -12 -2 -16 0l-169 791c5 2 11 2 16 0z" />
    <glyph glyph-name="bar" unicode="|" horiz-adv-x="236" 
d="M213 788c6 2 11 2 15 0l-208 -983s-2 -2 -8 -2s-7 2 -7 2z" />
    <glyph glyph-name="braceleft" unicode="{" horiz-adv-x="327" 
d="M365 810h32c1 -5 0 -10 -3 -15h-31c-83 0 -129 -47 -145 -120l-54 -258c-9 -42 -20 -71 -49 -83c23 -13 22 -40 14 -82l-55 -258c-16 -74 10 -120 93 -120h31c1 -5 0 -10 -3 -15h-32c-89 0 -122 53 -105 133l56 264c10 46 3 71 -27 71h-37c0 5 1 10 4 15h37
c30 0 47 24 56 69l57 266c17 80 72 133 161 133z" />
    <glyph glyph-name="braceright" unicode="}" horiz-adv-x="328" 
d="M143 795c-1 5 0 10 3 15h32c89 0 122 -53 105 -133l-57 -266c-9 -45 -2 -69 28 -69h37c1 -5 0 -10 -4 -15h-37c-30 0 -47 -25 -57 -71l-56 -264c-17 -80 -72 -133 -161 -133h-32c-1 5 0 10 3 15h31c83 0 129 46 145 120l55 258c8 42 19 69 48 82c-23 12 -22 41 -13 83
l54 258c16 73 -10 120 -93 120h-31z" />
    <glyph glyph-name="bracketleft" unicode="[" horiz-adv-x="299" 
d="M218 810h150c1 -5 0 -10 -3 -15h-135l-202 -950h135c1 -5 0 -10 -3 -15h-150z" />
    <glyph glyph-name="bracketright" unicode="]" horiz-adv-x="298" 
d="M142 795c-1 5 0 10 3 15h150l-208 -980h-150c-1 5 0 10 3 15h135l202 950h-135z" />
    <glyph glyph-name="breve" unicode="&#x2d8;" horiz-adv-x="324" 
d="M144 650c67 0 113 35 127 48c5 -3 6 -5 7 -10c0 0 -53 -52 -135 -52s-113 52 -113 52c3 5 5 7 10 8c8 -10 35 -46 104 -46z" />
    <glyph glyph-name="brokenbar" unicode="&#xa6;" horiz-adv-x="200" 
d="M109 385l94 443s2 2 8 2s8 -2 8 -2l-94 -443s-3 -2 -9 -2s-7 2 -7 2zM-29 -265l94 445s3 2 9 2s7 -2 7 -2l-94 -445s-3 -2 -9 -2s-7 2 -7 2z" />
    <glyph glyph-name="bullet" unicode="&#x2022;" horiz-adv-x="272" 
d="M153 282c-3 -13 -14 -21 -28 -21c-13 0 -21 8 -18 21c3 14 15 22 28 22c14 0 21 -8 18 -22z" />
    <glyph glyph-name="c" unicode="c" horiz-adv-x="442" 
d="M323 521c-126 0 -211 -88 -247 -258s7 -258 137 -258c67 0 117 27 117 27c4 -2 6 -8 6 -13c0 0 -52 -29 -127 -29c-135 0 -186 96 -148 275s128 271 261 271c71 0 106 -22 106 -22c-1 -6 -5 -11 -10 -13c0 0 -33 20 -95 20z" />
    <glyph glyph-name="cacute" unicode="&#x107;" horiz-adv-x="442" 
d="M274 604l149 145c6 -1 7 -5 9 -10l-149 -143c-5 1 -8 4 -9 8zM323 521c-126 0 -211 -88 -247 -258s7 -258 137 -258c67 0 117 27 117 27c4 -2 6 -8 6 -13c0 0 -52 -29 -127 -29c-135 0 -186 96 -148 275s128 271 261 271c71 0 106 -22 106 -22c-1 -6 -5 -11 -10 -13
c0 0 -33 20 -95 20z" />
    <glyph glyph-name="caron" unicode="&#x2c7;" horiz-adv-x="404" 
d="M156 550l-106 101c2 4 6 7 11 9l102 -97l144 98c5 0 8 -5 8 -10l-146 -101h-13z" />
    <glyph glyph-name="ccaron" unicode="&#x10d;" horiz-adv-x="442" 
d="M324 603l-105 101c1 4 4 8 10 10l102 -98l146 98c5 -1 8 -5 7 -10l-147 -101h-13zM323 521c-126 0 -211 -88 -247 -258s7 -258 137 -258c67 0 117 27 117 27c4 -2 6 -8 6 -13c0 0 -52 -29 -127 -29c-135 0 -186 96 -148 275s128 271 261 271c71 0 106 -22 106 -22
c-1 -6 -5 -11 -10 -13c0 0 -33 20 -95 20z" />
    <glyph glyph-name="ccedilla" unicode="&#xe7;" horiz-adv-x="442" 
d="M61 265c38 179 128 271 261 271c71 0 106 -22 106 -22c-1 -6 -5 -11 -10 -13c0 0 -33 20 -95 20c-126 0 -211 -88 -247 -258s7 -258 137 -258c67 0 117 27 117 27c4 -2 6 -8 6 -13c0 0 -52 -29 -127 -29h-15l-25 -54c70 1 103 -29 94 -75c-13 -57 -51 -90 -121 -90
c-34 0 -58 10 -78 26c2 5 4 7 9 10c18 -15 40 -23 73 -23c51 0 91 23 103 78c8 37 -17 61 -73 61h-19l-4 6l29 62c-115 13 -156 108 -121 274z" />
    <glyph glyph-name="ccircumflex" unicode="&#x109;" horiz-adv-x="441" 
d="M208 604c-5 2 -7 7 -7 11l148 101h13l104 -101c-1 -5 -5 -9 -10 -10l-102 98zM323 521c-126 0 -211 -88 -247 -258s7 -258 137 -258c67 0 117 27 117 27c4 -2 6 -8 6 -13c0 0 -52 -29 -127 -29c-135 0 -186 96 -148 275s128 271 261 271c71 0 106 -22 106 -22
c-1 -6 -5 -11 -10 -13c0 0 -33 20 -95 20z" />
    <glyph glyph-name="cdotaccent" unicode="&#x10b;" horiz-adv-x="442" 
d="M359 703l-4 -20s-6 -4 -15 -4c-8 0 -13 4 -13 4l4 20s7 4 15 4c9 0 13 -4 13 -4zM323 521c-126 0 -211 -88 -247 -258s7 -258 137 -258c67 0 117 27 117 27c4 -2 6 -8 6 -13c0 0 -52 -29 -127 -29c-135 0 -186 96 -148 275s128 271 261 271c71 0 106 -22 106 -22
c-1 -6 -5 -11 -10 -13c0 0 -33 20 -95 20z" />
    <glyph glyph-name="cedilla" unicode="&#xb8;" horiz-adv-x="296" 
d="M-7 36l-28 -72c74 2 116 -30 106 -79c-13 -59 -53 -94 -126 -94c-36 0 -61 10 -83 27c2 5 5 8 10 11c19 -16 42 -24 77 -24c54 0 96 24 108 82c8 38 -25 64 -84 64h-20l-4 6l30 79h14z" />
    <glyph glyph-name="cent" unicode="&#xa2;" horiz-adv-x="457" 
d="M334 33c5 -2 6 -9 6 -14c0 0 -53 -28 -128 -29l-18 -91c-7 -4 -9 -3 -10 -3s-3 -1 -9 3l22 91c-119 2 -168 103 -132 273c36 172 122 266 248 273l17 91c8 2 10 2 11 2s3 0 8 -2l-21 -91c70 -2 104 -22 104 -22c-1 -6 -4 -11 -10 -14c0 0 -34 20 -96 20
c-126 0 -210 -88 -246 -257c-34 -161 7 -256 132 -256c67 0 122 26 122 26z" />
    <glyph glyph-name="circumflex" unicode="&#x2c6;" horiz-adv-x="396" 
d="M41 562c-5 1 -8 6 -8 10l148 101h13l104 -101c-2 -5 -4 -7 -10 -9l-101 97z" />
    <glyph glyph-name="colon" unicode=":" horiz-adv-x="206" 
d="M57 21l-4 -20s-6 -4 -15 -4c-8 0 -13 4 -13 4l4 20s7 4 15 4c9 0 13 -4 13 -4zM142 418l-4 -20s-6 -4 -15 -4c-8 0 -13 4 -13 4l4 20s7 4 15 4c9 0 13 -4 13 -4z" />
    <glyph glyph-name="comma" unicode="," horiz-adv-x="176" 
d="M-7 -70l-7 6s31 30 38 62c-4 0 -10 2 -10 2l4 20s4 2 13 2c8 0 11 -2 11 -2l-3 -17c-10 -44 -46 -73 -46 -73z" />
    <glyph glyph-name="commaaccentcomb" unicode="&#xf6c3;" horiz-adv-x="0" 
d="M-98 -70l-7 6s31 30 38 62c-4 0 -10 2 -10 2l4 20s4 2 13 2c8 0 11 -2 11 -2l-3 -17c-10 -44 -46 -73 -46 -73z" />
    <glyph glyph-name="commaaccentcomb.alt" horiz-adv-x="0" 
d="M90 699l6 -6s-30 -30 -37 -62c4 0 10 -2 10 -2l-5 -20s-3 -2 -12 -2c-8 0 -12 2 -12 2l4 17c9 44 46 73 46 73z" />
    <glyph glyph-name="copyright" unicode="&#xa9;" horiz-adv-x="809" 
d="M342 8c-183 0 -301 149 -262 332s220 331 403 331s299 -148 260 -331s-218 -332 -401 -332zM479 656c-175 0 -348 -141 -385 -316s76 -318 251 -318s346 143 383 318s-74 316 -249 316zM371 147c-111 0 -148 72 -121 200c28 131 95 199 206 199c66 0 94 -22 94 -22
c-1 -4 -5 -10 -9 -12c0 0 -36 20 -83 20c-108 0 -166 -57 -193 -185c-26 -121 8 -185 112 -185c51 0 99 20 99 20c2 -2 4 -6 4 -12c0 0 -40 -23 -109 -23z" />
    <glyph glyph-name="currency" unicode="&#xa4;" horiz-adv-x="585" 
d="M441 57l-59 75c-39 -29 -87 -47 -135 -47c-49 0 -89 18 -116 47l-90 -75s-4 -1 -8 6c-5 4 -3 8 -3 8l91 74c-23 33 -31 77 -20 126c10 48 36 93 74 126l-60 74s1 5 7 9c7 4 10 4 10 4l60 -73c39 28 86 46 134 46c47 0 87 -17 114 -47l89 74s2 0 8 -4c3 -4 3 -9 3 -9
l-89 -74c24 -34 32 -78 22 -126c-11 -49 -37 -93 -75 -126l59 -74s-1 -3 -6 -8c-6 -6 -10 -6 -10 -6zM323 441c-95 0 -186 -74 -206 -170c-21 -96 38 -170 133 -170c96 0 186 74 207 170c20 96 -38 170 -134 170z" />
    <glyph glyph-name="d" unicode="d" horiz-adv-x="554" 
d="M310 536c76 0 138 -46 153 -132l73 344s2 2 7 2c6 0 8 -2 8 -2l-159 -746s-2 -2 -8 -2s-7 2 -7 2l26 121c-43 -76 -111 -133 -202 -133c-131 0 -179 94 -141 273s124 273 250 273zM449 341c16 85 -33 180 -141 180c-117 0 -197 -88 -233 -258s5 -258 127 -258
c116 0 199 108 217 195z" />
    <glyph glyph-name="dagger" unicode="&#x2020;" horiz-adv-x="590" 
d="M203 -123l-9 10l123 560l-248 -3s-3 3 -2 9c1 5 6 8 6 8l247 -2l46 239s4 3 12 3c7 0 9 -3 9 -3l-54 -239l252 2s2 -2 0 -8c-1 -6 -4 -9 -4 -9l-251 3l-115 -560z" />
    <glyph glyph-name="daggerdbl" unicode="&#x2021;" horiz-adv-x="640" 
d="M290 132l248 3s2 -1 1 -9c-2 -6 -5 -8 -5 -8l-246 3l-47 -240s-1 -3 -12 -3c-9 0 -9 3 -9 3l55 240l-247 -3s-2 1 0 8c1 8 4 9 4 9l245 -3l29 157l38 158l-248 -3s-2 1 -1 9c2 7 5 9 5 9l247 -3l46 239s1 3 12 3c9 0 9 -3 9 -3l-54 -239l246 3s2 -1 0 -9
c-1 -8 -4 -9 -4 -9l-245 3l-30 -158z" />
    <glyph glyph-name="dcaron" unicode="&#x10f;" horiz-adv-x="564" 
d="M583 611c47 34 72 84 80 140c7 2 14 2 17 0c-8 -48 -38 -113 -87 -145c-6 -1 -10 1 -10 5zM310 536c88 0 143 -42 153 -130l73 342s2 2 7 2c6 0 8 -2 8 -2l-159 -746s-2 -2 -8 -2s-7 2 -7 2l26 121c-43 -76 -111 -133 -202 -133c-131 0 -179 94 -141 273s124 273 250 273
zM449 340c15 85 -23 181 -141 181c-117 0 -197 -88 -233 -258s8 -258 130 -258c116 0 196 108 214 195z" />
    <glyph glyph-name="dcroat" unicode="&#x111;" 
d="M531 653h75c1 -5 0 -10 -3 -15h-75l-136 -636s-2 -2 -8 -2s-7 2 -7 2l26 121c-43 -76 -111 -133 -202 -133c-131 0 -179 94 -141 273s124 273 250 273c81 0 138 -43 153 -129l50 231h-152c-1 5 0 10 3 15h152l20 95s2 2 7 2c6 0 8 -2 8 -2zM419 200l30 141
c16 85 -33 180 -141 180c-117 0 -197 -88 -233 -258s8 -258 130 -258c116 0 196 108 214 195z" />
    <glyph glyph-name="degree" unicode="&#xb0;" horiz-adv-x="365" 
d="M131 617c12 57 65 117 142 117c76 0 101 -58 89 -114c-12 -57 -62 -115 -138 -115c-80 0 -105 56 -93 112zM347 619c10 51 -11 100 -78 100s-112 -51 -123 -101c-10 -50 11 -98 80 -98c67 0 110 48 121 99z" />
    <glyph glyph-name="dieresis" unicode="&#xa8;" horiz-adv-x="455" 
d="M154 639l-4 -20s-6 -4 -15 -4c-8 0 -13 4 -13 4l4 20s7 4 15 4c9 0 13 -4 13 -4zM288 639l-4 -20s-6 -4 -15 -4c-8 0 -13 4 -13 4l4 20s7 4 15 4c9 0 13 -4 13 -4z" />
    <glyph glyph-name="divide" unicode="&#xf7;" horiz-adv-x="562" 
d="M463 283h-373c-1 5 0 10 3 15h373c1 -5 0 -10 -3 -15zM329 459l-5 -20s-6 -4 -15 -4c-8 0 -13 4 -13 4l5 20s6 4 14 4c9 0 14 -4 14 -4zM261 141l-4 -20s-6 -4 -15 -4c-8 0 -13 4 -13 4l4 20s7 4 15 4c9 0 13 -4 13 -4z" />
    <glyph glyph-name="dollar" unicode="$" horiz-adv-x="556" 
d="M126 501c-47 -224 388 -88 337 -329c-21 -99 -114 -164 -244 -170l-24 -123s-3 -2 -9 -2c-8 0 -10 2 -10 2l28 123c-122 -1 -193 32 -193 32c2 6 4 10 9 14c0 0 80 -30 177 -30c135 0 229 54 251 155c47 224 -387 89 -337 328c21 98 105 159 234 166l23 118s4 2 10 2
c7 0 11 -2 11 -2l-29 -117c114 1 169 -19 169 -19c-1 -6 -3 -11 -8 -15c0 0 -64 19 -155 19c-141 0 -220 -62 -240 -152z" />
    <glyph glyph-name="dotaccent" unicode="&#x2d9;" horiz-adv-x="176" 
d="M82 630l-4 -20s-6 -4 -15 -4c-8 0 -13 4 -13 4l4 20s7 4 15 4c9 0 13 -4 13 -4z" />
    <glyph glyph-name="dotlessi" unicode="&#x131;" horiz-adv-x="216" 
d="M162 524l-111 -522s-1 -2 -7 -2s-7 2 -7 2l111 522s2 2 8 2s6 -2 6 -2z" />
    <glyph glyph-name="dotlessj" unicode="&#x237;" horiz-adv-x="217" 
d="M17 -92l131 616c5 3 11 3 14 0l-130 -615c-25 -115 -76 -160 -156 -160c-24 0 -46 5 -64 16c1 5 4 9 8 12c15 -10 39 -14 59 -14c73 0 118 51 138 145z" />
    <glyph glyph-name="e" unicode="e" horiz-adv-x="505" 
d="M423 259h-348c-32 -176 4 -254 129 -254c87 0 149 44 149 44c5 -1 8 -6 7 -11c0 0 -61 -48 -162 -48c-133 0 -175 95 -137 276c41 189 142 270 258 270c109 0 159 -66 136 -179c-13 -61 -32 -98 -32 -98zM440 360c22 101 -23 161 -123 161c-111 0 -200 -79 -239 -248h336
c0 -2 15 32 26 87z" />
    <glyph glyph-name="eacute" unicode="&#xe9;" horiz-adv-x="505" 
d="M423 259h-348c-32 -176 4 -254 129 -254c87 0 149 44 149 44c5 -1 8 -6 7 -11c0 0 -61 -48 -162 -48c-133 0 -175 95 -137 276c41 189 142 270 258 270c118 0 156 -82 136 -179c-13 -61 -32 -98 -32 -98zM440 360c18 84 -13 161 -124 161s-199 -78 -238 -247h337
c0 -2 14 31 25 86zM272 617l156 152c6 -1 7 -5 9 -10l-157 -150c-4 1 -7 4 -8 8z" />
    <glyph glyph-name="ebreve" unicode="&#x115;" horiz-adv-x="505" 
d="M423 259h-348c-32 -176 4 -254 129 -254c87 0 149 44 149 44c5 -1 8 -6 7 -11c0 0 -61 -48 -162 -48c-133 0 -175 95 -137 276c41 189 142 270 258 270c118 0 156 -82 136 -179c-13 -61 -32 -98 -32 -98zM440 360c18 84 -13 161 -124 161s-199 -78 -238 -247h337
c0 -2 14 31 25 86zM343 656c67 0 111 35 126 48c4 -3 6 -5 6 -10c0 0 -53 -52 -135 -52s-113 52 -113 52c4 5 6 8 11 9c8 -10 38 -47 105 -47z" />
    <glyph glyph-name="ecaron" unicode="&#x11b;" horiz-adv-x="505" 
d="M423 259h-348c-32 -176 4 -254 129 -254c87 0 149 44 149 44c5 -1 8 -6 7 -11c0 0 -61 -48 -162 -48c-133 0 -175 95 -137 276c41 189 142 270 258 270c118 0 156 -82 136 -179c-13 -61 -32 -98 -32 -98zM440 360c18 84 -13 161 -124 161s-199 -78 -238 -247h337
c0 -2 14 31 25 86zM325 602l-106 101c2 4 4 6 10 8l104 -96l146 98c4 -1 6 -5 5 -10l-146 -101h-13z" />
    <glyph glyph-name="ecircumflex" unicode="&#xea;" horiz-adv-x="505" 
d="M423 259h-348c-32 -176 4 -254 129 -254c87 0 149 44 149 44c5 -1 8 -6 7 -11c0 0 -61 -48 -162 -48c-133 0 -175 95 -137 276c41 189 142 270 258 270c118 0 156 -82 136 -179c-13 -61 -32 -98 -32 -98zM440 360c18 84 -13 161 -124 161s-199 -78 -238 -247h337
c0 -2 14 31 25 86zM211 601c-5 2 -8 6 -8 10l148 101h13l104 -101c-1 -5 -5 -9 -10 -10l-102 98z" />
    <glyph glyph-name="edieresis" unicode="&#xeb;" horiz-adv-x="505" 
d="M423 259h-348c-32 -176 4 -254 129 -254c87 0 149 44 149 44c5 -1 8 -6 7 -11c0 0 -61 -48 -162 -48c-133 0 -175 95 -137 276c41 189 142 270 258 270c118 0 156 -82 136 -179c-13 -61 -32 -98 -32 -98zM440 360c18 84 -13 161 -124 161s-199 -78 -238 -247h337
c0 -2 14 31 25 86zM299 682l-4 -20s-6 -4 -15 -4c-8 0 -13 4 -13 4l4 20s7 4 15 4c9 0 13 -4 13 -4zM433 682l-4 -20s-6 -4 -15 -4c-8 0 -13 4 -13 4l4 20s7 4 15 4c9 0 13 -4 13 -4z" />
    <glyph glyph-name="edotaccent" unicode="&#x117;" horiz-adv-x="505" 
d="M372 695l-7 -30s-5 -2 -17 -2c-11 0 -17 2 -17 2l7 30s6 2 17 2c12 0 17 -2 17 -2zM423 259h-348c-32 -176 4 -254 129 -254c87 0 149 44 149 44c5 -1 8 -6 7 -11c0 0 -61 -48 -162 -48c-133 0 -175 95 -137 276c41 189 142 270 258 270c118 0 156 -82 136 -179
c-13 -61 -32 -98 -32 -98zM440 360c18 84 -13 161 -124 161s-199 -78 -238 -247h337c0 -2 14 31 25 86z" />
    <glyph glyph-name="egrave" unicode="&#xe8;" horiz-adv-x="505" 
d="M423 259h-348c-32 -176 4 -254 129 -254c87 0 149 44 149 44c5 -1 8 -6 7 -11c0 0 -61 -48 -162 -48c-133 0 -175 95 -137 276c41 189 142 270 258 270c118 0 156 -82 136 -179c-13 -61 -32 -98 -32 -98zM440 360c18 84 -13 161 -124 161s-199 -78 -238 -247h337
c0 -2 14 31 25 86zM283 759c4 5 7 8 13 10l92 -152c-3 -4 -6 -7 -12 -8z" />
    <glyph glyph-name="eight" unicode="8" horiz-adv-x="580" 
d="M529 533c-24 -110 -123 -169 -169 -192c76 -34 138 -81 116 -184c-22 -105 -116 -167 -252 -167s-204 61 -182 164c27 126 152 200 198 224c-63 33 -111 77 -94 160c21 96 104 152 224 152c115 0 178 -64 159 -157zM366 676c-111 0 -186 -52 -204 -137
c-25 -117 87 -149 183 -191c53 24 147 85 169 187c17 84 -37 141 -148 141zM57 155c-20 -94 41 -150 168 -150s216 56 236 152c28 132 -96 162 -207 214c-35 -15 -171 -94 -197 -216z" />
    <glyph glyph-name="eight.denom" horiz-adv-x="322" 
d="M254 267c-10 -47 -47 -78 -84 -96c37 -19 66 -43 57 -88c-12 -55 -61 -88 -131 -88c-72 0 -107 33 -95 89c12 55 57 89 96 107c-31 18 -52 41 -43 80c10 48 53 77 116 77s95 -30 84 -81zM167 336c-55 0 -93 -24 -101 -65c-13 -57 42 -74 93 -95c48 24 74 52 83 91
c9 43 -19 69 -75 69zM13 84c-10 -48 21 -77 86 -77c62 0 105 27 115 74c13 63 -48 77 -106 105c-37 -18 -84 -47 -95 -102z" />
    <glyph glyph-name="eight.num" horiz-adv-x="322" 
d="M327 613c-10 -47 -46 -78 -83 -96c37 -19 66 -43 56 -88c-12 -55 -61 -88 -131 -88c-72 0 -107 33 -95 89c12 55 57 89 97 107c-31 18 -52 41 -44 80c10 48 53 77 116 77s95 -30 84 -81zM241 682c-55 0 -93 -24 -102 -65c-12 -57 43 -74 94 -95c47 24 74 52 82 91
c9 43 -18 69 -74 69zM86 430c-10 -48 22 -77 87 -77c62 0 105 27 115 74c13 63 -49 77 -107 105c-37 -18 -83 -47 -95 -102z" />
    <glyph glyph-name="eightinferior" unicode="&#x2088;" horiz-adv-x="322" 
d="M233 170c-10 -47 -46 -78 -83 -96c37 -19 66 -43 56 -88c-12 -55 -61 -88 -131 -88c-72 0 -107 33 -95 89c12 55 57 89 97 107c-31 18 -52 41 -44 80c10 48 53 77 116 77s95 -30 84 -81zM147 239c-55 0 -93 -24 -102 -65c-12 -57 43 -74 94 -95c47 24 74 52 82 91
c9 43 -18 69 -74 69zM-8 -13c-10 -48 22 -77 87 -77c62 0 105 27 115 74c13 63 -49 77 -107 105c-37 -18 -83 -47 -95 -102z" />
    <glyph glyph-name="ellipsis" unicode="&#x2026;" horiz-adv-x="437" 
d="M46 21l-4 -20s-6 -4 -15 -4c-8 0 -13 4 -13 4l4 20s7 4 15 4c9 0 13 -4 13 -4zM176 21l-4 -20s-6 -4 -15 -4c-8 0 -13 4 -13 4l4 20s7 4 15 4c9 0 13 -4 13 -4zM304 21l-4 -20s-6 -4 -15 -4c-8 0 -13 4 -13 4l4 20s7 4 15 4c9 0 13 -4 13 -4z" />
    <glyph glyph-name="emacron" unicode="&#x113;" horiz-adv-x="505" 
d="M423 259h-348c-32 -176 4 -254 129 -254c87 0 149 44 149 44c5 -1 8 -6 7 -11c0 0 -61 -48 -162 -48c-133 0 -175 95 -137 276c41 189 142 270 258 270c118 0 156 -82 136 -179c-13 -61 -32 -98 -32 -98zM440 360c18 84 -13 161 -124 161s-199 -78 -238 -247h337
c0 -2 14 31 25 86zM468 663h-235c-1 5 0 10 3 15h235c1 -5 0 -9 -3 -15z" />
    <glyph glyph-name="emdash" unicode="&#x2014;" horiz-adv-x="799" 
d="M705 281h-622c-1 5 0 10 3 15h622c1 -5 0 -10 -3 -15z" />
    <glyph glyph-name="endash" unicode="&#x2013;" horiz-adv-x="549" 
d="M455 281h-372c-1 5 0 10 3 15h372c1 -5 0 -10 -3 -15z" />
    <glyph glyph-name="eng" unicode="&#x14b;" horiz-adv-x="553" 
d="M133 403c62 90 140 133 225 133c93 0 139 -56 120 -147l-96 -449c-17 -83 -39 -139 -135 -168c-3 3 -3 9 -1 14c76 22 103 63 122 152l95 450c19 86 -24 134 -110 134c-75 0 -157 -37 -227 -150l-79 -370c-4 -3 -10 -3 -14 0l111 522c5 3 11 3 14 0z" />
    <glyph glyph-name="eogonek" unicode="&#x119;" horiz-adv-x="505" 
d="M319 536c118 0 156 -82 136 -179c-13 -61 -32 -98 -32 -98h-348c-32 -176 4 -254 129 -254c87 0 149 44 149 44c5 -1 8 -6 7 -11c0 0 -33 -26 -90 -40c-55 -21 -105 -57 -115 -108c-8 -37 13 -51 52 -51c27 0 48 12 48 12c3 -4 4 -6 4 -11c0 0 -22 -15 -57 -15
c-48 0 -71 23 -63 62c10 47 45 81 90 105c-10 -1 -20 -2 -31 -2c-133 0 -175 95 -137 276c41 189 142 270 258 270zM78 274h337c0 -2 14 31 25 86c18 84 -13 161 -124 161s-199 -78 -238 -247z" />
    <glyph glyph-name="equal" unicode="=" horiz-adv-x="510" 
d="M106 362c-1 5 0 10 3 15h320c1 -5 0 -10 -3 -15h-320zM391 200h-320c0 5 1 10 4 15h320c1 -5 0 -10 -4 -15z" />
    <glyph glyph-name="estimated" unicode="&#x212e;" horiz-adv-x="830" 
d="M566 95h67c-78 -68 -174 -105 -276 -105c-194 0 -319 158 -277 352c41 194 232 352 426 352s319 -158 278 -352l-5 -24h-544l-47 -218c47 -41 109 -67 178 -67c68 0 138 24 200 62zM675 583c-45 45 -108 68 -178 68c-69 0 -142 -23 -206 -67l-47 -222h384z" />
    <glyph glyph-name="eth" unicode="&#xf0;" horiz-adv-x="551" 
d="M505 711l-90 -54c81 -94 83 -243 48 -408c-39 -184 -128 -259 -258 -259c-131 0 -183 90 -146 262c36 172 124 262 250 262c93 0 156 -46 160 -146c7 127 -17 219 -70 280l-111 -67c-4 3 -6 6 -6 13l108 64c-39 39 -90 63 -152 75c-1 6 2 13 6 17c72 -15 124 -43 162 -82
l93 55c4 -2 6 -6 6 -12zM74 252c-35 -162 10 -247 132 -247c128 0 205 77 241 246c40 187 -32 248 -142 248c-117 0 -197 -86 -231 -247z" />
    <glyph glyph-name="exclam" unicode="!" horiz-adv-x="228" 
d="M72 142l123 576c5 2 10 2 15 0l-125 -576c-4 -2 -9 -2 -13 0zM67 21l-4 -20s-6 -4 -15 -4c-8 0 -13 4 -13 4l4 20s7 4 15 4c9 0 13 -4 13 -4z" />
    <glyph glyph-name="exclamdown" unicode="&#xa1;" horiz-adv-x="216" 
d="M9 -198c-6 -2 -11 -2 -15 0l123 577c4 2 9 2 13 0zM154 524c9 0 13 -4 13 -4l-4 -20s-6 -4 -15 -4c-8 0 -13 4 -13 4l4 20s7 4 15 4z" />
    <glyph glyph-name="f" unicode="f" horiz-adv-x="335" 
d="M174 590c25 114 74 160 174 160c44 0 81 -10 81 -10c0 -5 -2 -10 -6 -13c0 0 -32 8 -74 8c-97 0 -138 -41 -159 -144l-14 -65h174c1 -6 -3 -15 -3 -15h-174l-109 -509c-9 -5 -15 0 -15 0l109 509h-79c-3 8 3 15 3 15h79z" />
    <glyph glyph-name="five" unicode="5" horiz-adv-x="516" 
d="M129 364c21 4 53 10 106 10c156 0 212 -73 186 -196c-26 -120 -110 -188 -278 -188c-99 0 -140 23 -140 23c0 5 3 10 6 13c0 0 58 -22 133 -22c155 0 239 56 264 174c20 95 0 181 -174 181c-56 0 -114 -11 -121 -13l70 334h317c1 -6 1 -9 -3 -15h-302z" />
    <glyph glyph-name="five.denom" horiz-adv-x="304" 
d="M84 331l-28 -133c127 0 173 -29 157 -103c-14 -66 -65 -100 -148 -100c-46 0 -80 11 -80 11c0 3 0 8 6 11c0 0 34 -10 77 -10c75 0 121 30 133 87c14 66 -27 92 -142 92h-18l34 157h172c1 -2 0 -9 -3 -12h-160z" />
    <glyph glyph-name="five.num" horiz-adv-x="303" 
d="M157 677l-28 -133c127 0 172 -29 157 -103c-14 -66 -66 -100 -149 -100c-46 0 -79 11 -79 11c-1 3 -1 8 5 11c0 0 35 -10 78 -10c75 0 120 30 132 87c15 66 -26 92 -141 92h-18l33 157h172c2 -2 0 -9 -2 -12h-160z" />
    <glyph glyph-name="fiveeighths" unicode="&#x215d;" horiz-adv-x="733" 
d="M636 700c0 0 2 2 6 2c5 0 5 -2 5 -2l-539 -709s-1 -1 -6 -1c-6 0 -7 1 -7 1zM164 689h166c2 -2 0 -10 -2 -13h-153l-28 -132c105 0 168 -18 150 -103c-15 -70 -73 -100 -149 -100c-46 0 -79 11 -79 11c-1 3 -1 8 5 11c0 0 35 -10 78 -10c85 0 121 33 132 87
c15 70 -29 90 -135 90h-18zM456 271c9 45 48 77 117 77c63 0 95 -28 84 -81c-10 -48 -47 -78 -85 -96c37 -18 68 -40 58 -88c-12 -54 -61 -88 -131 -88c-66 0 -108 29 -95 89c12 56 58 89 97 108c-32 17 -54 39 -45 79zM644 267c9 44 -18 68 -75 68c-55 0 -92 -24 -100 -62
c-12 -57 40 -74 90 -97c42 24 76 52 85 91zM617 81c13 61 -50 78 -105 105c-29 -15 -84 -47 -96 -102c-12 -54 22 -77 86 -77c55 0 105 24 115 74z" />
    <glyph glyph-name="fiveinferior" unicode="&#x2085;" horiz-adv-x="304" 
d="M65 235l-28 -133c127 0 172 -29 157 -103c-14 -66 -66 -100 -149 -100c-46 0 -79 11 -79 11c-1 3 0 8 5 11c0 0 35 -10 78 -10c75 0 120 30 133 87c14 66 -27 92 -142 92h-18l33 157h172c2 -2 1 -9 -2 -12h-160z" />
    <glyph glyph-name="florin" unicode="&#x192;" horiz-adv-x="422" 
d="M410 691c44 0 72 -13 72 -13c0 -5 -2 -9 -8 -13c0 0 -33 11 -67 11c-63 0 -107 -31 -139 -137l-31 -97h110c1 -5 0 -10 -3 -15h-112l-130 -417c-36 -112 -90 -151 -160 -151c-36 0 -69 17 -69 17c-2 4 2 11 7 13c0 0 32 -15 64 -15c61 0 110 31 143 136l130 417h-104
c-1 5 0 10 3 15h106l31 97c35 114 85 152 157 152z" />
    <glyph glyph-name="four" unicode="4" horiz-adv-x="564" 
d="M22 205l448 473s2 2 9 2c5 0 6 -2 6 -2l-100 -473h113s1 -1 0 -8c-1 -6 -4 -7 -4 -7h-113l-40 -188s-2 -2 -8 -2c-7 0 -7 2 -7 2l40 188h-348s-1 1 0 7c1 7 4 8 4 8zM465 652l-424 -447h329z" />
    <glyph glyph-name="four.denom" horiz-adv-x="313" 
d="M193 116h37c1 -5 0 -7 -3 -12h-37l-22 -103c-4 -2 -8 -2 -12 0l22 103h-183c-1 3 2 7 2 7l233 231c6 2 11 0 11 0zM224 321l-208 -205h165z" />
    <glyph glyph-name="four.num" horiz-adv-x="312" 
d="M266 461h37c1 -5 0 -7 -3 -12h-37l-21 -103c-5 -2 -9 -2 -12 0l21 103h-183c-1 3 2 7 2 7l233 231c6 2 11 0 11 0zM298 666l-209 -205h165z" />
    <glyph glyph-name="fourinferior" unicode="&#x2084;" horiz-adv-x="313" 
d="M172 21h37c1 -5 1 -7 -2 -12h-37l-22 -103c-4 -2 -8 -2 -12 0l22 103h-183c-1 3 1 7 1 7l233 231c7 2 11 0 11 0zM204 226l-209 -205h165z" />
    <glyph glyph-name="fraction" unicode="&#x2044;" horiz-adv-x="120" 
d="M-212 -7l539 707c8 3 9 3 17 0l-539 -707c-7 -3 -10 -3 -17 0z" />
    <glyph glyph-name="g" unicode="g" horiz-adv-x="554" 
d="M489 524c0 0 2 2 8 2s7 -2 7 -2l-106 -498c-46 -219 -106 -276 -268 -276c-72 0 -129 21 -129 21c0 5 3 10 8 13c0 0 60 -20 124 -20c155 0 209 60 251 262l22 100c-49 -87 -135 -136 -211 -136c-126 0 -172 94 -134 273c39 186 126 273 257 273c77 0 135 -56 144 -139z
M417 184l30 142c19 87 -23 195 -131 195c-122 0 -202 -81 -240 -258c-37 -174 5 -258 121 -258c103 0 199 94 220 179z" />
    <glyph glyph-name="g.alt" horiz-adv-x="511" 
d="M394 509l129 25c2 -5 3 -7 -1 -15l-114 -22c28 -29 37 -71 25 -128c-22 -104 -99 -166 -208 -166c-26 0 -50 4 -69 11c-31 -24 -63 -55 -73 -99c-28 -134 348 -12 306 -211c-17 -81 -105 -154 -267 -154c-132 0 -175 68 -158 148c19 87 86 134 123 159
c-16 13 -24 31 -19 56c8 38 35 74 75 106c-50 26 -71 77 -56 150c23 105 100 167 209 167c41 0 74 -11 98 -27zM226 218c99 0 172 56 192 151c21 96 -25 152 -125 152c-99 0 -170 -56 -191 -152c-20 -95 25 -151 124 -151zM124 -235c134 0 232 58 250 141
c31 144 -188 99 -273 143c-66 -38 -109 -93 -122 -150c-17 -82 36 -134 145 -134z" />
    <glyph glyph-name="gbreve" unicode="&#x11f;" horiz-adv-x="554" 
d="M350 655c67 0 111 35 125 48c5 -3 6 -5 7 -10c0 0 -53 -52 -135 -52s-113 52 -113 52c3 5 6 8 11 9c8 -10 38 -47 105 -47zM489 524c0 0 2 2 8 2s7 -2 7 -2l-106 -498c-45 -213 -106 -276 -268 -276c-72 0 -129 21 -129 21c0 5 3 10 8 13c0 0 60 -20 124 -20
c155 0 209 60 251 262l22 100c-49 -87 -135 -136 -211 -136c-126 0 -173 90 -134 273c39 186 126 273 257 273c83 0 135 -56 144 -139zM417 184l30 142c19 87 -23 195 -131 195c-122 0 -203 -81 -240 -258c-37 -174 6 -258 123 -258c103 0 197 94 218 179z" />
    <glyph glyph-name="gbreve.alt" horiz-adv-x="511" 
d="M323 655c67 0 111 35 125 48c5 -3 6 -5 7 -10c0 0 -53 -52 -135 -52s-113 52 -113 52c3 5 6 8 11 9c8 -10 38 -47 105 -47zM394 509l129 25c2 -5 3 -7 -1 -15l-114 -22c28 -29 37 -71 25 -128c-22 -104 -99 -166 -208 -166c-26 0 -50 4 -69 11c-31 -24 -63 -55 -73 -99
c-28 -134 348 -12 306 -211c-17 -81 -105 -154 -267 -154c-132 0 -175 68 -158 148c19 87 86 134 123 159c-16 13 -24 31 -19 56c8 38 35 74 75 106c-50 26 -71 77 -56 150c23 105 100 167 209 167c41 0 74 -11 98 -27zM226 218c99 0 172 56 192 151c21 96 -25 152 -125 152
c-99 0 -170 -56 -191 -152c-20 -95 25 -151 124 -151zM124 -235c134 0 232 58 250 141c31 144 -188 99 -273 143c-66 -38 -109 -93 -122 -150c-17 -82 36 -134 145 -134z" />
    <glyph glyph-name="gcircumflex" unicode="&#x11d;" horiz-adv-x="554" 
d="M213 602c-5 2 -6 6 -6 10l149 101h13l103 -101c-1 -5 -5 -9 -10 -10l-102 98zM489 524c0 0 2 2 8 2s7 -2 7 -2l-106 -498c-45 -213 -106 -276 -268 -276c-72 0 -129 21 -129 21c0 5 3 10 8 13c0 0 60 -20 124 -20c155 0 209 60 251 262l22 100
c-49 -87 -135 -136 -211 -136c-126 0 -173 90 -134 273c39 186 126 273 257 273c83 0 135 -56 144 -139zM417 184l30 142c19 87 -23 195 -131 195c-122 0 -203 -81 -240 -258c-37 -174 6 -258 123 -258c103 0 197 94 218 179z" />
    <glyph glyph-name="gcircumflex.alt" horiz-adv-x="511" 
d="M187 601c-5 2 -7 7 -7 11l149 101h13l103 -101c-1 -5 -5 -8 -10 -9l-101 97zM394 509l129 25c2 -5 3 -7 -1 -15l-114 -22c28 -29 37 -71 25 -128c-22 -104 -99 -166 -208 -166c-26 0 -50 4 -69 11c-31 -24 -63 -55 -73 -99c-28 -134 348 -12 306 -211
c-17 -81 -105 -154 -267 -154c-132 0 -175 68 -158 148c19 87 86 134 123 159c-16 13 -24 31 -19 56c8 38 35 74 75 106c-50 26 -71 77 -56 150c23 105 100 167 209 167c41 0 74 -11 98 -27zM226 218c99 0 172 56 192 151c21 96 -25 152 -125 152c-99 0 -170 -56 -191 -152
c-20 -95 25 -151 124 -151zM124 -235c134 0 232 58 250 141c31 144 -188 99 -273 143c-66 -38 -109 -93 -122 -150c-17 -82 36 -134 145 -134z" />
    <glyph glyph-name="gcommaaccent" unicode="&#x123;" horiz-adv-x="554" 
d="M377 716l9 -6s-31 -18 -41 -59c7 0 11 -2 11 -2l-5 -21s-4 -1 -14 -1c-7 0 -12 1 -12 1l4 19c10 44 48 69 48 69zM489 524c0 0 2 2 8 2s7 -2 7 -2l-106 -498c-45 -213 -106 -276 -268 -276c-72 0 -129 21 -129 21c0 5 3 10 8 13c0 0 60 -20 124 -20c155 0 209 60 251 262
l22 100c-49 -87 -135 -136 -211 -136c-126 0 -173 90 -134 273c39 186 126 273 257 273c83 0 135 -56 144 -139zM417 184l30 142c19 87 -23 195 -131 195c-122 0 -203 -81 -240 -258c-37 -174 6 -258 123 -258c103 0 197 94 218 179z" />
    <glyph glyph-name="gcommaaccent.alt" horiz-adv-x="511" 
d="M357 710l9 -6s-31 -18 -41 -59c7 0 11 -2 11 -2l-5 -21s-4 -1 -14 -1c-7 0 -12 1 -12 1l4 19c10 44 48 69 48 69zM394 509l129 25c2 -5 3 -7 -1 -15l-114 -22c28 -29 37 -71 25 -128c-22 -104 -99 -166 -208 -166c-26 0 -50 4 -69 11c-31 -24 -63 -55 -73 -99
c-28 -134 348 -12 306 -211c-17 -81 -105 -154 -267 -154c-132 0 -175 68 -158 148c19 87 86 134 123 159c-16 13 -24 31 -19 56c8 38 35 74 75 106c-50 26 -71 77 -56 150c23 105 100 167 209 167c41 0 74 -11 98 -27zM226 218c99 0 172 56 192 151c21 96 -25 152 -125 152
c-99 0 -170 -56 -191 -152c-20 -95 25 -151 124 -151zM124 -235c134 0 232 58 250 141c31 144 -188 99 -273 143c-66 -38 -109 -93 -122 -150c-17 -82 36 -134 145 -134z" />
    <glyph glyph-name="gdotaccent" unicode="&#x121;" horiz-adv-x="554" 
d="M368 702l-6 -28s-4 -1 -15 -1c-10 0 -15 1 -15 1l6 28s5 1 15 1c11 0 15 -1 15 -1zM489 524c0 0 2 2 8 2s7 -2 7 -2l-106 -498c-45 -213 -106 -276 -268 -276c-72 0 -129 21 -129 21c0 5 3 10 8 13c0 0 60 -20 124 -20c155 0 209 60 251 262l22 100
c-49 -87 -135 -136 -211 -136c-126 0 -173 90 -134 273c39 186 126 273 257 273c83 0 135 -56 144 -139zM417 184l30 142c19 87 -23 195 -131 195c-122 0 -203 -81 -240 -258c-37 -174 6 -258 123 -258c103 0 197 94 218 179z" />
    <glyph glyph-name="gdotaccent.alt" horiz-adv-x="511" 
d="M349 702l-6 -28s-4 -1 -15 -1c-10 0 -15 1 -15 1l6 28s5 1 15 1c11 0 15 -1 15 -1zM394 509l129 25c2 -5 3 -7 -1 -15l-114 -22c28 -29 37 -71 25 -128c-22 -104 -99 -166 -208 -166c-26 0 -50 4 -69 11c-31 -24 -63 -55 -73 -99c-28 -134 348 -12 306 -211
c-17 -81 -105 -154 -267 -154c-132 0 -175 68 -158 148c19 87 86 134 123 159c-16 13 -24 31 -19 56c8 38 35 74 75 106c-50 26 -71 77 -56 150c23 105 100 167 209 167c41 0 74 -11 98 -27zM226 218c99 0 172 56 192 151c21 96 -25 152 -125 152c-99 0 -170 -56 -191 -152
c-20 -95 25 -151 124 -151zM124 -235c134 0 232 58 250 141c31 144 -188 99 -273 143c-66 -38 -109 -93 -122 -150c-17 -82 36 -134 145 -134z" />
    <glyph glyph-name="germandbls" unicode="&#xdf;" horiz-adv-x="570" 
d="M480 485c0 0 -136 14 -160 -101c-27 -128 194 -98 158 -265c-16 -75 -77 -129 -181 -129c-69 0 -93 16 -93 16c1 5 4 10 9 12c28 -12 55 -14 85 -14c106 0 153 59 166 117c33 159 -188 125 -158 265c26 124 167 113 168 113c15 26 26 57 32 83c17 78 -12 154 -128 154
c-129 0 -191 -71 -214 -180l-118 -554s-1 -2 -7 -2s-7 2 -7 2l118 554c28 130 103 194 229 194c125 0 158 -87 140 -169c-6 -30 -20 -64 -39 -96z" />
    <glyph glyph-name="grave" unicode="`" horiz-adv-x="238" 
d="M72 796c4 5 7 7 13 9l92 -152c-3 -4 -7 -6 -12 -7z" />
    <glyph glyph-name="greater" unicode="&#x3e;" horiz-adv-x="474" 
d="M404 279l-352 -154s-2 2 -1 8c1 5 4 9 4 9l340 148l-277 148s-1 3 0 9s4 8 4 8l287 -154s1 -6 0 -11c-2 -6 -5 -11 -5 -11z" />
    <glyph glyph-name="greaterequal" unicode="&#x2265;" horiz-adv-x="472" 
d="M341 137h-282c-2 5 -1 10 3 15h282c1 -5 0 -10 -3 -15zM388 358l-309 -127s-2 2 0 8c1 5 4 9 4 9l295 121l-238 116s-1 3 0 9s4 8 4 8l249 -122s0 -6 -1 -11c-1 -6 -4 -11 -4 -11z" />
    <glyph glyph-name="guillemotleft" unicode="&#xab;" horiz-adv-x="475" 
d="M55 276l257 233c5 -1 6 -4 7 -9l-252 -230l155 -230c-2 -6 -6 -9 -12 -10l-158 234s-2 2 -1 6s4 6 4 6zM206 276l225 203c5 -1 6 -4 7 -9l-220 -200l138 -204c-2 -6 -7 -9 -12 -10l-141 208s-2 2 -1 6s4 6 4 6z" />
    <glyph glyph-name="guillemotright" unicode="&#xbb;" horiz-adv-x="474" 
d="M238 500c3 5 6 8 11 9l159 -233s1 -2 0 -6s-3 -6 -3 -6l-258 -234c-4 1 -8 4 -8 10l253 230zM107 470c3 5 6 8 11 9l139 -203s1 -2 0 -6s-3 -6 -3 -6l-229 -208c-5 1 -8 4 -8 10l224 204z" />
    <glyph glyph-name="guilsinglleft" unicode="&#x2039;" horiz-adv-x="340" 
d="M55 276l257 233c5 -1 6 -4 7 -9l-252 -230l155 -230c-2 -6 -6 -9 -12 -10l-158 234s-2 2 -1 6s4 6 4 6z" />
    <glyph glyph-name="guilsinglright" unicode="&#x203a;" horiz-adv-x="340" 
d="M104 500c3 5 6 8 11 9l159 -233s1 -2 0 -6s-3 -6 -3 -6l-258 -234c-4 1 -8 4 -8 10l253 230z" />
    <glyph glyph-name="h" unicode="h" horiz-adv-x="552" 
d="M476 384l-82 -382c-4 -3 -10 -3 -14 0l81 381c18 86 -21 139 -107 139c-77 0 -161 -36 -229 -150l-79 -370c-4 -3 -10 -3 -14 0l159 746c5 3 11 3 14 0l-73 -345c60 91 138 133 225 133c93 0 139 -61 119 -152z" />
    <glyph glyph-name="hbar" unicode="&#x127;" horiz-adv-x="552" 
d="M131 401c60 93 139 135 226 135c93 0 139 -56 120 -147l-83 -387c-4 -3 -10 -3 -14 0l82 386c19 86 -24 134 -110 134c-77 0 -159 -36 -227 -150l-79 -370c-4 -3 -10 -3 -14 0l136 637h-72c-1 5 0 9 3 14h72l20 95c2 1 2 2 7 2s7 -2 7 -2l-20 -95h160c2 -4 1 -10 -3 -14
h-160z" />
    <glyph glyph-name="hcircumflex" unicode="&#x125;" horiz-adv-x="552" 
d="M477 389l-83 -387c-4 -3 -10 -3 -14 0l82 386c19 86 -24 134 -110 134c-77 0 -159 -36 -227 -150l-79 -370c-4 -3 -10 -3 -14 0l159 746c5 3 11 3 14 0l-74 -347c60 93 139 135 226 135c93 0 139 -56 120 -147zM84 767c-5 2 -6 6 -6 10l149 101h13l103 -101
c-1 -5 -5 -9 -10 -10l-102 98z" />
    <glyph glyph-name="hungarumlaut" unicode="&#x2dd;" horiz-adv-x="386" 
d="M24 653l156 152c6 -1 7 -5 9 -10l-157 -150c-5 1 -7 4 -8 8zM171 653l156 152c6 -1 7 -5 9 -10l-157 -150c-5 1 -7 4 -8 8z" />
    <glyph glyph-name="hyphen" unicode="-" horiz-adv-x="347" 
d="M254 281h-172c-1 5 0 10 3 15h172c1 -5 0 -10 -3 -15z" />
    <glyph glyph-name="i" unicode="i" horiz-adv-x="216" 
d="M162 524l-111 -522s-1 -2 -7 -2s-7 2 -7 2l111 522s2 2 8 2s6 -2 6 -2zM205 694l-4 -20s-6 -4 -15 -4c-8 0 -13 4 -13 4l4 20s7 4 15 4c9 0 13 -4 13 -4z" />
    <glyph glyph-name="iacute" unicode="&#xed;" horiz-adv-x="216" 
d="M162 524l-111 -522s-1 -2 -7 -2s-7 2 -7 2l111 522s2 2 8 2s6 -2 6 -2zM123 621l156 152c6 -1 7 -5 9 -10l-157 -150c-5 1 -7 4 -8 8z" />
    <glyph glyph-name="ibreve" unicode="&#x12d;" horiz-adv-x="216" 
d="M162 524l-111 -522s-1 -2 -7 -2s-7 2 -7 2l111 522s2 2 8 2s6 -2 6 -2zM182 660c67 0 111 35 125 48c5 -3 6 -5 7 -10c0 0 -53 -52 -135 -52s-113 52 -113 52c3 5 6 8 11 9c8 -10 38 -47 105 -47z" />
    <glyph glyph-name="icircumflex" unicode="&#xee;" horiz-adv-x="216" 
d="M162 524l-111 -522s-1 -2 -7 -2s-7 2 -7 2l111 522s2 2 8 2s6 -2 6 -2zM48 601c-5 2 -6 6 -6 10l148 101h13l104 -101c-1 -5 -5 -9 -10 -10l-101 98z" />
    <glyph glyph-name="idieresis" unicode="&#xef;" horiz-adv-x="216" 
d="M162 524l-111 -522s-1 -2 -7 -2s-7 2 -7 2l111 522s2 2 8 2s6 -2 6 -2zM136 692l-4 -20s-6 -4 -15 -4c-8 0 -13 4 -13 4l4 20s7 4 15 4c9 0 13 -4 13 -4zM270 692l-4 -20s-6 -4 -15 -4c-8 0 -13 4 -13 4l4 20s7 4 15 4c9 0 13 -4 13 -4z" />
    <glyph glyph-name="igrave" unicode="&#xec;" horiz-adv-x="216" 
d="M162 524l-111 -522s-1 -2 -7 -2s-7 2 -7 2l111 522s2 2 8 2s6 -2 6 -2zM116 762c4 5 7 8 13 10l92 -152c-3 -4 -7 -7 -12 -8z" />
    <glyph glyph-name="ij" unicode="&#x133;" horiz-adv-x="439" 
d="M241 -92l131 616s2 2 7 2c7 0 6 -2 6 -2l-130 -612c-24 -115 -85 -162 -161 -162c-42 0 -51 9 -51 9l1 4c0 4 3 6 3 6s15 -4 46 -4c80 0 127 41 148 143zM162 524l-111 -522s-1 -2 -7 -2s-7 2 -7 2l111 522s2 2 8 2s6 -2 6 -2zM429 694l-4 -20s-6 -4 -15 -4
c-8 0 -13 4 -13 4l4 20s7 4 15 4c9 0 13 -4 13 -4zM205 694l-4 -20s-6 -4 -15 -4c-8 0 -13 4 -13 4l4 20s7 4 15 4c9 0 13 -4 13 -4z" />
    <glyph glyph-name="imacron" unicode="&#x12b;" horiz-adv-x="216" 
d="M162 524l-111 -522s-1 -2 -7 -2s-7 2 -7 2l111 522s2 2 8 2s6 -2 6 -2zM279 676h-185c-1 5 0 10 3 15h185c1 -5 0 -9 -3 -15z" />
    <glyph glyph-name="infinity" unicode="&#x221e;" horiz-adv-x="833" 
d="M564 164c-139 0 -149 138 -149 138s-68 -138 -207 -138c-115 0 -147 81 -130 161s83 161 198 161c139 0 149 -139 149 -139s80 139 207 139c115 0 147 -81 130 -161s-83 -161 -198 -161zM210 179c137 0 202 146 202 146s-4 146 -140 146c-110 0 -163 -77 -178 -146
s6 -146 116 -146zM630 471c-130 0 -202 -146 -202 -146s10 -146 140 -146c110 0 163 77 178 146s-6 146 -116 146z" />
    <glyph glyph-name="integral" unicode="&#x222b;" horiz-adv-x="500" 
d="M165 -61l138 651c18 85 67 131 141 131c49 0 80 -8 115 -30c-1 -6 -4 -9 -11 -12c-29 15 -58 26 -100 27c-64 1 -112 -31 -129 -114l-139 -653c-23 -110 -92 -130 -148 -130c-33 0 -68 6 -108 33c2 7 6 11 11 12c17 -10 52 -28 102 -29c52 -1 108 18 128 114z" />
    <glyph glyph-name="iogonek" unicode="&#x12f;" horiz-adv-x="215" 
d="M206 694l-4 -20s-6 -4 -15 -4c-8 0 -13 4 -13 4l4 20s7 4 15 4c9 0 13 -4 13 -4zM-1 -159c27 0 49 12 49 12c3 -4 3 -6 3 -11c0 0 -22 -15 -57 -15c-48 0 -71 23 -63 62c11 52 55 94 107 119l109 516s2 2 8 2s6 -2 6 -2l-111 -522c-50 -23 -93 -63 -103 -110
c-8 -37 13 -51 52 -51z" />
    <glyph glyph-name="itilde" unicode="&#x129;" horiz-adv-x="216" 
d="M162 524l-111 -522s-1 -2 -7 -2s-7 2 -7 2l111 522s2 2 8 2s6 -2 6 -2zM224 661c31 0 44 23 50 33c5 -1 9 -3 11 -7c0 0 -18 -41 -66 -41c-43 0 -46 40 -79 40c-37 0 -50 -34 -50 -34c-6 1 -9 2 -11 6c0 0 14 43 65 43c37 0 40 -40 80 -40z" />
    <glyph glyph-name="j" unicode="j" horiz-adv-x="217" 
d="M17 -92l131 616c5 3 11 3 14 0l-130 -615c-25 -115 -80 -160 -156 -160c-24 0 -46 5 -64 16c1 5 4 9 8 12c15 -10 39 -14 59 -14c73 0 117 43 138 145zM205 697l-4 -20s-6 -4 -15 -4c-8 0 -13 4 -13 4l4 20s7 4 15 4c9 0 13 -4 13 -4z" />
    <glyph glyph-name="jcircumflex" unicode="&#x135;" horiz-adv-x="217" 
d="M17 -92l131 616c5 3 11 3 14 0l-130 -615c-25 -115 -76 -160 -156 -160c-24 0 -46 5 -64 16c1 5 4 9 8 12c15 -10 39 -14 59 -14c73 0 118 49 138 145zM41 583c-5 2 -6 6 -6 10l148 101h13l104 -101c-1 -5 -5 -9 -10 -10l-101 98z" />
    <glyph glyph-name="k" unicode="k" horiz-adv-x="491" 
d="M246 282l225 243c6 2 12 2 18 0l-232 -251l145 -271s-2 -3 -9 -3s-7 3 -7 3l-142 265h-141l-57 -267c-4 -2 -10 -2 -14 0l159 748c5 2 11 2 14 0l-99 -467h140z" />
    <glyph glyph-name="kcommaaccent" unicode="&#x137;" horiz-adv-x="491" 
d="M147 -145l-7 6s31 30 38 62c-4 0 -10 2 -10 2l4 20s4 2 13 2c8 0 11 -2 11 -2l-3 -17c-10 -44 -46 -73 -46 -73zM246 282l225 243c6 2 12 2 18 0l-232 -251l145 -271s-2 -3 -9 -3s-7 3 -7 3l-142 265h-141l-57 -267c-4 -2 -10 -2 -14 0l159 748c5 2 11 2 14 0l-99 -467
h140z" />
    <glyph glyph-name="kgreenlandic" unicode="&#x138;" horiz-adv-x="497" 
d="M496 524l-256 -228l166 -295c-6 -2 -11 -2 -17 0l-160 285l-151 -134l-32 -150c-1 -1 -4 -2 -7 -2c-2 0 -6 1 -7 2l112 523c5 2 9 2 14 0l-75 -350l393 349c3 1 6 2 11 2s9 -1 9 -2z" />
    <glyph glyph-name="l" unicode="l" horiz-adv-x="219" 
d="M211 748l-159 -746s-1 -2 -7 -2s-7 2 -7 2l159 746s1 2 7 2s7 -2 7 -2z" />
    <glyph glyph-name="lacute" unicode="&#x13a;" horiz-adv-x="219" 
d="M211 748l-159 -746s-1 -2 -7 -2s-7 2 -7 2l159 746s1 2 7 2s7 -2 7 -2zM151 793l164 143c5 -2 7 -6 9 -11l-165 -141c-5 2 -7 5 -8 9z" />
    <glyph glyph-name="lcaron" unicode="&#x13e;" horiz-adv-x="223" 
d="M248 597c-4 1 -6 4 -6 8c49 33 74 87 82 145c6 3 11 3 15 0c-6 -50 -35 -119 -91 -153zM211 748l-159 -746s-1 -2 -7 -2s-7 2 -7 2l159 746s1 2 7 2s7 -2 7 -2z" />
    <glyph glyph-name="lcommaaccent" unicode="&#x13c;" horiz-adv-x="219" 
d="M211 748l-159 -746s-1 -2 -7 -2s-7 2 -7 2l159 746s1 2 7 2s7 -2 7 -2zM-2 -137l-7 6s30 30 37 62c-4 0 -9 2 -9 2l4 20s3 2 12 2c8 0 12 -2 12 -2l-4 -17c-9 -44 -45 -73 -45 -73z" />
    <glyph glyph-name="ldot" unicode="&#x140;" horiz-adv-x="235" 
d="M211 748l-159 -746s-1 -2 -7 -2s-7 2 -7 2l159 746s1 2 7 2s7 -2 7 -2zM253 344l-4 -20s-6 -4 -15 -4c-8 0 -13 4 -13 4l4 20s7 4 15 4c9 0 13 -4 13 -4z" />
    <glyph glyph-name="less" unicode="&#x3c;" horiz-adv-x="477" 
d="M349 133c-1 -6 -3 -8 -3 -8l-288 154s-1 5 1 11c1 5 4 11 4 11l353 154s1 -2 0 -8s-4 -9 -4 -9l-339 -148l276 -148s1 -4 0 -9z" />
    <glyph glyph-name="lessequal" unicode="&#x2264;" horiz-adv-x="472" 
d="M343 152c2 -5 1 -10 -3 -15h-282c-1 5 0 10 3 15h282zM364 239c-2 -6 -4 -8 -4 -8l-255 127s-1 5 0 11c1 5 5 11 5 11l301 122s1 -2 0 -8s-4 -9 -4 -9l-288 -116l245 -121s1 -4 0 -9z" />
    <glyph glyph-name="logicalnot" unicode="&#xac;" horiz-adv-x="599" 
d="M531 439l-48 -226s-2 -2 -7 -2c-7 0 -8 2 -8 2l45 211h-417s-1 2 0 8c1 5 3 7 3 7h432z" />
    <glyph glyph-name="longs" unicode="&#x17f;" horiz-adv-x="246" 
d="M174 590c25 114 74 160 174 160c44 0 81 -10 81 -10c0 -5 -2 -10 -6 -13c0 0 -32 8 -74 8c-97 0 -138 -41 -159 -144l-126 -589c-9 -5 -15 0 -15 0l109 509h-79c-3 8 3 15 3 15h79z" />
    <glyph glyph-name="lozenge" unicode="&#x25ca;" horiz-adv-x="546" 
d="M204 7l-134 345l281 344h7l138 -344l-285 -345h-7zM479 352l-129 322l-262 -322l125 -323z" />
    <glyph glyph-name="lslash" unicode="&#x142;" horiz-adv-x="277" 
d="M267 459l-112 -57l-85 -400s-1 -2 -7 -2s-7 2 -7 2l84 392l-95 -49c-3 2 -5 6 -4 12l102 53l72 338s1 2 7 2s7 -2 7 -2l-70 -330l103 53c4 -2 6 -7 5 -12z" />
    <glyph glyph-name="m" unicode="m" horiz-adv-x="850" 
d="M454 401c56 90 128 135 214 135c85 0 126 -55 107 -147l-83 -387c-4 -3 -10 -3 -14 0l82 386c18 84 -15 134 -94 134c-75 0 -150 -36 -219 -153l-78 -367c-4 -3 -10 -3 -14 0l82 386c18 84 -15 134 -94 134c-75 0 -149 -36 -217 -150l-79 -370c-4 -3 -10 -3 -14 0
l111 522c5 3 11 3 14 0l-25 -120c61 91 127 132 212 132c81 0 122 -50 109 -135z" />
    <glyph glyph-name="macron" unicode="&#xaf;" horiz-adv-x="407" 
d="M307 639h-255c-1 5 0 10 3 15h255c1 -5 0 -9 -3 -15z" />
    <glyph glyph-name="minus" unicode="&#x2212;" horiz-adv-x="459" 
d="M367 319h-272c-1 5 0 10 3 15h272c1 -5 0 -10 -3 -15z" />
    <glyph glyph-name="mu" unicode="&#xb5;" horiz-adv-x="578" 
d="M500 524c0 0 1 2 7 2c7 0 7 -2 7 -2l-111 -522s-1 -2 -8 -2c-6 0 -6 2 -6 2l22 103c-60 -72 -134 -115 -218 -115c-58 0 -105 14 -123 69l-16 -73c-41 -194 -27 -231 -27 -231c-4 -4 -5 -6 -14 -5c0 0 -16 42 25 236l114 538s1 2 9 2c5 0 5 -2 5 -2l-81 -384
c-16 -75 3 -136 111 -136c94 0 172 56 221 128z" />
    <glyph glyph-name="multiply" unicode="&#xd7;" horiz-adv-x="438" 
d="M367 405l-142 -117l92 -117c-3 -5 -8 -8 -13 -10l-92 117l-141 -117c-3 2 -8 5 -9 10l142 117l-92 117c3 4 8 8 13 10l92 -116l141 116c5 -2 8 -6 9 -10z" />
    <glyph glyph-name="n" unicode="n" horiz-adv-x="553" 
d="M478 389l-83 -387c-4 -3 -10 -3 -14 0l82 386c19 86 -22 134 -108 134c-75 0 -159 -37 -229 -150l-79 -370c-4 -3 -10 -3 -14 0l111 522c5 3 11 3 14 0l-25 -121c62 90 140 133 225 133c93 0 139 -56 120 -147z" />
    <glyph glyph-name="nacute" unicode="&#x144;" horiz-adv-x="553" 
d="M478 389l-83 -387c-4 -3 -10 -3 -14 0l82 386c19 86 -24 134 -110 134c-75 0 -157 -37 -227 -150l-79 -370c-4 -3 -10 -3 -14 0l111 522c5 3 11 3 14 0l-25 -121c62 90 140 133 225 133c93 0 139 -56 120 -147zM280 617l156 152c6 -1 7 -5 9 -10l-157 -150
c-4 1 -7 4 -8 8z" />
    <glyph glyph-name="napostrophe" unicode="&#x149;" horiz-adv-x="553" 
d="M154 595c-3 1 -6 5 -5 9c52 31 85 72 99 132c7 1 10 0 14 -2c-13 -52 -49 -106 -108 -139zM478 389l-83 -387c-4 -3 -10 -3 -14 0l82 386c19 86 -24 134 -110 134c-75 0 -157 -37 -227 -150l-79 -370c-4 -3 -10 -3 -14 0l111 522c5 3 11 3 14 0l-25 -121
c62 90 140 133 225 133c93 0 139 -56 120 -147z" />
    <glyph glyph-name="ncaron" unicode="&#x148;" horiz-adv-x="553" 
d="M478 389l-83 -387c-4 -3 -10 -3 -14 0l82 386c19 86 -24 134 -110 134c-75 0 -157 -37 -227 -150l-79 -370c-4 -3 -10 -3 -14 0l111 522c5 3 11 3 14 0l-25 -121c62 90 140 133 225 133c93 0 139 -56 120 -147zM343 611l-100 95c2 4 5 8 10 10l98 -92l135 91
c5 -1 7 -5 6 -10l-136 -94h-13z" />
    <glyph glyph-name="ncommaaccent" unicode="&#x146;" horiz-adv-x="553" 
d="M478 389l-83 -387c-4 -3 -10 -3 -14 0l82 386c19 86 -24 134 -110 134c-75 0 -157 -37 -227 -150l-79 -370c-4 -3 -10 -3 -14 0l111 522c5 3 11 3 14 0l-25 -121c62 90 140 133 225 133c93 0 139 -56 120 -147zM167 -148l-7 6s30 30 37 62c-4 0 -10 2 -10 2l5 20
s3 2 12 2c8 0 12 -2 12 -2l-4 -17c-9 -44 -45 -73 -45 -73z" />
    <glyph glyph-name="nine" unicode="9" horiz-adv-x="551" 
d="M58 0c-1 5 0 10 3 14c182 17 328 117 400 321c-70 -49 -136 -71 -209 -71c-124 0 -181 79 -153 213c29 136 132 213 250 213c114 0 191 -80 151 -267c-60 -280 -243 -409 -442 -423zM114 477c-26 -124 21 -199 138 -199c75 0 144 25 215 75c8 23 12 49 18 74
c36 170 -29 248 -138 248s-205 -68 -233 -198z" />
    <glyph glyph-name="nine.denom" horiz-adv-x="308" 
d="M236 192c-20 -93 -93 -183 -223 -197c-2 2 -2 7 1 11c113 16 181 80 210 177c-23 -17 -60 -37 -114 -37c-65 0 -95 36 -83 96c14 65 62 104 129 104c74 0 101 -54 80 -154zM39 242c-11 -53 13 -85 73 -85c64 0 102 29 114 40c17 91 -8 137 -73 137
c-59 0 -101 -33 -114 -92z" />
    <glyph glyph-name="nine.num" horiz-adv-x="309" 
d="M310 539c-20 -93 -93 -183 -223 -197c-2 2 -2 7 1 11c112 16 181 80 210 177c-23 -17 -60 -37 -114 -37c-65 0 -96 36 -83 96c14 65 61 104 128 104c74 0 102 -54 81 -154zM113 589c-11 -53 13 -85 73 -85c64 0 102 29 114 40c17 91 -8 137 -73 137
c-59 0 -101 -33 -114 -92z" />
    <glyph glyph-name="nineinferior" unicode="&#x2089;" horiz-adv-x="308" 
d="M216 98c-20 -93 -93 -183 -223 -197c-2 2 -2 7 1 11c113 16 181 80 210 177c-23 -17 -60 -37 -114 -37c-65 0 -95 36 -83 96c14 65 62 104 129 104c74 0 101 -54 80 -154zM19 148c-11 -53 13 -85 73 -85c64 0 103 29 114 40c17 91 -8 137 -73 137
c-59 0 -101 -33 -114 -92z" />
    <glyph glyph-name="notequal" unicode="&#x2260;" horiz-adv-x="462" 
d="M170 215h202c1 -5 0 -10 -4 -15h-209l-77 -100c-5 -2 -11 -2 -16 0l77 100h-95c0 5 1 10 4 15h102l113 147h-184c-1 5 0 10 3 15h192l73 96c6 2 11 2 16 0l-73 -96h112c1 -5 0 -10 -3 -15h-120z" />
    <glyph glyph-name="ntilde" unicode="&#xf1;" horiz-adv-x="553" 
d="M478 389l-83 -387c-4 -3 -10 -3 -14 0l82 386c19 86 -24 134 -110 134c-75 0 -157 -37 -227 -150l-79 -370c-4 -3 -10 -3 -14 0l111 522c5 3 11 3 14 0l-25 -121c62 90 140 133 225 133c93 0 139 -56 120 -147zM421 675c31 0 47 23 53 33c5 -1 10 -3 12 -7
c0 0 -21 -41 -69 -41c-44 0 -62 40 -100 40c-33 0 -50 -34 -50 -34c-6 1 -10 3 -12 7c0 0 19 41 67 41c38 0 54 -39 99 -39z" />
    <glyph glyph-name="_300" horiz-adv-x="0" 
 />
    <glyph glyph-name="numbersign" unicode="#" horiz-adv-x="640" 
d="M619 445h-117l-137 -275h111c1 -5 0 -10 -3 -15h-115l-75 -152c-7 -2 -10 -2 -15 0l75 152h-193l-75 -152c-7 -2 -10 -2 -15 0l75 152h-117c-1 5 0 10 3 15h121l137 275h-115c-1 2 -2 3 -1 7s2 6 4 8h119l80 161c6 2 9 2 15 0l-80 -161h193l80 161c6 2 9 2 15 0l-80 -161
h113c0 -2 1 -4 0 -8c-1 -3 -2 -4 -3 -7zM350 170l137 275h-193l-137 -275h193z" />
    <glyph glyph-name="o" unicode="o" horiz-adv-x="536" 
d="M61 263c42 198 131 273 256 273s182 -75 140 -273s-131 -273 -256 -273s-182 75 -140 273zM443 263c41 195 -13 259 -127 259c-112 0 -200 -64 -241 -259c-42 -195 14 -259 127 -259c112 0 199 64 241 259z" />
    <glyph glyph-name="oacute" unicode="&#xf3;" horiz-adv-x="536" 
d="M263 618l157 152c5 -1 7 -5 9 -10l-157 -150c-5 1 -8 4 -9 8zM61 263c42 198 131 273 256 273s182 -75 140 -273s-131 -273 -256 -273s-182 75 -140 273zM443 263c41 195 -13 259 -127 259c-112 0 -200 -64 -241 -259c-42 -195 14 -259 127 -259c112 0 199 64 241 259z
" />
    <glyph glyph-name="obreve" unicode="&#x14f;" horiz-adv-x="536" 
d="M343 666c67 0 110 35 125 48c4 -3 6 -5 7 -10c0 0 -48 -52 -132 -52c-82 0 -116 52 -116 52c3 5 5 8 11 9c7 -10 38 -47 105 -47zM61 263c42 198 131 273 256 273s182 -75 140 -273s-131 -273 -256 -273s-182 75 -140 273zM443 263c41 195 -13 259 -127 259
c-112 0 -200 -64 -241 -259c-42 -195 14 -259 127 -259c112 0 199 64 241 259z" />
    <glyph glyph-name="ocircumflex" unicode="&#xf4;" horiz-adv-x="536" 
d="M206 601c-5 2 -6 6 -6 10l148 101h13l104 -101c-1 -5 -5 -9 -10 -10l-101 98zM61 263c42 198 131 273 256 273s182 -75 140 -273s-131 -273 -256 -273s-182 75 -140 273zM443 263c41 195 -13 259 -127 259c-112 0 -200 -64 -241 -259c-42 -195 14 -259 127 -259
c112 0 199 64 241 259z" />
    <glyph glyph-name="odieresis" unicode="&#xf6;" horiz-adv-x="536" 
d="M299 698l-4 -20s-6 -4 -15 -4c-8 0 -13 4 -13 4l4 20s7 4 15 4c9 0 13 -4 13 -4zM433 698l-4 -20s-6 -4 -15 -4c-8 0 -13 4 -13 4l4 20s7 4 15 4c9 0 13 -4 13 -4zM61 263c42 198 131 273 256 273s182 -75 140 -273s-131 -273 -256 -273s-182 75 -140 273zM443 263
c41 195 -13 259 -127 259c-112 0 -200 -64 -241 -259c-42 -195 14 -259 127 -259c112 0 199 64 241 259z" />
    <glyph glyph-name="oe" unicode="&#x153;" horiz-adv-x="835" 
d="M657 536c112 0 146 -82 126 -179c-13 -61 -32 -98 -32 -98h-316c-33 -166 -3 -254 110 -254c71 0 126 36 135 44c7 -2 10 -6 9 -12c0 0 -53 -47 -147 -47c-89 0 -141 58 -135 176c-47 -127 -121 -176 -216 -176c-122 0 -172 75 -130 273s126 273 248 273
c99 0 146 -50 139 -174c48 122 127 174 209 174zM76 263c-42 -195 6 -258 118 -258c109 0 184 71 224 260c42 195 -2 257 -111 257s-190 -64 -231 -259zM438 274h304c0 -2 14 29 26 84c18 84 -7 164 -112 164c-98 0 -179 -79 -218 -248z" />
    <glyph glyph-name="ogonek" unicode="&#x2db;" horiz-adv-x="283" 
d="M-11 -178c3 -3 4 -7 4 -11c0 0 -22 -15 -57 -15c-44 0 -71 27 -62 64c13 63 73 105 138 131l-3 -13c-56 -25 -111 -65 -121 -117c-7 -36 17 -51 53 -51c27 0 48 12 48 12z" />
    <glyph glyph-name="ograve" unicode="&#xf2;" horiz-adv-x="536" 
d="M273 761c4 5 6 8 13 10l92 -152c-3 -4 -7 -7 -12 -8zM61 263c42 198 131 273 256 273s182 -75 140 -273s-131 -273 -256 -273s-182 75 -140 273zM443 263c41 195 -13 259 -127 259c-112 0 -200 -64 -241 -259c-42 -195 14 -259 127 -259c112 0 199 64 241 259z" />
    <glyph glyph-name="ohungarumlaut" unicode="&#x151;" horiz-adv-x="536" 
d="M257 625l115 111c11 -1 13 -4 17 -10l-122 -108c-6 1 -9 3 -10 7zM373 625l115 111c10 -1 14 -4 17 -10l-122 -108c-6 1 -9 3 -10 7zM61 263c42 198 131 273 256 273s182 -75 140 -273s-131 -273 -256 -273s-182 75 -140 273zM443 263c41 195 -13 259 -127 259
c-112 0 -200 -64 -241 -259c-42 -195 14 -259 127 -259c112 0 199 64 241 259z" />
    <glyph glyph-name="omacron" unicode="&#x14d;" horiz-adv-x="536" 
d="M459 659h-225c-1 5 0 10 3 15h225c1 -5 0 -9 -3 -15zM61 263c42 198 131 273 256 273s182 -75 140 -273s-131 -273 -256 -273s-182 75 -140 273zM443 263c41 195 -13 259 -127 259c-112 0 -200 -64 -241 -259c-42 -195 14 -259 127 -259c112 0 199 64 241 259z" />
    <glyph glyph-name="one" unicode="1" horiz-adv-x="379" 
d="M84 512c87 22 179 82 245 166c0 0 1 2 7 2c5 0 6 -2 6 -2l-144 -676c-5 -3 -10 -3 -15 0l138 647c-63 -76 -152 -129 -235 -151c-4 3 -4 9 -2 14z" />
    <glyph glyph-name="one.denom" horiz-adv-x="242" 
d="M27 265c49 10 100 37 139 77c4 1 9 1 13 0l-73 -341c-3 -1 -3 -1 -6 -1s-3 0 -6 1l69 324c-36 -35 -81 -58 -135 -71c-3 1 -3 8 -1 11z" />
    <glyph glyph-name="one.num" horiz-adv-x="258" 
d="M101 613c49 10 100 37 139 77c4 1 9 1 13 0l-73 -341c-3 -1 -3 -1 -6 -1s-3 0 -6 1l69 324c-36 -35 -81 -58 -135 -71c-3 1 -3 8 -1 11z" />
    <glyph glyph-name="oneeighth" unicode="&#x215b;" horiz-adv-x="693" 
d="M592 700c0 0 2 2 8 2c5 0 5 -2 5 -2l-539 -709s-1 -1 -6 -1c-6 0 -7 1 -7 1zM108 613c49 10 100 37 139 77c4 1 9 1 13 0l-73 -341c-3 -1 -3 -1 -6 -1s-3 0 -6 1l69 324c-36 -35 -81 -58 -135 -71c-3 1 -3 8 -1 11zM617 267c-10 -47 -47 -78 -84 -96
c37 -19 66 -43 57 -88c-12 -55 -61 -88 -131 -88c-72 0 -107 33 -95 89c12 55 57 89 97 107c-32 18 -53 41 -44 80c10 48 53 77 116 77s95 -30 84 -81zM530 336c-55 0 -93 -24 -101 -65c-13 -57 43 -74 93 -95c47 24 74 52 83 91c9 43 -19 69 -75 69zM376 84
c-10 -48 21 -77 86 -77c62 0 105 27 115 74c14 63 -48 77 -107 105c-36 -18 -82 -47 -94 -102z" />
    <glyph glyph-name="onehalf" unicode="&#xbd;" horiz-adv-x="685" 
d="M584 700c0 0 2 2 8 2c5 0 5 -2 5 -2l-539 -709s-1 -1 -6 -1c-6 0 -7 1 -7 1zM108 613c49 10 100 37 139 77c4 1 9 1 13 0l-73 -341c-3 -1 -3 -1 -6 -1s-3 0 -6 1l69 324c-36 -35 -81 -58 -135 -71c-3 1 -3 8 -1 11zM360 41c29 136 223 103 247 218c8 36 -2 77 -82 77
c-40 -1 -68 -8 -79 -11c-1 3 -1 8 1 12c-2 0 33 11 82 11c86 0 100 -44 90 -90c-27 -124 -221 -91 -247 -217c-2 -9 -4 -19 -4 -29h199c0 -1 1 -4 0 -6c0 -2 -2 -5 -3 -6h-208s-1 18 4 41z" />
    <glyph glyph-name="oneinferior" unicode="&#x2081;" horiz-adv-x="242" 
d="M7 169c49 10 100 37 138 77c4 1 9 1 13 0l-72 -341c-3 -1 -3 -1 -6 -1s-3 0 -6 1l69 324c-37 -35 -82 -58 -135 -71c-3 1 -4 8 -1 11z" />
    <glyph glyph-name="onequarter" unicode="&#xbc;" horiz-adv-x="620" 
d="M583 700c0 0 2 2 8 2c5 0 5 -2 5 -2l-539 -709s-1 -1 -6 -1c-6 0 -7 1 -7 1zM108 613c49 10 100 37 139 77c4 1 9 1 13 0l-73 -341c-3 -1 -3 -1 -6 -1s-3 0 -6 1l69 324c-36 -35 -81 -58 -135 -71c-3 1 -3 8 -1 11zM486 116h37c1 -5 0 -7 -3 -12h-37l-22 -103
c-4 -2 -8 -2 -12 0l22 103h-183c-1 3 2 7 2 7l233 231c6 2 11 0 11 0zM517 321l-208 -205h165z" />
    <glyph glyph-name="onesuperior" unicode="&#xb9;" horiz-adv-x="242" 
d="M101 613c49 10 100 37 139 77c4 1 9 1 13 0l-73 -341c-3 -1 -3 -1 -6 -1s-3 0 -6 1l69 324c-36 -35 -81 -58 -135 -71c-3 1 -3 8 -1 11z" />
    <glyph glyph-name="ordfeminine" unicode="&#xaa;" horiz-adv-x="361" 
d="M156 614c0 0 51 16 100 16c68 0 90 -36 77 -99l-48 -227h-4h-5l15 72c-29 -57 -81 -80 -132 -80c-62 0 -88 32 -76 90s58 92 130 92c43 0 79 -5 97 -7l11 53c15 70 -11 94 -69 94c-50 0 -94 -16 -94 -16c-4 2 -3 9 -2 12zM308 461c-18 3 -58 7 -95 7
c-67 0 -107 -30 -118 -82c-11 -51 9 -79 64 -79c64 0 122 39 141 115zM55 244h216c0 -4 -1 -7 -3 -11h-216c0 4 1 7 3 11z" />
    <glyph glyph-name="ordmasculine" unicode="&#xba;" horiz-adv-x="381" 
d="M100 463c24 113 70 166 156 166c80 0 114 -51 89 -166c-24 -115 -72 -168 -156 -168c-86 0 -113 53 -89 168zM334 463c23 105 1 155 -79 155c-81 0 -121 -50 -144 -155c-22 -107 -3 -157 78 -157c80 0 123 50 145 157zM65 244h222c1 -4 0 -7 -3 -11h-222c-1 4 0 7 3 11z
" />
    <glyph glyph-name="oslash" unicode="&#xf8;" horiz-adv-x="536" 
d="M494 556l-53 -70c32 -42 39 -114 16 -223c-42 -198 -131 -273 -256 -273c-47 0 -84 10 -110 34l-47 -63c-5 0 -9 2 -11 6l49 65c-36 42 -46 115 -21 231c42 198 131 273 256 273c51 0 90 -12 116 -40l50 66c5 0 9 -2 11 -6zM314 522c-113 0 -198 -64 -239 -259
c-24 -111 -15 -179 17 -218l332 438c-25 28 -63 39 -110 39zM101 36c24 -23 59 -32 103 -32c113 0 197 64 239 259c22 104 16 171 -12 210z" />
    <glyph glyph-name="oslashacute" unicode="&#x1ff;" horiz-adv-x="535" 
d="M494 556l-53 -70c32 -42 39 -114 16 -223c-42 -198 -131 -273 -256 -273c-47 0 -84 10 -110 34l-47 -63c-5 0 -9 2 -11 6l49 65c-36 42 -46 115 -21 231c42 198 131 273 256 273c51 0 90 -12 116 -40l50 66c5 0 9 -2 11 -6zM314 522c-113 0 -198 -64 -239 -259
c-24 -111 -15 -179 17 -218l332 438c-25 28 -63 39 -110 39zM101 36c24 -23 59 -32 103 -32c113 0 197 64 239 259c22 104 16 171 -12 210zM273 618l157 152c5 -1 7 -5 9 -10l-157 -150c-5 1 -8 4 -9 8z" />
    <glyph glyph-name="otilde" unicode="&#xf5;" horiz-adv-x="536" 
d="M61 263c42 198 131 273 256 273s182 -75 140 -273s-131 -273 -256 -273s-182 75 -140 273zM443 263c41 195 -13 259 -127 259c-112 0 -200 -64 -241 -259c-42 -195 14 -259 127 -259c112 0 199 64 241 259zM401 666c31 0 47 23 53 33c5 -1 10 -3 12 -7
c0 0 -21 -41 -69 -41c-44 0 -62 40 -100 40c-33 0 -50 -34 -50 -34c-6 1 -10 3 -12 7c0 0 19 41 67 41c38 0 54 -39 99 -39z" />
    <glyph glyph-name="p" unicode="p" 
d="M226 -10c-76 0 -137 46 -154 128l-78 -367s-2 -2 -7 -2c-6 0 -8 2 -8 2l164 773s3 2 9 2s6 -2 6 -2l-25 -121c43 76 119 133 202 133c131 0 180 -87 141 -273c-39 -183 -124 -273 -250 -273zM86 184c-15 -85 37 -179 140 -179c117 0 198 84 235 258
c37 177 -4 258 -128 258c-108 0 -198 -108 -217 -195z" />
    <glyph glyph-name="paragraph" unicode="&#xb6;" horiz-adv-x="403" 
d="M15 -225l169 796c-41 2 -55 32 -48 65c8 31 36 63 78 63h13l-197 -924s-2 -2 -8 -2s-7 2 -7 2zM370 697l-196 -922s-3 -2 -8 -2c-6 0 -7 2 -7 2l196 922s5 2 9 2s6 -2 6 -2z" />
    <glyph glyph-name="parenleft" unicode="(" horiz-adv-x="275" 
d="M335 811c5 -1 9 -3 11 -8c0 0 -189 -170 -256 -483s50 -483 50 -483c-3 -5 -7 -7 -11 -8c-3 -1 -122 176 -55 491s261 491 261 491z" />
    <glyph glyph-name="parenright" unicode=")" horiz-adv-x="276" 
d="M193 320c67 313 -50 483 -50 483c4 5 8 7 13 8c0 0 120 -176 53 -491s-262 -492 -263 -491c-4 1 -8 3 -9 8c0 0 189 170 256 483z" />
    <glyph glyph-name="partialdiff" unicode="&#x2202;" horiz-adv-x="552" 
d="M240 738c1 5 3 10 7 14c184 -31 281 -210 231 -448c-46 -215 -132 -314 -275 -314c-131 0 -181 90 -144 262c36 172 120 262 246 262c91 0 149 -54 170 -117v4c4 180 -71 305 -235 337zM74 252c-35 -162 10 -247 132 -247c137 0 213 94 257 299l10 54
c-18 95 -93 141 -172 141c-115 0 -193 -85 -227 -247z" />
    <glyph glyph-name="percent" unicode="%" horiz-adv-x="733" 
d="M660 700l-540 -708c-6 -2 -11 -2 -17 0l540 708c6 2 11 2 17 0zM190 345c-77 0 -114 48 -87 173c26 123 84 173 161 173c76 0 115 -48 88 -173s-86 -173 -162 -173zM261 677c-66 0 -118 -39 -144 -159c-26 -121 10 -159 76 -159s118 38 144 159c25 119 -11 159 -76 159z
M484 -10c-77 0 -114 48 -87 173c26 123 83 173 160 173c76 0 115 -48 89 -173c-27 -125 -86 -173 -162 -173zM554 322c-66 0 -118 -39 -143 -159c-26 -121 10 -159 76 -159s118 38 144 159c25 119 -12 159 -77 159z" />
    <glyph glyph-name="period" unicode="." horiz-adv-x="157" 
d="M38 21l-4 -20s-6 -4 -15 -4c-8 0 -13 4 -13 4l4 20s7 4 15 4c9 0 13 -4 13 -4z" />
    <glyph glyph-name="periodcentered" unicode="&#xb7;" horiz-adv-x="204" 
d="M113 294l-4 -20s-6 -4 -15 -4c-8 0 -13 4 -13 4l4 20s7 4 15 4c9 0 13 -4 13 -4z" />
    <glyph glyph-name="perthousand" unicode="&#x2030;" horiz-adv-x="1053" 
d="M660 700l-540 -708c-6 -2 -11 -2 -17 0l540 708c6 2 11 2 17 0zM190 345c-77 0 -114 48 -87 173c26 123 84 173 161 173c76 0 115 -48 88 -173s-86 -173 -162 -173zM261 677c-66 0 -118 -39 -144 -159c-26 -121 10 -159 76 -159s118 38 144 159c25 119 -11 159 -76 159z
M484 -10c-77 0 -114 48 -87 173c26 123 83 173 160 173c76 0 115 -48 89 -173c-27 -125 -86 -173 -162 -173zM554 322c-66 0 -118 -39 -143 -159c-26 -121 10 -159 76 -159s118 38 144 159c25 119 -12 159 -77 159zM806 -10c-77 0 -114 48 -87 173c26 123 83 173 160 173
c76 0 115 -48 89 -173c-27 -125 -86 -173 -162 -173zM876 322c-66 0 -118 -39 -143 -159c-26 -121 10 -159 76 -159s118 38 144 159c25 119 -12 159 -77 159z" />
    <glyph glyph-name="pi" unicode="&#x3c0;" horiz-adv-x="589" 
d="M202 526h388c0 -2 1 -5 0 -8c0 -2 -2 -6 -3 -7l-75 1l-59 -276c-39 -183 -10 -229 -10 -229c-1 -4 -7 -7 -14 -7h-1s-26 59 11 236l59 276h-331l-109 -510s0 -2 -6 -2s-7 2 -7 2l109 511c-43 -1 -74 -9 -74 -9c-2 3 -1 10 3 14c0 0 29 8 119 8z" />
    <glyph glyph-name="plus" unicode="+" horiz-adv-x="461" 
d="M219 283h-154s-2 1 0 7c1 7 3 8 3 8h154l33 153s1 2 7 2c7 0 8 -2 8 -2l-33 -153h153s2 -1 1 -8c-2 -6 -4 -7 -4 -7h-153l-33 -154s-1 -2 -8 -2c-6 0 -7 2 -7 2z" />
    <glyph glyph-name="plusminus" unicode="&#xb1;" horiz-adv-x="512" 
d="M266 395h-148s-2 1 -1 7c2 7 4 8 4 8h148l26 123s2 2 9 2c6 0 6 -2 6 -2l-26 -123h151s2 -1 0 -8c-1 -6 -3 -7 -3 -7h-151l-26 -124s-2 -2 -8 -2c-7 0 -7 2 -7 2zM384 157h-322s-1 1 0 7c1 7 4 8 4 8h322s1 -1 0 -8c-1 -6 -4 -7 -4 -7z" />
    <glyph glyph-name="product" unicode="&#x220f;" horiz-adv-x="709" 
d="M675 693l-191 -898c-5 -2 -10 -2 -15 0l188 883h-447l-188 -883c-5 -2 -10 -2 -15 0l191 898h477z" />
    <glyph glyph-name="q" unicode="q" horiz-adv-x="554" 
d="M325 -249l78 367c-51 -82 -132 -128 -208 -128c-126 0 -173 90 -134 273c39 186 126 273 257 273c83 0 136 -62 144 -143l27 131s2 2 8 2s7 -2 7 -2l-164 -773s-2 -2 -8 -2c-5 0 -7 2 -7 2zM76 263c-37 -174 3 -258 120 -258c103 0 200 94 221 179l30 142
c19 87 -23 195 -131 195c-122 0 -203 -81 -240 -258z" />
    <glyph glyph-name="question" unicode="?" horiz-adv-x="421" 
d="M412 538c-43 -201 -231 -169 -279 -397c0 0 -3 -2 -8 -2s-7 2 -7 2c50 237 239 207 280 398c14 67 -9 136 -128 136c-89 0 -150 -27 -150 -27c-4 2 -4 11 -2 14c0 0 66 28 155 28c131 0 154 -81 139 -152zM114 21l-4 -20s-6 -4 -15 -4c-8 0 -13 4 -13 4l4 20s7 4 15 4
c9 0 13 -4 13 -4z" />
    <glyph glyph-name="questiondown" unicode="&#xbf;" horiz-adv-x="411" 
d="M-16 -22c43 201 232 171 280 399c0 0 4 2 9 2s6 -2 6 -2c-50 -237 -239 -207 -280 -398c-14 -67 9 -136 128 -136c89 0 150 27 150 27c4 -2 4 -11 2 -14c0 0 -66 -28 -155 -28c-131 0 -155 79 -140 150zM283 497l4 20s6 4 15 4c8 0 13 -4 13 -4l-4 -20s-7 -4 -15 -4
c-9 0 -13 4 -13 4z" />
    <glyph glyph-name="quotedbl" unicode="&#x22;" horiz-adv-x="277" 
d="M132 530l38 188s4 2 8 2c6 0 8 -2 8 -2l-42 -188c-2 0 -4 -1 -7 -1s-5 1 -5 1zM224 530l38 188s2 2 8 2s8 -2 8 -2l-42 -188s-2 -1 -7 -1c-3 0 -5 1 -5 1z" />
    <glyph glyph-name="quotedblbase" unicode="&#x201e;" horiz-adv-x="226" 
d="M57 -70l-7 6s31 30 38 62c-4 0 -10 2 -10 2l4 20s4 2 13 2c8 0 11 -2 11 -2l-3 -17c-10 -44 -46 -73 -46 -73zM-14 -70l-7 6s31 30 38 62c-4 0 -10 2 -10 2l4 20s4 2 13 2c8 0 11 -2 11 -2l-3 -17c-10 -44 -46 -73 -46 -73z" />
    <glyph glyph-name="quotedblleft" unicode="&#x201c;" horiz-adv-x="258" 
d="M192 720l7 -6s-31 -30 -37 -62c4 0 9 -2 9 -2l-4 -20s-4 -2 -13 -2c-8 0 -11 2 -11 2l3 17c10 44 46 73 46 73zM263 720l7 -6s-31 -30 -37 -62c4 0 9 -2 9 -2l-4 -20s-4 -2 -13 -2c-8 0 -11 2 -11 2l3 17c10 44 46 73 46 73z" />
    <glyph glyph-name="quotedblright" unicode="&#x201d;" horiz-adv-x="252" 
d="M216 627l-6 6s30 30 37 62c-4 0 -10 2 -10 2l4 20s4 2 13 2c8 0 11 -2 11 -2l-3 -17c-10 -44 -46 -73 -46 -73zM145 627l-6 6s30 30 37 62c-4 0 -10 2 -10 2l4 20s4 2 13 2c8 0 11 -2 11 -2l-3 -17c-10 -44 -46 -73 -46 -73z" />
    <glyph glyph-name="quoteleft" unicode="&#x2018;" horiz-adv-x="186" 
d="M192 719l7 -6s-31 -30 -38 -62c4 0 10 -2 10 -2l-4 -20s-4 -2 -13 -2c-8 0 -11 2 -11 2l3 17c10 44 46 73 46 73z" />
    <glyph glyph-name="quoteright" unicode="&#x2019;" horiz-adv-x="182" 
d="M147 629l-7 6s30 30 37 62c-4 0 -9 2 -9 2l4 20s3 2 12 2c8 0 12 -2 12 -2l-4 -17c-9 -44 -45 -73 -45 -73z" />
    <glyph glyph-name="quotesinglbase" unicode="&#x201a;" horiz-adv-x="155" 
d="M-14 -70l-7 6s31 30 38 62c-4 0 -10 2 -10 2l4 20s4 2 13 2c8 0 11 -2 11 -2l-3 -17c-10 -44 -46 -73 -46 -73z" />
    <glyph glyph-name="quotesingle" unicode="'" horiz-adv-x="185" 
d="M132 530l38 188s2 2 8 2s8 -2 8 -2l-42 -188c-5 -2 -9 -2 -12 0z" />
    <glyph glyph-name="r" unicode="r" horiz-adv-x="385" 
d="M132 405c68 109 134 130 190 130c43 0 68 -14 77 -21c-2 -6 -5 -10 -11 -12c-18 12 -40 19 -74 19c-73 0 -135 -57 -190 -152l-78 -368c-4 -2 -10 -2 -14 0l112 524c4 2 10 2 14 0z" />
    <glyph glyph-name="racute" unicode="&#x155;" horiz-adv-x="384" 
d="M131 401c68 111 135 134 191 134c43 0 68 -14 77 -21c-2 -6 -6 -10 -12 -12c-18 12 -39 19 -73 19c-73 0 -135 -57 -190 -152l-78 -368c-4 -2 -10 -2 -14 0l112 524c4 2 10 2 14 0zM228 619l156 152c6 -1 7 -5 9 -10l-157 -150c-5 1 -7 4 -8 8z" />
    <glyph glyph-name="radical" unicode="&#x221a;" horiz-adv-x="612" 
d="M250 -15l-76 402l-125 -49c-5 3 -6 5 -4 13l142 55l73 -399l392 723c5 1 11 0 13 -4l-402 -741h-13z" />
    <glyph glyph-name="rcaron" unicode="&#x159;" horiz-adv-x="384" 
d="M131 401c68 111 135 134 191 134c43 0 68 -14 77 -21c-2 -6 -6 -10 -12 -12c-18 12 -39 19 -73 19c-73 0 -135 -57 -190 -152l-78 -368c-4 -2 -10 -2 -14 0l112 524c4 2 10 2 14 0zM283 601l-98 94c2 4 4 8 10 10l95 -91l138 92c5 -1 7 -5 6 -10l-138 -95h-13z" />
    <glyph glyph-name="rcommaaccent" unicode="&#x157;" horiz-adv-x="384" 
d="M-6 -138l-7 6s30 30 37 62c-4 0 -9 2 -9 2l4 20s3 2 12 2c8 0 12 -2 12 -2l-4 -17c-9 -44 -45 -73 -45 -73zM131 401c68 111 135 134 191 134c43 0 68 -14 77 -21c-2 -6 -6 -10 -12 -12c-18 12 -39 19 -73 19c-73 0 -135 -57 -190 -152l-78 -368c-4 -2 -10 -2 -14 0
l112 524c4 2 10 2 14 0z" />
    <glyph glyph-name="registered" unicode="&#xae;" horiz-adv-x="547" 
d="M106 471c26 121 124 202 245 202s185 -81 159 -202s-124 -202 -245 -202s-185 81 -159 202zM118 471c-24 -114 36 -190 150 -190s206 76 230 190s-36 190 -150 190s-206 -76 -230 -190zM351 589c48 0 63 -22 55 -64c-7 -31 -26 -52 -57 -58l36 -104s-1 -2 -6 -2
s-7 1 -7 1l-35 103h-8h-77l-22 -103s-1 -1 -7 -1c-4 0 -5 1 -5 1l48 227h85zM254 476h75c40 0 58 18 65 49c7 35 -3 52 -43 52h-75z" />
    <glyph glyph-name="ring" unicode="&#x2da;" horiz-adv-x="344" 
d="M129 515c-62 0 -97 44 -84 100c15 64 69 97 122 97c63 0 99 -43 87 -97c-14 -64 -67 -100 -125 -100zM239 615c11 46 -15 83 -73 83c-61 0 -96 -41 -106 -83c-12 -52 17 -86 69 -86c61 0 100 44 110 86z" />
    <glyph glyph-name="s" unicode="s" horiz-adv-x="443" 
d="M87 401c20 90 85 135 198 135c68 0 117 -21 117 -21c1 -4 -3 -11 -8 -13c0 0 -48 20 -111 20c-100 0 -163 -36 -182 -123c-13 -60 12 -95 113 -125c77 -23 154 -47 132 -147c-18 -86 -86 -137 -199 -137c-91 0 -141 30 -141 30c0 3 5 11 9 13c18 -10 61 -29 133 -29
c91 0 165 36 184 125c20 93 -54 111 -124 132c-105 31 -136 71 -121 140z" />
    <glyph glyph-name="sacute" unicode="&#x15b;" horiz-adv-x="443" 
d="M234 616l156 152c6 -1 7 -5 9 -10l-157 -150c-5 1 -7 4 -8 8zM87 401c20 90 85 135 198 135c68 0 117 -21 117 -21c1 -4 -3 -11 -8 -13c0 0 -48 20 -111 20c-100 0 -163 -36 -182 -123c-13 -60 12 -95 113 -125c77 -23 154 -47 132 -147c-18 -86 -86 -137 -199 -137
c-91 0 -141 30 -141 30c0 3 5 11 9 13c18 -10 61 -29 133 -29c91 0 165 36 184 125c20 93 -54 111 -124 132c-105 31 -136 71 -121 140z" />
    <glyph glyph-name="scaron" unicode="&#x161;" horiz-adv-x="443" 
d="M290 608l-97 93c2 4 5 8 10 10l95 -90l134 90c5 -1 7 -5 6 -10l-135 -93h-13zM87 401c20 90 85 135 198 135c68 0 117 -21 117 -21c1 -4 -3 -11 -8 -13c0 0 -48 20 -111 20c-100 0 -163 -36 -182 -123c-13 -60 12 -95 113 -125c77 -23 154 -47 132 -147
c-18 -86 -86 -137 -199 -137c-91 0 -141 30 -141 30c0 3 5 11 9 13c18 -10 61 -29 133 -29c91 0 165 36 184 125c20 93 -54 111 -124 132c-105 31 -136 71 -121 140z" />
    <glyph glyph-name="scedilla" unicode="&#x15f;" horiz-adv-x="443" 
d="M285 536c68 0 117 -21 117 -21c1 -4 -3 -11 -8 -13c0 0 -48 20 -111 20c-100 0 -163 -36 -182 -123c-13 -60 12 -95 113 -125c77 -23 154 -47 132 -147c-17 -82 -80 -133 -185 -137l-21 -53c74 2 116 -30 106 -79c-13 -59 -53 -94 -126 -94c-36 0 -61 10 -83 27
c2 5 5 8 10 11c19 -16 42 -24 77 -24c54 0 96 24 108 82c8 38 -25 64 -84 64h-20l-4 6l23 60c-91 0 -141 30 -141 30c0 3 5 11 9 13c18 -10 61 -29 133 -29c91 0 165 36 184 125c20 93 -54 111 -124 132c-105 31 -136 71 -121 140c20 90 85 135 198 135z" />
    <glyph glyph-name="scircumflex" unicode="&#x15d;" horiz-adv-x="443" 
d="M178 611c-5 2 -6 6 -6 10l138 94h13l96 -94c-1 -5 -5 -9 -10 -10l-93 91zM87 401c20 90 85 135 198 135c68 0 117 -21 117 -21c1 -4 -3 -11 -8 -13c0 0 -48 20 -111 20c-100 0 -163 -36 -182 -123c-13 -60 12 -95 113 -125c77 -23 154 -47 132 -147
c-18 -86 -86 -137 -199 -137c-91 0 -141 30 -141 30c0 3 5 11 9 13c18 -10 61 -29 133 -29c91 0 165 36 184 125c20 93 -54 111 -124 132c-105 31 -136 71 -121 140z" />
    <glyph glyph-name="scommaaccent" unicode="&#x219;" horiz-adv-x="443" 
d="M96 -187l-7 6s31 30 38 62c-4 0 -10 2 -10 2l4 20s4 2 13 2c8 0 11 -2 11 -2l-3 -17c-10 -44 -46 -73 -46 -73zM87 401c20 90 85 135 198 135c68 0 117 -21 117 -21c1 -4 -3 -11 -8 -13c0 0 -48 20 -111 20c-100 0 -163 -36 -182 -123c-13 -60 12 -95 113 -125
c77 -23 154 -47 132 -147c-18 -86 -86 -137 -199 -137c-91 0 -141 30 -141 30c0 3 5 11 9 13c18 -10 61 -29 133 -29c91 0 165 36 184 125c20 93 -54 111 -124 132c-105 31 -136 71 -121 140z" />
    <glyph glyph-name="section" unicode="&#xa7;" horiz-adv-x="483" 
d="M411 340c-16 -75 -85 -118 -118 -131c45 -22 85 -56 74 -104c-18 -84 -81 -115 -205 -115c-87 0 -143 24 -143 24c1 7 5 12 9 16c20 -9 68 -24 132 -24c117 0 176 26 191 99c12 55 -51 91 -129 116c-67 22 -149 50 -133 129c15 70 87 108 122 123c-44 20 -74 52 -63 105
c16 77 73 112 179 112c71 0 119 -20 128 -23c-1 -7 -5 -12 -9 -14c3 -2 -56 21 -116 21c-105 0 -152 -30 -166 -95c-30 -141 278 -92 247 -239zM229 466c-45 -16 -112 -55 -124 -115c-15 -68 54 -92 125 -116c14 -5 31 -11 48 -18c40 15 104 54 118 121
c17 81 -82 96 -167 128z" />
    <glyph glyph-name="semicolon" unicode=";" horiz-adv-x="217" 
d="M150 418l-4 -20s-6 -4 -15 -4c-8 0 -13 4 -13 4l4 20s7 4 15 4c9 0 13 -4 13 -4zM14 -70l-7 6s31 30 38 62c-4 0 -10 2 -10 2l4 20s4 2 13 2c8 0 11 -2 11 -2l-3 -17c-10 -44 -46 -73 -46 -73z" />
    <glyph glyph-name="seven" unicode="7" horiz-adv-x="488" 
d="M115 680h401c1 -4 1 -6 0 -10c-53 -262 -326 -306 -403 -668c-8 -6 -15 0 -15 0c77 362 350 417 402 663h-388s-1 2 0 7c1 6 3 8 3 8z" />
    <glyph glyph-name="seven.denom" horiz-adv-x="269" 
d="M225 331h-188c-1 4 0 8 3 12h199s0 -4 -3 -16c-29 -139 -158 -138 -198 -325c-4 -2 -8 -2 -12 0c40 189 179 200 199 329z" />
    <glyph glyph-name="seven.num" horiz-adv-x="270" 
d="M300 676h-188c-2 4 -1 8 2 12h199s0 -4 -2 -16c-30 -139 -159 -138 -198 -325c-5 -2 -9 -2 -12 0c39 189 178 200 199 329z" />
    <glyph glyph-name="seveneighths" unicode="&#x215e;" horiz-adv-x="642" 
d="M545 700c0 0 2 2 6 2c5 0 5 -2 5 -2l-539 -709s-1 -1 -6 -1c-6 0 -7 1 -7 1zM136 689h199s1 -4 -2 -16c-32 -149 -160 -145 -198 -325c-5 -3 -10 -3 -13 0c39 188 182 197 200 328h-188c-3 2 -1 11 2 13zM365 271c9 45 48 77 117 77c63 0 95 -28 84 -81
c-10 -48 -47 -78 -85 -96c37 -18 68 -40 58 -88c-12 -54 -61 -88 -131 -88c-66 0 -108 29 -95 89c12 56 58 89 97 108c-32 17 -54 39 -45 79zM553 267c9 44 -18 68 -75 68c-55 0 -92 -24 -100 -62c-12 -57 40 -74 90 -97c42 24 76 52 85 91zM526 81c13 61 -50 78 -105 105
c-29 -15 -84 -47 -96 -102c-12 -54 22 -77 86 -77c55 0 105 24 115 74z" />
    <glyph glyph-name="seveninferior" unicode="&#x2087;" horiz-adv-x="268" 
d="M204 235h-188c-1 4 0 8 2 12h199s1 -4 -2 -16c-29 -139 -158 -138 -198 -325c-4 -2 -8 -2 -12 0c39 189 178 200 199 329z" />
    <glyph glyph-name="six" unicode="6" horiz-adv-x="550" 
d="M497 680c1 -5 0 -10 -2 -14c-182 -17 -318 -117 -391 -321c71 49 134 71 207 71c130 0 185 -73 155 -213c-29 -136 -131 -213 -249 -213c-117 0 -191 80 -151 267c59 280 233 409 431 423zM451 203c28 130 -20 198 -140 198c-75 0 -142 -24 -213 -74
c-7 -23 -12 -49 -17 -74c-36 -170 27 -248 136 -248s206 68 234 198z" />
    <glyph glyph-name="six.denom" horiz-adv-x="308" 
d="M15 149c19 93 93 183 223 197c1 -2 1 -7 -2 -11c-112 -16 -181 -80 -209 -177c22 17 59 37 113 37c64 0 96 -37 83 -96c-14 -65 -61 -104 -128 -104c-74 0 -102 54 -80 154zM211 99c11 52 -17 84 -73 84c-64 0 -102 -28 -113 -39c-18 -91 7 -137 72 -137
c59 0 101 33 114 92z" />
    <glyph glyph-name="six.num" horiz-adv-x="308" 
d="M89 497c19 93 92 183 222 197c2 -2 2 -7 -1 -11c-112 -16 -181 -80 -209 -177c22 17 59 37 113 37c64 0 96 -37 83 -96c-14 -65 -61 -104 -128 -104c-74 0 -102 54 -80 154zM285 447c11 52 -17 84 -73 84c-64 0 -102 -28 -113 -39c-18 -91 7 -137 72 -137
c59 0 101 33 114 92z" />
    <glyph glyph-name="sixinferior" unicode="&#x2086;" horiz-adv-x="309" 
d="M-6 53c20 93 93 183 223 197c2 -2 2 -7 -1 -11c-113 -16 -181 -80 -210 -177c23 17 60 37 114 37c64 0 95 -37 83 -96c-14 -65 -62 -104 -129 -104c-74 0 -101 54 -80 154zM191 3c11 52 -18 84 -74 84c-64 0 -101 -28 -113 -39c-17 -91 8 -137 73 -137
c59 0 101 33 114 92z" />
    <glyph glyph-name="slash" unicode="/" horiz-adv-x="411" 
d="M-29 -44c-6 -2 -12 -2 -16 0l505 791c5 2 11 2 16 0z" />
    <glyph glyph-name="space" unicode=" " horiz-adv-x="269" 
 />
    <glyph glyph-name="sterling" unicode="&#xa3;" horiz-adv-x="502" 
d="M37 15h341c1 -5 0 -10 -3 -15h-361l3 16c149 108 152 214 140 316h-82c-1 5 0 10 3 15h77c-10 65 -18 115 -6 172c26 119 114 172 232 172c74 0 129 -20 136 -23c-1 -5 -5 -12 -10 -14c-5 2 -52 22 -132 22c-117 0 -189 -53 -211 -160c-12 -56 -4 -108 7 -169h210
c1 -5 0 -10 -3 -15h-205c11 -99 6 -215 -136 -317z" />
    <glyph glyph-name="summation" unicode="&#x2211;" horiz-adv-x="554" 
d="M-65 -194l323 455l-119 425l1 8h447c1 -5 0 -10 -3 -15h-426l117 -418l-321 -453h451s2 0 1 -6c-2 -7 -4 -9 -4 -9h-470z" />
    <glyph glyph-name="t" unicode="t" horiz-adv-x="330" 
d="M245 10c1 -3 1 -8 0 -12c-18 -5 -37 -8 -68 -8c-106 0 -118 65 -95 177l74 345h-81s-2 3 -1 7c2 7 4 7 4 7h81l22 105c4 5 10 6 15 6l-23 -111h170s1 -2 0 -7s-3 -7 -3 -7h-170l-74 -345c-22 -106 -11 -163 84 -163c38 0 65 6 65 6z" />
    <glyph glyph-name="tbar" unicode="&#x167;" horiz-adv-x="332" 
d="M184 4c38 0 65 6 65 6c1 -3 1 -8 0 -12c-18 -5 -37 -8 -68 -8c-106 0 -118 65 -95 177l24 112h-67c0 5 1 9 3 14h67l47 219h-81s-2 3 -1 7c2 7 4 7 4 7h81l22 105c4 5 10 6 15 6l-23 -111h170s1 -2 0 -7s-3 -7 -3 -7h-170l-47 -219h135c0 -5 -1 -9 -3 -14h-135l-24 -112
c-22 -106 -11 -163 84 -163z" />
    <glyph glyph-name="tcaron" unicode="&#x165;" horiz-adv-x="330" 
d="M417 729c-8 -46 -39 -107 -87 -136c-6 -1 -9 2 -9 5c46 31 71 78 80 132c8 2 14 2 16 -1zM245 10c1 -3 1 -8 0 -12c-18 -5 -37 -8 -68 -8c-106 0 -118 65 -95 177l74 345h-81s-2 3 -1 7c2 7 4 7 4 7h81l22 105c4 5 10 6 15 6l-23 -111h170s1 -2 0 -7s-3 -7 -3 -7h-170
l-74 -345c-22 -106 -11 -163 84 -163c38 0 65 6 65 6z" />
    <glyph glyph-name="thorn" unicode="&#xfe;" 
d="M226 -10c-76 0 -137 46 -154 128l-78 -367s-2 -2 -7 -2c-6 0 -8 2 -8 2l212 995s2 2 8 2s7 -2 7 -2l-73 -343c43 76 119 133 202 133c131 0 180 -87 141 -273c-39 -183 -124 -273 -250 -273zM86 184c-15 -85 39 -179 142 -179c117 0 196 84 233 258
c37 177 -8 258 -130 258c-108 0 -196 -108 -215 -195z" />
    <glyph glyph-name="three" unicode="3" horiz-adv-x="507" 
d="M402 170c-25 -117 -112 -180 -254 -180c-94 0 -152 31 -152 31c1 4 4 10 8 13c32 -14 75 -29 146 -29c133 0 214 56 237 163c32 154 -83 182 -170 182h-37c0 5 1 10 4 15h37c77 0 193 16 224 163c19 87 -22 147 -143 147c-85 0 -155 -26 -155 -26c-3 1 -5 7 -4 12
c0 0 74 29 164 29c131 0 172 -75 154 -161c-18 -85 -66 -153 -183 -173c107 -15 144 -92 124 -186z" />
    <glyph glyph-name="three.denom" horiz-adv-x="306" 
d="M212 89c-13 -59 -66 -94 -148 -94c-46 0 -80 11 -80 11c0 4 2 9 6 11c0 0 32 -10 76 -10c76 0 123 31 134 82c13 61 -26 85 -79 85h-42c-1 3 0 9 2 12h42c54 0 91 28 101 75c11 49 -16 75 -76 75c-50 0 -85 -9 -85 -9c-1 3 -1 8 1 11c0 0 37 10 86 10c69 0 99 -30 86 -87
c-8 -39 -36 -72 -78 -81c39 -7 65 -37 54 -91z" />
    <glyph glyph-name="three.num" horiz-adv-x="305" 
d="M284 435c-12 -59 -66 -94 -148 -94c-46 0 -79 11 -79 11c0 4 2 9 5 11c0 0 33 -10 77 -10c76 0 123 31 133 82c13 61 -26 85 -79 85h-42c-1 3 0 9 3 12h42c54 0 91 28 101 75c10 49 -16 75 -76 75c-50 0 -85 -9 -85 -9c-1 3 -1 8 0 11c0 0 37 10 86 10
c69 0 99 -30 87 -87c-8 -39 -36 -72 -78 -81c38 -7 65 -37 53 -91z" />
    <glyph glyph-name="threeeighths" unicode="&#x215c;" horiz-adv-x="735" 
d="M637 700c0 0 2 2 8 2c5 0 5 -2 5 -2l-539 -709s-1 -1 -6 -1c-6 0 -7 1 -7 1zM659 267c-10 -47 -47 -78 -84 -96c37 -19 66 -43 57 -88c-12 -55 -61 -88 -131 -88c-72 0 -107 33 -95 89c12 55 57 89 97 107c-32 18 -53 41 -44 80c10 48 53 77 116 77s95 -30 84 -81z
M572 336c-55 0 -93 -24 -101 -65c-13 -57 43 -74 93 -95c47 24 74 52 83 91c9 43 -19 69 -75 69zM418 84c-10 -48 21 -77 86 -77c62 0 105 27 115 74c14 63 -48 77 -107 105c-36 -18 -82 -47 -94 -102zM295 435c-12 -59 -66 -94 -148 -94c-46 0 -79 11 -79 11c0 4 2 9 5 11
c0 0 33 -10 77 -10c76 0 123 31 133 82c13 61 -26 85 -79 85h-42c-1 3 0 9 3 12h42c54 0 91 28 101 75c10 49 -16 75 -76 75c-50 0 -85 -9 -85 -9c-1 3 -1 8 0 11c0 0 37 10 86 10c69 0 99 -30 87 -87c-8 -39 -36 -72 -78 -81c38 -7 65 -37 53 -91z" />
    <glyph glyph-name="threeinferior" unicode="&#x2083;" horiz-adv-x="306" 
d="M191 -8c-12 -59 -66 -94 -148 -94c-46 0 -79 11 -79 11c-1 4 2 9 5 11c0 0 33 -10 77 -10c76 0 122 31 133 82c13 61 -26 85 -79 85h-42c-1 3 0 9 3 12h42c54 0 91 28 101 75c10 49 -16 75 -76 75c-50 0 -85 -9 -85 -9c-2 3 -1 8 0 11c0 0 37 10 86 10
c69 0 99 -30 87 -87c-8 -39 -36 -72 -78 -81c38 -7 65 -37 53 -91z" />
    <glyph glyph-name="threequarters" unicode="&#xbe;" horiz-adv-x="680" 
d="M655 700l-539 -709s-1 -1 -6 -1c-6 0 -7 1 -7 1l539 709s4 2 8 2c5 0 5 -2 5 -2zM295 435c-12 -59 -66 -94 -148 -94c-46 0 -79 11 -79 11c0 4 2 9 5 11c0 0 33 -10 77 -10c76 0 123 31 133 82c13 61 -26 85 -79 85h-42c-1 3 0 9 3 12h42c54 0 91 28 101 75
c10 49 -16 75 -76 75c-50 0 -85 -9 -85 -9c-1 3 -1 8 0 11c0 0 37 10 86 10c69 0 99 -30 87 -87c-8 -39 -36 -72 -78 -81c38 -7 65 -37 53 -91zM547 116h37c1 -5 0 -7 -3 -12h-37l-22 -103c-4 -2 -8 -2 -12 0l22 103h-183c-1 3 2 7 2 7l233 231c6 2 11 0 11 0zM578 321
l-208 -205h165z" />
    <glyph glyph-name="threesuperior" unicode="&#xb3;" horiz-adv-x="305" 
d="M284 435c-12 -59 -66 -94 -148 -94c-46 0 -79 11 -79 11c0 4 2 9 5 11c0 0 33 -10 77 -10c76 0 123 31 133 82c13 61 -26 85 -79 85h-42c-1 3 0 9 3 12h42c54 0 91 28 101 75c10 49 -16 75 -76 75c-50 0 -85 -9 -85 -9c-1 3 -1 8 0 11c0 0 37 10 86 10
c69 0 99 -30 87 -87c-8 -39 -36 -72 -78 -81c38 -7 65 -37 53 -91z" />
    <glyph glyph-name="tilde" unicode="&#x2dc;" horiz-adv-x="327" 
d="M214 632c31 0 47 23 53 33c5 -1 10 -3 12 -7c0 0 -21 -41 -69 -41c-44 0 -62 40 -100 40c-33 0 -50 -34 -50 -34c-6 1 -10 3 -12 7c0 0 19 41 67 41c38 0 54 -39 99 -39z" />
    <glyph glyph-name="trademark" unicode="&#x2122;" horiz-adv-x="633" 
d="M130 720h203c2 -2 1 -5 0 -8c0 -1 -1 -4 -3 -7h-93l-58 -270s-2 -3 -8 -3c-5 0 -7 3 -7 3l58 270h-95c-1 2 -1 6 -1 7c1 2 2 6 4 8zM389 717c7 2 14 2 19 0l55 -195l143 195c6 2 14 2 18 0l-60 -282s-3 -2 -7 -2c-5 0 -8 2 -8 2l29 136l27 124l-135 -183s-3 -3 -10 -3
s-8 3 -8 3l-53 183l-26 -123l-30 -137s-3 -2 -7 -2s-7 2 -7 2z" />
    <glyph glyph-name="two" unicode="2" horiz-adv-x="521" 
d="M166 641c-3 3 -3 7 -2 13c0 0 75 36 187 36c102 0 177 -48 152 -170c-24 -109 -98 -148 -238 -220c-86 -44 -202 -71 -237 -233c-6 -29 -7 -53 -7 -52h362c2 -5 1 -10 -3 -15h-375s1 32 8 67c34 160 141 192 245 245c112 57 207 100 231 213c12 58 11 150 -143 150
c-79 0 -137 -17 -180 -34z" />
    <glyph glyph-name="two.denom" horiz-adv-x="301" 
d="M-14 41c29 136 223 103 247 218c8 36 -2 77 -82 77c-40 -1 -68 -8 -79 -11c-1 3 -1 8 1 12c-2 0 33 11 82 11c86 0 100 -44 90 -90c-27 -124 -221 -91 -247 -217c-2 -9 -4 -19 -4 -29h199c0 -1 1 -4 0 -6c0 -2 -2 -5 -3 -6h-208s-1 18 4 41z" />
    <glyph glyph-name="two.num" horiz-adv-x="301" 
d="M59 387c29 136 223 103 248 218c7 36 -2 77 -82 77c-40 -1 -69 -8 -79 -11c-2 3 -2 8 0 12c-2 0 33 11 82 11c86 0 100 -44 90 -90c-26 -124 -220 -91 -247 -217c-2 -9 -4 -19 -4 -29h199c1 -1 1 -4 1 -6c-1 -2 -2 -5 -3 -6h-208s-2 18 3 41z" />
    <glyph glyph-name="twoinferior" unicode="&#x2082;" horiz-adv-x="301" 
d="M-35 -55c29 136 223 103 248 218c7 36 -2 77 -82 77c-40 -1 -69 -8 -79 -11c-2 3 -2 8 0 12c-2 0 34 11 83 11c86 0 99 -44 89 -90c-26 -124 -220 -91 -247 -217c-2 -9 -4 -19 -4 -29h199c1 -1 1 -4 1 -6c-1 -2 -2 -5 -3 -6h-208s-2 18 3 41z" />
    <glyph glyph-name="twosuperior" unicode="&#xb2;" horiz-adv-x="301" 
d="M59 387c29 136 223 103 248 218c7 36 -2 77 -82 77c-40 -1 -69 -8 -79 -11c-2 3 -2 8 0 12c-2 0 33 11 82 11c86 0 100 -44 90 -90c-26 -124 -220 -91 -247 -217c-2 -9 -4 -19 -4 -29h199c1 -1 1 -4 1 -6c-1 -2 -2 -5 -3 -6h-208s-2 18 3 41z" />
    <glyph glyph-name="u" unicode="u" horiz-adv-x="551" 
d="M58 143l81 381c5 3 11 3 14 0l-80 -380c-19 -86 21 -140 107 -140c75 0 159 37 229 150l78 370c5 3 11 3 14 0l-111 -522c-4 -3 -10 -3 -14 0l26 121c-62 -90 -140 -133 -225 -133c-93 0 -138 62 -119 153z" />
    <glyph glyph-name="uacute" unicode="&#xfa;" horiz-adv-x="551" 
d="M288 626l147 143c6 -1 7 -5 9 -10l-148 -141c-4 1 -7 4 -8 8zM58 143l81 381c5 3 11 3 14 0l-80 -380c-19 -86 23 -140 109 -140c75 0 157 37 227 150l78 370c5 3 11 3 14 0l-111 -522c-4 -3 -10 -3 -14 0l26 121c-62 -90 -140 -133 -225 -133c-93 0 -138 62 -119 153z
" />
    <glyph glyph-name="ubreve" unicode="&#x16d;" horiz-adv-x="551" 
d="M58 143l81 381c5 3 11 3 14 0l-80 -380c-19 -86 23 -140 109 -140c75 0 157 37 227 150l78 370c5 3 11 3 14 0l-111 -522c-4 -3 -10 -3 -14 0l26 121c-62 -90 -140 -133 -225 -133c-93 0 -138 62 -119 153zM350 662c67 0 110 35 125 48c4 -3 6 -5 7 -10
c0 0 -53 -52 -135 -52s-113 52 -113 52c3 5 5 8 11 9c8 -10 38 -47 105 -47z" />
    <glyph glyph-name="ucircumflex" unicode="&#xfb;" horiz-adv-x="551" 
d="M58 143l81 381c5 3 11 3 14 0l-80 -380c-19 -86 23 -140 109 -140c75 0 157 37 227 150l78 370c5 3 11 3 14 0l-111 -522c-4 -3 -10 -3 -14 0l26 121c-62 -90 -140 -133 -225 -133c-93 0 -138 62 -119 153zM225 610c-5 2 -6 6 -6 10l134 92h13l98 -95
c-1 -5 -5 -9 -10 -10l-96 92z" />
    <glyph glyph-name="udieresis" unicode="&#xfc;" horiz-adv-x="551" 
d="M58 143l81 381c5 3 11 3 14 0l-80 -380c-19 -86 23 -140 109 -140c75 0 157 37 227 150l78 370c5 3 11 3 14 0l-111 -522c-4 -3 -10 -3 -14 0l26 121c-62 -90 -140 -133 -225 -133c-93 0 -138 62 -119 153zM299 701l-4 -20s-6 -4 -15 -4c-8 0 -13 4 -13 4l4 20s7 4 15 4
c9 0 13 -4 13 -4zM433 701l-4 -20s-6 -4 -15 -4c-8 0 -13 4 -13 4l4 20s7 4 15 4c9 0 13 -4 13 -4z" />
    <glyph glyph-name="ugrave" unicode="&#xf9;" horiz-adv-x="551" 
d="M58 143l81 381c5 3 11 3 14 0l-80 -380c-19 -86 23 -140 109 -140c75 0 157 37 227 150l78 370c5 3 11 3 14 0l-111 -522c-4 -3 -10 -3 -14 0l26 121c-62 -90 -140 -133 -225 -133c-93 0 -138 62 -119 153zM280 761c4 5 6 8 13 10l92 -152c-3 -4 -7 -7 -12 -8z" />
    <glyph glyph-name="uhungarumlaut" unicode="&#x171;" horiz-adv-x="551" 
d="M387 737l-120 -114c-6 1 -9 4 -10 8l113 114c9 -1 11 -3 17 -8zM498 737l-120 -114c-5 1 -10 4 -10 8l112 114c10 -1 13 -3 18 -8zM58 143l81 381c5 3 11 3 14 0l-80 -380c-19 -86 23 -140 109 -140c75 0 157 37 227 150l78 370c5 3 11 3 14 0l-111 -522
c-4 -3 -10 -3 -14 0l26 121c-62 -90 -140 -133 -225 -133c-93 0 -138 62 -119 153z" />
    <glyph glyph-name="umacron" unicode="&#x16b;" horiz-adv-x="551" 
d="M58 143l81 381c5 3 11 3 14 0l-80 -380c-19 -86 23 -140 109 -140c75 0 157 37 227 150l78 370c5 3 11 3 14 0l-111 -522c-4 -3 -10 -3 -14 0l26 121c-62 -90 -140 -133 -225 -133c-93 0 -138 62 -119 153zM460 669h-214c-1 5 0 10 3 15h214c1 -5 0 -9 -3 -15z" />
    <glyph glyph-name="underscore" unicode="_" horiz-adv-x="491" 
d="M375 -35h-392c-1 5 0 10 3 15h392c1 -5 0 -10 -3 -15z" />
    <glyph glyph-name="uni00AD" unicode="&#xad;" horiz-adv-x="284" 
 />
    <glyph glyph-name="Tcommaaccent" unicode="&#x162;" horiz-adv-x="522" 
d="M123 720h451s2 0 1 -7c-2 -6 -4 -8 -4 -8h-215l-150 -703s-2 -2 -8 -2c-4 0 -7 2 -7 2l150 703h-221s-2 3 0 8c1 6 3 7 3 7zM144 -171l-7 6s30 30 37 62c-4 0 -10 2 -10 2l5 20s3 2 12 2c8 0 12 -2 12 -2l-4 -17c-9 -44 -45 -73 -45 -73z" />
    <glyph glyph-name="Tcommaaccent" unicode="&#x21a;" horiz-adv-x="522" 
d="M123 720h451s2 0 1 -7c-2 -6 -4 -8 -4 -8h-215l-150 -703s-2 -2 -8 -2c-4 0 -7 2 -7 2l150 703h-221s-2 3 0 8c1 6 3 7 3 7zM144 -171l-7 6s30 30 37 62c-4 0 -10 2 -10 2l5 20s3 2 12 2c8 0 12 -2 12 -2l-4 -17c-9 -44 -45 -73 -45 -73z" />
    <glyph glyph-name="tcommaaccent" unicode="&#x163;" horiz-adv-x="330" 
d="M245 10c1 -3 1 -8 0 -12c-18 -5 -37 -8 -68 -8c-106 0 -118 65 -95 177l74 345h-81s-2 3 -1 7c2 7 4 7 4 7h81l22 105c4 5 10 6 15 6l-23 -111h170s1 -2 0 -7s-3 -7 -3 -7h-170l-74 -345c-22 -106 -11 -163 84 -163c38 0 65 6 65 6zM92 -187l-7 6s31 30 38 62
c-4 0 -10 2 -10 2l4 20s4 2 13 2c8 0 11 -2 11 -2l-3 -17c-10 -44 -46 -73 -46 -73z" />
    <glyph glyph-name="tcommaaccent" unicode="&#x21b;" horiz-adv-x="330" 
d="M245 10c1 -3 1 -8 0 -12c-18 -5 -37 -8 -68 -8c-106 0 -118 65 -95 177l74 345h-81s-2 3 -1 7c2 7 4 7 4 7h81l22 105c4 5 10 6 15 6l-23 -111h170s1 -2 0 -7s-3 -7 -3 -7h-170l-74 -345c-22 -106 -11 -163 84 -163c38 0 65 6 65 6zM92 -187l-7 6s31 30 38 62
c-4 0 -10 2 -10 2l4 20s4 2 13 2c8 0 11 -2 11 -2l-3 -17c-10 -44 -46 -73 -46 -73z" />
    <glyph glyph-name="uni0401" unicode="&#x401;" 
d="M202 720h379c1 -5 0 -10 -3 -15h-364l-71 -332h314c1 -5 0 -10 -3 -15h-314l-73 -343h374c1 -5 0 -10 -3 -15h-389zM367 841l-5 -20s-5 -4 -14 -4c-8 0 -14 4 -14 4l5 20s7 4 15 4c9 0 13 -4 13 -4zM501 841l-5 -20s-5 -4 -14 -4c-8 0 -14 4 -14 4l5 20s7 4 15 4
c9 0 13 -4 13 -4z" />
    <glyph glyph-name="uni0410" unicode="&#x410;" horiz-adv-x="631" 
d="M406 723l138 -722s-3 -2 -8 -2c-4 0 -7 2 -7 2l-44 227h-371l-139 -227c-5 -2 -13 -3 -18 0l445 722c1 1 3 1 4 0zM124 243h358l-84 446z" />
    <glyph glyph-name="uni0411" unicode="&#x411;" horiz-adv-x="607" 
d="M202 720h360s1 -3 0 -8s-3 -7 -3 -7h-345l-67 -314h224c120 0 179 -78 154 -196c-25 -119 -115 -195 -235 -195h-241zM144 376l-77 -361h226c113 0 194 75 217 182s-29 179 -142 179h-224z" />
    <glyph glyph-name="uni0412" unicode="&#x412;" horiz-adv-x="627" 
d="M579 535c-27 -128 -109 -161 -168 -172c51 -3 147 -35 116 -178c-26 -127 -105 -185 -252 -185h-226l153 720h222c127 0 180 -65 155 -185zM143 370h207c117 0 190 57 214 167c23 110 -21 168 -147 168h-203zM67 15h215c146 0 208 66 230 170c24 113 -24 171 -158 171
h-214z" />
    <glyph glyph-name="uni0413" unicode="&#x413;" horiz-adv-x="494" 
d="M202 720h346s1 -3 0 -8s-3 -7 -3 -7h-331l-150 -703s-3 -2 -7 -2c-5 0 -8 2 -8 2z" />
    <glyph glyph-name="uni0414" unicode="&#x414;" horiz-adv-x="665" 
d="M471 15h78l-32 -153c-6 -2 -11 -2 -15 0l29 138h-559l-29 -138c-6 -2 -11 -2 -15 0l32 153h65c84 94 113 203 156 352l102 353h338zM294 705l-99 -343c-42 -144 -82 -267 -153 -347h414l147 690h-309z" />
    <glyph glyph-name="uni0415" unicode="&#x415;" 
d="M202 720h379c1 -5 0 -10 -3 -15h-364l-71 -332h314c1 -5 0 -10 -3 -15h-314l-73 -343h374c1 -5 0 -10 -3 -15h-389z" />
    <glyph glyph-name="uni0416" unicode="&#x416;" horiz-adv-x="935" 
d="M659 372l183 -370c-1 0 -4 -2 -9 -2c-7 0 -9 2 -9 2l-178 364h-156l-78 -364s-3 -2 -7 -2c-5 0 -8 2 -8 2l78 364h-156l-332 -364c-3 -1 -7 -2 -11 -2c-5 0 -8 2 -9 2l341 374l-160 342s9 6 18 0l156 -337h156l72 337s3 2 8 2c4 0 7 -2 7 -2l-72 -337h154l301 337
c11 6 19 0 19 0z" />
    <glyph glyph-name="uni0417" unicode="&#x417;" horiz-adv-x="538" 
d="M495 549c-28 -130 -120 -169 -193 -181c68 -10 165 -49 135 -191c-21 -97 -94 -187 -280 -187c-103 0 -171 28 -171 28c1 6 4 11 9 15c30 -10 79 -28 165 -28c174 0 243 84 262 173c34 162 -98 182 -194 182h-45c-1 6 0 10 4 15h45c85 0 214 22 247 175
c19 92 -20 165 -157 165c-94 0 -176 -31 -176 -31c-4 3 -6 9 -3 15c0 0 80 31 181 31c142 0 193 -79 171 -181z" />
    <glyph glyph-name="uni0418" unicode="&#x418;" horiz-adv-x="686" 
d="M643 718c0 0 3 2 9 2c5 0 8 -2 8 -2l-153 -716s-2 -2 -8 -2c-5 0 -7 2 -7 2l147 690l-574 -690s-2 -2 -8 -2c-5 0 -8 2 -8 2l153 716s3 2 8 2c6 0 7 -2 7 -2l-145 -684z" />
    <glyph glyph-name="uni0419" unicode="&#x419;" horiz-adv-x="686" 
d="M465 832c65 0 129 42 129 42c6 -2 8 -5 6 -11c0 0 -59 -45 -137 -45c-76 0 -121 45 -121 45c3 4 7 7 12 9c0 0 40 -40 111 -40zM643 718c0 0 3 2 9 2c5 0 8 -2 8 -2l-153 -716s-2 -2 -8 -2c-5 0 -7 2 -7 2l147 690l-574 -690s-2 -2 -8 -2c-5 0 -8 2 -8 2l153 716s3 2 8 2
c6 0 7 -2 7 -2l-145 -684z" />
    <glyph glyph-name="uni041A" unicode="&#x41a;" horiz-adv-x="604" 
d="M309 381l308 337c11 6 19 0 19 0l-316 -346l191 -370c-1 0 -4 -2 -9 -2c-7 0 -9 2 -9 2l-186 364h-165l-78 -364s-3 -2 -7 -2c-5 0 -8 2 -8 2l153 716s3 2 7 2c5 0 8 -2 8 -2l-72 -337h164z" />
    <glyph glyph-name="uni041B" unicode="&#x41b;" horiz-adv-x="647" 
d="M-12 -4c-5 0 -24 1 -30 4c-1 5 0 9 3 14c7 -2 21 -4 30 -3c54 4 96 18 201 382l95 327h334l-153 -718s-3 -2 -8 -2c-4 0 -8 2 -7 2l150 703h-305l-91 -314c-108 -373 -152 -391 -219 -395z" />
    <glyph glyph-name="uni041C" unicode="&#x41c;" horiz-adv-x="864" 
d="M414 227l402 491c7 3 15 3 22 0l-153 -716s-2 -2 -8 -2s-7 2 -7 2l139 647l13 56l-398 -488c-8 -3 -16 -3 -22 0l-188 488l-12 -56l-138 -647s-1 -2 -7 -2s-8 2 -8 2l153 716c7 3 15 3 22 0z" />
    <glyph glyph-name="uni041D" unicode="&#x41d;" horiz-adv-x="676" 
d="M562 377l73 341s3 2 7 2c5 0 8 -2 8 -2l-153 -716s-2 -2 -8 -2s-7 2 -7 2l77 360h-418l-77 -360s-2 -2 -7 -2c-7 0 -8 2 -8 2l153 716s3 2 8 2c4 0 7 -2 7 -2l-73 -341h418z" />
    <glyph glyph-name="uni041E" unicode="&#x41e;" horiz-adv-x="675" 
d="M89 360c56 260 176 370 339 370c167 0 234 -127 181 -370c-55 -259 -176 -370 -338 -370c-169 0 -234 127 -182 370zM594 360c52 243 -10 355 -169 355c-150 0 -267 -103 -321 -355c-51 -243 11 -355 170 -355c149 0 267 103 320 355z" />
    <glyph glyph-name="uni041F" unicode="&#x41f;" horiz-adv-x="664" 
d="M638 720l-153 -718s-3 -2 -7 -2c-5 0 -8 2 -8 2l150 703h-406l-150 -703s-2 -2 -7 -2c-4 0 -8 2 -8 2l153 718h436z" />
    <glyph glyph-name="uni0420" unicode="&#x420;" horiz-adv-x="598" 
d="M131 317l-67 -315s-2 -2 -8 -2c-5 0 -7 2 -7 2l153 718h241c116 0 168 -75 141 -202c-27 -126 -111 -201 -227 -201h-226zM135 332h227c105 0 182 69 207 185c25 118 -17 189 -127 189h-227z" />
    <glyph glyph-name="uni0421" unicode="&#x421;" horiz-adv-x="552" 
d="M90 359c55 257 159 371 333 371c109 0 159 -32 159 -32c-1 -5 -4 -9 -9 -12c0 0 -53 29 -150 29c-166 0 -266 -112 -318 -356c-52 -243 -6 -354 160 -354c105 0 139 13 178 32c5 -2 7 -8 6 -14c-39 -18 -69 -33 -185 -33c-175 0 -228 116 -174 369z" />
    <glyph glyph-name="uni0422" unicode="&#x422;" horiz-adv-x="522" 
d="M123 720h451s2 0 1 -7c-2 -6 -4 -8 -4 -8h-215l-150 -703s-2 -2 -8 -2c-4 0 -7 2 -7 2l150 703h-221s-2 3 0 8c1 6 3 7 3 7z" />
    <glyph glyph-name="uni0423" unicode="&#x423;" horiz-adv-x="602" 
d="M640 718c0 0 0 2 8 2s9 -2 9 -2l-320 -525c-103 -169 -141 -193 -223 -193c-29 0 -48 5 -48 5c0 4 1 8 5 13c0 0 24 -4 46 -4c53 0 94 11 159 109h-2l-163 595s1 2 8 2c5 0 9 -2 9 -2l147 -549l8 -33h2l24 37z" />
    <glyph glyph-name="uni0424" unicode="&#x424;" horiz-adv-x="786" 
d="M457 643l17 83s4 2 9 2s6 -2 6 -2l-17 -83c177 0 313 -56 268 -270c-46 -214 -205 -265 -382 -265l-23 -106s-3 -2 -7 -2c-5 0 -8 2 -8 2l23 106c-177 0 -310 56 -264 270c45 214 201 265 378 265zM346 123l107 505c-180 0 -318 -53 -360 -252c-43 -200 73 -253 253 -253
zM468 628l-107 -505c180 0 322 54 364 253c42 200 -77 252 -257 252z" />
    <glyph glyph-name="uni0425" unicode="&#x425;" horiz-adv-x="566" 
d="M609 718l-306 -357l158 -360s-3 -1 -9 -1c-3 0 -7 2 -7 2l-152 346l-297 -346c-3 -2 -8 -2 -12 -2c-2 0 -5 1 -7 2l309 361l-156 355s2 2 9 2c3 0 7 -2 7 -2l151 -343l293 343c7 3 14 3 19 0z" />
    <glyph glyph-name="uni0426" unicode="&#x426;" horiz-adv-x="693" 
d="M49 0l153 718s4 2 8 2c5 0 7 -2 7 -2l-150 -703h418l150 703s3 2 7 2c5 0 8 -2 8 -2l-150 -703h77l-32 -153c-2 -1 -4 -2 -8 -2c-3 0 -7 1 -7 2l29 138h-510z" />
    <glyph glyph-name="uni0427" unicode="&#x427;" horiz-adv-x="627" 
d="M513 375l73 343s3 2 7 2c5 0 8 -2 8 -2l-153 -716s-3 -2 -8 -2c-4 0 -7 2 -7 2l76 356c7 3 -98 -41 -226 -41c-126 0 -203 48 -165 227l37 174s4 2 8 2c5 0 7 -2 7 -2l-37 -173c-34 -161 16 -213 159 -213c128 0 227 45 221 43z" />
    <glyph glyph-name="uni0428" unicode="&#x428;" horiz-adv-x="961" 
d="M49 0l153 718s2 2 8 2s7 -2 7 -2l-150 -703h344l150 703s0 2 7 2c9 0 8 -2 8 -2l-150 -703h344l150 703s2 2 7 2c6 0 8 -2 8 -2l-153 -718h-733z" />
    <glyph glyph-name="uni0429" unicode="&#x429;" horiz-adv-x="978" 
d="M49 0l153 718s2 2 8 2c5 0 7 -2 7 -2l-150 -703h344l150 703s3 2 7 2c5 0 8 -2 8 -2l-150 -703h344l150 703s3 2 7 2c5 0 8 -2 8 -2l-150 -703h77l-32 -153c-4 -1 -4 -2 -8 -2s-6 1 -7 2l29 138h-795z" />
    <glyph glyph-name="uni042A" unicode="&#x42a;" horiz-adv-x="671" 
d="M213 390h225c119 0 178 -77 153 -195c-25 -119 -117 -195 -236 -195h-240l150 705h-154s-2 2 -1 7c2 7 4 8 4 8h169zM210 375l-77 -360h225c114 0 194 74 217 181c23 108 -26 179 -140 179h-225z" />
    <glyph glyph-name="uni042B" unicode="&#x42b;" horiz-adv-x="852" 
d="M202 718c0 0 4 2 7 2c5 0 8 -2 8 -2l-70 -328h225c119 0 178 -75 153 -193c-25 -119 -117 -197 -236 -197h-240zM811 718c0 0 2 2 8 2s7 -2 7 -2l-153 -716s-1 -2 -7 -2c-5 0 -8 2 -8 2zM144 375l-77 -360h225c114 0 194 74 217 181c23 108 -26 179 -140 179h-225z" />
    <glyph glyph-name="uni042C" unicode="&#x42c;" horiz-adv-x="605" 
d="M147 390h225c119 0 178 -77 153 -195c-25 -119 -117 -195 -236 -195h-240l153 718s4 2 7 2c5 0 8 -2 8 -2zM67 15h225c114 0 194 74 217 181c23 108 -26 179 -140 179h-225z" />
    <glyph glyph-name="uni042D" unicode="&#x42d;" horiz-adv-x="575" 
d="M142 699c0 0 69 31 181 31c178 0 238 -123 185 -370c-53 -253 -165 -370 -342 -370c-123 0 -179 33 -179 33c2 5 4 8 9 13c0 0 62 -31 172 -31c151 0 267 80 324 353h-304s-1 3 0 8s3 8 3 8h304c52 260 -30 341 -177 341c-102 0 -172 -29 -172 -29c-4 3 -5 7 -4 13z" />
    <glyph glyph-name="uni042E" unicode="&#x42e;" horiz-adv-x="944" 
d="M358 368c55 253 174 362 338 362c165 0 237 -111 181 -370c-55 -259 -173 -370 -338 -370c-163 0 -237 109 -184 363h-216l-75 -351s-3 -2 -8 -2c-4 0 -7 2 -7 2l153 716s3 2 8 2c4 0 7 -2 7 -2l-75 -350h216zM373 360c-53 -252 17 -355 169 -355s266 103 319 355
c54 252 -16 355 -168 355s-266 -103 -320 -355z" />
    <glyph glyph-name="uni042F" unicode="&#x42f;" horiz-adv-x="620" 
d="M359 720h235l-153 -718s-2 -2 -7 -2c-6 0 -8 2 -8 2l70 327h-237l-241 -327s-5 -2 -11 -2c-4 0 -7 2 -7 2l242 329c-96 15 -137 87 -115 193c25 118 111 196 232 196zM499 344l77 361h-226c-103 0 -184 -68 -208 -181c-23 -112 25 -180 126 -180h231z" />
    <glyph glyph-name="uni0430" unicode="&#x430;" 
d="M310 536c81 0 138 -43 153 -129l26 119s2 2 7 2c6 0 8 -2 8 -2l-112 -524s-2 -2 -8 -2s-7 2 -7 2l26 121c-43 -76 -111 -133 -202 -133c-130 0 -179 94 -141 273s124 273 250 273zM449 341c16 85 -27 180 -140 180c-117 0 -198 -88 -234 -258s6 -258 128 -258
c116 0 198 108 216 195z" />
    <glyph glyph-name="uni0431" unicode="&#x431;" horiz-adv-x="570" 
d="M102 377c57 269 154 293 377 333c38 7 63 23 73 47c6 1 12 0 14 -4c-15 -26 -29 -46 -89 -57c-201 -40 -295 -50 -355 -297l-14 -59c54 135 141 174 237 174c129 0 180 -90 144 -262c-37 -172 -118 -262 -257 -262c-131 0 -190 89 -154 261c7 30 16 89 24 126zM342 499
c-104 0 -206 -53 -247 -247c-35 -162 12 -247 138 -247c130 0 206 85 241 247c34 162 -7 247 -132 247z" />
    <glyph glyph-name="uni0432" unicode="&#x432;" horiz-adv-x="513" 
d="M444 391c-15 -68 -55 -107 -120 -122c73 -11 101 -66 86 -136c-20 -92 -84 -133 -182 -133h-196l112 526h184c89 0 135 -46 116 -135zM155 512l-51 -237h172c81 0 139 43 154 118c18 81 -22 119 -103 119h-172zM49 14h187c85 0 142 39 160 121c15 74 -18 126 -108 126
h-187z" />
    <glyph glyph-name="uni0433" unicode="&#x433;" horiz-adv-x="394" 
d="M144 526h264s0 -2 -1 -7c0 -3 -2 -7 -2 -7h-250l-109 -510c-8 -5 -14 0 -14 0z" />
    <glyph glyph-name="uni0434" unicode="&#x434;" horiz-adv-x="558" 
d="M-32 14h51c35 45 61 98 112 274l70 238h292l-109 -512h63l-30 -140c-5 -2 -9 -2 -14 0l27 126h-451l-27 -126c-5 -2 -9 -2 -14 0zM211 512l-67 -228c-47 -161 -78 -227 -109 -270h335l106 498h-265z" />
    <glyph glyph-name="uni0435" unicode="&#x435;" horiz-adv-x="505" 
d="M423 259h-348c-32 -176 4 -254 129 -254c87 0 149 44 149 44c5 -1 8 -6 7 -11c0 0 -61 -48 -162 -48c-133 0 -175 95 -137 276c41 189 142 270 258 270c109 0 159 -66 136 -179c-13 -61 -32 -98 -32 -98zM440 360c22 101 -23 161 -123 161c-111 0 -200 -79 -239 -248h336
c0 -2 15 32 26 87z" />
    <glyph glyph-name="uni0436" unicode="&#x436;" horiz-adv-x="753" 
d="M526 274l135 -271s-2 -3 -9 -3c-8 0 -8 3 -8 3l-131 265h-136l-57 -266s0 -2 -7 -2s-7 2 -7 2l57 266h-136l-241 -265s-2 -3 -12 -3c-7 0 -7 3 -7 3l251 275l-116 247c6 2 11 2 17 0l112 -243h135l51 242s1 2 8 2s6 -2 6 -2l-51 -242h135l216 243c6 2 11 2 17 0z" />
    <glyph glyph-name="uni0437" unicode="&#x437;" horiz-adv-x="447" 
d="M384 394c-13 -62 -58 -114 -142 -127c84 -12 114 -66 101 -130c-16 -81 -68 -148 -227 -148c-91 0 -133 26 -133 26c2 6 4 9 8 12c0 0 48 -24 128 -24c135 0 193 51 211 135c18 81 -43 123 -150 123h-48s-1 3 0 7s3 7 3 7h48c89 0 167 27 187 120c15 73 -11 127 -124 127
c-77 0 -138 -21 -138 -21c-4 2 -5 8 -1 13c0 0 56 22 141 22c120 0 153 -60 136 -142z" />
    <glyph glyph-name="uni0438" unicode="&#x438;" horiz-adv-x="580" 
d="M50 16l460 508s1 2 11 2c12 0 9 -2 9 -2l-111 -522s-1 -2 -7 -2c-5 0 -7 2 -7 2l108 506l-459 -506s-1 -3 -10 -3s-11 3 -11 3l111 522s1 2 9 2c6 0 5 -2 5 -2z" />
    <glyph glyph-name="uni0439" unicode="&#x439;" horiz-adv-x="580" 
d="M496 688c0 0 -50 -50 -128 -50s-108 50 -108 50c2 5 5 8 11 9c5 -10 38 -45 100 -45c64 0 99 28 118 45c6 0 8 -3 7 -9zM50 16l460 508s1 2 11 2c12 0 9 -2 9 -2l-111 -522s-1 -2 -7 -2c-5 0 -7 2 -7 2l108 506l-459 -506s-1 -3 -10 -3s-11 3 -11 3l111 522s1 2 9 2
c6 0 5 -2 5 -2z" />
    <glyph glyph-name="uni043A" unicode="&#x43a;" horiz-adv-x="494" 
d="M246 282l225 243c6 2 12 2 18 0l-232 -251l145 -271s-2 -3 -9 -3c-8 0 -8 3 -8 3l-141 265h-141l-57 -267c-4 -2 -10 -2 -14 0l112 525c4 2 10 2 14 0l-52 -244h140z" />
    <glyph glyph-name="uni043B" unicode="&#x43b;" horiz-adv-x="551" 
d="M159 290c-80 -278 -128 -296 -176 -296c-11 0 -21 3 -21 3c-1 6 4 13 4 13c7 -2 13 -3 20 -3c63 0 100 83 159 287l68 232h288l-112 -524c-7 -6 -14 0 -14 0l109 510h-261z" />
    <glyph glyph-name="uni043C" unicode="&#x43c;" horiz-adv-x="677" 
d="M610 524c0 0 3 2 10 2s7 -2 7 -2l-111 -522s-1 -2 -8 -2c-5 0 -6 2 -6 2l106 499l-305 -364s-2 -1 -7 -1s-7 1 -7 1l-136 362l-106 -497s0 -2 -6 -2c-8 0 -8 2 -8 2l111 522s1 2 7 2c7 0 7 -2 7 -2l140 -374z" />
    <glyph glyph-name="uni043D" unicode="&#x43d;" horiz-adv-x="562" 
d="M103 265l-56 -263s0 -2 -7 -2s-7 2 -7 2l111 522s2 2 8 2c8 0 6 -2 6 -2l-52 -245h340l52 245s1 2 8 2c8 0 6 -2 6 -2l-111 -522s0 -2 -6 -2c-8 0 -8 2 -8 2l56 263h-340z" />
    <glyph glyph-name="uni043E" unicode="&#x43e;" horiz-adv-x="536" 
d="M61 263c42 198 131 273 256 273s182 -75 140 -273s-131 -273 -256 -273s-182 75 -140 273zM443 263c41 195 -13 259 -127 259c-112 0 -200 -64 -241 -259c-42 -195 14 -259 127 -259c112 0 199 64 241 259z" />
    <glyph glyph-name="uni043F" unicode="&#x43f;" horiz-adv-x="551" 
d="M155 512l-109 -510s1 -2 -7 -2c-7 0 -7 2 -7 2l112 524h357l-112 -524s1 -2 -5 -2c-10 0 -9 2 -9 2l109 510h-329z" />
    <glyph glyph-name="uni0440" unicode="&#x440;" 
d="M226 -10c-76 0 -137 46 -154 128l-78 -367s-2 -2 -7 -2c-6 0 -8 2 -8 2l164 773s3 2 9 2s6 -2 6 -2l-25 -121c43 76 119 133 202 133c131 0 180 -87 141 -273c-39 -183 -124 -273 -250 -273zM86 184c-15 -85 37 -179 140 -179c117 0 198 84 235 258
c37 177 -4 258 -128 258c-108 0 -198 -108 -217 -195z" />
    <glyph glyph-name="uni0441" unicode="&#x441;" horiz-adv-x="442" 
d="M323 521c-126 0 -211 -88 -247 -258s7 -258 137 -258c67 0 117 27 117 27c4 -2 6 -8 6 -13c0 0 -52 -29 -127 -29c-135 0 -186 96 -148 275s128 271 261 271c71 0 106 -22 106 -22c-1 -6 -5 -11 -10 -13c0 0 -33 20 -95 20z" />
    <glyph glyph-name="uni0442" unicode="&#x442;" horiz-adv-x="412" 
d="M77 526h352s3 -1 1 -7c-1 -6 -4 -7 -4 -7h-169l-109 -510s-1 -2 -7 -2s-7 2 -7 2l109 510h-169s-3 1 -2 7c2 6 5 7 5 7z" />
    <glyph glyph-name="uni0443" unicode="&#x443;" horiz-adv-x="551" 
d="M409 154l78 370c5 3 11 3 14 0l-106 -498c-45 -213 -106 -276 -268 -276c-72 0 -129 21 -129 21c0 5 3 10 8 13c0 0 60 -20 124 -20c155 0 209 60 251 262l21 97c-62 -90 -140 -133 -225 -133c-93 0 -138 62 -119 153l81 381c5 3 11 3 14 0l-80 -380
c-19 -86 21 -141 107 -141c75 0 159 38 229 151z" />
    <glyph glyph-name="uni0444" unicode="&#x444;" horiz-adv-x="774" 
d="M437 507c56 25 101 29 141 29c119 0 156 -88 116 -275s-113 -271 -232 -271c-56 0 -99 12 -128 30l-57 -268s-1 -2 -7 -2s-7 2 -7 2l57 268c-37 -18 -83 -30 -139 -30c-119 0 -158 88 -118 275s113 271 232 271c40 0 83 -4 128 -29l51 241s2 2 8 2c5 0 6 -2 6 -2zM77 263
c-38 -178 -5 -259 105 -259c50 0 95 9 141 31l97 457c-36 22 -78 30 -128 30c-110 0 -177 -81 -215 -259zM337 35c37 -22 78 -31 128 -31c110 0 177 81 215 259s6 259 -104 259c-50 0 -97 -8 -142 -30z" />
    <glyph glyph-name="uni0445" unicode="&#x445;" horiz-adv-x="474" 
d="M480 524l-243 -261l134 -261s-7 -5 -17 0l-128 250l-232 -250c-12 -5 -20 0 -20 0l245 263l-132 259c10 5 16 0 16 0l127 -248l231 248s11 5 19 0z" />
    <glyph glyph-name="uni0446" unicode="&#x446;" horiz-adv-x="569" 
d="M489 524c0 0 1 2 9 2c6 0 5 -2 5 -2l-108 -510h63l-30 -140c-5 -2 -9 -2 -14 0l27 126h-409l111 524s1 2 8 2c6 0 6 -2 6 -2l-108 -510h332z" />
    <glyph glyph-name="uni0447" unicode="&#x447;" horiz-adv-x="515" 
d="M465 524l-111 -522s-1 -2 -6 -2c-8 0 -8 2 -8 2l55 258c-34 -20 -98 -53 -186 -53c-127 0 -154 69 -135 160l33 157s1 2 8 2s6 -2 6 -2l-33 -158c-20 -92 11 -145 126 -145c80 0 149 33 185 55l52 248s1 2 9 2c5 0 5 -2 5 -2z" />
    <glyph glyph-name="uni0448" unicode="&#x448;" horiz-adv-x="815" 
d="M32 0l111 524s2 2 8 2c7 0 6 -2 6 -2l-108 -510h289l108 510s2 2 8 2s5 -2 5 -2l-108 -510h292l108 510s2 2 9 2c6 0 5 -2 5 -2l-111 -524h-622z" />
    <glyph glyph-name="uni0449" unicode="&#x449;" horiz-adv-x="831" 
d="M720 14l-30 -140c-5 -2 -9 -2 -14 0l27 126h-671l111 524s2 2 8 2c7 0 6 -2 6 -2l-108 -510h289l108 510s2 2 8 2s5 -2 5 -2l-108 -510h292l108 510s2 2 9 2c6 0 5 -2 5 -2l-108 -510h63z" />
    <glyph glyph-name="uni044A" unicode="&#x44a;" horiz-adv-x="550" 
d="M99 14h195c87 0 137 49 154 129s-12 131 -99 131h-195zM157 288h195c94 0 129 -59 110 -145c-18 -86 -77 -143 -171 -143h-209l109 512h-119c-3 7 3 14 3 14h123c9 0 9 -5 9 -5z" />
    <glyph glyph-name="uni044B" unicode="&#x44b;" horiz-adv-x="703" 
d="M639 524c9 6 14 0 14 0l-111 -522c-8 -5 -14 0 -14 0zM107 288h195c94 0 129 -59 110 -145c-18 -86 -77 -143 -171 -143h-209l111 524c8 5 14 0 14 0zM49 14h195c87 0 137 49 154 129s-12 131 -99 131h-195z" />
    <glyph glyph-name="uni044C" unicode="&#x44c;" horiz-adv-x="500" 
d="M107 288h195c94 0 129 -59 110 -145c-18 -86 -77 -143 -171 -143h-209l111 524c8 5 14 0 14 0zM49 14h195c87 0 137 49 154 129s-12 131 -99 131h-195z" />
    <glyph glyph-name="uni044D" unicode="&#x44d;" horiz-adv-x="446" 
d="M103 514c0 0 47 22 118 22c127 0 186 -88 147 -273c-40 -189 -136 -273 -263 -273c-76 0 -119 29 -119 29c2 5 5 9 11 12c14 -10 54 -27 109 -27c134 0 211 94 247 255h-232c-1 5 -1 6 -1 7c0 0 1 2 4 7h232c32 157 -11 249 -139 249c-50 0 -85 -10 -110 -20
c-5 3 -5 6 -4 12z" />
    <glyph glyph-name="uni044E" unicode="&#x44e;" horiz-adv-x="769" 
d="M286 266c43 196 132 270 260 270c127 0 186 -75 144 -273s-132 -273 -260 -273c-126 0 -185 72 -147 263h-182l-54 -251c-7 -4 -14 0 -14 0l111 522c9 5 14 0 14 0l-55 -258h183zM299 263c-42 -195 19 -258 134 -258s201 63 243 258c41 195 -18 258 -133 258
s-203 -63 -244 -258z" />
    <glyph glyph-name="uni044F" unicode="&#x44f;" horiz-adv-x="519" 
d="M281 526h188l-112 -524c-8 -5 -14 0 -14 0l49 230h-174c-12 0 -23 1 -33 2l-176 -232c-10 -6 -17 0 -17 0l179 235c-65 13 -96 61 -79 140c21 98 86 149 189 149zM395 246l57 266h-174c-94 0 -153 -46 -172 -135c-18 -86 16 -131 110 -131h179z" />
    <glyph glyph-name="uni0451" unicode="&#x451;" horiz-adv-x="505" 
d="M294 693l-4 -22s-7 -4 -17 -4c-9 0 -14 4 -14 4l4 22s7 4 16 4c10 0 15 -4 15 -4zM441 693l-4 -22s-6 -4 -16 -4c-9 0 -15 4 -15 4l4 22s8 4 17 4c10 0 14 -4 14 -4zM423 259h-348c-32 -176 4 -254 129 -254c87 0 149 44 149 44c5 -1 8 -6 7 -11c0 0 -61 -48 -162 -48
c-133 0 -175 95 -137 276c41 189 142 270 258 270c109 0 159 -66 136 -179c-13 -61 -32 -98 -32 -98zM440 360c22 101 -23 161 -123 161c-111 0 -200 -79 -239 -248h336c0 -2 15 32 26 87z" />
    <glyph glyph-name="uni2113" unicode="&#x2113;" horiz-adv-x="445" 
d="M182 5c73 0 151 58 151 58c4 2 9 -4 8 -8c0 0 -71 -65 -165 -65c-74 0 -105 49 -85 142l23 110c-24 -12 -73 -34 -91 -42c-5 6 -4 9 -2 13c32 14 67 28 97 44l61 289c30 140 87 204 182 204c80 0 111 -51 90 -149c-28 -130 -154 -259 -320 -351l-25 -118
c-18 -83 8 -127 76 -127zM435 600c19 89 -7 135 -75 135c-86 0 -138 -58 -165 -186l-60 -283c134 79 272 199 300 334z" />
    <glyph glyph-name="uni2117" unicode="&#x2117;" horiz-adv-x="809" 
d="M80 340c39 183 220 331 403 331s299 -148 260 -331s-218 -332 -401 -332s-301 149 -262 332zM728 340c37 175 -74 316 -249 316s-348 -141 -385 -316s76 -318 251 -318s346 143 383 318zM354 523h128c80 0 117 -48 100 -128c-17 -81 -75 -129 -155 -129h-113l-26 -126
c-6 -3 -12 -3 -15 0zM366 509l-49 -229h111c72 0 124 43 139 115c15 71 -18 114 -90 114h-111z" />
    <glyph glyph-name="uni2153" unicode="&#x2153;" horiz-adv-x="690" 
d="M592 700c0 0 2 2 8 2c5 0 5 -2 5 -2l-539 -709s-1 -1 -6 -1c-6 0 -7 1 -7 1zM108 613c49 10 100 37 139 77c4 1 9 1 13 0l-73 -341c-3 -1 -3 -1 -6 -1s-3 0 -6 1l69 324c-36 -35 -81 -58 -135 -71c-3 1 -3 8 -1 11zM588 89c-13 -59 -66 -94 -148 -94c-46 0 -80 11 -80 11
c0 4 2 9 6 11c0 0 32 -10 76 -10c76 0 123 31 134 82c13 61 -26 85 -79 85h-42c-1 3 0 9 2 12h42c54 0 91 28 101 75c11 49 -16 75 -76 75c-50 0 -85 -9 -85 -9c-1 3 -1 8 1 11c0 0 37 10 86 10c69 0 99 -30 86 -87c-8 -39 -36 -72 -78 -81c39 -7 65 -37 54 -91z" />
    <glyph glyph-name="uni2154" unicode="&#x2154;" horiz-adv-x="754" 
d="M115 -9l539 709s4 2 8 2c5 0 5 -2 5 -2l-539 -709s-1 -1 -6 -1c-6 0 -7 1 -7 1zM73 387c29 136 223 103 248 218c7 36 -2 77 -82 77c-40 -1 -69 -8 -79 -11c-2 3 -2 8 0 12c-2 0 33 11 82 11c86 0 100 -44 90 -90c-26 -124 -220 -91 -247 -217c-2 -9 -4 -19 -4 -29h199
c1 -1 1 -4 1 -6c-1 -2 -2 -5 -3 -6h-208s-2 18 3 41zM653 89c-13 -59 -66 -94 -148 -94c-46 0 -80 11 -80 11c0 4 2 9 6 11c0 0 32 -10 76 -10c76 0 123 31 134 82c13 61 -26 85 -79 85h-42c-1 3 0 9 2 12h42c54 0 91 28 101 75c11 49 -16 75 -76 75c-50 0 -85 -9 -85 -9
c-1 3 -1 8 1 11c0 0 37 10 86 10c69 0 99 -30 86 -87c-8 -39 -36 -72 -78 -81c39 -7 65 -37 54 -91z" />
    <glyph glyph-name="uni2196" unicode="&#x2196;" horiz-adv-x="513" 
d="M410 525c2 -4 1 -9 -3 -14h-253l271 -328c1 3 0 -1 -6 -6c-5 -5 -11 -7 -7 -5l-270 328l-52 -251c-8 -4 -11 -3 -15 -1l58 277h277z" />
    <glyph glyph-name="uni2197" unicode="&#x2197;" horiz-adv-x="515" 
d="M446 511h-253c-2 5 -1 10 3 14h277l-60 -277c-6 -2 -9 -3 -15 1l54 251l-408 -328c2 -2 -2 0 -5 5c-4 5 -5 9 -4 6z" />
    <glyph glyph-name="uni2198" unicode="&#x2198;" horiz-adv-x="505" 
d="M104 150c-2 4 -1 9 3 14h253l-271 328c-2 -3 0 1 6 6c5 5 10 7 7 5l269 -328l53 251c7 4 10 3 15 1l-58 -277h-277z" />
    <glyph glyph-name="uni2199" unicode="&#x2199;" horiz-adv-x="513" 
d="M85 164h253c2 -5 1 -10 -3 -14h-277l60 277c5 2 8 3 15 -1l-55 -251l409 328c-3 2 2 0 5 -5c4 -5 4 -9 4 -6z" />
    <glyph glyph-name="uni2215" unicode="&#x2215;" horiz-adv-x="458" 
d="M-42 -7l539 707s1 2 9 2c7 0 8 -2 8 -2l-540 -707s-2 -2 -8 -2c-7 0 -8 2 -8 2z" />
    <glyph glyph-name="uni2219" unicode="&#x2219;" horiz-adv-x="208" 
d="M106 321c-7 0 -14 5 -12 15c3 10 12 15 19 15s14 -5 11 -15c-2 -10 -11 -15 -18 -15z" />
    <glyph glyph-name="uogonek" unicode="&#x173;" horiz-adv-x="551" 
d="M322 -162c27 0 48 12 48 12c3 -4 4 -6 4 -11c0 0 -22 -15 -57 -15c-48 0 -72 23 -63 62c12 58 66 103 125 126l23 111c-62 -90 -140 -133 -225 -133c-93 0 -138 62 -119 153l81 381c5 3 11 3 14 0l-80 -380c-19 -86 23 -140 109 -140c75 0 157 37 227 150l78 370
c5 3 11 3 14 0l-110 -518c-56 -21 -111 -65 -122 -117c-7 -37 14 -51 53 -51z" />
    <glyph glyph-name="uring" unicode="&#x16f;" horiz-adv-x="551" 
d="M58 143l81 381c5 3 11 3 14 0l-80 -380c-19 -86 23 -140 109 -140c75 0 157 37 227 150l78 370c5 3 11 3 14 0l-111 -522c-4 -3 -10 -3 -14 0l26 121c-62 -90 -140 -133 -225 -133c-93 0 -138 62 -119 153zM336 604c-56 0 -91 33 -78 94s69 92 119 92s94 -30 80 -92
c-13 -61 -66 -94 -121 -94zM443 698c9 41 -12 79 -70 79c-57 0 -92 -39 -101 -79c-8 -41 10 -82 67 -82c58 0 96 42 104 82z" />
    <glyph glyph-name="utilde" unicode="&#x169;" horiz-adv-x="551" 
d="M58 143l81 381c5 3 11 3 14 0l-80 -380c-19 -86 23 -140 109 -140c75 0 157 37 227 150l78 370c5 3 11 3 14 0l-111 -522c-4 -3 -10 -3 -14 0l26 121c-62 -90 -140 -133 -225 -133c-93 0 -138 62 -119 153zM410 674c31 0 47 23 53 33c5 -1 9 -3 11 -7
c0 0 -21 -41 -69 -41c-45 0 -58 40 -96 40c-37 0 -54 -34 -54 -34c-5 1 -8 2 -10 6c0 0 19 43 70 43c38 0 50 -40 95 -40z" />
    <glyph glyph-name="v" unicode="v" horiz-adv-x="490" 
d="M485 524c0 0 5 2 10 2s6 -2 6 -2l-320 -528h-1l-99 528s3 2 9 2c4 0 5 -2 5 -2l76 -404l16 -92l52 89z" />
    <glyph glyph-name="w" unicode="w" horiz-adv-x="782" 
d="M775 524c0 0 5 2 9 2c6 0 7 -2 7 -2l-291 -527h-1l-69 493l-278 -493h-1l-67 527s3 2 9 2c4 0 5 -2 5 -2l54 -421l6 -72l39 72l237 421h5l59 -421l8 -72l37 72z" />
    <glyph glyph-name="wacute" unicode="&#x1e83;" horiz-adv-x="782" 
d="M397 622l156 152c6 -1 7 -5 9 -10l-157 -150c-4 1 -7 4 -8 8zM775 524c0 0 5 2 9 2c6 0 7 -2 7 -2l-291 -527h-1l-69 493l-278 -493h-1l-67 527s3 2 9 2c4 0 5 -2 5 -2l54 -421l6 -72l39 72l237 421h5l59 -421l8 -72l37 72z" />
    <glyph glyph-name="wcircumflex" unicode="&#x175;" horiz-adv-x="782" 
d="M328 602c-5 2 -6 6 -6 10l149 101h13l103 -101c-1 -5 -4 -8 -9 -9l-101 98zM775 524c0 0 5 2 9 2c6 0 7 -2 7 -2l-291 -527h-1l-69 493l-278 -493h-1l-67 527s3 2 9 2c4 0 5 -2 5 -2l54 -421l6 -72l39 72l237 421h5l59 -421l8 -72l37 72z" />
    <glyph glyph-name="wdieresis" unicode="&#x1e85;" horiz-adv-x="782" 
d="M419 694l-4 -20s-6 -4 -15 -4c-8 0 -13 4 -13 4l4 20s7 4 15 4c9 0 13 -4 13 -4zM553 694l-4 -20s-6 -4 -15 -4c-8 0 -13 4 -13 4l4 20s7 4 15 4c9 0 13 -4 13 -4zM775 524c0 0 5 2 9 2c6 0 7 -2 7 -2l-291 -527h-1l-69 493l-278 -493h-1l-67 527s3 2 9 2c4 0 5 -2 5 -2
l54 -421l6 -72l39 72l237 421h5l59 -421l8 -72l37 72z" />
    <glyph glyph-name="wgrave" unicode="&#x1e81;" horiz-adv-x="782" 
d="M384 764c4 5 7 8 13 10l92 -152c-3 -4 -6 -7 -12 -8zM775 524c0 0 5 2 9 2c6 0 7 -2 7 -2l-291 -527h-1l-69 493l-278 -493h-1l-67 527s3 2 9 2c4 0 5 -2 5 -2l54 -421l6 -72l39 72l237 421h5l59 -421l8 -72l37 72z" />
    <glyph glyph-name="x" unicode="x" horiz-adv-x="474" 
d="M480 524l-243 -261l134 -261s-7 -5 -17 0l-128 250l-232 -250c-12 -5 -20 0 -20 0l245 263l-132 259c10 5 16 0 16 0l127 -248l231 248s11 5 19 0z" />
    <glyph glyph-name="y" unicode="y" horiz-adv-x="551" 
d="M409 154l78 370c5 3 11 3 14 0l-106 -498c-45 -213 -106 -276 -268 -276c-72 0 -129 21 -129 21c0 5 3 10 8 13c0 0 60 -20 124 -20c155 0 209 60 251 262l21 97c-62 -90 -140 -133 -225 -133c-93 0 -138 62 -119 153l81 381c5 3 11 3 14 0l-80 -380
c-19 -86 21 -141 107 -141c75 0 159 38 229 151z" />
    <glyph glyph-name="yacute" unicode="&#xfd;" horiz-adv-x="551" 
d="M304 620l156 152c6 -1 7 -5 9 -10l-157 -150c-5 1 -7 4 -8 8zM409 154l78 370c5 3 11 3 14 0l-106 -498c-45 -213 -106 -276 -268 -276c-72 0 -129 21 -129 21c0 5 3 10 8 13c0 0 60 -20 124 -20c155 0 209 60 251 262l21 97c-62 -90 -140 -133 -225 -133
c-93 0 -138 62 -119 153l81 381c5 3 11 3 14 0l-80 -380c-19 -86 23 -140 109 -140c75 0 157 37 227 150z" />
    <glyph glyph-name="ycircumflex" unicode="&#x177;" horiz-adv-x="551" 
d="M214 602c-5 2 -6 6 -6 10l149 101h13l103 -101c-1 -5 -5 -9 -10 -10l-102 98zM409 154l78 370c5 3 11 3 14 0l-106 -498c-45 -213 -106 -276 -268 -276c-72 0 -129 21 -129 21c0 5 3 10 8 13c0 0 60 -20 124 -20c155 0 209 60 251 262l21 97c-62 -90 -140 -133 -225 -133
c-93 0 -138 62 -119 153l81 381c5 3 11 3 14 0l-80 -380c-19 -86 23 -140 109 -140c75 0 157 37 227 150z" />
    <glyph glyph-name="ydieresis" unicode="&#xff;" horiz-adv-x="551" 
d="M300 703l-4 -20s-6 -4 -15 -4c-8 0 -13 4 -13 4l4 20s7 4 15 4c9 0 13 -4 13 -4zM444 703l-4 -20s-6 -4 -15 -4c-8 0 -13 4 -13 4l4 20s7 4 15 4c9 0 13 -4 13 -4zM409 154l78 370c5 3 11 3 14 0l-106 -498c-45 -213 -106 -276 -268 -276c-72 0 -129 21 -129 21
c0 5 3 10 8 13c0 0 60 -20 124 -20c155 0 209 60 251 262l21 97c-62 -90 -140 -133 -225 -133c-93 0 -138 62 -119 153l81 381c5 3 11 3 14 0l-80 -380c-19 -86 23 -140 109 -140c75 0 157 37 227 150z" />
    <glyph glyph-name="yen" unicode="&#xa5;" horiz-adv-x="597" 
d="M465 269h-177l-18 -87h177c1 -5 0 -10 -4 -15h-177l-35 -165c-5 -2 -9 -2 -14 0l35 165h-175c0 5 1 10 4 15h175l18 87h-175c-1 5 0 10 3 15h175l-157 399s1 1 6 1c9 0 10 -2 10 -2l151 -385l331 385s1 2 7 2c8 0 9 -2 9 -2l-342 -398h176c1 -5 0 -10 -3 -15z" />
    <glyph glyph-name="ygrave" unicode="&#x1ef3;" horiz-adv-x="551" 
d="M281 749c4 5 7 8 13 10l92 -152c-3 -4 -7 -7 -12 -8zM409 154l78 370c5 3 11 3 14 0l-106 -498c-45 -213 -106 -276 -268 -276c-72 0 -129 21 -129 21c0 5 3 10 8 13c0 0 60 -20 124 -20c155 0 209 60 251 262l21 97c-62 -90 -140 -133 -225 -133c-93 0 -138 62 -119 153
l81 381c5 3 11 3 14 0l-80 -380c-19 -86 23 -140 109 -140c75 0 157 37 227 150z" />
    <glyph glyph-name="z" unicode="z" horiz-adv-x="437" 
d="M-1 14h326c1 -5 0 -9 -3 -14h-343c-1 5 0 10 3 15l427 497h-296c-1 5 0 9 3 14h313c1 -5 0 -10 -3 -15z" />
    <glyph glyph-name="zacute" unicode="&#x17a;" horiz-adv-x="437" 
d="M-2 14h327c1 -5 0 -9 -3 -14h-343c-1 5 0 10 3 15l428 497h-297c-1 5 0 9 3 14h313c1 -5 0 -10 -3 -15zM256 620l156 152c6 -1 7 -5 9 -10l-157 -150c-5 1 -7 4 -8 8z" />
    <glyph glyph-name="zcaron" unicode="&#x17e;" horiz-adv-x="437" 
d="M-1 14h326c1 -5 0 -9 -3 -14h-343c-1 5 0 10 3 15l427 497h-296c-1 5 0 9 3 14h313c1 -5 0 -10 -3 -15zM284 600l-96 92c2 4 4 7 9 9l95 -88l131 88c5 -1 8 -5 7 -10l-133 -91h-13z" />
    <glyph glyph-name="zdotaccent" unicode="&#x17c;" horiz-adv-x="437" 
d="M-2 14h327c1 -5 0 -9 -3 -14h-343c-1 5 0 10 3 15l428 497h-297c-1 5 0 9 3 14h313c1 -5 0 -10 -3 -15zM330 701l-4 -20s-6 -4 -15 -4c-8 0 -13 4 -13 4l4 20s7 4 15 4c9 0 13 -4 13 -4z" />
    <glyph glyph-name="zero" unicode="0" horiz-adv-x="621" 
d="M243 -10c-148 0 -209 101 -156 350c53 246 154 350 304 350s211 -101 158 -350s-156 -350 -306 -350zM391 676c-147 0 -241 -110 -289 -336c-48 -225 -5 -335 142 -335c149 0 242 110 290 335c48 226 6 336 -143 336z" />
    <glyph glyph-name="zero.denom" horiz-adv-x="346" 
d="M105 -5c-84 0 -110 56 -84 177c25 121 75 176 159 176s111 -55 86 -176c-26 -121 -77 -177 -161 -177zM177 336c-75 0 -121 -52 -144 -164c-24 -113 -1 -165 74 -165c76 0 123 52 147 165c23 112 -1 164 -77 164z" />
    <glyph glyph-name="zero.num" horiz-adv-x="345" 
d="M178 341c-84 0 -110 56 -84 177s75 176 159 176s112 -55 86 -176s-77 -177 -161 -177zM251 682c-75 0 -121 -52 -145 -164c-24 -113 0 -165 75 -165c76 0 122 52 146 165c24 112 0 164 -76 164z" />
    <glyph glyph-name="zeroinferior" unicode="&#x2080;" horiz-adv-x="345" 
d="M84 -101c-84 0 -110 56 -84 177s76 176 160 176s111 -55 85 -176s-77 -177 -161 -177zM157 240c-75 0 -121 -52 -145 -164c-24 -113 0 -165 75 -165c76 0 122 52 146 165c24 112 0 164 -76 164z" />
    </font>
</defs>
</svg>
